<?xml version="1.0" encoding="UTF-8"?><svg xmlns="http://www.w3.org/2000/svg" width="800" height="800" style="shape-rendering:geometricPrecision;text-rendering:geometricPrecision;image-rendering:optimizeQuality;fill-rule:evenodd;clip-rule:evenodd"><path style="opacity:1" fill="#273339" d="M761.5 134.5c.167 75.334 0 150.667-.5 226a190.921 190.921 0 0 1-21.5 10.5l-8 6a2934.895 2934.895 0 0 0-86 49.5c-.985-4.134-1.318-8.468-1-13 29.338-17.167 58.671-34.333 88-51.5a84.545 84.545 0 0 1 18-8.5c.167-70.334 0-140.667-.5-211 .564-4.29-1.269-6.457-5.5-6.5a203.265 203.265 0 0 0-37-21l-4-4a91.311 91.311 0 0 1-23-13 457.332 457.332 0 0 0-22-11l-4-4a483.026 483.026 0 0 1-51-29c-3.415-.406-6.082-2.072-8-5a90.401 90.401 0 0 0-14-6c-5.722-6.435-12.722-8.768-21-7-7.36 5.663-15.36 9.996-24 13-3.619 3.977-7.952 6.644-13 8-2.537 2.546-5.537 4.212-9 5l-4 4-10 4a2551.356 2551.356 0 0 0-60 36c7.02 4.175 14.02 8.342 21 12.5a151.198 151.198 0 0 1-24-1c-1.933-2.096-4.267-3.596-7-4.5-6.921-5.743-6.588-11.076 1-16a12271.425 12271.425 0 0 0 129-74c9.584-1.031 17.918 1.636 25 8 4.302.286 7.635 2.286 10 6a974.743 974.743 0 0 1 66 38l15 7 4 4a457.332 457.332 0 0 1 22 11 29746.604 29746.604 0 0 0 46 28c2.71 1.747 5.71 2.747 9 3a22.162 22.162 0 0 1 4 6.5Z"/><path style="opacity:1" fill="#28343a" d="M402.5 117.5c-7.901 1.313-15.901 1.313-24 0a161.736 161.736 0 0 0-14-6.5 108.394 108.394 0 0 1-19-13 1516.16 1516.16 0 0 1-91-52A228.066 228.066 0 0 0 230 34.5 112.066 112.066 0 0 0 206.5 48l-10 4-3 3c-6.771 2.445-12.771 6.111-18 11l-10 4-4 4a520.666 520.666 0 0 0-59 34l-9 3c-3.796 3.592-8.13 6.259-13 8A361.546 361.546 0 0 1 48 137.5c-.667 72-.667 144 0 216a1665.932 1665.932 0 0 0 95.5 55 53.805 53.805 0 0 1 1 14 4079.433 4079.433 0 0 1-106.5-62 1830.796 1830.796 0 0 1-1.5-103c-.473-42.706.027-85.373 1.5-128A579.672 579.672 0 0 1 80.5 107c3.83-4.163 8.497-6.829 14-8a336.071 336.071 0 0 1 40-23l23-15a175.013 175.013 0 0 0 28-16l4-1a583.354 583.354 0 0 1 33-19c12.235-2.801 22.902.199 32 9a2084.03 2084.03 0 0 1 77 44c5.503 1.17 10.17 3.838 14 8a51.43 51.43 0 0 1 14 8 1798.781 1798.781 0 0 1 43 23.5Z"/><path style="opacity:1" fill="#fdfefe" d="M378.5 117.5a3026.14 3026.14 0 0 1-110 1 200.977 200.977 0 0 1-23-13.5c-3.415-.406-6.082-2.072-8-5a42.498 42.498 0 0 0-13 0 2035.561 2035.561 0 0 0-33 18.5c-10.672-.167-21.339 0-32 .5-12.2 5.013-17.2 14.18-15 27.5a162.329 162.329 0 0 0-30 17.5 24.569 24.569 0 0 0-8 3 6.978 6.978 0 0 0-2.5 3.5 5697.651 5697.651 0 0 0 0 151 76.322 76.322 0 0 0 18.5 10.5 139.14 139.14 0 0 0 22 12.5c.331 21.507-.003 42.84-1 64a1665.932 1665.932 0 0 1-95.5-55c-.667-72-.667-144 0-216A361.546 361.546 0 0 0 80.5 119c4.87-1.741 9.204-4.408 13-8l9-3a520.666 520.666 0 0 1 59-34l4-4 10-4c5.229-4.889 11.229-8.555 18-11l3-3 10-4A112.066 112.066 0 0 1 230 34.5 228.066 228.066 0 0 1 254.5 46a1516.16 1516.16 0 0 0 91 52 108.394 108.394 0 0 0 19 13 161.736 161.736 0 0 1 14 6.5Z"/><path style="opacity:1" fill="#fefefe" d="M644.5 413.5v-63a273.466 273.466 0 0 0 30-18.5c7.819-2.16 14.319-6.327 19.5-12.5.667-48.667.667-97.333 0-146a69.2 69.2 0 0 0-4.5-6.5 197.694 197.694 0 0 0-17-8l-9-7a271.634 271.634 0 0 0-18-9.5c-.209-12.365-6.209-20.198-18-23.5-7.993-.5-15.993-.666-24-.5a14.698 14.698 0 0 0-3-3.5 113.107 113.107 0 0 1-28-15c-8.302-.757-15.635 1.576-22 7a68.695 68.695 0 0 0-14 7c-3.72-.24-6.387 1.26-8 4.5h-67c-6.98-4.158-13.98-8.325-21-12.5a2551.356 2551.356 0 0 1 60-36l10-4 4-4c3.463-.788 6.463-2.454 9-5 5.048-1.356 9.381-4.023 13-8 8.64-3.004 16.64-7.337 24-13 8.278-1.768 15.278.565 21 7a90.401 90.401 0 0 1 14 6c1.918 2.928 4.585 4.594 8 5a483.026 483.026 0 0 0 51 29l4 4a457.332 457.332 0 0 1 22 11 91.311 91.311 0 0 0 23 13l4 4a203.265 203.265 0 0 1 37 21c4.231.043 6.064 2.21 5.5 6.5.5 70.333.667 140.666.5 211a84.545 84.545 0 0 0-18 8.5 762331.872 762331.872 0 0 1-88 51.5Z"/><path style="opacity:1" fill="#e2eaf8" d="M576.5-.5h9a2.429 2.429 0 0 0 .5 2c1.049-1.017 2.216-1.184 3.5-.5a20.495 20.495 0 0 0 2.5 3.5c1.356-.88 2.856-1.214 4.5-1v3c2.822 1.432 6.489 2.432 11 3v3c2.092.061 3.592 1.061 4.5 3 2.537-.677 4.537.323 6 3 2.361-.566 4.194.434 5.5 3l2-1c.35 2.067 2.017 3.067 5 3v3h6v3h5v3h6v3a27.247 27.247 0 0 0 9 3c-.219 1.175.114 2.175 1 3a6.846 6.846 0 0 1 4-1v3a8.435 8.435 0 0 1 4 .5c-1.154.914-.987 1.747.5 2.5 1.299-.466 2.799-.466 4.5 0v3h6v3h5v3a428.986 428.986 0 0 0 20 8.5l-2 1c2.522.61 4.522 1.943 6 4 1.634.493 3.301.66 5 .5v3c2.908-.238 5.242.762 7 3 .951-.826 1.951-.992 3-.5l-1 1a6.977 6.977 0 0 1 3.5 2.5l1-1c.483.948.649 1.948.5 3h6v3h5v3c1.951-.273 3.451.393 4.5 2l1-1c6 4.386 12.5 7.886 19.5 10.5l-1 1c1.525 1.009 3.192 1.509 5 1.5v3h6v3h5v3c2.041.354 3.874.354 5.5 0 .483.948.649 1.948.5 3 2.836 1.276 5.836 1.942 9 2a2613.73 2613.73 0 0 1 2 143h-30c.332-41.17-.001-82.17-1-123a22.162 22.162 0 0 0-4-6.5c-3.29-.253-6.29-1.253-9-3a29746.604 29746.604 0 0 1-46-28 457.332 457.332 0 0 0-22-11l-4-4-15-7a974.743 974.743 0 0 0-66-38c-2.365-3.714-5.698-5.714-10-6-7.082-6.364-15.416-9.031-25-8a12271.425 12271.425 0 0 1-129 74c-7.588 4.924-7.921 10.257-1 16 2.733.904 5.067 2.404 7 4.5-11.569 1.319-23.235 1.319-35 0a1798.781 1798.781 0 0 0-43-23.5 51.43 51.43 0 0 0-14-8c-3.83-4.162-8.497-6.83-14-8a2084.03 2084.03 0 0 0-77-44c-9.098-8.801-19.765-11.801-32-9a583.354 583.354 0 0 0-33 19l-4 1a175.013 175.013 0 0 1-28 16l-23 15a336.071 336.071 0 0 0-40 23c-5.503 1.171-10.17 3.837-14 8A579.672 579.672 0 0 0 38 129.5a2806.913 2806.913 0 0 0-1.5 128h-30c.014-47.648.014-95.148 0-142.5a169.104 169.104 0 0 0 15-5.5v-3a58.967 58.967 0 0 0 11-3v-3a417.79 417.79 0 0 0 15-7 32.686 32.686 0 0 0 8.5-6l1 1c1.049-1.607 2.549-2.273 4.5-2v-3a59.029 59.029 0 0 1 11-3 4.932 4.932 0 0 1 .5-3l1 1c2.015-3.065 4.515-4.065 7.5-3v-3h5v-3c1.7.16 3.366-.007 5-.5 1.478-2.057 3.478-3.39 6-4l-2-1a18.436 18.436 0 0 1 6-.5v-3a87.51 87.51 0 0 0 14-5v-3h6v-3h5v-3c1.701-.466 3.201-.466 4.5 0 3.279-4.047 7.946-7.047 14-9a18.264 18.264 0 0 0 5-4l1 1c1.049-1.607 2.549-2.273 4.5-2v-3h5v-3h6v-3c4.612-1.195 9.279-2.862 14-5v-3c1.701-.466 3.201-.466 4.5 0 .908-1.939 2.408-2.939 4.5-3v-3h6v-3c1.788.285 3.455-.048 5-1a38.767 38.767 0 0 0 7-4.5 49.25 49.25 0 0 1 14 0c2.025 1.677 4.359 2.677 7 3-1.134 1.016-.801 1.683 1 2l5 1-1 1c2.622 3.073 5.955 4.573 10 4.5v3h6v3c3.191.262 5.858 1.596 8 4a9.864 9.864 0 0 0 6 1v3c3.58 1.22 7.247 2.386 11 3.5l-2 1c2.767.678 4.934 2.178 6.5 4.5l1-1c3.769 1.797 7.102 4.13 10 7a3.942 3.942 0 0 1 2-1c1.482 1.612 3.315 2.612 5.5 3v3h6v3h5v3h6v3a87.51 87.51 0 0 0 14 5v3c1.699-.16 3.366.007 5 .5l-1 1c1.525 1.009 3.192 1.509 5 1.5v3h6v3h5v3c2.985-1.065 5.485-.065 7.5 3l1-1c.483.948.649 1.948.5 3h5v3h6v3c2.133 1.386 5.133 2.386 9 3v3c2.908-.238 5.242.762 7 3l2-1c.35 2.067 2.017 3.067 5 3v3h6v3c2.516-.255 4.85-1.089 7-2.5a626.207 626.207 0 0 1 29-17c.837-1.011 1.17-2.178 1-3.5 4.493-.216 7.993-2.216 10.5-6 1.011.837 2.178 1.17 3.5 1v-3a59.031 59.031 0 0 0 11-3v-3c1.808.009 3.475-.491 5-1.5l-1-1a12.935 12.935 0 0 1 5-.5v-3a9.864 9.864 0 0 0 6-1 35.213 35.213 0 0 1 8-4v-3h6v-3a59.031 59.031 0 0 1 11-3v-3c1.808.009 3.475-.491 5-1.5-1.388-.89-1.222-1.39.5-1.5 2.071 1.167 3.571.5 4.5-2 6.434-2.343 12.767-5.343 19-9v-3a59.031 59.031 0 0 1 11-3 4.934 4.934 0 0 1 .5-3l1 1c1.995-2.247 4.495-3.247 7.5-3v-3h5v-3h6v-3c1.808.009 3.475-.491 5-1.5l-1-1a12.936 12.936 0 0 1 5-.5v-3c3.552.188 6.219-1.145 8-4Z"/><path style="opacity:1" fill="#273339" d="M268.5 118.5a163.67 163.67 0 0 1-25-1c-4.372-.966-7.872-3.299-10.5-7-2.09.652-4.257.819-6.5.5a32.86 32.86 0 0 1-10 6.5 163.67 163.67 0 0 1-25 1 2035.561 2035.561 0 0 1 33-18.5 42.498 42.498 0 0 1 13 0c1.918 2.928 4.585 4.594 8 5a200.977 200.977 0 0 0 23 13.5Z"/><path style="opacity:1" fill="#283339" d="M603.5 118.5a163.67 163.67 0 0 1-25-1 127.404 127.404 0 0 0-11-7 210.274 210.274 0 0 0-13 7 176.739 176.739 0 0 1-26 1c1.613-3.24 4.28-4.74 8-4.5a68.695 68.695 0 0 1 14-7c6.365-5.424 13.698-7.757 22-7a113.107 113.107 0 0 0 28 15 14.698 14.698 0 0 1 3 3.5Z"/><path style="opacity:1" fill="#dae2ef" d="M243.5 117.5c-9 1.333-18 1.333-27 0a32.86 32.86 0 0 0 10-6.5c2.243.319 4.41.152 6.5-.5 2.628 3.701 6.128 6.034 10.5 7ZM578.5 117.5c-8 1.333-16 1.333-24 0a210.274 210.274 0 0 1 13-7 127.404 127.404 0 0 1 11 7Z"/><path style="opacity:.999" fill="#293e55" d="M216.5 117.5c9 1.333 18 1.333 27 0a163.67 163.67 0 0 0 25 1 3026.14 3026.14 0 0 0 110-1c8.099 1.313 16.099 1.313 24 0 11.765 1.319 23.431 1.319 35 0a151.198 151.198 0 0 0 24 1h67c8.751.303 17.418-.03 26-1 8 1.333 16 1.333 24 0a163.67 163.67 0 0 0 25 1c8.007-.166 16.007 0 24 .5 11.791 3.302 17.791 11.135 18 23.5-1.294 4.233-1.294 8.566 0 13a2434.836 2434.836 0 0 0-1.5 70c-1.789 1.729-3.956 2.396-6.5 2a6.547 6.547 0 0 1-3-3c.167-29.335 0-58.669-.5-88-1.99-3.99-5.157-6.49-9.5-7.5a26966.5 26966.5 0 0 0-464 1 25.55 25.55 0 0 0-5.5 6.5c-.833 137.167-.666 274.167.5 411 1.085 4.254 3.752 7.087 8 8.5 9.327.5 18.661.666 28 .5-.48-34.395.02-68.729 1.5-103 2.167-4.833 5.667-8.333 10.5-10.5a457.974 457.974 0 0 1 23-2.5 119.617 119.617 0 0 1 13-13c.543-.06.876-.393 1-1a225.771 225.771 0 0 0-30-1c-10.02-.852-16.186-6.185-18.5-16a3304.848 3304.848 0 0 1 0-115c3.031-7.701 8.531-12.534 16.5-14.5 66-.667 132-.667 198 0 2.715.875 4.048 2.708 4 5.5-.359 1.871-1.359 3.371-3 4.5-67.082.007-134.082.673-201 2-2.117 1.731-3.617 3.898-4.5 6.5a2969.016 2969.016 0 0 0 0 109c1.167 3.833 3.667 6.333 7.5 7.5 123.333.667 246.667.667 370 0 3.833-1.167 6.333-3.667 7.5-7.5l1-32a9.175 9.175 0 0 1 4.5-2c2.082.124 3.582 1.124 4.5 3 .667 11 .667 22 0 33-.787 4.241-2.621 7.908-5.5 11-3.775 3.037-8.108 4.704-13 5a225.771 225.771 0 0 0-30 1c.124.607.457.94 1 1a119.617 119.617 0 0 1 13 13 64.873 64.873 0 0 0 16 1c4.896.303 9.23 1.97 13 5 3.338 3.679 5.338 8.012 6 13v97c9.515.327 18.848-.006 28-1 4.254-1.085 7.087-3.752 8.5-8l1-297c1.11-1.537 2.61-2.203 4.5-2 1.871.359 3.371 1.359 4.5 3 .168 28.17.668 56.17 1.5 84a61.281 61.281 0 0 0-1 15v63c-.318 4.532.015 8.866 1 13a116.8 116.8 0 0 0-1 21 5509.9 5509.9 0 0 1-.5 105c-2.5 6.5-7 11-13.5 13.5-6.658.5-13.325.666-20 .5h-13c.19 3.532-.477 6.865-2 10-3.074 4.404-7.074 7.737-12 10a754.467 754.467 0 0 1-35 1.5l20 20c4.989.499 9.989.666 15 .5h12c2.59 3.117 2.59 6.117 0 9-3.9.93-7.9 1.263-12 1-23.408-.323-46.742.011-70 1-7.901-1.313-15.901-1.313-24 0a11967.705 11967.705 0 0 0-155-1.5c-1.729-1.789-2.396-3.956-2-6.5.077-1.25.744-2.083 2-2.5l219-1a348.625 348.625 0 0 0-16-15.5 25.14 25.14 0 0 0-4-4.5c-92.667-.667-185.333-.667-278 0a25.14 25.14 0 0 0-4 4.5 348.625 348.625 0 0 0-16 15.5l79 1c1.537 1.11 2.203 2.61 2 4.5-.128 1.59-.795 2.923-2 4a94.977 94.977 0 0 0-8 2 163.67 163.67 0 0 0-25-1h-80c-3.43.393-6.596-.273-9.5-2-1.147-7.339 2.019-10.006 9.5-8h12c2.357.163 4.69-.003 7-.5l20-20c-8.994-.5-17.994-.666-27-.5a29.351 29.351 0 0 1-12-2c-4.108-3.614-7.275-7.947-9.5-13a18.453 18.453 0 0 1-.5-6h-5c-9.339.166-18.673 0-28-.5-6.5-2.5-11-7-13.5-13.5-.5-35.998-.667-71.998-.5-108v-22a53.805 53.805 0 0 0-1-14c.997-21.16 1.331-42.493 1-64a53.805 53.805 0 0 0-1-14 7227.48 7227.48 0 0 0 1-170v-14c-2.2-13.32 2.8-22.487 15-27.5 10.661-.5 21.328-.667 32-.5a163.67 163.67 0 0 0 25-1Z"/><path style="opacity:1" fill="#bdcee8" d="M634.5 224.5a600.937 600.937 0 0 1-1-49c-3.439-.247-6.772.086-10 1 .535-2.738-.465-4.572-3-5.5a51050.725 51050.725 0 0 0-452 0c-2.535.928-3.535 2.762-3 5.5-3.228-.914-6.561-1.247-10-1v372a28162.287 28162.287 0 0 1-.5-411 25.55 25.55 0 0 1 5.5-6.5 26966.5 26966.5 0 0 1 464-1c4.343 1.01 7.51 3.51 9.5 7.5.5 29.331.667 58.665.5 88Z"/><path style="opacity:1" fill="#273339" d="M645.5 142.5a271.634 271.634 0 0 1 18 9.5l9 7a197.694 197.694 0 0 1 17 8 69.2 69.2 0 0 1 4.5 6.5c.667 48.667.667 97.333 0 146-5.181 6.173-11.681 10.34-19.5 12.5a273.466 273.466 0 0 1-30 18.5 61.281 61.281 0 0 1 1-15 119.574 119.574 0 0 0 12-5.5 679.07 679.07 0 0 1 23-15 12.93 12.93 0 0 1 5-.5c.167-28.335 0-56.669-.5-85l-2-2-1-51a1144.329 1144.329 0 0 1-36.5-21c-1.294-4.434-1.294-8.767 0-13Z"/><path style="opacity:1" fill="#2a3f56" d="M173.5 144.5a112.97 112.97 0 0 1 15 .5c3.557 2.581 3.89 5.581 1 9a72.464 72.464 0 0 1-17 0c-2.735-3.492-2.402-6.658 1-9.5Z"/><path style="opacity:1" fill="#2a3e55" d="M209.5 144.5c5.344-.166 10.677.001 16 .5 2.667 3 2.667 6 0 9a72.464 72.464 0 0 1-17 0c-1.49-3.397-1.156-6.564 1-9.5Z"/><path style="opacity:1" fill="#283d54" d="M261.5 144.5c116.334-.167 232.667 0 349 .5 3.478 2.706 3.811 5.706 1 9-116.667.667-233.333.667-350 0-2.612-3.164-2.612-6.331 0-9.5Z"/><path style="opacity:1" fill="#263238" d="M144.5 146.5v14a67.4 67.4 0 0 0-13 5.5c-5.669 5.02-11.836 9.187-18.5 12.5-.5 45.332-.667 90.665-.5 136 5.301 1.324 9.968 3.824 14 7.5 6.102 2.096 11.769 4.929 17 8.5a53.805 53.805 0 0 1 1 14 139.14 139.14 0 0 1-22-12.5 76.322 76.322 0 0 1-18.5-10.5 5697.651 5697.651 0 0 1 0-151 6.978 6.978 0 0 1 2.5-3.5 24.569 24.569 0 0 1 8-3 162.329 162.329 0 0 1 30-17.5Z"/><path style="opacity:1" fill="#e0e7f3" d="M645.5 155.5a1144.329 1144.329 0 0 0 36.5 21l1 51 2 2c.5 28.331.667 56.665.5 85a12.93 12.93 0 0 0-5 .5 679.07 679.07 0 0 0-23 15 119.574 119.574 0 0 1-12 5.5c-.832-27.83-1.332-55.83-1.5-84-1.129-1.641-2.629-2.641-4.5-3 .571-7.281-.095-14.281-2-21 2.544.396 4.711-.271 6.5-2 .168-23.504.668-46.837 1.5-70Z"/><path style="opacity:1" fill="#e1e8f3" d="M144.5 160.5a7227.48 7227.48 0 0 1-1 170c-5.231-3.571-10.898-6.404-17-8.5-4.032-3.676-8.699-6.176-14-7.5-.167-45.335 0-90.668.5-136 6.664-3.313 12.831-7.48 18.5-12.5a67.4 67.4 0 0 1 13-5.5Z"/><path style="opacity:1" fill="#283d54" d="M623.5 176.5c-.011 1.517-.677 2.684-2 3.5-151.333.667-302.667.667-454 0-1.323-.816-1.989-1.983-2-3.5-.535-2.738.465-4.572 3-5.5 150.667-.667 301.333-.667 452 0 2.535.928 3.535 2.762 3 5.5Z"/><path style="opacity:1" fill="#f6f8fb" d="M165.5 176.5c.011 1.517.677 2.684 2 3.5 151.333.667 302.667.667 454 0 1.323-.816 1.989-1.983 2-3.5 3.228-.914 6.561-1.247 10-1a600.937 600.937 0 0 0 1 49 6.547 6.547 0 0 0 3 3c1.905 6.719 2.571 13.719 2 21-1.89-.203-3.39.463-4.5 2l-1 297c-1.413 4.248-4.246 6.915-8.5 8h-12c.167-32.668 0-65.335-.5-98-4.304-9.057-11.471-12.724-21.5-11-3.77-3.03-8.104-4.697-13-5-5.912-4.241-11.246-9.241-16-15 5.526.321 10.86-.012 16-1 4.892-.296 9.225-1.963 13-5 10.476 1.847 17.643-2.153 21.5-12 .5-32.665.667-65.332.5-98 1.989-39.191-13.344-69.358-46-90.5-44.737-22.404-84.571-15.904-119.5 19.5-11.198 13.399-18.365 28.732-21.5 46h-16c.048-2.792-1.285-4.625-4-5.5-66-.667-132-.667-198 0-7.969 1.966-13.469 6.799-16.5 14.5a3304.848 3304.848 0 0 0 0 115c2.314 9.815 8.48 15.148 18.5 16l29 2a119.617 119.617 0 0 0-13 13 457.974 457.974 0 0 0-23 2.5c-4.833 2.167-8.333 5.667-10.5 10.5a1803.531 1803.531 0 0 0-1.5 103c-9.339.166-18.673 0-28-.5-4.248-1.413-6.915-4.246-8-8.5v-372c3.439-.247 6.772.086 10 1Z"/><path style="opacity:1" fill="#2d4258" d="M613.5 310.5c-2.66 18.969-9.993 35.969-22 51-31.658 33.037-68.991 41.203-112 24.5-39.596-21.683-57.263-55.183-53-100.5 3.135-17.268 10.302-32.601 21.5-46 34.929-35.404 74.763-41.904 119.5-19.5 32.656 21.142 47.989 51.309 46 90.5Z"/><path style="opacity:1" fill="#f6f8fb" d="M465.5 364.5c-3-3.667-6.333-7-10-10-19.847-25.754-24.347-54.088-13.5-85 21.466-42.647 55.632-58.813 102.5-48.5 41.319 16.452 60.485 46.952 57.5 91.5-7.137 38.138-29.637 61.638-67.5 70.5-25.804 3.967-48.804-2.2-69-18.5Z"/><path style="opacity:1" fill="#2c3f56" d="M510.5 236.5c10.727-1.483 19.56 1.851 26.5 10 9.052-3.87 16.219-1.704 21.5 6.5-1.216 3.221-3.216 5.888-6 8a104.522 104.522 0 0 1-14.5 8.5c-1.104 9.585 1.23 18.251 7 26 4.381 8.519 6.048 17.519 5 27-2.966 2.765-5.633 2.432-8-1a78.39 78.39 0 0 0-2-13 202.65 202.65 0 0 0-10-23 116.123 116.123 0 0 1-2-13c-1.946 2.639-2.946 5.639-3 9a3327.084 3327.084 0 0 0 0 46c-4 4-8 4-12 0a145.053 145.053 0 0 0-.5 17c12.623 3.225 22.289-.608 29-11.5 11.8-2.024 18.8 2.809 21 14.5.174 2.193-.493 4.027-2 5.5a756.122 756.122 0 0 1-55 0l-1.5-1.5a870.065 870.065 0 0 1 0-59c2.667-2.667 5.333-2.667 8 0 4.188 29.362 5.354 29.196 3.5-.5-3.058-14.382 1.942-24.549 15-30.5.883-9.633-3.617-14.966-13.5-16-5.771-.208-10.104 2.125-13 7a248.867 248.867 0 0 0-13 33 132.434 132.434 0 0 0 0 23c3.315 9.203 3.981 18.536 2 28a28.415 28.415 0 0 1-4.5 7.5c6.965.268 8.631 3.268 5 9-20.557 4.17-24.057-1.33-10.5-16.5a20.9 20.9 0 0 0 2.5-8.5c-4.063-15.689-4.896-31.522-2.5-47.5a377.108 377.108 0 0 1 14-34c3.579-4.769 8.079-8.103 13.5-10Z"/><path style="opacity:1" fill="#304359" d="M517.5 253.5c6.658-1.156 8.658 1.344 6 7.5-6.96 1.216-8.96-1.284-6-7.5Z"/><path style="opacity:1" fill="#d9dce1" d="M543.5 253.5a4.934 4.934 0 0 1 3 .5l-6.5 4.5c-.749-1.135-.583-2.135.5-3 1.239-.442 2.239-1.109 3-2Z"/><path style="opacity:1" fill="#e3ecfb" d="M410.5 285.5h16c-4.263 45.317 13.404 78.817 53 100.5 43.009 16.703 80.342 8.537 112-24.5.983 3.798 1.317 7.798 1 12a9.175 9.175 0 0 0-4.5 2l-1 32c-1.167 3.833-3.667 6.333-7.5 7.5-123.333.667-246.667.667-370 0-3.833-1.167-6.333-3.667-7.5-7.5a2969.016 2969.016 0 0 1 0-109c.883-2.602 2.383-4.769 4.5-6.5a10191.434 10191.434 0 0 1 201-2c1.641-1.129 2.641-2.629 3-4.5Z"/><path style="opacity:1" fill="#dee4ee" d="M6.5 257.5h30c-.466 34.374.034 68.707 1.5 103a4079.433 4079.433 0 0 0 106.5 62v22c-1.614-1.575-3.614-2.241-6-2v-3h-6v-3h-3v-3h-6v-3h-5v-3c-2.921.354-5.254-.646-7-3-1.714 1.109-2.381.442-2-2a58.97 58.97 0 0 1-11-3v-3a27.267 27.267 0 0 0-9-3v-3c-2.908.238-5.242-.762-7-3a3.647 3.647 0 0 0-1.5 1c-1.667-1-3-2.333-4-4l-1 1a4.932 4.932 0 0 1-.5-3h-6v-3h-5v-3a544.412 544.412 0 0 1-29-14v-3a58.967 58.967 0 0 1-11-3v-3h-6v-3c-4.013-1.674-8.013-3.341-12-5v-108Z"/><path style="opacity:1" fill="#dde3ed" d="M761.5 134.5c.999 40.83 1.332 81.83 1 123h30v108c-3.013-.128-5.513.872-7.5 3-2.411-1.653-3.578-.987-3.5 2-1.701.466-3.201.466-4.5 0-3.844 1.975-7.177 4.642-10 8l-1-1c-1.049 1.607-2.549 2.273-4.5 2v3c-3.937.204-7.604 1.204-11 3 .381 2.442-.286 3.109-2 2-.886.825-1.219 1.825-1 3h-6v3a12.93 12.93 0 0 0-5 .5c-1.079 2.043-2.746 3.376-5 4l1 1a12.93 12.93 0 0 1-5 .5v3a9.86 9.86 0 0 0-6 1c-3.423 1.192-6.256 3.192-8.5 6l-1-1c-1.049 1.607-2.549 2.273-4.5 2v3h-6v3h-5v3c-2.185.388-4.018 1.388-5.5 3-2.278-1.12-3.778-.287-4.5 2.5a101.955 101.955 0 0 0-13 5.5v3h-6v3h-6v3c-1.788-.285-3.455.048-5 1 1.129 2.029.629 2.363-1.5 1-1.712 3.452-4.212 4.452-7.5 3v3h-3a116.8 116.8 0 0 1 1-21 2934.895 2934.895 0 0 1 86-49.5l8-6a190.921 190.921 0 0 0 21.5-10.5c.5-75.333.667-150.666.5-226Z"/><path style="opacity:1" fill="#2c4057" d="M252.5 316.5c22.562-1.653 36.729 8.347 42.5 30 1.724 22.725-8.443 36.892-30.5 42.5-22.362 1.405-36.196-8.762-41.5-30.5-1.226-21.91 8.607-35.91 29.5-42Z"/><path style="opacity:1" fill="#2b4057" d="M344.5 316.5c23.11-2.029 37.943 7.971 44.5 30 1.535 22.122-8.299 36.289-29.5 42.5-21.651 1.685-35.817-7.815-42.5-28.5-2.205-21.948 6.962-36.615 27.5-44Z"/><path style="opacity:1" fill="#c1d2ed" d="M613.5 310.5c.167 32.668 0 65.335-.5 98-3.857 9.847-11.024 13.847-21.5 12 2.879-3.092 4.713-6.759 5.5-11 .667-11 .667-22 0-33-.918-1.876-2.418-2.876-4.5-3 .317-4.202-.017-8.202-1-12 12.007-15.031 19.34-32.031 22-51Z"/><path style="opacity:1" fill="#fcfcfd" d="M251.5 327.5c15.799-2.658 26.632 3.342 32.5 18 3.092 16.215-3.074 27.048-18.5 32.5-24.785.875-34.952-10.958-30.5-35.5 3.822-6.996 9.322-11.996 16.5-15Z"/><path style="opacity:1" fill="#fcfcfc" d="M344.5 327.5c16.125-2.923 27.292 3.077 33.5 18 1.833 23.5-9 34.333-32.5 32.5-17.737-8.452-22.57-21.619-14.5-39.5 3.819-4.667 8.319-8.334 13.5-11Z"/><path style="opacity:1" fill="#f1f4f7" d="M545.5 341.5c8.1 2.563 7.767 3.396-1 2.5.752-.671 1.086-1.504 1-2.5Z"/><path style="opacity:1" fill="#2e4259" d="M251.5 347.5a112.97 112.97 0 0 1 15 .5c3.985 3.286 3.985 6.619 0 10-5 .667-10 .667-15 0-3.935-3.496-3.935-6.996 0-10.5Z"/><path style="opacity:1" fill="#2f435a" d="M345.5 347.5a112.97 112.97 0 0 1 15 .5c4 3.333 4 6.667 0 10-5 .667-10 .667-15 0-3.92-3.542-3.92-7.042 0-10.5Z"/><path style="opacity:1" fill="#708490" d="M455.5 354.5c3.667 3 7 6.333 10 10-4.333-2.333-7.667-5.667-10-10Z"/><path style="opacity:1" fill="#8f9ba8" d="M210.5 425.5a225.771 225.771 0 0 1 30 1c-.124.607-.457.94-1 1l-29-2Z"/><path style="opacity:1" fill="#8795a6" d="M578.5 425.5c-5.14.988-10.474 1.321-16 1-4.532-.318-8.866.015-13 1-.543-.06-.876-.393-1-1a225.771 225.771 0 0 1 30-1Z"/><path style="opacity:1" fill="#b5c7e1" d="M536.5 430.5h-284a514.367 514.367 0 0 1 3-4 9663.416 9663.416 0 0 1 278 0 514.367 514.367 0 0 1 3 4Z"/><path style="opacity:1" fill="#c0d1eb" d="M549.5 427.5c4.134-.985 8.468-1.318 13-1 4.754 5.759 10.088 10.759 16 15a64.873 64.873 0 0 1-16-1 119.617 119.617 0 0 0-13-13Z"/><path style="opacity:1" fill="#e9f2fe" d="M252.5 430.5h284l10 9a11555.389 11555.389 0 0 1-304 0l10-9Z"/><path style="opacity:1" fill="#b9c5d3" d="M242.5 439.5a11555.389 11555.389 0 0 0 304 0c.543.06.876.393 1 1-102 1.333-204 1.333-306 0 .124-.607.457-.94 1-1Z"/><path style="opacity:1" fill="#c3d4ef" d="M591.5 446.5c10.029-1.724 17.196 1.943 21.5 11 .5 32.665.667 65.332.5 98h-15c.332-32.171-.002-64.171-1-96-.662-4.988-2.662-9.321-6-13Z"/><path style="opacity:1" fill="#e2ebfa" d="M209.5 451.5c123.334-.167 246.667 0 370 .5 3.5 1.5 6 4 7.5 7.5.667 36.333.667 72.667 0 109-1.077 3.413-3.244 5.913-6.5 7.5-124 .667-248 .667-372 0-3.256-1.587-5.423-4.087-6.5-7.5a2969.016 2969.016 0 0 1 0-109c1.69-3.521 4.19-6.188 7.5-8Z"/><path style="opacity:1" fill="#95a7c0" d="M597.5 459.5a2304.214 2304.214 0 0 1 1 96h27c-9.152.994-18.485 1.327-28 1v-97Z"/><path style="opacity:1" fill="#2c4057" d="M252.5 477.5c21.625-1.114 35.792 8.553 42.5 29 1.448 30.552-13.052 45.052-43.5 43.5-21.038-6.202-30.538-20.368-28.5-42.5 4.015-15.848 13.848-25.848 29.5-30Z"/><path style="opacity:1" fill="#2b4057" d="M347.5 477.5c27.857.356 41.69 14.356 41.5 42-6.124 23.488-21.291 33.655-45.5 30.5-20.733-7.62-29.567-22.453-26.5-44.5 4.971-15.143 15.138-24.477 30.5-28Z"/><path style="opacity:1" fill="#fbfbfb" d="M252.5 488.5c22.499-1.002 32.999 9.665 31.5 32-4.856 14.684-15.023 21.184-30.5 19.5-18.754-7.588-24.254-20.755-16.5-39.5 4.184-5.36 9.351-9.36 15.5-12Z"/><path style="opacity:1" fill="#fafbfb" d="M346.5 488.5c23.032-.804 33.532 10.196 31.5 33-7.237 16.52-19.404 22.02-36.5 16.5-14.942-10.176-18.108-23.342-9.5-39.5 4.208-4.397 9.042-7.731 14.5-10Z"/><path style="opacity:1" fill="#293e55" d="M417.5 493.5c2.865-.445 5.365.222 7.5 2a342.33 342.33 0 0 1 0 37c-2.952 3.982-5.952 3.982-9 0a342.33 342.33 0 0 1 0-37c.717-.544 1.217-1.211 1.5-2ZM449.5 493.5c2.544-.396 4.711.271 6.5 2a361.07 361.07 0 0 1 0 38c-3.294 2.811-6.294 2.478-9-1-.667-12-.667-24 0-36 .698-1.191 1.531-2.191 2.5-3Z"/><path style="opacity:1" fill="#30445b" d="M480.5 493.5c3.152-.541 5.652.459 7.5 3 .667 12 .667 24 0 36-3.745 4.066-7.078 3.733-10-1a306.347 306.347 0 0 1 0-35 10.515 10.515 0 0 0 2.5-3Z"/><path style="opacity:1" fill="#293e55" d="M511.5 493.5c3.195-.539 5.695.461 7.5 3 .667 12 .667 24 0 36-2.626 3.572-5.626 3.905-9 1a361.07 361.07 0 0 1 0-38c.717-.544 1.217-1.211 1.5-2ZM542.5 493.5c2.865-.445 5.365.222 7.5 2a342.33 342.33 0 0 1 0 37c-2.952 3.982-5.952 3.982-9 0a342.33 342.33 0 0 1 0-37c.717-.544 1.217-1.211 1.5-2Z"/><path style="opacity:1" fill="#2b3f56" d="M250.5 509.5c5.676-.166 11.343.001 17 .5 2.799 3.339 2.466 6.339-1 9-5 .667-10 .667-15 0-3.532-2.828-3.866-5.995-1-9.5Z"/><path style="opacity:1" fill="#2a3f56" d="M344.5 509.5c5.676-.166 11.343.001 17 .5 2.905 3.374 2.572 6.374-1 9-5 .667-10 .667-15 0-3.532-2.828-3.866-5.995-1-9.5Z"/><path style="opacity:1" fill="#d8dbde" d="M186.5 566.5h5a18.453 18.453 0 0 0 .5 6c2.225 5.053 5.392 9.386 9.5 13v23c-7.481-2.006-10.647.661-9.5 8 2.904 1.727 6.07 2.393 9.5 2-.166 10.006 0 20.006.5 30a18.839 18.839 0 0 1 6.5 5.5 285.561 285.561 0 0 1 26 13c12.673 9.05 26.007 16.716 40 23l19 13a24.569 24.569 0 0 0 8 3 201.636 201.636 0 0 1 27 17l10 4c1.374 3.683 4.041 5.349 8 5a279.412 279.412 0 0 1 19 12c4.871 1.741 9.204 4.408 13 8a91.921 91.921 0 0 0 19 7.5 131.205 131.205 0 0 0 11-2.5 78.988 78.988 0 0 0 14-9l10-4c4.933-4.604 10.6-7.938 17-10l4-4a319.99 319.99 0 0 0 46-27 91.311 91.311 0 0 0 23-13 70.186 70.186 0 0 0 18-10 112.343 112.343 0 0 1 17-8 219.87 219.87 0 0 1 13-10c8.275-2.564 15.442-7.064 21.5-13.5.113-2.474 1.113-4.474 3-6 .5-8.327.666-16.66.5-25 2.59-2.883 2.59-5.883 0-9v-32c1.523-3.135 2.19-6.468 2-10h13c.333 36.006 0 72.006-1 108-1.671 2.01-2.338 4.343-2 7-3.064 1.19-5.731 2.857-8 5h-3v3a58.97 58.97 0 0 0-11 3v3c-1.859-.039-3.192.794-4 2.5a12.93 12.93 0 0 1-5 .5v3c-2.582-.475-4.582.192-6 2-2.281 1.928-4.947 2.928-8 3v3h-6v3c-4.045-.073-7.378 1.427-10 4.5l1 1a118.288 118.288 0 0 0-17 7.5 10.756 10.756 0 0 0-2.5 3l-1-1c-1.049 1.607-2.549 2.273-4.5 2v3h-6v3h-5v3c-2.524-.071-4.524.929-6 3-2.12-1.372-3.12-.705-3 2a12.93 12.93 0 0 0-5 .5 101.657 101.657 0 0 0-10 7.5 9.108 9.108 0 0 1-5 1v3c-2.51-.446-4.51.22-6 2-2.216.703-4.049 2.036-5.5 4-1.813-1.109-2.646-.442-2.5 2a12.93 12.93 0 0 0-5 .5c-1.497 1.871-3.497 2.871-6 3-1.307 2.324-3.307 3.657-6 4l2 1a12.93 12.93 0 0 1-5 .5v3a9.86 9.86 0 0 0-6 1 35.217 35.217 0 0 1-8 4v3h-6v3h-6v3a8.43 8.43 0 0 0-4 .5l-5 5c-1.284.684-2.451.517-3.5-.5-1.263 2.968-3.263 3.968-6 3a2.428 2.428 0 0 0-.5 2h-12c-.507-1.359-1.507-2.359-3-3a137.913 137.913 0 0 0-11-4v-3c-2.133-1.386-5.133-2.386-9-3v-3h-5v-3c-3.005.247-5.505-.753-7.5-3l-1 1a4.934 4.934 0 0 1-.5-3h-6v-3h-5v-3h-6v-3c-5.922-1.727-11.089-4.727-15.5-9-.718.951-1.551 1.117-2.5.5 1.333-.667 1.333-1.333 0-2a12.93 12.93 0 0 0-5-.5v-3a58.97 58.97 0 0 1-11-3v-3c-8.654-3.265-16.321-6.932-23-11v-3h-6v-3h-5v-3a8.43 8.43 0 0 1-4-.5c-4.85-3.699-10.184-6.199-16-7.5v-3h-6v-3c-2.092-.061-3.592-1.061-4.5-3-1.299.466-2.799.466-4.5 0v-3c-1.788.285-3.455-.048-5-1-2.158-3.144-5.158-4.477-9-4v-3a12.93 12.93 0 0 1-5-.5c-2.625-3.031-6.125-5.864-10.5-8.5-2.537.677-4.537-.323-6-3l-1 1c-1.667-1-3-2.333-4-4-1.049 1.017-2.216 1.184-3.5.5l1-1a15.645 15.645 0 0 1-4-2.5 3250.18 3250.18 0 0 1-1-114Z"/><path style="opacity:1" fill="#d8dbe0" d="M332.5 611.5c-.396 2.544.271 4.711 2 6.5 51.835.167 103.502.667 155 1.5a242.811 242.811 0 0 0-24 14.5c-5.064 1.012-9.397 3.345-13 7-6.744 2.402-12.744 6.069-18 11l-22 11a2929.62 2929.62 0 0 0-12.5 8.5 133.576 133.576 0 0 1-23.5-13.5 114.065 114.065 0 0 1-14-6 523.182 523.182 0 0 1-22-15 93.962 93.962 0 0 1-24-13 187.64 187.64 0 0 0-10-4.5 94.977 94.977 0 0 1 8-2c1.205-1.077 1.872-2.41 2-4 5.635.537 10.968-.13 16-2Z"/><path style="opacity:1" fill="#273339" d="M595.5 617.5c.166 8.34 0 16.673-.5 25-1.887 1.526-2.887 3.526-3 6-6.058 6.436-13.225 10.936-21.5 13.5a219.87 219.87 0 0 0-13 10 112.343 112.343 0 0 0-17 8 70.186 70.186 0 0 1-18 10 91.311 91.311 0 0 1-23 13 319.99 319.99 0 0 1-46 27l-4 4c-6.4 2.062-12.067 5.396-17 10l-10 4a78.988 78.988 0 0 1-14 9 131.205 131.205 0 0 1-11 2.5 91.921 91.921 0 0 1-19-7.5c-3.796-3.592-8.129-6.259-13-8a279.412 279.412 0 0 0-19-12c-3.959.349-6.626-1.317-8-5l-10-4a201.636 201.636 0 0 0-27-17 24.569 24.569 0 0 1-8-3l-19-13c-13.993-6.284-27.327-13.95-40-23a285.561 285.561 0 0 0-26-13 18.839 18.839 0 0 0-6.5-5.5c-.5-9.994-.666-19.994-.5-30h12c-.166 8.007 0 16.007.5 24a46.99 46.99 0 0 0 10.5 5.5l4 4a90.42 90.42 0 0 0 14 6 77.598 77.598 0 0 0 23 13l4 4 10 4c4.933 4.604 10.6 7.938 17 10 3.574 3.951 7.907 6.618 13 8 6.962 5.648 14.628 9.981 23 13 1.918 2.928 4.585 4.594 8 5a78.488 78.488 0 0 0 23 13c3.671 4.417 8.338 7.083 14 8 2.457 3.058 5.457 5.392 9 7a97.288 97.288 0 0 1 12 5.5 23356.745 23356.745 0 0 0 182-104.5 4.457 4.457 0 0 1 2-1.5 144.841 144.841 0 0 0 1-24c4.1.263 8.1-.07 12-1Z"/><path style="opacity:1" fill="#fdfdfd" d="M213.5 618.5h68c3.097 1.792 6.43 3.292 10 4.5a175.043 175.043 0 0 0 28 16 30.316 30.316 0 0 0 12 7c3.705 4.342 8.372 7.009 14 8a643.917 643.917 0 0 0 29 18c2.861.54 5.528 1.54 8 3l11 7c4 .667 8 .667 12 0 6.962-5.648 14.628-9.981 23-13a679.07 679.07 0 0 0 23-15 24.569 24.569 0 0 0 8-3 819.217 819.217 0 0 1 33-20c5.048-1.356 9.381-4.023 13-8 3.005-.533 5.672-1.7 8-3.5a1243.513 1243.513 0 0 1 70-1 144.841 144.841 0 0 1-1 24 4.457 4.457 0 0 0-2 1.5 23356.745 23356.745 0 0 1-182 104.5 97.288 97.288 0 0 0-12-5.5c-3.543-1.608-6.543-3.942-9-7-5.662-.917-10.329-3.583-14-8a78.488 78.488 0 0 1-23-13c-3.415-.406-6.082-2.072-8-5-8.372-3.019-16.038-7.352-23-13-5.093-1.382-9.426-4.049-13-8-6.4-2.062-12.067-5.396-17-10l-10-4-4-4a77.598 77.598 0 0 1-23-13 90.42 90.42 0 0 1-14-6l-4-4a46.99 46.99 0 0 1-10.5-5.5c-.5-7.993-.666-15.993-.5-24Z"/><path style="opacity:1" fill="#273339" d="M281.5 618.5a163.67 163.67 0 0 1 25 1 187.64 187.64 0 0 1 10 4.5 93.962 93.962 0 0 0 24 13 523.182 523.182 0 0 0 22 15 114.065 114.065 0 0 0 14 6 133.576 133.576 0 0 0 23.5 13.5 2929.62 2929.62 0 0 1 12.5-8.5l22-11c5.256-4.931 11.256-8.598 18-11 3.603-3.655 7.936-5.988 13-7a242.811 242.811 0 0 1 24-14.5c8.099-1.313 16.099-1.313 24 0-2.328 1.8-4.995 2.967-8 3.5-3.619 3.977-7.952 6.644-13 8a819.217 819.217 0 0 0-33 20 24.569 24.569 0 0 1-8 3 679.07 679.07 0 0 1-23 15c-8.372 3.019-16.038 7.352-23 13-4 .667-8 .667-12 0l-11-7a24.569 24.569 0 0 0-8-3 643.917 643.917 0 0 1-29-18c-5.628-.991-10.295-3.658-14-8a30.316 30.316 0 0 1-12-7 175.043 175.043 0 0 1-28-16c-3.57-1.208-6.903-2.708-10-4.5Z"/><path style="opacity:1" fill="#e4eef9" d="M251.5 592.5h286a348.625 348.625 0 0 1 16 15.5l-219 1c-1.256.417-1.923 1.25-2 2.5-5.032 1.87-10.365 2.537-16 2 .203-1.89-.463-3.39-2-4.5l-79-1a348.625 348.625 0 0 1 16-15.5Z"/><path style="opacity:1" fill="#c2d3ee" d="M537.5 592.5h-286a25.14 25.14 0 0 1 4-4.5c92.667-.667 185.333-.667 278 0a25.14 25.14 0 0 1 4 4.5Z"/><path style="opacity:1" fill="#fafafb" d="M213.5 587.5c9.006-.166 18.006 0 27 .5l-20 20c-2.31.497-4.643.663-7 .5v-21ZM583.5 586.5v22a112.97 112.97 0 0 1-15-.5l-20-20c11.699-.23 23.366-.73 35-1.5Z"/><path style="opacity:1" fill="#263238" d="M201.5 585.5a29.351 29.351 0 0 0 12 2v21h-12v-23ZM595.5 576.5v32h-12v-22c4.926-2.263 8.926-5.596 12-10Z"/><path style="opacity:1" fill="#d9dcdf" d="M599.5 686.5c1.333.667 1.333.667 0 0ZM570.5 703.5c1.333.667 1.333.667 0 0Z"/><path style="opacity:1" fill="#d8dbdc" d="M476.5 757.5c1.333.667 1.333.667 0 0Z"/></svg>