<?xml version="1.0" encoding="UTF-8"?>
<svg xmlns="http://www.w3.org/2000/svg" width="800" height="800" style="shape-rendering:geometricPrecision;text-rendering:geometricPrecision;image-rendering:optimizeQuality;fill-rule:evenodd;clip-rule:evenodd"><path style="opacity:1" fill="#d96845" d="M576.5-.5h9a2.429 2.429 0 0 0 .5 2c1.049-1.017 2.216-1.184 3.5-.5a20.495 20.495 0 0 0 2.5 3.5c1.356-.88 2.856-1.214 4.5-1v3c2.822 1.432 6.489 2.432 11 3v3c2.092.061 3.592 1.061 4.5 3 2.537-.677 4.537.323 6 3 2.361-.566 4.194.434 5.5 3l2-1c.35 2.067 2.017 3.067 5 3v3h6v3h5v3h6v3a27.247 27.247 0 0 0 9 3c-.219 1.175.114 2.175 1 3a6.846 6.846 0 0 1 4-1v3a8.435 8.435 0 0 1 4 .5c-1.154.914-.987 1.747.5 2.5 1.299-.466 2.799-.466 4.5 0v3h6v3h5v3a428.986 428.986 0 0 0 20 8.5l-2 1c2.522.61 4.522 1.943 6 4 1.634.493 3.301.66 5 .5v3c2.908-.238 5.242.762 7 3 .951-.826 1.951-.992 3-.5l-1 1a6.977 6.977 0 0 1 3.5 2.5l1-1c.483.948.649 1.948.5 3h6v3h5v3c1.951-.273 3.451.393 4.5 2l1-1c6 4.386 12.5 7.886 19.5 10.5l-1 1c1.525 1.009 3.192 1.509 5 1.5v3h6v3h5v3c2.041.354 3.874.354 5.5 0 .483.948.649 1.948.5 3 2.836 1.276 5.836 1.942 9 2a7971.884 7971.884 0 0 1 2 251c-3.013-.128-5.513.872-7.5 3-2.411-1.653-3.578-.987-3.5 2-1.701.466-3.201.466-4.5 0-3.844 1.975-7.177 4.642-10 8l-1-1c-1.049 1.607-2.549 2.273-4.5 2v3c-3.937.204-7.604 1.204-11 3 .381 2.442-.286 3.109-2 2-.886.825-1.219 1.825-1 3h-6v3a12.93 12.93 0 0 0-5 .5c-1.079 2.043-2.746 3.376-5 4l1 1a12.93 12.93 0 0 1-5 .5v3a9.86 9.86 0 0 0-6 1c-3.423 1.192-6.256 3.192-8.5 6l-1-1c-1.049 1.607-2.549 2.273-4.5 2v3h-6v3h-5v3c-2.185.388-4.018 1.388-5.5 3-2.278-1.12-3.778-.287-4.5 2.5a101.955 101.955 0 0 0-13 5.5v3h-6v3h-6c.237 1.291-.096 2.291-1 3v-22a941.335 941.335 0 0 0 35-20.5c5.325-1.003 9.658-3.67 13-8a377.475 377.475 0 0 0 23-12l8-6a190.921 190.921 0 0 0 21.5-10.5c.667-76 .667-152 0-228a36.078 36.078 0 0 0-3.5-4.5c-3.29-.253-6.29-1.253-9-3a29746.604 29746.604 0 0 1-46-28 457.332 457.332 0 0 0-22-11l-4-4a161.879 161.879 0 0 1-33-19c-6.4-2.062-12.067-5.396-17-10a1126.1 1126.1 0 0 0-31-16c-2.365-3.714-5.698-5.714-10-6-7.082-6.364-15.416-9.031-25-8a12271.425 12271.425 0 0 1-129 74c-7.588 4.924-7.921 10.257-1 16a601.074 601.074 0 0 0 58 33.5c-11.822.995-23.822 1.328-36 1a896.33 896.33 0 0 0-53-30.5 10892.14 10892.14 0 0 0-27-17 326.577 326.577 0 0 1-27-14c-3.83-4.162-8.497-6.83-14-8a2084.03 2084.03 0 0 0-77-44c-9.098-8.801-19.765-11.801-32-9-4.194 3.22-8.86 5.554-14 7a2157.081 2157.081 0 0 1-68 39 55.63 55.63 0 0 1-18 10 12458.29 12458.29 0 0 1-28 18c-5.503 1.171-10.17 3.837-14 8a133.395 133.395 0 0 0-32 18c-2.71 1.747-5.71 2.747-9 3-1.574 1.826-2.407 3.993-2.5 6.5a6443.111 6443.111 0 0 0 1 226l9.5 5.5c1.374 3.683 4.04 5.349 8 5a130.15 130.15 0 0 0 23 13 2162.587 2162.587 0 0 0 84 48.5v18c-4.013-2.218-8.347-3.551-13-4-.535-1.771-1.369-2.104-2.5-1-2.509-1.937-5.343-2.937-8.5-3v-3h-6v-3h-3v-3h-6v-3h-5v-3c-2.921.354-5.254-.646-7-3-1.714 1.109-2.381.442-2-2a58.97 58.97 0 0 1-11-3v-3a27.267 27.267 0 0 0-9-3v-3c-2.908.238-5.242-.762-7-3a3.647 3.647 0 0 0-1.5 1c-1.667-1-3-2.333-4-4l-1 1a4.932 4.932 0 0 1-.5-3h-6v-3h-5v-3a544.412 544.412 0 0 1-29-14v-3a58.967 58.967 0 0 1-11-3v-3h-6v-3c-4.013-1.674-8.013-3.341-12-5 .008-83.648.008-167.148 0-250.5a169.104 169.104 0 0 0 15-5.5v-3a58.967 58.967 0 0 0 11-3v-3a417.79 417.79 0 0 0 15-7 32.686 32.686 0 0 0 8.5-6l1 1c1.049-1.607 2.549-2.273 4.5-2v-3a59.029 59.029 0 0 1 11-3 4.932 4.932 0 0 1 .5-3l1 1c2.015-3.065 4.515-4.065 7.5-3v-3h5v-3c1.7.16 3.366-.007 5-.5 1.478-2.057 3.478-3.39 6-4l-2-1a18.436 18.436 0 0 1 6-.5v-3a87.51 87.51 0 0 0 14-5v-3h6v-3h5v-3c1.701-.466 3.201-.466 4.5 0 3.279-4.047 7.946-7.047 14-9a18.264 18.264 0 0 0 5-4l1 1c1.049-1.607 2.549-2.273 4.5-2v-3h5v-3h6v-3c4.612-1.195 9.279-2.862 14-5v-3c1.701-.466 3.201-.466 4.5 0 .908-1.939 2.408-2.939 4.5-3v-3h6v-3c1.788.285 3.455-.048 5-1a38.767 38.767 0 0 0 7-4.5 49.25 49.25 0 0 1 14 0c2.025 1.677 4.359 2.677 7 3-1.134 1.016-.801 1.683 1 2l5 1-1 1c2.622 3.073 5.955 4.573 10 4.5v3h6v3c3.191.262 5.858 1.596 8 4a9.864 9.864 0 0 0 6 1v3c3.58 1.22 7.247 2.386 11 3.5l-2 1c2.767.678 4.934 2.178 6.5 4.5l1-1c3.769 1.797 7.102 4.13 10 7a3.942 3.942 0 0 1 2-1c1.482 1.612 3.315 2.612 5.5 3v3h6v3h5v3h6v3a87.51 87.51 0 0 0 14 5v3c1.699-.16 3.366.007 5 .5l-1 1c1.525 1.009 3.192 1.509 5 1.5v3h6v3h5v3c2.985-1.065 5.485-.065 7.5 3l1-1c.483.948.649 1.948.5 3h5v3h6v3c2.133 1.386 5.133 2.386 9 3v3c2.908-.238 5.242.762 7 3l2-1c.35 2.067 2.017 3.067 5 3v3h6v3c2.516-.255 4.85-1.089 7-2.5a626.207 626.207 0 0 1 29-17c.837-1.011 1.17-2.178 1-3.5 4.493-.216 7.993-2.216 10.5-6 1.011.837 2.178 1.17 3.5 1v-3a59.031 59.031 0 0 0 11-3v-3c1.808.009 3.475-.491 5-1.5l-1-1a12.935 12.935 0 0 1 5-.5v-3a9.864 9.864 0 0 0 6-1 35.213 35.213 0 0 1 8-4v-3h6v-3a59.031 59.031 0 0 1 11-3v-3c1.808.009 3.475-.491 5-1.5-1.388-.89-1.222-1.39.5-1.5 2.071 1.167 3.571.5 4.5-2 6.434-2.343 12.767-5.343 19-9v-3a59.031 59.031 0 0 1 11-3 4.934 4.934 0 0 1 .5-3l1 1c1.995-2.247 4.495-3.247 7.5-3v-3h5v-3h6v-3c1.808.009 3.475-.491 5-1.5l-1-1a12.936 12.936 0 0 1 5-.5v-3c3.552.188 6.219-1.145 8-4Z"/><path style="opacity:1" fill="#273338" d="M660.5 417.5v-14a239.706 239.706 0 0 1 12-5.5 240.159 240.159 0 0 1 15-10c3.415-.406 6.082-2.072 8-5a114.302 114.302 0 0 0 13-6 6204.11 6204.11 0 0 1 24-15 84.545 84.545 0 0 1 18-8.5c.167-70.334 0-140.667-.5-211 .564-4.29-1.269-6.457-5.5-6.5a203.265 203.265 0 0 0-37-21l-4-4a91.311 91.311 0 0 1-23-13 457.332 457.332 0 0 0-22-11l-4-4a483.026 483.026 0 0 1-51-29c-3.415-.406-6.082-2.072-8-5a90.401 90.401 0 0 0-14-6c-5.722-6.435-12.722-8.768-21-7-7.36 5.663-15.36 9.996-24 13-3.619 3.977-7.952 6.644-13 8-2.537 2.546-5.537 4.212-9 5l-4 4-10 4a2551.356 2551.356 0 0 0-60 36 7185.005 7185.005 0 0 1 26 16 114.065 114.065 0 0 0 14 6c4.2 3.6 8.867 6.433 14 8.5a684.54 684.54 0 0 1 19-8.5 43.593 43.593 0 0 1 13-8c2.365-3.714 5.698-5.714 10-6a705.673 705.673 0 0 1 21-12c4.719-2.307 9.719-2.974 15-2a113.107 113.107 0 0 0 28 15l5 5a198.65 198.65 0 0 1 17 8c.881.708 1.547 1.542 2 2.5-.958.453-1.792 1.119-2.5 2a40.914 40.914 0 0 0-.5 9 784.043 784.043 0 0 1-54-31 112.253 112.253 0 0 1-17 8.5 251.522 251.522 0 0 1-18 11.5 127.743 127.743 0 0 0-22 1 4.457 4.457 0 0 0-1.5 2 76.413 76.413 0 0 1-1.5 11c-2.358-.247-4.358.419-6 2-4.333 1.333-8.667 1.333-13 0a601.074 601.074 0 0 1-58-33.5c-6.921-5.743-6.588-11.076 1-16a12271.425 12271.425 0 0 0 129-74c9.584-1.031 17.918 1.636 25 8 4.302.286 7.635 2.286 10 6a1126.1 1126.1 0 0 1 31 16c4.933 4.604 10.6 7.938 17 10a161.879 161.879 0 0 0 33 19l4 4a457.332 457.332 0 0 1 22 11 29746.604 29746.604 0 0 0 46 28c2.71 1.747 5.71 2.747 9 3a36.078 36.078 0 0 1 3.5 4.5c.667 76 .667 152 0 228a190.921 190.921 0 0 1-21.5 10.5l-8 6a377.475 377.475 0 0 1-23 12c-3.342 4.33-7.675 6.997-13 8a941.335 941.335 0 0 1-35 20.5Z"/><path style="opacity:1" fill="#293339" d="M452.5 147.5a2449.087 2449.087 0 0 1-133 0c36.668.167 73.335 0 110-.5a86.788 86.788 0 0 0-12-5c-3.065-4.125-7.065-6.791-12-8l-6-5a546.6 546.6 0 0 0-35-18 108.394 108.394 0 0 1-19-13 1516.16 1516.16 0 0 1-91-52A228.066 228.066 0 0 0 230 34.5 112.066 112.066 0 0 0 206.5 48l-10 4-3 3c-6.771 2.445-12.771 6.111-18 11l-10 4-4 4a520.666 520.666 0 0 0-59 34l-9 3c-3.796 3.592-8.13 6.259-13 8A361.546 361.546 0 0 1 48 137.5c-.667 72-.667 144 0 216a11701.928 11701.928 0 0 0 113.5 65c1-20.989 1.333-41.989 1-63a821.862 821.862 0 0 1 0 77 2162.587 2162.587 0 0 1-84-48.5 130.15 130.15 0 0 1-23-13c-3.96.349-6.626-1.317-8-5l-9.5-5.5a6443.111 6443.111 0 0 1-1-226c.093-2.507.926-4.674 2.5-6.5 3.29-.253 6.29-1.253 9-3a133.395 133.395 0 0 1 32-18c3.83-4.163 8.497-6.829 14-8 9.313-5.97 18.646-11.97 28-18a55.63 55.63 0 0 0 18-10c22.924-12.6 45.591-25.6 68-39 5.14-1.446 9.806-3.78 14-7 12.235-2.801 22.902.199 32 9a2084.03 2084.03 0 0 1 77 44c5.503 1.17 10.17 3.838 14 8a326.577 326.577 0 0 0 27 14c8.98 5.636 17.98 11.302 27 17a896.33 896.33 0 0 1 53 30.5Z"/><path style="opacity:1" fill="#fdfdfd" d="M319.5 147.5h-2a340.36 340.36 0 0 0-39-22.5 846.02 846.02 0 0 1-33-20c-3.415-.406-6.082-2.072-8-5a42.498 42.498 0 0 0-13 0 226.438 226.438 0 0 0-29 17c-3.415.406-6.082 2.072-8 5a90.42 90.42 0 0 1-14 6c-3.574 3.951-7.907 6.618-13 8-6.962 5.648-14.628 9.981-23 13a230.435 230.435 0 0 1-32.5 19.5 2946.23 2946.23 0 0 0-1 153 213.392 213.392 0 0 0 27.5 15.5l6 5a182.694 182.694 0 0 1 25 12.5v1c.333 21.011 0 42.011-1 63a11701.928 11701.928 0 0 1-113.5-65c-.667-72-.667-144 0-216A361.546 361.546 0 0 0 80.5 119c4.87-1.741 9.204-4.408 13-8l9-3a520.666 520.666 0 0 1 59-34l4-4 10-4c5.229-4.889 11.229-8.555 18-11l3-3 10-4A112.066 112.066 0 0 1 230 34.5 228.066 228.066 0 0 1 254.5 46a1516.16 1516.16 0 0 0 91 52 108.394 108.394 0 0 0 19 13 546.6 546.6 0 0 1 35 18l6 5c4.935 1.209 8.935 3.875 12 8a86.788 86.788 0 0 1 12 5c-36.665.5-73.332.667-110 .5Z"/><path style="opacity:1" fill="#fefefe" d="M660.5 403.5v-63a50.422 50.422 0 0 0 14-8.5c7.819-2.16 14.319-6.327 19.5-12.5.667-48.667.667-97.333 0-146a69.2 69.2 0 0 0-4.5-6.5 333.527 333.527 0 0 1-29-15.5 145.053 145.053 0 0 0-.5-17 9.454 9.454 0 0 0-1.5-2.5 201.53 201.53 0 0 0-34-1.5c-.453-.958-1.119-1.792-2-2.5a198.65 198.65 0 0 0-17-8l-5-5a113.107 113.107 0 0 1-28-15c-5.281-.974-10.281-.307-15 2a705.673 705.673 0 0 0-21 12c-4.302.286-7.635 2.286-10 6a43.593 43.593 0 0 0-13 8 684.54 684.54 0 0 0-19 8.5 50.162 50.162 0 0 1-14-8.5 114.065 114.065 0 0 1-14-6 7185.005 7185.005 0 0 0-26-16 2551.356 2551.356 0 0 1 60-36l10-4 4-4c3.463-.788 6.463-2.454 9-5 5.048-1.356 9.381-4.023 13-8 8.64-3.004 16.64-7.337 24-13 8.278-1.768 15.278.565 21 7a90.401 90.401 0 0 1 14 6c1.918 2.928 4.585 4.594 8 5a483.026 483.026 0 0 0 51 29l4 4a457.332 457.332 0 0 1 22 11 91.311 91.311 0 0 0 23 13l4 4a203.265 203.265 0 0 1 37 21c4.231.043 6.064 2.21 5.5 6.5.5 70.333.667 140.666.5 211a84.545 84.545 0 0 0-18 8.5 6204.11 6204.11 0 0 0-24 15 114.302 114.302 0 0 1-13 6c-1.918 2.928-4.585 4.594-8 5a240.159 240.159 0 0 0-15 10 239.706 239.706 0 0 0-12 5.5Z"/><path style="opacity:1" fill="#273338" d="M317.5 147.5a139.2 139.2 0 0 1-23-1l-6-1.5a301.986 301.986 0 0 0-51-30l-4.5-4.5c-2.09.652-4.257.819-6.5.5a194.201 194.201 0 0 1-32 19 234.559 234.559 0 0 1-28 16.5c-1.73.526-3.064 1.526-4 3a288.418 288.418 0 0 1-13 6.5c-5.201 4.797-11.201 8.13-18 10-5.669 5.02-11.836 9.187-18.5 12.5-.5 45.332-.667 90.665-.5 136 5.301 1.324 9.968 3.824 14 7.5l10 4c1.918 2.928 4.585 4.594 8 5 2.674 3.012 6.007 4.678 10 5a53.553 53.553 0 0 0 8 5.5v13a182.694 182.694 0 0 0-25-12.5l-6-5a213.392 213.392 0 0 1-27.5-15.5 2946.23 2946.23 0 0 1 1-153 230.435 230.435 0 0 0 32.5-19.5c8.372-3.019 16.038-7.352 23-13 5.093-1.382 9.426-4.049 13-8a90.42 90.42 0 0 0 14-6c1.918-2.928 4.585-4.594 8-5a226.438 226.438 0 0 1 29-17 42.498 42.498 0 0 1 13 0c1.918 2.928 4.585 4.594 8 5a846.02 846.02 0 0 0 33 20 340.36 340.36 0 0 1 39 22.5Z"/><path style="opacity:1" fill="#d96845" d="M294.5 146.5a4095.618 4095.618 0 0 1-128 1v-1a234.559 234.559 0 0 0 28-16.5 194.201 194.201 0 0 0 32-19c2.243.319 4.41.152 6.5-.5l4.5 4.5a301.986 301.986 0 0 1 51 30l6 1.5ZM621.5 141.5v49h-74c.167-19.003 0-38.003-.5-57a4.457 4.457 0 0 1-1.5-2 43.117 43.117 0 0 0-13-1 251.522 251.522 0 0 0 18-11.5 112.253 112.253 0 0 0 17-8.5 784.043 784.043 0 0 0 54 31Z"/><path style="opacity:1" fill="#252021" d="M532.5 130.5a43.117 43.117 0 0 1 13 1 4.457 4.457 0 0 0 1.5 2c.5 18.997.667 37.997.5 57h74v-49a40.914 40.914 0 0 1 .5-9c.708-.881 1.542-1.547 2.5-2a201.53 201.53 0 0 1 34 1.5 9.454 9.454 0 0 1 1.5 2.5c.499 5.657.666 11.324.5 17v288c.167 55.668 0 111.334-.5 167l-2.5 2.5c-11 .667-22 .667-33 0l-2.5-2.5c-.5-18.997-.667-37.997-.5-57h-74c.167 19.003 0 38.003-.5 57-.816 1.323-1.983 1.989-3.5 2h-13v-10c2.235.295 4.235-.039 6-1v-455h-16v340h-11v-19c-102.835-.333-205.501.001-308 1v15a142.39 142.39 0 0 0 15-6.5c2.73-.728 5.397-.562 8 .5a141.484 141.484 0 0 1 9.5 22c.347 1.68 1.347 2.68 3 3a173.92 173.92 0 0 1 20.5-8v20c-1.057-2.364-2.557-4.364-4.5-6l-11.5 4.5a3.943 3.943 0 0 0-1 2 4463.146 4463.146 0 0 0 24 58.5 48.73 48.73 0 0 0 17 .5 329.304 329.304 0 0 1-14-35.5c3.462-.982 7.129-1.315 11-1 0 .667.333 1 1 1a1184.723 1184.723 0 0 1 14 36h24c-3.333 4-7 7.667-11 11h-113c-1.911-.074-3.078-1.074-3.5-3-.667-41-.667-82 0-123l2.5-2.5c97.999-.5 195.999-.667 294-.5h23v-16h-23c-98.001.167-196.001 0-294-.5a6.978 6.978 0 0 1-2.5-3.5 2969.016 2969.016 0 0 1 0-109c1.129-1.641 2.629-2.641 4.5-3h315c.321-5.526-.012-10.86-1-16h-21c-98.334.167-196.667 0-295-.5a6.978 6.978 0 0 1-2.5-3.5c-.667-41-.667-82 0-123l2.5-2.5c98.333-.5 196.666-.667 295-.5h21c.988-5.14 1.321-10.474 1-16h-336c-.333 146.501 0 292.834 1 439h116a177.724 177.724 0 0 1-11 11.5 40.914 40.914 0 0 1-9 .5h-84c-7.008.166-14.008 0-21-.5l-2.5-2.5c-.5-51.999-.667-103.999-.5-156v-18a821.862 821.862 0 0 0 0-77v-14c.833-63.832 1.333-127.832 1.5-192 .995-.566 1.828-1.233 2.5-2 42.837.332 85.503-.001 128-1a139.2 139.2 0 0 0 23 1h2a2449.087 2449.087 0 0 0 133 0c12.178.328 24.178-.005 36-1 4.333 1.333 8.667 1.333 13 0 2.107.968 4.441 1.302 7 1 .237-1.291-.096-2.291-1-3a76.413 76.413 0 0 0 1.5-11 4.457 4.457 0 0 1 1.5-2 127.743 127.743 0 0 1 22-1Zm89 331v49h-11v-1c.225-2.216-.608-3.883-2.5-5a684.346 684.346 0 0 1-.5-37c1.951.273 3.451-.393 4.5-2l1 1c2.301-2.567 5.134-4.234 8.5-5Z"/><path style="opacity:1" fill="#d88488" d="M536.5 597.5h-6c.167-37.335 0-74.668-.5-112-2.642-2.529-5.808-3.529-9.5-3v-340h16v455Z"/><path style="opacity:1" fill="#df898c" d="M633.5 142.5h15v455h-15v-455Z"/><path style="opacity:1" fill="#d16645" d="M507.5 144.5c.904.709 1.237 1.709 1 3-2.559.302-4.893-.032-7-1 1.642-1.581 3.642-2.247 6-2Z"/><path style="opacity:1" fill="#da6845" d="M162.5 149.5v192a53.553 53.553 0 0 1-8-5.5c-3.993-.322-7.326-1.988-10-5-3.415-.406-6.082-2.072-8-5l-10-4c-4.032-3.676-8.699-6.176-14-7.5-.167-45.335 0-90.668.5-136 6.664-3.313 12.831-7.48 18.5-12.5 6.799-1.87 12.799-5.203 18-10a288.418 288.418 0 0 0 13-6.5Z"/><path style="opacity:1" fill="#452f2c" d="M166.5 146.5v1c-.672.767-1.505 1.434-2.5 2-.167 64.168-.667 128.168-1.5 192v-192c.936-1.474 2.27-2.474 4-3Z"/><path style="opacity:1" fill="#263238" d="M660.5 151.5a333.527 333.527 0 0 0 29 15.5 69.2 69.2 0 0 1 4.5 6.5c.667 48.667.667 97.333 0 146-5.181 6.173-11.681 10.34-19.5 12.5a50.422 50.422 0 0 1-14 8.5v-13c7-3.473 13.667-7.64 20-12.5a12.93 12.93 0 0 1 5-.5c.167-28.335 0-56.669-.5-85l-2-2-1-51a1343.728 1343.728 0 0 0-21.5-12v-13Z"/><path style="opacity:1" fill="#643f45" d="M508.5 174.5v-15h-334v438c-1-146.166-1.333-292.499-1-439h336c.321 5.526-.012 10.86-1 16Z"/><path style="opacity:1" fill="#d26e73" d="M487.5 159.5v15c-98.334-.167-196.667 0-295 .5l-2.5 2.5c-.667 41-.667 82 0 123a6.978 6.978 0 0 0 2.5 3.5c98.333.5 196.666.667 295 .5v15c-97.835-.333-195.501.001-293 1-1.871.359-3.371 1.359-4.5 3a2969.016 2969.016 0 0 0 0 109 6.978 6.978 0 0 0 2.5 3.5c97.999.5 195.999.667 294 .5 0 .667.333 1 1 1v14c-.667 0-1 .333-1 1-98.001-.167-196.001 0-294 .5l-2.5 2.5c-.667 41-.667 82 0 123 .422 1.926 1.589 2.926 3.5 3l112 2-15 14h-116v-438h313Z"/><path style="opacity:1" fill="#b35f6c" d="M487.5 159.5h21v15h-21v-15Z"/><path style="opacity:1" fill="#d96845" d="M660.5 164.5c7.19 3.927 14.357 7.927 21.5 12l1 51 2 2c.5 28.331.667 56.665.5 85a12.93 12.93 0 0 0-5 .5c-6.333 4.86-13 9.027-20 12.5v-163Z"/><path style="opacity:1" fill="#593941" d="M201.5 186.5a23720.922 23720.922 0 0 1 308-1v108c-7.852.325-15.518-.008-23-1h22v-106h-307Z"/><path style="opacity:1" fill="#b35e6c" d="M201.5 186.5h307v106h-22a2933.153 2933.153 0 0 0-48-74.5 12.494 12.494 0 0 0-7 0 51.347 51.347 0 0 0-12.5 8.5l-1-20-2.5-2.5a164.492 164.492 0 0 0-31 .5 4.457 4.457 0 0 0-1.5 2c-.5 9.327-.666 18.661-.5 28h-17c.166-9.006 0-18.006-.5-27a10.756 10.756 0 0 0-2.5-3 241.183 241.183 0 0 0-38-.5c-.881.708-1.547 1.542-2 2.5a1850.088 1850.088 0 0 0-1 86h-21a33.052 33.052 0 0 1-2.5-6 7772.456 7772.456 0 0 1-44.5-68c-2.603-1.062-5.27-1.228-8-.5a137.603 137.603 0 0 0-12.5 8.5l-1-20a4.457 4.457 0 0 1-1.5-2 211.151 211.151 0 0 0-29-1v-17Z"/><path style="opacity:1" fill="#5f3c44" d="M621.5 202.5h-73v15c-.988-5.14-1.321-10.474-1-16 24.839-.331 49.506.002 74 1Z"/><path style="opacity:1" fill="#b35f6c" d="M621.5 202.5v15h-73v-15h73Z"/><path style="opacity:1" fill="#433036" d="M322.5 206.5v87c-7.519.325-14.852-.008-22-1h21c-.331-28.838.002-57.505 1-86Z"/><path style="opacity:1" fill="#fdcb81" d="M201.5 215.5h20v78h-20v-78Z"/><path style="opacity:1" fill="#f6f7f6" d="M333.5 215.5h20v77h-20v-77Z"/><path style="opacity:1" fill="#34384a" d="M394.5 215.5v77h13c-4.47.986-9.137 1.319-14 1-.331-26.172.002-52.172 1-78Z"/><path style="opacity:1" fill="#6587cb" d="M394.5 215.5h13v77h-13v-77Z"/><path style="opacity:1" fill="#fdfdfd" d="M572.5 229.5c3.257 2 6.591 4 10 6 1 20.322 1.333 40.656 1 61h-36v-68c8.388-.273 16.721.06 25 1Z"/><path style="opacity:1" fill="#263238" d="M572.5 229.5a139.2 139.2 0 0 1 23 1v66h-12c.333-20.344 0-40.678-1-61-3.409-2-6.743-4-10-6Z"/><path style="opacity:1" fill="#da6845" d="M595.5 296.5v-66c8.484-.993 17.151-1.326 26-1v67h-26Z"/><path style="opacity:1" fill="#fa638d" d="M431.5 231.5c1.322-.17 2.489.163 3.5 1a5682.741 5682.741 0 0 0 38.5 60.5c-6.582.81-13.082.643-19.5-.5l-32-52c-.749-1.135-.583-2.135.5-3a61.198 61.198 0 0 0 9-6Z"/><path style="opacity:1" fill="#a3a3be" d="M285.5 290.5c-5.235 1.95-10.902 2.617-17 2a2112.954 2112.954 0 0 1-33-53c3.202-3.522 7.035-6.189 11.5-8a709.635 709.635 0 0 1 38.5 59Z"/><path style="opacity:1" fill="#3a3f5a" d="M382.5 246.5h-17v46h17c-5.81.99-11.81 1.323-18 1v-48c6.19-.323 12.19.01 18 1Z"/><path style="opacity:1" fill="#6377bf" d="M382.5 246.5v46h-17v-46h17Z"/><path style="opacity:1" fill="#75434d" d="M234.5 260.5c-.994 10.487-1.328 21.154-1 32 6.854.324 13.521-.009 20-1 .543.06.876.393 1 1a121.862 121.862 0 0 1-22 1c-.167-12.005 0-24.005.5-36 1.039.744 1.539 1.744 1.5 3Z"/><path style="opacity:1" fill="#76444d" d="M420.5 260.5c-.994 10.487-1.328 21.154-1 32 6.854.324 13.521-.009 20-1 .543.06.876.393 1 1a121.862 121.862 0 0 1-22 1c-.167-12.005 0-24.005.5-36l1.5 3Z"/><path style="opacity:1" fill="#af5d6a" d="M234.5 260.5a466.756 466.756 0 0 1 19 31c-6.479.991-13.146 1.324-20 1-.328-10.846.006-21.513 1-32Z"/><path style="opacity:1" fill="#af5c6a" d="M420.5 260.5a466.756 466.756 0 0 1 19 31c-6.479.991-13.146 1.324-20 1-.328-10.846.006-21.513 1-32Z"/><path style="opacity:1" fill="#565562" d="M285.5 290.5c.978.311 1.645.978 2 2-6.488 1.317-12.822 1.317-19 0 6.098.617 11.765-.05 17-2Z"/><path style="opacity:1" fill="#807f83" d="M333.5 215.5v77h20c-6.813.991-13.813 1.325-21 1-.331-26.172.002-52.172 1-78Z"/><path style="opacity:1" fill="#b35f6c" d="M487.5 304.5h21v15h-21v-15Z"/><path style="opacity:1" fill="#b35e6c" d="M547.5 308.5h74v15h-74v-15Z"/><path style="opacity:1" fill="#73454b" d="M508.5 304.5c.988 5.14 1.321 10.474 1 16h-315c97.499-.999 195.165-1.333 293-1h21v-15Z"/><path style="opacity:1" fill="#412f35" d="M201.5 331.5v93h19c-6.479.991-13.146 1.324-20 1-.332-31.504.002-62.838 1-94Z"/><path style="opacity:1" fill="#6f414a" d="M201.5 332.5v-1h308v94h-18v-25c.992 7.816 1.326 15.816 1 24h16v-92h-307Z"/><path style="opacity:1" fill="#b35e6c" d="M201.5 332.5h307v92h-16c.326-8.184-.008-16.184-1-24-.6-1.4-1.6-2.4-3-3-6.813-.991-13.813-1.325-21-1 .326-8.184-.008-16.184-1-24-.437-1.574-1.437-2.741-3-3.5a1023.738 1023.738 0 0 0-64 0 14.698 14.698 0 0 0-3 3.5 676.419 676.419 0 0 0-1 52h-14a1483 1483 0 0 0-1-77l-3-1.5a160.723 160.723 0 0 0-31 .5c-1.951 11.817-2.618 23.817-2 36h-18c.166-9.339 0-18.673-.5-28-.5-1.167-1.333-2-2.5-2.5-12-.667-24-.667-36 0l-1.5 1.5a86.578 86.578 0 0 1-1.5 13l-13-8.5c-1.667-.667-3.333-.667-5 0a4226.907 4226.907 0 0 0-46 66.5h-19v-92Z"/><path style="opacity:1" fill="#fbfbfb" d="M583.5 335.5c.086.996-.248 1.829-1 2.5a44.842 44.842 0 0 0-14 8c-6.4 2.062-12.067 5.396-17 10a4.934 4.934 0 0 1-3 .5c-.991-6.813-1.325-13.813-1-21h36Z"/><path style="opacity:1" fill="#283338" d="M583.5 335.5h12a18.453 18.453 0 0 1-.5 6c-3.65 4.239-8.15 7.072-13.5 8.5a172.26 172.26 0 0 1-18 13c-5.569 1.465-10.569 3.965-15 7.5v-14a4.934 4.934 0 0 0 3-.5c4.933-4.604 10.6-7.938 17-10a44.842 44.842 0 0 1 14-8c.752-.671 1.086-1.504 1-2.5Z"/><path style="opacity:1" fill="#d86845" d="M595.5 335.5h26v13c-4.273 4.043-9.273 6.876-15 8.5-3.796 3.592-8.129 6.259-13 8a131.213 131.213 0 0 1-23 13l-4 4a101.18 101.18 0 0 0-17 8.5c-.99-6.145-1.323-12.478-1-19v-1c4.431-3.535 9.431-6.035 15-7.5a172.26 172.26 0 0 0 18-13c5.35-1.428 9.85-4.261 13.5-8.5.495-1.973.662-3.973.5-6Z"/><path style="opacity:1" fill="#283339" d="M621.5 348.5v14c-3.735 1.874-7.068 4.374-10 7.5a59.724 59.724 0 0 0-20 11 146.497 146.497 0 0 0-31 18c-3.37 1.503-6.704 3.003-10 4.5l-2 1v-13c.667 0 1-.333 1-1a101.18 101.18 0 0 1 17-8.5l4-4a131.213 131.213 0 0 0 23-13c4.871-1.741 9.204-4.408 13-8 5.727-1.624 10.727-4.457 15-8.5Z"/><path style="opacity:1" fill="#f3628a" d="M355.5 357.5h15v68h-15v-68Z"/><path style="opacity:1" fill="#4c5f8a" d="M314.5 363.5h-17v61h17c-5.81.99-11.81 1.323-18 1v-63c6.19-.323 12.19.01 18 1Z"/><path style="opacity:1" fill="#678ad0" d="M314.5 363.5v61h-17v-61h17Z"/><path style="opacity:1" fill="#fcfdfd" d="M621.5 362.5v42c-23.839.331-47.506-.002-71-1 3.296-1.497 6.63-2.997 10-4.5a146.497 146.497 0 0 1 31-18 59.724 59.724 0 0 1 20-11c2.932-3.126 6.265-5.626 10-7.5Z"/><path style="opacity:1" fill="#924c37" d="M548.5 371.5c-.323 6.522.01 12.855 1 19 0 .667-.333 1-1 1a50.512 50.512 0 0 1 0-20Z"/><path style="opacity:1" fill="#f9c77f" d="M270.5 371.5a58.132 58.132 0 0 1 12 8 2116.557 2116.557 0 0 1-31 45.5 72.464 72.464 0 0 1-17 0 938.51 938.51 0 0 0 36-53.5Z"/><path style="opacity:1" fill="#a8a9c5" d="M408.5 380.5h47v16h-47v-16Z"/><path style="opacity:1" fill="#3f4564" d="M326.5 394.5v30h18c-6.145.99-12.478 1.323-19 1-.328-10.514.006-20.847 1-31Z"/><path style="opacity:1" fill="#6377bf" d="M326.5 394.5h18v30h-18v-30Z"/><path style="opacity:1" fill="#5c5a68" d="M408.5 380.5v16h47a576.628 576.628 0 0 1-48 1c-.322-5.858.011-11.525 1-17Z"/><path style="opacity:1" fill="#5b3a42" d="M466.5 372.5c.992 7.816 1.326 15.816 1 24 7.187-.325 14.187.009 21 1h-22v-25Z"/><path style="opacity:1" fill="#75434d" d="M267.5 422.5c5.235 1.95 10.902 2.617 17 2 .326-8.517-.007-16.85-1-25l1.5-3c.5 9.661.666 19.328.5 29-6.675.166-13.342 0-20-.5.566-.995 1.233-1.828 2-2.5Z"/><path style="opacity:1" fill="#ae5c6a" d="M283.5 399.5c.993 8.15 1.326 16.483 1 25-6.098.617-11.765-.05-17-2a417.903 417.903 0 0 1 16-23Z"/><path style="opacity:1" fill="#613c45" d="M396.5 372.5v53c-5.195.321-10.195-.013-15-1h14a676.419 676.419 0 0 1 1-52Z"/><path style="opacity:1" fill="#626065" d="M550.5 403.5c23.494.998 47.161 1.331 71 1a666.791 666.791 0 0 1-73 0l2-1Z"/><path style="opacity:1" fill="#4a5480" d="M408.5 408.5v16h71v-15c-11.179.328-22.179-.005-33-1h34v17h-73c-.322-5.858.011-11.525 1-17Z"/><path style="opacity:1" fill="#6377bf" d="M408.5 408.5h38c10.821.995 21.821 1.328 33 1v15h-71v-16Z"/><path style="opacity:1" fill="#b35e6c" d="M547.5 416.5h74v15h-74v-15Z"/><path style="opacity:1" fill="#6f414a" d="M486.5 436.5h23v16h-23c0-.667.333-1 1-1h21v-14h-21c-.667 0-1-.333-1-1Z"/><path style="opacity:1" fill="#b35f6c" d="M487.5 437.5h21v14h-21v-14Z"/><path style="opacity:1" fill="#fcfcfc" d="M547.5 443.5c14.67-.167 29.337 0 44 .5a669.167 669.167 0 0 0-43 24.5c-.993-8.15-1.326-16.483-1-25Z"/><path style="opacity:1" fill="#2b353b" d="M547.5 443.5a737.48 737.48 0 0 1 67 0c-.453.958-1.119 1.792-2 2.5a112.343 112.343 0 0 0-17 8 1993.405 1993.405 0 0 1-47 28.5v-14a669.167 669.167 0 0 1 43-24.5c-14.663-.5-29.33-.667-44-.5Z"/><path style="opacity:1" fill="#d86845" d="M614.5 443.5h7v18c-3.366.766-6.199 2.433-8.5 5l-1-1c-1.049 1.607-2.549 2.273-4.5 2-.167 12.338 0 24.671.5 37 1.892 1.117 2.725 2.784 2.5 5a61.281 61.281 0 0 1-15 1c.166-8.007 0-16.007-.5-24-3.681-2.86-7.848-3.693-12.5-2.5a58.12 58.12 0 0 1-11 5l-5 5c-6.192 1.455-11.859 3.955-17 7.5-1.318-2.758-1.985-5.924-2-9.5.002-3.352.335-6.518 1-9.5a1993.405 1993.405 0 0 0 47-28.5 112.343 112.343 0 0 1 17-8c.881-.708 1.547-1.542 2-2.5Z"/><path style="opacity:1" fill="#7e4751" d="M201.5 464.5a23720.922 23720.922 0 0 1 308-1v19h-1v-18h-307Z"/><path style="opacity:1" fill="#b35e6c" d="M201.5 464.5h307v18c-36.668-.167-73.335 0-110 .5-2 .667-3.333 2-4 4-3.464.817-6.798.483-10-1-9.327-.5-18.661-.666-28-.5.473-3.333-.86-5.5-4-6.5a256.122 256.122 0 0 0-32 0c-2.338 1.508-3.338 3.675-3 6.5-19.336-.167-38.67 0-58 .5-1.537 1.11-2.203 2.61-2 4.5a173.92 173.92 0 0 0-20.5 8c-1.653-.32-2.653-1.32-3-3a141.484 141.484 0 0 0-9.5-22c-2.603-1.062-5.27-1.228-8-.5a142.39 142.39 0 0 1-15 6.5v-15Z"/><path style="opacity:1" fill="#252021" d="M356.5 485.5h-39c-.338-2.825.662-4.992 3-6.5a256.122 256.122 0 0 1 32 0c3.14 1 4.473 3.167 4 6.5Z"/><path style="opacity:1" fill="#2a3339" d="M508.5 482.5h12c3.692-.529 6.858.471 9.5 3 .5 37.332.667 74.665.5 112h6c-1.765.961-3.765 1.295-6 1v10h13c-4.134.985-8.468 1.318-13 1-.167 21.003 0 42.003.5 63a8207.056 8207.056 0 0 1 51.5-30c1-30.993 1.333-61.993 1-93h12c.167 31.002 0 62.002-.5 93-2.329 5.671-6.162 10.171-11.5 13.5a192.811 192.811 0 0 0-13 6 219.87 219.87 0 0 0-13 10 78.488 78.488 0 0 0-23 13 8.43 8.43 0 0 1-4 .5c.166 8.673 0 17.34-.5 26a11.333 11.333 0 0 1-1.5 3.5l-49 1a209.75 209.75 0 0 0-30 18c-6.4 2.062-12.067 5.396-17 10-6.761 1.869-12.761 5.202-18 10-3.978 2.407-8.311 4.073-13 5a12.494 12.494 0 0 1-7 0c-7.32-2.656-13.987-6.323-20-11a7040.07 7040.07 0 0 1-28-16c-3.959.349-6.626-1.317-8-5-6.761-1.869-12.761-5.202-18-10a1863.007 1863.007 0 0 1-61-1.5l-1.5-3-1-30a109.9 109.9 0 0 0-30.5-18.5 55.63 55.63 0 0 0-18-10 18.839 18.839 0 0 0-6.5-5.5 760.316 760.316 0 0 1-.5-39h12c-.167 11.005 0 22.005.5 33a46.99 46.99 0 0 0 10.5 5.5l4 4a90.42 90.42 0 0 0 14 6c3.492 1.624 6.492 3.958 9 7a8.43 8.43 0 0 0 4 .5c.283.789.783 1.456 1.5 2 .5-11.328.667-22.662.5-34a4.934 4.934 0 0 1 .5-3l15-15c.667-1 .667-2 0-3a10.515 10.515 0 0 1-2.5-3 40.914 40.914 0 0 0 9-.5 177.724 177.724 0 0 0 11-11.5l15-14c.838-.342 1.172-1.008 1-2 4-3.333 7.667-7 11-11 4-3.333 7.667-7 11-11 .992.172 1.658-.162 2-1a84.01 84.01 0 0 1 7.5-8c.499-5.657.666-11.324.5-17-3.333-1.333-6.667-1.333-10 0h-11c-13-1.333-26-1.333-39 0-3.871-.315-7.538.018-11 1a225.727 225.727 0 0 1-9.5-4c-.5-6.658-.666-13.325-.5-20v-20c-.203-1.89.463-3.39 2-4.5 19.33-.5 38.664-.667 58-.5h39c9.339-.166 18.673 0 28 .5 3.202 1.483 6.536 1.817 10 1 .667-2 2-3.333 4-4 36.665-.5 73.332-.667 110-.5Z"/><path style="opacity:1" fill="#273238" d="M595.5 510.5h-12a98.432 98.432 0 0 0-.5-14c-7.277 5.006-14.777 9.34-22.5 13a5.727 5.727 0 0 1-3 1h-9c-.236-3.109.097-6.109 1-9 5.141-3.545 10.808-6.045 17-7.5l5-5a58.12 58.12 0 0 0 11-5c4.652-1.193 8.819-.36 12.5 2.5.5 7.993.666 15.993.5 24Z"/><path style="opacity:1" fill="#a3a3bf" d="M214.5 486.5h4a3212.206 3212.206 0 0 1 33 84 128.507 128.507 0 0 1-16-.5 7626.787 7626.787 0 0 1-32-77.5c3.737-2.011 7.404-4.011 11-6Z"/><path style="opacity:1" fill="#c8672b" d="M521.5 707.5v-216h-118v216a11770.92 11770.92 0 0 1-1-217h120a11770.92 11770.92 0 0 1-1 217Z"/><path style="opacity:1" fill="#fe7828" d="M521.5 707.5h-118v-216h118v216Z"/><path style="opacity:1" fill="#fd7828" d="M379.5 677.5v30h-114c-.167-24.336 0-48.669.5-73l80-80c.667-9 .667-18 0-27l-1.5-1.5c-26.331-.5-52.665-.667-79-.5v-32h115c.167 25.002 0 50.002-.5 75a4350.025 4350.025 0 0 0-79 78 65.046 65.046 0 0 0-1.5 15.5l.5 13.5a9.454 9.454 0 0 0 2.5 1.5c25.665.5 51.331.667 77 .5Z"/><path style="opacity:1" fill="#f9f9f9" d="M583.5 510.5c-7.852.325-15.518-.008-23-1 7.723-3.66 15.223-7.994 22.5-13 .499 4.655.666 9.321.5 14Z"/><path style="opacity:1" fill="#f6f7f6" d="M388.5 499.5h6v71h-6v-71Z"/><path style="opacity:1" fill="#fb648d" d="M257.5 510.5c-.166 6.675 0 13.342.5 20a225.727 225.727 0 0 0 9.5 4 329.304 329.304 0 0 0 14 35.5 48.73 48.73 0 0 1-17-.5 4463.146 4463.146 0 0 1-24-58.5 3.943 3.943 0 0 1 1-2l11.5-4.5c1.943 1.636 3.443 3.636 4.5 6Z"/><path style="opacity:1" fill="#a7a6ab" d="M560.5 509.5c7.482.992 15.148 1.325 23 1a85.021 85.021 0 0 1-26 0 5.727 5.727 0 0 0 3-1Z"/><path style="opacity:1" fill="#663b32" d="M610.5 509.5v1c-5 1.333-10 1.333-15 0a61.281 61.281 0 0 0 15-1Z"/><path style="opacity:1" fill="#af5d6a" d="M201.5 519.5a571.896 571.896 0 0 1 21 51h-21v-51Z"/><path style="opacity:1" fill="#263238" d="M439.5 522.5c15.337-.167 30.67 0 46 .5l1.5 1.5c.667 49.333.667 98.667 0 148a9.454 9.454 0 0 1-1.5 2.5 528.986 528.986 0 0 1-46 0 9.454 9.454 0 0 1-1.5-2.5 5473.513 5473.513 0 0 1 0-148c.717-.544 1.217-1.211 1.5-2Z"/><path style="opacity:1" fill="#b35f6c" d="M548.5 522.5h73v15h-73v-15Z"/><path style="opacity:1" fill="#6377bf" d="M455.5 570.5h-10v-40h10v40Z"/><path style="opacity:1" fill="#252021" d="M467.5 530.5v40h12v12h-34v-11c3.542.313 6.875-.021 10-1a400.456 400.456 0 0 0 1-40h11Z"/><path style="opacity:1" fill="#b35f6c" d="M467.5 530.5h12v40h-12v-40Z"/><path style="opacity:1" fill="#6b4850" d="M317.5 533.5a361.608 361.608 0 0 0-38 1c-.667 0-1-.333-1-1 13-1.333 26-1.333 39 0Z"/><path style="opacity:1" fill="#b35e6c" d="M317.5 533.5v37h-24a1184.723 1184.723 0 0 0-14-36 361.608 361.608 0 0 1 38-1Z"/><path style="opacity:1" fill="#231f20" d="M317.5 533.5h11v26c-3.333 4-7 7.667-11 11v-37Z"/><path style="opacity:1" fill="#68686c" d="M338.5 533.5h-9c-.326 8.517.007 16.85 1 25-.342.838-1.008 1.172-2 1v-26c3.333-1.333 6.667-1.333 10 0Z"/><path style="opacity:1" fill="#f6f7f6" d="M338.5 533.5a145.053 145.053 0 0 1-.5 17 84.01 84.01 0 0 0-7.5 8c-.993-8.15-1.326-16.483-1-25h9Z"/><path style="opacity:1" fill="#5f3c44" d="M548.5 522.5v15h73a1369.272 1369.272 0 0 1-74 1c-.321-5.526.012-10.86 1-16Z"/><path style="opacity:1" fill="#fefefe" d="M583.5 549.5c.333 31.007 0 62.007-1 93a8207.056 8207.056 0 0 0-51.5 30 1983.68 1983.68 0 0 1-.5-63c4.532.318 8.866-.015 13-1 1.517-.011 2.684-.677 3.5-2 .5-18.997.667-37.997.5-57h36Z"/><path style="opacity:1" fill="#da6845" d="M595.5 549.5h15c.333 41.672 0 83.339-1 125-1.671 2.01-2.338 4.343-2 7-3.064 1.19-5.731 2.857-8 5h-3v3a58.97 58.97 0 0 0-11 3v3c-1.859-.039-3.192.794-4 2.5a12.93 12.93 0 0 1-5 .5v3c-2.582-.475-4.582.192-6 2-2.281 1.928-4.947 2.928-8 3v3h-6v3c-4.045-.073-7.378 1.427-10 4.5l1 1a118.288 118.288 0 0 0-17 7.5 10.756 10.756 0 0 0-2.5 3l-1-1c-1.049 1.607-2.549 2.273-4.5 2v3h-6v3h-5v3c-2.524-.071-4.524.929-6 3-2.12-1.372-3.12-.705-3 2a12.93 12.93 0 0 0-5 .5 101.657 101.657 0 0 0-10 7.5 9.108 9.108 0 0 1-5 1v3c-2.51-.446-4.51.22-6 2-2.216.703-4.049 2.036-5.5 4-1.813-1.109-2.646-.442-2.5 2a12.93 12.93 0 0 0-5 .5c-1.497 1.871-3.497 2.871-6 3-1.307 2.324-3.307 3.657-6 4l2 1a12.93 12.93 0 0 1-5 .5v3a9.86 9.86 0 0 0-6 1 35.217 35.217 0 0 1-8 4v3h-6v3h-6v3a8.43 8.43 0 0 0-4 .5l-5 5c-1.284.684-2.451.517-3.5-.5-1.263 2.968-3.263 3.968-6 3a2.428 2.428 0 0 0-.5 2h-12c-.507-1.359-1.507-2.359-3-3a137.913 137.913 0 0 0-11-4v-3c-2.133-1.386-5.133-2.386-9-3v-3h-5v-3c-3.005.247-5.505-.753-7.5-3l-1 1a4.934 4.934 0 0 1-.5-3h-6v-3h-5v-3h-6v-3c-5.922-1.727-11.089-4.727-15.5-9-.718.951-1.551 1.117-2.5.5 1.333-.667 1.333-1.333 0-2a12.93 12.93 0 0 0-5-.5v-3a58.97 58.97 0 0 1-11-3v-3c-8.654-3.265-16.321-6.932-23-11v-3h-6v-3h-5v-3a8.43 8.43 0 0 1-4-.5c-4.85-3.699-10.184-6.199-16-7.5v-3h-6v-3c-2.092-.061-3.592-1.061-4.5-3-1.299.466-2.799.466-4.5 0v-3c-1.788.285-3.455-.048-5-1-2.158-3.144-5.158-4.477-9-4v-3a12.93 12.93 0 0 1-5-.5c-2.625-3.031-6.125-5.864-10.5-8.5-2.537.677-4.537-.323-6-3l-1 1c-1.667-1-3-2.333-4-4-1.049 1.017-2.216 1.184-3.5.5l1-1a15.645 15.645 0 0 1-4-2.5c-1-23.657-1.333-47.324-1-71h15c-.167 13.004 0 26.004.5 39a18.839 18.839 0 0 1 6.5 5.5 55.63 55.63 0 0 1 18 10 109.9 109.9 0 0 1 30.5 18.5l1 30 1.5 3c20.325.833 40.658 1.333 61 1.5 5.239 4.798 11.239 8.131 18 10 1.374 3.683 4.041 5.349 8 5a7040.07 7040.07 0 0 0 28 16c6.013 4.677 12.68 8.344 20 11 2.333.667 4.667.667 7 0 4.689-.927 9.022-2.593 13-5 5.239-4.798 11.239-8.131 18-10 4.933-4.604 10.6-7.938 17-10a209.75 209.75 0 0 1 30-18l49-1a11.333 11.333 0 0 0 1.5-3.5c.5-8.66.666-17.327.5-26a8.43 8.43 0 0 0 4-.5 78.488 78.488 0 0 1 23-13 219.87 219.87 0 0 1 13-10 192.811 192.811 0 0 1 13-6c5.338-3.329 9.171-7.829 11.5-13.5.5-30.998.667-61.998.5-93Z"/><path style="opacity:1" fill="#272123" d="M394.5 582.5h-17a147.277 147.277 0 0 1 10-10.5 24.935 24.935 0 0 1 7-.5v11Z"/><path style="opacity:1" fill="#4c353b" d="M193.5 581.5h113c.172.992-.162 1.658-1 2l-112-2Z"/><path style="opacity:1" fill="#d26f73" d="M377.5 582.5h17v15c-10.846.328-21.513-.006-32-1l15-14ZM445.5 582.5h34v15h-34v-15Z"/><path style="opacity:1" fill="#282122" d="M362.5 596.5c10.487.994 21.154 1.328 32 1v12h-44c4.028-4.359 8.028-8.693 12-13ZM445.5 597.5h34v12h-34v-12Z"/><path style="opacity:1" fill="#fdfdfe" d="M213.5 609.5h57a10.515 10.515 0 0 0 2.5 3c.667 1 .667 2 0 3l-15 15a4.934 4.934 0 0 0-.5 3l-2 32a8.43 8.43 0 0 1-4-.5c-2.508-3.042-5.508-5.376-9-7a90.42 90.42 0 0 1-14-6l-4-4a46.99 46.99 0 0 1-10.5-5.5 544.417 544.417 0 0 1-.5-33Z"/><path style="opacity:1" fill="#da6845" d="M350.5 609.5h44c.333 19.678 0 39.345-1 59a256.389 256.389 0 0 1-17-10.5 114.065 114.065 0 0 1-14-6 523.182 523.182 0 0 1-22-15 35.625 35.625 0 0 1-12-6 666.266 666.266 0 0 1 22-21.5Z"/><path style="opacity:1" fill="#d96845" d="M445.5 609.5h34a128.507 128.507 0 0 1-.5 16 126.866 126.866 0 0 1-22.5 11.5 29.086 29.086 0 0 1-10 7.5 307.162 307.162 0 0 1-1-35Z"/><path style="opacity:1" fill="#c5c8c9" d="M257.5 633.5c.167 11.338 0 22.672-.5 34-.717-.544-1.217-1.211-1.5-2l2-32Z"/><path style="opacity:1" fill="#f7f7f7" d="M478.5 638.5c.994 9.819 1.327 19.819 1 30h-34c-.165-3.35.002-6.683.5-10l1.5-1.5a103.462 103.462 0 0 0 22-13c3.653-.83 6.653-2.663 9-5.5Z"/><path style="opacity:1" fill="#fcfcfd" d="M367.5 667.5a900.97 900.97 0 0 1-60 1c-.166-5.676.001-11.343.5-17l12-12a34.176 34.176 0 0 0 11.5 6.5c3.705 4.342 8.372 7.009 14 8a152.07 152.07 0 0 0 22 13.5Z"/><path style="opacity:1" fill="#c6c9ca" d="M367.5 667.5c.789.283 1.456.783 2 1.5a642.78 642.78 0 0 1-62-.5 900.97 900.97 0 0 0 60-1Z"/><path style="opacity:1" fill="#c8672b" d="M379.5 677.5c.994 10.153 1.328 20.486 1 31-38.504.332-76.837-.001-115-1h114v-30Z"/><path style="opacity:1" fill="#5b6468" d="m389.5 679.5-2 33a289.882 289.882 0 0 1 1-34c.607.124.94.457 1 1Z"/><path style="opacity:1" fill="#fcfcfc" d="M389.5 679.5c1.871.359 3.371 1.359 4.5 3l1 29c.66 1.824 1.827 3.157 3.5 4l55 2c-4.401.859-8.068 3.026-11 6.5-6.858 2.879-13.191 6.546-19 11a115.786 115.786 0 0 0-25 13.5 97.288 97.288 0 0 0-12-5.5c-3.543-1.608-6.543-3.942-9-7-5.662-.917-10.329-3.583-14-8-7.4-2.867-14.4-6.534-21-11l42-1c1.926-.422 2.926-1.589 3-3.5l2-33Z"/><path style="opacity:1" fill="#da6945" d="M599.5 686.5c1.333.667 1.333.667 0 0ZM570.5 703.5c1.333.667 1.333.667 0 0Z"/><path style="opacity:1" fill="#c6c9cb" d="M398.5 715.5c19.003-.167 38.003 0 57 .5-.544.717-1.211 1.217-2 1.5l-55-2Z"/><path style="opacity:1" fill="#da6945" d="M476.5 757.5c1.333.667 1.333.667 0 0Z"/></svg>