<?xml version="1.0" encoding="UTF-8"?><svg xmlns="http://www.w3.org/2000/svg" width="800" height="800" style="shape-rendering:geometricPrecision;text-rendering:geometricPrecision;image-rendering:optimizeQuality;fill-rule:evenodd;clip-rule:evenodd"><path style="opacity:1" fill="#c4f6f8" d="M576.5-.5h9a2.429 2.429 0 0 0 .5 2c1.049-1.017 2.216-1.184 3.5-.5a20.495 20.495 0 0 0 2.5 3.5c1.356-.88 2.856-1.214 4.5-1v3c2.822 1.432 6.489 2.432 11 3v3c2.092.061 3.592 1.061 4.5 3 2.537-.677 4.537.323 6 3 2.361-.566 4.194.434 5.5 3l2-1c.35 2.067 2.017 3.067 5 3v3h6v3h5v3h6v3a27.247 27.247 0 0 0 9 3c-.219 1.175.114 2.175 1 3a6.846 6.846 0 0 1 4-1v3a8.435 8.435 0 0 1 4 .5c-1.154.914-.987 1.747.5 2.5 1.299-.466 2.799-.466 4.5 0v3h6v3h5v3a428.986 428.986 0 0 0 20 8.5l-2 1c2.522.61 4.522 1.943 6 4 1.634.493 3.301.66 5 .5v3c2.908-.238 5.242.762 7 3 .951-.826 1.951-.992 3-.5l-1 1a6.977 6.977 0 0 1 3.5 2.5l1-1c.483.948.649 1.948.5 3h6v3h5v3c1.951-.273 3.451.393 4.5 2l1-1c6 4.386 12.5 7.886 19.5 10.5l-1 1c1.525 1.009 3.192 1.509 5 1.5v3h6v3h5v3c2.041.354 3.874.354 5.5 0 .483.948.649 1.948.5 3 2.836 1.276 5.836 1.942 9 2a7971.884 7971.884 0 0 1 2 251c-3.013-.128-5.513.872-7.5 3-2.411-1.653-3.578-.987-3.5 2-1.701.466-3.201.466-4.5 0-3.844 1.975-7.177 4.642-10 8l-1-1c-1.049 1.607-2.549 2.273-4.5 2v3c-3.937.204-7.604 1.204-11 3 .381 2.442-.286 3.109-2 2-.886.825-1.219 1.825-1 3h-6v3a12.93 12.93 0 0 0-5 .5c-1.079 2.043-2.746 3.376-5 4l1 1a12.93 12.93 0 0 1-5 .5v3a9.86 9.86 0 0 0-6 1c-3.423 1.192-6.256 3.192-8.5 6l-1-1c-1.049 1.607-2.549 2.273-4.5 2v3h-6v3h-5v3c-2.185.388-4.018 1.388-5.5 3-2.278-1.12-3.778-.287-4.5 2.5a101.955 101.955 0 0 0-13 5.5v3h-6v3h-6v3c-1.788-.285-3.455.048-5 1 1.129 2.029.629 2.363-1.5 1-1.712 3.452-4.212 4.452-7.5 3v3c-3.096-.593-5.429.407-7 3a47.25 47.25 0 0 1-7 3v3h-6v3c-1.788-.285-3.455.048-5 1-4.81 2.484-9.143 4.817-13 7h-1v-20a1523.194 1523.194 0 0 0 78-45.5 112.343 112.343 0 0 1 17-8l5-5a377.475 377.475 0 0 0 23-12l8-6a190.921 190.921 0 0 0 21.5-10.5c.667-76 .667-152 0-228a36.078 36.078 0 0 0-3.5-4.5c-3.29-.253-6.29-1.253-9-3a29746.604 29746.604 0 0 1-46-28 457.332 457.332 0 0 0-22-11l-4-4a161.879 161.879 0 0 1-33-19c-6.4-2.062-12.067-5.396-17-10a1126.1 1126.1 0 0 0-31-16c-2.365-3.714-5.698-5.714-10-6-7.082-6.364-15.416-9.031-25-8a12271.425 12271.425 0 0 1-129 74c-7.588 4.924-7.921 10.257-1 16a287.246 287.246 0 0 1 25 16 496.946 496.946 0 0 1 33 18c4.333.667 8.667.667 13 0a3162.857 3162.857 0 0 1 66-36.5 4261.045 4261.045 0 0 0 114 65.5c.826 17.093 1.326 34.26 1.5 51.5l2 2c.5 28.331.667 56.665.5 85a12.93 12.93 0 0 0-5 .5 679.07 679.07 0 0 0-23 15l-4 1a1288.893 1288.893 0 0 1-43 24.5l-2-146c-1.789-15.121-10.123-24.121-25-27a1296.178 1296.178 0 0 0-72-1 713.94 713.94 0 0 0-50-28.5l-4-4a77.598 77.598 0 0 1-23-13 312.387 312.387 0 0 0-27-14c-1.918-2.928-4.585-4.594-8-5a10892.14 10892.14 0 0 0-27-17 326.577 326.577 0 0 1-27-14c-3.83-4.162-8.497-6.83-14-8a2084.03 2084.03 0 0 0-77-44c-9.098-8.801-19.765-11.801-32-9a583.354 583.354 0 0 0-33 19 175.013 175.013 0 0 0-28 16l-4 1-23 15a336.071 336.071 0 0 0-40 23c-5.503 1.171-10.17 3.837-14 8A579.672 579.672 0 0 0 38 129.5 3410.247 3410.247 0 0 0 36.5 245c-.152 38.537.348 77.037 1.5 115.5l9.5 5.5c1.374 3.683 4.04 5.349 8 5a13376.247 13376.247 0 0 0 116 67c4.091 1.227 7.591.394 10.5-2.5.101-3.2.768-6.2 2-9 .667-23.333.667-46.667 0-70a20.231 20.231 0 0 0-7.5-7.5 82.15 82.15 0 0 1-22-13c-3.993-.322-7.326-1.988-10-5-3.415-.406-6.082-2.072-8-5l-10-4c-4.032-3.676-8.699-6.176-14-7.5-.167-45.335 0-90.668.5-136 6.664-3.313 12.831-7.48 18.5-12.5 6.799-1.87 12.799-5.203 18-10a81.82 81.82 0 0 0 19-11c5.503-1.171 10.17-3.837 14-8a368.678 368.678 0 0 0 44-26c2.243.319 4.41.152 6.5-.5 4.064 4.134 8.897 6.967 14.5 8.5a131.76 131.76 0 0 0 17 10 320.348 320.348 0 0 1 24 16 445.595 445.595 0 0 1 55 31 52.415 52.415 0 0 0 12 4.5 361.608 361.608 0 0 1-38 1 112.692 112.692 0 0 0-10-6.5 25.238 25.238 0 0 0-10 0l-2.5 2.5c-1.049-1.017-2.216-1.184-3.5-.5a157.284 157.284 0 0 1-6 4.5c-24.172-.331-48.172.002-72 1-11.676 3.009-19.009 10.343-22 22a48605.314 48605.314 0 0 0-1.5 312c-1.011.837-2.178 1.17-3.5 1 .167-17.67 0-35.336-.5-53a1204.023 1204.023 0 0 0-28.5-16.5c-6.204-2.789-12.537-4.622-19-5.5v-3h-6v-3h-3v-3h-6v-3h-5v-3c-2.921.354-5.254-.646-7-3-1.714 1.109-2.381.442-2-2a58.97 58.97 0 0 1-11-3v-3a27.267 27.267 0 0 0-9-3v-3c-2.908.238-5.242-.762-7-3a3.647 3.647 0 0 0-1.5 1c-1.667-1-3-2.333-4-4l-1 1a4.932 4.932 0 0 1-.5-3h-6v-3h-5v-3a544.412 544.412 0 0 1-29-14v-3a58.967 58.967 0 0 1-11-3v-3h-6v-3c-4.013-1.674-8.013-3.341-12-5 .008-83.648.008-167.148 0-250.5a169.104 169.104 0 0 0 15-5.5v-3a58.967 58.967 0 0 0 11-3v-3a417.79 417.79 0 0 0 15-7 32.686 32.686 0 0 0 8.5-6l1 1c1.049-1.607 2.549-2.273 4.5-2v-3a59.029 59.029 0 0 1 11-3 4.932 4.932 0 0 1 .5-3l1 1c2.015-3.065 4.515-4.065 7.5-3v-3h5v-3c1.7.16 3.366-.007 5-.5 1.478-2.057 3.478-3.39 6-4l-2-1a18.436 18.436 0 0 1 6-.5v-3a87.51 87.51 0 0 0 14-5v-3h6v-3h5v-3c1.701-.466 3.201-.466 4.5 0 3.279-4.047 7.946-7.047 14-9a18.264 18.264 0 0 0 5-4l1 1c1.049-1.607 2.549-2.273 4.5-2v-3h5v-3h6v-3c4.612-1.195 9.279-2.862 14-5v-3c1.701-.466 3.201-.466 4.5 0 .908-1.939 2.408-2.939 4.5-3v-3h6v-3c1.788.285 3.455-.048 5-1a38.767 38.767 0 0 0 7-4.5 49.25 49.25 0 0 1 14 0c2.025 1.677 4.359 2.677 7 3-1.134 1.016-.801 1.683 1 2l5 1-1 1c2.622 3.073 5.955 4.573 10 4.5v3h6v3c3.191.262 5.858 1.596 8 4a9.864 9.864 0 0 0 6 1v3c3.58 1.22 7.247 2.386 11 3.5l-2 1c2.767.678 4.934 2.178 6.5 4.5l1-1c3.769 1.797 7.102 4.13 10 7a3.942 3.942 0 0 1 2-1c1.482 1.612 3.315 2.612 5.5 3v3h6v3h5v3h6v3a87.51 87.51 0 0 0 14 5v3c1.699-.16 3.366.007 5 .5l-1 1c1.525 1.009 3.192 1.509 5 1.5v3h6v3h5v3c2.985-1.065 5.485-.065 7.5 3l1-1c.483.948.649 1.948.5 3h5v3h6v3c2.133 1.386 5.133 2.386 9 3v3c2.908-.238 5.242.762 7 3l2-1c.35 2.067 2.017 3.067 5 3v3h6v3c2.516-.255 4.85-1.089 7-2.5a626.207 626.207 0 0 1 29-17c.837-1.011 1.17-2.178 1-3.5 4.493-.216 7.993-2.216 10.5-6 1.011.837 2.178 1.17 3.5 1v-3a59.031 59.031 0 0 0 11-3v-3c1.808.009 3.475-.491 5-1.5l-1-1a12.935 12.935 0 0 1 5-.5v-3a9.864 9.864 0 0 0 6-1 35.213 35.213 0 0 1 8-4v-3h6v-3a59.031 59.031 0 0 1 11-3v-3c1.808.009 3.475-.491 5-1.5-1.388-.89-1.222-1.39.5-1.5 2.071 1.167 3.571.5 4.5-2 6.434-2.343 12.767-5.343 19-9v-3a59.031 59.031 0 0 1 11-3 4.934 4.934 0 0 1 .5-3l1 1c1.995-2.247 4.495-3.247 7.5-3v-3h5v-3h6v-3c1.808.009 3.475-.491 5-1.5l-1-1a12.936 12.936 0 0 1 5-.5v-3c3.552.188 6.219-1.145 8-4Z"/><path style="opacity:1" fill="#273339" d="M608.5 447.5v-13c.667 0 1-.333 1-1l1-2a57.829 57.829 0 0 1 8-2.5 2367.217 2367.217 0 0 1 73-42l4-4a114.302 114.302 0 0 0 13-6 846.02 846.02 0 0 0 33-20 73.86 73.86 0 0 0 9-3.5 7901.316 7901.316 0 0 0-1.5-216 2129.254 2129.254 0 0 1-37.5-21.5c-3.415-.406-6.082-2.072-8-5a91.311 91.311 0 0 1-23-13 457.332 457.332 0 0 0-22-11c-2.508-3.042-5.508-5.376-9-7a457.332 457.332 0 0 1-22-11l-24-15c-3.415-.406-6.082-2.072-8-5a90.401 90.401 0 0 0-14-6c-5.722-6.435-12.722-8.768-21-7-7.36 5.663-15.36 9.996-24 13-3.619 3.977-7.952 6.644-13 8-2.537 2.546-5.537 4.212-9 5l-4 4-10 4a2551.356 2551.356 0 0 0-60 36 7185.005 7185.005 0 0 1 26 16 114.065 114.065 0 0 0 14 6c4.2 3.6 8.867 6.433 14 8.5a684.54 684.54 0 0 1 19-8.5 43.593 43.593 0 0 1 13-8c2.365-3.714 5.698-5.714 10-6a705.673 705.673 0 0 1 21-12c4.719-2.307 9.719-2.974 15-2a113.107 113.107 0 0 0 28 15l5 5a182.852 182.852 0 0 1 35 20 193.115 193.115 0 0 1 32 19 197.694 197.694 0 0 1 17 8 36.078 36.078 0 0 1 3.5 4.5c1.657 49.25 1.99 98.584 1 148-5.181 6.173-11.681 10.34-19.5 12.5a12318.477 12318.477 0 0 1-28 18c-6.381 2.027-12.048 5.361-17 10-3.29.253-6.29 1.253-9 3a128.868 128.868 0 0 0-11 7.5h-1v-14c.992.172 1.658-.162 2-1a1288.893 1288.893 0 0 0 43-24.5l4-1a679.07 679.07 0 0 1 23-15 12.93 12.93 0 0 1 5-.5c.167-28.335 0-56.669-.5-85l-2-2c-.174-17.24-.674-34.407-1.5-51.5a4261.045 4261.045 0 0 1-114-65.5 3162.857 3162.857 0 0 0-66 36.5 42.479 42.479 0 0 1-13 0 496.946 496.946 0 0 0-33-18 287.246 287.246 0 0 0-25-16c-6.921-5.743-6.588-11.076 1-16a12271.425 12271.425 0 0 0 129-74c9.584-1.031 17.918 1.636 25 8 4.302.286 7.635 2.286 10 6a1126.1 1126.1 0 0 1 31 16c4.933 4.604 10.6 7.938 17 10a161.879 161.879 0 0 0 33 19l4 4a457.332 457.332 0 0 1 22 11 29746.604 29746.604 0 0 0 46 28c2.71 1.747 5.71 2.747 9 3a36.078 36.078 0 0 1 3.5 4.5c.667 76 .667 152 0 228a190.921 190.921 0 0 1-21.5 10.5l-8 6a377.475 377.475 0 0 1-23 12l-5 5a112.343 112.343 0 0 0-17 8 1523.194 1523.194 0 0 1-78 45.5Z"/><path style="opacity:1" fill="#28343a" d="M511.5 181.5a163.67 163.67 0 0 1-25-1 758.84 758.84 0 0 0-32-19.5 175.043 175.043 0 0 1-28-16c-5.662-.917-10.329-3.583-14-8-5.086-1.414-9.419-4.081-13-8a546.6 546.6 0 0 0-35-18 337.282 337.282 0 0 1-26-17 731.874 731.874 0 0 1-34-19c-5.487-1.208-10.154-3.875-14-8a24672.35 24672.35 0 0 1-21-11 179.568 179.568 0 0 1-15-10A228.066 228.066 0 0 0 230 34.5 112.066 112.066 0 0 0 206.5 48l-10 4-3 3c-6.771 2.445-12.771 6.111-18 11l-10 4-4 4a520.666 520.666 0 0 0-59 34l-9 3c-3.796 3.592-8.13 6.259-13 8A361.546 361.546 0 0 1 48 137.5c-.667 72-.667 144 0 216a7214.146 7214.146 0 0 0 125 72c.5-21.664.667-43.331.5-65a340.197 340.197 0 0 0-18-8.5 55.63 55.63 0 0 0-18-10 78.488 78.488 0 0 0-23-13 56.965 56.965 0 0 0-10.5-7.5 5697.651 5697.651 0 0 1 0-151 6.978 6.978 0 0 1 2.5-3.5 146.497 146.497 0 0 0 31-18c8.372-3.019 16.038-7.352 23-13 5.093-1.382 9.426-4.049 13-8a90.42 90.42 0 0 0 14-6c1.918-2.928 4.585-4.594 8-5a226.438 226.438 0 0 1 29-17 42.498 42.498 0 0 1 13 0l4 4a154.79 154.79 0 0 0 13 6 1081.768 1081.768 0 0 0 33 20l4 1c8.98 5.636 17.98 11.302 27 17 7.27 1.913 13.604 5.58 19 11 4.75 1.03 8.75 3.363 12 7l10 4 4 4a222.128 222.128 0 0 1 15 7.5 139.2 139.2 0 0 1-23-1 52.415 52.415 0 0 1-12-4.5 445.595 445.595 0 0 0-55-31 320.348 320.348 0 0 0-24-16 131.76 131.76 0 0 1-17-10c-5.603-1.533-10.436-4.366-14.5-8.5-2.09.652-4.257.819-6.5.5a368.678 368.678 0 0 1-44 26c-3.83 4.163-8.497 6.829-14 8a81.82 81.82 0 0 1-19 11c-5.201 4.797-11.201 8.13-18 10-5.669 5.02-11.836 9.187-18.5 12.5-.5 45.332-.667 90.665-.5 136 5.301 1.324 9.968 3.824 14 7.5l10 4c1.918 2.928 4.585 4.594 8 5 2.674 3.012 6.007 4.678 10 5a82.15 82.15 0 0 0 22 13 20.231 20.231 0 0 1 7.5 7.5c.667 23.333.667 46.667 0 70-1.232 2.8-1.899 5.8-2 9-2.909 2.894-6.409 3.727-10.5 2.5a13376.247 13376.247 0 0 1-116-67c-3.96.349-6.626-1.317-8-5l-9.5-5.5A3410.247 3410.247 0 0 1 36.5 245c-.152-38.537.348-77.037 1.5-115.5A579.672 579.672 0 0 1 80.5 107c3.83-4.163 8.497-6.829 14-8a336.071 336.071 0 0 1 40-23l23-15 4-1a175.013 175.013 0 0 1 28-16 583.354 583.354 0 0 1 33-19c12.235-2.801 22.902.199 32 9a2084.03 2084.03 0 0 1 77 44c5.503 1.17 10.17 3.838 14 8a326.577 326.577 0 0 0 27 14c8.98 5.636 17.98 11.302 27 17 3.415.406 6.082 2.072 8 5a312.387 312.387 0 0 1 27 14 77.598 77.598 0 0 0 23 13l4 4a713.94 713.94 0 0 1 50 28.5Z"/><path style="opacity:1" fill="#fdfdfd" d="M486.5 180.5a2916.974 2916.974 0 0 1-108 1 222.128 222.128 0 0 0-15-7.5l-4-4-10-4c-3.25-3.637-7.25-5.97-12-7-5.396-5.42-11.73-9.087-19-11a10892.14 10892.14 0 0 0-27-17l-4-1a1081.768 1081.768 0 0 1-33-20 154.79 154.79 0 0 1-13-6l-4-4a42.498 42.498 0 0 0-13 0 226.438 226.438 0 0 0-29 17c-3.415.406-6.082 2.072-8 5a90.42 90.42 0 0 1-14 6c-3.574 3.951-7.907 6.618-13 8-6.962 5.648-14.628 9.981-23 13a146.497 146.497 0 0 1-31 18 6.978 6.978 0 0 0-2.5 3.5 5697.651 5697.651 0 0 0 0 151 56.965 56.965 0 0 1 10.5 7.5 78.488 78.488 0 0 1 23 13 55.63 55.63 0 0 1 18 10 340.197 340.197 0 0 1 18 8.5c.167 21.669 0 43.336-.5 65a7214.146 7214.146 0 0 1-125-72c-.667-72-.667-144 0-216A361.546 361.546 0 0 0 80.5 119c4.87-1.741 9.204-4.408 13-8l9-3a520.666 520.666 0 0 1 59-34l4-4 10-4c5.229-4.889 11.229-8.555 18-11l3-3 10-4A112.066 112.066 0 0 1 230 34.5 228.066 228.066 0 0 1 254.5 46a179.568 179.568 0 0 0 15 10 24672.35 24672.35 0 0 0 21 11c3.846 4.125 8.513 6.792 14 8a731.874 731.874 0 0 0 34 19 337.282 337.282 0 0 0 26 17 546.6 546.6 0 0 1 35 18c3.581 3.919 7.914 6.586 13 8 3.671 4.417 8.338 7.083 14 8a175.043 175.043 0 0 0 28 16 758.84 758.84 0 0 1 32 19.5Z"/><path style="opacity:1" fill="#fdfefe" d="M610.5 431.5a931.31 931.31 0 0 1-1-61 128.868 128.868 0 0 1 11-7.5c2.71-1.747 5.71-2.747 9-3 4.952-4.639 10.619-7.973 17-10 9.313-5.969 18.646-11.969 28-18 7.819-2.16 14.319-6.327 19.5-12.5.99-49.416.657-98.75-1-148a36.078 36.078 0 0 0-3.5-4.5 197.694 197.694 0 0 0-17-8 193.115 193.115 0 0 0-32-19 182.852 182.852 0 0 0-35-20l-5-5a113.107 113.107 0 0 1-28-15c-5.281-.974-10.281-.307-15 2a705.673 705.673 0 0 0-21 12c-4.302.286-7.635 2.286-10 6a43.593 43.593 0 0 0-13 8 684.54 684.54 0 0 0-19 8.5 50.162 50.162 0 0 1-14-8.5 114.065 114.065 0 0 1-14-6 7185.005 7185.005 0 0 0-26-16 2551.356 2551.356 0 0 1 60-36l10-4 4-4c3.463-.788 6.463-2.454 9-5 5.048-1.356 9.381-4.023 13-8 8.64-3.004 16.64-7.337 24-13 8.278-1.768 15.278.565 21 7a90.401 90.401 0 0 1 14 6c1.918 2.928 4.585 4.594 8 5l24 15a457.332 457.332 0 0 0 22 11c3.492 1.624 6.492 3.958 9 7a457.332 457.332 0 0 1 22 11 91.311 91.311 0 0 0 23 13c1.918 2.928 4.585 4.594 8 5a2129.254 2129.254 0 0 0 37.5 21.5 7901.316 7901.316 0 0 1 1.5 216 73.86 73.86 0 0 1-9 3.5 846.02 846.02 0 0 1-33 20 114.302 114.302 0 0 1-13 6l-4 4a2367.217 2367.217 0 0 0-73 42 57.829 57.829 0 0 0-8 2.5Z"/><path style="opacity:1" fill="#28343a" d="M317.5 181.5h-32a157.284 157.284 0 0 0 6-4.5c1.284-.684 2.451-.517 3.5.5l2.5-2.5a25.238 25.238 0 0 1 10 0 112.692 112.692 0 0 1 10 6.5Z"/><path style="opacity:1" fill="#4c4e51" d="M355.5 180.5a139.2 139.2 0 0 0 23 1c36.171.332 72.171-.002 108-1a163.67 163.67 0 0 0 25 1c24.172-.331 48.172.002 72 1h-370a1296.178 1296.178 0 0 1 72-1h32a361.608 361.608 0 0 0 38-1Z"/><path style="opacity:1" fill="#1f2024" d="M213.5 182.5h370c14.877 2.879 23.211 11.879 25 27v161a512.628 512.628 0 0 0 0 64v45h-8c.333-90.835-.001-181.502-1-272-1.881-9.381-7.548-14.881-17-16.5-123-.667-246-.667-369 0-7.763 2.926-12.43 8.426-14 16.5a46751.717 46751.717 0 0 0-1.5 306 14.828 14.828 0 0 1-6.5 2v-311c2.991-11.657 10.324-18.991 22-22Z"/><path style="opacity:1" fill="#fefefe" d="M599.5 207.5v272h-25v-17h-30c.332-31.838-.002-63.504-1-95-2.298-8.298-7.631-13.631-16-16-37.83-.999-75.83-1.332-114-1v-62h121c1.157 8.49 1.324 17.157.5 26a116.252 116.252 0 0 0-11.5-13.5c-4.5-.833-6.333 1-5.5 5.5a190.218 190.218 0 0 0 21 25c2.879-.876 5.213-2.542 7-5l15-19c1.33-4.998-.504-7.164-5.5-6.5a174.328 174.328 0 0 0-10 12.5c-.993-8.15-1.326-16.483-1-25h30c.167-20.336 0-40.669-.5-61-2.36-3.938-5.527-7.105-9.5-9.5-94.403-.169-188.737-.669-283-1.5.086-.996-.248-1.829-1-2.5-6-.667-12-.667-18 0-.556.383-.889.883-1 1.5-4.014 1.834-8.347 2.501-13 2 .17-1.322-.163-2.489-1-3.5-14.371-3.068-23.538 2.432-27.5 16.5-.667 10-.667 20 0 30 .918 1.876 2.418 2.876 4.5 3v25h30c-.332 41.837.001 83.503 1 125 2.333 8.333 7.667 13.667 16 16 37.83.999 75.83 1.332 114 1v32h-114a2772.375 2772.375 0 0 1-8.5-11c-2.167-1.964-4.501-2.298-7-1a2772.375 2772.375 0 0 1-8.5 11h-24v44a326.223 326.223 0 0 0-23.5 8c-.5-101.999-.667-203.999-.5-306 1.57-8.074 6.237-13.574 14-16.5 123-.667 246-.667 369 0 9.452 1.619 15.119 7.119 17 16.5Z"/><path style="opacity:1" fill="#93b8ba" d="m608.5 209.5 2 146c-.342.838-1.008 1.172-2 1v-147Z"/><path style="opacity:1" fill="#babcbd" d="M608.5 370.5h1a931.31 931.31 0 0 0 1 61l-1 2a992.742 992.742 0 0 1-1-63Z"/><path style="opacity:1" fill="#4e4f52" d="M608.5 370.5a992.742 992.742 0 0 0 1 63c0 .667-.333 1-1 1a512.628 512.628 0 0 1 0-64Z"/><path style="opacity:.988" fill="#29353a" d="M191.5 204.5v311a14.828 14.828 0 0 0 6.5-2c.167-102.167.667-204.167 1.5-306-.167 102.001 0 204.001.5 306a326.223 326.223 0 0 1 23.5-8h1a852.267 852.267 0 0 1 22-7.5c2.525-.896 4.692-.396 6.5 1.5a306.347 306.347 0 0 1 0 35l-1.5 1.5a1310.021 1310.021 0 0 0-27 8.5 246.975 246.975 0 0 0-24 7 121.862 121.862 0 0 0-1 22 5046.326 5046.326 0 0 1-2-21 66.678 66.678 0 0 0-5.5 2c-.5 6.658-.666 13.325-.5 20a4379.31 4379.31 0 0 1-2-20c-1.239.442-2.239 1.109-3 2a2352.374 2352.374 0 0 0-37 11.5 794.835 794.835 0 0 1 37 11.5c1.902 1.651 3.902 1.984 6 1a51.05 51.05 0 0 0 13 5 297.747 297.747 0 0 0 13 4.5c14.329.5 28.663.667 43 .5v-24a1040.99 1040.99 0 0 0-1-64c.705-5.899 1.372-11.899 2-18 41.431-.661 82.764-1.328 124-2 2.082-.028 3.916.639 5.5 2 .207 6.414.707 12.747 1.5 19a992.742 992.742 0 0 0-1 63v24h7v-25c.636-19.9-.031-39.567-2-59 2.344-2.573 2.677-5.573 1-9 .826-4.816 1.326-9.816 1.5-15a4.457 4.457 0 0 0 1.5-2 2773.895 2773.895 0 0 1 129-.5c2.41.057 3.744 1.224 4 3.5-.306 2.885.027 5.552 1 8-1.236 4.465-1.236 8.799 0 13a548.986 548.986 0 0 0-.5 57c2.158.989 3.325 2.656 3.5 5-.645 1.312-1.645 2.312-3 3a111.148 111.148 0 0 0-1 21h5c1.333-30 1.333-60 0-90a202.977 202.977 0 0 0 1.5-19c.671-.752 1.504-1.086 2.5-1a784.68 784.68 0 0 0 56-1v-272c.999 90.498 1.333 181.165 1 272h8v-12h1v12c21.336-.167 42.669 0 64 .5l1.5 1.5c.667 76.333.667 152.667 0 229a6.978 6.978 0 0 1-3.5 2.5c-39.999.5-79.999.667-120 .5-2.805-.819-5.805-1.319-9-1.5-1.323-.816-1.989-1.983-2-3.5.166-9.339 0-18.673-.5-28-.717.544-1.217 1.211-1.5 2-1.517.011-2.684.677-3.5 2l-1 26-1.5 1.5a693.12 693.12 0 0 0-51 2 50.886 50.886 0 0 1-10 7 145.581 145.581 0 0 1-18 9c-4.933 4.604-10.6 7.938-17 10l-4 4c-6.761 1.869-12.761 5.202-18 10-5.111 2.701-10.611 4.534-16.5 5.5a66.364 66.364 0 0 1-9.5-2.5 35.157 35.157 0 0 0-10-5l-4-4a7040.07 7040.07 0 0 1-28-16c-3.959.349-6.626-1.317-8-5-8.36-3.016-16.027-7.349-23-13a1354.054 1354.054 0 0 1-52-1.5 4.457 4.457 0 0 0-1.5-2l-1-27a82.918 82.918 0 0 1-13.5-8.5 642.5 642.5 0 0 0-61-1.5c-24.336.167-48.669 0-73-.5l-1.5-1.5a256.122 256.122 0 0 1 0-32 6.978 6.978 0 0 1 3.5-2.5c23.664-.5 47.331-.667 71-.5 4.805.987 9.805 1.321 15 1v-15a95.51 95.51 0 0 0-15-4 6148.12 6148.12 0 0 1-73-24 4.457 4.457 0 0 1-1.5-2 624.938 624.938 0 0 1 0-50l1.5-1.5a9261.604 9261.604 0 0 1 73-23.5c1.322.17 2.489-.163 3.5-1 .167-104.167.667-208.167 1.5-312Zm419 323h14v137h-14v-137Zm-424 29v23a794.835 794.835 0 0 0-37-11.5 2352.374 2352.374 0 0 1 37-11.5Z"/><path style="opacity:1" fill="#5d6f72" d="M543.5 367.5a2256.409 2256.409 0 0 1 1 95v17h55a784.68 784.68 0 0 1-56 1v-113Z"/><path style="opacity:1" fill="#395559" d="M253.5 467.5c.06-.543.393-.876 1-1a183.078 183.078 0 0 1 1 27l-2-26Z"/><path style="opacity:1" fill="#83e1e5" d="M544.5 462.5h30v17h-30v-17Z"/><path style="opacity:1" fill="#82e0e4" d="M271.5 462.5h114v20h-122v-16a470.739 470.739 0 0 0 12 13.5c1.867.711 3.367.211 4.5-1.5.667-2 .667-4 0-6a123.207 123.207 0 0 0-8.5-10Z"/><path style="opacity:1" fill="#81dde1" d="M246.5 462.5a130.837 130.837 0 0 1-8.5 11c-1.075 5.933 1.092 7.767 6.5 5.5a144.543 144.543 0 0 0 9-11.5l2 26c.892 3.452 2.558 6.452 5 9a1040.99 1040.99 0 0 1 1 64 459.628 459.628 0 0 1-29-2.5c-6.448-4.823-9.115-11.323-8-19.5a1310.021 1310.021 0 0 1 27-8.5l1.5-1.5a306.347 306.347 0 0 0 0-35c-1.808-1.896-3.975-2.396-6.5-1.5a852.267 852.267 0 0 0-22 7.5v-43h22Z"/><path style="opacity:1" fill="#caf1f2" d="M247.5 461.5c0 .667-.333 1-1 1h-22v43h-1v-44h24Z"/><path style="opacity:1" fill="#1d1f23" d="M271.5 462.5c2.998 3.167 5.831 6.5 8.5 10 .667 2 .667 4 0 6-1.133 1.711-2.633 2.211-4.5 1.5a470.739 470.739 0 0 1-12-13.5c-.99 5.81-1.323 11.81-1 18a1106.156 1106.156 0 0 1-2 18c-2.442-2.548-4.108-5.548-5-9a183.078 183.078 0 0 0-1-27c-.607.124-.94.457-1 1a144.543 144.543 0 0 1-9 11.5c-5.408 2.267-7.575.433-6.5-5.5a130.837 130.837 0 0 0 8.5-11c.667 0 1-.333 1-1 2.825-3.637 5.658-7.303 8.5-11 2.499-1.298 4.833-.964 7 1 2.842 3.697 5.675 7.363 8.5 11Z"/><path style="opacity:1" fill="#a3a3a5" d="M271.5 429.5h115v33h-1v-32c-38.17.332-76.17-.001-114-1Z"/><path style="opacity:1" fill="#a2a2a4" d="M412.5 288.5h1v62c38.17-.332 76.17.001 114 1h-115v-63Z"/><path style="opacity:1" fill="#838486" d="M543.5 288.5h1c-.326 8.517.007 16.85 1 25-.06.543-.393.876-1 1a169.926 169.926 0 0 1-1-26Z"/><path style="opacity:1" fill="#202327" d="M543.5 288.5a169.926 169.926 0 0 0 1 26c.607-.124.94-.457 1-1a174.328 174.328 0 0 1 10-12.5c4.996-.664 6.83 1.502 5.5 6.5l-15 19c-1.787 2.458-4.121 4.124-7 5a190.218 190.218 0 0 1-21-25c-.833-4.5 1-6.333 5.5-5.5a116.252 116.252 0 0 1 11.5 13.5c.824-8.843.657-17.51-.5-26-1.515-3.68-4.181-6.18-8-7.5l-107-1c-2.667-2.667-2.667-5.333 0-8 36-.667 72-.667 108 0 8.256 2.755 13.589 8.255 16 16.5Z"/><path style="opacity:1" fill="#1e1f22" d="M412.5 288.5v63h115c8.369 2.369 13.702 7.702 16 16v113c-.996-.086-1.829.248-2.5 1a202.977 202.977 0 0 1-1.5 19l-1 2c-.79.901-1.79 1.568-3 2-1.236-4.201-1.236-8.535 0-13a1867.062 1867.062 0 0 0 0-122c-1.421-4.59-4.421-7.756-9-9.5a3842.33 3842.33 0 0 0-124 0c-3.585 1.916-6.085 4.749-7.5 8.5a3719.39 3719.39 0 0 0 0 122c.653 2.639 1.82 4.973 3.5 7 1.677 3.427 1.344 6.427-1 9a5.727 5.727 0 0 0-3-1l-1-2a202.977 202.977 0 0 1-1.5-19c-1.584-1.361-3.418-2.028-5.5-2v-53h-115c-8.333-2.333-13.667-7.667-16-16-.167-42.668 0-85.335.5-128 3.223-6.223 8.057-10.723 14.5-13.5 42-.667 84-.667 126 0 8.256 2.755 13.589 8.255 16 16.5Z"/><path style="opacity:1" fill="#c8b169" d="M386.5 367.5v54c-38.504.332-76.837-.001-115-1h114a702.728 702.728 0 0 1 1-53Z"/><path style="opacity:1" fill="#46494d" d="M535.5 369.5a1867.062 1867.062 0 0 1 0 122c-.973-2.448-1.306-5.115-1-8 .999-37.83 1.332-75.83 1-114Z"/><path style="opacity:1" fill="#eaf2f5" d="M535.5 369.5c.332 38.17-.001 76.17-1 114-.256-2.276-1.59-3.443-4-3.5a2773.895 2773.895 0 0 0-129 .5 4.457 4.457 0 0 1-1.5 2c-.174 5.184-.674 10.184-1.5 15-1.68-2.027-2.847-4.361-3.5-7a3719.39 3719.39 0 0 1 0-122c1.415-3.751 3.915-6.584 7.5-8.5a3842.33 3842.33 0 0 1 124 0c4.579 1.744 7.579 4.91 9 9.5Z"/><path style="opacity:1" fill="#1e1f23" d="M462.5 383.5c4.592-.584 7.425 1.416 8.5 6a595974.26 595974.26 0 0 0 37 80c1.825 5.486-.008 7.986-5.5 7.5a2181.564 2181.564 0 0 1-19-39.5 171.668 171.668 0 0 0-37 0 977.656 977.656 0 0 1-17.5 38c-2.333 2.667-4.667 2.667-7 0-.584-2.757-.25-5.423 1-8a4893.234 4893.234 0 0 1 39.5-84Z"/><path style="opacity:1" fill="#e5edf0" d="M464.5 398.5a590.57 590.57 0 0 1 15 29 140.772 140.772 0 0 1-29 .5 1185.086 1185.086 0 0 0 14-29.5Z"/><path style="opacity:1" fill="#fbdd7e" d="M386.5 367.5a702.728 702.728 0 0 0-1 53h-114c-3.264-1.427-5.764-3.761-7.5-7a3904.548 3904.548 0 0 1 0-125 25.55 25.55 0 0 1 5.5-6.5 1054.86 1054.86 0 0 1 64.5-1.5 1054.86 1054.86 0 0 1 64.5 1.5 25.55 25.55 0 0 1 5.5 6.5c.5 20.997.667 41.997.5 63-9.427 1.425-15.427 6.758-18 16Z"/><path style="opacity:1" fill="#c0ab66" d="M294.5 324.5h54c.295 2.235-.039 4.235-1 6v-5a702.728 702.728 0 0 1-53-1Z"/><path style="opacity:1" fill="#897b4e" d="M337.5 305.5c.979 3.125 1.313 6.458 1 10 11.845-.328 23.512.005 35 1h-36v-11Z"/><path style="opacity:1" fill="#1e1f22" d="M337.5 305.5v11h36c1.493.812 2.16 2.145 2 4a7.93 7.93 0 0 1-1 3.5c-5.991.499-11.991.666-18 .5-1.374 15.743-7.374 29.409-18 41l34 26c1.475 2.745.809 4.912-2 6.5-1.333.667-2.667.667-4 0a1298.356 1298.356 0 0 1-34-26.5 1298.356 1298.356 0 0 1-34 26.5c-2.808.92-4.975.087-6.5-2.5-.624-1.964-.124-3.631 1.5-5a1733.414 1733.414 0 0 0 31.5-24c.667-1 .667-2 0-3-7.049-7.431-11.382-16.097-13-26 2.333-2.667 4.667-2.667 7 0 3.233 8.136 7.733 15.469 13.5 22 7.898-8.129 12.898-17.796 15-29 .961-1.765 1.295-3.765 1-6h-54c-3.473-2.063-3.806-4.563-1-7.5 11.995-.5 23.995-.667 36-.5a60.931 60.931 0 0 1 .5-11c2.621-2.64 5.121-2.64 7.5 0Z"/><path style="opacity:1" fill="#83e0e4" d="M261.5 215.5c-.285 1.788.048 3.455 1 5a50.804 50.804 0 0 0 17 .5c1.537-1.11 2.203-2.61 2-4.5 94.263.831 188.597 1.331 283 1.5 3.973 2.395 7.14 5.562 9.5 9.5.5 20.331.667 40.664.5 61h-31c-2.411-8.245-7.744-13.745-16-16.5-36-.667-72-.667-108 0-2.667 2.667-2.667 5.333 0 8l107 1c3.819 1.32 6.485 3.82 8 7.5h-122c-2.411-8.245-7.744-13.745-16-16.5-42-.667-84-.667-126 0-6.443 2.777-11.277 7.277-14.5 13.5-.5 42.665-.667 85.332-.5 128a3905.727 3905.727 0 0 1-1-125h-30v-25c1.517-.011 2.684-.677 3.5-2 .043-11.43.71-22.763 2-34 4.189-5.287 9.689-7.454 16.5-6.5 1.323-.816 1.989-1.983 2-3.5 4.653.501 8.986-.166 13-2Z"/><path style="opacity:1" fill="#1d1f23" d="M281.5 216.5c.203 1.89-.463 3.39-2 4.5a50.804 50.804 0 0 1-17-.5c-.952-1.545-1.285-3.212-1-5 .111-.617.444-1.117 1-1.5 6-.667 12-.667 18 0 .752.671 1.086 1.504 1 2.5Z"/><path style="opacity:1" fill="#232428" d="M248.5 217.5c-.011 1.517-.677 2.684-2 3.5-6.811-.954-12.311 1.213-16.5 6.5a308.045 308.045 0 0 0-2 34c-.816 1.323-1.983 1.989-3.5 2-2.082-.124-3.582-1.124-4.5-3-.667-10-.667-20 0-30 3.962-14.068 13.129-19.568 27.5-16.5.837 1.011 1.17 2.178 1 3.5Z"/><path style="opacity:1" fill="#3f6166" d="M385.5 462.5h1v20c-41.236.672-82.569 1.339-124 2-.323-6.19.01-12.19 1-18v16h122v-20Z"/><path style="opacity:1" fill="#90b666" d="M667.5 488.5h-119v216a11770.92 11770.92 0 0 1-1-217c40.17-.332 80.17.001 120 1Z"/><path style="opacity:1" fill="#c8fb7e" d="M526.5 487.5v217h-119v-217h119ZM667.5 488.5v216h-119v-216h119Zm-57 39h14v137h-14v-137Z"/><path style="opacity:1" fill="#c7fb7e" d="M269.5 490.5h115v215h-115v-215Z"/><path style="opacity:1" fill="#628b8f" d="M539.5 500.5c1.333 30 1.333 60 0 90v-24c.331-21.507-.003-42.84-1-64l1-2Z"/><path style="opacity:1" fill="#7bd1d6" d="M538.5 502.5c.997 21.16 1.331 42.493 1 64h-1c-.175-2.344-1.342-4.011-3.5-5a548.986 548.986 0 0 1 .5-57c1.21-.432 2.21-1.099 3-2Z"/><path style="opacity:1" fill="#6bb3b8" d="m393.5 503.5 1 2a900.97 900.97 0 0 0-1 60c0 .667-.333 1-1 1a992.742 992.742 0 0 1 1-63Z"/><path style="opacity:1" fill="#50664a" d="M244.5 507.5c.06-.543.393-.876 1-1 1.32 7.823 1.32 15.49 0 23 .325-7.519-.008-14.852-1-22Z"/><path style="opacity:1" fill="#82e0e4" d="M394.5 505.5a5.727 5.727 0 0 1 3 1c1.969 19.433 2.636 39.1 2 59h-6a900.97 900.97 0 0 1 1-60Z"/><path style="opacity:1" fill="#c5f97d" d="M244.5 507.5c.992 7.148 1.325 14.481 1 22a219769.339 219769.339 0 0 0-109 33.5c-4.732 1.043-6.065 3.709-4 8a25376.165 25376.165 0 0 1 113 35.5c.325 7.519-.008 14.852-1 22a26235.842 26235.842 0 0 1-123-39.5c-1.314-6.762-1.98-13.762-2-21 .009-7.077.342-14.077 1-21a8906.055 8906.055 0 0 1 124-39.5Z"/><path style="opacity:1" fill="#29353a" d="M444.5 519.5c15.004-.167 30.004 0 45 .5a4.457 4.457 0 0 0 2 1.5 3601.9 3601.9 0 0 1 .5 147 11.333 11.333 0 0 1-1.5 3.5 528.986 528.986 0 0 1-46 0l-1.5-1.5a5547.726 5547.726 0 0 1 0-149c.717-.544 1.217-1.211 1.5-2Z"/><path style="opacity:.976" fill="#283539" d="M586.5 519.5c14.67-.167 29.337 0 44 .5l1.5 1.5c.83 50.237.664 100.404-.5 150.5a552.224 552.224 0 0 1-47 0 11.333 11.333 0 0 1-1.5-3.5 3601.9 3601.9 0 0 1 .5-147c1.239-.442 2.239-1.109 3-2Zm24 8h14v137h-14v-137Z"/><path style="opacity:1" fill="#263238" d="M305.5 522.5c14.337-.167 28.671 0 43 .5l1.5 1.5a783.858 783.858 0 0 1 0 56l-1.5 1.5a462.27 462.27 0 0 1-43 0l-1.5-1.5a783.858 783.858 0 0 1 0-56c.717-.544 1.217-1.211 1.5-2Z"/><path style="opacity:1" fill="#82dfe3" d="M484.5 566.5a298.696 298.696 0 0 0-34-1v-38h34v39Z"/><path style="opacity:1" fill="#c7cacb" d="M591.5 527.5a841.82 841.82 0 0 0 1 58c0 .667-.333 1-1 1a435.734 435.734 0 0 1 0-59Z"/><path style="opacity:1" fill="#fdfdfd" d="M591.5 527.5h8v46c-.855 4.94-3.189 8.94-7 12a841.82 841.82 0 0 1-1-58Z"/><path style="opacity:1" fill="#1d1f23" d="M607.5 574.5c-1.143 8.456-5.143 15.123-12 20l-4 2c-1.251-3.374-1.251-6.707 0-10 .667 0 1-.333 1-1 3.811-3.06 6.145-7.06 7-12a529.493 529.493 0 0 0 1-46h7v47Z"/><path style="opacity:1" fill="#c2f4f6" d="M610.5 527.5v137h-19v-15c.426-2.71 1.593-5.044 3.5-7 .5-15.997.667-31.997.5-48 6.857-4.877 10.857-11.544 12-20a549.537 549.537 0 0 1 3-47Z"/><path style="opacity:1" fill="#4a7075" d="M342.5 574.5v-44h-31v44a507.055 507.055 0 0 1-1-45h33a507.055 507.055 0 0 1-1 45Z"/><path style="opacity:1" fill="#83e1e4" d="M342.5 565.5h-31v-35h31v35Z"/><path style="opacity:1" fill="#fcfcfc" d="M224.5 544.5c-1.115 8.177 1.552 14.677 8 19.5a459.628 459.628 0 0 0 29 2.5v24c-14.337.167-28.671 0-43-.5a297.747 297.747 0 0 1-13-4.5c-2.945-3.486-4.945-7.486-6-12a121.862 121.862 0 0 1 1-22 246.975 246.975 0 0 1 24-7Z"/><path style="opacity:1" fill="#1d1e22" d="M199.5 573.5c1.055 4.514 3.055 8.514 6 12a51.05 51.05 0 0 1-13-5l-1-6c-.166-6.675 0-13.342.5-20a66.678 66.678 0 0 1 5.5-2c.667 7.155 1.333 14.155 2 21Z"/><path style="opacity:1" fill="#bff0f2" d="m191.5 574.5 1 6c-2.098.984-4.098.651-6-1v-23c.761-.891 1.761-1.558 3-2a4379.31 4379.31 0 0 0 2 20Z"/><path style="opacity:1" fill="#f9fdfd" d="M311.5 565.5h31v9h-31v-9Z"/><path style="opacity:1" fill="#f6f8f8" d="M393.5 565.5h6v25h-7v-24c.667 0 1-.333 1-1Z"/><path style="opacity:1" fill="#fbfdfd" d="M450.5 565.5a298.696 298.696 0 0 1 34 1v24h-34v-25Z"/><path style="opacity:1" fill="#eaecec" d="M538.5 566.5h1v24h-5c-.33-7.032.003-14.032 1-21 1.355-.688 2.355-1.688 3-3Z"/><path style="opacity:1" fill="#1c1d21" d="M226.5 592.5c11.488-.995 23.155-1.328 35-1v7a145.053 145.053 0 0 1-17-.5 183.692 183.692 0 0 0-18-5.5ZM450.5 591.5h34v7h-34v-7Z"/><path style="opacity:1" fill="#94babc" d="M450.5 600.5v-1h34c.325 7.852-.008 15.518-1 23v-22h-33Z"/><path style="opacity:1" fill="#f7f8f8" d="M252.5 600.5h8c.331 22.839-.003 45.506-1 68-1.894-.548-3.56-1.548-5-3a340.055 340.055 0 0 1-1.5-26 4.457 4.457 0 0 1-1.5-2c1.291-5.995 1.957-12.161 2-18.5a180.454 180.454 0 0 0-1-18.5Z"/><path style="opacity:1" fill="#c4c7c8" d="M259.5 668.5a1156.835 1156.835 0 0 0 1-68h-8c2.204-1.005 5.204-1.338 9-1 .333 23.343 0 46.676-1 70-.607-.124-.94-.457-1-1Z"/><path style="opacity:1" fill="#9ac4c7" d="M399.5 600.5h-6v68a1190.252 1190.252 0 0 1-1-69c2.559-.302 4.893.032 7 1Z"/><path style="opacity:1" fill="#c4f7f9" d="M399.5 600.5v70c-2.185-.204-4.185-.87-6-2v-68h6Z"/><path style="opacity:1" fill="#4c6166" d="M450.5 599.5v1a420.766 420.766 0 0 0 1 41c-.06.543-.393.876-1 1-1.326-14.494-1.326-28.828 0-43Z"/><path style="opacity:1" fill="#c3f6f8" d="M450.5 600.5h33v22c-8.173 6.332-17.173 11.165-27 14.5a31.447 31.447 0 0 1-5 4.5 420.766 420.766 0 0 1-1-41Z"/><path style="opacity:1" fill="#fefefe" d="M539.5 667.5c-.709.904-1.709 1.237-3 1a1156.835 1156.835 0 0 1-1-68h4v67Z"/><path style="opacity:1" fill="#909699" d="M539.5 667.5v-67h-4c-.331 22.839.003 45.506 1 68-.283.789-.783 1.456-1.5 2a2519.42 2519.42 0 0 1-.5-71h6c.331 22.839-.003 45.506-1 68Z"/><path style="opacity:1" fill="#4f654a" d="M245.5 606.5c1.32 7.51 1.32 15.177 0 23-.607-.124-.94-.457-1-1 .992-7.148 1.325-14.481 1-22Z"/><path style="opacity:1" fill="#283439" d="M305.5 613.5c14.337-.167 28.671 0 43 .5l1.5 1.5a783.858 783.858 0 0 1 0 56l-1.5 1.5c-7.4 1.134-14.9 1.634-22.5 1.5l-20.5-1a4.457 4.457 0 0 0-1.5-2 783.858 783.858 0 0 1 0-56c.717-.544 1.217-1.211 1.5-2Z"/><path style="opacity:1" fill="#c0f2f4" d="M186.5 618.5a95.51 95.51 0 0 1 15 4v15c-5.195.321-10.195-.013-15-1v-18Z"/><path style="opacity:1" fill="#c1f3f5" d="M312.5 622.5c9.819-.994 19.819-1.327 30-1a145.053 145.053 0 0 1-.5 17 207.196 207.196 0 0 1-29.5-16Z"/><path style="opacity:1" fill="#f8f8f9" d="M240.5 635.5c-8.818.993-17.818 1.327-27 1v-9a167.98 167.98 0 0 1 27 8Z"/><path style="opacity:1" fill="#5a6367" d="M312.5 635.5c-.994 10.153-1.328 20.486-1 31-1.323-10.507-1.323-21.174 0-32 .607.124.94.457 1 1Z"/><path style="opacity:1" fill="#fafafb" d="M312.5 635.5c6.296 3.483 12.629 6.983 19 10.5 2.52 3.873 6.02 6.04 10.5 6.5.499 4.655.666 9.321.5 14h-31c-.328-10.514.006-20.847 1-31Z"/><path style="opacity:1" fill="#c5c8c9" d="M240.5 635.5a42.47 42.47 0 0 1 5 1.5c-10.841.825-21.508.659-32-.5 9.182.327 18.182-.007 27-1ZM484.5 664.5h-1c.327-9.182-.007-18.182-1-27 .283-.789.783-1.456 1.5-2 .5 9.661.666 19.328.5 29Z"/><path style="opacity:1" fill="#fcfcfc" d="M482.5 637.5c.993 8.818 1.327 17.818 1 27h-33v-9c6.62-3.069 12.953-6.903 19-11.5 3.81-1.13 7.143-3.13 10-6a4.934 4.934 0 0 1 3-.5Z"/><path style="opacity:1" fill="#4e6549" d="M119.5 645.5a4031.82 4031.82 0 0 1 127-1c.325 7.187-.009 14.187-1 21v-20h-126Z"/><path style="opacity:1" fill="#c7fa7e" d="M119.5 645.5h126v20h-126v-20Z"/><path style="opacity:1" fill="#868d90" d="M450.5 655.5v9h34c-11.488.995-23.155 1.328-35 1-.313-3.542.021-6.875 1-10Z"/><path style="opacity:1" fill="#7fa1a5" d="M591.5 649.5v15h19c-6.479.991-13.146 1.324-20 1-.321-5.526.012-10.86 1-16Z"/><path style="opacity:1" fill="#c4f6f8" d="M186.5 673.5a642.5 642.5 0 0 1 61 1.5 82.918 82.918 0 0 0 13.5 8.5l1 27a4.457 4.457 0 0 1 1.5 2c17.324.833 34.657 1.333 52 1.5 6.973 5.651 14.64 9.984 23 13 1.374 3.683 4.041 5.349 8 5a7040.07 7040.07 0 0 0 28 16l4 4a35.157 35.157 0 0 1 10 5 66.364 66.364 0 0 0 9.5 2.5c5.889-.966 11.389-2.799 16.5-5.5 5.239-4.798 11.239-8.131 18-10l4-4c6.4-2.062 12.067-5.396 17-10a145.581 145.581 0 0 0 18-9 50.886 50.886 0 0 0 10-7 693.12 693.12 0 0 1 51-2l1.5-1.5 1-26c.816-1.323 1.983-1.989 3.5-2l2 26c.011 1.517.677 2.684 2 3.5 3.195.181 6.195.681 9 1.5a22.296 22.296 0 0 1-5 3.5l1 1a118.288 118.288 0 0 0-17 7.5 10.756 10.756 0 0 0-2.5 3l-1-1c-1.049 1.607-2.549 2.273-4.5 2v3h-6v3h-5v3c-2.524-.071-4.524.929-6 3-2.12-1.372-3.12-.705-3 2a12.93 12.93 0 0 0-5 .5 101.657 101.657 0 0 0-10 7.5 9.108 9.108 0 0 1-5 1v3c-2.51-.446-4.51.22-6 2-2.216.703-4.049 2.036-5.5 4-1.813-1.109-2.646-.442-2.5 2a12.93 12.93 0 0 0-5 .5c-1.497 1.871-3.497 2.871-6 3-1.307 2.324-3.307 3.657-6 4l2 1a12.93 12.93 0 0 1-5 .5v3a9.86 9.86 0 0 0-6 1 35.217 35.217 0 0 1-8 4v3h-6v3h-6v3a8.43 8.43 0 0 0-4 .5l-5 5c-1.284.684-2.451.517-3.5-.5-1.263 2.968-3.263 3.968-6 3a2.428 2.428 0 0 0-.5 2h-12c-.507-1.359-1.507-2.359-3-3a137.913 137.913 0 0 0-11-4v-3c-2.133-1.386-5.133-2.386-9-3v-3h-5v-3c-3.005.247-5.505-.753-7.5-3l-1 1a4.934 4.934 0 0 1-.5-3h-6v-3h-5v-3h-6v-3c-5.922-1.727-11.089-4.727-15.5-9-.718.951-1.551 1.117-2.5.5 1.333-.667 1.333-1.333 0-2a12.93 12.93 0 0 0-5-.5v-3a58.97 58.97 0 0 1-11-3v-3c-8.654-3.265-16.321-6.932-23-11v-3h-6v-3h-5v-3a8.43 8.43 0 0 1-4-.5c-4.85-3.699-10.184-6.199-16-7.5v-3h-6v-3c-2.092-.061-3.592-1.061-4.5-3-1.299.466-2.799.466-4.5 0v-3c-1.788.285-3.455-.048-5-1-2.158-3.144-5.158-4.477-9-4v-3a12.93 12.93 0 0 1-5-.5c-2.625-3.031-6.125-5.864-10.5-8.5-2.537.677-4.537-.323-6-3l-1 1c-1.667-1-3-2.333-4-4-1.049 1.017-2.216 1.184-3.5.5l1-1c-4.137-1.754-5.803-4.921-5-9.5Z"/><path style="opacity:1" fill="#749397" d="m540.5 708.5-2-26c.283-.789.783-1.456 1.5-2 .5 9.327.666 18.661.5 28Z"/><path style="opacity:1" fill="#fcfcfc" d="m403.5 712.5 55 2a54.146 54.146 0 0 1-12 5.5l-4 4c-6.858 2.879-13.191 6.546-19 11-8.243 3.203-15.91 7.536-23 13-1.333.667-2.667.667-4 0a95.947 95.947 0 0 0-15-8c-3.603-3.655-7.936-5.988-13-7-3.342-4.33-7.675-6.997-13-8-5.883-4.573-12.217-8.24-19-11a784.305 784.305 0 0 0 55-2 221.957 221.957 0 0 0 1-29.5h7c-.166 9.339 0 18.673.5 28 .816 1.323 1.983 1.989 3.5 2Z"/><path style="opacity:1" fill="#5e7851" d="M526.5 487.5c.999 72.498 1.333 145.165 1 218-40.17.332-80.17-.001-120-1h119v-217Z"/><path style="opacity:1" fill="#c6c9ca" d="M403.5 712.5c19.003-.167 38.003 0 57 .5-.544.717-1.211 1.217-2 1.5l-55-2Z"/><path style="opacity:1" fill="#c4f8f9" d="M476.5 757.5c1.333.667 1.333.667 0 0Z"/></svg>