<?xml version="1.0" encoding="UTF-8"?><svg xmlns="http://www.w3.org/2000/svg" width="800" height="800" style="shape-rendering:geometricPrecision;text-rendering:geometricPrecision;image-rendering:optimizeQuality;fill-rule:evenodd;clip-rule:evenodd"><path style="opacity:1" fill="#74bec2" d="M576.5-.5h9a2.429 2.429 0 0 0 .5 2c1.049-1.017 2.216-1.184 3.5-.5a20.495 20.495 0 0 0 2.5 3.5c1.356-.88 2.856-1.214 4.5-1v3c2.822 1.432 6.489 2.432 11 3v3c2.092.061 3.592 1.061 4.5 3 2.537-.677 4.537.323 6 3 2.361-.566 4.194.434 5.5 3l2-1c.35 2.067 2.017 3.067 5 3v3h6v3h5v3h6v3a27.247 27.247 0 0 0 9 3c-.219 1.175.114 2.175 1 3a6.846 6.846 0 0 1 4-1v3a8.435 8.435 0 0 1 4 .5c-1.154.914-.987 1.747.5 2.5 1.299-.466 2.799-.466 4.5 0v3h6v3h5v3a428.986 428.986 0 0 0 20 8.5l-2 1c2.522.61 4.522 1.943 6 4 1.634.493 3.301.66 5 .5v3c2.908-.238 5.242.762 7 3 .951-.826 1.951-.992 3-.5l-1 1a6.977 6.977 0 0 1 3.5 2.5l1-1c.483.948.649 1.948.5 3h6v3h5v3c1.951-.273 3.451.393 4.5 2l1-1c6 4.386 12.5 7.886 19.5 10.5l-1 1c1.525 1.009 3.192 1.509 5 1.5v3c2.235-.295 4.235.039 6 1-19.214-.429-37.548-.429-55 0a872.822 872.822 0 0 1-35-18.5l-4-4a161.879 161.879 0 0 1-33-19c-6.4-2.062-12.067-5.396-17-10l-19-9a30.312 30.312 0 0 0-12-7c-2.365-3.714-5.698-5.714-10-6-7.082-6.364-15.416-9.031-25-8a6369.404 6369.404 0 0 1-131 74.5 18.437 18.437 0 0 0-6 .5c-.752.67-1.086 1.504-1 2.5a71.254 71.254 0 0 0-2 4c-4.527-.388-9.193-.388-14 0a44.093 44.093 0 0 0-2-3v-1c9.639-5.488 19.306-10.988 29-16.5.837-1.011 1.17-2.178 1-3.5 4.493-.216 7.993-2.216 10.5-6 1.011.837 2.178 1.17 3.5 1v-3a59.031 59.031 0 0 0 11-3v-3c1.808.009 3.475-.491 5-1.5l-1-1a12.935 12.935 0 0 1 5-.5v-3a9.864 9.864 0 0 0 6-1 35.213 35.213 0 0 1 8-4v-3h6v-3a59.031 59.031 0 0 1 11-3v-3c1.808.009 3.475-.491 5-1.5-1.388-.89-1.222-1.39.5-1.5 2.071 1.167 3.571.5 4.5-2 6.434-2.343 12.767-5.343 19-9v-3a59.031 59.031 0 0 1 11-3 4.934 4.934 0 0 1 .5-3l1 1c1.995-2.247 4.495-3.247 7.5-3v-3h5v-3h6v-3c1.808.009 3.475-.491 5-1.5l-1-1a12.936 12.936 0 0 1 5-.5v-3c3.552.188 6.219-1.145 8-4ZM394.5 100.5v1a44.093 44.093 0 0 0-2 3c-3.74.265-7.24-.068-10.5-1a2.428 2.428 0 0 0-.5 2c-1.208-.734-2.541-1.067-4-1 .268-1.599-.066-2.932-1-4 .086-.996-.248-1.83-1-2.5-2.761-.722-5.427-.555-8 .5a6633.68 6633.68 0 0 0-130.5-75 138.219 138.219 0 0 1-14.5 1.5c-4.194 3.22-8.86 5.554-14 7a2157.081 2157.081 0 0 1-68 39 55.63 55.63 0 0 1-18 10 285.305 285.305 0 0 1-40 23.5c-17.924-.817-36.258-.817-55 0 1.419-.951 3.085-1.284 5-1v-3a417.79 417.79 0 0 0 15-7 32.686 32.686 0 0 0 8.5-6l1 1c1.049-1.607 2.549-2.273 4.5-2v-3a59.029 59.029 0 0 1 11-3 4.932 4.932 0 0 1 .5-3l1 1c2.015-3.065 4.515-4.065 7.5-3v-3h5v-3c1.7.16 3.366-.007 5-.5 1.478-2.057 3.478-3.39 6-4l-2-1a18.436 18.436 0 0 1 6-.5v-3a87.51 87.51 0 0 0 14-5v-3h6v-3h5v-3c1.701-.466 3.201-.466 4.5 0 3.279-4.047 7.946-7.047 14-9a18.264 18.264 0 0 0 5-4l1 1c1.049-1.607 2.549-2.273 4.5-2v-3h5v-3h6v-3c4.612-1.195 9.279-2.862 14-5v-3c1.701-.466 3.201-.466 4.5 0 .908-1.939 2.408-2.939 4.5-3v-3h6v-3c1.788.285 3.455-.048 5-1a38.767 38.767 0 0 0 7-4.5 49.25 49.25 0 0 1 14 0c2.025 1.677 4.359 2.677 7 3-1.134 1.016-.801 1.683 1 2l5 1-1 1c2.622 3.073 5.955 4.573 10 4.5v3h6v3c3.191.262 5.858 1.596 8 4a9.864 9.864 0 0 0 6 1v3c3.58 1.22 7.247 2.386 11 3.5l-2 1c2.767.678 4.934 2.178 6.5 4.5l1-1c3.769 1.797 7.102 4.13 10 7a3.942 3.942 0 0 1 2-1c1.482 1.612 3.315 2.612 5.5 3v3h6v3h5v3h6v3a87.51 87.51 0 0 0 14 5v3c1.699-.16 3.366.007 5 .5l-1 1c1.525 1.009 3.192 1.509 5 1.5v3h6v3h5v3c2.985-1.065 5.485-.065 7.5 3l1-1c.483.948.649 1.948.5 3h5v3h6v3c2.133 1.386 5.133 2.386 9 3v3c2.908-.238 5.242.762 7 3l2-1c.35 2.067 2.017 3.067 5 3v3h3Z"/><path style="opacity:1" fill="#273339" d="M367.5 98.5c-1.577 4.546-1.244 8.879 1 13-3.875-.677-7.208-2.51-10-5.5a23.077 23.077 0 0 1-9-4.5c-1.15-4.499-3.816-5.832-8-4a14.696 14.696 0 0 0-3-3.5 731.874 731.874 0 0 1-34-19c-5.487-1.208-10.154-3.875-14-8a24672.35 24672.35 0 0 1-21-11 179.568 179.568 0 0 1-15-10A228.066 228.066 0 0 0 230 34.5 112.066 112.066 0 0 0 206.5 48l-10 4-3 3c-6.771 2.445-12.771 6.111-18 11l-10 4-4 4a520.666 520.666 0 0 0-59 34l-9 3c-3.796 3.592-8.13 6.259-13 8A361.546 361.546 0 0 1 48 137.5c-.667 72-.667 144 0 216a7214.146 7214.146 0 0 0 125 72c.5-21.664.667-43.331.5-65a340.197 340.197 0 0 0-18-8.5 55.63 55.63 0 0 0-18-10 78.488 78.488 0 0 0-23-13 56.965 56.965 0 0 0-10.5-7.5 2946.23 2946.23 0 0 1 1-153 230.435 230.435 0 0 0 32.5-19.5c8.372-3.019 16.038-7.352 23-13 5.093-1.382 9.426-4.049 13-8a90.42 90.42 0 0 0 14-6c1.918-2.928 4.585-4.594 8-5a226.438 226.438 0 0 1 29-17 42.498 42.498 0 0 1 13 0l4 4a154.79 154.79 0 0 0 13 6 1081.768 1081.768 0 0 0 33 20l4 1c8.98 5.636 17.98 11.302 27 17l5 1a158.943 158.943 0 0 1 14 9.5c.342.838 1.008 1.172 2 1 .713 6.22 3.713 7.553 9 4-.086.996.248 1.829 1 2.5 2.904.133 5.238 1.3 7 3.5a120.431 120.431 0 0 1-13 7 92.383 92.383 0 0 0-13-9 803.823 803.823 0 0 1-30-17.5 47.592 47.592 0 0 0-12-5 301.986 301.986 0 0 0-51-30l-4.5-4.5c-2.09.652-4.257.819-6.5.5a368.678 368.678 0 0 1-44 26c-3.83 4.163-8.497 6.829-14 8a81.82 81.82 0 0 1-19 11l-4 4a73.845 73.845 0 0 0-16 7.5 152.917 152.917 0 0 1-16.5 11 242.43 242.43 0 0 0-.5 22v114c5.301 1.324 9.968 3.824 14 7.5l10 4c1.918 2.928 4.585 4.594 8 5 2.674 3.012 6.007 4.678 10 5a82.15 82.15 0 0 0 22 13c3.97 2.131 6.637 5.298 8 9.5.322 23.075-.011 46.075-1 69 .547 8.617-3.453 12.117-12 10.5a539.733 539.733 0 0 0-24-13.5 7469.927 7469.927 0 0 1-92-53.5c-3.96.349-6.626-1.317-8-5a66.33 66.33 0 0 0-9-4.5 31.94 31.94 0 0 1-1.5-6c-.5-23.331-.667-46.664-.5-70v-117c-.4-13.052.1-26.052 1.5-39A194.062 194.062 0 0 0 63.5 115a198.58 198.58 0 0 1 17-8c.88-.708 1.547-1.542 2-2.5a285.305 285.305 0 0 0 40-23.5 55.63 55.63 0 0 0 18-10c22.924-12.6 45.591-25.6 68-39 5.14-1.446 9.806-3.78 14-7 4.872-.246 9.705-.746 14.5-1.5a6633.68 6633.68 0 0 1 130.5 75Z"/><path style="opacity:1" fill="#fdfdfd" d="M341.5 97.5c-2.661 4.635-2.661 9.302 0 14 3.08 1.605 5.58.938 7.5-2 .497-2.646.664-5.313.5-8a23.077 23.077 0 0 0 9 4.5c2.792 2.99 6.125 4.823 10 5.5 0 .667.333 1 1 1a152.07 152.07 0 0 1 22 13.5 4.934 4.934 0 0 0 3 .5c-.166 7.674 0 15.341.5 23 3 2.667 6 2.667 9 0 .499-4.989.666-9.989.5-15 5.393.532 9.727 3.032 13 7.5a8.43 8.43 0 0 0 4 .5 88.581 88.581 0 0 1 1.5 12c3.782 2.901 6.615 2.234 8.5-2 .768-.763 1.268-1.763 1.5-3a131.877 131.877 0 0 0 16.5 9c-.114 5.898 2.553 7.898 8 6a84.626 84.626 0 0 1 11 4.5 211.674 211.674 0 0 1 21 14l5 1c6.885 5.647 14.551 9.98 23 13 3.908 3.449 8.242 6.116 13 8a803.828 803.828 0 0 0 52 30.5 1734.395 1734.395 0 0 1 .5 102 249.84 249.84 0 0 1-22.5 11.5c-5.373 5.383-11.706 9.049-19 11-2.364 3.158-5.364 5.324-9 6.5a11.743 11.743 0 0 1-5-3c.167-31.668 0-63.335-.5-95-2.167-1.5-4-3.333-5.5-5.5-1.284-.684-2.451-.517-3.5.5-3.459-3.306-7.292-5.973-11.5-8-7.111-41.733-30.111-70.9-69-87.5-27.193-9.031-54.193-8.531-81 1.5-1.762-2.2-4.096-3.367-7-3.5-.752-.671-1.086-1.504-1-2.5a285.902 285.902 0 0 0 .5-41c-1.82-2.703-4.32-3.536-7.5-2.5-1.323.816-1.989 1.983-2 3.5l-2 35a158.943 158.943 0 0 0-14-9.5l-5-1a10892.14 10892.14 0 0 0-27-17l-4-1a1081.768 1081.768 0 0 1-33-20 154.79 154.79 0 0 1-13-6l-4-4a42.498 42.498 0 0 0-13 0 226.438 226.438 0 0 0-29 17c-3.415.406-6.082 2.072-8 5a90.42 90.42 0 0 1-14 6c-3.574 3.951-7.907 6.618-13 8-6.962 5.648-14.628 9.981-23 13a230.435 230.435 0 0 1-32.5 19.5 2946.23 2946.23 0 0 0-1 153 56.965 56.965 0 0 1 10.5 7.5 78.488 78.488 0 0 1 23 13 55.63 55.63 0 0 1 18 10 340.197 340.197 0 0 1 18 8.5c.167 21.669 0 43.336-.5 65a7214.146 7214.146 0 0 1-125-72c-.667-72-.667-144 0-216A361.546 361.546 0 0 0 80.5 119c4.87-1.741 9.204-4.408 13-8l9-3a520.666 520.666 0 0 1 59-34l4-4 10-4c5.229-4.889 11.229-8.555 18-11l3-3 10-4A112.066 112.066 0 0 1 230 34.5 228.066 228.066 0 0 1 254.5 46a179.568 179.568 0 0 0 15 10 24672.35 24672.35 0 0 0 21 11c3.846 4.125 8.513 6.792 14 8a731.874 731.874 0 0 0 34 19 14.696 14.696 0 0 1 3 3.5Z"/><path style="opacity:1" fill="#1f2024" d="M349.5 101.5a32.462 32.462 0 0 1-.5 8c-1.92 2.938-4.42 3.605-7.5 2-2.661-4.698-2.661-9.365 0-14 4.184-1.832 6.85-.499 8 4Z"/><path style="opacity:1" fill="#1d1f23" d="M376.5 100.5a50.464 50.464 0 0 1-.5 10c-1.789 1.729-3.956 2.396-6.5 2-.667 0-1-.333-1-1-2.244-4.121-2.577-8.454-1-13 2.573-1.055 5.239-1.222 8-.5.752.67 1.086 1.504 1 2.5Z"/><path style="opacity:1" fill="#1d2024" d="M404.5 100.5v1a32.462 32.462 0 0 1-.5 8c-3 4-6 4-9 0a32.462 32.462 0 0 1-.5-8v-1c1.328-3.754 3.994-4.92 8-3.5 1.323.816 1.989 1.983 2 3.5Z"/><path style="opacity:1" fill="#1d1e22" d="M429.5 97.5c.672.767 1.505 1.434 2.5 2a25.238 25.238 0 0 1 0 10c-1.789 1.729-3.956 2.396-6.5 2-.996.086-1.829-.248-2.5-1a50.464 50.464 0 0 1-.5-10c-.086-.996.248-1.83 1-2.5a18.437 18.437 0 0 1 6-.5Z"/><path style="opacity:1" fill="#7dbac0" d="M422.5 100.5c-.165 3.35.002 6.683.5 10 .671.752 1.504 1.086 2.5 1 4.775.551 8.775 2.718 12 6.5l4 1a55.157 55.157 0 0 0 8 5.5v21a116.392 116.392 0 0 1-16-10 1041.63 1041.63 0 0 0-2-12c-.384-2.55-1.884-3.883-4.5-4-2.183.022-3.683 1.022-4.5 3-.951 1.419-1.284 3.085-1 5a51.303 51.303 0 0 1-14-5.5c-1.918-2.928-4.585-4.594-8-5a255.457 255.457 0 0 0-18-11.5 2.428 2.428 0 0 1 .5-2c3.26.932 6.76 1.265 10.5 1a44.093 44.093 0 0 1 2-3 32.462 32.462 0 0 0 .5 8c3 4 6 4 9 0 .497-2.646.664-5.313.5-8a44.093 44.093 0 0 1 2 3c4.807-.388 9.473-.388 14 0a71.254 71.254 0 0 1 2-4Z"/><path style="opacity:1" fill="#28343a" d="M376.5 100.5c.934 1.068 1.268 2.401 1 4 1.459-.067 2.792.266 4 1a255.457 255.457 0 0 1 18 11.5c3.415.406 6.082 2.072 8 5a51.303 51.303 0 0 0 14 5.5c-.284-1.915.049-3.581 1-5a218.12 218.12 0 0 0-1 20 8.43 8.43 0 0 1-4-.5c-3.273-4.468-7.607-6.968-13-7.5a84.902 84.902 0 0 0-.5-13c-6.127-3.794-9.294-2.128-9.5 5a4.934 4.934 0 0 1-3-.5 152.07 152.07 0 0 0-22-13.5c2.544.396 4.711-.271 6.5-2 .498-3.317.665-6.65.5-10Z"/><path style="opacity:1" fill="#1c1d21" d="M348.5 163.5c-5.287 3.553-8.287 2.22-9-4v-36c.011-1.517.677-2.684 2-3.5 3.18-1.036 5.68-.203 7.5 2.5a285.902 285.902 0 0 1-.5 41Z"/><path style="opacity:1" fill="#212226" d="M369.5 119.5c2.544-.396 4.711.271 6.5 2 .667 11 .667 22 0 33-2.401 1.102-4.901 1.269-7.5.5a9.454 9.454 0 0 1-1.5-2.5c-.667-10-.667-20 0-30a10.515 10.515 0 0 0 2.5-3Z"/><path style="opacity:1" fill="#1c1d21" d="M404.5 134.5a112.97 112.97 0 0 1-.5 15c-3 2.667-6 2.667-9 0-.5-7.659-.666-15.326-.5-23 .206-7.128 3.373-8.794 9.5-5 .499 4.321.666 8.654.5 13Z"/><path style="opacity:1" fill="#1d1f23" d="M431.5 123.5v29c-1.885 4.234-4.718 4.901-8.5 2a88.581 88.581 0 0 0-1.5-12 218.12 218.12 0 0 1 1-20c.817-1.978 2.317-2.978 4.5-3 2.616.117 4.116 1.45 4.5 4Z"/><path style="opacity:1" fill="#1c1d21" d="M459.5 131.5v20c.501 4.653-.166 8.986-2 13-5.447 1.898-8.114-.102-8-6v-34c.674-4.651 3.341-6.151 8-4.5l1.5 1.5c.498 3.317.665 6.65.5 10Z"/><path style="opacity:1" fill="#c5c5c6" d="M339.5 123.5v36c-.992.172-1.658-.162-2-1l2-35Z"/><path style="opacity:1" fill="#283339" d="M431.5 123.5a1041.63 1041.63 0 0 1 2 12 116.392 116.392 0 0 0 16 10v13a131.877 131.877 0 0 1-16.5-9c-.232 1.237-.732 2.237-1.5 3v-29Z"/><path style="opacity:1" fill="#83bdc3" d="M82.5 104.5c-.453.958-1.12 1.792-2 2.5a198.58 198.58 0 0 0-17 8A194.062 194.062 0 0 1 38 129.5a281.817 281.817 0 0 0-1.5 39h-30c.039-17.983.039-35.816 0-53.5a169.104 169.104 0 0 0 15-5.5v-3c2.51.446 4.51-.22 6-2 18.742-.817 37.076-.817 55 0Z"/><path style="opacity:1" fill="#85bdc3" d="M330.5 167.5c-67 1.333-134 1.333-201 0a73.845 73.845 0 0 1 16-7.5l4-4a81.82 81.82 0 0 0 19-11c5.503-1.171 10.17-3.837 14-8a368.678 368.678 0 0 0 44-26c2.243.319 4.41.152 6.5-.5l4.5 4.5a301.986 301.986 0 0 1 51 30 47.592 47.592 0 0 1 12 5 803.823 803.823 0 0 0 30 17.5Z"/><path style="opacity:1" fill="#85bcc2" d="M666.5 167.5a7747.008 7747.008 0 0 1-176 1 687.72 687.72 0 0 1-31-17v-20a73.86 73.86 0 0 0 9 3.5 91.845 91.845 0 0 0 20 12c4.333.667 8.667.667 13 0a3162.857 3162.857 0 0 1 66-36.5 918.374 918.374 0 0 0 55 31.5 1426.545 1426.545 0 0 0 44 25.5Z"/><path style="opacity:1" fill="#83bdc3" d="M770.5 104.5c1.052 1.756 2.719 2.423 5 2v3c2.041.354 3.874.354 5.5 0 .483.948.649 1.948.5 3 2.836 1.276 5.836 1.942 9 2a388.728 388.728 0 0 1 2 54h-30c.328-11.179-.005-22.179-1-33-.626-2.815-1.96-5.315-4-7.5-3.29-.253-6.29-1.253-9-3a148.901 148.901 0 0 0-31-18c-.881-.708-1.547-1.542-2-2.5 17.452-.429 35.786-.429 55 0Z"/><path style="opacity:1" fill="#273339" d="M459.5 151.5a687.72 687.72 0 0 0 31 17 2199.251 2199.251 0 0 0 44 26.5c4.322 1.239 8.322 3.072 12 5.5.453.958 1.119 1.792 2 2.5a117.669 117.669 0 0 0 17 8c4.015 3.785 8.681 6.452 14 8a72.459 72.459 0 0 0 15 9.5 411.206 411.206 0 0 1 1 40c.167 24.336 0 48.669-.5 73-3.65 4.239-8.15 7.072-13.5 8.5a114.425 114.425 0 0 1-30 18c-3.552 3.273-7.552 5.773-12 7.5a45.728 45.728 0 0 1-7-9c3.636-1.176 6.636-3.342 9-6.5 7.294-1.951 13.627-5.617 19-11a249.84 249.84 0 0 0 22.5-11.5c.833-34.005.667-68.005-.5-102a803.828 803.828 0 0 1-52-30.5c-4.758-1.884-9.092-4.551-13-8-8.449-3.02-16.115-7.353-23-13l-5-1a211.674 211.674 0 0 0-21-14 84.626 84.626 0 0 0-11-4.5c1.834-4.014 2.501-8.347 2-13Z"/><path style="opacity:1" fill="#242122" d="M506.5 255.5a82.73 82.73 0 0 0 1 14c-1.031 31.555-13.031 58.055-36 79.5 16.532-1.468 32.198 1.365 47 8.5l9 6a11.743 11.743 0 0 0 5 3 45.728 45.728 0 0 0 7 9 94.95 94.95 0 0 1 9 16 103.745 103.745 0 0 0 3 11 1087.086 1087.086 0 0 1 1 63v14h-11v-36h-46c.166 6.342 0 12.675-.5 19l-3.5 3.5a8460.02 8460.02 0 0 1-184 0c-1.833-.5-3-1.667-3.5-3.5-.5-6.325-.666-12.658-.5-19h-46c-.167 17.337 0 34.67.5 52 1.859 5.698 5.692 9.031 11.5 10 25.161.998 50.495 1.331 76 1v10c-10.514-.328-20.847.006-31 1v31a813 813 0 0 0 57 1v10h-39l-3-1.5c-8.327-.5-16.66-.666-25-.5a420.766 420.766 0 0 0-1-41h-14l-3-1.5c-7.993-.5-15.993-.666-24-.5-8.491-3-13.658-9-15.5-18a1979.51 1979.51 0 0 1 0-89c2.254-17.179 9.754-31.512 22.5-43a3571.16 3571.16 0 0 0 12-8c14.663-6.202 29.996-8.702 46-7.5-22.969-21.445-34.969-47.945-36-79.5a82.73 82.73 0 0 0 1-14c3.432-22.858 12.765-42.858 28-60 3-2.333 5.667-5 8-8 4.86-3.923 9.86-7.59 15-11a120.431 120.431 0 0 0 13-7c26.807-10.031 53.807-10.531 81-1.5 38.889 16.6 61.889 45.767 69 87.5Z"/><path style="opacity:1" fill="#8bbcc3" d="M129.5 167.5c67 1.333 134 1.333 201 0a92.383 92.383 0 0 1 13 9 199.209 199.209 0 0 0-15 11c-.453-.958-1.119-1.792-2-2.5a153.69 153.69 0 0 1-19-10 25.238 25.238 0 0 0-10 0l-2.5 2.5c-1.049-1.017-2.216-1.184-3.5-.5-5.981 4.997-12.648 8.664-20 11a39.806 39.806 0 0 1-8 7 65.813 65.813 0 0 0-13 5.5h-138c-.166-7.341 0-14.674.5-22a152.917 152.917 0 0 0 16.5-11Z"/><path style="opacity:1" fill="#8cbcc3" d="M666.5 167.5a106.538 106.538 0 0 1 15 9v24h-135c-3.678-2.428-7.678-4.261-12-5.5a2199.251 2199.251 0 0 1-44-26.5c58.836.332 117.502-.001 176-1Z"/><path style="opacity:1" fill="#82dfe3" d="M386.5 172.5c48.969-2.951 83.469 17.715 103.5 62 12.989 40.733 4.489 76.233-25.5 106.5-33.714 27.283-70.381 31.95-110 14-35.266-21.019-52.432-52.186-51.5-93.5 7.089-49.252 34.922-78.919 83.5-89Z"/><path style="opacity:1" fill="#273339" d="M715.5 104.5c.453.958 1.119 1.792 2 2.5a148.901 148.901 0 0 1 31 18c2.71 1.747 5.71 2.747 9 3 2.04 2.185 3.374 4.685 4 7.5.33 75.404-.003 150.738-1 226-10.463 3.618-20.129 8.785-29 15.5a396.993 396.993 0 0 0-33 19.5 569.383 569.383 0 0 0-26 13.5 1292.455 1292.455 0 0 0-35 21.5 499.619 499.619 0 0 1-42 22.5 1903.389 1903.389 0 0 1-42 25c12.403.06 24.737.727 37 2 .852 2.362 2.352 4.195 4.5 5.5.497 2.31.663 4.643.5 7v126c.166 7.674 0 15.341-.5 23-1.887 1.526-2.887 3.526-3 6-.827 13.84-.661 27.506.5 41 .166 6.675 0 13.342-.5 20a9.454 9.454 0 0 1-1.5 2.5 263.418 263.418 0 0 1-39 1.5 750.264 750.264 0 0 0-67-.5 1147.103 1147.103 0 0 1-31 17c-4.743 4.26-10.076 7.426-16 9.5-4.403 3.855-9.403 6.688-15 8.5l-8 6c-5.073 2.817-10.573 4.651-16.5 5.5a66.364 66.364 0 0 1-9.5-2.5 35.157 35.157 0 0 0-10-5l-4-4a59.069 59.069 0 0 1-15-8.5 39.442 39.442 0 0 1-13-7.5c-3.959.349-6.626-1.317-8-5l-10-4a453.417 453.417 0 0 0-23-14.5 182.633 182.633 0 0 1-31-18.5 49.948 49.948 0 0 0-8-3.5c-3.097-1.792-6.43-3.292-10-4.5a147.725 147.725 0 0 0-17-12 42.47 42.47 0 0 0-5-1.5c-4.894-2.515-9.56-5.682-14-9.5-6.875-2.406-13.041-5.906-18.5-10.5a112.97 112.97 0 0 1-.5-15c.166-9.339 0-18.673-.5-28l-2-2a60.931 60.931 0 0 1-.5-11c-.167-10.672 0-21.339.5-32 2.286-2.865 3.12-6.198 2.5-10v-266c-.167-17.67 0-35.336.5-53a10.515 10.515 0 0 0 2.5-3 980.796 980.796 0 0 1 31-17.5 206.267 206.267 0 0 1 15-10.5 65.813 65.813 0 0 1 13-5.5 39.806 39.806 0 0 0 8-7c7.352-2.336 14.019-6.003 20-11 1.284-.684 2.451-.517 3.5.5l2.5-2.5a25.238 25.238 0 0 1 10 0 153.69 153.69 0 0 0 19 10c.881.708 1.547 1.542 2 2.5-2.333 3-5 5.667-8 8a167.221 167.221 0 0 1-16-8.5c-1.333-.667-2.667-.667-4 0l-20 10-4 4c-7.273 1.918-13.607 5.585-19 11a24.569 24.569 0 0 0-8 3 6204.11 6204.11 0 0 1-24 15 239.706 239.706 0 0 0-12 5.5v322h29c-.167-13.337 0-26.671.5-40l1.5-1.5a159.141 159.141 0 0 0 18-1.5c8.007-.166 16.007 0 24 .5l3 1.5c-.172.992.162 1.658 1 2v39h13v-41a420.766 420.766 0 0 1 1 41c8.34-.166 16.673 0 25 .5l3 1.5v37h40v-9c.327-9.515-.006-18.848-1-28v-10a61.015 61.015 0 0 0 0-22c-7.674.166-15.341 0-23-.5-1.323-.816-1.989-1.983-2-3.5.302-2.559-.032-4.893-1-7v-10c-25.505.331-50.839-.002-76-1h77c-.166-8.007 0-16.007.5-24l1.5-1.5 35-.5c12.733-.138 25.4.362 38 1.5a153.949 153.949 0 0 1 1 24.5h34c-.166-8.007 0-16.007.5-24l1.5-1.5c27.665-.5 55.331-.667 83-.5h11v-14a5695.878 5695.878 0 0 0 180-103.5 84.545 84.545 0 0 1 18-8.5c.167-70.334 0-140.667-.5-211 .564-4.29-1.269-6.457-5.5-6.5a203.265 203.265 0 0 0-37-21l-4-4a91.311 91.311 0 0 1-23-13 457.332 457.332 0 0 0-22-11l-4-4a483.026 483.026 0 0 1-51-29c-3.415-.406-6.082-2.072-8-5a90.401 90.401 0 0 0-14-6c-5.722-6.435-12.722-8.768-21-7-7.36 5.663-15.36 9.996-24 13-3.619 3.977-7.952 6.644-13 8-2.537 2.546-5.537 4.212-9 5l-4 4-10 4a331.656 331.656 0 0 1-40 23c-1.692 1.307-3.025 2.807-4 4.5-3.726-1.297-6.059.036-7 4-.06-.543-.393-.876-1-1a52.108 52.108 0 0 1-8 5.5c4.14 1.903 8.14 4.07 12 6.5a171.995 171.995 0 0 1 14 9.5 114.065 114.065 0 0 0 14 6c4.2 3.6 8.867 6.433 14 8.5a684.54 684.54 0 0 1 19-8.5 43.593 43.593 0 0 1 13-8c2.365-3.714 5.698-5.714 10-6a705.673 705.673 0 0 1 21-12c4.719-2.307 9.719-2.974 15-2a113.107 113.107 0 0 0 28 15l5 5a182.852 182.852 0 0 1 35 20 193.115 193.115 0 0 1 32 19 197.694 197.694 0 0 1 17 8 69.2 69.2 0 0 1 4.5 6.5c.99 49.416.657 98.75-1 148-5.218 5.192-11.384 8.692-18.5 10.5a12318.477 12318.477 0 0 1-28 18c-6.381 2.027-12.048 5.361-17 10-6.943 1.604-12.943 4.937-18 10a59.724 59.724 0 0 0-20 11 146.497 146.497 0 0 0-31 18 31.963 31.963 0 0 1-9 3.5 103.745 103.745 0 0 1-3-11 100.037 100.037 0 0 1 18-9.5l4-4a517.21 517.21 0 0 0 27-14c3.492-1.624 6.492-3.958 9-7 5.319-1.548 9.985-4.215 14-8a349.402 349.402 0 0 0 37-19 679.07 679.07 0 0 1 23-15 12.93 12.93 0 0 1 5-.5c.331-28.505-.002-56.838-1-85-.333-1-1-1.667-2-2a650.602 650.602 0 0 0-1-51 106.538 106.538 0 0 0-15-9 1426.545 1426.545 0 0 1-44-25.5 918.374 918.374 0 0 1-55-31.5 3162.857 3162.857 0 0 0-66 36.5 42.479 42.479 0 0 1-13 0 91.845 91.845 0 0 1-20-12 73.86 73.86 0 0 1-9-3.5 50.464 50.464 0 0 0-.5-10l-1.5-1.5c-4.659-1.651-7.326-.151-8 4.5a55.157 55.157 0 0 1-8-5.5l-4-1c-3.225-3.782-7.225-5.949-12-6.5 2.544.396 4.711-.271 6.5-2a25.238 25.238 0 0 0 0-10c-.995-.566-1.828-1.233-2.5-2a6369.404 6369.404 0 0 0 131-74.5c9.584-1.031 17.918 1.636 25 8 4.302.286 7.635 2.286 10 6a30.312 30.312 0 0 1 12 7l19 9c4.933 4.604 10.6 7.938 17 10a161.879 161.879 0 0 0 33 19l4 4a872.822 872.822 0 0 0 35 18.5Z"/><path style="opacity:1" fill="#eceded" d="M449.5 101.5c-.693 4.253.307 7.919 3 11-3.86-2.43-7.86-4.597-12-6.5a52.108 52.108 0 0 0 8-5.5c.607.124.94.457 1 1Z"/><path style="opacity:1" fill="#1f2024" d="M456.5 97.5c.958.453 1.792 1.12 2.5 2a25.238 25.238 0 0 1 0 10c-1.465 2.415-3.632 3.415-6.5 3-2.693-3.081-3.693-6.747-3-11 .941-3.964 3.274-5.297 7-4Z"/><path style="opacity:1" fill="#fdfefe" d="M552.5 465.5c.275-21.023-.058-42.023-1-63a31.963 31.963 0 0 0 9-3.5 146.497 146.497 0 0 1 31-18 59.724 59.724 0 0 1 20-11c5.057-5.063 11.057-8.396 18-10 4.952-4.639 10.619-7.973 17-10 9.313-5.969 18.646-11.969 28-18 7.116-1.808 13.282-5.308 18.5-10.5 1.657-49.25 1.99-98.584 1-148a69.2 69.2 0 0 0-4.5-6.5 197.694 197.694 0 0 0-17-8 193.115 193.115 0 0 0-32-19 182.852 182.852 0 0 0-35-20l-5-5a113.107 113.107 0 0 1-28-15c-5.281-.974-10.281-.307-15 2a705.673 705.673 0 0 0-21 12c-4.302.286-7.635 2.286-10 6a43.593 43.593 0 0 0-13 8 684.54 684.54 0 0 0-19 8.5 50.162 50.162 0 0 1-14-8.5 114.065 114.065 0 0 1-14-6 171.995 171.995 0 0 0-14-9.5c2.868.415 5.035-.585 6.5-3a25.238 25.238 0 0 0 0-10c-.708-.88-1.542-1.547-2.5-2 .975-1.693 2.308-3.193 4-4.5a331.656 331.656 0 0 0 40-23l10-4 4-4c3.463-.788 6.463-2.454 9-5 5.048-1.356 9.381-4.023 13-8 8.64-3.004 16.64-7.337 24-13 8.278-1.768 15.278.565 21 7a90.401 90.401 0 0 1 14 6c1.918 2.928 4.585 4.594 8 5a483.026 483.026 0 0 0 51 29l4 4a457.332 457.332 0 0 1 22 11 91.311 91.311 0 0 0 23 13l4 4a203.265 203.265 0 0 1 37 21c4.231.043 6.064 2.21 5.5 6.5.5 70.333.667 140.666.5 211a84.545 84.545 0 0 0-18 8.5 5695.878 5695.878 0 0 1-180 103.5Z"/><path style="opacity:1" fill="#fefefe" d="M320.5 195.5c-15.235 17.142-24.568 37.142-28 60a267.688 267.688 0 0 1-17 7.5c-1.5 2.167-3.333 4-5.5 5.5-.5 31.998-.667 63.998-.5 96-12.746 11.488-20.246 25.821-22.5 43a1979.51 1979.51 0 0 0 0 89c1.842 9 7.009 15 15.5 18a159.141 159.141 0 0 1-18 1.5l-1.5 1.5a799.793 799.793 0 0 0-.5 40h-29v-322a239.706 239.706 0 0 1 12-5.5 6204.11 6204.11 0 0 0 24-15 24.569 24.569 0 0 1 8-3c5.393-5.415 11.727-9.082 19-11l4-4 20-10c1.333-.667 2.667-.667 4 0a167.221 167.221 0 0 0 16 8.5Z"/><path style="opacity:1" fill="#90bcc3" d="M6.5 168.5h30v60h-30v-60Z"/><path style="opacity:1" fill="#91bbc3" d="M112.5 200.5h138a206.267 206.267 0 0 0-15 10.5 980.796 980.796 0 0 0-31 17.5h-92v-28ZM681.5 176.5a650.602 650.602 0 0 1 1 51 1937.243 1937.243 0 0 1-88 1 72.459 72.459 0 0 1-15-9.5c-5.319-1.548-9.985-4.215-14-8a117.669 117.669 0 0 1-17-8c-.881-.708-1.547-1.542-2-2.5h135v-24Z"/><path style="opacity:1" fill="#90bcc3" d="M762.5 168.5h30v60h-30v-60Z"/><path style="opacity:1" fill="#98b9c3" d="M6.5 228.5h30v57h-30v-57ZM112.5 228.5h92a10.515 10.515 0 0 1-2.5 3c-.5 17.664-.667 35.33-.5 53-29.26.991-58.593 1.325-88 1 .313-3.542-.021-6.875-1-10v-47ZM682.5 227.5c1 .333 1.667 1 2 2v56h-88c.322-5.858-.011-11.525-1-17a411.206 411.206 0 0 0-1-40c29.505.331 58.838-.002 88-1ZM762.5 228.5h30v57h-30v-57Z"/><path style="opacity:1" fill="#263238" d="M292.5 255.5a82.73 82.73 0 0 1-1 14c-3.732.45-6.898 2.117-9.5 5a3360.51 3360.51 0 0 0-.5 82 3571.16 3571.16 0 0 1-12 8c-.167-32.002 0-64.002.5-96 2.167-1.5 4-3.333 5.5-5.5a267.688 267.688 0 0 0 17-7.5Z"/><path style="opacity:1" fill="#252223" d="M350.5 255.5c14.765-1.381 24.265 4.953 28.5 19 .323 18.01-8.51 27.176-26.5 27.5-19.353-6.547-24.52-19.047-15.5-37.5 3.86-4.165 8.36-7.165 13.5-9ZM437.5 255.5c19.657-.842 29.157 8.491 28.5 28-3.908 13.205-12.741 19.372-26.5 18.5-14.252-3.67-20.752-12.836-19.5-27.5 2.241-9.738 8.075-16.071 17.5-19Z"/><path style="opacity:1" fill="#263238" d="M506.5 255.5c4.208 2.027 8.041 4.694 11.5 8 1.049-1.017 2.216-1.184 3.5-.5 1.5 2.167 3.333 4 5.5 5.5.5 31.665.667 63.332.5 95l-9-6c.415-3.875-.085-7.542-1.5-11a2595.272 2595.272 0 0 0-1.5-72c-2.387-2.189-5.053-3.856-8-5a82.73 82.73 0 0 1-1-14Z"/><path style="opacity:1" fill="#e8f0f3" d="M351.5 266.5c11.151-1.01 16.651 3.99 16.5 15-2.383 7.612-7.55 10.779-15.5 9.5-9.173-4.522-11.34-11.355-6.5-20.5a59.93 59.93 0 0 1 5.5-4ZM438.5 266.5c14.177-.969 19.344 5.364 15.5 19-7.856 8.326-15.189 7.992-22-1-2.876-7.874-.71-13.874 6.5-18Z"/><path style="opacity:1" fill="#9eb6c2" d="M201.5 284.5v22c-14.112 1.317-28.445 1.983-43 2a914.169 914.169 0 0 0-44 0 133.155 133.155 0 0 1-1-23c29.407.325 58.74-.009 88-1Z"/><path style="opacity:1" fill="#9eb2bf" d="M112.5 275.5c.979 3.125 1.313 6.458 1 10a133.155 133.155 0 0 0 1 23 914.169 914.169 0 0 1 44 0c14.555-.017 28.888-.683 43-2v56h-16c.268-1.599-.066-2.932-1-4-1.363-4.202-4.03-7.369-8-9.5a82.15 82.15 0 0 1-22-13c-3.993-.322-7.326-1.988-10-5-3.415-.406-6.082-2.072-8-5l-10-4c-4.032-3.676-8.699-6.176-14-7.5v-39Z"/><path style="opacity:1" fill="#9eb3c0" d="M291.5 269.5c1.031 31.555 13.031 58.055 36 79.5-16.004-1.202-31.337 1.298-46 7.5-.167-27.335 0-54.669.5-82 2.602-2.883 5.768-4.55 9.5-5Z"/><path style="opacity:1" fill="#9eb3bf" d="M507.5 269.5c2.947 1.144 5.613 2.811 8 5a2595.272 2595.272 0 0 1 1.5 72c1.415 3.458 1.915 7.125 1.5 11-14.802-7.135-30.468-9.968-47-8.5 22.969-21.445 34.969-47.945 36-79.5Z"/><path style="opacity:1" fill="#9eb2bf" d="M6.5 285.5h30c-.167 23.336 0 46.669.5 70a31.94 31.94 0 0 0 1.5 6c-10.487.994-21.154 1.328-32 1v-77Z"/><path style="opacity:1" fill="#9dafbc" d="M684.5 229.5a1807.264 1807.264 0 0 1 1 85 12.93 12.93 0 0 0-5 .5 679.07 679.07 0 0 0-23 15 349.402 349.402 0 0 1-37 19c-4.015 3.785-8.681 6.452-14 8-2.508 3.042-5.508 5.376-9 7a517.21 517.21 0 0 1-27 14l-4 4a100.037 100.037 0 0 0-18 9.5 94.95 94.95 0 0 0-9-16c4.448-1.727 8.448-4.227 12-7.5a114.425 114.425 0 0 0 30-18c5.35-1.428 9.85-4.261 13.5-8.5.5-24.331.667-48.664.5-73 .989 5.475 1.322 11.142 1 17a133.155 133.155 0 0 0 1 23c28.822-.02 57.822-.02 87 0v-79Z"/><path style="opacity:1" fill="#9eb6c2" d="M596.5 285.5h88v23c-29.178-.02-58.178-.02-87 0a133.155 133.155 0 0 1-1-23Z"/><path style="opacity:1" fill="#9cb1bd" d="M761.5 135.5c.995 10.821 1.328 21.821 1 33v117h30v77c-10.846.328-21.513-.006-32-1 .997-75.262 1.33-150.596 1-226Z"/><path style="opacity:1" fill="#242123" d="M366.5 331.5c3.35-.165 6.683.002 10 .5a84.685 84.685 0 0 1 9 5.5 62.047 62.047 0 0 0 8-5.5 30.485 30.485 0 0 1 11 0 31.365 31.365 0 0 0 9 5.5 62.047 62.047 0 0 0 8-5.5c8.297-2.571 14.297-.071 18 7.5-.286 3.451-2.119 5.451-5.5 6a22.565 22.565 0 0 1-7-4c-9.229 9.301-18.396 9.301-27.5 0a65.815 65.815 0 0 0-8 5.5c-4.857 2.21-9.524 1.877-14-1a17.712 17.712 0 0 0-5.5-4.5 23.003 23.003 0 0 1-7 4c-4.586-.908-6.252-3.574-5-8a28.85 28.85 0 0 1 6.5-6Z"/><path style="opacity:1" fill="#a8afb8" d="m484.5 384.5-2 14c-5.723-5.027-12.39-8.194-20-9.5a342.33 342.33 0 0 0-37 0 36.545 36.545 0 0 0-10 3 25.099 25.099 0 0 1-8 5c-3.278 2.782-5.945 5.949-8 9.5a70.171 70.171 0 0 0-7-8.5c-4.635-2.653-9.301-5.319-14-8a270.772 270.772 0 0 0-45-1c-7.602 1.708-13.769 5.542-18.5 11.5l-1-17c-3.405-2.577-6.738-2.577-10 0-.5 16.33-.667 32.663-.5 49h-46c-4.273-26.382 4.06-47.548 25-63.5 12.304-7.575 25.637-10.409 40-8.5l20 .5c37.519 20.635 75.185 20.635 113 0 12-.667 24-.667 36 0 21.856 3.155 37.356 14.655 46.5 34.5 3.131 12.118 4.298 24.451 3.5 37h-46a601.227 601.227 0 0 0-1-49c-2.708-1.936-5.708-2.436-9-1.5-.752.671-1.086 1.504-1 2.5Z"/><path style="opacity:1" fill="#9daab7" d="M760.5 361.5c10.487.994 21.154 1.328 32 1v3c-3.013-.128-5.513.872-7.5 3-2.411-1.653-3.578-.987-3.5 2-1.701.466-3.201.466-4.5 0-3.844 1.975-7.177 4.642-10 8l-1-1c-1.049 1.607-2.549 2.273-4.5 2v3c-3.937.204-7.604 1.204-11 3 .381 2.442-.286 3.109-2 2-.886.825-1.219 1.825-1 3h-6v3a12.93 12.93 0 0 0-5 .5c-.989 2.158-2.656 3.325-5 3.5a374.496 374.496 0 0 1-33-1 396.993 396.993 0 0 1 33-19.5c8.871-6.715 18.537-11.882 29-15.5Z"/><path style="opacity:1" fill="#72757a" d="M484.5 384.5a128.507 128.507 0 0 1-.5 16c-.717-.544-1.217-1.211-1.5-2l2-14Z"/><path style="opacity:1" fill="#a9b0b9" d="M393.5 422.5v32h-79c-7.097-44.737 11.569-62.903 56-54.5 12.148 2.982 19.815 10.482 23 22.5ZM483.5 424.5v30h-78v-32c3.178-12.01 10.844-19.51 23-22.5a289.106 289.106 0 0 1 34 0c8.689 3.031 15.189 8.531 19.5 16.5a18.991 18.991 0 0 1 1.5 8Z"/><path style="opacity:1" fill="#9ca6b3" d="M184.5 358.5c.934 1.068 1.268 2.401 1 4h16v64c-.961 1.765-1.295 3.765-1 6h-17v-5a1209.147 1209.147 0 0 0 1-69ZM38.5 361.5a66.33 66.33 0 0 1 9 4.5c1.374 3.683 4.04 5.349 8 5a7469.927 7469.927 0 0 0 92 53.5c-11.488.995-23.155 1.328-35 1-.689-1.274-1.523-1.274-2.5 0a4.934 4.934 0 0 1-.5-3 58.97 58.97 0 0 1-11-3v-3a27.267 27.267 0 0 0-9-3v-3c-2.908.238-5.242-.762-7-3a3.647 3.647 0 0 0-1.5 1c-1.667-1-3-2.333-4-4l-1 1a4.932 4.932 0 0 1-.5-3h-6v-3h-5v-3a544.412 544.412 0 0 1-29-14v-3a58.967 58.967 0 0 1-11-3v-3h-6v-3c-4.013-1.674-8.013-3.341-12-5v-3c10.846.328 21.513-.006 32-1Z"/><path style="opacity:1" fill="#9ba3b0" d="M698.5 396.5a374.496 374.496 0 0 0 33 1c.111.617.444 1.117 1 1.5a12.93 12.93 0 0 1-5 .5v3a9.86 9.86 0 0 0-6 1c-3.423 1.192-6.256 3.192-8.5 6l-1-1c-1.049 1.607-2.549 2.273-4.5 2v3h-6v3h-5v3c-2.185.388-4.018 1.388-5.5 3-2.278-1.12-3.778-.287-4.5 2.5-5.282 1.123-9.616 3.623-13 7.5-12.178.328-24.178-.005-36-1a1292.455 1292.455 0 0 1 35-21.5 569.383 569.383 0 0 1 26-13.5Z"/><path style="opacity:1" fill="#6c6f73" d="M405.5 422.5v32h78v-30c.994 10.153 1.328 20.486 1 31h-80c-.328-11.179.005-22.179 1-33Z"/><path style="opacity:1" fill="#969daa" d="M147.5 424.5a539.733 539.733 0 0 1 24 13.5c8.547 1.617 12.547-1.883 12-10.5v5h17c-.295-2.235.039-4.235 1-6v40c-.934 1.068-1.268 2.401-1 4h-14c.884-3.99-.449-6.823-4-8.5a456.087 456.087 0 0 0-25-14c-6.204-2.789-12.537-4.622-19-5.5v-3h-6v-3h-3v-3h-6v-3h-5v-3c-2.398.241-4.398-.426-6-2 11.845.328 23.512-.005 35-1Z"/><path style="opacity:1" fill="#82dfe3" d="M541.5 479.5c-27.669-.167-55.335 0-83 .5l-1.5 1.5c-.5 7.993-.666 15.993-.5 24h-34a153.949 153.949 0 0 0-1-24.5 376.792 376.792 0 0 0-38-1.5l-35 .5-1.5 1.5c-.5 7.993-.666 15.993-.5 24h-77c-5.808-.969-9.641-4.302-11.5-10a1351.5 1351.5 0 0 1-.5-52h46c-.166 6.342 0 12.675.5 19 .5 1.833 1.667 3 3.5 3.5a8460.02 8460.02 0 0 0 184 0l3.5-3.5c.5-6.325.666-12.658.5-19h46v36Z"/><path style="opacity:1" fill="#9298a4" d="M637.5 431.5c11.822.995 23.822 1.328 36 1-1.765.961-3.765 1.295-6 1v3h-6v3c-1.788-.285-3.455.048-5 1 1.129 2.029.629 2.363-1.5 1-1.712 3.452-4.212 4.452-7.5 3v3c-3.096-.593-5.429.407-7 3a47.25 47.25 0 0 1-7 3v3h-6v3c-1.788-.285-3.455.048-5 1a28.335 28.335 0 0 0-9.5 6l-1-1c-1.049 1.607-2.549 2.273-4.5 2v29h-11c.237-1.291-.096-2.291-1-3a24.935 24.935 0 0 0-.5-7c-2.148-1.305-3.648-3.138-4.5-5.5a375.737 375.737 0 0 0-37-2 1903.389 1903.389 0 0 0 42-25 499.619 499.619 0 0 0 42-22.5Z"/><path style="opacity:1" fill="#6b6d72" d="M393.5 422.5c.995 10.821 1.328 21.821 1 33a1600.65 1600.65 0 0 1-80-1h79v-32Z"/><path style="opacity:1" fill="#9b9b9a" d="M414.5 487.5v1h-60v31c-.994-10.487-1.328-21.154-1-32h61Z"/><path style="opacity:1" fill="#8a8d98" d="M201.5 466.5v55c-.768.763-1.268 1.763-1.5 3-4.332-.665-8.832-.665-13.5 0v-54h14c-.268-1.599.066-2.932 1-4Z"/><path style="opacity:1" fill="#cdcac4" d="M414.5 488.5v17h-60v-17h60Z"/><path style="opacity:1" fill="#231f20" d="M456.5 516.5h-34v-10h34v10Z"/><path style="opacity:1" fill="#72767b" d="M289.5 516.5h14v1c-4.532-.318-8.866.015-13 1-.838-.342-1.172-1.008-1-2Z"/><path style="opacity:1" fill="#71757a" d="M314.5 517.5c10.153-.994 20.486-1.328 31-1 .968 2.107 1.302 4.441 1 7-.961-1.765-1.295-3.765-1-6h-31Z"/><path style="opacity:1" fill="#a9b1b9" d="M303.5 517.5v40h-13v-39c4.134-.985 8.468-1.318 13-1Z"/><path style="opacity:1" fill="#a9b0b9" d="M314.5 517.5h31c-.295 2.235.039 4.235 1 6 .011 1.517.677 2.684 2 3.5 7.659.5 15.326.666 23 .5v21h-57v-31Z"/><path style="opacity:1" fill="#838991" d="M422.5 516.5h34c.328 10.846-.006 21.513-1 32v-31h-32v31c-.994-10.487-1.328-21.154-1-32Z"/><path style="opacity:1" fill="#a9b1b9" d="M455.5 548.5h-32v-31h32v31Z"/><path style="opacity:1" fill="#c1bfbb" d="M354.5 505.5h60v25h-34c.306-2.885-.027-5.552-1-8-.453-.958-1.119-1.792-2-2.5-7.659-.5-15.326-.666-23-.5v-14Z"/><path style="opacity:1" fill="#7e8089" d="M201.5 521.5v29c-4.693 1.86-9.693 2.526-15 2v-28c4.668-.665 9.168-.665 13.5 0 .232-1.237.732-2.237 1.5-3Z"/><path style="opacity:1" fill="#b3b3b1" d="M282.5 544.5h-32v-22h32v22Z"/><path style="opacity:1" fill="#b4b4b2" d="M380.5 530.5h34v14h-34v-14Z"/><path style="opacity:1" fill="#80828c" d="M595.5 493.5c.904.709 1.237 1.709 1 3h11a32.462 32.462 0 0 0 .5 8c.414.457.914.791 1.5 1a553.172 553.172 0 0 1 1 47h-14c.306-2.885-.027-5.552-1-8v-51Z"/><path style="opacity:1" fill="#54565b" d="M371.5 527.5a61.015 61.015 0 0 1 0 22 813 813 0 0 1-57-1h57v-21Z"/><path style="opacity:1" fill="#231f20" d="M456.5 559.5h-34v-10h34v10Z"/><path style="opacity:1" fill="#a6a8a7" d="M250.5 544.5h32c-.293 6.755.04 13.422 1 20a145.036 145.036 0 0 1-34 0 106.296 106.296 0 0 0 1-20Z"/><path style="opacity:1" fill="#a7a9a8" d="M380.5 544.5h34v18h-34v-18Z"/><path style="opacity:1" fill="#65a6ab" d="M422.5 559.5h34v28h-34v-28Z"/><path style="opacity:1" fill="#81dee2" d="M332.5 559.5h39v27h-39v-27Z"/><path style="opacity:1" fill="#83e1e4" d="M423.5 560.5h32v26h-32v-26Z"/><path style="opacity:1" fill="#989c9d" d="M249.5 564.5a145.036 145.036 0 0 0 34 0 431.7 431.7 0 0 0 41 1v12h-118v-12a474.127 474.127 0 0 0 43-1Z"/><path style="opacity:1" fill="#74767d" d="M201.5 550.5c.62 3.802-.214 7.135-2.5 10a511.925 511.925 0 0 0-.5 32h-1c.107-2.403-.893-4.236-3-5.5a32.462 32.462 0 0 0-8-.5v-34c5.307.526 10.307-.14 15-2Z"/><path style="opacity:1" fill="#73757d" d="M595.5 544.5c.973 2.448 1.306 5.115 1 8h14v34c-5.209-1.104-8.209.896-9 6-1.44-.863-2.774-.863-4 0a112.33 112.33 0 0 0-2-5v-43Z"/><path style="opacity:1" fill="#969a9c" d="M380.5 562.5h34v21h-34v-21Z"/><path style="opacity:1" fill="#221f1f" d="M186.5 586.5a32.462 32.462 0 0 1 8 .5c2.107 1.264 3.107 3.097 3 5.5-.359 1.871-1.359 3.371-3 4.5a32.462 32.462 0 0 1-8 .5c-5.333-3.667-5.333-7.333 0-11Z"/><path style="opacity:1" fill="#8e9396" d="M206.5 577.5h118v13h-118v-13Z"/><path style="opacity:1" fill="#518184" d="M371.5 559.5c.994 9.152 1.327 18.485 1 28h-40v-1h39v-27Z"/><path style="opacity:1" fill="#8a9093" d="M380.5 583.5h34v13h-34v-13Z"/><path style="opacity:1" fill="#221f1f" d="M610.5 586.5c3.751-.082 5.751 1.751 6 5.5-.249 3.749-2.249 5.582-6 5.5-4.67 1.085-7.67-.582-9-5 .791-5.104 3.791-7.104 9-6Z"/><path style="opacity:1" fill="#1c1d21" d="M332.5 587.5h40v9h-40v-9ZM422.5 587.5h34v9h-34v-9Z"/><path style="opacity:1" fill="#848b8f" d="M206.5 590.5h118v7a400.778 400.778 0 0 0-40 1c-1.63 2.776-2.297 5.776-2 9h-32c.796-4.184-.537-7.35-4-9.5a799.793 799.793 0 0 0-40-.5v-7Z"/><path style="opacity:1" fill="#66676e" d="M595.5 587.5a112.33 112.33 0 0 1 2 5c1.226-.863 2.56-.863 4 0 1.33 4.418 4.33 6.085 9 5v27h-14c.284-1.915-.049-3.581-1-5v-32Z"/><path style="opacity:1" fill="#65666d" d="M371.5 597.5v27h-54c-6.761-2.213-12.761-5.713-18-10.5a73.86 73.86 0 0 1-9-3.5v-5c13.337.167 26.671 0 40-.5 1.778-2.135 2.445-4.635 2-7.5h39Z"/><path style="opacity:1" fill="#fbfbfb" d="M213.5 605.5h29a840.27 840.27 0 0 0 .5 41l1.5 1.5c14.667.667 29.333.667 44 0l1.5-1.5 1-24a42.319 42.319 0 0 1 8.5 6.5 420.445 420.445 0 0 0 32 17c2.365 3.714 5.698 5.714 10 6a387.056 387.056 0 0 0 23 13l-16 1-1.5 1.5a484.008 484.008 0 0 0 0 44l1.5 1.5c32.667.667 65.333.667 98 0a6.978 6.978 0 0 0 2.5-3.5 420.29 420.29 0 0 0 0-41 6.978 6.978 0 0 0-3.5-2.5l-12-1a736.57 736.57 0 0 0 22.5-12.5l1 58a6.978 6.978 0 0 0 3.5 2.5 2601.643 2601.643 0 0 0-62 35.5 97.288 97.288 0 0 0-12-5.5c-3.543-1.608-6.543-3.942-9-7-5.662-.917-10.329-3.583-14-8a78.488 78.488 0 0 1-23-13c-3.415-.406-6.082-2.072-8-5-8.372-3.019-16.038-7.352-23-13-5.093-1.382-9.426-4.049-13-8-6.4-2.062-12.067-5.396-17-10l-10-4-4-4a77.598 77.598 0 0 1-23-13 90.42 90.42 0 0 1-14-6 45.999 45.999 0 0 0-13-8l-1.5-1.5a684.346 684.346 0 0 1-.5-37Z"/><path style="opacity:1" fill="#7b8388" d="M380.5 596.5h34v17h-34v-17Z"/><path style="opacity:1" fill="#626369" d="M197.5 592.5h1a60.931 60.931 0 0 0 .5 11l2 2c.5 9.327.666 18.661.5 28-.904.709-1.237 1.709-1 3h-14v-39a32.462 32.462 0 0 0 8-.5c1.641-1.129 2.641-2.629 3-4.5Z"/><path style="opacity:1" fill="#6b767c" d="M250.5 607.5h32v33h-32v-33Z"/><path style="opacity:1" fill="#5c5d64" d="M371.5 597.5a841.82 841.82 0 0 1 1 58 63.089 63.089 0 0 1-10-3.5 523.182 523.182 0 0 1-22-15c-8.296-3.141-15.963-7.308-23-12.5h54v-27Z"/><path style="opacity:1" fill="#6a757b" d="M380.5 613.5h34v20h-34v-20Z"/><path style="opacity:1" fill="#57585e" d="M422.5 596.5h34a840.27 840.27 0 0 1-.5 41c-3.736 3.95-8.236 6.45-13.5 7.5-5.799 5.608-12.466 9.774-20 12.5v-61Z"/><path style="opacity:1" fill="#626369" d="M423.5 597.5h32v39h-32v-39Z"/><path style="opacity:1" fill="#5b6870" d="M380.5 633.5h34v19h-34v-19Z"/><path style="opacity:1" fill="#55565b" d="M201.5 633.5a112.97 112.97 0 0 0 .5 15c5.459 4.594 11.625 8.094 18.5 10.5 4.44 3.818 9.106 6.985 14 9.5h-48v-32h14c-.237-1.291.096-2.291 1-3ZM595.5 619.5c.951 1.419 1.284 3.085 1 5h14a625.997 625.997 0 0 1-1 50c-1.671 2.01-2.338 4.343-2 7-3.064 1.19-5.731 2.857-8 5h-3v3h-4c-1.161-13.494-1.327-27.16-.5-41 .113-2.474 1.113-4.474 3-6 .5-7.659.666-15.326.5-23Z"/><path style="opacity:1" fill="#334045" d="M464.5 487.5v217h119v-217c.999 72.498 1.333 145.165 1 218h-121c-.333-72.835.001-145.502 1-218Z"/><path style="opacity:1" fill="#5b6870" d="M549.5 633.5h34v19h-34v-19ZM464.5 633.5h34v19h-34v-19Z"/><path style="opacity:1" fill="#6a757b" d="M549.5 613.5h34v20h-34v-20ZM464.5 613.5h34v20h-34v-20Z"/><path style="opacity:1" fill="#7b8388" d="M549.5 596.5h34v17h-34v-17ZM464.5 596.5h34v17h-34v-17Z"/><path style="opacity:1" fill="#8a9093" d="M549.5 583.5h34v13h-34v-13ZM464.5 583.5h34v13h-34v-13Z"/><path style="opacity:1" fill="#969a9c" d="M549.5 562.5h34v21h-34v-21ZM464.5 562.5h34v21h-34v-21Z"/><path style="opacity:1" fill="#a7a9a8" d="M549.5 544.5h34v18h-34v-18ZM464.5 544.5h34v18h-34v-18Z"/><path style="opacity:1" fill="#273339" d="M548.5 522.5c.167 49.668 0 99.334-.5 149a11.333 11.333 0 0 1-3.5 1.5c-14 .667-28 .667-42 0-1.833-.5-3-1.667-3.5-3.5a145.053 145.053 0 0 1-.5-17v-108a133.155 133.155 0 0 1 1-23 4.457 4.457 0 0 0 2-1.5c15-.667 30-.667 45 0 .881.708 1.547 1.542 2 2.5Z"/><path style="opacity:1" fill="#63646b" d="M506.5 596.5c4.202-.317 8.202.017 12 1a9.86 9.86 0 0 1-1 6 38.358 38.358 0 0 0-10 5 36.875 36.875 0 0 1-1-12Z"/><path style="opacity:1" fill="#8f9598" d="M527.5 597.5c4.47-.986 9.137-1.319 14-1v69c-11.845.328-23.512-.005-35-1h34v-67h-13Z"/><path style="opacity:1" fill="#fdfdfd" d="M527.5 597.5h13v67h-34v-42c7.456-2.78 14.289-6.78 20.5-12 .499-4.321.666-8.654.5-13Z"/><path style="opacity:1" fill="#1c1d21" d="M506.5 587.5h35v9c-4.863-.319-9.53.014-14 1h-9c-3.798-.983-7.798-1.317-12-1v-9Z"/><path style="opacity:1" fill="#8f9497" d="M540.5 527.5a900.97 900.97 0 0 1 1 60h-14v-1h13v-59Z"/><path style="opacity:1" fill="#fcfcfc" d="M540.5 527.5v59h-13c-.166-8.673 0-17.34.5-26l2-2c.5-10.328.666-20.661.5-31h10Z"/><path style="opacity:1" fill="#231f20" d="M514.5 527.5h11c.167 16.003 0 32.003-.5 48-.875 2.715-2.708 4.048-5.5 4-1.951.273-3.451-.393-4.5-2-.5-16.663-.667-33.33-.5-50Z"/><path style="opacity:1" fill="#a4aab3" d="M507.5 527.5h7c-.167 16.67 0 33.337.5 50 1.049 1.607 2.549 2.273 4.5 2v7h-12v-59Z"/><path style="opacity:1" fill="#838991" d="M507.5 527.5v59h12v1h-13a900.97 900.97 0 0 1 1-60Z"/><path style="opacity:1" fill="#bab9b6" d="M464.5 518.5h119v26h-34c.325-7.519-.008-14.852-1-22-.453-.958-1.119-1.792-2-2.5-15-.667-30-.667-45 0a4.457 4.457 0 0 1-2 1.5 133.155 133.155 0 0 0-1 23h-34v-26Z"/><path style="opacity:1" fill="#c6c3be" d="M464.5 505.5h119v13h-119v-13Z"/><path style="opacity:1" fill="#cbc8c3" d="M464.5 487.5h119v18h-119v-18Z"/><path style="opacity:1" fill="#4d5b64" d="M379.5 522.5c.973 2.448 1.306 5.115 1 8v122h34v18a316.283 316.283 0 0 1-35-1v-147Z"/><path style="opacity:1" fill="#495963" d="M548.5 522.5c.992 7.148 1.325 14.481 1 22v108h34v23h-119v-23h34c-.166 5.676.001 11.343.5 17 .5 1.833 1.667 3 3.5 3.5 14 .667 28 .667 42 0a11.333 11.333 0 0 0 3.5-1.5c.5-49.666.667-99.332.5-149Z"/><path style="opacity:1" fill="#41525c" d="M414.5 487.5c.833 61.499 1.333 123.165 1.5 185 .671.752 1.504 1.086 2.5 1 7.148.992 14.481 1.325 22 1v10h-86v-11c7.674.166 15.341 0 23-.5 1.323-.816 1.989-1.983 2-3.5a316.283 316.283 0 0 0 35 1v-183Z"/><path style="opacity:1" fill="#4e4f53" d="M186.5 668.5h48a42.47 42.47 0 0 1 5 1.5 147.725 147.725 0 0 1 17 12c3.57 1.208 6.903 2.708 10 4.5a1089.684 1089.684 0 0 1-66 1c-2.701.21-4.868-1.123-6.5-4-1.049 1.017-2.216 1.184-3.5.5l1-1a15.645 15.645 0 0 1-4-2.5 36.875 36.875 0 0 1-1-12Z"/><path style="opacity:1" fill="#42535e" d="M464.5 675.5h119v9h-119v-9Z"/><path style="opacity:1" fill="#4c4e51" d="M599.5 686.5c1.333.667 1.333.667 0 0Z"/><path style="opacity:1" fill="#3a4c58" d="M354.5 673.5v11h86v-10c-7.519.325-14.852-.008-22-1h23v32h-88c-.328-10.846.006-21.513 1-32ZM464.5 684.5h119v20h-119v-20Z"/><path style="opacity:1" fill="#48494c" d="M266.5 686.5a49.948 49.948 0 0 1 8 3.5 182.633 182.633 0 0 0 31 18.5c-21.308 1.989-42.974 2.656-65 2-1.804.076-3.804-.257-6-1v-3c-1.788.285-3.455-.048-5-1-2.158-3.144-5.158-4.477-9-4v-3a12.93 12.93 0 0 1-5-.5 150.928 150.928 0 0 0-15-10.5c22.173.331 44.173-.003 66-1Z"/><path style="opacity:1" fill="#404043" d="M305.5 708.5a453.417 453.417 0 0 1 23 14.5l10 4c1.374 3.683 4.041 5.349 8 5a39.442 39.442 0 0 0 13 7.5 1190.252 1190.252 0 0 1-69 1c-4.091-1.4-7.424-3.067-10-5v-3h-6v-3h-5v-3a8.43 8.43 0 0 1-4-.5c-4.85-3.699-10.184-6.199-16-7.5v-3h-6v-3c-1.679.215-2.679-.452-3-2 22.026.656 43.692-.011 65-2Z"/><path style="opacity:1" fill="#3f4043" d="M551.5 713.5a22.296 22.296 0 0 1-5 3.5l1 1a118.288 118.288 0 0 0-17 7.5 10.756 10.756 0 0 0-2.5 3l-1-1c-1.049 1.607-2.549 2.273-4.5 2v3h-6v3h-5v3c-2.524-.071-4.524.929-6 3a5.576 5.576 0 0 0-3-1c-21.84.331-43.506-.003-65-1 5.924-2.074 11.257-5.24 16-9.5a1147.103 1147.103 0 0 0 31-17 750.264 750.264 0 0 1 67 .5Z"/><path style="opacity:1" fill="#3a3b3d" d="M359.5 739.5a59.069 59.069 0 0 0 15 8.5l4 4a35.157 35.157 0 0 1 10 5 66.364 66.364 0 0 0 9.5 2.5c5.927-.849 11.427-2.683 16.5-5.5l8-6c5.597-1.812 10.597-4.645 15-8.5 21.494.997 43.16 1.331 65 1v3a12.93 12.93 0 0 0-5 .5 101.657 101.657 0 0 0-10 7.5 9.108 9.108 0 0 1-5 1v3c-2.51-.446-4.51.22-6 2-2.216.703-4.049 2.036-5.5 4-1.461-1.383-2.294-1.049-2.5 1h-140c-2.731-.798-4.897-2.465-6.5-5-.718.951-1.551 1.117-2.5.5 1.333-.667 1.333-1.333 0-2a12.93 12.93 0 0 0-5-.5v-3a58.97 58.97 0 0 1-11-3v-3a78.457 78.457 0 0 1-13-6c23.173.331 46.173-.002 69-1Z"/><path style="opacity:1" fill="#383a3b" d="M476.5 757.5c1.333.667 1.333.667 0 0Z"/><path style="opacity:1" fill="#353637" d="M328.5 762.5h140a82.857 82.857 0 0 0-11 4.5c-1.307 2.324-3.307 3.657-6 4l2 1a12.93 12.93 0 0 1-5 .5v3a9.86 9.86 0 0 0-6 1 35.217 35.217 0 0 1-8 4v3h-6v3h-6v3a8.43 8.43 0 0 0-4 .5l-5 5c-1.284.684-2.451.517-3.5-.5-1.263 2.968-3.263 3.968-6 3a2.428 2.428 0 0 0-.5 2h-12c-.507-1.359-1.507-2.359-3-3a137.913 137.913 0 0 0-11-4v-3c-2.133-1.386-5.133-2.386-9-3v-3h-5v-3c-3.005.247-5.505-.753-7.5-3l-1 1a4.934 4.934 0 0 1-.5-3h-6v-3h-5v-3h-6v-3a1862.174 1862.174 0 0 1-9-4Z"/></svg>