<?xml version="1.0" encoding="UTF-8"?><svg xmlns="http://www.w3.org/2000/svg" width="800" height="800" style="shape-rendering:geometricPrecision;text-rendering:geometricPrecision;image-rendering:optimizeQuality;fill-rule:evenodd;clip-rule:evenodd"><path style="opacity:1" fill="#f8ddc4" d="M576.5-.5h9a2.429 2.429 0 0 0 .5 2c1.049-1.017 2.216-1.184 3.5-.5a20.495 20.495 0 0 0 2.5 3.5c1.356-.88 2.856-1.214 4.5-1v3c2.822 1.432 6.489 2.432 11 3v3c2.092.061 3.592 1.061 4.5 3 2.537-.677 4.537.323 6 3 2.361-.566 4.194.434 5.5 3l2-1c.35 2.067 2.017 3.067 5 3v3h6v3h5v3h6v3a27.247 27.247 0 0 0 9 3c-.219 1.175.114 2.175 1 3a6.846 6.846 0 0 1 4-1v3a8.435 8.435 0 0 1 4 .5c-1.154.914-.987 1.747.5 2.5 1.299-.466 2.799-.466 4.5 0v3h6v3h5v3a428.986 428.986 0 0 0 20 8.5l-2 1c2.522.61 4.522 1.943 6 4 1.634.493 3.301.66 5 .5v3c2.908-.238 5.242.762 7 3 .951-.826 1.951-.992 3-.5l-1 1a6.977 6.977 0 0 1 3.5 2.5l1-1c.483.948.649 1.948.5 3h6v3h5v3c1.951-.273 3.451.393 4.5 2l1-1c6 4.386 12.5 7.886 19.5 10.5l-1 1c1.525 1.009 3.192 1.509 5 1.5v3h6v3h5v3c2.041.354 3.874.354 5.5 0 .483.948.649 1.948.5 3 2.836 1.276 5.836 1.942 9 2a7971.884 7971.884 0 0 1 2 251c-3.013-.128-5.513.872-7.5 3-2.411-1.653-3.578-.987-3.5 2-1.701.466-3.201.466-4.5 0-3.844 1.975-7.177 4.642-10 8l-1-1c-1.049 1.607-2.549 2.273-4.5 2v3c-3.937.204-7.604 1.204-11 3 .381 2.442-.286 3.109-2 2-.886.825-1.219 1.825-1 3h-6v3a12.93 12.93 0 0 0-5 .5c-1.079 2.043-2.746 3.376-5 4l1 1a12.93 12.93 0 0 1-5 .5v3a9.86 9.86 0 0 0-6 1c-3.423 1.192-6.256 3.192-8.5 6l-1-1c-1.049 1.607-2.549 2.273-4.5 2v3h-6v3h-5v3c-2.185.388-4.018 1.388-5.5 3-2.278-1.12-3.778-.287-4.5 2.5a101.955 101.955 0 0 0-13 5.5v3h-6v3h-6v3c-1.788-.285-3.455.048-5 1 1.129 2.029.629 2.363-1.5 1-1.712 3.452-4.212 4.452-7.5 3v3c-3.096-.593-5.429.407-7 3a47.25 47.25 0 0 1-7 3v3h-6v3c-1.788-.285-3.455.048-5 1-4.81 2.484-9.143 4.817-13 7-.991-6.479-1.324-13.146-1-20a1523.194 1523.194 0 0 0 78-45.5 112.343 112.343 0 0 1 17-8l5-5a377.475 377.475 0 0 0 23-12l8-6a190.921 190.921 0 0 0 21.5-10.5c.667-76 .667-152 0-228a36.078 36.078 0 0 0-3.5-4.5c-3.29-.253-6.29-1.253-9-3a29746.604 29746.604 0 0 1-46-28 457.332 457.332 0 0 0-22-11l-4-4a161.879 161.879 0 0 1-33-19c-6.4-2.062-12.067-5.396-17-10a1126.1 1126.1 0 0 0-31-16c-2.365-3.714-5.698-5.714-10-6-7.082-6.364-15.416-9.031-25-8a12271.425 12271.425 0 0 1-129 74c-7.588 4.924-7.921 10.257-1 16a287.246 287.246 0 0 1 25 16 496.946 496.946 0 0 1 33 18c4.333.667 8.667.667 13 0a3162.857 3162.857 0 0 1 66-36.5 4261.045 4261.045 0 0 0 114 65.5c.826 17.093 1.326 34.26 1.5 51.5l2 2c.5 28.331.667 56.665.5 85a12.93 12.93 0 0 0-5 .5 679.07 679.07 0 0 0-23 15l-4 1a1288.893 1288.893 0 0 1-43 24.5l-2-146c-1.784-15.116-10.117-24.116-25-27a1296.178 1296.178 0 0 0-72-1 713.94 713.94 0 0 0-50-28.5l-4-4a77.598 77.598 0 0 1-23-13 312.387 312.387 0 0 0-27-14c-1.918-2.928-4.585-4.594-8-5a10892.14 10892.14 0 0 0-27-17 326.577 326.577 0 0 1-27-14c-3.83-4.162-8.497-6.83-14-8a2084.03 2084.03 0 0 0-77-44c-9.098-8.801-19.765-11.801-32-9a583.354 583.354 0 0 0-33 19 175.013 175.013 0 0 0-28 16l-4 1-23 15a336.071 336.071 0 0 0-40 23c-5.503 1.171-10.17 3.837-14 8A579.672 579.672 0 0 0 38 129.5 3410.247 3410.247 0 0 0 36.5 245c-.152 38.537.348 77.037 1.5 115.5l9.5 5.5c1.374 3.683 4.04 5.349 8 5a13376.247 13376.247 0 0 0 116 67c4.091 1.227 7.591.394 10.5-2.5.101-3.2.768-6.2 2-9 .667-23.333.667-46.667 0-70a20.231 20.231 0 0 0-7.5-7.5 82.15 82.15 0 0 1-22-13c-3.993-.322-7.326-1.988-10-5-3.415-.406-6.082-2.072-8-5l-10-4c-4.032-3.676-8.699-6.176-14-7.5-.167-45.335 0-90.668.5-136 6.664-3.313 12.831-7.48 18.5-12.5 6.799-1.87 12.799-5.203 18-10a81.82 81.82 0 0 0 19-11c5.503-1.171 10.17-3.837 14-8a368.678 368.678 0 0 0 44-26c2.243.319 4.41.152 6.5-.5 4.064 4.134 8.897 6.967 14.5 8.5a131.76 131.76 0 0 0 17 10 320.348 320.348 0 0 1 24 16 445.595 445.595 0 0 1 55 31 52.415 52.415 0 0 0 12 4.5 361.608 361.608 0 0 1-38 1 112.692 112.692 0 0 0-10-6.5 25.238 25.238 0 0 0-10 0l-2.5 2.5c-1.049-1.017-2.216-1.184-3.5-.5a157.284 157.284 0 0 1-6 4.5c-24.002-.167-48.002 0-72 .5-1.237.232-2.237.732-3 1.5-10.084 3.587-16.584 10.587-19.5 21-.667 124-.667 248 0 372a56.08 56.08 0 0 0 10.5 17c-.167 18.336 0 36.67.5 55 5.48 4.594 11.647 8.094 18.5 10.5a82.842 82.842 0 0 0 19 11 147.725 147.725 0 0 1 17 12c13.267 5.247 25.6 12.247 37 21a24.569 24.569 0 0 0 8 3 201.636 201.636 0 0 1 27 17l10 4c1.374 3.683 4.041 5.349 8 5a279.412 279.412 0 0 1 19 12c4.871 1.741 9.204 4.408 13 8a35.157 35.157 0 0 1 10 5 66.364 66.364 0 0 0 9.5 2.5 92.109 92.109 0 0 1 10.5-2.5 78.988 78.988 0 0 0 14-9l10-4c4.933-4.604 10.6-7.938 17-10l4-4a319.99 319.99 0 0 0 46-27 91.311 91.311 0 0 0 23-13 70.186 70.186 0 0 0 18-10 112.343 112.343 0 0 1 17-8c6.951-5.974 14.618-10.641 23-14 6.616-3.612 11.449-8.779 14.5-15.5.5-15.997.667-31.997.5-48 5.986-4.627 9.986-10.627 12-18 .617-.111 1.117-.444 1.5-1 .5-23.331.667-46.664.5-70a3576.875 3576.875 0 0 1 0 169c-1.671 2.01-2.338 4.343-2 7-3.064 1.19-5.731 2.857-8 5h-3v3a58.97 58.97 0 0 0-11 3v3c-1.859-.039-3.192.794-4 2.5a12.93 12.93 0 0 1-5 .5v3c-2.582-.475-4.582.192-6 2-2.281 1.928-4.947 2.928-8 3v3h-6v3c-4.045-.073-7.378 1.427-10 4.5l1 1a118.288 118.288 0 0 0-17 7.5 10.756 10.756 0 0 0-2.5 3l-1-1c-1.049 1.607-2.549 2.273-4.5 2v3h-6v3h-5v3c-2.524-.071-4.524.929-6 3-2.12-1.372-3.12-.705-3 2a12.93 12.93 0 0 0-5 .5 101.657 101.657 0 0 0-10 7.5 9.108 9.108 0 0 1-5 1v3c-2.51-.446-4.51.22-6 2-2.216.703-4.049 2.036-5.5 4-1.813-1.109-2.646-.442-2.5 2a12.93 12.93 0 0 0-5 .5c-1.497 1.871-3.497 2.871-6 3-1.307 2.324-3.307 3.657-6 4l2 1a12.93 12.93 0 0 1-5 .5v3a9.86 9.86 0 0 0-6 1 35.217 35.217 0 0 1-8 4v3h-6v3h-6v3a8.43 8.43 0 0 0-4 .5l-5 5c-1.284.684-2.451.517-3.5-.5-1.263 2.968-3.263 3.968-6 3a2.428 2.428 0 0 0-.5 2h-12c-.507-1.359-1.507-2.359-3-3a137.913 137.913 0 0 0-11-4v-3c-2.133-1.386-5.133-2.386-9-3v-3h-5v-3c-3.005.247-5.505-.753-7.5-3l-1 1a4.934 4.934 0 0 1-.5-3h-6v-3h-5v-3h-6v-3c-5.922-1.727-11.089-4.727-15.5-9-.718.951-1.551 1.117-2.5.5 1.333-.667 1.333-1.333 0-2a12.93 12.93 0 0 0-5-.5v-3a58.97 58.97 0 0 1-11-3v-3c-8.654-3.265-16.321-6.932-23-11v-3h-6v-3h-5v-3a8.43 8.43 0 0 1-4-.5c-4.85-3.699-10.184-6.199-16-7.5v-3h-6v-3c-2.092-.061-3.592-1.061-4.5-3-1.299.466-2.799.466-4.5 0v-3c-1.788.285-3.455-.048-5-1-2.158-3.144-5.158-4.477-9-4v-3a12.93 12.93 0 0 1-5-.5c-2.625-3.031-6.125-5.864-10.5-8.5-2.537.677-4.537-.323-6-3l-1 1c-1.667-1-3-2.333-4-4-1.049 1.017-2.216 1.184-3.5.5l1-1a15.645 15.645 0 0 1-4-2.5 23352.191 23352.191 0 0 1-1.5-216 1204.023 1204.023 0 0 0-28.5-16.5c-6.204-2.789-12.537-4.622-19-5.5v-3h-6v-3h-3v-3h-6v-3h-5v-3c-2.921.354-5.254-.646-7-3-1.714 1.109-2.381.442-2-2a58.97 58.97 0 0 1-11-3v-3a27.267 27.267 0 0 0-9-3v-3c-2.908.238-5.242-.762-7-3a3.647 3.647 0 0 0-1.5 1c-1.667-1-3-2.333-4-4l-1 1a4.932 4.932 0 0 1-.5-3h-6v-3h-5v-3a544.412 544.412 0 0 1-29-14v-3a58.967 58.967 0 0 1-11-3v-3h-6v-3c-4.013-1.674-8.013-3.341-12-5 .008-83.648.008-167.148 0-250.5a169.104 169.104 0 0 0 15-5.5v-3a58.967 58.967 0 0 0 11-3v-3a417.79 417.79 0 0 0 15-7 32.686 32.686 0 0 0 8.5-6l1 1c1.049-1.607 2.549-2.273 4.5-2v-3a59.029 59.029 0 0 1 11-3 4.932 4.932 0 0 1 .5-3l1 1c2.015-3.065 4.515-4.065 7.5-3v-3h5v-3c1.7.16 3.366-.007 5-.5 1.478-2.057 3.478-3.39 6-4l-2-1a18.436 18.436 0 0 1 6-.5v-3a87.51 87.51 0 0 0 14-5v-3h6v-3h5v-3c1.701-.466 3.201-.466 4.5 0 3.279-4.047 7.946-7.047 14-9a18.264 18.264 0 0 0 5-4l1 1c1.049-1.607 2.549-2.273 4.5-2v-3h5v-3h6v-3c4.612-1.195 9.279-2.862 14-5v-3c1.701-.466 3.201-.466 4.5 0 .908-1.939 2.408-2.939 4.5-3v-3h6v-3c1.788.285 3.455-.048 5-1a38.767 38.767 0 0 0 7-4.5 49.25 49.25 0 0 1 14 0c2.025 1.677 4.359 2.677 7 3-1.134 1.016-.801 1.683 1 2l5 1-1 1c2.622 3.073 5.955 4.573 10 4.5v3h6v3c3.191.262 5.858 1.596 8 4a9.864 9.864 0 0 0 6 1v3c3.58 1.22 7.247 2.386 11 3.5l-2 1c2.767.678 4.934 2.178 6.5 4.5l1-1c3.769 1.797 7.102 4.13 10 7a3.942 3.942 0 0 1 2-1c1.482 1.612 3.315 2.612 5.5 3v3h6v3h5v3h6v3a87.51 87.51 0 0 0 14 5v3c1.699-.16 3.366.007 5 .5l-1 1c1.525 1.009 3.192 1.509 5 1.5v3h6v3h5v3c2.985-1.065 5.485-.065 7.5 3l1-1c.483.948.649 1.948.5 3h5v3h6v3c2.133 1.386 5.133 2.386 9 3v3c2.908-.238 5.242.762 7 3l2-1c.35 2.067 2.017 3.067 5 3v3h6v3c2.516-.255 4.85-1.089 7-2.5a626.207 626.207 0 0 1 29-17c.837-1.011 1.17-2.178 1-3.5 4.493-.216 7.993-2.216 10.5-6 1.011.837 2.178 1.17 3.5 1v-3a59.031 59.031 0 0 0 11-3v-3c1.808.009 3.475-.491 5-1.5l-1-1a12.935 12.935 0 0 1 5-.5v-3a9.864 9.864 0 0 0 6-1 35.213 35.213 0 0 1 8-4v-3h6v-3a59.031 59.031 0 0 1 11-3v-3c1.808.009 3.475-.491 5-1.5-1.388-.89-1.222-1.39.5-1.5 2.071 1.167 3.571.5 4.5-2 6.434-2.343 12.767-5.343 19-9v-3a59.031 59.031 0 0 1 11-3 4.934 4.934 0 0 1 .5-3l1 1c1.995-2.247 4.495-3.247 7.5-3v-3h5v-3h6v-3c1.808.009 3.475-.491 5-1.5l-1-1a12.936 12.936 0 0 1 5-.5v-3c3.552.188 6.219-1.145 8-4Z"/><path style="opacity:1" fill="#273339" d="M608.5 447.5v-13c.667 0 1-.333 1-1l1-2a57.829 57.829 0 0 1 8-2.5 2367.217 2367.217 0 0 1 73-42l4-4a114.302 114.302 0 0 0 13-6 846.02 846.02 0 0 0 33-20 73.86 73.86 0 0 0 9-3.5 7901.316 7901.316 0 0 0-1.5-216 2129.254 2129.254 0 0 1-37.5-21.5c-3.415-.406-6.082-2.072-8-5a91.311 91.311 0 0 1-23-13 457.332 457.332 0 0 0-22-11c-2.508-3.042-5.508-5.376-9-7a457.332 457.332 0 0 1-22-11l-24-15c-3.415-.406-6.082-2.072-8-5a90.401 90.401 0 0 0-14-6c-5.722-6.435-12.722-8.768-21-7-7.36 5.663-15.36 9.996-24 13-3.619 3.977-7.952 6.644-13 8-2.537 2.546-5.537 4.212-9 5l-4 4-10 4a2551.356 2551.356 0 0 0-60 36 7185.005 7185.005 0 0 1 26 16 114.065 114.065 0 0 0 14 6c4.2 3.6 8.867 6.433 14 8.5a684.54 684.54 0 0 1 19-8.5 43.593 43.593 0 0 1 13-8c2.365-3.714 5.698-5.714 10-6a705.673 705.673 0 0 1 21-12c4.719-2.307 9.719-2.974 15-2a113.107 113.107 0 0 0 28 15l5 5a182.852 182.852 0 0 1 35 20 193.115 193.115 0 0 1 32 19 197.694 197.694 0 0 1 17 8 36.078 36.078 0 0 1 3.5 4.5c1.657 49.25 1.99 98.584 1 148-5.181 6.173-11.681 10.34-19.5 12.5a12318.477 12318.477 0 0 1-28 18c-6.381 2.027-12.048 5.361-17 10-3.29.253-6.29 1.253-9 3a128.868 128.868 0 0 0-11 7.5h-1v-14c.992.172 1.658-.162 2-1a1288.893 1288.893 0 0 0 43-24.5l4-1a679.07 679.07 0 0 1 23-15 12.93 12.93 0 0 1 5-.5c.167-28.335 0-56.669-.5-85l-2-2c-.174-17.24-.674-34.407-1.5-51.5a4261.045 4261.045 0 0 1-114-65.5 3162.857 3162.857 0 0 0-66 36.5 42.479 42.479 0 0 1-13 0 496.946 496.946 0 0 0-33-18 287.246 287.246 0 0 0-25-16c-6.921-5.743-6.588-11.076 1-16a12271.425 12271.425 0 0 0 129-74c9.584-1.031 17.918 1.636 25 8 4.302.286 7.635 2.286 10 6a1126.1 1126.1 0 0 1 31 16c4.933 4.604 10.6 7.938 17 10a161.879 161.879 0 0 0 33 19l4 4a457.332 457.332 0 0 1 22 11 29746.604 29746.604 0 0 0 46 28c2.71 1.747 5.71 2.747 9 3a36.078 36.078 0 0 1 3.5 4.5c.667 76 .667 152 0 228a190.921 190.921 0 0 1-21.5 10.5l-8 6a377.475 377.475 0 0 1-23 12l-5 5a112.343 112.343 0 0 0-17 8 1523.194 1523.194 0 0 1-78 45.5Z"/><path style="opacity:1" fill="#283439" d="M511.5 181.5a163.67 163.67 0 0 1-25-1 758.84 758.84 0 0 0-32-19.5 175.043 175.043 0 0 1-28-16c-5.662-.917-10.329-3.583-14-8-5.086-1.414-9.419-4.081-13-8a546.6 546.6 0 0 0-35-18 337.282 337.282 0 0 1-26-17 731.874 731.874 0 0 1-34-19c-5.487-1.208-10.154-3.875-14-8a24672.35 24672.35 0 0 1-21-11 179.568 179.568 0 0 1-15-10A228.066 228.066 0 0 0 230 34.5 112.066 112.066 0 0 0 206.5 48l-10 4-3 3c-6.771 2.445-12.771 6.111-18 11l-10 4-4 4a520.666 520.666 0 0 0-59 34l-9 3c-3.796 3.592-8.13 6.259-13 8A361.546 361.546 0 0 1 48 137.5c-.667 72-.667 144 0 216a7214.146 7214.146 0 0 0 125 72c.5-21.664.667-43.331.5-65a340.197 340.197 0 0 0-18-8.5 55.63 55.63 0 0 0-18-10 78.488 78.488 0 0 0-23-13 56.965 56.965 0 0 0-10.5-7.5 5697.651 5697.651 0 0 1 0-151 6.978 6.978 0 0 1 2.5-3.5 146.497 146.497 0 0 0 31-18c8.372-3.019 16.038-7.352 23-13 5.093-1.382 9.426-4.049 13-8a90.42 90.42 0 0 0 14-6c1.918-2.928 4.585-4.594 8-5a226.438 226.438 0 0 1 29-17 42.498 42.498 0 0 1 13 0l4 4a154.79 154.79 0 0 0 13 6 1081.768 1081.768 0 0 0 33 20l4 1c8.98 5.636 17.98 11.302 27 17 7.27 1.913 13.604 5.58 19 11 4.75 1.03 8.75 3.363 12 7l10 4 4 4a222.128 222.128 0 0 1 15 7.5 139.2 139.2 0 0 1-23-1 52.415 52.415 0 0 1-12-4.5 445.595 445.595 0 0 0-55-31 320.348 320.348 0 0 0-24-16 131.76 131.76 0 0 1-17-10c-5.603-1.533-10.436-4.366-14.5-8.5-2.09.652-4.257.819-6.5.5a368.678 368.678 0 0 1-44 26c-3.83 4.163-8.497 6.829-14 8a81.82 81.82 0 0 1-19 11c-5.201 4.797-11.201 8.13-18 10-5.669 5.02-11.836 9.187-18.5 12.5-.5 45.332-.667 90.665-.5 136 5.301 1.324 9.968 3.824 14 7.5l10 4c1.918 2.928 4.585 4.594 8 5 2.674 3.012 6.007 4.678 10 5a82.15 82.15 0 0 0 22 13 20.231 20.231 0 0 1 7.5 7.5c.667 23.333.667 46.667 0 70-1.232 2.8-1.899 5.8-2 9-2.909 2.894-6.409 3.727-10.5 2.5a13376.247 13376.247 0 0 1-116-67c-3.96.349-6.626-1.317-8-5l-9.5-5.5A3410.247 3410.247 0 0 1 36.5 245c-.152-38.537.348-77.037 1.5-115.5A579.672 579.672 0 0 1 80.5 107c3.83-4.163 8.497-6.829 14-8a336.071 336.071 0 0 1 40-23l23-15 4-1a175.013 175.013 0 0 1 28-16 583.354 583.354 0 0 1 33-19c12.235-2.801 22.902.199 32 9a2084.03 2084.03 0 0 1 77 44c5.503 1.17 10.17 3.838 14 8a326.577 326.577 0 0 0 27 14c8.98 5.636 17.98 11.302 27 17 3.415.406 6.082 2.072 8 5a312.387 312.387 0 0 1 27 14 77.598 77.598 0 0 0 23 13l4 4a713.94 713.94 0 0 1 50 28.5Z"/><path style="opacity:1" fill="#fdfdfd" d="M486.5 180.5a2916.974 2916.974 0 0 1-108 1 222.128 222.128 0 0 0-15-7.5l-4-4-10-4c-3.25-3.637-7.25-5.97-12-7-5.396-5.42-11.73-9.087-19-11a10892.14 10892.14 0 0 0-27-17l-4-1a1081.768 1081.768 0 0 1-33-20 154.79 154.79 0 0 1-13-6l-4-4a42.498 42.498 0 0 0-13 0 226.438 226.438 0 0 0-29 17c-3.415.406-6.082 2.072-8 5a90.42 90.42 0 0 1-14 6c-3.574 3.951-7.907 6.618-13 8-6.962 5.648-14.628 9.981-23 13a146.497 146.497 0 0 1-31 18 6.978 6.978 0 0 0-2.5 3.5 5697.651 5697.651 0 0 0 0 151 56.965 56.965 0 0 1 10.5 7.5 78.488 78.488 0 0 1 23 13 55.63 55.63 0 0 1 18 10 340.197 340.197 0 0 1 18 8.5c.167 21.669 0 43.336-.5 65a7214.146 7214.146 0 0 1-125-72c-.667-72-.667-144 0-216A361.546 361.546 0 0 0 80.5 119c4.87-1.741 9.204-4.408 13-8l9-3a520.666 520.666 0 0 1 59-34l4-4 10-4c5.229-4.889 11.229-8.555 18-11l3-3 10-4A112.066 112.066 0 0 1 230 34.5 228.066 228.066 0 0 1 254.5 46a179.568 179.568 0 0 0 15 10 24672.35 24672.35 0 0 0 21 11c3.846 4.125 8.513 6.792 14 8a731.874 731.874 0 0 0 34 19 337.282 337.282 0 0 0 26 17 546.6 546.6 0 0 1 35 18c3.581 3.919 7.914 6.586 13 8 3.671 4.417 8.338 7.083 14 8a175.043 175.043 0 0 0 28 16 758.84 758.84 0 0 1 32 19.5Z"/><path style="opacity:1" fill="#fdfefe" d="M610.5 431.5a931.31 931.31 0 0 1-1-61 128.868 128.868 0 0 1 11-7.5c2.71-1.747 5.71-2.747 9-3 4.952-4.639 10.619-7.973 17-10 9.313-5.969 18.646-11.969 28-18 7.819-2.16 14.319-6.327 19.5-12.5.99-49.416.657-98.75-1-148a36.078 36.078 0 0 0-3.5-4.5 197.694 197.694 0 0 0-17-8 193.115 193.115 0 0 0-32-19 182.852 182.852 0 0 0-35-20l-5-5a113.107 113.107 0 0 1-28-15c-5.281-.974-10.281-.307-15 2a705.673 705.673 0 0 0-21 12c-4.302.286-7.635 2.286-10 6a43.593 43.593 0 0 0-13 8 684.54 684.54 0 0 0-19 8.5 50.162 50.162 0 0 1-14-8.5 114.065 114.065 0 0 1-14-6 7185.005 7185.005 0 0 0-26-16 2551.356 2551.356 0 0 1 60-36l10-4 4-4c3.463-.788 6.463-2.454 9-5 5.048-1.356 9.381-4.023 13-8 8.64-3.004 16.64-7.337 24-13 8.278-1.768 15.278.565 21 7a90.401 90.401 0 0 1 14 6c1.918 2.928 4.585 4.594 8 5l24 15a457.332 457.332 0 0 0 22 11c3.492 1.624 6.492 3.958 9 7a457.332 457.332 0 0 1 22 11 91.311 91.311 0 0 0 23 13c1.918 2.928 4.585 4.594 8 5a2129.254 2129.254 0 0 0 37.5 21.5 7901.316 7901.316 0 0 1 1.5 216 73.86 73.86 0 0 1-9 3.5 846.02 846.02 0 0 1-33 20 114.302 114.302 0 0 1-13 6l-4 4a2367.217 2367.217 0 0 0-73 42 57.829 57.829 0 0 0-8 2.5Z"/><path style="opacity:1" fill="#29343a" d="M317.5 181.5h-32a157.284 157.284 0 0 0 6-4.5c1.284-.684 2.451-.517 3.5.5l2.5-2.5a25.238 25.238 0 0 1 10 0 112.692 112.692 0 0 1 10 6.5Z"/><path style="opacity:1" fill="#4d514e" d="M355.5 180.5a139.2 139.2 0 0 0 23 1c36.171.332 72.171-.002 108-1a163.67 163.67 0 0 0 25 1c24.172-.331 48.172.002 72 1-124.355-.326-248.688.007-373 1 .763-.768 1.763-1.268 3-1.5 23.998-.5 47.998-.667 72-.5h32a361.608 361.608 0 0 0 38-1Z"/><path style="opacity:.997" fill="#242824" d="M583.5 182.5c14.883 2.884 23.216 11.884 25 27v161a512.628 512.628 0 0 0 0 64v13c-.324 6.854.009 13.521 1 20v38c-.696 23.526-1.363 47.193-2 71-2.014 7.373-6.014 13.373-12 18a43.047 43.047 0 0 1-8 3.5c-20.171.168-40.171.668-60 1.5h-258a1668.325 1668.325 0 0 0-58-1.5 68.206 68.206 0 0 1-10-4.5 56.08 56.08 0 0 1-10.5-17c-.667-124-.667-248 0-372 2.916-10.413 9.416-17.413 19.5-21a35157.776 35157.776 0 0 1 373-1Z"/><path style="opacity:1" fill="#fefefe" d="M213.5 190.5c123-.167 246 0 369 .5 8.187 1.185 13.687 5.685 16.5 13.5.667 123 .667 246 0 369-1.5 9.5-7 15-16.5 16.5-123 .667-246 .667-369 0-7.815-2.813-12.315-8.313-13.5-16.5-.667-123-.667-246 0-369 2.687-6.519 7.187-11.186 13.5-14Z"/><path style="opacity:1" fill="#b9a694" d="m608.5 209.5 2 146c-.342.838-1.008 1.172-2 1v-147Z"/><path style="opacity:1" fill="#232824" d="M248.5 216.5v1c-.011 1.517-.677 2.684-2 3.5-6.811-.954-12.311 1.213-16.5 6.5a308.045 308.045 0 0 0-2 34 18.473 18.473 0 0 1-3.5 2c-2.082-.124-3.582-1.124-4.5-3-.667-10-.667-20 0-30 3.962-14.068 13.129-19.568 27.5-16.5.752.671 1.086 1.504 1 2.5Z"/><path style="opacity:1" fill="#1d231e" d="M281.5 216.5c.203 1.89-.463 3.39-2 4.5a64.218 64.218 0 0 1-16 0c-.916-.278-1.582-.778-2-1.5v-4c.111-.617.444-1.117 1-1.5 6-.667 12-.667 18 0 .752.671 1.086 1.504 1 2.5Z"/><path style="opacity:1" fill="#cfdfbf" d="M261.5 215.5v4c-4.014-1.834-8.347-2.501-13-2v-1a46.809 46.809 0 0 0 13-1Z"/><path style="opacity:1" fill="#b2e482" d="M281.5 216.5c94.263.831 188.597 1.331 283 1.5 4.245 2.576 7.412 6.076 9.5 10.5.5 19.997.667 39.997.5 60h-31c-2.411-8.245-7.744-13.745-16-16.5-36-.667-72-.667-108 0-2.667 2.667-2.667 5.333 0 8l108 1c3.239 1.736 5.573 4.236 7 7.5h-122c-2.384-8.219-7.717-13.719-16-16.5a3842.33 3842.33 0 0 0-124 0c-8.747 2.583-14.747 8.083-18 16.5h-30v-25a18.473 18.473 0 0 0 3.5-2c.043-11.43.71-22.763 2-34 4.189-5.287 9.689-7.454 16.5-6.5 1.323-.816 1.989-1.983 2-3.5 4.653-.501 8.986.166 13 2 .418.722 1.084 1.222 2 1.5a64.218 64.218 0 0 0 16 0c1.537-1.11 2.203-2.61 2-4.5Z"/><path style="opacity:1" fill="#212621" d="M412.5 288.5v63h115c8.28 2.447 13.78 7.78 16.5 16 .5 31.332.667 62.665.5 94v1c.166 10.006 0 20.006-.5 30-2.833 8.167-8.333 13.667-16.5 16.5-41.667.667-83.333.667-125 0-8.665-2.83-13.998-8.663-16-17.5v-62h-115c-8.684-2.518-14.184-8.185-16.5-17-.5-41.332-.667-82.665-.5-124 3.253-8.417 9.253-13.917 18-16.5a3842.33 3842.33 0 0 1 124 0c8.283 2.781 13.616 8.281 16 16.5Z"/><path style="opacity:1" fill="#212721" d="M543.5 288.5a169.926 169.926 0 0 0 1 26c.607-.124.94-.457 1-1a174.328 174.328 0 0 1 10-12.5c4.996-.664 6.83 1.502 5.5 6.5l-15 19c-1.787 2.458-4.121 4.124-7 5a190.218 190.218 0 0 1-21-25c-.833-4.5 1-6.333 5.5-5.5a116.252 116.252 0 0 1 11.5 13.5c.824-8.843.657-17.51-.5-26-1.427-3.264-3.761-5.764-7-7.5l-108-1c-2.667-2.667-2.667-5.333 0-8 36-.667 72-.667 108 0 8.256 2.755 13.589 8.255 16 16.5Z"/><path style="opacity:1" fill="#e174c7" d="M396.5 281.5c-41.001-.167-82.001 0-123 .5-1.525 1.009-3.192 1.509-5 1.5.558-1.29 1.558-2.123 3-2.5 41.835-.831 83.502-.665 125 .5Z"/><path style="opacity:1" fill="#fb7ede" d="M396.5 281.5c2.589.919 4.589 2.586 6 5 .956 21.64 1.289 43.307 1 65-8.924 1.925-14.59 7.258-17 16a702.728 702.728 0 0 0-1 53h-114c-3.653-1.489-6.153-4.156-7.5-8a3842.33 3842.33 0 0 1 0-124c.996-2.16 2.496-3.827 4.5-5 1.808.009 3.475-.491 5-1.5 40.999-.5 81.999-.667 123-.5Z"/><path style="opacity:1" fill="#838783" d="M543.5 288.5h1c-.326 8.517.007 16.85 1 25-.06.543-.393.876-1 1a169.926 169.926 0 0 1-1-26Z"/><path style="opacity:1" fill="#ce6cb8" d="M402.5 286.5c.768.763 1.268 1.763 1.5 3a642.78 642.78 0 0 1-.5 62c.289-21.693-.044-43.36-1-65Z"/><path style="opacity:1" fill="#1e221f" d="M337.5 305.5v11h36c1.493.812 2.16 2.145 2 4-.209 1.494-.876 2.661-2 3.5-5.657.499-11.324.666-17 .5-1.412 15.32-7.079 28.82-17 40.5.939 1.944 2.273 3.611 4 5a910.391 910.391 0 0 1 29 21.5c1.475 2.745.809 4.912-2 6.5-1.789.52-3.456.187-5-1a1123.538 1123.538 0 0 0-33-24.5 1045.752 1045.752 0 0 0-34 25.5c-2.808.92-4.975.087-6.5-2.5-.624-1.964-.124-3.631 1.5-5a444.418 444.418 0 0 0 32-25 255.447 255.447 0 0 1-10.5-16c-2.05-3.802-3.05-7.802-3-12 2.333-2.667 4.667-2.667 7 0 3.005 8.023 7.505 15.023 13.5 21 8.412-7.822 13.412-17.488 15-29 .951-1.419 1.284-3.085 1-5h-54c-3.473-2.063-3.806-4.563-1-7.5 11.995-.5 23.995-.667 36-.5a60.931 60.931 0 0 1 .5-11c2.621-2.64 5.121-2.64 7.5 0Z"/><path style="opacity:1" fill="#894e7b" d="M337.5 305.5c.979 3.125 1.313 6.458 1 10 11.845-.328 23.512.005 35 1h-36v-11Z"/><path style="opacity:1" fill="#c366ad" d="M294.5 324.5h54c.284 1.915-.049 3.581-1 5v-4a702.728 702.728 0 0 1-53-1Z"/><path style="opacity:1" fill="#a2a4a3" d="M412.5 289.5a931.31 931.31 0 0 1 1 61c38.17-.332 76.17.001 114 1h-115v-62Z"/><path style="opacity:1" fill="#edf5ea" d="M402.5 359.5c41.335-.167 82.668 0 124 .5 3.062 1.061 5.562 2.894 7.5 5.5a2033.076 2033.076 0 0 1 1 127 25.55 25.55 0 0 1-5.5 6.5 2033.076 2033.076 0 0 1-127 1c-3.99-1.99-6.49-5.157-7.5-9.5a3719.39 3719.39 0 0 1 0-122c1.642-3.8 4.142-6.8 7.5-9Z"/><path style="opacity:1" fill="#bbbdbc" d="M608.5 370.5h1a931.31 931.31 0 0 0 1 61l-1 2a992.742 992.742 0 0 1-1-63Z"/><path style="opacity:1" fill="#4c504d" d="M608.5 370.5a992.742 992.742 0 0 0 1 63c0 .667-.333 1-1 1a512.628 512.628 0 0 1 0-64Z"/><path style="opacity:1" fill="#1e231f" d="M462.5 383.5c4.592-.584 7.425 1.416 8.5 6a595974.26 595974.26 0 0 0 37 80c1.825 5.486-.008 7.986-5.5 7.5a2181.564 2181.564 0 0 1-19-39.5 171.668 171.668 0 0 0-37 0 977.656 977.656 0 0 1-17.5 38c-2.333 2.667-4.667 2.667-7 0-.584-2.757-.25-5.423 1-8a4914.783 4914.783 0 0 1 39.5-84Z"/><path style="opacity:1" fill="#e8f0e5" d="M464.5 398.5a590.57 590.57 0 0 1 15 29 140.772 140.772 0 0 1-29 .5 1185.086 1185.086 0 0 0 14-29.5Z"/><path style="opacity:1" fill="#c869b2" d="M386.5 367.5v54c-38.504.332-76.837-.001-115-1h114a702.728 702.728 0 0 1 1-53Z"/><path style="opacity:1" fill="#9ca299" d="M271.5 429.5h115v62c-.994-9.486-1.327-19.152-1-29v-32c-38.17.332-76.17-.001-114-1Z"/><path style="opacity:1" fill="#202620" d="M271.5 462.5c3.761 3.873 6.761 8.206 9 13-.007 3.513-1.673 5.013-5 4.5L264 466.5a104.936 104.936 0 0 0 1 28l5.5 5.5 109 1c2.667 2.667 2.667 5.333 0 8-36.333.667-72.667.667-109 0-6.716-2.499-11.383-6.999-14-13.5-.59-9.653-1.256-19.319-2-29-.607.124-.94.457-1 1a144.543 144.543 0 0 1-9 11.5c-5.408 2.267-7.575.433-6.5-5.5a130.837 130.837 0 0 0 8.5-11c.667 0 1-.333 1-1 2.996-4.829 6.83-8.829 11.5-12 4.975 3.477 9.142 7.81 12.5 13Z"/><path style="opacity:1" fill="#def2c9" d="M247.5 461.5c0 .667-.333 1-1 1h-22v89a2026.42 2026.42 0 0 1-1-90h24Z"/><path style="opacity:1" fill="#dff3cb" d="M544.5 462.5v-1h31v58h-1v-57h-30Z"/><path style="opacity:1" fill="#b2e482" d="M246.5 462.5a130.837 130.837 0 0 1-8.5 11c-1.075 5.933 1.092 7.767 6.5 5.5a144.543 144.543 0 0 0 9-11.5 332.95 332.95 0 0 1 1.5 26c.278.916.778 1.582 1.5 2 2.617 6.501 7.284 11.001 14 13.5 36.333.667 72.667.667 109 0 2.667-2.667 2.667-5.333 0-8l-109-1-5.5-5.5a104.936 104.936 0 0 1-1-28l11.5 13.5c3.327.513 4.993-.987 5-4.5-2.239-4.794-5.239-9.127-9-13h114c-.327 9.848.006 19.514 1 29 2.002 8.837 7.335 14.67 16 17.5 41.667.667 83.333.667 125 0 8.167-2.833 13.667-8.333 16.5-16.5.5-9.994.666-19.994.5-30h30v57c-1.517.011-2.684.677-3.5 2a320.493 320.493 0 0 1-2 34c-4.314 5.07-9.814 7.237-16.5 6.5-1.323.816-1.989 1.983-2 3.5h-12c-.444-1.613-1.444-2.78-3-3.5a64.218 64.218 0 0 0-16 0c-.881.708-1.547 1.542-2 2.5-93.263.997-186.596 1.331-280 1-7.084-2.084-11.417-6.751-13-14v-89h22Z"/><path style="opacity:1" fill="#435637" d="M253.5 467.5c.06-.543.393-.876 1-1 .744 9.681 1.41 19.347 2 29-.722-.418-1.222-1.084-1.5-2a332.95 332.95 0 0 0-1.5-26Z"/><path style="opacity:1" fill="#bba896" d="M609.5 505.5c.167 23.336 0 46.669-.5 70-.383.556-.883.889-1.5 1 .637-23.807 1.304-47.474 2-71Z"/><path style="opacity:1" fill="#232824" d="M574.5 519.5h1c1.574.437 2.741 1.437 3.5 3 .667 9.333.667 18.667 0 28-2.989 14.414-11.823 20.914-26.5 19.5-1.537-1.11-2.203-2.61-2-4.5.011-1.517.677-2.684 2-3.5 6.686.737 12.186-1.43 16.5-6.5a320.493 320.493 0 0 0 2-34c.816-1.323 1.983-1.989 3.5-2Z"/><path style="opacity:1" fill="#252b26" d="M538.5 565.5c-.359 1.871-1.359 3.371-3 4.5a64.218 64.218 0 0 1-16 0c-1.323-.816-1.989-1.983-2-3.5v-2c.453-.958 1.119-1.792 2-2.5a64.218 64.218 0 0 1 16 0c1.556.72 2.556 1.887 3 3.5Z"/><path style="opacity:1" fill="#ddf2c7" d="M517.5 564.5v2a19602.57 19602.57 0 0 1-280-1c93.404.331 186.737-.003 280-1Z"/><path style="opacity:1" fill="#283439" d="M201.5 593.5a68.206 68.206 0 0 0 10 4.5c19.504.168 38.838.668 58 1.5h-56c-.167 14.337 0 28.671.5 43a46.99 46.99 0 0 0 10.5 5.5l4 4a90.42 90.42 0 0 0 14 6 77.598 77.598 0 0 0 23 13l4 4 10 4c4.933 4.604 10.6 7.938 17 10 3.574 3.951 7.907 6.618 13 8 6.962 5.648 14.628 9.981 23 13 1.918 2.928 4.585 4.594 8 5a78.488 78.488 0 0 0 23 13c3.671 4.417 8.338 7.083 14 8 2.457 3.058 5.457 5.392 9 7a97.288 97.288 0 0 1 12 5.5 7683.65 7683.65 0 0 0 184-106 463.087 463.087 0 0 0 1-43h-56a1786.024 1786.024 0 0 1 60-1.5 43.047 43.047 0 0 0 8-3.5c.167 16.003 0 32.003-.5 48-3.051 6.721-7.884 11.888-14.5 15.5-8.382 3.359-16.049 8.026-23 14a112.343 112.343 0 0 0-17 8 70.186 70.186 0 0 1-18 10 91.311 91.311 0 0 1-23 13 319.99 319.99 0 0 1-46 27l-4 4c-6.4 2.062-12.067 5.396-17 10l-10 4a78.988 78.988 0 0 1-14 9 92.109 92.109 0 0 0-10.5 2.5 66.364 66.364 0 0 1-9.5-2.5 35.157 35.157 0 0 0-10-5c-3.796-3.592-8.129-6.259-13-8a279.412 279.412 0 0 0-19-12c-3.959.349-6.626-1.317-8-5l-10-4a201.636 201.636 0 0 0-27-17 24.569 24.569 0 0 1-8-3c-11.4-8.753-23.733-15.753-37-21a147.725 147.725 0 0 0-17-12 82.842 82.842 0 0 1-19-11c-6.853-2.406-13.02-5.906-18.5-10.5-.5-18.33-.667-36.664-.5-55Z"/><path style="opacity:1" fill="#fdfdfd" d="M269.5 599.5c-.165 3.35.002 6.683.5 10 5.97 6.53 13.137 11.03 21.5 13.5a27.816 27.816 0 0 1 8 6 420.445 420.445 0 0 0 32 17c3.705 4.342 8.372 7.009 14 8a643.917 643.917 0 0 0 29 18c2.861.54 5.528 1.54 8 3l11 7c4 .667 8 .667 12 0 6.962-5.648 14.628-9.981 23-13a679.07 679.07 0 0 0 23-15l22-11a83.449 83.449 0 0 1 24-13c3.391-3.687 7.391-6.354 12-8a142.458 142.458 0 0 0 16-10c1.537-1.11 2.203-2.61 2-4.5.968-2.107 1.302-4.441 1-7 17.175.33 34.175-.003 51-1h4a463.087 463.087 0 0 1-1 43 7683.65 7683.65 0 0 1-184 106 97.288 97.288 0 0 0-12-5.5c-3.543-1.608-6.543-3.942-9-7-5.662-.917-10.329-3.583-14-8a78.488 78.488 0 0 1-23-13c-3.415-.406-6.082-2.072-8-5-8.372-3.019-16.038-7.352-23-13-5.093-1.382-9.426-4.049-13-8-6.4-2.062-12.067-5.396-17-10l-10-4-4-4a77.598 77.598 0 0 1-23-13 90.42 90.42 0 0 1-14-6l-4-4a46.99 46.99 0 0 1-10.5-5.5 924.222 924.222 0 0 1-.5-43h56Z"/><path style="opacity:1" fill="#bdbfbe" d="M527.5 599.5h52a650.602 650.602 0 0 1-51 1c.302 2.559-.032 4.893-1 7v-8Z"/><path style="opacity:1" fill="#283339" d="M269.5 599.5h12v6c3.978-.534 6.978.966 9 4.5a32.449 32.449 0 0 0 9 4l27 17a90.42 90.42 0 0 0 14 6 523.182 523.182 0 0 0 22 15c8.681 3.01 16.681 7.344 24 13 4.471 2.161 8.971 4.327 13.5 6.5a2929.62 2929.62 0 0 1 12.5-8.5 146.497 146.497 0 0 0 31-18c5.093-1.382 9.426-4.049 13-8l9-3a686.508 686.508 0 0 1 52-30.5c.929-1.189 1.262-2.522 1-4h9v8c.203 1.89-.463 3.39-2 4.5a142.458 142.458 0 0 1-16 10c-4.609 1.646-8.609 4.313-12 8a83.449 83.449 0 0 0-24 13l-22 11a679.07 679.07 0 0 1-23 15c-8.372 3.019-16.038 7.352-23 13-4 .667-8 .667-12 0l-11-7a24.569 24.569 0 0 0-8-3 643.917 643.917 0 0 1-29-18c-5.628-.991-10.295-3.658-14-8a420.445 420.445 0 0 1-32-17 27.816 27.816 0 0 0-8-6c-8.363-2.47-15.53-6.97-21.5-13.5a50.464 50.464 0 0 1-.5-10Z"/><path style="opacity:1" fill="#f7dbc3" d="M281.5 599.5h237c.262 1.478-.071 2.811-1 4a686.508 686.508 0 0 0-52 30.5l-9 3c-3.574 3.951-7.907 6.618-13 8a146.497 146.497 0 0 1-31 18 2929.62 2929.62 0 0 0-12.5 8.5 5215.086 5215.086 0 0 1-13.5-6.5c-7.319-5.656-15.319-9.99-24-13a523.182 523.182 0 0 1-22-15 90.42 90.42 0 0 1-14-6l-27-17a32.449 32.449 0 0 1-9-4c-2.022-3.534-5.022-5.034-9-4.5v-6Z"/><path style="opacity:1" fill="#f9dec4" d="M599.5 686.5c1.333.667 1.333.667 0 0ZM570.5 703.5c1.333.667 1.333.667 0 0ZM476.5 757.5c1.333.667 1.333.667 0 0Z"/></svg>