<?xml version="1.0" encoding="UTF-8"?><svg xmlns="http://www.w3.org/2000/svg" width="800" height="800" style="shape-rendering:geometricPrecision;text-rendering:geometricPrecision;image-rendering:optimizeQuality;fill-rule:evenodd;clip-rule:evenodd"><path style="opacity:1" fill="#49c2ec" d="M576.5-.5h9a2.429 2.429 0 0 0 .5 2c1.049-1.017 2.216-1.184 3.5-.5a20.495 20.495 0 0 0 2.5 3.5c1.356-.88 2.856-1.214 4.5-1v3c2.822 1.432 6.489 2.432 11 3v3c2.092.061 3.592 1.061 4.5 3 2.537-.677 4.537.323 6 3 2.361-.566 4.194.434 5.5 3l2-1c.35 2.067 2.017 3.067 5 3v3h6v3h5v3h6v3a27.247 27.247 0 0 0 9 3c-.219 1.175.114 2.175 1 3a6.846 6.846 0 0 1 4-1v3a8.435 8.435 0 0 1 4 .5c-1.154.914-.987 1.747.5 2.5 1.299-.466 2.799-.466 4.5 0v3h6v3h5v3a428.986 428.986 0 0 0 20 8.5l-2 1c2.522.61 4.522 1.943 6 4 1.634.493 3.301.66 5 .5v3c2.908-.238 5.242.762 7 3 .951-.826 1.951-.992 3-.5l-1 1a6.977 6.977 0 0 1 3.5 2.5l1-1c.483.948.649 1.948.5 3h-50a123.564 123.564 0 0 1-31-17.5c-6.4-2.062-12.067-5.396-17-10l-19-9a30.312 30.312 0 0 0-12-7c-2.365-3.714-5.698-5.714-10-6-7.082-6.364-15.416-9.031-25-8-2.223 2.223-4.889 3.556-8 4a2398.946 2398.946 0 0 0-60 36 588.724 588.724 0 0 0-63 36c-7.326.5-14.659.666-22 .5a491.404 491.404 0 0 1 26-15.5c.837-1.011 1.17-2.178 1-3.5 4.493-.216 7.993-2.216 10.5-6 1.011.837 2.178 1.17 3.5 1v-3a59.031 59.031 0 0 0 11-3v-3c1.808.009 3.475-.491 5-1.5l-1-1a12.935 12.935 0 0 1 5-.5v-3a9.864 9.864 0 0 0 6-1 35.213 35.213 0 0 1 8-4v-3h6v-3a59.031 59.031 0 0 1 11-3v-3c1.808.009 3.475-.491 5-1.5-1.388-.89-1.222-1.39.5-1.5 2.071 1.167 3.571.5 4.5-2 6.434-2.343 12.767-5.343 19-9v-3a59.031 59.031 0 0 1 11-3 4.934 4.934 0 0 1 .5-3l1 1c1.995-2.247 4.495-3.247 7.5-3v-3h5v-3h6v-3c1.808.009 3.475-.491 5-1.5l-1-1a12.936 12.936 0 0 1 5-.5v-3c3.552.188 6.219-1.145 8-4ZM391.5 99.5c-7.674.166-15.341 0-23-.5A5921.093 5921.093 0 0 0 237 23.5a138.219 138.219 0 0 1-14.5 1.5 583.354 583.354 0 0 0-33 19 175.013 175.013 0 0 0-28 16l-4 1-23 15a86.146 86.146 0 0 1-12 4.5h-50a4.932 4.932 0 0 1 .5-3l1 1c2.015-3.065 4.515-4.065 7.5-3v-3h5v-3c1.7.16 3.366-.007 5-.5 1.478-2.057 3.478-3.39 6-4l-2-1a18.436 18.436 0 0 1 6-.5v-3a87.51 87.51 0 0 0 14-5v-3h6v-3h5v-3c1.701-.466 3.201-.466 4.5 0 3.279-4.047 7.946-7.047 14-9a18.264 18.264 0 0 0 5-4l1 1c1.049-1.607 2.549-2.273 4.5-2v-3h5v-3h6v-3c4.612-1.195 9.279-2.862 14-5v-3c1.701-.466 3.201-.466 4.5 0 .908-1.939 2.408-2.939 4.5-3v-3h6v-3c1.788.285 3.455-.048 5-1a38.767 38.767 0 0 0 7-4.5 49.25 49.25 0 0 1 14 0c2.025 1.677 4.359 2.677 7 3-1.134 1.016-.801 1.683 1 2l5 1-1 1c2.622 3.073 5.955 4.573 10 4.5v3h6v3c3.191.262 5.858 1.596 8 4a9.864 9.864 0 0 0 6 1v3c3.58 1.22 7.247 2.386 11 3.5l-2 1c2.767.678 4.934 2.178 6.5 4.5l1-1c3.769 1.797 7.102 4.13 10 7a3.942 3.942 0 0 1 2-1c1.482 1.612 3.315 2.612 5.5 3v3h6v3h5v3h6v3a87.51 87.51 0 0 0 14 5v3c1.699-.16 3.366.007 5 .5l-1 1c1.525 1.009 3.192 1.509 5 1.5v3h6v3h5v3c2.985-1.065 5.485-.065 7.5 3l1-1c.483.948.649 1.948.5 3h5v3h6v3c2.133 1.386 5.133 2.386 9 3v3c2.908-.238 5.242.762 7 3l2-1c1.196.346 1.196.846 0 1.5 2.26.55 3.926 1.716 5 3.5Z"/><path style="opacity:1" fill="#273339" d="M674.5 80.5a45.473 45.473 0 0 1 6 5.5 457.332 457.332 0 0 1 22 11 29746.604 29746.604 0 0 0 46 28c2.71 1.747 5.71 2.747 9 3 2.04 2.185 3.374 4.685 4 7.5v221c.322 2.222-.345 4.056-2 5.5a212.91 212.91 0 0 0-23 11.5 4641.452 4641.452 0 0 1-113 65v-12l2-2a9979.447 9979.447 0 0 0 116-67.5 73.86 73.86 0 0 0 9-3.5c.167-70.334 0-140.667-.5-211 .564-4.29-1.269-6.457-5.5-6.5a203.265 203.265 0 0 0-37-21l-4-4a91.311 91.311 0 0 1-23-13 457.332 457.332 0 0 0-22-11l-4-4a483.026 483.026 0 0 1-51-29c-3.415-.406-6.082-2.072-8-5a90.401 90.401 0 0 0-14-6c-5.722-6.435-12.722-8.768-21-7-7.36 5.663-15.36 9.996-24 13-3.619 3.977-7.952 6.644-13 8a814591.05 814591.05 0 0 0-71 41.5c-1 .333-1.667 1-2 2a507.055 507.055 0 0 1-45-1h2c7.341.166 14.674 0 22-.5a588.724 588.724 0 0 1 63-36 2398.946 2398.946 0 0 1 60-36c3.111-.444 5.777-1.777 8-4 9.584-1.031 17.918 1.636 25 8 4.302.286 7.635 2.286 10 6a30.312 30.312 0 0 1 12 7l19 9c4.933 4.604 10.6 7.938 17 10a123.564 123.564 0 0 0 31 17.5Z"/><path style="opacity:1" fill="#27343b" d="M391.5 99.5a484.723 484.723 0 0 1-44 1c-.333-1-1-1.667-2-2a2221.79 2221.79 0 0 1-91-52.5A228.066 228.066 0 0 0 230 34.5 112.066 112.066 0 0 0 206.5 48l-10 4-3 3c-6.771 2.445-12.771 6.111-18 11l-10 4-4 4a520.666 520.666 0 0 0-59 34l-9 3c-3.796 3.592-8.13 6.259-13 8A361.546 361.546 0 0 1 48 137.5c-.667 72-.667 144 0 216a11304.735 11304.735 0 0 0 104.5 60h1c.328 11.512-.005 22.846-1 34 .166-6.675 0-13.342-.5-20l-1.5-1.5a6173.522 6173.522 0 0 1-92-52.5c-2.084-2.33-4.751-3.497-8-3.5a13.908 13.908 0 0 1-3-4l-9.5-5.5a134.787 134.787 0 0 1-1.5-26v-165a295.512 295.512 0 0 1 1.5-40A579.672 579.672 0 0 1 80.5 107c3.83-4.163 8.497-6.829 14-8a100.247 100.247 0 0 1 22-13 32.87 32.87 0 0 0 6-5.5 86.146 86.146 0 0 0 12-4.5l23-15 4-1a175.013 175.013 0 0 1 28-16 583.354 583.354 0 0 1 33-19c4.872-.246 9.705-.746 14.5-1.5A5921.093 5921.093 0 0 1 368.5 99c7.659.5 15.326.666 23 .5Z"/><path style="opacity:1" fill="#fdfefe" d="M345.5 98.5a2916.537 2916.537 0 0 1-108 1 84.94 84.94 0 0 0-13 .5 226.438 226.438 0 0 0-29 17c-3.415.406-6.082 2.072-8 5a90.42 90.42 0 0 1-14 6c-3.574 3.951-7.907 6.618-13 8-6.962 5.648-14.628 9.981-23 13a146.497 146.497 0 0 1-31 18 6.978 6.978 0 0 0-2.5 3.5 5697.651 5697.651 0 0 0 0 151 76.322 76.322 0 0 0 18.5 10.5 194.721 194.721 0 0 0 29.5 17.5c.5 21.331.667 42.664.5 64a11304.735 11304.735 0 0 1-104.5-60c-.667-72-.667-144 0-216A361.546 361.546 0 0 0 80.5 119c4.87-1.741 9.204-4.408 13-8l9-3a520.666 520.666 0 0 1 59-34l4-4 10-4c5.229-4.889 11.229-8.555 18-11l3-3 10-4A112.066 112.066 0 0 1 230 34.5 228.066 228.066 0 0 1 254.5 46a2221.79 2221.79 0 0 0 91 52.5ZM625.5 424.5c-1.988-20.306-2.655-40.973-2-62 1.526-1.63 3.526-2.463 6-2.5 4.952-4.639 10.619-7.973 17-10 9.313-5.969 18.646-11.969 28-18 7.819-2.16 14.319-6.327 19.5-12.5.99-49.416.657-98.75-1-148a36.078 36.078 0 0 0-3.5-4.5 198.572 198.572 0 0 1-36-21 114.302 114.302 0 0 1-13-6 182.852 182.852 0 0 0-35-20c-3.671-4.417-8.338-7.083-14-8a171.322 171.322 0 0 0-19-12c-8.302-.757-15.635 1.576-22 7a68.695 68.695 0 0 0-14 7c-4.302.286-7.635 2.286-10 6a43.593 43.593 0 0 0-13 8 86.171 86.171 0 0 1-12 4.5c.166-9.339 0-18.673-.5-28-.792-2.144-2.292-3.477-4.5-4l-44-2a814591.05 814591.05 0 0 1 71-41.5c5.048-1.356 9.381-4.023 13-8 8.64-3.004 16.64-7.337 24-13 8.278-1.768 15.278.565 21 7a90.401 90.401 0 0 1 14 6c1.918 2.928 4.585 4.594 8 5a483.026 483.026 0 0 0 51 29l4 4a457.332 457.332 0 0 1 22 11 91.311 91.311 0 0 0 23 13l4 4a203.265 203.265 0 0 1 37 21c4.231.043 6.064 2.21 5.5 6.5.5 70.333.667 140.666.5 211a73.86 73.86 0 0 1-9 3.5 9979.447 9979.447 0 0 1-116 67.5Z"/><path style="opacity:1" fill="#4bbeeb" d="M72.5 80.5h50a32.87 32.87 0 0 1-6 5.5 100.247 100.247 0 0 0-22 13c-5.503 1.171-10.17 3.837-14 8A579.672 579.672 0 0 0 38 129.5a295.512 295.512 0 0 0-1.5 40h-30a13099.6 13099.6 0 0 0 0-54.5 169.104 169.104 0 0 0 15-5.5v-3a58.967 58.967 0 0 0 11-3v-3a417.79 417.79 0 0 0 15-7 32.686 32.686 0 0 0 8.5-6l1 1c1.049-1.607 2.549-2.273 4.5-2v-3a59.029 59.029 0 0 1 11-3ZM674.5 80.5h56v3h5v3c1.951-.273 3.451.393 4.5 2l1-1c6 4.386 12.5 7.886 19.5 10.5l-1 1c1.525 1.009 3.192 1.509 5 1.5v3h6v3h5v3c2.041.354 3.874.354 5.5 0 .483.948.649 1.948.5 3 2.836 1.276 5.836 1.942 9 2a402.605 402.605 0 0 1 2 55h-30c.328-11.512-.005-22.846-1-34-.626-2.815-1.96-5.315-4-7.5-3.29-.253-6.29-1.253-9-3a29746.604 29746.604 0 0 1-46-28 457.332 457.332 0 0 0-22-11 45.473 45.473 0 0 0-6-5.5Z"/><path style="opacity:1" fill="#29363d" d="M237.5 99.5v1a12.93 12.93 0 0 0-5 .5 548.441 548.441 0 0 1-20 19.5 4242.841 4242.841 0 0 1-63 35.5c-5.201 4.797-11.201 8.13-18 10-5.677 4.879-11.677 9.045-18 12.5a2209.105 2209.105 0 0 0-1 94v42c5.301 1.324 9.968 3.824 14 7.5l10 4 4 4a115.356 115.356 0 0 0 12 5.5v-106a576.628 576.628 0 0 1 1-48v232h-1c.167-21.336 0-42.669-.5-64a194.721 194.721 0 0 1-29.5-17.5 76.322 76.322 0 0 1-18.5-10.5 5697.651 5697.651 0 0 1 0-151 6.978 6.978 0 0 1 2.5-3.5 146.497 146.497 0 0 0 31-18c8.372-3.019 16.038-7.352 23-13 5.093-1.382 9.426-4.049 13-8a90.42 90.42 0 0 0 14-6c1.918-2.928 4.585-4.594 8-5a226.438 226.438 0 0 1 29-17 84.94 84.94 0 0 1 13-.5Z"/><path style="opacity:1" fill="#908d90" d="M345.5 98.5c1 .333 1.667 1 2 2h-110v-1c36.171.332 72.171-.002 108-1Z"/><path style="opacity:.995" fill="#231f24" d="M391.5 99.5h14a507.055 507.055 0 0 0 45 1h46c2.208.523 3.708 1.856 4.5 4 .5 9.327.666 18.661.5 28v134c-.333 5-3 7.667-8 8-3.142-.299-5.309-1.966-6.5-5-.5-51.332-.667-102.666-.5-154a14762.313 14762.313 0 0 0-243-1v71c-.754 2.591-2.421 4.424-5 5.5-23.331.5-46.664.667-70 .5v363a900.97 900.97 0 0 0 60 1v5a840.27 840.27 0 0 0-41 .5l-2.5 2.5c-.269 2.627-.436 4.96-.5 7-9.006.166-18.006 0-27-.5-2.167-.833-3.667-2.333-4.5-4.5a6958.7 6958.7 0 0 1-.5-118c.995-11.154 1.328-22.488 1-34v-232a2.428 2.428 0 0 1 .5-2 4867.38 4867.38 0 0 0 58.5-59 548.441 548.441 0 0 0 20-19.5 12.93 12.93 0 0 1 5-.5h110c14.843.329 29.51-.004 44-1Z"/><path style="opacity:1" fill="#918e91" d="m452.5 98.5 44 2h-46c.333-1 1-1.667 2-2Z"/><path style="opacity:1" fill="#273339" d="M623.5 362.5h-1v-14c1.21-.432 2.21-1.099 3-2a726.352 726.352 0 0 0 32-16.5 679.07 679.07 0 0 1 23-15 12.93 12.93 0 0 1 5-.5c.331-28.505-.002-56.838-1-85 0-.667-.333-1-1-1a1405.288 1405.288 0 0 1-1.5-52 163.713 163.713 0 0 0-14.5-8 6418.024 6418.024 0 0 1-100-58 3009.681 3009.681 0 0 0-65 36h-1v-14a86.171 86.171 0 0 0 12-4.5 43.593 43.593 0 0 1 13-8c2.365-3.714 5.698-5.714 10-6a68.695 68.695 0 0 1 14-7c6.365-5.424 13.698-7.757 22-7a171.322 171.322 0 0 1 19 12c5.662.917 10.329 3.583 14 8a182.852 182.852 0 0 1 35 20 114.302 114.302 0 0 0 13 6 198.572 198.572 0 0 0 36 21 36.078 36.078 0 0 1 3.5 4.5c1.657 49.25 1.99 98.584 1 148-5.181 6.173-11.681 10.34-19.5 12.5a12318.477 12318.477 0 0 1-28 18c-6.381 2.027-12.048 5.361-17 10-2.474.037-4.474.87-6 2.5Z"/><path style="opacity:1" fill="#4dbbea" d="M667.5 168.5a6808.314 6808.314 0 0 1-165 1v-23a3009.681 3009.681 0 0 1 65-36 6418.024 6418.024 0 0 0 100 58Z"/><path style="opacity:1" fill="#325578" d="M486.5 115.5h-242c.331 23.506-.002 46.839-1 70v-71c81.168-.333 162.168.001 243 1Z"/><path style="opacity:1" fill="#47aafd" d="M486.5 115.5c-.167 51.334 0 102.668.5 154 1.191 3.034 3.358 4.701 6.5 5v15c-5.681-.077-10.515 1.923-14.5 6-12.13-8.767-23.463-7.767-34 3-2.576 3.975-4.076 8.308-4.5 13h-29a729.55 729.55 0 0 0-1-54c-.754-2.591-2.421-4.424-5-5.5-12-.667-24-.667-36 0-1.964 1.451-3.297 3.284-4 5.5a12995.242 12995.242 0 0 0-1 228h-15c-.299-3.142-1.966-5.309-5-6.5a5473.513 5473.513 0 0 0-148 0c-7.551 4.441-7.884 9.274-1 14.5 45.497.999 91.164 1.332 137 1v24l-3-1.5a4487.007 4487.007 0 0 0-134 0c-6.644 4.964-6.644 9.797 0 14.5 10.821.995 21.821 1.328 33 1v22h-60v-363c23.336.167 46.669 0 70-.5 2.579-1.076 4.246-2.909 5-5.5a1225.063 1225.063 0 0 0 1-70h242Z"/><path style="opacity:1" fill="#273656" d="M227.5 127.5c.06-.543.393-.876 1-1 1.327 16.495 1.327 32.828 0 49a576.628 576.628 0 0 0-1-48Z"/><path style="opacity:1" fill="#337eef" d="M227.5 127.5a576.628 576.628 0 0 1 1 48 576.628 576.628 0 0 1-48-1c16-15.333 31.667-31 47-47Z"/><path style="opacity:1" fill="#242229" d="M271.5 137.5c62.001-.167 124.001 0 186 .5 6.116 2.321 7.616 6.488 4.5 12.5a6.978 6.978 0 0 1-3.5 2.5c-62.333.667-124.667.667-187 0-6.624-5.115-6.624-10.282 0-15.5Z"/><path style="opacity:1" fill="#50b8e9" d="M6.5 169.5h30v60h-30v-60Z"/><path style="opacity:1" fill="#4fb8e8" d="M212.5 120.5a4867.38 4867.38 0 0 1-58.5 59 2.428 2.428 0 0 0-.5 2 576.628 576.628 0 0 0-1 48h-39v-51c6.323-3.455 12.323-7.621 18-12.5 6.799-1.87 12.799-5.203 18-10a4242.841 4242.841 0 0 0 63-35.5Z"/><path style="opacity:1" fill="#4fb8e9" d="M501.5 146.5h1v23c55.169.332 110.169-.001 165-1 4.917 2.394 9.75 5.06 14.5 8 .181 17.407.681 34.74 1.5 52a1937.243 1937.243 0 0 1-88 1 124.89 124.89 0 0 0-26-14.5l-4-4a117.669 117.669 0 0 1-17-8c-3.671-4.417-8.338-7.083-14-8a261.003 261.003 0 0 0-33-19.5v-29Z"/><path style="opacity:1" fill="#50b8e9" d="M762.5 169.5h30v60h-30v-60Z"/><path style="opacity:1" fill="#273656" d="M180.5 174.5a576.628 576.628 0 0 0 48 1c-16.172 1.327-32.505 1.327-49 0 .124-.607.457-.94 1-1Z"/><path style="opacity:1" fill="#242229" d="M271.5 175.5c62.334-.167 124.668 0 187 .5 5.035 3.013 6.202 7.18 3.5 12.5a6.978 6.978 0 0 1-3.5 2.5c-62.333.667-124.667.667-187 0-6.599-5.212-6.599-10.379 0-15.5Z"/><path style="opacity:1" fill="#273339" d="M501.5 175.5a261.003 261.003 0 0 1 33 19.5c5.662.917 10.329 3.583 14 8a117.669 117.669 0 0 0 17 8l4 4a124.89 124.89 0 0 1 26 14.5v22h-12a64.873 64.873 0 0 0-1-16 10.756 10.756 0 0 1-3-2.5 478.277 478.277 0 0 0-22-11l-4-4a299.672 299.672 0 0 1-27-14c-6.842-5.782-14.509-9.949-23-12.5-.333-1-1-1.667-2-2v-14Z"/><path style="opacity:1" fill="#c6c5c6" d="M501.5 189.5c1 .333 1.667 1 2 2a931.31 931.31 0 0 0-1 61h-1v-63Z"/><path style="opacity:1" fill="#fdfdfd" d="M503.5 191.5c8.491 2.551 16.158 6.718 23 12.5a299.672 299.672 0 0 0 27 14l4 4a478.277 478.277 0 0 1 22 11 10.756 10.756 0 0 0 3 2.5 64.873 64.873 0 0 1 1 16c-3 1-5 3-6 6a729.55 729.55 0 0 0-1 54h-29c-1.341-12.014-8.007-19.347-20-22 .166-7.008 0-14.008-.5-21-2.167-1.5-4-3.333-5.5-5.5-1.284-.684-2.451-.517-3.5.5a118.081 118.081 0 0 0-15.5-11 931.31 931.31 0 0 1 1-61Z"/><path style="opacity:1" fill="#242026" d="M195.5 213.5c87.667-.167 175.334 0 263 .5 5.189 2.913 6.356 7.08 3.5 12.5a9.454 9.454 0 0 1-2.5 1.5c-88.333.667-176.667.667-265 0-5.51-5.27-5.177-10.103 1-14.5Z"/><path style="opacity:1" fill="#52b3e7" d="M113.5 178.5v51h39v40h-39c.237 1.291-.096 2.291-1 3-.332-31.504.002-62.838 1-94Z"/><path style="opacity:1" fill="#52b4e8" d="M683.5 228.5c.667 0 1 .333 1 1v40h-61c.315-3.871-.018-7.538-1-11-.244-2.763-1.577-4.929-4-6.5-7.659-.5-15.326-.666-23-.5v-22c29.505.331 58.838-.002 88-1Z"/><path style="opacity:1" fill="#231e23" d="M195.5 251.5c50.001-.167 100.001 0 150 .5 6.229 4.171 6.562 8.837 1 14-50.667.667-101.333.667-152 0-5.497-5.317-5.164-10.15 1-14.5Z"/><path style="opacity:.998" fill="#231e23" d="M410.5 257.5v55c10.181.327 20.181-.006 30-1 .424-4.692 1.924-9.025 4.5-13 10.537-10.767 21.87-11.767 34-3 3.985-4.077 8.819-6.077 14.5-6 5.903.134 11.07 2.134 15.5 6a22.162 22.162 0 0 1 6.5-4c3.758-1.683 7.758-2.349 12-2 11.993 2.653 18.659 9.986 20 22 9.819.994 19.819 1.327 30 1v-55c1-3 3-5 6-6h12c7.674-.166 15.341 0 23 .5 2.423 1.571 3.756 3.737 4 6.5v104c-.331 21.507.003 42.84 1 64v12c-1.333 7-1.333 14 0 21v57c3.35-.165 6.683.002 10 .5 2.167.833 3.667 2.333 4.5 4.5a484.008 484.008 0 0 1 0 44c-.833 2.167-2.333 3.667-4.5 4.5-7.659.5-15.326.666-23 .5-1.419-.951-3.085-1.284-5-1v-15h17v-22h-17c-.537-5.635.13-10.968 2-16v-250h-15v216h-15v-3c-5.14-.988-10.474-1.321-16-1v4h-15a69.282 69.282 0 0 0 .5-19c-1.866-6.847-6.032-8.68-12.5-5.5a20.499 20.499 0 0 1-2.5 3.5c-.76 7.05-.593 14.05.5 21-5.526.321-10.86-.012-16-1 .166-7.008 0-14.008-.5-21-5.167-5.592-9.833-5.259-14 1-.5 6.658-.666 13.325-.5 20-5 1.333-10 1.333-15 0 .166-6.675 0-13.342-.5-20-4.252-6.153-8.919-6.486-14-1-.796 7.413-.63 14.746.5 22-.283.789-.783 1.456-1.5 2-.174 5.184-.674 10.184-1.5 15-1.934-.61-3.601-1.61-5-3a55.146 55.146 0 0 1-1.5-9 78.993 78.993 0 0 1-6.5-3v-6a529.493 529.493 0 0 0-46 1v6h-15v-219c-5.195-.321-10.195.013-15 1v218h-15v-228c.703-2.216 2.036-4.049 4-5.5 12-.667 24-.667 36 0 2.579 1.076 4.246 2.909 5 5.5Z"/><path style="opacity:1" fill="#273339" d="M501.5 252.5h1a118.081 118.081 0 0 1 15.5 11c1.049-1.017 2.216-1.184 3.5-.5 1.5 2.167 3.333 4 5.5 5.5.5 6.992.666 13.992.5 21-4.242-.349-8.242.317-12 2 1.285-5.613 1.285-11.28 0-17-4.207-3.611-8.874-6.277-14-8v-14Z"/><path style="opacity:1" fill="#3e88c7" d="M410.5 257.5a729.55 729.55 0 0 1 1 54h29c-9.819.994-19.819 1.327-30 1v-55Z"/><path style="opacity:1" fill="#c7c6c7" d="M577.5 257.5v55c-10.181.327-20.181-.006-30-1h29a729.55 729.55 0 0 1 1-54Z"/><path style="opacity:1" fill="#3b6683" d="M622.5 258.5c.982 3.462 1.315 7.129 1 11-.657 26.022.009 51.688 2 77-.79.901-1.79 1.568-3 2v-90Z"/><path style="opacity:1" fill="#fbd353" d="M380.5 267.5h14v218h-14v-218Z"/><path style="opacity:1" fill="#c2a347" d="M380.5 267.5c4.805-.987 9.805-1.321 15-1v219h-1v-218h-14Z"/><path style="opacity:1" fill="#fbd253" d="M607.5 516.5c-1.814-9.951-2.647-20.285-2.5-31l-2.5-2.5a50.464 50.464 0 0 0-10-.5v-216h15v250Z"/><path style="opacity:1" fill="#54b0e6" d="M6.5 229.5h30v105h-30v-105Z"/><path style="opacity:1" fill="#55afe5" d="M152.5 269.5v66a115.356 115.356 0 0 1-12-5.5l-4-4-10-4c-4.032-3.676-8.699-6.176-14-7.5v-42c.904-.709 1.237-1.709 1-3h39Z"/><path style="opacity:1" fill="#53afe4" d="M501.5 266.5c5.126 1.723 9.793 4.389 14 8 1.285 5.72 1.285 11.387 0 17a22.162 22.162 0 0 0-6.5 4c-4.43-3.866-9.597-5.866-15.5-6v-15c5-.333 7.667-3 8-8Z"/><path style="opacity:1" fill="#54aee4" d="M684.5 229.5a1807.264 1807.264 0 0 1 1 85 12.93 12.93 0 0 0-5 .5 679.07 679.07 0 0 0-23 15 726.352 726.352 0 0 1-32 16.5c-1.991-25.312-2.657-50.978-2-77h61v-40Z"/><path style="opacity:1" fill="#53afe4" d="M761.5 135.5c.995 11.154 1.328 22.488 1 34v60h30v105h-30c.325 7.519-.008 14.852-1 22v-221Z"/><path style="opacity:1" fill="#231e23" d="M195.5 289.5c50.001-.167 100.001 0 150 .5 6.667 4.667 6.667 9.333 0 14-50 .667-100 .667-150 0-6.601-4.829-6.601-9.662 0-14.5Z"/><path style="opacity:1" fill="#f5cd52" d="M461.5 304.5c4.548-.301 7.715 1.699 9.5 6a90.455 90.455 0 0 1 0 19c-2.072 4.643-5.572 6.143-10.5 4.5-1.833-.5-3-1.667-3.5-3.5a121.19 121.19 0 0 1 0-22c1.397-1.57 2.897-2.904 4.5-4Z"/><path style="opacity:1" fill="#f8cf53" d="M491.5 304.5c4.213-.28 7.38 1.387 9.5 5a100.2 100.2 0 0 1 0 20c-2.072 4.643-5.572 6.143-10.5 4.5a11.532 11.532 0 0 1-3.5-4.5 100.2 100.2 0 0 1 0-20c1.025-2.187 2.525-3.854 4.5-5Z"/><path style="opacity:1" fill="#f5cd52" d="M521.5 304.5c4.388-.557 7.555 1.11 9.5 5 .667 7 .667 14 0 21-2.513 3.712-6.013 4.878-10.5 3.5a11.532 11.532 0 0 1-3.5-4.5 100.2 100.2 0 0 1 0-20 31.447 31.447 0 0 0 4.5-5Z"/><path style="opacity:1" fill="#231e23" d="M195.5 327.5c50.001-.167 100.001 0 150 .5 6.667 4.667 6.667 9.333 0 14-50 .667-100 .667-150 0-6.601-4.829-6.601-9.662 0-14.5Z"/><path style="opacity:1" fill="#3d82be" d="M411.5 327.5v60h14c-4.805.987-9.805 1.321-15 1a931.31 931.31 0 0 1 1-61Z"/><path style="opacity:1" fill="#47aafd" d="M411.5 327.5h30c1.42 16.399 10.42 23.899 27 22.5a31.65 31.65 0 0 0 10.5-5.5c4.281 4.199 9.448 6.199 15.5 6v20c-10.291-6.618-20.624-6.618-31 0-15.254-9.168-27.421-6.168-36.5 9a18.991 18.991 0 0 0-1.5 8h-14v-60Z"/><path style="opacity:1" fill="#f9fafa" d="M577.5 340.5a2337.706 2337.706 0 0 1-49.5 28 162.597 162.597 0 0 1-.5-18c12.205-2.712 18.538-10.378 19-23h31v13Z"/><path style="opacity:1" fill="#58a9e3" d="M6.5 334.5h30a134.787 134.787 0 0 0 1.5 26l9.5 5.5a13.908 13.908 0 0 0 3 4c3.249.003 5.916 1.17 8 3.5-11.154.995-22.488 1.328-34 1-1.765-.961-3.765-1.295-6-1v-3c-4.013-1.674-8.013-3.341-12-5v-31ZM792.5 334.5v31c-3.013-.128-5.513.872-7.5 3-2.411-1.653-3.578-.987-3.5 2-1.701.466-3.201.466-4.5 0-1.611 2.223-3.778 3.556-6.5 4-11.512.328-22.846-.005-34-1a212.91 212.91 0 0 1 23-11.5c1.655-1.444 2.322-3.278 2-5.5.992-7.148 1.325-14.481 1-22h30Z"/><path style="opacity:1" fill="#273339" d="M577.5 340.5v14c-5.316 1.622-9.982 4.455-14 8.5a157.436 157.436 0 0 0-27 15c-3.401-.266-5.067 1.234-5 4.5-2.168-7.502-6.834-12.835-14-16 .989-5.475 1.322-11.142 1-17 2.891.903 5.891 1.236 9 1-.166 6.009.001 12.009.5 18a2337.706 2337.706 0 0 0 49.5-28Z"/><path style="opacity:1" fill="#58a7e0" d="M518.5 349.5c.322 5.858-.011 11.525-1 17-8.386-2.311-16.052-.978-23 4v-20c5.356-.73 10.189-2.73 14.5-6a26.06 26.06 0 0 0 9.5 5Z"/><path style="opacity:1" fill="#8f8d90" d="M622.5 362.5h1c-.655 21.027.012 41.694 2 62l-2 2a1024.542 1024.542 0 0 1-1-64Z"/><path style="opacity:1" fill="#231e23" d="M195.5 365.5c50.001-.167 100.001 0 150 .5 6.667 4.667 6.667 9.333 0 14-50 .667-100 .667-150 0-6.601-4.829-6.601-9.662 0-14.5Z"/><path style="opacity:1" fill="#5ba4e0" d="M58.5 373.5a6173.522 6173.522 0 0 0 92 52.5l1.5 1.5c.5 6.658.666 13.325.5 20-2.092-.061-3.592-1.061-4.5-3l-1 1c-2.509-1.937-5.343-2.937-8.5-3v-3h-6v-3h-3v-3h-6v-3h-5v-3c-2.921.354-5.254-.646-7-3-1.714 1.109-2.381.442-2-2a58.97 58.97 0 0 1-11-3v-3a27.267 27.267 0 0 0-9-3v-3c-2.908.238-5.242-.762-7-3a3.647 3.647 0 0 0-1.5 1c-1.667-1-3-2.333-4-4l-1 1a4.932 4.932 0 0 1-.5-3h-6v-3h-5v-3a544.412 544.412 0 0 1-29-14v-3a12.93 12.93 0 0 1-5-.5 1003.342 1003.342 0 0 0-6-4.5c11.512.328 22.846-.005 34-1Z"/><path style="opacity:1" fill="#58a5df" d="M577.5 354.5v20c-4.09 1.79-7.756 4.29-11 7.5a122.969 122.969 0 0 1-14 5.5c-7.281.571-14.281-.095-21-2v-3c-.067-3.266 1.599-4.766 5-4.5a157.436 157.436 0 0 1 27-15c4.018-4.045 8.684-6.878 14-8.5Z"/><path style="opacity:1" fill="#5ba3df" d="M736.5 373.5c11.154.995 22.488 1.328 34 1-.946 1.431-2.112 2.764-3.5 4l-1-1c-1.049 1.607-2.549 2.273-4.5 2v3c-3.937.204-7.604 1.204-11 3 .381 2.442-.286 3.109-2 2-.886.825-1.219 1.825-1 3h-6v3a12.93 12.93 0 0 0-5 .5c-1.079 2.043-2.746 3.376-5 4l1 1a12.93 12.93 0 0 1-5 .5v3a9.86 9.86 0 0 0-6 1c-3.423 1.192-6.256 3.192-8.5 6l-1-1c-1.049 1.607-2.549 2.273-4.5 2v3h-6v3h-5v3c-2.185.388-4.018 1.388-5.5 3-2.278-1.12-3.778-.287-4.5 2.5a101.955 101.955 0 0 0-13 5.5v3h-6v3h-6v3c-1.788-.285-3.455.048-5 1 1.129 2.029.629 2.363-1.5 1-1.712 3.452-4.212 4.452-7.5 3v3c-3.096-.593-5.429.407-7 3a47.25 47.25 0 0 1-7 3v3h-6v3h-4c-1.333-7-1.333-14 0-21a4641.452 4641.452 0 0 0 113-65Z"/><path style="opacity:1" fill="#263137" d="M577.5 374.5v14h-25v-1a122.969 122.969 0 0 0 14-5.5c3.244-3.21 6.91-5.71 11-7.5Z"/><path style="opacity:1" fill="#f5cd52" d="M475.5 380.5c4.78-.859 8.28.808 10.5 5a100.2 100.2 0 0 1 0 20c-4.252 6.153-8.919 6.486-14 1a121.19 121.19 0 0 1 0-22 19.552 19.552 0 0 0 3.5-4ZM506.5 380.5c3.926-.453 7.092.88 9.5 4a121.19 121.19 0 0 1 0 22c-5.167 5.592-9.833 5.259-14-1a100.2 100.2 0 0 1 0-20c1.025-2.187 2.525-3.854 4.5-5Z"/><path style="opacity:1" fill="#efc851" d="M445.5 380.5a18.453 18.453 0 0 1 6 .5l4.5 4.5a100.2 100.2 0 0 1 0 20c-3.013 5.035-7.18 6.202-12.5 3.5a29.517 29.517 0 0 1-2.5-4.5c-.667-6-.667-12 0-18a40.775 40.775 0 0 1 4.5-6Z"/><path style="opacity:1" fill="#3f5e7f" d="M531.5 385.5c6.719 1.905 13.719 2.571 21 2v1h-21v-3Z"/><path style="opacity:1" fill="#231e23" d="M194.5 403.5c50.668-.167 101.334 0 152 .5 5.562 5.163 5.229 9.829-1 14-50 .667-100 .667-150 0-6.295-4.337-6.628-9.171-1-14.5Z"/><path style="opacity:1" fill="#47a9fb" d="M494.5 420.5v25c.065.438-.101.772-.5 1-9.189-5.963-18.689-6.463-28.5-1.5-4.919 3.676-7.919 8.51-9 14.5-.934 1.068-1.268 2.401-1 4h-45v-60h15c2.647 16.467 12.314 23.633 29 21.5a28.53 28.53 0 0 0 9-4.5c10.338 6.618 20.671 6.618 31 0Z"/><path style="opacity:1" fill="#283339" d="M550.5 403.5c-2.698 1.178-5.031 3.011-7 5.5a51.303 51.303 0 0 1-14 5.5c1.417-3.498 2.083-7.165 2-11h19Z"/><path style="opacity:1" fill="#fbfbfb" d="M550.5 403.5h27v48a169.27 169.27 0 0 0-15 9c-4.22-14.965-14.22-21.132-30-18.5a47.478 47.478 0 0 0-8 4.5c-9.853-6.229-19.853-6.563-30-1v-9a36.894 36.894 0 0 1 13-6.5 25.14 25.14 0 0 0 4-4.5c7.922-.623 13.922-4.29 18-11a51.303 51.303 0 0 0 14-5.5c1.969-2.489 4.302-4.322 7-5.5Z"/><path style="opacity:1" fill="#29343b" d="M494.5 420.5c4.751 4.457 10.418 6.124 17 5a25.14 25.14 0 0 1-4 4.5 36.894 36.894 0 0 0-13 6.5v-16Z"/><path style="opacity:1" fill="#242026" d="M194.5 441.5c50.668-.167 101.334 0 152 .5 3.147 3.309 3.813 7.142 2 11.5a12.403 12.403 0 0 1-4 2.5c-49.667.667-99.333.667-149 0-6.308-4.385-6.641-9.218-1-14.5Z"/><path style="opacity:1" fill="#273339" d="M577.5 451.5v12h-15v-3a169.27 169.27 0 0 1 15-9Z"/><path style="opacity:1" fill="#f7cf53" d="M486.5 481.5a53.805 53.805 0 0 1-14 1c-1.13-7.254-1.296-14.587-.5-22 5.081-5.486 9.748-5.153 14 1 .5 6.658.666 13.325.5 20Z"/><path style="opacity:1" fill="#f7ce52" d="M516.5 481.5c-5 1.333-10 1.333-15 0-.166-6.675 0-13.342.5-20 4.167-6.259 8.833-6.592 14-1 .5 6.992.666 13.992.5 21Z"/><path style="opacity:1" fill="#f0c951" d="M546.5 482.5h-14a79.644 79.644 0 0 1-.5-21 20.499 20.499 0 0 0 2.5-3.5c6.468-3.18 10.634-1.347 12.5 5.5a69.282 69.282 0 0 1-.5 19Z"/><path style="opacity:1" fill="#2d445d" d="M456.5 459.5v5a529.493 529.493 0 0 1-46-1h45c-.268-1.599.066-2.932 1-4Z"/><path style="opacity:1" fill="#242026" d="M349.5 485.5a112.97 112.97 0 0 0-15 .5c-1.367 2.301-2.034 4.801-2 7.5h-137c-6.884-5.226-6.551-10.059 1-14.5 49.333-.667 98.667-.667 148 0 3.034 1.191 4.701 3.358 5 6.5Z"/><path style="opacity:1" fill="#5f9bdc" d="M577.5 479.5v3h-15v-3h15Z"/><path style="opacity:1" fill="#27343b" d="M365.5 257.5v228h45c15.509.33 30.842-.004 46-1a78.993 78.993 0 0 0 6.5 3 55.146 55.146 0 0 0 1.5 9c-.991 6.479-1.324 13.146-1 20h7a77.772 77.772 0 0 0-1-17c.826-4.816 1.326-9.816 1.5-15 .717-.544 1.217-1.211 1.5-2 4.763.274 9.43-.059 14-1 5 1.333 10 1.333 15 0 5 1.333 10 1.333 15 0 5.14.988 10.474 1.321 16 1h29v-4c5.526-.321 10.86.012 16 1h-15v3h30c3.35-.165 6.683.002 10 .5l2.5 2.5c-.147 10.715.686 21.049 2.5 31-1.87 5.032-2.537 10.365-2 16v37c1.915-.284 3.581.049 5 1h-5v111c.167 10.672 0 21.339-.5 32l-1.5 1.5a536.183 536.183 0 0 1-56 1.5 772.829 772.829 0 0 0-68-.5 209.75 209.75 0 0 0-30 18c-6.4 2.062-12.067 5.396-17 10-6.761 1.869-12.761 5.202-18 10-5.111 2.701-10.611 4.534-16.5 5.5a66.364 66.364 0 0 1-9.5-2.5 720.765 720.765 0 0 0-49-27.5c.086-.996-.248-1.829-1-2.5-8.36-3.016-16.027-7.349-23-13a466.277 466.277 0 0 1-50-29c-5.064-1.012-9.397-3.345-13-7a110.571 110.571 0 0 1-13-7.5c-3.889-2.904-8.222-5.071-13-6.5a55.63 55.63 0 0 0-18-10 18.839 18.839 0 0 0-6.5-5.5 799.793 799.793 0 0 1-.5-40h-15c-.283-.789-.783-1.456-1.5-2a647.854 647.854 0 0 1-.5-36c.064-2.04.231-4.373.5-7l2.5-2.5a840.27 840.27 0 0 1 41-.5v-5a900.97 900.97 0 0 1-60-1h60v-22c-11.179.328-22.179-.005-33-1h33a60.931 60.931 0 0 1 .5-11l1.5-1.5a484.008 484.008 0 0 1 44 0l1.5 1.5c.499 3.652.665 7.318.5 11h53a702.728 702.728 0 0 1-53 1v22c17.841-.33 35.508.003 53 1h-53v5c13.337-.167 26.671 0 40 .5 1.814 2.481 2.48 5.315 2 8.5h11c-3.462.982-7.129 1.315-11 1 .167 12.005 0 24.005-.5 36l-1.5 1.5-27 1a1851.988 1851.988 0 0 0 42.5 24.5c1.044-1.123 1.71-2.456 2-4a1600.7 1600.7 0 0 0 58.5-58c1-.333 1.667-1 2-2a159.435 159.435 0 0 0 15-15c1.667-1 3-2.333 4-4 .99-5.81 1.323-11.81 1-18h-79l-3-2v-36c-45.836.332-91.503-.001-137-1h137c-.034-2.699.633-5.199 2-7.5a112.97 112.97 0 0 1 15-.5h15c-.333-76.168.001-152.168 1-228Z"/><path style="opacity:1" fill="#47abfd" d="M410.5 479.5h45c-.268 1.599.066 2.932 1 4v1a529.493 529.493 0 0 1-46 1v-6Z"/><path style="opacity:1" fill="#366591" d="M410.5 479.5a529.493 529.493 0 0 1 46-1v5c-.934-1.068-1.268-2.401-1-4h-45Z"/><path style="opacity:1" fill="#8ba5ba" d="M597.5 491.5h-119v216a11770.92 11770.92 0 0 1-1-217c40.17-.332 80.17.001 120 1Z"/><path style="opacity:1" fill="#c0e2fd" d="M597.5 491.5v216h-119v-216h119Z"/><path style="opacity:1" fill="#bfe1fc" d="M377.5 676.5c25.828.998 51.828 1.331 78 1v30h-114c.321-5.526-.012-10.86-1-16-.167-19.003 0-38.003.5-57l80-80 .5-14c-.031-5.085-.698-9.918-2-14.5-26.331-.5-52.665-.667-79-.5v-32h116c.167 24.669 0 49.336-.5 74l-81 81a156.422 156.422 0 0 0 0 25c.377 1.442 1.21 2.442 2.5 3Z"/><path style="opacity:1" fill="#449ae3" d="M464.5 496.5c1.399 1.39 3.066 2.39 5 3a77.772 77.772 0 0 1 1 17h-7c-.324-6.854.009-13.521 1-20Z"/><path style="opacity:1" fill="#242127" d="M332.5 518.5v12a5.727 5.727 0 0 1-3 1h-53a60.931 60.931 0 0 0-.5-11l-1.5-1.5a484.008 484.008 0 0 0-44 0l-1.5 1.5a60.931 60.931 0 0 0-.5 11h-33c-6.644-4.703-6.644-9.536 0-14.5 44.667-.667 89.333-.667 134 0l3 1.5Z"/><path style="opacity:1" fill="#242125" d="M470.5 532.5h-7v-15h7v15Z"/><path style="opacity:1" fill="#293439" d="M516.5 522.5c14.67-.167 29.337 0 44 .5l1.5 1.5c.83 50.237.664 100.404-.5 150.5a552.224 552.224 0 0 1-47 0 11.333 11.333 0 0 1-1.5-3.5 3601.9 3601.9 0 0 1 .5-147c1.239-.442 2.239-1.109 3-2Z"/><path style="opacity:1" fill="#8ea8be" d="M268.5 526.5h-31a361.608 361.608 0 0 1-1 38v-39c10.846-.328 21.513.006 32 1Z"/><path style="opacity:1" fill="#c0e1fd" d="M268.5 526.5c-.167 13.337 0 26.671.5 40l1.5 1.5c13.329.5 26.663.667 40 .5v32a400.456 400.456 0 0 0-40 1l-1.5 3a799.793 799.793 0 0 0-.5 40h-32c.167-14.004 0-28.004-.5-42a11.333 11.333 0 0 0-3.5-1.5 760.316 760.316 0 0 0-39-.5v-31a380.934 380.934 0 0 0 39-1c2.333-.333 3.667-1.667 4-4a361.608 361.608 0 0 0 1-38h31Z"/><path style="opacity:1" fill="#47abfe" d="m332.5 530.5 3 2c4.47.986 9.137 1.319 14 1v29c-5.307.526-10.307-.14-15-2-.667-2.667-2.333-4.333-5-5a702.728 702.728 0 0 0-53-1v-22c17.841.33 35.508-.003 53-1a5.727 5.727 0 0 0 3-1Z"/><path style="opacity:1" fill="#715e31" d="M365.5 533.5v-1h49c.323 6.19-.01 12.19-1 18v-17h-48Z"/><path style="opacity:1" fill="#e2a029" d="M463.5 532.5h7v22h-7v-22Z"/><path style="opacity:1" fill="#faae25" d="M520.5 532.5h35v22h-35v-22Z"/><path style="opacity:1" fill="#feb124" d="M605.5 532.5h17v22h-17v-22Z"/><path style="opacity:1" fill="#376692" d="M335.5 532.5h15v32c-.838-.342-1.172-1.008-1-2v-29c-4.863.319-9.53-.014-14-1Z"/><path style="opacity:1" fill="#262023" d="M350.5 532.5h15v22h44a159.435 159.435 0 0 1-15 15h-39c-2.667-.667-4.333-2.333-5-5v-32Z"/><path style="opacity:1" fill="#feb025" d="M365.5 533.5h48v17c-1 1.667-2.333 3-4 4h-44v-21Z"/><path style="opacity:1" fill="#231e23" d="M329.5 555.5c2.667.667 4.333 2.333 5 5 1.085 4.67-.582 7.67-5 9h-11c.48-3.185-.186-6.019-2-8.5a799.793 799.793 0 0 0-40-.5v-5h53Z"/><path style="opacity:1" fill="#242125" d="M463.5 554.5h7v15h-7v-15Z"/><path style="opacity:1" fill="#231e23" d="M554.5 569.5c-9.182-.327-18.182.007-27 1h-7v-15h34v14Z"/><path style="opacity:1" fill="#9ab7cd" d="M232.5 568.5a380.934 380.934 0 0 1-39 1v31c-.994-10.487-1.328-21.154-1-32h40Z"/><path style="opacity:1" fill="#445a7f" d="M355.5 569.5h39c-.333 1-1 1.667-2 2l-37-2Z"/><path style="opacity:1" fill="#fefefe" d="M527.5 570.5h27v87a169.498 169.498 0 0 1-15 10h-18v-53a54.7 54.7 0 0 0 5.5-4c.5-13.329.667-26.663.5-40Z"/><path style="opacity:1" fill="#909497" d="M527.5 570.5c8.818-.993 17.818-1.327 27-1a968.742 968.742 0 0 1 0 88v-87h-27Z"/><path style="opacity:1" fill="#6591d8" d="M334.5 560.5c4.693 1.86 9.693 2.526 15 2-.172.992.162 1.658 1 2 .667 2.667 2.333 4.333 5 5l37 2a1600.7 1600.7 0 0 1-58.5 58c-.29 1.544-.956 2.877-2 4a1851.988 1851.988 0 0 1-42.5-24.5l27-1 1.5-1.5c.5-11.995.667-23.995.5-36 3.871.315 7.538-.018 11-1 4.418-1.33 6.085-4.33 5-9Z"/><path style="opacity:1" fill="#456087" d="M463.5 570.5v-1h7a961.42 961.42 0 0 1-1 62v-61h-6Z"/><path style="opacity:1" fill="#5a6d7a" d="M310.5 568.5c.995 10.821 1.328 21.821 1 33h-41a400.456 400.456 0 0 1 40-1v-32Z"/><path style="opacity:1" fill="#fbfbfc" d="M232.5 651.5v1c-3.467.054-6.134-1.446-8-4.5a46.99 46.99 0 0 1-10.5-5.5 577.896 577.896 0 0 1-.5-34h15c-.167 13.004 0 26.004.5 39 .057 2.41 1.224 3.744 3.5 4Z"/><path style="opacity:1" fill="#bcbfc1" d="M521.5 614.5v53h18c-6.145.99-12.478 1.323-19 1a729.55 729.55 0 0 1 1-54Z"/><path style="opacity:1" fill="#fdfdfd" d="m233.5 653.5 39-2c1.517-.011 2.684-.677 3.5-2l1-33a46.47 46.47 0 0 0 14.5 6.5 27.816 27.816 0 0 1 8 6 420.445 420.445 0 0 0 32 17 1016.27 1016.27 0 0 1 1 63.5c-8.46-2.55-16.127-6.717-23-12.5-5.093-1.382-9.426-4.049-13-8-6.4-2.062-12.067-5.396-17-10l-10-4-4-4a90.42 90.42 0 0 1-14-6l-4-4a112.041 112.041 0 0 1-14-7.5Z"/><path style="opacity:1" fill="#678fd8" d="M463.5 570.5h6v61a65.813 65.813 0 0 1-13 5.5c-3.574 3.951-7.907 6.618-13 8a71.916 71.916 0 0 0-9 7l-4 1a333.033 333.033 0 0 1-27 16 16.242 16.242 0 0 1-8 0 32.449 32.449 0 0 0-9-4c-3.724-3.669-4.89-8.169-3.5-13.5a9211.134 9211.134 0 0 0 80.5-81Z"/><path style="opacity:1" fill="#919699" d="M469.5 707.5a961.42 961.42 0 0 0-1-62c.283-.789.783-1.456 1.5-2a684.92 684.92 0 0 1-.5 64Z"/><path style="opacity:1" fill="#fcfcfc" d="M468.5 645.5a961.42 961.42 0 0 1 1 62c-.787 1.604-2.12 2.271-4 2l-2-36c-.333-2.333-1.667-3.667-4-4l-29-2c3.533-2.935 7.533-5.101 12-6.5l9-7a81.356 81.356 0 0 0 17-8.5Z"/><path style="opacity:1" fill="#688ed8" d="M186.5 608.5h15c-.167 13.337 0 26.671.5 40a18.839 18.839 0 0 1 6.5 5.5 55.63 55.63 0 0 1 18 10c4.778 1.429 9.111 3.596 13 6.5h-53v-62Z"/><path style="opacity:1" fill="#6890d9" d="M610.5 570.5c.333 34.673 0 69.34-1 104-1.083 2.638-2.416 4.971-4 7v-111h5Z"/><path style="opacity:1" fill="#92989b" d="M232.5 651.5h40l-39 2c-.667 0-1-.333-1-1v-1Z"/><path style="opacity:1" fill="#c5c8c9" d="m430.5 667.5 29 2c-10.339.166-20.672 0-31-.5.544-.717 1.211-1.217 2-1.5Z"/><path style="opacity:1" fill="#6b8bd7" d="M186.5 670.5h53a110.571 110.571 0 0 0 13 7.5c3.603 3.655 7.936 5.988 13 7a466.277 466.277 0 0 0 50 29c6.973 5.651 14.64 9.984 23 13 .752.671 1.086 1.504 1 2.5h-70v-3a8.43 8.43 0 0 1-4-.5c-4.85-3.699-10.184-6.199-16-7.5v-3h-6v-3c-2.092-.061-3.592-1.061-4.5-3-1.299.466-2.799.466-4.5 0v-3c-1.788.285-3.455-.048-5-1-2.158-3.144-5.158-4.477-9-4v-3a12.93 12.93 0 0 1-5-.5c-2.625-3.031-6.125-5.864-10.5-8.5-2.537.677-4.537-.323-6-3l-1 1c-1.667-1-3-2.333-4-4-1.049 1.017-2.216 1.184-3.5.5l1-1a15.645 15.645 0 0 1-4-2.5 25.879 25.879 0 0 1-1-10Z"/><path style="opacity:1" fill="#c7cacb" d="m463.5 673.5 2 36c-.06.543-.393.876-1 1a343.225 343.225 0 0 1-1-37Z"/><path style="opacity:1" fill="#4d5e6a" d="M377.5 676.5h79c.328 10.846-.006 21.513-1 32v-31c-26.172.331-52.172-.002-78-1Z"/><path style="opacity:1" fill="#9bb7ce" d="M340.5 691.5c.988 5.14 1.321 10.474 1 16h114v1h-115v-17Z"/><path style="opacity:1" fill="#fcfcfc" d="M342.5 717.5a2094.75 2094.75 0 0 1 112-.5c-4.69 1.17-8.69 3.503-12 7-6.858 2.879-13.191 6.546-19 11a115.786 115.786 0 0 0-25 13.5 97.288 97.288 0 0 0-12-5.5c-3.543-1.608-6.543-3.942-9-7-5.662-.917-10.329-3.583-14-8-6.538-2.271-12.538-5.605-18-10a4.934 4.934 0 0 0-3-.5Z"/><path style="opacity:1" fill="#6d87d6" d="M547.5 716.5c-1.238.31-1.238.81 0 1.5a118.288 118.288 0 0 0-17 7.5 10.756 10.756 0 0 0-2.5 3l-1-1c-1.049 1.607-2.549 2.273-4.5 2v3h-6v3h-5v3c-2.524-.071-4.524.929-6 3-2.12-1.372-3.12-.705-3 2a12.93 12.93 0 0 0-5 .5 101.657 101.657 0 0 0-10 7.5 9.108 9.108 0 0 1-5 1v3c-2.51-.446-4.51.22-6 2-2.216.703-4.049 2.036-5.5 4-1.813-1.109-2.646-.442-2.5 2a12.93 12.93 0 0 0-5 .5c-1.497 1.871-3.497 2.871-6 3-1.307 2.324-3.307 3.657-6 4l2 1a12.93 12.93 0 0 1-5 .5v3a9.86 9.86 0 0 0-6 1 35.217 35.217 0 0 1-8 4v3h-6v3h-6v3a8.43 8.43 0 0 0-4 .5l-5 5c-1.284.684-2.451.517-3.5-.5-1.263 2.968-3.263 3.968-6 3a2.428 2.428 0 0 0-.5 2h-12c-.507-1.359-1.507-2.359-3-3a137.913 137.913 0 0 0-11-4v-3c-2.133-1.386-5.133-2.386-9-3v-3h-5v-3c-3.005.247-5.505-.753-7.5-3l-1 1a4.934 4.934 0 0 1-.5-3h-6v-3h-5v-3h-6v-3c-5.922-1.727-11.089-4.727-15.5-9-.718.951-1.551 1.117-2.5.5 1.333-.667 1.333-1.333 0-2a12.93 12.93 0 0 0-5-.5v-3a58.97 58.97 0 0 1-11-3v-3c-8.654-3.265-16.321-6.932-23-11v-3h-6v-3h65a720.765 720.765 0 0 1 49 27.5 66.364 66.364 0 0 0 9.5 2.5c5.889-.966 11.389-2.799 16.5-5.5 5.239-4.798 11.239-8.131 18-10 4.933-4.604 10.6-7.938 17-10a209.75 209.75 0 0 1 30-18 772.829 772.829 0 0 1 68 .5Z"/><path style="opacity:1" fill="#6e88d7" d="M476.5 757.5c1.333.667 1.333.667 0 0Z"/></svg>