<?xml version="1.0" encoding="UTF-8"?><svg xmlns="http://www.w3.org/2000/svg" width="800" height="800" style="shape-rendering:geometricPrecision;text-rendering:geometricPrecision;image-rendering:optimizeQuality;fill-rule:evenodd;clip-rule:evenodd"><path style="opacity:1" fill="#e4fbfb" d="M576.5-.5h9a2.429 2.429 0 0 0 .5 2c1.049-1.017 2.216-1.184 3.5-.5a20.495 20.495 0 0 0 2.5 3.5c1.356-.88 2.856-1.214 4.5-1v3c2.822 1.432 6.489 2.432 11 3v3c2.092.061 3.592 1.061 4.5 3 2.537-.677 4.537.323 6 3 2.361-.566 4.194.434 5.5 3l2-1c.35 2.067 2.017 3.067 5 3v3h6v3h5v3h6v3a27.247 27.247 0 0 0 9 3c-.219 1.175.114 2.175 1 3a6.846 6.846 0 0 1 4-1v3a8.435 8.435 0 0 1 4 .5c-1.154.914-.987 1.747.5 2.5 1.299-.466 2.799-.466 4.5 0v3h6v3h5v3a428.986 428.986 0 0 0 20 8.5l-2 1c2.522.61 4.522 1.943 6 4 1.634.493 3.301.66 5 .5v3c2.908-.238 5.242.762 7 3 .951-.826 1.951-.992 3-.5l-1 1a6.977 6.977 0 0 1 3.5 2.5l1-1c.483.948.649 1.948.5 3h6v3h5v3c1.951-.273 3.451.393 4.5 2l1-1c6 4.386 12.5 7.886 19.5 10.5l-1 1c1.525 1.009 3.192 1.509 5 1.5v3h6v3h5v3c2.041.354 3.874.354 5.5 0 .483.948.649 1.948.5 3 2.836 1.276 5.836 1.942 9 2a7971.884 7971.884 0 0 1 2 251c-3.013-.128-5.513.872-7.5 3-2.411-1.653-3.578-.987-3.5 2-1.701.466-3.201.466-4.5 0-3.844 1.975-7.177 4.642-10 8l-1-1c-1.049 1.607-2.549 2.273-4.5 2v3c-3.937.204-7.604 1.204-11 3 .381 2.442-.286 3.109-2 2-.886.825-1.219 1.825-1 3h-6v3a12.93 12.93 0 0 0-5 .5c-1.079 2.043-2.746 3.376-5 4l1 1a12.93 12.93 0 0 1-5 .5v3a9.86 9.86 0 0 0-6 1c-3.423 1.192-6.256 3.192-8.5 6l-1-1c-1.049 1.607-2.549 2.273-4.5 2v3h-6v3h-5v3c-2.185.388-4.018 1.388-5.5 3-2.278-1.12-3.778-.287-4.5 2.5a101.955 101.955 0 0 0-13 5.5v3h-6v3h-6v3c-1.788-.285-3.455.048-5 1 1.129 2.029.629 2.363-1.5 1-1.712 3.452-4.212 4.452-7.5 3v3c-3.096-.593-5.429.407-7 3a47.25 47.25 0 0 1-7 3v3h-6v3c-1.788-.285-3.455.048-5 1a28.335 28.335 0 0 0-9.5 6l-1-1c-1.049 1.607-2.549 2.273-4.5 2-.167 12.338 0 24.671.5 37 .414.457.914.791 1.5 1a3571.518 3571.518 0 0 1 0 169c-1.671 2.01-2.338 4.343-2 7-3.064 1.19-5.731 2.857-8 5h-3v3a58.97 58.97 0 0 0-11 3v3c-1.859-.039-3.192.794-4 2.5a12.93 12.93 0 0 1-5 .5v3c-2.582-.475-4.582.192-6 2-2.281 1.928-4.947 2.928-8 3v3h-6v3c-4.045-.073-7.378 1.427-10 4.5l1 1a118.288 118.288 0 0 0-17 7.5 10.756 10.756 0 0 0-2.5 3l-1-1c-1.049 1.607-2.549 2.273-4.5 2v3h-6v3h-5v3c-2.524-.071-4.524.929-6 3-2.12-1.372-3.12-.705-3 2a12.93 12.93 0 0 0-5 .5 101.657 101.657 0 0 0-10 7.5 9.108 9.108 0 0 1-5 1v3c-2.51-.446-4.51.22-6 2-2.216.703-4.049 2.036-5.5 4-1.813-1.109-2.646-.442-2.5 2a12.93 12.93 0 0 0-5 .5c-1.497 1.871-3.497 2.871-6 3-1.307 2.324-3.307 3.657-6 4l2 1a12.93 12.93 0 0 1-5 .5v3a9.86 9.86 0 0 0-6 1 35.217 35.217 0 0 1-8 4v3h-6v3h-6v3a8.43 8.43 0 0 0-4 .5l-5 5c-1.284.684-2.451.517-3.5-.5-1.263 2.968-3.263 3.968-6 3a2.428 2.428 0 0 0-.5 2h-12c-.507-1.359-1.507-2.359-3-3a137.913 137.913 0 0 0-11-4v-3c-2.133-1.386-5.133-2.386-9-3v-3h-5v-3c-3.005.247-5.505-.753-7.5-3l-1 1a4.934 4.934 0 0 1-.5-3h-6v-3h-5v-3h-6v-3c-5.922-1.727-11.089-4.727-15.5-9-.718.951-1.551 1.117-2.5.5 1.333-.667 1.333-1.333 0-2a12.93 12.93 0 0 0-5-.5v-3a58.97 58.97 0 0 1-11-3v-3c-8.654-3.265-16.321-6.932-23-11v-3h-6v-3h-5v-3a8.43 8.43 0 0 1-4-.5c-4.85-3.699-10.184-6.199-16-7.5v-3h-6v-3c-2.092-.061-3.592-1.061-4.5-3-1.299.466-2.799.466-4.5 0v-3c-1.788.285-3.455-.048-5-1-2.158-3.144-5.158-4.477-9-4v-3a12.93 12.93 0 0 1-5-.5c-2.625-3.031-6.125-5.864-10.5-8.5-2.537.677-4.537-.323-6-3l-1 1c-1.667-1-3-2.333-4-4-1.049 1.017-2.216 1.184-3.5.5l1-1a15.645 15.645 0 0 1-4-2.5 23352.191 23352.191 0 0 1-1.5-216 1204.023 1204.023 0 0 0-28.5-16.5c-6.204-2.789-12.537-4.622-19-5.5v-3h-6v-3h-3v-3h-6v-3h-5v-3c-2.921.354-5.254-.646-7-3-1.714 1.109-2.381.442-2-2a58.97 58.97 0 0 1-11-3v-3a27.267 27.267 0 0 0-9-3v-3c-2.908.238-5.242-.762-7-3a3.647 3.647 0 0 0-1.5 1c-1.667-1-3-2.333-4-4l-1 1a4.932 4.932 0 0 1-.5-3h-6v-3h-5v-3a544.412 544.412 0 0 1-29-14v-3a58.967 58.967 0 0 1-11-3v-3h-6v-3c-4.013-1.674-8.013-3.341-12-5 .008-83.648.008-167.148 0-250.5a169.104 169.104 0 0 0 15-5.5v-3a58.967 58.967 0 0 0 11-3v-3a417.79 417.79 0 0 0 15-7 32.686 32.686 0 0 0 8.5-6l1 1c1.049-1.607 2.549-2.273 4.5-2v-3a59.029 59.029 0 0 1 11-3 4.932 4.932 0 0 1 .5-3l1 1c2.015-3.065 4.515-4.065 7.5-3v-3h5v-3c1.7.16 3.366-.007 5-.5 1.478-2.057 3.478-3.39 6-4l-2-1a18.436 18.436 0 0 1 6-.5v-3a87.51 87.51 0 0 0 14-5v-3h6v-3h5v-3c1.701-.466 3.201-.466 4.5 0 3.279-4.047 7.946-7.047 14-9a18.264 18.264 0 0 0 5-4l1 1c1.049-1.607 2.549-2.273 4.5-2v-3h5v-3h6v-3c4.612-1.195 9.279-2.862 14-5v-3c1.701-.466 3.201-.466 4.5 0 .908-1.939 2.408-2.939 4.5-3v-3h6v-3c1.788.285 3.455-.048 5-1a38.767 38.767 0 0 0 7-4.5 49.25 49.25 0 0 1 14 0c2.025 1.677 4.359 2.677 7 3-1.134 1.016-.801 1.683 1 2l5 1-1 1c2.622 3.073 5.955 4.573 10 4.5v3h6v3c3.191.262 5.858 1.596 8 4a9.864 9.864 0 0 0 6 1v3c3.58 1.22 7.247 2.386 11 3.5l-2 1c2.767.678 4.934 2.178 6.5 4.5l1-1c3.769 1.797 7.102 4.13 10 7a3.942 3.942 0 0 1 2-1c1.482 1.612 3.315 2.612 5.5 3v3h6v3h5v3h6v3a87.51 87.51 0 0 0 14 5v3c1.699-.16 3.366.007 5 .5l-1 1c1.525 1.009 3.192 1.509 5 1.5v3h6v3h5v3c2.985-1.065 5.485-.065 7.5 3l1-1c.483.948.649 1.948.5 3h5v3h6v3c2.133 1.386 5.133 2.386 9 3v3c2.908-.238 5.242.762 7 3l2-1c.35 2.067 2.017 3.067 5 3v3h6v3c2.516-.255 4.85-1.089 7-2.5a626.207 626.207 0 0 1 29-17c.837-1.011 1.17-2.178 1-3.5 4.493-.216 7.993-2.216 10.5-6 1.011.837 2.178 1.17 3.5 1v-3a59.031 59.031 0 0 0 11-3v-3c1.808.009 3.475-.491 5-1.5l-1-1a12.935 12.935 0 0 1 5-.5v-3a9.864 9.864 0 0 0 6-1 35.213 35.213 0 0 1 8-4v-3h6v-3a59.031 59.031 0 0 1 11-3v-3c1.808.009 3.475-.491 5-1.5-1.388-.89-1.222-1.39.5-1.5 2.071 1.167 3.571.5 4.5-2 6.434-2.343 12.767-5.343 19-9v-3a59.031 59.031 0 0 1 11-3 4.934 4.934 0 0 1 .5-3l1 1c1.995-2.247 4.495-3.247 7.5-3v-3h5v-3h6v-3c1.808.009 3.475-.491 5-1.5l-1-1a12.936 12.936 0 0 1 5-.5v-3c3.552.188 6.219-1.145 8-4Z"/><path style="opacity:1" fill="#273339" d="M588.5 458.5a53.805 53.805 0 0 1 1-14 5902.075 5902.075 0 0 0 143-82.5 84.545 84.545 0 0 1 18-8.5c.167-70.334 0-140.667-.5-211 .564-4.29-1.269-6.457-5.5-6.5a203.265 203.265 0 0 0-37-21l-4-4a91.311 91.311 0 0 1-23-13 457.332 457.332 0 0 0-22-11l-4-4a483.026 483.026 0 0 1-51-29c-3.415-.406-6.082-2.072-8-5a90.401 90.401 0 0 0-14-6c-5.722-6.435-12.722-8.768-21-7-7.36 5.663-15.36 9.996-24 13-3.619 3.977-7.952 6.644-13 8-2.537 2.546-5.537 4.212-9 5l-4 4-10 4a2551.356 2551.356 0 0 0-60 36c7.02 4.175 14.02 8.342 21 12.5-6.578-.531-12.912.135-19 2a115.091 115.091 0 0 1-12-7.5c-6.921-5.743-6.588-11.076 1-16a12271.425 12271.425 0 0 0 129-74c9.584-1.031 17.918 1.636 25 8 4.302.286 7.635 2.286 10 6a974.743 974.743 0 0 1 66 38l15 7 4 4a457.332 457.332 0 0 1 22 11 29746.604 29746.604 0 0 0 46 28c2.71 1.747 5.71 2.747 9 3a36.078 36.078 0 0 1 3.5 4.5c.667 76 .667 152 0 228a190.921 190.921 0 0 1-21.5 10.5l-8 6a1884.13 1884.13 0 0 0-86 50 271.702 271.702 0 0 0-33 19 136.516 136.516 0 0 0-24 12.5Z"/><path style="opacity:1" fill="#28343a" d="M402.5 117.5c-3.477.823-7.144 1.323-11 1.5-1.658 1.663-3.658 2.496-6 2.5a219.263 219.263 0 0 1-27-15.5c-5.079-1.403-9.412-4.07-13-8a1516.16 1516.16 0 0 1-91-52A228.066 228.066 0 0 0 230 34.5 112.066 112.066 0 0 0 206.5 48l-10 4-3 3c-6.771 2.445-12.771 6.111-18 11l-10 4-4 4a520.666 520.666 0 0 0-59 34l-9 3c-3.796 3.592-8.13 6.259-13 8A361.546 361.546 0 0 1 48 137.5c-.667 72-.667 144 0 216a7214.146 7214.146 0 0 0 125 72c.5-21.664.667-43.331.5-65a340.197 340.197 0 0 0-18-8.5 55.63 55.63 0 0 0-18-10 78.488 78.488 0 0 0-23-13 56.965 56.965 0 0 0-10.5-7.5 5697.651 5697.651 0 0 1 0-151 6.978 6.978 0 0 1 2.5-3.5 146.497 146.497 0 0 0 31-18c8.372-3.019 16.038-7.352 23-13 5.093-1.382 9.426-4.049 13-8a90.42 90.42 0 0 0 14-6c1.918-2.928 4.585-4.594 8-5a226.438 226.438 0 0 1 29-17 42.498 42.498 0 0 1 13 0l4 4a154.79 154.79 0 0 0 13 6 6204.11 6204.11 0 0 1 24 15 331.67 331.67 0 0 1 40 23c7.27 1.913 13.604 5.58 19 11 4.75 1.03 8.75 3.363 12 7l10 4c5.054 5.058 11.054 8.392 18 10a10.515 10.515 0 0 0 3 2.5 53.805 53.805 0 0 1 1 14c-2.939-.418-5.272-1.918-7-4.5a81.308 81.308 0 0 1-19-11 134.402 134.402 0 0 1-12-5 445.595 445.595 0 0 0-55-31 301.986 301.986 0 0 0-51-30l-4.5-4.5c-2.09.652-4.257.819-6.5.5a368.678 368.678 0 0 1-44 26c-3.83 4.163-8.497 6.829-14 8a81.82 81.82 0 0 1-19 11c-5.201 4.797-11.201 8.13-18 10-5.669 5.02-11.836 9.187-18.5 12.5-.5 45.332-.667 90.665-.5 136 5.301 1.324 9.968 3.824 14 7.5l10 4c1.918 2.928 4.585 4.594 8 5 2.674 3.012 6.007 4.678 10 5a82.15 82.15 0 0 0 22 13 20.231 20.231 0 0 1 7.5 7.5c.667 23.333.667 46.667 0 70-1.232 2.8-1.899 5.8-2 9-2.909 2.894-6.409 3.727-10.5 2.5a13376.247 13376.247 0 0 1-116-67c-3.96.349-6.626-1.317-8-5l-9.5-5.5a6458.19 6458.19 0 0 1-1-226c.093-2.507.926-4.674 2.5-6.5 3.29-.253 6.29-1.253 9-3a133.395 133.395 0 0 1 32-18c3.83-4.163 8.497-6.829 14-8a336.071 336.071 0 0 1 40-23l6-5c22.924-12.6 45.591-25.6 68-39 5.14-1.446 9.806-3.78 14-7 12.235-2.801 22.902.199 32 9a2084.03 2084.03 0 0 1 77 44c5.503 1.17 10.17 3.838 14 8a326.577 326.577 0 0 0 27 14c8.98 5.636 17.98 11.302 27 17a4.934 4.934 0 0 0 3 .5Z"/><path style="opacity:1" fill="#fdfdfd" d="M385.5 121.5a43.53 43.53 0 0 0-3.5 8 1391.589 1391.589 0 0 1-1.5 53 10.515 10.515 0 0 1-3-2.5c-6.946-1.608-12.946-4.942-18-10l-10-4c-3.25-3.637-7.25-5.97-12-7-5.396-5.42-11.73-9.087-19-11a331.67 331.67 0 0 0-40-23 6204.11 6204.11 0 0 0-24-15 154.79 154.79 0 0 1-13-6l-4-4a42.498 42.498 0 0 0-13 0 226.438 226.438 0 0 0-29 17c-3.415.406-6.082 2.072-8 5a90.42 90.42 0 0 1-14 6c-3.574 3.951-7.907 6.618-13 8-6.962 5.648-14.628 9.981-23 13a146.497 146.497 0 0 1-31 18 6.978 6.978 0 0 0-2.5 3.5 5697.651 5697.651 0 0 0 0 151 56.965 56.965 0 0 1 10.5 7.5 78.488 78.488 0 0 1 23 13 55.63 55.63 0 0 1 18 10 340.197 340.197 0 0 1 18 8.5c.167 21.669 0 43.336-.5 65a7214.146 7214.146 0 0 1-125-72c-.667-72-.667-144 0-216A361.546 361.546 0 0 0 80.5 119c4.87-1.741 9.204-4.408 13-8l9-3a520.666 520.666 0 0 1 59-34l4-4 10-4c5.229-4.889 11.229-8.555 18-11l3-3 10-4A112.066 112.066 0 0 1 230 34.5 228.066 228.066 0 0 1 254.5 46a1516.16 1516.16 0 0 0 91 52c3.588 3.93 7.921 6.597 13 8a219.263 219.263 0 0 0 27 15.5ZM589.5 444.5c-1.275-9.799-6.609-16.633-16-20.5l-19-1c-3.66-4.66-7.66-8.993-12-13l30-1c7.434-2.435 12.601-7.268 15.5-14.5.175-4.519.675-8.853 1.5-13a105.862 105.862 0 0 1 22-11.5c5.057-5.063 11.057-8.396 18-10 4.952-4.639 10.619-7.973 17-10 9.313-5.969 18.646-11.969 28-18 7.819-2.16 14.319-6.327 19.5-12.5.667-48.667.667-97.333 0-146a69.2 69.2 0 0 0-4.5-6.5 198.572 198.572 0 0 1-36-21 213.966 213.966 0 0 0-16-7.5c1.214-9.743-2.786-16.243-12-19.5a242.43 242.43 0 0 0-22-.5 14.698 14.698 0 0 0-3-3.5 113.107 113.107 0 0 1-28-15c-8.302-.757-15.635 1.576-22 7a68.695 68.695 0 0 0-14 7c-3.72-.24-6.387 1.26-8 4.5-9.672-.166-19.339 0-29 .5-3.494 1.662-6.161 4.162-8 7.5-.768.763-1.268 1.763-1.5 3-.5 19.997-.667 39.997-.5 60-.453.958-1.119 1.792-2 2.5l-15 1c-4 3-4 6 0 9a72.464 72.464 0 0 0 17 0c1.952-.366 3.618-1.199 5-2.5v13c-1.89-.203-3.39.463-4.5 2a1023.738 1023.738 0 0 0 0 64 1334.483 1334.483 0 0 1 30.5 31c-5.234 1.302-10.567 1.302-16 0a14.698 14.698 0 0 0-3-3.5l-25-1-30.5-30.5a5109.945 5109.945 0 0 1 0-143l2.5-2.5 29-1c2.667-3 2.667-6 0-9a128.507 128.507 0 0 0-16-.5c-6.98-4.158-13.98-8.325-21-12.5a2551.356 2551.356 0 0 1 60-36l10-4 4-4c3.463-.788 6.463-2.454 9-5 5.048-1.356 9.381-4.023 13-8 8.64-3.004 16.64-7.337 24-13 8.278-1.768 15.278.565 21 7a90.401 90.401 0 0 1 14 6c1.918 2.928 4.585 4.594 8 5a483.026 483.026 0 0 0 51 29l4 4a457.332 457.332 0 0 1 22 11 91.311 91.311 0 0 0 23 13l4 4a203.265 203.265 0 0 1 37 21c4.231.043 6.064 2.21 5.5 6.5.5 70.333.667 140.666.5 211a84.545 84.545 0 0 0-18 8.5 5902.075 5902.075 0 0 1-143 82.5Z"/><path style="opacity:1" fill="#283439" d="M603.5 118.5a163.67 163.67 0 0 1-25-1 127.404 127.404 0 0 0-11-7 210.274 210.274 0 0 0-13 7 176.739 176.739 0 0 1-26 1c1.613-3.24 4.28-4.74 8-4.5a68.695 68.695 0 0 1 14-7c6.365-5.424 13.698-7.757 22-7a113.107 113.107 0 0 0 28 15 14.698 14.698 0 0 1 3 3.5Z"/><path style="opacity:1" fill="#dbf2f3" d="M578.5 117.5c-8 1.333-16 1.333-24 0a210.274 210.274 0 0 1 13-7 127.404 127.404 0 0 1 11 7Z"/><path style="opacity:1" fill="#2c3f56" d="M402.5 117.5a244.83 244.83 0 0 0 21 1.5 9.175 9.175 0 0 1 2 4.5c.203 1.89-.463 3.39-2 4.5l-29 1-2.5 2.5-1 78c-1.129 1.641-2.629 2.641-4.5 3-2.082-.124-3.582-1.124-4.5-3a84.902 84.902 0 0 1-.5-13 53.805 53.805 0 0 0-1-14 1391.589 1391.589 0 0 0 1.5-53 43.53 43.53 0 0 1 3.5-8c2.342-.004 4.342-.837 6-2.5 3.856-.177 7.523-.677 11-1.5ZM461.5 118.5c5.344-.166 10.677.001 16 .5 2.667 3 2.667 6 0 9l-29 1-2.5 2.5a5109.945 5109.945 0 0 0 0 143l30.5 30.5 25 1a14.698 14.698 0 0 1 3 3.5c.028 2.082-.639 3.916-2 5.5a160.723 160.723 0 0 1-31-.5c-1.021-1.688-2.355-3.021-4-4a1061.018 1061.018 0 0 1-31.5-32c-.667-50-.667-100 0-150l2.5-5a308.607 308.607 0 0 0 4-3c6.088-1.865 12.422-2.531 19-2Z"/><path style="opacity:1" fill="#293e55" d="M554.5 117.5c8 1.333 16 1.333 24 0a163.67 163.67 0 0 0 25 1c7.341-.166 14.674 0 22 .5 9.214 3.257 13.214 9.757 12 19.5v12a5930.197 5930.197 0 0 0-1 154c-1.072 5.573-4.405 9.073-10 10.5-10.328.5-20.661.666-31 .5-3.461.611-6.128-.556-8-3.5a8.43 8.43 0 0 0-4-.5v-1c1.478.262 2.811-.071 4-1a14.972 14.972 0 0 1 3-3.5l35-1a9.454 9.454 0 0 0 1.5-2.5c.667-57 .667-114 0-171a6.978 6.978 0 0 0-3.5-2.5 3658.67 3658.67 0 0 0-121 0l-2.5 2.5-1 61c-1.012 2.702-2.512 5.035-4.5 7-1.382 1.301-3.048 2.134-5 2.5a72.464 72.464 0 0 1-17 0c-4-3-4-6 0-9l15-1c.881-.708 1.547-1.542 2-2.5a13338.79 13338.79 0 0 0 2-63c1.839-3.338 4.506-5.838 8-7.5 9.661-.5 19.328-.666 29-.5 8.751.303 17.418-.03 26-1Z"/><path style="opacity:1" fill="#fb9999" d="M425.5 123.5h13l-2.5 5c-.667 50-.667 100 0 150a1061.018 1061.018 0 0 0 31.5 32h-17c-.061-2.092-1.061-3.592-3-4.5l-25-1-30.5-30.5a400.05 400.05 0 0 1 0-40l1.5-1.5 19-1c4.884-2.527 5.217-5.527 1-9a132.434 132.434 0 0 0-23 0 16.58 16.58 0 0 0-4 2.5v-13c1.871-.359 3.371-1.359 4.5-3l1-78 2.5-2.5 29-1c1.537-1.11 2.203-2.61 2-4.5Z"/><path style="opacity:1" fill="#a8e9c7" d="M583.5 310.5h-10c-.359-1.871-1.359-3.371-3-4.5a647.854 647.854 0 0 0-36-.5 115.297 115.297 0 0 0-1.5-25c-2.496-5.33-6.663-8.33-12.5-9-6.479-.991-13.146-1.324-20-1a729.55 729.55 0 0 0-1-54c-.629-2.497-2.296-3.83-5-4v-13c1.988-1.965 3.488-4.298 4.5-7l1-61 2.5-2.5a3658.67 3658.67 0 0 1 121 0 6.978 6.978 0 0 1 3.5 2.5c.667 57 .667 114 0 171a9.454 9.454 0 0 1-1.5 2.5l-35 1a14.972 14.972 0 0 0-3 3.5c-1.189.929-2.522 1.262-4 1Z"/><path style="opacity:1" fill="#44576b" d="M491.5 126.5a13338.79 13338.79 0 0 1-2 63c-.167-20.003 0-40.003.5-60 .232-1.237.732-2.237 1.5-3Z"/><path style="opacity:1" fill="#273339" d="M637.5 138.5a213.966 213.966 0 0 1 16 7.5 198.572 198.572 0 0 0 36 21 69.2 69.2 0 0 1 4.5 6.5c.667 48.667.667 97.333 0 146-5.181 6.173-11.681 10.34-19.5 12.5a12318.477 12318.477 0 0 1-28 18c-6.381 2.027-12.048 5.361-17 10-6.943 1.604-12.943 4.937-18 10a105.862 105.862 0 0 0-22 11.5 46.809 46.809 0 0 1-1-13c.667 0 1-.333 1-1 6.284-2.44 11.951-5.94 17-10.5 5.319-1.548 9.985-4.215 14-8a349.402 349.402 0 0 0 37-19 679.07 679.07 0 0 1 23-15 12.93 12.93 0 0 1 5-.5c.167-28.335 0-56.669-.5-85l-2-2-1-51a1709.967 1709.967 0 0 0-42.5-24l-2-2v-12Z"/><path style="opacity:1" fill="#637989" d="m637.5 150.5 2 2a5764.159 5764.159 0 0 0-3 152 5930.197 5930.197 0 0 1 1-154Z"/><path style="opacity:1" fill="#e3fbfb" d="M639.5 152.5a1709.967 1709.967 0 0 1 42.5 24l1 51 2 2c.5 28.331.667 56.665.5 85a12.93 12.93 0 0 0-5 .5 679.07 679.07 0 0 0-23 15 349.402 349.402 0 0 1-37 19c-4.015 3.785-8.681 6.452-14 8-5.049 4.56-10.716 8.06-17 10.5-.991-6.479-1.324-13.146-1-20v-1c2.556-1.043 4.723-2.71 6.5-5 .5-8.66.666-17.327.5-26 10.339.166 20.672 0 31-.5 5.595-1.427 8.928-4.927 10-10.5a5764.159 5764.159 0 0 1 3-152Z"/><path style="opacity:1" fill="#273d53" d="M531.5 178.5c19.678.333 39.345 0 59-1-.124-.607-.457-.94-1-1-5.611-3.008-6.944-7.175-4-12.5 1.667-.667 3.333-.667 5 0 7.142 5.135 12.809 11.469 17 19-4.875 6.885-10.542 13.218-17 19-6.002.993-8.168-1.507-6.5-7.5a46.607 46.607 0 0 0 5.5-6l-59-2c-1.596-3.067-1.263-5.734 1-8Z"/><path style="opacity:1" fill="#273339" d="M331.5 245.5a5.727 5.727 0 0 1-3 1h-22c1.074-1.385 2.407-2.551 4-3.5 4.871-1.741 9.204-4.408 13-8a169.786 169.786 0 0 0 33-18.5c-4.433-3.55-9.433-6.05-15-7.5a284.659 284.659 0 0 0-39-22.5l-22 10.5-4 4c-7.273 1.918-13.607 5.585-19 11a24.569 24.569 0 0 0-8 3 6204.11 6204.11 0 0 1-24 15 239.706 239.706 0 0 0-12 5.5v38a45.75 45.75 0 0 0-8.5 11 3023.738 3023.738 0 0 0 0 110c1.147 5.296 3.98 9.296 8.5 12v20c-4.085 2.598-6.918 6.265-8.5 11a2969.016 2969.016 0 0 0 0 109 20.64 20.64 0 0 0 2 6 63.707 63.707 0 0 1 6.5 7v22c-8.433-1.083-10.766 2.084-7 9.5 2.31.497 4.643.663 7 .5-.167 17.003 0 34.003.5 51a46.99 46.99 0 0 0 10.5 5.5l4 4a90.42 90.42 0 0 0 14 6 77.598 77.598 0 0 0 23 13l4 4 10 4c4.933 4.604 10.6 7.938 17 10 3.574 3.951 7.907 6.618 13 8 6.962 5.648 14.628 9.981 23 13 1.918 2.928 4.585 4.594 8 5a78.488 78.488 0 0 0 23 13c3.671 4.417 8.338 7.083 14 8 2.457 3.058 5.457 5.392 9 7a97.288 97.288 0 0 1 12 5.5 7683.65 7683.65 0 0 0 184-106 651.277 651.277 0 0 0 1-51c3.025-.533 4.358-2.367 4-5.5.105-2.873-1.228-4.373-4-4.5v-26a34.09 34.09 0 0 0 4.5-9c.5-20.997.667-41.997.5-63 2.599.049 4.766 1.049 6.5 3 .667 52 .667 104 0 156-2.329 5.671-6.162 10.171-11.5 13.5a192.811 192.811 0 0 0-13 6 219.87 219.87 0 0 0-13 10 78.488 78.488 0 0 0-23 13 134.402 134.402 0 0 0-12 5 91.311 91.311 0 0 1-23 13 319.99 319.99 0 0 1-46 27c-3.25 3.637-7.25 5.97-12 7-3.492 1.624-6.492 3.958-9 7l-10 4a78.988 78.988 0 0 1-14 9 92.109 92.109 0 0 0-10.5 2.5 66.364 66.364 0 0 1-9.5-2.5 35.157 35.157 0 0 0-10-5c-3.796-3.592-8.129-6.259-13-8a279.412 279.412 0 0 0-19-12c-3.959.349-6.626-1.317-8-5-8.36-3.016-16.027-7.349-23-13a466.277 466.277 0 0 1-50-29l-9-3a114.425 114.425 0 0 0-30-18 55.63 55.63 0 0 0-18-10 18.839 18.839 0 0 0-6.5-5.5c-.667-139-.667-278 0-417a34.706 34.706 0 0 1 7.5-6.5 463.337 463.337 0 0 0 45-27c6.872-1.189 12.539-4.523 17-10 7.352-2.336 14.019-6.003 20-11 1.284-.684 2.451-.517 3.5.5l2.5-2.5a25.238 25.238 0 0 1 10 0 153.69 153.69 0 0 0 19 10 6504.564 6504.564 0 0 1 23 15l5 1 16.5 12.5c1.378 4.398.212 7.898-3.5 10.5a1136.318 1136.318 0 0 1-36 21.5Z"/><path style="opacity:1" fill="#638d89" d="M589.5 176.5c.543.06.876.393 1 1a870.838 870.838 0 0 1-59 1l58-2Z"/><path style="opacity:1" fill="#fcfcfc" d="M306.5 246.5c-15.004-.167-30.004 0-45 .5a554.268 554.268 0 0 0-24 24c-8.162-.029-16.162.804-24 2.5v-38a239.706 239.706 0 0 1 12-5.5 6204.11 6204.11 0 0 0 24-15 24.569 24.569 0 0 1 8-3c5.393-5.415 11.727-9.082 19-11l4-4 22-10.5a284.659 284.659 0 0 1 39 22.5c5.567 1.45 10.567 3.95 15 7.5a169.786 169.786 0 0 1-33 18.5c-3.796 3.592-8.129 6.259-13 8-1.593.949-2.926 2.115-4 3.5Z"/><path style="opacity:1" fill="#2b4056" d="M494.5 212.5c2.704.17 4.371 1.503 5 4v55h21c5.837.67 10.004 3.67 12.5 9a115.297 115.297 0 0 1 1.5 25c12.005-.167 24.005 0 36 .5 1.641 1.129 2.641 2.629 3 4.5-.203 1.544-.87 2.878-2 4a338.065 338.065 0 0 1-45 .5 46.081 46.081 0 0 0-6-5.5 1334.483 1334.483 0 0 0-30.5-31 1023.738 1023.738 0 0 1 0-64c1.11-1.537 2.61-2.203 4.5-2Z"/><path style="opacity:1" fill="#293e55" d="M542.5 225.5c-.543.06-.876.393-1 1 19.322 1 38.655 1.333 58 1 3.656 2.518 3.989 5.518 1 9-19.678-.333-39.345 0-59 1 .124.607.457.94 1 1 3.176 1.835 5.176 4.502 6 8-.693 4.651-3.359 6.151-8 4.5-6.421-5.749-12.088-12.083-17-19a16.2 16.2 0 0 1 1.5-3.5 101.193 101.193 0 0 0 15.5-15.5c8.267-.762 10.1 2.405 5.5 9.5a14.698 14.698 0 0 1-3.5 3Z"/><path style="opacity:1" fill="#83b8a5" d="M499.5 216.5a729.55 729.55 0 0 1 1 54c6.854-.324 13.521.009 20 1h-21v-55Z"/><path style="opacity:1" fill="#2d3f56" d="M450.5 310.5c.203 1.89-.463 3.39-2 4.5-10 .667-20 .667-30 0a1955.86 1955.86 0 0 1-37-37.5v-26c-.166-6.342 0-12.675.5-19 .516-3.047 2.016-5.38 4.5-7a16.58 16.58 0 0 1 4-2.5 132.434 132.434 0 0 1 23 0c4.217 3.473 3.884 6.473-1 9l-19 1-1.5 1.5a400.05 400.05 0 0 0 0 40l30.5 30.5 25 1c1.939.908 2.939 2.408 3 4.5Z"/><path style="opacity:1" fill="#6d9991" d="m542.5 225.5 57 2c-19.345.333-38.678 0-58-1 .124-.607.457-.94 1-1Z"/><path style="opacity:1" fill="#6d9a92" d="m600.5 236.5-58 2c-.543-.06-.876-.393-1-1 19.655-1 39.322-1.333 59-1Z"/><path style="opacity:1" fill="#4c6074" d="m331.5 245.5 27 2c-10.181.327-20.181-.006-30-1a5.727 5.727 0 0 0 3-1Z"/><path style="opacity:1" fill="#2a3f56" d="M306.5 246.5h22c9.819.994 19.819 1.327 30 1 2 0 3 1 3 3 .322 2.222-.345 4.056-2 5.5l-94 1a228.344 228.344 0 0 1-13 12.5c-.543.06-.876.393-1 1 35.327 1 70.66 1.333 106 1 3.487.945 4.82 3.278 4 7-.453.958-1.119 1.792-2 2.5-47.083.01-94.083.676-141 2l-3.5 3.5a2861.07 2861.07 0 0 0 0 107c1.251 2.881 3.417 4.714 6.5 5.5 116.333.667 232.667.667 349 0 3.833-1.167 6.333-3.667 7.5-7.5l1-64c1.11-1.537 2.61-2.203 4.5-2 1.871.359 3.371 1.359 4.5 3 .499 5.991.666 11.991.5 18v1c-1.333 7-1.333 14 0 21a46.809 46.809 0 0 0 1 13c-.825 4.147-1.325 8.481-1.5 13-2.899 7.232-8.066 12.065-15.5 14.5l-30 1c4.34 4.007 8.34 8.34 12 13l19 1c9.391 3.867 14.725 10.701 16 20.5a53.805 53.805 0 0 0-1 14v25c.167 21.003 0 42.003-.5 63a34.09 34.09 0 0 1-4.5 9 42.493 42.493 0 0 1-11 5.5l-31 1 19 19c7.659.5 15.326.666 23 .5 2.772.127 4.105 1.627 4 4.5.358 3.133-.975 4.967-4 5.5h-65c-66.001.167-132.001 0-198-.5-1.641-1.129-2.641-2.629-3-4.5-.227-2.433.773-4.099 3-5 75.003.333 150.003 0 225-1-.124-.607-.457-.94-1-1-4-4.667-8.333-9-13-13a25.14 25.14 0 0 0-4-4.5 11528.56 11528.56 0 0 0-263 .5 514.367 514.367 0 0 0-3 4l-14 13c-.543.06-.876.393-1 1a576.95 576.95 0 0 0 48 1c2.521 1.53 3.521 3.864 3 7a31.147 31.147 0 0 1-2 2 49.87 49.87 0 0 1-14 1h-68a24.935 24.935 0 0 1-7-.5c-3.766-7.416-1.433-10.583 7-9.5 6.342.166 12.675 0 19-.5a469.033 469.033 0 0 0 18-18.5 483.123 483.123 0 0 0-31-1.5l-6-1.5a63.707 63.707 0 0 0-6.5-7 20.64 20.64 0 0 1-2-6 2969.016 2969.016 0 0 1 0-109c1.582-4.735 4.415-8.402 8.5-11l5-2.5 19-1 13-13-32-1-5-2.5c-4.52-2.704-7.353-6.704-8.5-12a3023.738 3023.738 0 0 1 0-110 45.75 45.75 0 0 1 8.5-11c7.838-1.696 15.838-2.529 24-2.5a554.268 554.268 0 0 1 24-24c14.996-.5 29.996-.667 45-.5Z"/><path style="opacity:1" fill="#c1d2ed" d="M361.5 250.5c6.578.96 13.245 1.293 20 1v26c-6.868-1.638-13.535-1.305-20 1 .82-3.722-.513-6.055-4-7l-105-2a228.344 228.344 0 0 0 13-12.5l94-1c1.655-1.444 2.322-3.278 2-5.5Z"/><path style="opacity:1" fill="#879ab3" d="m252.5 269.5 105 2c-35.34.333-70.673 0-106-1 .124-.607.457-.94 1-1Z"/><path style="opacity:1" fill="#e3ecfb" d="M381.5 277.5a1955.86 1955.86 0 0 0 37 37.5c10 .667 20 .667 30 0 1.537-1.11 2.203-2.61 2-4.5h17c1.645.979 2.979 2.312 4 4a160.723 160.723 0 0 0 31 .5c1.361-1.584 2.028-3.418 2-5.5 5.433 1.302 10.766 1.302 16 0a46.081 46.081 0 0 1 6 5.5c15.011.833 30.011.666 45-.5 1.13-1.122 1.797-2.456 2-4h10v15c-1.89-.203-3.39.463-4.5 2l-1 64c-1.167 3.833-3.667 6.333-7.5 7.5-116.333.667-232.667.667-349 0-3.083-.786-5.249-2.619-6.5-5.5a2861.07 2861.07 0 0 1 0-107l3.5-3.5a5036.12 5036.12 0 0 1 141-2c.881-.708 1.547-1.542 2-2.5 6.465-2.305 13.132-2.638 20-1Z"/><path style="opacity:1" fill="#f9f9fa" d="M523.5 284.5c.318 4.532-.015 8.866-1 13a326.819 326.819 0 0 0-15-15.5 49.226 49.226 0 0 1 14 0c.881.708 1.547 1.542 2 2.5Z"/><path style="opacity:1" fill="#7c8997" d="M523.5 284.5c1.312 4.515 1.312 9.182 0 14-.607-.124-.94-.457-1-1 .985-4.134 1.318-8.468 1-13Z"/><path style="opacity:1" fill="#2b4057" d="M261.5 305.5c20.509-1.339 34.009 7.661 40.5 27 1.824 28.175-11.343 42.009-39.5 41.5-13.872-2.871-23.039-11.038-27.5-24.5-3.697-22.281 5.137-36.948 26.5-44Z"/><path style="opacity:1" fill="#2b3f56" d="M349.5 305.5c28.501-.333 42.335 13.667 41.5 42-6.74 20.625-20.906 29.458-42.5 26.5-21.093-8.009-29.259-23.176-24.5-45.5 5.255-11.429 13.755-19.096 25.5-23Z"/><path style="opacity:1" fill="#263238" d="M583.5 311.5a8.43 8.43 0 0 1 4 .5c1.872 2.944 4.539 4.111 8 3.5.166 8.673 0 17.34-.5 26-1.777 2.29-3.944 3.957-6.5 5a162.597 162.597 0 0 0-.5-18c-1.129-1.641-2.629-2.641-4.5-3v-14Z"/><path style="opacity:1" fill="#fbfbfb" d="M245.5 348.5a45.782 45.782 0 0 1-1-12c3.51-14.665 12.843-21.498 28-20.5 19.009 6.521 24.509 19.021 16.5 37.5-7.885 10.179-18.052 13.346-30.5 9.5-6.279-3.111-10.613-7.945-13-14.5Z"/><path style="opacity:1" fill="#fafafb" d="M379.5 331.5a82.73 82.73 0 0 1 1 14c-4.706 14.528-14.706 20.695-30 18.5-16.522-6.877-21.689-18.71-15.5-35.5 11.627-15.181 24.96-16.848 40-5 2.157 2.317 3.657 4.984 4.5 8Z"/><path style="opacity:1" fill="#2d4158" d="M418.5 325.5c2.544-.396 4.711.271 6.5 2 .667 10 .667 20 0 30-3 2.667-6 2.667-9 0a210.395 210.395 0 0 1 0-29 10.515 10.515 0 0 0 2.5-3Z"/><path style="opacity:1" fill="#2a3e55" d="M260.5 335.5a112.97 112.97 0 0 1 15 .5c4 3 4 6 0 9a49.226 49.226 0 0 1-14 0c-3.544-2.873-3.877-6.04-1-9.5Z"/><path style="opacity:1" fill="#2b3f56" d="M349.5 335.5a112.97 112.97 0 0 1 15 .5c2.918 3.472 2.585 6.472-1 9a49.226 49.226 0 0 1-14 0c-2.612-3.164-2.612-6.331 0-9.5Z"/><path style="opacity:1" fill="#b5bdc4" d="M379.5 331.5c1.473 2.517 2.14 5.35 2 8.5-.006 2.033-.339 3.866-1 5.5a82.73 82.73 0 0 0-1-14Z"/><path style="opacity:1" fill="#2b3f56" d="M447.5 340.5a18.453 18.453 0 0 1 6 .5 9.454 9.454 0 0 1 1.5 2.5 42.479 42.479 0 0 1 0 13c-2.528 3.585-5.528 3.918-9 1-.667-5-.667-10 0-15 .717-.544 1.217-1.211 1.5-2Z"/><path style="opacity:1" fill="#2d4259" d="M476.5 340.5c2.865-.445 5.365.222 7.5 2 .667 5 .667 10 0 15-3.472 2.918-6.472 2.585-9-1-.997-5.55-.497-10.883 1.5-16Z"/><path style="opacity:1" fill="#2d4258" d="M506.5 340.5c2.865-.445 5.365.222 7.5 2 .667 5 .667 10 0 15-3 2.667-6 2.667-9 0-.667-5-.667-10 0-15 .717-.544 1.217-1.211 1.5-2Z"/><path style="opacity:1" fill="#263b52" d="M535.5 340.5c2.865-.445 5.365.222 7.5 2 .667 5 .667 10 0 15-2.418 2.18-5.084 2.513-8 1-.788-6.082-.621-12.082.5-18Z"/><path style="opacity:1" fill="#5d6d7e" d="M244.5 336.5a45.782 45.782 0 0 0 1 12 7.47 7.47 0 0 1-3-2 182.023 182.023 0 0 1 2-10Z"/><path style="opacity:1" fill="#718694" d="M588.5 347.5c-.324 6.854.009 13.521 1 20 0 .667-.333 1-1 1-1.333-7-1.333-14 0-21Z"/><path style="opacity:1" fill="#fbfbfb" d="m213.5 406.5 5 2.5 32 1-13 13-19 1-5 2.5v-20Z"/><path style="opacity:1" fill="#b3c4df" d="M527.5 410.5c-87.336-.333-174.669 0-262 1a31.147 31.147 0 0 0-2 2h-2a14.698 14.698 0 0 1 3-3.5c87.834-.832 175.501-.666 263 .5Z"/><path style="opacity:1" fill="#c3d4ef" d="M527.5 410.5a6.547 6.547 0 0 1 3 3h-267a31.147 31.147 0 0 1 2-2c87.331-1 174.664-1.333 262-1Z"/><path style="opacity:1" fill="#d2dff5" d="M261.5 413.5h269c.667 0 1 .333 1 1-90.001-.167-180.001 0-270 .5-1.614 2.127-3.614 3.627-6 4.5a25.658 25.658 0 0 1 6-6Z"/><path style="opacity:1" fill="#e4edfc" d="m531.5 414.5 9 8c-96 1.333-192 1.333-288 0a6.547 6.547 0 0 1 3-3c2.386-.873 4.386-2.373 6-4.5 89.999-.5 179.999-.667 270-.5Z"/><path style="opacity:1" fill="#627387" d="M252.5 422.5c96 1.333 192 1.333 288 0 .543.06.876.393 1 1a10515.629 10515.629 0 0 1-290 0c.124-.607.457-.94 1-1Z"/><path style="opacity:1" fill="#e3ecfb" d="M220.5 433.5c116.667-.167 233.334 0 350 .5 3.833 1.167 6.333 3.667 7.5 7.5.667 34.333.667 68.667 0 103-1.5 2.833-3.667 5-6.5 6.5-117 .667-234 .667-351 0-2.5-1.167-4.333-3-5.5-5.5a2807.846 2807.846 0 0 1 0-106c1.36-2.523 3.193-4.523 5.5-6Z"/><path style="opacity:1" fill="#2c4057" d="M260.5 458.5c14.398-2.431 26.231 1.902 35.5 13 10.573 18.464 8.073 34.964-7.5 49.5-19.378 11.187-35.878 8.02-49.5-9.5-9.613-18.383-6.446-34.216 9.5-47.5a94.836 94.836 0 0 1 12-5.5Z"/><path style="opacity:1" fill="#2b3f56" d="M347.5 458.5c25.714-2.442 40.381 9.058 44 34.5-2.443 21.776-14.61 33.276-36.5 34.5-15.211-1.528-25.544-9.528-31-24-4.274-21.455 3.559-36.455 23.5-45Z"/><path style="opacity:1" fill="#fafbfb" d="M245.5 500.5a52.392 52.392 0 0 1-1-13c6.673-18.268 19.007-23.434 37-15.5 12.129 9.848 14.296 21.681 6.5 35.5-12.019 12.534-24.685 13.201-38 2a28.51 28.51 0 0 1-4.5-9Z"/><path style="opacity:1" fill="#fafafb" d="M379.5 483.5a82.73 82.73 0 0 1 1 14c-3.891 14.028-13.225 20.528-28 19.5-15.492-4.8-21.992-15.3-19.5-31.5 7.377-15.938 19.211-20.605 35.5-14 5.078 2.743 8.745 6.743 11 12Z"/><path style="opacity:1" fill="#2d4158" d="M417.5 473.5c2.865-.445 5.365.222 7.5 2a306.347 306.347 0 0 1 0 35c-3.294 2.811-6.294 2.478-9-1a289.106 289.106 0 0 1 0-34c.717-.544 1.217-1.211 1.5-2Z"/><path style="opacity:1" fill="#2b3f56" d="M447.5 473.5c2.865-.445 5.365.222 7.5 2a289.106 289.106 0 0 1 0 34c-3.182 3.924-6.182 3.924-9 0a289.106 289.106 0 0 1 0-34c.717-.544 1.217-1.211 1.5-2Z"/><path style="opacity:1" fill="#2e4259" d="M476.5 473.5c2.865-.445 5.365.222 7.5 2a306.347 306.347 0 0 1 0 35c-3.374 2.905-6.374 2.572-9-1a289.106 289.106 0 0 1 0-34c.717-.544 1.217-1.211 1.5-2Z"/><path style="opacity:1" fill="#2d4158" d="M506.5 473.5c2.865-.445 5.365.222 7.5 2a289.106 289.106 0 0 1 0 34c-2.706 3.478-5.706 3.811-9 1a306.347 306.347 0 0 1 0-35c.717-.544 1.217-1.211 1.5-2ZM535.5 473.5c2.865-.445 5.365.222 7.5 2a306.347 306.347 0 0 1 0 35c-3.294 2.811-6.294 2.478-9-1a289.106 289.106 0 0 1 0-34c.717-.544 1.217-1.211 1.5-2ZM261.5 487.5a84.902 84.902 0 0 1 13 .5c4.444 2.111 5.111 5.111 2 9a64.218 64.218 0 0 1-16 0c-2.825-3.524-2.492-6.69 1-9.5Z"/><path style="opacity:1" fill="#2c4057" d="M349.5 487.5a98.432 98.432 0 0 1 14 .5c3.554 2.655 3.887 5.655 1 9-5 .667-10 .667-15 0-2.612-3.164-2.612-6.331 0-9.5Z"/><path style="opacity:1" fill="#b0b7c0" d="M379.5 483.5c1.473 2.517 2.14 5.35 2 8.5-.006 2.033-.339 3.866-1 5.5a82.73 82.73 0 0 0-1-14Z"/><path style="opacity:1" fill="#7a8895" d="M244.5 487.5a52.392 52.392 0 0 0 1 13c-.617-.111-1.117-.444-1.5-1-.812-4.189-.645-8.189.5-12Z"/><path style="opacity:1" fill="#f8f9f9" d="M583.5 555.5v26c-7.674.166-15.341 0-23-.5l-19-19 31-1a42.493 42.493 0 0 0 11-5.5Z"/><path style="opacity:1" fill="#f5f6f7" d="m213.5 559.5 6 1.5c10.349.168 20.683.668 31 1.5a469.033 469.033 0 0 1-18 18.5c-6.325.5-12.658.666-19 .5v-22Z"/><path style="opacity:1" fill="#becfea" d="M531.5 566.5h-270a514.367 514.367 0 0 1 3-4 11528.56 11528.56 0 0 1 263-.5 25.14 25.14 0 0 1 4 4.5Z"/><path style="opacity:1" fill="#e5eefc" d="M261.5 566.5h270c4.667 4 9 8.333 13 13l-224 2c-2.227.901-3.227 2.567-3 5h-18a4.934 4.934 0 0 0-.5-3c-.198 1.882-.698 3.548-1.5 5 .521-3.136-.479-5.47-3-7l-47-2 14-13Z"/><path style="opacity:1" fill="#9eabbd" d="m247.5 579.5 47 2a576.95 576.95 0 0 1-48-1c.124-.607.457-.94 1-1Z"/><path style="opacity:1" fill="#9facbe" d="M544.5 579.5c.543.06.876.393 1 1-74.997 1-149.997 1.333-225 1l224-2Z"/><path style="opacity:1" fill="#e4fcfc" d="M317.5 586.5c.359 1.871 1.359 3.371 3 4.5 65.999.5 131.999.667 198 .5a36.875 36.875 0 0 1-1 12 686.508 686.508 0 0 0-52 30.5c-5.064 1.012-9.397 3.345-13 7-6.744 2.402-12.744 6.069-18 11l-22 11a2929.62 2929.62 0 0 0-12.5 8.5 133.576 133.576 0 0 1-23.5-13.5 114.065 114.065 0 0 1-14-6 523.182 523.182 0 0 1-22-15 90.42 90.42 0 0 1-14-6l-27-17c-4.871-1.741-9.204-4.408-13-8a12.93 12.93 0 0 0-5-.5v-14a49.87 49.87 0 0 0 14-1 31.147 31.147 0 0 0 2-2c.802-1.452 1.302-3.118 1.5-5 .483.948.649 1.948.5 3h18Z"/><path style="opacity:1" fill="#fdfdfd" d="M213.5 591.5h56c-.166 6.009.001 12.009.5 18 5.97 6.53 13.137 11.03 21.5 13.5a27.816 27.816 0 0 1 8 6 420.445 420.445 0 0 0 32 17c3.705 4.342 8.372 7.009 14 8a643.917 643.917 0 0 0 29 18c2.861.54 5.528 1.54 8 3l11 7c4 .667 8 .667 12 0 6.962-5.648 14.628-9.981 23-13a679.07 679.07 0 0 0 23-15 24.569 24.569 0 0 0 8-3 185.768 185.768 0 0 1 20-13 42.916 42.916 0 0 0 13-7c5.048-1.356 9.381-4.023 13-8 7.768-3.043 14.934-7.21 21.5-12.5.5-6.325.666-12.658.5-19h56a651.277 651.277 0 0 1-1 51 7683.65 7683.65 0 0 1-184 106 97.288 97.288 0 0 0-12-5.5c-3.543-1.608-6.543-3.942-9-7-5.662-.917-10.329-3.583-14-8a78.488 78.488 0 0 1-23-13c-3.415-.406-6.082-2.072-8-5-8.372-3.019-16.038-7.352-23-13-5.093-1.382-9.426-4.049-13-8-6.4-2.062-12.067-5.396-17-10l-10-4-4-4a77.598 77.598 0 0 1-23-13 90.42 90.42 0 0 1-14-6l-4-4a46.99 46.99 0 0 1-10.5-5.5c-.5-16.997-.667-33.997-.5-51Z"/><path style="opacity:1" fill="#273339" d="M269.5 591.5h12v14a12.93 12.93 0 0 1 5 .5c3.796 3.592 8.129 6.259 13 8l27 17a90.42 90.42 0 0 0 14 6 523.182 523.182 0 0 0 22 15 114.065 114.065 0 0 0 14 6 133.576 133.576 0 0 0 23.5 13.5 2929.62 2929.62 0 0 1 12.5-8.5l22-11c5.256-4.931 11.256-8.598 18-11 3.603-3.655 7.936-5.988 13-7a686.508 686.508 0 0 1 52-30.5 36.875 36.875 0 0 0 1-12h9c.166 6.342 0 12.675-.5 19-6.566 5.29-13.732 9.457-21.5 12.5-3.619 3.977-7.952 6.644-13 8a42.916 42.916 0 0 1-13 7 185.768 185.768 0 0 0-20 13 24.569 24.569 0 0 1-8 3 679.07 679.07 0 0 1-23 15c-8.372 3.019-16.038 7.352-23 13-4 .667-8 .667-12 0l-11-7a24.569 24.569 0 0 0-8-3 643.917 643.917 0 0 1-29-18c-5.628-.991-10.295-3.658-14-8a420.445 420.445 0 0 1-32-17 27.816 27.816 0 0 0-8-6c-8.363-2.47-15.53-6.97-21.5-13.5a162.597 162.597 0 0 1-.5-18Z"/><path style="opacity:1" fill="#e4fdfc" d="M599.5 686.5c1.333.667 1.333.667 0 0ZM570.5 703.5c1.333.667 1.333.667 0 0ZM476.5 757.5c1.333.667 1.333.667 0 0Z"/></svg>