<?xml version="1.0" encoding="UTF-8"?><svg xmlns="http://www.w3.org/2000/svg" width="800" height="800" style="shape-rendering:geometricPrecision;text-rendering:geometricPrecision;image-rendering:optimizeQuality;fill-rule:evenodd;clip-rule:evenodd"><path style="opacity:1" fill="#e17975" d="M576.5-.5h9a2.429 2.429 0 0 0 .5 2c1.049-1.017 2.216-1.184 3.5-.5a20.495 20.495 0 0 0 2.5 3.5c1.356-.88 2.856-1.214 4.5-1v3c2.822 1.432 6.489 2.432 11 3v3c2.092.061 3.592 1.061 4.5 3 2.537-.677 4.537.323 6 3 2.361-.566 4.194.434 5.5 3l2-1c.35 2.067 2.017 3.067 5 3v3h6v3h5v3h6v3a27.247 27.247 0 0 0 9 3c-.219 1.175.114 2.175 1 3a6.846 6.846 0 0 1 4-1v3a8.435 8.435 0 0 1 4 .5c-1.154.914-.987 1.747.5 2.5 1.299-.466 2.799-.466 4.5 0v3h6v3h5v3c1.88-.27 3.213.396 4 2a5799.991 5799.991 0 0 0-52 0 3857.288 3857.288 0 0 1-38-20.5c-2.365-3.714-5.698-5.714-10-6-7.082-6.364-15.416-9.031-25-8a2844.997 2844.997 0 0 1-61 34.5c-6.137-.947-12.803-.947-20 0 .321-1.548 1.321-2.215 3-2v-3h6v-3a59.031 59.031 0 0 1 11-3v-3c1.808.009 3.475-.491 5-1.5-1.388-.89-1.222-1.39.5-1.5 2.071 1.167 3.571.5 4.5-2 6.434-2.343 12.767-5.343 19-9v-3a59.031 59.031 0 0 1 11-3 4.934 4.934 0 0 1 .5-3l1 1c1.995-2.247 4.495-3.247 7.5-3v-3h5v-3h6v-3c1.808.009 3.475-.491 5-1.5l-1-1a12.936 12.936 0 0 1 5-.5v-3c3.552.188 6.219-1.145 8-4Z"/><path style="opacity:1" fill="#273238" d="M633.5 57.5c.453.958 1.119 1.792 2 2.5 5.503 1.17 10.17 3.837 14 8a172.497 172.497 0 0 0 27 14c1.918 2.928 4.585 4.594 8 5 9.007 6.2 18.341 11.7 28 16.5a978.66 978.66 0 0 1 36 21.5 31.669 31.669 0 0 0 10 3.5c2.727 4.535 3.727 9.535 3 15v217a308.252 308.252 0 0 1-22 10.5l-8 6a377.475 377.475 0 0 1-23 12l-5 5a84.437 84.437 0 0 0-17 8.5 115793.52 115793.52 0 0 1-64 37 43161.589 43161.589 0 0 0-48 27v-14a3951.532 3951.532 0 0 0 158-90.5 84.545 84.545 0 0 1 18-8.5 7901.316 7901.316 0 0 0-1.5-216 2129.254 2129.254 0 0 1-37.5-21.5c-3.415-.406-6.082-2.072-8-5a91.311 91.311 0 0 1-23-13 457.332 457.332 0 0 0-22-11c-2.508-3.042-5.508-5.376-9-7a457.332 457.332 0 0 1-22-11l-24-15c-3.415-.406-6.082-2.072-8-5a90.401 90.401 0 0 0-14-6c-5.722-6.435-12.722-8.768-21-7-7.36 5.663-15.36 9.996-24 13-4.047 3.928-8.381 7.095-13 9.5-18.476 3.895-33.809 12.895-46 27-.06-.543-.393-.876-1-1a997.226 997.226 0 0 0-36 21.5 344.651 344.651 0 0 0 19 10.5 116.503 116.503 0 0 0-4 19 24.935 24.935 0 0 0-.5-7 273.56 273.56 0 0 0-24.5-15.5c-2.83-2.635-4.496-5.801-5-9.5a54.507 54.507 0 0 1 6-6.5 260.747 260.747 0 0 0 26-16c6.538-2.271 12.538-5.605 18-10 8.729-3.29 16.729-7.79 24-13.5a2844.997 2844.997 0 0 0 61-34.5c9.584-1.031 17.918 1.636 25 8 4.302.286 7.635 2.286 10 6a3857.288 3857.288 0 0 0 38 20.5Z"/><path style="opacity:1" fill="#273339" d="M297.5 57.5c7.289 5.668 15.289 10.168 24 13.5 5.462 4.395 11.462 7.729 18 10a446.599 446.599 0 0 0 38 22.5 997.803 997.803 0 0 0 57 32.5c3.492 1.624 6.492 3.958 9 7a119.574 119.574 0 0 0 12 5.5 100.4 100.4 0 0 0 2 14 178.455 178.455 0 0 1-31-17.5c-5.662-.917-10.329-3.583-14-8-5.086-1.414-9.419-4.081-13-8a71.52 71.52 0 0 1-18-10 198.572 198.572 0 0 1-36-21 288.172 288.172 0 0 0-21-10.5c-13.171-15.466-29.838-25.132-50-29a685.776 685.776 0 0 0-33-19.5 50.657 50.657 0 0 1-11.5-4.5A112.066 112.066 0 0 0 206.5 48a190.467 190.467 0 0 0-22 11c-3.492 1.624-6.492 3.958-9 7l-10 4-4 4a520.666 520.666 0 0 0-59 34l-9 3c-3.796 3.592-8.13 6.259-13 8A361.546 361.546 0 0 1 48 137.5c-.667 72-.667 144 0 216a7214.146 7214.146 0 0 0 125 72c.5-21.664.667-43.331.5-65a340.197 340.197 0 0 0-18-8.5 55.63 55.63 0 0 0-18-10 78.488 78.488 0 0 0-23-13 56.965 56.965 0 0 0-10.5-7.5l-.5-75.5c-.158-25.918.342-51.752 1.5-77.5a230.435 230.435 0 0 0 32.5-19.5c8.372-3.019 16.038-7.352 23-13a35.014 35.014 0 0 0 12-6.5 67.246 67.246 0 0 0-1 15 397.535 397.535 0 0 0-22 11.5c-5.201 4.797-11.201 8.13-18 10-3.908 3.449-8.242 6.116-13 8-3.357 1.512-5.357 4.012-6 7.5v133c3.427.933 6.76 2.1 10 3.5a10.515 10.515 0 0 0 3 2.5 1121.48 1121.48 0 0 1 55 31.5 36.078 36.078 0 0 1 3.5 4.5c.499 4.989.666 9.989.5 15 .167 18.336 0 36.67-.5 55-1.232 2.8-1.899 5.8-2 9-3.301 3.095-7.134 3.762-11.5 2-4.751-3.599-10.084-6.266-16-8a973.061 973.061 0 0 0-45-27 11919.507 11919.507 0 0 1-45-26c-3.18-1.395-6.18-3.228-9-5.5-3.96.349-6.626-1.317-8-5l-9.5-5.5a40.833 40.833 0 0 1-1.5-14v-186c-.37-10.389.13-20.723 1.5-31 3.467-1.5 6.967-3 10.5-4.5 12.03-7.167 24.03-14.333 36-21.5a740.714 740.714 0 0 0 32-17.5 55.63 55.63 0 0 1 18-10 75.667 75.667 0 0 1 9-6.5 19012.656 19012.656 0 0 1 79-44.5c4.872-.246 9.705-.746 14.5-1.5a3509.942 3509.942 0 0 0 60.5 34Z"/><path style="opacity:1" fill="#fdfdfd" d="M274.5 58.5c-45.333-5.815-77.833 11.852-97.5 53a89.009 89.009 0 0 0-4.5 18 35.014 35.014 0 0 1-12 6.5c-6.962 5.648-14.628 9.981-23 13a230.435 230.435 0 0 1-32.5 19.5 1518.643 1518.643 0 0 0-1.5 77.5l.5 75.5a56.965 56.965 0 0 1 10.5 7.5 78.488 78.488 0 0 1 23 13 55.63 55.63 0 0 1 18 10 340.197 340.197 0 0 1 18 8.5c.167 21.669 0 43.336-.5 65a7214.146 7214.146 0 0 1-125-72c-.667-72-.667-144 0-216A361.546 361.546 0 0 0 80.5 119c4.87-1.741 9.204-4.408 13-8l9-3a520.666 520.666 0 0 1 59-34l4-4 10-4c2.508-3.042 5.508-5.376 9-7a190.467 190.467 0 0 1 22-11A112.066 112.066 0 0 1 230 34.5a50.657 50.657 0 0 0 11.5 4.5 685.776 685.776 0 0 1 33 19.5ZM574.5 452.5c.167-16.003 0-32.003-.5-48a91.09 91.09 0 0 0-3.5-13 154.225 154.225 0 0 1 21-10.5 59.724 59.724 0 0 1 20-11c5.057-5.063 11.057-8.396 18-10 4.952-4.639 10.619-7.973 17-10 9.313-5.969 18.646-11.969 28-18 7.819-2.16 14.319-6.327 19.5-12.5.667-48.667.667-97.333 0-146a69.2 69.2 0 0 0-4.5-6.5 198.572 198.572 0 0 1-36-21 200.529 200.529 0 0 1-26-13.5c-6.611-37.78-28.277-62.28-65-73.5-13.002-3.002-26.002-3.168-39-.5 4.619-2.405 8.953-5.572 13-9.5 8.64-3.004 16.64-7.337 24-13 8.278-1.768 15.278.565 21 7a90.401 90.401 0 0 1 14 6c1.918 2.928 4.585 4.594 8 5l24 15a457.332 457.332 0 0 0 22 11c3.492 1.624 6.492 3.958 9 7a457.332 457.332 0 0 1 22 11 91.311 91.311 0 0 0 23 13c1.918 2.928 4.585 4.594 8 5a2129.254 2129.254 0 0 0 37.5 21.5 7901.316 7901.316 0 0 1 1.5 216 84.545 84.545 0 0 0-18 8.5 3951.532 3951.532 0 0 1-158 90.5Z"/><path style="opacity:1" fill="#df7874" d="M317.5 57.5c-7.035-1.272-13.701-1.272-20 0a3509.942 3509.942 0 0 1-60.5-34 138.219 138.219 0 0 1-14.5 1.5 19012.656 19012.656 0 0 0-79 44.5h-52c1.214-2.425 3.214-3.925 6-4.5l-2-1a18.436 18.436 0 0 1 6-.5v-3a87.51 87.51 0 0 0 14-5v-3h6v-3h5v-3c1.701-.466 3.201-.466 4.5 0 3.279-4.047 7.946-7.047 14-9a18.264 18.264 0 0 0 5-4l1 1c1.049-1.607 2.549-2.273 4.5-2v-3h5v-3h6v-3c4.612-1.195 9.279-2.862 14-5v-3c1.701-.466 3.201-.466 4.5 0 .908-1.939 2.408-2.939 4.5-3v-3h6v-3c1.788.285 3.455-.048 5-1a38.767 38.767 0 0 0 7-4.5 49.25 49.25 0 0 1 14 0c2.025 1.677 4.359 2.677 7 3-1.134 1.016-.801 1.683 1 2l5 1-1 1c2.622 3.073 5.955 4.573 10 4.5v3h6v3c3.191.262 5.858 1.596 8 4a9.864 9.864 0 0 0 6 1v3c3.58 1.22 7.247 2.386 11 3.5l-2 1c2.767.678 4.934 2.178 6.5 4.5l1-1c3.769 1.797 7.102 4.13 10 7a3.942 3.942 0 0 1 2-1c1.482 1.612 3.315 2.612 5.5 3v3h6v3h5v3h6v3c1.679-.215 2.679.452 3 2Z"/><path style="opacity:1" fill="#1f2024" d="M274.5 58.5c20.162 3.868 36.829 13.534 50 29 17.05 21.903 23.05 46.569 18 74a97.36 97.36 0 0 0-3 12l-8 16a64.322 64.322 0 0 0-6 9c-26.179 27.799-57.846 36.799-95 27l-12-5c-11.517-6.437-21.517-14.771-30-25-10.655-15.297-16.321-32.297-17-51a67.246 67.246 0 0 1 1-15 89.009 89.009 0 0 1 4.5-18c19.667-41.148 52.167-58.815 97.5-53Z"/><path style="opacity:1" fill="#1e1f23" d="M627.5 132.5a59.567 59.567 0 0 1 1 14c-1.459 18.383-7.459 35.05-18 50-8.476 9.479-18.143 17.479-29 24a85.14 85.14 0 0 1-16 6c-37.903 8.755-69.07-1.912-93.5-32-6.73-9.795-11.564-20.462-14.5-32a100.4 100.4 0 0 1-2-14v-13a116.503 116.503 0 0 1 4-19c3.718-11.784 9.718-22.118 18-31 12.191-14.105 27.524-23.105 46-27 12.998-2.668 25.998-2.502 39 .5 36.723 11.22 58.389 35.72 65 73.5Z"/><path style="opacity:1" fill="#a8afb8" d="M293.5 209.5c.315-2.711-.352-5.044-2-7 2.544.396 4.711-.271 6.5-2 .667-31.667.667-63.333 0-95-2.277-7.944-7.444-12.778-15.5-14.5a676.216 676.216 0 0 0-52 0c-6.108 2.441-10.608 6.608-13.5 12.5a142.774 142.774 0 0 0-1.5 28c-3.207.526-5.707 2.192-7.5 5-.667 11-.667 22 0 33 1.167 3.833 3.667 6.333 7.5 7.5 3.652.499 7.318.665 11 .5-.166 9.339 0 18.673.5 28 1.129 1.641 2.629 2.641 4.5 3v6c-37.129-16.571-53.296-45.238-48.5-86 8.251-32.584 28.751-52.751 61.5-60.5 41.066-4.062 69.566 12.771 85.5 50.5 9.574 34.892.407 63.726-27.5 86.5a28.53 28.53 0 0 1-9 4.5Z"/><path style="opacity:1" fill="#a7aeb7" d="m546.5 67.5-2 3c-1.902-1.01-3.902-1.178-6-.5a468.018 468.018 0 0 1-19 22c-4.6-.011-8.933.989-13 3L480 123.5c-4.779 7.225-4.445 14.225 1 21l46.5 40.5-11 1c-3.478 2.706-3.811 5.706-1 9 23 .667 46 .667 69 0 6.71-2.909 9.71-8.076 9-15.5.862-5.775-1.138-10.275-6-13.5a133.406 133.406 0 0 1-20.5-13.5c-3.503-9.672-7.003-19.338-10.5-29a314.469 314.469 0 0 1 25.5-32c1.813-2.578 1.98-5.245.5-8l2-3c27.04 19.921 37.54 46.588 31.5 80-11.325 36.319-35.992 55.985-74 59-40.225-2.892-65.225-23.892-75-63-4.218-44.065 14.615-73.232 56.5-87.5a109.108 109.108 0 0 1 23-1.5Z"/><path style="opacity:1" fill="#f9db7d" d="M546.5 67.5c13.973.768 26.64 5.101 38 13l-2 3a11.596 11.596 0 0 0-7-.5l-28 33c-5 .667-10 .667-15 0-5.389-4.167-7.223-9.667-5.5-16.5a296.322 296.322 0 0 0 19-22c.826-2.712.326-5.045-1.5-7l2-3Z"/><path style="opacity:1" fill="#d47270" d="M91.5 69.5h52a75.667 75.667 0 0 0-9 6.5 55.63 55.63 0 0 0-18 10 740.714 740.714 0 0 1-32 17.5c-17.006-1.321-34.339-1.321-52 0v-3a417.79 417.79 0 0 0 15-7 32.686 32.686 0 0 0 8.5-6l1 1c1.049-1.607 2.549-2.273 4.5-2v-3a59.029 59.029 0 0 1 11-3 4.932 4.932 0 0 1 .5-3l1 1c2.015-3.065 4.515-4.065 7.5-3v-3h5v-3h5ZM317.5 57.5a108.72 108.72 0 0 0 11 3v3c1.699-.16 3.366.007 5 .5l-1 1c1.525 1.009 3.192 1.509 5 1.5v3h6v3h5v3c2.985-1.065 5.485-.065 7.5 3l1-1c.483.948.649 1.948.5 3h5v3h6v3c2.133 1.386 5.133 2.386 9 3v3c2.908-.238 5.242.762 7 3l2-1c.35 2.067 2.017 3.067 5 3v3h6v3c-6.212-.283-12.879-.283-20 0a446.599 446.599 0 0 1-38-22.5c-6.538-2.271-12.538-5.605-18-10-8.711-3.332-16.711-7.832-24-13.5 6.299-1.272 12.965-1.272 20 0Z"/><path style="opacity:1" fill="#d37270" d="M499.5 57.5c-7.271 5.71-15.271 10.21-24 13.5-5.462 4.395-11.462 7.729-18 10a260.747 260.747 0 0 1-26 16 54.507 54.507 0 0 0-6 6.5h-25a1199.924 1199.924 0 0 1 33-19.5c.837-1.011 1.17-2.178 1-3.5 4.493-.216 7.993-2.216 10.5-6 1.011.837 2.178 1.17 3.5 1v-3a59.031 59.031 0 0 0 11-3v-3c1.808.009 3.475-.491 5-1.5l-1-1a12.935 12.935 0 0 1 5-.5v-3c3.937-.204 7.604-1.204 11-3 7.197-.947 13.863-.947 20 0Z"/><path style="opacity:1" fill="#1f2024" d="M544.5 70.5c1.826 1.955 2.326 4.288 1.5 7a296.322 296.322 0 0 1-19 22c-1.723 6.833.111 12.333 5.5 16.5 5 .667 10 .667 15 0l28-33a11.596 11.596 0 0 1 7 .5c1.48 2.755 1.313 5.422-.5 8a314.469 314.469 0 0 0-25.5 32c3.497 9.662 6.997 19.328 10.5 29a133.406 133.406 0 0 0 20.5 13.5c4.862 3.225 6.862 7.725 6 13.5.71 7.424-2.29 12.591-9 15.5-23 .667-46 .667-69 0-2.811-3.294-2.478-6.294 1-9l11-1-46.5-40.5c-5.445-6.775-5.779-13.775-1-21L506.5 95c4.067-2.011 8.4-3.011 13-3a468.018 468.018 0 0 0 19-22c2.098-.678 4.098-.51 6 .5Z"/><path style="opacity:1" fill="#d57370" d="M685.5 57.5a211.06 211.06 0 0 1 16 6.5l-2 1c2.522.61 4.522 1.943 6 4 1.634.493 3.301.66 5 .5v3c2.908-.238 5.242.762 7 3 .951-.826 1.951-.992 3-.5l-1 1a6.977 6.977 0 0 1 3.5 2.5l1-1c.483.948.649 1.948.5 3h6v3h5v3c1.951-.273 3.451.393 4.5 2l1-1c6 4.386 12.5 7.886 19.5 10.5l-1 1c1.525 1.009 3.192 1.509 5 1.5v3a9388.657 9388.657 0 0 0-52 0 229.306 229.306 0 0 1-28-16.5c-3.415-.406-6.082-2.072-8-5a172.497 172.497 0 0 1-27-14c-3.83-4.163-8.497-6.83-14-8-.881-.708-1.547-1.542-2-2.5 17.493-.078 34.827-.078 52 0Z"/><path style="opacity:1" fill="#f6f6f6" d="M477.5 85.5c-8.282 8.882-14.282 19.216-18 31a344.651 344.651 0 0 1-19-10.5 997.226 997.226 0 0 1 36-21.5c.607.124.94.457 1 1Z"/><path style="opacity:1" fill="#fdfdfd" d="M324.5 87.5a288.172 288.172 0 0 1 21 10.5 198.572 198.572 0 0 0 36 21 71.52 71.52 0 0 0 18 10c3.581 3.919 7.914 6.586 13 8 3.671 4.417 8.338 7.083 14 8a178.455 178.455 0 0 0 31 17.5c2.936 11.538 7.77 22.205 14.5 32 24.43 30.088 55.597 40.755 93.5 32a42.47 42.47 0 0 1 5 1.5 50.642 50.642 0 0 0 12 7.5 1734.395 1734.395 0 0 1 .5 102 249.84 249.84 0 0 1-22.5 11.5c-6.274 5.898-13.607 9.731-22 11.5-3.897-.555-7.563-1.555-11-3-.331-29.171.002-58.171 1-87h8a40.914 40.914 0 0 0 .5 9c2.626 3.572 5.626 3.905 9 1 .498-3.317.665-6.65.5-10 3.35.165 6.683-.002 10-.5 2.873-3.579 2.54-6.745-1-9.5-2.448-.973-5.115-1.306-8-1 .306-2.885-.027-5.552-1-8-3.088-3.958-6.255-3.958-9.5 0a40.914 40.914 0 0 0-.5 9 40.914 40.914 0 0 0-9 .5c-1.256.417-1.923 1.25-2 2.5-.768.763-1.268 1.763-1.5 3-1.006-3.39-3.006-4.39-6-3a116.512 116.512 0 0 0-13.5-10.5 189.327 189.327 0 0 1-22-11.5c4.892-9.474 3.558-17.974-4-25.5-11.678-6.309-21.345-4.142-29 6.5-2.619-2.085-5.619-3.585-9-4.5-4.933-4.604-10.6-7.938-17-10-6.962-5.648-14.628-9.981-23-13a773.931 773.931 0 0 1-23-15c-6.946-1.608-12.946-4.942-18-10-6.102-2.096-11.769-4.929-17-8.5 5.05-27.431-.95-52.097-18-74Z"/><path style="opacity:1" fill="#1e1f22" d="M291.5 202.5c-.958-.453-1.792-1.119-2.5-2l-1-92c-1.167-3.833-3.667-6.333-7.5-7.5a552.224 552.224 0 0 0-47 0 25.55 25.55 0 0 0-6.5 5.5c-.5 8.327-.666 16.66-.5 25 10.006-.166 20.006 0 30 .5 9.391 4.072 12.225 10.906 8.5 20.5-1.167 2.5-3 4.333-5.5 5.5 1.141 5.75 1.307 11.584.5 17.5-3 2.667-6 2.667-9 0l-1-13-2.5-2.5-20-1c-2.559-3.075-2.559-6.075 0-9l27-1c2.667-2 2.667-4 0-6a684.346 684.346 0 0 0-37-.5c-.166 8.007 0 16.007.5 24a73.396 73.396 0 0 0 11.5 1.5c3.083.786 5.249 2.619 6.5 5.5a256.122 256.122 0 0 1 0 32c-.918 1.876-2.418 2.876-4.5 3-1.871-.359-3.371-1.359-4.5-3-.5-9.327-.666-18.661-.5-28a60.931 60.931 0 0 1-11-.5c-3.833-1.167-6.333-3.667-7.5-7.5-.667-11-.667-22 0-33 1.793-2.808 4.293-4.474 7.5-5a142.774 142.774 0 0 1 1.5-28c2.892-5.892 7.392-10.059 13.5-12.5a676.216 676.216 0 0 1 52 0c8.056 1.722 13.223 6.556 15.5 14.5.667 31.667.667 63.333 0 95-1.789 1.729-3.956 2.396-6.5 2Z"/><path style="opacity:1" fill="#f9db7d" d="M291.5 202.5c1.648 1.956 2.315 4.289 2 7-19.747 11.296-40.414 12.963-62 5v-6c2.082-.124 3.582-1.124 4.5-3a256.122 256.122 0 0 0 0-32c-1.251-2.881-3.417-4.714-6.5-5.5a73.396 73.396 0 0 1-11.5-1.5c-.5-7.993-.666-15.993-.5-24 12.338-.167 24.671 0 37 .5 2.667 2 2.667 4 0 6l-27 1c-2.559 2.925-2.559 5.925 0 9l20 1 2.5 2.5 1 13c3 2.667 6 2.667 9 0 .807-5.916.641-11.75-.5-17.5 2.5-1.167 4.333-3 5.5-5.5 3.725-9.594.891-16.428-8.5-20.5-9.994-.5-19.994-.666-30-.5-.166-8.34 0-16.673.5-25a25.55 25.55 0 0 1 6.5-5.5 552.224 552.224 0 0 1 47 0c3.833 1.167 6.333 3.667 7.5 7.5l1 92c.708.881 1.542 1.547 2.5 2Z"/><path style="opacity:1" fill="#c76c6b" d="M397.5 103.5h28c.504 3.699 2.17 6.865 5 9.5a273.56 273.56 0 0 1 24.5 15.5c.497 2.31.663 4.643.5 7v13a119.574 119.574 0 0 1-12-5.5c-2.508-3.042-5.508-5.376-9-7a997.803 997.803 0 0 1-57-32.5c7.121-.283 13.788-.283 20 0Z"/><path style="opacity:1" fill="#ca6e6c" d="M764.5 103.5h6v3h5v3c2.041.354 3.874.354 5.5 0 .483.948.649 1.948.5 3 2.836 1.276 5.836 1.942 9 2 1.602 4.486 2.268 9.153 2 14h-34a31.669 31.669 0 0 1-10-3.5 978.66 978.66 0 0 0-36-21.5c17.512-.048 34.846-.048 52 0Z"/><path style="opacity:1" fill="#e7eff2" d="M513.5 102.5h3c-.965 10.914 3.368 18.747 13 23.5 5.696.17 11.362.67 17 1.5a1861.84 1861.84 0 0 0 12.5 32l4.5 4.5a187.733 187.733 0 0 1 19.5 12.5c.978 3.169.478 6.003-1.5 8.5l-18.5.5c-6.935.13-13.768-.37-20.5-1.5a1831.446 1831.446 0 0 1-54.5-47.5c-1.209-3.768-.209-6.768 3-9a4496.62 4496.62 0 0 1 47.5 42.5c5.833.833 8.333-1.667 7.5-7.5l-47-42c-.667-.667-.667-1.333 0-2a108.96 108.96 0 0 0 14.5-16Z"/><path style="opacity:1" fill="#273238" d="M627.5 132.5a200.529 200.529 0 0 0 26 13.5 198.572 198.572 0 0 0 36 21 69.2 69.2 0 0 1 4.5 6.5c.667 48.667.667 97.333 0 146-5.181 6.173-11.681 10.34-19.5 12.5a12318.477 12318.477 0 0 1-28 18c-6.381 2.027-12.048 5.361-17 10-6.943 1.604-12.943 4.937-18 10a59.724 59.724 0 0 0-20 11 154.225 154.225 0 0 0-21 10.5 54.343 54.343 0 0 1-4-9c1.712-3.211 4.379-5.044 8-5.5a179.17 179.17 0 0 1 28-16c4.117-3.541 8.784-6.208 14-8l4-4a2766.924 2766.924 0 0 1 31-16.5 931.793 931.793 0 0 1 29-17.5 12.93 12.93 0 0 1 5-.5c.331-28.505-.002-56.838-1-85-1.726-2.32-2.393-4.987-2-8a507.055 507.055 0 0 0-1-45 8070.098 8070.098 0 0 1-53-30 59.567 59.567 0 0 0-1-14Z"/><path style="opacity:1" fill="#c56b6a" d="M84.5 103.5c-11.97 7.167-23.97 14.333-36 21.5-3.533 1.5-7.033 3-10.5 4.5a184.542 184.542 0 0 0-1.5 31h-30c.046-15.316.046-30.483 0-45.5a169.104 169.104 0 0 0 15-5.5v-3a58.967 58.967 0 0 0 11-3c17.661-1.321 34.994-1.321 52 0Z"/><path style="opacity:1" fill="#bf6868" d="M758.5 128.5h34v52h-30a342.787 342.787 0 0 0-1-37c.727-5.465-.273-10.465-3-15Z"/><path style="opacity:1" fill="#273339" d="M342.5 161.5c5.231 3.571 10.898 6.404 17 8.5 5.054 5.058 11.054 8.392 18 10a773.931 773.931 0 0 0 23 15c8.372 3.019 16.038 7.352 23 13 6.4 2.062 12.067 5.396 17 10 3.381.915 6.381 2.415 9 4.5a61.26 61.26 0 0 0-1 13 77.506 77.506 0 0 0-21-10.5l-5-5a263.322 263.322 0 0 1-17-9.5 202.471 202.471 0 0 1-23-13.5c-3.415-.406-6.082-2.072-8-5a81.308 81.308 0 0 1-19-11 72.708 72.708 0 0 1-16-7.5 97.36 97.36 0 0 1 3-12Z"/><path style="opacity:1" fill="#202125" d="M497.5 185.5c3.149-.289 6.149.211 9 1.5 1.288 2.466 1.288 4.966 0 7.5-9.689 2.982-12.689-.018-9-9Z"/><path style="opacity:1" fill="#b16163" d="M6.5 160.5h30v51h-30v-51Z"/><path style="opacity:1" fill="#b26264" d="M171.5 144.5c.679 18.703 6.345 35.703 17 51a1406.593 1406.593 0 0 1-75 1c.321-5.195-.013-10.195-1-15 .643-3.488 2.643-5.988 6-7.5 4.758-1.884 9.092-4.551 13-8 6.799-1.87 12.799-5.203 18-10a397.535 397.535 0 0 1 22-11.5Z"/><path style="opacity:1" fill="#b26263" d="M628.5 146.5a8070.098 8070.098 0 0 0 53 30v20h-71c10.541-14.95 16.541-31.617 18-50Z"/><path style="opacity:1" fill="#af6062" d="M762.5 180.5h30v31h-30v-31Z"/><path style="opacity:1" fill="#273339" d="M331.5 189.5c6.635 2.281 12.635 5.781 18 10.5l5 1c4.88 3.72 9.88 7.22 15 10.5 1.932 2.677 2.432 5.677 1.5 9-5.242 6.126-11.742 10.126-19.5 12a27.43 27.43 0 0 0-2-11 98.534 98.534 0 0 0 6.5-4c.617-.949.451-1.782-.5-2.5a64.556 64.556 0 0 0-14-6c-5.017-4.221-10.35-7.721-16-10.5a64.322 64.322 0 0 1 6-9Z"/><path style="opacity:1" fill="#ab5e61" d="M339.5 173.5a72.708 72.708 0 0 0 16 7.5 81.308 81.308 0 0 0 19 11c1.918 2.928 4.585 4.594 8 5a202.471 202.471 0 0 0 23 13.5c-11.822.995-23.822 1.328-36 1-5.12-3.28-10.12-6.78-15-10.5l-5-1c-5.365-4.719-11.365-8.219-18-10.5l8-16Z"/><path style="opacity:1" fill="#fdfdfd" d="M325.5 198.5c5.65 2.779 10.983 6.279 16 10.5a64.556 64.556 0 0 1 14 6c.951.718 1.117 1.551.5 2.5a98.534 98.534 0 0 1-6.5 4c-7.655-9.721-16.988-11.554-28-5.5-7.183 6.663-8.849 14.496-5 23.5-1.236 2.328-3.236 3.494-6 3.5-11.204 8.403-23.204 15.236-36 20.5-.453-.958-1.119-1.792-2-2.5a40.914 40.914 0 0 0-9-.5 40.914 40.914 0 0 0-.5-9c-3.333-4-6.667-4-10 0a40.914 40.914 0 0 0-.5 9 40.914 40.914 0 0 0-9 .5c-2.667 3-2.667 6 0 9 2.982.498 5.982.665 9 .5a40.914 40.914 0 0 0 .5 9c2.626 3.572 5.626 3.905 9 1 1.316-3.188 1.816-6.522 1.5-10h6v88c-24.646 5.811-39.146 21.145-43.5 46a4288.356 4288.356 0 0 0 0 131c1.417 8.168 4.917 15.168 10.5 21-7.482.992-15.148 1.325-23 1v-322a239.706 239.706 0 0 1 12-5.5 208.311 208.311 0 0 0 5-4.5c37.154 9.799 68.821.799 95-27Z"/><path style="opacity:1" fill="#a75c5f" d="M112.5 181.5c.987 4.805 1.321 9.805 1 15 25.172.331 50.172-.002 75-1 8.483 10.229 18.483 18.563 30 25-3.724 2.35-7.724 4.35-12 6h-93c.315-3.871-.018-7.538-1-11v-34ZM681.5 176.5a507.055 507.055 0 0 1 1 45c-.951 1.419-1.284 3.085-1 5h-90a4.934 4.934 0 0 1-3-.5c-1.969-2.489-4.302-4.322-7-5.5 10.857-6.521 20.524-14.521 29-24h71v-20Z"/><path style="opacity:1" fill="#1e1f23" d="M349.5 221.5a27.43 27.43 0 0 1 2 11c-3.65 13.491-12.317 18.825-26 16-4-2-7-5-9-9-3.849-9.004-2.183-16.837 5-23.5 11.012-6.054 20.345-4.221 28 5.5ZM482.5 241.5c-2.757 3.079-6.09 5.412-10 7-9.077 1.782-16.41-.884-22-8-.296-1.903-.963-3.57-2-5a61.26 61.26 0 0 1 1-13c7.655-10.642 17.322-12.809 29-6.5 7.558 7.526 8.892 16.026 4 25.5Z"/><path style="opacity:.998" fill="#273238" d="m218.5 220.5 12 5a208.311 208.311 0 0 1-5 4.5 239.706 239.706 0 0 0-12 5.5v322c7.852.325 15.518-.008 23-1 1.879.841 3.879 1.175 6 1 .256-3.769-.077-7.436-1-11 .83-9.491 1.33-19.158 1.5-29l1.5-1.5a484.008 484.008 0 0 1 44 0l1.5 1.5c.171 7.179.671 14.179 1.5 21-1.27 6.463-1.27 12.796 0 19 12.671-.167 25.338 0 38 .5 2.363.589 3.363 2.089 3 4.5h40v-35c-8.007.166-16.007 0-24-.5l-1.5-1.5a333.527 333.527 0 0 1 .5-44.5 351.2 351.2 0 0 1 37-1.5 351.2 351.2 0 0 1 37 1.5 1671.862 1671.862 0 0 1 1 81.5h34c-.167-27.002 0-54.002.5-81a9.454 9.454 0 0 1 2.5-1.5 159.141 159.141 0 0 0 18-1.5c3.564.923 7.231 1.256 11 1a784.68 784.68 0 0 0 56-1c3.228.914 6.561 1.247 10 1h9v-34c.995 11.154 1.328 22.488 1 34h10a51.29 51.29 0 0 1 16 1.5 48.558 48.558 0 0 0 5 6.5v137a162.597 162.597 0 0 1-.5 18c-1.887 1.526-2.887 3.526-3 6a40.914 40.914 0 0 0-.5 9c-.328 10.846.006 21.513 1 32 .166 6.342 0 12.675-.5 19a11.333 11.333 0 0 1-1.5 3.5 268.963 268.963 0 0 1-39 1.5 750.264 750.264 0 0 0-67-.5 23965 23965 0 0 1-76 44 92.109 92.109 0 0 0-10.5 2.5 49.001 49.001 0 0 1-10.5-3 12090.897 12090.897 0 0 1-121-70c-3.097-1.792-6.43-3.292-10-4.5a114.425 114.425 0 0 0-30-18 55.63 55.63 0 0 0-18-10 18.839 18.839 0 0 0-6.5-5.5 647.854 647.854 0 0 1-.5-36c.584-3.483-.249-6.483-2.5-9a462.27 462.27 0 0 1 0-43c.717-.544 1.217-1.211 1.5-2a1260.363 1260.363 0 0 0 1-71v-227c-.166-9.672 0-19.339.5-29a31.447 31.447 0 0 0 4.5-5c4.276-1.65 8.276-3.65 12-6Z"/><path style="opacity:1" fill="#263238" d="M581.5 220.5c2.698 1.178 5.031 3.011 7 5.5a4.934 4.934 0 0 0 3 .5 30.233 30.233 0 0 1 3.5 3c.5 7.993.666 15.993.5 24v74c2.903 12.255-1.764 19.755-14 22.5-8.809 7.321-18.476 13.154-29 17.5a68.694 68.694 0 0 0-14-7c8.393-1.769 15.726-5.602 22-11.5a249.84 249.84 0 0 0 22.5-11.5c.833-34.005.667-68.005-.5-102a50.642 50.642 0 0 1-12-7.5 42.47 42.47 0 0 0-5-1.5 85.14 85.14 0 0 0 16-6Z"/><path style="opacity:1" fill="#a5acb5" d="M330.5 222.5c8.142-.019 11.308 3.981 9.5 12-4.839 5.269-9.505 5.269-14 0-1.691-5.369-.191-9.369 4.5-12ZM464.5 222.5c8.142-.019 11.308 3.981 9.5 12-4.839 5.269-9.505 5.269-14 0-1.691-5.369-.191-9.369 4.5-12Z"/><path style="opacity:1" fill="#9e585c" d="M405.5 210.5a263.322 263.322 0 0 0 17 9.5l5 5a77.506 77.506 0 0 1 21 10.5c1.037 1.43 1.704 3.097 2 5a441.579 441.579 0 0 1-42 1c-25.262-1.516-48.262 4.818-69 19-11.179.328-22.179-.005-33-1a163.156 163.156 0 0 0 19-11c13.683 2.825 22.35-2.509 26-16 7.758-1.874 14.258-5.874 19.5-12 .932-3.323.432-6.323-1.5-9 12.178.328 24.178-.005 36-1ZM761.5 143.5a342.787 342.787 0 0 1 1 37v31h30v49h-30c.323-6.522-.01-12.855-1-19v-98Z"/><path style="opacity:1" fill="#9a565a" d="M112.5 215.5c.982 3.462 1.315 7.129 1 11h93a31.447 31.447 0 0 1-4.5 5c-.5 9.661-.666 19.328-.5 29h-88c.302-2.559-.032-4.893-1-7v-38ZM682.5 221.5c-.393 3.013.274 5.68 2 8v31h-88c.302-2.559-.032-4.893-1-7 .166-8.007 0-16.007-.5-24a30.233 30.233 0 0 0-3.5-3h90c-.284-1.915.049-3.581 1-5Z"/><path style="opacity:1" fill="#263238" d="M316.5 239.5c2 4 5 7 9 9a163.156 163.156 0 0 1-19 11 307.808 307.808 0 0 0-24.5 15c-.5 23.331-.667 46.664-.5 70v13a45.782 45.782 0 0 0-12 1v-88c4.447-.6 6.113-2.933 5-7 12.796-5.264 24.796-12.097 36-20.5 2.764-.006 4.764-1.172 6-3.5Z"/><path style="opacity:1" fill="#9b565b" d="M6.5 211.5h30v49h-30v-49Z"/><path style="opacity:1" fill="#1f2023" d="M408.5 241.5c28.481 3.074 52.148 15.407 71 37 9.959 1.127 16.459 6.46 19.5 16a4044.375 4044.375 0 0 1 17.5 43 102.312 102.312 0 0 1 2 20h9c3.437 1.445 7.103 2.445 11 3a68.694 68.694 0 0 1 14 7c4.695 5.026 9.361 10.026 14 15a54.343 54.343 0 0 0 4 9 91.09 91.09 0 0 1 3.5 13c.5 15.997.667 31.997.5 48v27h-10c.328-11.512-.005-22.846-1-34a121.862 121.862 0 0 0-22 1 142.695 142.695 0 0 1 13 33c-3.439.247-6.772-.086-10-1a2286.471 2286.471 0 0 1-35.5-83 730.199 730.199 0 0 1-2-51 54.804 54.804 0 0 0-4-14 905.577 905.577 0 0 1-16-37c-1.319-1.987-3.152-3.154-5.5-3.5l-14.5-.5a73.184 73.184 0 0 0-16.5 1.5c-4.711 4.14-6.211 9.306-4.5 15.5a184.504 184.504 0 0 1 13 34c1.017 17.996 2.017 35.996 3 54a4158.52 4158.52 0 0 1 26.5 85c-3.769.256-7.436-.077-11-1a341.27 341.27 0 0 0-17-48c-28.606 19.544-59.606 24.378-93 14.5a147.373 147.373 0 0 1-29-14.5 7479.282 7479.282 0 0 0-37.5 113c-2.435 5.215-5.601 9.882-9.5 14-1.27-6.204-1.27-12.537 0-19a11414.37 11414.37 0 0 1 45.5-140l2-10 1-46a289.548 289.548 0 0 1 14-37c2.166-7.499-.334-12.666-7.5-15.5a210.395 210.395 0 0 0-29 0 11.532 11.532 0 0 0-4.5 3.5 754.332 754.332 0 0 0-20 48 778.309 778.309 0 0 0-2 52 2416.766 2416.766 0 0 1-36 86c-1.864 2.707-4.364 3.541-7.5 2.5-1.48-1.299-2.146-2.966-2-5a242.766 242.766 0 0 1 12-30.5c-7.148-.992-14.481-1.325-22-1-.331 29.171.002 58.171 1 87 .143 5.256 1.81 9.923 5 14 .923 3.564 1.256 7.231 1 11-2.121.175-4.121-.159-6-1-5.583-5.832-9.083-12.832-10.5-21a4288.356 4288.356 0 0 1 0-131c4.354-24.855 18.854-40.189 43.5-46a45.782 45.782 0 0 1 12-1v-13a513.199 513.199 0 0 1 22.5-57c4.201-5.365 9.701-8.365 16.5-9 5.749-6.753 12.083-12.753 19-18 20.738-14.182 43.738-20.516 69-19Z"/><path style="opacity:1" fill="#263238" d="M482.5 241.5a189.327 189.327 0 0 0 22 11.5 116.512 116.512 0 0 1 13.5 10.5c2.994-1.39 4.994-.39 6 3 .232-1.237.732-2.237 1.5-3v6c1.291-.237 2.291.096 3 1a1893.431 1893.431 0 0 0-1 87h-9a102.312 102.312 0 0 0-2-20c.333-21.011 0-42.011-1-63a1406.745 1406.745 0 0 1-43-26c3.91-1.588 7.243-3.921 10-7Z"/><path style="opacity:1" fill="#202125" d="M274.5 263.5c1.113 4.067-.553 6.4-5 7h-6c.316 3.478-.184 6.812-1.5 10-3.374 2.905-6.374 2.572-9-1a40.914 40.914 0 0 1-.5-9 40.914 40.914 0 0 1-9-.5c-2.667-3-2.667-6 0-9a40.914 40.914 0 0 1 9-.5 40.914 40.914 0 0 1 .5-9c3.333-4 6.667-4 10 0 .498 2.982.665 5.982.5 9a40.914 40.914 0 0 1 9 .5c.881.708 1.547 1.542 2 2.5Z"/><path style="opacity:1" fill="#1d1e22" d="M546.5 251.5v9h9c3.54 2.755 3.873 5.921 1 9.5-3.317.498-6.65.665-10 .5a50.464 50.464 0 0 1-.5 10c-3.374 2.905-6.374 2.572-9-1a40.914 40.914 0 0 1-.5-9h-8c-.709-.904-1.709-1.237-3-1v-6c.077-1.25.744-2.083 2-2.5a40.914 40.914 0 0 1 9-.5 40.914 40.914 0 0 1 .5-9c3.245-3.958 6.412-3.958 9.5 0Z"/><path style="opacity:1" fill="#fbdd7e" d="M385.5 252.5c30.851-3.216 57.517 5.617 80 26.5-21.284-2.043-31.45 7.457-30.5 28.5a265.515 265.515 0 0 1 14 35 695.666 695.666 0 0 1 2 47 493.87 493.87 0 0 0 6 30c-33.753 23.996-68.92 26.163-105.5 6.5a44.612 44.612 0 0 1-10-8 119.835 119.835 0 0 0 7.5-28.5 677.507 677.507 0 0 1 2-49 377.108 377.108 0 0 1 14-34c1.696-13.462-3.804-22.295-16.5-26.5a100.292 100.292 0 0 1-14-1.5c14.461-13.73 31.461-22.397 51-26Z"/><path style="opacity:1" fill="#b3b3b5" d="M546.5 251.5c.973 2.448 1.306 5.115 1 8 2.885-.306 5.552.027 8 1h-9v-9Z"/><path style="opacity:1" fill="#8d4f55" d="M112.5 253.5c.968 2.107 1.302 4.441 1 7h88v27c-29.26.991-58.593 1.325-88 1 .31-3.213-.023-6.213-1-9v-26Z"/><path style="opacity:1" fill="#894d54" d="M306.5 259.5c10.821.995 21.821 1.328 33 1-6.917 5.247-13.251 11.247-19 18-6.799.635-12.299 3.635-16.5 9a513.199 513.199 0 0 0-22.5 57c-.167-23.336 0-46.669.5-70a307.808 307.808 0 0 1 24.5-15Z"/><path style="opacity:1" fill="#8e5056" d="M450.5 240.5c5.59 7.116 12.923 9.782 22 8a1406.745 1406.745 0 0 0 43 26c1 20.989 1.333 41.989 1 63a4044.375 4044.375 0 0 0-17.5-43c-3.041-9.54-9.541-14.873-19.5-16-18.852-21.593-42.519-33.926-71-37a441.579 441.579 0 0 0 42-1Z"/><path style="opacity:1" fill="#8d4f55" d="M595.5 253.5c.968 2.107 1.302 4.441 1 7h88a415.804 415.804 0 0 1-1 40.5c-28.998.5-57.998.667-87 .5.302-2.559-.032-4.893-1-7v-41Z"/><path style="opacity:1" fill="#fbdd7e" d="M291.5 538.5a216.796 216.796 0 0 1-1.5-21l-1.5-1.5a484.008 484.008 0 0 0-44 0l-1.5 1.5c-.17 9.842-.67 19.509-1.5 29-3.19-4.077-4.857-8.744-5-14v-86h21a242.766 242.766 0 0 0-12 30.5c-.146 2.034.52 3.701 2 5 3.136 1.041 5.636.207 7.5-2.5a2416.766 2416.766 0 0 0 36-86 778.309 778.309 0 0 1 2-52 754.332 754.332 0 0 1 20-48 11.532 11.532 0 0 1 4.5-3.5 210.395 210.395 0 0 1 29 0c7.166 2.834 9.666 8.001 7.5 15.5a289.548 289.548 0 0 0-14 37l-1 46-2 10a11414.37 11414.37 0 0 0-45.5 140Z"/><path style="opacity:1" fill="#fbde7e" d="M544.5 478.5a784.68 784.68 0 0 1-56 1 4158.52 4158.52 0 0 0-26.5-85c-.983-18.004-1.983-36.004-3-54a184.504 184.504 0 0 0-13-34c-1.711-6.194-.211-11.36 4.5-15.5a73.184 73.184 0 0 1 16.5-1.5l14.5.5c2.348.346 4.181 1.513 5.5 3.5a905.577 905.577 0 0 0 16 37 54.804 54.804 0 0 1 4 14c.073 17.044.74 34.044 2 51a2286.471 2286.471 0 0 0 35.5 83Z"/><path style="opacity:1" fill="#814950" d="M112.5 279.5c.977 2.787 1.31 5.787 1 9 29.407.325 58.74-.009 88-1v31c-25.106 1.976-50.439 2.643-76 2a10.515 10.515 0 0 1-3-2.5 74.547 74.547 0 0 0-10-3.5v-35Z"/><path style="opacity:1" fill="#7d474f" d="M684.5 229.5a1807.264 1807.264 0 0 1 1 85 12.93 12.93 0 0 0-5 .5 931.793 931.793 0 0 0-29 17.5h-55c.284-1.915-.049-3.581-1-5v-33c.968 2.107 1.302 4.441 1 7 29.002.167 58.002 0 87-.5a415.804 415.804 0 0 0 1-40.5v-31Z"/><path style="opacity:1" fill="#854b52" d="M6.5 260.5h30v60h-30v-60ZM762.5 260.5h30v60h-30v-60Z"/><path style="opacity:1" fill="#75434c" d="M6.5 320.5h30v26h-30v-26Z"/><path style="opacity:1" fill="#72424b" d="M201.5 318.5v58a69.302 69.302 0 0 1-16 1c.295-2.235-.039-4.235-1-6a112.97 112.97 0 0 0-.5-15 36.078 36.078 0 0 0-3.5-4.5 1121.48 1121.48 0 0 0-55-31.5c25.561.643 50.894-.024 76-2Z"/><path style="opacity:1" fill="#6c3f48" d="M595.5 327.5c.951 1.419 1.284 3.085 1 5h55a2766.924 2766.924 0 0 0-31 16.5l-4 4c-5.216 1.792-9.883 4.459-14 8a179.17 179.17 0 0 0-28 16c-3.621.456-6.288 2.289-8 5.5-4.639-4.974-9.305-9.974-14-15 10.524-4.346 20.191-10.179 29-17.5 12.236-2.745 16.903-10.245 14-22.5Z"/><path style="opacity:1" fill="#70414a" d="M761.5 241.5c.99 6.145 1.323 12.478 1 19v60h30v41c-10.514.328-20.847-.006-31-1v-119Z"/><path style="opacity:1" fill="#683d47" d="M6.5 346.5h30c-.31 4.767.19 9.434 1.5 14l9.5 5.5c1.374 3.683 4.04 5.349 8 5 2.82 2.272 5.82 4.105 9 5.5-11.488.995-23.155 1.328-35 1-1.419-.951-3.085-1.284-5-1v-3h-6v-3c-4.013-1.674-8.013-3.341-12-5v-19Z"/><path style="opacity:1" fill="#e48783" d="M263.5 433.5a190.291 190.291 0 0 1-27 1v-29c3.704-17.201 13.704-29.034 30-35.5a68.766 68.766 0 0 1 15-1.5 132.84 132.84 0 0 1-1.5 25 3046.32 3046.32 0 0 0-16.5 40ZM518.5 368.5c24.404.909 39.237 13.243 44.5 37 .5 9.661.666 19.328.5 29h-27a1025.994 1025.994 0 0 0-16.5-40 134.723 134.723 0 0 1-1.5-26Z"/><path style="opacity:1" fill="#5e3843" d="M64.5 376.5a11919.507 11919.507 0 0 0 45 26c-11.154.995-22.488 1.328-34 1-1.765-.961-3.765-1.295-6-1v-3h-5v-3a544.412 544.412 0 0 1-29-14v-3c-2.51.446-4.51-.22-6-2 11.845.328 23.512-.005 35-1Z"/><path style="opacity:1" fill="#603944" d="M761.5 360.5c10.153.994 20.486 1.328 31 1v4c-3.013-.128-5.513.872-7.5 3-2.411-1.653-3.578-.987-3.5 2-1.701.466-3.201.466-4.5 0-3.844 1.975-7.177 4.642-10 8l-1-1c-1.049 1.607-2.549 2.273-4.5 2v3c-3.937.204-7.604 1.204-11 3 .381 2.442-.286 3.109-2 2-.886.825-1.219 1.825-1 3h-6v3a12.93 12.93 0 0 0-5 .5c-1.079 2.043-2.746 3.376-5 4l1 1a12.93 12.93 0 0 1-5 .5v3c-2.235-.295-4.235.039-6 1-11.845.328-23.512-.005-35-1a84.437 84.437 0 0 1 17-8.5l5-5a377.475 377.475 0 0 0 23-12l8-6a308.252 308.252 0 0 0 22-10.5Z"/><path style="opacity:1" fill="#212123" d="M394.5 405.5c11.757-.584 21.59 3.416 29.5 12 1.167 6.167-1.333 8.667-7.5 7.5-7.473-8.713-16.473-10.713-27-6a29.964 29.964 0 0 1-7 6c-6.053.944-8.22-1.556-6.5-7.5 5.033-5.922 11.199-9.922 18.5-12Z"/><path style="opacity:1" fill="#52323e" d="M184.5 371.5c.961 1.765 1.295 3.765 1 6a69.302 69.302 0 0 0 16-1v64h-63c-1.765-.961-3.765-1.295-6-1v-3h-3v-3h-6v-3h-5v-3c-2.921.354-5.254-.646-7-3-1.714 1.109-2.381.442-2-2a58.97 58.97 0 0 1-11-3v-3a27.267 27.267 0 0 0-9-3v-3c-2.908.238-5.242-.762-7-3a3.647 3.647 0 0 0-1.5 1c-1.667-1-3-2.333-4-4-1.107 1.212-1.607.879-1.5-1 11.512.328 22.846-.005 34-1a973.061 973.061 0 0 1 45 27c5.916 1.734 11.249 4.401 16 8 4.366 1.762 8.199 1.095 11.5-2 .101-3.2.768-6.2 2-9 .5-18.33.667-36.664.5-55Z"/><path style="opacity:1" fill="#50313d" d="M686.5 402.5c11.488.995 23.155 1.328 35 1-3.346 1.186-6.179 3.186-8.5 6l-1-1c-1.049 1.607-2.549 2.273-4.5 2v3h-6v3h-5v3c-2.185.388-4.018 1.388-5.5 3-2.278-1.12-3.778-.287-4.5 2.5a101.955 101.955 0 0 0-13 5.5v3h-6v3h-6v3c-1.915-.284-3.581.049-5 1-11.512.328-22.846-.005-34-1a115793.52 115793.52 0 0 0 64-37Z"/><path style="opacity:1" fill="#e38682" d="M477.5 478.5a159.141 159.141 0 0 1-18 1.5 9.454 9.454 0 0 0-2.5 1.5c-.5 26.998-.667 53.998-.5 81h-34c.328-27.241-.005-54.407-1-81.5a351.2 351.2 0 0 0-37-1.5 351.2 351.2 0 0 0-37 1.5 333.527 333.527 0 0 0-.5 44.5l1.5 1.5c7.993.5 15.993.666 24 .5v35h-40c.363-2.411-.637-3.911-3-4.5a721.824 721.824 0 0 0-38-.5c3.899-4.118 7.065-8.785 9.5-14a7479.282 7479.282 0 0 1 37.5-113 147.373 147.373 0 0 0 29 14.5c33.394 9.878 64.394 5.044 93-14.5a341.27 341.27 0 0 1 17 48Z"/><path style="opacity:1" fill="#73999b" d="M236.5 405.5v29c9.084.304 18.084-.029 27-1-8.94 1.972-18.273 2.639-28 2-.327-10.181.006-20.181 1-30Z"/><path style="opacity:1" fill="#462c39" d="M138.5 440.5h63v47c-5-1.333-10-1.333-15 0 .315-7.92-.018-15.753-1-23.5-12.035-7.764-24.535-14.264-37.5-19.5l-1 1c-3.119-1.489-5.953-3.156-8.5-5Z"/><path style="opacity:1" fill="#c3ad67" d="M257.5 446.5h-21v86a1893.431 1893.431 0 0 1-1-87c7.519-.325 14.852.008 22 1Z"/><path style="opacity:1" fill="#f8da7d" d="M563.5 445.5v34h-9a142.695 142.695 0 0 0-13-33 121.862 121.862 0 0 1 22-1Z"/><path style="opacity:1" fill="#422a37" d="M622.5 439.5c11.154.995 22.488 1.328 34 1 1.179 2.007.679 2.34-1.5 1-1.712 3.452-4.212 4.452-7.5 3v3c-3.096-.593-5.429.407-7 3a47.25 47.25 0 0 1-7 3v3h-6v3c-1.788-.285-3.455.048-5 1a28.335 28.335 0 0 0-9.5 6l-1-1c-1.049 1.607-2.549 2.273-4.5 2v20c-4.12-.904-8.12-.904-12 0a48.558 48.558 0 0 1-5-6.5 51.29 51.29 0 0 0-16-1.5v-13a43161.589 43161.589 0 0 1 48-27Z"/><path style="opacity:1" fill="#b81112" d="M414.5 487.5v1h-60v31c-.994-10.487-1.328-21.154-1-32h61Z"/><path style="opacity:1" fill="#f80001" d="M414.5 488.5v18h-60v-18h60Z"/><path style="opacity:1" fill="#ed0104" d="M354.5 506.5h60v17h-35c-.011-1.517-.677-2.684-2-3.5-7.659-.5-15.326-.666-23-.5v-13Z"/><path style="opacity:1" fill="#de0508" d="M282.5 539.5h-32v-17h32v17Z"/><path style="opacity:1" fill="#2f202f" d="M201.5 487.5c.331 23.839-.002 47.506-1 71-2.908-1.069-5.908-1.236-9-.5-1.289 1.802-2.956 2.969-5 3.5v-74c5-1.333 10-1.333 15 0ZM607.5 487.5c-.166 5.676.001 11.343.5 17 .414.457.914.791 1.5 1 1 17.988 1.333 35.988 1 54-3.018-1.963-6.351-2.463-10-1.5-1.442.377-2.442 1.21-3 2.5l-2 1v-74c3.88-.904 7.88-.904 12 0Z"/><path style="opacity:1" fill="#cf030a" d="M250.5 539.5h32v23a128.532 128.532 0 0 1-32 0v-23Z"/><path style="opacity:1" fill="#1c1d21" d="M610.5 559.5c1.256 2.226 1.256 4.559 0 7-3.578 1.089-7.245 1.255-11 .5-1.729-1.789-2.396-3.956-2-6.5.558-1.29 1.558-2.123 3-2.5 3.649-.963 6.982-.463 10 1.5Z"/><path style="opacity:1" fill="#211929" d="M371.5 589.5a371.687 371.687 0 0 0-38-1c.317 4.202-.017 8.202-1 12v-37h39v26Z"/><path style="opacity:1" fill="#bd050e" d="M250.5 562.5a128.532 128.532 0 0 0 32 0c.767.672 1.434 1.505 2 2.5 13.329.5 26.663.667 40 .5v10h-118v-10c14.004.167 28.004 0 42-.5.566-.995 1.233-1.828 2-2.5Z"/><path style="opacity:1" fill="#48262e" d="M324.5 565.5c.995 10.821 1.328 21.821 1 33h-41a400.456 400.456 0 0 1 40-1v-32Z"/><path style="opacity:1" fill="#b6050f" d="M206.5 575.5h118v9h-118v-9Z"/><path style="opacity:1" fill="#aa0712" d="M206.5 584.5h118v13a400.456 400.456 0 0 0-40 1l-2 3h-32c-.904-.709-1.237-1.709-1-3a500.633 500.633 0 0 0-43-1v-13Z"/><path style="opacity:1" fill="#1d1727" d="M456.5 614.5c-.979-3.125-1.313-6.458-1-10h-32c.302 2.559-.032 4.893-1 7v-48h34v51Z"/><path style="opacity:1" fill="#1a1625" d="M200.5 558.5c-.283.789-.783 1.456-1.5 2a462.27 462.27 0 0 0 0 43c2.251 2.517 3.084 5.517 2.5 9h-15v-51c2.044-.531 3.711-1.698 5-3.5 3.092-.736 6.092-.569 9 .5Z"/><path style="opacity:1" fill="#181524" d="M371.5 589.5c1.1 21.945 1.1 43.945 0 66v-43c-24.839-.331-49.506.002-74 1a19.49 19.49 0 0 0-7-3v-5c13.337.167 26.671 0 40-.5 1.537-1.11 2.203-2.61 2-4.5.983-3.798 1.317-7.798 1-12 12.746-.313 25.413.02 38 1Z"/><path style="opacity:1" fill="#191525" d="M597.5 560.5c-.396 2.544.271 4.711 2 6.5 3.755.755 7.422.589 11-.5v54h-14c.268 1.599-.066 2.932-1 4v-63l2-1Z"/><path style="opacity:1" fill="#fbfbfb" d="M213.5 605.5h29a840.27 840.27 0 0 0 .5 41l1.5 1.5c14.667.667 29.333.667 44 0l1.5-1.5 1-24a42.319 42.319 0 0 1 8.5 6.5 420.445 420.445 0 0 0 32 17c2.365 3.714 5.698 5.714 10 6a387.056 387.056 0 0 0 23 13l-16 1-1.5 1.5a484.008 484.008 0 0 0 0 44l1.5 1.5c32.667.667 65.333.667 98 0a6.978 6.978 0 0 0 2.5-3.5 420.29 420.29 0 0 0 0-41l-2.5-2.5-13-1a736.57 736.57 0 0 0 22.5-12.5l1 58a6.978 6.978 0 0 0 3.5 2.5 2601.643 2601.643 0 0 0-62 35.5 97.288 97.288 0 0 0-12-5.5c-3.543-1.608-6.543-3.942-9-7-5.662-.917-10.329-3.583-14-8a78.488 78.488 0 0 1-23-13c-3.415-.406-6.082-2.072-8-5-8.372-3.019-16.038-7.352-23-13-5.093-1.382-9.426-4.049-13-8-6.4-2.062-12.067-5.396-17-10l-10-4-4-4a77.598 77.598 0 0 1-23-13 90.42 90.42 0 0 1-14-6 45.999 45.999 0 0 0-13-8l-1.5-1.5a684.346 684.346 0 0 1-.5-37Z"/><path style="opacity:1" fill="#930917" d="M250.5 601.5h32v23h-32v-23Z"/><path style="opacity:1" fill="#0f0e1e" d="M297.5 613.5a1369.272 1369.272 0 0 1 74-1v43a73.86 73.86 0 0 0-9-3.5 523.182 523.182 0 0 1-22-15 90.42 90.42 0 0 1-14-6 367.323 367.323 0 0 0-29-17.5Z"/><path style="opacity:1" fill="#100f1e" d="M456.5 614.5c.166 7.674 0 15.341-.5 23a446.973 446.973 0 0 0-21.5 14.5 115.356 115.356 0 0 1-12 5.5v-46c.968-2.107 1.302-4.441 1-7h32c-.313 3.542.021 6.875 1 10Z"/><path style="opacity:1" fill="#0d0d1c" d="M610.5 620.5v30h-18c.302 2.559-.032 4.893-1 7a40.914 40.914 0 0 1 .5-9c.113-2.474 1.113-4.474 3-6 .499-5.991.666-11.991.5-18 .934-1.068 1.268-2.401 1-4h14Z"/><path style="opacity:1" fill="#840b1b" d="M250.5 624.5h32v16h-32v-16Z"/><path style="opacity:1" fill="#060815" d="M186.5 612.5h15c-.167 12.005 0 24.005.5 36a18.839 18.839 0 0 1 6.5 5.5 55.63 55.63 0 0 1 18 10 114.425 114.425 0 0 1 30 18c3.57 1.208 6.903 2.708 10 4.5h-67c-2.461.801-4.294-.199-5.5-3-1.049 1.017-2.216 1.184-3.5.5l1-1a15.645 15.645 0 0 1-4-2.5c-1-22.657-1.333-45.324-1-68Z"/><path style="opacity:1" fill="#050814" d="M610.5 650.5a144.841 144.841 0 0 1-1 24c-1.671 2.01-2.338 4.343-2 7-3.064 1.19-5.731 2.857-8 5h-3v3h-4c-.994-10.487-1.328-21.154-1-32 .968-2.107 1.302-4.441 1-7h18Z"/><path style="opacity:1" fill="#5e1324" d="M414.5 487.5c.833 61.499 1.333 123.165 1.5 185 .671.752 1.504 1.086 2.5 1 7.148.992 14.481 1.325 22 1 .277 2.948-.056 5.781-1 8.5-28.331.5-56.665.667-85 .5v-10c7.674.166 15.341 0 23-.5l1.5-1.5c.5-49.332.667-98.666.5-148h1v141h34v-177Z"/><path style="opacity:1" fill="#700c1e" d="M380.5 646.5h34v18h-34v-18Z"/><path style="opacity:1" fill="#7f0b1c" d="M380.5 624.5h34v22h-34v-22Z"/><path style="opacity:1" fill="#920a18" d="M380.5 608.5h34v16h-34v-16Z"/><path style="opacity:1" fill="#a50813" d="M380.5 584.5h34v24h-34v-24Z"/><path style="opacity:1" fill="#ba050e" d="M380.5 563.5h34v21h-34v-21Z"/><path style="opacity:1" fill="#cc040a" d="M380.5 549.5h34v14h-34v-14Z"/><path style="opacity:1" fill="#de0206" d="M380.5 523.5h34v26h-34v-26Z"/><path style="opacity:1" fill="#03050f" d="M599.5 686.5c1.333.667 1.333.667 0 0Z"/><path style="opacity:1" fill="#540f24" d="M354.5 673.5v10c28.335.167 56.669 0 85-.5.944-2.719 1.277-5.552 1-8.5-7.519.325-14.852-.008-22-1h23v32h-88c-.328-10.846.006-21.513 1-32Z"/><path style="opacity:1" fill="#02030a" d="M199.5 686.5h67a12090.897 12090.897 0 0 0 121 70h-67c-1.879-.841-3.879-1.175-6-1v-3a58.97 58.97 0 0 1-11-3v-3c-8.654-3.265-16.321-6.932-23-11v-3h-6v-3h-5v-3a8.43 8.43 0 0 1-4-.5c-4.85-3.699-10.184-6.199-16-7.5v-3h-6v-3c-2.092-.061-3.592-1.061-4.5-3-1.299.466-2.799.466-4.5 0v-3c-1.788.285-3.455-.048-5-1-2.158-3.144-5.158-4.477-9-4v-3a12.93 12.93 0 0 1-5-.5c-2.625-3.031-6.125-5.864-10.5-8.5-2.543.769-4.376-.231-5.5-3Z"/><path style="opacity:1" fill="#3c282f" d="M464.5 487.5v217h119v-217c.999 72.498 1.333 145.165 1 218h-121c-.333-72.835.001-145.502 1-218Z"/><path style="opacity:1" fill="#550e24" d="M464.5 683.5h119v21h-119v-21Z"/><path style="opacity:1" fill="#5f0f23" d="M548.5 523.5c.977 2.787 1.31 5.787 1 9v132h34v19h-119v-11c11.845.328 23.512-.005 35-1a296.155 296.155 0 0 0 48.5 0c.5-49.332.667-98.666.5-148Z"/><path style="opacity:1" fill="#6a0c20" d="M464.5 646.5h34a181.76 181.76 0 0 0 1 25c-11.488.995-23.155 1.328-35 1v-26Z"/><path style="opacity:1" fill="#700c1e" d="M549.5 646.5h34v18h-34v-18Z"/><path style="opacity:1" fill="#7f0b1c" d="M549.5 624.5h34v22h-34v-22ZM464.5 624.5h34v22h-34v-22Z"/><path style="opacity:1" fill="#920a18" d="M549.5 608.5h34v16h-34v-16ZM464.5 608.5h34v16h-34v-16Z"/><path style="opacity:1" fill="#a50813" d="M549.5 584.5h34v24h-34v-24ZM464.5 584.5h34v24h-34v-24Z"/><path style="opacity:1" fill="#ba050e" d="M549.5 563.5h34v21h-34v-21ZM464.5 563.5h34v21h-34v-21Z"/><path style="opacity:1" fill="#cc040a" d="M549.5 549.5h34v14h-34v-14ZM464.5 549.5h34v14h-34v-14Z"/><path style="opacity:1" fill="#d90307" d="M549.5 532.5h34v17h-34v-17ZM464.5 532.5h34v17h-34v-17Z"/><path style="opacity:1" fill="#273137" d="M548.5 523.5c.167 49.334 0 98.668-.5 148a296.155 296.155 0 0 1-48.5 0 181.76 181.76 0 0 1-1-25v-114a31.116 31.116 0 0 1 1-11 4.457 4.457 0 0 0 2-1.5c15-.667 30-.667 45 0 1.323.816 1.989 1.983 2 3.5Z"/><path style="opacity:1" fill="#909599" d="M527.5 568.5c4.47-.986 9.137-1.319 14-1v98c-11.845.328-23.512-.005-35-1h34v-96h-13Z"/><path style="opacity:1" fill="#fcfcfc" d="M527.5 568.5h13v96h-34v-42c7.456-2.78 14.289-6.78 20.5-12 .5-13.996.667-27.996.5-42Z"/><path style="opacity:1" fill="#1f1828" d="M506.5 567.5c4.202-.317 8.202.017 12 1v35a46.664 46.664 0 0 1-9 2.5 20.499 20.499 0 0 1-2.5 3.5 881.746 881.746 0 0 1-.5-42Z"/><path style="opacity:1" fill="#1e1e22" d="M507.5 535.5c5.299 16.333 16.632 23.666 34 22v10c-4.863-.319-9.53.014-14 1h-9c-3.798-.983-7.798-1.317-12-1-.456-3.611.211-6.944 2-10a4.457 4.457 0 0 0-1.5-2c-.821-6.846-.654-13.513.5-20Z"/><path style="opacity:1" fill="#f7da7d" d="M541.5 557.5c-17.368 1.666-28.701-5.667-34-22a24.93 24.93 0 0 1-1-8h35v30Z"/><path style="opacity:1" fill="#e90104" d="M583.5 514.5v18h-34c.31-3.213-.023-6.213-1-9-.011-1.517-.677-2.684-2-3.5-15-.667-30-.667-45 0a4.457 4.457 0 0 1-2 1.5 31.116 31.116 0 0 0-1 11h-34v-18h119Z"/><path style="opacity:1" fill="#f40102" d="M464.5 487.5h119v27h-119v-27Z"/><path style="opacity:1" fill="#010104" d="M551.5 713.5a22.296 22.296 0 0 1-5 3.5l1 1a118.288 118.288 0 0 0-17 7.5 10.756 10.756 0 0 0-2.5 3l-1-1c-1.049 1.607-2.549 2.273-4.5 2v3h-6v3h-5v3c-2.524-.071-4.524.929-6 3-2.12-1.372-3.12-.705-3 2a12.93 12.93 0 0 0-5 .5 101.657 101.657 0 0 0-10 7.5 9.108 9.108 0 0 1-5 1v3c-2.51-.446-4.51.22-6 2-2.216.703-4.049 2.036-5.5 4-1.813-1.109-2.646-.442-2.5 2a12.93 12.93 0 0 0-5 .5c-1.497 1.871-3.497 2.871-6 3-1.307 2.324-3.307 3.657-6 4l2 1a12.93 12.93 0 0 1-5 .5v3a9.86 9.86 0 0 0-6 1 35.217 35.217 0 0 1-8 4v3h-6v3h-6v3a8.43 8.43 0 0 0-4 .5l-5 5c-1.284.684-2.451.517-3.5-.5-1.263 2.968-3.263 3.968-6 3a2.428 2.428 0 0 0-.5 2h-12c-.507-1.359-1.507-2.359-3-3a137.913 137.913 0 0 0-11-4v-3c-2.133-1.386-5.133-2.386-9-3v-3h-5v-3c-3.005.247-5.505-.753-7.5-3l-1 1a4.934 4.934 0 0 1-.5-3h-6v-3h-5v-3h-6v-3c-5.922-1.727-11.089-4.727-15.5-9-2.179 1.34-2.679 1.007-1.5-1h67a49.001 49.001 0 0 0 10.5 3 92.109 92.109 0 0 1 10.5-2.5 23965 23965 0 0 0 76-44 750.264 750.264 0 0 1 67 .5Z"/><path style="opacity:1" fill="#010103" d="M476.5 757.5c1.333.667 1.333.667 0 0Z"/></svg>