<?xml version="1.0" encoding="UTF-8"?><svg xmlns="http://www.w3.org/2000/svg" width="800" height="800" style="shape-rendering:geometricPrecision;text-rendering:geometricPrecision;image-rendering:optimizeQuality;fill-rule:evenodd;clip-rule:evenodd"><path style="opacity:1" fill="#b7bdb9" d="M576.5-.5h9a2.429 2.429 0 0 0 .5 2c1.049-1.017 2.216-1.184 3.5-.5a20.495 20.495 0 0 0 2.5 3.5c1.356-.88 2.856-1.214 4.5-1v3c2.822 1.432 6.489 2.432 11 3v3c2.092.061 3.592 1.061 4.5 3 2.537-.677 4.537.323 6 3 2.361-.566 4.194.434 5.5 3l2-1c.35 2.067 2.017 3.067 5 3v3h6v3h5v3h6v3a27.247 27.247 0 0 0 9 3c-.219 1.175.114 2.175 1 3a6.846 6.846 0 0 1 4-1v3a8.435 8.435 0 0 1 4 .5c-1.154.914-.987 1.747.5 2.5 1.299-.466 2.799-.466 4.5 0v3h6v3h5v3a428.986 428.986 0 0 0 20 8.5l-2 1c2.522.61 4.522 1.943 6 4 1.634.493 3.301.66 5 .5v3c2.908-.238 5.242.762 7 3 .951-.826 1.951-.992 3-.5l-1 1a6.977 6.977 0 0 1 3.5 2.5l1-1c.483.948.649 1.948.5 3h6v3h5v3c1.951-.273 3.451.393 4.5 2l1-1c6 4.386 12.5 7.886 19.5 10.5l-1 1c1.525 1.009 3.192 1.509 5 1.5v3h6v3h5v3c2.041.354 3.874.354 5.5 0 .483.948.649 1.948.5 3 2.836 1.276 5.836 1.942 9 2a7971.884 7971.884 0 0 1 2 251c-3.013-.128-5.513.872-7.5 3-2.411-1.653-3.578-.987-3.5 2-1.701.466-3.201.466-4.5 0-3.844 1.975-7.177 4.642-10 8l-1-1c-1.049 1.607-2.549 2.273-4.5 2v3c-3.937.204-7.604 1.204-11 3 .381 2.442-.286 3.109-2 2-.886.825-1.219 1.825-1 3h-6v3a12.93 12.93 0 0 0-5 .5c-1.079 2.043-2.746 3.376-5 4l1 1a12.93 12.93 0 0 1-5 .5v3a9.86 9.86 0 0 0-6 1c-3.423 1.192-6.256 3.192-8.5 6l-1-1c-1.049 1.607-2.549 2.273-4.5 2v3h-6v3h-5v3c-2.185.388-4.018 1.388-5.5 3-2.278-1.12-3.778-.287-4.5 2.5a101.955 101.955 0 0 0-13 5.5v3h-6v3h-6v3c-1.788-.285-3.455.048-5 1 1.129 2.029.629 2.363-1.5 1-1.712 3.452-4.212 4.452-7.5 3v3a12.93 12.93 0 0 0-5 .5 20.841 20.841 0 0 1-8 5.5 216.934 216.934 0 0 0 10-26 510.711 510.711 0 0 1 59-33.5l5-5a377.475 377.475 0 0 0 23-12l8-6a190.921 190.921 0 0 0 21.5-10.5c.667-76 .667-152 0-228a36.078 36.078 0 0 0-3.5-4.5c-3.29-.253-6.29-1.253-9-3a29746.604 29746.604 0 0 1-46-28 457.332 457.332 0 0 0-22-11l-4-4a161.879 161.879 0 0 1-33-19c-6.4-2.062-12.067-5.396-17-10a1126.1 1126.1 0 0 0-31-16c-2.365-3.714-5.698-5.714-10-6-7.082-6.364-15.416-9.031-25-8a12271.425 12271.425 0 0 1-129 74 25.154 25.154 0 0 0-4 4.5 172.406 172.406 0 0 0-22-1 568.078 568.078 0 0 1 28-16.5c.837-1.011 1.17-2.178 1-3.5 4.493-.216 7.993-2.216 10.5-6 1.011.837 2.178 1.17 3.5 1v-3a59.031 59.031 0 0 0 11-3v-3c1.808.009 3.475-.491 5-1.5l-1-1a12.935 12.935 0 0 1 5-.5v-3a9.864 9.864 0 0 0 6-1 35.213 35.213 0 0 1 8-4v-3h6v-3a59.031 59.031 0 0 1 11-3v-3c1.808.009 3.475-.491 5-1.5-1.388-.89-1.222-1.39.5-1.5 2.071 1.167 3.571.5 4.5-2 6.434-2.343 12.767-5.343 19-9v-3a59.031 59.031 0 0 1 11-3 4.934 4.934 0 0 1 .5-3l1 1c1.995-2.247 4.495-3.247 7.5-3v-3h5v-3h6v-3c1.808.009 3.475-.491 5-1.5l-1-1a12.936 12.936 0 0 1 5-.5v-3c3.552.188 6.219-1.145 8-4Z"/><path style="opacity:1" fill="#b8bdb9" d="M391.5 100.5a707.954 707.954 0 0 1-16 2 9661.807 9661.807 0 0 1-138.5-79 138.219 138.219 0 0 1-14.5 1.5c-4.194 3.22-8.86 5.554-14 7a2157.081 2157.081 0 0 1-68 39 55.63 55.63 0 0 1-18 10 12458.29 12458.29 0 0 1-28 18c-5.503 1.171-10.17 3.837-14 8A579.672 579.672 0 0 0 38 129.5 3410.247 3410.247 0 0 0 36.5 245c-.152 38.537.348 77.037 1.5 115.5l9.5 5.5c1.374 3.683 4.04 5.349 8 5a130.15 130.15 0 0 0 23 13 1613.704 1613.704 0 0 0 93 53.5 274.994 274.994 0 0 0 11 24c-8.279-4.475-16.613-8.975-25-13.5-6.204-2.789-12.537-4.622-19-5.5v-3h-6v-3h-3v-3h-6v-3h-5v-3c-2.921.354-5.254-.646-7-3-1.714 1.109-2.381.442-2-2a58.97 58.97 0 0 1-11-3v-3a27.267 27.267 0 0 0-9-3v-3c-2.908.238-5.242-.762-7-3a3.647 3.647 0 0 0-1.5 1c-1.667-1-3-2.333-4-4l-1 1a4.932 4.932 0 0 1-.5-3h-6v-3h-5v-3a544.412 544.412 0 0 1-29-14v-3a58.967 58.967 0 0 1-11-3v-3h-6v-3c-4.013-1.674-8.013-3.341-12-5 .008-83.648.008-167.148 0-250.5a169.104 169.104 0 0 0 15-5.5v-3a58.967 58.967 0 0 0 11-3v-3a417.79 417.79 0 0 0 15-7 32.686 32.686 0 0 0 8.5-6l1 1c1.049-1.607 2.549-2.273 4.5-2v-3a59.029 59.029 0 0 1 11-3 4.932 4.932 0 0 1 .5-3l1 1c2.015-3.065 4.515-4.065 7.5-3v-3h5v-3c1.7.16 3.366-.007 5-.5 1.478-2.057 3.478-3.39 6-4l-2-1a18.436 18.436 0 0 1 6-.5v-3a87.51 87.51 0 0 0 14-5v-3h6v-3h5v-3c1.701-.466 3.201-.466 4.5 0 3.279-4.047 7.946-7.047 14-9a18.264 18.264 0 0 0 5-4l1 1c1.049-1.607 2.549-2.273 4.5-2v-3h5v-3h6v-3c4.612-1.195 9.279-2.862 14-5v-3c1.701-.466 3.201-.466 4.5 0 .908-1.939 2.408-2.939 4.5-3v-3h6v-3c1.788.285 3.455-.048 5-1a38.767 38.767 0 0 0 7-4.5 49.25 49.25 0 0 1 14 0c2.025 1.677 4.359 2.677 7 3-1.134 1.016-.801 1.683 1 2l5 1-1 1c2.622 3.073 5.955 4.573 10 4.5v3h6v3c3.191.262 5.858 1.596 8 4a9.864 9.864 0 0 0 6 1v3c3.58 1.22 7.247 2.386 11 3.5l-2 1c2.767.678 4.934 2.178 6.5 4.5l1-1c3.769 1.797 7.102 4.13 10 7a3.942 3.942 0 0 1 2-1c1.482 1.612 3.315 2.612 5.5 3v3h6v3h5v3h6v3a87.51 87.51 0 0 0 14 5v3c1.699-.16 3.366.007 5 .5l-1 1c1.525 1.009 3.192 1.509 5 1.5v3h6v3h5v3c2.985-1.065 5.485-.065 7.5 3l1-1c.483.948.649 1.948.5 3h5v3h6v3c2.133 1.386 5.133 2.386 9 3v3c2.908-.238 5.242.762 7 3l2-1c.35 2.067 2.017 3.067 5 3v3Z"/><path style="opacity:1" fill="#273339" d="M644.5 427.5a60.48 60.48 0 0 0 3-12 26.335 26.335 0 0 0 2-5 1324.505 1324.505 0 0 0 83-48.5 84.545 84.545 0 0 1 18-8.5c.167-70.334 0-140.667-.5-211 .564-4.29-1.269-6.457-5.5-6.5a203.265 203.265 0 0 0-37-21l-4-4a91.311 91.311 0 0 1-23-13 457.332 457.332 0 0 0-22-11l-4-4a483.026 483.026 0 0 1-51-29c-3.415-.406-6.082-2.072-8-5a90.401 90.401 0 0 0-14-6c-5.722-6.435-12.722-8.768-21-7-7.36 5.663-15.36 9.996-24 13-3.619 3.977-7.952 6.644-13 8-2.537 2.546-5.537 4.212-9 5l-4 4-10 4a331.656 331.656 0 0 1-40 23 94.255 94.255 0 0 0-15 10.5 165.602 165.602 0 0 0-18-2 25.154 25.154 0 0 1 4-4.5 12271.425 12271.425 0 0 0 129-74c9.584-1.031 17.918 1.636 25 8 4.302.286 7.635 2.286 10 6a1126.1 1126.1 0 0 1 31 16c4.933 4.604 10.6 7.938 17 10a161.879 161.879 0 0 0 33 19l4 4a457.332 457.332 0 0 1 22 11 29746.604 29746.604 0 0 0 46 28c2.71 1.747 5.71 2.747 9 3a36.078 36.078 0 0 1 3.5 4.5c.667 76 .667 152 0 228a190.921 190.921 0 0 1-21.5 10.5l-8 6a377.475 377.475 0 0 1-23 12l-5 5a510.711 510.711 0 0 0-59 33.5Z"/><path style="opacity:1" fill="#28343a" d="M375.5 102.5c-7.043.72-14.043 1.72-21 3-3.662-3.833-7.996-6.666-13-8.5a130.683 130.683 0 0 0-23-13 88.177 88.177 0 0 0-22-12 153.747 153.747 0 0 0-27-16 179.568 179.568 0 0 1-15-10A228.066 228.066 0 0 0 230 34.5 112.066 112.066 0 0 0 206.5 48l-10 4-3 3c-6.771 2.445-12.771 6.111-18 11l-10 4-4 4a520.666 520.666 0 0 0-59 34l-9 3c-3.796 3.592-8.13 6.259-13 8A361.546 361.546 0 0 1 48 137.5c-.667 72-.667 144 0 216a32007.6 32007.6 0 0 0 118.5 68l5 16a1613.704 1613.704 0 0 1-93-53.5 130.15 130.15 0 0 1-23-13c-3.96.349-6.626-1.317-8-5l-9.5-5.5A3410.247 3410.247 0 0 1 36.5 245c-.152-38.537.348-77.037 1.5-115.5A579.672 579.672 0 0 1 80.5 107c3.83-4.163 8.497-6.829 14-8 9.313-5.97 18.646-11.97 28-18a55.63 55.63 0 0 0 18-10c22.924-12.6 45.591-25.6 68-39 5.14-1.446 9.806-3.78 14-7 4.872-.246 9.705-.746 14.5-1.5a9661.807 9661.807 0 0 0 138.5 79Z"/><path style="opacity:1" fill="#fdfefe" d="M354.5 105.5a270.553 270.553 0 0 0-67 25 324.088 324.088 0 0 1-19-12.5 299.672 299.672 0 0 0-27-14l-4-4a42.498 42.498 0 0 0-13 0 226.438 226.438 0 0 0-29 17c-3.415.406-6.082 2.072-8 5a90.42 90.42 0 0 1-14 6c-3.574 3.951-7.907 6.618-13 8-6.962 5.648-14.628 9.981-23 13a230.435 230.435 0 0 1-32.5 19.5 2946.23 2946.23 0 0 0-1 153 213.392 213.392 0 0 0 27.5 15.5 70.186 70.186 0 0 0 18 10c2.364 1.842 4.697 3.675 7 5.5.041 18.998 2.375 37.665 7 56 .793 4.38 1.793 8.713 3 13a32007.6 32007.6 0 0 1-118.5-68c-.667-72-.667-144 0-216A361.546 361.546 0 0 0 80.5 119c4.87-1.741 9.204-4.408 13-8l9-3a520.666 520.666 0 0 1 59-34l4-4 10-4c5.229-4.889 11.229-8.555 18-11l3-3 10-4A112.066 112.066 0 0 1 230 34.5 228.066 228.066 0 0 1 254.5 46a179.568 179.568 0 0 0 15 10 153.747 153.747 0 0 1 27 16 88.177 88.177 0 0 1 22 12 130.683 130.683 0 0 1 23 13c5.004 1.834 9.338 4.667 13 8.5Z"/><path style="opacity:1" fill="#fefefe" d="M649.5 410.5a269.885 269.885 0 0 0 7-68c6.689-2.182 12.689-5.682 18-10.5 7.819-2.16 14.319-6.327 19.5-12.5.99-49.416.657-98.75-1-148a36.078 36.078 0 0 0-3.5-4.5 198.572 198.572 0 0 1-36-21 114.302 114.302 0 0 1-13-6 182.852 182.852 0 0 0-35-20c-3.671-4.417-8.338-7.083-14-8a171.322 171.322 0 0 0-19-12c-8.302-.757-15.635 1.576-22 7a68.695 68.695 0 0 0-14 7c-4.302.286-7.635 2.286-10 6a72.596 72.596 0 0 0-10 5.5 161.012 161.012 0 0 0-23-9c-15.394-6.184-31.394-10.517-48-13a94.255 94.255 0 0 1 15-10.5 331.656 331.656 0 0 0 40-23l10-4 4-4c3.463-.788 6.463-2.454 9-5 5.048-1.356 9.381-4.023 13-8 8.64-3.004 16.64-7.337 24-13 8.278-1.768 15.278.565 21 7a90.401 90.401 0 0 1 14 6c1.918 2.928 4.585 4.594 8 5a483.026 483.026 0 0 0 51 29l4 4a457.332 457.332 0 0 1 22 11 91.311 91.311 0 0 0 23 13l4 4a203.265 203.265 0 0 1 37 21c4.231.043 6.064 2.21 5.5 6.5.5 70.333.667 140.666.5 211a84.545 84.545 0 0 0-18 8.5 1324.505 1324.505 0 0 1-83 48.5Z"/><path style="opacity:1" fill="#273339" d="M287.5 130.5a87.45 87.45 0 0 1-11 6 363.002 363.002 0 0 1-29-17.5c-5.603-1.533-10.436-4.366-14.5-8.5-1.604 1.149-3.27 1.149-5 0a1068.258 1068.258 0 0 1-78.5 45.5c-5.201 4.797-11.201 8.13-18 10-5.669 5.02-11.836 9.187-18.5 12.5-.5 45.332-.667 90.665-.5 136 5.301 1.324 9.968 3.824 14 7.5l10 4 4 4a173.09 173.09 0 0 0 16 7.5v15a1086.203 1086.203 0 0 0-7-5.5 70.186 70.186 0 0 1-18-10 213.392 213.392 0 0 1-27.5-15.5 2946.23 2946.23 0 0 1 1-153 230.435 230.435 0 0 0 32.5-19.5c8.372-3.019 16.038-7.352 23-13 5.093-1.382 9.426-4.049 13-8a90.42 90.42 0 0 0 14-6c1.918-2.928 4.585-4.594 8-5a226.438 226.438 0 0 1 29-17 42.498 42.498 0 0 1 13 0l4 4a299.672 299.672 0 0 1 27 14 324.088 324.088 0 0 0 19 12.5ZM656.5 342.5a73.314 73.314 0 0 0-1-12 736.992 736.992 0 0 1 25-15.5 12.93 12.93 0 0 1 5-.5c.167-28.335 0-56.669-.5-85l-2-2-1-51a4305.66 4305.66 0 0 1-114.5-66 1094.67 1094.67 0 0 0-39 21c-4.318-1.492-8.318-3.492-12-6a72.596 72.596 0 0 1 10-5.5c2.365-3.714 5.698-5.714 10-6a68.695 68.695 0 0 1 14-7c6.365-5.424 13.698-7.757 22-7a171.322 171.322 0 0 1 19 12c5.662.917 10.329 3.583 14 8a182.852 182.852 0 0 1 35 20 114.302 114.302 0 0 0 13 6 198.572 198.572 0 0 0 36 21 36.078 36.078 0 0 1 3.5 4.5c1.657 49.25 1.99 98.584 1 148-5.181 6.173-11.681 10.34-19.5 12.5-5.311 4.818-11.311 8.318-18 10.5Z"/><path style="opacity:1" fill="#242021" d="M391.5 100.5h14c7.362-.135 14.696.198 22 1a165.602 165.602 0 0 1 18 2c16.606 2.483 32.606 6.816 48 13a2752.943 2752.943 0 0 0-59 2c-51.955-5.743-100.621 4.257-146 30h-29a238.932 238.932 0 0 1 17-12 87.45 87.45 0 0 0 11-6 270.553 270.553 0 0 1 67-25 264.874 264.874 0 0 1 21-3 707.954 707.954 0 0 0 16-2Z"/><path style="opacity:1" fill="#b8bdb9" d="M276.5 136.5a238.932 238.932 0 0 0-17 12c-62.732 47.103-97.065 110.103-103 189a173.09 173.09 0 0 1-16-7.5l-4-4-10-4c-4.032-3.676-8.699-6.176-14-7.5-.167-45.335 0-90.668.5-136 6.664-3.313 12.831-7.48 18.5-12.5 6.799-1.87 12.799-5.203 18-10a1068.258 1068.258 0 0 0 78.5-45.5c1.73 1.149 3.396 1.149 5 0 4.064 4.134 8.897 6.967 14.5 8.5a363.002 363.002 0 0 0 29 17.5ZM655.5 330.5c-4.259-51.81-22.593-97.81-55-138-20.429-24.779-44.429-45.113-72-61a1094.67 1094.67 0 0 1 39-21 4305.66 4305.66 0 0 0 114.5 66l1 51 2 2c.5 28.331.667 56.665.5 85a12.93 12.93 0 0 0-5 .5 736.992 736.992 0 0 0-25 15.5Z"/><path style="opacity:1" fill="#e5ece6" d="M434.5 118.5c56.913 7.787 104.913 32.454 144 74 21.742 23.452 37.742 50.452 48 81-5.235 1.95-10.902 2.617-17 2-11.633-32.594-30.3-60.261-56-83-30.93-29.3-67.597-47.8-110-55.5-73.455-10.567-136.789 9.6-190 60.5a307.19 307.19 0 0 0-27 32c-6.426.62-12.426-.047-18-2 20.74-32.407 47.407-58.74 80-79 45.379-25.743 94.045-35.743 146-30Z"/><path style="opacity:1" fill="#282425" d="M553.5 192.5a918.928 918.928 0 0 0-21 2c-60.706-45.413-127.04-55.579-199-30.5-21.649 8.812-41.315 20.646-59 35.5l-21-2c53.211-50.9 116.545-71.067 190-60.5 42.403 7.7 79.07 26.2 110 55.5Z"/><path style="opacity:1" fill="#917dab" d="M532.5 194.5c23.124 19.969 41.624 43.635 55.5 71a116.302 116.302 0 0 1 6.5 18c-.111.617-.444 1.117-1 1.5 1.138 1.734 1.638 3.568 1.5 5.5-.667-1.333-1.333-1.333-2 0-.424-3.69-1.258-3.857-2.5-.5-1.68.034-3.18.201-4.5.5-.667-2.667-1.333-2.667-2 0l-1-6c-.667 1.333-1.333 1.333-2 0 .423 2.403.256 4.737-.5 7a189.874 189.874 0 0 0-9-20C541 211.227 492 176.727 424.5 168c-73.42-4.37-130.92 23.464-172.5 83.5a109.637 109.637 0 0 0-12.5 25 137.871 137.871 0 0 0-9 21c-.283-.789-.783-1.456-1.5-2-1.398.551-2.732.884-4 1l-1-2c-.388.928-1.055 1.595-2 2-1.235-1.115-2.402-1.115-3.5 0-1.362-1.512-1.696-3.012-1-4.5a2.428 2.428 0 0 0-2-.5c8.318-27.31 21.818-51.643 40.5-73a495.007 495.007 0 0 0 18.5-19c17.685-14.854 37.351-26.688 59-35.5 71.96-25.079 138.294-14.913 199 30.5Z"/><path style="opacity:1" fill="#282425" d="M493.5 116.5a161.012 161.012 0 0 1 23 9c3.682 2.508 7.682 4.508 12 6 27.571 15.887 51.571 36.221 72 61h-22c-39.087-41.546-87.087-66.213-144-74a2752.943 2752.943 0 0 1 59-2Z"/><path style="opacity:1" fill="#af95ce" d="M571.5 271.5a7903.596 7903.596 0 0 0-72 2 462.903 462.903 0 0 0-1-43c-.011-1.517-.677-2.684-2-3.5-61-.667-122-.667-183 0l-1.5 1.5c-.5 15.997-.667 31.997-.5 48a999.156 999.156 0 0 1-72 0 109.637 109.637 0 0 1 12.5-25c41.58-60.036 99.08-87.87 172.5-83.5 67.5 8.727 116.5 43.227 147 103.5Z"/><path style="opacity:1" fill="#273239" d="M498.5 230.5c.167 36.668 0 73.335-.5 110a14.698 14.698 0 0 1-3.5 3 5540.314 5540.314 0 0 1-60.5 40c-.5 9.661-.666 19.328-.5 29-.333 2.333-1.667 3.667-4 4h-59c-3.417-2.313-4.751-5.646-4-10v-31c-.166-6.009.001-12.009.5-18a1084.619 1084.619 0 0 1 23.5-17 756.214 756.214 0 0 0 40-26 256.827 256.827 0 0 0 1-32v-9h-53v9c.167 11.671 0 23.338-.5 35a30.233 30.233 0 0 1-3.5 3h-59c-1.835-.622-3.002-1.956-3.5-4a799.793 799.793 0 0 1-.5-40c-.167-16.003 0-32.003.5-48l1.5-1.5c61-.667 122-.667 183 0 1.323.816 1.989 1.983 2 3.5Z"/><path style="opacity:1" fill="#dde3de" d="M208.5 227.5c5.574 1.953 11.574 2.62 18 2-22.207 33.957-34.207 71.29-36 112a260.63 260.63 0 0 0-1.5 23c-4.999-.668-10.165-.668-15.5 0-2.871-49.52 8.796-95.187 35-137Z"/><path style="opacity:1" fill="#636c6e" d="M319.5 234.5a7398.653 7398.653 0 0 1 172-1c.332 34.504-.002 68.837-1 103v-102h-171Z"/><path style="opacity:1" fill="#d5dad5" d="M319.5 234.5h171v102a1440.766 1440.766 0 0 1-61 40.5 14.698 14.698 0 0 0-3 3.5c-.994 9.152-1.327 18.485-1 28h-51a576.95 576.95 0 0 1 1-48 4244.385 4244.385 0 0 0 63-42.5 417.64 417.64 0 0 0 .5-49.5l-1.5-1.5a1055.972 1055.972 0 0 0-65 0l-1.5 1.5c-.5 14.663-.667 29.33-.5 44h-51v-78Z"/><path style="opacity:1" fill="#2f2c2c" d="M578.5 192.5h22c32.407 40.19 50.741 86.19 55 138a73.314 73.314 0 0 1 1 12 269.885 269.885 0 0 1-7 68 26.335 26.335 0 0 1-2 5 77.772 77.772 0 0 0-17 1c1.341-5.02 2.675-10.02 4-15 4.185-19.291 5.851-38.624 5-58-.039-24.249-4.373-47.583-13-70-10.258-30.548-26.258-57.548-48-81Z"/><path style="opacity:1" fill="#2f2b2c" d="M553.5 192.5c25.7 22.739 44.367 50.406 56 83 8.177 21.22 12.511 43.22 13 66 .9 19.899-.767 39.565-5 59a203.891 203.891 0 0 1-17 45c-5.475-.989-11.142-1.322-17-1a203.7 203.7 0 0 0 18-50c6.436-29.25 6.602-58.583.5-88-1.837-8.009-4.337-15.676-7.5-23a116.302 116.302 0 0 0-6.5-18c-13.876-27.365-32.376-51.031-55.5-71a918.928 918.928 0 0 1 21-2Z"/><path style="opacity:1" fill="#2f2c2c" d="m253.5 197.5 21 2a495.007 495.007 0 0 1-18.5 19c-18.682 21.357-32.182 45.69-40.5 73-9.128 28.982-11.461 58.649-7 89 3.268 19.465 8.935 38.132 17 56a126.224 126.224 0 0 0-17 0 223.658 223.658 0 0 1-11-27c-5.553-22.313-7.887-44.98-7-68 1.793-40.71 13.793-78.043 36-112a307.19 307.19 0 0 1 27-32Z"/><path style="opacity:1" fill="#7f6e94" d="M431.5 282.5h-53v-9h53v9Z"/><path style="opacity:1" fill="#8a78a1" d="M594.5 283.5c3.163 7.324 5.663 14.991 7.5 23 6.102 29.417 5.936 58.75-.5 88h-17a830.48 830.48 0 0 0 4-23c1.221-13.154 1.221-26.154 0-39a164.197 164.197 0 0 0-8-41c.756-2.263.923-4.597.5-7 .667 1.333 1.333 1.333 2 0l1 6c.667-2.667 1.333-2.667 2 0 1.32-.299 2.82-.466 4.5-.5 1.242-3.357 2.076-3.19 2.5.5.667-1.333 1.333-1.333 2 0 .138-1.932-.362-3.766-1.5-5.5.556-.383.889-.883 1-1.5Z"/><path style="opacity:1" fill="#8b79a3" d="M215.5 291.5a2.428 2.428 0 0 1 2 .5c-.696 1.488-.362 2.988 1 4.5 1.098-1.115 2.265-1.115 3.5 0 .945-.405 1.612-1.072 2-2l1 2c1.268-.116 2.602-.449 4-1 .717.544 1.217 1.211 1.5 2a192.021 192.021 0 0 0-7 46 210.49 210.49 0 0 0 2 34v3h-17c-4.461-30.351-2.128-60.018 7-89Z"/><path style="opacity:1" fill="#d8ded9" d="M626.5 273.5c8.627 22.417 12.961 45.751 13 70a36.875 36.875 0 0 1-1 12c-1.216-.502-2.383-.835-3.5-1-3.494 1.877-7.327 2.544-11.5 2 .321-5.195-.013-10.195-1-15-.489-22.78-4.823-44.78-13-66 6.098.617 11.765-.05 17-2Z"/><path style="opacity:1" fill="#a991c6" d="M571.5 271.5a189.874 189.874 0 0 1 9 20 164.197 164.197 0 0 1 8 41v4a4541.516 4541.516 0 0 1-89 2v-65a7903.596 7903.596 0 0 1 72-2ZM239.5 276.5c23.833.865 47.833.865 72 0-.167 13.337 0 26.671.5 40 .498 2.044 1.665 3.378 3.5 4v9h59v-9a30.233 30.233 0 0 0 3.5-3c.5-11.662.667-23.329.5-35h53a256.827 256.827 0 0 1-1 32 756.214 756.214 0 0 1-40 26c-55.667.988-111.334 1.988-167 3a192.021 192.021 0 0 1 7-46 137.871 137.871 0 0 1 9-21Z"/><path style="opacity:1" fill="#816e97" d="M315.5 320.5h59v9h-59v-9Z"/><path style="opacity:1" fill="#a38bbe" d="M498.5 230.5a462.903 462.903 0 0 1 1 43v65a4541.516 4541.516 0 0 0 89-2v-4c1.221 12.846 1.221 25.846 0 39a8436.231 8436.231 0 0 0-108 2c-5.843-.001-11.51-.334-17-1 9.971-6.656 19.971-13.323 30-20a21.127 21.127 0 0 0 1-9 14.698 14.698 0 0 0 3.5-3c.5-36.665.667-73.332.5-110Z"/><path style="opacity:1" fill="#a38cbf" d="M390.5 340.5a1084.619 1084.619 0 0 0-23.5 17 162.597 162.597 0 0 0-.5 18c-46.998.821-93.998 1.488-141 2a210.49 210.49 0 0 1-2-34c55.666-1.012 111.333-2.012 167-3Z"/><path style="opacity:1" fill="#2e2b2b" d="M259.5 148.5h29c-32.593 20.26-59.26 46.593-80 79-26.204 41.813-37.871 87.48-35 137a244.917 244.917 0 0 0 7 45 77.772 77.772 0 0 0-17-1c-4.625-18.335-6.959-37.002-7-56v-15c5.935-78.897 40.268-141.897 103-189Z"/><path style="opacity:1" fill="#78688e" d="M494.5 343.5a21.127 21.127 0 0 1-1 9 29479.307 29479.307 0 0 0-30 20 439.304 439.304 0 0 0-28.5 19 98.432 98.432 0 0 0-.5 14c.302 2.559-.032 4.893-1 7-.166-9.672 0-19.339.5-29a5540.314 5540.314 0 0 0 60.5-40Z"/><path style="opacity:1" fill="#9d86b8" d="M588.5 371.5a830.48 830.48 0 0 1-4 23c-.507 2.931-1.507 5.598-3 8-49.003.917-98.003 1.917-147 3a98.432 98.432 0 0 1 .5-14 439.304 439.304 0 0 1 28.5-19c5.49.666 11.157.999 17 1a8436.231 8436.231 0 0 1 108-2ZM366.5 375.5v31c-44.662.928-89.329 1.595-134 2a328.666 328.666 0 0 1-7-28v-3c47.002-.512 94.002-1.179 141-2Z"/><path style="opacity:1" fill="#c9ceca" d="M622.5 341.5c.987 4.805 1.321 9.805 1 15 4.173.544 8.006-.123 11.5-2 1.117.165 2.284.498 3.5 1a36.875 36.875 0 0 0 1-12c.851 19.376-.815 38.709-5 58-5.802-.7-11.469-1.033-17-1a227.722 227.722 0 0 0 5-59Z"/><path style="opacity:1" fill="#535c60" d="M426.5 380.5v29a676.419 676.419 0 0 1-52-1h51c-.327-9.515.006-18.848 1-28Z"/><path style="opacity:1" fill="#cacfcb" d="M190.5 341.5c-.887 23.02 1.447 45.687 7 68-5.667-1.333-11.333-1.333-17 0a244.917 244.917 0 0 1-7-45c5.335-.668 10.501-.668 15.5 0a260.63 260.63 0 0 1 1.5-23Z"/><path style="opacity:1" fill="#9781b1" d="M581.5 402.5a107.62 107.62 0 0 1-11 29 212.766 212.766 0 0 1-17.5-1l-24 2-31-1-24 2c-12.392-.787-25.559-.787-39.5 0 .302-2.559-.032-4.893-1-7-.333-2.333-1.667-3.667-4-4v-6c2.333-.333 3.667-1.667 4-4 .968-2.107 1.302-4.441 1-7 48.997-1.083 97.997-2.083 147-3ZM366.5 406.5c-.751 4.354.583 7.687 4 10v6c-1.235.221-2.235.888-3 2a25.879 25.879 0 0 0-1 10c-11.774 1.119-23.274 1.119-34.5 0l-26 2-31-1a900.235 900.235 0 0 1-29.5 2 189.345 189.345 0 0 1-13-29c44.671-.405 89.338-1.072 134-2Z"/><path style="opacity:1" fill="#6d5f81" d="M370.5 416.5h59v6h-59v-6Z"/><path style="opacity:1" fill="#263238" d="M370.5 422.5h59c2.333.333 3.667 1.667 4 4 .167 14.67 0 29.337-.5 44-.816 1.323-1.983 1.989-3.5 2h-59c-1.911-.074-3.078-1.074-3.5-3a18.453 18.453 0 0 1-.5-6v-29a25.879 25.879 0 0 1 1-10c.765-1.112 1.765-1.779 3-2Z"/><path style="opacity:1" fill="#bec4bf" d="M617.5 400.5c5.531-.033 11.198.3 17 1-1.325 4.98-2.659 9.98-4 15a270.15 270.15 0 0 1-17 42c-6.511.636-12.845.636-19 0a115.377 115.377 0 0 0 6-13 203.891 203.891 0 0 0 17-45Z"/><path style="opacity:1" fill="#5e676a" d="M374.5 430.5a676.419 676.419 0 0 1 52-1v36a676.419 676.419 0 0 1-52-1h51v-34h-51Z"/><path style="opacity:1" fill="#d5dad5" d="M374.5 430.5h51v34h-51v-34Z"/><path style="opacity:1" fill="#917bab" d="M570.5 431.5a148.755 148.755 0 0 1-17 28c-39.357.953-78.69 1.953-118 3a211.151 211.151 0 0 1-1-29c13.941-.787 27.108-.787 39.5 0l24-2 31 1 24-2c5.778.571 11.611.905 17.5 1Z"/><path style="opacity:1" fill="#7b6b91" d="M208.5 380.5h17a328.666 328.666 0 0 0 7 28 189.345 189.345 0 0 0 13 29 162.667 162.667 0 0 0 16 25h-20a129.163 129.163 0 0 1-16-26c-8.065-17.868-13.732-36.535-17-56Z"/><path style="opacity:1" fill="#907baa" d="M366.5 434.5v29c-34.018.243-68.018.909-102 2a6.547 6.547 0 0 1-3-3 162.667 162.667 0 0 1-16-25 900.235 900.235 0 0 0 29.5-2l31 1 26-2c11.226 1.119 22.726 1.119 34.5 0Z"/><path style="opacity:1" fill="#78678d" d="M584.5 394.5h17a203.7 203.7 0 0 1-18 50 188.324 188.324 0 0 1-23 33c-7.683.023-15.35.357-23 1a108.341 108.341 0 0 0 16-19 148.755 148.755 0 0 0 17-28 107.62 107.62 0 0 0 11-29c1.493-2.402 2.493-5.069 3-8Z"/><path style="opacity:1" fill="#babfbb" d="M197.5 409.5a223.658 223.658 0 0 0 11 27 120.396 120.396 0 0 0 8.5 19 677.757 677.757 0 0 0 19.5 30 151.198 151.198 0 0 1-24-1c-2.08-6.827-5.247-13.16-9.5-19a231.204 231.204 0 0 1-22.5-56c5.667-1.333 11.333-1.333 17 0Z"/><path style="opacity:1" fill="#252122" d="M163.5 408.5a77.772 77.772 0 0 1 17 1 231.204 231.204 0 0 0 22.5 56c4.253 5.84 7.42 12.173 9.5 19a50.464 50.464 0 0 1-.5 10c-.232 1.237-.732 2.237-1.5 3-5.475-.989-11.142-1.322-17-1 1.75-3.147 2.583-6.481 2.5-10a185.931 185.931 0 0 0-9.5-16 54.343 54.343 0 0 0-4-9 274.994 274.994 0 0 1-11-24l-5-16a139.914 139.914 0 0 1-3-13Z"/><path style="opacity:1" fill="#b8beb9" d="M186.5 470.5a185.931 185.931 0 0 1 9.5 16c.083 3.519-.75 6.853-2.5 10a92.485 92.485 0 0 1-7 14v-40Z"/><path style="opacity:1" fill="#8b76a4" d="M433.5 426.5c.968 2.107 1.302 4.441 1 7-.332 9.69.002 19.356 1 29 39.31-1.047 78.643-2.047 118-3a108.341 108.341 0 0 1-16 19c-1.079 2.043-2.746 3.376-5 4a1352.13 1352.13 0 0 0-43.5-1l-5 2-51-1-4 2-51-1-5 2-51-1-6 2c-10.332-.668-20.832-.668-31.5 0a149.375 149.375 0 0 1-20-21 4088.737 4088.737 0 0 1 102-2 18.453 18.453 0 0 0 .5 6c.422 1.926 1.589 2.926 3.5 3v10h59v-10c1.517-.011 2.684-.677 3.5-2 .5-14.663.667-29.33.5-44Z"/><path style="opacity:1" fill="#68597c" d="M370.5 472.5h59v10h-59v-10Z"/><path style="opacity:1" fill="#221f1f" d="M647.5 415.5a60.48 60.48 0 0 1-3 12 216.934 216.934 0 0 1-10 26c-7.487 16.32-16.487 31.653-27 46-3.97 4.976-7.97 9.976-12 15a85.693 85.693 0 0 1-11 11h-23c21.156-19.474 38.489-41.808 52-67a270.15 270.15 0 0 0 17-42 77.772 77.772 0 0 1 17-1Z"/><path style="opacity:1" fill="#242021" d="M225.5 436.5a129.163 129.163 0 0 0 16 26c7.842 11.852 16.842 22.852 27 33h-22l-10-10a677.757 677.757 0 0 1-19.5-30 120.396 120.396 0 0 1-8.5-19 126.224 126.224 0 0 1 17 0Z"/><path style="opacity:1" fill="#b8bdb9" d="M607.5 499.5c-.449 2.477.217 4.477 2 6a3571.518 3571.518 0 0 1 0 169c-1.671 2.01-2.338 4.343-2 7-3.064 1.19-5.731 2.857-8 5h-3v3a58.97 58.97 0 0 0-11 3v3c-1.859-.039-3.192.794-4 2.5a12.93 12.93 0 0 1-5 .5v3c-2.582-.475-4.582.192-6 2-2.281 1.928-4.947 2.928-8 3v3h-6v3c-4.045-.073-7.378 1.427-10 4.5l1 1a118.288 118.288 0 0 0-17 7.5 10.756 10.756 0 0 0-2.5 3l-1-1c-1.049 1.607-2.549 2.273-4.5 2v3h-6v3h-5v3c-2.524-.071-4.524.929-6 3-2.12-1.372-3.12-.705-3 2a12.93 12.93 0 0 0-5 .5 101.657 101.657 0 0 0-10 7.5 9.108 9.108 0 0 1-5 1v3c-2.51-.446-4.51.22-6 2-2.216.703-4.049 2.036-5.5 4-1.813-1.109-2.646-.442-2.5 2a12.93 12.93 0 0 0-5 .5c-1.497 1.871-3.497 2.871-6 3-1.307 2.324-3.307 3.657-6 4l2 1a12.93 12.93 0 0 1-5 .5v3a9.86 9.86 0 0 0-6 1 35.217 35.217 0 0 1-8 4v3h-6v3h-6v3a8.43 8.43 0 0 0-4 .5l-5 5c-1.284.684-2.451.517-3.5-.5-1.263 2.968-3.263 3.968-6 3a2.428 2.428 0 0 0-.5 2h-12c-.507-1.359-1.507-2.359-3-3a137.913 137.913 0 0 0-11-4v-3c-2.133-1.386-5.133-2.386-9-3v-3h-5v-3c-3.005.247-5.505-.753-7.5-3l-1 1a4.934 4.934 0 0 1-.5-3h-6v-3h-5v-3h-6v-3c-5.922-1.727-11.089-4.727-15.5-9-.718.951-1.551 1.117-2.5.5 1.333-.667 1.333-1.333 0-2a12.93 12.93 0 0 0-5-.5v-3a58.97 58.97 0 0 1-11-3v-3c-8.654-3.265-16.321-6.932-23-11v-3h-6v-3h-5v-3a8.43 8.43 0 0 1-4-.5c-4.85-3.699-10.184-6.199-16-7.5v-3h-6v-3c-2.092-.061-3.592-1.061-4.5-3-1.299.466-2.799.466-4.5 0v-3c-1.788.285-3.455-.048-5-1-2.158-3.144-5.158-4.477-9-4v-3a12.93 12.93 0 0 1-5-.5c-2.625-3.031-6.125-5.864-10.5-8.5-2.537.677-4.537-.323-6-3l-1 1c-1.667-1-3-2.333-4-4-1.049 1.017-2.216 1.184-3.5.5l1-1a15.645 15.645 0 0 1-4-2.5c-1-27.992-1.333-55.992-1-84a144.982 144.982 0 0 1 15-6c-.167 19.336 0 38.67.5 58 5.48 4.594 11.647 8.094 18.5 10.5a82.842 82.842 0 0 0 19 11 147.725 147.725 0 0 1 17 12c13.267 5.247 25.6 12.247 37 21a24.569 24.569 0 0 0 8 3 201.636 201.636 0 0 1 27 17l10 4c1.374 3.683 4.041 5.349 8 5a279.412 279.412 0 0 1 19 12c4.871 1.741 9.204 4.408 13 8a35.157 35.157 0 0 1 10 5 66.364 66.364 0 0 0 9.5 2.5 92.109 92.109 0 0 1 10.5-2.5 78.988 78.988 0 0 0 14-9l10-4c4.933-4.604 10.6-7.938 17-10l4-4a319.99 319.99 0 0 0 46-27 91.311 91.311 0 0 0 23-13 157.436 157.436 0 0 0 27-15 24.569 24.569 0 0 1 8-3 219.87 219.87 0 0 1 13-10c8.275-2.564 15.442-7.064 21.5-13.5.113-2.474 1.113-4.474 3-6 .5-42.665.667-85.332.5-128 4.03-5.024 8.03-10.024 12-15Z"/><path style="opacity:1" fill="#273339" d="M595.5 514.5c.167 42.668 0 85.335-.5 128-1.887 1.526-2.887 3.526-3 6-6.058 6.436-13.225 10.936-21.5 13.5a219.87 219.87 0 0 0-13 10 24.569 24.569 0 0 0-8 3 157.436 157.436 0 0 1-27 15 91.311 91.311 0 0 1-23 13 319.99 319.99 0 0 1-46 27l-4 4c-6.4 2.062-12.067 5.396-17 10l-10 4a78.988 78.988 0 0 1-14 9 92.109 92.109 0 0 0-10.5 2.5 66.364 66.364 0 0 1-9.5-2.5 35.157 35.157 0 0 0-10-5c-3.796-3.592-8.129-6.259-13-8a279.412 279.412 0 0 0-19-12c-3.959.349-6.626-1.317-8-5l-10-4a201.636 201.636 0 0 0-27-17 24.569 24.569 0 0 1-8-3c-11.4-8.753-23.733-15.753-37-21a147.725 147.725 0 0 0-17-12 82.842 82.842 0 0 1-19-11c-6.853-2.406-13.02-5.906-18.5-10.5-.5-19.33-.667-38.664-.5-58a50.546 50.546 0 0 1 12-6c-.167 19.336 0 38.67.5 58a46.99 46.99 0 0 0 10.5 5.5l4 4a90.42 90.42 0 0 0 14 6 77.598 77.598 0 0 0 23 13l4 4 10 4c4.933 4.604 10.6 7.938 17 10 3.574 3.951 7.907 6.618 13 8 6.962 5.648 14.628 9.981 23 13 1.918 2.928 4.585 4.594 8 5a78.488 78.488 0 0 0 23 13c3.671 4.417 8.338 7.083 14 8 2.457 3.058 5.457 5.392 9 7a97.288 97.288 0 0 1 12 5.5 7683.65 7683.65 0 0 0 184-106c1-38.328 1.333-76.661 1-115l1-2a85.693 85.693 0 0 0 11-11Z"/><path style="opacity:1" fill="#afb4af" d="M212.5 484.5a151.198 151.198 0 0 0 24 1l10 10a212.654 212.654 0 0 0 31 29 2545.963 2545.963 0 0 1-61.5 2c-5.876-.005-11.376-.671-16.5-2a470.851 470.851 0 0 0 11-27c.768-.763 1.268-1.763 1.5-3 .498-3.317.665-6.65.5-10Z"/><path style="opacity:1" fill="#acb1ad" d="M594.5 458.5c6.155.636 12.489.636 19 0-13.511 25.192-30.844 47.526-52 67a285.795 285.795 0 0 1-23 17c-10.519.29-20.852.29-31 0 26.246-14.732 49.079-33.732 68.5-57a677.972 677.972 0 0 0 18.5-27Z"/><path style="opacity:1" fill="#1c191a" d="M583.5 444.5c5.858-.322 11.525.011 17 1a115.377 115.377 0 0 1-6 13 677.972 677.972 0 0 1-18.5 27c-19.421 23.268-42.254 42.268-68.5 57-57.842 28.048-117.176 31.548-178 10.5-18.741-7.198-36.074-16.698-52-28.5a212.654 212.654 0 0 1-31-29h22c55.713 49.844 120.046 65.678 193 47.5 39.725-11.85 72.725-33.683 99-65.5a188.324 188.324 0 0 0 23-33Z"/><path style="opacity:1" fill="#1a1718" d="M193.5 496.5c5.858-.322 11.525.011 17 1a470.851 470.851 0 0 1-11 27 2903.384 2903.384 0 0 0-26 58l1 1 87-38.5c6.524-1.011 12.857-.345 19 2 60.648 37.283 125.315 46.283 194 27 23.181-7.091 44.514-17.591 64-31.5a285.795 285.795 0 0 0 23-17h23l-1 2c-16.878 16.433-35.544 30.433-56 42a58.37 58.37 0 0 0-9 5c-69.841 32.574-140.507 34.407-212 5.5l-25-12.5c-3.636-2.823-7.636-5.156-12-7a1034.383 1034.383 0 0 0-56 24 50.546 50.546 0 0 0-12 6 144.982 144.982 0 0 0-15 6c-9.418 5.97-18.251 5.303-26.5-2-4.307-6.776-4.64-13.776-1-21a1308.79 1308.79 0 0 0 27.5-63 92.485 92.485 0 0 0 7-14Z"/><path style="opacity:1" fill="#fdfefe" d="M583.5 527.5c.333 38.339 0 76.672-1 115a7683.65 7683.65 0 0 1-184 106 97.288 97.288 0 0 0-12-5.5c-3.543-1.608-6.543-3.942-9-7-5.662-.917-10.329-3.583-14-8a78.488 78.488 0 0 1-23-13c-3.415-.406-6.082-2.072-8-5-8.372-3.019-16.038-7.352-23-13-5.093-1.382-9.426-4.049-13-8-6.4-2.062-12.067-5.396-17-10l-10-4-4-4a77.598 77.598 0 0 1-23-13 90.42 90.42 0 0 1-14-6l-4-4a46.99 46.99 0 0 1-10.5-5.5c-.5-19.33-.667-38.664-.5-58a1034.383 1034.383 0 0 1 56-24c-.167 16.337 0 32.67.5 49 5.97 6.53 13.137 11.03 21.5 13.5a27.816 27.816 0 0 1 8 6 420.445 420.445 0 0 0 32 17c3.705 4.342 8.372 7.009 14 8a643.917 643.917 0 0 0 29 18c2.861.54 5.528 1.54 8 3l11 7c4 .667 8 .667 12 0 6.962-5.648 14.628-9.981 23-13a679.07 679.07 0 0 0 23-15l22-11a83.449 83.449 0 0 1 24-13c3.391-3.687 7.391-6.354 12-8a142.458 142.458 0 0 0 16-10l1.5-1.5c.5-13.663.667-27.329.5-41 20.456-11.567 39.122-25.567 56-42Z"/><path style="opacity:1" fill="#6b5b7f" d="M241.5 462.5h20a6.547 6.547 0 0 0 3 3 149.375 149.375 0 0 0 20 21c42.195 37.336 91.528 52.503 148 45.5 38.664-6.166 71.997-22.666 100-49.5 2.254-.624 3.921-1.957 5-4 7.65-.643 15.317-.977 23-1-26.275 31.817-59.275 53.65-99 65.5-72.954 18.178-137.287 2.344-193-47.5-10.158-10.148-19.158-21.148-27-33Z"/><path style="opacity:1" fill="#86719f" d="M532.5 482.5c-28.003 26.834-61.336 43.334-100 49.5-56.472 7.003-105.805-8.164-148-45.5 10.668-.668 21.168-.668 31.5 0l6-2 51 1 5-2 51 1 4-2 51 1 5-2c14.454.099 28.954.432 43.5 1Z"/><path style="opacity:1" fill="#a7aba7" d="M199.5 524.5c5.124 1.329 10.624 1.995 16.5 2a2545.963 2545.963 0 0 0 61.5-2c15.926 11.802 33.259 21.302 52 28.5 60.824 21.048 120.158 17.548 178-10.5 10.148.29 20.481.29 31 0-19.486 13.909-40.819 24.409-64 31.5-68.685 19.283-133.352 10.283-194-27-6.143-2.345-12.476-3.011-19-2l-87 38.5-1-1a2903.384 2903.384 0 0 1 26-58Z"/><path style="opacity:1" fill="#273339" d="M269.5 560.5c4.364 1.844 8.364 4.177 12 7v38c3.978-.534 6.978.966 9 4.5a32.449 32.449 0 0 0 9 4l27 17a90.42 90.42 0 0 0 14 6 523.182 523.182 0 0 0 22 15c8.681 3.01 16.681 7.344 24 13 4.471 2.161 8.971 4.327 13.5 6.5a2929.62 2929.62 0 0 1 12.5-8.5 146.497 146.497 0 0 0 31-18c5.093-1.382 9.426-4.049 13-8l9-3a686.508 686.508 0 0 1 52-30.5 211.151 211.151 0 0 0 1-29 58.37 58.37 0 0 1 9-5 840.27 840.27 0 0 1-.5 41l-1.5 1.5a142.458 142.458 0 0 1-16 10c-4.609 1.646-8.609 4.313-12 8a83.449 83.449 0 0 0-24 13l-22 11a679.07 679.07 0 0 1-23 15c-8.372 3.019-16.038 7.352-23 13-4 .667-8 .667-12 0l-11-7a24.569 24.569 0 0 0-8-3 643.917 643.917 0 0 1-29-18c-5.628-.991-10.295-3.658-14-8a420.445 420.445 0 0 1-32-17 27.816 27.816 0 0 0-8-6c-8.363-2.47-15.53-6.97-21.5-13.5-.5-16.33-.667-32.663-.5-49Z"/><path style="opacity:1" fill="#b8bdb9" d="m281.5 567.5 25 12.5c71.493 28.907 142.159 27.074 212-5.5.332 9.69-.002 19.356-1 29a686.508 686.508 0 0 0-52 30.5l-9 3c-3.574 3.951-7.907 6.618-13 8a146.497 146.497 0 0 1-31 18 2929.62 2929.62 0 0 0-12.5 8.5 5215.086 5215.086 0 0 1-13.5-6.5c-7.319-5.656-15.319-9.99-24-13a523.182 523.182 0 0 1-22-15 90.42 90.42 0 0 1-14-6l-27-17a32.449 32.449 0 0 1-9-4c-2.022-3.534-5.022-5.034-9-4.5v-38Z"/><path style="opacity:1" fill="#b8beb9" d="M599.5 686.5c1.333.667 1.333.667 0 0ZM570.5 703.5c1.333.667 1.333.667 0 0ZM476.5 757.5c1.333.667 1.333.667 0 0Z"/></svg>