<?xml version="1.0" encoding="UTF-8"?><svg xmlns="http://www.w3.org/2000/svg" width="800" height="800" style="shape-rendering:geometricPrecision;text-rendering:geometricPrecision;image-rendering:optimizeQuality;fill-rule:evenodd;clip-rule:evenodd"><path style="opacity:1" fill="#939494" d="M576.5-.5h9a2.429 2.429 0 0 0 .5 2c1.049-1.017 2.216-1.184 3.5-.5a20.495 20.495 0 0 0 2.5 3.5c1.356-.88 2.856-1.214 4.5-1v3c2.822 1.432 6.489 2.432 11 3v3c2.092.061 3.592 1.061 4.5 3 2.537-.677 4.537.323 6 3 2.361-.566 4.194.434 5.5 3l2-1c.35 2.067 2.017 3.067 5 3v3h6v3h5v3h6v3a27.247 27.247 0 0 0 9 3c-.219 1.175.114 2.175 1 3a6.846 6.846 0 0 1 4-1v3a8.435 8.435 0 0 1 4 .5c-1.154.914-.987 1.747.5 2.5 1.299-.466 2.799-.466 4.5 0v3h6v3h5v3a428.986 428.986 0 0 0 20 8.5l-2 1c2.522.61 4.522 1.943 6 4 1.634.493 3.301.66 5 .5v3c2.908-.238 5.242.762 7 3 .951-.826 1.951-.992 3-.5l-1 1a6.977 6.977 0 0 1 3.5 2.5l1-1c.483.948.649 1.948.5 3h6v3h5v3c1.951-.273 3.451.393 4.5 2l1-1c6 4.386 12.5 7.886 19.5 10.5l-1 1c1.525 1.009 3.192 1.509 5 1.5v3h6v3h5v3c2.041.354 3.874.354 5.5 0 .483.948.649 1.948.5 3 2.836 1.276 5.836 1.942 9 2a4779.957 4779.957 0 0 1 2 194h-30a7571.829 7571.829 0 0 0-1-174 22.162 22.162 0 0 0-4-6.5c-3.29-.253-6.29-1.253-9-3a29746.604 29746.604 0 0 1-46-28 457.332 457.332 0 0 0-22-11l-4-4a161.879 161.879 0 0 1-33-19c-6.4-2.062-12.067-5.396-17-10a1126.1 1126.1 0 0 0-31-16c-2.365-3.714-5.698-5.714-10-6-7.082-6.364-15.416-9.031-25-8-2.223 2.223-4.889 3.556-8 4a2398.946 2398.946 0 0 0-60 36 501.784 501.784 0 0 0-35 18 192.174 192.174 0 0 1-15 10.5 142.852 142.852 0 0 1-16-3c1.928-1.974 4.261-3.474 7-4.5.837-1.011 1.17-2.178 1-3.5 4.493-.216 7.993-2.216 10.5-6 1.011.837 2.178 1.17 3.5 1v-3a59.031 59.031 0 0 0 11-3v-3c1.808.009 3.475-.491 5-1.5l-1-1a12.935 12.935 0 0 1 5-.5v-3a9.864 9.864 0 0 0 6-1 35.213 35.213 0 0 1 8-4v-3h6v-3a59.031 59.031 0 0 1 11-3v-3c1.808.009 3.475-.491 5-1.5-1.388-.89-1.222-1.39.5-1.5 2.071 1.167 3.571.5 4.5-2 6.434-2.343 12.767-5.343 19-9v-3a59.031 59.031 0 0 1 11-3 4.934 4.934 0 0 1 .5-3l1 1c1.995-2.247 4.495-3.247 7.5-3v-3h5v-3h6v-3c1.808.009 3.475-.491 5-1.5l-1-1a12.936 12.936 0 0 1 5-.5v-3c3.552.188 6.219-1.145 8-4ZM372.5 86.5a263.202 263.202 0 0 1-19.5 3 11.114 11.114 0 0 1-2.5-1 12987.88 12987.88 0 0 0-112-64.5c-5.287.175-10.621.509-16 1a583.354 583.354 0 0 0-33 19 175.013 175.013 0 0 0-28 16l-4 1-23 15a336.071 336.071 0 0 0-40 23c-5.503 1.171-10.17 3.837-14 8a133.395 133.395 0 0 0-32 18c-2.71 1.747-5.71 2.747-9 3-1.574 1.826-2.407 3.993-2.5 6.5-.5 57.999-.667 115.999-.5 174h-30c.01-64.648.01-129.148 0-193.5a169.104 169.104 0 0 0 15-5.5v-3a58.967 58.967 0 0 0 11-3v-3a417.79 417.79 0 0 0 15-7 32.686 32.686 0 0 0 8.5-6l1 1c1.049-1.607 2.549-2.273 4.5-2v-3a59.029 59.029 0 0 1 11-3 4.932 4.932 0 0 1 .5-3l1 1c2.015-3.065 4.515-4.065 7.5-3v-3h5v-3c1.7.16 3.366-.007 5-.5 1.478-2.057 3.478-3.39 6-4l-2-1a18.436 18.436 0 0 1 6-.5v-3a87.51 87.51 0 0 0 14-5v-3h6v-3h5v-3c1.701-.466 3.201-.466 4.5 0 3.279-4.047 7.946-7.047 14-9a18.264 18.264 0 0 0 5-4l1 1c1.049-1.607 2.549-2.273 4.5-2v-3h5v-3h6v-3c4.612-1.195 9.279-2.862 14-5v-3c1.701-.466 3.201-.466 4.5 0 .908-1.939 2.408-2.939 4.5-3v-3h6v-3c1.788.285 3.455-.048 5-1a38.767 38.767 0 0 0 7-4.5 49.25 49.25 0 0 1 14 0c2.025 1.677 4.359 2.677 7 3-1.134 1.016-.801 1.683 1 2l5 1-1 1c2.622 3.073 5.955 4.573 10 4.5v3h6v3c3.191.262 5.858 1.596 8 4a9.864 9.864 0 0 0 6 1v3c3.58 1.22 7.247 2.386 11 3.5l-2 1c2.767.678 4.934 2.178 6.5 4.5l1-1c3.769 1.797 7.102 4.13 10 7a3.942 3.942 0 0 1 2-1c1.482 1.612 3.315 2.612 5.5 3v3h6v3h5v3h6v3a87.51 87.51 0 0 0 14 5v3c1.699-.16 3.366.007 5 .5l-1 1c1.525 1.009 3.192 1.509 5 1.5v3h6v3h5v3c2.985-1.065 5.485-.065 7.5 3l1-1c.483.948.649 1.948.5 3h5v3h6v3h4Z"/><path style="opacity:1" fill="#273339" d="M761.5 134.5c.167 75.334 0 150.667-.5 226a303.537 303.537 0 0 0-32.5 18 285.367 285.367 0 0 1-20 10.5c-3.342 4.33-7.675 6.997-13 8a1884.541 1884.541 0 0 0-60 36 1614.434 1614.434 0 0 1-40 21 75.701 75.701 0 0 1-9 6.5c-5.22-.95-9.887-2.95-14-6a1725.961 1725.961 0 0 1 69-38.5 3660.5 3660.5 0 0 1 91-54 84.545 84.545 0 0 1 18-8.5c.167-70.334 0-140.667-.5-211 .564-4.29-1.269-6.457-5.5-6.5a203.265 203.265 0 0 0-37-21l-4-4a91.311 91.311 0 0 1-23-13 457.332 457.332 0 0 0-22-11l-4-4a483.026 483.026 0 0 1-51-29c-3.415-.406-6.082-2.072-8-5a90.401 90.401 0 0 0-14-6c-5.722-6.435-12.722-8.768-21-7-7.36 5.663-15.36 9.996-24 13-3.619 3.977-7.952 6.644-13 8a3153.787 3153.787 0 0 1-66 38.5 151.917 151.917 0 0 1-15-4 192.174 192.174 0 0 0 15-10.5 501.784 501.784 0 0 1 35-18 2398.946 2398.946 0 0 1 60-36c3.111-.444 5.777-1.777 8-4 9.584-1.031 17.918 1.636 25 8 4.302.286 7.635 2.286 10 6a1126.1 1126.1 0 0 1 31 16c4.933 4.604 10.6 7.938 17 10a161.879 161.879 0 0 0 33 19l4 4a457.332 457.332 0 0 1 22 11 29746.604 29746.604 0 0 0 46 28c2.71 1.747 5.71 2.747 9 3a22.162 22.162 0 0 1 4 6.5ZM350.5 88.5c-.47 1.194-1.47 1.86-3 2a187.53 187.53 0 0 1-12 2 1187.519 1187.519 0 0 1-81-46.5A228.066 228.066 0 0 0 230 34.5 112.066 112.066 0 0 0 206.5 48l-10 4-3 3c-6.771 2.445-12.771 6.111-18 11l-10 4-4 4a520.666 520.666 0 0 0-59 34l-9 3c-3.796 3.592-8.13 6.259-13 8A361.546 361.546 0 0 1 48 137.5c-.667 72-.667 144 0 216a7214.146 7214.146 0 0 0 125 72c.5-21.664.667-43.331.5-65a340.197 340.197 0 0 0-18-8.5 55.63 55.63 0 0 0-18-10 78.488 78.488 0 0 0-23-13 56.965 56.965 0 0 0-10.5-7.5 5697.651 5697.651 0 0 1 0-151 6.978 6.978 0 0 1 2.5-3.5 146.497 146.497 0 0 0 31-18c8.372-3.019 16.038-7.352 23-13 5.093-1.382 9.426-4.049 13-8a90.42 90.42 0 0 0 14-6c1.918-2.928 4.585-4.594 8-5a226.438 226.438 0 0 1 29-17 42.498 42.498 0 0 1 13 0 397.555 397.555 0 0 0 40 23.5 37.79 37.79 0 0 1-6 10 326.109 326.109 0 0 0-34-18.5l-4.5-4.5c-1.604 1.149-3.27 1.149-5 0a1068.258 1068.258 0 0 1-78.5 45.5c-5.201 4.797-11.201 8.13-18 10-4.849 4.198-10.183 7.531-16 10l-2.5 2.5a2379.52 2379.52 0 0 0-.5 69v67c5.301 1.324 9.968 3.824 14 7.5l10 4c1.918 2.928 4.585 4.594 8 5 2.674 3.012 6.007 4.678 10 5a82.15 82.15 0 0 0 22 13c3.97 2.131 6.637 5.298 8 9.5.167 22.669 0 45.336-.5 68-1.232 2.8-1.899 5.8-2 9-2.909 2.894-6.409 3.727-10.5 2.5-4.863-3.51-10.196-6.177-16-8a469.265 469.265 0 0 0-50-29 432.738 432.738 0 0 0-38-22.5 63.155 63.155 0 0 0-17-8.5 13.908 13.908 0 0 1-3-4l-9.5-5.5a485.765 485.765 0 0 1-1.5-52c-.167-58.001 0-116.001.5-174 .093-2.507.926-4.674 2.5-6.5 3.29-.253 6.29-1.253 9-3a133.395 133.395 0 0 1 32-18c3.83-4.163 8.497-6.829 14-8a336.071 336.071 0 0 1 40-23l23-15 4-1a175.013 175.013 0 0 1 28-16 583.354 583.354 0 0 1 33-19 276.355 276.355 0 0 1 16-1 12987.88 12987.88 0 0 1 112 64.5Z"/><path style="opacity:1" fill="#fdfdfd" d="M335.5 92.5c-16.857 4.426-32.523 11.593-47 21.5-3.264 3.773-6.93 6.94-11 9.5a397.555 397.555 0 0 1-40-23.5 42.498 42.498 0 0 0-13 0 226.438 226.438 0 0 0-29 17c-3.415.406-6.082 2.072-8 5a90.42 90.42 0 0 1-14 6c-3.574 3.951-7.907 6.618-13 8-6.962 5.648-14.628 9.981-23 13a146.497 146.497 0 0 1-31 18 6.978 6.978 0 0 0-2.5 3.5 5697.651 5697.651 0 0 0 0 151 56.965 56.965 0 0 1 10.5 7.5 78.488 78.488 0 0 1 23 13 55.63 55.63 0 0 1 18 10 340.197 340.197 0 0 1 18 8.5c.167 21.669 0 43.336-.5 65a7214.146 7214.146 0 0 1-125-72c-.667-72-.667-144 0-216A361.546 361.546 0 0 0 80.5 119c4.87-1.741 9.204-4.408 13-8l9-3a520.666 520.666 0 0 1 59-34l4-4 10-4c5.229-4.889 11.229-8.555 18-11l3-3 10-4A112.066 112.066 0 0 1 230 34.5 228.066 228.066 0 0 1 254.5 46a1187.519 1187.519 0 0 0 81 46.5ZM572.5 454.5a192.82 192.82 0 0 1-31-11.5c-2.174-.877-3.841-.377-5 1.5-5.399-1.8-10.732-3.8-16-6-4.688-2.688-8.355-6.355-11-11a82.935 82.935 0 0 1 16-8.5l4-4a90.42 90.42 0 0 0 14-6c4.933-4.604 10.6-7.938 17-10a146.497 146.497 0 0 1 31-18 59.724 59.724 0 0 1 20-11c5.057-5.063 11.057-8.396 18-10 4.952-4.639 10.619-7.973 17-10l6-5a1108.692 1108.692 0 0 0 39-22 6.978 6.978 0 0 0 2.5-3.5c.667-48.667.667-97.333 0-146a69.2 69.2 0 0 0-4.5-6.5 198.572 198.572 0 0 1-36-21 114.302 114.302 0 0 1-13-6 182.852 182.852 0 0 0-35-20c-3.671-4.417-8.338-7.083-14-8a171.322 171.322 0 0 0-19-12c-8.302-.757-15.635 1.576-22 7a68.695 68.695 0 0 0-14 7c-4.302.286-7.635 2.286-10 6a285.996 285.996 0 0 0-17 9.5c-6.484-8.761-14.484-15.928-24-21.5a174.04 174.04 0 0 0-28-12.5 3153.787 3153.787 0 0 0 66-38.5c5.048-1.356 9.381-4.023 13-8 8.64-3.004 16.64-7.337 24-13 8.278-1.768 15.278.565 21 7a90.401 90.401 0 0 1 14 6c1.918 2.928 4.585 4.594 8 5a483.026 483.026 0 0 0 51 29l4 4a457.332 457.332 0 0 1 22 11 91.311 91.311 0 0 0 23 13l4 4a203.265 203.265 0 0 1 37 21c4.231.043 6.064 2.21 5.5 6.5.5 70.333.667 140.666.5 211a84.545 84.545 0 0 0-18 8.5 3660.5 3660.5 0 0 0-91 54 1725.961 1725.961 0 0 0-69 38.5Z"/><path style="opacity:.998" fill="#3e3d44" d="M372.5 86.5a426.103 426.103 0 0 1 54 2 142.852 142.852 0 0 0 16 3 151.917 151.917 0 0 0 15 4 174.04 174.04 0 0 1 28 12.5c9.516 5.572 17.516 12.739 24 21.5 1.159 3.651 2.826 6.985 5 10a279.568 279.568 0 0 1 2 45v16a40.914 40.914 0 0 1-.5 9c-3.511 2.176-7.344 3.676-11.5 4.5-70.815 16.505-141.815 17.505-213 3a283.635 283.635 0 0 1-23-6l-1.5-1.5a40.914 40.914 0 0 1-.5-9h-8c.203 1.89-.463 3.39-2 4.5-4.902.741-9.568 1.908-14 3.5a66.064 66.064 0 0 0-20 7.5c-2.692 2.632-2.359 4.966 1 7 7.6 4.254 15.6 7.42 24 9.5 22.441 6.633 45.441 11.133 69 13.5 72.503 8.941 144.17 4.774 215-12.5a81 81 0 0 0 20-6.5c4.541-1.763 8.541-4.263 12-7.5-2.254-3.134-5.254-5.3-9-6.5a128.579 128.579 0 0 0-15-4.5 280.71 280.71 0 0 1-13-3.5c-1.537-1.11-2.203-2.61-2-4.5.691-1.522 1.858-2.522 3.5-3a120.7 120.7 0 0 1 14 3c1.07-.028 1.903-.361 2.5-1a674.776 674.776 0 0 0 20 9.5c3.219 2.056 5.885 4.556 8 7.5-.6 3.861-1.934 7.527-4 11-12.184 6.917-25.184 11.917-39 15-90.147 20.461-180.48 21.128-271 2-12.747-2.943-25.081-7.277-37-13a75.629 75.629 0 0 1-9-7c-1.715-8.15 1.285-13.983 9-17.5a129.596 129.596 0 0 1 37-10 17.18 17.18 0 0 0 7.5-4.5l1-45a114.129 114.129 0 0 1 4.5-14 37.79 37.79 0 0 0 6-10c4.07-2.56 7.736-5.727 11-9.5 14.477-9.907 30.143-17.074 47-21.5a187.53 187.53 0 0 0 12-2c1.53-.14 2.53-.806 3-2 .765.423 1.598.757 2.5 1a263.202 263.202 0 0 0 19.5-3Z"/><path style="opacity:1" fill="#696d72" d="M449.5 102.5a135.49 135.49 0 0 1 30 17.5c8.745 7.66 14.245 17.16 16.5 28.5.5 14.329.667 28.663.5 43-70.013 15.923-140.013 15.923-210 0-.167-14.67 0-29.337.5-44 4.67-15.334 13.837-27.168 27.5-35.5 5.859-2.559 10.859-5.392 15-8.5 20.199-6.386 41.033-9.386 62.5-9 19.582-.073 38.749 2.593 57.5 8Z"/><path style="opacity:1" fill="#273339" d="M509.5 427.5c-3.399-1.888-6.399-4.388-9-7.5.556-.383.889-.883 1-1.5a253.957 253.957 0 0 0 30-16.5c3.25-3.637 7.25-5.97 12-7 6.885-5.647 14.551-9.98 23-13 .881-.708 1.547-1.542 2-2.5a238.924 238.924 0 0 0 25-14.5c4.871-1.741 9.204-4.408 13-8 5.319-1.548 9.985-4.215 14-8a349.402 349.402 0 0 0 37-19 679.07 679.07 0 0 1 23-15 12.93 12.93 0 0 1 5-.5c.331-28.505-.002-56.838-1-85-.283-.789-.783-1.456-1.5-2l-1-51A4141.914 4141.914 0 0 1 568.5 111a552.589 552.589 0 0 0-18 8 363.766 363.766 0 0 1-36 20.5c-2.174-3.015-3.841-6.349-5-10a285.996 285.996 0 0 1 17-9.5c2.365-3.714 5.698-5.714 10-6a68.695 68.695 0 0 1 14-7c6.365-5.424 13.698-7.757 22-7a171.322 171.322 0 0 1 19 12c5.662.917 10.329 3.583 14 8a182.852 182.852 0 0 1 35 20 114.302 114.302 0 0 0 13 6 198.572 198.572 0 0 0 36 21 69.2 69.2 0 0 1 4.5 6.5c.667 48.667.667 97.333 0 146a6.978 6.978 0 0 1-2.5 3.5 1108.692 1108.692 0 0 1-39 22l-6 5c-6.381 2.027-12.048 5.361-17 10-6.943 1.604-12.943 4.937-18 10a59.724 59.724 0 0 0-20 11 146.497 146.497 0 0 0-31 18c-6.4 2.062-12.067 5.396-17 10a90.42 90.42 0 0 1-14 6l-4 4a82.935 82.935 0 0 0-16 8.5Z"/><path style="opacity:1" fill="#94969a" d="M329.5 103.5c-4.141 3.108-9.141 5.941-15 8.5-13.663 8.332-22.83 20.166-27.5 35.5-.5 14.663-.667 29.33-.5 44l-12-2c-8.647-37.864 4.353-64.697 39-80.5a151.175 151.175 0 0 1 16-5.5Z"/><path style="opacity:1" fill="#55585c" d="M449.5 102.5c15.896 3.615 30.229 10.449 43 20.5 7.655 6.988 12.822 15.488 15.5 25.5a400.05 400.05 0 0 1 0 40 71.754 71.754 0 0 1-11.5 3c.167-14.337 0-28.671-.5-43-2.255-11.34-7.755-20.84-16.5-28.5a135.49 135.49 0 0 0-30-17.5Z"/><path style="opacity:1" fill="#939393" d="M271.5 133.5a114.129 114.129 0 0 0-4.5 14l-1 45a17.18 17.18 0 0 1-7.5 4.5 129.596 129.596 0 0 0-37 10c-7.715 3.517-10.715 9.35-9 17.5-4.341.931-7.841 3.264-10.5 7a2047.17 2047.17 0 0 0-.5 64c-.985 4.134-1.318 8.468-1 13h-87a931.31 931.31 0 0 0-1-61c-.167-23.002 0-46.002.5-69l2.5-2.5c5.817-2.469 11.151-5.802 16-10 6.799-1.87 12.799-5.203 18-10a1068.258 1068.258 0 0 0 78.5-45.5c1.73 1.149 3.396 1.149 5 0l4.5 4.5a326.109 326.109 0 0 1 34 18.5ZM684.5 229.5v79h-88a484.723 484.723 0 0 0-1-44c.167-11.671 0-23.338-.5-35a122.618 122.618 0 0 1-15.5-10.5c-2.56-.384-4.894-1.217-7-2.5-2.115-2.944-4.781-5.444-8-7.5a674.776 674.776 0 0 1-20-9.5 283.177 283.177 0 0 1-28-15 279.568 279.568 0 0 0-2-45 363.766 363.766 0 0 0 36-20.5 552.589 552.589 0 0 1 18-8A4141.914 4141.914 0 0 0 682 176.5l1 51c.717.544 1.217 1.211 1.5 2Z"/><path style="opacity:1" fill="#273339" d="M516.5 184.5a283.177 283.177 0 0 0 28 15c-.597.639-1.43.972-2.5 1a120.7 120.7 0 0 0-14-3c-1.642.478-2.809 1.478-3.5 3-1.459.067-2.792-.266-4-1l-4-3v-12Z"/><path style="opacity:1" fill="#cf9ea4" d="M285.5 199.5c.888 2.554 1.221 5.221 1 8a48.184 48.184 0 0 0-11-2.5c-.935-2.381-1.268-4.881-1-7.5l11 2Z"/><path style="opacity:1" fill="#9a6167" d="M496.5 207.5c1.678-2.81 1.345-5.143-1-7a188.414 188.414 0 0 1 13-3v7a79.054 79.054 0 0 0-12 3Z"/><path style="opacity:1" fill="#c5c7c9" d="m516.5 196.5 4 3c-1.068.934-2.401 1.268-4 1v-4Z"/><path style="opacity:1" fill="#bf7981" d="M285.5 199.5c69.888 15.628 139.888 15.961 210 1 2.345 1.857 2.678 4.19 1 7-69.996 16-139.996 16-210 0 .221-2.779-.112-5.446-1-8Z"/><path style="opacity:1" fill="#696d72" d="M520.5 199.5c1.208.734 2.541 1.067 4 1-.203 1.89.463 3.39 2 4.5a280.71 280.71 0 0 0 13 3.5c4.203 2.028 8.036 4.695 11.5 8 .868 4.172-.632 7.338-4.5 9.5l-15 7.5c-70.83 17.274-142.497 21.441-215 12.5-23.559-2.367-46.559-6.867-69-13.5-2.795-2.448-6.461-4.615-11-6.5-2.274-1.765-3.941-3.932-5-6.5a10.258 10.258 0 0 1 1.5-4 498.972 498.972 0 0 0 9.5-7c4.432-1.592 9.098-2.759 14-3.5 1.537-1.11 2.203-2.61 2-4.5h8a40.914 40.914 0 0 0 .5 9l1.5 1.5a283.635 283.635 0 0 0 23 6c71.185 14.505 142.185 13.505 213-3 4.156-.824 7.989-2.324 11.5-4.5.498-2.982.665-5.982.5-9 1.599.268 2.932-.066 4-1Z"/><path style="opacity:1" fill="#929498" d="M242.5 208.5a498.972 498.972 0 0 1-9.5 7 10.258 10.258 0 0 0-1.5 4c1.059 2.568 2.726 4.735 5 6.5 4.539 1.885 8.205 4.052 11 6.5a96.332 96.332 0 0 1-24-9.5c-3.359-2.034-3.692-4.368-1-7a66.064 66.064 0 0 1 20-7.5Z"/><path style="opacity:1" fill="#54575b" d="M539.5 208.5a128.579 128.579 0 0 1 15 4.5c3.746 1.2 6.746 3.366 9 6.5-3.459 3.237-7.459 5.737-12 7.5a81 81 0 0 1-20 6.5l15-7.5c3.868-2.162 5.368-5.328 4.5-9.5-3.464-3.305-7.297-5.972-11.5-8Z"/><path style="opacity:1" fill="#263238" d="M572.5 216.5c2.106 1.283 4.44 2.116 7 2.5a122.618 122.618 0 0 0 15.5 10.5c.5 11.662.667 23.329.5 35 .167 25.669 0 51.335-.5 77-3.65 4.239-8.15 7.072-13.5 8.5a114.425 114.425 0 0 1-30 18 213.054 213.054 0 0 1-16 10.5 82.045 82.045 0 0 0-11 5c-2.412.094-4.245-.906-5.5-3l-1-33c-1.319-1.75-1.819-3.75-1.5-6 3.686-8.743 7.352-17.41 11-26-.167 17.67 0 35.336.5 53a48.835 48.835 0 0 0 13.5-8.5c7.294-1.951 13.627-5.617 19-11a249.84 249.84 0 0 0 22.5-11.5c.833-34.005.667-68.005-.5-102a89.227 89.227 0 0 1-14-8c2.066-3.473 3.4-7.139 4-11ZM212.5 224.5a75.629 75.629 0 0 0 9 7 28.33 28.33 0 0 1-8 4v222a126.507 126.507 0 0 1-12 4v-166c-.167-21.336 0-42.669.5-64 2.659-3.736 6.159-6.069 10.5-7Z"/><path style="opacity:1" fill="#fdfdfd" d="M568.5 227.5a89.227 89.227 0 0 0 14 8 1734.395 1734.395 0 0 1 .5 102 249.84 249.84 0 0 1-22.5 11.5c-5.373 5.383-11.706 9.049-19 11a48.835 48.835 0 0 1-13.5 8.5c-.5-17.664-.667-35.33-.5-53a282.056 282.056 0 0 0 8.5-40c.667-7.667.667-15.333 0-23-1.444-1.655-3.278-2.322-5.5-2a41.541 41.541 0 0 1-1-8c13.816-3.083 26.816-8.083 39-15Z"/><path style="opacity:1" fill="#fefefe" d="M221.5 231.5c11.919 5.723 24.253 10.057 37 13v6c-1.517.011-2.684.677-3.5 2-.878 27.064 3.955 53.064 14.5 78v108c0 .667-.333 1-1 1l-14 5c-1.619-1.738-3.619-2.238-6-1.5a764.306 764.306 0 0 1-35 14.5v-222a28.33 28.33 0 0 0 8-4Z"/><path style="opacity:1" fill="#8c8c8d" d="M112.5 247.5a931.31 931.31 0 0 1 1 61h87c-.318-4.532.015-8.866 1-13v73c-.982 3.462-1.315 7.129-1 11h-15c.325-7.187-.009-14.187-1-21-1.363-4.202-4.03-7.369-8-9.5a82.15 82.15 0 0 1-22-13c-3.993-.322-7.326-1.988-10-5-3.415-.406-6.082-2.072-8-5l-10-4c-4.032-3.676-8.699-6.176-14-7.5v-67Z"/><path style="opacity:1" fill="#afa19e" d="M529.5 242.5a41.541 41.541 0 0 0 1 8c-3.147 66.792-31.48 120.292-85 160.5-12.675 9.171-26.675 15.338-42 18.5 35.417-16.569 63.583-41.569 84.5-75 20.109-31.768 29.275-66.435 27.5-104-80.301 15.413-160.634 15.746-241 1a229.261 229.261 0 0 0-16-4v-3c90.52 19.128 180.853 18.461 271-2Z"/><path style="opacity:1" fill="#ece3e0" d="M258.5 247.5a229.261 229.261 0 0 1 16 4c-.104 49.533 16.062 92.866 48.5 130 15.962 18.645 34.795 33.479 56.5 44.5a4.934 4.934 0 0 1-3 .5 139.366 139.366 0 0 1-39-21.5c-48.137-40.78-74.47-92.28-79-154.5v-3Z"/><path style="opacity:1" fill="#403f46" d="M258.5 250.5c4.53 62.22 30.863 113.72 79 154.5a139.366 139.366 0 0 0 39 21.5c8.622 3.514 17.622 4.514 27 3 15.325-3.162 29.325-9.329 42-18.5 53.52-40.208 81.853-93.708 85-160.5 2.222-.322 4.056.345 5.5 2 .667 7.667.667 15.333 0 23a282.056 282.056 0 0 1-8.5 40 10791.31 10791.31 0 0 0-11 26 344.693 344.693 0 0 1-31 45c-14.434 15.609-30.768 28.776-49 39.5-12.086 6.939-25.086 10.939-39 12a67.25 67.25 0 0 0 10 4.5 840.265 840.265 0 0 1 50 21c.536 3.365-.797 5.365-4 6-9.35-3.677-18.683-7.343-28-11a814.878 814.878 0 0 1-30-12 299.292 299.292 0 0 0-30 12 765.378 765.378 0 0 0-29 11 4.933 4.933 0 0 1-2.5-1 12.93 12.93 0 0 1-.5-5 568.849 568.849 0 0 1 50-21 187.64 187.64 0 0 0 10-4.5c-13.921-.973-26.921-4.973-39-12-18.232-10.724-34.566-23.891-49-39.5a310.985 310.985 0 0 1-24-33 378.06 378.06 0 0 1-12-23c-10.545-24.936-15.378-50.936-14.5-78 .816-1.323 1.983-1.989 3.5-2Z"/><path style="opacity:1" fill="#dccbc6" d="M403.5 429.5c-9.378 1.514-18.378.514-27-3a4.934 4.934 0 0 0 3-.5c-21.705-11.021-40.538-25.855-56.5-44.5-32.438-37.134-48.604-80.467-48.5-130 80.366 14.746 160.699 14.413 241-1 1.775 37.565-7.391 72.232-27.5 104-20.917 33.431-49.083 58.431-84.5 75Z"/><path style="opacity:1" fill="#8b8b8b" d="M684.5 229.5a1807.264 1807.264 0 0 1 1 85 12.93 12.93 0 0 0-5 .5 679.07 679.07 0 0 0-23 15 349.402 349.402 0 0 1-37 19c-4.015 3.785-8.681 6.452-14 8-3.796 3.592-8.129 6.259-13 8a238.924 238.924 0 0 1-25 14.5c-11.179.328-22.179-.005-33-1a213.054 213.054 0 0 0 16-10.5 114.425 114.425 0 0 0 30-18c5.35-1.428 9.85-4.261 13.5-8.5.5-25.665.667-51.331.5-77a484.723 484.723 0 0 1 1 44h88v-79Z"/><path style="opacity:1" fill="#3f3e45" d="M303.5 266.5c25.002-.167 50.002 0 75 .5l2 15c10 .667 20 .667 30 0l2-15c25-.667 50-.667 75 0l1.5 1.5a306.347 306.347 0 0 1 0 35l-1.5 1.5c-24.667.667-49.333.667-74 0-1.64-4.781-2.64-9.781-3-15-10-.667-20-.667-30 0-.36 5.219-1.36 10.219-3 15-24.667.667-49.333.667-74 0l-1.5-1.5a306.347 306.347 0 0 1 0-35c.717-.544 1.217-1.211 1.5-2Z"/><path style="opacity:1" fill="#686c71" d="M309.5 273.5c20.669-.167 41.336 0 62 .5a141.755 141.755 0 0 1 1 23.5h-63v-24Z"/><path style="opacity:1" fill="#94969a" d="M351.5 274.5c1.788-.285 3.455.048 5 1a164.51 164.51 0 0 0-6 21h-4a325.983 325.983 0 0 1 5-22Z"/><path style="opacity:1" fill="#96989c" d="M331.5 274.5h16a262.896 262.896 0 0 0-5 22 73.133 73.133 0 0 1-17-1 253.075 253.075 0 0 0 6-21Z"/><path style="opacity:1" fill="#696d72" d="M459.5 297.5a269.006 269.006 0 0 1 6-22c-1.545-.952-3.212-1.285-5-1a575.988 575.988 0 0 0-5 23h-37c-.315-7.92.018-15.753 1-23.5 20.664-.5 41.331-.667 62-.5v24h-22Z"/><path style="opacity:1" fill="#939599" d="M459.5 297.5h-4a575.988 575.988 0 0 1 5-23c1.788-.285 3.455.048 5 1a269.006 269.006 0 0 0-6 22Z"/><path style="opacity:1" fill="#96989c" d="M440.5 274.5a73.133 73.133 0 0 1 17 1 164 164 0 0 0-6 21h-16a325.706 325.706 0 0 1 5-22Z"/><path style="opacity:1" fill="#8b8c8c" d="M6.5 308.5h30a485.765 485.765 0 0 0 1.5 52l9.5 5.5a13.908 13.908 0 0 0 3 4 63.155 63.155 0 0 1 17 8.5c-10.487.994-21.154 1.328-32 1a58.967 58.967 0 0 1-11-3v-3h-6v-3c-4.013-1.674-8.013-3.341-12-5v-57Z"/><path style="opacity:1" fill="#8a8a8a" d="M761.5 134.5a7571.829 7571.829 0 0 1 1 174h30v57c-3.013-.128-5.513.872-7.5 3-2.411-1.653-3.578-.987-3.5 2-1.701.466-3.201.466-4.5 0-3.844 1.975-7.177 4.642-10 8l-1-1c-1.049 1.607-2.549 2.273-4.5 2-11.179.328-22.179-.005-33-1a303.537 303.537 0 0 1 32.5-18c.5-75.333.667-150.666.5-226Z"/><path style="opacity:1" fill="#263238" d="M269.5 330.5a378.06 378.06 0 0 0 12 23v75a70.851 70.851 0 0 1-10 10h-2v-108Z"/><path style="opacity:1" fill="#878787" d="M516.5 341.5c-.319 2.25.181 4.25 1.5 6l1 33c1.255 2.094 3.088 3.094 5.5 3a82.045 82.045 0 0 1 11-5c10.821.995 21.821 1.328 33 1-.453.958-1.119 1.792-2 2.5-8.449 3.02-16.115 7.353-23 13-4.75 1.03-8.75 3.363-12 7a253.957 253.957 0 0 1-30 16.5 4.934 4.934 0 0 1-3-.5c-3.928-4.436-8.261-8.269-13-11.5v-20a344.693 344.693 0 0 0 31-45ZM281.5 353.5a310.985 310.985 0 0 0 24 33v20a370.499 370.499 0 0 0-24 22v-75Z"/><path style="opacity:1" fill="#848484" d="M728.5 378.5c10.821.995 21.821 1.328 33 1v3c-3.937.204-7.604 1.204-11 3 .381 2.442-.286 3.109-2 2-.886.825-1.219 1.825-1 3h-6v3a12.93 12.93 0 0 0-5 .5c-1.079 2.043-2.746 3.376-5 4l1 1a12.93 12.93 0 0 1-5 .5v3a9.86 9.86 0 0 0-6 1c-3.423 1.192-6.256 3.192-8.5 6l-1-1c-1.049 1.607-2.549 2.273-4.5 2v3h-6v3h-5v3c-2.185.388-4.018 1.388-5.5 3-2.278-1.12-3.778-.287-4.5 2.5a101.955 101.955 0 0 0-13 5.5v3h-6v3h-6v3c-1.788-.285-3.455.048-5 1 1.129 2.029.629 2.363-1.5 1-1.712 3.452-4.212 4.452-7.5 3v3c-3.096-.593-5.429.407-7 3a47.25 47.25 0 0 1-7 3v3h-6v3c-1.788-.285-3.455.048-5 1a28.335 28.335 0 0 0-9.5 6l-1-1c-1.698 1.241-3.198 2.574-4.5 4a387.77 387.77 0 0 1-21-9 75.701 75.701 0 0 0 9-6.5 1614.434 1614.434 0 0 0 40-21 1884.541 1884.541 0 0 1 60-36c5.325-1.003 9.658-3.67 13-8a285.367 285.367 0 0 0 20-10.5Z"/><path style="opacity:1" fill="#e6e7e9" d="M305.5 388.5c15.282 16.79 32.616 30.957 52 42.5a96.006 96.006 0 0 0 24 9.5c1.213.247 1.88.914 2 2a568.849 568.849 0 0 0-50 21c-.813 3.598-3.147 5.598-7 6a1351.562 1351.562 0 0 1-16.5-59c-.748-2.251-2.248-3.584-4.5-4v-18ZM485.5 388.5v18c-2.252.416-3.752 1.749-4.5 4a6055.49 6055.49 0 0 0-20.5 58 11.445 11.445 0 0 1-3-5 840.265 840.265 0 0 0-50-21c.077-1.25.744-2.083 2-2.5 20.377-5.852 38.377-15.852 54-30a666.266 666.266 0 0 1 22-21.5Z"/><path style="opacity:1" fill="#3f3e45" d="M305.5 406.5c2.252.416 3.752 1.749 4.5 4a1351.562 1351.562 0 0 0 16.5 59c1.378 3.406 2.711 6.74 4 10 .492 2.319 1.492 4.319 3 6a116.8 116.8 0 0 0-1 21c-11.628-27.053-20.795-55.053-27.5-84a7.293 7.293 0 0 0-2-3 1335.851 1335.851 0 0 0-30.5 31 2285.945 2285.945 0 0 1 36.5 44 522.272 522.272 0 0 1-6 25 1834.549 1834.549 0 0 0 36 45 12.93 12.93 0 0 1 .5 5 11.803 11.803 0 0 1-3.5 2 21.365 21.365 0 0 1-6-5 1698.913 1698.913 0 0 0-35-43 16.2 16.2 0 0 1-1.5-3.5c3.013-7.69 5.179-15.524 6.5-23.5l-37-45c-.667-1.333-.667-2.667 0-4a107.125 107.125 0 0 0 8.5-9 70.851 70.851 0 0 0 10-10 370.499 370.499 0 0 1 24-22Z"/><path style="opacity:1" fill="#3f3f45" d="M485.5 406.5c4.739 3.231 9.072 7.064 13 11.5a4.934 4.934 0 0 0 3 .5c-.111.617-.444 1.117-1 1.5 2.601 3.112 5.601 5.612 9 7.5 2.645 4.645 6.312 8.312 11 11a146.17 146.17 0 0 1 8 11.5 55238.003 55238.003 0 0 1-23 29 4.934 4.934 0 0 0 3 .5h57c12.178-.328 24.178.005 36 1-35.678.264-71.345-.069-107-1 7.977-9.647 15.977-19.314 24-29a1424.165 1424.165 0 0 0-31.5-32 7712.992 7712.992 0 0 1-23.5 66c-2.088-1.439-4.421-2.106-7-2a20.69 20.69 0 0 1 1-5 71.285 71.285 0 0 0 3-9 6055.49 6055.49 0 0 1 20.5-58c.748-2.251 2.248-3.584 4.5-4Z"/><path style="opacity:1" fill="#b4b5b7" d="M305.5 386.5c14.434 15.609 30.768 28.776 49 39.5 12.079 7.027 25.079 11.027 39 12a187.64 187.64 0 0 1-10 4.5c-.12-1.086-.787-1.753-2-2a96.006 96.006 0 0 1-24-9.5c-19.384-11.543-36.718-25.71-52-42.5v-2Z"/><path style="opacity:1" fill="#b3b4b6" d="M485.5 386.5v2a666.266 666.266 0 0 0-22 21.5c-15.623 14.148-33.623 24.148-54 30-1.256.417-1.923 1.25-2 2.5a67.25 67.25 0 0 1-10-4.5c13.914-1.061 26.914-5.061 39-12 18.232-10.724 34.566-23.891 49-39.5Z"/><path style="opacity:1" fill="#878a8e" d="M332.5 506.5c-.166 6.675 0 13.342.5 20 .377 1.442 1.21 2.442 2.5 3a96.578 96.578 0 0 0 6.5 2 1235.025 1235.025 0 0 1 14 37c1.444 1.655 3.278 2.322 5.5 2a53.76 53.76 0 0 0 2 8h-19a37.42 37.42 0 0 1-5-9 12.93 12.93 0 0 0-.5-5 1834.549 1834.549 0 0 1-36-45 522.272 522.272 0 0 0 6-25 2285.945 2285.945 0 0 0-36.5-44 1335.851 1335.851 0 0 1 30.5-31 7.293 7.293 0 0 1 2 3c6.705 28.947 15.872 56.947 27.5 84Z"/><path style="opacity:1" fill="#85898d" d="M494.5 479.5a242.43 242.43 0 0 0-22 .5l-1.5 1.5c-.178 20.74-.678 41.406-1.5 62-1.694 1.027-3.027 2.361-4 4l-2-61v-2a7712.992 7712.992 0 0 0 23.5-66 1424.165 1424.165 0 0 1 31.5 32 44673.488 44673.488 0 0 0-24 29Z"/><path style="opacity:1" fill="#848484" d="M184.5 358.5c.991 6.813 1.325 13.813 1 21h15c-.315-3.871.018-7.538 1-11v93a235.44 235.44 0 0 0-15 7c.214-1.644-.12-3.144-1-4.5-12.035-7.764-24.535-14.264-37.5-19.5l-1 1c-2.509-1.937-5.343-2.937-8.5-3v-3h-6v-3h-3v-3h-6v-3h-5v-3c-2.921.354-5.254-.646-7-3-1.714 1.109-2.381.442-2-2a58.97 58.97 0 0 1-11-3v-3a27.267 27.267 0 0 0-9-3v-3c-2.908.238-5.242-.762-7-3a3.647 3.647 0 0 0-1.5 1c-1.667-1-3-2.333-4-4l-1 1a4.932 4.932 0 0 1-.5-3h-6v-3h-5v-3a544.412 544.412 0 0 1-29-14v-3c10.846.328 21.513-.006 32-1a432.738 432.738 0 0 1 38 22.5 469.265 469.265 0 0 1 50 29c5.804 1.823 11.137 4.49 16 8 4.091 1.227 7.591.394 10.5-2.5.101-3.2.768-6.2 2-9 .5-22.664.667-45.331.5-68Z"/><path style="opacity:1" fill="#95979b" d="M268.5 439.5a135.14 135.14 0 0 0-9 10.5 120.35 120.35 0 0 1 8 10.5c-.453.958-1.119 1.792-2 2.5-19.343 7.673-38.677 15.339-58 23-13.327 5.335-23.494 14.169-30.5 26.5l-3 10c-.5 18.664-.667 37.33-.5 56h-12c-.167-23.669 0-47.336.5-71 4.092-14.43 12.925-24.93 26.5-31.5a2698.752 2698.752 0 0 0 65-26c.906-1.699 1.239-3.533 1-5.5l14-5Z"/><path style="opacity:1" fill="#55585c" d="M520.5 438.5c5.268 2.2 10.601 4.2 16 6-1.132 1.967-.799 3.8 1 5.5a1246.066 1246.066 0 0 0 62 25c15.135 6.13 24.968 16.963 29.5 32.5.5 23.664.667 47.331.5 71h-12c.167-19.003 0-38.003-.5-57-1.788-8.251-5.621-15.251-11.5-21a145.053 145.053 0 0 0-.5-17c-.422-1.926-1.589-2.926-3.5-3-11.822-.995-23.822-1.328-36-1a28290.932 28290.932 0 0 0-42-17c-1.883.376-3.383 1.376-4.5 3a182.067 182.067 0 0 0-10.5 14 4.934 4.934 0 0 1-3-.5c7.681-9.678 15.347-19.344 23-29a146.17 146.17 0 0 0-8-11.5Z"/><path style="opacity:.954" fill="#3e3d44" d="M254.5 444.5c.239 1.967-.094 3.801-1 5.5a2698.752 2698.752 0 0 1-65 26c-13.575 6.57-22.408 17.07-26.5 31.5a2519.42 2519.42 0 0 0-.5 71h23v8c-10.006.166-20.006 0-30-.5l-1.5-1.5a1259.87 1259.87 0 0 1 0-71c1.885-22.035 13.052-37.035 33.5-45a235.44 235.44 0 0 1 15-7 126.507 126.507 0 0 0 12-4 764.306 764.306 0 0 0 35-14.5c2.381-.738 4.381-.238 6 1.5Z"/><path style="opacity:.954" fill="#3d3c43" d="M572.5 454.5c4.113 3.05 8.78 5.05 14 6a387.77 387.77 0 0 0 21 9c18.934 8.457 29.101 23.124 30.5 44a1259.87 1259.87 0 0 1 0 71l-1.5 1.5c-8.66.5-17.327.666-26 .5h-5v-8h24c.167-23.669 0-47.336-.5-71-4.532-15.537-14.365-26.37-29.5-32.5a1246.066 1246.066 0 0 1-62-25c-1.799-1.7-2.132-3.533-1-5.5 1.159-1.877 2.826-2.377 5-1.5a192.82 192.82 0 0 0 31 11.5Z"/><path style="opacity:1" fill="#86565c" d="M425.5 458.5v4c-1.839-1.252-3.672-1.252-5.5 0a296.648 296.648 0 0 1-7.5 14.5c-11.508.826-22.841.659-34-.5h3c9.357.332 18.69-.002 28-1a339.69 339.69 0 0 1 8-15.5 324.613 324.613 0 0 0-22-9.5c-7.355 3.013-14.688 6.013-22 9-1.495.489-2.829 1.155-4 2-1.459-.067-2.792.266-4 1v-4a299.292 299.292 0 0 1 30-12 814.878 814.878 0 0 0 30 12Z"/><path style="opacity:1" fill="#c47b83" d="M381.5 476.5a197.413 197.413 0 0 0-8-17c7.312-2.987 14.645-5.987 22-9a324.613 324.613 0 0 1 22 9.5 339.69 339.69 0 0 0-8 15.5 196.869 196.869 0 0 1-28 1Z"/><path style="opacity:1" fill="#8e9092" d="M365.5 458.5v4c-.667 0-1 .333-1 1a668.924 668.924 0 0 1-32 12.5c-1.473.71-2.14 1.876-2 3.5-1.289-3.26-2.622-6.594-4-10 3.853-.402 6.187-2.402 7-6a12.93 12.93 0 0 0 .5 5 4.933 4.933 0 0 0 2.5 1 765.378 765.378 0 0 1 29-11Z"/><path style="opacity:1" fill="#8f9193" d="M425.5 458.5c9.317 3.657 18.65 7.323 28 11 3.203-.635 4.536-2.635 4-6a11.445 11.445 0 0 0 3 5 71.285 71.285 0 0 1-3 9c-.074-1.911-1.074-3.078-3-3.5a527.837 527.837 0 0 1-28-11.5h-1v-4Z"/><path style="opacity:1" fill="#ca9aa0" d="M373.5 459.5a197.413 197.413 0 0 1 8 17h-3a169.27 169.27 0 0 0-9-15c1.171-.845 2.505-1.511 4-2Z"/><path style="opacity:1" fill="#404147" d="M369.5 461.5a169.27 169.27 0 0 1 9 15c11.159 1.159 22.492 1.326 34 .5a296.648 296.648 0 0 0 7.5-14.5c1.828-1.252 3.661-1.252 5.5 0h1c-.888 6.793-3.222 13.127-7 19a324.95 324.95 0 0 0 36 1c-40.167-.325-80.5.009-121 1 12.173-.667 24.507-1.333 37-2-3.483-5.62-5.816-11.62-7-18 0-.667.333-1 1-1 1.208-.734 2.541-1.067 4-1Z"/><path style="opacity:1" fill="#696d72" d="M267.5 460.5a11046.696 11046.696 0 0 1 29.5 35 124.169 124.169 0 0 1-6 21c-.667 1.667-.667 3.333 0 5a1532.782 1532.782 0 0 1 45.5 57h-17c-.684-6.401-1.35-12.901-2-19.5a296.268 296.268 0 0 0-41-1.5c.167-13.337 0-26.671-.5-40l-1.5-1.5a484.008 484.008 0 0 0-44 0l-1.5 1.5a799.793 799.793 0 0 0-.5 40 840.27 840.27 0 0 0-41 .5l-2.5 2.5a162.597 162.597 0 0 0-.5 18h-11c-.167-18.67 0-37.336.5-56l3-10c7.006-12.331 17.173-21.165 30.5-26.5 19.323-7.661 38.657-15.327 58-23 .881-.708 1.547-1.542 2-2.5ZM565.5 479.5h-57a182.067 182.067 0 0 1 10.5-14c1.117-1.624 2.617-2.624 4.5-3a28290.932 28290.932 0 0 1 42 17Z"/><path style="opacity:1" fill="#cdcfd3" d="M364.5 463.5c1.184 6.38 3.517 12.38 7 18-12.493.667-24.827 1.333-37 2l-1 2c-1.508-1.681-2.508-3.681-3-6-.14-1.624.527-2.79 2-3.5a668.924 668.924 0 0 0 32-12.5ZM426.5 462.5a527.837 527.837 0 0 0 28 11.5c1.926.422 2.926 1.589 3 3.5a20.69 20.69 0 0 0-1 5h-1a324.95 324.95 0 0 1-36-1c3.778-5.873 6.112-12.207 7-19Z"/><path style="opacity:.998" fill="#273238" d="M494.5 479.5c35.655.931 71.322 1.264 107 1 1.911.074 3.078 1.074 3.5 3 .499 5.657.666 11.324.5 17v181c.166 9.672 0 19.339-.5 29l-1.5 1.5a463.293 463.293 0 0 1-52 1.5 750.264 750.264 0 0 0-67-.5 1147.103 1147.103 0 0 1-31 17c-3.25 3.637-7.25 5.97-12 7-3.492 1.624-6.492 3.958-9 7-6.761 1.869-12.761 5.202-18 10-5.111 2.701-10.611 4.534-16.5 5.5a66.364 66.364 0 0 1-9.5-2.5 35.157 35.157 0 0 0-10-5c-3.796-3.592-8.129-6.259-13-8a279.412 279.412 0 0 0-19-12c-3.959.349-6.626-1.317-8-5-8.36-3.016-16.027-7.349-23-13a73.44 73.44 0 0 1-14-8c-5.503-1.171-10.17-3.837-14-8a49.948 49.948 0 0 0-8-3.5 208.311 208.311 0 0 0-5-4.5c-13.993-6.284-27.327-13.95-40-23-5.503-1.171-10.17-3.837-14-8-6.853-2.406-13.02-5.906-18.5-10.5a924.222 924.222 0 0 1-.5-43h-15c-.283-.789-.783-1.456-1.5-2a145.053 145.053 0 0 1-.5-17v-8c-.166-6.009.001-12.009.5-18l2.5-2.5a840.27 840.27 0 0 1 41-.5c-.167-13.337 0-26.671.5-40l1.5-1.5a484.008 484.008 0 0 1 44 0l1.5 1.5c.5 13.329.667 26.663.5 40 13.74-.446 27.407.054 41 1.5.65 6.599 1.316 13.099 2 19.5v8c-.827 5.485-1.327 11.152-1.5 17l-1.5 1.5-30 1 4 4a1749.139 1749.139 0 0 1 41.5 23.5l1-6a802.492 802.492 0 0 0 41.5-41c3-2.333 5.667-5 8-8a57.51 57.51 0 0 0 9-9c3-2.333 5.667-5 8-8 5-4.333 9.667-9 14-14 .99-5.81 1.323-11.81 1-18-5.195-.321-10.195.013-15 1h-8a784.68 784.68 0 0 0-56-1c-1.29-.558-2.123-1.558-2.5-3-.5-6.658-.666-13.325-.5-20a116.8 116.8 0 0 1 1-21l1-2c40.5-.991 80.833-1.325 121-1h1c2.579-.106 4.912.561 7 2v82a69.875 69.875 0 0 1-9 11 57.51 57.51 0 0 0-9 9 5473.064 5473.064 0 0 0-62.5 62 33.225 33.225 0 0 0 .5 14c1.795 2.203 4.129 3.369 7 3.5 6.749.877 13.416.544 20-1l20-12 4-1c5.256-4.931 11.256-8.598 18-11l4-4a110.248 110.248 0 0 0 14-5.5 507.055 507.055 0 0 0-1-45v-8c1-11.503 1-23.17 0-35 .822-20.594 1.322-41.26 1.5-62l1.5-1.5a242.43 242.43 0 0 1 22-.5Z"/><path style="opacity:1" fill="#555e63" d="m463.5 486.5 2 61c-.333 1-1 1.667-2 2v-63Z"/><path style="opacity:1" fill="#949494" d="M597.5 488.5v108h-34c.331-24.839-.002-49.506-1-74-.558-1.29-1.558-2.123-3-2.5a462.27 462.27 0 0 0-43 0l-3 1.5c-1 24.991-1.333 49.991-1 75h-34v-108h119Z"/><path style="opacity:1" fill="#929292" d="M423.5 596.5a529.493 529.493 0 0 1-46-1 2698.476 2698.476 0 0 1 43.5-44 131.26 131.26 0 0 0-.5-28 1621.561 1621.561 0 0 0-80-1v-32h116c.167 24.669 0 49.336-.5 74a1467.947 1467.947 0 0 1-32.5 32Z"/><path style="opacity:1" fill="#55575c" d="M269.5 438.5h2a107.125 107.125 0 0 1-8.5 9c-.667 1.333-.667 2.667 0 4l37 45c-1.321 7.976-3.487 15.81-6.5 23.5a16.2 16.2 0 0 0 1.5 3.5 1698.913 1698.913 0 0 1 35 43 21.365 21.365 0 0 0 6 5 11.803 11.803 0 0 0 3.5-2 37.42 37.42 0 0 0 5 9h-8a1532.782 1532.782 0 0 0-45.5-57c-.667-1.667-.667-3.333 0-5a124.169 124.169 0 0 0 6-21 11046.696 11046.696 0 0 0-29.5-35 120.35 120.35 0 0 0-8-10.5 135.14 135.14 0 0 1 9-10.5c.667 0 1-.333 1-1Z"/><path style="opacity:1" fill="#696d72" d="M605.5 500.5c5.879 5.749 9.712 12.749 11.5 21 .5 18.997.667 37.997.5 57h-12v-78Z"/><path style="opacity:1" fill="#273339" d="M562.5 522.5c.167 49.668 0 99.334-.5 149a379.781 379.781 0 0 1-47.5.5c-1.808-5.304-2.475-10.804-2-16.5v-59c-.333-25.009 0-50.009 1-75l3-1.5a462.27 462.27 0 0 1 43 0c1.442.377 2.442 1.21 3 2.5Z"/><path style="opacity:1" fill="#707576" d="M268.5 523.5h-31a361.608 361.608 0 0 1-1 38v-39c10.846-.328 21.513.006 32 1Z"/><path style="opacity:1" fill="#939393" d="M268.5 523.5a290.49 290.49 0 0 0 1.5 41 415.804 415.804 0 0 0 40.5 1v31h-117v-30a380.934 380.934 0 0 0 39-1c2.333-.333 3.667-1.667 4-4a361.608 361.608 0 0 0 1-38h31Z"/><path style="opacity:1" fill="#686c71" d="M554.5 578.5h-34v-51h35a650.602 650.602 0 0 1-1 51Z"/><path style="opacity:1" fill="#594950" d="M399.5 530.5c4.805-.987 9.805-1.321 15-1 .323 6.19-.01 12.19-1 18v-17h-14Z"/><path style="opacity:1" fill="#444249" d="M335.5 529.5a784.68 784.68 0 0 1 56 1h-23a81.883 81.883 0 0 0-18 1 1861.84 1861.84 0 0 0 12.5 32c.667 2 .667 4 0 6-.383.556-.883.889-1.5 1-2.222.322-4.056-.345-5.5-2a1235.025 1235.025 0 0 0-14-37 96.578 96.578 0 0 1-6.5-2Z"/><path style="opacity:1" fill="#cdcdd1" d="M368.5 530.5v48h-5a53.76 53.76 0 0 1-2-8c.617-.111 1.117-.444 1.5-1 .667-2 .667-4 0-6a1861.84 1861.84 0 0 1-12.5-32 81.883 81.883 0 0 1 18-1Z"/><path style="opacity:1" fill="#d5a0a6" d="M368.5 530.5h8v48h-8v-48Z"/><path style="opacity:1" fill="#c47b83" d="M376.5 530.5h15v39a57.51 57.51 0 0 1-9 9h-6v-48Z"/><path style="opacity:1" fill="#3c3b42" d="M391.5 530.5h8v31c-2.333 3-5 5.667-8 8v-39Z"/><path style="opacity:1" fill="#c27a82" d="M399.5 530.5h14v17c-4.333 5-9 9.667-14 14v-31Z"/><path style="opacity:1" fill="#3f4147" d="M469.5 543.5c1 11.83 1 23.497 0 35 .166-6.342 0-12.675-.5-19a59.425 59.425 0 0 1-5.5 7v-17c1-.333 1.667-1 2-2 .973-1.639 2.306-2.973 4-4Z"/><path style="opacity:1" fill="#686c71" d="M469.5 578.5c-5.195.321-10.195-.013-15-1a69.875 69.875 0 0 0 9-11 59.425 59.425 0 0 0 5.5-7c.5 6.325.666 12.658.5 19Z"/><path style="opacity:1" fill="#3c3b42" d="M319.5 578.5h63c-2.333 3-5 5.667-8 8h-55v-8ZM454.5 577.5c4.805.987 9.805 1.321 15 1v8h-24a57.51 57.51 0 0 1 9-9ZM520.5 578.5h34v8h-34v-8Z"/><path style="opacity:1" fill="#707171" d="M319.5 586.5h55a802.492 802.492 0 0 1-41.5 41l-1 6a1749.139 1749.139 0 0 0-41.5-23.5l-4-4 30-1 1.5-1.5c.173-5.848.673-11.515 1.5-17Z"/><path style="opacity:1" fill="#f9f9f9" d="M527.5 586.5h27a842.53 842.53 0 0 1 .5 71 2127.404 2127.404 0 0 0-11.5 7.5c-7.659.5-15.326.666-23 .5a651.277 651.277 0 0 1 1-51 51.064 51.064 0 0 0 5.5-4c.5-7.993.666-15.993.5-24Z"/><path style="opacity:1" fill="#898989" d="M377.5 595.5a529.493 529.493 0 0 0 46 1c-9 9.667-18.333 19-28 28a529.493 529.493 0 0 1-46-1c9-9.667 18.333-19 28-28Z"/><path style="opacity:1" fill="#495156" d="M310.5 565.5c.995 10.821 1.328 21.821 1 33h-41l40-2v-31Z"/><path style="opacity:1" fill="#6c6c6c" d="M186.5 605.5h15c-.167 14.337 0 28.671.5 43 5.48 4.594 11.647 8.094 18.5 10.5 3.83 4.163 8.497 6.829 14 8 12.673 9.05 26.007 16.716 40 23a208.311 208.311 0 0 1 5 4.5c-21.494.997-43.16 1.331-65 1a8.43 8.43 0 0 1-4-.5l1-1c-2.767-.678-4.934-2.178-6.5-4.5-2.537.677-4.537-.323-6-3l-1 1c-1.667-1-3-2.333-4-4-1.049 1.017-2.216 1.184-3.5.5l1-1a15.645 15.645 0 0 1-4-2.5c-1-24.991-1.333-49.991-1-75Z"/><path style="opacity:1" fill="#fcfcfc" d="M332.5 688.5c.325 7.187-.009 14.187-1 21-8.08-2.706-15.413-6.873-22-12.5-5.093-1.382-9.426-4.049-13-8-6.4-2.062-12.067-5.396-17-10l-10-4-4-4a77.598 77.598 0 0 1-23-13 90.42 90.42 0 0 1-14-6 45.999 45.999 0 0 0-13-8l-1.5-1.5a684.346 684.346 0 0 1-.5-37h15c-.167 13.004 0 26.004.5 39a11.333 11.333 0 0 0 1.5 3.5c14.667.667 29.333.667 44 0l1.5-1.5 1-30a46.47 46.47 0 0 0 14.5 6.5 27.816 27.816 0 0 1 8 6 420.445 420.445 0 0 0 32 17 457.546 457.546 0 0 1 1 42.5Z"/><path style="opacity:1" fill="#888" d="M232.5 565.5a380.934 380.934 0 0 1-39 1v30h117l-40 2-1.5 3c-.5 7.659-.666 15.326-.5 23h-31c.325-7.852-.008-15.518-1-23-.256-2.276-1.59-3.443-4-3.5a799.793 799.793 0 0 0-40-.5v-32h40ZM478.5 596.5h34v28h-34v-28ZM563.5 596.5h34v28h-34v-28Z"/><path style="opacity:1" fill="#6e6e6f" d="M445.5 586.5h24a507.055 507.055 0 0 1 1 45 110.248 110.248 0 0 1-14 5.5l-4 4c-6.744 2.402-12.744 6.069-18 11l-4 1-20 12c-6.584 1.544-13.251 1.877-20 1-2.871-.131-5.205-1.297-7-3.5a33.225 33.225 0 0 1-.5-14 5473.064 5473.064 0 0 1 62.5-62Z"/><path style="opacity:1" fill="#6f6f6f" d="M605.5 586.5h5c.333 29.341 0 58.674-1 88-1.083 2.638-2.416 4.971-4 7v-95Z"/><path style="opacity:1" fill="#7d7d7d" d="M236.5 601.5c.992 7.482 1.325 15.148 1 23h31v17h-32v-40Z"/><path style="opacity:1" fill="#7f7f7f" d="M349.5 623.5a529.493 529.493 0 0 0 46 1 229.509 229.509 0 0 1-18 18h-37a60.931 60.931 0 0 1 .5-11 95.356 95.356 0 0 1 8.5-8Z"/><path style="opacity:1" fill="#7b7b7b" d="M478.5 624.5h34v31h-34v-31ZM563.5 624.5h34v31h-34v-31Z"/><path style="opacity:1" fill="#909699" d="M469.5 707.5a961.42 961.42 0 0 0-1-62c.283-.789.783-1.456 1.5-2a684.92 684.92 0 0 1-.5 64Z"/><path style="opacity:1" fill="#fcfcfc" d="M468.5 645.5a961.42 961.42 0 0 1 1 62c-.787 1.604-2.12 2.271-4 2l-2-39c-.333-2.333-1.667-3.667-4-4l-25-2a257.34 257.34 0 0 1 34-19Z"/><path style="opacity:1" fill="#757575" d="M340.5 642.5h37a10.515 10.515 0 0 1-2.5 3 242.43 242.43 0 0 0-.5 22h-34v-25Z"/><path style="opacity:1" fill="#c6c8ca" d="m434.5 664.5 25 2c-9.006.166-18.006 0-27-.5.544-.717 1.211-1.217 2-1.5Z"/><path style="opacity:1" fill="#6d6d6d" d="M340.5 667.5h34c-.039 2.589.961 4.589 3 6 25.828.998 51.828 1.331 78 1v11h-115v-18ZM562.5 522.5a1369.272 1369.272 0 0 1 1 74v59h34v30h-119v-30h34c-.475 5.696.192 11.196 2 16.5 15.908.824 31.741.657 47.5-.5.5-49.666.667-99.332.5-149Z"/><path style="opacity:1" fill="#c9cbcd" d="m463.5 670.5 2 39c-.06.543-.393.876-1 1a400.778 400.778 0 0 1-1-40Z"/><path style="opacity:1" fill="#374145" d="M377.5 673.5h79c.328 10.846-.006 21.513-1 32v-31c-26.172.331-52.172-.002-78-1Z"/><path style="opacity:1" fill="#676767" d="M340.5 685.5h115v19h-114c.321-5.526-.012-10.86-1-16v-3Z"/><path style="opacity:1" fill="#666767" d="M597.5 488.5h-119v197h119v19h-120v-217c40.17-.332 80.17.001 120 1Z"/><path style="opacity:1" fill="#5f6669" d="M332.5 688.5c1.319 7.177 1.319 14.51 0 22-.607-.124-.94-.457-1-1 .991-6.813 1.325-13.813 1-21Z"/><path style="opacity:1" fill="#666" d="M279.5 694.5a49.948 49.948 0 0 1 8 3.5c3.83 4.163 8.497 6.829 14 8a73.44 73.44 0 0 0 14 8c6.973 5.651 14.64 9.984 23 13 1.374 3.683 4.041 5.349 8 5a279.412 279.412 0 0 1 19 12c4.871 1.741 9.204 4.408 13 8a35.157 35.157 0 0 1 10 5 66.364 66.364 0 0 0 9.5 2.5c5.889-.966 11.389-2.799 16.5-5.5 5.239-4.798 11.239-8.131 18-10 2.508-3.042 5.508-5.376 9-7 4.75-1.03 8.75-3.363 12-7a1147.103 1147.103 0 0 0 31-17 750.264 750.264 0 0 1 67 .5 22.296 22.296 0 0 1-5 3.5l1 1a118.288 118.288 0 0 0-17 7.5 10.756 10.756 0 0 0-2.5 3l-1-1c-1.049 1.607-2.549 2.273-4.5 2v3h-6v3h-5v3c-2.524-.071-4.524.929-6 3-2.12-1.372-3.12-.705-3 2a12.93 12.93 0 0 0-5 .5 101.657 101.657 0 0 0-10 7.5 9.108 9.108 0 0 1-5 1v3c-2.51-.446-4.51.22-6 2-2.216.703-4.049 2.036-5.5 4-1.813-1.109-2.646-.442-2.5 2a12.93 12.93 0 0 0-5 .5c-1.497 1.871-3.497 2.871-6 3-1.307 2.324-3.307 3.657-6 4l2 1a12.93 12.93 0 0 1-5 .5v3a9.86 9.86 0 0 0-6 1 35.217 35.217 0 0 1-8 4v3h-6v3h-6v3a8.43 8.43 0 0 0-4 .5l-5 5c-1.284.684-2.451.517-3.5-.5-1.263 2.968-3.263 3.968-6 3a2.428 2.428 0 0 0-.5 2h-12c-.507-1.359-1.507-2.359-3-3a137.913 137.913 0 0 0-11-4v-3c-2.133-1.386-5.133-2.386-9-3v-3h-5v-3c-3.005.247-5.505-.753-7.5-3l-1 1a4.934 4.934 0 0 1-.5-3h-6v-3h-5v-3h-6v-3c-5.922-1.727-11.089-4.727-15.5-9-.718.951-1.551 1.117-2.5.5 1.333-.667 1.333-1.333 0-2a12.93 12.93 0 0 0-5-.5v-3a58.97 58.97 0 0 1-11-3v-3c-8.654-3.265-16.321-6.932-23-11v-3h-6v-3h-5v-3a8.43 8.43 0 0 1-4-.5c-4.85-3.699-10.184-6.199-16-7.5v-3h-6v-3c-2.092-.061-3.592-1.061-4.5-3-1.299.466-2.799.466-4.5 0v-3c-1.788.285-3.455-.048-5-1-2.158-3.144-5.158-4.477-9-4v-3a12.93 12.93 0 0 1-5-.5c-.752-.671-1.086-1.504-1-2.5 21.84.331 43.506-.003 65-1Z"/><path style="opacity:1" fill="#55585c" d="M340.5 688.5c.988 5.14 1.321 10.474 1 16h114v1h-115v-17Z"/><path style="opacity:1" fill="#5e6568" d="M459.5 713.5c-40.837-.332-81.503.001-122 1-.789-.283-1.456-.783-2-1.5 42.708-.828 84.042-.661 124 .5Z"/><path style="opacity:1" fill="#fcfcfc" d="M337.5 714.5a3720.344 3720.344 0 0 1 122-1 1829.673 1829.673 0 0 0-61 35 97.288 97.288 0 0 0-12-5.5c-3.543-1.608-6.543-3.942-9-7-5.662-.917-10.329-3.583-14-8a78.488 78.488 0 0 1-23-13 4.934 4.934 0 0 0-3-.5Z"/><path style="opacity:1" fill="#656665" d="M476.5 757.5c1.333.667 1.333.667 0 0Z"/></svg>