<?xml version="1.0" encoding="UTF-8"?><svg xmlns="http://www.w3.org/2000/svg" width="800" height="800" style="shape-rendering:geometricPrecision;text-rendering:geometricPrecision;image-rendering:optimizeQuality;fill-rule:evenodd;clip-rule:evenodd"><path style="opacity:1" fill="#f3f4f2" d="M343.5 72.5c-6.522-.323-12.855.01-19 1a7142.337 7142.337 0 0 0-87.5-50 138.219 138.219 0 0 1-14.5 1.5 2056.44 2056.44 0 0 0-85 48.5 650.846 650.846 0 0 0-51-1v-3c1.7.16 3.366-.007 5-.5 1.478-2.057 3.478-3.39 6-4l-2-1a18.436 18.436 0 0 1 6-.5v-3a87.51 87.51 0 0 0 14-5v-3h6v-3h5v-3c1.701-.466 3.201-.466 4.5 0 3.279-4.047 7.946-7.047 14-9a18.264 18.264 0 0 0 5-4l1 1c1.049-1.607 2.549-2.273 4.5-2v-3h5v-3h6v-3c4.612-1.195 9.279-2.862 14-5v-3c1.701-.466 3.201-.466 4.5 0 .908-1.939 2.408-2.939 4.5-3v-3h6v-3c1.788.285 3.455-.048 5-1a38.767 38.767 0 0 0 7-4.5 49.25 49.25 0 0 1 14 0c2.025 1.677 4.359 2.677 7 3-1.134 1.016-.801 1.683 1 2l5 1-1 1c2.622 3.073 5.955 4.573 10 4.5v3h6v3c3.191.262 5.858 1.596 8 4a9.864 9.864 0 0 0 6 1v3c3.58 1.22 7.247 2.386 11 3.5l-2 1c2.767.678 4.934 2.178 6.5 4.5l1-1c3.769 1.797 7.102 4.13 10 7a3.942 3.942 0 0 1 2-1c1.482 1.612 3.315 2.612 5.5 3v3h6v3h5v3h6v3a87.51 87.51 0 0 0 14 5v3c1.699-.16 3.366.007 5 .5l-1 1c1.525 1.009 3.192 1.509 5 1.5v3h6v3ZM576.5-.5h9a2.429 2.429 0 0 0 .5 2c1.049-1.017 2.216-1.184 3.5-.5a20.495 20.495 0 0 0 2.5 3.5c1.356-.88 2.856-1.214 4.5-1v3c2.822 1.432 6.489 2.432 11 3v3c2.092.061 3.592 1.061 4.5 3 2.537-.677 4.537.323 6 3 2.361-.566 4.194.434 5.5 3l2-1c.35 2.067 2.017 3.067 5 3v3h6v3h5v3h6v3a27.247 27.247 0 0 0 9 3c-.219 1.175.114 2.175 1 3a6.846 6.846 0 0 1 4-1v3a8.435 8.435 0 0 1 4 .5c-1.154.914-.987 1.747.5 2.5 1.299-.466 2.799-.466 4.5 0v3h6v3h5v3a428.986 428.986 0 0 0 20 8.5l-2 1c2.522.61 4.522 1.943 6 4 1.634.493 3.301.66 5 .5v3a650.846 650.846 0 0 0-51 1 251.169 251.169 0 0 0-29-16.5l-4-4a1126.1 1126.1 0 0 0-31-16c-2.365-3.714-5.698-5.714-10-6-7.082-6.364-15.416-9.031-25-8a846.978 846.978 0 0 1-48 27 187.582 187.582 0 0 0-20 13 5051.871 5051.871 0 0 0-20 10.5c-6.145-.99-12.478-1.323-19-1 1.18-2.413 3.18-3.413 6-3v-3c1.808.009 3.475-.491 5-1.5l-1-1a12.935 12.935 0 0 1 5-.5v-3a9.864 9.864 0 0 0 6-1 35.213 35.213 0 0 1 8-4v-3h6v-3a59.031 59.031 0 0 1 11-3v-3c1.808.009 3.475-.491 5-1.5-1.388-.89-1.222-1.39.5-1.5 2.071 1.167 3.571.5 4.5-2 6.434-2.343 12.767-5.343 19-9v-3a59.031 59.031 0 0 1 11-3 4.934 4.934 0 0 1 .5-3l1 1c1.995-2.247 4.495-3.247 7.5-3v-3h5v-3h6v-3c1.808.009 3.475-.491 5-1.5l-1-1a12.936 12.936 0 0 1 5-.5v-3c3.552.188 6.219-1.145 8-4Z"/><path style="opacity:1" fill="#273339" d="M659.5 73.5a110.6 110.6 0 0 0 17 8.5l4 4a457.332 457.332 0 0 1 22 11 702.974 702.974 0 0 0 43 25.5c3.584 2.697 7.584 4.53 12 5.5a22.162 22.162 0 0 1 4 6.5v221c.396 2.544-.271 4.711-2 6.5a435.312 435.312 0 0 0-21 10.5 3223.86 3223.86 0 0 0-93 54.5 271.702 271.702 0 0 0-33 19 15.024 15.024 0 0 1-8 2.5v-12a5838.284 5838.284 0 0 0 137-79.5 73.86 73.86 0 0 0 9-3.5 7901.316 7901.316 0 0 0-1.5-216 2129.254 2129.254 0 0 1-37.5-21.5c-3.415-.406-6.082-2.072-8-5a91.311 91.311 0 0 1-23-13 457.332 457.332 0 0 0-22-11c-2.508-3.042-5.508-5.376-9-7a457.332 457.332 0 0 1-22-11l-24-15c-3.415-.406-6.082-2.072-8-5a90.401 90.401 0 0 0-14-6c-5.722-6.435-12.722-8.768-21-7-7.36 5.663-15.36 9.996-24 13-3.619 3.977-7.952 6.644-13 8-2.537 2.546-5.537 4.212-9 5l-4 4-10 4a2551.356 2551.356 0 0 0-60 36 7185.005 7185.005 0 0 1 26 16 114.065 114.065 0 0 0 14 6c4.2 3.6 8.867 6.433 14 8.5a684.54 684.54 0 0 1 19-8.5 43.593 43.593 0 0 1 13-8c2.365-3.714 5.698-5.714 10-6a705.673 705.673 0 0 1 21-12c4.719-2.307 9.719-2.974 15-2a113.107 113.107 0 0 0 28 15l5 5a182.852 182.852 0 0 1 35 20 193.115 193.115 0 0 1 32 19 197.694 197.694 0 0 1 17 8 36.078 36.078 0 0 1 3.5 4.5c1.657 49.25 1.99 98.584 1 148-5.181 6.173-11.681 10.34-19.5 12.5a12318.477 12318.477 0 0 1-28 18c-6.381 2.027-12.048 5.361-17 10-6.943 1.604-12.943 4.937-18 10-2.56.384-4.894 1.217-7 2.5v-14a101.096 101.096 0 0 0 12-5.5l4-4a285.632 285.632 0 0 0 33-18l4-1a679.07 679.07 0 0 1 23-15 8.43 8.43 0 0 1 4-.5 903.85 903.85 0 0 0 0-85c-1.1-1.105-1.767-2.438-2-4v-23c.166-8.673 0-17.34-.5-26a76.67 76.67 0 0 0-16.5-9 457.91 457.91 0 0 0-32-18 25857.41 25857.41 0 0 1-66-39 3162.857 3162.857 0 0 0-66 36.5 42.479 42.479 0 0 1-13 0 2662.794 2662.794 0 0 1-45-25.5 184.701 184.701 0 0 1-14.5-10 8.905 8.905 0 0 0-3-4c-.667-1.667-.667-3.333 0-5A56.171 56.171 0 0 1 439.5 92a856.99 856.99 0 0 1 33-18.5 5051.871 5051.871 0 0 1 20-10.5 187.582 187.582 0 0 1 20-13 846.978 846.978 0 0 0 48-27c9.584-1.031 17.918 1.636 25 8 4.302.286 7.635 2.286 10 6a1126.1 1126.1 0 0 1 31 16l4 4a251.169 251.169 0 0 1 29 16.5Z"/><path style="opacity:1" fill="#283439" d="M324.5 73.5a5095.58 5095.58 0 0 1 83 48 746.319 746.319 0 0 1 53 30 688.953 688.953 0 0 0 31 18 208.745 208.745 0 0 1 20 12h-25c-2.667-3.162-6-5.329-10-6.5a327.567 327.567 0 0 0-42-24c-4.758-4.768-10.425-7.768-17-9-3.065-4.125-7.065-6.791-12-8l-6-5a546.6 546.6 0 0 0-35-18 108.394 108.394 0 0 1-19-13 425.826 425.826 0 0 1-41-23c-5.487-1.208-10.154-3.875-14-8a826.449 826.449 0 0 1-49-28 50.657 50.657 0 0 1-11.5-4.5A112.066 112.066 0 0 0 206.5 48l-10 4-3 3c-6.771 2.445-12.771 6.111-18 11l-10 4-4 4a520.666 520.666 0 0 0-59 34l-9 3c-3.796 3.592-8.13 6.259-13 8A361.546 361.546 0 0 1 48 137.5c-.667 72-.667 144 0 216a7214.146 7214.146 0 0 0 125 72c.5-21.664.667-43.331.5-65a340.197 340.197 0 0 0-18-8.5 55.63 55.63 0 0 0-18-10 78.488 78.488 0 0 0-23-13 56.965 56.965 0 0 0-10.5-7.5 5697.651 5697.651 0 0 1 0-151 6.978 6.978 0 0 1 2.5-3.5 146.497 146.497 0 0 0 31-18c8.372-3.019 16.038-7.352 23-13 5.093-1.382 9.426-4.049 13-8a90.42 90.42 0 0 0 14-6c1.918-2.928 4.585-4.594 8-5a226.438 226.438 0 0 1 29-17 42.498 42.498 0 0 1 13 0l4 4a154.79 154.79 0 0 0 13 6 1081.768 1081.768 0 0 0 33 20l4 1c8.98 5.636 17.98 11.302 27 17 7.27 1.913 13.604 5.58 19 11 4.75 1.03 8.75 3.363 12 7l10 4 4 4a222.128 222.128 0 0 1 15 7.5h-23a266.993 266.993 0 0 1-26-14 251.136 251.136 0 0 0-31-18 988.027 988.027 0 0 1-51-30.5c-5.603-1.533-10.436-4.366-14.5-8.5-1.604 1.149-3.27 1.149-5 0a5250.243 5250.243 0 0 0-67.5 40 216.688 216.688 0 0 1-32 18 770.16 770.16 0 0 0-15.5 10 98.432 98.432 0 0 0-.5 14v87c-.328 11.845.005 23.512 1 35 4.925 1.48 9.259 3.98 13 7.5l10 4c1.918 2.928 4.585 4.594 8 5 2.674 3.012 6.007 4.678 10 5l9 7a72.888 72.888 0 0 1 17 9 36.078 36.078 0 0 1 3.5 4.5c.5 6.658.666 13.325.5 20 .167 16.67 0 33.337-.5 50-1.232 2.8-1.899 5.8-2 9-2.909 2.894-6.409 3.727-10.5 2.5a2163.131 2163.131 0 0 1-93-54c-5.487-1.208-10.154-3.875-14-8a49.952 49.952 0 0 0-8-3.5c-1.526-1.63-3.526-2.463-6-2.5a13.908 13.908 0 0 1-3-4l-9.5-5.5a261.867 261.867 0 0 1-1.5-38v-172a101.23 101.23 0 0 1 1.5-21 51.682 51.682 0 0 0 13.5-7 1645.145 1645.145 0 0 0 86-49 2056.44 2056.44 0 0 1 85-48.5c4.872-.246 9.705-.746 14.5-1.5a7142.337 7142.337 0 0 1 87.5 50Z"/><path style="opacity:1" fill="#fdfdfd" d="M486.5 181.5h-108a222.128 222.128 0 0 0-15-7.5l-4-4-10-4c-3.25-3.637-7.25-5.97-12-7-5.396-5.42-11.73-9.087-19-11a10892.14 10892.14 0 0 0-27-17l-4-1a1081.768 1081.768 0 0 1-33-20 154.79 154.79 0 0 1-13-6l-4-4a42.498 42.498 0 0 0-13 0 226.438 226.438 0 0 0-29 17c-3.415.406-6.082 2.072-8 5a90.42 90.42 0 0 1-14 6c-3.574 3.951-7.907 6.618-13 8-6.962 5.648-14.628 9.981-23 13a146.497 146.497 0 0 1-31 18 6.978 6.978 0 0 0-2.5 3.5 5697.651 5697.651 0 0 0 0 151 56.965 56.965 0 0 1 10.5 7.5 78.488 78.488 0 0 1 23 13 55.63 55.63 0 0 1 18 10 340.197 340.197 0 0 1 18 8.5c.167 21.669 0 43.336-.5 65a7214.146 7214.146 0 0 1-125-72c-.667-72-.667-144 0-216A361.546 361.546 0 0 0 80.5 119c4.87-1.741 9.204-4.408 13-8l9-3a520.666 520.666 0 0 1 59-34l4-4 10-4c5.229-4.889 11.229-8.555 18-11l3-3 10-4A112.066 112.066 0 0 1 230 34.5a50.657 50.657 0 0 0 11.5 4.5 826.449 826.449 0 0 0 49 28c3.846 4.125 8.513 6.792 14 8a425.826 425.826 0 0 0 41 23 108.394 108.394 0 0 0 19 13 546.6 546.6 0 0 1 35 18l6 5c4.935 1.209 8.935 3.875 12 8 6.575 1.232 12.242 4.232 17 9a327.567 327.567 0 0 1 42 24c4 1.171 7.333 3.338 10 6.5Z"/><path style="opacity:1" fill="#fdfefe" d="M604.5 436.5v-64c2.106-1.283 4.44-2.116 7-2.5 5.057-5.063 11.057-8.396 18-10 4.952-4.639 10.619-7.973 17-10 9.313-5.969 18.646-11.969 28-18 7.819-2.16 14.319-6.327 19.5-12.5.99-49.416.657-98.75-1-148a36.078 36.078 0 0 0-3.5-4.5 197.694 197.694 0 0 0-17-8 193.115 193.115 0 0 0-32-19 182.852 182.852 0 0 0-35-20l-5-5a113.107 113.107 0 0 1-28-15c-5.281-.974-10.281-.307-15 2a705.673 705.673 0 0 0-21 12c-4.302.286-7.635 2.286-10 6a43.593 43.593 0 0 0-13 8 684.54 684.54 0 0 0-19 8.5 50.162 50.162 0 0 1-14-8.5 114.065 114.065 0 0 1-14-6 7185.005 7185.005 0 0 0-26-16 2551.356 2551.356 0 0 1 60-36l10-4 4-4c3.463-.788 6.463-2.454 9-5 5.048-1.356 9.381-4.023 13-8 8.64-3.004 16.64-7.337 24-13 8.278-1.768 15.278.565 21 7a90.401 90.401 0 0 1 14 6c1.918 2.928 4.585 4.594 8 5l24 15a457.332 457.332 0 0 0 22 11c3.492 1.624 6.492 3.958 9 7a457.332 457.332 0 0 1 22 11 91.311 91.311 0 0 0 23 13c1.918 2.928 4.585 4.594 8 5a2129.254 2129.254 0 0 0 37.5 21.5 7901.316 7901.316 0 0 1 1.5 216 73.86 73.86 0 0 1-9 3.5 5838.284 5838.284 0 0 1-137 79.5Z"/><path style="opacity:1" fill="#f4efe5" d="M86.5 72.5c17.175-.33 34.175.003 51 1a1645.145 1645.145 0 0 1-86 49 507.055 507.055 0 0 0-45-1c.486-2.307.486-4.473 0-6.5a169.104 169.104 0 0 0 15-5.5v-3a58.967 58.967 0 0 0 11-3v-3a417.79 417.79 0 0 0 15-7 32.686 32.686 0 0 0 8.5-6l1 1c1.049-1.607 2.549-2.273 4.5-2v-3a59.029 59.029 0 0 1 11-3 4.932 4.932 0 0 1 .5-3l1 1c2.015-3.065 4.515-4.065 7.5-3v-3h5Z"/><path style="opacity:1" fill="#f3eee4" d="M324.5 73.5c6.145-.99 12.478-1.323 19-1h5v3c2.985-1.065 5.485-.065 7.5 3l1-1c.483.948.649 1.948.5 3h5v3h6v3c2.133 1.386 5.133 2.386 9 3v3c2.908-.238 5.242.762 7 3l2-1c.35 2.067 2.017 3.067 5 3v3h6v3c2.516-.255 4.85-1.089 7-2.5a626.207 626.207 0 0 1 29-17c.837-1.011 1.17-2.178 1-3.5 4.493-.216 7.993-2.216 10.5-6 1.011.837 2.178 1.17 3.5 1v-3h5c6.522-.323 12.855.01 19 1a856.99 856.99 0 0 0-33 18.5 56.171 56.171 0 0 0-13.5 10.5c-.667 1.667-.667 3.333 0 5a8.905 8.905 0 0 1 3 4 184.701 184.701 0 0 0 14.5 10h-36a5095.58 5095.58 0 0 0-83-48Z"/><path style="opacity:1" fill="#f4efe5" d="M659.5 73.5a650.846 650.846 0 0 1 51-1c2.908-.238 5.242.762 7 3 .951-.826 1.951-.992 3-.5l-1 1a6.977 6.977 0 0 1 3.5 2.5l1-1c.483.948.649 1.948.5 3h6v3h5v3c1.951-.273 3.451.393 4.5 2l1-1c6 4.386 12.5 7.886 19.5 10.5l-1 1c1.525 1.009 3.192 1.509 5 1.5v3h6v3h5v3c2.041.354 3.874.354 5.5 0 .483.948.649 1.948.5 3 2.836 1.276 5.836 1.942 9 2a29.753 29.753 0 0 1 2 7 552.805 552.805 0 0 0-47 1 702.974 702.974 0 0 1-43-25.5 457.332 457.332 0 0 0-22-11l-4-4a110.6 110.6 0 0 1-17-8.5Z"/><path style="opacity:1" fill="#f5eddd" d="M6.5 121.5a507.055 507.055 0 0 1 45 1 51.682 51.682 0 0 1-13.5 7 101.23 101.23 0 0 0-1.5 21h-30v-29Z"/><path style="opacity:1" fill="#f3ecdc" d="M298.5 149.5c-45.83.999-91.83 1.332-138 1a5250.243 5250.243 0 0 1 67.5-40c1.73 1.149 3.396 1.149 5 0 4.064 4.134 8.897 6.967 14.5 8.5a988.027 988.027 0 0 0 51 30.5Z"/><path style="opacity:1" fill="#f5eddd" d="M745.5 122.5a552.805 552.805 0 0 1 47-1v29h-30c.321-5.526-.012-10.86-1-16a22.162 22.162 0 0 0-4-6.5c-4.416-.97-8.416-2.803-12-5.5Z"/><path style="opacity:1" fill="#f3ebdb" d="m633.5 149.5-173 2a746.319 746.319 0 0 0-53-30h36a2662.794 2662.794 0 0 0 45 25.5c4.333.667 8.667.667 13 0a3162.857 3162.857 0 0 1 66-36.5 25857.41 25857.41 0 0 0 66 39Z"/><path style="opacity:1" fill="#f5ebd6" d="M298.5 149.5a251.136 251.136 0 0 1 31 18 10105.8 10105.8 0 0 1-201 1 216.688 216.688 0 0 0 32-18c46.17.332 92.17-.001 138-1ZM633.5 149.5a457.91 457.91 0 0 1 32 18l-174 2a688.953 688.953 0 0 1-31-18l173-2Z"/><path style="opacity:1" fill="#f5e9d1" d="M329.5 167.5a266.993 266.993 0 0 0 26 14h-38a112.692 112.692 0 0 0-10-6.5 25.238 25.238 0 0 0-10 0l-2.5 2.5c-1.049-1.017-2.216-1.184-3.5-.5a157.284 157.284 0 0 1-6 4.5c-26.669-.167-53.335 0-80 .5-3.874 1.431-7.207 3.597-10 6.5h-82c.268 1.599-.066 2.932-1 4a98.432 98.432 0 0 1 .5-14 770.16 770.16 0 0 1 15.5-10 10105.8 10105.8 0 0 0 201-1ZM665.5 167.5a76.67 76.67 0 0 1 16.5 9c.5 8.66.666 17.327.5 26-.986-4.47-1.319-9.137-1-14h-81c-3.237-3.454-7.237-5.62-12-6.5-25.665-.5-51.331-.667-77-.5a208.745 208.745 0 0 0-20-12l174-2Z"/><path style="opacity:1" fill="#f6ebd3" d="M6.5 150.5h30v38h-30v-38ZM762.5 150.5h30v38h-30v-38Z"/><path style="opacity:1" fill="#29343a" d="M317.5 181.5h-32a157.284 157.284 0 0 0 6-4.5c1.284-.684 2.451-.517 3.5.5l2.5-2.5a25.238 25.238 0 0 1 10 0 112.692 112.692 0 0 1 10 6.5Z"/><path style="opacity:1" d="M285.5 181.5h226c25.669-.167 51.335 0 77 .5 4.763.88 8.763 3.046 12 6.5 3.707 7.493 5.04 15.493 4 24v270h-13v-224c-129.168-.333-258.168 0-387 1v255c-4.117 1.704-8.451 3.037-13 4v-306c-1.04-8.507.293-16.507 4-24 2.793-2.903 6.126-5.069 10-6.5 26.665-.5 53.331-.667 80-.5Z"/><path style="opacity:1" fill="#f6e7ca" d="M195.5 188.5c-3.707 7.493-5.04 15.493-4 24h-78c.237 1.291-.096 2.291-1 3v-23c.934-1.068 1.268-2.401 1-4h82ZM600.5 188.5h81c-.319 4.863.014 9.53 1 14v23c-.985-4.134-1.318-8.468-1-13h-77c1.04-8.507-.293-16.507-4-24Z"/><path style="opacity:1" fill="#acb1c5" d="M590.5 198.5v47h-385v-47a14.698 14.698 0 0 1 3-3.5c126.333-.667 252.667-.667 379 0a14.698 14.698 0 0 1 3 3.5Z"/><path style="opacity:1" fill="#f7e6c6" d="M6.5 188.5h30v44h-30v-44Z"/><path style="opacity:1" fill="#f6e6c4" d="M191.5 212.5v20h-78v13h-1v-30c.904-.709 1.237-1.709 1-3h78ZM604.5 212.5h77c-.318 4.532.015 8.866 1 13 .233 1.562.9 2.895 2 4 .219 1.175-.114 2.175-1 3-26.155-.022-52.488-.022-79 0v-20Z"/><path style="opacity:1" fill="#f7e6c6" d="M762.5 188.5h30v44h-30v-44Z"/><path style="opacity:1" fill="#f4e1bc" d="M684.5 229.5a903.85 903.85 0 0 1 0 85v-62h-80v-20c26.512-.022 52.845-.022 79 0 .886-.825 1.219-1.825 1-3Z"/><path style="opacity:1" fill="#f7e4be" d="M191.5 232.5v20h-78v-20h78Z"/><path style="opacity:1" fill="#6f727f" d="M205.5 198.5v47h385v-47a576.628 576.628 0 0 1 1 48h-387a576.628 576.628 0 0 1 1-48Z"/><path style="opacity:1" fill="#d2d5e0" d="M571.5 226.5c-96.499.999-193.165 1.333-290 1v-14h291c.318 4.532-.015 8.866-1 13Z"/><path style="opacity:1" fill="#fefffe" d="M571.5 226.5h-289v-12h289v12Z"/><path style="opacity:1" fill="#636772" d="M249.5 214.5c4.47-.986 9.137-1.319 14-1 .318 4.532-.015 8.866-1 13v-12h-13Z"/><path style="opacity:1" fill="#030303" d="M249.5 214.5h13v12h-13v-12Z"/><path style="opacity:1" fill="#fafafb" d="M223.5 213.5h13v13h-13v-13Z"/><path style="opacity:1" fill="#f7e2ba" d="M6.5 232.5h30v44h-30v-44Z"/><path style="opacity:1" fill="#f7e1b8" d="M112.5 245.5h1v7h78v24h-78c.237 1.291-.096 2.291-1 3v-34ZM604.5 252.5h80v24h-80v-24Z"/><path style="opacity:1" fill="#f1ddb6" d="M761.5 134.5c.988 5.14 1.321 10.474 1 16v82h30v44h-30v46c.328 11.179-.005 22.179-1 33v-221Z"/><path style="opacity:1" fill="#e9edf4" d="M205.5 259.5h385v50c-36.063-7.893-71.73-6.393-107 4.5a177.581 177.581 0 0 1-45 3c-3.004-.117-5.671-.951-8-2.5-2.294-18.797-12.628-30.631-31-35.5-21.45-2.689-36.45 5.811-45 25.5a256.512 256.512 0 0 0-33 1.5 781.422 781.422 0 0 1-54 11c-20.909 1.574-41.576.074-62-4.5v-53Z"/><path style="opacity:1" fill="#040302" d="M430.5 314.5c-.379 21.781-11.046 35.448-32 41-.991 6.479-1.324 13.146-1 20h125c17.651 6.49 35.318 12.99 53 19.5 3.223 3.112 3.723 6.612 1.5 10.5a297.083 297.083 0 0 0-13.5 6 1016.226 1016.226 0 0 0-42 15h-124c-.323 6.522.01 12.855 1 19 8.15.993 16.483 1.326 25 1v12h-64v-12c8.517.326 16.85-.007 25-1 .99-6.145 1.323-12.478 1-19h-151a326.819 326.819 0 0 1-15.5-15c-1.586-6.557-1.92-13.224-1-20a371.68 371.68 0 0 1 16.5-16h151c.324-6.854-.009-13.521-1-20-16.595-3.928-26.928-14.261-31-31-.153-6.369.18-12.703 1-19v-1c8.55-19.689 23.55-28.189 45-25.5 18.372 4.869 28.706 16.703 31 35.5Z"/><path style="opacity:1" fill="#f7e0b0" d="M191.5 276.5v20h-78v18c-.995-11.488-1.328-23.155-1-35 .904-.709 1.237-1.709 1-3h78Z"/><path style="opacity:1" fill="#f8e0b0" d="M604.5 276.5h80v20h-80v-20Z"/><path style="opacity:1" fill="#fa626d" d="M384.5 291.5c16.124-1.858 26.957 4.809 32.5 20 1.648 14.866-4.519 25.033-18.5 30.5-14.871 2.788-25.371-2.712-31.5-16.5-3.377-16.25 2.456-27.583 17.5-34Z"/><path style="opacity:1" fill="#f8dfac" d="M6.5 276.5h30v46h-30v-46Z"/><path style="opacity:1" fill="#f7dda8" d="M191.5 296.5v76h-6c.268 1.599-.066 2.932-1 4 .166-6.675 0-13.342-.5-20a36.078 36.078 0 0 0-3.5-4.5 72.888 72.888 0 0 0-17-9l-9-7c-3.993-.322-7.326-1.988-10-5-3.415-.406-6.082-2.072-8-5l-10-4c-3.741-3.52-8.075-6.02-13-7.5v-18h78ZM604.5 296.5h80v18a8.43 8.43 0 0 0-4 .5 679.07 679.07 0 0 0-23 15l-4 1a285.632 285.632 0 0 1-33 18l-4 4a101.096 101.096 0 0 1-12 5.5v-62Z"/><path style="opacity:1" fill="#f8dfac" d="M792.5 276.5v46h-30v-46h30Z"/><path style="opacity:1" fill="#cdd1e0" d="M354.5 304.5v1c-1.539 3.365-2.206 7.031-2 11 .003 2.855.336 5.522 1 8 4.072 16.739 14.405 27.072 31 31-.904.709-1.237 1.709-1 3-21.963-3.767-43.963-3.934-66-.5a380.946 380.946 0 0 1-46 10 462.27 462.27 0 0 1-43 0 200.191 200.191 0 0 1-23-4.5v-51c20.424 4.574 41.091 6.074 62 4.5a781.422 781.422 0 0 0 54-11 256.512 256.512 0 0 1 33-1.5Z"/><path style="opacity:1" fill="#f6f7fa" d="M387.5 304.5c13.502-.339 18.669 5.994 15.5 19-8.822 9.754-16.822 9.087-24-2-1.915-8.17.918-13.837 8.5-17Z"/><path style="opacity:1" fill="#cdd2e0" d="M590.5 309.5v52c-27.11-6.993-54.444-7.826-82-2.5-27.339 9.017-55.339 12.017-84 9a117.978 117.978 0 0 1-23-5c-2.667-2.333-2.667-4.667 0-7a4.934 4.934 0 0 0-3-.5c20.954-5.552 31.621-19.219 32-41 2.329 1.549 4.996 2.383 8 2.5 15.12.913 30.12-.087 45-3 35.27-10.893 70.937-12.393 107-4.5Z"/><path style="opacity:1" fill="#666a6d" d="M354.5 305.5a123.888 123.888 0 0 0-1 19c-.664-2.478-.997-5.145-1-8-.206-3.969.461-7.635 2-11Z"/><path style="opacity:1" fill="#f7daa1" d="M6.5 322.5h30c-.42 12.728.08 25.394 1.5 38l9.5 5.5a13.908 13.908 0 0 0 3 4c2.474.037 4.474.87 6 2.5h-38c-3.267-3.438-7.267-5.772-12-7v-43ZM762.5 322.5h30v43c-3.013-.128-5.513.872-7.5 3-2.411-1.653-3.578-.987-3.5 2-1.701.466-3.201.466-4.5 0-.717.544-1.217 1.211-1.5 2h-37a435.312 435.312 0 0 1 21-10.5c1.729-1.789 2.396-3.956 2-6.5.995-10.821 1.328-21.821 1-33Z"/><path style="opacity:1" fill="#dee0e9" d="M384.5 355.5v19a5625.947 5625.947 0 0 0-150 1 371.68 371.68 0 0 0-16.5 16c-.92 6.776-.586 13.443 1 20a326.819 326.819 0 0 0 15.5 15c1.068.934 2.401 1.268 4 1a177.724 177.724 0 0 0 11 11.5c44.999.5 89.999.667 135 .5v6h-26c-.318 4.532.015 8.866 1 13 21.494.997 43.16 1.331 65 1v-14h-26v-6c45.668.167 91.335 0 137-.5a1576.641 1576.641 0 0 0 49-19c-7.3-2.371-14.3-5.204-21-8.5a297.083 297.083 0 0 1 13.5-6c2.223-3.888 1.723-7.388-1.5-10.5-17.682-6.51-35.349-13.01-53-19.5a3843.432 3843.432 0 0 0-124-1v-19a4.934 4.934 0 0 1 3 .5c-2.667 2.333-2.667 4.667 0 7a117.978 117.978 0 0 0 23 5c28.661 3.017 56.661.017 84-9 27.556-5.326 54.89-4.493 82 2.5v121c-16.003-.167-32.003 0-48 .5-1.323.816-1.989 1.983-2 3.5a2209.105 2209.105 0 0 0-1 94h-4c.332-31.504-.002-62.838-1-94 0-2-1-3-3-3a1406.593 1406.593 0 0 0-75-1c.302-2.559-.032-4.893-1-7a6.547 6.547 0 0 0-3-3c-5.14-.988-10.474-1.321-16-1v11a307.162 307.162 0 0 0-35 1l-1.5 3c-.5 31.332-.667 62.665-.5 94h-6v-57h4c.986-4.47 1.319-9.137 1-14h-5c.324-6.854-.009-13.521-1-20-.074-1.911-1.074-3.078-3-3.5a1143.353 1143.353 0 0 1-48-1.5h5v-13a128.507 128.507 0 0 0-16 .5l-2.5 2.5a40.914 40.914 0 0 0-.5 9c-20.976 1.825-42.31 2.658-64 2.5-1.323.816-1.989 1.983-2 3.5a2071.736 2071.736 0 0 0-1 91h-52a14.698 14.698 0 0 1-3.5-3c-.5-7.993-.666-15.993-.5-24a4133.336 4133.336 0 0 0 48.5-16 306.347 306.347 0 0 0 0-35c-1.808-1.896-3.975-2.396-6.5-1.5a378.862 378.862 0 0 1-39 12.5 2814.24 2814.24 0 0 1-2-150 200.191 200.191 0 0 0 23 4.5 462.27 462.27 0 0 0 43 0 380.946 380.946 0 0 0 46-10c22.037-3.434 44.037-3.267 66 .5-.237-1.291.096-2.291 1-3Z"/><path style="opacity:1" fill="#8e9096" d="M204.5 259.5c128.832-1 257.832-1.333 387-1v224h-1v-223h-386Z"/><path style="opacity:1" fill="#adb0b8" d="M204.5 259.5h1v104a2814.24 2814.24 0 0 0 2 150c-.709.904-1.709 1.237-3 1v-255Z"/><path style="opacity:1" fill="#797a7f" d="M384.5 355.5c.991 6.479 1.324 13.146 1 20h-151a5625.947 5625.947 0 0 1 150-1v-19Z"/><path style="opacity:1" fill="#78797e" d="M398.5 355.5v19c41.503-.332 82.837.001 124 1h-125c-.324-6.854.009-13.521 1-20Z"/><path style="opacity:1" fill="#8cd4f5" d="M239.5 388.5h16v25a145.053 145.053 0 0 1-17-.5c-10.911-8.631-10.578-16.797 1-24.5Z"/><path style="opacity:1" fill="#517b8e" d="M239.5 388.5c5.475-.989 11.142-1.322 17-1 .326 8.849-.007 17.516-1 26v-25h-16Z"/><path style="opacity:1" fill="#f8be45" d="M515.5 388.5h-36a146.726 146.726 0 0 1 2 25h-212v-26c82.168-.333 164.168.001 246 1Z"/><path style="opacity:1" fill="#fca325" d="M515.5 388.5c2.129 3.867 3.796 8.034 5 12.5-2.231 3.859-3.564 8.026-4 12.5h-35c.046-8.397-.62-16.73-2-25h36Z"/><path style="opacity:1" fill="#f1dcba" d="M531.5 393.5a157.524 157.524 0 0 1 21 7.5 157.524 157.524 0 0 1-21 7.5 63.83 63.83 0 0 1 2-7.5 63.83 63.83 0 0 1-2-7.5Z"/><path style="opacity:1" fill="#f7d592" d="M738.5 372.5h37c-3.397 1.027-6.231 3.027-8.5 6l-1-1c-1.049 1.607-2.549 2.273-4.5 2v3c-3.937.204-7.604 1.204-11 3 .381 2.442-.286 3.109-2 2-.886.825-1.219 1.825-1 3h-6v3a12.93 12.93 0 0 0-5 .5c-1.079 2.043-2.746 3.376-5 4l1 1a12.93 12.93 0 0 1-5 .5v3a9.86 9.86 0 0 0-6 1c-3.423 1.192-6.256 3.192-8.5 6l-1-1c-1.049 1.607-2.549 2.273-4.5 2v3h-6v3h-5v3c-2.185.388-4.018 1.388-5.5 3-2.278-1.12-3.778-.287-4.5 2.5a101.955 101.955 0 0 0-13 5.5v3h-6v3h-6v3c-1.788-.285-3.455.048-5 1 1.129 2.029.629 2.363-1.5 1-1.712 3.452-4.212 4.452-7.5 3v3c-3.096-.593-5.429.407-7 3a47.25 47.25 0 0 1-7 3v3h-6v3c-1.788-.285-3.455.048-5 1a28.335 28.335 0 0 0-9.5 6l-1-1c-1.049 1.607-2.549 2.273-4.5 2v15h-3v-34a15.024 15.024 0 0 0 8-2.5 271.702 271.702 0 0 1 33-19 3223.86 3223.86 0 0 1 93-54.5Z"/><path style="opacity:1" fill="#adb2c7" d="M563.5 411.5c6.7 3.296 13.7 6.129 21 8.5a1576.641 1576.641 0 0 1-49 19c-45.665.5-91.332.667-137 .5v-12c41.17.332 82.17-.001 123-1a1016.226 1016.226 0 0 1 42-15Z"/><path style="opacity:1" fill="#f7d591" d="M18.5 372.5h38a49.952 49.952 0 0 1 8 3.5c3.846 4.125 8.513 6.792 14 8a2163.131 2163.131 0 0 0 93 54c4.091 1.227 7.591.394 10.5-2.5.101-3.2.768-6.2 2-9 .5-16.663.667-33.33.5-50 .934-1.068 1.268-2.401 1-4h6v146c-1.28 1.431-2.947 2.098-5 2 .167-18.67 0-37.336-.5-56a1204.023 1204.023 0 0 0-28.5-16.5c-6.204-2.789-12.537-4.622-19-5.5v-3h-6v-3h-3v-3h-6v-3h-5v-3c-2.921.354-5.254-.646-7-3-1.714 1.109-2.381.442-2-2a58.97 58.97 0 0 1-11-3v-3a27.267 27.267 0 0 0-9-3v-3c-2.908.238-5.242-.762-7-3a3.647 3.647 0 0 0-1.5 1c-1.667-1-3-2.333-4-4l-1 1a4.932 4.932 0 0 1-.5-3h-6v-3h-5v-3a544.412 544.412 0 0 1-29-14v-3a58.967 58.967 0 0 1-11-3v-3c-2.235.295-4.235-.039-6-1Z"/><path style="opacity:1" fill="#6d707d" d="M234.5 426.5h151c.323 6.522-.01 12.855-1 19v-18h-146c-1.599.268-2.932-.066-4-1Z"/><path style="opacity:1" fill="#6b6f7c" d="M521.5 426.5c-40.83.999-81.83 1.332-123 1v18c-.99-6.145-1.323-12.478-1-19h124Z"/><path style="opacity:1" fill="#adb3c8" d="M238.5 427.5h146v12c-45.001.167-90.001 0-135-.5a177.724 177.724 0 0 1-11-11.5Z"/><path style="opacity:1" fill="#616367" d="M384.5 445.5c-8.15.993-16.483 1.326-25 1v12c-.985-4.134-1.318-8.468-1-13h26Z"/><path style="opacity:1" fill="#686a6f" d="M398.5 445.5h26v14c-21.84.331-43.506-.003-65-1h64v-12c-8.517.326-16.85-.007-25-1Z"/><path style="opacity:1" fill="#080909" d="M341.5 484.5c-4.896 1.621-9.562 1.288-14-1a40.914 40.914 0 0 1 .5-9l2.5-2.5a128.507 128.507 0 0 1 16-.5v13h-5Z"/><path style="opacity:1" fill="#010101" d="M452.5 472.5a6.547 6.547 0 0 1 3 3v7h-18v-10h15Z"/><path style="opacity:.988" fill="#293338" d="M452.5 472.5h-15v10h18c25.161.998 50.495 1.331 76 1 2 0 3 1 3 3v108c-.167 25.336 0 50.669.5 76 .717-.544 1.217-1.211 1.5-2 1.322.17 2.489-.163 3.5-1 .5-24.331.667-48.664.5-73v-108c.011-1.517.677-2.684 2-3.5 15.997-.5 31.997-.667 48-.5h17c22.003-.167 44.003 0 66 .5l1.5 1.5c.667 76.333.667 152.667 0 229a6.978 6.978 0 0 1-3.5 2.5c-41.332.5-82.665.667-124 .5a168.522 168.522 0 0 0-6-2 5.576 5.576 0 0 1-1-3c.166-10.339 0-20.672-.5-31-.717.544-1.217 1.211-1.5 2-1.517.011-2.684.677-3.5 2l-1 29-1.5 1.5-53 1a209.75 209.75 0 0 0-30 18c-6.4 2.062-12.067 5.396-17 10-6.761 1.869-12.761 5.202-18 10-5.111 2.701-10.611 4.534-16.5 5.5a66.364 66.364 0 0 1-9.5-2.5 35.157 35.157 0 0 0-10-5l-4-4a7040.07 7040.07 0 0 1-28-16c-3.959.349-6.626-1.317-8-5-6.761-1.869-12.761-5.202-18-10a870.25 870.25 0 0 1-58-2 511.22 511.22 0 0 1-1.5-31.5 15.256 15.256 0 0 0-4.5-1.5 21.53 21.53 0 0 0-6-5 2047.17 2047.17 0 0 0-64-.5c-24.336.167-48.669 0-73-.5l-1.5-1.5a256.122 256.122 0 0 1 0-32 6.978 6.978 0 0 1 3.5-2.5c23.664-.5 47.331-.667 71-.5 4.805.987 9.805 1.321 15 1v-15a95.51 95.51 0 0 0-15-4 6148.12 6148.12 0 0 1-73-24 4.457 4.457 0 0 1-1.5-2 624.938 624.938 0 0 1 0-50l1.5-1.5a9261.604 9261.604 0 0 1 73-23.5c2.053.098 3.72-.569 5-2 4.549-.963 8.883-2.296 13-4 1.291.237 2.291-.096 3-1a378.862 378.862 0 0 0 39-12.5c2.525-.896 4.692-.396 6.5 1.5a306.347 306.347 0 0 1 0 35 4133.336 4133.336 0 0 1-48.5 16c-4.549.963-8.883 2.296-13 4-2.053-.098-3.72.569-5 2a2352.374 2352.374 0 0 0-37 11.5 794.835 794.835 0 0 1 37 11.5c2.213 1.812 4.547 2.145 7 1 .809.969 1.809 1.802 3 2.5a305.982 305.982 0 0 0 30 8.5 289.427 289.427 0 0 1 26.5 10l.5 17.5c-.043 6.339-.709 12.505-2 18.5a4.457 4.457 0 0 0 1.5 2 267.06 267.06 0 0 0 1.5 23c1.44 1.452 3.106 2.452 5 3 .06.543.393.876 1 1 1-24.991 1.333-49.991 1-75v-105c.011-1.517.677-2.684 2-3.5 21.69.158 43.024-.675 64-2.5 4.438 2.288 9.104 2.621 14 1 15.828.831 31.828 1.331 48 1.5 1.926.422 2.926 1.589 3 3.5v179l7 2v-90c-.167-31.335 0-62.668.5-94l1.5-3a307.162 307.162 0 0 1 35-1v-11c5.526-.321 10.86.012 16 1Zm158 58h14v137h-14v-137Zm-424 29v23a794.835 794.835 0 0 0-37-11.5 2352.374 2352.374 0 0 1 37-11.5Z"/><path style="opacity:1" fill="#575f64" d="M455.5 475.5c.968 2.107 1.302 4.441 1 7 25.172-.331 50.172.002 75 1-25.505.331-50.839-.002-76-1v-7Z"/><path style="opacity:1" fill="#818890" d="M534.5 486.5a2209.105 2209.105 0 0 1 1 94h4c-.332-31.504.002-62.838 1-94v95h-6v-95Z"/><path style="opacity:1" fill="#a1a5ac" d="M392.5 489.5c.991 6.479 1.324 13.146 1 20h5c.319 4.863-.014 9.53-1 14v-13h-5v-21Z"/><path style="opacity:1" fill="#b38d3b" d="M667.5 491.5h-119v216a11770.92 11770.92 0 0 1-1-217c40.17-.332 80.17.001 120 1Z"/><path style="opacity:1" fill="#fdbc3d" d="M526.5 490.5v217h-119v-217h119ZM667.5 491.5v216h-119v-216h119Zm-57 39h14v137h-14v-137ZM269.5 493.5h115v215h-115v-215Z"/><path style="opacity:1" fill="#5d5639" d="M244.5 510.5c.06-.543.393-.876 1-1 1.32 7.823 1.32 15.49 0 23 .325-7.519-.008-14.852-1-22Z"/><path style="opacity:1" fill="#fbba3d" d="M244.5 510.5c.992 7.148 1.325 14.481 1 22a7962.474 7962.474 0 0 1-112 34.5c-3.456 4.99-2.123 7.99 4 9a8060.366 8060.366 0 0 1 108 33.5c.325 7.519-.008 14.852-1 22a13400.276 13400.276 0 0 1-124-40 421.042 421.042 0 0 1-1-41 6810.457 6810.457 0 0 1 125-40Z"/><path style="opacity:1" fill="#040505" d="M392.5 510.5h5v13h-5v-13Z"/><path style="opacity:1" fill="#293338" d="M444.5 522.5c15.004-.167 30.004 0 45 .5a4.457 4.457 0 0 0 2 1.5 3601.9 3601.9 0 0 1 .5 147 11.333 11.333 0 0 1-1.5 3.5l-23.5.5c-8.234-.017-16.234-.683-24-2a5547.726 5547.726 0 0 1 0-149c.717-.544 1.217-1.211 1.5-2Z"/><path style="opacity:.976" fill="#2a3439" d="M585.5 522.5c15.004-.167 30.004 0 45 .5l1.5 1.5c.83 50.237.664 100.404-.5 150.5a552.224 552.224 0 0 1-47 0 11.333 11.333 0 0 1-1.5-3.5 3601.9 3601.9 0 0 1 .5-147c1.022-.355 1.689-1.022 2-2Zm25 8h14v137h-14v-137Z"/><path style="opacity:1" fill="#afb3bb" d="M392.5 523.5h1v57h6v1h-7v-58Z"/><path style="opacity:1" fill="#273338" d="M304.5 525.5a518.61 518.61 0 0 1 45 1 542.165 542.165 0 0 1 .5 57l-1.5 1.5a462.27 462.27 0 0 1-43 0l-1.5-1.5c-.82-19.407-.653-38.74.5-58Z"/><path style="opacity:1" fill="#0a0b0b" d="m458.5 530.5-2.5 5-1 24c-1.11 1.537-2.61 2.203-4.5 2v-31h8Z"/><path style="opacity:1" fill="#dee0e9" d="M458.5 530.5h25v50h-33v-19c1.89.203 3.39-.463 4.5-2l1-24 2.5-5Z"/><path style="opacity:1" fill="#010101" d="M604.5 530.5c.167 16.003 0 32.003-.5 48-1.355 5.396-4.188 9.729-8.5 13l-4 2-1-8a912.009 912.009 0 0 0 1-55h13Z"/><path style="opacity:1" fill="#f8d48e" d="M604.5 530.5h6v137h-19v-18c.426-2.71 1.593-5.044 3.5-7 .5-16.997.667-33.997.5-51 4.312-3.271 7.145-7.604 8.5-13 .5-15.997.667-31.997.5-48Z"/><path style="opacity:1" fill="#5c656a" d="M325.5 533.5h-14v44a507.055 507.055 0 0 1-1-45c5.195-.321 10.195.013 15 1Z"/><path style="opacity:1" fill="#585e63" d="M339.5 532.5h4c.322 5.858-.011 11.525-1 17-1.936-4.215-2.603-8.881-2-14 .825 4.147 1.325 8.481 1.5 13a38.064 38.064 0 0 0-.5-15c-.607.124-.94.457-1 1-.838-.342-1.172-1.008-1-2Z"/><path style="opacity:1" fill="#dee0e9" d="M325.5 533.5h1a365.993 365.993 0 0 1 1.5 26c.816 1.323 1.983 1.989 3.5 2 3.462.982 7.129 1.315 11 1v15h-31v-44h14Z"/><path style="opacity:1" fill="#060707" d="M339.5 532.5c-.172.992.162 1.658 1 2v1c-.603 5.119.064 9.785 2 14v12h-11c-1.517-.011-2.684-.677-3.5-2a365.993 365.993 0 0 0-1.5-26c4.134-.985 8.468-1.318 13-1Z"/><path style="opacity:1" fill="#dcdfe8" d="M340.5 535.5v-1c.06-.543.393-.876 1-1a38.064 38.064 0 0 1 .5 15c-.175-4.519-.675-8.853-1.5-13Z"/><path style="opacity:1" fill="#010101" d="M204.5 553.5c-.166 8.007 0 16.007.5 24a14.698 14.698 0 0 0 3.5 3 702.728 702.728 0 0 0 53 1v13h-35a305.982 305.982 0 0 1-30-8.5c-1.191-.698-2.191-1.531-3-2.5-1.836-8.526-2.503-17.193-2-26 4.117-1.704 8.451-3.037 13-4Z"/><path style="opacity:1" fill="#f2cf8b" d="M191.5 557.5c-.503 8.807.164 17.474 2 26-2.453 1.145-4.787.812-7-1v-23c1.28-1.431 2.947-2.098 5-2Z"/><path style="opacity:1" fill="#aeb0b8" d="M261.5 489.5v92a702.728 702.728 0 0 1-53-1h52c-.331-30.505.002-60.838 1-91Z"/><path style="opacity:1" fill="#aeb1b9" d="M483.5 530.5a650.602 650.602 0 0 1 1 51h-34v-1h33v-50Z"/><path style="opacity:1" fill="#020202" d="M392.5 581.5h7v13h-7v-13Z"/><path style="opacity:1" fill="#010101" d="M450.5 581.5h34v13h-34v-13Z"/><path style="opacity:1" fill="#07090a" d="M534.5 581.5h6v13h-6v-13Z"/><path style="opacity:1" fill="#f7f8f8" d="M226.5 594.5h34c.331 24.839-.002 49.506-1 74-1.894-.548-3.56-1.548-5-3a267.06 267.06 0 0 1-1.5-23 4.457 4.457 0 0 1-1.5-2c1.291-5.995 1.957-12.161 2-18.5l-.5-17.5a289.427 289.427 0 0 0-26.5-10Z"/><path style="opacity:1" fill="#c5c9ca" d="M260.5 594.5h1c.333 25.009 0 50.009-1 75-.607-.124-.94-.457-1-1a1369.272 1369.272 0 0 0 1-74Z"/><path style="opacity:1" fill="#f1cf8c" d="M392.5 594.5h7v76l-7-2v-74Z"/><path style="opacity:1" fill="#58594d" d="M450.5 594.5a552.805 552.805 0 0 0 1 47c-.06.543-.393.876-1 1-1.327-16.162-1.327-32.162 0-48Z"/><path style="opacity:1" fill="#f6d38e" d="M450.5 594.5h34c.166 9.339 0 18.673-.5 28a166.151 166.151 0 0 0-18.5 11.5c-5.494 1.032-10.161 3.532-14 7.5a552.805 552.805 0 0 1-1-47Z"/><path style="opacity:1" fill="#909699" d="M534.5 594.5h1c-.331 24.839.002 49.506 1 74-.283.789-.783 1.456-1.5 2-.5-25.331-.667-50.664-.5-76Z"/><path style="opacity:1" fill="#ebeded" d="M535.5 594.5h5c.167 24.336 0 48.669-.5 73-1.011.837-2.178 1.17-3.5 1a1369.272 1369.272 0 0 1-1-74Z"/><path style="opacity:1" fill="#5c5539" d="M245.5 609.5c1.32 7.51 1.32 15.177 0 23-.607-.124-.94-.457-1-1 .992-7.148 1.325-14.481 1-22Z"/><path style="opacity:1" fill="#293439" d="M305.5 616.5c14.337-.167 28.671 0 43 .5l1.5 1.5a783.858 783.858 0 0 1 0 56l-1.5 1.5c-7.4 1.134-14.9 1.634-22.5 1.5l-20.5-1a4.457 4.457 0 0 0-1.5-2 783.858 783.858 0 0 1 0-56c.717-.544 1.217-1.211 1.5-2Z"/><path style="opacity:1" fill="#f2d08c" d="M186.5 621.5a95.51 95.51 0 0 1 15 4v15c-5.195.321-10.195-.013-15-1v-18Z"/><path style="opacity:1" fill="#f3d18c" d="M317.5 625.5c8.15-.993 16.483-1.326 25-1a98.432 98.432 0 0 1-.5 14 499.188 499.188 0 0 0-24.5-13Z"/><path style="opacity:1" fill="#f8f8f9" d="M240.5 638.5c-8.818.993-17.818 1.327-27 1v-9a167.98 167.98 0 0 1 27 8Z"/><path style="opacity:1" fill="#5a6368" d="M312.5 635.5c-.995 11.154-1.328 22.488-1 34-1.324-11.507-1.324-23.173 0-35 .607.124.94.457 1 1Z"/><path style="opacity:1" fill="#fbfbfb" d="M312.5 635.5c6.296 3.483 12.629 6.983 19 10.5 2.52 3.873 6.02 6.04 10.5 6.5.499 5.657.666 11.324.5 17h-31c-.328-11.512.005-22.846 1-34Z"/><path style="opacity:1" fill="#c5c8c9" d="M484.5 667.5h-1c.327-10.181-.006-20.181-1-30 .283-.789.783-1.456 1.5-2 .5 10.661.667 21.328.5 32Z"/><path style="opacity:1" fill="#fdfdfd" d="M482.5 637.5c.994 9.819 1.327 19.819 1 30h-33v-12c6.62-3.069 12.953-6.903 19-11.5 3.81-1.13 7.143-3.13 10-6a4.934 4.934 0 0 1 3-.5Z"/><path style="opacity:1" fill="#c4c7c9" d="M240.5 638.5a42.47 42.47 0 0 1 5 1.5c-10.841.825-21.508.659-32-.5 9.182.327 18.182-.007 27-1Z"/><path style="opacity:1" fill="#5b5538" d="M119.5 648.5a4031.82 4031.82 0 0 1 127-1c.325 7.187-.009 14.187-1 21v-20h-126Z"/><path style="opacity:1" fill="#fcbb3d" d="M119.5 648.5h126v20h-126v-20Z"/><path style="opacity:1" fill="#848b8e" d="M450.5 655.5v12h34c-11.488.995-23.155 1.328-35 1-.318-4.532.015-8.866 1-13Z"/><path style="opacity:1" fill="#9d8e69" d="M591.5 649.5v18h19c-6.479.991-13.146 1.324-20 1-.323-6.522.01-12.855 1-19Z"/><path style="opacity:1" fill="#f7d48e" d="M186.5 676.5c21.336-.167 42.669 0 64 .5a21.53 21.53 0 0 1 6 5c1.601.273 3.101.773 4.5 1.5a511.22 511.22 0 0 0 1.5 31.5 870.25 870.25 0 0 0 58 2c5.239 4.798 11.239 8.131 18 10 1.374 3.683 4.041 5.349 8 5a7040.07 7040.07 0 0 0 28 16l4 4a35.157 35.157 0 0 1 10 5 66.364 66.364 0 0 0 9.5 2.5c5.889-.966 11.389-2.799 16.5-5.5 5.239-4.798 11.239-8.131 18-10 4.933-4.604 10.6-7.938 17-10a209.75 209.75 0 0 1 30-18l53-1 1.5-1.5 1-29c.816-1.323 1.983-1.989 3.5-2l2 29a5.576 5.576 0 0 0 1 3c2.131.669 4.131 1.335 6 2-1.238.31-1.238.81 0 1.5a118.288 118.288 0 0 0-17 7.5 10.756 10.756 0 0 0-2.5 3l-1-1c-1.049 1.607-2.549 2.273-4.5 2v3h-6v3h-5v3c-2.524-.071-4.524.929-6 3-2.12-1.372-3.12-.705-3 2a12.93 12.93 0 0 0-5 .5 101.657 101.657 0 0 0-10 7.5 9.108 9.108 0 0 1-5 1v3c-2.51-.446-4.51.22-6 2-2.216.703-4.049 2.036-5.5 4-1.813-1.109-2.646-.442-2.5 2a12.93 12.93 0 0 0-5 .5c-1.497 1.871-3.497 2.871-6 3-1.307 2.324-3.307 3.657-6 4l2 1a12.93 12.93 0 0 1-5 .5v3a9.86 9.86 0 0 0-6 1 35.217 35.217 0 0 1-8 4v3h-6v3h-6v3a8.43 8.43 0 0 0-4 .5l-5 5c-1.284.684-2.451.517-3.5-.5-1.263 2.968-3.263 3.968-6 3a2.428 2.428 0 0 0-.5 2h-12c-.507-1.359-1.507-2.359-3-3a137.913 137.913 0 0 0-11-4v-3c-2.133-1.386-5.133-2.386-9-3v-3h-5v-3c-3.005.247-5.505-.753-7.5-3l-1 1a4.934 4.934 0 0 1-.5-3h-6v-3h-5v-3h-6v-3c-5.922-1.727-11.089-4.727-15.5-9-.718.951-1.551 1.117-2.5.5 1.333-.667 1.333-1.333 0-2a12.93 12.93 0 0 0-5-.5v-3a58.97 58.97 0 0 1-11-3v-3c-8.654-3.265-16.321-6.932-23-11v-3h-6v-3h-5v-3a8.43 8.43 0 0 1-4-.5c-4.85-3.699-10.184-6.199-16-7.5v-3h-6v-3c-2.092-.061-3.592-1.061-4.5-3-1.299.466-2.799.466-4.5 0v-3c-1.788.285-3.455-.048-5-1-2.158-3.144-5.158-4.477-9-4v-3a12.93 12.93 0 0 1-5-.5c-2.625-3.031-6.125-5.864-10.5-8.5-2.537.677-4.537-.323-6-3l-1 1c-1.667-1-3-2.333-4-4-1.049 1.017-2.216 1.184-3.5.5l1-1c-3.321-.97-4.987-3.137-5-6.5Z"/><path style="opacity:1" fill="#8d8262" d="m540.5 711.5-2-29c.283-.789.783-1.456 1.5-2 .5 10.328.666 20.661.5 31Z"/><path style="opacity:1" fill="#fbfcfc" d="m403.5 715.5 50 2c-4.401.859-8.068 3.026-11 6.5-6.858 2.879-13.191 6.546-19 11a115.786 115.786 0 0 0-25 13.5 97.288 97.288 0 0 0-12-5.5c-3.543-1.608-6.543-3.942-9-7-5.662-.917-10.329-3.583-14-8-7.4-2.867-14.4-6.534-21-11a641.88 641.88 0 0 0 49-2 268.978 268.978 0 0 0 1-32.5h7c-.166 10.339 0 20.672.5 31 .816 1.323 1.983 1.989 3.5 2Z"/><path style="opacity:1" fill="#71623a" d="M526.5 490.5c.999 72.498 1.333 145.165 1 218-40.17.332-80.17-.001-120-1h119v-217Z"/><path style="opacity:1" fill="#c6c9ca" d="M403.5 715.5c17.337-.167 34.67 0 52 .5-.544.717-1.211 1.217-2 1.5l-50-2Z"/><path style="opacity:1" fill="#f8d58e" d="M476.5 757.5c1.333.667 1.333.667 0 0Z"/></svg>