<?xml version="1.0" encoding="UTF-8"?><svg xmlns="http://www.w3.org/2000/svg" width="800" height="800" style="shape-rendering:geometricPrecision;text-rendering:geometricPrecision;image-rendering:optimizeQuality;fill-rule:evenodd;clip-rule:evenodd"><path style="opacity:1" fill="#b5db47" d="M297.5 46.5a280.18 280.18 0 0 0-17.5-1 2.429 2.429 0 0 0-.5 2 543.218 543.218 0 0 0-42.5-24 138.219 138.219 0 0 1-14.5 1.5 1454.35 1454.35 0 0 1-41 22.5c-.283-.79-.783-1.456-1.5-2h-40c-1.333 2.667-2.667 2.667-4 0-1.388-.286-2.888.048-4.5 1 1.098-.897 1.098-1.73 0-2.5 4.479-2.163 8.979-4.33 13.5-6.5a18.264 18.264 0 0 0 5-4l1 1c1.049-1.607 2.549-2.273 4.5-2v-3h5v-3h6v-3c4.612-1.195 9.279-2.862 14-5v-3c1.701-.466 3.201-.466 4.5 0 .908-1.939 2.408-2.939 4.5-3v-3h6v-3c1.788.285 3.455-.048 5-1a38.767 38.767 0 0 0 7-4.5 49.25 49.25 0 0 1 14 0c2.025 1.677 4.359 2.677 7 3-1.134 1.016-.801 1.683 1 2l5 1-1 1c2.622 3.073 5.955 4.573 10 4.5v3h6v3c3.191.262 5.858 1.596 8 4a9.864 9.864 0 0 0 6 1v3c3.58 1.22 7.247 2.386 11 3.5l-2 1c2.767.678 4.934 2.178 6.5 4.5l1-1c3.769 1.797 7.102 4.13 10 7a3.942 3.942 0 0 1 2-1c1.482 1.612 3.315 2.612 5.5 3v3ZM576.5-.5h9a2.429 2.429 0 0 0 .5 2c1.049-1.017 2.216-1.184 3.5-.5a20.495 20.495 0 0 0 2.5 3.5c1.356-.88 2.856-1.214 4.5-1v3c2.822 1.432 6.489 2.432 11 3v3c2.092.061 3.592 1.061 4.5 3 2.537-.677 4.537.323 6 3 2.361-.566 4.194.434 5.5 3l2-1c.35 2.067 2.017 3.067 5 3v3h6v3h5v3h6v3a27.247 27.247 0 0 0 9 3c-.219 1.175.114 2.175 1 3a6.846 6.846 0 0 1 4-1v3a8.435 8.435 0 0 1 4 .5c-1.098.77-1.098 1.603 0 2.5-2.273 1.235-4.106.902-5.5-1h-44a2.429 2.429 0 0 0-.5 2 287.26 287.26 0 0 1-20-10.5c-2.365-3.714-5.698-5.714-10-6-7.082-6.364-15.416-9.031-25-8a1629.776 1629.776 0 0 1-43 24.5c-.283-.79-.783-1.456-1.5-2-5.081.203-10.581.536-16.5 1v-3c1.808.009 3.475-.491 5-1.5-1.388-.89-1.222-1.39.5-1.5 2.071 1.167 3.571.5 4.5-2 6.434-2.343 12.767-5.343 19-9v-3a59.031 59.031 0 0 1 11-3 4.934 4.934 0 0 1 .5-3l1 1c1.995-2.247 4.495-3.247 7.5-3v-3h5v-3h6v-3c1.808.009 3.475-.491 5-1.5l-1-1a12.936 12.936 0 0 1 5-.5v-3c3.552.188 6.219-1.145 8-4Z"/><path style="opacity:1" fill="#273339" d="m615.5 47.5 26 15a419.463 419.463 0 0 0 41 24c19.33 10.994 38.663 21.994 58 33a56.925 56.925 0 0 1 8 5.5c2.71 1.747 5.71 2.747 9 3 2.04 2.185 3.374 4.685 4 7.5.167 75.001 0 150.001-.5 225a255.228 255.228 0 0 1-19.5 10 396.957 396.957 0 0 1-33 18.5c-3.342 4.33-7.675 6.997-13 8a490.902 490.902 0 0 1-26 15.5l-62 36a87.45 87.45 0 0 0-6-11 3872.061 3872.061 0 0 0 131-75.5 84.545 84.545 0 0 1 18-8.5 7901.316 7901.316 0 0 0-1.5-216 2129.254 2129.254 0 0 1-37.5-21.5c-3.415-.406-6.082-2.072-8-5a91.311 91.311 0 0 1-23-13 457.332 457.332 0 0 0-22-11c-2.508-3.042-5.508-5.376-9-7a457.332 457.332 0 0 1-22-11l-24-15c-3.415-.406-6.082-2.072-8-5a90.401 90.401 0 0 0-14-6c-5.722-6.435-12.722-8.768-21-7-7.36 5.663-15.36 9.996-24 13-3.619 3.977-7.952 6.644-13 8-2.537 2.546-5.537 4.212-9 5l-4 4-10 4a2551.356 2551.356 0 0 0-60 36 7185.005 7185.005 0 0 1 26 16 114.065 114.065 0 0 0 14 6c4.2 3.6 8.867 6.433 14 8.5a684.54 684.54 0 0 1 19-8.5 43.593 43.593 0 0 1 13-8c2.365-3.714 5.698-5.714 10-6a705.673 705.673 0 0 1 21-12c4.719-2.307 9.719-2.974 15-2a113.107 113.107 0 0 0 28 15l5 5a182.852 182.852 0 0 1 35 20 193.115 193.115 0 0 1 32 19 197.694 197.694 0 0 1 17 8 36.078 36.078 0 0 1 3.5 4.5 1422.198 1422.198 0 0 1 1.5 75c.158 25.085-.342 50.085-1.5 75-5.218 5.192-11.384 8.692-18.5 10.5a12318.477 12318.477 0 0 1-28 18c-6.381 2.027-12.048 5.361-17 10-6.943 1.604-12.943 4.937-18 10-4.657 1.994-9.323 3.994-14 6-3.295 3.142-6.961 5.642-11 7.5v-6h6v-12a27.603 27.603 0 0 1 5-1.5c3.492-1.624 6.492-3.958 9-7 5.319-1.548 9.985-4.215 14-8a383.382 383.382 0 0 0 40-21.5c7-3.473 13.667-7.64 20-12.5a12.93 12.93 0 0 1 5-.5c.331-28.505-.002-56.838-1-85-.283-.789-.783-1.456-1.5-2-.5-9.994-.666-19.994-.5-30v-16c.239-1.967-.094-3.801-1-5.5a106.437 106.437 0 0 0-18-9.5c-5.93-3.558-11.93-7.225-18-11a305.372 305.372 0 0 1-26-14 1654.159 1654.159 0 0 1-52-31 6436.842 6436.842 0 0 1-55 31 147.43 147.43 0 0 0-11 5.5 42.479 42.479 0 0 1-13 0 149.58 149.58 0 0 0-11-5.5 75.701 75.701 0 0 1-9-6.5c-9.715-4.032-18.715-9.365-27-16a8.43 8.43 0 0 0-4-.5c-2.084-3.252-4.918-5.585-8.5-7-1.633-1.953-2.799-4.12-3.5-6.5 2.196-5.03 5.863-8.53 11-10.5a174.339 174.339 0 0 0 21-13.5 501.784 501.784 0 0 1 35-18 1938.717 1938.717 0 0 1 25-15.5 1629.776 1629.776 0 0 0 43-24.5c9.584-1.031 17.918 1.636 25 8 4.302.286 7.635 2.286 10 6a287.26 287.26 0 0 0 20 10.5Z"/><path style="opacity:1" fill="#273439" d="M279.5 47.5a2649.85 2649.85 0 0 0 52 30.5c2.861.54 5.528 1.54 8 3a423.553 423.553 0 0 1 21 13.5 97.617 97.617 0 0 0 12 5.5 2397.548 2397.548 0 0 0 33 19.5c.453.958 1.119 1.792 2 2.5a237.17 237.17 0 0 1 36 20.5c8.162 3.482 15.829 7.982 23 13.5a8.43 8.43 0 0 0 4 .5c.453.958 1.119 1.792 2 2.5a271.634 271.634 0 0 0 18 9.5 137.881 137.881 0 0 0 25 14c-2.47 3.595-3.47 7.595-3 12a62.574 62.574 0 0 0-9-3.5c-2.508-3.042-5.508-5.376-9-7-5.521-1.096-10.187-3.762-14-8l-4-1a327.567 327.567 0 0 0-42-24c-4.758-4.768-10.425-7.768-17-9-3.065-4.125-7.065-6.791-12-8l-6-5a546.6 546.6 0 0 0-35-18 108.394 108.394 0 0 1-19-13 1516.16 1516.16 0 0 1-91-52l-20-10a15.28 15.28 0 0 1-4.5-1.5A112.066 112.066 0 0 0 206.5 48a190.467 190.467 0 0 0-22 11c-3.492 1.624-6.492 3.958-9 7l-10 4-4 4a520.666 520.666 0 0 0-59 34l-9 3c-3.796 3.592-8.13 6.259-13 8A361.546 361.546 0 0 1 48 137.5c-.667 72-.667 144 0 216a7214.146 7214.146 0 0 0 125 72c.5-21.664.667-43.331.5-65a340.197 340.197 0 0 0-18-8.5 55.63 55.63 0 0 0-18-10 78.488 78.488 0 0 0-23-13 56.965 56.965 0 0 0-10.5-7.5 5697.651 5697.651 0 0 1 0-151 6.978 6.978 0 0 1 2.5-3.5 146.497 146.497 0 0 0 31-18c8.372-3.019 16.038-7.352 23-13 5.093-1.382 9.426-4.049 13-8a90.42 90.42 0 0 0 14-6c1.918-2.928 4.585-4.594 8-5a226.438 226.438 0 0 1 29-17 42.498 42.498 0 0 1 13 0l4 4a154.79 154.79 0 0 0 13 6 1081.768 1081.768 0 0 0 33 20l4 1c8.98 5.636 17.98 11.302 27 17 7.27 1.913 13.604 5.58 19 11a201.59 201.59 0 0 0 22 11c5.054 5.058 11.054 8.392 18 10 3.588 3.93 7.921 6.597 13 8 4.771 3.708 9.771 6.875 15 9.5a433.042 433.042 0 0 1-38 0 112.97 112.97 0 0 0 15-.5 73.75 73.75 0 0 0-16-8.5c-3.315-8.501-9.648-12.168-19-11l-2-1a154.41 154.41 0 0 0-18-10 122.028 122.028 0 0 0-18-11 301.074 301.074 0 0 0-26-14 399.74 399.74 0 0 0-46-26.5l-4.5-4.5c-2.09.652-4.257.819-6.5.5a368.678 368.678 0 0 1-44 26 208.311 208.311 0 0 0-5 4.5c-6.885 2.358-13.219 5.858-19 10.5a50.656 50.656 0 0 1-8 3.5 31.447 31.447 0 0 0-5 4.5c-5.633 1.522-10.633 4.022-15 7.5a270.453 270.453 0 0 1-17.5 11 60.931 60.931 0 0 0-.5 11v125c5.301 1.324 9.968 3.824 14 7.5a114.09 114.09 0 0 0 12 5.5c1.236 2.328 3.236 3.494 6 3.5 2.674 3.012 6.007 4.678 10 5a82.15 82.15 0 0 0 22 13c4.419 2.242 7.086 5.742 8 10.5.167 22.336 0 44.669-.5 67a84.823 84.823 0 0 1-3.5 11c-3.333 1.333-6.667 1.333-10 0a1305.52 1305.52 0 0 0-50-28c-.453-.958-1.119-1.792-2-2.5a340.465 340.465 0 0 1-40-23c-5.487-1.208-10.154-3.875-14-8a175.007 175.007 0 0 0-16-7.5c.086-.996-.248-1.829-1-2.5l-9.5-5.5a200.627 200.627 0 0 1-1.5-33v-171a146.899 146.899 0 0 1 1-23c-.322-2.222.345-4.056 2-5.5 3.29-.253 6.29-1.253 9-3a133.395 133.395 0 0 1 32-18l6-5c5.57-1.465 10.57-3.966 15-7.5a450.175 450.175 0 0 1 33-19 578.164 578.164 0 0 1 47-28 1454.35 1454.35 0 0 0 41-22.5c4.872-.246 9.705-.746 14.5-1.5a543.218 543.218 0 0 1 42.5 24Z"/><path style="opacity:1" fill="#fcfcfc" d="M512.5 194.5v3h-52c.31-3.213-.023-6.213-1-9-1.448-4.615-4.448-7.782-9-9.5a132.434 132.434 0 0 0-23 0c-6.874 4.256-9.54 10.422-8 18.5h-14c-5.229-2.625-10.229-5.792-15-9.5-5.079-1.403-9.412-4.07-13-8-6.946-1.608-12.946-4.942-18-10a201.59 201.59 0 0 1-22-11c-5.396-5.42-11.73-9.087-19-11a10892.14 10892.14 0 0 0-27-17l-4-1a1081.768 1081.768 0 0 1-33-20 154.79 154.79 0 0 1-13-6l-4-4a42.498 42.498 0 0 0-13 0 226.438 226.438 0 0 0-29 17c-3.415.406-6.082 2.072-8 5a90.42 90.42 0 0 1-14 6c-3.574 3.951-7.907 6.618-13 8-6.962 5.648-14.628 9.981-23 13a146.497 146.497 0 0 1-31 18 6.978 6.978 0 0 0-2.5 3.5 5697.651 5697.651 0 0 0 0 151 56.965 56.965 0 0 1 10.5 7.5 78.488 78.488 0 0 1 23 13 55.63 55.63 0 0 1 18 10 340.197 340.197 0 0 1 18 8.5c.167 21.669 0 43.336-.5 65a7214.146 7214.146 0 0 1-125-72c-.667-72-.667-144 0-216A361.546 361.546 0 0 0 80.5 119c4.87-1.741 9.204-4.408 13-8l9-3a520.666 520.666 0 0 1 59-34l4-4 10-4c2.508-3.042 5.508-5.376 9-7a190.467 190.467 0 0 1 22-11A112.066 112.066 0 0 1 230 34.5a15.28 15.28 0 0 0 4.5 1.5l20 10a1516.16 1516.16 0 0 0 91 52 108.394 108.394 0 0 0 19 13 546.6 546.6 0 0 1 35 18l6 5c4.935 1.209 8.935 3.875 12 8 6.575 1.232 12.242 4.232 17 9a327.567 327.567 0 0 1 42 24l4 1c3.813 4.238 8.479 6.904 14 8 3.492 1.624 6.492 3.958 9 7 3.1.939 6.1 2.105 9 3.5Z"/><path style="opacity:1" fill="#fcfdfd" d="M601.5 437.5a196.898 196.898 0 0 0-17-20c.878-3.803 1.211-7.469 1-11a26.724 26.724 0 0 0-7-1.5c4.851-.174 9.518-.674 14-1.5v-13h-8a43.836 43.836 0 0 0-1-2c.346-1.196.846-1.196 1.5 0 .198-1.882.698-3.548 1.5-5 4.039-1.858 7.705-4.358 11-7.5 4.677-2.006 9.343-4.006 14-6 5.057-5.063 11.057-8.396 18-10 4.952-4.639 10.619-7.973 17-10 9.313-5.969 18.646-11.969 28-18 7.116-1.808 13.282-5.308 18.5-10.5a1422.198 1422.198 0 0 0 1.5-75c.158-25.085-.342-50.085-1.5-75a36.078 36.078 0 0 0-3.5-4.5 197.694 197.694 0 0 0-17-8 193.115 193.115 0 0 0-32-19 182.852 182.852 0 0 0-35-20l-5-5a113.107 113.107 0 0 1-28-15c-5.281-.974-10.281-.307-15 2a705.673 705.673 0 0 0-21 12c-4.302.286-7.635 2.286-10 6a43.593 43.593 0 0 0-13 8 684.54 684.54 0 0 0-19 8.5 50.162 50.162 0 0 1-14-8.5 114.065 114.065 0 0 1-14-6 7185.005 7185.005 0 0 0-26-16 2551.356 2551.356 0 0 1 60-36l10-4 4-4c3.463-.788 6.463-2.454 9-5 5.048-1.356 9.381-4.023 13-8 8.64-3.004 16.64-7.337 24-13 8.278-1.768 15.278.565 21 7a90.401 90.401 0 0 1 14 6c1.918 2.928 4.585 4.594 8 5l24 15a457.332 457.332 0 0 0 22 11c3.492 1.624 6.492 3.958 9 7a457.332 457.332 0 0 1 22 11 91.311 91.311 0 0 0 23 13c1.918 2.928 4.585 4.594 8 5a2129.254 2129.254 0 0 0 37.5 21.5 7901.316 7901.316 0 0 1 1.5 216 84.545 84.545 0 0 0-18 8.5 3872.061 3872.061 0 0 1-131 75.5Z"/><path style="opacity:1" fill="#b2e050" d="M665.5 46.5c1.473-.572 3.14-.572 5 0v3h6v3h5v3a175.707 175.707 0 0 1 14 6c-18.078-.17-35.578-.504-52.5-1-.717.544-1.217 1.21-1.5 2l-26-15a2.429 2.429 0 0 1 .5-2h44c1.394 1.902 3.227 2.235 5.5 1Z"/><path style="opacity:1" fill="#b1e153" d="M131.5 46.5c1.612-.952 3.112-1.286 4.5-1 1.333 2.667 2.667 2.667 4 0h40c.717.544 1.217 1.21 1.5 2a578.164 578.164 0 0 0-47 28c.087-3.098-.413-3.432-1.5-1-.667-2.667-1.333-2.667-2 0-.974-2.378-1.641-2.044-2 1-.359-3.044-1.026-3.378-2-1-.667-2.667-1.333-2.667-2 0-.974-2.378-1.641-2.044-2 1-.359-3.044-1.026-3.378-2-1-.667-2.667-1.333-2.667-2 0-.974-2.378-1.641-2.044-2 1-.359-3.044-1.026-3.378-2-1-.667-2.667-1.333-2.667-2 0-.974-2.378-1.641-2.044-2 1-.359-3.044-1.026-3.378-2-1-.667-2.667-1.333-2.667-2 0-.974-2.378-1.641-2.044-2 1-.359-3.044-1.026-3.378-2-1-.667-2.667-1.333-2.667-2 0-.974-2.378-1.641-2.044-2 1-.359-3.044-1.025-3.378-2-1-.667-2.667-1.333-2.667-2 0-.975-2.378-1.641-2.044-2 1-.359-3.044-1.025-3.378-2-1-.667-2.667-1.333-2.667-2 0-2.288-.237-4.788-.237-7.5 0 1.052-1.756 2.719-2.423 5-2v-3c1.7.16 3.366-.007 5-.5 1.478-2.057 3.478-3.39 6-4l-2-1a18.436 18.436 0 0 1 6-.5v-3a87.51 87.51 0 0 0 14-5v-3h6v-3h5v-3c1.86-.572 3.527-.572 5 0Z"/><path style="opacity:1" fill="#afe359" d="M297.5 46.5h6v3h5v3h6v3a87.51 87.51 0 0 0 14 5v3c1.699-.16 3.366.007 5 .5l-1 1c1.525 1.009 3.192 1.509 5 1.5v3h6v3h5v3c2.985-1.065 5.485-.065 7.5 3l1-1c.483.948.649 1.948.5 3h5v3h6v3c2.133 1.386 5.133 2.386 9 3v3c1.915-.284 3.581.049 5 1-7.519-.325-14.852.008-22 1a423.553 423.553 0 0 0-21-13.5 24.564 24.564 0 0 0-8-3 2649.85 2649.85 0 0 1-52-30.5 2.429 2.429 0 0 1 .5-2 280.18 280.18 0 0 1 17.5 1Z"/><path style="opacity:1" fill="#b0e459" d="M695.5 61.5c1.655 1.43 3.655 2.264 6 2.5l-2 1c2.522.61 4.522 1.943 6 4 1.634.493 3.301.66 5 .5v3c2.908-.238 5.242.762 7 3 .951-.826 1.951-.992 3-.5l-1 1a6.977 6.977 0 0 1 3.5 2.5l1-1c.483.948.649 1.948.5 3h6v3c2.281-.423 3.948.244 5 2-5.431-.902-10.598-.568-15.5 1a6.544 6.544 0 0 1-3-3c-.974 2.378-1.641 2.044-2-1a6.802 6.802 0 0 1-1.5 3c-.97-4.116-2.47-3.783-4.5 1-.359-3.044-1.026-3.378-2-1l-1-2a6.544 6.544 0 0 1-3 3c-4.885-.437-9.885-.437-15 0l-4-2c-.717.544-1.217 1.21-1.5 2a419.463 419.463 0 0 1-41-24c.283-.79.783-1.456 1.5-2 16.922.496 34.422.83 52.5 1Z"/><path style="opacity:1" fill="#afe359" d="M517.5 47.5a1938.717 1938.717 0 0 0-25 15.5 501.784 501.784 0 0 0-35 18 174.339 174.339 0 0 1-21 13.5c-6.145-.99-12.478-1.323-19-1a185.854 185.854 0 0 1 16-9.5c.837-1.011 1.17-2.178 1-3.5 4.493-.216 7.993-2.216 10.5-6 1.011.837 2.178 1.17 3.5 1v-3a59.031 59.031 0 0 0 11-3v-3c1.808.009 3.475-.491 5-1.5l-1-1a12.935 12.935 0 0 1 5-.5v-3a9.864 9.864 0 0 0 6-1 35.213 35.213 0 0 1 8-4v-3h6v-3a59.031 59.031 0 0 1 11-3 434.719 434.719 0 0 1 16.5-1c.717.544 1.217 1.21 1.5 2Z"/><path style="opacity:1" fill="#afe75e" d="M134.5 75.5a450.175 450.175 0 0 0-33 19 729.596 729.596 0 0 0-54-1c3.105-1.516 5.938-3.516 8.5-6l1 1c1.049-1.607 2.549-2.273 4.5-2v-3a59.029 59.029 0 0 1 11-3 4.932 4.932 0 0 1 .5-3l1 1a16.667 16.667 0 0 0 4-4c1.292 1.291 2.458 1.291 3.5 0 2.712-.237 5.212-.237 7.5 0 .667-2.667 1.333-2.667 2 0 .975-2.378 1.641-2.044 2 1 .359-3.044 1.025-3.378 2-1 .667-2.667 1.333-2.667 2 0 .975-2.378 1.641-2.044 2 1 .359-3.044 1.026-3.378 2-1 .667-2.667 1.333-2.667 2 0 .974-2.378 1.641-2.044 2 1 .359-3.044 1.026-3.378 2-1 .667-2.667 1.333-2.667 2 0 .974-2.378 1.641-2.044 2 1 .359-3.044 1.026-3.378 2-1 .667-2.667 1.333-2.667 2 0 .974-2.378 1.641-2.044 2 1 .359-3.044 1.026-3.378 2-1 .667-2.667 1.333-2.667 2 0 .974-2.378 1.641-2.044 2 1 .359-3.044 1.026-3.378 2-1 .667-2.667 1.333-2.667 2 0 .974-2.378 1.641-2.044 2 1 .359-3.044 1.026-3.378 2-1 .667-2.667 1.333-2.667 2 0 1.087-2.432 1.587-2.098 1.5 1Z"/><path style="opacity:1" fill="#aceb66" d="M735.5 85.5a817.585 817.585 0 0 0 29 15v3h6v3h5v3c2.041.354 3.874.354 5.5 0 .483.948.649 1.948.5 3 2.836 1.276 5.836 1.942 9 2 .027 1.699.694 3.033 2 4a1617.009 1617.009 0 0 1-50.5-1c-.717.544-1.217 1.211-1.5 2-19.337-11.006-38.67-22.006-58-33 .283-.79.783-1.456 1.5-2l4 2c5.115-.437 10.115-.437 15 0a6.544 6.544 0 0 0 3-3l1 2c.974-2.378 1.641-2.044 2 1 2.03-4.783 3.53-5.116 4.5-1a6.802 6.802 0 0 0 1.5-3c.359 3.044 1.026 3.378 2 1a6.544 6.544 0 0 0 3 3c4.902-1.568 10.069-1.902 15.5-1Z"/><path style="opacity:1" fill="#aaed6b" d="M47.5 93.5c18.174-.33 36.174.003 54 1-4.43 3.534-9.43 6.035-15 7.5l-6 5a133.395 133.395 0 0 0-32 18c-2.71 1.747-5.71 2.747-9 3-1.655 1.444-2.322 3.278-2 5.5a249.277 249.277 0 0 0-31-1c.131-5.984.131-11.818 0-17.5a169.104 169.104 0 0 0 15-5.5v-3a58.967 58.967 0 0 0 11-3v-3a376.057 376.057 0 0 0 15-7Z"/><path style="opacity:1" fill="#aaeb69" d="M360.5 94.5c7.148-.992 14.481-1.325 22-1 .87 2.099 2.203 2.432 4 1 .35 2.067 2.017 3.067 5 3v3h6v3a139.918 139.918 0 0 0 20-10c6.522-.323 12.855.01 19 1-5.137 1.97-8.804 5.47-11 10.5.701 2.38 1.867 4.547 3.5 6.5 3.582 1.415 6.416 3.748 8.5 7-10.345.337-20.512.004-30.5-1-.717.544-1.217 1.211-1.5 2a2397.548 2397.548 0 0 1-33-19.5 97.617 97.617 0 0 1-12-5.5Z"/><path style="opacity:1" fill="#a6ef74" d="M437.5 118.5a8.43 8.43 0 0 1 4 .5c8.285 6.635 17.285 11.968 27 16a75.701 75.701 0 0 0 9 6.5c-3.246-.27-6.246-.603-9-1-1.383 2.576-2.217 2.242-2.5-1l-1 3-3-3a7.293 7.293 0 0 1-2 3h-4c-1.512-2.457-2.846-2.457-4 0-.667-4-1.333-4-2 0-.667-2.667-1.333-2.667-2 0-.667-2.667-1.333-2.667-2 0-.604-3.833-1.437-3.833-2.5 0a237.17 237.17 0 0 0-36-20.5c-.881-.708-1.547-1.542-2-2.5.283-.789.783-1.456 1.5-2 9.988 1.004 20.155 1.337 30.5 1Z"/><path style="opacity:1" fill="#a8f174" d="M792.5 118.5v23c-.996-.086-1.829.248-2.5 1-1.512-2.457-2.846-2.457-4 0-.691-2.391-1.691-2.391-3 0a7.293 7.293 0 0 1-2-3c-1.333 4-2.667 4-4 0l-1 3-3-3c-1.333 4-2.667 4-4 0l-1 3-3-3c-.417 1.256-1.25 1.923-2.5 2 .295-2.235-.039-4.235-1-6-.626-2.815-1.96-5.315-4-7.5-3.29-.253-6.29-1.253-9-3a56.925 56.925 0 0 0-8-5.5c.283-.789.783-1.456 1.5-2 16.455.589 33.288.922 50.5 1Z"/><path style="opacity:1" fill="#a6f277" d="M283.5 141.5c-5.167.601-9.667.934-13.5 1-1.667-2.667-3.333-2.667-5 0a392.598 392.598 0 0 0-56 0c-1.791-2.013-3.125-2.013-4 0-.667-4-1.333-4-2 0-.667-2.667-1.333-2.667-2 0-.953-2.092-2.286-2.425-4-1-.974-2.378-1.641-2.044-2 1-.691-2.391-1.691-2.391-3 0h-8l-2-2c-1.356.88-2.856 1.214-4.5 1a208.311 208.311 0 0 1 5-4.5 368.678 368.678 0 0 0 44-26c2.243.319 4.41.152 6.5-.5l4.5 4.5a399.74 399.74 0 0 1 46 26.5Z"/><path style="opacity:1" fill="#a6f176" d="M619.5 141.5c-2.948.277-5.781-.056-8.5-1-.626 2.491-1.459 2.491-2.5 0-.925 1.141-1.759 1.141-2.5 0-.667 2.667-1.333 2.667-2 0-.974 2.378-1.641 2.044-2-1-.359 3.044-1.026 3.378-2 1-.667 2.667-1.333 2.667-2 0-.974 2.378-1.641 2.044-2-1-.283 3.242-1.117 3.576-2.5 1-17 1.333-34 1.333-51 0a4.457 4.457 0 0 0-1.5 2 4.457 4.457 0 0 0-1.5-2c-1.39 1.703-2.89 2.37-4.5 2a7.293 7.293 0 0 1-2-3c-.667 4-1.333 4-2 0-.359 3.044-1.026 3.378-2 1l-2 2c-2-1.333-4-1.333-6 0l-2-2c-2.041.923-4.208 1.256-6.5 1a6436.842 6436.842 0 0 0 55-31 1654.159 1654.159 0 0 0 52 31Z"/><path style="opacity:1" fill="#a4f67e" d="M6.5 132.5a249.277 249.277 0 0 1 31 1 146.899 146.899 0 0 0-1 23h-30v-24Z"/><path style="opacity:1" fill="#a3f680" d="M283.5 141.5a301.074 301.074 0 0 1 26 14c-1.823.727-3.657 1.061-5.5 1l-1-2-2 4-1-3a192.458 192.458 0 0 0-4 3 192.458 192.458 0 0 0-4-3 192.458 192.458 0 0 0-4 3 192.458 192.458 0 0 0-4-3 192.458 192.458 0 0 0-4 3 192.458 192.458 0 0 0-4-3l-3 3-3-3-3 3a4.457 4.457 0 0 0-1.5-2c-.925 1.141-1.759 1.141-2.5 0l-1 2c-.419-4.352-1.086-4.685-2-1-1.797-2.596-3.131-2.263-4 1-.419-4.352-1.086-4.685-2-1-1.797-2.596-3.131-2.263-4 1-.419-4.352-1.086-4.685-2-1-1.797-2.596-3.131-2.263-4 1-.419-4.352-1.086-4.685-2-1-1.797-2.596-3.131-2.263-4 1-.419-4.352-1.086-4.685-2-1-1.797-2.596-3.131-2.263-4 1-.419-4.352-1.086-4.685-2-1-1.797-2.596-3.131-2.263-4 1-.419-4.352-1.086-4.685-2-1-1.797-2.596-3.131-2.263-4 1-.419-4.352-1.086-4.685-2-1-1.797-2.596-3.131-2.263-4 1-.419-4.352-1.086-4.685-2-1-1.797-2.596-3.131-2.263-4 1-.419-4.352-1.086-4.685-2-1-1.797-2.596-3.131-2.263-4 1-.419-4.352-1.086-4.685-2-1-1.797-2.596-3.131-2.263-4 1-.419-4.352-1.086-4.685-2-1-1.797-2.596-3.131-2.263-4 1-.419-4.352-1.086-4.685-2-1-1.797-2.596-3.131-2.263-4 1-.419-4.352-1.086-4.685-2-1-1.482-2.281-3.149-2.281-5 0-.667-2.667-1.333-2.667-2 0a35.193 35.193 0 0 0-4.5-1c-1.383 2.576-2.217 2.242-2.5-1a192.458 192.458 0 0 0-4 3c-1.612-.452-2.612-1.785-3-4l-1 3c-1.667-1.333-3.333-1.333-5 0a36.354 36.354 0 0 1-4.5-2 50.656 50.656 0 0 0 8-3.5c5.781-4.642 12.115-8.142 19-10.5 1.644.214 3.144-.12 4.5-1l2 2h8c1.309-2.391 2.309-2.391 3 0 .359-3.044 1.026-3.378 2-1 1.714-1.425 3.047-1.092 4 1 .667-2.667 1.333-2.667 2 0 .667-4 1.333-4 2 0 .875-2.013 2.209-2.013 4 0a392.598 392.598 0 0 1 56 0c1.667-2.667 3.333-2.667 5 0 3.833-.066 8.333-.399 13.5-1Z"/><path style="opacity:1" fill="#a3f57f" d="M477.5 141.5a149.58 149.58 0 0 1 11 5.5c4.333.667 8.667.667 13 0a147.43 147.43 0 0 1 11-5.5c2.292.256 4.459-.077 6.5-1l2 2c2-1.333 4-1.333 6 0l2-2c.974 2.378 1.641 2.044 2-1 .667 4 1.333 4 2 0a7.293 7.293 0 0 0 2 3c1.61.37 3.11-.297 4.5-2a4.457 4.457 0 0 1 1.5 2 4.457 4.457 0 0 1 1.5-2c17 1.333 34 1.333 51 0 1.383 2.576 2.217 2.242 2.5-1 .359 3.044 1.026 3.378 2 1 .667 2.667 1.333 2.667 2 0 .974 2.378 1.641 2.044 2-1 .359 3.044 1.026 3.378 2 1 .667 2.667 1.333 2.667 2 0 .741 1.141 1.575 1.141 2.5 0 1.041 2.491 1.874 2.491 2.5 0 2.719.944 5.552 1.277 8.5 1a305.372 305.372 0 0 0 26 14c-1.479.648-2.979.981-4.5 1l-1-2-2 4-1-3a192.458 192.458 0 0 0-4 3 192.458 192.458 0 0 0-4-3 192.458 192.458 0 0 0-4 3 192.458 192.458 0 0 0-4-3 192.458 192.458 0 0 0-4 3 192.458 192.458 0 0 0-4-3l-1 3-2-4-3 4c-1.612-.452-2.612-1.785-3-4-.388 2.215-1.388 3.548-3 4a192.458 192.458 0 0 0-4-3c-.691 2.391-1.691 2.391-3 0-1.016 1.134-1.683.801-2-1-.84 2.964-1.84 3.297-3 1-.667 4-1.333 4-2 0l-1 3c-1.03-2.757-2.697-4.091-5-4a16.661 16.661 0 0 0-4 4 192.458 192.458 0 0 0-4-3c-.667 4-1.333 4-2 0l-1 3c-1.03-2.757-2.697-4.091-5-4a16.661 16.661 0 0 0-4 4 192.458 192.458 0 0 0-4-3c-.667 2.667-1.333 2.667-2 0-.875 2.013-2.209 2.013-4 0-1.779 2.776-2.779 2.443-3-1l-1 4c-.869-3.263-2.203-3.596-4-1-.914-3.685-1.581-3.352-2 1l-1-2c-.741 1.141-1.575 1.141-2.5 0a4.457 4.457 0 0 0-1.5 2c-1.612-.452-2.612-1.785-3-4-.388 2.215-1.388 3.548-3 4l-3-3c-.667 2.667-1.333 2.667-2 0-.667 2.667-1.333 2.667-2 0l-3 3-3-3-1 2a35.193 35.193 0 0 0-4.5-1c-1.383 2.576-2.217 2.242-2.5-1a192.458 192.458 0 0 0-4 3 192.458 192.458 0 0 0-4-3l-1 2a35.193 35.193 0 0 0-4.5-1c-1.383 2.576-2.217 2.242-2.5-1a192.458 192.458 0 0 0-4 3 192.458 192.458 0 0 0-4-3l-1 2a35.193 35.193 0 0 0-4.5-1c-1.383 2.576-2.217 2.242-2.5-1l-1 2a19.871 19.871 0 0 1-5.5-1 8.43 8.43 0 0 1-4-.5c-7.171-5.518-14.838-10.018-23-13.5 1.063-3.833 1.896-3.833 2.5 0 .667-2.667 1.333-2.667 2 0 .667-2.667 1.333-2.667 2 0 .667-4 1.333-4 2 0 1.154-2.457 2.488-2.457 4 0h4a7.293 7.293 0 0 0 2-3l3 3 1-3c.283 3.242 1.117 3.576 2.5 1 2.754.397 5.754.73 9 1Z"/><path style="opacity:1" fill="#a3f680" d="M792.5 141.5v15h-30v-15c1.25-.077 2.083-.744 2.5-2l3 3 1-3c1.333 4 2.667 4 4 0l3 3 1-3c1.333 4 2.667 4 4 0a7.293 7.293 0 0 0 2 3c1.309-2.391 2.309-2.391 3 0 1.154-2.457 2.488-2.457 4 0 .671-.752 1.504-1.086 2.5-1Z"/><path style="opacity:1" fill="#9ff886" d="M309.5 155.5a122.028 122.028 0 0 1 18 11c-.996-.086-1.829.248-2.5 1-.667-2.667-1.333-2.667-2 0-.667-2.667-1.333-2.667-2 0-.667-2.667-1.333-2.667-2 0a7.293 7.293 0 0 1-2-3c-.84 2.964-1.84 3.297-3 1l-3 3-3-3c-1.137.864-2.47 1.864-4 3a7.293 7.293 0 0 1-2-3c-.974 2.378-1.641 2.044-2-1l-1 3c-1.147-.958-2.147-.625-3 1-1.044-1.123-1.71-2.456-2-4-.367 3.781-1.7 4.448-4 2l-1 1c-.667-4-1.333-4-2 0-1.147-.958-2.147-.625-3 1-1.044-1.123-1.71-2.456-2-4-.367 3.781-1.7 4.448-4 2l-1 1-1-3c-.388 2.215-1.388 3.548-3 4-1.612-.452-2.612-1.785-3-4-.388 2.215-1.388 3.548-3 4-1.612-.452-2.612-1.785-3-4-.388 2.215-1.388 3.548-3 4-1.612-.452-2.612-1.785-3-4-.388 2.215-1.388 3.548-3 4-1.612-.452-2.612-1.785-3-4-.388 2.215-1.388 3.548-3 4-1.612-.452-2.612-1.785-3-4-.563 2.642-2.063 3.309-4.5 2a4.457 4.457 0 0 0-1.5 2c-1.612-.452-2.612-1.785-3-4-.563 2.642-2.063 3.309-4.5 2a4.457 4.457 0 0 0-1.5 2c-1.612-.452-2.612-1.785-3-4-.563 2.642-2.063 3.309-4.5 2a4.457 4.457 0 0 0-1.5 2c-1.612-.452-2.612-1.785-3-4-.388 2.215-1.388 3.548-3 4-1.612-.452-2.612-1.785-3-4-.388 2.215-1.388 3.548-3 4-1.612-.452-2.612-1.785-3-4-.388 2.215-1.388 3.548-3 4-1.612-.452-2.612-1.785-3-4-.388 2.215-1.388 3.548-3 4-1.612-.452-2.612-1.785-3-4-.388 2.215-1.388 3.548-3 4-1.612-.452-2.612-1.785-3-4l-1 3c-1.016-1.134-1.683-.801-2 1l-3-3-1 3-3-4-1 3c-1.525-.388-3.192-.388-5 0l-1-2-3 3-3-3c-1.137.864-2.47 1.864-4 3-1.309-2.391-2.309-2.391-3 0l-1-2c-.741 1.141-1.575 1.141-2.5 0-1.041 2.491-1.874 2.491-2.5 0-1.333 2.667-2.667 2.667-4 0-1.333 2.667-2.667 2.667-4 0h-4c-1.333 2.667-2.667 2.667-4 0-1.822.468-3.989.801-6.5 1 4.367-3.478 9.367-5.978 15-7.5a31.447 31.447 0 0 1 5-4.5 36.354 36.354 0 0 0 4.5 2c1.667-1.333 3.333-1.333 5 0l1-3c.388 2.215 1.388 3.548 3 4a192.458 192.458 0 0 1 4-3c.283 3.242 1.117 3.576 2.5 1 1.467.223 2.967.556 4.5 1 .667-2.667 1.333-2.667 2 0 1.851-2.281 3.518-2.281 5 0 .914-3.685 1.581-3.352 2 1 .869-3.263 2.203-3.596 4-1 .914-3.685 1.581-3.352 2 1 .869-3.263 2.203-3.596 4-1 .914-3.685 1.581-3.352 2 1 .869-3.263 2.203-3.596 4-1 .914-3.685 1.581-3.352 2 1 .869-3.263 2.203-3.596 4-1 .914-3.685 1.581-3.352 2 1 .869-3.263 2.203-3.596 4-1 .914-3.685 1.581-3.352 2 1 .869-3.263 2.203-3.596 4-1 .914-3.685 1.581-3.352 2 1 .869-3.263 2.203-3.596 4-1 .914-3.685 1.581-3.352 2 1 .869-3.263 2.203-3.596 4-1 .914-3.685 1.581-3.352 2 1 .869-3.263 2.203-3.596 4-1 .914-3.685 1.581-3.352 2 1 .869-3.263 2.203-3.596 4-1 .914-3.685 1.581-3.352 2 1 .869-3.263 2.203-3.596 4-1 .914-3.685 1.581-3.352 2 1 .869-3.263 2.203-3.596 4-1 .914-3.685 1.581-3.352 2 1 .869-3.263 2.203-3.596 4-1 .914-3.685 1.581-3.352 2 1l1-2c.741 1.141 1.575 1.141 2.5 0a4.457 4.457 0 0 1 1.5 2l3-3 3 3 3-3c1.217.886 2.551 1.886 4 3a192.458 192.458 0 0 1 4-3c1.217.886 2.551 1.886 4 3a192.458 192.458 0 0 1 4-3c1.217.886 2.551 1.886 4 3a192.458 192.458 0 0 1 4-3l1 3 2-4 1 2c1.843.061 3.677-.273 5.5-1ZM645.5 155.5c6.07 3.775 12.07 7.442 18 11-.996-.086-1.829.248-2.5 1-.667-2.667-1.333-2.667-2 0-.667-2.667-1.333-2.667-2 0-.667-2.667-1.333-2.667-2 0-.667-4-1.333-4-2 0-1.147-.958-2.147-.625-3 1-1.044-1.123-1.71-2.456-2-4-.367 3.781-1.7 4.448-4 2l-1 1c-.667-4-1.333-4-2 0-1.016-1.134-1.683-.801-2 1-.691-2.391-1.691-2.391-3 0-.853-1.625-1.853-1.958-3-1-.667-4-1.333-4-2 0-1.147-.958-2.147-.625-3 1-1.044-1.123-1.71-2.456-2-4-.367 3.781-1.7 4.448-4 2l-1 1-1-3c-.388 2.215-1.388 3.548-3 4-1.612-.452-2.612-1.785-3-4l-1 3c-1.525-.388-3.192-.388-5 0l-1-2-3 3-3-3-3 3-3-3-3 3-3-3-1 2c-.667-1.333-1.333-1.333-2 0l-1-2-3 3-3-3-3 3-3-3-3 3-3-3c-1.137.864-2.47 1.864-4 3a7.293 7.293 0 0 1-2-3c-1.16 2.297-2.16 1.964-3-1-.84 2.964-1.84 3.297-3 1l-3 3-3-3c-1.137.864-2.47 1.864-4 3a7.293 7.293 0 0 1-2-3c-.869 3.263-2.203 3.596-4 1l-1 2c-1.612-.452-2.612-1.785-3-4-.388 2.215-1.388 3.548-3 4-1.612-.452-2.612-1.785-3-4-.388 2.215-1.388 3.548-3 4-1.612-.452-2.612-1.785-3-4-.388 2.215-1.388 3.548-3 4-1.612-.452-2.612-1.785-3-4-.388 2.215-1.388 3.548-3 4-1.612-.452-2.612-1.785-3-4-.388 2.215-1.388 3.548-3 4-1.612-.452-2.612-1.785-3-4-.388 2.215-1.388 3.548-3 4-1.612-.452-2.612-1.785-3-4-.388 2.215-1.388 3.548-3 4-1.612-.452-2.612-1.785-3-4-.438 2.142-1.272 3.475-2.5 4a271.634 271.634 0 0 1-18-9.5c-.881-.708-1.547-1.542-2-2.5 1.838.602 3.671.935 5.5 1l1-2c.283 3.242 1.117 3.576 2.5 1 1.467.223 2.967.556 4.5 1l1-2c1.217.886 2.551 1.886 4 3a192.458 192.458 0 0 1 4-3c.283 3.242 1.117 3.576 2.5 1 1.467.223 2.967.556 4.5 1l1-2c1.217.886 2.551 1.886 4 3a192.458 192.458 0 0 1 4-3c.283 3.242 1.117 3.576 2.5 1 1.467.223 2.967.556 4.5 1l1-2 3 3 3-3c.667 2.667 1.333 2.667 2 0 .667 2.667 1.333 2.667 2 0l3 3c1.612-.452 2.612-1.785 3-4 .388 2.215 1.388 3.548 3 4a4.457 4.457 0 0 1 1.5-2c.925 1.141 1.759 1.141 2.5 0l1 2c.419-4.352 1.086-4.685 2-1 1.797-2.596 3.131-2.263 4 1l1-4c.221 3.443 1.221 3.776 3 1 1.791 2.013 3.125 2.013 4 0 .667 2.667 1.333 2.667 2 0 1.217.886 2.551 1.886 4 3a16.661 16.661 0 0 1 4-4c2.303-.091 3.97 1.243 5 4l1-3c.667 4 1.333 4 2 0 1.217.886 2.551 1.886 4 3a16.661 16.661 0 0 1 4-4c2.303-.091 3.97 1.243 5 4l1-3c.667 4 1.333 4 2 0 1.16 2.297 2.16 1.964 3-1 .317 1.801.984 2.134 2 1 1.309 2.391 2.309 2.391 3 0 1.217.886 2.551 1.886 4 3 1.612-.452 2.612-1.785 3-4 .388 2.215 1.388 3.548 3 4l3-4 2 4 1-3c1.217.886 2.551 1.886 4 3a192.458 192.458 0 0 1 4-3c1.217.886 2.551 1.886 4 3a192.458 192.458 0 0 1 4-3c1.217.886 2.551 1.886 4 3a192.458 192.458 0 0 1 4-3l1 3 2-4 1 2c1.521-.019 3.021-.352 4.5-1Z"/><path style="opacity:1" fill="#9af98e" d="M327.5 166.5a154.41 154.41 0 0 1 18 10l-8 2c-4.356.669-7.356 3.002-9 7a74.233 74.233 0 0 1-21-10.5 25.238 25.238 0 0 0-10 0l-2.5 2.5c-1.049-1.017-2.216-1.184-3.5-.5-5.607 4.299-11.607 7.799-18 10.5-3.903-8.198-10.403-11.198-19.5-9l-11.5.5c-4.248 1.413-6.915 4.246-8 8.5-.934 1.068-1.268 2.401-1 4a12.93 12.93 0 0 1-5-.5c1.154-.914.987-1.747-.5-2.5-1.487.753-1.654 1.586-.5 2.5-1.244.456-2.077-.044-2.5-1.5a192.458 192.458 0 0 1-4 3l-1-2c-2.511 2.372-4.844 2.038-7-1a4.457 4.457 0 0 1-1.5 2c.204-1.029-.296-2.029-1.5-3-.667 1.333-1.333 1.333-2 0-1.204.971-1.704 1.971-1.5 3a4.457 4.457 0 0 1-1.5-2c-.423 1.456-1.256 1.956-2.5 1.5 1.154-.914.987-1.747-.5-2.5-.667 1.333-1.333 1.333-2 0-1.204.971-1.704 1.971-1.5 3a4.457 4.457 0 0 1-1.5-2c-.423 1.456-1.256 1.956-2.5 1.5 1.154-.914.987-1.747-.5-2.5-.667 1.333-1.333 1.333-2 0-1.204.971-1.704 1.971-1.5 3a4.457 4.457 0 0 1-1.5-2c-.423 1.456-1.256 1.956-2.5 1.5 1.154-.914.987-1.747-.5-2.5-.667 1.333-1.333 1.333-2 0-1.204.971-1.704 1.971-1.5 3a4.457 4.457 0 0 1-1.5-2c-.423 1.456-1.256 1.956-2.5 1.5 1.154-.914.987-1.747-.5-2.5-1.204.971-1.704 1.971-1.5 3a4.457 4.457 0 0 1-1.5-2c-.423 1.456-1.256 1.956-2.5 1.5 1.154-.914.987-1.747-.5-2.5-.667 1.333-1.333 1.333-2 0-1.204.971-1.704 1.971-1.5 3a4.457 4.457 0 0 1-1.5-2c-.423 1.456-1.256 1.956-2.5 1.5 1.154-.914.987-1.747-.5-2.5-.667 1.333-1.333 1.333-2 0-1.204.971-1.704 1.971-1.5 3a4.457 4.457 0 0 1-1.5-2c-.423 1.456-1.256 1.956-2.5 1.5 1.154-.914.987-1.747-.5-2.5-.667 1.333-1.333 1.333-2 0-1.204.971-1.704 1.971-1.5 3a4.457 4.457 0 0 1-1.5-2c-.423 1.456-1.256 1.956-2.5 1.5 1.154-.914.987-1.747-.5-2.5-.667 1.333-1.333 1.333-2 0-1.204.971-1.704 1.971-1.5 3a4.457 4.457 0 0 1-1.5-2c-.423 1.456-1.256 1.956-2.5 1.5 1.154-.914.987-1.747-.5-2.5-.667 1.333-1.333 1.333-2 0-1.204.971-1.704 1.971-1.5 3a4.457 4.457 0 0 1-1.5-2 4.457 4.457 0 0 1-1.5 2c.204-1.029-.296-2.029-1.5-3-.667 1.333-1.333 1.333-2 0-1.487.753-1.654 1.586-.5 2.5-1.244.456-2.077-.044-2.5-1.5a192.458 192.458 0 0 1-4 3l-1-2c-1.101 1.894-2.434 2.561-4 2-1.324-1.38-2.657-1.714-4-1-.278-.916-.778-1.582-1.5-2a60.931 60.931 0 0 1 .5-11 270.453 270.453 0 0 0 17.5-11c2.511-.199 4.678-.532 6.5-1 1.333 2.667 2.667 2.667 4 0h4c1.333 2.667 2.667 2.667 4 0 1.333 2.667 2.667 2.667 4 0 .626 2.491 1.459 2.491 2.5 0 .925 1.141 1.759 1.141 2.5 0l1 2c.691-2.391 1.691-2.391 3 0a455.529 455.529 0 0 0 4-3l3 3 3-3 1 2c1.808-.388 3.475-.388 5 0l1-3 3 4 1-3 3 3c.317-1.801.984-2.134 2-1l1-3c.388 2.215 1.388 3.548 3 4 1.612-.452 2.612-1.785 3-4 .388 2.215 1.388 3.548 3 4 1.612-.452 2.612-1.785 3-4 .388 2.215 1.388 3.548 3 4 1.612-.452 2.612-1.785 3-4 .388 2.215 1.388 3.548 3 4 1.612-.452 2.612-1.785 3-4 .388 2.215 1.388 3.548 3 4 1.612-.452 2.612-1.785 3-4 .388 2.215 1.388 3.548 3 4a4.457 4.457 0 0 1 1.5-2c2.437 1.309 3.937.642 4.5-2 .388 2.215 1.388 3.548 3 4a4.457 4.457 0 0 1 1.5-2c2.437 1.309 3.937.642 4.5-2 .388 2.215 1.388 3.548 3 4a4.457 4.457 0 0 1 1.5-2c2.437 1.309 3.937.642 4.5-2 .388 2.215 1.388 3.548 3 4 1.612-.452 2.612-1.785 3-4 .388 2.215 1.388 3.548 3 4 1.612-.452 2.612-1.785 3-4 .388 2.215 1.388 3.548 3 4 1.612-.452 2.612-1.785 3-4 .388 2.215 1.388 3.548 3 4 1.612-.452 2.612-1.785 3-4 .388 2.215 1.388 3.548 3 4 1.612-.452 2.612-1.785 3-4l1 3 1-1c2.3 2.448 3.633 1.781 4-2 .29 1.544.956 2.877 2 4 .853-1.625 1.853-1.958 3-1 .667-4 1.333-4 2 0l1-1c2.3 2.448 3.633 1.781 4-2 .29 1.544.956 2.877 2 4 .853-1.625 1.853-1.958 3-1l1-3c.359 3.044 1.026 3.378 2 1a7.293 7.293 0 0 0 2 3 455.529 455.529 0 0 0 4-3l3 3 3-3c1.16 2.297 2.16 1.964 3-1a7.293 7.293 0 0 0 2 3c.667-2.667 1.333-2.667 2 0 .667-2.667 1.333-2.667 2 0 .667-2.667 1.333-2.667 2 0 .671-.752 1.504-1.086 2.5-1Z"/><path style="opacity:1" fill="#9bf88c" d="M663.5 166.5a106.437 106.437 0 0 1 18 9.5c.906 1.699 1.239 3.533 1 5.5-1.32-1.03-2.82-2.03-4.5-3a455.529 455.529 0 0 0-4 3 4.457 4.457 0 0 0-1.5-2c-.925 1.141-1.759 1.141-2.5 0-.626 2.491-1.459 2.491-2.5 0-.925 1.141-1.759 1.141-2.5 0-.667 2.667-1.333 2.667-2 0-1.333 2.667-2.667 2.667-4 0l-1 2c-1.676-.6-3.343-1.933-5-4-.667 2.667-1.333 2.667-2 0-2.406 3.309-4.406 3.309-6 0-.667 2.667-1.333 2.667-2 0l-3 4c-1.637-1.333-2.471-2.666-2.5-4-1.736 2.137-3.736 2.804-6 2a4.457 4.457 0 0 0-1.5 2 4.457 4.457 0 0 0-1.5-2 35.193 35.193 0 0 0-4.5 1 7.293 7.293 0 0 1-2-3l-2 4c-1.637-1.333-2.471-2.666-2.5-4a19.887 19.887 0 0 0-3.5 4c-.388-.928-1.055-1.595-2-2-1.235 1.115-2.402 1.115-3.5 0a4.457 4.457 0 0 0-1.5 2 4.457 4.457 0 0 0-1.5-2c-1 1.333-2 1.333-3 0a4.457 4.457 0 0 0-1.5 2 4.457 4.457 0 0 0-1.5-2c-1 1.333-2 1.333-3 0a4.457 4.457 0 0 0-1.5 2 4.457 4.457 0 0 0-1.5-2c-1 1.333-2 1.333-3 0a4.457 4.457 0 0 0-1.5 2 4.457 4.457 0 0 0-1.5-2c-1 1.333-2 1.333-3 0a4.457 4.457 0 0 0-1.5 2 4.457 4.457 0 0 0-1.5-2c-1 1.333-2 1.333-3 0a4.457 4.457 0 0 0-1.5 2 4.457 4.457 0 0 0-1.5-2c-1 1.333-2 1.333-3 0a4.457 4.457 0 0 0-1.5 2 4.457 4.457 0 0 0-1.5-2c-1 1.333-2 1.333-3 0a7.248 7.248 0 0 0-2.5 2c-1.566.561-2.899-.106-4-2-.626 2.491-1.459 2.491-2.5 0-.925 1.141-1.759 1.141-2.5 0l-1 2a192.458 192.458 0 0 0-4-3c-.708.881-1.542 1.547-2.5 2-8.5-2.039-17.167-2.539-26-1.5a26.523 26.523 0 0 0-6 3.5 137.881 137.881 0 0 1-25-14c1.228-.525 2.062-1.858 2.5-4 .388 2.215 1.388 3.548 3 4 1.612-.452 2.612-1.785 3-4 .388 2.215 1.388 3.548 3 4 1.612-.452 2.612-1.785 3-4 .388 2.215 1.388 3.548 3 4 1.612-.452 2.612-1.785 3-4 .388 2.215 1.388 3.548 3 4 1.612-.452 2.612-1.785 3-4 .388 2.215 1.388 3.548 3 4 1.612-.452 2.612-1.785 3-4 .388 2.215 1.388 3.548 3 4 1.612-.452 2.612-1.785 3-4 .388 2.215 1.388 3.548 3 4 1.612-.452 2.612-1.785 3-4 .388 2.215 1.388 3.548 3 4l1-2c1.797 2.596 3.131 2.263 4-1a7.293 7.293 0 0 0 2 3 455.529 455.529 0 0 0 4-3l3 3 3-3c1.16 2.297 2.16 1.964 3-1 .84 2.964 1.84 3.297 3 1a7.293 7.293 0 0 0 2 3 455.529 455.529 0 0 0 4-3l3 3 3-3 3 3 3-3 3 3 3-3 1 2c.667-1.333 1.333-1.333 2 0l1-2 3 3 3-3 3 3 3-3 3 3 3-3 1 2c1.808-.388 3.475-.388 5 0l1-3c.388 2.215 1.388 3.548 3 4 1.612-.452 2.612-1.785 3-4l1 3 1-1c2.3 2.448 3.633 1.781 4-2 .29 1.544.956 2.877 2 4 .853-1.625 1.853-1.958 3-1 .667-4 1.333-4 2 0 1.147-.958 2.147-.625 3 1 1.309-2.391 2.309-2.391 3 0 .317-1.801.984-2.134 2-1 .667-4 1.333-4 2 0l1-1c2.3 2.448 3.633 1.781 4-2 .29 1.544.956 2.877 2 4 .853-1.625 1.853-1.958 3-1 .667-4 1.333-4 2 0 .667-2.667 1.333-2.667 2 0 .667-2.667 1.333-2.667 2 0 .667-2.667 1.333-2.667 2 0 .671-.752 1.504-1.086 2.5-1Z"/><path style="opacity:1" fill="#9dfa8b" d="M6.5 156.5h30v23c-.996.086-1.83-.248-2.5-1-1.333 2.667-2.667 2.667-4 0-1.333 2.667-2.667 2.667-4 0-1.333 2.667-2.667 2.667-4 0-1.333 2.667-2.667 2.667-4 0-1.333 2.667-2.667 2.667-4 0-1.333 2.667-2.667 2.667-4 0-.667 4-1.333 4-2 0-.383.556-.883.889-1.5 1v-23ZM762.5 156.5h30v23c-.996.086-1.829-.248-2.5-1-1.333 2.667-2.667 2.667-4 0-1.333 2.667-2.667 2.667-4 0-1.333 2.667-2.667 2.667-4 0-1.333 2.667-2.667 2.667-4 0-1.333 2.667-2.667 2.667-4 0-1.333 2.667-2.667 2.667-4 0-.667 4-1.333 4-2 0-.383.556-.883.889-1.5 1v-23Z"/><path style="opacity:1" fill="#2a363b" d="M328.5 185.5a270.52 270.52 0 0 1-4 12.5c-17.021.76-34.021.594-51-.5v-10c6.393-2.701 12.393-6.201 18-10.5 1.284-.684 2.451-.517 3.5.5l2.5-2.5a25.238 25.238 0 0 1 10 0 74.233 74.233 0 0 0 21 10.5Z"/><path style="opacity:1" fill="#4e804c" d="m345.5 176.5 2 1c-3.125.979-6.458 1.313-10 1l8-2Z"/><path style="opacity:1" fill="#050303" d="M347.5 177.5c9.352-1.168 15.685 2.499 19 11-.31 3.213.023 6.213 1 9 12.493.556 25.159.556 38 0h14c-1.54-8.078 1.126-14.244 8-18.5a132.434 132.434 0 0 1 23 0c4.552 1.718 7.552 4.885 9 9.5v10c17.841.33 35.508-.003 53-1v-3c-.47-4.405.53-8.405 3-12a26.523 26.523 0 0 1 6-3.5c8.833-1.039 17.5-.539 26 1.5 2.096 1.933 3.596 4.267 4.5 7 .499 5.657.666 11.324.5 17v13a40.914 40.914 0 0 1 9 .5 6.978 6.978 0 0 1 3.5 2.5 289.106 289.106 0 0 1 0 34l-2.5 2.5c-20 .667-40 .667-60 0l-1.5-1.5c-1.622-11.236-1.955-22.569-1-34 3.298-3.665 7.465-4.998 12.5-4v-6a702.728 702.728 0 0 0-53-1v8h9c2.252.416 3.752 1.749 4.5 4a240.38 240.38 0 0 1 0 31l-2.5 3a627.906 627.906 0 0 1-61 .5 6.978 6.978 0 0 1-2.5-3.5 256.122 256.122 0 0 1 0-32c3.298-3.665 7.465-4.998 12.5-4v-6h-53v6a40.914 40.914 0 0 1 9 .5c2.167.833 3.667 2.333 4.5 4.5a240.38 240.38 0 0 1 0 31l-3.5 3.5c-20 .667-40 .667-60 0l-1.5-1.5c-1.622-11.236-1.955-22.569-1-34 3.298-3.665 7.465-4.998 12.5-4v-6a702.728 702.728 0 0 0-53-1v8h9c2.252.416 3.752 1.749 4.5 4a240.38 240.38 0 0 1 0 31c-.833 1.5-2 2.667-3.5 3.5-20 .667-40 .667-60 0l-1.5-1.5c-1.622-11.236-1.955-22.569-1-34a14.698 14.698 0 0 1 3.5-3h10v-31c1.085-4.254 3.752-7.087 8-8.5l11.5-.5c9.097-2.198 15.597.802 19.5 9v10a467.949 467.949 0 0 0 51 .5 270.52 270.52 0 0 0 4-12.5c1.644-3.998 4.644-6.331 9-7 3.542.313 6.875-.021 10-1Z"/><path style="opacity:1" fill="#f7f7f8" d="M300.5 186.5a8.43 8.43 0 0 1 4 .5 220.125 220.125 0 0 1 18 10c-14 .667-28 .667-42 0a90.42 90.42 0 0 1 14-6 157.284 157.284 0 0 1 6-4.5Z"/><path style="opacity:1" fill="#96fb97" d="M36.5 179.5v22a349.799 349.799 0 0 0-30 0v-22c.617-.111 1.117-.444 1.5-1 .667 4 1.333 4 2 0 1.333 2.667 2.667 2.667 4 0 1.333 2.667 2.667 2.667 4 0 1.333 2.667 2.667 2.667 4 0 1.333 2.667 2.667 2.667 4 0 1.333 2.667 2.667 2.667 4 0 1.333 2.667 2.667 2.667 4 0 .67.752 1.504 1.086 2.5 1Z"/><path style="opacity:1" fill="#96fb96" d="M682.5 181.5v16a71.254 71.254 0 0 0-2 4 3235.817 3235.817 0 0 0-89 0c-.762-1.762-2.096-2.762-4-3-7.148-.992-14.481-1.325-22-1v7h-13a145.053 145.053 0 0 0-.5-17c-.904-2.733-2.404-5.067-4.5-7 .958-.453 1.792-1.119 2.5-2 1.217.886 2.551 1.886 4 3l1-2c.741 1.141 1.575 1.141 2.5 0 1.041 2.491 1.874 2.491 2.5 0 1.101 1.894 2.434 2.561 4 2a7.248 7.248 0 0 1 2.5-2c1 1.333 2 1.333 3 0a4.457 4.457 0 0 1 1.5 2 4.457 4.457 0 0 1 1.5-2c1 1.333 2 1.333 3 0a4.457 4.457 0 0 1 1.5 2 4.457 4.457 0 0 1 1.5-2c1 1.333 2 1.333 3 0a4.457 4.457 0 0 1 1.5 2 4.457 4.457 0 0 1 1.5-2c1 1.333 2 1.333 3 0a4.457 4.457 0 0 1 1.5 2 4.457 4.457 0 0 1 1.5-2c1 1.333 2 1.333 3 0a4.457 4.457 0 0 1 1.5 2 4.457 4.457 0 0 1 1.5-2c1 1.333 2 1.333 3 0a4.457 4.457 0 0 1 1.5 2 4.457 4.457 0 0 1 1.5-2c1 1.333 2 1.333 3 0a4.457 4.457 0 0 1 1.5 2 4.457 4.457 0 0 1 1.5-2c1.098 1.115 2.265 1.115 3.5 0 .945.405 1.612 1.072 2 2a19.887 19.887 0 0 1 3.5-4c.029 1.334.863 2.667 2.5 4l2-4a7.293 7.293 0 0 0 2 3 35.193 35.193 0 0 1 4.5-1 4.457 4.457 0 0 1 1.5 2 4.457 4.457 0 0 1 1.5-2c2.264.804 4.264.137 6-2 .029 1.334.863 2.667 2.5 4l3-4c.667 2.667 1.333 2.667 2 0 1.594 3.309 3.594 3.309 6 0 .667 2.667 1.333 2.667 2 0 1.657 2.067 3.324 3.4 5 4l1-2c1.333 2.667 2.667 2.667 4 0 .667 2.667 1.333 2.667 2 0 .741 1.141 1.575 1.141 2.5 0 1.041 2.491 1.874 2.491 2.5 0 .741 1.141 1.575 1.141 2.5 0a4.457 4.457 0 0 1 1.5 2c1.137-.864 2.47-1.864 4-3 1.68.97 3.18 1.97 4.5 3Z"/><path style="opacity:1" fill="#96fb97" d="M792.5 179.5v22a349.799 349.799 0 0 0-30 0v-22c.617-.111 1.117-.444 1.5-1 .667 4 1.333 4 2 0 1.333 2.667 2.667 2.667 4 0 1.333 2.667 2.667 2.667 4 0 1.333 2.667 2.667 2.667 4 0 1.333 2.667 2.667 2.667 4 0 1.333 2.667 2.667 2.667 4 0 1.333 2.667 2.667 2.667 4 0 .671.752 1.504 1.086 2.5 1Z"/><path style="opacity:1" fill="#8ae88c" d="M366.5 188.5a73.75 73.75 0 0 1 16 8.5 112.97 112.97 0 0 1-15 .5c-.977-2.787-1.31-5.787-1-9Z"/><path style="opacity:1" fill="#d4dee9" d="M260.5 217.5c-4.893.762-9.226-.238-13-3v-23h13v26Z"/><path style="opacity:1" fill="#d5dfea" d="M352.5 191.5v26c-4.573.731-8.573-.269-12-3v-23h12ZM445.5 191.5v26c-4.573.731-8.573-.269-12-3v-23h12Z"/><path style="opacity:1" fill="#d6e0eb" d="M538.5 191.5c.166 9.006 0 18.006-.5 27a42.36 42.36 0 0 0-8.5-1.5 10.515 10.515 0 0 0-3-2.5v-23h12Z"/><path style="opacity:1" fill="#747575" d="M459.5 188.5c.977 2.787 1.31 5.787 1 9h52a702.728 702.728 0 0 1-53 1v-10Z"/><path style="opacity:1" fill="#3d6c45" d="M587.5 198.5h-21v6h-1v-7c7.519-.325 14.852.008 22 1Z"/><path style="opacity:1" fill="#070202" d="M220.5 204.5v7h-13v59h372c.33-19.84-.003-39.507-1-59-3.798-.983-7.798-1.317-12-1v-12h21c1.904.238 3.238 1.238 4 3a176.739 176.739 0 0 1 1 26v150h-13v-93h-371a7398.653 7398.653 0 0 0-1 172h-13v-254c.782-1.951 2.116-3.451 4-4.5a242.43 242.43 0 0 1 22-.5v7Z"/><path style="opacity:1" fill="#91fa9b" d="M234.5 187.5v17h-14v-7a242.43 242.43 0 0 0-22 .5c-1.884 1.049-3.218 2.549-4 4.5-.982 3.462-1.315 7.129-1 11a1534.23 1534.23 0 0 1-78.5-1c-1.375 2.437-1.875 5.103-1.5 8h-1v-31c.722.418 1.222 1.084 1.5 2 1.343-.714 2.676-.38 4 1 1.566.561 2.899-.106 4-2l1 2a192.458 192.458 0 0 0 4-3c.423 1.456 1.256 1.956 2.5 1.5-1.154-.914-.987-1.747.5-2.5.667 1.333 1.333 1.333 2 0 1.204.971 1.704 1.971 1.5 3a4.457 4.457 0 0 0 1.5-2 4.457 4.457 0 0 0 1.5 2c-.204-1.029.296-2.029 1.5-3 .667 1.333 1.333 1.333 2 0 1.487.753 1.654 1.586.5 2.5 1.244.456 2.077-.044 2.5-1.5a4.457 4.457 0 0 0 1.5 2c-.204-1.029.296-2.029 1.5-3 .667 1.333 1.333 1.333 2 0 1.487.753 1.654 1.586.5 2.5 1.244.456 2.077-.044 2.5-1.5a4.457 4.457 0 0 0 1.5 2c-.204-1.029.296-2.029 1.5-3 .667 1.333 1.333 1.333 2 0 1.487.753 1.654 1.586.5 2.5 1.244.456 2.077-.044 2.5-1.5a4.457 4.457 0 0 0 1.5 2c-.204-1.029.296-2.029 1.5-3 .667 1.333 1.333 1.333 2 0 1.487.753 1.654 1.586.5 2.5 1.244.456 2.077-.044 2.5-1.5a4.457 4.457 0 0 0 1.5 2c-.204-1.029.296-2.029 1.5-3 .667 1.333 1.333 1.333 2 0 1.487.753 1.654 1.586.5 2.5 1.244.456 2.077-.044 2.5-1.5a4.457 4.457 0 0 0 1.5 2c-.204-1.029.296-2.029 1.5-3 1.487.753 1.654 1.586.5 2.5 1.244.456 2.077-.044 2.5-1.5a4.457 4.457 0 0 0 1.5 2c-.204-1.029.296-2.029 1.5-3 .667 1.333 1.333 1.333 2 0 1.487.753 1.654 1.586.5 2.5 1.244.456 2.077-.044 2.5-1.5a4.457 4.457 0 0 0 1.5 2c-.204-1.029.296-2.029 1.5-3 .667 1.333 1.333 1.333 2 0 1.487.753 1.654 1.586.5 2.5 1.244.456 2.077-.044 2.5-1.5a4.457 4.457 0 0 0 1.5 2c-.204-1.029.296-2.029 1.5-3 .667 1.333 1.333 1.333 2 0 1.487.753 1.654 1.586.5 2.5 1.244.456 2.077-.044 2.5-1.5a4.457 4.457 0 0 0 1.5 2c-.204-1.029.296-2.029 1.5-3 .667 1.333 1.333 1.333 2 0 1.204.971 1.704 1.971 1.5 3a4.457 4.457 0 0 0 1.5-2c2.156 3.038 4.489 3.372 7 1l1 2a192.458 192.458 0 0 0 4-3c.423 1.456 1.256 1.956 2.5 1.5-1.154-.914-.987-1.747.5-2.5 1.487.753 1.654 1.586.5 2.5a12.93 12.93 0 0 0 5 .5c-.268-1.599.066-2.932 1-4Z"/><path style="opacity:1" fill="#e33a46" d="M220.5 204.5h13v13c-3.213-.31-6.213.023-9 1a14.698 14.698 0 0 0-3.5 3c-.955 11.431-.622 22.764 1 34l1.5 1.5c20 .667 40 .667 60 0 1.5-.833 2.667-2 3.5-3.5a240.38 240.38 0 0 0 0-31c-.748-2.251-2.248-3.584-4.5-4-2.448-.973-5.115-1.306-8-1v-6h52v6c-5.035-.998-9.202.335-12.5 4-.955 11.431-.622 22.764 1 34l1.5 1.5c20 .667 40 .667 60 0l3.5-3.5a240.38 240.38 0 0 0 0-31c-.833-2.167-2.333-3.667-4.5-4.5a40.914 40.914 0 0 0-9-.5v-6h53v6c-5.035-.998-9.202.335-12.5 4a256.122 256.122 0 0 0 0 32 6.978 6.978 0 0 0 2.5 3.5c20.377.821 40.71.655 61-.5l2.5-3a240.38 240.38 0 0 0 0-31c-.748-2.251-2.248-3.584-4.5-4-2.448-.973-5.115-1.306-8-1v-6h52v6c-5.035-.998-9.202.335-12.5 4-.955 11.431-.622 22.764 1 34l1.5 1.5c20 .667 40 .667 60 0l2.5-2.5a289.106 289.106 0 0 0 0-34 6.978 6.978 0 0 0-3.5-2.5 40.914 40.914 0 0 0-9-.5v-13h13v7h13a871.155 871.155 0 0 1 1 59h-372v-59h13v-7Z"/><path style="opacity:1" fill="#461115" d="M326.5 211.5h-52v6c2.885-.306 5.552.027 8 1h-9v-8c17.841-.33 35.508.003 53 1Z"/><path style="opacity:1" fill="#461215" d="M512.5 211.5h-52v6c2.885-.306 5.552.027 8 1h-9v-8c17.841-.33 35.508.003 53 1Z"/><path style="opacity:1" fill="#451115" d="M565.5 204.5h1v6c4.202-.317 8.202.017 12 1h-13v-7Z"/><path style="opacity:1" fill="#8efba1" d="M36.5 201.5v37a14.386 14.386 0 0 0-4.5 0c-1.044-1.123-1.71-2.456-2-4-.359 3.044-1.026 3.378-2 1-.667 2.667-1.333 2.667-2 0-.84 2.964-1.84 3.297-3 1-.667 2.667-1.333 2.667-2 0l-1 2c-.667-5.333-1.333-5.333-2 0-.667-8-1.333-8-2 0-1.284-1.072-1.617-2.405-1-4-1.566.561-2.899-.106-4-2-1.617 1.036-1.784 2.203-.5 3.5-.97 1.481-2.304 2.315-4 2.5v-37a349.799 349.799 0 0 1 30 0ZM682.5 197.5c-.166 10.006 0 20.006.5 30 .717.544 1.217 1.211 1.5 2v9a81.684 81.684 0 0 0-3-5 14.972 14.972 0 0 0-3.5 3c-.667-5.333-1.333-5.333-2 0-.667-4-1.333-4-2 0-.667-4-1.333-4-2 0-1.333-4-2.667-4-4 0-.29-1.544-.956-2.877-2-4l-5 3c-.667-4-1.333-4-2 0-.667-2.667-1.333-2.667-2 0-.869-3.263-2.203-3.596-4-1-1.558-.845-2.558-.179-3 2-.667-4-1.333-4-2 0l-2-4-1 2c-1.566.561-2.899-.106-4-2a7.293 7.293 0 0 0-2 3c-.667-2.667-1.333-2.667-2 0-1.333-2.667-2.667-2.667-4 0-.667-4-1.333-4-2 0-.667-2.667-1.333-2.667-2 0-.869-3.263-2.203-3.596-4-1-1.558-.845-2.558-.179-3 2-.667-4-1.333-4-2 0l-2-4-1 2c-1.566.561-2.899-.106-4-2l-3 4c.617-1.595.284-2.928-1-4-1.284 1.072-1.617 2.405-1 4-1.044-1.123-1.71-2.456-2-4-.359 3.044-1.026 3.378-2 1-.667 2.667-1.333 2.667-2 0-.691 2.391-1.691 2.391-3 0l-1.5 1.5c.14 1.264.14 2.431 0 3.5a112.33 112.33 0 0 0-2-5c.475-2.813-.525-4.813-3-6 .303-8.751-.03-17.418-1-26 29.871-.408 59.537-.408 89 0a71.254 71.254 0 0 1 2-4ZM792.5 201.5v37a14.386 14.386 0 0 0-4.5 0c-1.044-1.123-1.71-2.456-2-4-.359 3.044-1.026 3.378-2 1-.667 2.667-1.333 2.667-2 0-.84 2.964-1.84 3.297-3 1-.667 2.667-1.333 2.667-2 0l-1 2c-.667-5.333-1.333-5.333-2 0-.667-8-1.333-8-2 0-1.284-1.072-1.617-2.405-1-4-1.566.561-2.899-.106-4-2-1.617 1.036-1.784 2.203-.5 3.5-.971 1.481-2.304 2.315-4 2.5v-37a349.799 349.799 0 0 1 30 0Z"/><path style="opacity:1" fill="#a3b0ca" d="M352.5 191.5c.995 10.821 1.328 21.821 1 33h-13v-10c3.427 2.731 7.427 3.731 12 3v-26Z"/><path style="opacity:1" fill="#9facc6" d="M445.5 191.5c.995 10.821 1.328 21.821 1 33h-13v-10c3.427 2.731 7.427 3.731 12 3v-26Z"/><path style="opacity:1" fill="#a1afc9" d="M538.5 191.5c.995 10.821 1.328 21.821 1 33h-13v-10a10.515 10.515 0 0 1 3 2.5 42.36 42.36 0 0 1 8.5 1.5c.5-8.994.666-17.994.5-27Z"/><path style="opacity:1" fill="#5e181d" d="M233.5 204.5h1v14h-10c2.787-.977 5.787-1.31 9-1v-13Z"/><path style="opacity:1" fill="#a3b2d0" d="M247.5 214.5c3.774 2.762 8.107 3.762 13 3v7h-13v-10Z"/><path style="opacity:1" fill="#253036" d="M592.5 227.5c2.475 1.187 3.475 3.187 3 6v99a40.914 40.914 0 0 1-.5 9c-.708.881-1.542 1.547-2.5 2v-116Z"/><path style="opacity:1" fill="#8afba4" d="M193.5 213.5v44a1577.144 1577.144 0 0 0-79.5 0 684.346 684.346 0 0 1-.5-37c-.375-2.897.125-5.563 1.5-8a1534.23 1534.23 0 0 0 78.5 1Z"/><path style="opacity:1" fill="#606060" d="M235.5 235.5c-.977 2.787-1.31 5.787-1 9-1.306-3.187-1.306-6.52 0-10 .607.124.94.457 1 1Z"/><path style="opacity:1" fill="#263338" d="M342.5 238.5a53.375 53.375 0 0 1-7 4c-1 .333-1.667 1-2 2h-6a40.914 40.914 0 0 1 .5-9 6.978 6.978 0 0 0 3.5 2.5c3.652.499 7.318.665 11 .5Z"/><path style="opacity:1" fill="#e7e8e8" d="M234.5 244.5c-.31-3.213.023-6.213 1-9 .111.617.444 1.117 1 1.5 11.333.667 22.667.667 34 0l2.5-2.5c.498 3.317.665 6.65.5 10h-39Z"/><path style="opacity:1" fill="#88f9a5" d="M421.5 235.5c.558 1.29 1.558 2.123 3 2.5l30 1c1.063 1.188 2.397 1.688 4 1.5v3h-38c-.306-2.885.027-5.552 1-8Z"/><path style="opacity:1" fill="#7fe899" d="M366.5 243.5c-10.514.328-20.847-.006-31-1a53.375 53.375 0 0 0 7-4 280.185 280.185 0 0 1 21-1.5l2.5-2.5c.498 2.982.665 5.982.5 9Z"/><path style="opacity:1" fill="#6cc688" d="M335.5 242.5c10.153.994 20.486 1.328 31 1-10.821.995-21.821 1.328-33 1 .333-1 1-1.667 2-2Z"/><path style="opacity:1" fill="#68be81" d="M421.5 235.5c-.973 2.448-1.306 5.115-1 8h38v-3c.934 1.068 1.268 2.401 1 4h-40a60.931 60.931 0 0 1 .5-11c.717.544 1.217 1.211 1.5 2Z"/><path style="opacity:1" fill="#c5c7c8" d="M513.5 235.5v8h38c.302-2.559-.032-4.893-1-7 .283-.789.783-1.456 1.5-2 .498 3.317.665 6.65.5 10h-40c-.394-4.463-.061-7.463 1-9Z"/><path style="opacity:1" fill="#fcfcfc" d="M513.5 235.5a16.58 16.58 0 0 0 4 2.5c10 .667 20 .667 30 0l3-1.5c.968 2.107 1.302 4.441 1 7h-38v-8Z"/><path style="opacity:1" fill="#87faa7" d="M684.5 238.5v36a1428.062 1428.062 0 0 0-88 0h-1v-41a112.33 112.33 0 0 1 2 5c.14-1.069.14-2.236 0-3.5l1.5-1.5c1.309 2.391 2.309 2.391 3 0 .667 2.667 1.333 2.667 2 0 .974 2.378 1.641 2.044 2-1 .29 1.544.956 2.877 2 4-.617-1.595-.284-2.928 1-4 1.284 1.072 1.617 2.405 1 4l3-4c1.101 1.894 2.434 2.561 4 2l1-2 2 4c.667-4 1.333-4 2 0 .442-2.179 1.442-2.845 3-2 1.797-2.596 3.131-2.263 4 1 .667-2.667 1.333-2.667 2 0 .667-4 1.333-4 2 0 1.333-2.667 2.667-2.667 4 0 .667-2.667 1.333-2.667 2 0a7.293 7.293 0 0 1 2-3c1.101 1.894 2.434 2.561 4 2l1-2 2 4c.667-4 1.333-4 2 0 .442-2.179 1.442-2.845 3-2 1.797-2.596 3.131-2.263 4 1 .667-2.667 1.333-2.667 2 0 .667-4 1.333-4 2 0l5-3c1.044 1.123 1.71 2.456 2 4 1.333-4 2.667-4 4 0 .667-4 1.333-4 2 0 .667-4 1.333-4 2 0 .667-5.333 1.333-5.333 2 0a14.972 14.972 0 0 1 3.5-3 81.684 81.684 0 0 1 3 5Z"/><path style="opacity:1" fill="#86faa8" d="M36.5 238.5v36a349.799 349.799 0 0 0-30 0v-36c1.696-.185 3.03-1.019 4-2.5-1.284-1.297-1.117-2.464.5-3.5 1.101 1.894 2.434 2.561 4 2-.617 1.595-.284 2.928 1 4 .667-8 1.333-8 2 0 .667-5.333 1.333-5.333 2 0l1-2c.667 2.667 1.333 2.667 2 0 1.16 2.297 2.16 1.964 3-1 .667 2.667 1.333 2.667 2 0 .974 2.378 1.641 2.044 2-1 .29 1.544.956 2.877 2 4 1.45-.236 2.95-.236 4.5 0ZM792.5 238.5v36a349.799 349.799 0 0 0-30 0v-36c1.696-.185 3.029-1.019 4-2.5-1.284-1.297-1.117-2.464.5-3.5 1.101 1.894 2.434 2.561 4 2-.617 1.595-.284 2.928 1 4 .667-8 1.333-8 2 0 .667-5.333 1.333-5.333 2 0l1-2c.667 2.667 1.333 2.667 2 0 1.16 2.297 2.16 1.964 3-1 .667 2.667 1.333 2.667 2 0 .974 2.378 1.641 2.044 2-1 .29 1.544.956 2.877 2 4a14.386 14.386 0 0 1 4.5 0Z"/><path style="opacity:1" fill="#83faab" d="M112.5 220.5h1c-.167 12.338 0 24.671.5 37 26.333-.668 52.833-.668 79.5 0v35a806.19 806.19 0 0 0-79 0 5046.326 5046.326 0 0 0-2-21v-51Z"/><path style="opacity:1" fill="#ebf2f8" d="M208.5 284.5c10.487.994 21.154 1.328 32 1-1.637 28.578 2.53 56.244 12.5 83 14.265.659 28.431 1.325 42.5 2a364.086 364.086 0 0 0-46 1.5l-1.5 1.5a528.986 528.986 0 0 0 0 46 6.978 6.978 0 0 0 2.5 3.5c14.996.5 29.996.667 45 .5a959.575 959.575 0 0 1-44 1.5l40 1a189.783 189.783 0 0 0 33 25c.659 13.931 1.325 27.765 2 41.5a19.552 19.552 0 0 1 4 3.5c15.333.667 30.667.667 46 0a19.552 19.552 0 0 1 4-3.5 196.99 196.99 0 0 0 1.5-20 99.056 99.056 0 0 1 11 3 3.647 3.647 0 0 1 1.5-1c3.817.702 7.65 1.369 11.5 2 1.011-.556 1.844-1.222 2.5-2a136.278 136.278 0 0 0-1 40c-1.779 1.844-4.112 2.51-7 2v-7h-192v-40h-8v-12c2.559.302 4.893-.032 7-1a7398.653 7398.653 0 0 1 1-172Z"/><path style="opacity:1" fill="#f7f8f8" d="M208.5 284.5h371v93h7v6c-.802 1.452-1.302 3.118-1.5 5-.654-1.196-1.154-1.196-1.5 0 .363.683.696 1.35 1 2h-5v13h13c-4.482.826-9.149 1.326-14 1.5 2.4.186 4.734.686 7 1.5.211 3.531-.122 7.197-1 11-15.095-12.924-32.429-21.258-52-25v-15h-40v14c-13.323 3.559-25.99 8.892-38 16-.979-3.125-1.313-6.458-1-10h6c.166-8.007 0-16.007-.5-24l-1.5-1.5a156.693 156.693 0 0 0-24.5-1.5 156.693 156.693 0 0 0-24.5 1.5 9.454 9.454 0 0 0-1.5 2.5c-.667 15-.667 30 0 45a6.978 6.978 0 0 0 2.5 3.5c5.657.499 11.324.666 17 .5v-6c4.863-.319 9.53.014 14 1-16.357 15.377-27.024 34.044-32 56-.656.778-1.489 1.444-2.5 2a600.729 600.729 0 0 1-11.5-2 3.647 3.647 0 0 0-1.5 1 99.056 99.056 0 0 0-11-3 196.99 196.99 0 0 1-1.5 20 364.086 364.086 0 0 0-1.5-46 6.978 6.978 0 0 0-3.5-2.5c-15-.667-30-.667-45 0l-3.5 3.5c-.5 14.996-.667 29.996-.5 45-.675-13.735-1.341-27.569-2-41.5a189.783 189.783 0 0 1-33-25l-40-1a959.575 959.575 0 0 0 44-1.5c2.208-.523 3.708-1.856 4.5-4 .667-15 .667-30 0-45a25.14 25.14 0 0 0-4.5-4c-14.069-.675-28.235-1.341-42.5-2-9.97-26.756-14.137-54.422-12.5-83-10.846.328-21.513-.006-32-1Z"/><path style="opacity:1" fill="#7ef8af" d="M36.5 274.5v53c-10.21-.063-20.21-.063-30 0v-53a349.799 349.799 0 0 1 30 0Z"/><path style="opacity:1" fill="#7ff9ae" d="M684.5 274.5c.477 11.828-.023 23.495-1.5 35-28.625-.017-57.459-.017-86.5 0v-35c29.452-.904 58.785-.904 88 0Z"/><path style="opacity:1" fill="#7ef8af" d="M792.5 274.5v53a2843.65 2843.65 0 0 0-29.5 0c-.5-17.664-.667-35.33-.5-53a349.799 349.799 0 0 1 30 0Z"/><path style="opacity:1" fill="#010101" d="M250.5 297.5c15.337-.167 30.67 0 46 .5l3.5 3.5c.667 15 .667 30 0 45a6.978 6.978 0 0 1-2.5 3.5 552.224 552.224 0 0 1-47 0l-1.5-1.5a295.064 295.064 0 0 1-1-48 10.515 10.515 0 0 0 2.5-3Z"/><path style="opacity:1" fill="#080809" d="M330.5 297.5c15.337-.167 30.67 0 46 .5l3.5 3.5c.667 15 .667 30 0 45l-2.5 3a374.405 374.405 0 0 1-47 .5c-1.5-.833-2.667-2-3.5-3.5-.667-15-.667-30 0-45a19.552 19.552 0 0 0 3.5-4Z"/><path style="opacity:1" fill="#010101" d="M410.5 297.5c15.004-.167 30.004 0 45 .5a6.978 6.978 0 0 1 3.5 2.5 552.224 552.224 0 0 1 0 47l-2.5 2.5a552.224 552.224 0 0 1-47 0l-1.5-1.5a283.13 283.13 0 0 1-1-47c.69-1.85 1.856-3.184 3.5-4Z"/><path style="opacity:1" fill="#010102" d="M489.5 297.5c15.337-.167 30.67 0 46 .5l3.5 3.5a484.008 484.008 0 0 1 0 44c-.273 1.829-1.107 3.329-2.5 4.5a552.224 552.224 0 0 1-47 0l-2.5-2.5a528.986 528.986 0 0 1 0-46 16.58 16.58 0 0 1 2.5-4Z"/><path style="opacity:1" fill="#7bf7b0" d="M112.5 271.5c.667 6.845 1.333 13.845 2 21a806.19 806.19 0 0 1 79 0v35h-55a114.09 114.09 0 0 1-12-5.5c-4.032-3.676-8.699-6.176-14-7.5v-43Z"/><path style="opacity:1" fill="#79f4af" d="M684.5 229.5a1807.264 1807.264 0 0 1 1 85 12.93 12.93 0 0 0-5 .5c-6.333 4.86-13 9.027-20 12.5-20.017.208-39.851-.125-59.5-1a20.499 20.499 0 0 0-3.5 2.5c1.215 2.096 2.049 1.929 2.5-.5.667 2.667 1.333 2.667 2 0 .667 2.667 1.333 2.667 2 0 .667 2.667 1.333 2.667 2 0 .667 2.667 1.333 2.667 2 0 .667 2.667 1.333 2.667 2 0 .667 2.667 1.333 2.667 2 0 .667 2.667 1.333 2.667 2 0 .667 2.667 1.333 2.667 2 0 .667 2.667 1.333 2.667 2 0 .667 2.667 1.333 2.667 2 0 .667 2.667 1.333 2.667 2 0 .667 2.667 1.333 2.667 2 0 .667 2.667 1.333 2.667 2 0 .667 2.667 1.333 2.667 2 0 .667 2.667 1.333 2.667 2 0 .667 2.667 1.333 2.667 2 0 .667 2.667 1.333 2.667 2 0 .667 2.667 1.333 2.667 2 0 .667 2.667 1.333 2.667 2 0 .667 2.667 1.333 2.667 2 0 .667 2.667 1.333 2.667 2 0 .667 2.667 1.333 2.667 2 0 .667 2.667 1.333 2.667 2 0 .667 2.667 1.333 2.667 2 0 1.615 1.511 1.615 2.844 0 4a1946.589 1946.589 0 0 0-52.5 0v-58h1v35c29.041-.017 57.875-.017 86.5 0 1.477-11.505 1.977-23.172 1.5-35v-45Z"/><path style="opacity:1" fill="#5d6776" d="M260.5 310.5h27v27h-27v-27Z"/><path style="opacity:1" fill="#a8b7d5" d="M261.5 311.5h25v25h-25v-25Z"/><path style="opacity:1" fill="#a2b1cd" d="M340.5 310.5h26v27h-26v-27Z"/><path style="opacity:1" fill="#687284" d="M419.5 310.5h27v27h-27v-27Z"/><path style="opacity:1" fill="#a8b7d4" d="M420.5 311.5h25v25h-25v-25Z"/><path style="opacity:1" fill="#73f5b7" d="M36.5 327.5a200.627 200.627 0 0 0 1.5 33l9.5 5.5c.752.671 1.086 1.504 1 2.5a8.435 8.435 0 0 1-.5 4c-.667-2.667-1.333-2.667-2 0-.667-2.667-1.333-2.667-2 0-.667-2.667-1.333-2.667-2 0-.667-2.667-1.333-2.667-2 0-.667-2.667-1.333-2.667-2 0-.667-2.667-1.333-2.667-2 0-.667-2.667-1.333-2.667-2 0-.667-2.667-1.333-2.667-2 0-.667-2.667-1.333-2.667-2 0-2.159-3.745-4.659-4.245-7.5-1.5a8.43 8.43 0 0 1-4 .5 46.62 46.62 0 0 0-12-6v-38c9.79-.063 19.79-.063 30 0Z"/><path style="opacity:1" fill="#74f0b2" d="M761.5 135.5c.961 1.765 1.295 3.765 1 6v133c-.167 17.67 0 35.336.5 53a2843.65 2843.65 0 0 1 29.5 0v38c-3.013-.128-5.513.872-7.5 3-2.411-1.653-3.578-.987-3.5 2-2.196.743-4.196 1.076-6 1 .156-.998-.344-1.998-1.5-3-1.309 2.391-2.309 2.391-3 0-.691 2.391-1.691 2.391-3 0-2.112 3.627-3.779 3.627-5 0-.359 3.044-1.026 3.378-2 1l-1 2c-1.079-1.894-2.413-2.227-4-1-.667-2.667-1.333-2.667-2 0-.667-2.667-1.333-2.667-2 0-1.333-2.667-2.667-2.667-4 0-2.013.843-4.18.843-6.5 0a255.228 255.228 0 0 0 19.5-10c.5-74.999.667-149.999.5-225Z"/><path style="opacity:1" fill="#74f4b5" d="M138.5 327.5h55v44c-2.821-.694-5.321-.694-7.5 0-.176-4.188-.676-8.188-1.5-12-.914-4.758-3.581-8.258-8-10.5a82.15 82.15 0 0 1-22-13c-3.993-.322-7.326-1.988-10-5-2.764-.006-4.764-1.172-6-3.5Z"/><path style="opacity:1" fill="#73f3b5" d="M660.5 327.5a383.382 383.382 0 0 1-40 21.5c-4.015 3.785-8.681 6.452-14 8-2.508 3.042-5.508 5.376-9 7a27.603 27.603 0 0 0-5 1.5v-22c.958-.453 1.792-1.119 2.5-2 .498-2.982.665-5.982.5-9 17.549-.236 35.049-.236 52.5 0 1.615-1.156 1.615-2.489 0-4-.667 2.667-1.333 2.667-2 0-.667 2.667-1.333 2.667-2 0-.667 2.667-1.333 2.667-2 0-.667 2.667-1.333 2.667-2 0-.667 2.667-1.333 2.667-2 0-.667 2.667-1.333 2.667-2 0-.667 2.667-1.333 2.667-2 0-.667 2.667-1.333 2.667-2 0-.667 2.667-1.333 2.667-2 0-.667 2.667-1.333 2.667-2 0-.667 2.667-1.333 2.667-2 0-.667 2.667-1.333 2.667-2 0-.667 2.667-1.333 2.667-2 0-.667 2.667-1.333 2.667-2 0-.667 2.667-1.333 2.667-2 0-.667 2.667-1.333 2.667-2 0-.667 2.667-1.333 2.667-2 0-.667 2.667-1.333 2.667-2 0-.667 2.667-1.333 2.667-2 0-.667 2.667-1.333 2.667-2 0-.667 2.667-1.333 2.667-2 0-.667 2.667-1.333 2.667-2 0-.667 2.667-1.333 2.667-2 0-.667 2.667-1.333 2.667-2 0-.451 2.429-1.285 2.596-2.5.5a20.499 20.499 0 0 1 3.5-2.5c19.649.875 39.483 1.208 59.5 1Z"/><path style="opacity:1" fill="#697589" d="M525.5 311.5c.993 8.484 1.326 17.151 1 26h-27v-27c8.849-.326 17.516.007 26 1Z"/><path style="opacity:1" fill="#a9b8d5" d="M525.5 311.5v25h-25v-25h25Z"/><path style="opacity:1" fill="#448c6a" d="M194.5 202.5v254h13c-2.107.968-4.441 1.302-7 1h-7v-244c-.315-3.871.018-7.538 1-11Z"/><path style="opacity:1" fill="#69f0bd" d="M48.5 368.5a175.007 175.007 0 0 1 16 7.5c3.846 4.125 8.513 6.792 14 8a340.465 340.465 0 0 0 40 23c.881.708 1.547 1.542 2 2.5-.768.763-1.268 1.763-1.5 3-.667-2.667-1.333-2.667-2 0-.667-2.667-1.333-2.667-2 0-.667-2.667-1.333-2.667-2 0-.667-2.667-1.333-2.667-2 0-.667-2.667-1.333-2.667-2 0-1.957-1.354-3.957-1.021-6 1-1.333-2.667-2.667-2.667-4 0l-2-2c-2.207.582-4.707.915-7.5 1a163.888 163.888 0 0 1-7-5 3.647 3.647 0 0 0-1.5 1c-1.667-1-3-2.333-4-4l-1 1a4.932 4.932 0 0 1-.5-3h-6v-3h-5v-3a544.412 544.412 0 0 1-29-14v-3a58.967 58.967 0 0 1-11-3v-3c-2.582.475-4.582-.192-6-2a8.43 8.43 0 0 0 4-.5c2.841-2.745 5.341-2.245 7.5 1.5.667-2.667 1.333-2.667 2 0 .667-2.667 1.333-2.667 2 0 .667-2.667 1.333-2.667 2 0 .667-2.667 1.333-2.667 2 0 .667-2.667 1.333-2.667 2 0 .667-2.667 1.333-2.667 2 0 .667-2.667 1.333-2.667 2 0 .667-2.667 1.333-2.667 2 0 .667-2.667 1.333-2.667 2 0a8.435 8.435 0 0 0 .5-4Z"/><path style="opacity:1" fill="#020202" d="M295.5 370.5a25.14 25.14 0 0 1 4.5 4c.667 15 .667 30 0 45-.792 2.144-2.292 3.477-4.5 4-15.004.167-30.004 0-45-.5a6.978 6.978 0 0 1-2.5-3.5 528.986 528.986 0 0 1 0-46l1.5-1.5a364.086 364.086 0 0 1 46-1.5Z"/><path style="opacity:1" fill="#070707" d="M330.5 370.5c15.004-.167 30.004 0 45 .5a6.978 6.978 0 0 1 3.5 2.5 271.334 271.334 0 0 1 1 46l-3.5 3.5a528.986 528.986 0 0 1-46 0c-1.5-.833-2.667-2-3.5-3.5-.667-15-.667-30 0-45a19.552 19.552 0 0 0 3.5-4Z"/><path style="opacity:1" fill="#030303" d="M453.5 397.5h-7v-14h-27v27h7v13a145.053 145.053 0 0 1-17-.5 6.978 6.978 0 0 1-2.5-3.5c-.667-15-.667-30 0-45a9.454 9.454 0 0 1 1.5-2.5 156.693 156.693 0 0 1 24.5-1.5c8.265-.137 16.432.363 24.5 1.5l1.5 1.5c.5 7.993.666 15.993.5 24h-6Z"/><path style="opacity:1" fill="#69f0bd" d="M775.5 371.5c-3.195 1.676-6.028 4.009-8.5 7l-1-1c-1.049 1.607-2.549 2.273-4.5 2v3c-3.937.204-7.604 1.204-11 3 .381 2.442-.286 3.109-2 2-.886.825-1.219 1.825-1 3h-6v3a12.93 12.93 0 0 0-5 .5c-1.079 2.043-2.746 3.376-5 4l1 1a12.93 12.93 0 0 1-5 .5v3a9.86 9.86 0 0 0-6 1c-5.275 3.112-9.942 6.112-14 9a89.28 89.28 0 0 1-13.5-1c-1.333 2.667-2.667 2.667-4 0l-11 1c-.667-2.667-1.333-2.667-2 0-.667-2.667-1.333-2.667-2 0-1.626-.354-3.459-.354-5.5 0a490.902 490.902 0 0 0 26-15.5c5.325-1.003 9.658-3.67 13-8a396.957 396.957 0 0 0 33-18.5c2.32.843 4.487.843 6.5 0 1.333-2.667 2.667-2.667 4 0 .667-2.667 1.333-2.667 2 0 .667-2.667 1.333-2.667 2 0 1.587-1.227 2.921-.894 4 1l1-2c.974 2.378 1.641 2.044 2-1 1.221 3.627 2.888 3.627 5 0 1.309 2.391 2.309 2.391 3 0 .691 2.391 1.691 2.391 3 0 1.156 1.002 1.656 2.002 1.5 3Z"/><path style="opacity:1" fill="#a6b5d2" d="M532.5 392.5a136.102 136.102 0 0 0-40-1v-14h40v15Z"/><path style="opacity:1" fill="#656f80" d="M446.5 397.5c-.985-4.134-1.318-8.468-1-13h-25v25c2.235-.295 4.235.039 6 1h-7v-27h27v14Z"/><path style="opacity:1" fill="#a4b3d0" d="M366.5 384.5v25h-26v-25a85.021 85.021 0 0 1 26 0Z"/><path style="opacity:1" fill="#a8b7d3" d="M446.5 397.5h7c-.313 3.542.021 6.875 1 10a5972.454 5972.454 0 0 0-14 11c-4.47-.986-9.137-1.319-14-1v-7c-1.765-.961-3.765-1.295-6-1v-25h25c-.318 4.532.015 8.866 1 13Z"/><path style="opacity:.997" fill="#030405" d="M532.5 392.5c19.571 3.742 36.905 12.076 52 25a196.898 196.898 0 0 1 17 20 87.45 87.45 0 0 1 6 11l7 16c7.62 25.557 6.287 50.557-4 75a90.135 90.135 0 0 1-5 9 799.68 799.68 0 0 1-2-31c5.927-28.947-.073-54.947-18-78-14.758-18.891-34.091-30.391-58-34.5-36.136-4.684-65.47 7.149-88 35.5-13.275 16.316-19.942 35.149-20 56.5a140.521 140.521 0 0 0 3 22.5v3h-13c.268-1.599-.066-2.932-1-4 .268-1.599-.066-2.932-1-4a136.278 136.278 0 0 1 1-40c4.976-21.956 15.643-40.623 32-56 4.691-3.697 9.358-7.364 14-11 12.01-7.108 24.677-12.441 38-16a136.102 136.102 0 0 1 40 1Z"/><path style="opacity:1" fill="#020202" d="M584.5 390.5h8v13h-13v-13h5Z"/><path style="opacity:1" fill="#0fb7ee" d="M585.5 439.5c-1.577 2.084-3.41 4.084-5.5 6a24.935 24.935 0 0 0-.5 7c-19.595-25.708-45.595-37.208-78-34.5-19.415 2.869-35.415 11.703-48 26.5l-7 8c.628-5.828-1.706-9.828-7-12 22.53-28.351 51.864-40.184 88-35.5 23.909 4.109 43.242 15.609 58 34.5Z"/><path style="opacity:1" fill="#5b6474" d="M260.5 383.5h27v27h-27v-27Z"/><path style="opacity:1" fill="#8495b3" d="M261.5 387.5c4.967 7.31 9.967 14.644 15 22h-15v-22Z"/><path style="opacity:1" fill="#a8b7d4" d="M276.5 409.5a8258.315 8258.315 0 0 1-15-22v-3h25v25h-10Z"/><path style="opacity:1" fill="#505663" d="M340.5 384.5v25h26v-25c.993 8.484 1.326 17.151 1 26h-28c-.326-8.849.007-17.516 1-26Z"/><path style="opacity:1" fill="#5fecc3" d="M120.5 409.5a1305.52 1305.52 0 0 1 50 28c-12.273.931-24.94 1.264-38 1-.321-1.548-1.321-2.215-3-2v-3h-6v-3h-5v-3c-2.921.354-5.254-.646-7-3-1.714 1.109-2.381.442-2-2a58.97 58.97 0 0 1-11-3v-3a1827.965 1827.965 0 0 1-9-4c2.793-.085 5.293-.418 7.5-1l2 2c1.333-2.667 2.667-2.667 4 0 2.043-2.021 4.043-2.354 6-1 .667-2.667 1.333-2.667 2 0 .667-2.667 1.333-2.667 2 0 .667-2.667 1.333-2.667 2 0 .667-2.667 1.333-2.667 2 0 .667-2.667 1.333-2.667 2 0 .232-1.237.732-2.237 1.5-3Z"/><path style="opacity:1" fill="#5decc5" d="M707.5 412.5c-1.765.961-3.765 1.295-6 1v3h-5v3c-2.185.388-4.018 1.388-5.5 3-2.278-1.12-3.778-.287-4.5 2.5a101.955 101.955 0 0 0-13 5.5v3h-6v3h-6v3c-1.788-.285-3.455.048-5 1 1.129 2.029.629 2.363-1.5 1-1.712 3.452-4.212 4.452-7.5 3v3c-3.096-.593-5.429.407-7 3a47.25 47.25 0 0 1-7 3v3h-6v3a106.353 106.353 0 0 0-13 5l-7-16 62-36c2.041-.354 3.874-.354 5.5 0 .667-2.667 1.333-2.667 2 0 .667-2.667 1.333-2.667 2 0l11-1c1.333 2.667 2.667 2.667 4 0a89.28 89.28 0 0 0 13.5 1Z"/><path style="opacity:1" fill="#62eec2" d="M184.5 359.5c.824 3.812 1.324 7.812 1.5 12 2.179-.694 4.679-.694 7.5 0v67c-4.532.318-8.866-.015-13-1a84.823 84.823 0 0 0 3.5-11c.5-22.331.667-44.664.5-67Z"/><path style="opacity:1" fill="#f9fafa" d="M579.5 452.5c13.218 21.308 16.218 43.974 9 68-7.674-.166-15.341 0-23 .5-1.323.816-1.989 1.983-2 3.5-.99 5.81-1.323 11.81-1 18a77.1 77.1 0 0 1-13 1c.322-5.858-.011-11.525-1-17-.256-2.276-1.59-3.443-4-3.5a423.34 423.34 0 0 0-50 .5c-22.867-16.034-36.367-38.034-40.5-66a84.902 84.902 0 0 1-.5-13c12.585-14.797 28.585-23.631 48-26.5 32.405-2.708 58.405 8.792 78 34.5Z"/><path style="opacity:1" fill="#459ae2" d="M439.5 440.5c5.294 2.172 7.628 6.172 7 12-13.779 21.858-16.779 45.192-9 70h-14c.237-1.291-.096-2.291-1-3a140.521 140.521 0 0 1-3-22.5c.058-21.351 6.725-40.184 20-56.5Z"/><path style="opacity:1" fill="#459ae3" d="M585.5 439.5c17.927 23.053 23.927 49.053 18 78-.904.709-1.237 1.709-1 3h-14c7.218-24.026 4.218-46.692-9-68-.163-2.357.003-4.69.5-7 2.09-1.916 3.923-3.916 5.5-6Z"/><path style="opacity:1" fill="#090a0a" d="M380.5 492.5a19.552 19.552 0 0 0-4 3.5 528.986 528.986 0 0 1-46 0 19.552 19.552 0 0 0-4-3.5c-.167-15.004 0-30.004.5-45l3.5-3.5c15-.667 30-.667 45 0a6.978 6.978 0 0 1 3.5 2.5 364.086 364.086 0 0 1 1.5 46Z"/><path style="opacity:1" fill="#8293b0" d="M293.5 449.5a10.515 10.515 0 0 1-3-2.5c-1-.667-2-.667-3 0a387.543 387.543 0 0 1-21 25.5l-8-7a514.367 514.367 0 0 1-4 3v-25h39v6Z"/><path style="opacity:1" fill="#050606" d="M293.5 449.5a29.937 29.937 0 0 1 5 5 553.075 553.075 0 0 0-5 8 134.336 134.336 0 0 0-17 21 90.116 90.116 0 0 0-7 6.5c-2.135.635-4.135.301-6-1a286.37 286.37 0 0 1-14-14.5c1.69-2.019 3.356-4.019 5-6a514.367 514.367 0 0 0 4-3l8 7a387.543 387.543 0 0 0 21-25.5c1-.667 2-.667 3 0a10.515 10.515 0 0 0 3 2.5Z"/><path style="opacity:1" fill="#d5dfea" d="M453.5 444.5a84.902 84.902 0 0 0 .5 13c4.133 27.966 17.633 49.966 40.5 66a16.58 16.58 0 0 0-2.5 4 983.912 983.912 0 0 1-13.5 41c-12.526-6.864-23.192-15.864-32-27-2.878-4.741-4.878-9.741-6-15-.271-1.93-1.271-3.264-3-4-7.779-24.808-4.779-48.142 9-70l7-8Z"/><path style="opacity:1" fill="#57ebca" d="M170.5 437.5c3.333 1.333 6.667 1.333 10 0 4.134.985 8.468 1.318 13 1v19h7v12c-2.235-.295-4.235.039-6 1-.977 2.787-1.31 5.787-1 9h-7a62.792 62.792 0 0 0-1-15.5l-28-16c-6.204-2.789-12.537-4.622-19-5.5v-3c-2.235.295-4.235-.039-6-1 13.06.264 25.727-.069 38-1Z"/><path style="opacity:1" fill="#070707" d="M462.5 451.5a869.442 869.442 0 0 1 50 36.5c1.333.667 2.667.667 4 0a301.724 301.724 0 0 1 35-10.5 61.39 61.39 0 0 0 3 13 378.93 378.93 0 0 0-39 12.5c-1.667.667-3.333.667-5 0a2598.032 2598.032 0 0 1-55-41c2.974-3.128 5.307-6.628 7-10.5Z"/><path style="opacity:1" fill="#a8b7d4" d="M366.5 468.5a78.321 78.321 0 0 1-26-9c8.269-1.97 16.935-2.636 26-2v11Z"/><path style="opacity:1" fill="#8293b0" d="M340.5 459.5a78.321 78.321 0 0 0 26 9v15h-26v-24Z"/><path style="opacity:1" fill="#8192af" d="M293.5 462.5v21h-17a134.336 134.336 0 0 1 17-21Z"/><path style="opacity:1" fill="#000101" d="M194.5 470.5h13v39a9220.571 9220.571 0 0 0 192 1v12a946.379 946.379 0 0 0-61 1h-12c-.847-1.466-2.18-2.3-4-2.5-11-.667-22-.667-33 0a16.58 16.58 0 0 0-4 2.5h-67a168.704 168.704 0 0 0-24-1v-52Z"/><path style="opacity:1" fill="#becbd2" d="M194.5 470.5c1.765-.961 3.765-1.295 6-1h8v40h-1v-39h-13Z"/><path style="opacity:1" fill="#4be6d2" d="M186.5 479.5h7v43h-7v-43Z"/><path style="opacity:1" fill="#525659" d="M207.5 509.5h193v13h-1v-12a9220.571 9220.571 0 0 1-192-1Z"/><path style="opacity:1" fill="#8495b2" d="M407.5 514.5c.934 1.068 1.268 2.401 1 4v4h-8v-6c2.888.51 5.221-.156 7-2Z"/><path style="opacity:.997" fill="#273439" d="M194.5 470.5v52c8.042-.236 16.042.097 24 1a52.392 52.392 0 0 1 1 13v101h6c1.517.011 2.684.677 3.5 2 .499 4.321.666 8.654.5 13a115.336 115.336 0 0 1 21 11 2847.601 2847.601 0 0 0 18.5-72c.5-13.663.667-27.329.5-41v-1h10a183.218 183.218 0 0 1 3-13v-1c.904-.709 1.237-1.709 1-3 .975-2.811 1.642-5.811 2-9a16.58 16.58 0 0 1 4-2.5c11-.667 22-.667 33 0 1.82.2 3.153 1.034 4 2.5a21.435 21.435 0 0 1-1 7 20.69 20.69 0 0 0-1 5v1a37.02 37.02 0 0 0-3 13v1c-3.244 8.302-5.578 16.968-7 26a429.694 429.694 0 0 0-7 28 36.284 36.284 0 0 0-2.5 13 2026.567 2026.567 0 0 1 32.5 19c10.355-10.687 20.688-21.354 31-32a248.319 248.319 0 0 0 27-26c.979-1.645 2.312-2.979 4-4a21.127 21.127 0 0 0 1-9 40.914 40.914 0 0 1-9-.5c-1.526-1.887-3.526-2.887-6-3l-46-1c-1.323-.816-1.989-1.983-2-3.5v-21a46.809 46.809 0 0 1 1-13 946.379 946.379 0 0 1 61-1h9v-4c.934 1.068 1.268 2.401 1 4h13v-3c.904.709 1.237 1.709 1 3h14c1.729.736 2.729 2.07 3 4-.327 9.848.006 19.514 1 29v1c-1.307 6.234-1.307 12.568 0 19a216.47 216.47 0 0 1-2.5 17 1334.483 1334.483 0 0 0-30.5 31 1257.09 1257.09 0 0 1-30.5 29c-1.458 4.281-.292 7.447 3.5 9.5 2.118.26 3.784 1.26 5 3 8 .667 16 .667 24 0a1069.254 1069.254 0 0 1 42-24c4.664-4.47 7.331-9.97 8-16.5a529.12 529.12 0 0 0 10-29 43.836 43.836 0 0 1-1-2c.997.03 1.664-.47 2-1.5 1.896-3.781 2.562-7.614 2-11.5 2.792-3.335 4.459-7.335 5-12a983.912 983.912 0 0 0 13.5-41 16.58 16.58 0 0 1 2.5-4 423.34 423.34 0 0 1 50-.5c2.41.057 3.744 1.224 4 3.5a756.853 756.853 0 0 0 1 55h1c-1.86 4.693-2.526 9.693-2 15v41a32.462 32.462 0 0 1 8 .5c1.256.417 1.923 1.25 2 2.5a64.873 64.873 0 0 0 1 16c.607-.124.94-.457 1-1 1-.333 1.667-1 2-2 1.333-21 1.333-42 0-63 1.3-5.1 1.3-10.1 0-15a77.772 77.772 0 0 0 1-17v-34c.011-1.517.677-2.684 2-3.5 7.659-.5 15.326-.666 23-.5h14c-.237-1.291.096-2.291 1-3a799.68 799.68 0 0 0 2 31 116.8 116.8 0 0 0-1 21c2.235.295 4.235-.039 6-1 13.004-.167 26.004 0 39 .5a282.27 282.27 0 0 1 20.5 19.5c.667 38 .667 76 0 114l-1.5 1.5a342.33 342.33 0 0 1-37 0c-1.167-.5-2-1.333-2.5-2.5-.5-30.998-.667-61.998-.5-93h-18c-2.107-.968-4.441-1.302-7-1-.331 25.505.002 50.839 1 76 .166 6.342 0 12.675-.5 19l-1.5 1.5c-11.662.5-23.329.667-35 .5-2.273-.457-3.606-1.79-4-4 .332-11.02-.001-22.02-1-33-.607.124-.94.457-1 1-1.91 1.475-3.076 3.475-3.5 6-1.011.837-2.178 1.17-3.5 1h-6v24c-.011 1.517-.677 2.684-2 3.5a256.122 256.122 0 0 1-32 0c-1.655-1.444-2.322-3.278-2-5.5a117.085 117.085 0 0 0-28 16 1618.355 1618.355 0 0 0-31 16.5c-3.25 3.637-7.25 5.97-12 7-.881.708-1.547 1.542-2 2.5-2.939.418-5.272 1.918-7 4.5l-10 4a78.988 78.988 0 0 1-14 9 55.94 55.94 0 0 0-10 2.5 90.158 90.158 0 0 1-10-2.5 35.157 35.157 0 0 0-10-5c-2.508-3.042-5.508-5.376-9-7a115.356 115.356 0 0 0-12-5.5c-3.877-2.039-7.543-4.539-11-7.5-3.959.349-6.626-1.317-8-5-8.36-3.016-16.027-7.349-23-13a27.603 27.603 0 0 1-5-1.5 1004.365 1004.365 0 0 1-25-15 25.46 25.46 0 0 0-5 5.5c-12 .667-24 .667-36 0-1.48-1.299-2.146-2.966-2-5a1476.08 1476.08 0 0 0 5-23.5 143.927 143.927 0 0 0-17.5-9c1.193 8.308-2.307 11.641-10.5 10-.273 8.388.06 16.721 1 25-.816 1.644-2.15 2.81-4 3.5-10.765.952-21.432.619-32-1a9.454 9.454 0 0 1-1.5-2.5c-.5-7.993-.666-15.993-.5-24-20.669.167-41.336 0-62-.5-2.276-.874-3.61-2.541-4-5A47708.841 47708.841 0 0 1 163 526.5a6.978 6.978 0 0 1 2.5-3.5c6.992-.5 13.992-.666 21-.5h7v-43c-.31-3.213.023-6.213 1-9Zm-13 116a625.298 625.298 0 0 1 1 50h-17a2180.36 2180.36 0 0 0 16-50Z"/><path style="opacity:1" fill="#8493ae" d="M218.5 523.5h67c-.358 3.189-1.025 6.189-2 9v-2a625.298 625.298 0 0 0-50-1c-.295 2.235.039 4.235 1 6h48v1h-63a52.392 52.392 0 0 0-1-13Z"/><path style="opacity:1" fill="#8290a8" d="M326.5 523.5h12a46.809 46.809 0 0 0-1 13h-13v-1h12v-6c-3.769-.256-7.436.077-11 1a21.435 21.435 0 0 0 1-7Z"/><path style="opacity:1" fill="#aab24f" d="M571.5 529.5v-1h25v45a484.723 484.723 0 0 1-1-44h-24Z"/><path style="opacity:1" fill="#a9b8d3" d="M283.5 530.5h-49v5c-.961-1.765-1.295-3.765-1-6 16.842-.33 33.508.003 50 1Z"/><path style="opacity:1" fill="#76daf9" d="M276.5 695.5c-8.734.635-17.067-.032-25-2a29137.723 29137.723 0 0 0 40.5-163c4.246-1.299 8.746-1.966 13.5-2l13 .5a5524.521 5524.521 0 0 0-42 166.5Z"/><path style="opacity:1" fill="#d4db56" d="M571.5 529.5h24a484.723 484.723 0 0 0 1 44c.074 1.911 1.074 3.078 3 3.5l48 1a284.889 284.889 0 0 1 14 14.5v103h-24c.331-30.505-.002-60.838-1-91 .14-1.624-.527-2.79-2-3.5-12-.667-24-.667-36 0-1.323.816-1.989 1.983-2 3.5a2071.736 2071.736 0 0 0-1 91h-24v-166Z"/><path style="opacity:1" fill="#54b14e" d="M211.5 531.5a452.669 452.669 0 0 0-42 1c6.633-1.33 13.633-1.997 21-2 7.175 0 14.175.334 21 1Z"/><path style="opacity:1" fill="#d7e1ec" d="M283.5 530.5v2c.237 1.291-.096 2.291-1 3h-48v-5h49Z"/><path style="opacity:1" fill="#ced9e6" d="M324.5 535.5a20.69 20.69 0 0 1 1-5c3.564-.923 7.231-1.256 11-1v6h-12Z"/><path style="opacity:1" fill="#98a14c" d="M432.5 587.5v-56h-87v22c-.992-7.482-1.325-15.148-1-23h89a813 813 0 0 1-1 57Z"/><path style="opacity:1" fill="#63d956" d="M211.5 531.5c-.167 36.668 0 73.335.5 110 .377 1.442 1.21 2.442 2.5 3 2.107.968 4.441 1.302 7 1v22c-2.235-.295-4.235.039-6 1-2 0-3 1-3 3-.992 7.816-1.326 15.816-1 24h-20c.325-7.852-.008-15.518-1-23 .17-1.322-.163-2.489-1-3.5l-64-1a10733.058 10733.058 0 0 0 44-135.5 452.669 452.669 0 0 1 42-1Zm-30 55a2180.36 2180.36 0 0 1-16 50h17a625.298 625.298 0 0 0-1-50Z"/><path style="opacity:1" fill="#d4db56" d="M432.5 587.5a5298.57 5298.57 0 0 0-61.5 61 37.391 37.391 0 0 0-1.5 11.5c-.206 4.523.461 8.856 2 13 20.331.5 40.664.667 61 .5v22h-87v-56a5298.57 5298.57 0 0 0 61.5-61c.667-7.667.667-15.333 0-23l-1.5-1.5c-19.997-.5-39.997-.667-60-.5v-22h87v56Z"/><path style="opacity:1" fill="#d2d956" d="M544.5 644.5c1.765.961 3.765 1.295 6 1v22c-1.915-.284-3.581.049-5 1-3-.333-4.333 1-4 4-.992 7.482-1.325 15.148-1 23h-20c.326-8.184-.008-16.184-1-24 0-2-1-3-3-3a895.913 895.913 0 0 1-60-3 10440.987 10440.987 0 0 0 42.5-134 457.546 457.546 0 0 1 42.5-1c-.167 37.668 0 75.335.5 113 .671.752 1.504 1.086 2.5 1Z"/><path style="opacity:1" fill="#4692d1" d="M440.5 526.5c1.122 5.259 3.122 10.259 6 15 .406 4.188-1.094 7.521-4.5 10a8.43 8.43 0 0 0-.5 4c-.994-9.486-1.327-19.152-1-29Z"/><path style="opacity:1" fill="#020202" d="M219.5 536.5h63a183.218 183.218 0 0 0-3 13h-60v-13Z"/><path style="opacity:1" fill="#030404" d="M324.5 536.5h13v13h-16a37.02 37.02 0 0 1 3-13Z"/><path style="opacity:1" fill="#0eb7ee" d="M446.5 541.5c8.808 11.136 19.474 20.136 32 27-.541 4.665-2.208 8.665-5 12-12.503-5.581-23.169-13.581-32-24v-1a8.43 8.43 0 0 1 .5-4c3.406-2.479 4.906-5.812 4.5-10Z"/><path style="opacity:1" fill="#c0cbd6" d="M563.5 524.5v34a133.582 133.582 0 0 0-13 8 57.15 57.15 0 0 0-1 15 756.853 756.853 0 0 1-1-55c.989 5.475 1.322 11.142 1 17a77.1 77.1 0 0 0 13-1c-.323-6.19.01-12.19 1-18Z"/><path style="opacity:1" fill="#297e7f" d="M321.5 550.5v-1h16v8c-.968-2.107-1.302-4.441-1-7h-15Z"/><path style="opacity:1" fill="#babcbd" d="M219.5 549.5h50v1h-49v86c1.915-.284 3.581.049 5 1h-6v-88Z"/><path style="opacity:1" fill="#fcfcfc" d="M269.5 550.5a840.27 840.27 0 0 1-.5 41 2847.601 2847.601 0 0 1-18.5 72 115.336 115.336 0 0 0-21-11 84.902 84.902 0 0 0-.5-13c-.816-1.323-1.983-1.989-3.5-2-1.419-.951-3.085-1.284-5-1v-86h49Z"/><path style="opacity:.995" fill="#273438" d="M185.5 555.5c1.89-.203 3.39.463 4.5 2 .667 28.667.667 57.333 0 86a11.333 11.333 0 0 1-3.5 1.5c-9.667.667-19.333.667-29 0-1.978-2.497-2.478-5.331-1.5-8.5l26-76a27.241 27.241 0 0 1 3.5-5Zm-4 31a2180.36 2180.36 0 0 1-16 50h17a625.298 625.298 0 0 0-1-50Z"/><path style="opacity:1" fill="#2b3639" d="M513.5 555.5c3.395-.556 5.562.777 6.5 4a1680.41 1680.41 0 0 1 0 82c-.5 1.833-1.667 3-3.5 3.5-9.667.667-19.333.667-29 0a9.454 9.454 0 0 1-2.5-1.5 12.494 12.494 0 0 1 0-7 3882.835 3882.835 0 0 0 28.5-81Z"/><path style="opacity:1" fill="#39dddd" d="M321.5 550.5h15c-.302 2.559.032 4.893 1 7 .011 1.517.677 2.684 2 3.5l46 1c2.474.113 4.474 1.113 6 3 2.982.498 5.982.665 9 .5a21.127 21.127 0 0 1-1 9c-1.688 1.021-3.021 2.355-4 4-.722-.418-1.222-1.084-1.5-2a4.457 4.457 0 0 1-1.5 2 35.193 35.193 0 0 1-4.5-1l-2 2a455.529 455.529 0 0 1-4-3 4.457 4.457 0 0 1-1.5 2 35.193 35.193 0 0 1-4.5-1l-2 2a455.529 455.529 0 0 1-4-3 4.457 4.457 0 0 1-1.5 2 35.193 35.193 0 0 1-4.5-1l-2 2a455.529 455.529 0 0 1-4-3 4.457 4.457 0 0 1-1.5 2 35.193 35.193 0 0 1-4.5-1l-2 2a455.529 455.529 0 0 1-4-3 4.457 4.457 0 0 1-1.5 2 35.193 35.193 0 0 1-4.5-1l-2 2a455.529 455.529 0 0 1-4-3 4.457 4.457 0 0 1-1.5 2 35.193 35.193 0 0 1-4.5-1c-1.482 2.281-3.149 2.281-5 0-2.732-.316-5.232.017-7.5 1-.798-.457-1.131-1.124-1-2 1.422-9.032 3.756-17.698 7-26Z"/><path style="opacity:1" fill="#030506" d="M441.5 556.5c8.831 10.419 19.497 18.419 32 24 .562 3.886-.104 7.719-2 11.5-.336 1.03-1.003 1.53-2 1.5-10.361-4.507-19.694-10.507-28-18-1.307-6.432-1.307-12.766 0-19Z"/><path style="opacity:1" fill="#3adbd8" d="M610.5 539.5v29c-1.765.961-3.765 1.295-6 1a116.8 116.8 0 0 1 1-21 90.135 90.135 0 0 0 5-9Z"/><path style="opacity:1" fill="#11b3e9" d="M563.5 558.5a77.772 77.772 0 0 1-1 17l-12 6h-1a57.15 57.15 0 0 1 1-15 133.582 133.582 0 0 1 13-8Z"/><path style="opacity:1" fill="#060707" d="M562.5 575.5c1.3 4.9 1.3 9.9 0 15-.667 0-1 .333-1 1a108.37 108.37 0 0 1-13 5c-.526-5.307.14-10.307 2-15l12-6Z"/><path style="opacity:1" fill="#34dbe0" d="M314.5 576.5c-.131.876.202 1.543 1 2 2.268-.983 4.768-1.316 7.5-1 1.851 2.281 3.518 2.281 5 0 1.533.444 3.033.777 4.5 1a4.457 4.457 0 0 0 1.5-2c1.137.864 2.47 1.864 4 3l2-2c1.533.444 3.033.777 4.5 1a4.457 4.457 0 0 0 1.5-2c1.137.864 2.47 1.864 4 3l2-2c1.533.444 3.033.777 4.5 1a4.457 4.457 0 0 0 1.5-2c1.137.864 2.47 1.864 4 3l2-2c1.533.444 3.033.777 4.5 1a4.457 4.457 0 0 0 1.5-2c1.137.864 2.47 1.864 4 3l2-2c1.533.444 3.033.777 4.5 1a4.457 4.457 0 0 0 1.5-2c1.137.864 2.47 1.864 4 3l2-2c1.533.444 3.033.777 4.5 1a4.457 4.457 0 0 0 1.5-2c.278.916.778 1.582 1.5 2a248.319 248.319 0 0 1-27 26c-2.173-.885-4.006-.218-5.5 2-.914-3.685-1.581-3.352-2 1-.419-4.352-1.086-4.685-2-1-.605-1.981-1.605-2.315-3-1-1.333-4-2.667-4-4 0-1.324-1.38-2.657-1.714-4-1l-1-2c-1.803 3.835-3.136 4.169-4 1-.667 5.333-1.333 5.333-2 0-.359 3.044-1.026 3.378-2 1-.974 2.378-1.641 2.044-2-1l-1 4a4.934 4.934 0 0 1-.5-3c-1.624-.14-2.79.527-3.5 2-.667-4-1.333-4-2 0-.991-1.439-2.324-2.439-4-3a71.58 71.58 0 0 1-7.5 1c-1.598-2.473-3.098-2.473-4.5 0-1.875-1.123-4.042-1.123-6.5 0a429.694 429.694 0 0 1 7-28Z"/><path style="opacity:1" fill="#0694c0" d="M511.5 589.5h-1c.023-2.427.523-4.76 1.5-7 .796 2.539.629 4.872-.5 7Z"/><path style="opacity:1" fill="#050607" d="M510.5 589.5h1a46.809 46.809 0 0 1 1 13h-7c.713-4.824 2.38-9.157 5-13Z"/><path style="opacity:1" fill="#f5f6f6" d="M561.5 591.5a961.42 961.42 0 0 1 1 62c-.333 1-1 1.667-2 2l-2-15c-.077-1.25-.744-2.083-2-2.5a32.462 32.462 0 0 0-8-.5v-41a108.37 108.37 0 0 0 13-5Z"/><path style="opacity:1" fill="#8f9598" d="M561.5 591.5c0-.667.333-1 1-1 1.333 21 1.333 42 0 63a961.42 961.42 0 0 0-1-62Z"/><path style="opacity:1" fill="#9ca54d" d="M661.5 592.5a2704.72 2704.72 0 0 1 1 104h-26v-92a2071.736 2071.736 0 0 1 1 91h24v-103Z"/><path style="opacity:1" fill="#2dd8e4" d="M368.5 604.5a280756.474 280756.474 0 0 1-31 32 2026.567 2026.567 0 0 0-32.5-19c.032-4.467.866-8.8 2.5-13 2.458-1.123 4.625-1.123 6.5 0 1.402-2.473 2.902-2.473 4.5 0a71.58 71.58 0 0 0 7.5-1c1.676.561 3.009 1.561 4 3 .667-4 1.333-4 2 0 .71-1.473 1.876-2.14 3.5-2a4.934 4.934 0 0 0 .5 3l1-4c.359 3.044 1.026 3.378 2 1 .974 2.378 1.641 2.044 2-1 .667 5.333 1.333 5.333 2 0 .864 3.169 2.197 2.835 4-1l1 2c1.343-.714 2.676-.38 4 1 1.333-4 2.667-4 4 0 1.395-1.315 2.395-.981 3 1 .914-3.685 1.581-3.352 2 1 .419-4.352 1.086-4.685 2-1 1.494-2.218 3.327-2.885 5.5-2Z"/><path style="opacity:1" fill="#2fd9e2" d="M441.5 575.5c8.306 7.493 17.639 13.493 28 18 .304.65.637 1.317 1 2a529.12 529.12 0 0 1-10 29c-15.069-.674-30.235-1.341-45.5-2-1.942 1.016-4.109 1.349-6.5 1a1334.483 1334.483 0 0 1 30.5-31 216.47 216.47 0 0 0 2.5-17Z"/><path style="opacity:1" fill="#2dc9d3" d="M504.5 603.5c2.747-.313 5.414.02 8 1a45.59 45.59 0 0 1-9 7l-1-1.5a72.47 72.47 0 0 0 2-6.5Z"/><path style="opacity:1" fill="#99a14c" d="M571.5 528.5v167h24c-.331-30.505.002-60.838 1-91v92h-26a7058.311 7058.311 0 0 1 1-168Z"/><path style="opacity:1" fill="#255861" d="M610.5 608.5h-6v75a1444.401 1444.401 0 0 1-1-76c2.559-.302 4.893.032 7 1Z"/><path style="opacity:1" fill="#f1f1f2" d="M511.5 619.5c.99 5.81 1.323 11.81 1 18h-19a20.093 20.093 0 0 1 1.5-6c5.382-4.414 10.882-8.414 16.5-12Z"/><path style="opacity:1" fill="#f9fafa" d="M449.5 675.5a961.42 961.42 0 0 0 62 1v7a1740.443 1740.443 0 0 1-84 47.5c-4.933 4.604-10.6 7.938-17 10-3.989 3.995-8.656 6.328-14 7a95.947 95.947 0 0 0-15-8c-3.603-3.655-7.936-5.988-13-7-3.342-4.33-7.675-6.997-13-8-5.883-4.573-12.217-8.24-19-11-5.201-4.797-11.201-8.13-18-10-5.256-4.931-11.256-8.598-18-11a32.573 32.573 0 0 0-12.5-7.5c-.667-2-.667-4 0-6a878.822 878.822 0 0 0 12.5-49c5.584 1.255 10.584 3.755 15 7.5l4 1a30.316 30.316 0 0 0 12 7l5.5 5.5c.174 17.24.674 34.407 1.5 51.5a2499 2499 0 0 0 100 0l1.5-1.5a193.256 193.256 0 0 0-.5-34 23.663 23.663 0 0 0-6-2.5 30.938 30.938 0 0 1 9-4l8.5-6.5a613.184 613.184 0 0 0-4.5 17c.061 2.153 1.061 3.486 3 4Z"/><path style="opacity:1" fill="#788147" d="M345.5 639.5v56h87v-22c.992 7.482 1.325 15.148 1 23h-89a813 813 0 0 1 1-57Z"/><path style="opacity:1" fill="#8e9497" d="m558.5 640.5 2 15c-.06.543-.393.876-1 1a64.873 64.873 0 0 1-1-16Z"/><path style="opacity:1" fill="#26d5e7" d="M460.5 624.5c-.669 6.53-3.336 12.03-8 16.5a1069.254 1069.254 0 0 0-42 24c-8 .667-16 .667-24 0-1.216-1.74-2.882-2.74-5-3-3.792-2.053-4.958-5.219-3.5-9.5a1257.09 1257.09 0 0 0 30.5-29c2.391.349 4.558.016 6.5-1 15.265.659 30.431 1.326 45.5 2Z"/><path style="opacity:1" fill="#396641" d="M214.5 644.5h8v24h-7c1.765-.961 3.765-1.295 6-1v-22c-2.559.302-4.893-.032-7-1Z"/><path style="opacity:1" fill="#25d6ea" d="M610.5 608.5c.333 22.01 0 44.01-1 66-1.671 2.01-2.338 4.343-2 7h-3v-73h6Z"/><path style="opacity:1" fill="#778046" d="M544.5 644.5h7v24h-6c1.419-.951 3.085-1.284 5-1v-22c-2.235.295-4.235-.039-6-1Z"/><path style="opacity:1" fill="#1cceec" d="M310.5 712.5a1210.8 1210.8 0 0 0-67 0c-2.092-.061-3.592-1.061-4.5-3-1.299.466-2.799.466-4.5 0v-3c-1.788.285-3.455-.048-5-1-2.354-2.983-5.354-4.65-9-5a171.774 171.774 0 0 1-1-25c8.193 1.641 11.693-1.692 10.5-10a143.927 143.927 0 0 1 17.5 9 1476.08 1476.08 0 0 1-5 23.5c-.146 2.034.52 3.701 2 5 12 .667 24 .667 36 0a25.46 25.46 0 0 1 5-5.5 1004.365 1004.365 0 0 0 25 15Z"/><path style="opacity:1" fill="#7e8748" d="M456.5 665.5a895.913 895.913 0 0 0 60 3h-61c-.237-1.291.096-2.291 1-3Z"/><path style="opacity:1" fill="#1bcfee" d="m561.5 668.5 2 32c.394 2.21 1.727 3.543 4 4-1.135 1.713-2.802 2.38-5 2v3h-6v3h-5c-.221-2.597-.721-2.597-1.5 0l-2-2c-1.525.388-3.192.388-5 0l-5 3-2-2c-1.566-.561-2.899.106-4 2l-2-2c-1.566-.561-2.899.106-4 2l-2-2c-1.566-.561-2.899.106-4 2l-2-2c-1.566-.561-2.899.106-4 2l-2-2c-1.566-.561-2.899.106-4 2l-2-2c-1.566-.561-2.899.106-4 2l-2-2c-1.566-.561-2.899.106-4 2l-2-2c-1.566-.561-2.899.106-4 2-1.707-.638-3.54-.638-5.5 0a117.085 117.085 0 0 1 28-16c-.322 2.222.345 4.056 2 5.5 10.667.667 21.333.667 32 0 1.323-.816 1.989-1.983 2-3.5.992-7.482 1.325-15.148 1-23 1.915.284 3.581-.049 5-1 1.322.17 2.489-.163 3.5-1 .424-2.525 1.59-4.525 3.5-6Z"/><path style="opacity:1" fill="#26818d" d="M561.5 668.5c.06-.543.393-.876 1-1a273.104 273.104 0 0 1 1 33l-2-32Z"/><path style="opacity:1" fill="#3a6842" d="M212.5 671.5v25h-22v-24c.992 7.482 1.325 15.148 1 23h20c-.326-8.184.008-16.184 1-24Z"/><path style="opacity:1" fill="#5d6742" d="M519.5 671.5c.992 7.816 1.326 15.816 1 24h20c-.325-7.852.008-15.518 1-23v24h-22v-25Z"/><path style="opacity:1" fill="#969b9e" d="M449.5 675.5h63c.306 2.885-.027 5.552-1 8v-7a961.42 961.42 0 0 1-62-1Z"/><path style="opacity:1" fill="#26828e" d="M554.5 675.5c-1.419.951-3.085 1.284-5 1 .325 7.852-.008 15.518-1 23v-24h6Z"/><path style="opacity:1" fill="#2e656f" d="M251.5 693.5c7.933 1.968 16.266 2.635 25 2-8.484.993-17.151 1.326-26 1-.237-1.291.096-2.291 1-3Z"/><path style="opacity:1" fill="#16cff3" d="M310.5 712.5a27.603 27.603 0 0 0 5 1.5c6.973 5.651 14.64 9.984 23 13 1.374 3.683 4.041 5.349 8 5 3.457 2.961 7.123 5.461 11 7.5-23.855.959-46.521.959-68 0a92.286 92.286 0 0 1-9-4v-3h-6v-3h-5v-3a8.43 8.43 0 0 1-4-.5c-4.85-3.699-10.184-6.199-16-7.5v-3h-6v-3a1210.8 1210.8 0 0 1 67 0ZM551.5 712.5c-1.066 2.106-2.733 3.606-5 4.5l1 1a118.288 118.288 0 0 0-17 7.5 10.756 10.756 0 0 0-2.5 3l-1-1c-1.049 1.607-2.549 2.273-4.5 2v3h-6v3h-5v3a20.69 20.69 0 0 0-5 1c-.722-.418-1.222-1.084-1.5-2-.667 2.667-1.333 2.667-2 0-.667 2.667-1.333 2.667-2 0-.667 2.667-1.333 2.667-2 0-.667 2.667-1.333 2.667-2 0-.667 2.667-1.333 2.667-2 0-.667 2.667-1.333 2.667-2 0-.667 2.667-1.333 2.667-2 0-.667 2.667-1.333 2.667-2 0-.667 2.667-1.333 2.667-2 0-.667 2.667-1.333 2.667-2 0-.667 2.667-1.333 2.667-2 0-.974 2.378-1.641 2.044-2-1-.667 4-1.333 4-2 0-.359 3.044-1.026 3.378-2 1-.667 2.667-1.333 2.667-2 0l-1 2c-.667-5.333-1.333-5.333-2 0-.626-2.491-1.459-2.491-2.5 0-1.196-.346-1.196-.846 0-1.5-1.244-.456-2.077.044-2.5 1.5-.667-2.667-1.333-2.667-2 0-.667-4-1.333-4-2 0-.667-2.667-1.333-2.667-2 0-1.938-1.36-3.604-1.027-5 1h-8c-1.309-2.391-2.309-2.391-3 0a4.457 4.457 0 0 0-1.5-2 6.846 6.846 0 0 1-4 1c.453-.958 1.119-1.792 2-2.5 4.75-1.03 8.75-3.363 12-7a1618.355 1618.355 0 0 1 31-16.5c1.96-.638 3.793-.638 5.5 0 1.101-1.894 2.434-2.561 4-2l2 2c1.101-1.894 2.434-2.561 4-2l2 2c1.101-1.894 2.434-2.561 4-2l2 2c1.101-1.894 2.434-2.561 4-2l2 2c1.101-1.894 2.434-2.561 4-2l2 2c1.101-1.894 2.434-2.561 4-2l2 2c1.101-1.894 2.434-2.561 4-2l2 2c1.101-1.894 2.434-2.561 4-2l2 2 5-3c1.808.388 3.475.388 5 0l2 2c.779-2.597 1.279-2.597 1.5 0Z"/><path style="opacity:1" fill="#11cdf6" d="M506.5 739.5c-.275 2.258-1.275 2.592-3 1-.886.825-1.219 1.825-1 3a12.93 12.93 0 0 0-5 .5 101.657 101.657 0 0 0-10 7.5 9.108 9.108 0 0 1-5 1v3c-2.51-.446-4.51.22-6 2-2.216.703-4.049 2.036-5.5 4-1.813-1.109-2.646-.442-2.5 2a12.93 12.93 0 0 0-5 .5 169.061 169.061 0 0 0-9 5.5c-.973-1.291-1.973-1.291-3 0-1.041-2.491-1.874-2.491-2.5 0-1.74-1.216-2.74-2.882-3-5-.343 2.693-1.676 4.693-4 6a7.293 7.293 0 0 1-2-3 7.293 7.293 0 0 1-2 3c-1.525-.388-3.192-.388-5 0a7.293 7.293 0 0 1-2-3c-1.541 3.124-3.375 3.457-5.5 1 1.355-1.175 1.188-2.175-.5-3-1.284 1.072-1.617 2.405-1 4l-3-5c-2.826 1.417-2.993 2.917-.5 4.5l-1.5 1.5-4-6c-2.072 1.46-2.906 3.126-2.5 5-1.041-2.491-1.874-2.491-2.5 0-7.211.21-14.544-.124-22-1-1.674 1.509-3.34 2.176-5 2l-4-6a8.905 8.905 0 0 0-3 4c-2.001-4.2-4.501-4.7-7.5-1.5.971 1.204 1.971 1.704 3 1.5-2.066 2.798-3.566 2.465-4.5-1-1.408 3.669-3.075 3.669-5 0a6.547 6.547 0 0 1-3 3c-.667-1.333-1.333-1.333-2 0-1.044-1.123-1.71-2.456-2-4-.359 3.044-1.026 3.378-2 1-1.925 3.669-3.592 3.669-5 0-.84 2.964-1.84 3.297-3 1-.383.556-.883.889-1.5 1h-6v-3c-5.922-1.727-11.089-4.727-15.5-9-.718.951-1.551 1.117-2.5.5 1.333-.667 1.333-1.333 0-2a12.93 12.93 0 0 0-5-.5v-3a58.97 58.97 0 0 1-11-3v-3c-5.115-1.584-9.782-3.917-14-7 21.479.959 44.145.959 68 0a115.356 115.356 0 0 1 12 5.5c3.492 1.624 6.492 3.958 9 7a35.157 35.157 0 0 1 10 5 90.158 90.158 0 0 0 10 2.5 55.94 55.94 0 0 1 10-2.5 78.988 78.988 0 0 0 14-9l10-4c1.728-2.582 4.061-4.082 7-4.5a6.846 6.846 0 0 0 4-1 4.457 4.457 0 0 1 1.5 2c.691-2.391 1.691-2.391 3 0h8c1.396-2.027 3.062-2.36 5-1 .667-2.667 1.333-2.667 2 0 .667-4 1.333-4 2 0 .667-2.667 1.333-2.667 2 0 .423-1.456 1.256-1.956 2.5-1.5-1.196.654-1.196 1.154 0 1.5 1.041-2.491 1.874-2.491 2.5 0 .667-5.333 1.333-5.333 2 0l1-2c.667 2.667 1.333 2.667 2 0 .974 2.378 1.641 2.044 2-1 .667 4 1.333 4 2 0 .359 3.044 1.026 3.378 2 1 .667 2.667 1.333 2.667 2 0 .667 2.667 1.333 2.667 2 0 .667 2.667 1.333 2.667 2 0 .667 2.667 1.333 2.667 2 0 .667 2.667 1.333 2.667 2 0 .667 2.667 1.333 2.667 2 0 .667 2.667 1.333 2.667 2 0 .667 2.667 1.333 2.667 2 0 .667 2.667 1.333 2.667 2 0 .667 2.667 1.333 2.667 2 0 .667 2.667 1.333 2.667 2 0 .278.916.778 1.582 1.5 2Z"/><path style="opacity:1" fill="#11cef7" d="M476.5 757.5c1.333.667 1.333.667 0 0Z"/><path style="opacity:1" fill="#0dccf9" d="M454.5 769.5c-.763.768-1.763 1.268-3 1.5l2 1a12.93 12.93 0 0 1-5 .5v3a9.86 9.86 0 0 0-6 1 35.217 35.217 0 0 1-8 4v3h-6v3h-6v3a8.43 8.43 0 0 0-4 .5l-5 5c-1.284.684-2.451.517-3.5-.5-1.263 2.968-3.263 3.968-6 3a2.428 2.428 0 0 0-.5 2h-12c-.507-1.359-1.507-2.359-3-3a137.913 137.913 0 0 0-11-4v-3c-2.133-1.386-5.133-2.386-9-3v-3h-5v-3c-3.005.247-5.505-.753-7.5-3l-1 1a4.934 4.934 0 0 1-.5-3h-6v-3h-5v-3c.617-.111 1.117-.444 1.5-1 1.16 2.297 2.16 1.964 3-1 1.408 3.669 3.075 3.669 5 0 .974 2.378 1.641 2.044 2-1 .29 1.544.956 2.877 2 4 .667-1.333 1.333-1.333 2 0a6.547 6.547 0 0 0 3-3c1.925 3.669 3.592 3.669 5 0 .934 3.465 2.434 3.798 4.5 1-1.029.204-2.029-.296-3-1.5 2.999-3.2 5.499-2.7 7.5 1.5a8.905 8.905 0 0 1 3-4l4 6c1.66.176 3.326-.491 5-2 7.456.876 14.789 1.21 22 1 .626-2.491 1.459-2.491 2.5 0-.406-1.874.428-3.54 2.5-5l4 6 1.5-1.5c-2.493-1.583-2.326-3.083.5-4.5l3 5c-.617-1.595-.284-2.928 1-4 1.688.825 1.855 1.825.5 3 2.125 2.457 3.959 2.124 5.5-1a7.293 7.293 0 0 0 2 3c1.808-.388 3.475-.388 5 0a7.293 7.293 0 0 0 2-3 7.293 7.293 0 0 0 2 3c2.324-1.307 3.657-3.307 4-6 .26 2.118 1.26 3.784 3 5 .626-2.491 1.459-2.491 2.5 0 1.027-1.291 2.027-1.291 3 0Z"/></svg>