<?xml version="1.0" encoding="UTF-8"?><svg xmlns="http://www.w3.org/2000/svg" width="800" height="800" style="shape-rendering:geometricPrecision;text-rendering:geometricPrecision;image-rendering:optimizeQuality;fill-rule:evenodd;clip-rule:evenodd"><path style="opacity:1" fill="#273339" d="M709.5 101.5a640.545 640.545 0 0 1 39 23.5c2.71 1.747 5.71 2.747 9 3 2.04 2.185 3.374 4.685 4 7.5v220a12.93 12.93 0 0 1-.5 5c-4.241 1.758-8.075 4.091-11.5 7a63.089 63.089 0 0 0-10 3.5l-8 6a377.475 377.475 0 0 1-23 12c-3.342 4.33-7.675 6.997-13 8a120.944 120.944 0 0 0-10 6.5 541317.159 541317.159 0 0 0-66 38 548.658 548.658 0 0 0-49 28 82.866 82.866 0 0 1 9-19 8701.336 8701.336 0 0 0 153-88.5 84.545 84.545 0 0 1 18-8.5 7901.316 7901.316 0 0 0-1.5-216 2129.254 2129.254 0 0 1-37.5-21.5c-3.415-.406-6.082-2.072-8-5a91.311 91.311 0 0 1-23-13 457.332 457.332 0 0 0-22-11c-2.508-3.042-5.508-5.376-9-7a457.332 457.332 0 0 1-22-11l-24-15c-3.415-.406-6.082-2.072-8-5a90.401 90.401 0 0 0-14-6c-5.722-6.435-12.722-8.768-21-7-7.36 5.663-15.36 9.996-24 13-3.619 3.977-7.952 6.644-13 8-2.537 2.546-5.537 4.212-9 5l-4 4-10 4a2551.356 2551.356 0 0 0-60 36 7185.005 7185.005 0 0 1 26 16 114.065 114.065 0 0 0 14 6c4.2 3.6 8.867 6.433 14 8.5a684.54 684.54 0 0 1 19-8.5 43.593 43.593 0 0 1 13-8c2.365-3.714 5.698-5.714 10-6a705.673 705.673 0 0 1 21-12c4.719-2.307 9.719-2.974 15-2a113.107 113.107 0 0 0 28 15l5 5a182.852 182.852 0 0 1 35 20 193.115 193.115 0 0 1 32 19 83.62 83.62 0 0 1 18.5 9.5l3 5c.667 48.667.667 97.333 0 146-5.181 6.173-11.681 10.34-19.5 12.5a12318.477 12318.477 0 0 1-28 18c-6.381 2.027-12.048 5.361-17 10a12.93 12.93 0 0 1-5 .5 199.613 199.613 0 0 1 8-17 385.347 385.347 0 0 0 21-12.5l4-1a679.07 679.07 0 0 1 23-15 12.93 12.93 0 0 1 5-.5c.331-28.505-.002-56.838-1-85-1.1-1.105-1.767-2.438-2-4 .167-16.337 0-32.67-.5-49a2259.205 2259.205 0 0 0-39.5-22 1389.006 1389.006 0 0 0-75-44 3162.857 3162.857 0 0 0-66 36.5 42.479 42.479 0 0 1-13 0 496.946 496.946 0 0 0-33-18 287.246 287.246 0 0 0-25-16c-6.921-5.743-6.588-11.076 1-16a2999.08 2999.08 0 0 1 64-36.5 899.957 899.957 0 0 0 57-33.5c3.111-.444 5.777-1.777 8-4 9.584-1.031 17.918 1.636 25 8 4.302.286 7.635 2.286 10 6a974.743 974.743 0 0 1 66 38l15 7c1.918 2.928 4.585 4.594 8 5a237.256 237.256 0 0 0 25 14.5Z"/><path style="opacity:1" fill="#28343a" d="M374.5 101.5a528.339 528.339 0 0 0 46 26.5 50.886 50.886 0 0 1 10 7 97.332 97.332 0 0 0 11 4.5 44.367 44.367 0 0 0-10 8 114.396 114.396 0 0 0-14-5.5c-3.065-4.125-7.065-6.791-12-8l-6-5a546.6 546.6 0 0 0-35-18 108.394 108.394 0 0 1-19-13 1516.16 1516.16 0 0 1-91-52A228.066 228.066 0 0 0 230 34.5 112.066 112.066 0 0 0 206.5 48l-10 4-3 3c-6.771 2.445-12.771 6.111-18 11l-10 4-4 4a520.666 520.666 0 0 0-59 34l-9 3c-2.508 3.042-5.508 5.376-9 7a583.92 583.92 0 0 1-36 19 7827.247 7827.247 0 0 0-.5 216.5 7214.146 7214.146 0 0 0 125 72c.5-21.664.667-43.331.5-65a340.197 340.197 0 0 0-18-8.5 55.63 55.63 0 0 0-18-10 78.488 78.488 0 0 0-23-13 56.965 56.965 0 0 0-10.5-7.5 2946.23 2946.23 0 0 1 1-153 230.435 230.435 0 0 0 32.5-19.5c8.372-3.019 16.038-7.352 23-13 5.093-1.382 9.426-4.049 13-8a90.42 90.42 0 0 0 14-6c1.918-2.928 4.585-4.594 8-5a226.438 226.438 0 0 1 29-17 42.498 42.498 0 0 1 13 0c1.918 2.928 4.585 4.594 8 5a1566.61 1566.61 0 0 0 73 41.5l-11 10c0-1.333-.667-2-2-2a208.311 208.311 0 0 0-5-4.5c-6.543-2.456-12.543-5.79-18-10l-35-21c-5.603-1.533-10.436-4.366-14.5-8.5-2.09.652-4.257.819-6.5.5a3883.584 3883.584 0 0 1-72 43.5 147.625 147.625 0 0 1-23 11.5c-5.669 5.02-11.836 9.187-18.5 12.5-.5 9.994-.666 19.994-.5 30v106c5.301 1.324 9.968 3.824 14 7.5l10 4c1.918 2.928 4.585 4.594 8 5 2.674 3.012 6.007 4.678 10 5 3.597 3.29 7.597 5.79 12 7.5a970.629 970.629 0 0 0 19 37 1049.474 1049.474 0 0 0-1.5 46c-1.232 2.8-1.899 5.8-2 9-2.909 2.894-6.409 3.727-10.5 2.5a4018.184 4018.184 0 0 0-61-34.5 847.65 847.65 0 0 1-32-19.5 130.15 130.15 0 0 1-23-13c-3.96.349-6.626-1.317-8-5a70.58 70.58 0 0 0-9-4.5 32.412 32.412 0 0 1-1.5-6c-.5-9.994-.666-19.994-.5-30v-171c-.166-6.342 0-12.675.5-19 .045-2.834.879-5.334 2.5-7.5 3.29-.253 6.29-1.253 9-3a81.314 81.314 0 0 1 19-11 247.89 247.89 0 0 0 25-14.5 24146.368 24146.368 0 0 1 116-67.5c5.14-1.446 9.806-3.78 14-7 4.872-.246 9.705-.746 14.5-1.5a5603.361 5603.361 0 0 0 137.5 78Z"/><path style="opacity:1" fill="#d3f8f5" d="M391.5 100.5c-1.977.649-3.81.649-5.5 0-1.605.601-2.938 1.601-4 3-2.07-2.908-4.57-3.574-7.5-2a5603.361 5603.361 0 0 1-137.5-78 138.219 138.219 0 0 1-14.5 1.5c-4.194 3.22-8.86 5.554-14 7a24146.368 24146.368 0 0 0-116 67.5c-2.338-2.64-4.505-2.306-6.5 1-1.016-1.134-1.683-.8-2 1-1.655-.302-2.988-1.636-4-4l-2 4c-.691-2.391-1.691-2.391-3 0a8.907 8.907 0 0 1-3-4l-2 4c-1.16-2.297-2.16-1.964-3 1a457.036 457.036 0 0 0-4-3 14.505 14.505 0 0 1-4 5c-1.606-3.09-3.273-5.423-5-7-.388 2.215-1.388 3.548-3 4l-1-5c-.793 5.865-2.127 6.198-4 1l-1 4c-.451-2.429-1.285-2.596-2.5-.5 1.017 1.049 1.184 2.216.5 3.5-1-1.333-2-1.333-3 0-.317-1.801-.984-2.134-2-1a10.51 10.51 0 0 1-2.5-3c-.086-.996.248-1.83 1-2.5 7.296-2.064 13.796-5.564 19.5-10.5l1 1c1.049-1.607 2.549-2.273 4.5-2v-3a59.029 59.029 0 0 1 11-3 4.932 4.932 0 0 1 .5-3l1 1c2.015-3.065 4.515-4.065 7.5-3v-3h5v-3c1.7.16 3.366-.007 5-.5 1.478-2.057 3.478-3.39 6-4l-2-1a18.436 18.436 0 0 1 6-.5v-3a87.51 87.51 0 0 0 14-5v-3h6v-3h5v-3c1.701-.466 3.201-.466 4.5 0 3.279-4.047 7.946-7.047 14-9a18.264 18.264 0 0 0 5-4l1 1c1.049-1.607 2.549-2.273 4.5-2v-3h5v-3h6v-3c4.612-1.195 9.279-2.862 14-5v-3c1.701-.466 3.201-.466 4.5 0 .908-1.939 2.408-2.939 4.5-3v-3h6v-3c1.788.285 3.455-.048 5-1a38.767 38.767 0 0 0 7-4.5 49.25 49.25 0 0 1 14 0c2.025 1.677 4.359 2.677 7 3-1.134 1.016-.801 1.683 1 2l5 1-1 1c2.622 3.073 5.955 4.573 10 4.5v3h6v3c3.191.262 5.858 1.596 8 4a9.864 9.864 0 0 0 6 1v3c3.58 1.22 7.247 2.386 11 3.5l-2 1c2.767.678 4.934 2.178 6.5 4.5l1-1c3.769 1.797 7.102 4.13 10 7a3.942 3.942 0 0 1 2-1c1.482 1.612 3.315 2.612 5.5 3v3h6v3h5v3h6v3a87.51 87.51 0 0 0 14 5v3c1.699-.16 3.366.007 5 .5l-1 1c1.525 1.009 3.192 1.509 5 1.5v3h6v3h5v3c2.985-1.065 5.485-.065 7.5 3l1-1c.483.948.649 1.948.5 3h5v3h6v3c2.133 1.386 5.133 2.386 9 3v3c2.908-.238 5.242.762 7 3l2-1c.35 2.067 2.017 3.067 5 3v3Z"/><path style="opacity:1" fill="#d3f8f6" d="M576.5-.5h9a2.429 2.429 0 0 0 .5 2c1.049-1.017 2.216-1.184 3.5-.5a20.495 20.495 0 0 0 2.5 3.5c1.356-.88 2.856-1.214 4.5-1v3c2.822 1.432 6.489 2.432 11 3v3c2.092.061 3.592 1.061 4.5 3 2.537-.677 4.537.323 6 3 2.361-.566 4.194.434 5.5 3l2-1c.35 2.067 2.017 3.067 5 3v3h6v3h5v3h6v3a27.247 27.247 0 0 0 9 3c-.219 1.175.114 2.175 1 3a6.846 6.846 0 0 1 4-1v3a8.435 8.435 0 0 1 4 .5c-1.154.914-.987 1.747.5 2.5 1.299-.466 2.799-.466 4.5 0v3h6v3h5v3a428.986 428.986 0 0 0 20 8.5l-2 1c2.522.61 4.522 1.943 6 4 1.634.493 3.301.66 5 .5v3c2.908-.238 5.242.762 7 3 .951-.826 1.951-.992 3-.5l-1 1a6.977 6.977 0 0 1 3.5 2.5l1-1c.483.948.649 1.948.5 3h6v3h5v3c1.951-.273 3.451.393 4.5 2l1-1c6 4.386 12.5 7.886 19.5 10.5l-1 1c.916.278 1.582.778 2 1.5a4.934 4.934 0 0 0-3 .5c.758 1.364.258 2.531-1.5 3.5-1.342-2.956-3.008-4.956-5-6l-3 3c-.359-3.044-1.026-3.378-2-1l-1-2c-1.77.849-3.437 2.515-5 5a18.924 18.924 0 0 1-3-5l-3 3c-.419-4.352-1.086-4.685-2-1-.667-2.667-1.333-2.667-2 0l-1-2-3 3-1-4c-.952 5.763-2.286 6.097-4 1l-3 3-1-4c-1.077 2.205-1.743 4.205-2 6-1.705-2.477-3.705-3.81-6-4a2.428 2.428 0 0 0-.5 2 237.256 237.256 0 0 1-25-14.5c-3.415-.406-6.082-2.072-8-5l-15-7a974.743 974.743 0 0 0-66-38c-2.365-3.714-5.698-5.714-10-6-7.082-6.364-15.416-9.031-25-8-2.223 2.223-4.889 3.556-8 4a899.957 899.957 0 0 1-57 33.5c-6.813-.991-13.813-1.325-21-1a36.834 36.834 0 0 1 8-4v-3h6v-3a59.031 59.031 0 0 1 11-3v-3c1.808.009 3.475-.491 5-1.5-1.388-.89-1.222-1.39.5-1.5 2.071 1.167 3.571.5 4.5-2 6.434-2.343 12.767-5.343 19-9v-3a59.031 59.031 0 0 1 11-3 4.934 4.934 0 0 1 .5-3l1 1c1.995-2.247 4.495-3.247 7.5-3v-3h5v-3h6v-3c1.808.009 3.475-.491 5-1.5l-1-1a12.936 12.936 0 0 1 5-.5v-3c3.552.188 6.219-1.145 8-4Z"/><path style="opacity:1" fill="#fdfdfd" d="M431.5 147.5a21.435 21.435 0 0 0 1 7c-1.23 1.797-1.896 3.797-2 6-20.675-5.333-41.341-5.333-62 0-.104-2.203-.77-4.203-2-6 1.855-4.047 1.188-7.547-2-10.5-16.05-10.725-31.383-9.892-46 2.5a1566.61 1566.61 0 0 1-73-41.5c-3.415-.406-6.082-2.072-8-5a42.498 42.498 0 0 0-13 0 226.438 226.438 0 0 0-29 17c-3.415.406-6.082 2.072-8 5a90.42 90.42 0 0 1-14 6c-3.574 3.951-7.907 6.618-13 8-6.962 5.648-14.628 9.981-23 13a230.435 230.435 0 0 1-32.5 19.5 2946.23 2946.23 0 0 0-1 153 56.965 56.965 0 0 1 10.5 7.5 78.488 78.488 0 0 1 23 13 55.63 55.63 0 0 1 18 10 340.197 340.197 0 0 1 18 8.5c.167 21.669 0 43.336-.5 65a7214.146 7214.146 0 0 1-125-72 7827.247 7827.247 0 0 1 .5-216.5 583.92 583.92 0 0 0 36-19c3.492-1.624 6.492-3.958 9-7l9-3a520.666 520.666 0 0 1 59-34l4-4 10-4c5.229-4.889 11.229-8.555 18-11l3-3 10-4A112.066 112.066 0 0 1 230 34.5 228.066 228.066 0 0 1 254.5 46a1516.16 1516.16 0 0 0 91 52 108.394 108.394 0 0 0 19 13 546.6 546.6 0 0 1 35 18l6 5c4.935 1.209 8.935 3.875 12 8a114.396 114.396 0 0 1 14 5.5ZM579.5 450.5a2828.833 2828.833 0 0 1 45-90 12.93 12.93 0 0 0 5-.5c4.952-4.639 10.619-7.973 17-10 9.313-5.969 18.646-11.969 28-18 7.819-2.16 14.319-6.327 19.5-12.5.667-48.667.667-97.333 0-146l-3-5a83.62 83.62 0 0 0-18.5-9.5 193.115 193.115 0 0 0-32-19 182.852 182.852 0 0 0-35-20l-5-5a113.107 113.107 0 0 1-28-15c-5.281-.974-10.281-.307-15 2a705.673 705.673 0 0 0-21 12c-4.302.286-7.635 2.286-10 6a43.593 43.593 0 0 0-13 8 684.54 684.54 0 0 0-19 8.5 50.162 50.162 0 0 1-14-8.5 114.065 114.065 0 0 1-14-6 7185.005 7185.005 0 0 0-26-16 2551.356 2551.356 0 0 1 60-36l10-4 4-4c3.463-.788 6.463-2.454 9-5 5.048-1.356 9.381-4.023 13-8 8.64-3.004 16.64-7.337 24-13 8.278-1.768 15.278.565 21 7a90.401 90.401 0 0 1 14 6c1.918 2.928 4.585 4.594 8 5l24 15a457.332 457.332 0 0 0 22 11c3.492 1.624 6.492 3.958 9 7a457.332 457.332 0 0 1 22 11 91.311 91.311 0 0 0 23 13c1.918 2.928 4.585 4.594 8 5a2129.254 2129.254 0 0 0 37.5 21.5 7901.316 7901.316 0 0 1 1.5 216 84.545 84.545 0 0 0-18 8.5 8701.336 8701.336 0 0 1-153 88.5Z"/><path style="opacity:1" fill="#d7f6ef" d="M92.5 99.5a247.89 247.89 0 0 1-25 14.5 81.314 81.314 0 0 0-19 11c-2.71 1.747-5.71 2.747-9 3-1.621 2.166-2.455 4.666-2.5 7.5-.5 6.325-.666 12.658-.5 19-10.127-.921-20.127-.921-30 0 .053-13.316.053-26.483 0-39.5a169.104 169.104 0 0 0 15-5.5v-3a58.967 58.967 0 0 0 11-3v-3h3a10.51 10.51 0 0 0 2.5 3c1.016-1.134 1.683-.801 2 1 1-1.333 2-1.333 3 0 .684-1.284.517-2.451-.5-3.5 1.215-2.096 2.049-1.929 2.5.5l1-4c1.873 5.198 3.207 4.865 4-1l1 5c1.612-.452 2.612-1.785 3-4 1.727 1.577 3.394 3.91 5 7a14.505 14.505 0 0 0 4-5 457.036 457.036 0 0 1 4 3c.84-2.964 1.84-3.297 3-1l2-4a8.907 8.907 0 0 0 3 4c1.309-2.391 2.309-2.391 3 0l2-4c1.012 2.364 2.345 3.698 4 4 .317-1.8.984-2.134 2-1 1.995-3.306 4.162-3.64 6.5-1ZM761.5 100.5h3v3h6v3h5v3c2.041.354 3.874.354 5.5 0 .483.948.649 1.948.5 3 2.836 1.276 5.836 1.942 9 2a219.059 219.059 0 0 1 2 40 197.135 197.135 0 0 0-30 0c.323-6.522-.01-12.855-1-19-.626-2.815-1.96-5.315-4-7.5-3.29-.253-6.29-1.253-9-3a640.545 640.545 0 0 0-39-23.5 2.428 2.428 0 0 1 .5-2c2.295.19 4.295 1.523 6 4 .257-1.795.923-3.795 2-6l1 4 3-3c1.714 5.097 3.048 4.763 4-1l1 4 3-3 1 2c.667-2.667 1.333-2.667 2 0 .914-3.685 1.581-3.352 2 1l3-3a18.924 18.924 0 0 0 3 5c1.563-2.485 3.23-4.151 5-5l1 2c.974-2.378 1.641-2.044 2 1l3-3c1.992 1.044 3.658 3.044 5 6 1.758-.969 2.258-2.136 1.5-3.5a4.934 4.934 0 0 1 3-.5Z"/><path style="opacity:1" fill="#d7f5ec" d="M305.5 154.5a6960.201 6960.201 0 0 0-151 0 3883.584 3883.584 0 0 0 72-43.5c2.243.319 4.41.152 6.5-.5 4.064 4.134 8.897 6.967 14.5 8.5l35 21c5.457 4.21 11.457 7.544 18 10a208.311 208.311 0 0 1 5 4.5Z"/><path style="opacity:1" fill="#d6f5ed" d="M474.5 59.5c7.187-.325 14.187.009 21 1a2999.08 2999.08 0 0 0-64 36.5c-7.588 4.924-7.921 10.257-1 16a287.246 287.246 0 0 1 25 16 496.946 496.946 0 0 1 33 18c4.333.667 8.667.667 13 0a3162.857 3162.857 0 0 1 66-36.5 1389.006 1389.006 0 0 1 75 44c-46.073-.281-91.573-.614-136.5-1a977.79 977.79 0 0 0-14.5 2 260.739 260.739 0 0 1-15-12.5c-11.054-7.043-22.72-8.21-35-3.5a97.332 97.332 0 0 1-11-4.5 50.886 50.886 0 0 0-10-7 528.339 528.339 0 0 1-46-26.5c2.93-1.574 5.43-.908 7.5 2 1.062-1.399 2.395-2.399 4-3 1.69.649 3.523.649 5.5 0h6v3c2.516-.255 4.85-1.089 7-2.5a626.207 626.207 0 0 1 29-17c.837-1.011 1.17-2.178 1-3.5 4.493-.216 7.993-2.216 10.5-6 1.011.837 2.178 1.17 3.5 1v-3a59.031 59.031 0 0 0 11-3v-3c1.808.009 3.475-.491 5-1.5l-1-1a12.935 12.935 0 0 1 5-.5v-3c2.235.295 4.235-.039 6-1Z"/><path style="opacity:1" fill="#1e2023" d="M366.5 154.5a11.596 11.596 0 0 1-7 .5c-9.275-8.661-19.275-9.661-30-3a4922.167 4922.167 0 0 0-50.5 43.5c2.022 5.062 5.355 9.395 10 13 .833 2.671.333 5.004-1.5 7-2.238 1.037-4.571 1.203-7 .5a101.553 101.553 0 0 1-11.5-12.5 6706.544 6706.544 0 0 0-105 90c-2.915 5.488-3.248 11.155-1 17a28875.74 28875.74 0 0 1 100.5 204c-3.899 1.291-7.899 1.291-12 0a3904.736 3904.736 0 0 1-37-75l-13-24a824.792 824.792 0 0 0-16-35 970.629 970.629 0 0 1-19-37 708.659 708.659 0 0 1-15.5-32 72.464 72.464 0 0 1 0-17 50.656 50.656 0 0 0 3.5-8 1377.933 1377.933 0 0 0 47-41l57-48a84.338 84.338 0 0 0 12-10 815.244 815.244 0 0 1 37-31l11-10c14.617-12.392 29.95-13.225 46-2.5 3.188 2.953 3.855 6.453 2 10.5ZM491.5 155.5a75915.26 75915.26 0 0 1 37 32c3.5 3.331 7.166 6.498 11 9.5a4.934 4.934 0 0 0 3 .5c1.382 2.894 3.382 5.394 6 7.5a2461.069 2461.069 0 0 0 47 38.5c0 .667.333 1 1 1a1439.897 1439.897 0 0 0 48 42 50.656 50.656 0 0 0 3.5 8 72.464 72.464 0 0 1 0 17 710.083 710.083 0 0 1-15.5 32 199.613 199.613 0 0 0-8 17 2828.833 2828.833 0 0 0-45 90 82.866 82.866 0 0 0-9 19c-2.218 2.613-3.885 5.613-5 9-4.384 1.675-8.384 1.342-12-1l82.5-167c3.568-9.179 1.402-16.679-6.5-22.5a5968.991 5968.991 0 0 1-99.5-84.5 101.553 101.553 0 0 1-11.5 12.5c-2.429.703-4.762.537-7-.5-1.833-1.996-2.333-4.329-1.5-7 4.645-3.605 7.978-7.938 10-13a4922.167 4922.167 0 0 0-50.5-43.5c-11.012-6.696-21.345-5.696-31 3-2.045.49-4.045.323-6-.5a21.435 21.435 0 0 1-1-7 44.367 44.367 0 0 1 10-8c12.28-4.71 23.946-3.543 35 3.5a260.739 260.739 0 0 0 15 12.5Z"/><path style="opacity:1" fill="#f9db7d" d="M366.5 154.5c1.23 1.797 1.896 3.797 2 6-33.234 10.128-58.234 30.462-75 61a25.658 25.658 0 0 1-6-6c1.833-1.996 2.333-4.329 1.5-7-4.645-3.605-7.978-7.938-10-13a4922.167 4922.167 0 0 1 50.5-43.5c10.725-6.661 20.725-5.661 30 3 2.385.556 4.718.39 7-.5ZM511.5 215.5a25.658 25.658 0 0 1-6 6c-16.749-30.533-41.749-50.867-75-61 .104-2.203.77-4.203 2-6 1.955.823 3.955.99 6 .5 9.655-8.696 19.988-9.696 31-3a4922.167 4922.167 0 0 1 50.5 43.5c-2.022 5.062-5.355 9.395-10 13-.833 2.671-.333 5.004 1.5 7Z"/><path style="opacity:1" fill="#d9f5e9" d="M642.5 154.5a2259.205 2259.205 0 0 1 39.5 22c.5 16.33.667 32.663.5 49a380.934 380.934 0 0 1-1-39 5853.405 5853.405 0 0 0-153 1 75915.26 75915.26 0 0 0-37-32 977.79 977.79 0 0 1 14.5-2c44.927.386 90.427.719 136.5 1ZM305.5 154.5c1.333 0 2 .667 2 2a815.244 815.244 0 0 0-37 31 6163.664 6163.664 0 0 0-157-1v22h-1c-.166-10.006 0-20.006.5-30 6.664-3.313 12.831-7.48 18.5-12.5a147.625 147.625 0 0 0 23-11.5 6960.201 6960.201 0 0 1 151 0Z"/><path style="opacity:1" fill="#1e1f23" d="M430.5 160.5c33.251 10.133 58.251 30.467 75 61a118.071 118.071 0 0 1 9.5 27l69 59 .5 2.5A8870.826 8870.826 0 0 1 510 444.5c-3.757 4.628-8.59 7.295-14.5 8h-25v26c-.667 0-1 .333-1 1h-9a266.974 266.974 0 0 1-1.5-22c-11.585 5.272-23.752 8.438-36.5 9.5a334.922 334.922 0 0 1-60-2 79.376 79.376 0 0 1-22.5-7.5 146.503 146.503 0 0 1-2 23c-2.401 1.102-4.901 1.269-7.5.5-1.323-.816-1.989-1.983-2-3.5v-25h-26c-5.422-.966-9.922-3.633-13.5-8A8870.826 8870.826 0 0 1 214.5 310c1.175-3.19 3.175-5.857 6-8l63.5-53.5a118.071 118.071 0 0 1 9.5-27c16.766-30.538 41.766-50.872 75-61 20.659-5.333 41.325-5.333 62 0Z"/><path style="opacity:1" fill="#fcde7e" d="M383.5 168.5c55.989-3.791 95.156 19.876 117.5 71 12.985 45.567 2.485 84.734-31.5 117.5-34.35 27.004-72.016 32.671-113 17-50.469-26.439-70.969-67.939-61.5-124.5 13.806-44.312 43.306-71.312 88.5-81Z"/><path style="opacity:1" fill="#dbf5e6" d="M36.5 154.5v90c-10.107-.879-20.107-.879-30 0v-90c9.873-.921 19.873-.921 30 0Z"/><path style="opacity:1" fill="#dbf4e4" d="M270.5 187.5a84.338 84.338 0 0 1-12 10 8.43 8.43 0 0 0-4 .5 490.08 490.08 0 0 1-48 29l-4.5 4.5a18.453 18.453 0 0 0-.5 6c-.968 2.107-1.302 4.441-1 7h-87v-58c52.503-.332 104.836.001 157 1ZM528.5 187.5a5853.405 5853.405 0 0 1 153-1 380.934 380.934 0 0 0 1 39c.233 1.562.9 2.895 2 4v15h-88c-.667 0-1-.333-1-1a98.432 98.432 0 0 0-.5-14 111.89 111.89 0 0 0-25.5-14.5l-4-4a73.753 73.753 0 0 1-23-13.5 4.934 4.934 0 0 1-3-.5 150.774 150.774 0 0 1-11-9.5Z"/><path style="opacity:1" fill="#dbf5e6" d="M792.5 154.5v90a343.66 343.66 0 0 0-29 0c-1-29.993-1.333-59.993-1-90a197.135 197.135 0 0 1 30 0Z"/><path style="opacity:1" fill="#273339" d="m258.5 197.5-57 48v-8a18.453 18.453 0 0 1 .5-6l4.5-4.5a490.08 490.08 0 0 0 48-29 8.43 8.43 0 0 1 4-.5ZM542.5 197.5a73.753 73.753 0 0 0 23 13.5l4 4a111.89 111.89 0 0 1 25.5 14.5c.499 4.655.666 9.321.5 14a2461.069 2461.069 0 0 1-47-38.5c-2.618-2.106-4.618-4.606-6-7.5Z"/><path style="opacity:1" fill="#d0dee3" d="M287.5 215.5a25.658 25.658 0 0 0 6 6 118.071 118.071 0 0 0-9.5 27L220.5 302c-2.825 2.143-4.825 4.81-6 8A8870.826 8870.826 0 0 0 289 444.5c3.578 4.367 8.078 7.034 13.5 8 8.15.993 16.483 1.326 25 1-.326 8.184.008 16.184 1 24 .011 1.517.677 2.684 2 3.5 2.599.769 5.099.602 7.5-.5a146.503 146.503 0 0 0 2-23 79.376 79.376 0 0 0 22.5 7.5 334.922 334.922 0 0 0 60 2c12.748-1.062 24.915-4.228 36.5-9.5.201 7.412.701 14.746 1.5 22a30.233 30.233 0 0 0-3.5 3c-.5 36.332-.667 72.665-.5 109h-34c.167-36.335 0-72.668-.5-109a6.978 6.978 0 0 0-3.5-2.5 1224.638 1224.638 0 0 0-70 0l-1.5 1.5a484.008 484.008 0 0 0 0 44l1.5 1.5c7.993.5 15.993.666 24 .5.332 42.837-.001 85.503-1 128v-64h-39c.166-10.339 0-20.672-.5-31l-1.5-1.5a276.797 276.797 0 0 0-40-1.5c.167-13.337 0-26.671-.5-40l-1.5-1.5a340.496 340.496 0 0 1-25-1.5 28875.74 28875.74 0 0 0-100.5-204c-2.248-5.845-1.915-11.512 1-17a6706.544 6706.544 0 0 1 105-90 101.553 101.553 0 0 0 11.5 12.5c2.429.703 4.762.537 7-.5Z"/><path style="opacity:1" fill="#d0dfe4" d="m553.5 477.5-2 2c-27.172.331-54.172-.002-81-1v-1c.992-7.816 1.326-15.816 1-24 8.184.326 16.184-.008 24-1 5.91-.705 10.743-3.372 14.5-8A8870.826 8870.826 0 0 0 584.5 310l-.5-2.5-69-59a118.071 118.071 0 0 0-9.5-27 25.658 25.658 0 0 0 6-6c2.238 1.037 4.571 1.203 7 .5a101.553 101.553 0 0 0 11.5-12.5 5968.991 5968.991 0 0 0 99.5 84.5c7.902 5.821 10.068 13.321 6.5 22.5l-82.5 167Z"/><path style="opacity:1" fill="#1f1f22" d="M345.5 215.5c21.529-.639 31.696 9.695 30.5 31-4.636 14.944-14.802 21.444-30.5 19.5-17.479-7.075-22.979-19.575-16.5-37.5 4.166-6.15 9.666-10.483 16.5-13ZM441.5 215.5c25.741.567 35.241 13.233 28.5 38-10.629 13.866-23.462 16.366-38.5 7.5-10.082-10.71-11.582-22.543-4.5-35.5 4.208-4.397 9.042-7.731 14.5-10Z"/><path style="opacity:1" fill="#e7eff2" d="M347.5 226.5c15.671.687 20.838 8.354 15.5 23-10.044 8.994-18.377 7.661-25-4-1.629-8.741 1.537-15.074 9.5-19ZM444.5 226.5c14.964 1.26 19.798 8.927 14.5 23-7.633 7.913-15.3 7.913-23 0-4.976-10.694-2.143-18.361 8.5-23Z"/><path style="opacity:1" fill="#def1dd" d="M112.5 208.5h1v36h87c-.302-2.559.032-4.893 1-7v8a1377.933 1377.933 0 0 1-47 41h-41c.31-3.213-.023-6.213-1-9v-69ZM596.5 244.5h88v42h-40a1439.897 1439.897 0 0 1-48-42Z"/><path style="opacity:1" fill="#263137" d="M282.5 290.5a576.628 576.628 0 0 0-1 48v68a337.406 337.406 0 0 0-13-21 1485.996 1485.996 0 0 0 0-109 202.038 202.038 0 0 1 12.5-11c.259 8.367.759 16.7 1.5 25Z"/><path style="opacity:1" fill="#263238" d="M528.5 274.5a1475.451 1475.451 0 0 0-.5 94c5.855-2.545 11.355-5.545 16.5-9a2123.171 2123.171 0 0 0-11 20c-2.054.216-4.054 1.382-6 3.5-3.456 1.123-6.29.29-8.5-2.5a511.925 511.925 0 0 1-.5-32c-.283-.789-.783-1.456-1.5-2a1191.857 1191.857 0 0 0-1.5-49 42.47 42.47 0 0 1 1.5-5l1-27a173.234 173.234 0 0 1 10.5 9Z"/><path style="opacity:1" fill="#fbfbfc" d="M528.5 274.5a1606.373 1606.373 0 0 0 43 37c-9.012 16.027-18.012 32.027-27 48-5.145 3.455-10.645 6.455-16.5 9-.831-31.503-.664-62.836.5-94Z"/><path style="opacity:1" fill="#fcfcfc" d="M268.5 276.5a1485.996 1485.996 0 0 1 0 109 36208.29 36208.29 0 0 0-41-74 1689.742 1689.742 0 0 1 41-35Z"/><path style="opacity:1" fill="#e0f1d9" d="M36.5 244.5v81h-30v-81c9.893-.879 19.893-.879 30 0Z"/><path style="opacity:1" fill="#dfeed5" d="M112.5 277.5c.977 2.787 1.31 5.787 1 9h41a50.656 50.656 0 0 1-3.5 8 72.464 72.464 0 0 0 0 17 708.659 708.659 0 0 0 15.5 32c-4.403-1.71-8.403-4.21-12-7.5-3.993-.322-7.326-1.988-10-5-3.415-.406-6.082-2.072-8-5l-10-4c-4.032-3.676-8.699-6.176-14-7.5v-37Z"/><path style="opacity:1" fill="#ddebd3" d="M684.5 229.5a1807.264 1807.264 0 0 1 1 85 12.93 12.93 0 0 0-5 .5 679.07 679.07 0 0 0-23 15l-4 1a385.347 385.347 0 0 1-21 12.5 710.083 710.083 0 0 0 15.5-32 72.464 72.464 0 0 0 0-17 50.656 50.656 0 0 1-3.5-8h40v-57Z"/><path style="opacity:1" fill="#ddeed7" d="M761.5 135.5c.99 6.145 1.323 12.478 1 19-.333 30.007 0 60.007 1 90a343.66 343.66 0 0 1 29 0v81h-30c.327 10.181-.006 20.181-1 30v-220Z"/><path style="opacity:1" fill="#e1eccf" d="M282.5 290.5c2.547 23.419 11.38 44.086 26.5 62a265.628 265.628 0 0 1 13.5 14 25.707 25.707 0 0 0-4.5 1c-.945-.405-1.612-1.072-2-2 .57 2.193.236 4.193-1 6a7.293 7.293 0 0 0-2-3c-.667 1.333-1.333 1.333-2 0-.26-2.118-1.26-3.784-3-5-1.309 2.391-2.309 2.391-3 0-.691 2.391-1.691 2.391-3 0a7.293 7.293 0 0 0-2 3 455.529 455.529 0 0 1-4-3c-.691 2.391-1.691 2.391-3 0a7.293 7.293 0 0 0-2 3 455.529 455.529 0 0 1-4-3l-2 4c-.667-1.333-1.333-1.333-2 0-.17-9.842-.67-19.509-1.5-29a576.628 576.628 0 0 1 1-48Z"/><path style="opacity:1" fill="#252525" d="M376.5 315.5c15.004-.167 30.004 0 45 .5 4.891 1.709 6.058 4.875 3.5 9.5a11.333 11.333 0 0 1-3.5 1.5c-15 .667-30 .667-45 0-5.252-3.827-5.252-7.66 0-11.5Z"/><path style="opacity:1" fill="#e1eccf" d="M515.5 297.5a1191.857 1191.857 0 0 1 1.5 49c.717.544 1.217 1.211 1.5 2-.99 6.145-1.323 12.478-1 19a3210.005 3210.005 0 0 0-43 0c21.879-18.411 35.546-41.744 41-70Z"/><path style="opacity:1" fill="#e3eed1" d="M792.5 325.5v40c-3.013-.128-5.513.872-7.5 3a14.093 14.093 0 0 0-3.5-1 1028.12 1028.12 0 0 0-32 0c3.425-2.909 7.259-5.242 11.5-7a12.93 12.93 0 0 0 .5-5c.994-9.819 1.327-19.819 1-30h30Z"/><path style="opacity:1" fill="#e5ebca" d="M281.5 338.5c.83 9.491 1.33 19.158 1.5 29 .667-1.333 1.333-1.333 2 0l2-4c1.137.864 2.47 1.864 4 3a7.293 7.293 0 0 1 2-3c1.309 2.391 2.309 2.391 3 0 1.137.864 2.47 1.864 4 3a7.293 7.293 0 0 1 2-3c1.309 2.391 2.309 2.391 3 0 .691 2.391 1.691 2.391 3 0 1.74 1.216 2.74 2.882 3 5 .667 1.333 1.333 1.333 2 0a7.293 7.293 0 0 1 2 3c1.236-1.807 1.57-3.807 1-6 .388.928 1.055 1.595 2 2a25.707 25.707 0 0 1 4.5-1c36.238 28.428 76.238 34.928 120 19.5 11.48-4.902 22.146-11.068 32-18.5 14.173-.096 28.507-.096 43 0-.323-6.522.01-12.855 1-19-.167 10.672 0 21.339.5 32 2.21 2.79 5.044 3.623 8.5 2.5 1.946-2.118 3.946-3.284 6-3.5-4.682 8.035-9.348 16.035-14 24h-238v-65Z"/><path style="opacity:1" fill="#e4eccc" d="M6.5 325.5h30c-.166 10.006 0 20.006.5 30 .31 2.056.81 4.056 1.5 6a70.58 70.58 0 0 1 9 4.5c1.374 3.683 4.04 5.349 8 5a130.15 130.15 0 0 0 23 13 847.65 847.65 0 0 0 32 19.5h-35c-1.765-.961-3.765-1.295-6-1v-3h-5v-3a544.412 544.412 0 0 1-29-14v-3a58.967 58.967 0 0 1-11-3v-3h-6v-3c-4.013-1.674-8.013-3.341-12-5v-40Z"/><path style="opacity:1" fill="#e4eac9" d="M781.5 367.5v3c-1.701.466-3.201.466-4.5 0-3.844 1.975-7.177 4.642-10 8l-1-1c-1.049 1.607-2.549 2.273-4.5 2v3c-3.937.204-7.604 1.204-11 3 .381 2.442-.286 3.109-2 2-.886.825-1.219 1.825-1 3h-6v3a12.93 12.93 0 0 0-5 .5c-1.079 2.043-2.746 3.376-5 4l1 1a12.93 12.93 0 0 1-5 .5v3c-2.235-.295-4.235.039-6 1h-36a120.944 120.944 0 0 1 10-6.5c5.325-1.003 9.658-3.67 13-8a377.475 377.475 0 0 0 23-12l8-6a63.089 63.089 0 0 1 10-3.5 1028.12 1028.12 0 0 1 32 0Z"/><path style="opacity:1" fill="#e6e9c5" d="M281.5 403.5h238c-1.18 3.04-2.847 5.706-5 8-13.307 7.623-26.64 15.29-40 23-4.301-7.45-10.634-12.617-19-15.5-35.468-10.62-71.135-11.287-107-2-7.529 2.679-14.363 6.512-20.5 11.5a31.941 31.941 0 0 0-3.5 6 78.855 78.855 0 0 1-15-7.5c-3.456-1.123-6.29-.29-8.5 2.5a50.464 50.464 0 0 0-.5 10c-.958-.453-1.792-1.119-2.5-2a756.817 756.817 0 0 1-16.5-31v-3Z"/><path style="opacity:1" fill="#e6e9c4" d="M185.5 380.5a824.792 824.792 0 0 1 16 35v33a53.956 53.956 0 0 0-2.5-8 925.164 925.164 0 0 0-60.5 1c-1.418-1.808-3.418-2.475-6-2v-3h-3v-3h-6v-3h-5v-3c-2.921.354-5.254-.646-7-3-1.714 1.109-2.381.442-2-2a58.97 58.97 0 0 1-11-3v-3a27.267 27.267 0 0 0-9-3v-3c-2.908.238-5.242-.762-7-3a3.647 3.647 0 0 0-1.5 1c-1.667-1-3-2.333-4-4-1.107 1.212-1.607.879-1.5-1h35a4018.184 4018.184 0 0 1 61 34.5c4.091 1.227 7.591.394 10.5-2.5.101-3.2.768-6.2 2-9 .169-15.505.669-30.839 1.5-46Z"/><path style="opacity:1" fill="#e7e9c4" d="M685.5 403.5h36c-3.346 1.186-6.179 3.186-8.5 6l-1-1c-1.049 1.607-2.549 2.273-4.5 2v3h-6v3h-5v3c-2.185.388-4.018 1.388-5.5 3-2.278-1.12-3.778-.287-4.5 2.5a101.955 101.955 0 0 0-13 5.5v3h-6v3h-6v3c-1.788-.285-3.455.048-5 1 .956 2.2.29 2.533-2 1-11.239-.478-22.905-.478-35 0 21.986-12.661 43.986-25.327 66-38Z"/><path style="opacity:1" fill="#28343a" d="m514.5 411.5-10 20c.065-.438-.101-.772-.5-1a77.763 77.763 0 0 1-18.5 10.5c2.982.498 5.982.665 9 .5-6.161.768-12.494.768-19 0 .202-2.45-.131-4.783-1-7 13.36-7.71 26.693-15.377 40-23Z"/><path style="opacity:1" fill="#273339" d="m201.5 415.5 13 24a3480.157 3480.157 0 0 0-1 118h29c-.167-13.337 0-26.671.5-40 2.714-1.496 5.547-2.496 8.5-3 4.101 1.291 8.101 1.291 12 0a340.496 340.496 0 0 0 25 1.5l1.5 1.5c.5 13.329.667 26.663.5 40a276.797 276.797 0 0 1 40 1.5l1.5 1.5c.5 10.328.666 20.661.5 31a72.367 72.367 0 0 1-.5 12l-1.5 1.5c-13.329.5-26.663.667-40 .5v5a73.86 73.86 0 0 0 9 3.5l27 17a90.42 90.42 0 0 0 14 6 523.182 523.182 0 0 0 22 15 73.86 73.86 0 0 1 9 3.5 4095.618 4095.618 0 0 0 1-128c-8.007.166-16.007 0-24-.5l-1.5-1.5a484.008 484.008 0 0 1 0-44l1.5-1.5c23.333-.667 46.667-.667 70 0a6.978 6.978 0 0 1 3.5 2.5c.5 36.332.667 72.665.5 109v66a115.356 115.356 0 0 0 12-5.5 446.973 446.973 0 0 1 21.5-14.5c.5-15.33.667-30.663.5-46-.167-36.335 0-72.668.5-109a30.233 30.233 0 0 1 3.5-3h9a841.21 841.21 0 0 0 82 0l2-2c3.616 2.342 7.616 2.675 12 1 8.203.724 16.536 1.39 25 2 .676 2.596 2.176 4.596 4.5 6 .5 27.665.667 55.331.5 83 .167 24.336 0 48.669-.5 73-1.887 1.526-2.887 3.526-3 6-.827 13.84-.661 27.506.5 41 .166 6.342 0 12.675-.5 19a11.333 11.333 0 0 1-1.5 3.5 268.963 268.963 0 0 1-39 1.5 750.264 750.264 0 0 0-67-.5 1147.103 1147.103 0 0 1-31 17c-3.25 3.637-7.25 5.97-12 7-3.492 1.624-6.492 3.958-9 7-6.761 1.869-12.761 5.202-18 10-4.976 2.639-10.31 4.472-16 5.5a54.915 54.915 0 0 1-10-2.5 272.946 272.946 0 0 0-30-17.5 1024.25 1024.25 0 0 1-57-33.5 24.569 24.569 0 0 1-8-3 266.7 266.7 0 0 0-39-22.5 353.513 353.513 0 0 1-20-13.5 285.561 285.561 0 0 0-26-13 18.839 18.839 0 0 0-6.5-5.5l-1-43a7.293 7.293 0 0 1-2-3c-.5-6.325-.666-12.658-.5-19-.166-7.674 0-15.341.5-23l2-2c.5-11.995.667-23.995.5-36v-107Z"/><path style="opacity:1" fill="#a8afb8" d="M381.5 421.5a292.292 292.292 0 0 1 55 3.5c9.722 1.903 18.555 5.736 26.5 11.5.667 1.667.667 3.333 0 5a47.705 47.705 0 0 1-12.5 7.5c-22.157 6.943-44.824 9.276-68 7-15.737-.267-30.404-4.267-44-12-4.367-4.502-3.701-8.168 2-11a64.902 64.902 0 0 1 14-6 4109.143 4109.143 0 0 1 27-5.5Z"/><path style="opacity:1" fill="#28343a" d="M324.5 434.5c-.869 2.217-1.202 4.55-1 7a45.945 45.945 0 0 0-12.5 1c-3.805-.407-7.305-1.407-10.5-3-.165-3.35.002-6.683.5-10 2.21-2.79 5.044-3.623 8.5-2.5a78.855 78.855 0 0 0 15 7.5Z"/><path style="opacity:1" fill="#eaebeb" d="M504.5 431.5c-1.689 5.022-5.022 8.356-10 10a40.914 40.914 0 0 1-9-.5 77.763 77.763 0 0 0 18.5-10.5c.399.228.565.562.5 1Z"/><path style="opacity:1" fill="#ebe8be" d="M201.5 448.5v74c-4.693-1.86-9.693-2.526-15-2 .167-18.67 0-37.336-.5-56-12.12-8.056-24.787-14.723-38-20l-1 1c-2.768-1.701-5.601-3.034-8.5-4a925.164 925.164 0 0 1 60.5-1 53.956 53.956 0 0 1 2.5 8Z"/><path style="opacity:1" fill="#e9e8be" d="M654.5 441.5c-1.38 3.529-3.713 4.529-7 3v3c-3.096-.593-5.429.407-7 3a47.25 47.25 0 0 1-7 3v3h-6v3c-1.788-.285-3.455.048-5 1a28.335 28.335 0 0 0-9.5 6l-1-1c-1.049 1.607-2.549 2.273-4.5 2v13h-17c-8.464-.61-16.797-1.276-25-2 1.115-3.387 2.782-6.387 5-9a548.658 548.658 0 0 1 49-28c12.095-.478 23.761-.478 35 0Z"/><path style="opacity:1" fill="#fdfdfd" d="M214.5 439.5a3904.736 3904.736 0 0 0 37 75c-2.953.504-5.786 1.504-8.5 3a799.793 799.793 0 0 0-.5 40h-29c-.332-39.504.001-78.837 1-118Z"/><path style="opacity:1" fill="#6ea3a7" d="M302.5 452.5h26v25c-.992-7.816-1.326-15.816-1-24-8.517.326-16.85-.007-25-1Z"/><path style="opacity:1" fill="#6da2a7" d="M495.5 452.5c-7.816.992-15.816 1.326-24 1 .326 8.184-.008 16.184-1 24v-25h25Z"/><path style="opacity:1" fill="#4e5c61" d="M470.5 478.5c26.828.998 53.828 1.331 81 1a841.21 841.21 0 0 1-82 0c0-.667.333-1 1-1Z"/><path style="opacity:1" fill="#a88284" d="M414.5 488.5h-60v31c-.994-10.487-1.328-21.154-1-32a931.31 931.31 0 0 1 61 1Z"/><path style="opacity:1" fill="#e4a8a8" d="M414.5 488.5v9h-60v-9h60Z"/><path style="opacity:1" fill="#deacab" d="M354.5 497.5h60v9a664.05 664.05 0 0 0-60 0v-9Z"/><path style="opacity:1" fill="#d7b1af" d="M414.5 506.5v8a664.05 664.05 0 0 0-60 0v-8a664.05 664.05 0 0 1 60 0Z"/><path style="opacity:1" fill="#ceb7b4" d="M414.5 514.5v14a449.255 449.255 0 0 0-34 0c.284-1.915-.049-3.581-1-5-.011-1.517-.677-2.684-2-3.5-7.659-.5-15.326-.666-23-.5v-5a664.05 664.05 0 0 1 60 0Z"/><path style="opacity:1" fill="#f0e5b2" d="M186.5 520.5c5.307-.526 10.307.14 15 2 .167 12.005 0 24.005-.5 36l-2 2c-.5 7.659-.666 15.326-.5 23h-12v-63Z"/><path style="opacity:1" fill="#efe5b3" d="M590.5 480.5h17c-.166 8.007 0 16.007.5 24 .414.457.914.791 1.5 1 1 25.991 1.333 51.991 1 78h-14c.319-4.863-.014-9.53-1-14 .167-27.669 0-55.335-.5-83-2.324-1.404-3.824-3.404-4.5-6Z"/><path style="opacity:1" fill="#babcba" d="M282.5 546.5h-32v-24h32v24Z"/><path style="opacity:1" fill="#b9c0c0" d="M414.5 528.5v18h-34v-18a449.255 449.255 0 0 1 34 0Z"/><path style="opacity:1" fill="#a6c1c6" d="M250.5 546.5h32v9h-32v-9Z"/><path style="opacity:1" fill="#9dc1ca" d="M380.5 546.5h34v16h-34v-16Z"/><path style="opacity:1" fill="#8abecd" d="M250.5 555.5h32c-.506 3.507.16 6.674 2 9.5 13.329.5 26.663.667 40 .5v5a5409.628 5409.628 0 0 0-118 0v-5c14.004.167 28.004 0 42-.5 1.84-2.826 2.506-5.993 2-9.5Z"/><path style="opacity:1" fill="#7cc1d6" d="M324.5 570.5v7h-118v-7c39.452-.429 78.785-.429 118 0Z"/><path style="opacity:1" fill="#81c1d4" d="M380.5 562.5h34v15h-34v-15Z"/><path style="opacity:1" fill="#385662" d="M324.5 565.5c.995 10.821 1.328 21.821 1 33h-41a400.456 400.456 0 0 1 40-1v-32Z"/><path style="opacity:1" fill="#6fc1db" d="M206.5 577.5h118v12h-118v-12Z"/><path style="opacity:.985" fill="#1f2124" d="M186.5 585.5c8.33-.2 10.663 3.3 7 10.5-2.536.186-4.869.686-7 1.5-7.378-1.667-8.711-5.501-4-11.5a8.43 8.43 0 0 1 4-.5Z"/><path style="opacity:.977" fill="#1f2023" d="M610.5 585.5c7.989-.181 10.322 3.319 7 10.5-2.177 1.202-4.511 1.702-7 1.5-4.319.13-6.652-2.036-7-6.5.759-3.725 3.093-5.558 7-5.5Z"/><path style="opacity:1" fill="#67bfdf" d="M206.5 589.5h118v8a400.456 400.456 0 0 0-40 1c-1.681 3.082-2.348 6.415-2 10h-32c.6-4.016-.4-7.516-3-10.5a840.27 840.27 0 0 0-41-.5v-8Z"/><path style="opacity:1" fill="#69bfde" d="M380.5 577.5h34v31h-34v-31Z"/><path style="opacity:1" fill="#fbfbfb" d="M213.5 605.5h29a840.27 840.27 0 0 0 .5 41l1.5 1.5c14.667.667 29.333.667 44 0l1.5-1.5 1-24a42.319 42.319 0 0 1 8.5 6.5 420.445 420.445 0 0 0 32 17c2.365 3.714 5.698 5.714 10 6a387.056 387.056 0 0 0 23 13l-16 1-1.5 1.5a484.008 484.008 0 0 0 0 44l1.5 1.5c32.667.667 65.333.667 98 0a6.978 6.978 0 0 0 2.5-3.5 420.29 420.29 0 0 0 0-41 6.978 6.978 0 0 0-3.5-2.5l-12-1a736.57 736.57 0 0 0 22.5-12.5l1 58a6.978 6.978 0 0 0 3.5 2.5 2601.643 2601.643 0 0 0-62 35.5 97.288 97.288 0 0 0-12-5.5c-3.543-1.608-6.543-3.942-9-7-5.662-.917-10.329-3.583-14-8a78.488 78.488 0 0 1-23-13c-3.415-.406-6.082-2.072-8-5-8.372-3.019-16.038-7.352-23-13-5.093-1.382-9.426-4.049-13-8-6.4-2.062-12.067-5.396-17-10l-10-4-4-4a77.598 77.598 0 0 1-23-13 90.42 90.42 0 0 1-14-6 45.999 45.999 0 0 0-13-8l-1.5-1.5a684.346 684.346 0 0 1-.5-37Z"/><path style="opacity:1" fill="#f1e1a7" d="M332.5 591.5h39v64a73.86 73.86 0 0 0-9-3.5 523.182 523.182 0 0 1-22-15 90.42 90.42 0 0 1-14-6l-27-17a73.86 73.86 0 0 1-9-3.5v-5c13.337.167 26.671 0 40-.5l1.5-1.5c.499-3.986.666-7.986.5-12Z"/><path style="opacity:1" fill="#f0dfa6" d="M422.5 591.5h34c.167 15.337 0 30.67-.5 46a446.973 446.973 0 0 0-21.5 14.5 115.356 115.356 0 0 1-12 5.5v-66Z"/><path style="opacity:1" fill="#70b8e0" d="M380.5 608.5h34v6h-34v-6Z"/><path style="opacity:1" fill="#77b6e0" d="M250.5 608.5h32v12h-32v-12Z"/><path style="opacity:1" fill="#75a5cb" d="M379.5 523.5c.951 1.419 1.284 3.085 1 5v86h34v11h-34v44h-1v-146Z"/><path style="opacity:1" fill="#f4e0a3" d="M186.5 583.5h12c-.166 6.342 0 12.675.5 19a7.293 7.293 0 0 0 2 3l1 43a18.839 18.839 0 0 1 6.5 5.5 285.561 285.561 0 0 1 26 13 353.513 353.513 0 0 0 20 13.5c-2.948.277-5.781-.056-8.5-1-1.824 1.249-1.657 2.415.5 3.5l-2.5 2.5c-2.826-1.417-2.993-2.917-.5-4.5-1.701-.345-3.034.322-4 2-.096 1.373.07 2.873.5 4.5-1.147.958-2.147.625-3-1-1.981 3.861-3.814 3.861-5.5 0 2.473-1.598 2.473-3.098 0-4.5l1-1c-1.167-.5-2-1.333-2.5-2.5-.317 1.801-.984 2.134-2 1-2.386 2.658-4.386 2.325-6-1l-1 2a41.03 41.03 0 0 0-5.5 0c-1.041-2.491-1.874-2.491-2.5 0-.741-1.141-1.575-1.141-2.5 0a4.457 4.457 0 0 1-2-1.5l1-3-1.5-1.5a55.05 55.05 0 0 1-6.5 6c.204-1.029-.296-2.029-1.5-3-1.204.971-1.704 1.971-1.5 3-1-1.333-2-1.333-3 0a14.972 14.972 0 0 1-3.5-3 14.698 14.698 0 0 1-3.5 3c-1.992-27.313-2.658-54.98-2-83 2.131-.814 4.464-1.314 7-1.5 3.663-7.2 1.33-10.7-7-10.5v-2Z"/><path style="opacity:1" fill="#89aedf" d="M250.5 620.5h32v10h-32v-10Z"/><path style="opacity:1" fill="#f3e0a4" d="M595.5 569.5c.986 4.47 1.319 9.137 1 14h14v2c-3.907-.058-6.241 1.775-7 5.5.348 4.464 2.681 6.63 7 6.5a1483 1483 0 0 1-1 77c-1.671 2.01-2.338 4.343-2 7-3.064 1.19-5.731 2.857-8 5h-3v3h-4c-1.161-13.494-1.327-27.16-.5-41 .113-2.474 1.113-4.474 3-6 .5-24.331.667-48.664.5-73Z"/><path style="opacity:1" fill="#95a3d6" d="M250.5 630.5h32v11h-32v-11Z"/><path style="opacity:1" fill="#94aade" d="M414.5 625.5v11h-34v-11h34Z"/><path style="opacity:1" fill="#aaa3db" d="M380.5 636.5h34v33c-.897-1.098-1.73-1.098-2.5 0-.667-2.667-1.333-2.667-2 0-.667-2.667-1.333-2.667-2 0-2.667-1.333-5.333-1.333-8 0-.667-2.667-1.333-2.667-2 0-.667-2.667-1.333-2.667-2 0-2.667-1.333-5.333-1.333-8 0-.667-2.667-1.333-2.667-2 0-1.66-.666-3.494-.666-5.5 0v-33Z"/><path style="opacity:1" fill="#a2a8d7" d="M414.5 669.5c.973 1.639 2.306 2.973 4 4 7.148.992 14.481 1.325 22 1v3h-86v-4c7.674.166 15.341 0 23-.5 1.323-.816 1.989-1.983 2-3.5h1c2.006-.666 3.84-.666 5.5 0 .667-2.667 1.333-2.667 2 0 2.667-1.333 5.333-1.333 8 0 .667-2.667 1.333-2.667 2 0 .667-2.667 1.333-2.667 2 0 2.667-1.333 5.333-1.333 8 0 .667-2.667 1.333-2.667 2 0 .667-2.667 1.333-2.667 2 0 .77-1.098 1.603-1.098 2.5 0Z"/><path style="opacity:1" fill="#8090b2" d="M418.5 673.5h23c.328 10.846-.006 21.513-1 32v-31c-7.519.325-14.852-.008-22-1Z"/><path style="opacity:1" fill="#f7de9e" d="M254.5 680.5a266.7 266.7 0 0 1 39 22.5 24.569 24.569 0 0 0 8 3 1024.25 1024.25 0 0 0 57 33.5 1156.835 1156.835 0 0 1-68 1c-4.091-1.4-7.424-3.067-10-5v-3h-6v-3h-5v-3a8.43 8.43 0 0 1-4-.5c-4.85-3.699-10.184-6.199-16-7.5v-3h-6v-3c-2.092-.061-3.592-1.061-4.5-3-1.299.466-2.799.466-4.5 0v-3c-1.788.285-3.455-.048-5-1-2.158-3.144-5.158-4.477-9-4v-3a12.93 12.93 0 0 1-5-.5c-2.625-3.031-6.125-5.864-10.5-8.5-2.537.677-4.537-.323-6-3l-1 1c-1.667-1-3-2.333-4-4-1.049 1.017-2.216 1.184-3.5.5l1-1c-1.442-.377-2.442-1.21-3-2.5a14.698 14.698 0 0 0 3.5-3 14.972 14.972 0 0 0 3.5 3c1-1.333 2-1.333 3 0-.204-1.029.296-2.029 1.5-3 1.204.971 1.704 1.971 1.5 3a55.05 55.05 0 0 0 6.5-6l1.5 1.5-1 3a4.457 4.457 0 0 0 2 1.5c.925-1.141 1.759-1.141 2.5 0 .626-2.491 1.459-2.491 2.5 0a41.03 41.03 0 0 1 5.5 0l1-2c1.614 3.325 3.614 3.658 6 1 1.016 1.134 1.683.801 2-1 .5 1.167 1.333 2 2.5 2.5l-1 1c2.473 1.402 2.473 2.902 0 4.5 1.686 3.861 3.519 3.861 5.5 0 .853 1.625 1.853 1.958 3 1-.43-1.627-.596-3.127-.5-4.5.966-1.678 2.299-2.345 4-2-2.493 1.583-2.326 3.083.5 4.5l2.5-2.5c-2.157-1.085-2.324-2.251-.5-3.5 2.719.944 5.552 1.277 8.5 1Z"/><path style="opacity:1" fill="#98aed6" d="M354.5 673.5v4h86v9h-86v19a128.532 128.532 0 0 1 0-32Z"/><path style="opacity:1" fill="#41535f" d="M464.5 487.5v217h119v-217c.999 72.498 1.333 145.165 1 218h-121c-.333-72.835.001-145.502 1-218Z"/><path style="opacity:1" fill="#9bb0da" d="M583.5 677.5v9h-119v-9h119Z"/><path style="opacity:1" fill="#a1a6d5" d="M498.5 668.5a19.602 19.602 0 0 1 2 3.5c15.667.667 31.333.667 47 0 .837-1.011 1.17-2.178 1-3.5h1a17.89 17.89 0 0 1 5.5 1c.667-2.667 1.333-2.667 2 0 2.667-1.333 5.333-1.333 8 0 .667-2.667 1.333-2.667 2 0 .667-2.667 1.333-2.667 2 0 2.667-1.333 5.333-1.333 8 0 .667-2.667 1.333-2.667 2 0 .667-2.667 1.333-2.667 2 0 .77-1.098 1.603-1.098 2.5 0v8h-119v-8c2.006-.666 3.84-.666 5.5 0 .667-2.667 1.333-2.667 2 0 2.667-1.333 5.333-1.333 8 0 .667-2.667 1.333-2.667 2 0 .667-2.667 1.333-2.667 2 0 2.667-1.333 5.333-1.333 8 0 .667-2.667 1.333-2.667 2 0 .667-2.667 1.333-2.667 2 0 .951-.384 1.784-.717 2.5-1Z"/><path style="opacity:1" fill="#aaa3db" d="M549.5 636.5h34v33c-.897-1.098-1.73-1.098-2.5 0-.667-2.667-1.333-2.667-2 0-.667-2.667-1.333-2.667-2 0-2.667-1.333-5.333-1.333-8 0-.667-2.667-1.333-2.667-2 0-.667-2.667-1.333-2.667-2 0-2.667-1.333-5.333-1.333-8 0-.667-2.667-1.333-2.667-2 0a17.89 17.89 0 0 0-5.5-1v-32ZM464.5 636.5h34v32c-.716.283-1.549.616-2.5 1-.667-2.667-1.333-2.667-2 0-.667-2.667-1.333-2.667-2 0-2.667-1.333-5.333-1.333-8 0-.667-2.667-1.333-2.667-2 0-.667-2.667-1.333-2.667-2 0-2.667-1.333-5.333-1.333-8 0-.667-2.667-1.333-2.667-2 0-1.66-.666-3.494-.666-5.5 0v-33Z"/><path style="opacity:1" fill="#94aade" d="M583.5 625.5v11h-34v-11h34ZM464.5 625.5h34v11h-34v-11Z"/><path style="opacity:1" fill="#75a5cc" d="M548.5 523.5c.951 1.419 1.284 3.085 1 5v86h34v11h-34v43h-1v-145Z"/><path style="opacity:1" fill="#7cb3e0" d="M464.5 614.5h34v11h-34v-11Z"/><path style="opacity:1" fill="#70b8e0" d="M549.5 608.5h34v6h-34v-6ZM464.5 608.5h34v6h-34v-6Z"/><path style="opacity:1" fill="#69bfde" d="M549.5 577.5h34v31h-34v-31ZM464.5 577.5h34v31h-34v-31Z"/><path style="opacity:1" fill="#81c1d4" d="M549.5 562.5h34v15h-34v-15ZM464.5 562.5h34v15h-34v-15Z"/><path style="opacity:1" fill="#9dc1ca" d="M549.5 546.5h34v16h-34v-16ZM464.5 546.5h34v16h-34v-16Z"/><path style="opacity:1" fill="#b9c0c0" d="M583.5 528.5v18h-34v-18a449.255 449.255 0 0 1 34 0ZM498.5 528.5v18h-34v-18a449.255 449.255 0 0 1 34 0Z"/><path style="opacity:1" fill="#27333a" d="M548.5 523.5v145c.17 1.322-.163 2.489-1 3.5a552.224 552.224 0 0 1-47 0 19.602 19.602 0 0 0-2-3.5v-140c-.884-3.99.449-6.823 4-8.5a484.008 484.008 0 0 1 44 0c1.323.816 1.989 1.983 2 3.5Z"/><path style="opacity:1" fill="#8f9598" d="M527.5 597.5v-1h13a1190.252 1190.252 0 0 1 1 69c-11.845.328-23.512-.005-35-1h34v-67h-13Z"/><path style="opacity:1" fill="#fdfdfd" d="M527.5 597.5h13v67h-34v-42c7.456-2.78 14.289-6.78 20.5-12 .499-4.321.666-8.654.5-13Z"/><path style="opacity:1" fill="#efdfa9" d="M518.5 597.5a9.86 9.86 0 0 1-1 6 37.27 37.27 0 0 0-10 5v-11h11Z"/><path style="opacity:1" fill="#a8a07e" d="M506.5 596.5h12v1h-11v11c-1.002-3.222-1.335-7.222-1-12Z"/><path style="opacity:1" fill="#1c1d21" d="M540.5 596.5h-34v-10h34v10Z"/><path style="opacity:1" fill="#fcfcfc" d="M539.5 531.5a729.55 729.55 0 0 1 1 54h-6c-.236-3.109.097-6.109 1-9 1.613-.444 2.78-1.444 3.5-3 .5-13.996.667-27.996.5-42Z"/><path style="opacity:1" fill="#8f9598" d="M540.5 527.5a421.105 421.105 0 0 1 0 58 729.55 729.55 0 0 0-1-54l1-4Z"/><path style="opacity:1" fill="#1c1d21" d="m540.5 527.5-1 4c.167 14.004 0 28.004-.5 42-.72 1.556-1.887 2.556-3.5 3-2.544.396-4.711-.271-6.5-2-.5-14.663-.667-29.33-.5-44 .904-.709 1.237-1.709 1-3h11Z"/><path style="opacity:1" fill="#cddce1" d="M528.5 530.5c-.167 14.67 0 29.337.5 44 1.789 1.729 3.956 2.396 6.5 2-.903 2.891-1.236 5.891-1 9h-28v-58h22v3Z"/><path style="opacity:1" fill="#cdb7b4" d="M583.5 514.5v14a449.255 449.255 0 0 0-34 0c.284-1.915-.049-3.581-1-5-.011-1.517-.677-2.684-2-3.5a484.008 484.008 0 0 0-44 0c-3.551 1.677-4.884 4.51-4 8.5a449.255 449.255 0 0 0-34 0v-14h119Z"/><path style="opacity:1" fill="#d7b1af" d="M583.5 506.5v8h-119v-8h119Z"/><path style="opacity:1" fill="#deacab" d="M464.5 497.5h119v9h-119v-9Z"/><path style="opacity:1" fill="#e0a6a5" d="M464.5 487.5h119v10h-119v-10Z"/><path style="opacity:1" fill="#f7e09f" d="M599.5 686.5c1.333.667 1.333.667 0 0Z"/><path style="opacity:1" fill="#91b7d9" d="M440.5 686.5v10h-86v-10h86Z"/><path style="opacity:1" fill="#92b6d9" d="M464.5 686.5h119v6h-119v-6Z"/><path style="opacity:1" fill="#89bbd9" d="M464.5 692.5h119v12h-119v-12Z"/><path style="opacity:1" fill="#86bdd9" d="M354.5 696.5h86v9h-86v-9Z"/><path style="opacity:1" fill="#f8dd99" d="M551.5 713.5a22.296 22.296 0 0 1-5 3.5l1 1a118.288 118.288 0 0 0-17 7.5 10.756 10.756 0 0 0-2.5 3l-1-1c-1.049 1.607-2.549 2.273-4.5 2v3h-6v3h-5v3c-2.524-.071-4.524.929-6 3-2.12-1.372-3.12-.705-3 2a12.93 12.93 0 0 0-5 .5 101.657 101.657 0 0 0-10 7.5 9.108 9.108 0 0 1-5 1v3c-2.51-.446-4.51.22-6 2-2.216.703-4.049 2.036-5.5 4-1.813-1.109-2.646-.442-2.5 2a12.93 12.93 0 0 0-5 .5c-1.497 1.871-3.497 2.871-6 3-1.307 2.324-3.307 3.657-6 4l2 1a12.93 12.93 0 0 1-5 .5v3a9.86 9.86 0 0 0-6 1 35.217 35.217 0 0 1-8 4v3h-6v3h-6v3a8.43 8.43 0 0 0-4 .5l-5 5c-1.284.684-2.451.517-3.5-.5-1.263 2.968-3.263 3.968-6 3a2.428 2.428 0 0 0-.5 2h-12c-.507-1.359-1.507-2.359-3-3a137.913 137.913 0 0 0-11-4v-3c-2.133-1.386-5.133-2.386-9-3v-3h-5v-3c-3.005.247-5.505-.753-7.5-3l-1 1a4.934 4.934 0 0 1-.5-3h-6v-3h-5v-3h-6v-3c-5.922-1.727-11.089-4.727-15.5-9-.718.951-1.551 1.117-2.5.5 1.333-.667 1.333-1.333 0-2a12.93 12.93 0 0 0-5-.5v-3a58.97 58.97 0 0 1-11-3v-3a78.457 78.457 0 0 1-13-6c22.839.331 45.506-.003 68-1a272.946 272.946 0 0 1 30 17.5 54.915 54.915 0 0 0 10 2.5c5.69-1.028 11.024-2.861 16-5.5 5.239-4.798 11.239-8.131 18-10 2.508-3.042 5.508-5.376 9-7 4.75-1.03 8.75-3.363 12-7a1147.103 1147.103 0 0 0 31-17 750.264 750.264 0 0 1 67 .5Z"/><path style="opacity:1" fill="#f9de99" d="M476.5 757.5c1.333.667 1.333.667 0 0Z"/></svg>