<svg version="1.0" xmlns="http://www.w3.org/2000/svg" width="133.333" height="133.333" viewBox="0 0 100 100"><path d="M7.8 3.9 4.5 6.8v37.4c0 34.3.1 37.6 1.8 40.1 1 1.6 2.9 3.2 4.3 3.7 1.4.6 16.2 1 33.4 1h30.9l-1.4-4c-.8-2.2-1.2-4-.9-4 .3 0 5.5 4.3 11.4 9.5s11.1 9.5 11.4 9.5c1.2 0 .7-91-.5-93.3-3-5.8-2-5.7-44.6-5.7H11L7.8 3.9zM36.3 27c-3.5 1.6-6.3 3.1-6.3 3.3 0 .2 2.5-.5 5.7-1.5 6.9-2.4 19.7-2.6 26.8-.4 6.3 2 7.1 1.2 1.4-1.3-3.6-1.6-4-2-1.9-2 4.9-.1 10.7 3.5 13 7.9 2.5 4.9 6 18 6 22.5 0 3.7-2.7 6.7-8.2 9-4.9 2-7.1 1.9-9.2-.4-1.7-1.8-1.6-2 2.3-4.2 5.5-3 4.6-3.5-1.5-.7-6.9 3.1-20.5 3.1-28.4 0-4.6-1.8-5.1-1.9-3.4-.5 1.2 1 3 2.3 4 2.9 1.6 1 1.7 1.3.5 2.8-1.9 2.2-5.9 2-11.1-.7-5.7-2.8-6.8-5.6-5.3-14C22 42.4 25.4 33 27.8 30c1-1.2 4.2-3 7.2-4 7.9-2.8 8.4-2.3 1.3 1z"/><path d="M36.4 45.5c-3.4 5.2 3.1 11.1 7.6 7 3.8-3.4 1.8-9.5-3-9.5-2.1 0-3.5.8-4.6 2.5zM56.2 44.2c-2 2-1.5 7.6.7 8.8 4.3 2.2 8.1-.1 8.1-4.9 0-3.4-1.7-5.1-5-5.1-1.4 0-3.1.5-3.8 1.2z"/></svg>