<?xml version="1.0" encoding="UTF-8"?><svg xmlns="http://www.w3.org/2000/svg" width="800" height="800" style="shape-rendering:geometricPrecision;text-rendering:geometricPrecision;image-rendering:optimizeQuality;fill-rule:evenodd;clip-rule:evenodd"><path style="opacity:1" fill="#696a70" d="M576.5-.5h9a2.429 2.429 0 0 0 .5 2c1.049-1.017 2.216-1.184 3.5-.5a20.495 20.495 0 0 0 2.5 3.5c1.356-.88 2.856-1.214 4.5-1v3c2.822 1.432 6.489 2.432 11 3v3c2.092.061 3.592 1.061 4.5 3 2.537-.677 4.537.323 6 3 2.361-.566 4.194.434 5.5 3l2-1c.35 2.067 2.017 3.067 5 3v3h6v3h5v3h6v3a27.247 27.247 0 0 0 9 3c-.219 1.175.114 2.175 1 3a6.846 6.846 0 0 1 4-1v3a8.435 8.435 0 0 1 4 .5c-1.154.914-.987 1.747.5 2.5 1.299-.466 2.799-.466 4.5 0v3h6v3h5v3a428.986 428.986 0 0 0 20 8.5l-2 1c2.522.61 4.522 1.943 6 4 1.634.493 3.301.66 5 .5v3c2.908-.238 5.242.762 7 3 .951-.826 1.951-.992 3-.5l-1 1a6.977 6.977 0 0 1 3.5 2.5l1-1c.483.948.649 1.948.5 3h6v3h5v3c1.951-.273 3.451.393 4.5 2l1-1c6 4.386 12.5 7.886 19.5 10.5l-1 1c1.525 1.009 3.192 1.509 5 1.5v3h6v3h5v3c2.041.354 3.874.354 5.5 0 .483.948.649 1.948.5 3 2.836 1.276 5.836 1.942 9 2a7971.884 7971.884 0 0 1 2 251c-3.013-.128-5.513.872-7.5 3-2.411-1.653-3.578-.987-3.5 2-1.701.466-3.201.466-4.5 0-3.844 1.975-7.177 4.642-10 8l-1-1c-1.049 1.607-2.549 2.273-4.5 2v3c-3.937.204-7.604 1.204-11 3 .381 2.442-.286 3.109-2 2-.886.825-1.219 1.825-1 3h-6v3a12.93 12.93 0 0 0-5 .5c-1.079 2.043-2.746 3.376-5 4l1 1a12.93 12.93 0 0 1-5 .5v3a9.86 9.86 0 0 0-6 1c-3.423 1.192-6.256 3.192-8.5 6l-1-1c-1.049 1.607-2.549 2.273-4.5 2v3h-6v3h-5v3c-2.185.388-4.018 1.388-5.5 3-2.278-1.12-3.778-.287-4.5 2.5a101.955 101.955 0 0 0-13 5.5v3h-6v3h-6v3c-1.788-.285-3.455.048-5 1 1.129 2.029.629 2.363-1.5 1-1.206 2.801-3.039 3.801-5.5 3v-20a2184.411 2184.411 0 0 1 82-47.5l8-6a190.921 190.921 0 0 0 21.5-10.5c.667-76 .667-152 0-228a7.293 7.293 0 0 1-2-3A695.406 695.406 0 0 1 702.5 97a457.332 457.332 0 0 0-22-11l-4-4a161.879 161.879 0 0 1-33-19c-6.4-2.062-12.067-5.396-17-10l-19-9a30.312 30.312 0 0 0-12-7c-2.365-3.714-5.698-5.714-10-6-7.082-6.364-15.416-9.031-25-8a12271.425 12271.425 0 0 1-129 74c-2.825 2.143-4.825 4.81-6 8 .701 2.38 1.867 4.547 3.5 6.5a753.216 753.216 0 0 0 59.5 35.5c4.333.667 8.667.667 13 0a3162.857 3162.857 0 0 1 66-36.5 202.24 202.24 0 0 1 16 10.5 478.277 478.277 0 0 0 22 11 35.406 35.406 0 0 1 7 5.5 3741.874 3741.874 0 0 1-92.5 26 2724.79 2724.79 0 0 1-78.5-22c-.453-.958-1.119-1.792-2-2.5a991.986 991.986 0 0 1-67-39 114.233 114.233 0 0 1-13-6 191.292 191.292 0 0 0-20-13c-6.538-2.271-12.538-5.605-18-10a154.472 154.472 0 0 1-13-6 1013.157 1013.157 0 0 0-54-31c-9.098-8.801-19.765-11.801-32-9-4.194 3.22-8.86 5.554-14 7a2157.081 2157.081 0 0 1-68 39 55.63 55.63 0 0 1-18 10 12458.29 12458.29 0 0 1-28 18c-5.503 1.171-10.17 3.837-14 8a133.395 133.395 0 0 0-32 18c-2.71 1.747-5.71 2.747-9 3-1.574 1.826-2.407 3.993-2.5 6.5a6443.111 6443.111 0 0 0 1 226l9.5 5.5c1.374 3.683 4.04 5.349 8 5a130.15 130.15 0 0 0 23 13 340.465 340.465 0 0 0 40 23 184.18 184.18 0 0 0 31 18.5v20c-3.383-.921-7.049-1.921-11-3v-3h-6v-3h-3v-3h-6v-3h-5v-3c-2.921.354-5.254-.646-7-3-1.714 1.109-2.381.442-2-2a58.97 58.97 0 0 1-11-3v-3a27.267 27.267 0 0 0-9-3v-3c-2.908.238-5.242-.762-7-3a3.647 3.647 0 0 0-1.5 1c-1.667-1-3-2.333-4-4l-1 1a4.932 4.932 0 0 1-.5-3h-6v-3h-5v-3a544.412 544.412 0 0 1-29-14v-3a58.967 58.967 0 0 1-11-3v-3h-6v-3c-4.013-1.674-8.013-3.341-12-5 .008-83.648.008-167.148 0-250.5a169.104 169.104 0 0 0 15-5.5v-3a58.967 58.967 0 0 0 11-3v-3a417.79 417.79 0 0 0 15-7 32.686 32.686 0 0 0 8.5-6l1 1c1.049-1.607 2.549-2.273 4.5-2v-3a59.029 59.029 0 0 1 11-3 4.932 4.932 0 0 1 .5-3l1 1c2.015-3.065 4.515-4.065 7.5-3v-3h5v-3c1.7.16 3.366-.007 5-.5 1.478-2.057 3.478-3.39 6-4l-2-1a18.436 18.436 0 0 1 6-.5v-3a87.51 87.51 0 0 0 14-5v-3h6v-3h5v-3c1.701-.466 3.201-.466 4.5 0 3.279-4.047 7.946-7.047 14-9a18.264 18.264 0 0 0 5-4l1 1c1.049-1.607 2.549-2.273 4.5-2v-3h5v-3h6v-3c4.612-1.195 9.279-2.862 14-5v-3c1.701-.466 3.201-.466 4.5 0 .908-1.939 2.408-2.939 4.5-3v-3h6v-3c1.788.285 3.455-.048 5-1a38.767 38.767 0 0 0 7-4.5 49.25 49.25 0 0 1 14 0c2.025 1.677 4.359 2.677 7 3-1.134 1.016-.801 1.683 1 2l5 1-1 1c2.622 3.073 5.955 4.573 10 4.5v3h6v3c3.191.262 5.858 1.596 8 4a9.864 9.864 0 0 0 6 1v3c3.58 1.22 7.247 2.386 11 3.5l-2 1c2.767.678 4.934 2.178 6.5 4.5l1-1c3.769 1.797 7.102 4.13 10 7a3.942 3.942 0 0 1 2-1c1.482 1.612 3.315 2.612 5.5 3v3h6v3h5v3h6v3a87.51 87.51 0 0 0 14 5v3c1.699-.16 3.366.007 5 .5l-1 1c1.525 1.009 3.192 1.509 5 1.5v3h6v3h5v3c2.985-1.065 5.485-.065 7.5 3l1-1c.483.948.649 1.948.5 3h5v3h6v3c2.133 1.386 5.133 2.386 9 3v3c2.908-.238 5.242.762 7 3l2-1c.35 2.067 2.017 3.067 5 3v3h6v3c2.516-.255 4.85-1.089 7-2.5a626.207 626.207 0 0 1 29-17c.837-1.011 1.17-2.178 1-3.5 4.493-.216 7.993-2.216 10.5-6 1.011.837 2.178 1.17 3.5 1v-3a59.031 59.031 0 0 0 11-3v-3c1.808.009 3.475-.491 5-1.5l-1-1a12.935 12.935 0 0 1 5-.5v-3a9.864 9.864 0 0 0 6-1 35.213 35.213 0 0 1 8-4v-3h6v-3a59.031 59.031 0 0 1 11-3v-3c1.808.009 3.475-.491 5-1.5-1.388-.89-1.222-1.39.5-1.5 2.071 1.167 3.571.5 4.5-2 6.434-2.343 12.767-5.343 19-9v-3a59.031 59.031 0 0 1 11-3 4.934 4.934 0 0 1 .5-3l1 1c1.995-2.247 4.495-3.247 7.5-3v-3h5v-3h6v-3c1.808.009 3.475-.491 5-1.5l-1-1a12.936 12.936 0 0 1 5-.5v-3c3.552.188 6.219-1.145 8-4Z"/><path style="opacity:1" fill="#273339" d="M649.5 424.5v-14a1324.505 1324.505 0 0 0 83-48.5 84.545 84.545 0 0 1 18-8.5c.167-70.334 0-140.667-.5-211 .564-4.29-1.269-6.457-5.5-6.5a203.265 203.265 0 0 0-37-21l-4-4a91.311 91.311 0 0 1-23-13 457.332 457.332 0 0 0-22-11l-4-4a483.026 483.026 0 0 1-51-29c-3.415-.406-6.082-2.072-8-5a90.401 90.401 0 0 0-14-6c-5.722-6.435-12.722-8.768-21-7-7.36 5.663-15.36 9.996-24 13-3.619 3.977-7.952 6.644-13 8-2.537 2.546-5.537 4.212-9 5l-4 4-10 4a2551.356 2551.356 0 0 0-60 36 7185.005 7185.005 0 0 1 26 16 114.065 114.065 0 0 0 14 6c4.2 3.6 8.867 6.433 14 8.5a684.54 684.54 0 0 1 19-8.5 43.593 43.593 0 0 1 13-8c2.365-3.714 5.698-5.714 10-6a705.673 705.673 0 0 1 21-12c4.719-2.307 9.719-2.974 15-2a113.107 113.107 0 0 0 28 15l5 5a629.999 629.999 0 0 1 24 12.5c-5.394 2.239-11.061 3.906-17 5a35.406 35.406 0 0 0-7-5.5 478.277 478.277 0 0 1-22-11 202.24 202.24 0 0 0-16-10.5 3162.857 3162.857 0 0 0-66 36.5 42.479 42.479 0 0 1-13 0 753.216 753.216 0 0 1-59.5-35.5c-1.633-1.953-2.799-4.12-3.5-6.5 1.175-3.19 3.175-5.857 6-8a12271.425 12271.425 0 0 0 129-74c9.584-1.031 17.918 1.636 25 8 4.302.286 7.635 2.286 10 6a30.312 30.312 0 0 1 12 7l19 9c4.933 4.604 10.6 7.938 17 10a161.879 161.879 0 0 0 33 19l4 4a457.332 457.332 0 0 1 22 11 695.406 695.406 0 0 0 56.5 32.5 7.293 7.293 0 0 0 2 3c.667 76 .667 152 0 228a190.921 190.921 0 0 1-21.5 10.5l-8 6a2184.411 2184.411 0 0 0-82 47.5ZM441.5 141.5a1856.101 1856.101 0 0 1-41-11c-6.64-3.101-12.974-6.935-19-11.5a265.064 265.064 0 0 1-17-8 337.282 337.282 0 0 1-26-17 731.874 731.874 0 0 1-34-19c-5.487-1.208-10.154-3.875-14-8a24672.35 24672.35 0 0 1-21-11 179.568 179.568 0 0 1-15-10A228.066 228.066 0 0 0 230 34.5 112.066 112.066 0 0 0 206.5 48l-10 4-3 3c-6.771 2.445-12.771 6.111-18 11l-10 4-4 4a520.666 520.666 0 0 0-59 34l-9 3c-3.796 3.592-8.13 6.259-13 8A361.546 361.546 0 0 1 48 137.5c-.667 72-.667 144 0 216a5299.1 5299.1 0 0 0 101.5 58v14a184.18 184.18 0 0 1-31-18.5 340.465 340.465 0 0 1-40-23 130.15 130.15 0 0 1-23-13c-3.96.349-6.626-1.317-8-5l-9.5-5.5a6443.111 6443.111 0 0 1-1-226c.093-2.507.926-4.674 2.5-6.5 3.29-.253 6.29-1.253 9-3a133.395 133.395 0 0 1 32-18c3.83-4.163 8.497-6.829 14-8 9.313-5.97 18.646-11.97 28-18a55.63 55.63 0 0 0 18-10c22.924-12.6 45.591-25.6 68-39 5.14-1.446 9.806-3.78 14-7 12.235-2.801 22.902.199 32 9a1013.157 1013.157 0 0 1 54 31 154.472 154.472 0 0 0 13 6c5.462 4.395 11.462 7.729 18 10a191.292 191.292 0 0 1 20 13c4.224 2.28 8.557 4.28 13 6a991.986 991.986 0 0 0 67 39c.881.708 1.547 1.542 2 2.5Z"/><path style="opacity:1" fill="#fdfefe" d="M400.5 130.5a4874.312 4874.312 0 0 0-76 20 507.547 507.547 0 0 1-33-19.5 90.374 90.374 0 0 1-23-13c-5.243-1.623-9.91-4.289-14-8a154.79 154.79 0 0 1-13-6l-4-4a42.498 42.498 0 0 0-13 0 226.438 226.438 0 0 0-29 17c-3.415.406-6.082 2.072-8 5a90.42 90.42 0 0 1-14 6 25.14 25.14 0 0 0-4 4.5 127.411 127.411 0 0 1-11-2c-7.157 1.283-10.157 5.617-9 13a374.729 374.729 0 0 0-35 20.5 24.569 24.569 0 0 0-8 3 6.978 6.978 0 0 0-2.5 3.5 5697.651 5697.651 0 0 0 0 151 213.392 213.392 0 0 0 27.5 15.5c5.407 4.346 11.407 7.512 18 9.5v65a5299.1 5299.1 0 0 1-101.5-58c-.667-72-.667-144 0-216A361.546 361.546 0 0 0 80.5 119c4.87-1.741 9.204-4.408 13-8l9-3a520.666 520.666 0 0 1 59-34l4-4 10-4c5.229-4.889 11.229-8.555 18-11l3-3 10-4A112.066 112.066 0 0 1 230 34.5 228.066 228.066 0 0 1 254.5 46a179.568 179.568 0 0 0 15 10 24672.35 24672.35 0 0 0 21 11c3.846 4.125 8.513 6.792 14 8a731.874 731.874 0 0 0 34 19 337.282 337.282 0 0 0 26 17 265.064 265.064 0 0 0 17 8c6.026 4.565 12.36 8.399 19 11.5Z"/><path style="opacity:1" fill="#fefefe" d="M649.5 410.5v-63a1935.4 1935.4 0 0 0 25-15.5c7.819-2.16 14.319-6.327 19.5-12.5.667-48.667.667-97.333 0-146a69.2 69.2 0 0 0-4.5-6.5 198.572 198.572 0 0 1-36-21 8.43 8.43 0 0 0-4-.5c.661-4.784-.339-9.118-3-13a11.284 11.284 0 0 0-6-2c-3.649.83-7.315 1.496-11 2a629.999 629.999 0 0 0-24-12.5l-5-5a113.107 113.107 0 0 1-28-15c-5.281-.974-10.281-.307-15 2a705.673 705.673 0 0 0-21 12c-4.302.286-7.635 2.286-10 6a43.593 43.593 0 0 0-13 8 684.54 684.54 0 0 0-19 8.5 50.162 50.162 0 0 1-14-8.5 114.065 114.065 0 0 1-14-6 7185.005 7185.005 0 0 0-26-16 2551.356 2551.356 0 0 1 60-36l10-4 4-4c3.463-.788 6.463-2.454 9-5 5.048-1.356 9.381-4.023 13-8 8.64-3.004 16.64-7.337 24-13 8.278-1.768 15.278.565 21 7a90.401 90.401 0 0 1 14 6c1.918 2.928 4.585 4.594 8 5a483.026 483.026 0 0 0 51 29l4 4a457.332 457.332 0 0 1 22 11 91.311 91.311 0 0 0 23 13l4 4a203.265 203.265 0 0 1 37 21c4.231.043 6.064 2.21 5.5 6.5.5 70.333.667 140.666.5 211a84.545 84.545 0 0 0-18 8.5 1324.505 1324.505 0 0 1-83 48.5Z"/><path style="opacity:1" fill="#273339" d="M324.5 150.5a106.179 106.179 0 0 1-17 5c-5.573-4.706-11.906-8.206-19-10.5a301.986 301.986 0 0 0-51-30l-4.5-4.5c-2.09.652-4.257.819-6.5.5-13.837 9.575-28.17 18.075-43 25.5-4.938-.731-9.605-2.065-14-4a25.14 25.14 0 0 1 4-4.5 90.42 90.42 0 0 0 14-6c1.918-2.928 4.585-4.594 8-5a226.438 226.438 0 0 1 29-17 42.498 42.498 0 0 1 13 0l4 4a154.79 154.79 0 0 0 13 6c4.09 3.711 8.757 6.377 14 8a90.374 90.374 0 0 0 23 13 507.547 507.547 0 0 0 33 19.5Z"/><path style="opacity:1" fill="#696a70" d="M307.5 155.5a359.478 359.478 0 0 1-28.5 8 2863.588 2863.588 0 0 1-95.5-27c14.83-7.425 29.163-15.925 43-25.5 2.243.319 4.41.152 6.5-.5l4.5 4.5a301.986 301.986 0 0 1 51 30c7.094 2.294 13.427 5.794 19 10.5Z"/><path style="opacity:1" fill="#231f20" d="M169.5 132.5c4.395 1.935 9.062 3.269 14 4a2863.588 2863.588 0 0 0 95.5 27 359.478 359.478 0 0 0 28.5-8 106.179 106.179 0 0 0 17-5 4874.312 4874.312 0 0 1 76-20 1856.101 1856.101 0 0 0 41 11 2724.79 2724.79 0 0 0 78.5 22 3741.874 3741.874 0 0 0 92.5-26c5.939-1.094 11.606-2.761 17-5 3.685-.504 7.351-1.17 11-2 2.189.094 4.189.761 6 2 2.661 3.882 3.661 8.216 3 13v299c.167 15.67 0 31.337-.5 47-3.015 3.932-7.015 6.266-12 7l-1 106c-.833 2.167-2.333 3.667-4.5 4.5-6.992.5-13.992.666-21 .5h-19v-118a1289.77 1289.77 0 0 0 39-11 18040.563 18040.563 0 0 0 .5-329A8748.007 8748.007 0 0 1 530.5 180a55.155 55.155 0 0 0-1 14.5 2064.191 2064.191 0 0 0 75-19.5c4.526-.819 8.026.681 10.5 4.5.667 18 .667 36 0 54-2.141 2.821-4.975 4.154-8.5 4-3.929-.931-6.595-3.264-8-7v-35c-1.291-.237-2.291.096-3 1a2028.82 2028.82 0 0 1-67 17v261l70-19c-.167-66.001 0-132.001.5-198 1.857-2.7 4.357-4.366 7.5-5 3.525-.154 6.359 1.179 8.5 4 .667 70 .667 140 0 210-1.109 2.315-2.943 3.815-5.5 4.5a853.22 853.22 0 0 1-39 10.5 1275.944 1275.944 0 0 1-101 0 853.22 853.22 0 0 1-39-10.5c-2.557-.685-4.391-2.185-5.5-4.5a20582.21 20582.21 0 0 1 0-287c2.748-4.119 6.581-5.619 11.5-4.5a1509.3 1509.3 0 0 0 74 19.5 55.155 55.155 0 0 0-1-14.5A8748.007 8748.007 0 0 1 409 151.5c-.833 109.668-.667 219.335.5 329a5.576 5.576 0 0 0 3 1 78.644 78.644 0 0 1-25 0c.65-.304 1.317-.637 2-1a18040.563 18040.563 0 0 0 .5-329A8748.007 8748.007 0 0 1 289.5 180a55.155 55.155 0 0 0-1 14.5 1509.3 1509.3 0 0 0 74-19.5c4.919-1.119 8.752.381 11.5 4.5.667 74 .667 148 0 222-2.141 2.821-4.975 4.154-8.5 4-4.374-.502-7.041-2.836-8-7v-203c-1.291-.237-2.291.096-3 1a3763.326 3763.326 0 0 1-67 17v261l70-19c-.166-9.672 0-19.339.5-29 1.41-3.289 3.91-4.956 7.5-5 3.773-.678 6.606.656 8.5 4 .965 14.427.632 28.76-1 43a1503.038 1503.038 0 0 1-83.5 24.5 62.792 62.792 0 0 0-1 15.5 3590.826 3590.826 0 0 0 57-15c.99 6.145 1.323 12.478 1 19h-1c-4.937.761-9.603 2.095-14 4a214.8 214.8 0 0 0-16 4 694.593 694.593 0 0 1-25 7c.48-3.185-.186-6.019-2-8.5a484.008 484.008 0 0 0-44 0c-.544.717-1.211 1.217-2 1.5a312.237 312.237 0 0 1-20.5-6c-.5 15.33-.667 30.663-.5 46h-18a650.602 650.602 0 0 0-1-51 188.192 188.192 0 0 1-21-6c-1 29.326-1.333 58.659-1 88h18a61.234 61.234 0 0 0 1 15 4.457 4.457 0 0 0 2 1.5c4.655.499 9.321.666 14 .5-.342.838-1.008 1.172-2 1h-27c-6.342.166-12.675 0-19-.5-2.167-.833-3.667-2.333-4.5-4.5l-1-106c-4.985-.734-8.985-3.068-12-7-.5-15.33-.667-30.663-.5-46v-111c-.167-37.335 0-74.668.5-112 1.81-3.644 4.644-5.977 8.5-7 3.383 1.118 6.216 3.118 8.5 6 .167 86.335.667 172.669 1.5 259a3779.634 3779.634 0 0 0 101 28 62.792 62.792 0 0 0-1-15.5 6929.994 6929.994 0 0 1-79-22c-2.557-.685-4.391-2.185-5.5-4.5l-.5-143.5c-.162-48.582.338-97.082 1.5-145.5 2.763-2.47 5.93-3.304 9.5-2.5a2064.191 2064.191 0 0 0 75 19.5 55.155 55.155 0 0 0-1-14.5A8748.007 8748.007 0 0 1 168 151.5l-1 45c-1.945 3.89-5.112 5.557-9.5 5-3.52-.683-6.02-2.683-7.5-6a760.316 760.316 0 0 1-.5-39v-13c-1.157-7.383 1.843-11.717 9-13 3.649.83 7.315 1.496 11 2Z"/><path style="opacity:1" fill="#263238" d="M149.5 143.5v13c-5.359 4.344-11.359 7.511-18 9.5-5.669 5.02-11.836 9.187-18.5 12.5-.5 45.332-.667 90.665-.5 136 5.301 1.324 9.968 3.824 14 7.5l10 4 4 4a23.077 23.077 0 0 1 9 4.5v12c-6.593-1.988-12.593-5.154-18-9.5a213.392 213.392 0 0 1-27.5-15.5 5697.651 5697.651 0 0 1 0-151 6.978 6.978 0 0 1 2.5-3.5 24.569 24.569 0 0 1 8-3 374.729 374.729 0 0 1 35-20.5ZM649.5 145.5a8.43 8.43 0 0 1 4 .5 198.572 198.572 0 0 0 36 21 69.2 69.2 0 0 1 4.5 6.5c.667 48.667.667 97.333 0 146-5.181 6.173-11.681 10.34-19.5 12.5a1935.4 1935.4 0 0 1-25 15.5v-14c2.328-1.8 4.995-2.967 8-3.5a679.07 679.07 0 0 1 23-15 12.93 12.93 0 0 1 5-.5c.167-28.335 0-56.669-.5-85l-2-2-1-51a2035.151 2035.151 0 0 0-32.5-18v-13Z"/><path style="opacity:1" fill="#494a58" d="M158.5 215.5a53.805 53.805 0 0 0-1-14c4.388.557 7.555-1.11 9.5-5l1-45A8748.007 8748.007 0 0 0 268.5 180a55.155 55.155 0 0 1 1 14.5 2064.191 2064.191 0 0 1-75-19.5c-3.57-.804-6.737.03-9.5 2.5a5324.168 5324.168 0 0 0-1.5 145.5l.5 143.5c1.109 2.315 2.943 3.815 5.5 4.5a6929.994 6929.994 0 0 0 79 22 62.792 62.792 0 0 1 1 15.5 3779.634 3779.634 0 0 1-101-28 33574.72 33574.72 0 0 1-1.5-259c-2.284-2.882-5.117-4.882-8.5-6Z"/><path style="opacity:1" fill="#5d5e6f" d="M387.5 481.5a913.24 913.24 0 0 1-39 1.5l-1.5 1.5a55.146 55.146 0 0 1-1.5 9 3590.826 3590.826 0 0 1-57 15 62.792 62.792 0 0 1 1-15.5 1503.038 1503.038 0 0 0 83.5-24.5 237.607 237.607 0 0 0 1-43c-1.894-3.344-4.727-4.678-8.5-4v-16c3.525.154 6.359-1.179 8.5-4 .667-74 .667-148 0-222-2.748-4.119-6.581-5.619-11.5-4.5a1509.3 1509.3 0 0 1-74 19.5 55.155 55.155 0 0 1 1-14.5A8748.007 8748.007 0 0 0 390 151.5c.833 109.668.667 219.335-.5 329-.683.363-1.35.696-2 1Z"/><path style="opacity:1" fill="#494a58" d="M469.5 481.5a141.917 141.917 0 0 0-12 2.5c-.951 3.057-1.284 6.223-1 9.5a1346.432 1346.432 0 0 0-35-9c-2.689-1.617-5.689-2.617-9-3a5.576 5.576 0 0 1-3-1 18040.563 18040.563 0 0 1-.5-329A8748.007 8748.007 0 0 0 509.5 180a55.155 55.155 0 0 1 1 14.5 1509.3 1509.3 0 0 1-74-19.5c-4.919-1.119-8.752.381-11.5 4.5a20582.21 20582.21 0 0 0 0 287c1.109 2.315 2.943 3.815 5.5 4.5a853.22 853.22 0 0 0 39 10.5Z"/><path style="opacity:1" fill="#5d5f6f" d="M591.5 491.5a24.935 24.935 0 0 0-.5-7 9.454 9.454 0 0 0-2.5-1.5 159.141 159.141 0 0 1-18-1.5 853.22 853.22 0 0 0 39-10.5c2.557-.685 4.391-2.185 5.5-4.5.667-70 .667-140 0-210-2.141-2.821-4.975-4.154-8.5-4v-15c3.525.154 6.359-1.179 8.5-4 .667-18 .667-36 0-54-2.474-3.819-5.974-5.319-10.5-4.5a2064.191 2064.191 0 0 1-75 19.5 55.155 55.155 0 0 1 1-14.5A8748.007 8748.007 0 0 0 631 151.5c.833 109.668.667 219.335-.5 329a1289.77 1289.77 0 0 1-39 11Z"/><path style="opacity:1" fill="#696a70" d="M149.5 156.5c-.167 13.004 0 26.004.5 39 1.48 3.317 3.98 5.317 7.5 6a53.805 53.805 0 0 1 1 14c-3.856 1.023-6.69 3.356-8.5 7-.5 37.332-.667 74.665-.5 112a23.077 23.077 0 0 0-9-4.5l-4-4-10-4c-4.032-3.676-8.699-6.176-14-7.5-.167-45.335 0-90.668.5-136 6.664-3.313 12.831-7.48 18.5-12.5 6.641-1.989 12.641-5.156 18-9.5ZM649.5 158.5a2035.151 2035.151 0 0 1 32.5 18l1 51 2 2c.5 28.331.667 56.665.5 85a12.93 12.93 0 0 0-5 .5 679.07 679.07 0 0 0-23 15c-3.005.533-5.672 1.7-8 3.5v-175Z"/><path style="opacity:1" fill="#983e33" d="M354.5 196.5c.709-.904 1.709-1.237 3-1v203a10175.57 10175.57 0 0 0-3-202Z"/><path style="opacity:1" fill="#9b3f33" d="M595.5 196.5c.709-.904 1.709-1.237 3-1v35a288.179 288.179 0 0 0-3-34Z"/><path style="opacity:1" fill="#fd452d" d="M200.5 195.5a1374.272 1374.272 0 0 0 70 18v261a3347.069 3347.069 0 0 1-70-19v-260Z"/><path style="opacity:1" fill="#fe604c" d="M354.5 196.5a10175.57 10175.57 0 0 1 3 202c.959 4.164 3.626 6.498 8 7v16c-3.59.044-6.09 1.711-7.5 5-.5 9.661-.666 19.328-.5 29l-70 19v-261a3763.326 3763.326 0 0 0 67-17Z"/><path style="opacity:1" fill="#fd452d" d="M441.5 195.5a1374.272 1374.272 0 0 0 70 18v261a4017.66 4017.66 0 0 1-69-19c-1-86.664-1.333-173.331-1-260Z"/><path style="opacity:1" fill="#fd604c" d="M595.5 196.5a288.179 288.179 0 0 1 3 34c1.405 3.736 4.071 6.069 8 7v15c-3.143.634-5.643 2.3-7.5 5-.5 65.999-.667 131.999-.5 198l-70 19v-261a2028.82 2028.82 0 0 0 67-17Z"/><path style="opacity:.998" fill="#273339" d="M387.5 481.5a78.644 78.644 0 0 0 25 0c3.311.383 6.311 1.383 9 3a96.254 96.254 0 0 1 1 19 362.008 362.008 0 0 0 1 38c.607-.124.94-.457 1-1a256.936 256.936 0 0 0 29-17.5 4.934 4.934 0 0 1 3-.5v-29c-.284-3.277.049-6.443 1-9.5a141.917 141.917 0 0 1 12-2.5 1275.944 1275.944 0 0 0 101 0 159.141 159.141 0 0 0 18 1.5c.916.374 1.75.874 2.5 1.5.497 2.31.663 4.643.5 7v118h4c.167 11.005 0 22.005-.5 33-1.887 1.526-2.887 3.526-3 6-.827 13.84-.661 27.506.5 41 .166 7.341 0 14.674-.5 22a11.333 11.333 0 0 1-1.5 3.5 324.812 324.812 0 0 1-43 1.5 772.829 772.829 0 0 0-68-.5 5216.656 5216.656 0 0 0-71 41c-5.586 2.457-11.253 2.79-17 1a114.302 114.302 0 0 0-13-6l-4-4a7040.07 7040.07 0 0 1-28-16c-3.959.349-6.626-1.317-8-5-8.36-3.016-16.027-7.349-23-13a169.242 169.242 0 0 0-22-11c-11.4-8.753-23.733-15.753-37-21a114.425 114.425 0 0 0-30-18 55.63 55.63 0 0 0-18-10 18.839 18.839 0 0 0-6.5-5.5 760.316 760.316 0 0 1-.5-39h12c-.167 11.005 0 22.005.5 33a46.99 46.99 0 0 0 10.5 5.5l4 4a90.42 90.42 0 0 0 14 6 77.598 77.598 0 0 0 23 13l4 4 10 4c4.933 4.604 10.6 7.938 17 10 3.574 3.951 7.907 6.618 13 8 6.962 5.648 14.628 9.981 23 13 1.918 2.928 4.585 4.594 8 5a78.488 78.488 0 0 0 23 13c3.671 4.417 8.338 7.083 14 8 2.457 3.058 5.457 5.392 9 7a97.288 97.288 0 0 1 12 5.5 115.786 115.786 0 0 1 25-13.5c5.809-4.454 12.142-8.121 19-11 3.31-3.497 7.31-5.83 12-7l3-3a1919.142 1919.142 0 0 1-1.5-61.5 330.581 330.581 0 0 1-26.5 15.5l15 1c1.829.273 3.329 1.107 4.5 2.5a420.29 420.29 0 0 1 0 41 6.978 6.978 0 0 1-2.5 3.5 2400.05 2400.05 0 0 1-98 0l-1.5-1.5a484.008 484.008 0 0 1 0-44l1.5-1.5 20-1a184.026 184.026 0 0 1-23-14c-5.628-.991-10.295-3.658-14-8a420.445 420.445 0 0 1-32-17 42.319 42.319 0 0 0-8.5-6.5l-1 27-1.5 1.5a484.008 484.008 0 0 1-44 0l-1.5-1.5a840.27 840.27 0 0 1-.5-41h-27a98.432 98.432 0 0 1-14-.5 4.457 4.457 0 0 1-2-1.5 61.234 61.234 0 0 1-1-15c-.166-9.339 0-18.673.5-28a6.547 6.547 0 0 1 3-3c.5-16.997.667-33.997.5-51a650.602 650.602 0 0 1 1 51h39v-40c.789-.283 1.456-.783 2-1.5a484.008 484.008 0 0 1 44 0c1.814 2.481 2.48 5.315 2 8.5v33a276.797 276.797 0 0 1 40 1.5l1.5 1.5a462.27 462.27 0 0 1 0 43l-1.5 1.5a801.488 801.488 0 0 0-40 1.5 964.343 964.343 0 0 0 36 21.5 90.42 90.42 0 0 0 14 6 523.182 523.182 0 0 0 22 15 63.089 63.089 0 0 0 10 3.5c.167-34.002 0-68.002-.5-102a351.461 351.461 0 0 1-28-17c-1.049 1.017-2.216 1.184-3.5.5-1.333-2-3-3.667-5-5a233.501 233.501 0 0 1-20-11.5 214.8 214.8 0 0 1 16-4c3.847 3.093 8.18 5.426 13 7 .283.789.783 1.456 1.5 2 .499-4.321.666-8.654.5-13 .323-6.522-.01-12.855-1-19a55.146 55.146 0 0 0 1.5-9l1.5-1.5a913.24 913.24 0 0 0 39-1.5Z"/><path style="opacity:1" fill="#231f20" d="M421.5 484.5a1346.432 1346.432 0 0 1 35 9v19a401.652 401.652 0 0 1-33-9h-1a96.254 96.254 0 0 0-1-19Z"/><path style="opacity:1" fill="#949092" d="M414.5 491.5h-60v31c-.994-10.487-1.328-21.154-1-32a931.31 931.31 0 0 1 61 1Z"/><path style="opacity:1" fill="#4d5558" d="M464.5 490.5v217h119v-217c.999 72.498 1.333 145.165 1 218h-121c-.333-72.835.001-145.502 1-218Z"/><path style="opacity:1" fill="#c5baba" d="M414.5 491.5c-.167 60.668 0 121.334.5 182 .422 1.926 1.589 2.926 3.5 3 7.148.992 14.481 1.325 22 1v31h-87v-32c8.007.166 16.007 0 24-.5l1.5-1.5c.667-50 .667-100 0-150l-1.5-1.5c-7.659-.5-15.326-.666-23-.5v-31h60Z"/><path style="opacity:1" fill="#c5bbbb" d="M464.5 490.5h119v217h-119v-217Z"/><path style="opacity:1" fill="#c7cacb" d="M422.5 503.5h1a342.787 342.787 0 0 0 1 37c-.06.543-.393.876-1 1a362.008 362.008 0 0 1-1-38Z"/><path style="opacity:1" fill="#fcfcfc" d="M423.5 503.5a401.652 401.652 0 0 0 33 9v10a4.934 4.934 0 0 0-3 .5 256.936 256.936 0 0 1-29 17.5 342.787 342.787 0 0 1-1-37Z"/><path style="opacity:1" fill="#f8f9f9" d="M345.5 512.5c.315 3.871-.018 7.538-1 11-4.82-1.574-9.153-3.907-13-7 4.397-1.905 9.063-3.239 14-4Z"/><path style="opacity:1" fill="#909699" d="M345.5 512.5h1a84.902 84.902 0 0 1-.5 13c-.717-.544-1.217-1.211-1.5-2 .982-3.462 1.315-7.129 1-11Z"/><path style="opacity:1" fill="#fefffe" d="M242.5 520.5v40h-21c-.167-15.337 0-30.67.5-46a312.237 312.237 0 0 0 20.5 6Z"/><path style="opacity:1" fill="#686a70" d="M315.5 520.5a233.501 233.501 0 0 0 20 11.5c2 1.333 3.667 3 5 5 1.284.684 2.451.517 3.5-.5a351.461 351.461 0 0 0 28 17c.5 33.998.667 67.998.5 102a63.089 63.089 0 0 1-10-3.5 523.182 523.182 0 0 1-22-15 90.42 90.42 0 0 1-14-6 964.343 964.343 0 0 1-36-21.5 801.488 801.488 0 0 1 40-1.5l1.5-1.5a462.27 462.27 0 0 0 0-43l-1.5-1.5a276.797 276.797 0 0 0-40-1.5v-33a694.593 694.593 0 0 0 25-7Z"/><path style="opacity:1" fill="#273339" d="M501.5 522.5c15.004-.167 30.004 0 45 .5l1.5 1.5c.83 50.237.664 100.404-.5 150.5a552.224 552.224 0 0 1-47 0 9.454 9.454 0 0 1-1.5-2.5c-.833-49.337-.667-98.67.5-148 1.022-.355 1.689-1.022 2-2Z"/><path style="opacity:1" fill="#c5baba" d="M324.5 568.5v32a400.456 400.456 0 0 0-40 1c-.283.789-.783 1.456-1.5 2a840.27 840.27 0 0 0-.5 41h-32a840.27 840.27 0 0 0-.5-41l-2.5-2.5a840.27 840.27 0 0 0-41-.5v-32c14.004.167 28.004 0 42-.5l1.5-1.5c.5-13.663.667-27.329.5-41h32a840.27 840.27 0 0 0 .5 41l1.5 1.5c13.329.5 26.663.667 40 .5Z"/><path style="opacity:1" fill="#484956" d="M202.5 509.5c.167 17.003 0 34.003-.5 51a6.547 6.547 0 0 0-3 3c-.5 9.327-.666 18.661-.5 28h-18c-.333-29.341 0-58.674 1-88a188.192 188.192 0 0 0 21 6ZM616.5 503.5c1.992 28.981 2.659 58.314 2 88h-22v-82c6.941-1.428 13.607-3.428 20-6Z"/><path style="opacity:1" fill="#f6f7f7" d="M371.5 530.5c.31 3.213-.023 6.213-1 9a152.842 152.842 0 0 0-14-8.5 112.97 112.97 0 0 1 15-.5Z"/><path style="opacity:1" fill="#93999c" d="M371.5 530.5c1.306 3.187 1.306 6.52 0 10-.607-.124-.94-.457-1-1 .977-2.787 1.31-5.787 1-9Z"/><path style="opacity:1" fill="#68696f" d="M506.5 530.5h12c.333 24.342 0 48.676-1 73-4.081.983-7.581 2.983-10.5 6-.5-26.331-.667-52.665-.5-79Z"/><path style="opacity:1" fill="#f6f7f7" d="M530.5 530.5h11c.167 45.335 0 90.668-.5 136l-1.5 1.5c-10.995.5-21.995.667-33 .5v-46c7.456-2.78 14.289-6.78 20.5-12l1-50 2-2c.5-9.327.666-18.661.5-28Z"/><path style="opacity:1" fill="#68696f" d="M455.5 535.5a1737.33 1737.33 0 0 1 .5 102 446.973 446.973 0 0 0-21.5 14.5 115.356 115.356 0 0 1-12 5.5c-.333-34.34 0-68.673 1-103a907.828 907.828 0 0 1 32-19Z"/><path style="opacity:1" fill="#4f565a" d="M324.5 568.5c.995 10.821 1.328 21.821 1 33h-41a400.456 400.456 0 0 1 40-1v-32Z"/><path style="opacity:1" fill="#696a70" d="M186.5 609.5h15c-.167 13.004 0 26.004.5 39a18.839 18.839 0 0 1 6.5 5.5 55.63 55.63 0 0 1 18 10 114.425 114.425 0 0 1 30 18c13.267 5.247 25.6 12.247 37 21a169.242 169.242 0 0 1 22 11c6.973 5.651 14.64 9.984 23 13 1.374 3.683 4.041 5.349 8 5a7040.07 7040.07 0 0 0 28 16l4 4a114.302 114.302 0 0 1 13 6c5.747 1.79 11.414 1.457 17-1a5216.656 5216.656 0 0 1 71-41 772.829 772.829 0 0 1 68 .5c-1.238.31-1.238.81 0 1.5a118.288 118.288 0 0 0-17 7.5 10.756 10.756 0 0 0-2.5 3l-1-1c-1.049 1.607-2.549 2.273-4.5 2v3h-6v3h-5v3c-2.524-.071-4.524.929-6 3-2.12-1.372-3.12-.705-3 2a12.93 12.93 0 0 0-5 .5 101.657 101.657 0 0 0-10 7.5 9.108 9.108 0 0 1-5 1v3c-2.51-.446-4.51.22-6 2-2.216.703-4.049 2.036-5.5 4-1.813-1.109-2.646-.442-2.5 2a12.93 12.93 0 0 0-5 .5c-1.497 1.871-3.497 2.871-6 3-1.307 2.324-3.307 3.657-6 4l2 1a12.93 12.93 0 0 1-5 .5v3a9.86 9.86 0 0 0-6 1 35.217 35.217 0 0 1-8 4v3h-6v3h-6v3a8.43 8.43 0 0 0-4 .5l-5 5c-1.284.684-2.451.517-3.5-.5-1.263 2.968-3.263 3.968-6 3a2.428 2.428 0 0 0-.5 2h-12c-.507-1.359-1.507-2.359-3-3a137.913 137.913 0 0 0-11-4v-3c-2.133-1.386-5.133-2.386-9-3v-3h-5v-3c-3.005.247-5.505-.753-7.5-3l-1 1a4.934 4.934 0 0 1-.5-3h-6v-3h-5v-3h-6v-3c-5.922-1.727-11.089-4.727-15.5-9-.718.951-1.551 1.117-2.5.5 1.333-.667 1.333-1.333 0-2a12.93 12.93 0 0 0-5-.5v-3a58.97 58.97 0 0 1-11-3v-3c-8.654-3.265-16.321-6.932-23-11v-3h-6v-3h-5v-3a8.43 8.43 0 0 1-4-.5c-4.85-3.699-10.184-6.199-16-7.5v-3h-6v-3c-2.092-.061-3.592-1.061-4.5-3-1.299.466-2.799.466-4.5 0v-3c-1.788.285-3.455-.048-5-1-2.158-3.144-5.158-4.477-9-4v-3a12.93 12.93 0 0 1-5-.5c-2.625-3.031-6.125-5.864-10.5-8.5-2.537.677-4.537-.323-6-3l-1 1c-1.667-1-3-2.333-4-4-1.049 1.017-2.216 1.184-3.5.5l1-1a15.645 15.645 0 0 1-4-2.5c-1-23.657-1.333-47.324-1-71Z"/><path style="opacity:1" fill="#fbfbfb" d="M215.5 608.5h27a840.27 840.27 0 0 0 .5 41l1.5 1.5c14.667.667 29.333.667 44 0l1.5-1.5 1-27a42.319 42.319 0 0 1 8.5 6.5 420.445 420.445 0 0 0 32 17c3.705 4.342 8.372 7.009 14 8a184.026 184.026 0 0 0 23 14l-20 1-1.5 1.5a484.008 484.008 0 0 0 0 44l1.5 1.5c32.667.667 65.333.667 98 0a6.978 6.978 0 0 0 2.5-3.5 420.29 420.29 0 0 0 0-41c-1.171-1.393-2.671-2.227-4.5-2.5l-15-1a330.581 330.581 0 0 0 26.5-15.5c.173 20.573.673 41.073 1.5 61.5l-3 3c-4.69 1.17-8.69 3.503-12 7-6.858 2.879-13.191 6.546-19 11a115.786 115.786 0 0 0-25 13.5 97.288 97.288 0 0 0-12-5.5c-3.543-1.608-6.543-3.942-9-7-5.662-.917-10.329-3.583-14-8a78.488 78.488 0 0 1-23-13c-3.415-.406-6.082-2.072-8-5-8.372-3.019-16.038-7.352-23-13-5.093-1.382-9.426-4.049-13-8-6.4-2.062-12.067-5.396-17-10l-10-4-4-4a77.598 77.598 0 0 1-23-13 90.42 90.42 0 0 1-14-6l-4-4a46.99 46.99 0 0 1-10.5-5.5 544.417 544.417 0 0 1-.5-33c.992.172 1.658-.162 2-1Z"/><path style="opacity:1" fill="#696a70" d="M595.5 609.5h15c.333 21.677 0 43.344-1 65-1.671 2.01-2.338 4.343-2 7-3.064 1.19-5.731 2.857-8 5h-3v3h-4c-1.161-13.494-1.327-27.16-.5-41 .113-2.474 1.113-4.474 3-6 .5-10.995.667-21.995.5-33Z"/><path style="opacity:1" fill="#9f9a9b" d="M418.5 676.5h23c.328 10.846-.006 21.513-1 32v-31c-7.519.325-14.852-.008-22-1Z"/><path style="opacity:1" fill="#696b70" d="M599.5 686.5c1.333.667 1.333.667 0 0ZM476.5 757.5c1.333.667 1.333.667 0 0Z"/></svg>