<svg version="1.0" xmlns="http://www.w3.org/2000/svg" width="133.333" height="133.333" viewBox="0 0 100 100"><path d="M37 2.4C21.7 6.7 8.2 19.3 3.1 34.3c-8.3 24 2.6 50 25.7 61.4 7.3 3.7 8 3.8 19.6 4.1 13.5.4 19.7-1.1 28.7-6.8 31.8-20.4 30.2-68.3-2.8-86.3C64.3 1.3 47.9-.6 37 2.4zm36 24.1c1.7 2.1.5 4.5-2.4 4.5-2.7 0-4.2-2.6-2.5-4.6 1.5-1.8 3.3-1.8 4.9.1zm-4.5 6.8c4 1.4 4 1.5 3.8 6.3-.2 3.1 0 4.4.6 3.5.7-1.1 1.3-1 3.4.4 4 2.6 4.4 5.3 1.3 8.4-2.4 2.4-3.3 2.6-10.4 2.5-7.6 0-23-2.7-26.4-4.5-1.3-.7-1.8-.5-1.8.5 0 1.5 3.4 3.1 4.8 2.2.5-.3 3.5.3 6.8 1.3 3.3 1.1 8.5 2.2 11.7 2.6 3.1.4 5.9 1.1 6.2 1.5 1 1.6-1.7 11.5-3.7 13.7-6.7 7.3-24.6 7.3-30.6 0-.7-.8-2.1-6.1-3.2-11.8-1.1-5.7-2.7-13.3-3.6-16.8-1.9-7.6-1.3-8.6 6.3-10.7 6.3-1.8 29.2-1.2 34.8.9zm9.2-.7c.8 2.1-1.3 4.2-2.8 2.7C73.6 34 74.4 31 76 31c.6 0 1.3.7 1.7 1.6z"/><path d="m37.5 36.3-5 1.3 6 1.3c5.9 1.3 20 1 25.4-.5l2.5-.7-2.5-.9c-4.2-1.6-21-1.8-26.4-.5zM71 47.3c0 1.9.4 2.5 1.5 2.1.8-.4 1.5-1 1.5-1.4 0-.4-.7-1.3-1.5-2-1.3-1.1-1.5-.8-1.5 1.3z"/></svg>