<?xml version="1.0" encoding="UTF-8"?><svg xmlns="http://www.w3.org/2000/svg" width="800" height="800" style="shape-rendering:geometricPrecision;text-rendering:geometricPrecision;image-rendering:optimizeQuality;fill-rule:evenodd;clip-rule:evenodd"><path style="opacity:1" fill="#f4f0f1" d="M289.5 41.5h-21a949.548 949.548 0 0 0-31.5-18 138.219 138.219 0 0 1-14.5 1.5 794.024 794.024 0 0 0-30 16.5c-17.6-.134-35.933-.134-55 0a70.933 70.933 0 0 0 12.5-8l1 1c1.049-1.607 2.549-2.273 4.5-2v-3h5v-3h6v-3c4.612-1.195 9.279-2.862 14-5v-3c1.701-.466 3.201-.466 4.5 0 .908-1.939 2.408-2.939 4.5-3v-3h6v-3c1.788.285 3.455-.048 5-1a38.767 38.767 0 0 0 7-4.5 49.25 49.25 0 0 1 14 0c2.025 1.677 4.359 2.677 7 3-1.134 1.016-.801 1.683 1 2l5 1-1 1c2.622 3.073 5.955 4.573 10 4.5v3h6v3c3.191.262 5.858 1.596 8 4a9.864 9.864 0 0 0 6 1v3c3.58 1.22 7.247 2.386 11 3.5l-2 1c2.767.678 4.934 2.178 6.5 4.5l1-1a65.617 65.617 0 0 0 7.5 4 7.468 7.468 0 0 1 2 3ZM576.5-.5h9a2.429 2.429 0 0 0 .5 2c1.049-1.017 2.216-1.184 3.5-.5a20.495 20.495 0 0 0 2.5 3.5c1.356-.88 2.856-1.214 4.5-1v3c2.822 1.432 6.489 2.432 11 3v3c2.092.061 3.592 1.061 4.5 3 2.537-.677 4.537.323 6 3 2.361-.566 4.194.434 5.5 3l2-1c.35 2.067 2.017 3.067 5 3v3h6v3h5v3h6v3a27.247 27.247 0 0 0 9 3v3h-52a516.166 516.166 0 0 0-24-14.5c-4.78-2.655-9.947-4.155-15.5-4.5l-4.5.5a925.461 925.461 0 0 0-32 18.5h-21a7.468 7.468 0 0 1 2-3c6.434-2.343 12.767-5.343 19-9v-3a59.031 59.031 0 0 1 11-3 4.934 4.934 0 0 1 .5-3l1 1c1.995-2.247 4.495-3.247 7.5-3v-3h5v-3h6v-3c1.808.009 3.475-.491 5-1.5l-1-1a12.936 12.936 0 0 1 5-.5v-3c3.552.188 6.219-1.145 8-4Z"/><path style="opacity:1" fill="#273339" d="M604.5 41.5a183.959 183.959 0 0 0 22 11.5c4.933 4.604 10.6 7.938 17 10a161.879 161.879 0 0 0 33 19 19.555 19.555 0 0 0 4 3.5 411.558 411.558 0 0 0 30 16c6.977 5.434 14.644 9.934 23 13.5a240.159 240.159 0 0 0 15 10 31.669 31.669 0 0 0 10 3.5c2.727 4.535 3.727 9.535 3 15v213c.475 2.813-.525 4.813-3 6-9.548 3.692-18.548 8.525-27 14.5-7.771 4.214-15.437 8.381-23 12.5a31.447 31.447 0 0 0-5 4.5 163.592 163.592 0 0 0-27 15 24672.35 24672.35 0 0 1-21 11c-.881.708-1.547 1.542-2 2.5a461.126 461.126 0 0 0-41 23.5 15.024 15.024 0 0 1-8 2.5v-12a5838.284 5838.284 0 0 0 137-79.5 73.86 73.86 0 0 0 9-3.5 7901.316 7901.316 0 0 0-1.5-216 2129.254 2129.254 0 0 1-37.5-21.5c-3.415-.406-6.082-2.072-8-5a91.311 91.311 0 0 1-23-13 457.332 457.332 0 0 0-22-11c-2.508-3.042-5.508-5.376-9-7a457.332 457.332 0 0 1-22-11l-24-15c-3.415-.406-6.082-2.072-8-5a90.401 90.401 0 0 0-14-6c-5.722-6.435-12.722-8.768-21-7-7.36 5.663-15.36 9.996-24 13-3.619 3.977-7.952 6.644-13 8-2.537 2.546-5.537 4.212-9 5l-4 4-10 4a2551.356 2551.356 0 0 0-60 36 7185.005 7185.005 0 0 1 26 16 114.065 114.065 0 0 0 14 6c4.2 3.6 8.867 6.433 14 8.5a684.54 684.54 0 0 1 19-8.5 43.593 43.593 0 0 1 13-8c2.365-3.714 5.698-5.714 10-6a705.673 705.673 0 0 1 21-12c4.719-2.307 9.719-2.974 15-2a113.107 113.107 0 0 0 28 15l5 5a182.852 182.852 0 0 1 35 20 193.115 193.115 0 0 1 32 19 197.694 197.694 0 0 1 17 8 36.078 36.078 0 0 1 3.5 4.5c1.657 49.25 1.99 98.584 1 148-5.181 6.173-11.681 10.34-19.5 12.5a12318.477 12318.477 0 0 1-28 18c-6.381 2.027-12.048 5.361-17 10-6.943 1.604-12.943 4.937-18 10-2.56.384-4.894 1.217-7 2.5v-14a101.096 101.096 0 0 0 12-5.5l4-4 19-9a1335.714 1335.714 0 0 0 33-19.5 53.553 53.553 0 0 0 8-5.5 8.43 8.43 0 0 1 4-.5 903.85 903.85 0 0 0 0-85c0-.667-.333-1-1-1a96.254 96.254 0 0 1-1-19v-20a84.902 84.902 0 0 0-.5-13c-2.162-1.996-4.662-3.33-7.5-4a1072.198 1072.198 0 0 1-15-9.5c-2.56-.384-4.894-1.217-7-2.5a120.36 120.36 0 0 0-24-14 13309.187 13309.187 0 0 0-61-36 3009.681 3009.681 0 0 0-65 36 53.805 53.805 0 0 1-14 1c-.453-.958-1.119-1.792-2-2.5a71.52 71.52 0 0 1-18-10 154.79 154.79 0 0 0-13-6 207.36 207.36 0 0 0-26-16.5c-.664-1.987-1.831-3.654-3.5-5-.667-1.667-.667-3.333 0-5 7.882-6.737 16.382-12.404 25.5-17a2955.128 2955.128 0 0 0 77-44 925.461 925.461 0 0 1 32-18.5l4.5-.5c5.553.345 10.72 1.845 15.5 4.5a516.166 516.166 0 0 1 24 14.5Z"/><path style="opacity:1" fill="#283339" d="M268.5 41.5a4397.605 4397.605 0 0 0 77 44 3879.583 3879.583 0 0 1 49 28 1926.667 1926.667 0 0 1 60 35c2.939.418 5.272 1.918 7 4.5a82.935 82.935 0 0 1 16 8.5 332.483 332.483 0 0 1 21 12 238.071 238.071 0 0 1 13 8h-25c-2.667-3.162-6-5.329-10-6.5a327.567 327.567 0 0 0-42-24c-4.758-4.768-10.425-7.768-17-9-3.065-4.125-7.065-6.791-12-8l-6-5a546.6 546.6 0 0 0-35-18 108.394 108.394 0 0 1-19-13 425.826 425.826 0 0 1-41-23c-5.487-1.208-10.154-3.875-14-8a826.449 826.449 0 0 1-49-28 50.657 50.657 0 0 1-11.5-4.5A112.066 112.066 0 0 0 206.5 48l-10 4-3 3c-6.771 2.445-12.771 6.111-18 11l-10 4-4 4a520.666 520.666 0 0 0-59 34l-9 3c-3.796 3.592-8.13 6.259-13 8A361.546 361.546 0 0 1 48 137.5c-.667 72-.667 144 0 216a7214.146 7214.146 0 0 0 125 72c.5-21.664.667-43.331.5-65a340.197 340.197 0 0 0-18-8.5 55.63 55.63 0 0 0-18-10 78.488 78.488 0 0 0-23-13 56.965 56.965 0 0 0-10.5-7.5 5697.651 5697.651 0 0 1 0-151 6.978 6.978 0 0 1 2.5-3.5 146.497 146.497 0 0 0 31-18c8.372-3.019 16.038-7.352 23-13 5.093-1.382 9.426-4.049 13-8a90.42 90.42 0 0 0 14-6c1.918-2.928 4.585-4.594 8-5a226.438 226.438 0 0 1 29-17 42.498 42.498 0 0 1 13 0l4 4a154.79 154.79 0 0 0 13 6 1081.768 1081.768 0 0 0 33 20l4 1c8.98 5.636 17.98 11.302 27 17 7.27 1.913 13.604 5.58 19 11 4.75 1.03 8.75 3.363 12 7l10 4 4 4a222.128 222.128 0 0 1 15 7.5h-23a1257.763 1257.763 0 0 1-18-9c-6.4-4.39-13.066-8.39-20-12a251.349 251.349 0 0 1-24-14c-4.253-1.068-7.92-3.235-11-6.5l-35-21c-5.603-1.533-10.436-4.366-14.5-8.5-2.09.652-4.257.819-6.5.5a194.201 194.201 0 0 1-32 19 234.559 234.559 0 0 1-28 16.5c-5.059 4.192-10.726 7.359-17 9.5a25.14 25.14 0 0 0-4 4.5 57.856 57.856 0 0 0-14 5.5 78.986 78.986 0 0 0-8 6.5c-7.227.888-10.893 4.888-11 12v98c-.328 10.846.006 21.513 1 32a153.715 153.715 0 0 0 11 5c.453.958 1.119 1.792 2 2.5l10 4c1.918 2.928 4.585 4.594 8 5 2.674 3.012 6.007 4.678 10 5a82.15 82.15 0 0 0 22 13c3.192 2.028 5.859 4.528 8 7.5v36c.654 14.537-.179 28.87-2.5 43-2.909 2.894-6.409 3.727-10.5 2.5a1398.727 1398.727 0 0 1-57-32.5 91663.247 91663.247 0 0 0-59-34.5c-3.96.349-6.626-1.317-8-5-1.952-.366-3.618-1.199-5-2.5-2.56-.72-4.394-2.387-5.5-5-.5-8.66-.666-17.327-.5-26v-172c-.509-10.807.158-21.474 2-32a31.666 31.666 0 0 0 10-3.5 133.395 133.395 0 0 1 32-18 32.845 32.845 0 0 0 6-5.5 57.753 57.753 0 0 1 8-2.5 152.087 152.087 0 0 1 22-13.5 2661.659 2661.659 0 0 1 76-44 794.024 794.024 0 0 1 30-16.5c4.872-.246 9.705-.746 14.5-1.5a949.548 949.548 0 0 1 31.5 18Z"/><path style="opacity:1" fill="#fdfdfd" d="M486.5 181.5h-108a222.128 222.128 0 0 0-15-7.5l-4-4-10-4c-3.25-3.637-7.25-5.97-12-7-5.396-5.42-11.73-9.087-19-11a10892.14 10892.14 0 0 0-27-17l-4-1a1081.768 1081.768 0 0 1-33-20 154.79 154.79 0 0 1-13-6l-4-4a42.498 42.498 0 0 0-13 0 226.438 226.438 0 0 0-29 17c-3.415.406-6.082 2.072-8 5a90.42 90.42 0 0 1-14 6c-3.574 3.951-7.907 6.618-13 8-6.962 5.648-14.628 9.981-23 13a146.497 146.497 0 0 1-31 18 6.978 6.978 0 0 0-2.5 3.5 5697.651 5697.651 0 0 0 0 151 56.965 56.965 0 0 1 10.5 7.5 78.488 78.488 0 0 1 23 13 55.63 55.63 0 0 1 18 10 340.197 340.197 0 0 1 18 8.5c.167 21.669 0 43.336-.5 65a7214.146 7214.146 0 0 1-125-72c-.667-72-.667-144 0-216A361.546 361.546 0 0 0 80.5 119c4.87-1.741 9.204-4.408 13-8l9-3a520.666 520.666 0 0 1 59-34l4-4 10-4c5.229-4.889 11.229-8.555 18-11l3-3 10-4A112.066 112.066 0 0 1 230 34.5a50.657 50.657 0 0 0 11.5 4.5 826.449 826.449 0 0 0 49 28c3.846 4.125 8.513 6.792 14 8a425.826 425.826 0 0 0 41 23 108.394 108.394 0 0 0 19 13 546.6 546.6 0 0 1 35 18l6 5c4.935 1.209 8.935 3.875 12 8 6.575 1.232 12.242 4.232 17 9a327.567 327.567 0 0 1 42 24c4 1.171 7.333 3.338 10 6.5Z"/><path style="opacity:1" fill="#fdfefe" d="M604.5 436.5v-64c2.106-1.283 4.44-2.116 7-2.5 5.057-5.063 11.057-8.396 18-10 4.952-4.639 10.619-7.973 17-10 9.313-5.969 18.646-11.969 28-18 7.819-2.16 14.319-6.327 19.5-12.5.99-49.416.657-98.75-1-148a36.078 36.078 0 0 0-3.5-4.5 197.694 197.694 0 0 0-17-8 193.115 193.115 0 0 0-32-19 182.852 182.852 0 0 0-35-20l-5-5a113.107 113.107 0 0 1-28-15c-5.281-.974-10.281-.307-15 2a705.673 705.673 0 0 0-21 12c-4.302.286-7.635 2.286-10 6a43.593 43.593 0 0 0-13 8 684.54 684.54 0 0 0-19 8.5 50.162 50.162 0 0 1-14-8.5 114.065 114.065 0 0 1-14-6 7185.005 7185.005 0 0 0-26-16 2551.356 2551.356 0 0 1 60-36l10-4 4-4c3.463-.788 6.463-2.454 9-5 5.048-1.356 9.381-4.023 13-8 8.64-3.004 16.64-7.337 24-13 8.278-1.768 15.278.565 21 7a90.401 90.401 0 0 1 14 6c1.918 2.928 4.585 4.594 8 5l24 15a457.332 457.332 0 0 0 22 11c3.492 1.624 6.492 3.958 9 7a457.332 457.332 0 0 1 22 11 91.311 91.311 0 0 0 23 13c1.918 2.928 4.585 4.594 8 5a2129.254 2129.254 0 0 0 37.5 21.5 7901.316 7901.316 0 0 1 1.5 216 73.86 73.86 0 0 1-9 3.5 5838.284 5838.284 0 0 1-137 79.5Z"/><path style="opacity:1" fill="#f4e5e3" d="M192.5 41.5a2661.659 2661.659 0 0 0-76 44h-55a970.104 970.104 0 0 0 6-4.5c1.634-.493 3.3-.66 5-.5a4.932 4.932 0 0 1 .5-3l1 1c2.015-3.065 4.515-4.065 7.5-3v-3h5v-3c1.7.16 3.366-.007 5-.5 1.478-2.057 3.478-3.39 6-4l-2-1a18.436 18.436 0 0 1 6-.5v-3a87.51 87.51 0 0 0 14-5v-3h6v-3h5v-3c1.701-.466 3.201-.466 4.5 0 1.487-.753 1.654-1.586.5-2.5a24.27 24.27 0 0 0 6-2.5c19.067-.134 37.4-.134 55 0Z"/><path style="opacity:1" fill="#f3e3e1" d="M368.5 85.5h-23a4397.605 4397.605 0 0 1-77-44h21a11.114 11.114 0 0 1 2.5-1c1.482 1.612 3.315 2.612 5.5 3v3h6v3h5v3h6v3a87.51 87.51 0 0 0 14 5v3c1.699-.16 3.366.007 5 .5l-1 1c1.525 1.009 3.192 1.509 5 1.5v3h6v3h5v3c2.985-1.065 5.485-.065 7.5 3l1-1c.483.948.649 1.948.5 3h5v3c2.582-.475 4.582.192 6 2Z"/><path style="opacity:1" fill="#f2e3e1" d="M507.5 41.5h21a2955.128 2955.128 0 0 1-77 44h-20c2.19-.874 3.19-2.541 3-5 4.493-.216 7.993-2.216 10.5-6 1.011.837 2.178 1.17 3.5 1v-3a59.031 59.031 0 0 0 11-3v-3c1.808.009 3.475-.491 5-1.5l-1-1a12.935 12.935 0 0 1 5-.5v-3a9.864 9.864 0 0 0 6-1 35.213 35.213 0 0 1 8-4v-3h6v-3a59.031 59.031 0 0 1 11-3v-3c1.808.009 3.475-.491 5-1.5-1.388-.89-1.222-1.39.5-1.5.902.243 1.735.577 2.5 1Z"/><path style="opacity:1" fill="#f4e5e3" d="M735.5 85.5h-55a19.555 19.555 0 0 1-4-3.5 161.879 161.879 0 0 1-33-19c-6.4-2.062-12.067-5.396-17-10a183.959 183.959 0 0 1-22-11.5h52a20.676 20.676 0 0 1 5-1v3a8.435 8.435 0 0 1 4 .5c-1.154.914-.987 1.747.5 2.5 1.299-.466 2.799-.466 4.5 0v3h6v3h5v3a428.986 428.986 0 0 0 20 8.5l-2 1c2.522.61 4.522 1.943 6 4 1.634.493 3.301.66 5 .5v3c2.908-.238 5.242.762 7 3 .951-.826 1.951-.992 3-.5l-1 1a6.977 6.977 0 0 1 3.5 2.5l1-1c.483.948.649 1.948.5 3h6v3c2.281-.423 3.948.244 5 2Z"/><path style="opacity:1" fill="#f5dbd6" d="M61.5 85.5h55a152.087 152.087 0 0 0-22 13.5 57.753 57.753 0 0 0-8 2.5h-54c1.576-.783 2.91-1.95 4-3.5 9.082-3.786 17.415-7.953 25-12.5ZM680.5 85.5h55a535.414 535.414 0 0 1 29 16h-54a411.558 411.558 0 0 1-30-16Z"/><path style="opacity:1" fill="#f5d4cd" d="M32.5 101.5h54a32.845 32.845 0 0 1-6 5.5 133.395 133.395 0 0 0-32 18 31.666 31.666 0 0 1-10 3.5c-10.487-.994-21.154-1.328-32-1 .197-4.318.197-8.485 0-12.5a169.104 169.104 0 0 0 15-5.5v-3c1.7.16 3.366-.006 5-.5 2.075-1.568 4.075-3.068 6-4.5Z"/><path style="opacity:1" fill="#f4d7d1" d="M345.5 85.5h23c1.109.79 2.442 1.29 4 1.5l-1 1a20.093 20.093 0 0 0 6 1.5v3c2.908-.238 5.242.762 7 3l2-1c.35 2.067 2.017 3.067 5 3v3h6v3c2.516-.255 4.85-1.089 7-2.5a272.236 272.236 0 0 1 27-15.5h20c-9.118 4.596-17.618 10.263-25.5 17-.667 1.667-.667 3.333 0 5 1.669 1.346 2.836 3.013 3.5 5-11.845-.328-23.512.005-35 1a3879.583 3879.583 0 0 0-49-28Z"/><path style="opacity:1" fill="#f5d4cd" d="M710.5 101.5h54c1.418 1.808 3.418 2.475 6 2v3h5v3c2.041.354 3.874.354 5.5 0 .483.948.649 1.948.5 3 2.836 1.276 5.836 1.942 9 2 1.562 4.152 2.228 8.485 2 13-11.512-.328-22.846.005-34 1a31.669 31.669 0 0 1-10-3.5 240.159 240.159 0 0 1-15-10c-8.356-3.566-16.023-8.066-23-13.5Z"/><path style="opacity:1" fill="#f3cac1" d="M429.5 112.5a207.36 207.36 0 0 1 26 16.5 154.79 154.79 0 0 1 13 6 71.52 71.52 0 0 0 18 10c.881.708 1.547 1.542 2 2.5-11.512-.328-22.846.005-34 1a1926.667 1926.667 0 0 0-60-35c11.488-.995 23.155-1.328 35-1Z"/><path style="opacity:1" fill="#f6c9bf" d="M293.5 146.5a2017.129 2017.129 0 0 1-127 0 234.559 234.559 0 0 0 28-16.5 194.201 194.201 0 0 0 32-19c2.243.319 4.41.152 6.5-.5 4.064 4.134 8.897 6.967 14.5 8.5l35 21c3.08 3.265 6.747 5.432 11 6.5ZM628.5 146.5c-42 1.333-84 1.333-126 0a3009.681 3009.681 0 0 1 65-36c20.491 12.02 40.824 24.02 61 36Z"/><path style="opacity:1" fill="#f7c6ba" d="M6.5 127.5c10.846-.328 21.513.006 32 1-1.842 10.526-2.509 21.193-2 32h-30v-33Z"/><path style="opacity:1" fill="#f6c3b7" d="M166.5 146.5a2017.129 2017.129 0 0 0 127 0 251.349 251.349 0 0 0 24 14h-172a25.14 25.14 0 0 1 4-4.5c6.274-2.141 11.941-5.308 17-9.5ZM502.5 146.5c42 1.333 84 1.333 126 0a120.36 120.36 0 0 1 24 14 7659.168 7659.168 0 0 0-175 1 82.935 82.935 0 0 0-16-8.5c-1.728-2.582-4.061-4.082-7-4.5 11.154-.995 22.488-1.328 34-1 4.763.274 9.43-.059 14-1Z"/><path style="opacity:1" fill="#f7c6ba" d="M792.5 127.5v33h-30c.322-5.858-.011-11.525-1-17 .727-5.465-.273-10.465-3-15 11.154-.995 22.488-1.328 34-1Z"/><path style="opacity:1" fill="#f7beb0" d="M145.5 160.5h172c6.934 3.61 13.6 7.61 20 12h-214a78.986 78.986 0 0 1 8-6.5 57.856 57.856 0 0 1 14-5.5ZM477.5 161.5a7659.168 7659.168 0 0 1 175-1c2.106 1.283 4.44 2.116 7 2.5a1072.198 1072.198 0 0 0 15 9.5 7747.008 7747.008 0 0 0-176 1 332.483 332.483 0 0 0-21-12Z"/><path style="opacity:1" fill="#f8bbac" d="M6.5 160.5h30v22a349.799 349.799 0 0 0-30 0v-22Z"/><path style="opacity:1" fill="#f8b8a9" d="M123.5 172.5h214a1257.763 1257.763 0 0 0 18 9h-38a112.692 112.692 0 0 0-10-6.5 25.238 25.238 0 0 0-10 0l-2.5 2.5c-1.049-1.017-2.216-1.184-3.5-.5a157.284 157.284 0 0 1-6 4.5c-26.335-.167-52.669 0-79 .5-4.837 1.247-8.837 3.747-12 7.5a4576.533 4576.533 0 0 0-80.5 0c-.198-1.882-.698-3.548-1.5-5 .107-7.112 3.773-11.112 11-12ZM674.5 172.5c2.838.67 5.338 2.004 7.5 4 .499 4.321.666 8.654.5 13-27-1.333-54-1.333-81 0-3.163-3.753-7.163-6.253-12-7.5-25.998-.5-51.998-.667-78-.5a238.071 238.071 0 0 0-13-8 7747.008 7747.008 0 0 1 176-1Z"/><path style="opacity:1" fill="#f8baab" d="M762.5 160.5h30v29c-10.001-.665-19.834-.665-29.5 0-.5-9.661-.666-19.328-.5-29Z"/><path style="opacity:1" fill="#293439" d="M317.5 181.5h-32a157.284 157.284 0 0 0 6-4.5c1.284-.684 2.451-.517 3.5.5l2.5-2.5a25.238 25.238 0 0 1 10 0 112.692 112.692 0 0 1 10 6.5Z"/><path style="opacity:1" d="M285.5 181.5h226c26.002-.167 52.002 0 78 .5 4.837 1.247 8.837 3.747 12 7.5a30.529 30.529 0 0 1 3 12v319h-13v-262h-387v264h-13v-321a30.529 30.529 0 0 1 3-12c3.163-3.753 7.163-6.253 12-7.5 26.331-.5 52.665-.667 79-.5Z"/><path style="opacity:1" fill="#f9b3a1" d="M36.5 182.5v19a349.799 349.799 0 0 0-30 0v-19a349.799 349.799 0 0 1 30 0Z"/><path style="opacity:1" fill="#f8b19f" d="M112.5 184.5c.802 1.452 1.302 3.118 1.5 5 26.785-.236 53.618-.236 80.5 0a30.529 30.529 0 0 0-3 12 1476.506 1476.506 0 0 0-76.5-1c-1.431 4.135-1.931 8.468-1.5 13 0 .667-.333 1-1 1v-30ZM682.5 189.5v12a2363.785 2363.785 0 0 0-78 0 30.529 30.529 0 0 0-3-12c27-1.333 54-1.333 81 0Z"/><path style="opacity:1" fill="#f1ac9b" d="M761.5 143.5c.989 5.475 1.322 11.142 1 17-.166 9.672 0 19.339.5 29 9.666-.665 19.499-.665 29.5 0v12c-9.656-.992-19.156-1.326-28.5-1-1.46 6.823-1.96 13.823-1.5 21v17h-1v-95Z"/><path style="opacity:1" fill="#acb1c5" d="M590.5 198.5v47h-385v-47a14.698 14.698 0 0 1 3-3.5c126.333-.667 252.667-.667 379 0a14.698 14.698 0 0 1 3 3.5Z"/><path style="opacity:1" fill="#f9ac98" d="M191.5 201.5v12a2363.785 2363.785 0 0 0-78 0c-.431-4.532.069-8.865 1.5-13 25.337-.33 50.837.004 76.5 1ZM682.5 201.5v8c-.79 1.109-1.29 2.442-1.5 4a4133.03 4133.03 0 0 0-76.5 0v-12c25.881-.429 51.881-.429 78 0Z"/><path style="opacity:1" fill="#faa995" d="M36.5 201.5v20h-30v-20a349.799 349.799 0 0 1 30 0ZM792.5 201.5v20h-30c-.46-7.177.04-14.177 1.5-21 9.344-.326 18.844.008 28.5 1Z"/><path style="opacity:1" fill="#f9a58f" d="M682.5 209.5a96.254 96.254 0 0 0 1 19h-79v-15a4133.03 4133.03 0 0 1 76.5 0c.21-1.558.71-2.891 1.5-4Z"/><path style="opacity:1" fill="#faa58f" d="M191.5 213.5v15h-78c.284-1.915-.049-3.581-1-5v-9c.667 0 1-.333 1-1 25.881-.429 51.881-.429 78 0Z"/><path style="opacity:1" fill="#faa18a" d="M6.5 221.5h30v18h-30v-18Z"/><path style="opacity:1" fill="#f99f88" d="M112.5 223.5c.951 1.419 1.284 3.085 1 5h78v11h-78c.31 3.213-.023 6.213-1 9v-25ZM604.5 228.5h79c.667 0 1 .333 1 1 .284 3.277-.049 6.443-1 9.5-26.331.5-52.665.667-79 .5v-11Z"/><path style="opacity:1" fill="#faa18a" d="M762.5 221.5h30v18c-10.181.327-20.181-.006-30-1v-17Z"/><path style="opacity:1" fill="#fb9980" d="M191.5 239.5v16c-26.408.324-52.741-.01-79-1v-6c.977-2.787 1.31-5.787 1-9h78Z"/><path style="opacity:1" fill="#6f727e" d="M205.5 198.5v47h385v-47a576.628 576.628 0 0 1 1 48h-387a576.628 576.628 0 0 1 1-48Z"/><path style="opacity:1" fill="#d2d5e0" d="M571.5 226.5c-96.499.999-193.165 1.333-290 1v-14h291c.318 4.532-.015 8.866-1 13Z"/><path style="opacity:1" fill="#fefffe" d="M571.5 226.5h-289v-12h289v12Z"/><path style="opacity:1" fill="#636671" d="M249.5 214.5c4.47-.986 9.137-1.319 14-1 .318 4.532-.015 8.866-1 13v-12h-13Z"/><path style="opacity:1" fill="#030404" d="M249.5 214.5h13v12h-13v-12Z"/><path style="opacity:1" fill="#fafafb" d="M223.5 213.5h13v13h-13v-13Z"/><path style="opacity:1" fill="#f7977e" d="M684.5 229.5a903.85 903.85 0 0 1 0 85v-41c.166-6.342 0-12.675-.5-19a1590.79 1590.79 0 0 1-79.5 1v-16c26.335.167 52.669 0 79-.5.951-3.057 1.284-6.223 1-9.5Z"/><path style="opacity:1" fill="#fb9276" d="M684.5 273.5a1620.636 1620.636 0 0 0-80-1v-17a1590.79 1590.79 0 0 0 79.5-1c.5 6.325.666 12.658.5 19Z"/><path style="opacity:1" fill="#fb9479" d="M6.5 239.5h30v33h-30v-33Z"/><path style="opacity:1" fill="#fa9176" d="M112.5 254.5c26.259.99 52.592 1.324 79 1v17h-78c.313 3.542-.021 6.875-1 10v-28Z"/><path style="opacity:1" fill="#f69176" d="M761.5 238.5h1c9.819.994 19.819 1.327 30 1v33h-30v60c.326 8.184-.008 16.184-1 24v-118Z"/><path style="opacity:1" fill="#fb8869" d="M191.5 272.5v23h-78v19c-.994-10.487-1.328-21.154-1-32 .979-3.125 1.313-6.458 1-10h78Z"/><path style="opacity:1" fill="#fc886a" d="M604.5 272.5c26.741-.324 53.408.009 80 1v22h-80v-23Z"/><path style="opacity:1" fill="#fc8464" d="M6.5 272.5h30v37h-30v-37ZM792.5 272.5v37h-30v-37h30Z"/><path style="opacity:1" fill="#fb7e5d" d="M604.5 295.5h80v19a8.43 8.43 0 0 0-4 .5 53.553 53.553 0 0 1-8 5.5 1156.835 1156.835 0 0 0-68-1v-24ZM191.5 295.5v24h-67a153.715 153.715 0 0 1-11-5v-19h78Z"/><path style="opacity:1" fill="#fc7956" d="M6.5 309.5h30v23h-30v-23Z"/><path style="opacity:1" fill="#fb7552" d="M124.5 319.5h67v37h-7c-2.141-2.972-4.808-5.472-8-7.5a82.15 82.15 0 0 1-22-13c-3.993-.322-7.326-1.988-10-5-3.415-.406-6.082-2.072-8-5l-10-4c-.881-.708-1.547-1.542-2-2.5Z"/><path style="opacity:1" fill="#fb7551" d="M604.5 319.5c22.839-.331 45.506.003 68 1a1335.714 1335.714 0 0 1-33 19.5l-19 9-4 4a101.096 101.096 0 0 1-12 5.5v-39Z"/><path style="opacity:1" fill="#fc7956" d="M762.5 309.5h30v23h-30v-23Z"/><path style="opacity:1" fill="#fc6d47" d="M6.5 332.5h30c-.166 8.673 0 17.34.5 26 1.106 2.613 2.94 4.28 5.5 5h-36v-31Z"/><path style="opacity:1" fill="#dee0e9" d="M382.5 355.5h2v19a5625.947 5625.947 0 0 0-150 1 371.68 371.68 0 0 0-16.5 16c-.92 6.776-.586 13.443 1 20a326.819 326.819 0 0 0 15.5 15c1.068.934 2.401 1.268 4 1a2.428 2.428 0 0 0 .5 2 71.798 71.798 0 0 1 10.5 9.5c44.999.5 89.999.667 135 .5v6h-26c-.318 4.532.015 8.866 1 13h64c.985-4.134 1.318-8.468 1-13h-26v-6c45.668.167 91.335 0 137-.5a1576.641 1576.641 0 0 0 49-19c-7.3-2.371-14.3-5.204-21-8.5a297.083 297.083 0 0 1 13.5-6c2.074-3.291 1.908-6.457-.5-9.5a1825.832 1825.832 0 0 0-54-20.5 3843.432 3843.432 0 0 0-124-1v-19a2.428 2.428 0 0 1 2 .5c-.935 2.381-1.268 4.881-1 7.5 37.051 7.926 73.717 6.426 110-4.5a272.803 272.803 0 0 1 54-2 155.858 155.858 0 0 1 27 4.5v159c-26.669-.167-53.335 0-80 .5l-3 1.5c-1.5 78.658-2.666 78.658-3.5 0l-1.5-1.5a544.417 544.417 0 0 0-33-.5c.317-4.202-.017-8.202-1-12-.011-1.517-.677-2.684-2-3.5a25.777 25.777 0 0 0-8-2 9.454 9.454 0 0 1-1.5-2.5 195.086 195.086 0 0 1-2-26c-.708-.881-1.542-1.547-2.5-2-5.14-.988-10.474-1.321-16-1-.318 4.532.015 8.866 1 13h4c-.635 9.432 1.532 18.098 6.5 26a37.783 37.783 0 0 0 7.5 6.5c-.63 1.31-1.63 2.144-3 2.5a218.833 218.833 0 0 1-29 1v-10h-12c-.979 3.125-1.313 6.458-1 10-3.937-.293-7.77.04-11.5 1-.177-3.856-.677-7.523-1.5-11h-12c-.979 3.125-1.313 6.458-1 10h-12c.313-3.542-.021-6.875-1-10h-12v10c-9.75.306-19.416-.027-29-1-1.37-.356-2.37-1.19-3-2.5 7.44-4.367 11.773-10.867 13-19.5a61.13 61.13 0 0 0 1-13h5v-13a128.507 128.507 0 0 0-16 .5l-2.5 2.5-1 24a29.517 29.517 0 0 1-2.5 4.5c-5.289-.539-8.622 1.628-10 6.5-.982 3.462-1.315 7.129-1 11-7.674-.166-15.341 0-23 .5l-1.5 1.5c-.5 19.664-.667 39.331-.5 59h-4a834.486 834.486 0 0 0-1-57.5 1041.763 1041.763 0 0 0-78-1.5v-159a152.74 152.74 0 0 0 22 4.5 322.133 322.133 0 0 0 58-2l37-9a624.938 624.938 0 0 1 50 0c3.646 1.453 7.312 1.62 11 .5a4.457 4.457 0 0 0-2-1.5c.228-.399.562-.565 1-.5Z"/><path style="opacity:1" fill="#fd6d47" d="M762.5 332.5h30v31c-11.512.328-22.846-.005-34-1 2.475-1.187 3.475-3.187 3-6 .992-7.816 1.326-15.816 1-24Z"/><path style="opacity:1" fill="#979a9e" d="M591.5 520.5h-1v-261h-385v263h-1v-264h387v262Z"/><path style="opacity:1" fill="#cdd1e0" d="M590.5 309.5v52a155.858 155.858 0 0 0-27-4.5 272.803 272.803 0 0 0-54 2c-36.283 10.926-72.949 12.426-110 4.5-.268-2.619.065-5.119 1-7.5a2.428 2.428 0 0 0-2-.5c20.918-5.44 31.584-19.107 32-41 .904.709 1.237 1.709 1 3a345.919 345.919 0 0 0 41-1.5 649.32 649.32 0 0 0 38-9c26.844-3.881 53.511-3.048 80 2.5Z"/><path style="opacity:1" fill="#ccd1e0" d="M354.5 304.5c-4.966 25.08 4.367 42.08 28 51-.438-.065-.772.101-1 .5a4.457 4.457 0 0 1 2 1.5c-3.688 1.12-7.354.953-11-.5a624.938 624.938 0 0 0-50 0l-37 9a322.133 322.133 0 0 1-58 2 152.74 152.74 0 0 1-22-4.5v-51c27.221 5.981 54.554 6.481 82 1.5 21.734-7.342 44.067-10.509 67-9.5Z"/><path style="opacity:1" fill="#040302" d="M428.5 305.5c.176 3.227.843 6.227 2 9-.416 21.893-11.082 35.56-32 41-.991 6.479-1.324 13.146-1 20h125a1825.832 1825.832 0 0 1 54 20.5c2.408 3.043 2.574 6.209.5 9.5a297.083 297.083 0 0 0-13.5 6 1018.535 1018.535 0 0 0-42 15h-124c-.323 6.522.01 12.855 1 19 8.15.993 16.483 1.326 25 1v12h-64v-12h26v-20h-151a326.819 326.819 0 0 1-15.5-15c-1.586-6.557-1.92-13.224-1-20a371.68 371.68 0 0 1 16.5-16h151c.324-6.854-.009-13.521-1-20h-2c-23.633-8.92-32.966-25.92-28-51 9.566-21.45 25.899-29.616 49-24.5 12.552 4.385 20.886 12.885 25 25.5Z"/><path style="opacity:1" fill="#f9626c" d="M385.5 291.5c15.192-1.486 25.692 4.848 31.5 19 1.939 15.293-4.228 25.793-18.5 31.5-19.27 2.233-30.27-6.267-33-25.5 1.542-12.532 8.209-20.865 20-25Z"/><path style="opacity:1" fill="#f6f6f9" d="M385.5 304.5c7.144-1.508 12.977.492 17.5 6 3.516 11.154-.484 17.821-12 20-9.633-2.292-13.633-8.292-12-18a76.332 76.332 0 0 1 6.5-8Z"/><path style="opacity:1" fill="#e9edf4" d="M590.5 309.5c-26.489-5.548-53.156-6.381-80-2.5a649.32 649.32 0 0 1-38 9 345.919 345.919 0 0 1-41 1.5c.237-1.291-.096-2.291-1-3 .285-3.329-.382-6.329-2-9-4.114-12.615-12.448-21.115-25-25.5-23.101-5.116-39.434 3.05-49 24.5-22.933-1.009-45.266 2.158-67 9.5-27.446 4.981-54.779 4.481-82-1.5v-53h385v50Z"/><path style="opacity:1" fill="#64696f" d="M428.5 305.5c1.618 2.671 2.285 5.671 2 9-1.157-2.773-1.824-5.773-2-9Z"/><path style="opacity:1" fill="#fc663e" d="M184.5 356.5h7v33h-6c.237 1.291-.096 2.291-1 3v-36Z"/><path style="opacity:1" fill="#797a7f" d="M384.5 355.5c.991 6.479 1.324 13.146 1 20h-151a5625.947 5625.947 0 0 1 150-1v-19Z"/><path style="opacity:1" fill="#78797e" d="M398.5 355.5v19c41.503-.332 82.837.001 124 1h-125c-.324-6.854.009-13.521 1-20Z"/><path style="opacity:1" fill="#fb643b" d="M758.5 362.5c11.154.995 22.488 1.328 34 1a996.939 996.939 0 0 0-6 4.5c-1.399.595-2.732.428-4-.5-.886.825-1.219 1.825-1 3-1.701.466-3.201.466-4.5 0-3.844 1.975-7.177 4.642-10 8l-1-1c-1.049 1.607-2.549 2.273-4.5 2v3c-3.937.204-7.604 1.204-11 3 .381 2.442-.286 3.109-2 2-.798.457-1.131 1.124-1 2h-39c7.563-4.119 15.229-8.286 23-12.5 8.452-5.975 17.452-10.808 27-14.5Z"/><path style="opacity:1" fill="#fc6138" d="M6.5 363.5h36c1.382 1.301 3.048 2.134 5 2.5 1.374 3.683 4.04 5.349 8 5a91663.247 91663.247 0 0 1 59 34.5h-36c-.897-1.098-1.73-1.098-2.5 0a4.932 4.932 0 0 1-.5-3h-6v-3h-5v-3a544.412 544.412 0 0 1-29-14v-3a58.967 58.967 0 0 1-11-3v-3h-6v-3c-4.708-1.346-8.708-3.679-12-7Z"/><path style="opacity:1" fill="#8bd4f4" d="M239.5 388.5h16v25a145.053 145.053 0 0 1-17-.5c-10.911-8.631-10.578-16.797 1-24.5Z"/><path style="opacity:1" fill="#527b8e" d="M239.5 388.5c5.475-.989 11.142-1.322 17-1 .326 8.849-.007 17.516-1 26v-25h-16Z"/><path style="opacity:1" fill="#fdc246" d="M269.5 388.5c69.67-.333 139.337 0 209 1a147.123 147.123 0 0 1 3 24h-213c-.326-8.517.007-16.85 1-25Z"/><path style="opacity:1" fill="#e69726" d="M269.5 388.5a10093.073 10093.073 0 0 1 246-.5c2.21 4.035 3.543 8.368 4 13a113.422 113.422 0 0 0-3 12.5h-35a147.123 147.123 0 0 0-3-24c-69.663-1-139.33-1.333-209-1Z"/><path style="opacity:1" fill="#f1daba" d="M531.5 392.5a273.279 273.279 0 0 1 21 8.5 240.704 240.704 0 0 1-20 7.5l-1-1.5a73.102 73.102 0 0 0 2-6.5 53.03 53.03 0 0 1-2-8Z"/><path style="opacity:1" fill="#fc5b30" d="M708.5 389.5h39c-1.765.961-3.765 1.295-6 1v3a12.93 12.93 0 0 0-5 .5c-1.079 2.043-2.746 3.376-5 4l1 1a12.93 12.93 0 0 1-5 .5v3a9.86 9.86 0 0 0-6 1c-3.423 1.192-6.256 3.192-8.5 6l-1-1c-1.049 1.607-2.549 2.273-4.5 2v3h-6v3h-5v3c-1.859-.039-3.192.794-4 2.5-1.842-.068-3.509.099-5 .5h-34c.453-.958 1.119-1.792 2-2.5a24672.35 24672.35 0 0 0 21-11 163.592 163.592 0 0 1 27-15 31.447 31.447 0 0 1 5-4.5Z"/><path style="opacity:1" fill="#adb2c7" d="M563.5 411.5c6.7 3.296 13.7 6.129 21 8.5a1576.641 1576.641 0 0 1-49 19c-45.665.5-91.332.667-137 .5v-12c41.17.332 82.17-.001 123-1a1018.535 1018.535 0 0 1 42-15Z"/><path style="opacity:1" fill="#fd5629" d="M191.5 389.5v133h-5c.167-19.336 0-38.67-.5-58a1204.023 1204.023 0 0 0-28.5-16.5c-6.204-2.789-12.537-4.622-19-5.5v-3h-6v-3h-3v-3h-6v-3h-5v-3c-2.921.354-5.254-.646-7-3-1.714 1.109-2.381.442-2-2a58.97 58.97 0 0 1-11-3v-3a27.267 27.267 0 0 0-9-3v-3c-2.908.238-5.242-.762-7-3-2.005.999-3.338.332-4-2h36a1398.727 1398.727 0 0 0 57 32.5c4.091 1.227 7.591.394 10.5-2.5 2.321-14.13 3.154-28.463 2.5-43 .904-.709 1.237-1.709 1-3h6Z"/><path style="opacity:1" fill="#fd5427" d="M653.5 422.5h34c.086.996-.248 1.829-1 2.5a101.955 101.955 0 0 0-13 5.5v3h-6v3h-6v3c-1.788-.285-3.455.048-5 1 1.129 2.029.629 2.363-1.5 1-1.712 3.452-4.212 4.452-7.5 3v3c-3.096-.593-5.429.407-7 3a47.25 47.25 0 0 1-7 3v3h-6v3c-1.788-.285-3.455.048-5 1a28.335 28.335 0 0 0-9.5 6l-1-1c-1.049 1.607-2.549 2.273-4.5 2-.167 12.338 0 24.671.5 37 .414.457.914.791 1.5 1a57.15 57.15 0 0 1 1 15h-6v-72a15.024 15.024 0 0 0 8-2.5 461.126 461.126 0 0 1 41-23.5Z"/><path style="opacity:1" fill="#6b6e7a" d="M234.5 426.5h151v20h-26v12c-.985-4.134-1.318-8.468-1-13h26v-18h-146c-1.599.268-2.932-.066-4-1Z"/><path style="opacity:1" fill="#6b6f7c" d="M521.5 426.5c-40.83.999-81.83 1.332-123 1v18c-.99-6.145-1.323-12.478-1-19h124Z"/><path style="opacity:1" fill="#adb2c7" d="M238.5 427.5h146v12c-45.001.167-90.001 0-135-.5a71.798 71.798 0 0 0-10.5-9.5 2.428 2.428 0 0 1-.5-2Z"/><path style="opacity:1" fill="#5d6064" d="M398.5 445.5h26c.318 4.532-.015 8.866-1 13v-12c-8.517.326-16.85-.007-25-1Z"/><path style="opacity:1" fill="#414347" d="M452.5 472.5h-15v12c-.985-4.134-1.318-8.468-1-13 5.526-.321 10.86.012 16 1Z"/><path style="opacity:1" fill="#09090a" d="M330.5 519.5c-5.14.988-10.474 1.321-16 1v-11c1.378-4.872 4.711-7.039 10-6.5a29.517 29.517 0 0 0 2.5-4.5l1-24 2.5-2.5a128.507 128.507 0 0 1 16-.5v13h-5a61.13 61.13 0 0 1-1 13c-1.227 8.633-5.56 15.133-13 19.5.63 1.31 1.63 2.144 3 2.5Z"/><path style="opacity:1" fill="#070707" d="M452.5 472.5c.958.453 1.792 1.119 2.5 2 .089 8.742.756 17.409 2 26 .374.916.874 1.75 1.5 2.5 2.789.241 5.456.908 8 2 1.323.816 1.989 1.983 2 3.5v12c-5.526.321-10.86-.012-16-1 1.37-.356 2.37-1.19 3-2.5a37.783 37.783 0 0 1-7.5-6.5c-4.968-7.902-7.135-16.568-6.5-26h-4v-12h15Z"/><path style="opacity:.99" fill="#283338" d="M468.5 508.5c.983 3.798 1.317 7.798 1 12 11.005-.167 22.005 0 33 .5l1.5 1.5c.834 78.658 2 78.658 3.5 0l3-1.5c26.665-.5 53.331-.667 80-.5h20c1.613.444 2.78 1.444 3.5 3 .667 59 .667 118 0 177-.5 1.833-1.667 3-3.5 3.5-13.996.5-27.996.667-42 .5-19.837-.667-39.837-1.333-60-2-.387-1.22-1.22-1.887-2.5-2a1248.856 1248.856 0 0 1-52.5 29.5c-3.25 3.637-7.25 5.97-12 7-3.492 1.624-6.492 3.958-9 7-6.761 1.869-12.761 5.202-18 10-5.111 2.701-10.611 4.534-16.5 5.5a66.364 66.364 0 0 1-9.5-2.5 35.157 35.157 0 0 0-10-5c-3.796-3.592-8.129-6.259-13-8a279.412 279.412 0 0 0-19-12c-3.959.349-6.626-1.317-8-5l-10-4a201.636 201.636 0 0 0-27-17 48.519 48.519 0 0 0-12-3.5c-.587-2.906-2.254-4.572-5-5 .322 2.222-.345 4.056-2 5.5-18.171.168-36.171.668-54 1.5-14.67.167-29.337 0-44-.5a9.454 9.454 0 0 1-2.5-1.5 537.45 537.45 0 0 1-1-65 57.09 57.09 0 0 1 5.5-7 284.889 284.889 0 0 0 14.5-14c.5-7.993.666-15.993.5-24 3.8 1.643 7.8 2.31 12 2a40.914 40.914 0 0 0 .5 9 107.125 107.125 0 0 0 8.5-9c5.355-3.355 9.688-7.688 13-13 2.647-2.311 5.314-4.644 8-7a43.117 43.117 0 0 0 1-13h-58c-2.493.171-4.326-.829-5.5-3-.667-11-.667-22 0-33 1.174-2.171 3.007-3.171 5.5-3h19c26.064-.473 52.064.027 78 1.5a834.486 834.486 0 0 1 1 57.5c.661 4.816-.339 9.149-3 13v11h5c.283.789.783 1.456 1.5 2 .499-4.321.666-8.654.5-13v-13c-.167-19.669 0-39.336.5-59l1.5-1.5c7.659-.5 15.326-.666 23-.5-.315-3.871.018-7.538 1-11v11c5.526.321 10.86-.012 16-1 9.584.973 19.25 1.306 29 1h12v-10c.979 3.125 1.313 6.458 1 10h12c-.313-3.542.021-6.875 1-10v10c4.223-.161 8.223.506 12 2v-12c.823 3.477 1.323 7.144 1.5 11 3.73-.96 7.563-1.293 11.5-1-.313-3.542.021-6.875 1-10v10h12c9.75.306 19.416-.027 29-1 5.14.988 10.474 1.321 16 1v-12Z"/><path style="opacity:1" fill="#020303" d="M411.5 510.5h12v10h-12v-10ZM385.5 510.5h12v12c-3.777-1.494-7.777-2.161-12-2v-10ZM371.5 510.5v10h-12v-10h12Z"/><path style="opacity:.951" fill="#253237" d="M618.5 520.5c34.335-.167 68.668 0 103 .5l1.5 1.5c.667 59.667.667 119.333 0 179l-1.5 1.5a687.529 687.529 0 0 1-52 1.5l-50-.5a9.454 9.454 0 0 1-2.5-1.5 4028.078 4028.078 0 0 1-1-179c.698-1.191 1.531-2.191 2.5-3Zm39 39h24v105h-24v-105Z"/><path style="opacity:1" fill="#dee0e9" d="m397.5 524.5-2 56c-.333-19.012 0-38.012 1-57 .607.124.94.457 1 1Z"/><path style="opacity:1" fill="#b0b3b8" d="M397.5 524.5c.333 19.012 0 38.012-1 57-.607-.124-.94-.457-1-1l2-56Z"/><path style="opacity:1" fill="#fc0101" d="M296.5 528.5h91v167h-91v-167Z"/><path style="opacity:1" fill="#5b2529" d="M405.5 528.5v167h91a2117.57 2117.57 0 0 1-92 1 7058.311 7058.311 0 0 1 1-168Z"/><path style="opacity:1" fill="#fe0000" d="M405.5 528.5h91v167h-91v-167Z"/><path style="opacity:1" fill="#fc0101" d="M605.5 528.5v167h-91v-167h91ZM624.5 528.5h91v167h-91v-167Zm33 31v105h24v-105h-24Z"/><path style="opacity:1" fill="#b31314" d="M276.5 587.5v-56h-87v22c-.992-7.482-1.325-15.148-1-23h89a813 813 0 0 1-1 57Z"/><path style="opacity:1" fill="#fe0000" d="M276.5 587.5a5298.57 5298.57 0 0 0-61.5 61 37.391 37.391 0 0 0-1.5 11.5c-.206 4.523.461 8.856 2 13 20.331.5 40.664.667 61 .5v22h-87v-56a5298.57 5298.57 0 0 0 61.5-61c.667-7.667.667-15.333 0-23a9.454 9.454 0 0 0-2.5-1.5c-19.664-.5-39.331-.667-59-.5v-22h87v56Z"/><path style="opacity:.945" fill="#283137" d="M67.5 533.5a2903.514 2903.514 0 0 1 107.5 36 196.139 196.139 0 0 1 1 39 6.978 6.978 0 0 1-2.5 3.5l-92 30 91 1c1.833.5 3 1.667 3.5 3.5.667 7.667.667 15.333 0 23a9.454 9.454 0 0 1-1.5 2.5 768.025 768.025 0 0 1-55 1.5l-53-.5a4.458 4.458 0 0 1-2-1.5 2282.63 2282.63 0 0 1-.5-56c1.8-1.817 3.966-2.984 6.5-3.5l72-22a5154.88 5154.88 0 0 1-77-24l-1.5-1.5a196.24 196.24 0 0 1 0-28 30.217 30.217 0 0 1 3.5-3Z"/><path style="opacity:1" fill="#f80302" d="M71.5 543.5a2733.904 2733.904 0 0 0 97 31v31a2010.527 2010.527 0 0 0-96 31c-1.306-5.554-1.306-11.054 0-16.5l84-26c5.333-2.667 5.333-5.333 0-8l-84-26a70.918 70.918 0 0 1-1-16.5Z"/><path style="opacity:1" fill="#273238" d="M323.5 551.5c11.671-.167 23.338 0 35 .5.916.374 1.75.874 2.5 1.5.667 39 .667 78 0 117l-1.5 1.5c-12 .667-24 .667-36 0l-1.5-1.5c-.667-39-.667-78 0-117 .717-.544 1.217-1.211 1.5-2Z"/><path style="opacity:1" fill="#2a3238" d="M432.5 551.5c11.671-.167 23.338 0 35 .5a6.978 6.978 0 0 1 3.5 2.5c.667 38 .667 76 0 114a11.333 11.333 0 0 1-1.5 3.5 342.33 342.33 0 0 1-37 0 9.454 9.454 0 0 1-1.5-2.5 3362.569 3362.569 0 0 1 0-116c.717-.544 1.217-1.211 1.5-2Z"/><path style="opacity:1" fill="#283339" d="M542.5 551.5c11.671-.167 23.338 0 35 .5.916.374 1.75.874 2.5 1.5.667 39 .667 78 0 117l-1.5 1.5c-12 .667-24 .667-36 0l-1.5-1.5c-.667-39-.667-78 0-117 .717-.544 1.217-1.211 1.5-2Z"/><path style="opacity:.964" fill="#263137" d="M651.5 551.5c11.671-.167 23.338 0 35 .5.916.374 1.75.874 2.5 1.5.667 39 .667 78 0 117l-1.5 1.5c-12 .667-24 .667-36 0l-1.5-1.5c-.667-39-.667-78 0-117 .717-.544 1.217-1.211 1.5-2Zm6 8v105h24v-105h-24Z"/><path style="opacity:1" fill="#1b1c1d" d="M346.5 559.5v3a69.302 69.302 0 0 1-16-1c-.111-.617-.444-1.117-1-1.5a145.053 145.053 0 0 1 17-.5Z"/><path style="opacity:1" fill="#dee0e9" d="M346.5 559.5h7v21h-24c-.323-6.522.01-12.855 1-19a69.302 69.302 0 0 0 16 1v-3Z"/><path style="opacity:1" fill="#040404" d="M454.5 559.5c-.473 1.406-1.473 2.073-3 2a43.117 43.117 0 0 1-13-1 64.873 64.873 0 0 1 16-1Z"/><path style="opacity:1" fill="#dadde5" d="M454.5 559.5h9v22h-25v-19c4.532.318 8.866-.015 13-1 1.527.073 2.527-.594 3-2Z"/><path style="opacity:1" fill="#dfe1ea" d="M548.5 559.5h24v21h-24v-21Z"/><path style="opacity:1" fill="#fd5325" d="M186.5 561.5h5c-.837 8.662.329 16.995 3.5 25a53.864 53.864 0 0 0 6.5 6c.166 8.007 0 16.007-.5 24a284.889 284.889 0 0 1-14.5 14v-69Z"/><path style="opacity:1" fill="#030202" d="M191.5 561.5h13c-.166 5.344.001 10.677.5 16l3.5 3.5c8.994.5 17.994.666 27 .5-3.312 5.312-7.645 9.645-13 13h-9c-4.2.31-8.2-.357-12-2a53.864 53.864 0 0 1-6.5-6c-3.171-8.005-4.337-16.338-3.5-25Z"/><path style="opacity:1" fill="#dadde5" d="M204.5 561.5h40a43.117 43.117 0 0 1-1 13 4602.245 4602.245 0 0 1-8 7c-9.006.166-18.006 0-27-.5l-3.5-3.5a128.507 128.507 0 0 1-.5-16Z"/><path style="opacity:1" fill="#a0a5a9" d="M353.5 559.5c.992 7.148 1.325 14.481 1 22h-25v-1h24v-21ZM548.5 559.5v21h24v1h-25c-.325-7.519.008-14.852 1-22Z"/><path style="opacity:1" fill="#090b0b" d="M284.5 581.5h4v13h-7c2.661-3.851 3.661-8.184 3-13Z"/><path style="opacity:1" fill="#010101" d="M329.5 581.5h25v13h-25v-13ZM438.5 581.5h25v13h-25v-13ZM547.5 581.5h25v13h-25v-13Z"/><path style="opacity:1" fill="#fdfdfd" d="M213.5 594.5h9a107.125 107.125 0 0 1-8.5 9 40.914 40.914 0 0 1-.5-9Z"/><path style="opacity:1" fill="#fe5426" d="M281.5 594.5h6c.315 3.871-.018 7.538-1 11h-5v-11Z"/><path style="opacity:1" fill="#90432f" d="M287.5 594.5h1a84.902 84.902 0 0 1-.5 13c-.717-.544-1.217-1.211-1.5-2 .982-3.462 1.315-7.129 1-11Z"/><path style="opacity:1" fill="#fe5326" d="M329.5 594.5h24a625.298 625.298 0 0 1-1 50c-4.601-1.414-8.601-3.914-12-7.5a27.7 27.7 0 0 1-10.5-5.5 684.346 684.346 0 0 1-.5-37Z"/><path style="opacity:1" fill="#91432e" d="M353.5 594.5h1a651.277 651.277 0 0 1-1 51c-.607-.124-.94-.457-1-1a625.298 625.298 0 0 0 1-50Z"/><path style="opacity:1" fill="#d94e29" d="M395.5 594.5c1.332 12.315 1.999 24.982 2 38l-.5 38a970.443 970.443 0 0 1-1.5-76Z"/><path style="opacity:1" fill="#fc5326" d="M438.5 594.5h25a400.778 400.778 0 0 1-1 40 276.538 276.538 0 0 1-23.5 14c-.5-17.997-.667-35.997-.5-54ZM504.5 594.5c1.312 2.243 1.978 4.91 2 8l-1 8a64.873 64.873 0 0 1-1-16Z"/><path style="opacity:1" fill="#91969a" d="M547.5 594.5h1c-.331 22.173.003 44.173 1 66-.283.789-.783 1.456-1.5 2a2311.03 2311.03 0 0 1-.5-68Z"/><path style="opacity:1" fill="#fefefe" d="M548.5 594.5h24c.167 18.003 0 36.003-.5 54a104.484 104.484 0 0 1-22.5 12 1089.684 1089.684 0 0 1-1-66Z"/><path style="opacity:1" fill="#fdfdfd" d="M287.5 622.5a931.31 931.31 0 0 1-1 61c-1.678-5.155-2.678-10.655-3-16.5a285.846 285.846 0 0 0-32-2l-4-4-19-9a7.248 7.248 0 0 1-2-2.5 2586.1 2586.1 0 0 1 42.5-43c2.047 4.056 4.881 7.556 8.5 10.5a76.46 76.46 0 0 0 10 5.5Z"/><path style="opacity:1" fill="#91969a" d="M287.5 622.5a663.68 663.68 0 0 1 .5 63c-.717-.544-1.217-1.211-1.5-2a931.31 931.31 0 0 0 1-61Z"/><path style="opacity:1" fill="#fdfdfd" d="M505.5 622.5c.667 10.495 1 21.161 1 32a274.038 274.038 0 0 1-1.5 33 712.75 712.75 0 0 1 .5-65Z"/><path style="opacity:1" fill="#92191c" d="M189.5 639.5v56h87a1937.243 1937.243 0 0 1-88 1 813 813 0 0 1 1-57Z"/><path style="opacity:1" fill="#5c666a" d="M329.5 645.5v19h24v-5c.961 1.765 1.295 3.765 1 6h-26c-.324-6.854.009-13.521 1-20Z"/><path style="opacity:1" fill="#fbfbfb" d="M329.5 645.5c2.725 1.213 5.059 3.046 7 5.5 6.489 1.354 12.156 4.187 17 8.5v5h-24v-19Z"/><path style="opacity:1" fill="#f6f7f7" d="M461.5 648.5c1.946 4.896 2.613 10.229 2 16h-25v-3a8.43 8.43 0 0 0 4-.5c5.856-5.164 12.19-9.33 19-12.5Z"/><path style="opacity:1" fill="#92191b" d="M71.5 651.5a2352.52 2352.52 0 0 1 97-1v15a2352.52 2352.52 0 0 1-97-1h96v-13h-96Z"/><path style="opacity:1" fill="#fe0000" d="M71.5 651.5h96v13h-96v-13Z"/><path style="opacity:1" fill="#e65028" d="M221.5 660.5a58.608 58.608 0 0 0 8 4.5 32.462 32.462 0 0 1-8 .5v-5Z"/><path style="opacity:1" fill="#ee5227" d="M570.5 661.5c1.548.321 2.215 1.321 2 3-4.14.544-4.807-.456-2-3Z"/><path style="opacity:1" fill="#fcfcfc" d="m401.5 703.5 72 2a5766.808 5766.808 0 0 1-75 43 97.288 97.288 0 0 0-12-5.5c-3.543-1.608-6.543-3.942-9-7-5.662-.917-10.329-3.583-14-8a24.569 24.569 0 0 0-8-3 407.636 407.636 0 0 0-32-19.5l68-2c2.276-.256 3.443-1.59 3.5-4 .17-5.696.67-11.362 1.5-17a182.468 182.468 0 0 1 1.5 19c.816 1.323 1.983 1.989 3.5 2Z"/><path style="opacity:1" fill="#712224" d="M296.5 528.5v167h91a2117.57 2117.57 0 0 1-92 1 7058.311 7058.311 0 0 1 1-168ZM605.5 528.5a7058.311 7058.311 0 0 1 1 168 2117.57 2117.57 0 0 1-92-1h91v-167ZM624.5 528.5v167h91a2117.57 2117.57 0 0 1-92 1 7058.311 7058.311 0 0 1 1-168Z"/><path style="opacity:1" fill="#fd5326" d="M568.5 704.5c-1.642 1.581-3.642 2.247-6 2v3h-6v3c-4.045-.073-7.378 1.427-10 4.5l1 1a118.288 118.288 0 0 0-17 7.5 10.756 10.756 0 0 0-2.5 3l-1-1c-1.049 1.607-2.549 2.273-4.5 2v3h-6v3h-5v3c-2.524-.071-4.524.929-6 3-2.12-1.372-3.12-.705-3 2a12.93 12.93 0 0 0-5 .5 101.657 101.657 0 0 0-10 7.5 9.108 9.108 0 0 1-5 1v3c-2.51-.446-4.51.22-6 2-2.216.703-4.049 2.036-5.5 4-1.813-1.109-2.646-.442-2.5 2a12.93 12.93 0 0 0-5 .5c-1.497 1.871-3.497 2.871-6 3-1.307 2.324-3.307 3.657-6 4l2 1a12.93 12.93 0 0 1-5 .5v3a9.86 9.86 0 0 0-6 1 35.217 35.217 0 0 1-8 4v3h-6v3h-6v3a8.43 8.43 0 0 0-4 .5l-5 5c-1.284.684-2.451.517-3.5-.5-1.263 2.968-3.263 3.968-6 3a2.428 2.428 0 0 0-.5 2h-12c-.507-1.359-1.507-2.359-3-3a137.913 137.913 0 0 0-11-4v-3c-2.133-1.386-5.133-2.386-9-3v-3h-5v-3c-3.005.247-5.505-.753-7.5-3l-1 1a4.934 4.934 0 0 1-.5-3h-6v-3h-5v-3h-6v-3c-5.922-1.727-11.089-4.727-15.5-9-.718.951-1.551 1.117-2.5.5 1.333-.667 1.333-1.333 0-2a12.93 12.93 0 0 0-5-.5v-3a58.97 58.97 0 0 1-11-3v-3c-8.654-3.265-16.321-6.932-23-11v-3h-6v-3h-5v-3a8.43 8.43 0 0 1-4-.5c-4.85-3.699-10.184-6.199-16-7.5v-3h-6v-3c-2.092-.061-3.592-1.061-4.5-3-1.299.466-2.799.466-4.5 0v-3c-2.386.241-4.386-.425-6-2a1444.975 1444.975 0 0 1 54-1.5c1.655-1.444 2.322-3.278 2-5.5 2.746.428 4.413 2.094 5 5a48.519 48.519 0 0 1 12 3.5 201.636 201.636 0 0 1 27 17l10 4c1.374 3.683 4.041 5.349 8 5a279.412 279.412 0 0 1 19 12c4.871 1.741 9.204 4.408 13 8a35.157 35.157 0 0 1 10 5 66.364 66.364 0 0 0 9.5 2.5c5.889-.966 11.389-2.799 16.5-5.5 5.239-4.798 11.239-8.131 18-10 2.508-3.042 5.508-5.376 9-7 4.75-1.03 8.75-3.363 12-7a1248.856 1248.856 0 0 0 52.5-29.5c1.28.113 2.113.78 2.5 2 20.163.667 40.163 1.333 60 2Z"/><path style="opacity:1" fill="#c7cacc" d="m391.5 703.5-68 2a27.603 27.603 0 0 0-5-1.5c24.331-.5 48.664-.667 73-.5Z"/><path style="opacity:1" fill="#c6c9cb" d="M401.5 703.5c25.336-.167 50.669 0 76 .5-1.401.41-2.734.91-4 1.5l-72-2Z"/><path style="opacity:1" fill="#fe5425" d="M476.5 757.5c1.333.667 1.333.667 0 0Z"/></svg>