<?xml version="1.0" encoding="UTF-8"?><svg xmlns="http://www.w3.org/2000/svg" width="800" height="800" style="shape-rendering:geometricPrecision;text-rendering:geometricPrecision;image-rendering:optimizeQuality;fill-rule:evenodd;clip-rule:evenodd"><path style="opacity:1" fill="#fccce9" d="M576.5-.5h9a2.429 2.429 0 0 0 .5 2c1.049-1.017 2.216-1.184 3.5-.5a20.495 20.495 0 0 0 2.5 3.5c1.356-.88 2.856-1.214 4.5-1v3c2.822 1.432 6.489 2.432 11 3v3c2.092.061 3.592 1.061 4.5 3 2.537-.677 4.537.323 6 3 2.361-.566 4.194.434 5.5 3l2-1c.35 2.067 2.017 3.067 5 3v3h6v3h5v3h6v3a27.247 27.247 0 0 0 9 3c-.219 1.175.114 2.175 1 3a6.846 6.846 0 0 1 4-1v3a8.435 8.435 0 0 1 4 .5c-1.154.914-.987 1.747.5 2.5 1.299-.466 2.799-.466 4.5 0v3h6v3h5v3a428.986 428.986 0 0 0 20 8.5l-2 1c2.522.61 4.522 1.943 6 4 1.634.493 3.301.66 5 .5v3c2.908-.238 5.242.762 7 3 .951-.826 1.951-.992 3-.5l-1 1a6.977 6.977 0 0 1 3.5 2.5l1-1c.483.948.649 1.948.5 3h6v3h5v3h-51c-3.467.054-6.134-1.446-8-4.5a161.879 161.879 0 0 1-33-19c-6.4-2.062-12.067-5.396-17-10l-19-9a30.312 30.312 0 0 0-12-7c-2.365-3.714-5.698-5.714-10-6-7.082-6.364-15.416-9.031-25-8a3700.562 3700.562 0 0 1-112 63.5h-19c1.348-1.1 2.848-2.1 4.5-3a4.934 4.934 0 0 0 .5-3c4.493-.216 7.993-2.216 10.5-6 1.011.837 2.178 1.17 3.5 1v-3a59.031 59.031 0 0 0 11-3v-3c1.808.009 3.475-.491 5-1.5l-1-1a12.935 12.935 0 0 1 5-.5v-3a9.864 9.864 0 0 0 6-1 35.213 35.213 0 0 1 8-4v-3h6v-3a59.031 59.031 0 0 1 11-3v-3c1.808.009 3.475-.491 5-1.5-1.388-.89-1.222-1.39.5-1.5 2.071 1.167 3.571.5 4.5-2 6.434-2.343 12.767-5.343 19-9v-3a59.031 59.031 0 0 1 11-3 4.934 4.934 0 0 1 .5-3l1 1c1.995-2.247 4.495-3.247 7.5-3v-3h5v-3h6v-3c1.808.009 3.475-.491 5-1.5l-1-1a12.936 12.936 0 0 1 5-.5v-3c3.552.188 6.219-1.145 8-4Z"/><path style="opacity:1" fill="#fccbe9" d="M368.5 86.5h-19c-3.875-.677-7.208-2.51-10-5.5-6.538-2.271-12.538-5.605-18-10a154.472 154.472 0 0 1-13-6 1013.157 1013.157 0 0 0-54-31c-9.098-8.801-19.765-11.801-32-9-4.194 3.22-8.86 5.554-14 7a2157.081 2157.081 0 0 1-68 39l-6 5c-7.49 2.654-14.49 6.154-21 10.5h-52v-3a59.029 59.029 0 0 1 11-3 4.932 4.932 0 0 1 .5-3l1 1c2.015-3.065 4.515-4.065 7.5-3v-3h5v-3c1.7.16 3.366-.007 5-.5 1.478-2.057 3.478-3.39 6-4l-2-1a18.436 18.436 0 0 1 6-.5v-3a87.51 87.51 0 0 0 14-5v-3h6v-3h5v-3c1.701-.466 3.201-.466 4.5 0 3.279-4.047 7.946-7.047 14-9a18.264 18.264 0 0 0 5-4l1 1c1.049-1.607 2.549-2.273 4.5-2v-3h5v-3h6v-3c4.612-1.195 9.279-2.862 14-5v-3c1.701-.466 3.201-.466 4.5 0 .908-1.939 2.408-2.939 4.5-3v-3h6v-3c1.788.285 3.455-.048 5-1a38.767 38.767 0 0 0 7-4.5 49.25 49.25 0 0 1 14 0c2.025 1.677 4.359 2.677 7 3-1.134 1.016-.801 1.683 1 2l5 1-1 1c2.622 3.073 5.955 4.573 10 4.5v3h6v3c3.191.262 5.858 1.596 8 4a9.864 9.864 0 0 0 6 1v3c3.58 1.22 7.247 2.386 11 3.5l-2 1c2.767.678 4.934 2.178 6.5 4.5l1-1c3.769 1.797 7.102 4.13 10 7a3.942 3.942 0 0 1 2-1c1.482 1.612 3.315 2.612 5.5 3v3h6v3h5v3h6v3a87.51 87.51 0 0 0 14 5v3c1.699-.16 3.366.007 5 .5l-1 1c1.525 1.009 3.192 1.509 5 1.5v3h6v3h5v3c2.985-1.065 5.485-.065 7.5 3l1-1c.483.948.649 1.948.5 3h5v3h6v3Z"/><path style="opacity:1" fill="#273339" d="M684.5 86.5a4656.016 4656.016 0 0 0 64 38.5c2.71 1.747 5.71 2.747 9 3a22.162 22.162 0 0 1 4 6.5c.167 75.334 0 150.667-.5 226a190.921 190.921 0 0 1-21.5 10.5l-8 6a377.475 377.475 0 0 1-23 12l-5 5c-3.982 1.393-7.649 3.227-11 5.5a3351.391 3351.391 0 0 1-84 48v-13c.667 0 1-.333 1-1l1-2a57.829 57.829 0 0 1 8-2.5 2367.217 2367.217 0 0 1 73-42l4-4a114.302 114.302 0 0 0 13-6 846.02 846.02 0 0 0 33-20 73.86 73.86 0 0 0 9-3.5 7901.316 7901.316 0 0 0-1.5-216 2129.254 2129.254 0 0 1-37.5-21.5c-3.415-.406-6.082-2.072-8-5a91.311 91.311 0 0 1-23-13 457.332 457.332 0 0 0-22-11c-2.508-3.042-5.508-5.376-9-7a457.332 457.332 0 0 1-22-11l-24-15c-3.415-.406-6.082-2.072-8-5a90.401 90.401 0 0 0-14-6c-5.722-6.435-12.722-8.768-21-7-7.36 5.663-15.36 9.996-24 13-3.619 3.977-7.952 6.644-13 8-2.537 2.546-5.537 4.212-9 5l-4 4-10 4a2551.356 2551.356 0 0 0-60 36 7185.005 7185.005 0 0 1 26 16 114.065 114.065 0 0 0 14 6c4.2 3.6 8.867 6.433 14 8.5a684.54 684.54 0 0 1 19-8.5 43.593 43.593 0 0 1 13-8c2.365-3.714 5.698-5.714 10-6a705.673 705.673 0 0 1 21-12c4.719-2.307 9.719-2.974 15-2a113.107 113.107 0 0 0 28 15l5 5a182.852 182.852 0 0 1 35 20 193.115 193.115 0 0 1 32 19 83.62 83.62 0 0 1 18.5 9.5l3 5c.667 48.667.667 97.333 0 146-5.181 6.173-11.681 10.34-19.5 12.5a12318.477 12318.477 0 0 1-28 18c-6.381 2.027-12.048 5.361-17 10-3.199.401-6.199 1.234-9 2.5 8.791-7.119 16.124-15.453 22-25 4.85-2.784 9.85-5.284 15-7.5a679.07 679.07 0 0 1 23-15 12.93 12.93 0 0 1 5-.5c.331-28.505-.002-56.838-1-85-.283-.789-.783-1.456-1.5-2l-1-51c-.383-.556-.883-.889-1.5-1a6234.195 6234.195 0 0 1-113-65 3162.857 3162.857 0 0 0-66 36.5 42.479 42.479 0 0 1-13 0 496.946 496.946 0 0 0-33-18 287.246 287.246 0 0 0-25-16c-6.921-5.743-6.588-11.076 1-16a490.618 490.618 0 0 0 17-10.5 3700.562 3700.562 0 0 0 112-63.5c9.584-1.031 17.918 1.636 25 8 4.302.286 7.635 2.286 10 6a30.312 30.312 0 0 1 12 7l19 9c4.933 4.604 10.6 7.938 17 10a161.879 161.879 0 0 0 33 19c1.866 3.054 4.533 4.554 8 4.5Z"/><path style="opacity:1" fill="#28333a" d="M349.5 86.5c6.759 5.882 14.426 10.382 23 13.5 8.98 5.636 17.98 11.302 27 17 3.415.406 6.082 2.072 8 5a312.387 312.387 0 0 1 27 14 77.598 77.598 0 0 0 23 13c3.796 3.592 8.129 6.259 13 8a2298.902 2298.902 0 0 0 33 19.5c3.15.802 5.817 2.468 8 5a163.67 163.67 0 0 1-25-1 758.84 758.84 0 0 0-32-19.5 175.043 175.043 0 0 1-28-16c-5.662-.917-10.329-3.583-14-8-5.086-1.414-9.419-4.081-13-8a546.6 546.6 0 0 0-35-18 337.282 337.282 0 0 1-26-17 731.874 731.874 0 0 1-34-19c-5.487-1.208-10.154-3.875-14-8a24672.35 24672.35 0 0 1-21-11 179.568 179.568 0 0 1-15-10A228.066 228.066 0 0 0 230 34.5 112.066 112.066 0 0 0 206.5 48l-10 4-3 3c-6.771 2.445-12.771 6.111-18 11l-10 4-4 4a520.666 520.666 0 0 0-59 34l-9 3c-3.796 3.592-8.13 6.259-13 8A361.546 361.546 0 0 1 48 137.5c-.667 72-.667 144 0 216a7214.146 7214.146 0 0 0 125 72c.5-21.664.667-43.331.5-65a340.197 340.197 0 0 0-18-8.5 55.63 55.63 0 0 0-18-10 78.488 78.488 0 0 0-23-13 56.965 56.965 0 0 0-10.5-7.5 5697.651 5697.651 0 0 1 0-151 6.978 6.978 0 0 1 2.5-3.5 146.497 146.497 0 0 0 31-18c8.372-3.019 16.038-7.352 23-13 5.093-1.382 9.426-4.049 13-8a90.42 90.42 0 0 0 14-6c1.918-2.928 4.585-4.594 8-5a226.438 226.438 0 0 1 29-17 42.498 42.498 0 0 1 13 0l4 4a154.79 154.79 0 0 0 13 6 1081.768 1081.768 0 0 0 33 20l4 1c8.98 5.636 17.98 11.302 27 17 7.27 1.913 13.604 5.58 19 11 4.75 1.03 8.75 3.363 12 7l10 4 4 4a222.128 222.128 0 0 1 15 7.5 139.2 139.2 0 0 1-23-1 52.415 52.415 0 0 1-12-4.5 445.595 445.595 0 0 0-55-31 301.986 301.986 0 0 0-51-30l-4.5-4.5c-2.09.652-4.257.819-6.5.5a368.678 368.678 0 0 1-44 26c-3.83 4.163-8.497 6.829-14 8a81.82 81.82 0 0 1-19 11c-5.201 4.797-11.201 8.13-18 10-5.017 4.221-10.35 7.721-16 10.5-.958.453-1.792 1.119-2.5 2-.5 18.664-.667 37.33-.5 56v80c5.301 1.324 9.968 3.824 14 7.5l10 4c1.918 2.928 4.585 4.594 8 5 2.674 3.012 6.007 4.678 10 5a82.15 82.15 0 0 0 22 13 20.231 20.231 0 0 1 7.5 7.5c.5 22.664.667 45.331.5 68-1.56 3.413-2.393 7.079-2.5 11-2.909 2.894-6.409 3.727-10.5 2.5-4.863-3.51-10.196-6.177-16-8a1072.216 1072.216 0 0 0-37-23 184.163 184.163 0 0 0-16-7.5 876.829 876.829 0 0 0-24-15.5 130.15 130.15 0 0 1-23-13c-3.96.349-6.626-1.317-8-5l-8-4c-1.504-1.491-2.337-3.324-2.5-5.5-.5-6.325-.666-12.658-.5-19v-181c-.166-7.341 0-14.674.5-22 .093-2.507.926-4.674 2.5-6.5 3.29-.253 6.29-1.253 9-3a133.395 133.395 0 0 1 32-18c3.83-4.163 8.497-6.829 14-8a324.037 324.037 0 0 1 19-12.5c6.51-4.346 13.51-7.846 21-10.5l6-5c22.924-12.6 45.591-25.6 68-39 5.14-1.446 9.806-3.78 14-7 12.235-2.801 22.902.199 32 9a1013.157 1013.157 0 0 1 54 31 154.472 154.472 0 0 0 13 6c5.462 4.395 11.462 7.729 18 10 2.792 2.99 6.125 4.823 10 5.5Z"/><path style="opacity:1" fill="#fdfdfd" d="M486.5 180.5a2916.974 2916.974 0 0 1-108 1 222.128 222.128 0 0 0-15-7.5l-4-4-10-4c-3.25-3.637-7.25-5.97-12-7-5.396-5.42-11.73-9.087-19-11a10892.14 10892.14 0 0 0-27-17l-4-1a1081.768 1081.768 0 0 1-33-20 154.79 154.79 0 0 1-13-6l-4-4a42.498 42.498 0 0 0-13 0 226.438 226.438 0 0 0-29 17c-3.415.406-6.082 2.072-8 5a90.42 90.42 0 0 1-14 6c-3.574 3.951-7.907 6.618-13 8-6.962 5.648-14.628 9.981-23 13a146.497 146.497 0 0 1-31 18 6.978 6.978 0 0 0-2.5 3.5 5697.651 5697.651 0 0 0 0 151 56.965 56.965 0 0 1 10.5 7.5 78.488 78.488 0 0 1 23 13 55.63 55.63 0 0 1 18 10 340.197 340.197 0 0 1 18 8.5c.167 21.669 0 43.336-.5 65a7214.146 7214.146 0 0 1-125-72c-.667-72-.667-144 0-216A361.546 361.546 0 0 0 80.5 119c4.87-1.741 9.204-4.408 13-8l9-3a520.666 520.666 0 0 1 59-34l4-4 10-4c5.229-4.889 11.229-8.555 18-11l3-3 10-4A112.066 112.066 0 0 1 230 34.5 228.066 228.066 0 0 1 254.5 46a179.568 179.568 0 0 0 15 10 24672.35 24672.35 0 0 0 21 11c3.846 4.125 8.513 6.792 14 8a731.874 731.874 0 0 0 34 19 337.282 337.282 0 0 0 26 17 546.6 546.6 0 0 1 35 18c3.581 3.919 7.914 6.586 13 8 3.671 4.417 8.338 7.083 14 8a175.043 175.043 0 0 0 28 16 758.84 758.84 0 0 1 32 19.5Z"/><path style="opacity:1" fill="#fdfefe" d="M610.5 431.5a931.31 931.31 0 0 1-1-61c3.693-2.703 7.36-5.369 11-8 2.801-1.266 5.801-2.099 9-2.5 4.952-4.639 10.619-7.973 17-10 9.313-5.969 18.646-11.969 28-18 7.819-2.16 14.319-6.327 19.5-12.5.667-48.667.667-97.333 0-146l-3-5a83.62 83.62 0 0 0-18.5-9.5 193.115 193.115 0 0 0-32-19 182.852 182.852 0 0 0-35-20l-5-5a113.107 113.107 0 0 1-28-15c-5.281-.974-10.281-.307-15 2a705.673 705.673 0 0 0-21 12c-4.302.286-7.635 2.286-10 6a43.593 43.593 0 0 0-13 8 684.54 684.54 0 0 0-19 8.5 50.162 50.162 0 0 1-14-8.5 114.065 114.065 0 0 1-14-6 7185.005 7185.005 0 0 0-26-16 2551.356 2551.356 0 0 1 60-36l10-4 4-4c3.463-.788 6.463-2.454 9-5 5.048-1.356 9.381-4.023 13-8 8.64-3.004 16.64-7.337 24-13 8.278-1.768 15.278.565 21 7a90.401 90.401 0 0 1 14 6c1.918 2.928 4.585 4.594 8 5l24 15a457.332 457.332 0 0 0 22 11c3.492 1.624 6.492 3.958 9 7a457.332 457.332 0 0 1 22 11 91.311 91.311 0 0 0 23 13c1.918 2.928 4.585 4.594 8 5a2129.254 2129.254 0 0 0 37.5 21.5 7901.316 7901.316 0 0 1 1.5 216 73.86 73.86 0 0 1-9 3.5 846.02 846.02 0 0 1-33 20 114.302 114.302 0 0 1-13 6l-4 4a2367.217 2367.217 0 0 0-73 42 57.829 57.829 0 0 0-8 2.5Z"/><path style="opacity:1" fill="#fdc8e5" d="M61.5 86.5h52a324.037 324.037 0 0 0-19 12.5c-5.503 1.171-10.17 3.837-14 8a133.395 133.395 0 0 0-32 18c-2.71 1.747-5.71 2.747-9 3-1.574 1.826-2.407 3.993-2.5 6.5a242.43 242.43 0 0 0-.5 22h-30c.05-13.983.05-27.816 0-41.5a169.104 169.104 0 0 0 15-5.5v-3a58.967 58.967 0 0 0 11-3v-3a417.79 417.79 0 0 0 15-7 32.686 32.686 0 0 0 8.5-6l1 1c1.049-1.607 2.549-2.273 4.5-2Z"/><path style="opacity:1" fill="#fcc6e2" d="M349.5 86.5h19c2.133 1.386 5.133 2.386 9 3v3c2.908-.238 5.242.762 7 3l2-1c.35 2.067 2.017 3.067 5 3v3h6v3c2.516-.255 4.85-1.089 7-2.5a519.306 519.306 0 0 1 25-14.5h19a490.618 490.618 0 0 1-17 10.5c-7.588 4.924-7.921 10.257-1 16a287.246 287.246 0 0 1 25 16 496.946 496.946 0 0 1 33 18c4.333.667 8.667.667 13 0a3162.857 3162.857 0 0 1 66-36.5 6234.195 6234.195 0 0 0 113 65 7835.35 7835.35 0 0 1-177 1 2298.902 2298.902 0 0 1-33-19.5c-4.871-1.741-9.204-4.408-13-8a77.598 77.598 0 0 1-23-13 312.387 312.387 0 0 0-27-14c-1.918-2.928-4.585-4.594-8-5a10892.14 10892.14 0 0 0-27-17c-8.574-3.118-16.241-7.618-23-13.5Z"/><path style="opacity:1" fill="#fcc8e5" d="M684.5 86.5h51c1.951-.273 3.451.393 4.5 2l1-1c6 4.386 12.5 7.886 19.5 10.5l-1 1c1.525 1.009 3.192 1.509 5 1.5v3h6v3h5v3c2.041.354 3.874.354 5.5 0 .483.948.649 1.948.5 3 2.836 1.276 5.836 1.942 9 2a240.292 240.292 0 0 1 2 42h-30c.325-7.519-.008-14.852-1-22a22.162 22.162 0 0 0-4-6.5c-3.29-.253-6.29-1.253-9-3a4656.016 4656.016 0 0 1-64-38.5Z"/><path style="opacity:1" fill="#fcc6e0" d="M355.5 180.5a361.608 361.608 0 0 1-38 1 112.692 112.692 0 0 0-10-6.5 25.238 25.238 0 0 0-10 0l-2.5 2.5c-1.049-1.017-2.216-1.184-3.5-.5a157.284 157.284 0 0 1-6 4.5h-36c-8.582-17.861-21.249-21.528-38-11-15.052-9.82-27.385-7.153-37 8-19.305-1.988-38.972-2.654-59-2 5.65-2.779 10.983-6.279 16-10.5 6.799-1.87 12.799-5.203 18-10a81.82 81.82 0 0 0 19-11c5.503-1.171 10.17-3.837 14-8a368.678 368.678 0 0 0 44-26c2.243.319 4.41.152 6.5-.5l4.5 4.5a301.986 301.986 0 0 1 51 30 445.595 445.595 0 0 1 55 31 52.415 52.415 0 0 0 12 4.5Z"/><path style="opacity:.998" fill="#212125" d="M249.5 181.5c111.165.999 222.499 1.333 334 1 15.344 3.013 23.677 12.347 25 28v80c1.291.237 2.291-.096 3-1 15.863-1.799 27.03 4.867 33.5 20 2.283 9.711 1.449 19.045-2.5 28-5.876 9.547-13.209 17.881-22 25-3.64 2.631-7.307 5.297-11 8h-1a512.628 512.628 0 0 0 0 64v13c-.324 6.854.009 13.521 1 20v38a2365.52 2365.52 0 0 0-1.5 69c-1.912 8.173-6.078 14.84-12.5 20-2.979 1.154-5.979 2.32-9 3.5-19.838.168-39.504.668-59 1.5h-9c-77.667-.167-155.334 0-233 .5a30.786 30.786 0 0 1-3 4.5 6708.16 6708.16 0 0 1-10 9c-4.942 4.753-10.609 8.586-17 11.5a16.242 16.242 0 0 1-8 0c-12.408-6.065-22.741-14.732-31-26a4.934 4.934 0 0 0-3-.5 47.69 47.69 0 0 1-12-5c-5.058-5.447-8.558-11.78-10.5-19-.5-8.994-.666-17.994-.5-27v-323a84.978 84.978 0 0 1-15.5-19 133.777 133.777 0 0 1-3.5-13.5 69.596 69.596 0 0 1 3-13.5c9.615-15.153 21.948-17.82 37-8 16.751-10.528 29.418-6.861 38 11Z"/><path style="opacity:1" fill="#fca4ad" d="M191.5 173.5c7.884-1.974 13.384.693 16.5 8a43.385 43.385 0 0 0 2 8c1.333 1.333 2.667 1.333 4 0 .891-13.585 7.724-18.418 20.5-14.5 8.788 8.618 10.288 18.451 4.5 29.5-6.349 8.583-14.182 15.416-23.5 20.5a16.242 16.242 0 0 1-8 0c-9.789-6.122-17.956-13.955-24.5-23.5-4.23-11.739-1.397-21.073 8.5-28Z"/><path style="opacity:1" fill="#29343a" d="M317.5 181.5h-32a157.284 157.284 0 0 0 6-4.5c1.284-.684 2.451-.517 3.5.5l2.5-2.5a25.238 25.238 0 0 1 10 0 112.692 112.692 0 0 1 10 6.5Z"/><path style="opacity:1" fill="#fec5de" d="M6.5 156.5h30v68h-30v-68Z"/><path style="opacity:1" fill="#fdc4dd" d="M115.5 176.5c20.028-.654 39.695.012 59 2a69.596 69.596 0 0 0-3 13.5c.93 4.554 2.097 9.054 3.5 13.5a84.978 84.978 0 0 0 15.5 19h-77v10h-1c-.167-18.67 0-37.336.5-56 .708-.881 1.542-1.547 2.5-2Z"/><path style="opacity:1" fill="#fdc3dd" d="M680.5 175.5c.617.111 1.117.444 1.5 1l1 51c.717.544 1.217 1.211 1.5 2v15h-75c.328-11.512-.005-22.846-1-34-1.323-15.653-9.656-24.987-25-28a1296.178 1296.178 0 0 0-72-1c-2.183-2.532-4.85-4.198-8-5a7835.35 7835.35 0 0 0 177-1Z"/><path style="opacity:1" fill="#fec5de" d="M762.5 156.5h30v68h-30v-68Z"/><path style="opacity:1" fill="#4d4e51" d="M355.5 180.5a139.2 139.2 0 0 0 23 1c36.171.332 72.171-.002 108-1a163.67 163.67 0 0 0 25 1c24.172-.331 48.172.002 72 1-111.501.333-222.835-.001-334-1h68a361.608 361.608 0 0 0 38-1Z"/><path style="opacity:1" fill="#fdfefe" d="M599.5 207.5c.331 29.505-.002 58.838-1 88-9.712-7.837-20.046-8.67-31-2.5-2.994 4.353-6.994 7.02-12 8a174.328 174.328 0 0 0-10 12.5c-.993-8.15-1.326-16.483-1-25h30c.167-20.003 0-40.003-.5-60-2.088-4.424-5.255-7.924-9.5-10.5-94.403-.169-188.737-.669-283-1.5.086-.996-.248-1.829-1-2.5-6-.667-12-.667-18 0-.556.383-.889.883-1 1.5-4.014 1.834-8.347 2.501-13 2-.095-2.772-1.429-4.772-4-6 4.9-6.136 7.233-13.136 7-21 111.001-.167 222.001 0 333 .5 8.335 2.501 13.335 8.001 15 16.5Z"/><path style="opacity:1" fill="#4f5053" d="M599.5 207.5a1937.54 1937.54 0 0 0 3 87.5c-1.318 1.63-2.651 1.797-4 .5a1937.243 1937.243 0 0 0 1-88Z"/><path style="opacity:1" fill="#b98fa1" d="M608.5 210.5c.995 11.154 1.328 22.488 1 34-.65 15.371.016 30.371 2 45-.709.904-1.709 1.237-3 1v-80Z"/><path style="opacity:1" fill="#1d1f23" d="M281.5 216.5c.203 1.89-.463 3.39-2 4.5a72.464 72.464 0 0 1-17 0c-.906-1.699-1.239-3.533-1-5.5.111-.617.444-1.117 1-1.5 6-.667 12-.667 18 0 .752.671 1.086 1.504 1 2.5Z"/><path style="opacity:1" fill="#83e0e4" d="M261.5 215.5c-.239 1.967.094 3.801 1 5.5a72.464 72.464 0 0 0 17 0c1.537-1.11 2.203-2.61 2-4.5 94.263.831 188.597 1.331 283 1.5 4.245 2.576 7.412 6.076 9.5 10.5.5 19.997.667 39.997.5 60h-31c-2.411-8.245-7.744-13.745-16-16.5-36-.667-72-.667-108 0-2.206 2.209-2.54 4.709-1 7.5 36.329.833 72.662 1.333 109 1.5 3.239 1.736 5.573 4.236 7 7.5h-122c-2.411-8.245-7.744-13.745-16-16.5a3904.548 3904.548 0 0 0-125 0c-7.11 2.3-12.277 6.8-15.5 13.5-.5 42.665-.667 85.332-.5 128a3905.727 3905.727 0 0 1-1-125h-30v-25c1.517-.011 2.684-.677 3.5-2 .043-11.43.71-22.763 2-34 4.189-5.287 9.689-7.454 16.5-6.5 1.323-.816 1.989-1.983 2-3.5 4.653.501 8.986-.166 13-2Z"/><path style="opacity:1" fill="#fefefe" d="M217.5 234.5c1.655 8.452 2.655 17.119 3 26 .535 1.946 1.868 2.946 4 3v25h30c-.332 41.837.001 83.503 1 125 2.36 8.36 7.693 13.693 16 16 37.83.999 75.83 1.332 114 1v32h-114c-3.358-5.19-7.525-9.523-12.5-13-4.67 3.171-8.504 7.171-11.5 12h-24a2026.42 2026.42 0 0 0 1 90c-.098 2.053.569 3.72 2 5-12.254 7.674-16.588 18.507-13 32.5-7.043-1.709-11.543-6.209-13.5-13.5-.667-115-.667-230 0-345 5.016 4.775 10.849 6.109 17.5 4Z"/><path style="opacity:1" fill="#7a7a7d" d="M220.5 260.5c-.345-8.881-1.345-17.548-3-26 .672-.767 1.505-1.434 2.5-2 .5 9.327.666 18.661.5 28Z"/><path style="opacity:1" fill="#febfd5" d="M6.5 224.5h30v113h-30v-113Z"/><path style="opacity:1" fill="#fec0d7" d="M190.5 224.5v71h-77v-71h77Z"/><path style="opacity:1" fill="#fcbed4" d="M684.5 229.5a1807.264 1807.264 0 0 1 1 85 12.93 12.93 0 0 0-5 .5 679.07 679.07 0 0 0-23 15 146.103 146.103 0 0 0-15 7.5c3.949-8.955 4.783-18.289 2.5-28-6.47-15.133-17.637-21.799-33.5-20-1.984-14.629-2.65-29.629-2-45h75v-15Z"/><path style="opacity:1" fill="#febfd5" d="M762.5 224.5h30v113h-30v-113Z"/><path style="opacity:1" fill="#1f2024" d="M412.5 288.5v63h115c8.369 2.369 13.702 7.702 16 16 .167 42.335 0 84.668-.5 127-2.681 7.435-7.848 12.268-15.5 14.5-41.667.667-83.333.667-125 0-8.706-2.868-14.04-8.701-16-17.5v-62h-115c-8.307-2.307-13.64-7.64-16-16-.167-42.668 0-85.335.5-128 3.223-6.7 8.39-11.2 15.5-13.5 41.667-.667 83.333-.667 125 0 8.256 2.755 13.589 8.255 16 16.5Z"/><path style="opacity:1" fill="#fbdd7e" d="M386.5 367.5a702.728 702.728 0 0 0-1 53h-114c-3.264-1.427-5.764-3.761-7.5-7a3904.548 3904.548 0 0 1 0-125 25.55 25.55 0 0 1 5.5-6.5 1080.422 1080.422 0 0 1 65-1.5c21.42-.156 42.753.344 64 1.5a25.55 25.55 0 0 1 5.5 6.5c.5 20.997.667 41.997.5 63-9.468 1.47-15.468 6.803-18 16Z"/><path style="opacity:1" fill="#fdfefe" d="M413.5 288.5h121a116.517 116.517 0 0 1 .5 26 116.252 116.252 0 0 0-11.5-13.5c-5.891-.362-7.391 2.138-4.5 7.5l18.5 22.5c1.789.52 3.456.187 5-1a173.234 173.234 0 0 1 9-10.5l2 6c3.197 12.88 9.864 23.714 20 32.5a188.131 188.131 0 0 0 22 14 8.43 8.43 0 0 0 4 .5c.167 67.667 0 135.334-.5 203-2.492 8.326-7.992 13.326-16.5 15a21319.53 21319.53 0 0 1-292-1c1.879-8.597.545-16.597-4-24h189a78.558 78.558 0 0 0 19 14.5c9.46-.145 17.294-3.978 23.5-11.5l1.5 1.5a64.218 64.218 0 0 0 16 0c1.641-1.129 2.641-2.629 3-4.5 4.1-.263 8.1.07 12 1 .011 1.517.677 2.684 2 3.5 14.677 1.414 23.511-5.086 26.5-19.5.667-9.333.667-18.667 0-28a11.105 11.105 0 0 0-4.5-3v-1a813 813 0 0 0 1-57h-31c.332-31.504-.002-62.838-1-94-2.298-8.298-7.631-13.631-16-16-37.83-.999-75.83-1.332-114-1v-62Z"/><path style="opacity:1" fill="#838587" d="M543.5 288.5h1c-.326 8.517.007 16.85 1 25-.06.543-.393.876-1 1a169.926 169.926 0 0 1-1-26Z"/><path style="opacity:1" fill="#fca4ad" d="M576.5 299.5c13.378-1.643 20.211 4.357 20.5 18 2.321 2.533 4.321 2.199 6-1 1.779-15.794 9.945-20.628 24.5-14.5 7.612 6.837 10.446 15.337 8.5 25.5-7.141 15.141-18.308 26.308-33.5 33.5-5.158.105-9.824-1.562-14-5-7.833-6.5-15-13.667-21.5-21.5-2.903-8.216-3.236-16.549-1-25 2.738-4.24 6.238-7.574 10.5-10Z"/><path style="opacity:1" fill="#747578" d="M554.5 311.5c.047-3.428 1.213-6.428 3.5-9a26.032 26.032 0 0 1-3.5 9Z"/><path style="opacity:1" fill="#1e1f22" d="M337.5 305.5v11h36c1.493.812 2.16 2.145 2 4-.209 1.494-.876 2.661-2 3.5-5.657.499-11.324.666-17 .5-1.365 15.728-7.365 29.395-18 41l34 26c1.475 2.745.809 4.912-2 6.5-1.789.52-3.456.187-5-1a1215.13 1215.13 0 0 1-33-25.5 1298.356 1298.356 0 0 1-34 26.5c-2.808.92-4.975.087-6.5-2.5-.624-1.964-.124-3.631 1.5-5a1733.414 1733.414 0 0 0 31.5-24c.667-1 .667-2 0-3-7.056-7.446-11.39-16.112-13-26 2.333-2.667 4.667-2.667 7 0 3.233 8.136 7.733 15.469 13.5 22 8.185-8.37 13.185-18.37 15-30 .951-1.419 1.284-3.085 1-5h-54c-3.473-2.063-3.806-4.563-1-7.5 11.995-.5 23.995-.667 36-.5a60.931 60.931 0 0 1 .5-11c2.621-2.64 5.121-2.64 7.5 0Z"/><path style="opacity:1" fill="#887a4e" d="M337.5 305.5c.979 3.125 1.313 6.458 1 10 11.845-.328 23.512.005 35 1h-36v-11Z"/><path style="opacity:1" fill="#86888c" d="M554.5 311.5c-.627 4.641-.96 9.307-1 14l-2-6c.705-2.854 1.705-5.521 3-8Z"/><path style="opacity:1" fill="#fcbace" d="M112.5 234.5h1v61h77v104h-5c.326 8.517-.007 16.85-1 25 .167-22.669 0-45.336-.5-68a20.231 20.231 0 0 0-7.5-7.5 82.15 82.15 0 0 1-22-13c-3.993-.322-7.326-1.988-10-5-3.415-.406-6.082-2.072-8-5l-10-4c-4.032-3.676-8.699-6.176-14-7.5v-80Z"/><path style="opacity:1" fill="#c3ad66" d="M294.5 324.5h54c.284 1.915-.049 3.581-1 5v-4a702.728 702.728 0 0 1-53-1Z"/><path style="opacity:1" fill="#fcb6c9" d="M6.5 337.5h30c-.166 6.342 0 12.675.5 19 .163 2.176.996 4.009 2.5 5.5l8 4c1.374 3.683 4.04 5.349 8 5a130.15 130.15 0 0 0 23 13 876.829 876.829 0 0 1 24 15.5h-38v-3a544.412 544.412 0 0 1-29-14v-3a58.967 58.967 0 0 1-11-3v-3h-6v-3c-4.013-1.674-8.013-3.341-12-5v-28Z"/><path style="opacity:1" fill="#f8b5c7" d="M761.5 134.5c.992 7.148 1.325 14.481 1 22v181h30v28c-3.013-.128-5.513.872-7.5 3-2.411-1.653-3.578-.987-3.5 2-1.701.466-3.201.466-4.5 0-3.844 1.975-7.177 4.642-10 8l-1-1c-1.049 1.607-2.549 2.273-4.5 2v3c-3.937.204-7.604 1.204-11 3 .381 2.442-.286 3.109-2 2-.886.825-1.219 1.825-1 3h-6v3a12.93 12.93 0 0 0-5 .5c-1.079 2.043-2.746 3.376-5 4l1 1a12.93 12.93 0 0 1-5 .5h-35c3.351-2.273 7.018-4.107 11-5.5l5-5a377.475 377.475 0 0 0 23-12l8-6a190.921 190.921 0 0 0 21.5-10.5c.5-75.333.667-150.666.5-226Z"/><path style="opacity:1" fill="#a2a2a4" d="M412.5 288.5h1v62c38.17-.332 76.17.001 114 1h-115v-63Z"/><path style="opacity:1" fill="#eaf2f5" d="M402.5 359.5c41.335-.167 82.668 0 124 .5 3.062 1.061 5.562 2.894 7.5 5.5a2033.076 2033.076 0 0 1 1 127 25.55 25.55 0 0 1-5.5 6.5 2041.86 2041.86 0 0 1-127 1c-3.99-1.99-6.49-5.157-7.5-9.5a3719.39 3719.39 0 0 1 0-122c1.642-3.8 4.142-6.8 7.5-9Z"/><path style="opacity:1" fill="#bbbcbd" d="M608.5 370.5h1a931.31 931.31 0 0 0 1 61l-1 2a992.742 992.742 0 0 1-1-63Z"/><path style="opacity:1" fill="#4c4d50" d="M608.5 370.5a992.742 992.742 0 0 0 1 63c0 .667-.333 1-1 1a512.628 512.628 0 0 1 0-64Z"/><path style="opacity:1" fill="#1e1f23" d="M463.5 382.5c2.403-.107 4.236.893 5.5 3 12.967 27.939 25.967 55.939 39 84 1.825 5.486-.008 7.986-5.5 7.5a2163.918 2163.918 0 0 1-19-39.5 171.668 171.668 0 0 0-37 0 977.656 977.656 0 0 1-17.5 38c-2.333 2.667-4.667 2.667-7 0-.584-2.757-.25-5.423 1-8a2502.734 2502.734 0 0 1 40.5-85Z"/><path style="opacity:1" fill="#fdb1c1" d="M69.5 399.5h33a184.163 184.163 0 0 1 16 7.5 1072.216 1072.216 0 0 1 37 23c5.804 1.823 11.137 4.49 16 8 4.091 1.227 7.591.394 10.5-2.5.107-3.921.94-7.587 2.5-11 .993-8.15 1.326-16.483 1-25h5v148h-4c.167-27.669 0-55.335-.5-83a1204.023 1204.023 0 0 0-28.5-16.5c-6.204-2.789-12.537-4.622-19-5.5v-3h-6v-3h-3v-3h-6v-3h-5v-3c-2.921.354-5.254-.646-7-3-1.714 1.109-2.381.442-2-2a58.97 58.97 0 0 1-11-3v-3a27.267 27.267 0 0 0-9-3v-3c-2.908.238-5.242-.762-7-3a3.647 3.647 0 0 0-1.5 1c-1.667-1-3-2.333-4-4l-1 1a4.932 4.932 0 0 1-.5-3h-6v-3Z"/><path style="opacity:1" fill="#fcb1c1" d="M692.5 399.5h35v3a9.86 9.86 0 0 0-6 1c-3.423 1.192-6.256 3.192-8.5 6l-1-1c-1.049 1.607-2.549 2.273-4.5 2v3h-6v3h-5v3c-2.185.388-4.018 1.388-5.5 3-2.278-1.12-3.778-.287-4.5 2.5a101.955 101.955 0 0 0-13 5.5v3h-6v3h-6v3c-1.788-.285-3.455.048-5 1 1.129 2.029.629 2.363-1.5 1-1.712 3.452-4.212 4.452-7.5 3v3c-3.096-.593-5.429.407-7 3a47.25 47.25 0 0 1-7 3v3h-6v3c-1.788-.285-3.455.048-5 1-4.81 2.484-9.143 4.817-13 7-.991-6.479-1.324-13.146-1-20a3351.391 3351.391 0 0 0 84-48Z"/><path style="opacity:1" fill="#e6edf0" d="M464.5 398.5a590.57 590.57 0 0 1 15 29 140.772 140.772 0 0 1-29 .5 1185.086 1185.086 0 0 0 14-29.5Z"/><path style="opacity:1" fill="#c9b169" d="M386.5 367.5v54c-38.504.332-76.837-.001-115-1h114a702.728 702.728 0 0 1 1-53Z"/><path style="opacity:1" fill="#989fa1" d="M271.5 429.5h115v62c-.994-9.486-1.327-19.152-1-29v-32c-38.17.332-76.17-.001-114-1Z"/><path style="opacity:1" fill="#1f2226" d="M271.5 462.5c3.695 4.22 7.029 8.72 10 13.5-1.006 3.031-3.006 4.365-6 4L264 466.5a169.166 169.166 0 0 0 0 26 20.231 20.231 0 0 0 7.5 7.5l108 1c2.667 2.667 2.667 5.333 0 8-36.333.667-72.667.667-109 0-8.391-2.961-13.391-8.794-15-17.5.331-8.36-.002-16.693-1-25-.607.124-.94.457-1 1a144.543 144.543 0 0 1-9 11.5c-5.408 2.267-7.575.433-6.5-5.5a130.837 130.837 0 0 0 8.5-11c.667 0 1-.333 1-1 2.996-4.829 6.83-8.829 11.5-12 4.975 3.477 9.142 7.81 12.5 13Z"/><path style="opacity:1" fill="#caf1f2" d="M247.5 461.5c0 .667-.333 1-1 1h-22v89a2026.42 2026.42 0 0 1-1-90h24Z"/><path style="opacity:1" fill="#82e0e4" d="M543.5 367.5a2209.105 2209.105 0 0 1 1 94c9.819.994 19.819 1.327 30 1v57c-1.517.011-2.684.677-3.5 2l-1 31c-3.45 7.431-9.283 10.598-17.5 9.5-1.537 1.11-2.203 2.61-2 4.5-3.9-.93-7.9-1.263-12-1a14.698 14.698 0 0 0-3-3.5 62.744 62.744 0 0 1-11-1.5c8.076-14.658 4.743-25.825-10-33.5-6.126-1.235-11.459.265-16 4.5-10.088-7.633-18.921-6.3-26.5 4-5.376 10.783-4.209 20.783 3.5 30h-189c-10.071-12.614-21.737-14.28-35-5-7.532-6.254-15.865-7.587-25-4-1.431-1.28-2.098-2.947-2-5v-89h22a130.837 130.837 0 0 1-8.5 11c-1.075 5.933 1.092 7.767 6.5 5.5a144.543 144.543 0 0 0 9-11.5l2 24c1.609 8.706 6.609 14.539 15 17.5 36.333.667 72.667.667 109 0 2.667-2.667 2.667-5.333 0-8l-108-1a20.231 20.231 0 0 1-7.5-7.5 169.166 169.166 0 0 1 0-26l11.5 13.5c2.994.365 4.994-.969 6-4a102.983 102.983 0 0 0-10-13.5h114c-.327 9.848.006 19.514 1 29 1.96 8.799 7.294 14.632 16 17.5 41.667.667 83.333.667 125 0 7.652-2.232 12.819-7.065 15.5-14.5.5-42.332.667-84.665.5-127Z"/><path style="opacity:1" fill="#cbf3f4" d="M544.5 461.5h31a813 813 0 0 1-1 57v-56c-10.181.327-20.181-.006-30-1Z"/><path style="opacity:1" fill="#385256" d="M253.5 467.5c.06-.543.393-.876 1-1a157.135 157.135 0 0 1 1 25l-2-24Z"/><path style="opacity:1" fill="#232429" d="M574.5 519.5a11.105 11.105 0 0 1 4.5 3c.667 9.333.667 18.667 0 28-2.989 14.414-11.823 20.914-26.5 19.5-1.323-.816-1.989-1.983-2-3.5-.203-1.89.463-3.39 2-4.5 8.217 1.098 14.05-2.069 17.5-9.5l1-31c.816-1.323 1.983-1.989 3.5-2Z"/><path style="opacity:1" fill="#212226" d="M538.5 565.5c-.359 1.871-1.359 3.371-3 4.5a64.218 64.218 0 0 1-16 0l-1.5-1.5c-6.206 7.522-14.04 11.355-23.5 11.5a78.558 78.558 0 0 1-19-14.5c-7.709-9.217-8.876-19.217-3.5-30 7.579-10.3 16.412-11.633 26.5-4 4.541-4.235 9.874-5.735 16-4.5 14.743 7.675 18.076 18.842 10 33.5a62.744 62.744 0 0 0 11 1.5 14.698 14.698 0 0 1 3 3.5Z"/><path style="opacity:1" fill="#faa3ac" d="M482.5 533.5c9.185-1.319 14.018 2.681 14.5 12 .414.457.914.791 1.5 1 1.466-4.833 4.132-9 8-12.5 6.844-1.507 11.677.993 14.5 7.5a35.063 35.063 0 0 1-1 15c-4.925 6.927-11.092 12.427-18.5 16.5-2 .667-4 .667-6 0-8.24-5.239-14.74-12.072-19.5-20.5a30.485 30.485 0 0 1 0-11 76.332 76.332 0 0 1 6.5-8Z"/><path style="opacity:1" fill="#fca4ad" d="M231.5 563.5c7.884-1.974 13.384.693 16.5 8a43.385 43.385 0 0 0 2 8c1.333 1.333 2.667 1.333 4 0 .891-13.585 7.724-18.418 20.5-14.5 8.788 8.618 10.288 18.451 4.5 29.5-6.349 8.583-14.182 15.416-23.5 20.5a16.242 16.242 0 0 1-8 0c-9.789-6.122-17.956-13.955-24.5-23.5-4.23-11.739-1.397-21.073 8.5-28Z"/><path style="opacity:1" fill="#4e4f52" d="M290.5 589.5a21319.53 21319.53 0 0 0 292 1 10742.359 10742.359 0 0 1-293 0c.124-.607.457-.94 1-1Z"/><path style="opacity:1" fill="#283339" d="M201.5 593.5a47.69 47.69 0 0 0 12 5c-.167 14.67 0 29.337.5 44a46.99 46.99 0 0 0 10.5 5.5l4 4a90.42 90.42 0 0 0 14 6 77.598 77.598 0 0 0 23 13l4 4 10 4c4.933 4.604 10.6 7.938 17 10 3.574 3.951 7.907 6.618 13 8 6.962 5.648 14.628 9.981 23 13 1.918 2.928 4.585 4.594 8 5a78.488 78.488 0 0 0 23 13c3.671 4.417 8.338 7.083 14 8 2.457 3.058 5.457 5.392 9 7a97.288 97.288 0 0 1 12 5.5 7683.65 7683.65 0 0 0 184-106 463.087 463.087 0 0 0 1-43h-56a1726.672 1726.672 0 0 1 59-1.5c3.021-1.18 6.021-2.346 9-3.5.167 16.003 0 32.003-.5 48-3.051 6.721-7.884 11.888-14.5 15.5-8.382 3.359-16.049 8.026-23 14-4.066 1.179-7.733 3.012-11 5.5a4324.826 4324.826 0 0 0-108 62 319.246 319.246 0 0 0-30 17.5 80.226 80.226 0 0 0-10.5 2.5c-8.741-2.121-16.574-5.954-23.5-11.5a81.158 81.158 0 0 1-16-8.5 1024.25 1024.25 0 0 1-57-33.5 24.569 24.569 0 0 1-8-3c-11.4-8.753-23.733-15.753-37-21-1.614-2.127-3.614-3.627-6-4.5-7.202-5.772-15.202-10.272-24-13.5a55.63 55.63 0 0 0-18-10 18.839 18.839 0 0 0-6.5-5.5c-.5-18.33-.667-36.664-.5-55Z"/><path style="opacity:1" fill="#fdfdfd" d="M213.5 598.5a4.934 4.934 0 0 1 3 .5c8.259 11.268 18.592 19.935 31 26 2.667.667 5.333.667 8 0 6.391-2.914 12.058-6.747 17-11.5 5.759 4.245 12.092 7.412 19 9.5a175.043 175.043 0 0 0 28 16 30.316 30.316 0 0 0 12 7c3.705 4.342 8.372 7.009 14 8a643.917 643.917 0 0 0 29 18c2.861.54 5.528 1.54 8 3l11 7c4 .667 8 .667 12 0 6.962-5.648 14.628-9.981 23-13a679.07 679.07 0 0 0 23-15l22-11a83.449 83.449 0 0 1 24-13c3.391-3.687 7.391-6.354 12-8a142.458 142.458 0 0 0 16-10c1.537-1.11 2.203-2.61 2-4.5.968-2.107 1.302-4.441 1-7 17.508.33 34.841-.003 52-1h3a463.087 463.087 0 0 1-1 43 7683.65 7683.65 0 0 1-184 106 97.288 97.288 0 0 0-12-5.5c-3.543-1.608-6.543-3.942-9-7-5.662-.917-10.329-3.583-14-8a78.488 78.488 0 0 1-23-13c-3.415-.406-6.082-2.072-8-5-8.372-3.019-16.038-7.352-23-13-5.093-1.382-9.426-4.049-13-8-6.4-2.062-12.067-5.396-17-10l-10-4-4-4a77.598 77.598 0 0 1-23-13 90.42 90.42 0 0 1-14-6l-4-4a46.99 46.99 0 0 1-10.5-5.5c-.5-14.663-.667-29.33-.5-44Z"/><path style="opacity:1" fill="#bdbfc0" d="M527.5 599.5h53a676.419 676.419 0 0 1-52 1c.302 2.559-.032 4.893-1 7v-8Z"/><path style="opacity:1" fill="#283339" d="M518.5 599.5h9v8c.203 1.89-.463 3.39-2 4.5a142.458 142.458 0 0 1-16 10c-4.609 1.646-8.609 4.313-12 8a83.449 83.449 0 0 0-24 13l-22 11a679.07 679.07 0 0 1-23 15c-8.372 3.019-16.038 7.352-23 13-4 .667-8 .667-12 0l-11-7a24.569 24.569 0 0 0-8-3 643.917 643.917 0 0 1-29-18c-5.628-.991-10.295-3.658-14-8a30.316 30.316 0 0 1-12-7 175.043 175.043 0 0 1-28-16c-6.908-2.088-13.241-5.255-19-9.5a6708.16 6708.16 0 0 0 10-9 544.423 544.423 0 0 1 44 26.5 90.42 90.42 0 0 0 14 6 523.182 523.182 0 0 0 22 15c8.681 3.01 16.681 7.344 24 13 4.471 2.161 8.971 4.327 13.5 6.5a2929.62 2929.62 0 0 1 12.5-8.5 146.497 146.497 0 0 0 31-18c5.093-1.382 9.426-4.049 13-8l9-3a686.508 686.508 0 0 1 52-30.5c.929-1.189 1.262-2.522 1-4Z"/><path style="opacity:1" fill="#fca2ab" d="M518.5 599.5c.262 1.478-.071 2.811-1 4a686.508 686.508 0 0 0-52 30.5l-9 3c-3.574 3.951-7.907 6.618-13 8a146.497 146.497 0 0 1-31 18 2929.62 2929.62 0 0 0-12.5 8.5 5215.086 5215.086 0 0 1-13.5-6.5c-7.319-5.656-15.319-9.99-24-13a523.182 523.182 0 0 1-22-15 90.42 90.42 0 0 1-14-6 544.423 544.423 0 0 0-44-26.5 30.786 30.786 0 0 0 3-4.5c77.666-.5 155.333-.667 233-.5Z"/><path style="opacity:1" fill="#fda2aa" d="M186.5 547.5h4c-.166 9.006 0 18.006.5 27 1.942 7.22 5.442 13.553 10.5 19-.167 18.336 0 36.67.5 55a18.839 18.839 0 0 1 6.5 5.5 55.63 55.63 0 0 1 18 10c8.798 3.228 16.798 7.728 24 13.5h-64v-130Z"/><path style="opacity:1" fill="#fba1a8" d="M609.5 505.5a3576.875 3576.875 0 0 1 0 169 7.47 7.47 0 0 0-2 3h-61c3.267-2.488 6.934-4.321 11-5.5 6.951-5.974 14.618-10.641 23-14 6.616-3.612 11.449-8.779 14.5-15.5.5-15.997.667-31.997.5-48 6.422-5.16 10.588-11.827 12.5-20 .168-23.17.668-46.17 1.5-69Z"/><path style="opacity:1" fill="#fd9fa5" d="M186.5 677.5h64c2.386.873 4.386 2.373 6 4.5 13.267 5.247 25.6 12.247 37 21a24.569 24.569 0 0 0 8 3 1024.25 1024.25 0 0 0 57 33.5 1156.835 1156.835 0 0 1-68 1c-4.091-1.4-7.424-3.067-10-5v-3h-6v-3h-5v-3a8.43 8.43 0 0 1-4-.5c-4.85-3.699-10.184-6.199-16-7.5v-3h-6v-3c-2.092-.061-3.592-1.061-4.5-3-1.299.466-2.799.466-4.5 0v-3c-1.788.285-3.455-.048-5-1-2.158-3.144-5.158-4.477-9-4v-3a12.93 12.93 0 0 1-5-.5c-2.625-3.031-6.125-5.864-10.5-8.5-2.537.677-4.537-.323-6-3l-1 1c-1.667-1-3-2.333-4-4-1.049 1.017-2.216 1.184-3.5.5l1-1c-2.734-.998-4.401-2.832-5-5.5Z"/><path style="opacity:1" fill="#fe9fa5" d="M546.5 677.5h61v4c-3.064 1.19-5.731 2.857-8 5h-3v3a58.97 58.97 0 0 0-11 3v3c-1.859-.039-3.192.794-4 2.5a12.93 12.93 0 0 1-5 .5v3c-2.582-.475-4.582.192-6 2-2.281 1.928-4.947 2.928-8 3v3h-6v3c-4.045-.073-7.378 1.427-10 4.5l1 1a118.288 118.288 0 0 0-17 7.5 10.756 10.756 0 0 0-2.5 3l-1-1c-1.049 1.607-2.549 2.273-4.5 2v3h-6v3h-5v3c-2.524-.071-4.524.929-6 3a5.576 5.576 0 0 0-3-1c-21.507.331-42.84-.003-64-1a4324.826 4324.826 0 0 1 108-62Z"/><path style="opacity:1" fill="#fea0a6" d="M599.5 686.5c1.333.667 1.333.667 0 0ZM570.5 703.5c1.333.667 1.333.667 0 0Z"/><path style="opacity:1" fill="#fe9ca1" d="M358.5 739.5a81.158 81.158 0 0 0 16 8.5c6.926 5.546 14.759 9.379 23.5 11.5a80.226 80.226 0 0 1 10.5-2.5 319.246 319.246 0 0 1 30-17.5c21.16.997 42.493 1.331 64 1v3a12.93 12.93 0 0 0-5 .5 101.657 101.657 0 0 0-10 7.5 9.108 9.108 0 0 1-5 1v3c-2.51-.446-4.51.22-6 2-2.216.703-4.049 2.036-5.5 4-1.813-1.109-2.646-.442-2.5 2a12.93 12.93 0 0 0-5 .5c-1.497 1.871-3.497 2.871-6 3-1.307 2.324-3.307 3.657-6 4l2 1a12.93 12.93 0 0 1-5 .5v3a9.86 9.86 0 0 0-6 1 35.217 35.217 0 0 1-8 4v3h-6v3h-6v3a8.43 8.43 0 0 0-4 .5l-5 5c-1.284.684-2.451.517-3.5-.5-1.263 2.968-3.263 3.968-6 3a2.428 2.428 0 0 0-.5 2h-12c-.507-1.359-1.507-2.359-3-3a137.913 137.913 0 0 0-11-4v-3c-2.133-1.386-5.133-2.386-9-3v-3h-5v-3c-3.005.247-5.505-.753-7.5-3l-1 1a4.934 4.934 0 0 1-.5-3h-6v-3h-5v-3h-6v-3c-5.922-1.727-11.089-4.727-15.5-9-.718.951-1.551 1.117-2.5.5 1.333-.667 1.333-1.333 0-2a12.93 12.93 0 0 0-5-.5v-3a58.97 58.97 0 0 1-11-3v-3a78.457 78.457 0 0 1-13-6c22.839.331 45.506-.003 68-1Z"/><path style="opacity:1" fill="#fe9da1" d="M476.5 757.5c1.333.667 1.333.667 0 0Z"/></svg>