<?xml version="1.0" encoding="UTF-8"?>
<svg xmlns="http://www.w3.org/2000/svg" width="800" height="800" style="shape-rendering:geometricPrecision;text-rendering:geometricPrecision;image-rendering:optimizeQuality;fill-rule:evenodd;clip-rule:evenodd"><path style="opacity:1" fill="#f7d48e" d="M576.5-.5h9a2.429 2.429 0 0 0 .5 2c1.049-1.017 2.216-1.184 3.5-.5a20.495 20.495 0 0 0 2.5 3.5c1.356-.88 2.856-1.214 4.5-1v3c2.822 1.432 6.489 2.432 11 3v3c2.092.061 3.592 1.061 4.5 3 2.537-.677 4.537.323 6 3 2.361-.566 4.194.434 5.5 3l2-1c.35 2.067 2.017 3.067 5 3v3h6v3h5v3h6v3a27.247 27.247 0 0 0 9 3c-.219 1.175.114 2.175 1 3a6.846 6.846 0 0 1 4-1v3a8.435 8.435 0 0 1 4 .5c-1.154.914-.987 1.747.5 2.5 1.299-.466 2.799-.466 4.5 0v3h6v3h5v3a428.986 428.986 0 0 0 20 8.5l-2 1c2.522.61 4.522 1.943 6 4 1.634.493 3.301.66 5 .5v3c2.908-.238 5.242.762 7 3 .951-.826 1.951-.992 3-.5l-1 1a6.977 6.977 0 0 1 3.5 2.5l1-1c.483.948.649 1.948.5 3h6v3h5v3c1.951-.273 3.451.393 4.5 2l1-1c6 4.386 12.5 7.886 19.5 10.5l-1 1c1.525 1.009 3.192 1.509 5 1.5v3h6v3h5v3c2.041.354 3.874.354 5.5 0 .483.948.649 1.948.5 3 2.836 1.276 5.836 1.942 9 2a7971.884 7971.884 0 0 1 2 251c-3.013-.128-5.513.872-7.5 3-2.411-1.653-3.578-.987-3.5 2-1.701.466-3.201.466-4.5 0-3.844 1.975-7.177 4.642-10 8l-1-1c-1.049 1.607-2.549 2.273-4.5 2v3c-3.937.204-7.604 1.204-11 3 .381 2.442-.286 3.109-2 2-.886.825-1.219 1.825-1 3h-6v3a12.93 12.93 0 0 0-5 .5c-1.079 2.043-2.746 3.376-5 4l1 1a12.93 12.93 0 0 1-5 .5v3a9.86 9.86 0 0 0-6 1c-3.423 1.192-6.256 3.192-8.5 6l-1-1c-1.049 1.607-2.549 2.273-4.5 2v3h-6v3h-5v3c-2.185.388-4.018 1.388-5.5 3-2.278-1.12-3.778-.287-4.5 2.5a101.955 101.955 0 0 0-13 5.5v3h-6v3h-6v3c-1.788-.285-3.455.048-5 1 1.129 2.029.629 2.363-1.5 1-1.712 3.452-4.212 4.452-7.5 3v3c-3.096-.593-5.429.407-7 3a47.25 47.25 0 0 1-7 3v3h-6v3c-1.788-.285-3.455.048-5 1a28.335 28.335 0 0 0-9.5 6l-1-1c-1.049 1.607-2.549 2.273-4.5 2v15h-3v-34a15.024 15.024 0 0 0 8-2.5 2059.344 2059.344 0 0 0 74-44 112.343 112.343 0 0 1 17-8l5-5a377.475 377.475 0 0 0 23-12l8-6a190.921 190.921 0 0 0 21.5-10.5c.667-76 .667-152 0-228a36.078 36.078 0 0 0-3.5-4.5c-3.29-.253-6.29-1.253-9-3a29746.604 29746.604 0 0 1-46-28 457.332 457.332 0 0 0-22-11l-4-4a161.879 161.879 0 0 1-33-19c-6.4-2.062-12.067-5.396-17-10a1126.1 1126.1 0 0 0-31-16c-2.365-3.714-5.698-5.714-10-6-7.082-6.364-15.416-9.031-25-8a12271.425 12271.425 0 0 1-129 74c-7.588 4.924-7.921 10.257-1 16a287.246 287.246 0 0 1 25 16 496.946 496.946 0 0 1 33 18c4.333.667 8.667.667 13 0a3162.857 3162.857 0 0 1 66-36.5 4261.045 4261.045 0 0 0 114 65.5c.826 17.093 1.326 34.26 1.5 51.5l2 2c.5 28.331.667 56.665.5 85a12.93 12.93 0 0 0-5 .5 679.07 679.07 0 0 0-23 15l-4 1a285.632 285.632 0 0 1-33 18l-4 4a101.096 101.096 0 0 1-12 5.5c.167-54.334 0-108.668-.5-163-2.695-7.363-7.862-11.863-15.5-13.5-25.665-.5-51.331-.667-77-.5a713.94 713.94 0 0 0-50-28.5l-4-4a77.598 77.598 0 0 1-23-13 312.387 312.387 0 0 0-27-14c-1.918-2.928-4.585-4.594-8-5a10892.14 10892.14 0 0 0-27-17 326.577 326.577 0 0 1-27-14c-3.83-4.162-8.497-6.83-14-8a2084.03 2084.03 0 0 0-77-44c-9.098-8.801-19.765-11.801-32-9a583.354 583.354 0 0 0-33 19 175.013 175.013 0 0 0-28 16l-4 1-23 15a336.071 336.071 0 0 0-40 23c-5.503 1.171-10.17 3.837-14 8A579.672 579.672 0 0 0 38 129.5a3439.804 3439.804 0 0 0-1.5 116c-.155 38.379.345 76.712 1.5 115l9.5 5.5c1.374 3.683 4.04 5.349 8 5a13376.247 13376.247 0 0 0 116 67c4.091 1.227 7.591.394 10.5-2.5.101-3.2.768-6.2 2-9 .667-23.333.667-46.667 0-70a20.231 20.231 0 0 0-7.5-7.5 82.15 82.15 0 0 1-22-13c-3.993-.322-7.326-1.988-10-5-3.415-.406-6.082-2.072-8-5l-10-4c-4.032-3.676-8.699-6.176-14-7.5-.167-45.335 0-90.668.5-136 6.664-3.313 12.831-7.48 18.5-12.5 6.799-1.87 12.799-5.203 18-10a81.82 81.82 0 0 0 19-11c5.503-1.171 10.17-3.837 14-8a368.678 368.678 0 0 0 44-26c2.243.319 4.41.152 6.5-.5 4.064 4.134 8.897 6.967 14.5 8.5a131.76 131.76 0 0 0 17 10 320.348 320.348 0 0 1 24 16 445.595 445.595 0 0 1 55 31 222.638 222.638 0 0 1 12 5.5h-38a112.692 112.692 0 0 0-10-6.5 25.238 25.238 0 0 0-10 0l-2.5 2.5c-1.049-1.017-2.216-1.184-3.5-.5a157.284 157.284 0 0 1-6 4.5c-26.669-.167-53.335 0-80 .5-6.5 2.5-11 7-13.5 13.5-.5 107.666-.667 215.333-.5 323-1.915.284-3.581-.049-5-1 .167-17.67 0-35.336-.5-53a1204.023 1204.023 0 0 0-28.5-16.5c-6.204-2.789-12.537-4.622-19-5.5v-3h-6v-3h-3v-3h-6v-3h-5v-3c-2.921.354-5.254-.646-7-3-1.714 1.109-2.381.442-2-2a58.97 58.97 0 0 1-11-3v-3a27.267 27.267 0 0 0-9-3v-3c-2.908.238-5.242-.762-7-3a3.647 3.647 0 0 0-1.5 1c-1.667-1-3-2.333-4-4l-1 1a4.932 4.932 0 0 1-.5-3h-6v-3h-5v-3a544.412 544.412 0 0 1-29-14v-3a58.967 58.967 0 0 1-11-3v-3h-6v-3c-4.013-1.674-8.013-3.341-12-5 .008-83.648.008-167.148 0-250.5a169.104 169.104 0 0 0 15-5.5v-3a58.967 58.967 0 0 0 11-3v-3a417.79 417.79 0 0 0 15-7 32.686 32.686 0 0 0 8.5-6l1 1c1.049-1.607 2.549-2.273 4.5-2v-3a59.029 59.029 0 0 1 11-3 4.932 4.932 0 0 1 .5-3l1 1c2.015-3.065 4.515-4.065 7.5-3v-3h5v-3c1.7.16 3.366-.007 5-.5 1.478-2.057 3.478-3.39 6-4l-2-1a18.436 18.436 0 0 1 6-.5v-3a87.51 87.51 0 0 0 14-5v-3h6v-3h5v-3c1.701-.466 3.201-.466 4.5 0 3.279-4.047 7.946-7.047 14-9a18.264 18.264 0 0 0 5-4l1 1c1.049-1.607 2.549-2.273 4.5-2v-3h5v-3h6v-3c4.612-1.195 9.279-2.862 14-5v-3c1.701-.466 3.201-.466 4.5 0 .908-1.939 2.408-2.939 4.5-3v-3h6v-3c1.788.285 3.455-.048 5-1a38.767 38.767 0 0 0 7-4.5 49.25 49.25 0 0 1 14 0c2.025 1.677 4.359 2.677 7 3-1.134 1.016-.801 1.683 1 2l5 1-1 1c2.622 3.073 5.955 4.573 10 4.5v3h6v3c3.191.262 5.858 1.596 8 4a9.864 9.864 0 0 0 6 1v3c3.58 1.22 7.247 2.386 11 3.5l-2 1c2.767.678 4.934 2.178 6.5 4.5l1-1c3.769 1.797 7.102 4.13 10 7a3.942 3.942 0 0 1 2-1c1.482 1.612 3.315 2.612 5.5 3v3h6v3h5v3h6v3a87.51 87.51 0 0 0 14 5v3c1.699-.16 3.366.007 5 .5l-1 1c1.525 1.009 3.192 1.509 5 1.5v3h6v3h5v3c2.985-1.065 5.485-.065 7.5 3l1-1c.483.948.649 1.948.5 3h5v3h6v3c2.133 1.386 5.133 2.386 9 3v3c2.908-.238 5.242.762 7 3l2-1c.35 2.067 2.017 3.067 5 3v3h6v3c2.516-.255 4.85-1.089 7-2.5a626.207 626.207 0 0 1 29-17c.837-1.011 1.17-2.178 1-3.5 4.493-.216 7.993-2.216 10.5-6 1.011.837 2.178 1.17 3.5 1v-3a59.031 59.031 0 0 0 11-3v-3c1.808.009 3.475-.491 5-1.5l-1-1a12.935 12.935 0 0 1 5-.5v-3a9.864 9.864 0 0 0 6-1 35.213 35.213 0 0 1 8-4v-3h6v-3a59.031 59.031 0 0 1 11-3v-3c1.808.009 3.475-.491 5-1.5-1.388-.89-1.222-1.39.5-1.5 2.071 1.167 3.571.5 4.5-2 6.434-2.343 12.767-5.343 19-9v-3a59.031 59.031 0 0 1 11-3 4.934 4.934 0 0 1 .5-3l1 1c1.995-2.247 4.495-3.247 7.5-3v-3h5v-3h6v-3c1.808.009 3.475-.491 5-1.5l-1-1a12.936 12.936 0 0 1 5-.5v-3c3.552.188 6.219-1.145 8-4Z"/><path style="opacity:1" fill="#273339" d="M604.5 448.5v-12a5838.284 5838.284 0 0 0 137-79.5 73.86 73.86 0 0 0 9-3.5 7901.316 7901.316 0 0 0-1.5-216 2129.254 2129.254 0 0 1-37.5-21.5c-3.415-.406-6.082-2.072-8-5a91.311 91.311 0 0 1-23-13 457.332 457.332 0 0 0-22-11c-2.508-3.042-5.508-5.376-9-7a457.332 457.332 0 0 1-22-11l-24-15c-3.415-.406-6.082-2.072-8-5a90.401 90.401 0 0 0-14-6c-5.722-6.435-12.722-8.768-21-7-7.36 5.663-15.36 9.996-24 13-3.619 3.977-7.952 6.644-13 8-2.537 2.546-5.537 4.212-9 5l-4 4-10 4a2551.356 2551.356 0 0 0-60 36 7185.005 7185.005 0 0 1 26 16 114.065 114.065 0 0 0 14 6c4.2 3.6 8.867 6.433 14 8.5a684.54 684.54 0 0 1 19-8.5 43.593 43.593 0 0 1 13-8c2.365-3.714 5.698-5.714 10-6a705.673 705.673 0 0 1 21-12c4.719-2.307 9.719-2.974 15-2a113.107 113.107 0 0 0 28 15l5 5a182.852 182.852 0 0 1 35 20 193.115 193.115 0 0 1 32 19 197.694 197.694 0 0 1 17 8 36.078 36.078 0 0 1 3.5 4.5c1.657 49.25 1.99 98.584 1 148-5.181 6.173-11.681 10.34-19.5 12.5a12318.477 12318.477 0 0 1-28 18c-6.381 2.027-12.048 5.361-17 10-6.943 1.604-12.943 4.937-18 10-2.56.384-4.894 1.217-7 2.5v-14a101.096 101.096 0 0 0 12-5.5l4-4a285.632 285.632 0 0 0 33-18l4-1a679.07 679.07 0 0 1 23-15 12.93 12.93 0 0 1 5-.5c.167-28.335 0-56.669-.5-85l-2-2c-.174-17.24-.674-34.407-1.5-51.5a4261.045 4261.045 0 0 1-114-65.5 3162.857 3162.857 0 0 0-66 36.5 42.479 42.479 0 0 1-13 0 496.946 496.946 0 0 0-33-18 287.246 287.246 0 0 0-25-16c-6.921-5.743-6.588-11.076 1-16a12271.425 12271.425 0 0 0 129-74c9.584-1.031 17.918 1.636 25 8 4.302.286 7.635 2.286 10 6a1126.1 1126.1 0 0 1 31 16c4.933 4.604 10.6 7.938 17 10a161.879 161.879 0 0 0 33 19l4 4a457.332 457.332 0 0 1 22 11 29746.604 29746.604 0 0 0 46 28c2.71 1.747 5.71 2.747 9 3a36.078 36.078 0 0 1 3.5 4.5c.667 76 .667 152 0 228a190.921 190.921 0 0 1-21.5 10.5l-8 6a377.475 377.475 0 0 1-23 12l-5 5a112.343 112.343 0 0 0-17 8 2059.344 2059.344 0 0 1-74 44 15.024 15.024 0 0 1-8 2.5Z"/><path style="opacity:1" fill="#283439" d="M511.5 181.5h-25c-2.667-3.162-6-5.329-10-6.5a327.567 327.567 0 0 0-42-24c-4.758-4.768-10.425-7.768-17-9-3.065-4.125-7.065-6.791-12-8l-6-5a546.6 546.6 0 0 0-35-18 108.394 108.394 0 0 1-19-13 425.826 425.826 0 0 1-41-23c-5.487-1.208-10.154-3.875-14-8a826.449 826.449 0 0 1-49-28 50.657 50.657 0 0 1-11.5-4.5A112.066 112.066 0 0 0 206.5 48l-10 4-3 3c-6.771 2.445-12.771 6.111-18 11l-10 4-4 4a520.666 520.666 0 0 0-59 34l-9 3c-3.796 3.592-8.13 6.259-13 8A361.546 361.546 0 0 1 48 137.5c-.667 72-.667 144 0 216a7214.146 7214.146 0 0 0 125 72c.5-21.664.667-43.331.5-65a340.197 340.197 0 0 0-18-8.5 55.63 55.63 0 0 0-18-10 78.488 78.488 0 0 0-23-13 56.965 56.965 0 0 0-10.5-7.5 5697.651 5697.651 0 0 1 0-151 6.978 6.978 0 0 1 2.5-3.5 146.497 146.497 0 0 0 31-18c8.372-3.019 16.038-7.352 23-13 5.093-1.382 9.426-4.049 13-8a90.42 90.42 0 0 0 14-6c1.918-2.928 4.585-4.594 8-5a226.438 226.438 0 0 1 29-17 42.498 42.498 0 0 1 13 0l4 4a154.79 154.79 0 0 0 13 6 1081.768 1081.768 0 0 0 33 20l4 1c8.98 5.636 17.98 11.302 27 17 7.27 1.913 13.604 5.58 19 11 4.75 1.03 8.75 3.363 12 7l10 4 4 4a222.128 222.128 0 0 1 15 7.5h-23a222.638 222.638 0 0 0-12-5.5 445.595 445.595 0 0 0-55-31 320.348 320.348 0 0 0-24-16 131.76 131.76 0 0 1-17-10c-5.603-1.533-10.436-4.366-14.5-8.5-2.09.652-4.257.819-6.5.5a368.678 368.678 0 0 1-44 26c-3.83 4.163-8.497 6.829-14 8a81.82 81.82 0 0 1-19 11c-5.201 4.797-11.201 8.13-18 10-5.669 5.02-11.836 9.187-18.5 12.5-.5 45.332-.667 90.665-.5 136 5.301 1.324 9.968 3.824 14 7.5l10 4c1.918 2.928 4.585 4.594 8 5 2.674 3.012 6.007 4.678 10 5a82.15 82.15 0 0 0 22 13 20.231 20.231 0 0 1 7.5 7.5c.667 23.333.667 46.667 0 70-1.232 2.8-1.899 5.8-2 9-2.909 2.894-6.409 3.727-10.5 2.5a13376.247 13376.247 0 0 1-116-67c-3.96.349-6.626-1.317-8-5l-9.5-5.5a3364.223 3364.223 0 0 1-1.5-115c-.152-38.704.348-77.371 1.5-116A579.672 579.672 0 0 1 80.5 107c3.83-4.163 8.497-6.829 14-8a336.071 336.071 0 0 1 40-23l23-15 4-1a175.013 175.013 0 0 1 28-16 583.354 583.354 0 0 1 33-19c12.235-2.801 22.902.199 32 9a2084.03 2084.03 0 0 1 77 44c5.503 1.17 10.17 3.838 14 8a326.577 326.577 0 0 0 27 14c8.98 5.636 17.98 11.302 27 17 3.415.406 6.082 2.072 8 5a312.387 312.387 0 0 1 27 14 77.598 77.598 0 0 0 23 13l4 4a713.94 713.94 0 0 1 50 28.5Z"/><path style="opacity:1" fill="#fdfdfd" d="M486.5 181.5h-108a222.128 222.128 0 0 0-15-7.5l-4-4-10-4c-3.25-3.637-7.25-5.97-12-7-5.396-5.42-11.73-9.087-19-11a10892.14 10892.14 0 0 0-27-17l-4-1a1081.768 1081.768 0 0 1-33-20 154.79 154.79 0 0 1-13-6l-4-4a42.498 42.498 0 0 0-13 0 226.438 226.438 0 0 0-29 17c-3.415.406-6.082 2.072-8 5a90.42 90.42 0 0 1-14 6c-3.574 3.951-7.907 6.618-13 8-6.962 5.648-14.628 9.981-23 13a146.497 146.497 0 0 1-31 18 6.978 6.978 0 0 0-2.5 3.5 5697.651 5697.651 0 0 0 0 151 56.965 56.965 0 0 1 10.5 7.5 78.488 78.488 0 0 1 23 13 55.63 55.63 0 0 1 18 10 340.197 340.197 0 0 1 18 8.5c.167 21.669 0 43.336-.5 65a7214.146 7214.146 0 0 1-125-72c-.667-72-.667-144 0-216A361.546 361.546 0 0 0 80.5 119c4.87-1.741 9.204-4.408 13-8l9-3a520.666 520.666 0 0 1 59-34l4-4 10-4c5.229-4.889 11.229-8.555 18-11l3-3 10-4A112.066 112.066 0 0 1 230 34.5a50.657 50.657 0 0 0 11.5 4.5 826.449 826.449 0 0 0 49 28c3.846 4.125 8.513 6.792 14 8a425.826 425.826 0 0 0 41 23 108.394 108.394 0 0 0 19 13 546.6 546.6 0 0 1 35 18l6 5c4.935 1.209 8.935 3.875 12 8 6.575 1.232 12.242 4.232 17 9a327.567 327.567 0 0 1 42 24c4 1.171 7.333 3.338 10 6.5Z"/><path style="opacity:1" fill="#fdfefe" d="M604.5 436.5v-64c2.106-1.283 4.44-2.116 7-2.5 5.057-5.063 11.057-8.396 18-10 4.952-4.639 10.619-7.973 17-10 9.313-5.969 18.646-11.969 28-18 7.819-2.16 14.319-6.327 19.5-12.5.99-49.416.657-98.75-1-148a36.078 36.078 0 0 0-3.5-4.5 197.694 197.694 0 0 0-17-8 193.115 193.115 0 0 0-32-19 182.852 182.852 0 0 0-35-20l-5-5a113.107 113.107 0 0 1-28-15c-5.281-.974-10.281-.307-15 2a705.673 705.673 0 0 0-21 12c-4.302.286-7.635 2.286-10 6a43.593 43.593 0 0 0-13 8 684.54 684.54 0 0 0-19 8.5 50.162 50.162 0 0 1-14-8.5 114.065 114.065 0 0 1-14-6 7185.005 7185.005 0 0 0-26-16 2551.356 2551.356 0 0 1 60-36l10-4 4-4c3.463-.788 6.463-2.454 9-5 5.048-1.356 9.381-4.023 13-8 8.64-3.004 16.64-7.337 24-13 8.278-1.768 15.278.565 21 7a90.401 90.401 0 0 1 14 6c1.918 2.928 4.585 4.594 8 5l24 15a457.332 457.332 0 0 0 22 11c3.492 1.624 6.492 3.958 9 7a457.332 457.332 0 0 1 22 11 91.311 91.311 0 0 0 23 13c1.918 2.928 4.585 4.594 8 5a2129.254 2129.254 0 0 0 37.5 21.5 7901.316 7901.316 0 0 1 1.5 216 73.86 73.86 0 0 1-9 3.5 5838.284 5838.284 0 0 1-137 79.5Z"/><path style="opacity:1" fill="#293439" d="M317.5 181.5h-32a157.284 157.284 0 0 0 6-4.5c1.284-.684 2.451-.517 3.5.5l2.5-2.5a25.238 25.238 0 0 1 10 0 112.692 112.692 0 0 1 10 6.5Z"/><path style="opacity:1" d="M285.5 181.5h226c25.669-.167 51.335 0 77 .5 7.638 1.637 12.805 6.137 15.5 13.5.5 54.332.667 108.666.5 163v124h-13v-224h-387v260h-13c-.167-107.667 0-215.334.5-323 2.5-6.5 7-11 13.5-13.5 26.665-.5 53.331-.667 80-.5Z"/><path style="opacity:1" fill="#acb1c5" d="M590.5 198.5v47h-385v-47a14.698 14.698 0 0 1 3-3.5c126.333-.667 252.667-.667 379 0a14.698 14.698 0 0 1 3 3.5Z"/><path style="opacity:1" fill="#6f727f" d="M205.5 198.5v47h385v-47a576.628 576.628 0 0 1 1 48h-387a576.628 576.628 0 0 1 1-48Z"/><path style="opacity:1" fill="#d2d5e0" d="M281.5 213.5h291v14h-291v-14Z"/><path style="opacity:1" fill="#676a74" d="M249.5 214.5c4.47-.986 9.137-1.319 14-1 .318 4.532-.015 8.866-1 13v-12h-13Z"/><path style="opacity:1" fill="#fefefe" d="M282.5 214.5h289v12h-289v-12Z"/><path style="opacity:1" fill="#040304" d="M249.5 214.5h13v12h-13v-12Z"/><path style="opacity:1" fill="#f6f6f9" d="M223.5 213.5h14a84.902 84.902 0 0 1-.5 13c-4.401.967-8.901 1.3-13.5 1v-14Z"/><path style="opacity:1" fill="#dee0e9" d="M384.5 355.5v19a5625.947 5625.947 0 0 0-150 1 371.68 371.68 0 0 0-16.5 16c-.92 6.776-.586 13.443 1 20a326.819 326.819 0 0 0 15.5 15c1.068.934 2.401 1.268 4 1 2.728 4.237 6.061 8.071 10 11.5 45.332.5 90.665.667 136 .5v6h-26c-.318 4.532.015 8.866 1 13h64c.985-4.134 1.318-8.468 1-13h-26v-6c45.335.167 90.668 0 136-.5a2255.763 2255.763 0 0 0 50-19 440.042 440.042 0 0 1-21-8.5 297.083 297.083 0 0 1 13.5-6c2.223-3.888 1.723-7.388-1.5-10.5a1672.08 1672.08 0 0 1-53-19.5 3843.432 3843.432 0 0 0-124-1v-19c.48 2.666 1.48 5.166 3 7.5a280.346 280.346 0 0 0 23 5 420.29 420.29 0 0 0 41 0 463.544 463.544 0 0 0 55-11c23.658-2.932 46.991-1.432 70 4.5v121c-20.677-.333-41.344 0-62 1l-1.5 3a4510.45 4510.45 0 0 0-.5 95h-5c.167-32.002 0-64.002-.5-96-.816-1.323-1.983-1.989-3.5-2a931.31 931.31 0 0 0-61-1c.302-2.559-.032-4.893-1-7a6.547 6.547 0 0 0-3-3c-5.14-.988-10.474-1.321-16-1v11c-16.003-.167-32.003 0-48 .5l-2.5 2.5c-.34 10.508-.84 21.008-1.5 31.5a1172.507 1172.507 0 0 1 1 64.5h-33c.167-31.668 0-63.335-.5-95-1.018-2.428-2.852-3.762-5.5-4v-11a128.507 128.507 0 0 0-16 .5 14.698 14.698 0 0 0-3 3.5c-.968 2.107-1.302 4.441-1 7a600.937 600.937 0 0 0-49 1l-1.5 3c-.667 14-.667 28 0 42l1.5 1.5c7.993.5 15.993.666 24 .5v51h-39a145.053 145.053 0 0 0-.5-17c-.422-1.926-1.589-2.926-3.5-3a361.608 361.608 0 0 0-38-1 380.934 380.934 0 0 0-1-39c-.194-2.412-1.527-3.412-4-3-3.125-.979-6.458-1.313-10-1v-154c21.05 4.788 42.384 6.288 64 4.5a619.134 619.134 0 0 0 56-11 552.224 552.224 0 0 1 47 0c3.704 1.071 7.371 1.238 11 .5-2.631-1.505-2.297-2.171 1-2Z"/><path style="opacity:1" fill="#94979d" d="M591.5 482.5h-1v-223h-385v258c3.542-.313 6.875.021 10 1h-11v-260h387v224Z"/><path style="opacity:1" fill="#ccd1e0" d="M590.5 309.5v52c-23.009-5.932-46.342-7.432-70-4.5a463.544 463.544 0 0 1-55 11 420.29 420.29 0 0 1-41 0 280.346 280.346 0 0 1-23-5c-1.52-2.334-2.52-4.834-3-7.5 20.917-5.44 31.584-19.107 32-41 .904.709 1.237 1.709 1 3 10.672.167 21.339 0 32-.5a1032.459 1032.459 0 0 0 62-12c21.924-1.59 43.59-.09 65 4.5ZM354.5 304.5c-5.096 26.169 4.904 43.169 30 51-3.297-.171-3.631.495-1 2-3.629.738-7.296.571-11-.5a552.224 552.224 0 0 0-47 0 619.134 619.134 0 0 1-56 11c-21.616 1.788-42.95.288-64-4.5v-51a218.87 218.87 0 0 0 29 4.5 227.38 227.38 0 0 0 48-2l38-9a233.702 233.702 0 0 1 34-1.5Z"/><path style="opacity:1" fill="#040302" d="M430.5 314.5c-.416 21.893-11.083 35.56-32 41-.991 6.479-1.324 13.146-1 20h125a1672.08 1672.08 0 0 0 53 19.5c3.223 3.112 3.723 6.612 1.5 10.5a297.083 297.083 0 0 0-13.5 6c-13.05 4.513-26.05 9.18-39 14a4099.475 4099.475 0 0 1-127 1c-.323 6.522.01 12.855 1 19 8.15.993 16.483 1.326 25 1v12h-64v-12h26v-20h-151a326.819 326.819 0 0 1-15.5-15c-1.586-6.557-1.92-13.224-1-20a371.68 371.68 0 0 1 16.5-16h151c.324-6.854-.009-13.521-1-20-25.096-7.831-35.096-24.831-30-51 11.834-24.474 30.501-31.641 56-21.5 11.842 7.177 18.508 17.677 20 31.5Z"/><path style="opacity:1" fill="#fa626d" d="M384.5 291.5c16.124-1.858 26.957 4.809 32.5 20 1.622 14.926-4.544 25.093-18.5 30.5-19.27 2.233-30.27-6.267-33-25.5 1.452-12.11 7.785-20.443 19-25Z"/><path style="opacity:1" fill="#f6f7f9" d="M385.5 304.5c7.094-1.392 12.928.608 17.5 6 3.291 13.257-1.875 19.757-15.5 19.5-11.205-7.68-11.872-16.18-2-25.5Z"/><path style="opacity:1" fill="#e9edf4" d="M590.5 309.5c-21.41-4.59-43.076-6.09-65-4.5a1032.459 1032.459 0 0 1-62 12c-10.661.5-21.328.667-32 .5.237-1.291-.096-2.291-1-3-1.492-13.823-8.158-24.323-20-31.5-25.499-10.141-44.166-2.974-56 21.5a233.702 233.702 0 0 0-34 1.5l-38 9a227.38 227.38 0 0 1-48 2 218.87 218.87 0 0 1-29-4.5v-53h385v50Z"/><path style="opacity:1" fill="#797a7f" d="M384.5 355.5c.991 6.479 1.324 13.146 1 20h-151a5625.947 5625.947 0 0 1 150-1v-19Z"/><path style="opacity:1" fill="#78797e" d="M398.5 355.5v19c41.503-.332 82.837.001 124 1h-125c-.324-6.854.009-13.521 1-20Z"/><path style="opacity:1" fill="#ffd34c" d="M269.5 388.5c69.667-.167 139.334 0 209 .5-69.333.5-138.666.667-208 .5v24c-.993-8.15-1.326-16.483-1-25Z"/><path style="opacity:1" fill="#8cd3f5" d="M239.5 388.5h16v25a145.053 145.053 0 0 1-17-.5c-10.911-8.631-10.578-16.797 1-24.5Z"/><path style="opacity:1" fill="#517b8e" d="M239.5 388.5c5.475-.989 11.142-1.322 17-1 .326 8.849-.007 17.516-1 26v-25h-16Z"/><path style="opacity:1" fill="#f8bd45" d="M269.5 388.5c82-1.333 164-1.333 246 0h-36a130.086 130.086 0 0 1 2 25h-211v-24c69.334.167 138.667 0 208-.5-69.666-.5-139.333-.667-209-.5Z"/><path style="opacity:1" fill="#fca325" d="M515.5 388.5c2.129 3.867 3.796 8.034 5 12.5-2.231 3.859-3.564 8.026-4 12.5h-35c.138-8.406-.529-16.74-2-25h36Z"/><path style="opacity:1" fill="#f4ddbb" d="M531.5 394.5c.235-.597.735-.93 1.5-1a344.97 344.97 0 0 1 19.5 7.5 157.524 157.524 0 0 1-21 7.5 63.83 63.83 0 0 1 2-7.5c-.302-2.4-.968-4.566-2-6.5Z"/><path style="opacity:1" fill="#adb2c7" d="M563.5 411.5a440.042 440.042 0 0 0 21 8.5 2255.763 2255.763 0 0 1-50 19c-45.332.5-90.665.667-136 .5v-12c41.668.167 83.335 0 125-.5.556-.383.889-.883 1-1.5 12.95-4.82 25.95-9.487 39-14Z"/><path style="opacity:1" fill="#6b6e7a" d="M234.5 426.5h151v20h-26v12c-.985-4.134-1.318-8.468-1-13h26v-18h-146c-1.599.268-2.932-.066-4-1Z"/><path style="opacity:1" fill="#6c6f7c" d="M524.5 425.5c-.111.617-.444 1.117-1 1.5-41.665.5-83.332.667-125 .5v18c-.99-6.145-1.323-12.478-1-19 42.376.322 84.709-.011 127-1Z"/><path style="opacity:1" fill="#adb2c8" d="M238.5 427.5h146v12c-45.335.167-90.668 0-136-.5-3.939-3.429-7.272-7.263-10-11.5Z"/><path style="opacity:1" fill="#5e6064" d="M398.5 445.5h26c.318 4.532-.015 8.866-1 13v-12c-8.517.326-16.85-.007-25-1Z"/><path style="opacity:1" fill="#0a0a0b" d="M346.5 482.5a96.254 96.254 0 0 1-19-1v-6a14.698 14.698 0 0 1 3-3.5 128.507 128.507 0 0 1 16-.5v11Z"/><path style="opacity:1" fill="#010101" d="M452.5 472.5a6.547 6.547 0 0 1 3 3v7h-18v-10h15Z"/><path style="opacity:1" fill="#5a6369" d="M327.5 475.5v6c-16.3 1.985-32.966 2.652-50 2a600.937 600.937 0 0 1 49-1c-.302-2.559.032-4.893 1-7Z"/><path style="opacity:.984" fill="#283339" d="M452.5 472.5h-15v10h18a961.42 961.42 0 0 0 62 1c1.517.011 2.684.677 3.5 2 .5 31.998.667 63.998.5 96v13h5v-13c-.167-31.668 0-63.335.5-95l1.5-3c20.656-1 41.323-1.333 62-1h17c17.337-.167 34.67 0 52 .5 1.167.5 2 1.333 2.5 2.5.667 75.667.667 151.333 0 227-.5 1.833-1.667 3-3.5 3.5-36.998.5-73.998.667-111 .5a177.566 177.566 0 0 0-19-1.5l-1.5-1.5-1-25-4 2-1 21a11.333 11.333 0 0 1-1.5 3.5l-40 1a209.75 209.75 0 0 0-30 18c-6.4 2.062-12.067 5.396-17 10-6.761 1.869-12.761 5.202-18 10-5.111 2.701-10.611 4.534-16.5 5.5a66.364 66.364 0 0 1-9.5-2.5 35.157 35.157 0 0 0-10-5l-4-4a7040.07 7040.07 0 0 1-28-16c-3.959.349-6.626-1.317-8-5-6.761-1.869-12.761-5.202-18-10l-43-1-1.5-1.5a312.742 312.742 0 0 0-1.5-24.5 64.953 64.953 0 0 0-18-8 147.725 147.725 0 0 0-17-12 778.276 778.276 0 0 1-33-18c-6.846-.821-13.513-.654-20 .5a60.931 60.931 0 0 1-11-.5c-1.833-.5-3-1.667-3.5-3.5a760.316 760.316 0 0 1-.5-39 304.505 304.505 0 0 1-42-1.5 9.454 9.454 0 0 1-1.5-2.5 420.29 420.29 0 0 1 0-41 6.978 6.978 0 0 1 2.5-3.5 840.27 840.27 0 0 1 41-.5c-.167-13.004 0-26.004.5-39 .5-1.833 1.667-3 3.5-3.5a60.931 60.931 0 0 1 11-.5c1.419.951 3.085 1.284 5 1h24c2.473-.412 3.806.588 4 3v40h39c1.911.074 3.078 1.074 3.5 3 .499 5.657.666 11.324.5 17v13a72.367 72.367 0 0 1-.5 12c-.816 1.323-1.983 1.989-3.5 2h-39a361.608 361.608 0 0 0 1 38 854.71 854.71 0 0 1 54.5 31c.272-2.882 1.106-5.549 2.5-8h25a380.934 380.934 0 0 0-1-39c-2.866-3.021-6.2-5.521-10-7.5-8.363-2.47-15.53-6.97-21.5-13.5a112.97 112.97 0 0 1-.5-15h12v11c3.978-.534 6.978.966 9 4.5a57.213 57.213 0 0 0 10.5 5.5c.5-6.992.666-13.992.5-21v-64c-8.007.166-16.007 0-24-.5l-1.5-1.5c-.667-14-.667-28 0-42l1.5-3c17.034.652 33.7-.015 50-2a96.254 96.254 0 0 0 19 1c2.648.238 4.482 1.572 5.5 4 .5 31.665.667 63.332.5 95v13a651.277 651.277 0 0 0 1 51 99.734 99.734 0 0 0 23 12.5 34.949 34.949 0 0 0 8.5 5.5c.5-22.998.667-45.998.5-69v-13c.258-21.512-.075-43.012-1-64.5.66-10.492 1.16-20.992 1.5-31.5l2.5-2.5c15.997-.5 31.997-.667 48-.5v-11c5.526-.321 10.86.012 16 1Z"/><path style="opacity:1" fill="#565f65" d="M455.5 475.5c.968 2.107 1.302 4.441 1 7a931.31 931.31 0 0 1 61 1 961.42 961.42 0 0 1-62-1v-7Z"/><path style="opacity:1" fill="#c84917" d="M512.5 707.5v-216h-118v216a11770.92 11770.92 0 0 1-1-217h120a11770.92 11770.92 0 0 1-1 217Z"/><path style="opacity:1" fill="#fd500d" d="M283.5 490.5h61c-.167 61.334 0 122.668.5 184l1.5 1.5c8.327.5 16.66.666 25 .5v32h-88v-32c8.007.166 16.007 0 24-.5l1.5-1.5c.667-50 .667-100 0-150l-1.5-1.5c-7.993-.5-15.993-.666-24-.5v-32Z"/><path style="opacity:1" fill="#fe500d" d="M512.5 707.5h-118v-216h118v216Z"/><path style="opacity:1" fill="#fd500d" d="M653.5 490.5v217h-119v-217h119Z"/><path style="opacity:1" fill="#0a0a0a" d="M359.5 510.5h13v13h-13v-13Z"/><path style="opacity:1" fill="#283339" d="M430.5 522.5c15.337-.167 30.67 0 46 .5l1.5 1.5c.667 49.667.667 99.333 0 149l-1.5 1.5a528.986 528.986 0 0 1-46 0l-1.5-1.5a5547.726 5547.726 0 0 1 0-149c.717-.544 1.217-1.211 1.5-2Z"/><path style="opacity:.971" fill="#293338" d="M571.5 522.5c15.004-.167 30.004 0 45 .5a4.457 4.457 0 0 0 2 1.5 3601.9 3601.9 0 0 1 .5 147 11.333 11.333 0 0 1-1.5 3.5 528.986 528.986 0 0 1-46 0l-1.5-1.5a5547.726 5547.726 0 0 1 0-149c.717-.544 1.217-1.211 1.5-2Z"/><path style="opacity:1" fill="#924221" d="M180.5 526.5c10.487-.994 21.154-1.328 32-1v39a361.608 361.608 0 0 1-1-38h-31Z"/><path style="opacity:1" fill="#fe500d" d="M180.5 526.5h31a361.608 361.608 0 0 0 1 38c.011 1.517.677 2.684 2 3.5 13.329.5 26.663.667 40 .5v32c-13.337-.167-26.671 0-40 .5-1.323.816-1.989 1.983-2 3.5a380.934 380.934 0 0 0-1 39h-31c.167-13.337 0-26.671-.5-40-.816-1.323-1.983-1.989-3.5-2a400.456 400.456 0 0 0-40-1v-32c14.004.167 28.004 0 42-.5a11.333 11.333 0 0 0 1.5-3.5c.5-12.662.667-25.329.5-38Z"/><path style="opacity:1" fill="#dfe1ea" d="M443.5 532.5c-.734 1.208-1.067 2.541-1 4-.983 3.798-1.317 7.798-1 12h-5v-18c2.888-.51 5.221.156 7 2Z"/><path style="opacity:1" fill="#040404" d="M458.5 530.5a12.64 12.64 0 0 1-2.5 4l-1 25c-.816 1.323-1.983 1.989-3.5 2h-14v-12h5v-13c-.067-1.459.266-2.792 1-4 4.693-1.86 9.693-2.526 15-2Z"/><path style="opacity:1" fill="#dcdee7" d="M458.5 530.5h12v51h-34v-19c5.195.321 10.195-.013 15-1 1.517-.011 2.684-.677 3.5-2l1-25a12.64 12.64 0 0 0 2.5-4ZM591.5 530.5c.167 15.67 0 31.337-.5 47-3.651 3.705-8.151 5.039-13.5 4v-51h14Z"/><path style="opacity:1" fill="#020201" d="M591.5 530.5h13c.167 16.003 0 32.003-.5 48-.844 5.701-3.677 10.034-8.5 13-3.668 2.221-7.668 3.221-12 3h-6v-13c5.349 1.039 9.849-.295 13.5-4 .5-15.663.667-31.33.5-47Z"/><path style="opacity:1" fill="#f6d28d" d="M604.5 530.5h6v138h-33v-10c8.219-2.719 14.052-8.052 17.5-16 .5-16.997.667-33.997.5-51 4.823-2.966 7.656-7.299 8.5-13 .5-15.997.667-31.997.5-48Z"/><path style="opacity:1" fill="#6e7074" d="M442.5 536.5v13h-5c-.667 0-1-.333-1-1h5c-.317-4.202.017-8.202 1-12Z"/><path style="opacity:1" fill="#626b72" d="M219.5 521.5a380.934 380.934 0 0 1 1 39 361.608 361.608 0 0 1 38 1h-39v-40Z"/><path style="opacity:1" fill="#5c3a2c" d="M136.5 568.5v32c13.51-.329 26.844.004 40 1h-41c-.328-11.179.005-22.179 1-33Z"/><path style="opacity:1" d="M262.5 581.5h39v13h-39v-13ZM352.5 581.5h33v13h-33v-13ZM436.5 581.5h34v13h-34v-13ZM521.5 581.5h5v13h-5v-13Z"/><path style="opacity:1" fill="#fefefe" d="M262.5 594.5h7a112.97 112.97 0 0 0 .5 15c5.97 6.53 13.137 11.03 21.5 13.5 3.8 1.979 7.134 4.479 10 7.5v38c-8.184-.326-16.184.008-24 1-1.394 2.451-2.228 5.118-2.5 8a854.71 854.71 0 0 0-54.5-31v-37a361.608 361.608 0 0 0 38-1c1.517-.011 2.684-.677 3.5-2 .499-3.986.666-7.986.5-12Z"/><path style="opacity:1" fill="#f6d38e" d="M281.5 594.5h20c.166 7.008 0 14.008-.5 21a57.213 57.213 0 0 1-10.5-5.5c-2.022-3.534-5.022-5.034-9-4.5v-11Z"/><path style="opacity:1" fill="#f8d48e" d="M352.5 594.5h33c.167 23.002 0 46.002-.5 69a34.949 34.949 0 0 1-8.5-5.5 99.734 99.734 0 0 1-23-12.5 651.277 651.277 0 0 1-1-51ZM436.5 594.5h34v37a110.248 110.248 0 0 1-14 5.5l-4 4a69.271 69.271 0 0 0-15.5 8.5c-.5-18.33-.667-36.664-.5-55Z"/><path style="opacity:1" fill="#5a6367" d="M577.5 594.5a625.298 625.298 0 0 0 1 50c-.06.543-.393.876-1 1-1.327-17.162-1.327-34.162 0-51Z"/><path style="opacity:1" fill="#fdfefe" d="M577.5 594.5h6a576.95 576.95 0 0 1-1 48c-1.122 1.13-2.456 1.797-4 2a625.298 625.298 0 0 1-1-50Z"/><path style="opacity:1" fill="#934221" d="M212.5 604.5v40c-10.846.328-21.513-.006-32-1h31a380.934 380.934 0 0 1 1-39Z"/><path style="opacity:1" fill="#b4b8bb" d="M258.5 608.5a361.608 361.608 0 0 1-38 1v37a361.608 361.608 0 0 1-1-38h39Z"/><path style="opacity:1" fill="#fdfdfd" d="M525.5 611.5a684.92 684.92 0 0 1 .5 64 13.92 13.92 0 0 0-4 3 1023.738 1023.738 0 0 1 0-64 30.233 30.233 0 0 1 3.5-3Z"/><path style="opacity:1" fill="#5d6569" d="M301.5 630.5a380.934 380.934 0 0 1 1 39h-25c7.816-.992 15.816-1.326 24-1v-38Z"/><path style="opacity:1" fill="#fbfbfc" d="M470.5 643.5v24h-34c-.285-4.217 1.715-6.383 6-6.5 4.954-4.637 10.621-7.97 17-10a49.781 49.781 0 0 1 11-7.5Z"/><path style="opacity:1" fill="#f7d48e" d="M547.5 716.5c-1.238.31-1.238.81 0 1.5a118.288 118.288 0 0 0-17 7.5 10.756 10.756 0 0 0-2.5 3l-1-1c-1.049 1.607-2.549 2.273-4.5 2v3h-6v3h-5v3c-2.524-.071-4.524.929-6 3-2.12-1.372-3.12-.705-3 2a12.93 12.93 0 0 0-5 .5 101.657 101.657 0 0 0-10 7.5 9.108 9.108 0 0 1-5 1v3c-2.51-.446-4.51.22-6 2-2.216.703-4.049 2.036-5.5 4-1.813-1.109-2.646-.442-2.5 2a12.93 12.93 0 0 0-5 .5c-1.497 1.871-3.497 2.871-6 3-1.307 2.324-3.307 3.657-6 4l2 1a12.93 12.93 0 0 1-5 .5v3a9.86 9.86 0 0 0-6 1 35.217 35.217 0 0 1-8 4v3h-6v3h-6v3a8.43 8.43 0 0 0-4 .5l-5 5c-1.284.684-2.451.517-3.5-.5-1.263 2.968-3.263 3.968-6 3a2.428 2.428 0 0 0-.5 2h-12c-.507-1.359-1.507-2.359-3-3a137.913 137.913 0 0 0-11-4v-3c-2.133-1.386-5.133-2.386-9-3v-3h-5v-3c-3.005.247-5.505-.753-7.5-3l-1 1a4.934 4.934 0 0 1-.5-3h-6v-3h-5v-3h-6v-3c-5.922-1.727-11.089-4.727-15.5-9-.718.951-1.551 1.117-2.5.5 1.333-.667 1.333-1.333 0-2a12.93 12.93 0 0 0-5-.5v-3a58.97 58.97 0 0 1-11-3v-3c-8.654-3.265-16.321-6.932-23-11v-3h-6v-3h-5v-3a8.43 8.43 0 0 1-4-.5c-4.85-3.699-10.184-6.199-16-7.5v-3h-6v-3c-2.092-.061-3.592-1.061-4.5-3-1.299.466-2.799.466-4.5 0v-3c-1.788.285-3.455-.048-5-1-2.158-3.144-5.158-4.477-9-4v-3a12.93 12.93 0 0 1-5-.5c-2.625-3.031-6.125-5.864-10.5-8.5-2.537.677-4.537-.323-6-3l-1 1c-1.667-1-3-2.333-4-4-1.049 1.017-2.216 1.184-3.5.5l1-1a15.645 15.645 0 0 1-4-2.5 196.869 196.869 0 0 1-1-28c6.487-1.154 13.154-1.321 20-.5a778.276 778.276 0 0 0 33 18 147.725 147.725 0 0 1 17 12 64.953 64.953 0 0 1 18 8 312.742 312.742 0 0 1 1.5 24.5l1.5 1.5 43 1c5.239 4.798 11.239 8.131 18 10 1.374 3.683 4.041 5.349 8 5a7040.07 7040.07 0 0 0 28 16l4 4a35.157 35.157 0 0 1 10 5 66.364 66.364 0 0 0 9.5 2.5c5.889-.966 11.389-2.799 16.5-5.5 5.239-4.798 11.239-8.131 18-10 4.933-4.604 10.6-7.938 17-10a209.75 209.75 0 0 1 30-18l40-1a11.333 11.333 0 0 0 1.5-3.5l1-21 4-2 1 25 1.5 1.5c6.513.172 12.847.672 19 1.5Z"/><path style="opacity:1" fill="#f5f6f6" d="M352.5 658.5a189.274 189.274 0 0 0 16 9.5c-5.323.499-10.656.666-16 .5v-10Z"/><path style="opacity:1" fill="#80878a" d="M470.5 643.5c.993 8.15 1.326 16.483 1 25-11.845.328-23.512-.005-35-1h34v-24Z"/><path style="opacity:1" fill="#8f9598" d="m380.5 674.5-2 39a400.778 400.778 0 0 1 1-40c.607.124.94.457 1 1Z"/><path style="opacity:1" fill="#fcfcfc" d="M380.5 674.5c1.871.359 3.371 1.359 4.5 3l1 34c.057 2.41 1.224 3.744 3.5 4l64 2c-4.401.859-8.068 3.026-11 6.5-6.858 2.879-13.191 6.546-19 11a115.786 115.786 0 0 0-25 13.5 97.288 97.288 0 0 0-12-5.5c-3.543-1.608-6.543-3.942-9-7-5.662-.917-10.329-3.583-14-8-7.4-2.867-14.4-6.534-21-11l34-1c.881-.708 1.547-1.542 2-2.5l2-39Z"/><path style="opacity:1" fill="#713d29" d="M653.5 490.5c.999 72.498 1.333 145.165 1 218-40.17.332-80.17-.001-120-1h119v-217Z"/><path style="opacity:1" fill="#c7cacc" d="M389.5 715.5c22.003-.167 44.003 0 66 .5-.544.717-1.211 1.217-2 1.5l-64-2Z"/><path style="opacity:1" fill="#f8d58e" d="M476.5 757.5c1.333.667 1.333.667 0 0Z"/></svg>