<?xml version="1.0" encoding="UTF-8"?><svg xmlns="http://www.w3.org/2000/svg" width="800" height="800" style="shape-rendering:geometricPrecision;text-rendering:geometricPrecision;image-rendering:optimizeQuality;fill-rule:evenodd;clip-rule:evenodd"><path style="opacity:1" fill="#f6bc00" d="M576.5-.5h9a2.429 2.429 0 0 0 .5 2c1.049-1.017 2.216-1.184 3.5-.5a20.495 20.495 0 0 0 2.5 3.5c1.356-.88 2.856-1.214 4.5-1v3c2.822 1.432 6.489 2.432 11 3v3c2.092.061 3.592 1.061 4.5 3 2.537-.677 4.537.323 6 3 2.361-.566 4.194.434 5.5 3l2-1c.35 2.067 2.017 3.067 5 3v3h6v3h5v3h6v3a27.247 27.247 0 0 0 9 3c-.219 1.175.114 2.175 1 3a6.846 6.846 0 0 1 4-1v3a8.435 8.435 0 0 1 4 .5c-1.154.914-.987 1.747.5 2.5 1.299-.466 2.799-.466 4.5 0v3h6v3h5v3a428.986 428.986 0 0 0 20 8.5l-2 1c2.522.61 4.522 1.943 6 4 1.634.493 3.301.66 5 .5v3c2.908-.238 5.242.762 7 3 .951-.826 1.951-.992 3-.5l-1 1a6.977 6.977 0 0 1 3.5 2.5l1-1c.483.948.649 1.948.5 3h6v3h5v3c1.951-.273 3.451.393 4.5 2l1-1c6 4.386 12.5 7.886 19.5 10.5l-1 1c1.525 1.009 3.192 1.509 5 1.5v3h6v3h5v3c2.041.354 3.874.354 5.5 0 .483.948.649 1.948.5 3 1.679-.215 2.679.452 3 2h-51a123.564 123.564 0 0 1-31-17.5 457.332 457.332 0 0 0-22-11l-4-4a161.879 161.879 0 0 1-33-19c-6.4-2.062-12.067-5.396-17-10l-19-9a30.312 30.312 0 0 0-12-7c-2.365-3.714-5.698-5.714-10-6-7.082-6.364-15.416-9.031-25-8a12271.425 12271.425 0 0 1-129 74 38.459 38.459 0 0 0-5 5.5 256.255 256.255 0 0 1-22-2c9.639-5.488 19.306-10.988 29-16.5.837-1.011 1.17-2.178 1-3.5 4.493-.216 7.993-2.216 10.5-6 1.011.837 2.178 1.17 3.5 1v-3a59.031 59.031 0 0 0 11-3v-3c1.808.009 3.475-.491 5-1.5l-1-1a12.935 12.935 0 0 1 5-.5v-3a9.864 9.864 0 0 0 6-1 35.213 35.213 0 0 1 8-4v-3h6v-3a59.031 59.031 0 0 1 11-3v-3c1.808.009 3.475-.491 5-1.5-1.388-.89-1.222-1.39.5-1.5 2.071 1.167 3.571.5 4.5-2 6.434-2.343 12.767-5.343 19-9v-3a59.031 59.031 0 0 1 11-3 4.934 4.934 0 0 1 .5-3l1 1c1.995-2.247 4.495-3.247 7.5-3v-3h5v-3h6v-3c1.808.009 3.475-.491 5-1.5l-1-1a12.936 12.936 0 0 1 5-.5v-3c3.552.188 6.219-1.145 8-4Z"/><path style="opacity:1" fill="#f6bb01" d="M397.5 100.5c-5.81.99-11.81 1.323-18 1-3.957.232-7.624-.601-11-2.5a296.917 296.917 0 0 0-37-21 3729.286 3729.286 0 0 0-93-54c-5.287.175-10.621.509-16 1a583.354 583.354 0 0 0-33 19 175.013 175.013 0 0 0-28 16l-4 1-23 15a336.071 336.071 0 0 0-40 23c-5.503 1.171-10.17 3.837-14 8a133.395 133.395 0 0 0-32 18c-2.71 1.747-5.71 2.747-9 3-1.574 1.826-2.407 3.993-2.5 6.5a1012.93 1012.93 0 0 0-.5 45h-30c.032-21.649.032-43.149 0-64.5a169.104 169.104 0 0 0 15-5.5v-3a58.967 58.967 0 0 0 11-3v-3a417.79 417.79 0 0 0 15-7 32.686 32.686 0 0 0 8.5-6l1 1c1.049-1.607 2.549-2.273 4.5-2v-3a59.029 59.029 0 0 1 11-3 4.932 4.932 0 0 1 .5-3l1 1c2.015-3.065 4.515-4.065 7.5-3v-3h5v-3c1.7.16 3.366-.007 5-.5 1.478-2.057 3.478-3.39 6-4l-2-1a18.436 18.436 0 0 1 6-.5v-3a87.51 87.51 0 0 0 14-5v-3h6v-3h5v-3c1.701-.466 3.201-.466 4.5 0 3.279-4.047 7.946-7.047 14-9a18.264 18.264 0 0 0 5-4l1 1c1.049-1.607 2.549-2.273 4.5-2v-3h5v-3h6v-3c4.612-1.195 9.279-2.862 14-5v-3c1.701-.466 3.201-.466 4.5 0 .908-1.939 2.408-2.939 4.5-3v-3h6v-3c1.788.285 3.455-.048 5-1a38.767 38.767 0 0 0 7-4.5 49.25 49.25 0 0 1 14 0c2.025 1.677 4.359 2.677 7 3-1.134 1.016-.801 1.683 1 2l5 1-1 1c2.622 3.073 5.955 4.573 10 4.5v3h6v3c3.191.262 5.858 1.596 8 4a9.864 9.864 0 0 0 6 1v3c3.58 1.22 7.247 2.386 11 3.5l-2 1c2.767.678 4.934 2.178 6.5 4.5l1-1c3.769 1.797 7.102 4.13 10 7a3.942 3.942 0 0 1 2-1c1.482 1.612 3.315 2.612 5.5 3v3h6v3h5v3h6v3a87.51 87.51 0 0 0 14 5v3c1.699-.16 3.366.007 5 .5l-1 1c1.525 1.009 3.192 1.509 5 1.5v3h6v3h5v3c2.985-1.065 5.485-.065 7.5 3l1-1c.483.948.649 1.948.5 3h5v3h6v3c2.133 1.386 5.133 2.386 9 3v3c2.908-.238 5.242.762 7 3l2-1c.35 2.067 2.017 3.067 5 3v3h6Z"/><path style="opacity:1" fill="#273338" d="M733.5 114.5a94.242 94.242 0 0 0 15 10.5c2.71 1.747 5.71 2.747 9 3a22.162 22.162 0 0 1 4 6.5c.167 75.334 0 150.667-.5 226a190.921 190.921 0 0 1-21.5 10.5l-8 6a377.475 377.475 0 0 1-23 12c-3.342 4.33-7.675 6.997-13 8a490.902 490.902 0 0 1-26 15.5 796.821 796.821 0 0 1-33 19 152.296 152.296 0 0 1 4-15 1383.138 1383.138 0 0 1 68-39.5 846.02 846.02 0 0 0 33-20 73.86 73.86 0 0 0 9-3.5c.167-70.334 0-140.667-.5-211 .564-4.29-1.269-6.457-5.5-6.5a203.265 203.265 0 0 0-37-21l-4-4a91.311 91.311 0 0 1-23-13 457.332 457.332 0 0 0-22-11l-4-4a483.026 483.026 0 0 1-51-29c-3.415-.406-6.082-2.072-8-5a90.401 90.401 0 0 0-14-6c-5.722-6.435-12.722-8.768-21-7-7.36 5.663-15.36 9.996-24 13-3.619 3.977-7.952 6.644-13 8-2.537 2.546-5.537 4.212-9 5l-4 4-10 4a331.656 331.656 0 0 1-40 23l-17 11c.556.383.889.883 1 1.5a59.076 59.076 0 0 0-18-3 38.459 38.459 0 0 1 5-5.5 12271.425 12271.425 0 0 0 129-74c9.584-1.031 17.918 1.636 25 8 4.302.286 7.635 2.286 10 6a30.312 30.312 0 0 1 12 7l19 9c4.933 4.604 10.6 7.938 17 10a161.879 161.879 0 0 0 33 19l4 4a457.332 457.332 0 0 1 22 11 123.564 123.564 0 0 0 31 17.5Z"/><path style="opacity:1" fill="#293438" d="M379.5 101.5c-8.663.581-17.33 1.914-26 4-3.067-4.044-7.067-6.877-12-8.5a130.683 130.683 0 0 0-23-13 88.177 88.177 0 0 0-22-12 153.747 153.747 0 0 0-27-16 179.568 179.568 0 0 1-15-10A228.066 228.066 0 0 0 230 34.5 112.066 112.066 0 0 0 206.5 48l-10 4-3 3c-6.771 2.445-12.771 6.111-18 11l-10 4-4 4a520.666 520.666 0 0 0-59 34l-9 3c-3.796 3.592-8.13 6.259-13 8A361.546 361.546 0 0 1 48 137.5c-.667 72-.667 144 0 216A65.836 65.836 0 0 1 64.5 364l22 11a334.568 334.568 0 0 0 40 23 199.073 199.073 0 0 0 20 13 86.171 86.171 0 0 0 12 4.5 133.006 133.006 0 0 0 5 17 57.829 57.829 0 0 0-8-2.5 1776.893 1776.893 0 0 0-46-27.5 374.981 374.981 0 0 1-31-18.5 130.15 130.15 0 0 1-23-13c-3.96.349-6.626-1.317-8-5l-9.5-5.5a129.7 129.7 0 0 0-1.5-7v-174c-.167-15.004 0-30.004.5-45 .093-2.507.926-4.674 2.5-6.5 3.29-.253 6.29-1.253 9-3a133.395 133.395 0 0 1 32-18c3.83-4.163 8.497-6.829 14-8a336.071 336.071 0 0 1 40-23l23-15 4-1a175.013 175.013 0 0 1 28-16 583.354 583.354 0 0 1 33-19 276.355 276.355 0 0 1 16-1 3729.286 3729.286 0 0 1 93 54 296.917 296.917 0 0 1 37 21c3.376 1.899 7.043 2.732 11 2.5Z"/><path style="opacity:1" fill="#fdfdfd" d="M353.5 105.5c-24.273 3.869-47.273 11.535-69 23a975.974 975.974 0 0 0-30-18.5 154.79 154.79 0 0 1-13-6l-4-4a42.498 42.498 0 0 0-13 0 226.438 226.438 0 0 0-29 17c-3.415.406-6.082 2.072-8 5a90.42 90.42 0 0 1-14 6c-3.574 3.951-7.907 6.618-13 8-6.962 5.648-14.628 9.981-23 13a230.435 230.435 0 0 1-32.5 19.5 2946.23 2946.23 0 0 0-1 153 213.392 213.392 0 0 0 27.5 15.5c5.407 4.346 11.407 7.512 18 9.5-.302 2.559.032 4.893 1 7-.58 21.095 2.086 41.762 8 62a86.171 86.171 0 0 1-12-4.5 199.073 199.073 0 0 1-20-13 334.568 334.568 0 0 1-40-23l-22-11A65.836 65.836 0 0 0 48 353.5c-.667-72-.667-144 0-216A361.546 361.546 0 0 0 80.5 119c4.87-1.741 9.204-4.408 13-8l9-3a520.666 520.666 0 0 1 59-34l4-4 10-4c5.229-4.889 11.229-8.555 18-11l3-3 10-4A112.066 112.066 0 0 1 230 34.5 228.066 228.066 0 0 1 254.5 46a179.568 179.568 0 0 0 15 10 153.747 153.747 0 0 1 27 16 88.177 88.177 0 0 1 22 12 130.683 130.683 0 0 1 23 13c4.933 1.623 8.933 4.456 12 8.5ZM640.5 416.5a268.375 268.375 0 0 0 9-69 1935.4 1935.4 0 0 0 25-15.5c7.819-2.16 14.319-6.327 19.5-12.5.99-49.416.657-98.75-1-148a36.078 36.078 0 0 0-3.5-4.5 198.572 198.572 0 0 1-36-21 114.302 114.302 0 0 1-13-6 182.852 182.852 0 0 0-35-20c-3.671-4.417-8.338-7.083-14-8a171.322 171.322 0 0 0-19-12c-8.302-.757-15.635 1.576-22 7a68.695 68.695 0 0 0-14 7c-4.302.286-7.635 2.286-10 6a139.881 139.881 0 0 0-14 7.5c-21.547-10.738-44.214-18.071-68-22-.111-.617-.444-1.117-1-1.5l17-11a331.656 331.656 0 0 0 40-23l10-4 4-4c3.463-.788 6.463-2.454 9-5 5.048-1.356 9.381-4.023 13-8 8.64-3.004 16.64-7.337 24-13 8.278-1.768 15.278.565 21 7a90.401 90.401 0 0 1 14 6c1.918 2.928 4.585 4.594 8 5a483.026 483.026 0 0 0 51 29l4 4a457.332 457.332 0 0 1 22 11 91.311 91.311 0 0 0 23 13l4 4a203.265 203.265 0 0 1 37 21c4.231.043 6.064 2.21 5.5 6.5.5 70.333.667 140.666.5 211a73.86 73.86 0 0 1-9 3.5 846.02 846.02 0 0 1-33 20 1383.138 1383.138 0 0 0-68 39.5Z"/><path style="opacity:1" fill="#273338" d="m284.5 128.5-12 7a14.698 14.698 0 0 0-3-3.5 101.617 101.617 0 0 1-22-13c-5.603-1.533-10.436-4.366-14.5-8.5-1.604 1.149-3.27 1.149-5 0a1068.258 1068.258 0 0 1-78.5 45.5c-5.201 4.797-11.201 8.13-18 10-5.677 4.879-11.677 9.045-18 12.5a441.579 441.579 0 0 0-1 42v94c5.301 1.324 9.968 3.824 14 7.5l10 4c1.918 2.928 4.585 4.594 8 5a32.324 32.324 0 0 0 6 4.5v18c-.968-2.107-1.302-4.441-1-7-6.593-1.988-12.593-5.154-18-9.5a213.392 213.392 0 0 1-27.5-15.5 2946.23 2946.23 0 0 1 1-153 230.435 230.435 0 0 0 32.5-19.5c8.372-3.019 16.038-7.352 23-13 5.093-1.382 9.426-4.049 13-8a90.42 90.42 0 0 0 14-6c1.918-2.928 4.585-4.594 8-5a226.438 226.438 0 0 1 29-17 42.498 42.498 0 0 1 13 0l4 4a154.79 154.79 0 0 0 13 6 975.974 975.974 0 0 1 30 18.5ZM649.5 347.5a53.805 53.805 0 0 0-1-14 73.86 73.86 0 0 1 9-3.5 679.07 679.07 0 0 1 23-15 12.93 12.93 0 0 1 5-.5c.331-28.505-.002-56.838-1-85-.333-1-1-1.667-2-2a650.602 650.602 0 0 0-1-51 1338.1 1338.1 0 0 1-59-34.5 918.374 918.374 0 0 1-55-31.5 322.269 322.269 0 0 0-36 20.5c-3.34-.149-5.34 1.351-6 4.5a43.593 43.593 0 0 0-13-8 139.881 139.881 0 0 1 14-7.5c2.365-3.714 5.698-5.714 10-6a68.695 68.695 0 0 1 14-7c6.365-5.424 13.698-7.757 22-7a171.322 171.322 0 0 1 19 12c5.662.917 10.329 3.583 14 8a182.852 182.852 0 0 1 35 20 114.302 114.302 0 0 0 13 6 198.572 198.572 0 0 0 36 21 36.078 36.078 0 0 1 3.5 4.5c1.657 49.25 1.99 98.584 1 148-5.181 6.173-11.681 10.34-19.5 12.5a1935.4 1935.4 0 0 1-25 15.5Z"/><path style="opacity:.999" fill="#20262b" d="M397.5 100.5h7c7.159.97 14.493 1.636 22 2a59.076 59.076 0 0 1 18 3c23.786 3.929 46.453 11.262 68 22a43.593 43.593 0 0 1 13 8c20.893 11.786 39.559 26.453 56 44a292.18 292.18 0 0 1 36 49 283.68 283.68 0 0 1 23 55 325.477 325.477 0 0 1 8 50 53.805 53.805 0 0 1 1 14 268.375 268.375 0 0 1-9 69 152.296 152.296 0 0 0-4 15 709.875 709.875 0 0 0-12 28 165.865 165.865 0 0 1-17 30 79.757 79.757 0 0 0-12 17 14.698 14.698 0 0 0-3.5 3c-.5-8.66-.666-17.327-.5-26 31.406-45.269 45.239-95.602 41.5-151-9.008-82.239-48.841-144.406-119.5-186.5-76.02-39.251-152.02-39.251-228 0-81.693 49.526-121.526 122.36-119.5 218.5 4.654 63.3 30.154 116.3 76.5 159 .324 6.854-.009 13.521-1 20a150.377 150.377 0 0 1-27-26 2859.072 2859.072 0 0 1-13-14 51161.455 51161.455 0 0 0-15-22 450.713 450.713 0 0 1-14-25c-2.513-7.834-5.513-15.834-9-24a133.006 133.006 0 0 1-5-17c-5.914-20.238-8.58-40.905-8-62v-18a301.249 301.249 0 0 1 8-52 283.68 283.68 0 0 1 23-55 292.18 292.18 0 0 1 36-49c16.247-17.288 34.58-31.955 55-44l12-7c21.727-11.465 44.727-19.131 69-23 8.67-2.086 17.337-3.419 26-4 6.19.323 12.19-.01 18-1Z"/><path style="opacity:1" fill="#f7bd00" d="M591.5 483.5c-.843-1.673-2.176-2.84-4-3.5-18.33-.5-36.664-.667-55-.5-6.66-11.336-16.66-17.002-30-17-.287-9.436-4.954-15.27-14-17.5a112.97 112.97 0 0 0-15-.5 307.162 307.162 0 0 1 1-35 160.383 160.383 0 0 0 23-24.5c9.843.921 18.343-1.913 25.5-8.5 2.354-3.702 3.854-7.702 4.5-12a1600.65 1600.65 0 0 0 1-80c2.235.295 4.235-.039 6-1 19.14-2.636 31.307-13.303 36.5-32 3.362-24.452-6.471-40.952-29.5-49.5-6.672-1.533-13.339-1.7-20-.5-7.441-10.062-17.441-16.062-30-18-4.635-9.8-12.302-15.634-23-17.5-48-.667-96-.667-144 0-23.377 8.252-31.877 24.418-25.5 48.5a90.667 90.667 0 0 0 8.5 13.5c-9.051 14.919-14.218 31.085-15.5 48.5l-21 46c-2.661 11.129 1.506 17.462 12.5 19-.166 8.34 0 16.673.5 25 1.953 11.286 8.286 18.953 19 23-1.053 24.784 10.447 39.617 34.5 44.5l24 1c3.392 2.285 5.059 5.452 5 9.5-8.037-.402-13.87 2.932-17.5 10a8.43 8.43 0 0 0-.5 4c-.904.709-1.237 1.709-1 3-4.532-.318-8.866.015-13 1-9.51.672-17.343 4.672-23.5 12a1193.602 1193.602 0 0 0-22.5 40 1011.661 1011.661 0 0 1-44 1.5c-1.778 2.135-2.445 4.635-2 7.5-46.346-42.7-71.846-95.7-76.5-159-2.026-96.14 37.807-168.974 119.5-218.5 75.98-39.251 151.98-39.251 228 0 70.659 42.094 110.492 104.261 119.5 186.5 3.739 55.398-10.094 105.731-41.5 151Z"/><path style="opacity:1" fill="#f0b704" d="M272.5 135.5c-20.42 12.045-38.753 26.712-55 44a2704.72 2704.72 0 0 1-104-1c6.323-3.455 12.323-7.621 18-12.5 6.799-1.87 12.799-5.203 18-10a1068.258 1068.258 0 0 0 78.5-45.5c1.73 1.149 3.396 1.149 5 0 4.064 4.134 8.897 6.967 14.5 8.5a101.617 101.617 0 0 0 22 13 14.698 14.698 0 0 1 3 3.5ZM681.5 176.5v3h-100c-16.441-17.547-35.107-32.214-56-44 .66-3.149 2.66-4.649 6-4.5a322.269 322.269 0 0 1 36-20.5 918.374 918.374 0 0 0 55 31.5 1338.1 1338.1 0 0 0 59 34.5Z"/><path style="opacity:1" fill="#f1b803" d="M733.5 114.5h57a556.44 556.44 0 0 1 2 65h-30a507.055 507.055 0 0 0-1-45 22.162 22.162 0 0 0-4-6.5c-3.29-.253-6.29-1.253-9-3a94.242 94.242 0 0 1-15-10.5Z"/><path style="opacity:1" fill="#1f252b" d="M521.5 201.5a48.796 48.796 0 0 0-15 6c-7.423-6.42-16.089-9.587-26-9.5a47.31 47.31 0 0 0-5.5-11.5c-1.952-2.394-4.452-3.894-7.5-4.5-47-.667-94-.667-141 0-13.891 6.612-17.391 16.778-10.5 30.5 2.592 3.262 5.759 5.762 9.5 7.5l93 1c4.621 2.077 6.455 5.577 5.5 10.5a35.157 35.157 0 0 0-5 10l-1 116c-2.573 8.239-8.073 13.405-16.5 15.5a1121.94 1121.94 0 0 1-67 0l-3.5-3.5a363.75 363.75 0 0 0-1.5-26.5 210.395 210.395 0 0 0-29 0c-1.147 7.754-1.314 15.587-.5 23.5 4.133 6.926 10.3 10.093 18.5 9.5l2.5 2.5a126.13 126.13 0 0 0-1 24c2.118 7.083 6.618 11.916 13.5 14.5a607.068 607.068 0 0 0 48.5 1.5 607.068 607.068 0 0 0 48.5-1.5c8.234-3.91 13.068-10.41 14.5-19.5-1.791-14.843 4.375-24.343 18.5-28.5l45-1 2.5-2.5c.168-28.503.668-56.836 1.5-85 4.693 2.38 9.693 3.38 15 3v81c-.646 4.298-2.146 8.298-4.5 12-7.157 6.587-15.657 9.421-25.5 8.5a160.383 160.383 0 0 1-23 24.5 307.162 307.162 0 0 0-1 35 112.97 112.97 0 0 1 15 .5c9.046 2.23 13.713 8.064 14 17.5 13.34-.002 23.34 5.664 30 17h-21c-1.208-.734-2.541-1.067-4-1-.774-.647-1.774-.98-3-1a52.12 52.12 0 0 1-18 2v-19h-49c.732 7.356-.434 14.356-3.5 21a177.724 177.724 0 0 1-11.5 11 50.464 50.464 0 0 0-.5-10 6.978 6.978 0 0 0-3.5-2.5 645.032 645.032 0 0 0-71 1 333.527 333.527 0 0 0-.5 44.5c2.135 1.778 4.635 2.445 7.5 2a32.426 32.426 0 0 1-8.5 8 417.59 417.59 0 0 1-13.5 24c-5.48-1.783-11.147-2.449-17-2a732.567 732.567 0 0 1 16.5-29c.667-1.667.667-3.333 0-5a1142.176 1142.176 0 0 1-21.5 33 96.254 96.254 0 0 1-19 1 1236.2 1236.2 0 0 1 40.5-62l1-12c1.167-2.5 3-4.333 5.5-5.5-5.7-.543-10.533 1.29-14.5 5.5a3583.45 3583.45 0 0 1-33.5 57c.166-7.674 0-15.341-.5-23-1.039-.744-1.539-1.744-1.5-3a1193.602 1193.602 0 0 1 22.5-40c6.157-7.328 13.99-11.328 23.5-12h14v-4a8.43 8.43 0 0 1 .5-4c3.63-7.068 9.463-10.402 17.5-10 .059-4.048-1.608-7.215-5-9.5l-24-1c-24.053-4.883-35.553-19.716-34.5-44.5-10.714-4.047-17.047-11.714-19-23-.5-8.327-.666-16.66-.5-25-10.994-1.538-15.161-7.871-12.5-19l21-46c1.282-17.415 6.449-33.581 15.5-48.5a90.667 90.667 0 0 1-8.5-13.5c-6.377-24.082 2.123-40.248 25.5-48.5 48-.667 96-.667 144 0 10.698 1.866 18.365 7.7 23 17.5 12.559 1.938 22.559 7.938 30 18Z"/><path style="opacity:1" fill="#6d4b4a" d="M506.5 207.5c-16.96 13.828-21.793 31.162-14.5 52 4.355 9.52 11.188 16.52 20.5 21a3596.397 3596.397 0 0 0-1.5 85l-2.5 2.5-45 1c-14.125 4.157-20.291 13.657-18.5 28.5-1.432 9.09-6.266 15.59-14.5 19.5a607.068 607.068 0 0 1-48.5 1.5 607.068 607.068 0 0 1-48.5-1.5c-6.882-2.584-11.382-7.417-13.5-14.5a126.13 126.13 0 0 1 1-24l-2.5-2.5c-8.2.593-14.367-2.574-18.5-9.5-.814-7.913-.647-15.746.5-23.5a210.395 210.395 0 0 1 29 0 363.75 363.75 0 0 1 1.5 26.5l3.5 3.5c22.333.667 44.667.667 67 0 8.427-2.095 13.927-7.261 16.5-15.5l1-116a35.157 35.157 0 0 1 5-10c.955-4.923-.879-8.423-5.5-10.5l-93-1c-3.741-1.738-6.908-4.238-9.5-7.5-6.891-13.722-3.391-23.888 10.5-30.5 47-.667 94-.667 141 0 3.048.606 5.548 2.106 7.5 4.5a47.31 47.31 0 0 1 5.5 11.5c9.911-.087 18.577 3.08 26 9.5Z"/><path style="opacity:1" fill="#e9b207" d="M6.5 179.5h30v49h-30v-49Z"/><path style="opacity:1" fill="#e8b107" d="M113.5 178.5a2704.72 2704.72 0 0 0 104 1 292.18 292.18 0 0 0-36 49h-68c.306-2.885-.027-5.552-1-8a441.579 441.579 0 0 1 1-42Z"/><path style="opacity:1" fill="#fefefd" d="M534.5 283.5h-7c-5.307.38-10.307-.62-15-3-9.312-4.48-16.145-11.48-20.5-21-7.293-20.838-2.46-38.172 14.5-52a48.796 48.796 0 0 1 15-6c6.661-1.2 13.328-1.033 20 .5 23.029 8.548 32.862 25.048 29.5 49.5-5.193 18.697-17.36 29.364-36.5 32Z"/><path style="opacity:1" fill="#e8b107" d="M681.5 176.5a650.602 650.602 0 0 1 1 51c-21.494.997-43.16 1.331-65 1a292.18 292.18 0 0 0-36-49h100v-3Z"/><path style="opacity:1" fill="#e9b207" d="M762.5 179.5h30v49h-30v-49Z"/><path style="opacity:1" fill="#e0ab0a" d="M112.5 220.5c.973 2.448 1.306 5.115 1 8h68a283.68 283.68 0 0 0-23 55h-45c.302-2.559-.032-4.893-1-7v-56ZM682.5 227.5c1 .333 1.667 1 2 2v54h-44a283.68 283.68 0 0 0-23-55c21.84.331 43.506-.003 65-1Z"/><path style="opacity:1" fill="#b68b1d" d="M321.5 235.5c27.289.983 54.622 1.316 82 1 .167 39.001 0 78.001-.5 117l-3.5 3.5c-17.997.5-35.997.667-54 .5a162.597 162.597 0 0 0-.5-18c-2.141-6.141-6.307-10.307-12.5-12.5l-46-1a2368.432 2368.432 0 0 1 19.5-41.5c1.849-17.444 7.016-33.777 15.5-49Z"/><path style="opacity:1" fill="#dfaa0b" d="M6.5 228.5h30v55h-30v-55ZM762.5 228.5h30v55h-30v-55Z"/><path style="opacity:1" fill="#21262a" d="M339.5 273.5c8.83-1.338 12.33 2.329 10.5 11-3.661 4.476-7.994 5.143-13 2-2.65-5.234-1.817-9.567 2.5-13Z"/><path style="opacity:1" fill="#d6a30f" d="M112.5 276.5c.968 2.107 1.302 4.441 1 7h45a301.249 301.249 0 0 0-8 52 32.324 32.324 0 0 1-6-4.5c-3.415-.406-6.082-2.072-8-5l-10-4c-4.032-3.676-8.699-6.176-14-7.5v-38Z"/><path style="opacity:1" fill="#d4a20f" d="M684.5 229.5a1807.264 1807.264 0 0 1 1 85 12.93 12.93 0 0 0-5 .5 679.07 679.07 0 0 0-23 15 73.86 73.86 0 0 0-9 3.5 325.477 325.477 0 0 0-8-50h44v-54Z"/><path style="opacity:1" fill="#c69c1a" d="M527.5 283.5h7c-1.765.961-3.765 1.295-6 1a1600.65 1600.65 0 0 1-1 80v-81Z"/><path style="opacity:1" fill="#b88c1c" d="M547.5 302.5c15.004-.167 30.004 0 45 .5 7.876 4.07 10.042 10.237 6.5 18.5-1.563 3.228-4.063 5.395-7.5 6.5a462.27 462.27 0 0 1-43 0c-11.578-8.171-11.912-16.671-1-25.5Z"/><path style="opacity:1" fill="#d3a110" d="M6.5 283.5h30v70h-30v-70ZM762.5 283.5h30v70h-30v-70Z"/><path style="opacity:1" fill="#b88c1c" d="M548.5 345.5a354.943 354.943 0 0 1 45 1.5c7.07 4.456 8.904 10.622 5.5 18.5-1.961 2.635-4.461 4.469-7.5 5.5a462.27 462.27 0 0 1-43 0c-9.636-5.078-11.47-12.245-5.5-21.5a35.524 35.524 0 0 0 5.5-4ZM207.5 367.5c16.003-.167 32.003 0 48 .5 10.176 3.847 13.01 10.681 8.5 20.5-1.731 2.117-3.898 3.617-6.5 4.5-17 .667-34 .667-51 0-10.817-8.824-10.484-17.324 1-25.5Z"/><path style="opacity:1" fill="#c59616" d="M6.5 353.5h30a129.7 129.7 0 0 1 1.5 7l9.5 5.5c1.374 3.683 4.04 5.349 8 5a130.15 130.15 0 0 0 23 13 374.981 374.981 0 0 0 31 18.5c-11.154.995-22.488 1.328-34 1-1.765-.961-3.765-1.295-6-1v-3h-5v-3a544.412 544.412 0 0 1-29-14v-3a58.967 58.967 0 0 1-11-3v-3h-6v-3c-4.013-1.674-8.013-3.341-12-5v-12Z"/><path style="opacity:1" fill="#c39516" d="M761.5 134.5a507.055 507.055 0 0 1 1 45v174h30v12c-3.013-.128-5.513.872-7.5 3-2.411-1.653-3.578-.987-3.5 2-1.701.466-3.201.466-4.5 0-3.844 1.975-7.177 4.642-10 8l-1-1c-1.049 1.607-2.549 2.273-4.5 2v3c-3.937.204-7.604 1.204-11 3 .381 2.442-.286 3.109-2 2-.886.825-1.219 1.825-1 3h-6v3a12.93 12.93 0 0 0-5 .5c-1.079 2.043-2.746 3.376-5 4l1 1a12.93 12.93 0 0 1-5 .5v3a9.86 9.86 0 0 0-6 1c-3.423 1.192-6.256 3.192-8.5 6l-1-1c-1.049 1.607-2.549 2.273-4.5 2v3h-6c-10.846.328-21.513-.006-32-1a490.902 490.902 0 0 0 26-15.5c5.325-1.003 9.658-3.67 13-8a377.475 377.475 0 0 0 23-12l8-6a190.921 190.921 0 0 0 21.5-10.5c.5-75.333.667-150.666.5-226Z"/><path style="opacity:1" fill="#ac841e" d="M464.5 384.5a84.902 84.902 0 0 1 13 .5 180.42 180.42 0 0 1-16.5 15.5c-1.568-6.125-.401-11.458 3.5-16Z"/><path style="opacity:1" fill="#b88c1c" d="M549.5 388.5a840.27 840.27 0 0 1 41 .5c9.232 3.637 12.066 10.137 8.5 19.5-1.251 2.881-3.417 4.714-6.5 5.5-15 .667-30 .667-45 0-8.128-4.749-9.961-11.249-5.5-19.5 2.114-2.621 4.614-4.621 7.5-6Z"/><path style="opacity:1" fill="#bc8f1a" d="M109.5 402.5a1776.893 1776.893 0 0 1 46 27.5 57.829 57.829 0 0 1 8 2.5c3.487 8.166 6.487 16.166 9 24a17255.34 17255.34 0 0 0-15-8.5c-6.204-2.789-12.537-4.622-19-5.5v-3h-6v-3h-3v-3h-6v-3h-5v-3c-2.921.354-5.254-.646-7-3-1.714 1.109-2.381.442-2-2a58.97 58.97 0 0 1-11-3v-3a27.267 27.267 0 0 0-9-3v-3c-2.908.238-5.242-.762-7-3a3.647 3.647 0 0 0-1.5 1c-1.667-1-3-2.333-4-4-1.107 1.212-1.607.879-1.5-1 11.512.328 22.846-.005 34-1Z"/><path style="opacity:1" fill="#b78b1d" d="M421.5 463.5h-39c.326-8.184-.008-16.184-1-24v-3a549.537 549.537 0 0 1 47-3c12.987-2.246 22.487-9.246 28.5-21 .5 10.661.667 21.328.5 32-8.007-.166-16.007 0-24 .5-8.392 3.277-12.392 9.443-12 18.5Z"/><path style="opacity:1" fill="#bb8f1a" d="M669.5 412.5c10.487.994 21.154 1.328 32 1v3h-5v3c-2.185.388-4.018 1.388-5.5 3-2.278-1.12-3.778-.287-4.5 2.5a101.955 101.955 0 0 0-13 5.5v3h-6v3h-6v3c-1.788-.285-3.455.048-5 1 1.129 2.029.629 2.363-1.5 1-1.712 3.452-4.212 4.452-7.5 3v3c-3.096-.593-5.429.407-7 3a47.25 47.25 0 0 1-7 3v3h-6v3h-3a709.875 709.875 0 0 1 12-28 796.821 796.821 0 0 0 33-19Z"/><path style="opacity:1" fill="#484125" d="M428.5 433.5a549.537 549.537 0 0 0-47 3c-.904-.709-1.237-1.709-1-3h48Z"/><path style="opacity:1" fill="#897016" d="M348.5 458.5v4h-14c4.134-.985 8.468-1.318 13-1-.237-1.291.096-2.291 1-3Z"/><path style="opacity:1" fill="#5d4344" d="M363.5 460.5h3a50.464 50.464 0 0 1-.5 10 7.293 7.293 0 0 1-2 3 84.902 84.902 0 0 1-.5-13Z"/><path style="opacity:1" fill="#6c4b4a" d="M486.5 479.5c-9.006-.166-18.006 0-27 .5l-2.5 2.5a511.925 511.925 0 0 0-.5 32c-2 1.333-3.667 3-5 5h-29v-27a177.724 177.724 0 0 0 11.5-11c3.066-6.644 4.232-13.644 3.5-21h49v19Z"/><path style="opacity:1" fill="#866a21" d="M381.5 439.5c.992 7.816 1.326 15.816 1 24h39a400.456 400.456 0 0 1-40 1v-25Z"/><path style="opacity:1" fill="#b3881d" d="M291.5 557.5c-.989-5.475-1.322-11.142-1-17a3583.45 3583.45 0 0 0 33.5-57c3.967-4.21 8.8-6.043 14.5-5.5-2.5 1.167-4.333 3-5.5 5.5l-1 12a1236.2 1236.2 0 0 0-40.5 62Z"/><path style="opacity:1" fill="#66582d" d="M507.5 478.5c1.459-.067 2.792.266 4 1-2.855 1.303-5.855 1.303-9 0 1.545-.952 3.212-1.285 5-1Z"/><path style="opacity:1" fill="#273338" d="M507.5 478.5c-1.788-.285-3.455.048-5 1 3.145 1.303 6.145 1.303 9 0h21c18.336-.167 36.67 0 55 .5 1.824.66 3.157 1.827 4 3.5-.166 8.673 0 17.34.5 26a14.698 14.698 0 0 1 3.5-3v107c.166 9.672 0 19.339-.5 29-2.039 1.478-2.872 3.478-2.5 6a210.677 210.677 0 0 0 0 41c.166 6.675 0 13.342-.5 20a9.454 9.454 0 0 1-1.5 2.5 263.418 263.418 0 0 1-39 1.5 750.264 750.264 0 0 0-67-.5 468.081 468.081 0 0 1-31 17c-.881.708-1.547 1.542-2 2.5a62.631 62.631 0 0 1-10 4.5c-3.492 1.624-6.492 3.958-9 7a55.028 55.028 0 0 0-16 8.5c-5.571 3.992-11.904 6.325-19 7-6.416-1.454-12.416-3.788-18-7a31.447 31.447 0 0 1-5-4.5 750.361 750.361 0 0 0-28-15.5c-3.686-.292-6.352-2.126-8-5.5a63.21 63.21 0 0 1-10-4c-3.557-3.275-7.557-5.775-12-7.5-6.997-5.169-14.663-9.336-23-12.5a183.317 183.317 0 0 0-31-18.5 666.983 666.983 0 0 1-28-17.5c-5.503-1.171-10.17-3.837-14-8a192.372 192.372 0 0 1-14-6.5c-1.141-1.588-2.641-2.921-4.5-4-.5-9.327-.666-18.661-.5-28a112.97 112.97 0 0 0-.5-15l-2-2a544.417 544.417 0 0 1-.5-33 31.116 31.116 0 0 1 1-11 3.647 3.647 0 0 0 1.5-1c.5-13.663.667-27.329.5-41v-14c4.343 4.708 8.676 9.375 13 14a400.456 400.456 0 0 0-1 40h29a53.805 53.805 0 0 0-1-14c.991-6.479 1.324-13.146 1-20-.445-2.865.222-5.365 2-7.5 14.741-.183 29.408-.683 44-1.5-.039 1.256.461 2.256 1.5 3 .5 7.659.666 15.326.5 23-.322 5.858.011 11.525 1 17a96.254 96.254 0 0 0 19-1c1.419.951 3.085 1.284 5 1 5.853-.449 11.52.217 17 2v1a249.277 249.277 0 0 0 1 31c-.824 3.812-1.324 7.812-1.5 12l-1.5 1.5c-13.329.5-26.663.667-40 .5v5a73.86 73.86 0 0 0 9 3.5 69.313 69.313 0 0 0 19 11.5 56.925 56.925 0 0 1 8 5.5 90.42 90.42 0 0 0 14 6 523.182 523.182 0 0 0 22 15 63.089 63.089 0 0 0 10 3.5v-57a69.302 69.302 0 0 0-1-16c.968-2.107 1.302-4.441 1-7 .321-5.526-.012-10.86-1-16 1.302-5.433 1.302-10.766 0-16a69.302 69.302 0 0 0 1-16c-2.779-.221-5.446.112-8 1-3.125-.979-6.458-1.313-10-1-2.865.445-5.365-.222-7.5-2a333.527 333.527 0 0 1 .5-44.5 645.032 645.032 0 0 1 71-1 6.978 6.978 0 0 1 3.5 2.5c.498 3.317.665 6.65.5 10v27h29c-9.486.994-19.152 1.327-29 1-.166 5.344.001 10.677.5 16 3.057 1.638 3.057 2.971 0 4a128.507 128.507 0 0 0-.5 16v26h5c-1.419.951-3.085 1.284-5 1v74c7.538-3.109 14.538-7.275 21-12.5 4.836-1.337 9.003-3.837 12.5-7.5.5-14.663.667-29.33.5-44v-79c-.167-10.672 0-21.339.5-32l2.5-2.5c8.994-.5 17.994-.666 27-.5a52.12 52.12 0 0 0 18-2c1.226.02 2.226.353 3 1Z"/><path style="opacity:1" fill="#ada36d" d="M414.5 488.5h-60v31c-.994-10.487-1.328-21.154-1-32a931.31 931.31 0 0 1 61 1Z"/><path style="opacity:1" fill="#575c4b" d="M464.5 487.5v217h119v-217c.999 72.498 1.333 145.165 1 218h-121c-.333-72.835.001-145.502 1-218Z"/><path style="opacity:1" fill="#ead685" d="M414.5 488.5c-.167 60.334 0 120.668.5 181 .66 1.824 1.827 3.157 3.5 4 7.148.992 14.481 1.325 22 1v31h-87v-32c8.007.166 16.007 0 24-.5l1.5-1.5c.667-50 .667-100 0-150l-1.5-1.5c-7.659-.5-15.326-.666-23-.5v-31h60ZM464.5 487.5h119v217h-119v-217Z"/><path style="opacity:1" fill="#ab8123" d="M186.5 481.5c4.997 7.325 9.997 14.658 15 22v14c-.961 1.765-1.295 3.765-1 6h-14v-42Z"/><path style="opacity:1" fill="#1e252b" d="M456.5 514.5v21a72.367 72.367 0 0 0-12 .5c3.512 3.736 3.845 7.736 1 12a136.254 136.254 0 0 1-23 8.5c-.166-5.344.001-10.677.5-16 3.057-1.029 3.057-2.362 0-4a128.507 128.507 0 0 1-.5-16c9.848.327 19.514-.006 29-1 1.333-2 3-3.667 5-5Z"/><path style="opacity:1" fill="#fdfdfd" d="M214.5 517.5a150.377 150.377 0 0 0 27 26 53.805 53.805 0 0 1 1 14h-29a400.456 400.456 0 0 1 1-40Z"/><path style="opacity:1" fill="#283338" d="M501.5 519.5c15.004-.167 30.004 0 45 .5l1.5 1.5c.83 50.237.664 100.404-.5 150.5a552.224 552.224 0 0 1-47 0 11.333 11.333 0 0 1-1.5-3.5 5326.587 5326.587 0 0 1 0-146 10.515 10.515 0 0 0 2.5-3Z"/><path style="opacity:1" fill="#ead685" d="M324.5 565.5v32a380.934 380.934 0 0 0-39 1c-.958.453-1.792 1.119-2.5 2a840.27 840.27 0 0 0-.5 41h-32a840.27 840.27 0 0 0-.5-41 6.978 6.978 0 0 0-3.5-2.5 799.793 799.793 0 0 0-40-.5v-32c14.004.167 28.004 0 42-.5l1.5-1.5c.5-13.663.667-27.329.5-41h32a840.27 840.27 0 0 0 .5 41l1.5 1.5c13.329.5 26.663.667 40 .5Z"/><path style="opacity:1" fill="#684948" d="M315.5 557.5c-1.915.284-3.581-.049-5-1a1142.176 1142.176 0 0 0 21.5-33c.667 1.667.667 3.333 0 5a732.567 732.567 0 0 0-16.5 29Z"/><path style="opacity:1" fill="#efb703" d="M354.5 527.5c3.542-.313 6.875.021 10 1a723.891 723.891 0 0 0-32 32v-1a417.59 417.59 0 0 0 13.5-24 32.426 32.426 0 0 0 8.5-8Z"/><path style="opacity:1" fill="#20262b" d="M371.5 543.5a761.422 761.422 0 0 1-23 23.5 933.165 933.165 0 0 1 23-7.5c.988 5.14 1.321 10.474 1 16a153.835 153.835 0 0 0-13 5 29.374 29.374 0 0 0 12 2 69.302 69.302 0 0 1 1 16h-1a190.81 190.81 0 0 1-38-7 249.277 249.277 0 0 1-1-31 723.891 723.891 0 0 1 32-32c2.554-.888 5.221-1.221 8-1a69.302 69.302 0 0 1-1 16Z"/><path style="opacity:1" fill="#b2881e" d="M521.5 527.5a133.155 133.155 0 0 1-1 23c-4.694 2.679-9.361 5.345-14 8v-31h15Z"/><path style="opacity:1" fill="#1e252b" d="M521.5 527.5h15a36.875 36.875 0 0 0 1 12c.607-.124.94-.457 1-1l2-1c1.307 6.234 1.307 12.568 0 19-.667 0-1 .333-1 1a75.152 75.152 0 0 0-12 8 59.043 59.043 0 0 0-9 5l-12 5v-17c4.639-2.655 9.306-5.321 14-8a133.155 133.155 0 0 0 1-23Z"/><path style="opacity:1" fill="#886f17" d="M536.5 527.5h1c-.315 3.871.018 7.538 1 11-.06.543-.393.876-1 1a36.875 36.875 0 0 1-1-12Z"/><path style="opacity:1" fill="#e1ae0c" d="M537.5 527.5h4c.247 3.439-.086 6.772-1 10l-2 1c-.982-3.462-1.315-7.129-1-11Z"/><path style="opacity:1" fill="#a47a28" d="M201.5 517.5a840.27 840.27 0 0 1-.5 41 3.647 3.647 0 0 1-1.5 1 31.116 31.116 0 0 0-1 11h-12v-47h14c-.295-2.235.039-4.235 1-6Z"/><path style="opacity:1" fill="#a77d26" d="M607.5 489.5a112.97 112.97 0 0 0 .5 15c.414.457.914.791 1.5 1a484.862 484.862 0 0 1 1 44h-14c.322-5.858-.011-11.525-1-17v-26a79.757 79.757 0 0 1 12-17Z"/><path style="opacity:1" fill="#b4891d" d="M456.5 535.5v42a221.034 221.034 0 0 1-29 5h-5v-26a136.254 136.254 0 0 0 23-8.5c2.845-4.264 2.512-8.264-1-12a72.367 72.367 0 0 1 12-.5Z"/><path style="opacity:1" fill="#684948" d="M371.5 543.5c1.302 5.234 1.302 10.567 0 16a933.165 933.165 0 0 0-23 7.5 761.422 761.422 0 0 0 23-23.5Z"/><path style="opacity:1" fill="#909699" d="M539.5 557.5c0-.667.333-1 1-1a2971.316 2971.316 0 0 1 1 109c-11.845.328-23.512-.005-35-1h34c.332-35.837-.002-71.504-1-107Z"/><path style="opacity:1" fill="#fcfcfc" d="M539.5 557.5a2863.174 2863.174 0 0 1 1 107h-34v-42c7.456-2.78 14.289-6.78 20.5-12 .5-14.996.667-29.996.5-45a75.152 75.152 0 0 1 12-8Z"/><path style="opacity:1" fill="#9c742d" d="M595.5 532.5c.989 5.475 1.322 11.142 1 17h14v45h-14c.313-3.542-.021-6.875-1-10v-52Z"/><path style="opacity:1" fill="#585c4c" d="M324.5 565.5c.995 10.821 1.328 21.821 1 33h-40a380.934 380.934 0 0 1 39-1v-32Z"/><path style="opacity:1" fill="#956f2f" d="M518.5 570.5c.332 11.02-.001 22.02-1 33a38.358 38.358 0 0 0-10 5 273.104 273.104 0 0 1-1-33l12-5Z"/><path style="opacity:1" fill="#9e7b21" d="M372.5 575.5c.302 2.559-.032 4.893-1 7a29.374 29.374 0 0 1-12-2 153.835 153.835 0 0 1 13-5Z"/><path style="opacity:1" fill="#1f262b" d="M456.5 577.5v16c-.992-.172-1.658.162-2 1a1132.758 1132.758 0 0 1-27 4h-5v-15c1.915.284 3.581-.049 5-1a221.034 221.034 0 0 0 29-5Z"/><path style="opacity:1" fill="#956e31" d="M186.5 570.5h12c-.167 11.005 0 22.005.5 33l2 2c.499 4.989.666 9.989.5 15-.951 1.419-1.284 3.085-1 5h-14v-55Z"/><path style="opacity:1" fill="#926b32" d="M333.5 591.5a190.81 190.81 0 0 0 38 7v27h-53a69.313 69.313 0 0 1-19-11.5 73.86 73.86 0 0 1-9-3.5v-5c13.337.167 26.671 0 40-.5l1.5-1.5c.176-4.188.676-8.188 1.5-12Z"/><path style="opacity:1" fill="#936c32" d="M454.5 594.5c.994 10.153 1.328 20.486 1 31h-32v-26c1.599.268 2.932-.066 4-1a1132.758 1132.758 0 0 0 27-4ZM595.5 584.5c.979 3.125 1.313 6.458 1 10h14v31h-14c.317-4.202-.017-8.202-1-12v-29Z"/><path style="opacity:1" fill="#fbfcfc" d="m454.5 653.5 2 55c.416 2.252 1.749 3.752 4 4.5-4.17 3.282-8.837 5.615-14 7l-4 4c-6.858 2.879-13.191 6.546-19 11-8.243 3.203-15.91 7.536-23 13-1.333.667-2.667.667-4 0a95.947 95.947 0 0 0-15-8c-3.603-3.655-7.936-5.988-13-7-3.342-4.33-7.675-6.997-13-8-5.883-4.573-12.217-8.24-19-11-5.201-4.797-11.201-8.13-18-10-5.256-4.931-11.256-8.598-18-11l-4-4c-6.4-2.062-12.067-5.396-17-10l-10-4-4-4a77.598 77.598 0 0 1-23-13 90.42 90.42 0 0 1-14-6 45.999 45.999 0 0 0-13-8l-1.5-1.5a684.346 684.346 0 0 1-.5-37h29a840.27 840.27 0 0 0 .5 41l1.5 1.5c14.667.667 29.333.667 44 0l1.5-1.5 1-24a42.319 42.319 0 0 1 8.5 6.5 420.445 420.445 0 0 0 32 17c2.365 3.714 5.698 5.714 10 6a387.056 387.056 0 0 0 23 13l-16 1-1.5 1.5a484.008 484.008 0 0 0 0 44l1.5 1.5c32.667.667 65.333.667 98 0a6.978 6.978 0 0 0 2.5-3.5 420.29 420.29 0 0 0 0-41 6.978 6.978 0 0 0-3.5-2.5l-12-1c6.744-2.402 12.744-6.069 18-11a4.934 4.934 0 0 1 3-.5Z"/><path style="opacity:1" fill="#8c6637" d="M595.5 613.5c.983 3.798 1.317 7.798 1 12h14v27h-18v-4c-.372-2.522.461-4.522 2.5-6 .5-9.661.666-19.328.5-29ZM201.5 620.5c-.166 9.339 0 18.673.5 28 1.859 1.079 3.359 2.412 4.5 4h-20v-27h14c-.284-1.915.049-3.581 1-5Z"/><path style="opacity:1" fill="#896436" d="M371.5 598.5h1v57a63.089 63.089 0 0 1-10-3.5 523.182 523.182 0 0 1-22-15 90.42 90.42 0 0 1-14-6 56.925 56.925 0 0 0-8-5.5h53v-27Z"/><path style="opacity:1" fill="#896536" d="M454.5 594.5c.342-.838 1.008-1.172 2-1 .167 14.67 0 29.337-.5 44-3.497 3.663-7.664 6.163-12.5 7.5-6.462 5.225-13.462 9.391-21 12.5v-59h5c-1.068.934-2.401 1.268-4 1v26h32c.328-10.514-.006-20.847-1-31Z"/><path style="opacity:1" fill="#845f3c" d="M186.5 652.5h20a192.372 192.372 0 0 0 14 6.5c3.83 4.163 8.497 6.829 14 8a666.983 666.983 0 0 0 28 17.5c-22.16.997-44.494 1.331-67 1-.283-.789-.783-1.456-1.5-2-1.049 1.017-2.216 1.184-3.5.5l1-1a15.645 15.645 0 0 1-4-2.5 196.869 196.869 0 0 1-1-28Z"/><path style="opacity:1" fill="#84603b" d="M592.5 648.5v4h18a121.862 121.862 0 0 1-1 22c-1.671 2.01-2.338 4.343-2 7-3.064 1.19-5.731 2.857-8 5h-3v3h-4a210.677 210.677 0 0 1 0-41Z"/><path style="opacity:1" fill="#c6c8c9" d="M454.5 653.5c.06-.543.393-.876 1-1 1 18.655 1.333 37.321 1 56l-2-55Z"/><path style="opacity:1" fill="#bbaf73" d="M418.5 673.5h23c.328 10.846-.006 21.513-1 32v-31c-7.519.325-14.852-.008-22-1Z"/><path style="opacity:1" fill="#805c3e" d="M599.5 686.5c1.333.667 1.333.667 0 0Z"/><path style="opacity:1" fill="#7c5840" d="M262.5 684.5a183.317 183.317 0 0 1 31 18.5c8.337 3.164 16.003 7.331 23 12.5-22.16.997-44.494 1.331-67 1-1.765-.961-3.765-1.295-6-1v-3c-2.092-.061-3.592-1.061-4.5-3-1.299.466-2.799.466-4.5 0v-3c-1.788.285-3.455-.048-5-1-2.158-3.144-5.158-4.477-9-4v-3a12.93 12.93 0 0 1-5-.5c-2.625-3.031-6.125-5.864-10.5-8.5l-1 1c-2.688-2.654-5.522-4.32-8.5-5 22.506.331 44.84-.003 67-1Z"/><path style="opacity:1" fill="#795543" d="M316.5 715.5c4.443 1.725 8.443 4.225 12 7.5a63.21 63.21 0 0 0 10 4c1.648 3.374 4.314 5.208 8 5.5a1089.684 1089.684 0 0 1-66 1c-1.765-.961-3.765-1.295-6-1v-3h-5v-3a8.43 8.43 0 0 1-4-.5 555.812 555.812 0 0 1-16-9.5c22.506.331 44.84-.003 67-1Z"/><path style="opacity:1" fill="#785543" d="M551.5 713.5a22.296 22.296 0 0 1-5 3.5l1 1a118.288 118.288 0 0 0-17 7.5 10.756 10.756 0 0 0-2.5 3l-1-1c-1.049 1.607-2.549 2.273-4.5 2v3c-2.235-.295-4.235.039-6 1-21.84.331-43.506-.003-65-1 .453-.958 1.119-1.792 2-2.5a468.081 468.081 0 0 0 31-17 750.264 750.264 0 0 1 67 .5Z"/><path style="opacity:1" fill="#755245" d="M346.5 732.5a750.361 750.361 0 0 1 28 15.5 31.447 31.447 0 0 0 5 4.5c-21.494.997-43.16 1.331-65 1a10480.68 10480.68 0 0 0-11-4v-3a14486.41 14486.41 0 0 0-19-8.5l1-1c-2.26-.549-3.926-1.716-5-3.5 22.173.331 44.173-.003 66-1ZM451.5 732.5c21.494.997 43.16 1.331 65 1-1.052 1.756-2.719 2.423-5 2v3c-2.524-.071-4.524.929-6 3-2.12-1.372-3.12-.705-3 2a12.93 12.93 0 0 0-5 .5c-4.614 3.912-9.614 7.078-15 9.5-22.173.331-44.173-.003-66-1a55.028 55.028 0 0 1 16-8.5c2.508-3.042 5.508-5.376 9-7a62.631 62.631 0 0 0 10-4.5Z"/><path style="opacity:1" fill="#714f48" d="M379.5 752.5c5.584 3.212 11.584 5.546 18 7 7.096-.675 13.429-3.008 19-7 21.827.997 43.827 1.331 66 1a49.86 49.86 0 0 1-6 4c-2.216.703-4.049 2.036-5.5 4-1.813-1.109-2.646-.442-2.5 2a12.93 12.93 0 0 0-5 .5c-1.497 1.871-3.497 2.871-6 3-1.307 2.324-3.307 3.657-6 4l2 1a12.93 12.93 0 0 1-5 .5v3a9.86 9.86 0 0 0-6 1 35.217 35.217 0 0 1-8 4v3h-6v3h-6v3a8.43 8.43 0 0 0-4 .5l-5 5c-1.284.684-2.451.517-3.5-.5-1.263 2.968-3.263 3.968-6 3a2.428 2.428 0 0 0-.5 2h-12c-.507-1.359-1.507-2.359-3-3a137.913 137.913 0 0 0-11-4v-3c-2.133-1.386-5.133-2.386-9-3v-3h-5v-3c-3.005.247-5.505-.753-7.5-3l-1 1a4.934 4.934 0 0 1-.5-3h-6v-3h-5v-3h-6v-3c-5.922-1.727-11.089-4.727-15.5-9-.718.951-1.551 1.117-2.5.5 1.333-.667 1.333-1.333 0-2-2.244-.05-3.911-.883-5-2.5 21.84.331 43.506-.003 65-1Z"/><path style="opacity:1" fill="#725146" d="M476.5 757.5c1.333.667 1.333.667 0 0Z"/></svg>