<?xml version="1.0" encoding="UTF-8"?><svg xmlns="http://www.w3.org/2000/svg" width="800" height="800" style="shape-rendering:geometricPrecision;text-rendering:geometricPrecision;image-rendering:optimizeQuality;fill-rule:evenodd;clip-rule:evenodd"><path style="opacity:1" fill="#17fce8" d="M576.5-.5h9a2.429 2.429 0 0 0 .5 2c1.049-1.017 2.216-1.184 3.5-.5a20.495 20.495 0 0 0 2.5 3.5c1.356-.88 2.856-1.214 4.5-1v3c2.822 1.432 6.489 2.432 11 3v3c2.092.061 3.592 1.061 4.5 3 2.537-.677 4.537.323 6 3 2.361-.566 4.194.434 5.5 3l2-1c.35 2.067 2.017 3.067 5 3v3h6v3h5v3h6v3c3.045 1.344 6.045 2.677 9 4h-54c-5.016-.743-9.016-3.243-12-7.5l-5-1c-7.082-6.364-15.416-9.031-25-8a3136.616 3136.616 0 0 1-62 35.5v-12c.904-.709 1.237-1.709 1-3 1.808.009 3.475-.491 5-1.5-1.388-.89-1.222-1.39.5-1.5 2.071 1.167 3.571.5 4.5-2 6.434-2.343 12.767-5.343 19-9v-3a59.031 59.031 0 0 1 11-3 4.934 4.934 0 0 1 .5-3l1 1c1.995-2.247 4.495-3.247 7.5-3v-3h5v-3h6v-3c1.808.009 3.475-.491 5-1.5l-1-1a12.936 12.936 0 0 1 5-.5v-3c3.552.188 6.219-1.145 8-4ZM286.5 37.5a51.532 51.532 0 0 0-8 9 1643.461 1643.461 0 0 0-41.5-23 138.219 138.219 0 0 1-14.5 1.5 750.35 750.35 0 0 0-28 14.5h-54c3.603-1.178 6.769-3.178 9.5-6l1 1c1.049-1.607 2.549-2.273 4.5-2v-3h5v-3h6v-3c4.612-1.195 9.279-2.862 14-5v-3c1.701-.466 3.201-.466 4.5 0 .908-1.939 2.408-2.939 4.5-3v-3h6v-3c1.788.285 3.455-.048 5-1a38.767 38.767 0 0 0 7-4.5 49.25 49.25 0 0 1 14 0c2.025 1.677 4.359 2.677 7 3-1.134 1.016-.801 1.683 1 2l5 1-1 1c2.622 3.073 5.955 4.573 10 4.5v3h6v3c3.191.262 5.858 1.596 8 4a9.864 9.864 0 0 0 6 1v3c3.58 1.22 7.247 2.386 11 3.5l-2 1c2.767.678 4.934 2.178 6.5 4.5l1-1a22.37 22.37 0 0 0 6.5 3Z"/><path style="opacity:1" fill="#263339" d="M602.5 39.5c1.216 1.95 2.882 3.45 5 4.5l19 9c4.933 4.604 10.6 7.938 17 10l6 5a295.735 295.735 0 0 0 18 9.5 2491.987 2491.987 0 0 0 66 37.5 240.159 240.159 0 0 0 15 10c2.71 1.747 5.71 2.747 9 3 2.04 2.185 3.374 4.685 4 7.5v221c.322 2.222-.345 4.056-2 5.5a113.606 113.606 0 0 0-28 15 377.475 377.475 0 0 1-23 12c-4.308 4.366-9.308 7.533-15 9.5a2126.003 2126.003 0 0 1-64 37 2140.76 2140.76 0 0 0-66 37v-13a668.206 668.206 0 0 0 47-27.5 71.52 71.52 0 0 0 18-10 161.582 161.582 0 0 1 13-6 3660.5 3660.5 0 0 1 91-54 84.545 84.545 0 0 1 18-8.5 7901.316 7901.316 0 0 0-1.5-216 2129.254 2129.254 0 0 1-37.5-21.5c-3.415-.406-6.082-2.072-8-5a91.311 91.311 0 0 1-23-13 457.332 457.332 0 0 0-22-11c-2.508-3.042-5.508-5.376-9-7a457.332 457.332 0 0 1-22-11l-24-15c-3.415-.406-6.082-2.072-8-5a90.401 90.401 0 0 0-14-6c-5.722-6.435-12.722-8.768-21-7-7.36 5.663-15.36 9.996-24 13-3.619 3.977-7.952 6.644-13 8-2.537 2.546-5.537 4.212-9 5l-4 4a113.988 113.988 0 0 1-12 5.5v-13a3136.616 3136.616 0 0 0 62-35.5c9.584-1.031 17.918 1.636 25 8l5 1c2.984 4.257 6.984 6.757 12 7.5Z"/><path style="opacity:1" fill="#27343a" d="M278.5 46.5a57.717 57.717 0 0 1-10 8 422.615 422.615 0 0 0-38.5-20A112.066 112.066 0 0 0 206.5 48a190.467 190.467 0 0 0-22 11c-3.492 1.624-6.492 3.958-9 7l-10 4-4 4a520.666 520.666 0 0 0-59 34l-9 3c-3.796 3.592-8.13 6.259-13 8A361.546 361.546 0 0 1 48 137.5c-.667 72-.667 144 0 216a7214.146 7214.146 0 0 0 125 72c.5-21.664.667-43.331.5-65a340.197 340.197 0 0 0-18-8.5 55.63 55.63 0 0 0-18-10 78.488 78.488 0 0 0-23-13 56.965 56.965 0 0 0-10.5-7.5 5697.651 5697.651 0 0 1 0-151 6.978 6.978 0 0 1 2.5-3.5 146.497 146.497 0 0 0 31-18c8.372-3.019 16.038-7.352 23-13 5.093-1.382 9.426-4.049 13-8a90.42 90.42 0 0 0 14-6c1.918-2.928 4.585-4.594 8-5a166.261 166.261 0 0 1 19-12 51.303 51.303 0 0 1 14-5.5v11a1009.24 1009.24 0 0 1-49 29 665.606 665.606 0 0 0-30 16.5c-5.201 4.797-11.201 8.13-18 10-5.677 4.879-11.677 9.045-18 12.5-.995 10.821-1.328 21.821-1 33v103c5.301 1.324 9.968 3.824 14 7.5l10 4c1.918 2.928 4.585 4.594 8 5 2.674 3.012 6.007 4.678 10 5a102.978 102.978 0 0 0 23 13.5c2.639 1.809 4.806 4.142 6.5 7 .5 11.662.667 23.329.5 35 .659 14.869-.174 29.536-2.5 44-1.509 2.381-3.675 3.381-6.5 3a30.552 30.552 0 0 1-9-3 676.568 676.568 0 0 1-48-28.5 230.038 230.038 0 0 0-17-8.5 439.9 439.9 0 0 1-23-14.5 130.15 130.15 0 0 1-23-13c-3.96.349-6.626-1.317-8-5l-8-4c-2.196-3.801-3.196-7.967-3-12.5v-209c-.196-4.533.804-8.699 3-12.5 3.29-.253 6.29-1.253 9-3a133.395 133.395 0 0 1 32-18c3.83-4.163 8.497-6.829 14-8 9.313-5.97 18.646-11.97 28-18 2.622-1.475 5.288-2.641 8-3.5a1267.66 1267.66 0 0 1 55-32.5c3.656-.825 6.656-2.658 9-5.5a750.35 750.35 0 0 1 28-14.5c4.872-.246 9.705-.746 14.5-1.5a1643.461 1643.461 0 0 1 41.5 23Z"/><path style="opacity:.997" fill="#010202" d="M498.5 46.5v218a3278.308 3278.308 0 0 0 0 161h13a529.493 529.493 0 0 0 46 1c1.894.548 3.56 1.548 5 3a225.771 225.771 0 0 1 1 30v23h-13a441.579 441.579 0 0 0-1-42c-20.669.167-41.336 0-62-.5a30.233 30.233 0 0 1-3-3.5c.167-132 0-264-.5-396a4075.27 4075.27 0 0 0-180.5 0l-60 61a784.68 784.68 0 0 0-1 56h61c1.804.881 3.304 2.214 4.5 4 .667 91.667.667 183.333 0 275a25.14 25.14 0 0 1-4.5 4h-61v52h89v13a654.036 654.036 0 0 0-31 1h-31a640.343 640.343 0 0 0-36-1.5c-.744-1.039-1.744-1.539-3-1.5-.722-.418-1.222-1.084-1.5-2a1259.87 1259.87 0 0 1 0-71l3.5-3.5c12.329-.5 24.662-.667 37-.5h25v-255h-61c-2.004-1.173-3.504-2.84-4.5-5-.5-8.66-.666-17.327-.5-26v-41c-.354-2.92.646-5.254 3-7a1873.906 1873.906 0 0 1 36.5-36 2.429 2.429 0 0 0 .5-2 57.717 57.717 0 0 0 10-8 51.532 51.532 0 0 1 8-9 177.724 177.724 0 0 1 11-11.5 9702.015 9702.015 0 0 1 197 0 11.532 11.532 0 0 1 3.5 4.5c.499 5.323.666 10.656.5 16Z"/><path style="opacity:1" fill="#fdfdfd" d="M268.5 54.5a2.429 2.429 0 0 1-.5 2 1873.906 1873.906 0 0 0-36.5 36c-2.354 1.746-3.354 4.08-3 7a51.303 51.303 0 0 0-14 5.5 166.261 166.261 0 0 0-19 12c-3.415.406-6.082 2.072-8 5a90.42 90.42 0 0 1-14 6c-3.574 3.951-7.907 6.618-13 8-6.962 5.648-14.628 9.981-23 13a146.497 146.497 0 0 1-31 18 6.978 6.978 0 0 0-2.5 3.5 5697.651 5697.651 0 0 0 0 151 56.965 56.965 0 0 1 10.5 7.5 78.488 78.488 0 0 1 23 13 55.63 55.63 0 0 1 18 10 340.197 340.197 0 0 1 18 8.5c.167 21.669 0 43.336-.5 65a7214.146 7214.146 0 0 1-125-72c-.667-72-.667-144 0-216A361.546 361.546 0 0 0 80.5 119c4.87-1.741 9.204-4.408 13-8l9-3a520.666 520.666 0 0 1 59-34l4-4 10-4c2.508-3.042 5.508-5.376 9-7a190.467 190.467 0 0 1 22-11A112.066 112.066 0 0 1 230 34.5a422.615 422.615 0 0 1 38.5 20Z"/><path style="opacity:1" fill="#fdfefe" d="M563.5 459.5a225.771 225.771 0 0 0-1-30c-1.44-1.452-3.106-2.452-5-3l-43-2a51.92 51.92 0 0 0 11-5.5l4-4a90.42 90.42 0 0 0 14-6c4.933-4.604 10.6-7.938 17-10a146.497 146.497 0 0 1 31-18 59.724 59.724 0 0 1 20-11c5.057-5.063 11.057-8.396 18-10 4.952-4.639 10.619-7.973 17-10 9.313-5.969 18.646-11.969 28-18 7.116-1.808 13.282-5.308 18.5-10.5 1.657-49.25 1.99-98.584 1-148a69.2 69.2 0 0 0-4.5-6.5 198.572 198.572 0 0 1-36-21 114.302 114.302 0 0 1-13-6 182.852 182.852 0 0 0-35-20c-3.671-4.417-8.338-7.083-14-8a171.322 171.322 0 0 0-19-12c-8.302-.757-15.635 1.576-22 7a68.695 68.695 0 0 0-14 7c-4.302.286-7.635 2.286-10 6a237.475 237.475 0 0 1-28 15.5v-64c4.102-1.6 8.102-3.433 12-5.5l4-4c3.463-.788 6.463-2.454 9-5 5.048-1.356 9.381-4.023 13-8 8.64-3.004 16.64-7.337 24-13 8.278-1.768 15.278.565 21 7a90.401 90.401 0 0 1 14 6c1.918 2.928 4.585 4.594 8 5l24 15a457.332 457.332 0 0 0 22 11c3.492 1.624 6.492 3.958 9 7a457.332 457.332 0 0 1 22 11 91.311 91.311 0 0 0 23 13c1.918 2.928 4.585 4.594 8 5a2129.254 2129.254 0 0 0 37.5 21.5 7901.316 7901.316 0 0 1 1.5 216 84.545 84.545 0 0 0-18 8.5 3660.5 3660.5 0 0 0-91 54 161.582 161.582 0 0 0-13 6 71.52 71.52 0 0 1-18 10 668.206 668.206 0 0 1-47 27.5Z"/><path style="opacity:1" fill="#1af9e8" d="M140.5 39.5h54c-2.344 2.842-5.344 4.675-9 5.5a1267.66 1267.66 0 0 0-55 32.5h-55c.969-.81 1.802-1.81 2.5-3 1.011.837 2.178 1.17 3.5 1v-3h5v-3c1.7.16 3.366-.007 5-.5 1.478-2.057 3.478-3.39 6-4l-2-1a18.436 18.436 0 0 1 6-.5v-3a87.51 87.51 0 0 0 14-5v-3h6v-3h5v-3c1.701-.466 3.201-.466 4.5 0 1.487-.753 1.654-1.586.5-2.5a85.937 85.937 0 0 0 9-4.5ZM602.5 39.5h54c-.131.876.202 1.543 1 2a6.846 6.846 0 0 1 4-1v3a8.435 8.435 0 0 1 4 .5c-1.154.914-.987 1.747.5 2.5 1.299-.466 2.799-.466 4.5 0v3h6v3h5v3a428.986 428.986 0 0 0 20 8.5l-2 1c2.522.61 4.522 1.943 6 4 1.634.493 3.301.66 5 .5v3c2.908-.238 5.242.762 7 3l2-1c-.412 1.282.254 2.282 2 3h-54a295.735 295.735 0 0 1-18-9.5l-6-5c-6.4-2.062-12.067-5.396-17-10l-19-9c-2.118-1.05-3.784-2.55-5-4.5Z"/><path style="opacity:1" fill="#16fce7" d="M303.5 40.5h92v16c-27.669-.167-55.335 0-83 .5-1.256.417-1.923 1.25-2 2.5a3356.919 3356.919 0 0 1-48.5 49c-.824 9.176-.657 18.176.5 27-.363 2.411.637 3.911 3 4.5 19.664.5 39.331.667 59 .5v317c-19.84-.33-39.507.003-59 1v1c-1 .333-1.667 1-2 2-.617.111-1.117.444-1.5 1-1.338 4.54-.171 8.207 3.5 11-1.238.31-1.238.81 0 1.5 43.332.5 86.665.667 130 .5v7c-20.336-.167-40.669 0-61 .5a9.454 9.454 0 0 0-2.5 1.5 24.935 24.935 0 0 0-.5 7h-88v-50a900.97 900.97 0 0 0 60-1 25.14 25.14 0 0 0 4.5-4c.667-91.667.667-183.333 0-275-1.196-1.786-2.696-3.119-4.5-4a900.97 900.97 0 0 0-60-1v-55l60-61Z"/><path style="opacity:1" fill="#2dceea" d="M396.5 40.5h86c-.167 131.334 0 262.667.5 394 .278.916.778 1.582 1.5 2a30.233 30.233 0 0 0 3 3.5c20.664.5 41.331.667 62 .5v42c-25.669-.167-51.335 0-77 .5-2.625 2.196-3.625 5.03-3 8.5h-5c.625-3.47-.375-6.304-3-8.5-21.664-.5-43.331-.667-65-.5v-9c43.335.167 86.668 0 130-.5 5.205-4.643 5.205-9.143 0-13.5a931.31 931.31 0 0 0-61-1 8284.568 8284.568 0 0 0-1-182c-2.388-2.576-5.388-3.576-9-3 .709-.904 1.709-1.237 3-1v-13c-1.291.237-2.291-.096-3-1 4.094.795 7.261-.538 9.5-4 .667-64 .667-128 0-192l-3.5-3.5c-21.664-.5-43.331-.667-65-.5v-18Z"/><path style="opacity:1" fill="#1e8a9b" d="M303.5 40.5a4075.27 4075.27 0 0 1 180.5 0c.5 132 .667 264 .5 396-.722-.418-1.222-1.084-1.5-2-.5-131.333-.667-262.666-.5-394h-179Z"/><path style="opacity:1" fill="#19f2ec" d="M395.5 40.5h1v18c-28.711-.317-57.377.016-86 1 .077-1.25.744-2.083 2-2.5 27.665-.5 55.331-.667 83-.5v-16Z"/><path style="opacity:1" fill="#050808" d="M396.5 58.5c21.669-.167 43.336 0 65 .5l3.5 3.5c.667 64 .667 128 0 192-2.239 3.462-5.406 4.795-9.5 4l-3-2a4233.57 4233.57 0 0 0-2-184c-44.503-.332-88.836.001-133 1-14 13.333-27.667 27-41 41-.979 3.125-1.313 6.458-1 10h60c2.235.728 4.068 2.061 5.5 4 .5 109.999.667 219.999.5 330a1513.378 1513.378 0 0 0 110 0c.674-61.206 1.341-122.539 2-184l2-1c3.612-.576 6.612.424 9 3v183h62c5.205 4.357 5.205 8.857 0 13.5-43.332.5-86.665.667-130 .5h-131c-3.671-2.793-4.838-6.46-3.5-11 .383-.556.883-.889 1.5-1a24572.57 24572.57 0 0 0 62-2c1.333-53.162 2-106.662 2-160.5 0-53.668-.333-107.168-1-160.5h-60l-4-3c-1.157-8.824-1.324-17.824-.5-27a3356.919 3356.919 0 0 0 48.5-49 1894.818 1894.818 0 0 1 86-1Z"/><path style="opacity:1" fill="#c4e8e5" d="M317.5 73.5a4422.808 4422.808 0 0 1 133-1v1c-6.854-.324-13.521.01-20 1v384h-1v-385h-112Z"/><path style="opacity:1" fill="#0e1918" d="M450.5 73.5v-1a4233.57 4233.57 0 0 1 2 184c-.904-.709-1.237-1.709-1-3a8103.378 8103.378 0 0 0-1-180Z"/><path style="opacity:1" fill="#fefefe" d="M317.5 73.5h112v385h-88c.167-110.001 0-220.001-.5-330-1.432-1.939-3.265-3.272-5.5-4a871.155 871.155 0 0 0-59-1v-9c13.333-14 27-27.667 41-41Z"/><path style="opacity:1" fill="#8bfef4" d="M430.5 74.5a88.658 88.658 0 0 1 18.5 1c-.164 59.675.67 119.008 2.5 178-.237 1.291.096 2.291 1 3l3 2c.709.904 1.709 1.237 3 1v13c-1.291-.237-2.291.096-3 1l-2 1c-1.604.787-2.271 2.12-2 4h-1a8013.534 8013.534 0 0 0-1 179h-19v-383Z"/><path style="opacity:1" fill="#7ad6d5" d="M430.5 74.5c6.479-.99 13.146-1.324 20-1a8103.378 8103.378 0 0 1 1 180 5273.093 5273.093 0 0 1-2.5-178 88.658 88.658 0 0 0-18.5-1Z"/><path style="opacity:1" fill="#1df6ea" d="M75.5 77.5h55c-2.712.859-5.378 2.025-8 3.5a12458.29 12458.29 0 0 1-28 18c-5.503 1.171-10.17 3.837-14 8a133.395 133.395 0 0 0-32 18c-2.71 1.747-5.71 2.747-9 3-2.196 3.801-3.196 7.967-3 12.5h-30c.086-8.65.086-17.15 0-25.5a169.104 169.104 0 0 0 15-5.5v-3a58.967 58.967 0 0 0 11-3v-3a417.79 417.79 0 0 0 15-7 32.686 32.686 0 0 0 8.5-6l1 1c1.049-1.607 2.549-2.273 4.5-2v-3a59.029 59.029 0 0 1 11-3 4.932 4.932 0 0 1 .5-3c.77 1.098 1.603 1.098 2.5 0ZM667.5 77.5h54c.897 1.098 1.73 1.098 2.5 0 .483.948.649 1.948.5 3h6v3h5v3c1.951-.273 3.451.393 4.5 2l1-1c6 4.386 12.5 7.886 19.5 10.5l-1 1c1.525 1.009 3.192 1.509 5 1.5v3h6v3h5v3c2.041.354 3.874.354 5.5 0 .483.948.649 1.948.5 3 2.836 1.276 5.836 1.942 9 2 1.812 8.511 2.479 17.178 2 26h-30c.284-1.915-.049-3.581-1-5-.626-2.815-1.96-5.315-4-7.5-3.29-.253-6.29-1.253-9-3a240.159 240.159 0 0 1-15-10 2491.987 2491.987 0 0 1-66-37.5Z"/><path style="opacity:1" fill="#263339" d="M514.5 424.5a5.727 5.727 0 0 1-3 1h-13a3278.308 3278.308 0 0 1 0-161v127c-.166 9.672 0 19.339.5 29a4393.88 4393.88 0 0 0 58.5-35c4.925-1.48 9.259-3.98 13-7.5a517.21 517.21 0 0 0 27-14c3.492-1.624 6.492-3.958 9-7a532.543 532.543 0 0 0 10-4 14.698 14.698 0 0 0 3-3.5 515.876 515.876 0 0 0 61-34.5 12.93 12.93 0 0 1 5-.5c.331-28.505-.002-56.838-1-85-1.1-1.105-1.767-2.438-2-4a600.937 600.937 0 0 0-1-49 1338.1 1338.1 0 0 1-59-34.5 31.774 31.774 0 0 0-7-2.5 31.447 31.447 0 0 1-5-4.5 683.868 683.868 0 0 1-43-24.5 322.269 322.269 0 0 0-36 20.5 82.978 82.978 0 0 0-15 8.5 123.16 123.16 0 0 1-18 8v-12a237.475 237.475 0 0 0 28-15.5c2.365-3.714 5.698-5.714 10-6a68.695 68.695 0 0 1 14-7c6.365-5.424 13.698-7.757 22-7a171.322 171.322 0 0 1 19 12c5.662.917 10.329 3.583 14 8a182.852 182.852 0 0 1 35 20 114.302 114.302 0 0 0 13 6 198.572 198.572 0 0 0 36 21 69.2 69.2 0 0 1 4.5 6.5c.99 49.416.657 98.75-1 148-5.218 5.192-11.384 8.692-18.5 10.5a12318.477 12318.477 0 0 1-28 18c-6.381 2.027-12.048 5.361-17 10-6.943 1.604-12.943 4.937-18 10a59.724 59.724 0 0 0-20 11 146.497 146.497 0 0 0-31 18c-6.4 2.062-12.067 5.396-17 10a90.42 90.42 0 0 1-14 6l-4 4a51.92 51.92 0 0 1-11 5.5Z"/><path style="opacity:1" fill="#20f2e9" d="M228.5 110.5v30a600.937 600.937 0 0 1-49-1 1009.24 1009.24 0 0 0 49-29ZM615.5 139.5c-33 1.333-66 1.333-99 0a82.978 82.978 0 0 1 15-8.5 322.269 322.269 0 0 1 36-20.5 683.868 683.868 0 0 0 43 24.5 31.447 31.447 0 0 0 5 4.5Z"/><path style="opacity:1" fill="#a2a3a3" d="M276.5 114.5v9c19.84-.33 39.507.003 59 1h-60c-.313-3.542.021-6.875 1-10Z"/><path style="opacity:1" fill="#23f0ec" d="M179.5 139.5a600.937 600.937 0 0 0 49 1c-.166 8.673 0 17.34.5 26 .996 2.16 2.496 3.827 4.5 5a900.97 900.97 0 0 0 60 1v4a3495.183 3495.183 0 0 0-16 9h-164v-7c6.323-3.455 12.323-7.621 18-12.5 6.799-1.87 12.799-5.203 18-10a665.606 665.606 0 0 1 30-16.5ZM516.5 139.5c33 1.333 66 1.333 99 0a31.774 31.774 0 0 1 7 2.5 1338.1 1338.1 0 0 0 59 34.5v9h-161a169.24 169.24 0 0 0-22-11v-27a123.16 123.16 0 0 0 18-8Z"/><path style="opacity:1" fill="#23f1ec" d="M6.5 140.5h30v45h-30v-45Z"/><path style="opacity:1" fill="#18fef6" d="m262.5 135.5 4 3c19.493.997 39.16 1.33 59 1v319h-60a871.155 871.155 0 0 1 59-1v-317c-19.669.167-39.336 0-59-.5-2.363-.589-3.363-2.089-3-4.5Z"/><path style="opacity:1" fill="#14dfd1" d="M266.5 138.5h60a25606.05 25606.05 0 0 1-1 320v-319c-19.84.33-39.507-.003-59-1Z"/><path style="opacity:1" fill="#23f1ec" d="M761.5 135.5c.951 1.419 1.284 3.085 1 5h30v45h-30a462.903 462.903 0 0 0-1-43v-7Z"/><path style="opacity:1" fill="#0faf9f" d="M243.5 101.5v55a900.97 900.97 0 0 1 60 1h-61a784.68 784.68 0 0 1 1-56Z"/><path style="opacity:1" fill="#1ec8c6" d="M233.5 171.5h61v5h-1v-4a900.97 900.97 0 0 1-60-1Z"/><path style="opacity:1" fill="#263339" d="M498.5 174.5a169.24 169.24 0 0 1 22 11c6.761 5.716 14.428 9.883 23 12.5 2.046 2.903 4.713 4.736 8 5.5 3.914 3.71 8.581 6.21 14 7.5l4 4c7.321 1.994 13.655 5.661 19 11 4.152.381 6.485 2.547 7 6.5v58c.167 17.003 0 34.003-.5 51-2.441 2.954-5.275 5.287-8.5 7-8.225 3.815-15.892 8.648-23 14.5a157.436 157.436 0 0 0-27 15 98.318 98.318 0 0 0-12 5.5c-2.412.094-4.245-.906-5.5-3a538.89 538.89 0 0 0-1.5-33 190.291 190.291 0 0 1-1-27 529.904 529.904 0 0 0-1-46c-4.482-3.813-9.482-6.48-15-8-.333-1-1-1.667-2-2v-14c1.689 1.431 3.689 2.264 6 2.5a116.512 116.512 0 0 1 13.5 10.5c1.049-1.017 2.216-1.184 3.5-.5 1.5 2.167 3.333 4 5.5 5.5l1 100a48.835 48.835 0 0 0 13.5-8.5c7.294-1.951 13.627-5.617 19-11a249.84 249.84 0 0 0 22.5-11.5c.833-34.005.667-68.005-.5-102a803.828 803.828 0 0 1-52-30.5c-4.758-1.884-9.092-4.551-13-8l-14-6a31.447 31.447 0 0 0-5-4.5v-12Z"/><path style="opacity:.999" fill="#27343a" d="M293.5 176.5h1v15a51.303 51.303 0 0 0-14 5.5l-4 4c-7.273 1.918-13.607 5.585-19 11a24.569 24.569 0 0 0-8 3 6204.11 6204.11 0 0 1-24 15 239.706 239.706 0 0 0-12 5.5v325h16a840.27 840.27 0 0 1 .5-41 395.817 395.817 0 0 1 39.5-1v-12h12v54c11.338-.167 22.672 0 34 .5a6.978 6.978 0 0 1 3.5 2.5c.499 4.655.666 9.321.5 14a147.951 147.951 0 0 1-1.5 29l-1.5 1.5-27 1a41.478 41.478 0 0 0 12 6.5 1972.979 1972.979 0 0 1 25 15.5 90.42 90.42 0 0 0 14 6 523.182 523.182 0 0 0 22 15 114.065 114.065 0 0 0 14 6 2877.86 2877.86 0 0 0 16 10c8.188 2.025 15.188.192 21-5.5a361.608 361.608 0 0 0 1-38h-58l-11-10a289.889 289.889 0 0 1-13.5-15 2434.836 2434.836 0 0 0-1.5-70 613.795 613.795 0 0 1-28-16.5c-1.729-1.789-2.396-3.956-2-6.5a654.036 654.036 0 0 1 31-1v-14c-.163-2.357.003-4.69.5-7a9.454 9.454 0 0 1 2.5-1.5c20.331-.5 40.664-.667 61-.5h1c21.669-.167 43.336 0 65 .5 2.625 2.196 3.625 5.03 3 8.5h5c-.625-3.47.375-6.304 3-8.5 25.665-.5 51.331-.667 77-.5v-42a441.579 441.579 0 0 1 1 42h13a276.797 276.797 0 0 1 40 1.5l1.5 1.5c.5 10.661.667 21.328.5 32v164c.167 10.672 0 21.339-.5 32l-1.5 1.5a536.183 536.183 0 0 1-56 1.5 772.829 772.829 0 0 0-68-.5 209.75 209.75 0 0 0-30 18c-6.4 2.062-12.067 5.396-17 10-6.761 1.869-12.761 5.202-18 10-4.268 2.533-8.934 4.199-14 5-4.182.611-8.182-.056-12-2a103.694 103.694 0 0 1-18-10.5c-9.029-6.157-18.696-11.323-29-15.5a13.92 13.92 0 0 1-3-4c-8.36-3.016-16.027-7.349-23-13a169.242 169.242 0 0 0-22-11l-6-5c-6.356-3.51-12.689-7.01-19-10.5-3.678-2.428-7.678-4.261-12-5.5a114.425 114.425 0 0 0-30-18 55.63 55.63 0 0 0-18-10 18.839 18.839 0 0 0-6.5-5.5 799.793 799.793 0 0 1-.5-40 61.281 61.281 0 0 1-15-1c-.722-.418-1.222-1.084-1.5-2-.667-14-.667-28 0-42 .278-.916.778-1.582 1.5-2a67.246 67.246 0 0 1 15-1v-324c-.357-4.164 1.31-7.331 5-9.5a293.39 293.39 0 0 0 39-23.5c3.333-1.141 6.333-2.974 9-5.5 6.872-1.189 12.539-4.523 17-10 2.474-.037 4.474-.87 6-2.5 5.35-3.028 10.684-6.028 16-9Z"/><path style="opacity:1" fill="#26eded" d="M113.5 178.5v7h164c-1.526 1.63-3.526 2.463-6 2.5-4.461 5.477-10.128 8.811-17 10-2.667 2.526-5.667 4.359-9 5.5h-132v8h-1c-.328-11.179.005-22.179 1-33ZM681.5 176.5a600.937 600.937 0 0 1 1 49c-.992-7.148-1.325-14.481-1-22h-130c-3.287-.764-5.954-2.597-8-5.5-8.572-2.617-16.239-6.784-23-12.5h161v-9Z"/><path style="opacity:1" fill="#fdfdfd" d="M498.5 186.5a31.447 31.447 0 0 1 5 4.5l14 6c3.908 3.449 8.242 6.116 13 8a803.828 803.828 0 0 0 52 30.5 1734.395 1734.395 0 0 1 .5 102 249.84 249.84 0 0 1-22.5 11.5c-5.373 5.383-11.706 9.049-19 11a48.835 48.835 0 0 1-13.5 8.5l-1-100c-2.167-1.5-4-3.333-5.5-5.5-1.284-.684-2.451-.517-3.5.5a116.512 116.512 0 0 0-13.5-10.5c-2.311-.236-4.311-1.069-6-2.5v-64ZM294.5 191.5v62a305.858 305.858 0 0 1-19 9.5c-1.5 2.167-3.333 4-5.5 5.5-.5 52.666-.667 105.332-.5 158-12.338-.167-24.671 0-37 .5l-3.5 3.5a1259.87 1259.87 0 0 0 0 71c.278.916.778 1.582 1.5 2 .453.958 1.119 1.792 2 2.5 12.329.5 24.662.667 37 .5v12a395.817 395.817 0 0 0-39.5 1 840.27 840.27 0 0 0-.5 41h-16v-325a239.706 239.706 0 0 1 12-5.5 6204.11 6204.11 0 0 0 24-15 24.569 24.569 0 0 1 8-3c5.393-5.415 11.727-9.082 19-11l4-4a51.303 51.303 0 0 1 14-5.5Z"/><path style="opacity:1" fill="#28ebee" d="M6.5 185.5h30v59h-30v-59Z"/><path style="opacity:1" fill="#29eaed" d="M245.5 203.5a293.39 293.39 0 0 1-39 23.5c-3.69 2.169-5.357 5.336-5 9.5-.973 2.448-1.306 5.115-1 8h-87v-41h132ZM551.5 203.5h130c-.325 7.519.008 14.852 1 22 .233 1.562.9 2.895 2 4v15h-88c.317-4.202-.017-8.202-1-12-.515-3.953-2.848-6.119-7-6.5-5.345-5.339-11.679-9.006-19-11l-4-4c-5.419-1.29-10.086-3.79-14-7.5Z"/><path style="opacity:1" fill="#28ebee" d="M762.5 185.5h30v59h-30v-59Z"/><path style="opacity:1" fill="#2ee4ef" d="M112.5 211.5h1v33h87c-.306-2.885.027-5.552 1-8v57c-.934 1.068-1.268 2.401-1 4h-87c.318-4.532-.015-8.866-1-13v-73ZM6.5 244.5h30v53h-30v-53ZM595.5 232.5c.983 3.798 1.317 7.798 1 12h88v53h-88c.302-2.559-.032-4.893-1-7v-58ZM762.5 244.5h30v53h-30v-53Z"/><path style="opacity:1" fill="#263237" d="M294.5 253.5v13c-1.333 0-2 .667-2 2-4.079.896-7.579 2.896-10.5 6a2311.03 2311.03 0 0 0-.5 68v84h-12c-.167-52.668 0-105.334.5-158 2.167-1.5 4-3.333 5.5-5.5a305.858 305.858 0 0 0 19-9.5Z"/><path style="opacity:1" fill="#2fe1ee" d="M500.5 266.5c5.518 1.52 10.518 4.187 15 8a529.904 529.904 0 0 1 1 46c-.992-7.482-1.325-15.148-1-23h-16c-.328-10.514.006-20.847 1-31Z"/><path style="opacity:1" fill="#92fefe" d="M450.5 278.5v180h-20v-1h19a8013.534 8013.534 0 0 1 1-179Z"/><path style="opacity:1" fill="#618d8a" d="M450.5 278.5h1v180a1513.378 1513.378 0 0 1-110 0h109v-180Z"/><path style="opacity:1" fill="#0e1918" d="M453.5 274.5c-.659 61.461-1.326 122.794-2 184v-180c-.271-1.88.396-3.213 2-4Z"/><path style="opacity:1" fill="#34ddf0" d="M112.5 284.5c.985 4.134 1.318 8.468 1 13h87c-.268-1.599.066-2.932 1-4v50c-.961 1.765-1.295 3.765-1 6h-23a102.978 102.978 0 0 1-23-13.5c-3.993-.322-7.326-1.988-10-5-3.415-.406-6.082-2.072-8-5l-10-4c-4.032-3.676-8.699-6.176-14-7.5v-30Z"/><path style="opacity:1" fill="#35ddf1" d="M6.5 297.5h30v52h-30v-52Z"/><path style="opacity:1" fill="#33def0" d="M292.5 268.5a1640.966 1640.966 0 0 1 1 81h-11c.302-2.559-.032-4.893-1-7-.167-22.669 0-45.336.5-68 2.921-3.104 6.421-5.104 10.5-6Z"/><path style="opacity:1" fill="#34dcf0" d="M498.5 264.5c1 .333 1.667 1 2 2-.994 10.153-1.328 20.486-1 31h16c-.325 7.852.008 15.518 1 23a190.291 190.291 0 0 0 1 27c-5.574 1.953-11.574 2.62-18 2 .327-9.848-.006-19.514-1-29v-56Z"/><path style="opacity:1" fill="#34dcef" d="M684.5 229.5a1807.264 1807.264 0 0 1 1 85 12.93 12.93 0 0 0-5 .5 515.876 515.876 0 0 1-61 34.5c-11.179.328-22.179-.005-33-1 3.225-1.713 6.059-4.046 8.5-7 .5-16.997.667-33.997.5-51 .968 2.107 1.302 4.441 1 7h88v-68Z"/><path style="opacity:1" fill="#34daed" d="M761.5 142.5a462.903 462.903 0 0 1 1 43v112h30v52h-30c.302 2.559-.032 4.893-1 7v-214Z"/><path style="opacity:1" fill="#3ad7f2" d="M281.5 342.5c.968 2.107 1.302 4.441 1 7h11v36h-12v-43Z"/><path style="opacity:1" fill="#3ad5f2" d="M201.5 343.5v42c-.986 4.47-1.319 9.137-1 14h-15c.306-2.885-.027-5.552-1-8 .167-11.671 0-23.338-.5-35-1.694-2.858-3.861-5.191-6.5-7h23c-.295-2.235.039-4.235 1-6Z"/><path style="opacity:1" fill="#217c8b" d="M294.5 266.5v160h-13v-1h12v-76c.331-27.172-.002-54.172-1-81 0-1.333.667-2 2-2Z"/><path style="opacity:1" fill="#3ad5f0" d="M498.5 320.5c.994 9.486 1.327 19.152 1 29 6.426.62 12.426-.047 18-2a538.89 538.89 0 0 1 1.5 33c1.255 2.094 3.088 3.094 5.5 3a98.318 98.318 0 0 1 12-5.5 157.436 157.436 0 0 1 27-15c7.108-5.852 14.775-10.685 23-14.5 10.821.995 21.821 1.328 33 1a14.698 14.698 0 0 1-3 3.5 532.543 532.543 0 0 1-10 4c-2.508 3.042-5.508 5.376-9 7a517.21 517.21 0 0 1-27 14c-3.741 3.52-8.075 6.02-13 7.5h-58c.295 2.235-.039 4.235-1 6v-71Z"/><path style="opacity:1" fill="#3bd5f1" d="M6.5 349.5h30c-.196 4.533.804 8.699 3 12.5l8 4c1.374 3.683 4.04 5.349 8 5a130.15 130.15 0 0 0 23 13 439.9 439.9 0 0 0 23 14.5c-10.487.994-21.154 1.328-32 1h-5v-3a544.412 544.412 0 0 1-29-14v-3a58.967 58.967 0 0 1-11-3v-3h-6v-3c-4.013-1.674-8.013-3.341-12-5v-16ZM792.5 349.5v16c-3.013-.128-5.513.872-7.5 3-2.411-1.653-3.578-.987-3.5 2-1.701.466-3.201.466-4.5 0-3.844 1.975-7.177 4.642-10 8l-1-1c-1.049 1.607-2.549 2.273-4.5 2v3c-3.937.204-7.604 1.204-11 3 .381 2.442-.286 3.109-2 2-.886.825-1.219 1.825-1 3h-6v3a12.93 12.93 0 0 0-5 .5c-1.079 2.043-2.746 3.376-5 4l1 1a12.93 12.93 0 0 1-5 .5c-11.512.328-22.846-.005-34-1 5.692-1.967 10.692-5.134 15-9.5a377.475 377.475 0 0 0 23-12 113.606 113.606 0 0 1 28-15c1.655-1.444 2.322-3.278 2-5.5.968-2.107 1.302-4.441 1-7h30Z"/><path style="opacity:1" fill="#3fd1f4" d="M281.5 385.5h12v40h-12v-40Z"/><path style="opacity:1" fill="#40cef2" d="M101.5 398.5a230.038 230.038 0 0 1 17 8.5 676.568 676.568 0 0 0 48 28.5c-11.154.995-22.488 1.328-34 1h-3v-3h-6v-3h-5v-3c-2.921.354-5.254-.646-7-3-1.714 1.109-2.381.442-2-2a58.97 58.97 0 0 1-11-3v-3a27.267 27.267 0 0 0-9-3v-3c-2.908.238-5.242-.762-7-3a3.647 3.647 0 0 0-1.5 1c-1.667-1-3-2.333-4-4l-1 1a4.932 4.932 0 0 1-.5-3h-6v-3c10.846.328 21.513-.006 32-1Z"/><path style="opacity:1" fill="#3dd0f1" d="M557.5 385.5a4393.88 4393.88 0 0 1-58.5 35c-.5-9.661-.666-19.328-.5-29 .961-1.765 1.295-3.765 1-6h58Z"/><path style="opacity:1" fill="#40cff2" d="M693.5 398.5c11.154.995 22.488 1.328 34 1v3a9.86 9.86 0 0 0-6 1c-3.423 1.192-6.256 3.192-8.5 6l-1-1c-1.049 1.607-2.549 2.273-4.5 2v3h-6v3h-5v3c-2.185.388-4.018 1.388-5.5 3-2.278-1.12-3.778-.287-4.5 2.5a101.955 101.955 0 0 0-13 5.5v3h-6v3h-6c-10.846.328-21.513-.006-32-1a2126.003 2126.003 0 0 0 64-37Z"/><path style="opacity:1" fill="#acadad" d="m514.5 424.5 43 2a529.493 529.493 0 0 1-46-1 5.727 5.727 0 0 0 3-1Z"/><path style="opacity:1" fill="#43ccf5" d="M201.5 385.5v80c-.986 4.47-1.319 9.137-1 14h-14a62.792 62.792 0 0 0-1-15.5l-28-16c-6.204-2.789-12.537-4.622-19-5.5v-3h-6v-3c11.512.328 22.846-.005 34-1a30.552 30.552 0 0 0 9 3c2.825.381 4.991-.619 6.5-3 2.326-14.464 3.159-29.131 2.5-44 .973 2.448 1.306 5.115 1 8h15c-.319-4.863.014-9.53 1-14Z"/><path style="opacity:1" fill="#10afa0" d="M303.5 440.5a900.97 900.97 0 0 1-60 1v50h88v1h-89v-52h61Z"/><path style="opacity:1" fill="#45c9f5" d="M629.5 435.5c10.487.994 21.154 1.328 32 1v3c-1.788-.285-3.455.048-5 1 1.129 2.029.629 2.363-1.5 1-1.712 3.452-4.212 4.452-7.5 3v3c-3.096-.593-5.429.407-7 3a47.25 47.25 0 0 1-7 3v3h-6v3c-1.788-.285-3.455.048-5 1a28.335 28.335 0 0 0-9.5 6l-1-1c-1.049 1.607-2.549 2.273-4.5 2-.167 12.338 0 24.671.5 37 .414.457.914.791 1.5 1a36.875 36.875 0 0 1 1 12h-5c.167-10.672 0-21.339-.5-32l-1.5-1.5a276.797 276.797 0 0 0-40-1.5v-10a2140.76 2140.76 0 0 1 66-37Z"/><path style="opacity:1" fill="#0b8478" d="M326.5 138.5c.667 53.332 1 106.832 1 160.5 0 53.838-.667 107.338-2 160.5h-60v-1h60a25606.05 25606.05 0 0 0 1-320Z"/><path style="opacity:1" fill="#176b7a" d="M464.5 276.5a8284.568 8284.568 0 0 1 1 182 931.31 931.31 0 0 1 61 1h-62v-183Z"/><path style="opacity:1" fill="#03211e" d="M265.5 459.5h60a24572.57 24572.57 0 0 1-62 2c.333-1 1-1.667 2-2Z"/><path style="opacity:1" fill="#18f2ec" d="M265.5 473.5h131v9h-1v-7c-43.335.167-86.668 0-130-.5-1.238-.69-1.238-1.19 0-1.5Z"/><path style="opacity:1" fill="#4bc4f7" d="M201.5 465.5v41c-.982 3.462-1.315 7.129-1 11h-14v-38h14c-.319-4.863.014-9.53 1-14Z"/><path style="opacity:1" fill="#b8c5cd" d="M596.5 707.5v-216h-118v216a11770.92 11770.92 0 0 1-1-217h120a11770.92 11770.92 0 0 1-1 217Z"/><path style="opacity:1" fill="#e7f3fd" d="M456.5 605.5v102h-117v-31c26.505.331 52.839-.002 79-1 .996.086 1.829-.248 2.5-1 .825-18.907.659-37.74-.5-56.5a1924.62 1924.62 0 0 1-62-1.5 495.839 495.839 0 0 0-18.5-19c-.5-35.665-.667-71.332-.5-107h117v32c-26.669-.167-53.335 0-80 .5l-1.5 1.5a594.564 594.564 0 0 0 .5 59.5 992.195 992.195 0 0 0 62 2 522.556 522.556 0 0 1 19 19.5Z"/><path style="opacity:1" fill="#e8f4fe" d="M596.5 707.5h-118v-216h118v216Z"/><path style="opacity:1" d="M464.5 492.5h5v13h-5v-13Z"/><path style="opacity:1" fill="#363636" d="M230.5 503.5c1.256-.039 2.256.461 3 1.5 12.174.169 24.174.669 36 1.5-12.338.167-24.671 0-37-.5-.881-.708-1.547-1.542-2-2.5Z"/><path style="opacity:1" fill="#4fbff8" d="M201.5 506.5v54a67.246 67.246 0 0 0-15 1v-44h14c-.315-3.871.018-7.538 1-11Z"/><path style="opacity:1" fill="#4fbef8" d="M281.5 506.5h19c-.396 2.544.271 4.711 2 6.5a613.795 613.795 0 0 0 28 16.5v48h-11a98.432 98.432 0 0 0-.5-14 6.978 6.978 0 0 0-3.5-2.5 577.896 577.896 0 0 0-34-.5v-54Z"/><path style="opacity:1" fill="#f1f2f2" d="M315.5 507.5c5.14-.988 10.474-1.321 16-1a50.464 50.464 0 0 1-.5 10 161.967 161.967 0 0 1-15.5-9Z"/><path style="opacity:1" fill="#f9fafa" d="M464.5 506.5h5c1.128 4.919-.372 8.585-4.5 11a60.931 60.931 0 0 1-.5-11Z"/><path style="opacity:1" fill="#273339" d="M514.5 522.5c15.337-.167 30.67 0 46 .5l1.5 1.5c.667 49.667.667 99.333 0 149l-1.5 1.5a528.986 528.986 0 0 1-46 0l-1.5-1.5a5547.726 5547.726 0 0 1 0-149c.717-.544 1.217-1.211 1.5-2Z"/><path style="opacity:1" fill="#7a868e" d="M269.5 565.5a380.934 380.934 0 0 1-1-39h-31a361.608 361.608 0 0 1-1 38v-39h33v40Z"/><path style="opacity:1" fill="#e8f4fe" d="M269.5 565.5c.356 1.69 1.356 2.69 3 3a361.608 361.608 0 0 0 38 1v31c-13.004-.167-26.004 0-39 .5-.881.708-1.547 1.542-2 2.5a400.456 400.456 0 0 0-1 40h-31a380.934 380.934 0 0 0-1-39c-.074-1.911-1.074-3.078-3-3.5a799.793 799.793 0 0 0-40-.5v-31c13.51.329 26.844-.004 40-1 1.762-.762 2.762-2.096 3-4a361.608 361.608 0 0 0 1-38h31a380.934 380.934 0 0 0 1 39Z"/><path style="opacity:1" fill="#fafafa" d="M381.5 530.5c19.669-.167 39.336 0 59 .5a1537.464 1537.464 0 0 1-41.5 24.5 64.81 64.81 0 0 1-17-10 112.97 112.97 0 0 1-.5-15Z"/><path style="opacity:1" fill="#fdfdfd" d="M530.5 530.5h24c.167 42.668 0 85.335-.5 128a112.798 112.798 0 0 0-14.5 9.5c-6.325.5-12.658.666-19 .5-.333-18.012 0-36.012 1-54a51.064 51.064 0 0 0 5.5-4l1-50 2-2c.5-9.327.666-18.661.5-28Z"/><path style="opacity:1" fill="#52baf8" d="M438.5 577.5a784.68 784.68 0 0 0-56-1c-.321-5.526.012-10.86 1-16 6.816 4.779 14.483 6.279 23 4.5 7.959-6.307 16.625-11.307 26-15a157.236 157.236 0 0 1 14-10l19-9 3.5-3.5c.833 34.671.667 69.338-.5 104a14.972 14.972 0 0 0-3.5 3 308.045 308.045 0 0 0-2-34 264.475 264.475 0 0 0-24.5-23Z"/><path style="opacity:1" fill="#aab6be" d="M233.5 568.5a400.456 400.456 0 0 1-40 1v31c-.994-10.487-1.328-21.154-1-32h41Z"/><path style="opacity:1" fill="#b9c5ce" d="M272.5 568.5h39c.328 10.846-.006 21.513-1 32v-31a361.608 361.608 0 0 1-38-1Z"/><path style="opacity:1" fill="#4590bf" d="M383.5 560.5c-.988 5.14-1.321 10.474-1 16a784.68 784.68 0 0 1 56 1h-57a81.883 81.883 0 0 1 1-18c.607.124.94.457 1 1Z"/><path style="opacity:1" fill="#53b2f2" d="M330.5 529.5a2434.836 2434.836 0 0 1 1.5 70 289.889 289.889 0 0 0 13.5 15 484.723 484.723 0 0 0-44 1 41.478 41.478 0 0 1-12-6.5l27-1 1.5-1.5a147.951 147.951 0 0 0 1.5-29h11v-48Z"/><path style="opacity:1" fill="#53bbf9" d="M605.5 517.5h5v97h-5v-97Z"/><path style="opacity:1" fill="#7b878f" d="M269.5 603.5v41h-33v-40a380.934 380.934 0 0 1 1 39h31a400.456 400.456 0 0 1 1-40Z"/><path style="opacity:1" fill="#5bb0fb" d="M186.5 607.5a61.281 61.281 0 0 0 15 1c-.167 13.337 0 26.671.5 40a18.839 18.839 0 0 1 6.5 5.5 55.63 55.63 0 0 1 18 10 114.425 114.425 0 0 1 30 18c4.322 1.239 8.322 3.072 12 5.5a1156.835 1156.835 0 0 1-68 1c-2.363-.682-4.529-2.349-6.5-5-1.049 1.017-2.216 1.184-3.5.5l1-1a15.645 15.645 0 0 1-4-2.5c-1-24.324-1.333-48.658-1-73Z"/><path style="opacity:1" fill="#f5f5f6" d="M232.5 651.5v1c-3.467.054-6.134-1.446-8-4.5a46.99 46.99 0 0 1-10.5-5.5 577.896 577.896 0 0 1-.5-34h16c-.167 14.004 0 28.004.5 42 .671.752 1.504 1.086 2.5 1Z"/><path style="opacity:1" fill="#58b2f9" d="m345.5 614.5 11 10a813 813 0 0 0 57 1v37c-5.812 5.692-12.812 7.525-21 5.5a2877.86 2877.86 0 0 1-16-10 114.065 114.065 0 0 1-14-6 523.182 523.182 0 0 1-22-15 90.42 90.42 0 0 1-14-6 1972.979 1972.979 0 0 0-25-15.5 484.723 484.723 0 0 1 44-1Z"/><path style="opacity:1" fill="#5ab2fb" d="M605.5 614.5h5c.333 20.011 0 40.011-1 60-1.083 2.638-2.416 4.971-4 7v-67Z"/><path style="opacity:1" fill="#fcfcfc" d="m366.5 666.5-31 2c-2.333.333-3.667 1.667-4 4l-2 36c-7.586-2.084-14.252-5.917-20-11.5-5.093-1.382-9.426-4.049-13-8-6.4-2.062-12.067-5.396-17-10l-10-4-4-4a90.42 90.42 0 0 1-14-6l-4-4a112.041 112.041 0 0 1-14-7.5l39-2c1.517-.011 2.684-.677 3.5-2l1-33a46.47 46.47 0 0 0 14.5 6.5 27.816 27.816 0 0 1 8 6 420.445 420.445 0 0 0 32 17c3.705 4.342 8.372 7.009 14 8a84.614 84.614 0 0 0 21 12.5Z"/><path style="opacity:1" fill="#3e7398" d="M356.5 624.5h58a361.608 361.608 0 0 1-1 38v-37a813 813 0 0 1-57-1Z"/><path style="opacity:1" fill="#f4f5f5" d="M468.5 644.5a684.92 684.92 0 0 1 .5 64c-1.356.88-2.856 1.214-4.5 1-.333-21.011 0-42.011 1-63 1.239-.442 2.239-1.109 3-2Z"/><path style="opacity:1" fill="#93989a" d="M232.5 651.5h40l-39 2c-.667 0-1-.333-1-1v-1Z"/><path style="opacity:1" fill="#c5c8c9" d="M366.5 666.5c.789.283 1.456.783 2 1.5-10.995.5-21.995.667-33 .5l31-2Z"/><path style="opacity:1" fill="#c7cacb" d="M331.5 672.5a343.225 343.225 0 0 1-1 37c-.607-.124-.94-.457-1-1l2-36Z"/><path style="opacity:1" fill="#57636a" d="M418.5 675.5a1560.835 1560.835 0 0 1-79 1v32c-.995-10.821-1.328-21.821-1-33h80Z"/><path style="opacity:1" fill="#60abfc" d="M268.5 687.5c6.311 3.49 12.644 6.99 19 10.5l6 5a169.242 169.242 0 0 1 22 11c6.973 5.651 14.64 9.984 23 13a13.92 13.92 0 0 0 3 4c10.304 4.177 19.971 9.343 29 15.5h-67c-8.654-3.265-16.321-6.932-23-11v-3h-6v-3h-5v-3a8.43 8.43 0 0 1-4-.5c-4.85-3.699-10.184-6.199-16-7.5v-3h-6v-3c-2.092-.061-3.592-1.061-4.5-3-1.299.466-2.799.466-4.5 0v-3c-1.788.285-3.455-.048-5-1-2.158-3.144-5.158-4.477-9-4v-3a12.93 12.93 0 0 1-5-.5c-2.625-3.031-6.125-5.864-10.5-8.5l-1 1a19.602 19.602 0 0 1-3.5-2c22.839.331 45.506-.003 68-1Z"/><path style="opacity:1" fill="#77838b" d="M456.5 605.5a2652.905 2652.905 0 0 1 1 103h-118v-1h117v-102Z"/><path style="opacity:1" fill="#929699" d="M453.5 717.5a1513.378 1513.378 0 0 0-110 0c-.789-.283-1.456-.783-2-1.5 38-.667 76-.667 114 0-.544.717-1.211 1.217-2 1.5Z"/><path style="opacity:1" fill="#fcfcfc" d="M343.5 717.5a1513.378 1513.378 0 0 1 110 0c-4.401.859-8.068 3.026-11 6.5-6.858 2.879-13.191 6.546-19 11a115.786 115.786 0 0 0-25 13.5 97.288 97.288 0 0 0-12-5.5c-3.543-1.608-6.543-3.942-9-7-5.662-.917-10.329-3.583-14-8a95.357 95.357 0 0 1-20-10.5Z"/><path style="opacity:1" fill="#62a8fc" d="M547.5 716.5c-1.238.31-1.238.81 0 1.5a118.288 118.288 0 0 0-17 7.5 10.756 10.756 0 0 0-2.5 3l-1-1c-1.049 1.607-2.549 2.273-4.5 2v3h-6v3h-5v3c-2.524-.071-4.524.929-6 3-2.12-1.372-3.12-.705-3 2a12.93 12.93 0 0 0-5 .5 101.657 101.657 0 0 0-10 7.5 9.108 9.108 0 0 1-5 1v3c-2.51-.446-4.51.22-6 2-2.216.703-4.049 2.036-5.5 4-1.813-1.109-2.646-.442-2.5 2a12.93 12.93 0 0 0-5 .5c-1.888 1.991-4.221 3.158-7 3.5h-119a147.965 147.965 0 0 0-13-7l-2.5-3c-.718.951-1.551 1.117-2.5.5 1.333-.667 1.333-1.333 0-2a12.93 12.93 0 0 0-5-.5v-3a58.97 58.97 0 0 1-11-3v-3h67a103.694 103.694 0 0 0 18 10.5c3.818 1.944 7.818 2.611 12 2 5.066-.801 9.732-2.467 14-5 5.239-4.798 11.239-8.131 18-10 4.933-4.604 10.6-7.938 17-10a209.75 209.75 0 0 1 30-18 772.829 772.829 0 0 1 68 .5Z"/><path style="opacity:1" fill="#64a9fe" d="M476.5 757.5c1.333.667 1.333.667 0 0Z"/><path style="opacity:1" fill="#65a7ff" d="M337.5 767.5h119c-.86 2.114-2.527 3.28-5 3.5l2 1a12.93 12.93 0 0 1-5 .5v3a9.86 9.86 0 0 0-6 1 35.217 35.217 0 0 1-8 4v3h-6v3h-6v3a8.43 8.43 0 0 0-4 .5l-5 5c-1.284.684-2.451.517-3.5-.5-1.263 2.968-3.263 3.968-6 3a2.428 2.428 0 0 0-.5 2h-12c-.507-1.359-1.507-2.359-3-3a137.913 137.913 0 0 0-11-4v-3c-2.133-1.386-5.133-2.386-9-3v-3h-5v-3c-3.005.247-5.505-.753-7.5-3l-1 1a4.934 4.934 0 0 1-.5-3h-6v-3h-5v-3c-2.582.475-4.582-.192-6-2Z"/></svg>