<?xml version="1.0" standalone="no"?>
<!DOCTYPE svg PUBLIC "-//W3C//DTD SVG 20010904//EN"
 "http://www.w3.org/TR/2001/REC-SVG-20010904/DTD/svg10.dtd">
<svg version="1.0" xmlns="http://www.w3.org/2000/svg"
 width="100.000000pt" height="100.000000pt" viewBox="0 0 100.000000 100.000000"
 preserveAspectRatio="xMidYMid meet">

<g transform="translate(0.000000,100.000000) scale(0.100000,-0.100000)"
fill="#000000" stroke="none">
<path d="M370 976 c-153 -43 -288 -169 -339 -319 -83 -240 26 -500 257 -614
73 -37 80 -38 196 -41 135 -4 197 11 287 68 318 204 302 683 -28 863 -100 54
-264 73 -373 43z m295 -276 c32 -16 46 -18 69 -10 38 13 41 9 14 -20 l-22 -23
27 5 26 5 -23 -27 c-14 -18 -25 -47 -29 -79 -13 -110 -93 -219 -190 -262 -68
-30 -172 -32 -242 -5 l-50 20 50 11 c28 6 60 17 73 24 24 13 21 31 -4 31 -17
0 -64 44 -64 60 0 5 10 10 23 10 22 0 22 0 -3 13 -24 12 -70 71 -70 90 0 5 12
6 27 2 26 -6 27 -6 11 12 -25 28 -38 70 -32 102 l6 30 52 -39 c54 -41 121 -70
161 -70 17 0 24 7 29 32 9 46 33 77 69 93 42 19 46 18 92 -5z"/>
</g>
</svg>
