<svg version="1.0" xmlns="http://www.w3.org/2000/svg" width="133.333" height="133.333" viewBox="0 0 100 100"><path d="M37 2.4C21.7 6.7 8.2 19.3 3.1 34.3c-8.3 24 2.6 50 25.7 61.4 7.3 3.7 8 3.8 19.6 4.1 13.5.4 19.7-1.1 28.7-6.8 31.8-20.4 30.2-68.3-2.8-86.3C64.3 1.3 47.9-.6 37 2.4zM41.5 24c3.5 3.6 4.4 4 8.8 4s5.5-.5 9.3-4c2.4-2.2 4.8-4 5.4-4 2.2 0 2.2 3.2 0 5.6L62.7 28h5.2c5.9 0 10.7 1.7 13.6 5 1.8 2 2 3.9 2.3 18.3.4 18.8-.4 22.9-5.1 25.7-1.8 1.1-4 2-4.9 2-1 0-2.7.9-3.8 2-1.6 1.6-2.5 1.8-4 1-1.1-.6-2-1.5-2-2 0-.6-5.1-1-12.5-1-11.2 0-12.7.2-14.5 2-1.6 1.6-2.5 1.8-4 1-1.1-.6-2-1.5-2-2 0-.6-1.3-1-2.9-1-3.6 0-7.9-3.4-9.7-7.6-2.2-5.3-1.9-31.8.4-36.4 2.2-4.5 7.2-7 14.1-7h5.4L36 25.6c-2.3-2.6-2.2-5.6.3-5.6.7 0 3.1 1.8 5.2 4z"/><path d="M26 54v17h50V37H26v17zm19-5.9c0 1.8-2 2.6-10.7 4.4-2.9.6-3.3.4-3.9-2-.8-3.4-.5-3.6 6.4-5 6.1-1.3 8.2-.7 8.2 2.6zm25.8-1.6c2.6.6 3 4 .6 5.3-1 .5-3.8.4-7.2-.2-4.8-1-5.8-1.5-6-3.5-.6-4 .9-4.2 12.6-1.6zM52.6 60.1c.3.6 1.9.9 3.5.5 3.4-.6 4.9 1.2 2.5 3-2.1 1.5-13.1 1.3-14.7-.3-1.7-1.7-.3-3.1 2.5-2.6 1.3.3 2.7 0 3-.6.9-1.4 2.3-1.4 3.2 0z"/></svg>