<?xml version="1.0" encoding="UTF-8"?><svg xmlns="http://www.w3.org/2000/svg" width="800" height="800" style="shape-rendering:geometricPrecision;text-rendering:geometricPrecision;image-rendering:optimizeQuality;fill-rule:evenodd;clip-rule:evenodd"><path style="opacity:1" fill="#1c1c1c" d="M576.5-.5h9a2.429 2.429 0 0 0 .5 2c1.049-1.017 2.216-1.184 3.5-.5a20.495 20.495 0 0 0 2.5 3.5c1.356-.88 2.856-1.214 4.5-1v3c2.822 1.432 6.489 2.432 11 3v3c2.092.061 3.592 1.061 4.5 3 2.537-.677 4.537.323 6 3 2.361-.566 4.194.434 5.5 3l2-1c.35 2.067 2.017 3.067 5 3v3h6v3h5v3h6v3a27.247 27.247 0 0 0 9 3c-.219 1.175.114 2.175 1 3a6.846 6.846 0 0 1 4-1v3a8.435 8.435 0 0 1 4 .5c-1.154.914-.987 1.747.5 2.5 1.299-.466 2.799-.466 4.5 0v3h6v3h5v3a428.986 428.986 0 0 0 20 8.5l-2 1c2.522.61 4.522 1.943 6 4 1.634.493 3.301.66 5 .5v3c2.908-.238 5.242.762 7 3 .951-.826 1.951-.992 3-.5l-1 1a6.977 6.977 0 0 1 3.5 2.5l1-1c.483.948.649 1.948.5 3h6v3h5v3c1.951-.273 3.451.393 4.5 2l1-1c6 4.386 12.5 7.886 19.5 10.5l-1 1c1.525 1.009 3.192 1.509 5 1.5v3h6v3h5v3c2.041.354 3.874.354 5.5 0 .483.948.649 1.948.5 3 2.836 1.276 5.836 1.942 9 2a7971.884 7971.884 0 0 1 2 251c-3.013-.128-5.513.872-7.5 3-2.411-1.653-3.578-.987-3.5 2-1.701.466-3.201.466-4.5 0-3.844 1.975-7.177 4.642-10 8l-1-1c-1.049 1.607-2.549 2.273-4.5 2v3c-3.937.204-7.604 1.204-11 3 .381 2.442-.286 3.109-2 2-.886.825-1.219 1.825-1 3h-6v3a12.93 12.93 0 0 0-5 .5c-1.079 2.043-2.746 3.376-5 4l1 1a12.93 12.93 0 0 1-5 .5v3a9.86 9.86 0 0 0-6 1c-3.423 1.192-6.256 3.192-8.5 6l-1-1c-1.049 1.607-2.549 2.273-4.5 2v3h-6v3h-5v3c-2.185.388-4.018 1.388-5.5 3-2.278-1.12-3.778-.287-4.5 2.5a101.955 101.955 0 0 0-13 5.5v3h-6v3h-6v3c-1.788-.285-3.455.048-5 1 1.129 2.029.629 2.363-1.5 1-1.712 3.452-4.212 4.452-7.5 3v3c-3.096-.593-5.429.407-7 3a47.25 47.25 0 0 1-7 3v3h-6v3c-1.788-.285-3.455.048-5 1a28.335 28.335 0 0 0-9.5 6l-1-1c-1.049 1.607-2.549 2.273-4.5 2-.167 12.338 0 24.671.5 37 .414.457.914.791 1.5 1a3571.518 3571.518 0 0 1 0 169c-1.083 2.638-2.416 4.971-4 7 .167-66.334 0-132.668-.5-199a6.978 6.978 0 0 0-3.5-2.5 916.16 916.16 0 0 1-43-1.5 1337.284 1337.284 0 0 0 41-24.5 472.117 472.117 0 0 0 46-26l4-1a1884.13 1884.13 0 0 1 86-50l8-6a190.921 190.921 0 0 0 21.5-10.5c.667-76 .667-152 0-228a36.078 36.078 0 0 0-3.5-4.5c-3.29-.253-6.29-1.253-9-3a29746.604 29746.604 0 0 1-46-28 457.332 457.332 0 0 0-22-11l-4-4a161.879 161.879 0 0 1-33-19c-6.4-2.062-12.067-5.396-17-10a1126.1 1126.1 0 0 0-31-16c-2.365-3.714-5.698-5.714-10-6-10.077-9.273-21.077-10.607-33-4a57864.473 57864.473 0 0 0-69 41 311.683 311.683 0 0 1-26 13 259.612 259.612 0 0 1-26 16l-5.5 5.5c-.687 2.068-.52 4.068.5 6a93.876 93.876 0 0 0 11 9.5 70336.874 70336.874 0 0 0 51 29c4.333.667 8.667.667 13 0a3162.857 3162.857 0 0 1 66-36.5 4230.924 4230.924 0 0 0 114 65.5c.826 17.093 1.326 34.26 1.5 51.5l2 2c.5 28.331.667 56.665.5 85a12.93 12.93 0 0 0-5 .5 679.07 679.07 0 0 0-23 15 968.4 968.4 0 0 1-37 19 679.07 679.07 0 0 0-23 15 78.855 78.855 0 0 0-15 7.5v-22c4.997-1.255 9.163-3.922 12.5-8 .667-37.333.667-74.667 0-112a52.34 52.34 0 0 1-12.5-8c-.652-3.811-2.652-6.644-6-8.5l-174-99c-2.721-.602-5.387-.435-8 .5a208.311 208.311 0 0 0-5-4.5 4245.06 4245.06 0 0 1-131-75c-3.81-1.13-7.143-3.13-10-6a64.277 64.277 0 0 1-11.5-5.5 582.249 582.249 0 0 0-15.5 2 4629.943 4629.943 0 0 0-141 81.5c-11.576 4.54-22.243 10.54-32 18-2.71 1.747-5.71 2.747-9 3-1.574 1.826-2.407 3.993-2.5 6.5a6458.19 6458.19 0 0 0 1 226 883.496 883.496 0 0 1 9.5 5.5c1.374 3.683 4.04 5.349 8 5a13376.247 13376.247 0 0 0 116 67c4.091 1.227 7.591.394 10.5-2.5.101-3.2.768-6.2 2-9 .667-23.333.667-46.667 0-70a20.231 20.231 0 0 0-7.5-7.5 82.15 82.15 0 0 1-22-13c-3.993-.322-7.326-1.988-10-5-3.415-.406-6.082-2.072-8-5l-10-4c-4.032-3.676-8.699-6.176-14-7.5-.167-45.335 0-90.668.5-136 2.67-2.75 5.836-4.583 9.5-5.5 6.962-5.648 14.628-9.981 23-13a148.265 148.265 0 0 1 31-18 100.235 100.235 0 0 1 22-13 417.167 417.167 0 0 1 29.5-18.5c1.73 1.149 3.396 1.149 5 0a20.499 20.499 0 0 1 2.5 3.5 406.87 406.87 0 0 1 53 31 281.486 281.486 0 0 1 26 13c.752.671 1.086 1.504 1 2.5a339769.342 339769.342 0 0 1-95 53.5c-1.996 2.162-3.33 4.662-4 7.5-5.464 2.277-10.297 5.61-14.5 10-.5 108.666-.667 217.333-.5 326a103.043 103.043 0 0 0-19 1c.167-31.335 0-62.668-.5-94a1204.023 1204.023 0 0 0-28.5-16.5c-6.204-2.789-12.537-4.622-19-5.5v-3h-6v-3h-3v-3h-6v-3h-5v-3c-2.921.354-5.254-.646-7-3-1.714 1.109-2.381.442-2-2a58.97 58.97 0 0 1-11-3v-3a27.267 27.267 0 0 0-9-3v-3c-2.908.238-5.242-.762-7-3a3.647 3.647 0 0 0-1.5 1c-1.667-1-3-2.333-4-4l-1 1a4.932 4.932 0 0 1-.5-3h-6v-3h-5v-3a544.412 544.412 0 0 1-29-14v-3a58.967 58.967 0 0 1-11-3v-3h-6v-3c-4.013-1.674-8.013-3.341-12-5 .008-83.648.008-167.148 0-250.5a169.104 169.104 0 0 0 15-5.5v-3a58.967 58.967 0 0 0 11-3v-3a417.79 417.79 0 0 0 15-7 32.686 32.686 0 0 0 8.5-6l1 1c1.049-1.607 2.549-2.273 4.5-2v-3a59.029 59.029 0 0 1 11-3 4.932 4.932 0 0 1 .5-3l1 1c2.015-3.065 4.515-4.065 7.5-3v-3h5v-3c1.7.16 3.366-.007 5-.5 1.478-2.057 3.478-3.39 6-4l-2-1a18.436 18.436 0 0 1 6-.5v-3a87.51 87.51 0 0 0 14-5v-3h6v-3h5v-3c1.701-.466 3.201-.466 4.5 0 3.279-4.047 7.946-7.047 14-9a18.264 18.264 0 0 0 5-4l1 1c1.049-1.607 2.549-2.273 4.5-2v-3h5v-3h6v-3c4.612-1.195 9.279-2.862 14-5v-3c1.701-.466 3.201-.466 4.5 0 .908-1.939 2.408-2.939 4.5-3v-3h6v-3c1.788.285 3.455-.048 5-1a38.767 38.767 0 0 0 7-4.5 49.25 49.25 0 0 1 14 0c2.025 1.677 4.359 2.677 7 3-1.134 1.016-.801 1.683 1 2l5 1-1 1c2.622 3.073 5.955 4.573 10 4.5v3h6v3c3.191.262 5.858 1.596 8 4a9.864 9.864 0 0 0 6 1v3c3.58 1.22 7.247 2.386 11 3.5l-2 1c2.767.678 4.934 2.178 6.5 4.5l1-1c3.769 1.797 7.102 4.13 10 7a3.942 3.942 0 0 1 2-1c1.482 1.612 3.315 2.612 5.5 3v3h6v3h5v3h6v3a87.51 87.51 0 0 0 14 5v3c1.699-.16 3.366.007 5 .5l-1 1c1.525 1.009 3.192 1.509 5 1.5v3h6v3h5v3c2.985-1.065 5.485-.065 7.5 3l1-1c.483.948.649 1.948.5 3h5v3h6v3c2.133 1.386 5.133 2.386 9 3v3c2.908-.238 5.242.762 7 3l2-1c.35 2.067 2.017 3.067 5 3v3h6v3c2.516-.255 4.85-1.089 7-2.5a626.207 626.207 0 0 1 29-17c.837-1.011 1.17-2.178 1-3.5 4.493-.216 7.993-2.216 10.5-6 1.011.837 2.178 1.17 3.5 1v-3a59.031 59.031 0 0 0 11-3v-3c1.808.009 3.475-.491 5-1.5l-1-1a12.935 12.935 0 0 1 5-.5v-3a9.864 9.864 0 0 0 6-1 35.213 35.213 0 0 1 8-4v-3h6v-3a59.031 59.031 0 0 1 11-3v-3c1.808.009 3.475-.491 5-1.5-1.388-.89-1.222-1.39.5-1.5 2.071 1.167 3.571.5 4.5-2 6.434-2.343 12.767-5.343 19-9v-3a59.031 59.031 0 0 1 11-3 4.934 4.934 0 0 1 .5-3l1 1c1.995-2.247 4.495-3.247 7.5-3v-3h5v-3h6v-3c1.808.009 3.475-.491 5-1.5l-1-1a12.936 12.936 0 0 1 5-.5v-3c3.552.188 6.219-1.145 8-4Z"/><path style="opacity:1" fill="#bebebe" d="M558.5 478.5a5.727 5.727 0 0 1-3 1h-22c4.38-2.047 8.38-4.88 12-8.5 3.993-.322 7.326-1.988 10-5a23492.338 23492.338 0 0 0 140-79l4-4a114.302 114.302 0 0 0 13-6 846.02 846.02 0 0 0 33-20 73.86 73.86 0 0 0 9-3.5 7901.316 7901.316 0 0 0-1.5-216 2129.254 2129.254 0 0 1-37.5-21.5c-3.415-.406-6.082-2.072-8-5a91.311 91.311 0 0 1-23-13 457.332 457.332 0 0 0-22-11c-2.508-3.042-5.508-5.376-9-7a457.332 457.332 0 0 1-22-11l-24-15c-3.415-.406-6.082-2.072-8-5a90.401 90.401 0 0 0-14-6c-5.722-6.435-12.722-8.768-21-7-7.36 5.663-15.36 9.996-24 13-3.619 3.977-7.952 6.644-13 8-2.537 2.546-5.537 4.212-9 5l-4 4-10 4a2551.356 2551.356 0 0 0-60 36 7185.005 7185.005 0 0 1 26 16 114.065 114.065 0 0 0 14 6c4.2 3.6 8.867 6.433 14 8.5a684.54 684.54 0 0 1 19-8.5 43.593 43.593 0 0 1 13-8c2.365-3.714 5.698-5.714 10-6a705.673 705.673 0 0 1 21-12c4.719-2.307 9.719-2.974 15-2a113.107 113.107 0 0 0 28 15l5 5a182.852 182.852 0 0 1 35 20 193.115 193.115 0 0 1 32 19 197.694 197.694 0 0 1 17 8 36.078 36.078 0 0 1 3.5 4.5 1422.198 1422.198 0 0 1 1.5 75c.158 25.085-.342 50.085-1.5 75-5.218 5.192-11.384 8.692-18.5 10.5a12318.477 12318.477 0 0 1-28 18c-6.381 2.027-12.048 5.361-17 10-6.943 1.604-12.943 4.937-18 10a83.15 83.15 0 0 0-24 13 15.256 15.256 0 0 0-4.5 1.5 84.902 84.902 0 0 1-.5-13 78.855 78.855 0 0 1 15-7.5 679.07 679.07 0 0 1 23-15 968.4 968.4 0 0 0 37-19 679.07 679.07 0 0 1 23-15 12.93 12.93 0 0 1 5-.5c.167-28.335 0-56.669-.5-85l-2-2c-.174-17.24-.674-34.407-1.5-51.5a4230.924 4230.924 0 0 1-114-65.5 3162.857 3162.857 0 0 0-66 36.5 42.479 42.479 0 0 1-13 0 70336.874 70336.874 0 0 1-51-29 93.876 93.876 0 0 1-11-9.5c-1.02-1.932-1.187-3.932-.5-6l5.5-5.5a259.612 259.612 0 0 0 26-16 311.683 311.683 0 0 0 26-13 57864.473 57864.473 0 0 1 69-41c11.923-6.607 22.923-5.273 33 4 4.302.286 7.635 2.286 10 6a1126.1 1126.1 0 0 1 31 16c4.933 4.604 10.6 7.938 17 10a161.879 161.879 0 0 0 33 19l4 4a457.332 457.332 0 0 1 22 11 29746.604 29746.604 0 0 0 46 28c2.71 1.747 5.71 2.747 9 3a36.078 36.078 0 0 1 3.5 4.5c.667 76 .667 152 0 228a190.921 190.921 0 0 1-21.5 10.5l-8 6a1884.13 1884.13 0 0 0-86 50l-4 1a472.117 472.117 0 0 1-46 26 1337.284 1337.284 0 0 1-41 24.5Z"/><path style="opacity:1" fill="#bdbdbd" d="M398.5 114.5c-3.395 3.198-7.395 5.031-12 5.5a213.555 213.555 0 0 1-24-14c-5.079-1.403-9.412-4.07-13-8a1516.16 1516.16 0 0 1-91-52A228.066 228.066 0 0 0 234 34.5 112.066 112.066 0 0 0 210.5 48l-10 4-3 3c-6.771 2.445-12.771 6.111-18 11l-10 4-4 4a520.666 520.666 0 0 0-59 34l-9 3c-3.796 3.592-8.13 6.259-13 8A361.546 361.546 0 0 1 52 137.5c-.667 72-.667 144 0 216a7214.146 7214.146 0 0 0 125 72c.5-21.664.667-43.331.5-65a340.197 340.197 0 0 0-18-8.5 55.63 55.63 0 0 0-18-10 78.488 78.488 0 0 0-23-13 56.965 56.965 0 0 0-10.5-7.5 2946.23 2946.23 0 0 1 1-153 230.435 230.435 0 0 0 32.5-19.5c8.372-3.019 16.038-7.352 23-13 5.093-1.382 9.426-4.049 13-8a90.42 90.42 0 0 0 14-6c1.918-2.928 4.585-4.594 8-5a226.438 226.438 0 0 1 29-17 42.498 42.498 0 0 1 13 0l4 4a154.79 154.79 0 0 0 13 6 1081.768 1081.768 0 0 0 33 20l4 1c8.98 5.636 17.98 11.302 27 17 3.73.411 7.064 1.744 10 4a5905.627 5905.627 0 0 0-13 8.5c.086-.996-.248-1.829-1-2.5a281.486 281.486 0 0 0-26-13 406.87 406.87 0 0 0-53-31 20.499 20.499 0 0 0-2.5-3.5c-1.604 1.149-3.27 1.149-5 0a417.167 417.167 0 0 0-29.5 18.5 100.235 100.235 0 0 0-22 13 148.265 148.265 0 0 0-31 18c-8.372 3.019-16.038 7.352-23 13-3.664.917-6.83 2.75-9.5 5.5-.5 45.332-.667 90.665-.5 136 5.301 1.324 9.968 3.824 14 7.5l10 4c1.918 2.928 4.585 4.594 8 5 2.674 3.012 6.007 4.678 10 5a82.15 82.15 0 0 0 22 13 20.231 20.231 0 0 1 7.5 7.5c.667 23.333.667 46.667 0 70-1.232 2.8-1.899 5.8-2 9-2.909 2.894-6.409 3.727-10.5 2.5a13376.247 13376.247 0 0 1-116-67c-3.96.349-6.626-1.317-8-5a883.496 883.496 0 0 0-9.5-5.5 6458.19 6458.19 0 0 1-1-226c.093-2.507.926-4.674 2.5-6.5 3.29-.253 6.29-1.253 9-3 9.757-7.46 20.424-13.46 32-18a4629.943 4629.943 0 0 1 141-81.5 582.249 582.249 0 0 1 15.5-2 64.277 64.277 0 0 0 11.5 5.5c2.857 2.87 6.19 4.87 10 6a4245.06 4245.06 0 0 0 131 75 208.311 208.311 0 0 1 5 4.5Z"/><path style="opacity:1" fill="#fefefe" d="M398.5 114.5c2.613-.935 5.279-1.102 8-.5l174 99c3.348 1.856 5.348 4.689 6 8.5 1.32 42.668 1.32 85.334 0 128v22a84.902 84.902 0 0 0 .5 13 15.256 15.256 0 0 1 4.5-1.5 83.15 83.15 0 0 1 24-13c5.057-5.063 11.057-8.396 18-10 4.952-4.639 10.619-7.973 17-10 9.313-5.969 18.646-11.969 28-18 7.116-1.808 13.282-5.308 18.5-10.5a1422.198 1422.198 0 0 0 1.5-75c.158-25.085-.342-50.085-1.5-75a36.078 36.078 0 0 0-3.5-4.5 197.694 197.694 0 0 0-17-8 193.115 193.115 0 0 0-32-19 182.852 182.852 0 0 0-35-20l-5-5a113.107 113.107 0 0 1-28-15c-5.281-.974-10.281-.307-15 2a705.673 705.673 0 0 0-21 12c-4.302.286-7.635 2.286-10 6a43.593 43.593 0 0 0-13 8 684.54 684.54 0 0 0-19 8.5 50.162 50.162 0 0 1-14-8.5 114.065 114.065 0 0 1-14-6 7185.005 7185.005 0 0 0-26-16 2551.356 2551.356 0 0 1 60-36l10-4 4-4c3.463-.788 6.463-2.454 9-5 5.048-1.356 9.381-4.023 13-8 8.64-3.004 16.64-7.337 24-13 8.278-1.768 15.278.565 21 7a90.401 90.401 0 0 1 14 6c1.918 2.928 4.585 4.594 8 5l24 15a457.332 457.332 0 0 0 22 11c3.492 1.624 6.492 3.958 9 7a457.332 457.332 0 0 1 22 11 91.311 91.311 0 0 0 23 13c1.918 2.928 4.585 4.594 8 5a2129.254 2129.254 0 0 0 37.5 21.5 7901.316 7901.316 0 0 1 1.5 216 73.86 73.86 0 0 1-9 3.5 846.02 846.02 0 0 1-33 20 114.302 114.302 0 0 1-13 6l-4 4a23492.338 23492.338 0 0 1-140 79c-2.674 3.012-6.007 4.678-10 5-3.62 3.62-7.62 6.453-12 8.5a756.853 756.853 0 0 1-55-1 8653.383 8653.383 0 0 0 99.5-57c.667-66.667.667-133.333 0-200a14954.045 14954.045 0 0 0-174.5-100l-174 99a5102.275 5102.275 0 0 0 0 202 8268.086 8268.086 0 0 1 106 60.5 6.978 6.978 0 0 0-2.5 3.5c-.5 9.661-.666 19.328-.5 29a58.135 58.135 0 0 0-16-9c.372-2.522-.461-4.522-2.5-6l-1-21a151.164 151.164 0 0 0-9.5-6 144.226 144.226 0 0 1-18-10 207.735 207.735 0 0 1-11.5-7c-.5 19.33-.667 38.664-.5 58a420.766 420.766 0 0 0-41 1c-1.527-.073-2.527.594-3 2a400.456 400.456 0 0 0-1 40h-11v-322h3v-14c.67-2.838 2.004-5.338 4-7.5 31.721-17.857 63.388-35.691 95-53.5 4.305-2.823 8.638-5.656 13-8.5-2.936-2.256-6.27-3.589-10-4a10892.14 10892.14 0 0 0-27-17l-4-1a1081.768 1081.768 0 0 1-33-20 154.79 154.79 0 0 1-13-6l-4-4a42.498 42.498 0 0 0-13 0 226.438 226.438 0 0 0-29 17c-3.415.406-6.082 2.072-8 5a90.42 90.42 0 0 1-14 6c-3.574 3.951-7.907 6.618-13 8-6.962 5.648-14.628 9.981-23 13a230.435 230.435 0 0 1-32.5 19.5 2946.23 2946.23 0 0 0-1 153 56.965 56.965 0 0 1 10.5 7.5 78.488 78.488 0 0 1 23 13 55.63 55.63 0 0 1 18 10 340.197 340.197 0 0 1 18 8.5c.167 21.669 0 43.336-.5 65a7214.146 7214.146 0 0 1-125-72c-.667-72-.667-144 0-216A361.546 361.546 0 0 0 84.5 119c4.87-1.741 9.204-4.408 13-8l9-3a520.666 520.666 0 0 1 59-34l4-4 10-4c5.229-4.889 11.229-8.555 18-11l3-3 10-4A112.066 112.066 0 0 1 234 34.5 228.066 228.066 0 0 1 258.5 46a1516.16 1516.16 0 0 0 91 52c3.588 3.93 7.921 6.597 13 8a213.555 213.555 0 0 0 24 14c4.605-.469 8.605-2.302 12-5.5Z"/><path style="opacity:.999" fill="#273339" d="M478.5 478.5c-.789.283-1.456.783-2 1.5 26.503.83 52.837.663 79-.5a5.727 5.727 0 0 0 3-1 916.16 916.16 0 0 0 43 1.5 6.978 6.978 0 0 1 3.5 2.5c.5 66.332.667 132.666.5 199 .166 9.672 0 19.339-.5 29l-1.5 1.5a463.293 463.293 0 0 1-52 1.5 499.363 499.363 0 0 0-63 0c-5.151-.827-10.484-1.327-16-1.5-1.323-.816-1.989-1.983-2-3.5.331-25.172-.002-50.172-1-75a1305.236 1305.236 0 0 0 0-102v-1c1.327-15.505 1.327-31.172 0-47-.607.124-.94.457-1 1l-4 2a276.694 276.694 0 0 0 0 47 649.562 649.562 0 0 0-1.5 35l-80 80a72.367 72.367 0 0 0-.5 12v6c4.202.317 8.202-.017 12-1 5.667 1.333 11.333 1.333 17 0a576.628 576.628 0 0 0 48 1c1.517.011 2.684.677 3.5 2 .667 14 .667 28 0 42a6.978 6.978 0 0 1-3.5 2.5c-39.665.5-79.332.667-119 .5-4.67.663-7.336-1.337-8-6v-76a42.47 42.47 0 0 1 1.5-5 2628.43 2628.43 0 0 0 61.5-60.5c-.556-.383-.889-.883-1-1.5 5.524-2.846 10.19-6.846 14-12 1.973-1.306 3.639-2.973 5-5 .99-5.81 1.323-11.81 1-18-26.335.167-52.669 0-79-.5a30.233 30.233 0 0 1-3-3.5v-10c-.166-9.672 0-19.339.5-29a6.978 6.978 0 0 1 2.5-3.5 8268.086 8268.086 0 0 0-106-60.5 5102.275 5102.275 0 0 1 0-202l174-99a14954.045 14954.045 0 0 1 174.5 100c.667 66.667.667 133.333 0 200a8653.383 8653.383 0 0 1-99.5 57Z"/><path style="opacity:1" fill="#fcfcfc" d="M401.5 160.5a8.43 8.43 0 0 1 4 .5l122 70a713.94 713.94 0 0 0-31 18c-1.333.667-2.667.667-4 0l-89-50.5a6119.095 6119.095 0 0 1-91 51 400.13 400.13 0 0 1-33-18.5 10708.84 10708.84 0 0 0 122-70.5Z"/><path style="opacity:1" fill="#bfbfbf" d="M387.5 198.5a143.93 143.93 0 0 0-17-10c3.937-2.307 7.937-4.64 12-7 3.595 2.963 7.595 5.13 12 6.5 1.216 1.74 2.882 2.74 5 3a132.666 132.666 0 0 1-12 7.5Z"/><path style="opacity:1" fill="#202020" d="M370.5 188.5a143.93 143.93 0 0 1 17 10 258.177 258.177 0 0 1-19 10c-3.735-1.874-7.068-4.374-10-7.5-2.474-.037-4.474-.87-6-2.5l18-10Z"/><path style="opacity:1" fill="#bfbfbf" d="M352.5 198.5c1.526 1.63 3.526 2.463 6 2.5 2.932 3.126 6.265 5.626 10 7.5-3.046 2.612-6.546 4.612-10.5 6a41.738 41.738 0 0 0-12.5-5.5 20.499 20.499 0 0 0-3.5-2.5c-.667-.667-.667-1.333 0-2a158.408 158.408 0 0 0 10.5-6Z"/><path style="opacity:1" fill="#bebebe" d="M220.5 221.5v14h-3v322h-12c-.167-108.667 0-217.334.5-326 4.203-4.39 9.036-7.723 14.5-10ZM586.5 221.5a52.34 52.34 0 0 0 12.5 8c.667 37.333.667 74.667 0 112-3.337 4.078-7.503 6.745-12.5 8 1.32-42.666 1.32-85.332 0-128Z"/><path style="opacity:1" fill="#8bc24a" d="M420.5 247.5c-.333 21.677 0 43.344 1 65 18.694 10.679 37.361 21.345 56 32 .166 6.342 0 12.675-.5 19a91.312 91.312 0 0 1-17.5 10 1148.27 1148.27 0 0 0-56-32 1148.27 1148.27 0 0 0-56 32 91.312 91.312 0 0 1-17.5-10c-.5-6.325-.666-12.658-.5-19 18.639-10.655 37.306-21.321 56-32 1-21.656 1.333-43.323 1-65 5.147-4.079 10.814-7.412 17-10 6.186 2.588 11.853 5.921 17 10Z"/><path style="opacity:1" fill="#f9faf9" d="M386.5 247.5c.333 21.677 0 43.344-1 65a214993.438 214993.438 0 0 0-56 32c-.167-21.669 0-43.336.5-65a1582.861 1582.861 0 0 1 56.5-32ZM420.5 247.5a1582.861 1582.861 0 0 1 56.5 32c.5 21.664.667 43.331.5 65a214993.438 214993.438 0 0 0-56-32c-1-21.656-1.333-43.323-1-65Z"/><path style="opacity:1" fill="#fafafa" d="M262.5 260.5a74312.175 74312.175 0 0 0 32 18l2 105a5834.868 5834.868 0 0 0 89 51 181.045 181.045 0 0 1 0 38 13975.125 13975.125 0 0 1-122.5-70c-.5-47.332-.667-94.665-.5-142Z"/><path style="opacity:1" fill="#1e1e1e" d="M377.5 260.5c1.327 15.505 1.327 31.172 0 47a2312.506 2312.506 0 0 0-39.5 23 368.747 368.747 0 0 1 .5-47 1102.05 1102.05 0 0 0 39-23ZM428.5 260.5a94912.355 94912.355 0 0 0 40 23 368.747 368.747 0 0 1 .5 47 1181.34 1181.34 0 0 0-40-23c-.5-15.663-.667-31.33-.5-47Z"/><path style="opacity:1" fill="#f9f9f9" d="M543.5 260.5a3364.144 3364.144 0 0 1 .5 142 13975.125 13975.125 0 0 1-122.5 70 181.045 181.045 0 0 1 0-38 5834.868 5834.868 0 0 1 89-51l2-105a692.81 692.81 0 0 0 31-18Z"/><path style="opacity:1" fill="#bfbfbf" d="M286.5 283.5a3720.344 3720.344 0 0 0-1 122 37.927 37.927 0 0 1-11.5-6c-.833-41.004-.667-82.004.5-123 4.063 2.36 8.063 4.693 12 7ZM536.5 397.5a162.597 162.597 0 0 0-.5-18c-2.177 2.027-4.677 3.361-7.5 4-2.412.094-4.245-.906-5.5-3a2459.078 2459.078 0 0 1-3.5-97 89.535 89.535 0 0 0 11-6 4145.33 4145.33 0 0 1 1.5 91 18.08 18.08 0 0 1 3.5-2c1.922 10.446 2.255 20.78 1 31Z"/><path style="opacity:1" fill="#1e1e1e" d="M286.5 283.5a5953.323 5953.323 0 0 0 2.5 104 2325.232 2325.232 0 0 0 88.5 51.5c1.145 6.752 1.311 13.586.5 20.5a11990.45 11990.45 0 0 1-92.5-54c-.332-40.837.001-81.503 1-122ZM519.5 283.5c.527 32.32 1.694 64.653 3.5 97 1.255 2.094 3.088 3.094 5.5 3 2.823-.639 5.323-1.973 7.5-4 .499 5.991.666 11.991.5 18a17487.85 17487.85 0 0 0-107.5 62c-.811-6.914-.645-13.748.5-20.5a2325.232 2325.232 0 0 0 88.5-51.5 1852.3 1852.3 0 0 0 1.5-104Z"/><path style="opacity:1" fill="#f8f8f7" d="M459.5 373.5a1148.27 1148.27 0 0 1-56 32 1148.27 1148.27 0 0 1-56-32 1148.27 1148.27 0 0 1 56-32 1148.27 1148.27 0 0 1 56 32Z"/><path style="opacity:1" fill="#1d1d1d" d="M401.5 350.5a321.322 321.322 0 0 1 42 23l-40 23a1193.402 1193.402 0 0 1-40-23.5 1045.64 1045.64 0 0 0 38-22.5Z"/><path style="opacity:1" fill="#bdbdbd" d="M285.5 463.5v94h-9c.167-13.337 0-26.671-.5-40l-1.5-1.5a881.746 881.746 0 0 0-42-.5 420.766 420.766 0 0 1 41-1c-.167-19.336 0-38.67.5-58a207.735 207.735 0 0 0 11.5 7Z"/><path style="opacity:1" fill="#1c1c1c" d="M285.5 463.5a144.226 144.226 0 0 0 18 10 761.185 761.185 0 0 1 1.5 38l8.5 6.5a142.595 142.595 0 0 0 19 9.5c1.085 2.087 2.751 3.42 5 4 3.036.862 5.369 2.695 7 5.5 1.284.684 2.451.517 3.5-.5a18.778 18.778 0 0 0 5.5 4.5 935.544 935.544 0 0 1 41 23.5c.111.617.444 1.117 1 1.5a2628.43 2628.43 0 0 1-61.5 60.5 42.47 42.47 0 0 0-1.5 5 1062.338 1062.338 0 0 1-38-21.5 14.698 14.698 0 0 1-3-3.5c8.735-.679 17.568-1.346 26.5-2 .667-15 .667-30 0-45a11.333 11.333 0 0 0-3.5-1.5c-9.661-.5-19.328-.666-29-.5v-94Z"/><path style="opacity:1" fill="#bebebe" d="M303.5 473.5a151.164 151.164 0 0 1 9.5 6l1 21c2.039 1.478 2.872 3.478 2.5 6a58.135 58.135 0 0 1 16 9v12a142.595 142.595 0 0 1-19-9.5l-8.5-6.5a761.185 761.185 0 0 0-1.5-38Z"/><path style="opacity:1" fill="#576064" d="M478.5 478.5a756.853 756.853 0 0 0 55 1h22a1043.12 1043.12 0 0 1-79 .5c.544-.717 1.211-1.217 2-1.5Z"/><path style="opacity:1" fill="#fdfdfd" d="M468.5 484.5c.995 10.821 1.328 21.821 1 33a16.339 16.339 0 0 0-5 2v-33l4-2Z"/><path style="opacity:1" fill="#888e91" d="M468.5 484.5c.06-.543.393-.876 1-1 1.327 15.828 1.327 31.495 0 47v-13c.328-11.179-.005-22.179-1-33Z"/><path style="opacity:1" fill="#878d90" d="M464.5 486.5v33c-.318 4.532.015 8.866 1 13 0 .667-.333 1-1 1a276.694 276.694 0 0 1 0-47Z"/><path style="opacity:1" fill="#b3b7b9" d="M597.5 488.5h-119v216a11770.92 11770.92 0 0 1-1-217c40.17-.332 80.17.001 120 1Z"/><path style="opacity:1" fill="#fcfcfc" d="M597.5 488.5v216h-119v-216h119Z"/><path style="opacity:1" fill="#fbfbfb" d="M377.5 673.5c25.828.998 51.828 1.331 78 1v30h-114c.321-5.526-.012-10.86-1-16-.167-19.003 0-38.003.5-57l79-79a65.046 65.046 0 0 0 1.5-15.5c-.032-4.919-.699-9.586-2-14-26.331-.5-52.665-.667-79-.5v-32h116c.333 25.009 0 50.009-1 75a9100.955 9100.955 0 0 0-80.5 80 156.422 156.422 0 0 0 0 25c.377 1.442 1.21 2.442 2.5 3Z"/><path style="opacity:.996" fill="#273339" d="M232.5 515.5c14.004-.167 28.004 0 42 .5l1.5 1.5c.5 13.329.667 26.663.5 40h9c9.672-.166 19.339 0 29 .5 1.266.309 2.433.809 3.5 1.5.667 15 .667 30 0 45-8.932.654-17.765 1.321-26.5 2a61.281 61.281 0 0 0-15-1v7c.167 11.338 0 22.672-.5 34l-1.5 1.5a484.008 484.008 0 0 1-44 0 11.333 11.333 0 0 1-1.5-3.5 721.824 721.824 0 0 1-.5-38c-7.482-.992-15.148-1.325-23-1h-19c-.283-.789-.783-1.456-1.5-2a484.008 484.008 0 0 1 0-44c.383-.556.883-.889 1.5-1a103.043 103.043 0 0 1 19-1c7.816.992 15.816 1.326 24 1v-41c.473-1.406 1.473-2.073 3-2Z"/><path style="opacity:1" fill="#bebebe" d="M469.5 517.5v14c-1.599-.268-2.932.066-4 1-.985-4.134-1.318-8.468-1-13a16.339 16.339 0 0 1 5-2Z"/><path style="opacity:1" fill="#5a6367" d="M229.5 517.5v41c-8.184.326-16.184-.008-24-1h23a400.456 400.456 0 0 1 1-40Z"/><path style="opacity:1" fill="#28343a" d="M516.5 519.5c14.67-.167 29.337 0 44 .5l1.5 1.5c.83 50.237.664 100.404-.5 150.5a552.224 552.224 0 0 1-47 0 11.333 11.333 0 0 1-1.5-3.5 3601.9 3601.9 0 0 1 .5-147c1.239-.442 2.239-1.109 3-2Z"/><path style="opacity:1" fill="#b7bbbd" d="M268.5 523.5h-31a361.608 361.608 0 0 1-1 38v-39c10.846-.328 21.513.006 32 1Z"/><path style="opacity:1" fill="#fcfcfc" d="M268.5 523.5c-.167 13.337 0 26.671.5 40l1.5 1.5c13.329.5 26.663.667 40 .5v32a400.456 400.456 0 0 0-40 1l-1.5 3a799.793 799.793 0 0 0-.5 40h-32a441.814 441.814 0 0 0-1-42l-3-1.5a760.316 760.316 0 0 0-39-.5v-31a380.934 380.934 0 0 0 39-1c2.333-.333 3.667-1.667 4-4a361.608 361.608 0 0 0 1-38h31Z"/><path style="opacity:1" fill="#1e1f1f" d="M522.5 527.5c.657 25.689-.009 51.022-2 76-.657-25.689.009-51.022 2-76Z"/><path style="opacity:1" fill="#bebfbf" d="M522.5 527.5h12c.166 10.339 0 20.672-.5 31l-2 2-1 50-9 7c-.5 15.663-.667 31.33-.5 47h-1v-61c1.991-24.978 2.657-50.311 2-76Z"/><path style="opacity:1" fill="#fefefe" d="M534.5 527.5h20c.167 44.335 0 88.668-.5 133a15.83 15.83 0 0 1-5.5 3.5c-8.994.5-17.994.666-27 .5-.167-15.67 0-31.337.5-47l9-7 1-50 2-2c.5-10.328.666-20.661.5-31Z"/><path style="opacity:1" fill="#91979a" d="M554.5 527.5c.999 45.83 1.332 91.83 1 138-11.845.328-23.512-.005-35-1h1c9.006.166 18.006 0 27-.5a15.83 15.83 0 0 0 5.5-3.5c.5-44.332.667-88.665.5-133Z"/><path style="opacity:1" fill="#808689" d="M332.5 525.5a30.233 30.233 0 0 0 3 3.5c26.331.5 52.665.667 79 .5.323 6.19-.01 12.19-1 18v-17h-53c-7.852-.325-15.518.008-23 1-2.249-.58-3.915-1.913-5-4v-2Z"/><path style="opacity:1" fill="#bdbdbd" d="M337.5 531.5c7.482-.992 15.148-1.325 23-1 .453.958 1.119 1.792 2 2.5a169.242 169.242 0 0 0 22 11l9 7a35.323 35.323 0 0 1 9.5 4.5c1.488-1.66 3.321-2.66 5.5-3-3.81 5.154-8.476 9.154-14 12a935.544 935.544 0 0 0-41-23.5 18.778 18.778 0 0 1-5.5-4.5c-1.049 1.017-2.216 1.184-3.5.5-1.631-2.805-3.964-4.638-7-5.5Z"/><path style="opacity:1" fill="#fdfdfd" d="M360.5 530.5h53v17c-1.361 2.027-3.027 3.694-5 5-2.179.34-4.012 1.34-5.5 3a35.323 35.323 0 0 0-9.5-4.5l-9-7a169.242 169.242 0 0 1-22-11c-.881-.708-1.547-1.542-2-2.5Z"/><path style="opacity:1" fill="#1c1c1c" d="M469.5 531.5a1305.236 1305.236 0 0 1 0 102c-.667 0-1 .333-1 1a57.829 57.829 0 0 1-8 2.5c-3.574 3.951-7.907 6.618-13 8a204.837 204.837 0 0 1-36 20.5c-5.667 1.333-11.333 1.333-17 0a8.43 8.43 0 0 1-4-.5 26.77 26.77 0 0 0-8-4.5 72.367 72.367 0 0 1 .5-12l80-80a649.562 649.562 0 0 1 1.5-35c.667 0 1-.333 1-1 1.068-.934 2.401-1.268 4-1Z"/><path style="opacity:1" fill="#c8cccc" d="M232.5 565.5a380.934 380.934 0 0 1-39 1v31c-.994-10.487-1.328-21.154-1-32h40Z"/><path style="opacity:1" fill="#6e767a" d="M310.5 565.5c.995 10.821 1.328 21.821 1 33h-41a400.456 400.456 0 0 1 40-1v-32Z"/><path style="opacity:1" fill="#1c1c1c" d="M186.5 605.5h19c-.167 14.337 0 28.671.5 43l1.5 1.5a763.329 763.329 0 0 0 49 28c3.603 3.655 7.936 5.988 13 7 9.342 6.013 18.675 12.013 28 18a24.569 24.569 0 0 0 8 3 201.636 201.636 0 0 1 27 17l10 4c1.374 3.683 4.041 5.349 8 5a1310.348 1310.348 0 0 1 44 26c6.09 1.92 12.09 1.587 18-1a78.988 78.988 0 0 0 14-9l10-4c4.933-4.604 10.6-7.938 17-10l4-4a1462.298 1462.298 0 0 0 31-16.5 499.363 499.363 0 0 1 63 0 22.296 22.296 0 0 1-5 3.5l1 1a118.288 118.288 0 0 0-17 7.5 10.756 10.756 0 0 0-2.5 3l-1-1c-1.049 1.607-2.549 2.273-4.5 2v3h-6v3h-5v3c-2.524-.071-4.524.929-6 3-2.12-1.372-3.12-.705-3 2a12.93 12.93 0 0 0-5 .5 101.657 101.657 0 0 0-10 7.5 9.108 9.108 0 0 1-5 1v3c-2.51-.446-4.51.22-6 2-2.216.703-4.049 2.036-5.5 4-1.813-1.109-2.646-.442-2.5 2a12.93 12.93 0 0 0-5 .5c-1.497 1.871-3.497 2.871-6 3-1.307 2.324-3.307 3.657-6 4l2 1a12.93 12.93 0 0 1-5 .5v3a9.86 9.86 0 0 0-6 1 35.217 35.217 0 0 1-8 4v3h-6v3h-6v3a8.43 8.43 0 0 0-4 .5l-5 5c-1.284.684-2.451.517-3.5-.5-1.263 2.968-3.263 3.968-6 3a2.428 2.428 0 0 0-.5 2h-12c-.507-1.359-1.507-2.359-3-3a137.913 137.913 0 0 0-11-4v-3c-2.133-1.386-5.133-2.386-9-3v-3h-5v-3c-3.005.247-5.505-.753-7.5-3l-1 1a4.934 4.934 0 0 1-.5-3h-6v-3h-5v-3h-6v-3c-5.922-1.727-11.089-4.727-15.5-9-.718.951-1.551 1.117-2.5.5 1.333-.667 1.333-1.333 0-2a12.93 12.93 0 0 0-5-.5v-3a58.97 58.97 0 0 1-11-3v-3c-8.654-3.265-16.321-6.932-23-11v-3h-6v-3h-5v-3a8.43 8.43 0 0 1-4-.5c-4.85-3.699-10.184-6.199-16-7.5v-3h-6v-3c-2.092-.061-3.592-1.061-4.5-3-1.299.466-2.799.466-4.5 0v-3c-1.788.285-3.455-.048-5-1-2.158-3.144-5.158-4.477-9-4v-3a12.93 12.93 0 0 1-5-.5c-2.625-3.031-6.125-5.864-10.5-8.5-2.537.677-4.537-.323-6-3l-1 1c-1.667-1-3-2.333-4-4-1.049 1.017-2.216 1.184-3.5.5l1-1a15.645 15.645 0 0 1-4-2.5c-1-24.991-1.333-49.991-1-75Z"/><path style="opacity:1" fill="#bdbdbd" d="M205.5 605.5c7.852-.325 15.518.008 23 1h-11c-.167 12.005 0 24.005.5 36a46.99 46.99 0 0 0 10.5 5.5l4 4a90.42 90.42 0 0 0 14 6 77.598 77.598 0 0 0 23 13l4 4 10 4c4.933 4.604 10.6 7.938 17 10 3.574 3.951 7.907 6.618 13 8 5.329 5.535 11.662 9.035 19 10.5.664 4.663 3.33 6.663 8 6 6.62 3.069 12.953 6.903 19 11.5 5.325 1.003 9.658 3.67 13 8l9 3c2.457 3.058 5.457 5.392 9 7a97.288 97.288 0 0 1 12 5.5 115.786 115.786 0 0 1 25-13.5c5.809-4.454 12.142-8.121 19-11 3.31-3.497 7.31-5.83 12-7 4.159-2.341 7.826-5.175 11-8.5h1c.011 1.517.677 2.684 2 3.5 5.516.173 10.849.673 16 1.5a1462.298 1462.298 0 0 1-31 16.5l-4 4c-6.4 2.062-12.067 5.396-17 10l-10 4a78.988 78.988 0 0 1-14 9c-5.91 2.587-11.91 2.92-18 1a1310.348 1310.348 0 0 0-44-26c-3.959.349-6.626-1.317-8-5l-10-4a201.636 201.636 0 0 0-27-17 24.569 24.569 0 0 1-8-3 29132.368 29132.368 0 0 1-28-18c-5.064-1.012-9.397-3.345-13-7a763.329 763.329 0 0 1-49-28l-1.5-1.5a924.222 924.222 0 0 1-.5-43ZM291.5 606.5a14.698 14.698 0 0 0 3 3.5 1062.338 1062.338 0 0 0 38 21.5v13a935.96 935.96 0 0 0-29-15.5c-4.758-4.768-10.425-7.768-17-9a36.569 36.569 0 0 1-10-7.5v-7a61.281 61.281 0 0 1 15 1Z"/><path style="opacity:1" fill="#fdfdfd" d="M228.5 606.5c-.167 12.671 0 25.338.5 38a11.333 11.333 0 0 0 1.5 3.5c14.667.667 29.333.667 44 0l1.5-1.5c.5-11.328.667-22.662.5-34a36.569 36.569 0 0 0 10 7.5c6.575 1.232 12.242 4.232 17 9a935.96 935.96 0 0 1 29 15.5v63c-7.338-1.465-13.671-4.965-19-10.5-5.093-1.382-9.426-4.049-13-8-6.4-2.062-12.067-5.396-17-10l-10-4-4-4a77.598 77.598 0 0 1-23-13 90.42 90.42 0 0 1-14-6l-4-4a46.99 46.99 0 0 1-10.5-5.5 647.854 647.854 0 0 1-.5-36h11Z"/><path style="opacity:1" fill="#bcbcbc" d="M468.5 634.5c.983 3.798 1.317 7.798 1 12a1115.716 1115.716 0 0 1-32 18.5c7.511.171 14.845.671 22 1.5a576.628 576.628 0 0 1-48-1 204.837 204.837 0 0 0 36-20.5c5.093-1.382 9.426-4.049 13-8a57.829 57.829 0 0 0 8-2.5Z"/><path style="opacity:1" fill="#8b9194" d="M468.5 634.5c0-.667.333-1 1-1a1406.593 1406.593 0 0 1 1 75h-1v-62c.317-4.202-.017-8.202-1-12Z"/><path style="opacity:1" fill="#fdfdfd" d="M469.5 646.5v62c-3.174 3.325-6.841 6.159-11 8.5-4.69 1.17-8.69 3.503-12 7-6.858 2.879-13.191 6.546-19 11a115.786 115.786 0 0 0-25 13.5 97.288 97.288 0 0 0-12-5.5c-3.543-1.608-6.543-3.942-9-7l-9-3c-3.342-4.33-7.675-6.997-13-8-6.047-4.597-12.38-8.431-19-11.5 39.668.167 79.335 0 119-.5a6.978 6.978 0 0 0 3.5-2.5c.667-14 .667-28 0-42-.816-1.323-1.983-1.989-3.5-2a238.217 238.217 0 0 0-22-1.5 1115.716 1115.716 0 0 0 32-18.5Z"/><path style="opacity:1" fill="#b0b1b2" d="M382.5 660.5a26.77 26.77 0 0 1 8 4.5 8.43 8.43 0 0 0 4 .5c-3.798.983-7.798 1.317-12 1v-6Z"/><path style="opacity:1" fill="#5d656a" d="M377.5 673.5h79c.328 10.846-.006 21.513-1 32v-31c-26.172.331-52.172-.002-78-1Z"/><path style="opacity:1" fill="#c9cccd" d="M340.5 688.5c.988 5.14 1.321 10.474 1 16h114v1h-115v-17Z"/><path style="opacity:1" fill="#1b1c1b" d="M476.5 757.5c1.333.667 1.333.667 0 0Z"/></svg>