<?xml version="1.0" encoding="UTF-8"?><svg xmlns="http://www.w3.org/2000/svg" width="800" height="800" style="shape-rendering:geometricPrecision;text-rendering:geometricPrecision;image-rendering:optimizeQuality;fill-rule:evenodd;clip-rule:evenodd"><path style="opacity:1" fill="#f6c5d3" d="M576.5-.5h9a2.429 2.429 0 0 0 .5 2c1.049-1.017 2.216-1.184 3.5-.5a20.495 20.495 0 0 0 2.5 3.5c1.356-.88 2.856-1.214 4.5-1v3c2.822 1.432 6.489 2.432 11 3v3c2.092.061 3.592 1.061 4.5 3 2.537-.677 4.537.323 6 3 2.361-.566 4.194.434 5.5 3l2-1c.35 2.067 2.017 3.067 5 3v3h6v3h5v3h6v3a27.247 27.247 0 0 0 9 3c-.219 1.175.114 2.175 1 3a6.846 6.846 0 0 1 4-1v3a8.435 8.435 0 0 1 4 .5c-1.154.914-.987 1.747.5 2.5 1.299-.466 2.799-.466 4.5 0v3h6v3h5v3a428.986 428.986 0 0 0 20 8.5l-2 1c2.522.61 4.522 1.943 6 4 1.634.493 3.301.66 5 .5v3c2.908-.238 5.242.762 7 3 .951-.826 1.951-.992 3-.5l-1 1a6.977 6.977 0 0 1 3.5 2.5l1-1c.483.948.649 1.948.5 3h6v3h5v3c1.951-.273 3.451.393 4.5 2l1-1c6 4.386 12.5 7.886 19.5 10.5l-1 1c1.525 1.009 3.192 1.509 5 1.5v3a2310.973 2310.973 0 0 0-52 0 229.306 229.306 0 0 1-28-16.5c-3.415-.406-6.082-2.072-8-5a161.879 161.879 0 0 1-33-19c-6.4-2.062-12.067-5.396-17-10a1126.1 1126.1 0 0 0-31-16c-2.365-3.714-5.698-5.714-10-6-7.082-6.364-15.416-9.031-25-8a12271.425 12271.425 0 0 1-129 74 54.507 54.507 0 0 0-6 6.5c-7.615-.103-15.949-.103-25 0a1199.924 1199.924 0 0 1 33-19.5c.837-1.011 1.17-2.178 1-3.5 4.493-.216 7.993-2.216 10.5-6 1.011.837 2.178 1.17 3.5 1v-3a59.031 59.031 0 0 0 11-3v-3c1.808.009 3.475-.491 5-1.5l-1-1a12.935 12.935 0 0 1 5-.5v-3a9.864 9.864 0 0 0 6-1 35.213 35.213 0 0 1 8-4v-3h6v-3a59.031 59.031 0 0 1 11-3v-3c1.808.009 3.475-.491 5-1.5-1.388-.89-1.222-1.39.5-1.5 2.071 1.167 3.571.5 4.5-2 6.434-2.343 12.767-5.343 19-9v-3a59.031 59.031 0 0 1 11-3 4.934 4.934 0 0 1 .5-3l1 1c1.995-2.247 4.495-3.247 7.5-3v-3h5v-3h6v-3c1.808.009 3.475-.491 5-1.5l-1-1a12.936 12.936 0 0 1 5-.5v-3c3.552.188 6.219-1.145 8-4ZM397.5 103.5c-7.255-.829-13.922-.829-20 0a9834.2 9834.2 0 0 1-140.5-80 138.219 138.219 0 0 1-14.5 1.5c-4.194 3.22-8.86 5.554-14 7a2157.081 2157.081 0 0 1-68 39 55.63 55.63 0 0 1-18 10l-6 5a740.714 740.714 0 0 1-32 17.5c-17.967-.189-35.3-.189-52 0v-3a417.79 417.79 0 0 0 15-7 32.686 32.686 0 0 0 8.5-6l1 1c1.049-1.607 2.549-2.273 4.5-2v-3a59.029 59.029 0 0 1 11-3 4.932 4.932 0 0 1 .5-3l1 1c2.015-3.065 4.515-4.065 7.5-3v-3h5v-3c1.7.16 3.366-.007 5-.5 1.478-2.057 3.478-3.39 6-4l-2-1a18.436 18.436 0 0 1 6-.5v-3a87.51 87.51 0 0 0 14-5v-3h6v-3h5v-3c1.701-.466 3.201-.466 4.5 0 3.279-4.047 7.946-7.047 14-9a18.264 18.264 0 0 0 5-4l1 1c1.049-1.607 2.549-2.273 4.5-2v-3h5v-3h6v-3c4.612-1.195 9.279-2.862 14-5v-3c1.701-.466 3.201-.466 4.5 0 .908-1.939 2.408-2.939 4.5-3v-3h6v-3c1.788.285 3.455-.048 5-1a38.767 38.767 0 0 0 7-4.5 49.25 49.25 0 0 1 14 0c2.025 1.677 4.359 2.677 7 3-1.134 1.016-.801 1.683 1 2l5 1-1 1c2.622 3.073 5.955 4.573 10 4.5v3h6v3c3.191.262 5.858 1.596 8 4a9.864 9.864 0 0 0 6 1v3c3.58 1.22 7.247 2.386 11 3.5l-2 1c2.767.678 4.934 2.178 6.5 4.5l1-1c3.769 1.797 7.102 4.13 10 7a3.942 3.942 0 0 1 2-1c1.482 1.612 3.315 2.612 5.5 3v3h6v3h5v3h6v3a87.51 87.51 0 0 0 14 5v3c1.699-.16 3.366.007 5 .5l-1 1c1.525 1.009 3.192 1.509 5 1.5v3h6v3h5v3c2.985-1.065 5.485-.065 7.5 3l1-1c.483.948.649 1.948.5 3h5v3h6v3c2.133 1.386 5.133 2.386 9 3v3c2.908-.238 5.242.762 7 3l2-1c.35 2.067 2.017 3.067 5 3v3h6v3Z"/><path style="opacity:1" fill="#273339" d="M712.5 103.5a978.66 978.66 0 0 1 36 21.5c2.71 1.747 5.71 2.747 9 3 3.596 3.735 4.929 8.235 4 13.5v215c.322 2.222-.345 4.056-2 5.5a136.068 136.068 0 0 0-15 7.5c-4.656 1.797-8.99 4.297-13 7.5a377.475 377.475 0 0 1-23 12l-5 5a596.651 596.651 0 0 0-57 32.5c-4.253 1.068-7.92 3.235-11 6.5l-4 1a487.024 487.024 0 0 1-25 14.5 801.997 801.997 0 0 1 0-76c-.333 20.677 0 41.344 1 62a4517.965 4517.965 0 0 0 125-72.5 84.545 84.545 0 0 1 18-8.5 7901.316 7901.316 0 0 0-1.5-216 2129.254 2129.254 0 0 1-37.5-21.5c-3.415-.406-6.082-2.072-8-5a91.311 91.311 0 0 1-23-13 457.332 457.332 0 0 0-22-11c-2.508-3.042-5.508-5.376-9-7a457.332 457.332 0 0 1-22-11l-24-15c-3.415-.406-6.082-2.072-8-5a90.401 90.401 0 0 0-14-6c-5.722-6.435-12.722-8.768-21-7-7.36 5.663-15.36 9.996-24 13-3.619 3.977-7.952 6.644-13 8-2.537 2.546-5.537 4.212-9 5l-4 4-10 4a2551.356 2551.356 0 0 0-60 36 7185.005 7185.005 0 0 1 26 16 114.065 114.065 0 0 0 14 6c4.2 3.6 8.867 6.433 14 8.5a684.54 684.54 0 0 1 19-8.5 43.593 43.593 0 0 1 13-8c2.365-3.714 5.698-5.714 10-6a705.673 705.673 0 0 1 21-12c4.719-2.307 9.719-2.974 15-2a113.107 113.107 0 0 0 28 15l5 5a182.852 182.852 0 0 1 35 20 193.115 193.115 0 0 1 32 19 197.694 197.694 0 0 1 17 8 36.078 36.078 0 0 1 3.5 4.5c1.657 49.25 1.99 98.584 1 148-5.181 6.173-11.681 10.34-19.5 12.5a12318.477 12318.477 0 0 1-28 18c-6.381 2.027-12.048 5.361-17 10-6.943 1.604-12.943 4.937-18 10a27.603 27.603 0 0 0-5 1.5v-15c5.393-1.08 10.059-3.58 14-7.5a383.382 383.382 0 0 0 40-21.5c7-3.473 13.667-7.64 20-12.5a8.43 8.43 0 0 1 4-.5c1.333-28 1.333-56 0-84-1.23-1.797-1.896-3.797-2-6v-42c.256-2.292-.077-4.459-1-6.5a271.23 271.23 0 0 0-20-10.5c-.453-.958-1.119-1.792-2-2.5a59.284 59.284 0 0 1-13-6.5l-34-19a35.406 35.406 0 0 0-7-5.5 478.277 478.277 0 0 1-22-11 202.24 202.24 0 0 0-16-10.5 775.918 775.918 0 0 0-46 26 287.166 287.166 0 0 0-20 10.5 42.479 42.479 0 0 1-13 0 196.639 196.639 0 0 1-17-9.5 1400.956 1400.956 0 0 1-41-24.5c-2.83-2.635-4.496-5.801-5-9.5a54.507 54.507 0 0 1 6-6.5 12271.425 12271.425 0 0 0 129-74c9.584-1.031 17.918 1.636 25 8 4.302.286 7.635 2.286 10 6a1126.1 1126.1 0 0 1 31 16c4.933 4.604 10.6 7.938 17 10a161.879 161.879 0 0 0 33 19c1.918 2.928 4.585 4.594 8 5 9.007 6.2 18.341 11.7 28 16.5Z"/><path style="opacity:1" fill="#283439" d="M377.5 103.5a362.379 362.379 0 0 0 34 19.5 446.706 446.706 0 0 0 25 14.5c2.698 1.178 5.031 3.011 7 5.5a90.42 90.42 0 0 0 14 6l4 4a26.803 26.803 0 0 0 10 4.5 111.52 111.52 0 0 1 14 9 37.79 37.79 0 0 1 10 6 146.875 146.875 0 0 0-23 1c.237-1.291-.096-2.291-1-3a567.034 567.034 0 0 1-45-25.5c-5.662-.917-10.329-3.583-14-8-5.086-1.414-9.419-4.081-13-8a546.6 546.6 0 0 0-35-18 108.394 108.394 0 0 1-19-13 1516.16 1516.16 0 0 1-91-52A228.066 228.066 0 0 0 230 34.5 112.066 112.066 0 0 0 206.5 48l-10 4-3 3c-6.771 2.445-12.771 6.111-18 11l-10 4-4 4a520.666 520.666 0 0 0-59 34l-9 3c-2.508 3.042-5.508 5.376-9 7a583.92 583.92 0 0 1-36 19 7827.247 7827.247 0 0 0-.5 216.5 7214.146 7214.146 0 0 0 125 72c.5-21.664.667-43.331.5-65a340.197 340.197 0 0 0-18-8.5 55.63 55.63 0 0 0-18-10 78.488 78.488 0 0 0-23-13 56.965 56.965 0 0 0-10.5-7.5 2946.23 2946.23 0 0 1 1-153 230.435 230.435 0 0 0 32.5-19.5c8.372-3.019 16.038-7.352 23-13 5.093-1.382 9.426-4.049 13-8a90.42 90.42 0 0 0 14-6c1.918-2.928 4.585-4.594 8-5a226.438 226.438 0 0 1 29-17 42.498 42.498 0 0 1 13 0l4 4a154.79 154.79 0 0 0 13 6 1081.768 1081.768 0 0 0 33 20l4 1c8.98 5.636 17.98 11.302 27 17 7.27 1.913 13.604 5.58 19 11 4.75 1.03 8.75 3.363 12 7l10 4c.881.708 1.547 1.542 2 2.5a159.11 159.11 0 0 0-24 1c.237-1.291-.096-2.291-1-3a115.45 115.45 0 0 0-11-5 72.111 72.111 0 0 0-17-10 1988.442 1988.442 0 0 0-33-19 722.332 722.332 0 0 1-28-17.5c-5.603-1.533-10.436-4.366-14.5-8.5-2.09.652-4.257.819-6.5.5a457.615 457.615 0 0 1-42 25.5 453.85 453.85 0 0 0-33 19c-2.386.873-4.386 2.373-6 4.5a24.569 24.569 0 0 1-8 3c-.881.708-1.547 1.542-2 2.5a8.43 8.43 0 0 0-4 .5c-5.677 4.879-11.677 9.045-18 12.5-.992 7.482-1.325 15.148-1 23v83c-.327 10.181.006 20.181 1 30 4.925 1.48 9.259 3.98 13 7.5a114.09 114.09 0 0 0 12 5.5c1.236 2.328 3.236 3.494 6 3.5 2.674 3.012 6.007 4.678 10 5a82.15 82.15 0 0 0 22 13c4.419 2.242 7.086 5.742 8 10.5.167 22.336 0 44.669-.5 67-1.232 2.8-1.899 5.8-2 9-2.909 2.894-6.409 3.727-10.5 2.5a539.733 539.733 0 0 0-24-13.5 7469.927 7469.927 0 0 1-92-53.5 31.91 31.91 0 0 1-6-1.5 18.489 18.489 0 0 0-2-3.5l-9.5-5.5a212.197 212.197 0 0 1-1.5-34v-189c.19-3.485 1.19-6.651 3-9.5 3.29-.253 6.29-1.253 9-3 12.03-7.167 24.03-14.333 36-21.5a740.714 740.714 0 0 0 32-17.5l6-5a55.63 55.63 0 0 0 18-10c22.924-12.6 45.591-25.6 68-39 5.14-1.446 9.806-3.78 14-7 4.872-.246 9.705-.746 14.5-1.5a9834.2 9834.2 0 0 0 140.5 80Z"/><path style="opacity:1" fill="#fdfdfd" d="M471.5 170.5c-35.985 1.994-72.318 2.66-109 2h-1c-.453-.958-1.119-1.792-2-2.5l-10-4c-3.25-3.637-7.25-5.97-12-7-5.396-5.42-11.73-9.087-19-11a10892.14 10892.14 0 0 0-27-17l-4-1a1081.768 1081.768 0 0 1-33-20 154.79 154.79 0 0 1-13-6l-4-4a42.498 42.498 0 0 0-13 0 226.438 226.438 0 0 0-29 17c-3.415.406-6.082 2.072-8 5a90.42 90.42 0 0 1-14 6c-3.574 3.951-7.907 6.618-13 8-6.962 5.648-14.628 9.981-23 13a230.435 230.435 0 0 1-32.5 19.5 2946.23 2946.23 0 0 0-1 153 56.965 56.965 0 0 1 10.5 7.5 78.488 78.488 0 0 1 23 13 55.63 55.63 0 0 1 18 10 340.197 340.197 0 0 1 18 8.5c.167 21.669 0 43.336-.5 65a7214.146 7214.146 0 0 1-125-72 7827.247 7827.247 0 0 1 .5-216.5 583.92 583.92 0 0 0 36-19c3.492-1.624 6.492-3.958 9-7l9-3a520.666 520.666 0 0 1 59-34l4-4 10-4c5.229-4.889 11.229-8.555 18-11l3-3 10-4A112.066 112.066 0 0 1 230 34.5 228.066 228.066 0 0 1 254.5 46a1516.16 1516.16 0 0 0 91 52 108.394 108.394 0 0 0 19 13 546.6 546.6 0 0 1 35 18c3.581 3.919 7.914 6.586 13 8 3.671 4.417 8.338 7.083 14 8a567.034 567.034 0 0 0 45 25.5Z"/><path style="opacity:1" fill="#fdfefe" d="M606.5 372.5v-1a27.603 27.603 0 0 1 5-1.5c5.057-5.063 11.057-8.396 18-10 4.952-4.639 10.619-7.973 17-10 9.313-5.969 18.646-11.969 28-18 7.819-2.16 14.319-6.327 19.5-12.5.99-49.416.657-98.75-1-148a36.078 36.078 0 0 0-3.5-4.5 197.694 197.694 0 0 0-17-8 193.115 193.115 0 0 0-32-19 182.852 182.852 0 0 0-35-20l-5-5a113.107 113.107 0 0 1-28-15c-5.281-.974-10.281-.307-15 2a705.673 705.673 0 0 0-21 12c-4.302.286-7.635 2.286-10 6a43.593 43.593 0 0 0-13 8 684.54 684.54 0 0 0-19 8.5 50.162 50.162 0 0 1-14-8.5 114.065 114.065 0 0 1-14-6 7185.005 7185.005 0 0 0-26-16 2551.356 2551.356 0 0 1 60-36l10-4 4-4c3.463-.788 6.463-2.454 9-5 5.048-1.356 9.381-4.023 13-8 8.64-3.004 16.64-7.337 24-13 8.278-1.768 15.278.565 21 7a90.401 90.401 0 0 1 14 6c1.918 2.928 4.585 4.594 8 5l24 15a457.332 457.332 0 0 0 22 11c3.492 1.624 6.492 3.958 9 7a457.332 457.332 0 0 1 22 11 91.311 91.311 0 0 0 23 13c1.918 2.928 4.585 4.594 8 5a2129.254 2129.254 0 0 0 37.5 21.5 7901.316 7901.316 0 0 1 1.5 216 84.545 84.545 0 0 0-18 8.5 4517.965 4517.965 0 0 1-125 72.5 961.621 961.621 0 0 1-1-62Z"/><path style="opacity:1" fill="#f3c9d0" d="M84.5 103.5c-11.97 7.167-23.97 14.333-36 21.5-2.71 1.747-5.71 2.747-9 3-1.81 2.849-2.81 6.015-3 9.5h-30c.098-7.651.098-15.151 0-22.5a169.104 169.104 0 0 0 15-5.5v-3a58.967 58.967 0 0 0 11-3c16.7-.189 34.033-.189 52 0Z"/><path style="opacity:1" fill="#f1c8cf" d="M397.5 103.5h3c9.051-.103 17.385-.103 25 0 .504 3.699 2.17 6.865 5 9.5a1400.956 1400.956 0 0 0 41 24.5h-35a446.706 446.706 0 0 1-25-14.5 362.379 362.379 0 0 1-34-19.5c6.078-.829 12.745-.829 20 0Z"/><path style="opacity:1" fill="#f3c9d0" d="M764.5 103.5h6v3h5v3c2.041.354 3.874.354 5.5 0 .483.948.649 1.948.5 3 2.836 1.276 5.836 1.942 9 2 1.783 7.506 2.45 15.172 2 23h-30c.268 1.599-.066 2.932-1 4 .929-5.265-.404-9.765-4-13.5-3.29-.253-6.29-1.253-9-3a978.66 978.66 0 0 0-36-21.5c17.665-.195 34.998-.195 52 0Z"/><path style="opacity:1" fill="#f0cacd" d="M275.5 136.5a1035.884 1035.884 0 0 1-91 0 457.615 457.615 0 0 0 42-25.5c2.243.319 4.41.152 6.5-.5 4.064 4.134 8.897 6.967 14.5 8.5a722.332 722.332 0 0 0 28 17.5ZM612.5 137.5c-30.468.07-60.801-.263-91-1a775.918 775.918 0 0 1 46-26 202.24 202.24 0 0 1 16 10.5 478.277 478.277 0 0 0 22 11 35.406 35.406 0 0 1 7 5.5Z"/><path style="opacity:1" fill="#eecfcb" d="M184.5 136.5a1035.884 1035.884 0 0 0 91 0 1988.442 1988.442 0 0 1 33 19 3082.395 3082.395 0 0 1-157 0 453.85 453.85 0 0 1 33-19Z"/><path style="opacity:1" fill="#edcecb" d="M521.5 136.5c30.199.737 60.532 1.07 91 1l34 19a7659.168 7659.168 0 0 0-175 1 26.803 26.803 0 0 1-10-4.5l-4-4a90.42 90.42 0 0 1-14-6c-1.969-2.489-4.302-4.322-7-5.5h35a196.639 196.639 0 0 0 17 9.5c4.333.667 8.667.667 13 0a287.166 287.166 0 0 1 20-10.5Z"/><path style="opacity:1" fill="#eed0cb" d="M6.5 137.5h30v28h-30v-28Z"/><path style="opacity:1" fill="#ebcec9" d="M792.5 137.5v28h-30v29c.268 1.599-.066 2.932-1 4v-57c.934-1.068 1.268-2.401 1-4h30Z"/><path style="opacity:1" fill="#ebd2c8" d="M151.5 155.5a3082.395 3082.395 0 0 0 157 0 72.111 72.111 0 0 1 17 10h-190c.453-.958 1.119-1.792 2-2.5a24.569 24.569 0 0 0 8-3c1.614-2.127 3.614-3.627 6-4.5ZM646.5 156.5a59.284 59.284 0 0 0 13 6.5c.881.708 1.547 1.542 2 2.5a7747.008 7747.008 0 0 0-176 1 111.52 111.52 0 0 0-14-9 7659.168 7659.168 0 0 1 175-1Z"/><path style="opacity:1" fill="#e8d7c4" d="M6.5 165.5h30v29a349.799 349.799 0 0 0-30 0v-29Z"/><path style="opacity:1" fill="#e6d2c2" d="M135.5 165.5h190a115.45 115.45 0 0 1 11 5 2476.178 2476.178 0 0 1-122 2.5c-2.781.522-5.115 1.689-7 3.5-5.804 2.233-10.47 5.9-14 11-.283-.789-.783-1.456-1.5-2-25.762.528-51.596.861-77.5 1a16.873 16.873 0 0 1-1-8c6.323-3.455 12.323-7.621 18-12.5a8.43 8.43 0 0 1 4-.5Z"/><path style="opacity:1" fill="#e6d3c3" d="M485.5 166.5a7747.008 7747.008 0 0 1 176-1 271.23 271.23 0 0 1 20 10.5c.923 2.041 1.256 4.208 1 6.5-.934 1.068-1.268 2.401-1 4-25.884-.097-51.717-.43-77.5-1-.995.566-1.828 1.233-2.5 2-5.662-7.794-13.328-12.628-23-14.5-27.665-.5-55.331-.667-83-.5a37.79 37.79 0 0 0-10-6Z"/><path style="opacity:1" fill="#e8d7c4" d="M792.5 165.5v29a349.799 349.799 0 0 0-30 0v-29h30Z"/><path style="opacity:1" fill="#595453" d="M336.5 170.5c.904.709 1.237 1.709 1 3-40.668-.167-81.335 0-122 .5a110.146 110.146 0 0 1-8 2.5c1.885-1.811 4.219-2.978 7-3.5 41.012.162 81.679-.671 122-2.5Z"/><path style="opacity:1" fill="#5d6164" d="M471.5 170.5c.904.709 1.237 1.709 1 3a3026.14 3026.14 0 0 1-110-1c36.682.66 73.015-.006 109-2Z"/><path style="opacity:1" fill="#1e1f23" d="M361.5 172.5h1a3026.14 3026.14 0 0 0 110 1 146.875 146.875 0 0 1 23-1c27.669-.167 55.335 0 83 .5 9.672 1.872 17.338 6.706 23 14.5 1.681 3.407 3.347 6.741 5 10v175a801.997 801.997 0 0 0 0 76v80c1.268 12.19-2.065 22.857-10 32-.667 0-1 .333-1 1a5.576 5.576 0 0 0-3 1c-1.258-3.71-1.258-7.377 0-11l1-2a52.828 52.828 0 0 0 4-9 8.43 8.43 0 0 0 .5 4 20.64 20.64 0 0 0 2-6c.667-111.667.667-223.333 0-335-.124-2.751-.957-4.418-2.5-5h-1c-3.328-8.82-9.661-14.32-19-16.5a840.27 840.27 0 0 0-41-.5h-278c-14.337-.167-28.671 0-43 .5-.916.278-1.582.778-2 1.5-7.655 2.823-12.821 8.156-15.5 16a29397.801 29397.801 0 0 0 0 343c2.626 5.441 6.126 10.107 10.5 14-3.356.635-6.689 1.635-10 3-4.83-4.659-7.83-10.325-9-17-.167-114.334 0-228.667.5-343a10.098 10.098 0 0 0 1.5-6c.104-2.203.77-4.203 2-6 3.53-5.1 8.196-8.767 14-11a110.146 110.146 0 0 0 8-2.5c40.665-.5 81.332-.667 122-.5a159.11 159.11 0 0 1 24-1Z"/><path style="opacity:1" fill="#959ba0" d="M258.5 181.5v1a561.604 561.604 0 0 0-45 1c.418-.722 1.084-1.222 2-1.5 14.329-.5 28.663-.667 43-.5Z"/><path style="opacity:1" fill="#fbdd7e" d="M476.5 181.5h60c.256 3.769-.077 7.436-1 11-.958.453-1.792 1.119-2.5 2a6494.98 6494.98 0 0 0-.5 114c-9.672.166-19.339 0-29-.5-11.503-12.658-18.503-27.492-21-44.5-.626-23.147-1.293-46.147-2-69-.787-1.604-2.12-2.271-4-2v-11Z"/><path style="opacity:1" fill="#eaf1f4" d="M258.5 182.5v10c-1.88-.271-3.213.396-4 2-.667 0-1 .333-1 1a25446.204 25446.204 0 0 0-1 319c-2.559-.302-4.893.032-7 1-.958.453-1.792 1.119-2.5 2a799.793 799.793 0 0 0-.5 40 298.696 298.696 0 0 1-34-1c-4.374-3.893-7.874-8.559-10.5-14a29397.801 29397.801 0 0 1 0-343c2.679-7.844 7.845-13.177 15.5-16a561.604 561.604 0 0 1 45-1Z"/><path style="opacity:1" fill="#f9db7d" d="M258.5 181.5h60v11c-1.322-.17-2.489.163-3.5 1a911.57 911.57 0 0 1-3 78c-4.117 13.738-10.95 25.905-20.5 36.5-9.661.5-19.328.666-29 .5.167-38.001 0-76.001-.5-114-.816-1.323-1.983-1.989-3.5-2v-11Z"/><path style="opacity:1" fill="#a9b0b9" d="M318.5 181.5h158v11c-1.699.027-3.033.694-4 2a772.829 772.829 0 0 0-.5 68c.232 1.237.732 2.237 1.5 3 3.209 17.817 10.543 33.651 22 47.5-14.729 16.3-22.729 35.466-24 57.5-1.161 14.494-1.328 29.161-.5 44 .671.752 1.504 1.086 2.5 1h2v10c-33.668-.167-67.335 0-101 .5-1.333 2.333-1.333 4.667 0 7 52.835.167 105.502.667 158 1.5v45a371.687 371.687 0 0 1-38-1c-3.363-4.02-7.696-6.52-13-7.5a528.986 528.986 0 0 0-46 0c-5.944 1.623-10.277 5.123-13 10.5a10.134 10.134 0 0 1-4-1.5 1200.701 1200.701 0 0 1-48-1.5c-3.3-4.151-7.633-6.485-13-7-15.161-1.161-30.494-1.328-46-.5-1.237.232-2.237.732-3 1.5-4.568 1.902-8.235 4.902-11 9h-34v-47c26.172.331 52.172-.002 78-1 1.493-.812 2.16-2.145 2-4a7.93 7.93 0 0 0-1-3.5c-7.659-.5-15.326-.666-23-.5v-10c1.322.17 2.489-.163 3.5-1a756.122 756.122 0 0 0 0-55c-3.352-17.705-11.185-33.038-23.5-46 11.55-14.1 19.05-30.1 22.5-48 .667-24 .667-48 0-72-1.011-.837-2.178-1.17-3.5-1v-11Z"/><path style="opacity:1" fill="#e9f1f4" d="M536.5 181.5a840.27 840.27 0 0 1 41 .5c9.339 2.18 15.672 7.68 19 16.5a29601.38 29601.38 0 0 1 1 342 52.828 52.828 0 0 1-4 9l-2-66c-.535-1.946-1.868-2.946-4-3l-9-2c3.322-1.158 5.488-3.492 6.5-7a121.19 121.19 0 0 0 0-22c-3.563-5.695-8.73-8.029-15.5-7l-8 .5-5.5 5.5c-.667 8-.667 16 0 24 .715 3.141 2.548 5.141 5.5 6-6.479.991-13.146 1.324-20 1 .333-95.168-.001-190.168-1-285-1.135-1.713-2.802-2.38-5-2 .923-3.564 1.256-7.231 1-11Z"/><path style="opacity:1" fill="#e5d9c1" d="M113.5 178.5a16.873 16.873 0 0 0 1 8c25.904-.139 51.738-.472 77.5-1 .717.544 1.217 1.211 1.5 2-1.23 1.797-1.896 3.797-2 6l-2 2c-.283-.789-.783-1.456-1.5-2h-72c-1.892 2.387-3.058 5.053-3.5 8-.325-7.852.008-15.518 1-23ZM681.5 186.5a32.462 32.462 0 0 1-.5 8l-73-1c-1.188 1.063-1.688 2.397-1.5 4a1012.624 1012.624 0 0 1-5-10c.672-.767 1.505-1.434 2.5-2 25.783.57 51.616.903 77.5 1Z"/><path style="opacity:1" fill="#e2ddbd" d="M682.5 182.5v42a96.301 96.301 0 0 0-2.5-12c-1.333 2.667-2.667 2.667-4 0-1.333 2.667-2.667 2.667-4 0-1.333 2.667-2.667 2.667-4 0-1.333 2.667-2.667 2.667-4 0-1.333 2.667-2.667 2.667-4 0-1.333 2.667-2.667 2.667-4 0-1.333 2.667-2.667 2.667-4 0-1.333 2.667-2.667 2.667-4 0-1.333 2.667-2.667 2.667-4 0-1.333 2.667-2.667 2.667-4 0-1.333 2.667-2.667 2.667-4 0-1.333 2.667-2.667 2.667-4 0-1.333 2.667-2.667 2.667-4 0-1.333 2.667-2.667 2.667-4 0-1.333 2.667-2.667 2.667-4 0-1.333 2.667-2.667 2.667-4 0-1.333 2.667-2.667 2.667-4 0-1.333 2.667-2.667 2.667-4 0-.383.556-.883.889-1.5 1v-16c-.188-1.603.312-2.937 1.5-4l73 1c.497-2.646.664-5.313.5-8-.268-1.599.066-2.932 1-4ZM36.5 194.5v19h-30v-19a349.799 349.799 0 0 1 30 0ZM189.5 195.5a93.307 93.307 0 0 0-1 18c-.996.086-1.829-.248-2.5-1-1.333 2.667-2.667 2.667-4 0-1.333 2.667-2.667 2.667-4 0-1.333 2.667-2.667 2.667-4 0-1.333 2.667-2.667 2.667-4 0-1.333 2.667-2.667 2.667-4 0-1.333 2.667-2.667 2.667-4 0-1.333 2.667-2.667 2.667-4 0-1.333 2.667-2.667 2.667-4 0-1.333 2.667-2.667 2.667-4 0-1.333 2.667-2.667 2.667-4 0-1.333 2.667-2.667 2.667-4 0-1.333 2.667-2.667 2.667-4 0-1.333 2.667-2.667 2.667-4 0-1.333 2.667-2.667 2.667-4 0-1.333 2.667-2.667 2.667-4 0-1.333 2.667-2.667 2.667-4 0-1.333 2.667-2.667 2.667-4 0-.667 2.667-1.333 2.667-2 0a3.647 3.647 0 0 1-1.5 1 36.875 36.875 0 0 0-1 12h-1v-24c.442-2.947 1.608-5.613 3.5-8h72c.717.544 1.217 1.211 1.5 2Z"/><path style="opacity:1" fill="#dedbba" d="M792.5 194.5v19h-30v41h-1v-56c.934-1.068 1.268-2.401 1-4a349.799 349.799 0 0 1 30 0Z"/><path style="opacity:1" fill="#1b1c20" d="M258.5 192.5c1.517.011 2.684.677 3.5 2 .5 37.999.667 75.999.5 114 9.672.166 19.339 0 29-.5 9.55-10.595 16.383-22.762 20.5-36.5a911.57 911.57 0 0 0 3-78c1.011-.837 2.178-1.17 3.5-1 1.322-.17 2.489.163 3.5 1 .667 24 .667 48 0 72-3.45 17.9-10.95 33.9-22.5 48 12.315 12.962 20.148 28.295 23.5 46a756.122 756.122 0 0 1 0 55c-1.011.837-2.178 1.17-3.5 1-1.88.271-3.213-.396-4-2 .167-16.003 0-32.003-.5-48-.198-1.882-.698-3.548-1.5-5-3.417-16.075-10.75-30.075-22-42-9.486-.994-19.152-1.327-29-1v108h57c7.674-.166 15.341 0 23 .5a7.93 7.93 0 0 1 1 3.5c.16 1.855-.507 3.188-2 4h-79v49c11.845.328 23.512-.005 35-1 2.765-4.098 6.432-7.098 11-9a659.804 659.804 0 0 1 49-1c5.367.515 9.7 2.849 13 7-6.813.991-13.813 1.325-21 1-12.178-.328-24.178.005-36 1-3.174.51-5.508 2.177-7 5-.722.418-1.222 1.084-1.5 2-.5 20.664-.667 41.331-.5 62l-1 2c-3.386 1.821-6.053 1.154-8-2v-59h-33v25h-8v-321c.787-1.604 2.12-2.271 4-2Z"/><path style="opacity:1" fill="#1c1d20" d="M476.5 192.5c1.88-.271 3.213.396 4 2-.167 22.669 0 45.336.5 68 .383.556.883.889 1.5 1 2.497 17.008 9.497 31.842 21 44.5 9.661.5 19.328.666 29 .5-.167-38.001 0-76.001.5-114 .708-.881 1.542-1.547 2.5-2 2.198-.38 3.865.287 5 2v285h-7a507.055 507.055 0 0 0-1-45 12436.536 12436.536 0 0 0-158-1.5c-1.333-2.333-1.333-4.667 0-7 33.665-.5 67.332-.667 101-.5h57v-108c-9.848-.327-19.514.006-29 1-11.968 12.267-19.468 26.934-22.5 44l-1 51c-1.11 1.537-2.61 2.203-4.5 2h-2c-.283-.789-.783-1.456-1.5-2a924.222 924.222 0 0 1-.5-43c1.271-22.034 9.271-41.2 24-57.5-11.457-13.849-18.791-29.683-22-47.5a1389.879 1389.879 0 0 1-1-71c.967-1.306 2.301-1.973 4-2Z"/><path style="opacity:1" fill="#cfd4d9" d="M253.5 195.5v320h-8c2.107-.968 4.441-1.302 7-1-.333-106.501.001-212.835 1-319Z"/><path style="opacity:1" fill="#1f2025" d="M217.5 202.5a63.131 63.131 0 0 1 18 1.5 17.842 17.842 0 0 1 4.5 5.5 121.19 121.19 0 0 1 0 22c-1.5 3.5-4 6-7.5 7.5-5 .667-10 .667-15 0a25.55 25.55 0 0 1-6.5-5.5 169.166 169.166 0 0 1 0-26c1.805-2.326 3.972-3.992 6.5-5Z"/><path style="opacity:1" fill="#1f2024" d="M561.5 202.5c21.871-2.943 29.704 6.391 23.5 28-1.072 4.073-3.572 6.907-7.5 8.5-5 .667-10 .667-15 0-2.833-1.5-5-3.667-6.5-6.5a156.422 156.422 0 0 1 0-25 37.84 37.84 0 0 1 5.5-5Z"/><path style="opacity:1" fill="#66696e" d="M596.5 198.5h1c1.33 114.127 1.33 228.127 0 342a29601.38 29601.38 0 0 0-1-342Z"/><path style="opacity:1" fill="#151519" d="M597.5 540.5c1.33-113.873 1.33-227.873 0-342 1.543.582 2.376 2.249 2.5 5 .667 111.667.667 223.333 0 335a20.64 20.64 0 0 1-2 6 8.43 8.43 0 0 1-.5-4Z"/><path style="opacity:1" fill="#dde2b8" d="M188.5 213.5v22c-.996-.086-1.829.248-2.5 1-.667-2.667-1.333-2.667-2 0-.667-2.667-1.333-2.667-2 0-.667-2.667-1.333-2.667-2 0-.667-2.667-1.333-2.667-2 0-.667-2.667-1.333-2.667-2 0-.667-2.667-1.333-2.667-2 0-.667-2.667-1.333-2.667-2 0-.667-2.667-1.333-2.667-2 0-.667-2.667-1.333-2.667-2 0-.667-2.667-1.333-2.667-2 0-.667-2.667-1.333-2.667-2 0-.667-2.667-1.333-2.667-2 0-.667-2.667-1.333-2.667-2 0-.667-2.667-1.333-2.667-2 0-.667-2.667-1.333-2.667-2 0-.667-2.667-1.333-2.667-2 0-.667-2.667-1.333-2.667-2 0-.667-2.667-1.333-2.667-2 0-.667-2.667-1.333-2.667-2 0-.667-2.667-1.333-2.667-2 0-.667-2.667-1.333-2.667-2 0-.667-2.667-1.333-2.667-2 0-.667-2.667-1.333-2.667-2 0-.667-2.667-1.333-2.667-2 0-.667-2.667-1.333-2.667-2 0-.667-2.667-1.333-2.667-2 0-.667-2.667-1.333-2.667-2 0-.667-2.667-1.333-2.667-2 0-.667-2.667-1.333-2.667-2 0-.667-2.667-1.333-2.667-2 0-.667-2.667-1.333-2.667-2 0-.667-2.667-1.333-2.667-2 0-.667-2.667-1.333-2.667-2 0-.667-2.667-1.333-2.667-2 0-.667-2.667-1.333-2.667-2 0-.317-1.801-.984-2.134-2-1a50.464 50.464 0 0 1-.5-10 36.875 36.875 0 0 1 1-12 3.647 3.647 0 0 0 1.5-1c.667 2.667 1.333 2.667 2 0 1.333 2.667 2.667 2.667 4 0 1.333 2.667 2.667 2.667 4 0 1.333 2.667 2.667 2.667 4 0 1.333 2.667 2.667 2.667 4 0 1.333 2.667 2.667 2.667 4 0 1.333 2.667 2.667 2.667 4 0 1.333 2.667 2.667 2.667 4 0 1.333 2.667 2.667 2.667 4 0 1.333 2.667 2.667 2.667 4 0 1.333 2.667 2.667 2.667 4 0 1.333 2.667 2.667 2.667 4 0 1.333 2.667 2.667 2.667 4 0 1.333 2.667 2.667 2.667 4 0 1.333 2.667 2.667 2.667 4 0 1.333 2.667 2.667 2.667 4 0 1.333 2.667 2.667 2.667 4 0 1.333 2.667 2.667 2.667 4 0 .671.752 1.504 1.086 2.5 1ZM682.5 224.5c.104 2.203.77 4.203 2 6v5c-27.554-.226-53.554-.226-78 0v-22c.617-.111 1.117-.444 1.5-1 1.333 2.667 2.667 2.667 4 0 1.333 2.667 2.667 2.667 4 0 1.333 2.667 2.667 2.667 4 0 1.333 2.667 2.667 2.667 4 0 1.333 2.667 2.667 2.667 4 0 1.333 2.667 2.667 2.667 4 0 1.333 2.667 2.667 2.667 4 0 1.333 2.667 2.667 2.667 4 0 1.333 2.667 2.667 2.667 4 0 1.333 2.667 2.667 2.667 4 0 1.333 2.667 2.667 2.667 4 0 1.333 2.667 2.667 2.667 4 0 1.333 2.667 2.667 2.667 4 0 1.333 2.667 2.667 2.667 4 0 1.333 2.667 2.667 2.667 4 0 1.333 2.667 2.667 2.667 4 0 1.333 2.667 2.667 2.667 4 0 1.333 2.667 2.667 2.667 4 0a96.301 96.301 0 0 1 2.5 12ZM6.5 213.5h30v22h-30v-22Z"/><path style="opacity:1" fill="#7dd6da" d="M219.5 211.5a60.931 60.931 0 0 1 11 .5c1.333 6 1.333 12 0 18a60.931 60.931 0 0 1-11 .5v-19Z"/><path style="opacity:1" fill="#7ed9dd" d="M564.5 211.5a60.931 60.931 0 0 1 11 .5c1.333 6 1.333 12 0 18a60.931 60.931 0 0 1-11 .5v-19Z"/><path style="opacity:1" fill="#dde2b8" d="M792.5 213.5v22h-30v-22h30Z"/><path style="opacity:1" fill="#d7e8b2" d="M112.5 225.5h1c-.165 3.35.002 6.683.5 10 1.016-1.134 1.683-.801 2 1 .667-2.667 1.333-2.667 2 0 .667-2.667 1.333-2.667 2 0 .667-2.667 1.333-2.667 2 0 .667-2.667 1.333-2.667 2 0 .667-2.667 1.333-2.667 2 0 .667-2.667 1.333-2.667 2 0 .667-2.667 1.333-2.667 2 0 .667-2.667 1.333-2.667 2 0 .667-2.667 1.333-2.667 2 0 .667-2.667 1.333-2.667 2 0 .667-2.667 1.333-2.667 2 0 .667-2.667 1.333-2.667 2 0 .667-2.667 1.333-2.667 2 0 .667-2.667 1.333-2.667 2 0 .667-2.667 1.333-2.667 2 0 .667-2.667 1.333-2.667 2 0 .667-2.667 1.333-2.667 2 0 .667-2.667 1.333-2.667 2 0 .667-2.667 1.333-2.667 2 0 .667-2.667 1.333-2.667 2 0 .667-2.667 1.333-2.667 2 0 .667-2.667 1.333-2.667 2 0 .667-2.667 1.333-2.667 2 0 .667-2.667 1.333-2.667 2 0 .667-2.667 1.333-2.667 2 0 .667-2.667 1.333-2.667 2 0 .667-2.667 1.333-2.667 2 0 .667-2.667 1.333-2.667 2 0 .667-2.667 1.333-2.667 2 0 .667-2.667 1.333-2.667 2 0 .667-2.667 1.333-2.667 2 0 .667-2.667 1.333-2.667 2 0 .667-2.667 1.333-2.667 2 0 .667-2.667 1.333-2.667 2 0 .667-2.667 1.333-2.667 2 0 .671-.752 1.504-1.086 2.5-1v19c-.981-1.809-2.481-3.143-4.5-4-1.309 2.391-2.309 2.391-3 0-.691 2.391-1.691 2.391-3 0-1.309 2.391-2.309 2.391-3 0-.691 2.391-1.691 2.391-3 0-1.309 2.391-2.309 2.391-3 0-.691 2.391-1.691 2.391-3 0-1.309 2.391-2.309 2.391-3 0-.691 2.391-1.691 2.391-3 0-1.309 2.391-2.309 2.391-3 0-.691 2.391-1.691 2.391-3 0-1.309 2.391-2.309 2.391-3 0-.691 2.391-1.691 2.391-3 0-1.309 2.391-2.309 2.391-3 0-.691 2.391-1.691 2.391-3 0-1.309 2.391-2.309 2.391-3 0-.691 2.391-1.691 2.391-3 0-1.309 2.391-2.309 2.391-3 0-.691 2.391-1.691 2.391-3 0-1.309 2.391-2.309 2.391-3 0-.691 2.391-1.691 2.391-3 0-1.309 2.391-2.309 2.391-3 0-.691 2.391-1.691 2.391-3 0a25.14 25.14 0 0 1-4.5 4h-1v-29Z"/><path style="opacity:1" fill="#d4e5b0" d="M684.5 230.5c1.333 28 1.333 56 0 84v-52a50.464 50.464 0 0 0-.5-10c-.667-1.333-1.333-1.333-2 0-.667-2.667-1.333-2.667-2 0-1.333-2.667-2.667-2.667-4 0-.667-2.667-1.333-2.667-2 0-1.333-2.667-2.667-2.667-4 0-.667-2.667-1.333-2.667-2 0-1.333-2.667-2.667-2.667-4 0-.667-2.667-1.333-2.667-2 0-1.333-2.667-2.667-2.667-4 0-.667-2.667-1.333-2.667-2 0-1.333-2.667-2.667-2.667-4 0-.667-2.667-1.333-2.667-2 0-1.333-2.667-2.667-2.667-4 0-.667-2.667-1.333-2.667-2 0-1.333-2.667-2.667-2.667-4 0-.667-2.667-1.333-2.667-2 0-1.333-2.667-2.667-2.667-4 0-.667-2.667-1.333-2.667-2 0-1.333-2.667-2.667-2.667-4 0-.667-2.667-1.333-2.667-2 0-1.333-2.667-2.667-2.667-4 0-.667-2.667-1.333-2.667-2 0-1.333-2.667-2.667-2.667-4 0-.667-2.667-1.333-2.667-2 0-2.263-2.208-3.929-1.541-5 2-.77-1.098-1.603-1.098-2.5 0v-19c24.446-.226 50.446-.226 78 0v-5Z"/><path style="opacity:1" fill="#d8e8b2" d="M6.5 235.5h30v19a31.535 31.535 0 0 0-4.5-2c-1.326.255-2.326.922-3 2-2-2.667-4-2.667-6 0-2-2.667-4-2.667-6 0-2-2.667-4-2.667-6 0-.725-1.658-1.892-2.158-3.5-1.5 2.432 1.087 2.098 1.587-1 1.5v-19ZM762.5 235.5h30v19a31.505 31.505 0 0 0-4.5-2c-1.326.255-2.326.922-3 2-2-2.667-4-2.667-6 0-2-2.667-4-2.667-6 0-2-2.667-4-2.667-6 0-.725-1.658-1.892-2.158-3.5-1.5 2.432 1.087 2.098 1.587-1 1.5v-19Z"/><path style="opacity:1" fill="#d4ebaf" d="M188.5 254.5v8a1842.015 1842.015 0 0 0-75 0v-8a25.14 25.14 0 0 0 4.5-4c1.309 2.391 2.309 2.391 3 0 .691 2.391 1.691 2.391 3 0 1.309 2.391 2.309 2.391 3 0 .691 2.391 1.691 2.391 3 0 1.309 2.391 2.309 2.391 3 0 .691 2.391 1.691 2.391 3 0 1.309 2.391 2.309 2.391 3 0 .691 2.391 1.691 2.391 3 0 1.309 2.391 2.309 2.391 3 0 .691 2.391 1.691 2.391 3 0 1.309 2.391 2.309 2.391 3 0 .691 2.391 1.691 2.391 3 0 1.309 2.391 2.309 2.391 3 0 .691 2.391 1.691 2.391 3 0 1.309 2.391 2.309 2.391 3 0 .691 2.391 1.691 2.391 3 0 1.309 2.391 2.309 2.391 3 0 .691 2.391 1.691 2.391 3 0 1.309 2.391 2.309 2.391 3 0 .691 2.391 1.691 2.391 3 0 1.309 2.391 2.309 2.391 3 0 .691 2.391 1.691 2.391 3 0 2.019.857 3.519 2.191 4.5 4ZM684.5 262.5c-25.672-1.323-51.672-1.323-78 0v-8c.897-1.098 1.73-1.098 2.5 0 1.071-3.541 2.737-4.208 5-2 .667-2.667 1.333-2.667 2 0 1.333-2.667 2.667-2.667 4 0 .667-2.667 1.333-2.667 2 0 1.333-2.667 2.667-2.667 4 0 .667-2.667 1.333-2.667 2 0 1.333-2.667 2.667-2.667 4 0 .667-2.667 1.333-2.667 2 0 1.333-2.667 2.667-2.667 4 0 .667-2.667 1.333-2.667 2 0 1.333-2.667 2.667-2.667 4 0 .667-2.667 1.333-2.667 2 0 1.333-2.667 2.667-2.667 4 0 .667-2.667 1.333-2.667 2 0 1.333-2.667 2.667-2.667 4 0 .667-2.667 1.333-2.667 2 0 1.333-2.667 2.667-2.667 4 0 .667-2.667 1.333-2.667 2 0 1.333-2.667 2.667-2.667 4 0 .667-2.667 1.333-2.667 2 0 1.333-2.667 2.667-2.667 4 0 .667-2.667 1.333-2.667 2 0 1.333-2.667 2.667-2.667 4 0 .667-2.667 1.333-2.667 2 0 .667-1.333 1.333-1.333 2 0 .498 3.317.665 6.65.5 10Z"/><path style="opacity:1" fill="#d1eeac" d="M36.5 254.5v23c-6.985-.99-13.819-1.323-20.5-1l-1 2c-1.333-4-2.667-4-4 0-.667-2.667-1.333-2.667-2 0-.67-.752-1.504-1.086-2.5-1v-23c3.098.087 3.432-.413 1-1.5 1.608-.658 2.775-.158 3.5 1.5 2-2.667 4-2.667 6 0 2-2.667 4-2.667 6 0 2-2.667 4-2.667 6 0 .674-1.078 1.674-1.745 3-2a31.535 31.535 0 0 1 4.5 2Z"/><path style="opacity:1" fill="#d0eeab" d="M112.5 254.5h1v8c25.176-.509 50.176-.509 75 0v15a56.43 56.43 0 0 1-4.5-1l-2 2a87.783 87.783 0 0 1-5-3c-.605 1.981-1.605 2.315-3 1-1.791 2.013-3.125 2.013-4 0-.875 2.013-2.209 2.013-4 0-1.791 2.013-3.125 2.013-4 0-.875 2.013-2.209 2.013-4 0-1.791 2.013-3.125 2.013-4 0-.875 2.013-2.209 2.013-4 0-1.791 2.013-3.125 2.013-4 0-.875 2.013-2.209 2.013-4 0-1.791 2.013-3.125 2.013-4 0-.875 2.013-2.209 2.013-4 0-1.395 1.315-2.395.981-3-1l-1 2c-.741-1.141-1.575-1.141-2.5 0a4.457 4.457 0 0 1-1.5-2c-.605 1.981-1.605 2.315-3 1-1.791 2.013-3.125 2.013-4 0-.667 2.667-1.333 2.667-2 0-.667 4-1.333 4-2 0a53.956 53.956 0 0 0-2.5 8v-30ZM684.5 262.5v16c-.722-.418-1.222-1.084-1.5-2-.667 2.667-1.333 2.667-2 0l-1 2c-.741-1.141-1.575-1.141-2.5 0-1.017-2.528-2.184-2.528-3.5 0-.667-2.667-1.333-2.667-2 0-2-2.667-4-2.667-6 0-.667-2.667-1.333-2.667-2 0-2-2.667-4-2.667-6 0-.667-2.667-1.333-2.667-2 0-2-2.667-4-2.667-6 0-.667-2.667-1.333-2.667-2 0-2-2.667-4-2.667-6 0-.667-2.667-1.333-2.667-2 0-2-2.667-4-2.667-6 0-.667-2.667-1.333-2.667-2 0-2-2.667-4-2.667-6 0-.667-2.667-1.333-2.667-2 0-1.439-1.514-2.939-1.847-4.5-1-1.041-2.491-1.874-2.491-2.5 0-1.402-2.473-2.902-2.473-4.5 0a7.248 7.248 0 0 1-2.5-2c-.816 1.323-1.983 1.989-3.5 2v-15c26.328-1.323 52.328-1.323 78 0Z"/><path style="opacity:1" fill="#cceaa8" d="M792.5 254.5v23c-1.325 1.453-2.158 1.119-2.5-1l-1 2a87.783 87.783 0 0 0-5-3l-2 2-7-1c-1.309 2.391-2.309 2.391-3 0-.667 2.667-1.333 2.667-2 0l-1 2c-1.857-3.88-3.19-3.546-4 1l-1-3c-1.462 7.158-1.962 14.492-1.5 22v28c.327 10.181-.006 20.181-1 30v-102h1c3.098.087 3.432-.413 1-1.5 1.608-.658 2.775-.158 3.5 1.5 2-2.667 4-2.667 6 0 2-2.667 4-2.667 6 0 2-2.667 4-2.667 6 0 .674-1.078 1.674-1.745 3-2a31.505 31.505 0 0 1 4.5 2Z"/><path style="opacity:1" fill="#1f2125" d="M216.5 262.5c5.676-.166 11.343.001 17 .5a17.842 17.842 0 0 1 5.5 4.5c1.601 7.895 1.934 15.895 1 24-1.281 3.737-3.781 6.237-7.5 7.5a64.218 64.218 0 0 1-16 0l-5.5-5.5a156.422 156.422 0 0 1 0-25c1.36-2.523 3.193-4.523 5.5-6ZM561.5 262.5c5.676-.166 11.343.001 17 .5a17.842 17.842 0 0 1 5.5 4.5c1.601 7.895 1.934 15.895 1 24-1.281 3.737-3.781 6.237-7.5 7.5a64.218 64.218 0 0 1-16 0l-5.5-5.5a156.422 156.422 0 0 1 0-25c1.36-2.523 3.193-4.523 5.5-6Z"/><path style="opacity:1" fill="#7dd6da" d="M219.5 271.5a60.931 60.931 0 0 1 11 .5c1.333 6 1.333 12 0 18a60.931 60.931 0 0 1-11 .5v-19Z"/><path style="opacity:1" fill="#7ed9dd" d="M564.5 271.5a60.931 60.931 0 0 1 11 .5c1.333 6 1.333 12 0 18a60.931 60.931 0 0 1-11 .5v-19Z"/><path style="opacity:1" fill="#caf3a6" d="M188.5 277.5v21a55.78 55.78 0 0 0-4-1 4.457 4.457 0 0 0-1.5 2c-2.071-2.916-3.405-2.582-4 1-.981-3.189-2.314-3.522-4-1-1.512-2.457-2.846-2.457-4 0-1.512-2.457-2.846-2.457-4 0-1.512-2.457-2.846-2.457-4 0-1.512-2.457-2.846-2.457-4 0-2.071-2.916-3.405-2.582-4 1-.981-3.189-2.314-3.522-4-1-1.512-2.457-2.846-2.457-4 0-1.512-2.457-2.846-2.457-4 0-2.071-2.916-3.405-2.582-4 1-.981-3.189-2.314-3.522-4-1-1.512-2.457-2.846-2.457-4 0-1.512-2.457-2.846-2.457-4 0-2.071-2.916-3.405-2.582-4 1-.981-3.189-2.314-3.522-4-1-1.512-2.457-2.846-2.457-4 0l-1-1a72.367 72.367 0 0 0-.5 12v4c-.994-9.819-1.327-19.819-1-30a53.956 53.956 0 0 1 2.5-8c.667 4 1.333 4 2 0 .667 2.667 1.333 2.667 2 0 .875 2.013 2.209 2.013 4 0 1.395 1.315 2.395.981 3-1a4.457 4.457 0 0 0 1.5 2c.925-1.141 1.759-1.141 2.5 0l1-2c.605 1.981 1.605 2.315 3 1 1.791 2.013 3.125 2.013 4 0 .875 2.013 2.209 2.013 4 0 1.791 2.013 3.125 2.013 4 0 .875 2.013 2.209 2.013 4 0 1.791 2.013 3.125 2.013 4 0 .875 2.013 2.209 2.013 4 0 1.791 2.013 3.125 2.013 4 0 .875 2.013 2.209 2.013 4 0 1.791 2.013 3.125 2.013 4 0 .875 2.013 2.209 2.013 4 0 1.395 1.315 2.395.981 3-1a87.783 87.783 0 0 0 5 3l2-2a56.43 56.43 0 0 0 4.5 1ZM684.5 278.5v20c-2.306-1.285-4.139-.618-5.5 2-22-1.333-44-1.333-66 0a7.293 7.293 0 0 1-2-3c-.667 2.667-1.333 2.667-2 0-.671.752-1.504 1.086-2.5 1v-21c1.517-.011 2.684-.677 3.5-2a7.248 7.248 0 0 0 2.5 2c1.598-2.473 3.098-2.473 4.5 0 .626-2.491 1.459-2.491 2.5 0 1.561-.847 3.061-.514 4.5 1 .667-2.667 1.333-2.667 2 0 2-2.667 4-2.667 6 0 .667-2.667 1.333-2.667 2 0 2-2.667 4-2.667 6 0 .667-2.667 1.333-2.667 2 0 2-2.667 4-2.667 6 0 .667-2.667 1.333-2.667 2 0 2-2.667 4-2.667 6 0 .667-2.667 1.333-2.667 2 0 2-2.667 4-2.667 6 0 .667-2.667 1.333-2.667 2 0 2-2.667 4-2.667 6 0 .667-2.667 1.333-2.667 2 0 1.316-2.528 2.483-2.528 3.5 0 .925-1.141 1.759-1.141 2.5 0l1-2c.667 2.667 1.333 2.667 2 0 .278.916.778 1.582 1.5 2Z"/><path style="opacity:1" fill="#cbf3a6" d="M36.5 277.5v21h-30v-21c.996-.086 1.83.248 2.5 1 .667-2.667 1.333-2.667 2 0 1.333-4 2.667-4 4 0l1-2c6.681-.323 13.515.01 20.5 1ZM792.5 277.5v21h-30c-.462-7.508.038-14.842 1.5-22l1 3c.81-4.546 2.143-4.88 4-1l1-2c.667 2.667 1.333 2.667 2 0 .691 2.391 1.691 2.391 3 0l7 1 2-2a87.783 87.783 0 0 1 5 3l1-2c.342 2.119 1.175 2.453 2.5 1Z"/><path style="opacity:1" fill="#323b33" d="M191.5 193.5a10.098 10.098 0 0 1-1.5 6c-.5 114.333-.667 228.666-.5 343-.986-4.47-1.319-9.137-1-14v-315a93.307 93.307 0 0 1 1-18l2-2Z"/><path style="opacity:1" fill="#c7f6a3" d="M188.5 298.5v12c-1.612.952-3.112 1.286-4.5 1-2.328-1.938-4.661-1.605-7 1l-2-2-11 1c-1.309-2.391-2.309-2.391-3 0-.691-2.391-1.691-2.391-3 0-1.938-1.36-3.604-1.027-5 1-1.555-1.646-3.221-1.979-5-1-1.309-2.391-2.309-2.391-3 0-.691-2.391-1.691-2.391-3 0-2.59-.878-4.923-.878-7 0-1.309-2.391-2.309-2.391-3 0-.691-2.391-1.691-2.391-3 0-1.333-1.333-2.667-1.333-4 0l-3-2c-1.566-.561-2.899.106-4 2-1.388.286-2.888-.048-4.5-1a72.367 72.367 0 0 1 .5-12l1 1c1.154-2.457 2.488-2.457 4 0 1.686-2.522 3.019-2.189 4 1 .595-3.582 1.929-3.916 4-1 1.154-2.457 2.488-2.457 4 0 1.154-2.457 2.488-2.457 4 0 1.686-2.522 3.019-2.189 4 1 .595-3.582 1.929-3.916 4-1 1.154-2.457 2.488-2.457 4 0 1.154-2.457 2.488-2.457 4 0 1.686-2.522 3.019-2.189 4 1 .595-3.582 1.929-3.916 4-1 1.154-2.457 2.488-2.457 4 0 1.154-2.457 2.488-2.457 4 0 1.154-2.457 2.488-2.457 4 0 1.154-2.457 2.488-2.457 4 0 1.686-2.522 3.019-2.189 4 1 .595-3.582 1.929-3.916 4-1a4.457 4.457 0 0 1 1.5-2 55.78 55.78 0 0 1 4 1Z"/><path style="opacity:1" fill="#c6f7a2" d="M684.5 298.5v12c-1.89-.203-3.39.463-4.5 2l-2-2c-23.666.668-47.499.668-71.5 0v-12c.996.086 1.829-.248 2.5-1 .667 2.667 1.333 2.667 2 0a7.293 7.293 0 0 0 2 3c22-1.333 44-1.333 66 0 1.361-2.618 3.194-3.285 5.5-2Z"/><path style="opacity:1" fill="#c3f89f" d="M188.5 310.5v16c-1.25-.077-2.083-.744-2.5-2-.667 2.667-1.333 2.667-2 0-.667 2.667-1.333 2.667-2 0-.667 2.667-1.333 2.667-2 0-.667 2.667-1.333 2.667-2 0-.667 2.667-1.333 2.667-2 0-.667 2.667-1.333 2.667-2 0-.667 2.667-1.333 2.667-2 0-.667 2.667-1.333 2.667-2 0-.667 2.667-1.333 2.667-2 0-.667 2.667-1.333 2.667-2 0-.667 2.667-1.333 2.667-2 0-.667 2.667-1.333 2.667-2 0-.667 2.667-1.333 2.667-2 0-.667 2.667-1.333 2.667-2 0-.667 2.667-1.333 2.667-2 0-.667 2.667-1.333 2.667-2 0-.667 2.667-1.333 2.667-2 0-.667 2.667-1.333 2.667-2 0-.667 2.667-1.333 2.667-2 0-.667 2.667-1.333 2.667-2 0-.667 2.667-1.333 2.667-2 0-.667 2.667-1.333 2.667-2 0-.667 2.667-1.333 2.667-2 0l-1.5 3a114.09 114.09 0 0 1-12-5.5c-3.741-3.52-8.075-6.02-13-7.5v-4c1.612.952 3.112 1.286 4.5 1 1.101-1.894 2.434-2.561 4-2l3 2c1.333-1.333 2.667-1.333 4 0 1.309-2.391 2.309-2.391 3 0 .691-2.391 1.691-2.391 3 0 2.077-.878 4.41-.878 7 0 1.309-2.391 2.309-2.391 3 0 .691-2.391 1.691-2.391 3 0 1.779-.979 3.445-.646 5 1 1.396-2.027 3.062-2.36 5-1 1.309-2.391 2.309-2.391 3 0 .691-2.391 1.691-2.391 3 0l11-1 2 2c2.339-2.605 4.672-2.938 7-1 1.388.286 2.888-.048 4.5-1Z"/><path style="opacity:1" fill="#c4f8a0" d="M6.5 298.5h30v28a349.799 349.799 0 0 0-30 0v-28Z"/><path style="opacity:1" fill="#c3f89f" d="M606.5 310.5c24.001.668 47.834.668 71.5 0l2 2c1.11-1.537 2.61-2.203 4.5-2v4a8.43 8.43 0 0 0-4 .5c-6.333 4.86-13 9.027-20 12.5-.659-2.908-1.493-3.242-2.5-1-.667-2.667-1.333-2.667-2 0-.667-2.667-1.333-2.667-2 0-.667-2.667-1.333-2.667-2 0-.667-2.667-1.333-2.667-2 0-.667-2.667-1.333-2.667-2 0-.667-2.667-1.333-2.667-2 0-.667-2.667-1.333-2.667-2 0-.667-2.667-1.333-2.667-2 0-.667-2.667-1.333-2.667-2 0-.667-2.667-1.333-2.667-2 0-.667-2.667-1.333-2.667-2 0-.667-2.667-1.333-2.667-2 0-.667-2.667-1.333-2.667-2 0-.667-2.667-1.333-2.667-2 0-.667-2.667-1.333-2.667-2 0-.667-2.667-1.333-2.667-2 0-.667-2.667-1.333-2.667-2 0-.667-2.667-1.333-2.667-2 0-.667-2.667-1.333-2.667-2 0-.667-2.667-1.333-2.667-2 0-.667-2.667-1.333-2.667-2 0-.667-2.667-1.333-2.667-2 0-.667-2.667-1.333-2.667-2 0-.667-2.667-1.333-2.667-2 0l-1-2c-.417 1.256-1.25 1.923-2.5 2v-16Z"/><path style="opacity:1" fill="#c4f8a0" d="M762.5 298.5h30v28a349.799 349.799 0 0 0-30 0v-28Z"/><path style="opacity:1" fill="#bdfa9b" d="M188.5 326.5v43h-3c.313-3.542-.021-6.875-1-10-.914-4.758-3.581-8.258-8-10.5a82.15 82.15 0 0 1-22-13c-3.993-.322-7.326-1.988-10-5-2.764-.006-4.764-1.172-6-3.5l1.5-3c.667 2.667 1.333 2.667 2 0 .667 2.667 1.333 2.667 2 0 .667 2.667 1.333 2.667 2 0 .667 2.667 1.333 2.667 2 0 .667 2.667 1.333 2.667 2 0 .667 2.667 1.333 2.667 2 0 .667 2.667 1.333 2.667 2 0 .667 2.667 1.333 2.667 2 0 .667 2.667 1.333 2.667 2 0 .667 2.667 1.333 2.667 2 0 .667 2.667 1.333 2.667 2 0 .667 2.667 1.333 2.667 2 0 .667 2.667 1.333 2.667 2 0 .667 2.667 1.333 2.667 2 0 .667 2.667 1.333 2.667 2 0 .667 2.667 1.333 2.667 2 0 .667 2.667 1.333 2.667 2 0 .667 2.667 1.333 2.667 2 0 .667 2.667 1.333 2.667 2 0 .667 2.667 1.333 2.667 2 0 .667 2.667 1.333 2.667 2 0 .667 2.667 1.333 2.667 2 0 .667 2.667 1.333 2.667 2 0 .417 1.256 1.25 1.923 2.5 2Z"/><path style="opacity:1" fill="#1f2125" d="M217.5 322.5c6.561-.581 12.895.252 19 2.5a11.532 11.532 0 0 1 3.5 4.5 121.19 121.19 0 0 1 0 22c-1.728 3.307-4.228 5.807-7.5 7.5a64.218 64.218 0 0 1-16 0l-5.5-5.5a156.422 156.422 0 0 1 0-25c1.436-2.942 3.603-4.942 6.5-6ZM563.5 322.5a112.97 112.97 0 0 1 15 .5c2.833 1.5 5 3.667 6.5 6.5a121.19 121.19 0 0 1 0 22c-1.281 3.737-3.781 6.237-7.5 7.5a64.218 64.218 0 0 1-16 0c-2.5-1.167-4.333-3-5.5-5.5a156.422 156.422 0 0 1 0-25c1.707-3.09 4.207-5.09 7.5-6Z"/><path style="opacity:1" fill="#befa9b" d="M660.5 327.5a383.382 383.382 0 0 1-40 21.5c-3.941 3.92-8.607 6.42-14 7.5v-30c1.25-.077 2.083-.744 2.5-2l1 2c.667-2.667 1.333-2.667 2 0 .667-2.667 1.333-2.667 2 0 .667-2.667 1.333-2.667 2 0 .667-2.667 1.333-2.667 2 0 .667-2.667 1.333-2.667 2 0 .667-2.667 1.333-2.667 2 0 .667-2.667 1.333-2.667 2 0 .667-2.667 1.333-2.667 2 0 .667-2.667 1.333-2.667 2 0 .667-2.667 1.333-2.667 2 0 .667-2.667 1.333-2.667 2 0 .667-2.667 1.333-2.667 2 0 .667-2.667 1.333-2.667 2 0 .667-2.667 1.333-2.667 2 0 .667-2.667 1.333-2.667 2 0 .667-2.667 1.333-2.667 2 0 .667-2.667 1.333-2.667 2 0 .667-2.667 1.333-2.667 2 0 .667-2.667 1.333-2.667 2 0 .667-2.667 1.333-2.667 2 0 .667-2.667 1.333-2.667 2 0 .667-2.667 1.333-2.667 2 0 .667-2.667 1.333-2.667 2 0 .667-2.667 1.333-2.667 2 0 1.007-2.242 1.841-1.908 2.5 1Z"/><path style="opacity:1" fill="#7dd6da" d="M219.5 331.5a60.931 60.931 0 0 1 11 .5c1.333 6 1.333 12 0 18a60.931 60.931 0 0 1-11 .5v-19Z"/><path style="opacity:1" fill="#7ed7db" d="M564.5 331.5a60.931 60.931 0 0 1 11 .5c1.333 6 1.333 12 0 18a60.931 60.931 0 0 1-11 .5v-19Z"/><path style="opacity:1" fill="#bafd99" d="M36.5 326.5c-.41 11.396.09 22.73 1.5 34l9.5 5.5a18.489 18.489 0 0 1 2 3.5 1529.071 1529.071 0 0 0-34 0 54.715 54.715 0 0 0-9-4v-39a349.799 349.799 0 0 1 30 0ZM792.5 326.5v39c-3.013-.128-5.513.872-7.5 3-1.922-1.605-3.089-1.272-3.5 1a946.624 946.624 0 0 0-37 0 136.068 136.068 0 0 1 15-7.5c1.655-1.444 2.322-3.278 2-5.5.994-9.819 1.327-19.819 1-30a349.799 349.799 0 0 1 30 0Z"/><path style="opacity:1" fill="#b1fd96" d="M49.5 369.5a31.91 31.91 0 0 0 6 1.5 7469.927 7469.927 0 0 0 92 53.5 4.934 4.934 0 0 1-.5 3c-10.184-.369-19.684-.369-28.5 0-2.921.354-5.254-.646-7-3-1.714 1.109-2.381.442-2-2a58.97 58.97 0 0 1-11-3v-3a27.267 27.267 0 0 0-9-3v-3c-2.908.238-5.242-.762-7-3a3.647 3.647 0 0 0-1.5 1c-1.667-1-3-2.333-4-4l-1 1a4.932 4.932 0 0 1-.5-3h-6v-3h-5v-3a544.412 544.412 0 0 1-29-14v-3a58.967 58.967 0 0 1-11-3v-3h-6v-3c-1.291.237-2.291-.096-3-1 11.494-.126 22.827-.126 34 0Z"/><path style="opacity:1" fill="#b0fd96" d="M781.5 369.5a19.602 19.602 0 0 1-3.5 2l-1-1c-3.844 1.975-7.177 4.642-10 8l-1-1c-1.049 1.607-2.549 2.273-4.5 2v3c-3.937.204-7.604 1.204-11 3 .381 2.442-.286 3.109-2 2-.886.825-1.219 1.825-1 3h-6v3a12.93 12.93 0 0 0-5 .5c-1.079 2.043-2.746 3.376-5 4l1 1a12.93 12.93 0 0 1-5 .5v3a9.86 9.86 0 0 0-6 1c-3.423 1.192-6.256 3.192-8.5 6l-1-1c-1.049 1.607-2.549 2.273-4.5 2v3h-6v3h-5v3c-2.185.388-4.018 1.388-5.5 3-2.278-1.12-3.778-.287-4.5 2.5a65.064 65.064 0 0 0-8 2.5c-10.432-.795-21.098-1.129-32-1a596.651 596.651 0 0 1 57-32.5l5-5a377.475 377.475 0 0 0 23-12c4.01-3.203 8.344-5.703 13-7.5a946.624 946.624 0 0 1 37 0Z"/><path style="opacity:1" fill="#1f2125" d="M216.5 382.5c5.344-.166 10.677.001 16 .5 2.602.883 4.769 2.383 6.5 4.5 1.604 8.23 1.937 16.563 1 25a18.778 18.778 0 0 1-4.5 5.5c-6.223 1.581-12.556 1.915-19 1-2.158-1.457-3.991-3.29-5.5-5.5a156.422 156.422 0 0 1 0-25 71.927 71.927 0 0 1 5.5-6Z"/><path style="opacity:1" fill="#1f2024" d="M561.5 382.5c5.344-.166 10.677.001 16 .5 3.437 1.105 5.937 3.272 7.5 6.5.667 7.667.667 15.333 0 23-1.5 2.833-3.667 5-6.5 6.5a72.464 72.464 0 0 1-17 0c-2.406-1.622-4.239-3.789-5.5-6.5-.667-8-.667-16 0-24 1.36-2.523 3.193-4.523 5.5-6Z"/><path style="opacity:1" fill="#7dd6da" d="M219.5 391.5c3.937-.293 7.77.04 11.5 1 .499 5.991.666 11.991.5 18h-12v-19Z"/><path style="opacity:1" fill="#7ed8dc" d="M564.5 391.5a60.931 60.931 0 0 1 11 .5c1.333 6 1.333 12 0 18a60.931 60.931 0 0 1-11 .5v-19Z"/><path style="opacity:1" fill="#acfa98" d="M184.5 359.5c.979 3.125 1.313 6.458 1 10h3v159h-2c.167-21.336 0-42.669-.5-64a1204.023 1204.023 0 0 0-28.5-16.5c-6.204-2.789-12.537-4.622-19-5.5v-3h-6v-3h-3v-3h-6v-3h-5v-3c8.816-.369 18.316-.369 28.5 0a4.934 4.934 0 0 0 .5-3 539.733 539.733 0 0 1 24 13.5c4.091 1.227 7.591.394 10.5-2.5.101-3.2.768-6.2 2-9 .5-22.331.667-44.664.5-67Z"/><path style="opacity:1" fill="#abfa98" d="M646.5 426.5c10.902-.129 21.568.205 32 1-1.17 1.779-2.836 2.779-5 3v3h-6v3h-6v3c-1.788-.285-3.455.048-5 1 1.129 2.029.629 2.363-1.5 1-1.712 3.452-4.212 4.452-7.5 3v3c-3.096-.593-5.429.407-7 3a47.25 47.25 0 0 1-7 3v3h-6v3c-1.788-.285-3.455.048-5 1a28.335 28.335 0 0 0-9.5 6l-1-1c-1.049 1.607-2.549 2.273-4.5 2v12h-1v-31a487.024 487.024 0 0 0 25-14.5l4-1c3.08-3.265 6.747-5.432 11-6.5Z"/><path style="opacity:1" fill="#202125" d="M216.5 442.5c22.37-2.698 30.203 6.969 23.5 29-.883 2.602-2.383 4.769-4.5 6.5-6.223 1.581-12.556 1.915-19 1-2.5-1.167-4.333-3-5.5-5.5a156.422 156.422 0 0 1 0-25 46.752 46.752 0 0 0 5.5-6Z"/><path style="opacity:1" fill="#1f2024" d="M578.5 478.5c-5.667 1.333-11.333 1.333-17 0-2.952-.859-4.785-2.859-5.5-6-.667-8-.667-16 0-24l5.5-5.5 8-.5c6.77-1.029 11.937 1.305 15.5 7a121.19 121.19 0 0 1 0 22c-1.012 3.508-3.178 5.842-6.5 7Z"/><path style="opacity:1" fill="#7dd6da" d="M219.5 451.5c3.937-.293 7.77.04 11.5 1 .499 5.991.666 11.991.5 18h-12v-19Z"/><path style="opacity:1" fill="#7ed7db" d="M564.5 451.5a60.931 60.931 0 0 1 11 .5c1.333 6 1.333 12 0 18a60.931 60.931 0 0 1-11 .5v-19Z"/><path style="opacity:.998" fill="#28343a" d="M254.5 194.5v321h32c1.517.011 2.684.677 3.5 2 .5 13.329.667 26.663.5 40h9c9.672-.166 19.339 0 29 .5a10.134 10.134 0 0 0 4 1.5 400.456 400.456 0 0 0 40 1c.306-2.885-.027-5.552-1-8v-25h-4v23c-.992-7.482-1.325-15.148-1-23a162.597 162.597 0 0 1-18-.5l-1.5-1.5c-.828-14.839-.661-29.506.5-44 1-.333 1.667-1 2-2 7.187.325 14.187-.009 21-1 15.926.818 31.926 1.318 48 1.5a10.134 10.134 0 0 0 4 1.5v79h34v-77c-.172-.992.162-1.658 1-2 1-.333 1.667-1 2-2 11.845.328 23.512-.005 35-1a371.687 371.687 0 0 0 38 1v-45a507.055 507.055 0 0 1 1 45h7v-285c.999 94.832 1.333 189.832 1 285a529.493 529.493 0 0 0 46 1c2.132.054 3.465 1.054 4 3-.331 22.839.003 45.506 1 68-1.258 3.623-1.258 7.29 0 11a5.576 5.576 0 0 1 3-1v77l-3 10a210.677 210.677 0 0 0 0 41c.166 6.342 0 12.675-.5 19a11.333 11.333 0 0 1-1.5 3.5 268.963 268.963 0 0 1-39 1.5 750.264 750.264 0 0 0-67-.5 169.837 169.837 0 0 0-21 12.5 46.31 46.31 0 0 0-14 8.5 80.005 80.005 0 0 0-9 4.5 715.953 715.953 0 0 1-21 12c-6.429 4.553-13.595 7.553-21.5 9a87.506 87.506 0 0 1-21.5-9 35.406 35.406 0 0 0-7-5.5l-13-6.5c-3.676-1.485-7.009-3.652-10-6.5-3.959.349-6.626-1.317-8-5a27.603 27.603 0 0 1-5-1.5 827.23 827.23 0 0 1-32-19.5 63.698 63.698 0 0 1-9-3.5 168.878 168.878 0 0 0-18-12c-5.414-3.873-11.414-6.706-18-8.5-3.712-3.851-8.045-6.685-13-8.5-5.056-4.214-10.722-7.381-17-9.5-3.972-4.039-8.639-6.872-14-8.5-3.847-1.657-7.347-3.99-10.5-7a50.464 50.464 0 0 1-.5-10v-19a98.432 98.432 0 0 0-.5-14 81.316 81.316 0 0 0-2.5-3v-43c3.311-1.365 6.644-2.365 10-3a298.696 298.696 0 0 0 34 1c-.167-13.337 0-26.671.5-40 .708-.881 1.542-1.547 2.5-2h8v-320c0-.667.333-1 1-1Z"/><path style="opacity:1" fill="#568e92" d="M313.5 480.5c11.822-.995 23.822-1.328 36-1-.333 1-1 1.667-2 2-11.154-.995-22.488-1.328-34-1Z"/><path style="opacity:1" fill="#1f2125" d="M494.5 478.5c-11.488.995-23.155 1.328-35 1-7.519-.325-14.852.008-22 1-3.862 1.024-6.695 3.357-8.5 7l-1 63c-.995.566-1.828 1.233-2.5 2h-3v-71c2.723-5.377 7.056-8.877 13-10.5a528.986 528.986 0 0 1 46 0c5.304.98 9.637 3.48 13 7.5Z"/><path style="opacity:1" fill="#53555a" d="M357.5 471.5a659.804 659.804 0 0 0-49 1c.763-.768 1.763-1.268 3-1.5 15.506-.828 30.839-.661 46 .5Z"/><path style="opacity:1" fill="#65696f" d="M341.5 433.5a1521.522 1521.522 0 0 1-78 1v47h34c-11.488.995-23.155 1.328-35 1v-49h79Z"/><path style="opacity:1" fill="#1a1b1f" d="M355.5 425.5a60.931 60.931 0 0 1 11 .5c1.482 2.592 1.148 4.925-1 7-3 .667-6 .667-9 0-2.215-2.242-2.548-4.742-1-7.5Z"/><path style="opacity:1" fill="#8c7e4f" d="M313.5 360.5c.802 1.452 1.302 3.118 1.5 5 .5 15.997.667 31.997.5 48a3798.316 3798.316 0 0 1-2-53Z"/><path style="opacity:1" fill="#787e85" d="M471.5 370.5c-.167 14.337 0 28.671.5 43 .717.544 1.217 1.211 1.5 2-.996.086-1.829-.248-2.5-1-.828-14.839-.661-29.506.5-44Z"/><path style="opacity:1" fill="#9c8b56" d="M291.5 318.5h-28v106h56v1h-57v-108c9.848-.327 19.514.006 29 1Z"/><path style="opacity:1" fill="#b39e5f" d="M503.5 318.5c9.486-.994 19.152-1.327 29-1v108h-57v-1h56v-106h-28Z"/><path style="opacity:1" fill="#fdde7e" d="M503.5 318.5h28v106h-56v-9c1.89.203 3.39-.463 4.5-2l1-51c3.032-17.066 10.532-31.733 22.5-44Z"/><path style="opacity:1" fill="#fddf7f" d="M291.5 318.5c11.25 11.925 18.583 25.925 22 42a3798.316 3798.316 0 0 0 2 53c.787 1.604 2.12 2.271 4 2v9h-56v-106h28Z"/><path style="opacity:1" fill="#5c543d" d="M480.5 194.5c.707 22.853 1.374 45.853 2 69-.617-.111-1.117-.444-1.5-1a2311.03 2311.03 0 0 1-.5-68Z"/><path style="opacity:1" fill="#7f858a" d="M472.5 194.5c-.271 23.686.062 47.352 1 71-.768-.763-1.268-1.763-1.5-3a772.829 772.829 0 0 1 .5-68Z"/><path style="opacity:1" fill="#568d91" d="M437.5 480.5c7.148-.992 14.481-1.325 22-1-.333 1-1 1.667-2 2-6.479-.991-13.146-1.324-20-1Z"/><path style="opacity:1" fill="#505a60" d="M561.5 478.5c5.667 1.333 11.333 1.333 17 0l9 2a529.493 529.493 0 0 1-46-1c6.854.324 13.521-.009 20-1Z"/><path style="opacity:1" fill="#82e0e4" d="M313.5 480.5c11.512-.328 22.846.005 34 1-1.161 14.494-1.328 29.161-.5 44l1.5 1.5c5.991.499 11.991.666 18 .5-.325 7.852.008 15.518 1 23 .333 1 1 1.667 2 2 1.648 1.956 2.315 4.289 2 7h-39a10.134 10.134 0 0 1-4-1.5c-9.661-.5-19.328-.666-29-.5v-4c1.88.271 3.213-.396 4-2l1-2c.711-21.186 1.377-42.52 2-64 1.492-2.823 3.826-4.49 7-5ZM437.5 480.5c6.854-.324 13.521.009 20 1-.838.342-1.172 1.008-1 2a1444.401 1444.401 0 0 0-1 76h-32c-.315-2.711.352-5.044 2-7 .672-.767 1.505-1.434 2.5-2l1-63c1.805-3.643 4.638-5.976 8.5-7Z"/><path style="opacity:1" fill="#69abb0" d="M456.5 483.5v77h-34v-8h3c-1.648 1.956-2.315 4.289-2 7h32c-.331-25.505.002-50.839 1-76Z"/><path style="opacity:1" fill="#b9bfc7" d="m591.5 483.5 2 66-1 2a1156.835 1156.835 0 0 1-1-68Z"/><path style="opacity:1" fill="#b2b8be" d="M414.5 488.5h-60v31c-.994-10.487-1.328-21.154-1-32a931.31 931.31 0 0 1 61 1Z"/><path style="opacity:1" fill="#6db9bd" d="M306.5 485.5c-.623 21.48-1.289 42.814-2 64-.167-20.669 0-41.336.5-62 .278-.916.778-1.582 1.5-2Z"/><path style="opacity:1" fill="#aab2ba" d="M295.5 549.5c1.947 3.154 4.614 3.821 8 2-.787 1.604-2.12 2.271-4 2v4h-9c.167-13.337 0-26.671-.5-40-.816-1.323-1.983-1.989-3.5-2-7.482-.992-15.148-1.325-23-1v-23h31a841.82 841.82 0 0 0 1 58Z"/><path style="opacity:1" fill="#f0f2f6" d="M414.5 488.5v30a1321.747 1321.747 0 0 0-60 0v-30h60Z"/><path style="opacity:1" fill="#1f2125" d="M217.5 502.5c7.956-1.268 15.123.398 21.5 5a78.223 78.223 0 0 1 1 24c-1.105 3.437-3.272 5.937-6.5 7.5a72.464 72.464 0 0 1-17 0c-2.5-1.167-4.333-3-5.5-5.5a156.422 156.422 0 0 1 0-25 53.864 53.864 0 0 1 6.5-6Z"/><path style="opacity:1" fill="#a6eba6" d="M606.5 479.5h1c-.166 8.34 0 16.673.5 25 .414.457.914.791 1.5 1a133.155 133.155 0 0 1 1 23h-4v-49Z"/><path style="opacity:1" fill="#7dd5d9" d="M219.5 511.5c3.937-.293 7.77.04 11.5 1 .499 5.991.666 11.991.5 18h-12v-19Z"/><path style="opacity:1" fill="#72777d" d="M295.5 549.5a841.82 841.82 0 0 1-1-58h-31v23c7.852-.325 15.518.008 23 1h-24v-25h33v59Z"/><path style="opacity:1" fill="#1a1b1e" d="M371.5 552.5h-2c-1-.333-1.667-1-2-2v-23h4v25Z"/><path style="opacity:1" fill="#e0e4e8" d="M285.5 565.5c-12.774.88-25.44.88-38 0 .958-.453 1.792-1.119 2.5-2 .5-13.663.667-27.329.5-41h32a840.27 840.27 0 0 0 .5 41c.708.881 1.542 1.547 2.5 2Z"/><path style="opacity:1" fill="#e4e7eb" d="M414.5 518.5v40h-34c.328-11.845-.005-23.512-1-35-.074-1.911-1.074-3.078-3-3.5a242.43 242.43 0 0 0-22-.5v-1c20.106-.454 40.106-.454 60 0Z"/><path style="opacity:1" fill="#a0dbad" d="M606.5 528.5h4v37h-14v-5c7.935-9.143 11.268-19.81 10-32Z"/><path style="opacity:1" fill="#5d9195" d="M369.5 552.5h2c.973 2.448 1.306 5.115 1 8a400.456 400.456 0 0 1-40-1h39c.315-2.711-.352-5.044-2-7Z"/><path style="opacity:1" fill="#1a1b1f" d="M332.5 561.5h39v7h-39v-7Z"/><path style="opacity:1" fill="#1b1b1f" d="M422.5 561.5h34v7h-34v-7Z"/><path style="opacity:1" fill="#a1d7b6" d="M596.5 560.5v5h14v17h-14c.284-1.915-.049-3.581-1-5v-16c0-.667.333-1 1-1Z"/><path style="opacity:1" fill="#a1d8b3" d="M186.5 528.5h2c-.319 4.863.014 9.53 1 14 1.17 6.675 4.17 12.341 9 17v23h-12v-54Z"/><path style="opacity:1" fill="#a1d6b7" d="M333.5 569.5h38v22h-38v-22Z"/><path style="opacity:1" fill="#d3d8dd" d="M247.5 565.5c12.56.88 25.226.88 38 0h39v32h-39c-.311-.978-.978-1.645-2-2l-2.5 3a64.5 64.5 0 0 0-10-1c-1.402 2.473-2.902 2.473-4.5 0a73.425 73.425 0 0 0-9.5 1l-2.5-3c-1 1.333-2 1.333-3 0a4.457 4.457 0 0 0-1.5 2c-1.14-2.518-2.306-2.518-3.5 0h-40v-32h41Z"/><path style="opacity:1" fill="#d5d9de" d="M380.5 558.5h34v40c-.722-.418-1.222-1.084-1.5-2l-1 2c-1.553-3.799-2.886-3.799-4 0-1.114-3.799-2.447-3.799-4 0-.667-2.667-1.333-2.667-2 0-.667-2.667-1.333-2.667-2 0-.667-2.667-1.333-2.667-2 0-.667-2.667-1.333-2.667-2 0-.667-2.667-1.333-2.667-2 0-.667-2.667-1.333-2.667-2 0-.667-2.667-1.333-2.667-2 0-.667-2.667-1.333-2.667-2 0-.667-2.667-1.333-2.667-2 0-.849-3.021-2.349-3.521-4.5-1.5 1.212 1.107.879 1.607-1 1.5v-40Z"/><path style="opacity:1" fill="#a1d5b8" d="M423.5 569.5h32v22h-32v-22Z"/><path style="opacity:1" fill="#525c62" d="M324.5 565.5c.995 10.821 1.328 21.821 1 33h-41c0-.667.333-1 1-1h39v-32Z"/><path style="opacity:1" fill="#a0d1bc" d="M186.5 582.5h12v20c-3.88-.904-7.88-.904-12 0v-20Z"/><path style="opacity:1" fill="#9eceba" d="M333.5 569.5v22h38v11c-12.775-.883-25.775-.883-39 0-.328-11.179.005-22.179 1-33Z"/><path style="opacity:1" fill="#a0d1bb" d="M595.5 577.5c.951 1.419 1.284 3.085 1 5h14v20c-4.183-.364-8.85-.364-14 0v8h-1v-33Z"/><path style="opacity:1" fill="#a0cebe" d="M423.5 591.5h32v19h-32v-19Z"/><path style="opacity:1" fill="#fbfbfc" d="M213.5 605.5h29a840.27 840.27 0 0 0 .5 41l1.5 1.5c14.667.667 29.333.667 44 0l1.5-1.5 1-24a42.319 42.319 0 0 1 8.5 6.5 420.445 420.445 0 0 0 32 17c2.365 3.714 5.698 5.714 10 6a387.056 387.056 0 0 0 23 13l-16 1-1.5 1.5a484.008 484.008 0 0 0 0 44l1.5 1.5c32.667.667 65.333.667 98 0a6.978 6.978 0 0 0 2.5-3.5 420.29 420.29 0 0 0 0-41 6.978 6.978 0 0 0-3.5-2.5l-12-1a736.57 736.57 0 0 0 22.5-12.5l1 58a6.978 6.978 0 0 0 3.5 2.5 2601.643 2601.643 0 0 0-62 35.5 97.288 97.288 0 0 0-12-5.5c-3.543-1.608-6.543-3.942-9-7-5.662-.917-10.329-3.583-14-8a78.488 78.488 0 0 1-23-13c-3.415-.406-6.082-2.072-8-5-8.372-3.019-16.038-7.352-23-13-5.093-1.382-9.426-4.049-13-8-6.4-2.062-12.067-5.396-17-10l-10-4-4-4a77.598 77.598 0 0 1-23-13 90.42 90.42 0 0 1-14-6 45.999 45.999 0 0 0-13-8l-1.5-1.5a684.346 684.346 0 0 1-.5-37Z"/><path style="opacity:1" fill="#9fcac1" d="M198.5 602.5a81.316 81.316 0 0 1 2.5 3c.499 4.655.666 9.321.5 14h-15v-17c4.12-.904 8.12-.904 12 0Z"/><path style="opacity:1" fill="#9ec9c0" d="M371.5 602.5v17h-64a131.312 131.312 0 0 0-8-5.5 73.86 73.86 0 0 1-9-3.5v-5c13.337.167 26.671 0 40-.5.881-.708 1.547-1.542 2-2.5 13.225-.883 26.225-.883 39 0Z"/><path style="opacity:1" fill="#9fcac1" d="M610.5 602.5v17h-14v-17c5.15-.364 9.817-.364 14 0Z"/><path style="opacity:1" fill="#c3c8cf" d="M285.5 597.5c-.667 0-1 .333-1 1l-1.5 3a799.793 799.793 0 0 0-.5 40h-32c.167-13.337 0-26.671-.5-40-.69-1.85-1.856-3.184-3.5-4 1.194-2.518 2.36-2.518 3.5 0a4.457 4.457 0 0 1 1.5-2c1 1.333 2 1.333 3 0l2.5 3a73.425 73.425 0 0 1 9.5-1c1.598 2.473 3.098 2.473 4.5 0a64.5 64.5 0 0 1 10 1l2.5-3c1.022.355 1.689 1.022 2 2Z"/><path style="opacity:1" fill="#c5cad0" d="M414.5 598.5v45h-34v-45c1.879.107 2.212-.393 1-1.5 2.151-2.021 3.651-1.521 4.5 1.5.667-2.667 1.333-2.667 2 0 .667-2.667 1.333-2.667 2 0 .667-2.667 1.333-2.667 2 0 .667-2.667 1.333-2.667 2 0 .667-2.667 1.333-2.667 2 0 .667-2.667 1.333-2.667 2 0 .667-2.667 1.333-2.667 2 0 .667-2.667 1.333-2.667 2 0 .667-2.667 1.333-2.667 2 0 1.553-3.799 2.886-3.799 4 0 1.114-3.799 2.447-3.799 4 0l1-2c.278.916.778 1.582 1.5 2Z"/><path style="opacity:1" fill="#9ec4c4" d="M307.5 619.5h64v19h-29a295.598 295.598 0 0 1-35-19Z"/><path style="opacity:1" fill="#9cc4c0" d="M455.5 569.5a578.644 578.644 0 0 1 0 68v-8h-32v-19h32v-41Z"/><path style="opacity:1" fill="#9fc4c6" d="M186.5 619.5h15v19h-15v-19Z"/><path style="opacity:1" fill="#9ec4c6" d="M595.5 610.5h1v9h14v19h-15v-28Z"/><path style="opacity:1" fill="#9dbdcb" d="M186.5 638.5h15c-.165 3.35.002 6.683.5 10 3.153 3.01 6.653 5.343 10.5 7-8.853-.032-17.52.301-26 1v-18Z"/><path style="opacity:1" fill="#8fafb9" d="M371.5 569.5a1850.088 1850.088 0 0 1 1 86 63.089 63.089 0 0 1-10-3.5 353.513 353.513 0 0 0-20-13.5h29v-69Z"/><path style="opacity:1" fill="#99bbc3" d="M423.5 569.5v60h32v8c-3.171 3.756-7.171 6.256-12 7.5-6.316 5.472-13.316 9.639-21 12.5-.331-29.505.002-58.838 1-88Z"/><path style="opacity:1" fill="#9dbecb" d="M595.5 638.5h15v18c-5.646-.042-11.312-.042-17 0a16.873 16.873 0 0 1-1-8l3-10Z"/><path style="opacity:1" fill="#9cb7d0" d="M212.5 655.5c5.361 1.628 10.028 4.461 14 8.5 6.278 2.119 11.944 5.286 17 9.5h-57v-17a303.101 303.101 0 0 1 26-1Z"/><path style="opacity:1" fill="#9ab4cf" d="M592.5 648.5a16.873 16.873 0 0 0 1 8c5.688-.042 11.354-.042 17 0a81.883 81.883 0 0 1-1 18c-1.671 2.01-2.338 4.343-2 7-3.064 1.19-5.731 2.857-8 5h-3v3h-4a210.677 210.677 0 0 1 0-41Z"/><path style="opacity:1" fill="#afb6be" d="M379.5 523.5c.995 11.488 1.328 23.155 1 35v85h34c-.42 9.747.08 19.414 1.5 29 .671.752 1.504 1.086 2.5 1 7.148.992 14.481 1.325 22 1a84.902 84.902 0 0 1-.5 13 3111.668 3111.668 0 0 0-85 0 98.432 98.432 0 0 1-.5-14c7.674.166 15.341 0 23-.5l1.5-1.5c.5-49.332.667-98.666.5-148Z"/><path style="opacity:1" fill="#9cb1d5" d="M186.5 673.5h57c4.955 1.815 9.288 4.649 13 8.5 6.586 1.794 12.586 4.627 18 8.5a1193.299 1193.299 0 0 1-68 1c-2.578-.801-5.078-2.467-7.5-5l-1 1c-1.667-1-3-2.333-4-4-1.049 1.017-2.216 1.184-3.5.5l1-1c-4.137-1.754-5.803-4.921-5-9.5Z"/><path style="opacity:1" fill="#4c575c" d="M464.5 487.5v217h119v-217c.999 72.498 1.333 145.165 1 218h-121c-.333-72.835.001-145.502 1-218Z"/><path style="opacity:1" fill="#b1b7c0" d="M548.5 523.5c.987 4.805 1.321 9.805 1 15v105h34v34h-119v-34h34c-.166 8.34 0 16.673.5 25a11.333 11.333 0 0 0 1.5 3.5c15.908.824 31.741.657 47.5-.5.5-49.332.667-98.666.5-148Z"/><path style="opacity:1" fill="#c2c8ce" d="M549.5 616.5h34v27h-34v-27ZM464.5 616.5h34v27h-34v-27Z"/><path style="opacity:1" fill="#cdd1d8" d="M583.5 581.5v35h-34v-35a449.255 449.255 0 0 1 34 0ZM498.5 581.5v35h-34v-35a449.255 449.255 0 0 1 34 0Z"/><path style="opacity:1" fill="#dce0e5" d="M583.5 538.5v43a449.255 449.255 0 0 0-34 0v-43c11.543-.055 22.876-.055 34 0ZM498.5 538.5v43a449.255 449.255 0 0 0-34 0v-43c11.543-.055 22.876-.055 34 0Z"/><path style="opacity:1" fill="#283339" d="M548.5 523.5c.167 49.334 0 98.668-.5 148a379.781 379.781 0 0 1-47.5.5 11.333 11.333 0 0 1-1.5-3.5c-.5-8.327-.666-16.66-.5-25v-105a73.133 73.133 0 0 1 1-17l3-1.5a462.27 462.27 0 0 1 43 0c1.926.422 2.926 1.589 3 3.5Z"/><path style="opacity:1" fill="#9dcdb9" d="M507.5 569.5v13h11c.33 7.032-.003 14.032-1 21-4.081.983-7.581 2.983-10.5 6-.827-13.506-.66-26.84.5-40Z"/><path style="opacity:1" fill="#a1d7b6" d="M507.5 569.5h11v13h-11v-13Z"/><path style="opacity:1" fill="#90979b" d="M540.5 569.5a2304.214 2304.214 0 0 1 1 96c-11.845.328-23.512-.005-35-1h34v-95Z"/><path style="opacity:1" fill="#fcfcfd" d="M527.5 569.5h13v95h-34v-42c7.456-2.78 14.289-6.78 20.5-12 .5-13.663.667-27.329.5-41Z"/><path style="opacity:1" fill="#1b1c20" d="M527.5 569.5h-9c-3.798-.983-7.798-1.317-12-1v-7h35v7c-4.863-.319-9.53.014-14 1Z"/><path style="opacity:1" fill="#7c8289" d="M507.5 527.5v32h33c.313-3.542-.021-6.875-1-10l1-2c.985 4.134 1.318 8.468 1 13h-35c-.328-11.179.005-22.179 1-33Z"/><path style="opacity:1" fill="#eef6f8" d="M538.5 549.5h1c.979 3.125 1.313 6.458 1 10h-3c-.247-3.439.086-6.772 1-10Z"/><path style="opacity:1" fill="#191a1e" d="m540.5 547.5-1 2h-1c-2.198.38-3.865-.287-5-2v-20h7v20Z"/><path style="opacity:1" fill="#a9b0b9" d="M507.5 527.5h25c-.324 6.854.009 13.521 1 20 1.135 1.713 2.802 2.38 5 2-.914 3.228-1.247 6.561-1 10h-30v-32Z"/><path style="opacity:1" fill="#edf0f3" d="M464.5 487.5h119v51a3502.752 3502.752 0 0 0-34 0c.321-5.195-.013-10.195-1-15-.074-1.911-1.074-3.078-3-3.5a462.27 462.27 0 0 0-43 0l-3 1.5a73.133 73.133 0 0 0-1 17 3502.752 3502.752 0 0 0-34 0v-51Z"/><path style="opacity:1" fill="#aab1ba" d="M354.5 673.5a98.432 98.432 0 0 0 .5 14c28.473-.387 56.806-.387 85 0 .499-4.321.666-8.654.5-13-7.519.325-14.852-.008-22-1h23v32h-88c-.328-10.846.006-21.513 1-32Z"/><path style="opacity:1" fill="#adb4bd" d="M464.5 677.5h119v27h-119v-27Z"/><path style="opacity:1" fill="#9cb1d7" d="M599.5 686.5c1.333.667 1.333.667 0 0Z"/><path style="opacity:1" fill="#9badd9" d="M274.5 690.5a168.878 168.878 0 0 1 18 12 8743.693 8743.693 0 0 0-66 0c-1.879-.841-3.879-1.175-6-1v-3a12.93 12.93 0 0 1-5-.5 167.57 167.57 0 0 0-9-6.5c22.712.312 45.379-.021 68-1Z"/><path style="opacity:1" fill="#9aa7de" d="M292.5 702.5a63.698 63.698 0 0 0 9 3.5 827.23 827.23 0 0 0 32 19.5c-22.994-1.321-45.661-1.321-68 0a52.486 52.486 0 0 0-16-7v-3h-6v-3c-2.092-.061-3.592-1.061-4.5-3-1.299.466-2.799.466-4.5 0v-3c-3.537.193-6.203-1.14-8-4 22.858-.083 44.858-.083 66 0Z"/><path style="opacity:1" fill="#98a4db" d="M551.5 713.5a22.296 22.296 0 0 1-5 3.5l1 1a110.072 110.072 0 0 0-17 7.5 561.765 561.765 0 0 0-67 0 169.837 169.837 0 0 1 21-12.5 750.264 750.264 0 0 1 67 .5Z"/><path style="opacity:1" fill="#9aa3e2" d="M333.5 725.5a27.603 27.603 0 0 0 5 1.5c1.374 3.683 4.041 5.349 8 5 2.991 2.848 6.324 5.015 10 6.5-22.761-.478-45.094-.478-67 0a12.93 12.93 0 0 1-5-.5l1-1c-1.525-1.009-3.192-1.509-5-1.5v-3h-6v-3h-5v-3c-1.599.268-2.932-.066-4-1 22.339-1.321 45.006-1.321 68 0ZM530.5 725.5c-.969.809-1.802 1.809-2.5 3l-1-1c-1.049 1.607-2.549 2.273-4.5 2v3h-6v3h-5v3h-3c-22.033-.6-44.7-.6-68 0a80.005 80.005 0 0 1 9-4.5 46.31 46.31 0 0 1 14-8.5 561.765 561.765 0 0 1 67 0Z"/><path style="opacity:1" fill="#9a9fe5" d="m356.5 738.5 13 6.5a35.406 35.406 0 0 1 7 5.5h-68c-1.419-.951-3.085-1.284-5-1v-3a334.796 334.796 0 0 1-13-5.5c-.752-.671-1.086-1.504-1-2.5 21.906-.478 44.239-.478 67 0ZM508.5 738.5c-1.193 2.254-2.86 2.92-5 2-.886.825-1.219 1.825-1 3a12.93 12.93 0 0 0-5 .5 2214.042 2214.042 0 0 0-9 6.5h-69a715.953 715.953 0 0 0 21-12c23.3-.6 45.967-.6 68 0Z"/><path style="opacity:1" fill="#999ce8" d="M308.5 750.5h68a87.506 87.506 0 0 0 21.5 9c7.905-1.447 15.071-4.447 21.5-9h69c-1.602 1.574-3.602 2.241-6 2v3c-2.51-.446-4.51.22-6 2-2.216.703-4.049 2.036-5.5 4-1.813-1.109-2.646-.442-2.5 2h-137c-3.806-.991-6.973-2.991-9.5-6-.718.951-1.551 1.117-2.5.5 1.333-.667 1.333-1.333 0-2a12.93 12.93 0 0 0-5-.5v-3c-2.51.446-4.51-.22-6-2Z"/><path style="opacity:1" fill="#999de9" d="M476.5 757.5c1.333.667 1.333.667 0 0Z"/><path style="opacity:1" fill="#9999eb" d="M331.5 763.5h132c-.304.65-.637 1.317-1 2a46.126 46.126 0 0 0-11 5.5l2 1a12.93 12.93 0 0 1-5 .5v3c-5.143.905-9.81 2.905-14 6-.996.086-1.829-.248-2.5-1l-1 2-2-4c-.667 2.667-1.333 2.667-2 0l-2 4-2-4c-.667 2.667-1.333 2.667-2 0l-2 4-2-4c-.667 2.667-1.333 2.667-2 0l-2 4-2-4c-.667 2.667-1.333 2.667-2 0l-2 4-2-4c-.667 2.667-1.333 2.667-2 0l-2 4-2-4c-.667 2.667-1.333 2.667-2 0l-2 4-2-4c-.667 2.667-1.333 2.667-2 0l-2 4-2-4c-.667 2.667-1.333 2.667-2 0l-2 4-2-4c-.667 2.667-1.333 2.667-2 0l-2 4-2-4c-.667 2.667-1.333 2.667-2 0l-2 4-2-4c-.667 2.667-1.333 2.667-2 0-.422 1.926-1.589 2.926-3.5 3-2.745-.668-5.245-2.001-7.5-4l-1 1a4.934 4.934 0 0 1-.5-3h-6v-3h-5v-3h-6v-3c-2.284-.529-4.284-1.529-6-3Z"/><path style="opacity:1" fill="#9997ed" d="M434.5 781.5c-1.418 1.808-3.418 2.475-6 2v3h-6v3a8.43 8.43 0 0 0-4 .5l-5 5c-1.284.684-2.451.517-3.5-.5-1.263 2.968-3.263 3.968-6 3a2.428 2.428 0 0 0-.5 2h-12c-.507-1.359-1.507-2.359-3-3a137.913 137.913 0 0 0-11-4v-3c-2.133-1.386-5.133-2.386-9-3v-3c-2.281.423-3.948-.244-5-2 1.911-.074 3.078-1.074 3.5-3 .667 2.667 1.333 2.667 2 0l2 4 2-4c.667 2.667 1.333 2.667 2 0l2 4 2-4c.667 2.667 1.333 2.667 2 0l2 4 2-4c.667 2.667 1.333 2.667 2 0l2 4 2-4c.667 2.667 1.333 2.667 2 0l2 4 2-4c.667 2.667 1.333 2.667 2 0l2 4 2-4c.667 2.667 1.333 2.667 2 0l2 4 2-4c.667 2.667 1.333 2.667 2 0l2 4 2-4c.667 2.667 1.333 2.667 2 0l2 4 2-4c.667 2.667 1.333 2.667 2 0l2 4 2-4c.667 2.667 1.333 2.667 2 0l2 4 1-2c.671.752 1.504 1.086 2.5 1Z"/></svg>