<?xml version="1.0" standalone="no"?>
<!DOCTYPE svg PUBLIC "-//W3C//DTD SVG 20010904//EN"
 "http://www.w3.org/TR/2001/REC-SVG-20010904/DTD/svg10.dtd">
<svg version="1.0" xmlns="http://www.w3.org/2000/svg"
 width="1200.000000pt" height="1200.000000pt" viewBox="0 0 1200.000000 1200.000000"
 preserveAspectRatio="xMidYMid meet">

<g transform="translate(0.000000,1200.000000) scale(0.100000,-0.100000)"
fill="#000000" stroke="none">
<path d="M4960 10709 c-1849 -30 -3137 -116 -3574 -239 -258 -73 -475 -200
-660 -387 -165 -167 -280 -353 -350 -564 -308 -923 -372 -4746 -110 -6534 45
-308 104 -526 186 -689 142 -284 381 -522 663 -663 245 -123 530 -177 1270
-237 265 -22 378 -30 760 -51 817 -46 2685 -74 3750 -56 1872 32 3114 107
3615 217 319 71 532 185 751 403 128 128 173 185 248 317 123 214 190 467 250
949 98 782 155 2218 132 3335 -35 1691 -129 2666 -298 3090 -158 394 -505 717
-910 849 -351 114 -1206 189 -2683 236 -1023 33 -2048 41 -3040 24z m225
-2890 c54 -14 2723 -1552 2784 -1605 126 -109 125 -320 -2 -430 -68 -58 -2731
-1591 -2789 -1604 -129 -32 -263 34 -329 160 l-24 45 0 1615 0 1615 23 45 c68
130 201 193 337 159z"/>
</g>
</svg>
