<?xml version="1.0" encoding="UTF-8"?>
<svg xmlns="http://www.w3.org/2000/svg" width="800" height="800" style="shape-rendering:geometricPrecision;text-rendering:geometricPrecision;image-rendering:optimizeQuality;fill-rule:evenodd;clip-rule:evenodd"><path style="opacity:1" fill="#ebe7de" d="M576.5-.5h9a2.429 2.429 0 0 0 .5 2c1.049-1.017 2.216-1.184 3.5-.5a20.495 20.495 0 0 0 2.5 3.5c1.356-.88 2.856-1.214 4.5-1v3c2.822 1.432 6.489 2.432 11 3v3c2.092.061 3.592 1.061 4.5 3 2.537-.677 4.537.323 6 3 2.361-.566 4.194.434 5.5 3l2-1c.35 2.067 2.017 3.067 5 3v3h6v3h5v3h6v3a27.247 27.247 0 0 0 9 3c-.219 1.175.114 2.175 1 3a6.846 6.846 0 0 1 4-1v3a8.435 8.435 0 0 1 4 .5c-1.154.914-.987 1.747.5 2.5 1.299-.466 2.799-.466 4.5 0v3h6v3h5v3a428.986 428.986 0 0 0 20 8.5l-2 1c2.522.61 4.522 1.943 6 4 1.634.493 3.301.66 5 .5v3c2.908-.238 5.242.762 7 3 .951-.826 1.951-.992 3-.5l-1 1a6.977 6.977 0 0 1 3.5 2.5l1-1c.483.948.649 1.948.5 3h6v3h5v3c1.951-.273 3.451.393 4.5 2l1-1c6 4.386 12.5 7.886 19.5 10.5l-1 1c1.525 1.009 3.192 1.509 5 1.5v3h6v3h5v3c2.041.354 3.874.354 5.5 0 .483.948.649 1.948.5 3 2.836 1.276 5.836 1.942 9 2a7971.884 7971.884 0 0 1 2 251c-3.013-.128-5.513.872-7.5 3-2.411-1.653-3.578-.987-3.5 2-1.701.466-3.201.466-4.5 0-3.844 1.975-7.177 4.642-10 8l-1-1c-1.049 1.607-2.549 2.273-4.5 2v3c-3.937.204-7.604 1.204-11 3 .381 2.442-.286 3.109-2 2-.886.825-1.219 1.825-1 3h-6v3a12.93 12.93 0 0 0-5 .5c-1.079 2.043-2.746 3.376-5 4l1 1a12.93 12.93 0 0 1-5 .5v3a9.86 9.86 0 0 0-6 1c-3.423 1.192-6.256 3.192-8.5 6l-1-1c-1.049 1.607-2.549 2.273-4.5 2v3h-6v3h-5v3c-2.185.388-4.018 1.388-5.5 3-2.278-1.12-3.778-.287-4.5 2.5a101.955 101.955 0 0 0-13 5.5v3h-6v3h-6v3c-1.788-.285-3.455.048-5 1 1.129 2.029.629 2.363-1.5 1-1.712 3.452-4.212 4.452-7.5 3v3c-3.096-.593-5.429.407-7 3a47.25 47.25 0 0 1-7 3v3h-6v3c-1.788-.285-3.455.048-5 1a28.335 28.335 0 0 0-9.5 6l-1-1c-1.049 1.607-2.549 2.273-4.5 2-.167 12.338 0 24.671.5 37 .414.457.914.791 1.5 1a3571.518 3571.518 0 0 1 0 169c-1.671 2.01-2.338 4.343-2 7-3.064 1.19-5.731 2.857-8 5h-3v3a58.97 58.97 0 0 0-11 3v3c-1.859-.039-3.192.794-4 2.5a12.93 12.93 0 0 1-5 .5v3c-2.582-.475-4.582.192-6 2-2.281 1.928-4.947 2.928-8 3v3h-6v3c-4.045-.073-7.378 1.427-10 4.5l1 1a118.288 118.288 0 0 0-17 7.5 10.756 10.756 0 0 0-2.5 3l-1-1c-1.049 1.607-2.549 2.273-4.5 2v3h-6v3h-5v3c-2.524-.071-4.524.929-6 3-2.12-1.372-3.12-.705-3 2a12.93 12.93 0 0 0-5 .5 101.657 101.657 0 0 0-10 7.5 9.108 9.108 0 0 1-5 1v3c-2.51-.446-4.51.22-6 2-2.216.703-4.049 2.036-5.5 4-1.813-1.109-2.646-.442-2.5 2a12.93 12.93 0 0 0-5 .5c-1.497 1.871-3.497 2.871-6 3-1.307 2.324-3.307 3.657-6 4l2 1a12.93 12.93 0 0 1-5 .5v3a9.86 9.86 0 0 0-6 1 35.217 35.217 0 0 1-8 4v3h-6v3h-6v3a8.43 8.43 0 0 0-4 .5l-5 5c-1.284.684-2.451.517-3.5-.5-1.263 2.968-3.263 3.968-6 3a2.428 2.428 0 0 0-.5 2h-12c-.507-1.359-1.507-2.359-3-3a137.913 137.913 0 0 0-11-4v-3c-2.133-1.386-5.133-2.386-9-3v-3h-5v-3c-3.005.247-5.505-.753-7.5-3l-1 1a4.934 4.934 0 0 1-.5-3h-6v-3h-5v-3h-6v-3c-5.922-1.727-11.089-4.727-15.5-9-.718.951-1.551 1.117-2.5.5 1.333-.667 1.333-1.333 0-2a12.93 12.93 0 0 0-5-.5v-3a58.97 58.97 0 0 1-11-3v-3c-8.654-3.265-16.321-6.932-23-11v-3h-6v-3h-5v-3a8.43 8.43 0 0 1-4-.5c-4.85-3.699-10.184-6.199-16-7.5v-3h-6v-3c-2.092-.061-3.592-1.061-4.5-3-1.299.466-2.799.466-4.5 0v-3c-1.788.285-3.455-.048-5-1-2.158-3.144-5.158-4.477-9-4v-3a12.93 12.93 0 0 1-5-.5c-2.625-3.031-6.125-5.864-10.5-8.5-2.537.677-4.537-.323-6-3l-1 1c-1.667-1-3-2.333-4-4-1.049 1.017-2.216 1.184-3.5.5l1-1a15.645 15.645 0 0 1-4-2.5c-1-36.327-1.333-72.661-1-109a153.706 153.706 0 0 0 15 7c-.167 23.336 0 46.669.5 70 5.48 4.594 11.647 8.094 18.5 10.5a82.842 82.842 0 0 0 19 11 147.725 147.725 0 0 1 17 12c13.267 5.247 25.6 12.247 37 21a24.569 24.569 0 0 0 8 3 201.636 201.636 0 0 1 27 17l10 4c1.374 3.683 4.041 5.349 8 5a279.412 279.412 0 0 1 19 12c4.871 1.741 9.204 4.408 13 8a35.157 35.157 0 0 1 10 5 66.364 66.364 0 0 0 9.5 2.5 92.109 92.109 0 0 1 10.5-2.5 78.988 78.988 0 0 0 14-9l10-4c4.933-4.604 10.6-7.938 17-10l4-4a319.99 319.99 0 0 0 46-27 91.311 91.311 0 0 0 23-13 70.186 70.186 0 0 0 18-10 112.343 112.343 0 0 1 17-8c6.951-5.974 14.618-10.641 23-14 6.616-3.612 11.449-8.779 14.5-15.5.5-19.997.667-39.997.5-60 9.858 1.641 13.858-2.526 12-12.5.599-10.303-3.401-18.137-12-23.5.167-20.003 0-40.003-.5-60-3.681-2.86-7.848-3.693-12.5-2.5a58.12 58.12 0 0 1-11 5c-.881.708-1.547 1.542-2 2.5-.543-.06-.876-.393-1-1a201.862 201.862 0 0 1 3-9.5c-.363-2.192-1.363-4.026-3-5.5a478.858 478.858 0 0 1 4-9c17.267 3.039 29.267-3.294 36-19a79.648 79.648 0 0 0 15-9c7.041-2.056 13.041-5.722 18-11a8.43 8.43 0 0 0 4-.5 1884.13 1884.13 0 0 1 86-50l8-6a190.921 190.921 0 0 0 21.5-10.5c.667-76 .667-152 0-228a36.078 36.078 0 0 0-3.5-4.5c-3.29-.253-6.29-1.253-9-3a29746.604 29746.604 0 0 1-46-28 457.332 457.332 0 0 0-22-11l-4-4a161.879 161.879 0 0 1-33-19c-6.4-2.062-12.067-5.396-17-10a1126.1 1126.1 0 0 0-31-16c-2.365-3.714-5.698-5.714-10-6-7.082-6.364-15.416-9.031-25-8a12271.425 12271.425 0 0 1-129 74c-7.588 4.924-7.921 10.257-1 16a287.246 287.246 0 0 1 25 16 114.51 114.51 0 0 1 25 13.5 86.127 86.127 0 0 1-19 10 97.144 97.144 0 0 0-18-9.5c-3.796-3.592-8.129-6.259-13-8a5705.588 5705.588 0 0 0-176-101c-9.098-8.801-19.765-11.801-32-9a583.354 583.354 0 0 0-33 19 175.013 175.013 0 0 0-28 16l-4 1-23 15a336.071 336.071 0 0 0-40 23c-5.503 1.171-10.17 3.837-14 8A579.672 579.672 0 0 0 38 129.5 3410.247 3410.247 0 0 0 36.5 245c-.152 38.537.348 77.037 1.5 115.5l9.5 5.5c1.374 3.683 4.04 5.349 8 5a13376.247 13376.247 0 0 0 116 67c4.091 1.227 7.591.394 10.5-2.5.101-3.2.768-6.2 2-9 .667-23.333.667-46.667 0-70a20.231 20.231 0 0 0-7.5-7.5 82.15 82.15 0 0 1-22-13c-3.993-.322-7.326-1.988-10-5-3.415-.406-6.082-2.072-8-5l-10-4c-4.032-3.676-8.699-6.176-14-7.5-.167-45.335 0-90.668.5-136 2.67-2.75 5.836-4.583 9.5-5.5 6.962-5.648 14.628-9.981 23-13a148.265 148.265 0 0 1 31-18 102.07 102.07 0 0 1 22-13 417.167 417.167 0 0 1 29.5-18.5c1.73 1.149 3.396 1.149 5 0 4.064 4.134 8.897 6.967 14.5 8.5a131.76 131.76 0 0 0 17 10 320.348 320.348 0 0 1 24 16 47.592 47.592 0 0 1 12 5 861.366 861.366 0 0 0 34 19.5 7650.65 7650.65 0 0 1-124 1.5c-29.598 6.266-49.098 23.766-58.5 52.5-5.611 32.262 4.889 57.762 31.5 76.5a70.61 70.61 0 0 0 18 7.5v124c-12.5 5.425-23.5 13.091-33 23-3.273-2.644-6.94-4.811-11-6.5-6.204-2.789-12.537-4.622-19-5.5v-3h-6v-3h-3v-3h-6v-3h-5v-3c-2.921.354-5.254-.646-7-3-1.714 1.109-2.381.442-2-2a58.97 58.97 0 0 1-11-3v-3a27.267 27.267 0 0 0-9-3v-3c-2.908.238-5.242-.762-7-3a3.647 3.647 0 0 0-1.5 1c-1.667-1-3-2.333-4-4l-1 1a4.932 4.932 0 0 1-.5-3h-6v-3h-5v-3a544.412 544.412 0 0 1-29-14v-3a58.967 58.967 0 0 1-11-3v-3h-6v-3c-4.013-1.674-8.013-3.341-12-5 .008-83.648.008-167.148 0-250.5a169.104 169.104 0 0 0 15-5.5v-3a58.967 58.967 0 0 0 11-3v-3a417.79 417.79 0 0 0 15-7 32.686 32.686 0 0 0 8.5-6l1 1c1.049-1.607 2.549-2.273 4.5-2v-3a59.029 59.029 0 0 1 11-3 4.932 4.932 0 0 1 .5-3l1 1c2.015-3.065 4.515-4.065 7.5-3v-3h5v-3c1.7.16 3.366-.007 5-.5 1.478-2.057 3.478-3.39 6-4l-2-1a18.436 18.436 0 0 1 6-.5v-3a87.51 87.51 0 0 0 14-5v-3h6v-3h5v-3c1.701-.466 3.201-.466 4.5 0 3.279-4.047 7.946-7.047 14-9a18.264 18.264 0 0 0 5-4l1 1c1.049-1.607 2.549-2.273 4.5-2v-3h5v-3h6v-3c4.612-1.195 9.279-2.862 14-5v-3c1.701-.466 3.201-.466 4.5 0 .908-1.939 2.408-2.939 4.5-3v-3h6v-3c1.788.285 3.455-.048 5-1a38.767 38.767 0 0 0 7-4.5 49.25 49.25 0 0 1 14 0c2.025 1.677 4.359 2.677 7 3-1.134 1.016-.801 1.683 1 2l5 1-1 1c2.622 3.073 5.955 4.573 10 4.5v3h6v3c3.191.262 5.858 1.596 8 4a9.864 9.864 0 0 0 6 1v3c3.58 1.22 7.247 2.386 11 3.5l-2 1c2.767.678 4.934 2.178 6.5 4.5l1-1c3.769 1.797 7.102 4.13 10 7a3.942 3.942 0 0 1 2-1c1.482 1.612 3.315 2.612 5.5 3v3h6v3h5v3h6v3a87.51 87.51 0 0 0 14 5v3c1.699-.16 3.366.007 5 .5l-1 1c1.525 1.009 3.192 1.509 5 1.5v3h6v3h5v3c2.985-1.065 5.485-.065 7.5 3l1-1c.483.948.649 1.948.5 3h5v3h6v3c2.133 1.386 5.133 2.386 9 3v3c2.908-.238 5.242.762 7 3l2-1c.35 2.067 2.017 3.067 5 3v3h6v3c2.516-.255 4.85-1.089 7-2.5a626.207 626.207 0 0 1 29-17c.837-1.011 1.17-2.178 1-3.5 4.493-.216 7.993-2.216 10.5-6 1.011.837 2.178 1.17 3.5 1v-3a59.031 59.031 0 0 0 11-3v-3c1.808.009 3.475-.491 5-1.5l-1-1a12.935 12.935 0 0 1 5-.5v-3a9.864 9.864 0 0 0 6-1 35.213 35.213 0 0 1 8-4v-3h6v-3a59.031 59.031 0 0 1 11-3v-3c1.808.009 3.475-.491 5-1.5-1.388-.89-1.222-1.39.5-1.5 2.071 1.167 3.571.5 4.5-2 6.434-2.343 12.767-5.343 19-9v-3a59.031 59.031 0 0 1 11-3 4.934 4.934 0 0 1 .5-3l1 1c1.995-2.247 4.495-3.247 7.5-3v-3h5v-3h6v-3c1.808.009 3.475-.491 5-1.5l-1-1a12.936 12.936 0 0 1 5-.5v-3c3.552.188 6.219-1.145 8-4Z"/><path style="opacity:1" fill="#273339" d="M641.5 427.5c3.413-4.83 5.747-10.163 7-16 1-.333 1.667-1 2-2a379.84 379.84 0 0 0 45-26.5 114.302 114.302 0 0 0 13-6 6204.11 6204.11 0 0 1 24-15 84.545 84.545 0 0 1 18-8.5c.167-70.334 0-140.667-.5-211 .564-4.29-1.269-6.457-5.5-6.5a203.265 203.265 0 0 0-37-21l-4-4a91.311 91.311 0 0 1-23-13 457.332 457.332 0 0 0-22-11l-4-4a483.026 483.026 0 0 1-51-29c-3.415-.406-6.082-2.072-8-5a90.401 90.401 0 0 0-14-6c-5.722-6.435-12.722-8.768-21-7-7.36 5.663-15.36 9.996-24 13-3.619 3.977-7.952 6.644-13 8-2.537 2.546-5.537 4.212-9 5l-4 4-10 4a2551.356 2551.356 0 0 0-60 36 7185.005 7185.005 0 0 1 26 16 105.648 105.648 0 0 1 24 12.5 45.538 45.538 0 0 1-10 8 114.51 114.51 0 0 0-25-13.5 287.246 287.246 0 0 0-25-16c-6.921-5.743-6.588-11.076 1-16a12271.425 12271.425 0 0 0 129-74c9.584-1.031 17.918 1.636 25 8 4.302.286 7.635 2.286 10 6a1126.1 1126.1 0 0 1 31 16c4.933 4.604 10.6 7.938 17 10a161.879 161.879 0 0 0 33 19l4 4a457.332 457.332 0 0 1 22 11 29746.604 29746.604 0 0 0 46 28c2.71 1.747 5.71 2.747 9 3a36.078 36.078 0 0 1 3.5 4.5c.667 76 .667 152 0 228a190.921 190.921 0 0 1-21.5 10.5l-8 6a1884.13 1884.13 0 0 0-86 50 8.43 8.43 0 0 1-4 .5Z"/><path style="opacity:1" fill="#28343a" d="M461.5 152.5c-3.999 3.102-8.332 4.769-13 5-7.98-2.946-15.313-7.113-22-12.5-5.662-.917-10.329-3.583-14-8-5.086-1.414-9.419-4.081-13-8a546.6 546.6 0 0 0-35-18 108.394 108.394 0 0 1-19-13 1516.16 1516.16 0 0 1-91-52A228.066 228.066 0 0 0 230 34.5 112.066 112.066 0 0 0 206.5 48l-10 4-3 3c-6.771 2.445-12.771 6.111-18 11l-10 4-4 4a520.666 520.666 0 0 0-59 34l-9 3c-2.508 3.042-5.508 5.376-9 7a583.92 583.92 0 0 1-36 19 7827.247 7827.247 0 0 0-.5 216.5 7214.146 7214.146 0 0 0 125 72c.5-21.664.667-43.331.5-65a340.197 340.197 0 0 0-18-8.5 55.63 55.63 0 0 0-18-10 78.488 78.488 0 0 0-23-13 56.965 56.965 0 0 0-10.5-7.5 2946.23 2946.23 0 0 1 1-153 230.435 230.435 0 0 0 32.5-19.5c8.372-3.019 16.038-7.352 23-13 5.093-1.382 9.426-4.049 13-8a90.42 90.42 0 0 0 14-6c1.918-2.928 4.585-4.594 8-5a226.438 226.438 0 0 1 29-17 42.498 42.498 0 0 1 13 0l4 4a154.79 154.79 0 0 0 13 6 1081.768 1081.768 0 0 0 33 20l4 1c8.98 5.636 17.98 11.302 27 17 7.27 1.913 13.604 5.58 19 11 4.75 1.03 8.75 3.363 12 7a73.86 73.86 0 0 1 9 3.5c-7.901 1.313-15.901 1.313-24 0a861.366 861.366 0 0 1-34-19.5 47.592 47.592 0 0 0-12-5 320.348 320.348 0 0 0-24-16 131.76 131.76 0 0 1-17-10c-5.603-1.533-10.436-4.366-14.5-8.5-1.604 1.149-3.27 1.149-5 0a417.167 417.167 0 0 0-29.5 18.5 102.07 102.07 0 0 0-22 13 148.265 148.265 0 0 0-31 18c-8.372 3.019-16.038 7.352-23 13-3.664.917-6.83 2.75-9.5 5.5-.5 45.332-.667 90.665-.5 136 5.301 1.324 9.968 3.824 14 7.5l10 4c1.918 2.928 4.585 4.594 8 5 2.674 3.012 6.007 4.678 10 5a82.15 82.15 0 0 0 22 13 20.231 20.231 0 0 1 7.5 7.5c.667 23.333.667 46.667 0 70-1.232 2.8-1.899 5.8-2 9-2.909 2.894-6.409 3.727-10.5 2.5a13376.247 13376.247 0 0 1-116-67c-3.96.349-6.626-1.317-8-5l-9.5-5.5A3410.247 3410.247 0 0 1 36.5 245c-.152-38.537.348-77.037 1.5-115.5A579.672 579.672 0 0 1 80.5 107c3.83-4.163 8.497-6.829 14-8a336.071 336.071 0 0 1 40-23l23-15 4-1a175.013 175.013 0 0 1 28-16 583.354 583.354 0 0 1 33-19c12.235-2.801 22.902.199 32 9a5705.588 5705.588 0 0 1 176 101c4.871 1.741 9.204 4.408 13 8a97.144 97.144 0 0 1 18 9.5Z"/><path style="opacity:1" fill="#fdfdfd" d="M448.5 157.5c-.111.617-.444 1.117-1 1.5-28.923 10.013-58.589 13.513-89 10.5a73.86 73.86 0 0 0-9-3.5c-3.25-3.637-7.25-5.97-12-7-5.396-5.42-11.73-9.087-19-11a10892.14 10892.14 0 0 0-27-17l-4-1a1081.768 1081.768 0 0 1-33-20 154.79 154.79 0 0 1-13-6l-4-4a42.498 42.498 0 0 0-13 0 226.438 226.438 0 0 0-29 17c-3.415.406-6.082 2.072-8 5a90.42 90.42 0 0 1-14 6c-3.574 3.951-7.907 6.618-13 8-6.962 5.648-14.628 9.981-23 13a230.435 230.435 0 0 1-32.5 19.5 2946.23 2946.23 0 0 0-1 153 56.965 56.965 0 0 1 10.5 7.5 78.488 78.488 0 0 1 23 13 55.63 55.63 0 0 1 18 10 340.197 340.197 0 0 1 18 8.5c.167 21.669 0 43.336-.5 65a7214.146 7214.146 0 0 1-125-72 7827.247 7827.247 0 0 1 .5-216.5 583.92 583.92 0 0 0 36-19c3.492-1.624 6.492-3.958 9-7l9-3a520.666 520.666 0 0 1 59-34l4-4 10-4c5.229-4.889 11.229-8.555 18-11l3-3 10-4A112.066 112.066 0 0 1 230 34.5 228.066 228.066 0 0 1 254.5 46a1516.16 1516.16 0 0 0 91 52 108.394 108.394 0 0 0 19 13 546.6 546.6 0 0 1 35 18c3.581 3.919 7.914 6.586 13 8 3.671 4.417 8.338 7.083 14 8 6.687 5.387 14.02 9.554 22 12.5Z"/><path style="opacity:1" fill="#fefefe" d="M650.5 409.5a961.42 961.42 0 0 1-1-62 1935.4 1935.4 0 0 0 25-15.5c7.819-2.16 14.319-6.327 19.5-12.5.99-49.416.657-98.75-1-148a36.078 36.078 0 0 0-3.5-4.5 198.572 198.572 0 0 1-36-21 114.302 114.302 0 0 1-13-6 182.852 182.852 0 0 0-35-20c-3.671-4.417-8.338-7.083-14-8a171.322 171.322 0 0 0-19-12c-8.302-.757-15.635 1.576-22 7a68.695 68.695 0 0 0-14 7c-4.302.286-7.635 2.286-10 6-1.952.366-3.618 1.199-5 2.5a32.324 32.324 0 0 1-6-4.5 12.494 12.494 0 0 0-7 0c-4.939 6.778-10.939 12.278-18 16.5a105.648 105.648 0 0 0-24-12.5 7185.005 7185.005 0 0 0-26-16 2551.356 2551.356 0 0 1 60-36l10-4 4-4c3.463-.788 6.463-2.454 9-5 5.048-1.356 9.381-4.023 13-8 8.64-3.004 16.64-7.337 24-13 8.278-1.768 15.278.565 21 7a90.401 90.401 0 0 1 14 6c1.918 2.928 4.585 4.594 8 5a483.026 483.026 0 0 0 51 29l4 4a457.332 457.332 0 0 1 22 11 91.311 91.311 0 0 0 23 13l4 4a203.265 203.265 0 0 1 37 21c4.231.043 6.064 2.21 5.5 6.5.5 70.333.667 140.666.5 211a84.545 84.545 0 0 0-18 8.5 6204.11 6204.11 0 0 0-24 15 114.302 114.302 0 0 1-13 6 379.84 379.84 0 0 1-45 26.5Z"/><path style="opacity:1" fill="#273339" d="M649.5 347.5h-1a53.805 53.805 0 0 1 1-14c2.328-1.8 4.995-2.967 8-3.5a679.07 679.07 0 0 1 23-15 12.93 12.93 0 0 1 5-.5c.167-28.335 0-56.669-.5-85l-2-2-1-51a4305.66 4305.66 0 0 1-114.5-66 322.269 322.269 0 0 0-36 20.5 8.43 8.43 0 0 1-4 .5c-1.245-3.487-3.245-6.487-6-9 1.382-1.301 3.048-2.134 5-2.5 2.365-3.714 5.698-5.714 10-6a68.695 68.695 0 0 1 14-7c6.365-5.424 13.698-7.757 22-7a171.322 171.322 0 0 1 19 12c5.662.917 10.329 3.583 14 8a182.852 182.852 0 0 1 35 20 114.302 114.302 0 0 0 13 6 198.572 198.572 0 0 0 36 21 36.078 36.078 0 0 1 3.5 4.5c1.657 49.25 1.99 98.584 1 148-5.181 6.173-11.681 10.34-19.5 12.5a1935.4 1935.4 0 0 1-25 15.5Z"/><path style="opacity:1" fill="#ece8de" d="M649.5 333.5c-.992-18.773-10.659-30.606-29-35.5-8.327-.5-16.66-.666-25-.5.167-22.669 0-45.336-.5-68a111.89 111.89 0 0 0-25.5-14.5l-4-4a117.669 117.669 0 0 1-17-8c-3.296-4.395-7.629-6.895-13-7.5h-1a101.105 101.105 0 0 1-10-7.5 760.995 760.995 0 0 1-26-14.5c10.208-6.701 19.375-14.701 27.5-24 2.599-5.855 3.099-11.855 1.5-18a8.43 8.43 0 0 0 4-.5 322.269 322.269 0 0 1 36-20.5 4305.66 4305.66 0 0 0 114.5 66l1 51 2 2c.5 28.331.667 56.665.5 85a12.93 12.93 0 0 0-5 .5 679.07 679.07 0 0 0-23 15c-3.005.533-5.672 1.7-8 3.5Z"/><path style="opacity:.999" fill="#393b49" d="M521.5 122.5c2.755 2.513 4.755 5.513 6 9 1.599 6.145 1.099 12.145-1.5 18-8.125 9.299-17.292 17.299-27.5 24a91.552 91.552 0 0 0-11 8 750.935 750.935 0 0 1-29 11 10.134 10.134 0 0 0-4 1.5 524.65 524.65 0 0 0 56-.5 2846.02 2846.02 0 0 0 24 2h1c8.459 4.902 13.459 12.235 15 22a1004.045 1004.045 0 0 0-1.5 45c-1.018 2.428-2.852 3.762-5.5 4-3.212-.212-5.212-1.879-6-5a529.493 529.493 0 0 0-1-46c-1.076-4.245-3.742-7.078-8-8.5-104.67-.065-209.337-.065-314 0-25.31 8.784-33.143 25.617-23.5 50.5 5.966 9.401 14.466 14.901 25.5 16.5 110.999.5 221.999.667 333 .5 12.453 2.542 19.12 10.209 20 23h26c8.34-.166 16.673 0 25 .5 18.341 4.894 28.008 16.727 29 35.5a53.805 53.805 0 0 0-1 14v64c-1.253 5.837-3.587 11.17-7 16-4.959 5.278-10.959 8.944-18 11-2-1.333-3.667-3-5-5-.123-5.386 2.544-8.553 8-9.5 4.752-3.414 7.919-7.914 9.5-13.5.667-28 .667-56 0-84-2.408-7.409-7.242-12.576-14.5-15.5-125.333-.5-250.666-.667-376-.5-.889 5.597 1.111 9.763 6 12.5l361 1c4.112 1.779 7.278 4.612 9.5 8.5a1259.87 1259.87 0 0 1 0 71c-2.147 5.316-5.98 8.649-11.5 10h-64v14h56c3.006 1.348 5.339 3.348 7 6-1.202 2.223-1.869 4.723-2 7.5.004 2.361.337 4.527 1 6.5-6.733 15.706-18.733 22.039-36 19h-26c.166 6.342 0 12.675-.5 19-2.579 1.847-5.412 2.347-8.5 1.5a655.755 655.755 0 0 0-32-12.5 655.755 655.755 0 0 0-32 12.5c-3.038.885-5.705.385-8-1.5l-1-2v-18c-78.835-.333-157.502.001-236 1-23.759 1.925-36.759 14.759-39 38.5 1.025 19.697 11.025 32.364 30 38 2.31.497 4.643.663 7 .5a14126.618 14126.618 0 0 0 336 0c-.124-.607-.457-.94-1-1-4.244-9.885-6.577-20.218-7-31v-13c.972-7.1 2.806-14.1 5.5-21 2.481-1.814 5.315-2.48 8.5-2 1.637 1.474 2.637 3.308 3 5.5a201.862 201.862 0 0 0-3 9.5c.124.607.457.94 1 1-1.715 4.466-2.382 9.133-2 14-.909 13.259 2.091 25.759 9 37.5 2.31.497 4.643.663 7 .5 4.265.066 8.265 1.066 12 3 8.599 5.363 12.599 13.197 12 23.5 1.858 9.974-2.142 14.141-12 12.5h-326c-18.743.32-37.41-.014-56-1a79.054 79.054 0 0 1-12-3 153.706 153.706 0 0 1-15-7c-31.341-21.508-42.508-50.842-33.5-88 3.284-10.755 8.451-20.422 15.5-29 9.5-9.909 20.5-17.575 33-23l12-3a123.888 123.888 0 0 1 19-1c.53-17.53 9.53-26.197 27-26a1089.684 1089.684 0 0 0 1-66h-9c-12.741-3.413-19.074-11.746-19-25h-19a150.242 150.242 0 0 1-12-3 70.61 70.61 0 0 1-18-7.5c-26.611-18.738-37.111-44.238-31.5-76.5 9.402-28.734 28.902-46.234 58.5-52.5a7650.65 7650.65 0 0 0 124-1.5c8.099 1.313 16.099 1.313 24 0 30.411 3.013 60.077-.487 89-10.5.556-.383.889-.883 1-1.5 4.668-.231 9.001-1.898 13-5a86.127 86.127 0 0 0 19-10 45.538 45.538 0 0 0 10-8c7.061-4.222 13.061-9.722 18-16.5a12.494 12.494 0 0 1 7 0 32.324 32.324 0 0 0 6 4.5Z"/><path style="opacity:1" fill="#ef7474" d="M511.5 132.5c5.162 2.197 6.329 5.864 3.5 11-23.835 22.005-51.668 36.839-83.5 44.5a375.073 375.073 0 0 1-44 6l-177 1c-28.788 9.792-40.288 29.626-34.5 59.5 6.092 16.426 17.592 26.926 34.5 31.5l339 1c5.207 1.581 7.541 5.081 7 10.5-115.667.167-231.334 0-347-.5-24.03-5.696-39.196-20.529-45.5-44.5-4.331-32.178 8.502-54.344 38.5-66.5a52.475 52.475 0 0 1 15-3l188-1c35.306-3.873 66.973-16.54 95-38a177.724 177.724 0 0 0 11-11.5Z"/><path style="opacity:1" fill="#283339" d="M498.5 173.5a760.995 760.995 0 0 0 26 14.5 101.105 101.105 0 0 0 10 7.5 2846.02 2846.02 0 0 1-24-2 5.727 5.727 0 0 1-3-1c-4.4-2.536-8.734-5.37-13-8.5-2.651-.153-4.984-.987-7-2.5a91.552 91.552 0 0 1 11-8Z"/><path style="opacity:1" fill="#f9f9f9" d="M487.5 181.5c2.016 1.513 4.349 2.347 7 2.5 4.266 3.13 8.6 5.964 13 8.5a300.7 300.7 0 0 1-49 0 750.935 750.935 0 0 0 29-11Z"/><path style="opacity:1" fill="#c8c9cd" d="M458.5 192.5a300.7 300.7 0 0 0 49 0c.891.61 1.891.943 3 1a524.65 524.65 0 0 1-56 .5 10.134 10.134 0 0 1 4-1.5Z"/><path style="opacity:1" fill="#273238" d="M535.5 195.5c5.371.605 9.704 3.105 13 7.5a117.669 117.669 0 0 0 17 8l4 4a111.89 111.89 0 0 1 25.5 14.5c.5 22.664.667 45.331.5 68h-12c.333-20.677 0-41.344-1-62a408.978 408.978 0 0 1-21-12.5c-3.415-.406-6.082-2.072-8-5a4.934 4.934 0 0 0-3-.5c-1.541-9.765-6.541-17.098-15-22Z"/><path style="opacity:1" fill="#e7f1fc" d="M536.5 215.5v5c-101.001-.167-202.001 0-303 .5-6.338 3.386-6.671 7.386-1 12 101.333.5 202.666.667 304 .5v14a6958.7 6958.7 0 0 0-118 .5c-3.605 3.315-3.939 6.982-1 11 40.218-.153 80.218.681 120 2.5.788 3.121 2.788 4.788 6 5-.472 2.099-.472 4.099 0 6 2.131.669 4.131 1.335 6 2-111.001.167-222.001 0-333-.5-11.034-1.599-19.534-7.099-25.5-16.5-9.643-24.883-1.81-41.716 23.5-50.5 104.663-.065 209.33-.065 314 0 4.258 1.422 6.924 4.255 8 8.5Z"/><path style="opacity:1" fill="#fdfdfd" d="M550.5 217.5a4.934 4.934 0 0 1 3 .5c1.918 2.928 4.585 4.594 8 5a408.978 408.978 0 0 0 21 12.5c1 20.656 1.333 41.323 1 62h-14c-.88-12.791-7.547-20.458-20-23a168.522 168.522 0 0 0-6-2c-.472-1.901-.472-3.901 0-6 2.648-.238 4.482-1.572 5.5-4 .169-15.172.669-30.172 1.5-45Z"/><path style="opacity:1" fill="#cad5ff" d="M536.5 220.5v13c-101.334.167-202.667 0-304-.5-5.671-4.614-5.338-8.614 1-12 100.999-.5 201.999-.667 303-.5Z"/><path style="opacity:1" fill="#c9d4ff" d="M218.5 247.5c46.001-.167 92.001 0 138 .5 3.987 3.713 3.987 7.38 0 11-46.333.667-92.667.667-139 0-2.004-2.841-2.504-6.007-1.5-9.5.995-.566 1.828-1.233 2.5-2ZM383.5 247.5c4.137-.354 8.137.146 12 1.5 2.769 3.607 2.436 6.94-1 10-4 .667-8 .667-12 0-2.884-4.174-2.551-8.007 1-11.5Z"/><path style="opacity:1" fill="#c6d1fc" d="M536.5 215.5a529.493 529.493 0 0 1 1 46 2424.851 2424.851 0 0 0-120-2.5c-2.939-4.018-2.605-7.685 1-11a6958.7 6958.7 0 0 1 118-.5v-32Z"/><path style="opacity:1" fill="#263238" d="M201.5 307.5a150.242 150.242 0 0 0 12 3v118l-12 3v-124Z"/><path style="opacity:1" fill="#fefefe" d="M213.5 310.5h19c-.074 13.254 6.259 21.587 19 25 2.448.973 5.115 1.306 8 1v65c-17.47-.197-26.47 8.47-27 26-6.369-.153-12.703.18-19 1v-118Z"/><path style="opacity:1" fill="#4d72a7" d="M618.5 433.5h-9c-1.661-2.652-3.994-4.652-7-6a756.853 756.853 0 0 0-55-1v-12a992.742 992.742 0 0 0 63-1c5.52-1.351 9.353-4.684 11.5-10a1259.87 1259.87 0 0 0 0-71c-2.222-3.888-5.388-6.721-9.5-8.5l-361-1c-4.889-2.737-6.889-6.903-6-12.5 125.334-.167 250.667 0 376 .5 7.258 2.924 12.092 8.091 14.5 15.5.667 28 .667 56 0 84-1.581 5.586-4.748 10.086-9.5 13.5-5.456.947-8.123 4.114-8 9.5Z"/><path style="opacity:1" fill="#6e6f7b" d="M251.5 335.5h9c.331 22.173-.003 44.173-1 66v-65c-2.885.306-5.552-.027-8-1Z"/><path style="opacity:1" fill="#e7f2fc" d="M609.5 400.5h-62v-26c10.339.166 20.672 0 31-.5 3.987-3.62 3.987-7.287 0-11a612.388 612.388 0 0 0-35-.5h-76a98.432 98.432 0 0 0-14 .5l-2.5 2.5a647.854 647.854 0 0 0-.5 36h-178v-27c51.334.167 102.668 0 154-.5 3.987-3.62 3.987-7.287 0-11-51.332-.5-102.666-.667-154-.5v-27c112-.167 224 0 336 .5l1.5 1.5a663.68 663.68 0 0 1-.5 63Z"/><path style="opacity:1" fill="#cccdd0" d="M648.5 347.5h1a961.42 961.42 0 0 0 1 62c-.333 1-1 1.667-2 2v-64Z"/><path style="opacity:1" fill="#c9d4ff" d="M272.5 362.5c51.334-.167 102.668 0 154 .5 3.987 3.713 3.987 7.38 0 11-51.332.5-102.666.667-154 .5v-12Z"/><path style="opacity:1" fill="#c3cef7" d="M467.5 362.5a10.515 10.515 0 0 1-2.5 3 647.854 647.854 0 0 0-.5 36h-14c-.167-12.005 0-24.005.5-36l2.5-2.5a98.432 98.432 0 0 1 14-.5Z"/><path style="opacity:1" fill="#c9d4fe" d="M543.5 362.5c11.671-.167 23.338 0 35 .5 3.987 3.713 3.987 7.38 0 11-10.328.5-20.661.666-31 .5.306-2.885-.027-5.552-1-8-.271-1.93-1.271-3.264-3-4Z"/><path style="opacity:1" fill="#f27575" d="M476.5 374.5h58v97l-29-10-29 10v-97Z"/><path style="opacity:1" fill="#b0b7c4" d="M546.5 366.5c.973 2.448 1.306 5.115 1 8v26h62a992.742 992.742 0 0 1-63 1v-35Z"/><path style="opacity:1" fill="#4d72a7" d="M252.5 414.5h197v12h-204c-.853-5.605 1.48-9.605 7-12Z"/><path style="opacity:1" fill="#31516a" d="M450.5 413.5h14v14h-14v-14Z"/><path style="opacity:1" fill="#486590" d="M252.5 414.5a9806.215 9806.215 0 0 1 198-1v14c-68.502.333-136.835-.001-205-1h204v-12h-197Z"/><path style="opacity:1" fill="#48638d" d="M610.5 413.5a992.742 992.742 0 0 1-63 1v12c18.508-.33 36.841.003 55 1h-56v-14h64Z"/><path style="opacity:1" fill="#273339" d="M609.5 433.5h9c1.333 2 3 3.667 5 5a79.648 79.648 0 0 1-15 9c-.663-1.973-.996-4.139-1-6.5.131-2.777.798-5.277 2-7.5Z"/><path style="opacity:1" fill="#c8a564" d="M220.5 440.5c81.165-.999 162.498-1.333 244-1 .319 4.863-.014 9.53-1 14v-13h-243Z"/><path style="opacity:1" fill="#c3a365" d="M594.5 440.5h-47v13c-.986-4.47-1.319-9.137-1-14 16.175-.33 32.175.004 48 1Z"/><path style="opacity:1" fill="#fccd70" d="M220.5 440.5h230v13c-76.001-.167-152.001 0-228 .5-23.507 4.506-38.341 18.34-44.5 41.5-3.034 32.293 11.133 52.46 42.5 60.5l368 1c5.363 2.91 7.363 7.41 6 13.5-125.334.167-250.667 0-376-.5-30.491-6.491-48.991-24.991-55.5-55.5-1.728-32.716 12.105-56.216 41.5-70.5a46.394 46.394 0 0 1 16-3.5Z"/><path style="opacity:1" fill="#f3a44c" d="M450.5 440.5h13v13h-13v-13Z"/><path style="opacity:1" fill="#fecf70" d="M594.5 440.5c1.064 5.704-.936 9.871-6 12.5a840.27 840.27 0 0 1-41 .5v-13h47Z"/><path style="opacity:1" fill="#666a79" d="M228.5 466.5c78.498-.999 157.165-1.333 236-1v18c-.989-5.475-1.322-11.142-1-17h-235Z"/><path style="opacity:1" fill="#e9f4fe" d="M228.5 466.5h222c-.166 6.675 0 13.342.5 20 1.126 1.444 2.626 2.11 4.5 2a43.386 43.386 0 0 0 10-3c2.295 1.885 4.962 2.385 8 1.5a655.755 655.755 0 0 1 32-12.5 655.755 655.755 0 0 1 32 12.5c3.088.847 5.921.347 8.5-1.5.5-6.325.666-12.658.5-19h26a478.858 478.858 0 0 0-4 9c-3.185-.48-6.019.186-8.5 2-2.694 6.9-4.528 13.9-5.5 21-111.667-.167-223.334 0-335 .5-3.792 2.053-4.958 5.219-3.5 9.5a6.978 6.978 0 0 0 3.5 2.5c111.666.5 223.333.667 335 .5.423 10.782 2.756 21.115 7 31a28063.812 28063.812 0 0 1-335 1 24.935 24.935 0 0 1-7-.5c-18.975-5.636-28.975-18.303-30-38 2.241-23.741 15.241-36.575 39-38.5Z"/><path style="opacity:1" fill="#c8d3fe" d="M450.5 466.5h13c-.322 5.858.011 11.525 1 17l1 2a43.386 43.386 0 0 1-10 3c-1.874.11-3.374-.556-4.5-2-.5-6.658-.666-13.325-.5-20Z"/><path style="opacity:1" fill="#263238" d="M595.5 546.5c-3.735-1.934-7.735-2.934-12-3 .167-15.67 0-31.337-.5-47a187.403 187.403 0 0 1-15.5 9c-.382-4.867.285-9.534 2-14 .453-.958 1.119-1.792 2-2.5a58.12 58.12 0 0 0 11-5c4.652-1.193 8.819-.36 12.5 2.5.5 19.997.667 39.997.5 60Z"/><path style="opacity:1" fill="#fbfbfb" d="M583.5 543.5a24.935 24.935 0 0 1-7-.5c-6.909-11.741-9.909-24.241-9-37.5a187.403 187.403 0 0 0 15.5-9c.5 15.663.667 31.33.5 47Z"/><path style="opacity:1" fill="#cad5fe" d="M554.5 498.5v13c-111.667.167-223.334 0-335-.5a6.978 6.978 0 0 1-3.5-2.5c-1.458-4.281-.292-7.447 3.5-9.5 111.666-.5 223.333-.667 335-.5Z"/><path style="opacity:1" fill="#656977" d="M561.5 542.5c.543.06.876.393 1 1a14126.618 14126.618 0 0 1-336 0c111.835.333 223.501-.001 335-1Z"/><path style="opacity:1" fill="#273339" d="M201.5 578.5a79.054 79.054 0 0 0 12 3c-.167 20.336 0 40.669.5 61a46.99 46.99 0 0 0 10.5 5.5l4 4a90.42 90.42 0 0 0 14 6 77.598 77.598 0 0 0 23 13l4 4 10 4c4.933 4.604 10.6 7.938 17 10 3.574 3.951 7.907 6.618 13 8 6.962 5.648 14.628 9.981 23 13 1.918 2.928 4.585 4.594 8 5a78.488 78.488 0 0 0 23 13c3.671 4.417 8.338 7.083 14 8 2.457 3.058 5.457 5.392 9 7a97.288 97.288 0 0 1 12 5.5 7683.65 7683.65 0 0 0 184-106c1-19.655 1.333-39.322 1-59v-1h12c.167 20.003 0 40.003-.5 60-3.051 6.721-7.884 11.888-14.5 15.5-8.382 3.359-16.049 8.026-23 14a112.343 112.343 0 0 0-17 8 70.186 70.186 0 0 1-18 10 91.311 91.311 0 0 1-23 13 319.99 319.99 0 0 1-46 27l-4 4c-6.4 2.062-12.067 5.396-17 10l-10 4a78.988 78.988 0 0 1-14 9 92.109 92.109 0 0 0-10.5 2.5 66.364 66.364 0 0 1-9.5-2.5 35.157 35.157 0 0 0-10-5c-3.796-3.592-8.129-6.259-13-8a279.412 279.412 0 0 0-19-12c-3.959.349-6.626-1.317-8-5l-10-4a201.636 201.636 0 0 0-27-17 24.569 24.569 0 0 1-8-3c-11.4-8.753-23.733-15.753-37-21a147.725 147.725 0 0 0-17-12 82.842 82.842 0 0 1-19-11c-6.853-2.406-13.02-5.906-18.5-10.5-.5-23.331-.667-46.664-.5-70Z"/><path style="opacity:1" fill="#fdfdfd" d="M213.5 581.5c18.59.986 37.257 1.32 56 1-.166 9.006 0 18.006.5 27 5.97 6.53 13.137 11.03 21.5 13.5a27.816 27.816 0 0 1 8 6 420.445 420.445 0 0 0 32 17c3.705 4.342 8.372 7.009 14 8a50.886 50.886 0 0 1 10 7 605.838 605.838 0 0 0 38 21c4 .667 8 .667 12 0 6.962-5.648 14.628-9.981 23-13a679.07 679.07 0 0 0 23-15l22-11a83.449 83.449 0 0 1 24-13c3.391-3.687 7.391-6.354 12-8a142.458 142.458 0 0 0 16-10c1.537-1.11 2.203-2.61 2-4.5.992-7.816 1.326-15.816 1-24h55c.333 19.678 0 39.345-1 59a7683.65 7683.65 0 0 1-184 106 97.288 97.288 0 0 0-12-5.5c-3.543-1.608-6.543-3.942-9-7-5.662-.917-10.329-3.583-14-8a78.488 78.488 0 0 1-23-13c-3.415-.406-6.082-2.072-8-5-8.372-3.019-16.038-7.352-23-13-5.093-1.382-9.426-4.049-13-8-6.4-2.062-12.067-5.396-17-10l-10-4-4-4a77.598 77.598 0 0 1-23-13 90.42 90.42 0 0 1-14-6l-4-4a46.99 46.99 0 0 1-10.5-5.5c-.5-20.331-.667-40.664-.5-61Z"/><path style="opacity:1" fill="#ccced1" d="M527.5 582.5h56v1h-55c.326 8.184-.008 16.184-1 24v-25Z"/><path style="opacity:1" fill="#273339" d="M269.5 582.5h12v23c3.978-.534 6.978.966 9 4.5a32.449 32.449 0 0 0 9 4l27 17a90.42 90.42 0 0 0 14 6 523.182 523.182 0 0 0 22 15c8.681 3.01 16.681 7.344 24 13 4.471 2.161 8.971 4.327 13.5 6.5a2929.62 2929.62 0 0 1 12.5-8.5 146.497 146.497 0 0 0 31-18c5.093-1.382 9.426-4.049 13-8l9-3a686.508 686.508 0 0 1 52-30.5 111.148 111.148 0 0 0 1-21h9v25c.203 1.89-.463 3.39-2 4.5a142.458 142.458 0 0 1-16 10c-4.609 1.646-8.609 4.313-12 8a83.449 83.449 0 0 0-24 13l-22 11a679.07 679.07 0 0 1-23 15c-8.372 3.019-16.038 7.352-23 13-4 .667-8 .667-12 0a605.838 605.838 0 0 1-38-21 50.886 50.886 0 0 0-10-7c-5.628-.991-10.295-3.658-14-8a420.445 420.445 0 0 1-32-17 27.816 27.816 0 0 0-8-6c-8.363-2.47-15.53-6.97-21.5-13.5-.5-8.994-.666-17.994-.5-27Z"/><path style="opacity:1" fill="#ebe7dd" d="M281.5 582.5h237c.33 7.032-.003 14.032-1 21a686.508 686.508 0 0 0-52 30.5l-9 3c-3.574 3.951-7.907 6.618-13 8a146.497 146.497 0 0 1-31 18 2929.62 2929.62 0 0 0-12.5 8.5 5215.086 5215.086 0 0 1-13.5-6.5c-7.319-5.656-15.319-9.99-24-13a523.182 523.182 0 0 1-22-15 90.42 90.42 0 0 1-14-6l-27-17a32.449 32.449 0 0 1-9-4c-2.022-3.534-5.022-5.034-9-4.5v-23Z"/><path style="opacity:1" fill="#ece9de" d="M599.5 686.5c1.333.667 1.333.667 0 0ZM570.5 703.5c1.333.667 1.333.667 0 0ZM476.5 757.5c1.333.667 1.333.667 0 0Z"/></svg>