<?xml version="1.0" standalone="no"?>
<!DOCTYPE svg PUBLIC "-//W3C//DTD SVG 20010904//EN"
 "http://www.w3.org/TR/2001/REC-SVG-20010904/DTD/svg10.dtd">
<svg version="1.0" xmlns="http://www.w3.org/2000/svg"
 width="100.000000pt" height="100.000000pt" viewBox="0 0 100.000000 100.000000"
 preserveAspectRatio="xMidYMid meet">

<g transform="translate(0.000000,100.000000) scale(0.100000,-0.100000)"
fill="#000000" stroke="none">
<path d="M370 976 c-153 -43 -288 -169 -339 -319 -83 -240 26 -500 257 -614
73 -37 80 -38 196 -41 135 -4 197 11 287 68 318 204 302 683 -28 863 -100 54
-264 73 -373 43z m207 -288 c95 -95 177 -186 183 -201 14 -39 13 -112 -4 -150
-7 -18 -47 -64 -88 -104 -80 -77 -112 -90 -190 -80 -36 5 -54 18 -132 96 l-91
91 -3 141 c-4 149 1 189 20 189 7 0 34 -21 60 -47 l48 -47 0 142 c0 108 3 142
13 142 7 0 90 -78 184 -172z"/>
</g>
</svg>
