<?xml version="1.0" standalone="no"?>
<!DOCTYPE svg PUBLIC "-//W3C//DTD SVG 20010904//EN"
 "http://www.w3.org/TR/2001/REC-SVG-20010904/DTD/svg10.dtd">
<svg version="1.0" xmlns="http://www.w3.org/2000/svg"
 width="360.000000pt" height="640.000000pt" viewBox="0 0 360.000000 640.000000"
 preserveAspectRatio="xMidYMid meet">

<g transform="translate(0.000000,640.000000) scale(0.100000,-0.100000)"
fill="#000000" stroke="none">
<path d="M3130 6384 c0 -4 15 -72 34 -153 45 -190 81 -389 96 -526 14 -130 8
-612 -8 -665 -6 -19 -21 -91 -33 -160 -46 -267 -80 -422 -106 -485 -30 -73
-87 -148 -110 -143 -8 2 -30 39 -48 84 -100 248 -187 332 -367 350 -75 7 -184
-14 -265 -51 -30 -13 -58 -23 -62 -20 -4 2 -30 -19 -57 -46 -27 -28 -61 -59
-75 -69 l-26 -19 5 24 c7 39 -25 31 -42 -9 -12 -30 -77 -86 -98 -86 -5 0 -8
18 -8 40 0 23 -7 55 -16 73 l-17 31 -21 -66 c-22 -68 -45 -101 -80 -120 -16
-9 -18 -7 -13 6 9 23 -3 76 -17 76 -7 0 -23 -25 -35 -55 -13 -30 -35 -64 -49
-76 -42 -33 -80 -98 -87 -150 -6 -39 -13 -53 -42 -75 -37 -28 -72 -93 -73
-132 0 -21 3 -20 37 14 38 39 135 89 193 100 l35 7 -16 -24 c-9 -13 -50 -41
-92 -61 -42 -21 -81 -47 -87 -59 -15 -27 -5 -36 17 -17 30 26 60 38 120 49 83
14 185 49 208 69 37 33 132 70 180 70 46 0 94 -18 128 -48 52 -46 22 61 -33
116 -36 36 -39 42 -25 55 8 9 15 18 15 21 0 10 112 112 143 129 24 14 48 17
100 15 57 -3 71 -8 94 -30 26 -26 26 -30 24 -140 -3 -200 -53 -343 -169 -489
-248 -313 -713 -529 -1242 -580 -205 -19 -504 3 -697 51 -98 25 -258 103 -345
169 -64 48 -98 63 -98 41 0 -22 67 -83 163 -148 185 -125 284 -178 402 -213
61 -17 124 -38 140 -44 17 -7 98 -18 180 -25 83 -7 154 -16 158 -20 14 -12
-302 -55 -443 -60 l-25 -1 23 -10 c34 -13 228 -37 375 -45 70 -4 130 -11 133
-15 8 -14 106 -10 155 5 24 8 76 27 114 44 85 35 117 44 109 30 -16 -26 -202
-101 -345 -139 -194 -52 -197 -53 -124 -57 103 -6 243 15 360 53 113 37 265
58 265 38 0 -6 -26 -35 -58 -65 -51 -46 -105 -80 -209 -132 -13 -6 -23 -14
-23 -18 0 -22 63 0 214 72 92 44 176 80 186 80 10 0 25 -11 34 -25 9 -14 21
-25 27 -25 5 0 21 25 35 55 27 58 33 61 75 42 l27 -12 -87 -111 c-105 -133
-230 -328 -282 -439 -114 -243 -131 -588 -43 -893 73 -253 270 -547 559 -837
148 -147 234 -215 385 -303 215 -125 377 -180 570 -191 143 -8 191 0 297 51
l68 33 -295 5 c-343 7 -362 11 -521 106 -360 217 -674 552 -810 865 -72 166
-109 351 -109 549 0 337 98 570 365 870 95 106 191 195 198 183 2 -5 14 -43
27 -85 15 -47 30 -78 38 -78 46 0 70 45 101 189 22 100 37 135 73 169 19 17
31 21 56 16 39 -8 40 -18 12 -162 -36 -187 -22 -226 31 -85 l33 87 18 -42 c19
-43 32 -52 42 -29 5 9 7 10 12 0 10 -22 25 -14 40 22 10 24 14 73 14 162 0
110 -3 133 -20 161 -27 43 -25 52 9 52 36 0 77 -32 85 -67 4 -16 16 -47 27
-70 l20 -41 35 21 c30 19 34 26 29 52 -3 17 -7 48 -10 70 -6 37 -5 39 9 20 47
-63 48 -63 42 -21 -3 23 -24 68 -51 109 l-47 69 26 27 c15 15 44 74 66 132 27
72 48 112 70 132 17 15 34 27 40 27 5 0 10 -21 12 -47 l3 -48 33 70 c43 91 81
129 169 172 40 19 75 39 78 44 4 5 -13 9 -37 9 l-43 0 42 28 c47 29 56 48 21
38 -13 -3 -46 -9 -75 -12 -42 -5 -58 -3 -86 15 -50 31 -61 68 -34 120 l21 41
87 0 c48 0 91 5 94 10 3 6 -7 22 -24 36 -23 19 -31 34 -31 58 0 31 2 32 60 44
70 15 240 99 240 120 0 8 -7 11 -17 8 -56 -16 -184 -38 -189 -33 -4 3 15 30
41 59 27 30 67 95 96 154 73 151 67 163 -44 88 -37 -26 -70 -44 -73 -41 -3 3
17 38 44 79 81 120 152 278 126 278 -5 0 -34 -26 -66 -57 l-58 -57 0 34 c0 66
21 161 62 288 34 107 41 144 46 237 4 101 3 109 -12 96 -9 -7 -16 -22 -16 -32
0 -27 -49 -146 -66 -160 -22 -18 -18 44 11 193 24 121 24 134 15 307 -9 161
-36 352 -59 414 -5 13 -10 -57 -14 -178 -4 -159 -9 -216 -26 -280 -12 -43 -25
-83 -29 -87 -4 -4 -15 63 -25 148 -20 177 -56 357 -93 471 -32 95 -104 253
-115 253 -5 0 -9 -3 -9 -6z m-1370 -2194 c0 -20 -25 -38 -37 -26 -5 5 24 46
34 46 1 0 3 -9 3 -20z m1394 -445 c-4 -8 -10 -15 -15 -15 -5 0 -9 7 -9 15 0 8
7 15 15 15 9 0 12 -6 9 -15z m-58 -73 c-23 -23 -33 -6 -10 19 12 13 20 16 22
9 3 -7 -3 -19 -12 -28z m-261 -452 c0 -7 -6 -15 -12 -17 -8 -3 -13 4 -13 17 0
13 5 20 13 18 6 -3 12 -11 12 -18z m-795 -310 c12 -8 8 -16 -24 -49 -43 -44
-51 -44 -58 -6 -4 19 1 31 20 45 27 22 40 24 62 10z m670 -175 c0 -19 -4 -35
-10 -35 -5 0 -10 16 -10 35 0 19 5 35 10 35 6 0 10 -16 10 -35z m-430 -20 c0
-8 -7 -15 -15 -15 -8 0 -15 7 -15 15 0 8 7 15 15 15 8 0 15 -7 15 -15z"/>
</g>
</svg>
