<?xml version="1.0" encoding="UTF-8"?><svg xmlns="http://www.w3.org/2000/svg" width="800" height="800" style="shape-rendering:geometricPrecision;text-rendering:geometricPrecision;image-rendering:optimizeQuality;fill-rule:evenodd;clip-rule:evenodd"><path style="opacity:1" fill="#020202" d="M576.5-.5h9a2.429 2.429 0 0 0 .5 2c1.049-1.017 2.216-1.184 3.5-.5a20.495 20.495 0 0 0 2.5 3.5c1.356-.88 2.856-1.214 4.5-1v3c2.822 1.432 6.489 2.432 11 3v3c2.092.061 3.592 1.061 4.5 3 2.537-.677 4.537.323 6 3 2.361-.566 4.194.434 5.5 3l2-1c.35 2.067 2.017 3.067 5 3v3h6v3h5v3h6v3a27.247 27.247 0 0 0 9 3c-.219 1.175.114 2.175 1 3a6.846 6.846 0 0 1 4-1v3a8.435 8.435 0 0 1 4 .5c-1.154.914-.987 1.747.5 2.5 1.299-.466 2.799-.466 4.5 0v3h6v3h5v3a428.986 428.986 0 0 0 20 8.5l-2 1c2.522.61 4.522 1.943 6 4 1.634.493 3.301.66 5 .5v3c2.908-.238 5.242.762 7 3 .951-.826 1.951-.992 3-.5l-1 1a6.977 6.977 0 0 1 3.5 2.5l1-1c.483.948.649 1.948.5 3h6v3h5v3c1.951-.273 3.451.393 4.5 2l1-1c6 4.386 12.5 7.886 19.5 10.5l-1 1c1.525 1.009 3.192 1.509 5 1.5v3h6v3h5v3c2.041.354 3.874.354 5.5 0 .483.948.649 1.948.5 3 2.836 1.276 5.836 1.942 9 2a7971.884 7971.884 0 0 1 2 251c-3.013-.128-5.513.872-7.5 3-2.411-1.653-3.578-.987-3.5 2-1.701.466-3.201.466-4.5 0-3.844 1.975-7.177 4.642-10 8l-1-1c-1.049 1.607-2.549 2.273-4.5 2v3c-3.937.204-7.604 1.204-11 3 .381 2.442-.286 3.109-2 2-.886.825-1.219 1.825-1 3h-6v3a12.93 12.93 0 0 0-5 .5c-1.079 2.043-2.746 3.376-5 4l1 1a12.93 12.93 0 0 1-5 .5v3a9.86 9.86 0 0 0-6 1c-3.423 1.192-6.256 3.192-8.5 6l-1-1c-1.049 1.607-2.549 2.273-4.5 2v3h-6v3h-5v3c-2.185.388-4.018 1.388-5.5 3-2.278-1.12-3.778-.287-4.5 2.5a101.955 101.955 0 0 0-13 5.5v3h-6v3h-6v3c-1.788-.285-3.455.048-5 1 1.129 2.029.629 2.363-1.5 1-1.712 3.452-4.212 4.452-7.5 3 .237 1.291-.096 2.291-1 3-.297-7.42.036-14.754 1-22a4488.86 4488.86 0 0 1 84-48.5l8-6a190.921 190.921 0 0 0 21.5-10.5c.667-76 .667-152 0-228a7.293 7.293 0 0 1-2-3A695.406 695.406 0 0 1 702.5 97a457.332 457.332 0 0 0-22-11l-4-4a161.879 161.879 0 0 1-33-19c-6.4-2.062-12.067-5.396-17-10l-19-9a30.312 30.312 0 0 0-12-7c-2.365-3.714-5.698-5.714-10-6-10.077-9.273-21.077-10.607-33-4a477.385 477.385 0 0 1-40 23 663.873 663.873 0 0 1-55 31 260.747 260.747 0 0 1-26 16c-7.588 4.924-7.921 10.257-1 16 2.868.861 5.202 2.528 7 5a4.934 4.934 0 0 0 3 .5c-11.902 1.32-23.902 1.32-36 0a27.603 27.603 0 0 0-5-1.5 10892.14 10892.14 0 0 0-27-17 326.577 326.577 0 0 1-27-14c-3.83-4.162-8.497-6.83-14-8a2084.03 2084.03 0 0 0-77-44c-9.098-8.801-19.765-11.801-32-9-4.194 3.22-8.86 5.554-14 7a2157.081 2157.081 0 0 1-68 39c-5.387 4.362-11.387 7.695-18 10a21507.796 21507.796 0 0 1-28 18c-5.503 1.171-10.17 3.837-14 8A579.672 579.672 0 0 0 38 129.5 3410.247 3410.247 0 0 0 36.5 245c-.152 38.537.348 77.037 1.5 115.5a883.496 883.496 0 0 1 9.5 5.5c1.374 3.683 4.04 5.349 8 5a130.15 130.15 0 0 0 23 13 1960.966 1960.966 0 0 0 67 39.5 116.8 116.8 0 0 1 1 21 23.142 23.142 0 0 0-8-2v-3h-6v-3h-3v-3h-6v-3h-5v-3c-2.921.354-5.254-.646-7-3-1.714 1.109-2.381.442-2-2a58.97 58.97 0 0 1-11-3v-3a27.267 27.267 0 0 0-9-3v-3c-2.908.238-5.242-.762-7-3a3.647 3.647 0 0 0-1.5 1c-1.667-1-3-2.333-4-4l-1 1a4.932 4.932 0 0 1-.5-3h-6v-3h-5v-3a544.412 544.412 0 0 1-29-14v-3a58.967 58.967 0 0 1-11-3v-3h-6v-3c-4.013-1.674-8.013-3.341-12-5 .008-83.648.008-167.148 0-250.5a169.104 169.104 0 0 0 15-5.5v-3a58.967 58.967 0 0 0 11-3v-3a417.79 417.79 0 0 0 15-7 32.686 32.686 0 0 0 8.5-6l1 1c1.049-1.607 2.549-2.273 4.5-2v-3a59.029 59.029 0 0 1 11-3 4.932 4.932 0 0 1 .5-3l1 1c2.015-3.065 4.515-4.065 7.5-3v-3h5v-3c1.7.16 3.366-.007 5-.5 1.478-2.057 3.478-3.39 6-4l-2-1a18.436 18.436 0 0 1 6-.5v-3a87.51 87.51 0 0 0 14-5v-3h6v-3h5v-3c1.701-.466 3.201-.466 4.5 0 3.279-4.047 7.946-7.047 14-9a18.264 18.264 0 0 0 5-4l1 1c1.049-1.607 2.549-2.273 4.5-2v-3h5v-3h6v-3c4.612-1.195 9.279-2.862 14-5v-3c1.701-.466 3.201-.466 4.5 0 .908-1.939 2.408-2.939 4.5-3v-3h6v-3c1.788.285 3.455-.048 5-1a38.767 38.767 0 0 0 7-4.5 49.25 49.25 0 0 1 14 0c2.025 1.677 4.359 2.677 7 3-1.134 1.016-.801 1.683 1 2l5 1-1 1c2.622 3.073 5.955 4.573 10 4.5v3h6v3c3.191.262 5.858 1.596 8 4a9.864 9.864 0 0 0 6 1v3c3.58 1.22 7.247 2.386 11 3.5l-2 1c2.767.678 4.934 2.178 6.5 4.5l1-1c3.769 1.797 7.102 4.13 10 7a3.942 3.942 0 0 1 2-1c1.482 1.612 3.315 2.612 5.5 3v3h6v3h5v3h6v3a87.51 87.51 0 0 0 14 5v3c1.699-.16 3.366.007 5 .5l-1 1c1.525 1.009 3.192 1.509 5 1.5v3h6v3h5v3c2.985-1.065 5.485-.065 7.5 3l1-1c.483.948.649 1.948.5 3h5v3h6v3c2.133 1.386 5.133 2.386 9 3v3c2.908-.238 5.242.762 7 3l2-1c.35 2.067 2.017 3.067 5 3v3h6v3c2.516-.255 4.85-1.089 7-2.5a626.207 626.207 0 0 1 29-17c.837-1.011 1.17-2.178 1-3.5 4.493-.216 7.993-2.216 10.5-6 1.011.837 2.178 1.17 3.5 1v-3a59.031 59.031 0 0 0 11-3v-3c1.808.009 3.475-.491 5-1.5l-1-1a12.935 12.935 0 0 1 5-.5v-3a9.864 9.864 0 0 0 6-1 35.213 35.213 0 0 1 8-4v-3h6v-3a59.031 59.031 0 0 1 11-3v-3c1.808.009 3.475-.491 5-1.5-1.388-.89-1.222-1.39.5-1.5 2.071 1.167 3.571.5 4.5-2 6.434-2.343 12.767-5.343 19-9v-3a59.031 59.031 0 0 1 11-3 4.934 4.934 0 0 1 .5-3l1 1c1.995-2.247 4.495-3.247 7.5-3v-3h5v-3h6v-3c1.808.009 3.475-.491 5-1.5l-1-1a12.936 12.936 0 0 1 5-.5v-3c3.552.188 6.219-1.145 8-4Z"/><path style="opacity:1" fill="#fcfcfc" d="M647.5 425.5c-1.297-4.566-1.297-9.233 0-14a2726.874 2726.874 0 0 0 85-49.5 84.545 84.545 0 0 1 18-8.5c.167-70.334 0-140.667-.5-211 .564-4.29-1.269-6.457-5.5-6.5a707.837 707.837 0 0 0-58-33l-6-5a1459.016 1459.016 0 0 1-77-44c-3.415-.406-6.082-2.072-8-5a90.401 90.401 0 0 0-14-6c-5.722-6.435-12.722-8.768-21-7-7.36 5.663-15.36 9.996-24 13-3.619 3.977-7.952 6.644-13 8-2.537 2.546-5.537 4.212-9 5l-4 4-10 4a2551.356 2551.356 0 0 0-60 36 191.205 191.205 0 0 0 23 12.5c-7.568 1.312-15.235 1.312-23 0a4.934 4.934 0 0 1-3-.5c-1.798-2.472-4.132-4.139-7-5-6.921-5.743-6.588-11.076 1-16a260.747 260.747 0 0 0 26-16 663.873 663.873 0 0 0 55-31 477.385 477.385 0 0 0 40-23c11.923-6.607 22.923-5.273 33 4 4.302.286 7.635 2.286 10 6a30.312 30.312 0 0 1 12 7l19 9c4.933 4.604 10.6 7.938 17 10a161.879 161.879 0 0 0 33 19l4 4a457.332 457.332 0 0 1 22 11 695.406 695.406 0 0 0 56.5 32.5 7.293 7.293 0 0 0 2 3c.667 76 .667 152 0 228a190.921 190.921 0 0 1-21.5 10.5l-8 6a4488.86 4488.86 0 0 0-84 48.5Z"/><path style="opacity:1" fill="#fafafa" d="M404.5 118.5c-7.482.992-15.148 1.325-23 1a199.923 199.923 0 0 1-23-13.5c-5.079-1.403-9.412-4.07-13-8a1536.383 1536.383 0 0 1-91-52A228.066 228.066 0 0 0 230 34.5 112.066 112.066 0 0 0 206.5 48l-10 4-3 3c-6.771 2.445-12.771 6.111-18 11l-10 4-4 4a520.666 520.666 0 0 0-59 34l-9 3c-3.796 3.592-8.13 6.259-13 8A361.546 361.546 0 0 1 48 137.5c-.667 72-.667 144 0 216A65.836 65.836 0 0 1 64.5 364l22 11a71.916 71.916 0 0 1 9 7 1029.106 1029.106 0 0 1 50 27.5c1.297 4.767 1.297 9.434 0 14a1960.966 1960.966 0 0 1-67-39.5 130.15 130.15 0 0 1-23-13c-3.96.349-6.626-1.317-8-5a883.496 883.496 0 0 0-9.5-5.5A3410.247 3410.247 0 0 1 36.5 245c-.152-38.537.348-77.037 1.5-115.5A579.672 579.672 0 0 1 80.5 107c3.83-4.163 8.497-6.829 14-8 9.322-5.982 18.655-11.982 28-18 6.613-2.305 12.613-5.638 18-10 22.924-12.6 45.591-25.6 68-39 5.14-1.446 9.806-3.78 14-7 12.235-2.801 22.902.199 32 9a2084.03 2084.03 0 0 1 77 44c5.503 1.17 10.17 3.838 14 8a326.577 326.577 0 0 0 27 14c8.98 5.636 17.98 11.302 27 17 1.747.352 3.414.852 5 1.5Z"/><path style="opacity:1" fill="#010101" d="M381.5 119.5c-37.406.327-74.739-.007-112-1a636.854 636.854 0 0 0-28-14.5c-2.435-3.89-5.935-5.39-10.5-4.5l-6.5.5a226.438 226.438 0 0 0-29 17 27.603 27.603 0 0 0-5 1.5 451.194 451.194 0 0 1-29 1.5c-11.485 4.601-16.818 13.101-16 25.5-10.84 5.134-21.173 11.301-31 18.5a24.569 24.569 0 0 0-8 3 6.978 6.978 0 0 0-2.5 3.5 5697.651 5697.651 0 0 0 0 151 76.322 76.322 0 0 0 18.5 10.5 204.2 204.2 0 0 0 23 13.5 515.326 515.326 0 0 1 0 64 1029.106 1029.106 0 0 0-50-27.5 71.916 71.916 0 0 0-9-7l-22-11A65.836 65.836 0 0 0 48 353.5c-.667-72-.667-144 0-216A361.546 361.546 0 0 0 80.5 119c4.87-1.741 9.204-4.408 13-8l9-3a520.666 520.666 0 0 1 59-34l4-4 10-4c5.229-4.889 11.229-8.555 18-11l3-3 10-4A112.066 112.066 0 0 1 230 34.5 228.066 228.066 0 0 1 254.5 46a1536.383 1536.383 0 0 0 91 52c3.588 3.93 7.921 6.597 13 8a199.923 199.923 0 0 0 23 13.5ZM647.5 411.5a483.652 483.652 0 0 1 0-62c5.656-4.796 11.99-8.63 19-11.5l8-6c7.819-2.16 14.319-6.327 19.5-12.5.826-49.195.66-98.362-.5-147.5a2187.73 2187.73 0 0 0-4-5 197.694 197.694 0 0 0-17-8l-9-7a249.67 249.67 0 0 1-16-8.5c-.142-12.31-6.142-20.143-18-23.5a340.496 340.496 0 0 1-25-1.5c-3.764-3.201-8.097-5.368-13-6.5a171.322 171.322 0 0 0-19-12c-8.302-.757-15.635 1.576-22 7a68.695 68.695 0 0 0-14 7l-5 1a19.552 19.552 0 0 1-4 3.5 512.628 512.628 0 0 1-64 0 191.205 191.205 0 0 1-23-12.5 2551.356 2551.356 0 0 1 60-36l10-4 4-4c3.463-.788 6.463-2.454 9-5 5.048-1.356 9.381-4.023 13-8 8.64-3.004 16.64-7.337 24-13 8.278-1.768 15.278.565 21 7a90.401 90.401 0 0 1 14 6c1.918 2.928 4.585 4.594 8 5a1459.016 1459.016 0 0 0 77 44l6 5a707.837 707.837 0 0 1 58 33c4.231.043 6.064 2.21 5.5 6.5.5 70.333.667 140.666.5 211a84.545 84.545 0 0 0-18 8.5 2726.874 2726.874 0 0 1-85 49.5Z"/><path style="opacity:1" fill="#fcfcfc" d="M269.5 118.5c-7.568 1.312-15.235 1.312-23 0-5.292-1.271-9.792-3.937-13.5-8-1.604 1.149-3.27 1.149-5 0a111.498 111.498 0 0 1-14.5 9c-7.852.325-15.518-.008-23-1a27.603 27.603 0 0 1 5-1.5 226.438 226.438 0 0 1 29-17l6.5-.5c4.565-.89 8.065.61 10.5 4.5a636.854 636.854 0 0 1 28 14.5ZM604.5 118.5c-7.482.992-15.148 1.325-23 1a3142.493 3142.493 0 0 0-14-9 104.894 104.894 0 0 1-16 8c-8.099 1.313-16.099 1.313-24 0a19.552 19.552 0 0 0 4-3.5l5-1a68.695 68.695 0 0 1 14-7c6.365-5.424 13.698-7.757 22-7a171.322 171.322 0 0 1 19 12c4.903 1.132 9.236 3.299 13 6.5Z"/><path style="opacity:1" fill="#0e0e0e" d="M246.5 118.5c-10.821.995-21.821 1.328-33 1a111.498 111.498 0 0 0 14.5-9c1.73 1.149 3.396 1.149 5 0 3.708 4.063 8.208 6.729 13.5 8ZM581.5 119.5c-10.181.327-20.181-.006-30-1a104.894 104.894 0 0 0 16-8c4.731 3.024 9.398 6.024 14 9Z"/><path style="opacity:.999" fill="#293e55" d="M190.5 118.5c7.482.992 15.148 1.325 23 1 11.179.328 22.179-.005 33-1 7.765 1.312 15.432 1.312 23 0 37.261.993 74.594 1.327 112 1 7.852.325 15.518-.008 23-1 12.098 1.32 24.098 1.32 36 0 7.765 1.312 15.432 1.312 23 0a512.628 512.628 0 0 0 64 0c7.901 1.313 15.901 1.313 24 0 9.819.994 19.819 1.327 30 1 7.852.325 15.518-.008 23-1a340.496 340.496 0 0 0 25 1.5c11.858 3.357 17.858 11.19 18 23.5-1.297 4.566-1.297 9.233 0 14a2365.52 2365.52 0 0 0-1.5 69c-1.11 1.537-2.61 2.203-4.5 2-1.89.203-3.39-.463-4.5-2-.5-16.33-.667-32.663-.5-49-5.038-.809-9.372.357-13 3.5-151.333.667-302.667.667-454 0-1.323-.816-1.989-1.983-2-3.5.359-1.871 1.359-3.371 3-4.5 150.667-.667 301.333-.667 452 0a10.515 10.515 0 0 0 3 2.5c3.228.914 6.561 1.247 10 1a353.706 353.706 0 0 0-1.5-44c-.671-.752-1.504-1.086-2.5-1-.418-.722-1.084-1.222-2-1.5-155-.5-310-.667-465-.5-2.894.756-4.894 2.423-6 5-.722.418-1.222 1.084-1.5 2a840.27 840.27 0 0 0-.5 41c-.167 123.667 0 247.334.5 371 1.5 4.167 4.333 7 8.5 8.5 9.327.5 18.661.666 28 .5-.167-33.335 0-66.668.5-100 2.924-7.258 8.091-12.092 15.5-14.5l19-1a286.37 286.37 0 0 0 14-14.5 825.73 825.73 0 0 1-37-2.5c-6.337-2.836-10.17-7.669-11.5-14.5-.667-38-.667-76 0-114 2.812-9.143 8.978-14.31 18.5-15.5 65-.667 130-.667 195 0 1.266.309 2.433.809 3.5 1.5.21 1.558.71 2.891 1.5 4a11.105 11.105 0 0 1-3 4.5c-67.082.007-134.082.673-201 2-2.117 1.731-3.617 3.898-4.5 6.5a2969.016 2969.016 0 0 0 0 109c1.167 3.833 3.667 6.333 7.5 7.5 123.333.667 246.667.667 370 0 3.833-1.167 6.333-3.667 7.5-7.5l1-32a9.175 9.175 0 0 1 4.5-2c2.082.124 3.582 1.124 4.5 3 .667 11 .667 22 0 33-.787 4.241-2.621 7.908-5.5 11-3.775 3.037-8.108 4.704-13 5a225.771 225.771 0 0 0-30 1c5 4.333 9.667 9 14 14a43.117 43.117 0 0 0 13 1c6.422.053 12.089 2.053 17 6 2.756 3.517 4.423 7.517 5 12v97c9.515.327 18.848-.006 28-1 4.245-1.076 7.078-3.742 8.5-8l1-297a9.175 9.175 0 0 1 4.5-2c1.871.359 3.371 1.359 4.5 3 .168 27.503.668 54.836 1.5 82-1.3 5.1-1.3 10.1 0 15a483.652 483.652 0 0 0 0 62c-1.297 4.767-1.297 9.434 0 14a127.773 127.773 0 0 0-1 22c.167 35.335 0 70.668-.5 106-2.5 6.5-7 11-13.5 13.5-7.326.5-14.659.666-22 .5h-11c-.129 4.719-1.462 9.052-4 13-3.383 3.685-7.383 6.351-12 8-11.005-.167-22.005 0-33 .5l20 20c4.321.499 8.654.666 13 .5h12c3.961 1.384 4.961 4.051 3 8a7.47 7.47 0 0 1-3 2h-12a1314.61 1314.61 0 0 0-72 1c-7.901-1.313-15.901-1.313-24 0a11356.612 11356.612 0 0 0-151-1.5c-1.537-1.11-2.203-2.61-2-4.5-.273-1.951.393-3.451 2-4.5l219-1a348.625 348.625 0 0 0-16-15.5 25.14 25.14 0 0 0-4-4.5c-92.667-.667-185.333-.667-278 0a25.14 25.14 0 0 0-4 4.5 348.625 348.625 0 0 0-16 15.5l79 1c1.537 1.11 2.203 2.61 2 4.5-.128 1.59-.795 2.923-2 4a94.977 94.977 0 0 0-8 2c-8.765-1.315-17.432-1.315-26 0a1209.147 1209.147 0 0 0-69-1h-12c-4.922 1.262-7.589-.571-8-5.5-.061-1.711.606-3.044 2-4a18.453 18.453 0 0 1 6-.5h12a40.914 40.914 0 0 0 9-.5l20-20c-9.661-.5-19.328-.666-29-.5-4.345-.337-8.345-1.671-12-4-5.081-4.496-7.747-10.163-8-17h-7c-8.673.166-17.34 0-26-.5-6.526-2.526-11.026-7.026-13.5-13.5-.5-36.332-.667-72.665-.5-109a116.8 116.8 0 0 0-1-21c1.297-4.566 1.297-9.233 0-14a515.326 515.326 0 0 0 0-64c1.297-4.566 1.297-9.233 0-14 1.333-57 1.333-114 0-171 1.3-5.1 1.3-10.1 0-15-.818-12.399 4.515-20.899 16-25.5 9.744-.192 19.41-.692 29-1.5Z"/><path style="opacity:1" fill="#3f4751" d="M164.5 129.5c155-.167 310 0 465 .5.916.278 1.582.778 2 1.5-155.806-.662-311.473-1.329-467-2Z"/><path style="opacity:1" fill="#4a473f" d="M164.5 129.5c155.527.671 311.194 1.338 467 2 .996-.086 1.829.248 2.5 1a353.706 353.706 0 0 1 1.5 44c-3.439.247-6.772-.086-10-1-.011-1.517-.677-2.684-2-3.5a51503.499 51503.499 0 0 0-454 0c-2.994 3.847-6.994 5.347-12 4.5a478.408 478.408 0 0 1 1-42c1.106-2.577 3.106-4.244 6-5Z"/><path style="opacity:1" fill="#fdfdfd" d="M647.5 143.5a249.67 249.67 0 0 0 16 8.5l9 7a197.694 197.694 0 0 1 17 8 2187.73 2187.73 0 0 1 4 5c1.16 49.138 1.326 98.305.5 147.5-5.181 6.173-11.681 10.34-19.5 12.5l-8 6c-7.01 2.87-13.344 6.704-19 11.5-1.3-4.9-1.3-9.9 0-15a81.543 81.543 0 0 1 10-4.5 679.07 679.07 0 0 1 23-15 12.93 12.93 0 0 1 5-.5c.167-28.335 0-56.669-.5-85l-2-2-1-51a2405.781 2405.781 0 0 1-34.5-19c-1.297-4.767-1.297-9.434 0-14Z"/><path style="opacity:1" fill="#3f4243" d="M263.5 146.5a20422.418 20422.418 0 0 1 350-.5c2.645 2.95 2.645 5.783 0 8.5 1.67-2.806 1.337-5.306-1-7.5-116.333-.5-232.666-.667-349-.5Z"/><path style="opacity:1" fill="#fdfdfd" d="M145.5 145.5c1.3 4.9 1.3 9.9 0 15a57.856 57.856 0 0 0-14 5.5c-5.669 5.02-11.836 9.187-18.5 12.5-.5 45.332-.667 90.665-.5 136 5.301 1.324 9.968 3.824 14 7.5 6.902 2.132 13.236 5.299 19 9.5 1.297 4.767 1.297 9.434 0 14a204.2 204.2 0 0 1-23-13.5 76.322 76.322 0 0 1-18.5-10.5 5697.651 5697.651 0 0 1 0-151 6.978 6.978 0 0 1 2.5-3.5 24.569 24.569 0 0 1 8-3c9.827-7.199 20.16-13.366 31-18.5Z"/><path style="opacity:1" fill="#283d54" d="M175.5 146.5a112.97 112.97 0 0 1 15 .5c2.899 3.156 2.565 5.822-1 8a42.479 42.479 0 0 1-13 0c-3.632-2.347-3.965-5.18-1-8.5Z"/><path style="opacity:1" fill="#2b3e53" d="M209.5 146.5c6.009-.166 12.009.001 18 .5 2.786 3.16 2.452 5.993-1 8.5a38.064 38.064 0 0 1-15 .5c-3.154-2.603-3.821-5.769-2-9.5Z"/><path style="opacity:1" fill="#283d54" d="M263.5 146.5c116.334-.167 232.667 0 349 .5 2.337 2.194 2.67 4.694 1 7.5a20380.957 20380.957 0 0 1-349 .5c-3.647-2.442-3.981-5.276-1-8.5Z"/><path style="opacity:1" fill="#3f4751" d="M263.5 146.5c-2.981 3.224-2.647 6.058 1 8.5 116.373.829 232.707.663 349-.5-.111.617-.444 1.117-1 1.5-116.333.667-232.667.667-349 0-4.001-3.38-4.001-6.546 0-9.5Z"/><path style="opacity:1" fill="#020202" d="M647.5 157.5a2405.781 2405.781 0 0 0 34.5 19l1 51 2 2c.5 28.331.667 56.665.5 85a12.93 12.93 0 0 0-5 .5 679.07 679.07 0 0 0-23 15 81.543 81.543 0 0 0-10 4.5 3346.044 3346.044 0 0 1-1.5-82c-1.129-1.641-2.629-2.641-4.5-3v-21c1.89.203 3.39-.463 4.5-2 .168-23.17.668-46.17 1.5-69Z"/><path style="opacity:1" fill="#010101" d="M145.5 160.5c1.333 57 1.333 114 0 171-5.764-4.201-12.098-7.368-19-9.5-4.032-3.676-8.699-6.176-14-7.5-.167-45.335 0-90.668.5-136 6.664-3.313 12.831-7.48 18.5-12.5a57.856 57.856 0 0 1 14-5.5Z"/><path style="opacity:1" fill="#3f4244" d="M158.5 134.5a478.408 478.408 0 0 0-1 42c5.006.847 9.006-.653 12-4.5 151.333-.667 302.667-.667 454 0 1.323.816 1.989 1.983 2 3.5a10.515 10.515 0 0 1-3-2.5 51050.725 51050.725 0 0 0-452 0c-1.641 1.129-2.641 2.629-3 4.5h-11a840.27 840.27 0 0 1 .5-41c.278-.916.778-1.582 1.5-2Z"/><path style="opacity:1" fill="#ebe7de" d="M156.5 177.5h11c.011 1.517.677 2.684 2 3.5 151.333.667 302.667.667 454 0 3.628-3.143 7.962-4.309 13-3.5-.167 16.337 0 32.67.5 49 1.11 1.537 2.61 2.203 4.5 2v21a9.175 9.175 0 0 0-4.5 2l-1 297c-1.422 4.258-4.255 6.924-8.5 8h-13c.167-32.668 0-65.335-.5-98-3.913-8.207-10.413-11.541-19.5-10-4.911-3.947-10.578-5.947-17-6-4.312-4.646-8.645-9.313-13-14 5.485-.667 10.819-1.333 16-2 4.892-.296 9.225-1.963 13-5 9.392.89 16.226-2.777 20.5-11 .5-30.998.667-61.998.5-93 4.23-41.364-10.77-73.53-45-96.5-27.903-14.676-56.57-16.343-86-5-30.147 14.31-48.48 37.81-55 70.5h-16c-.79-1.109-1.29-2.442-1.5-4a11.333 11.333 0 0 0-3.5-1.5c-65-.667-130-.667-195 0-9.522 1.19-15.688 6.357-18.5 15.5-.667 38-.667 76 0 114 1.33 6.831 5.163 11.664 11.5 14.5a825.73 825.73 0 0 0 37 2.5 286.37 286.37 0 0 1-14 14.5l-19 1c-7.409 2.408-12.576 7.242-15.5 14.5-.5 33.332-.667 66.665-.5 100-9.339.166-18.673 0-28-.5-4.167-1.5-7-4.333-8.5-8.5a68786.28 68786.28 0 0 1-.5-371Z"/><path style="opacity:1" fill="#2c4158" d="M614.5 317.5c-3.466 16.601-10.466 31.601-21 45-31.658 33.037-68.991 41.203-112 24.5-39.596-21.683-57.263-55.183-53-100.5 6.52-32.69 24.853-56.19 55-70.5 29.43-11.343 58.097-9.676 86 5 34.23 22.97 49.23 55.136 45 96.5Z"/><path style="opacity:1" fill="#11a3fe" d="M536.5 220.5a878.662 878.662 0 0 0 15 37 23.441 23.441 0 0 1-5.5 2 1983.716 1983.716 0 0 1-64.5-29.5c.556-.383.889-.883 1-1.5a12842.01 12842.01 0 0 0 23-10.5c9.986.09 19.986.423 30 1 .556.383.889.883 1 1.5Z"/><path style="opacity:1" fill="#0fa2fe" d="M542.5 221.5a134.851 134.851 0 0 1 29 11.5c6.644 5.8 12.311 12.3 17 19.5a267.512 267.512 0 0 0-13 39c-1.322.17-2.489-.163-3.5-1a2916.585 2916.585 0 0 0-29.5-69Z"/><path style="opacity:1" fill="#0da3fe" d="M503.5 256.5h-3v3a1484.79 1484.79 0 0 0-57 22l-1-1a486.325 486.325 0 0 0 9-23c.853-3.52 2.853-6.187 6-8a411.784 411.784 0 0 0 18.5-16 2089.267 2089.267 0 0 0 38.5 19.5 36.487 36.487 0 0 1-11 3.5Z"/><path style="opacity:1" fill="#fda00b" d="M503.5 256.5c5.563.8 11.23 1.8 17 3l27 68a70.83 70.83 0 0 1 11-9 65.743 65.743 0 0 1 4 6.5 148.975 148.975 0 0 1-15 14c-3.837.761-7.504.261-11-1.5-5.516-11.697-11.016-23.364-16.5-35L492.5 340c-2.361-.798-4.694-1.965-7-3.5-.838-.342-1.172-1.008-1-2a55436.586 55436.586 0 0 0 33-54l-6-9a31.116 31.116 0 0 0-11-1v-14h3Z"/><path style="opacity:1" fill="#f4f7fb" d="M451.5 257.5a486.325 486.325 0 0 1-9 23l1 1a1484.79 1484.79 0 0 1 57-22v11a31.116 31.116 0 0 1 11 1l6 9a55436.586 55436.586 0 0 1-33 54l-12-24a716.18 716.18 0 0 0-15 40 280.11 280.11 0 0 1 19 21c-17.835-11.502-29.502-27.502-35-48a228.63 228.63 0 0 1 9.5 18c.893 1.211 1.726 1.211 2.5 0a3303.82 3303.82 0 0 0 31-71 310.607 310.607 0 0 0-45 18c1.268-11.484 5.268-21.817 12-31Z"/><path style="opacity:1" fill="#0da2fd" d="M603.5 315.5a832.936 832.936 0 0 0-36.5 15c-1.622-.454-2.788-1.454-3.5-3 10.345-21.355 20.678-42.689 31-64 .617-.111 1.117-.444 1.5-1a240.72 240.72 0 0 1 9 23c1.028 10.147.528 20.147-1.5 30Z"/><path style="opacity:1" fill="#0fa3fe" d="M441.5 323.5a791.725 791.725 0 0 0-2-35 310.607 310.607 0 0 1 45-18 3303.82 3303.82 0 0 1-31 71c-.774 1.211-1.607 1.211-2.5 0a228.63 228.63 0 0 0-9.5-18Z"/><path style="opacity:1" fill="#e3ecfb" d="M412.5 286.5h16c-4.263 45.317 13.404 78.817 53 100.5 43.009 16.703 80.342 8.537 112-24.5.983 3.798 1.317 7.798 1 12a9.175 9.175 0 0 0-4.5 2l-1 32c-1.167 3.833-3.667 6.333-7.5 7.5-123.333.667-246.667.667-370 0-3.833-1.167-6.333-3.667-7.5-7.5a2969.016 2969.016 0 0 1 0-109c.883-2.602 2.383-4.769 4.5-6.5a10191.434 10191.434 0 0 1 201-2 11.105 11.105 0 0 0 3-4.5Z"/><path style="opacity:1" fill="#d3e2e9" d="M439.5 288.5a791.725 791.725 0 0 1 2 35c-3.902-11.528-4.569-23.195-2-35Z"/><path style="opacity:1" fill="#f4f7fb" d="M536.5 220.5c2.235-.295 4.235.039 6 1a2916.585 2916.585 0 0 1 29.5 69c1.011.837 2.178 1.17 3.5 1a267.512 267.512 0 0 1 13-39c2.877 3.205 4.877 6.871 6 11-10.322 21.311-20.655 42.645-31 64 .712 1.546 1.878 2.546 3.5 3a832.936 832.936 0 0 1 36.5-15 51.569 51.569 0 0 1-1 7 1855.857 1855.857 0 0 0-72 26.5l37 19.5a223.347 223.347 0 0 1 20-16c-6.268 8.297-13.935 14.963-23 20 .273-1.951-.393-3.451-2-4.5L496 342.5c-1.301.598-2.135 1.598-2.5 3a91102.582 91102.582 0 0 1 18 38v1a43.145 43.145 0 0 1-11-2c1.6-2.071 2.1-4.405 1.5-7a496.292 496.292 0 0 1-16.5-39c2.306 1.535 4.639 2.702 7 3.5l27.5-37.5c5.484 11.636 10.984 23.303 16.5 35 3.496 1.761 7.163 2.261 11 1.5a148.975 148.975 0 0 0 15-14 65.743 65.743 0 0 0-4-6.5 70.83 70.83 0 0 0-11 9l-27-68c-5.77-1.2-11.437-2.2-17-3a36.487 36.487 0 0 0 11-3.5 2089.267 2089.267 0 0 1-38.5-19.5 411.784 411.784 0 0 1-18.5 16c2.393-3.902 5.393-7.402 9-10.5a82.763 82.763 0 0 1 16-10.5c-.111.617-.444 1.117-1 1.5a1983.716 1983.716 0 0 0 64.5 29.5 23.441 23.441 0 0 0 5.5-2 878.662 878.662 0 0 1-15-37Z"/><path style="opacity:1" fill="#11a3fe" d="M484.5 334.5c-.172.992.162 1.658 1 2a496.292 496.292 0 0 0 16.5 39c.6 2.595.1 4.929-1.5 7a28.799 28.799 0 0 0-8-3 89.72 89.72 0 0 0-16-8 280.11 280.11 0 0 0-19-21 716.18 716.18 0 0 1 15-40l12 24Z"/><path style="opacity:1" fill="#2c4057" d="M254.5 317.5c22.562-1.653 36.729 8.347 42.5 30 1.724 22.725-8.443 36.892-30.5 42.5-22.362 1.405-36.196-8.762-41.5-30.5-1.226-21.91 8.607-35.91 29.5-42ZM346.5 317.5c23.11-2.029 37.943 7.971 44.5 30 1.535 22.122-8.299 36.289-29.5 42.5-21.651 1.685-35.817-7.815-42.5-28.5-2.205-21.948 6.962-36.615 27.5-44Z"/><path style="opacity:1" fill="#c0d1ec" d="M614.5 317.5c.167 31.002 0 62.002-.5 93-4.274 8.223-11.108 11.89-20.5 11 2.879-3.092 4.713-6.759 5.5-11 .667-11 .667-22 0-33-.918-1.876-2.418-2.876-4.5-3 .317-4.202-.017-8.202-1-12 10.534-13.399 17.534-28.399 21-45Z"/><path style="opacity:1" fill="#11a3fe" d="M602.5 322.5a5.727 5.727 0 0 0-1 3 164.752 164.752 0 0 0-10 22 802.777 802.777 0 0 1-4 5 223.347 223.347 0 0 0-20 16l-37-19.5a1855.857 1855.857 0 0 1 72-26.5Z"/><path style="opacity:1" fill="#fcfcfd" d="M253.5 328.5c15.799-2.658 26.632 3.342 32.5 18 3.092 16.215-3.074 27.048-18.5 32.5-24.785.875-34.952-10.958-30.5-35.5 3.822-6.996 9.322-11.996 16.5-15ZM346.5 328.5c16.125-2.923 27.292 3.077 33.5 18 1.833 23.5-9 34.333-32.5 32.5-17.49-8.465-22.323-21.632-14.5-39.5 3.819-4.667 8.319-8.334 13.5-11Z"/><path style="opacity:1" fill="#96b4bf" d="M601.5 325.5a48.364 48.364 0 0 1-2.5 9 3138.602 3138.602 0 0 1-7.5 13 164.752 164.752 0 0 1 10-22Z"/><path style="opacity:1" fill="#0aa2fe" d="M564.5 372.5c-.473 1.406-1.473 2.073-3 2a185.25 185.25 0 0 0-25 9h-25a91102.582 91102.582 0 0 0-18-38c.365-1.402 1.199-2.402 2.5-3l66.5 25.5c1.607 1.049 2.273 2.549 2 4.5Z"/><path style="opacity:1" fill="#2f4359" d="M253.5 348.5a112.97 112.97 0 0 1 15 .5c3.985 3.286 3.985 6.619 0 10-5 .667-10 .667-15 0-3.935-3.496-3.935-6.996 0-10.5Z"/><path style="opacity:1" fill="#30435a" d="M347.5 348.5a112.97 112.97 0 0 1 15 .5c4 3.333 4 6.667 0 10-5 .667-10 .667-15 0-3.92-3.542-3.92-7.042 0-10.5Z"/><path style="opacity:1" fill="#b8d3dc" d="M476.5 371.5a89.72 89.72 0 0 1 16 8c-5.99-1.661-11.323-4.328-16-8Z"/><path style="opacity:1" fill="#c8dfe7" d="M561.5 374.5c-7.612 4.762-15.945 7.762-25 9a185.25 185.25 0 0 1 25-9Z"/><path style="opacity:1" fill="#94bccd" d="M511.5 384.5v-1h25c-8.149 2.111-16.482 2.444-25 1Z"/><path style="opacity:1" fill="#b5c7e1" d="M538.5 431.5h-284a514.367 514.367 0 0 1 3-4 9663.416 9663.416 0 0 1 278 0 514.367 514.367 0 0 1 3 4Z"/><path style="opacity:1" fill="#bccce5" d="M580.5 426.5c-5.181.667-10.515 1.333-16 2 4.355 4.687 8.688 9.354 13 14a43.117 43.117 0 0 1-13-1c-4.333-5-9-9.667-14-14a225.771 225.771 0 0 1 30-1Z"/><path style="opacity:1" fill="#e9f2fe" d="M254.5 431.5h284l10 9a11555.389 11555.389 0 0 1-304 0l10-9Z"/><path style="opacity:1" fill="#b9c5d3" d="M244.5 440.5a11555.389 11555.389 0 0 0 304 0c.543.06.876.393 1 1-102 1.333-204 1.333-306 0 .124-.607.457-.94 1-1Z"/><path style="opacity:1" fill="#c2d3ee" d="M594.5 448.5c9.087-1.541 15.587 1.793 19.5 10 .5 32.665.667 65.332.5 98h-14c.332-32.171-.002-64.171-1-96-.577-4.483-2.244-8.483-5-12Z"/><path style="opacity:1" fill="#e2ebfa" d="M211.5 452.5c123.334-.167 246.667 0 370 .5 3.5 1.5 6 4 7.5 7.5.667 36.333.667 72.667 0 109-1.077 3.413-3.244 5.913-6.5 7.5-124 .667-248 .667-372 0-3.256-1.587-5.423-4.087-6.5-7.5a2969.016 2969.016 0 0 1 0-109c1.69-3.521 4.19-6.188 7.5-8Z"/><path style="opacity:1" fill="#9aabc2" d="M599.5 460.5a2304.214 2304.214 0 0 1 1 96h27c-9.152.994-18.485 1.327-28 1v-97Z"/><path style="opacity:1" fill="#2c4057" d="M254.5 478.5c21.625-1.114 35.792 8.553 42.5 29 1.441 30.559-13.059 45.059-43.5 43.5-21.038-6.202-30.538-20.368-28.5-42.5 4.015-15.848 13.848-25.848 29.5-30Z"/><path style="opacity:1" fill="#2b4057" d="M349.5 478.5c27.857.356 41.69 14.356 41.5 42-6.124 23.488-21.291 33.655-45.5 30.5-21.987-8.469-30.487-24.303-25.5-47.5 5.463-13.639 15.296-21.973 29.5-25Z"/><path style="opacity:1" fill="#fbfbfc" d="M254.5 489.5c22.499-1.002 32.999 9.665 31.5 32-4.856 14.684-15.023 21.184-30.5 19.5-18.599-7.698-24.099-20.865-16.5-39.5 4.184-5.36 9.351-9.36 15.5-12Z"/><path style="opacity:1" fill="#fafbfb" d="M348.5 489.5c23.032-.804 33.532 10.196 31.5 33-7.237 16.52-19.404 22.02-36.5 16.5-14.942-10.176-18.108-23.342-9.5-39.5 4.208-4.397 9.042-7.731 14.5-10Z"/><path style="opacity:1" fill="#293e55" d="M419.5 494.5c2.865-.445 5.365.222 7.5 2a342.33 342.33 0 0 1 0 37c-2.952 3.982-5.952 3.982-9 0a342.33 342.33 0 0 1 0-37c.717-.544 1.217-1.211 1.5-2ZM451.5 494.5c2.544-.396 4.711.271 6.5 2a361.07 361.07 0 0 1 0 38c-3.294 2.811-6.294 2.478-9-1-.667-12-.667-24 0-36 .698-1.191 1.531-2.191 2.5-3Z"/><path style="opacity:1" fill="#30445b" d="M482.5 494.5c3.152-.541 5.652.459 7.5 3 .667 12 .667 24 0 36-3.745 4.066-7.078 3.733-10-1a306.347 306.347 0 0 1 0-35 10.515 10.515 0 0 0 2.5-3Z"/><path style="opacity:1" fill="#293e55" d="M513.5 494.5c3.195-.539 5.695.461 7.5 3 .667 12 .667 24 0 36-2.626 3.572-5.626 3.905-9 1a361.07 361.07 0 0 1 0-38c.717-.544 1.217-1.211 1.5-2ZM544.5 494.5c2.865-.445 5.365.222 7.5 2a342.33 342.33 0 0 1 0 37c-2.952 3.982-5.952 3.982-9 0a342.33 342.33 0 0 1 0-37c.717-.544 1.217-1.211 1.5-2Z"/><path style="opacity:1" fill="#2b3f56" d="M252.5 510.5c5.676-.166 11.343.001 17 .5 2.799 3.339 2.466 6.339-1 9-5 .667-10 .667-15 0-3.532-2.828-3.866-5.995-1-9.5ZM346.5 510.5c5.676-.166 11.343.001 17 .5 2.905 3.374 2.572 6.374-1 9a64.218 64.218 0 0 1-16 0c-2.625-3.237-2.625-6.404 0-9.5Z"/><path style="opacity:1" fill="#010101" d="M186.5 567.5h7c.253 6.837 2.919 12.504 8 17v25a18.453 18.453 0 0 0-6 .5c-1.394.956-2.061 2.289-2 4 .411 4.929 3.078 6.762 8 5.5-.166 9.672 0 19.339.5 29 5.48 4.594 11.647 8.094 18.5 10.5a74.304 74.304 0 0 0 18 10.5 58.624 58.624 0 0 0 14 8.5l4 4c13.267 5.247 25.6 12.247 37 21a24.569 24.569 0 0 0 8 3 201.636 201.636 0 0 1 27 17l10 4c1.374 3.683 4.041 5.349 8 5a279.412 279.412 0 0 1 19 12c4.844 1.738 9.177 4.405 13 8a91.921 91.921 0 0 0 19 7.5 131.205 131.205 0 0 0 11-2.5 78.988 78.988 0 0 0 14-9l10-4c4.933-4.604 10.6-7.938 17-10l4-4a319.99 319.99 0 0 0 46-27 91.311 91.311 0 0 0 23-13 70.186 70.186 0 0 0 18-10 112.343 112.343 0 0 1 17-8 219.87 219.87 0 0 1 13-10c21.031-6.435 29.364-20.602 25-42.5a7.47 7.47 0 0 0 3-2c1.961-3.949.961-6.616-3-8v-29c2.538-3.948 3.871-8.281 4-13h11c.333 35.673 0 71.34-1 107-1.671 2.01-2.338 4.343-2 7-3.064 1.19-5.731 2.857-8 5h-3v3a58.97 58.97 0 0 0-11 3v3c-1.859-.039-3.192.794-4 2.5a12.93 12.93 0 0 1-5 .5v3c-2.582-.475-4.582.192-6 2-2.281 1.928-4.947 2.928-8 3v3h-6v3c-4.045-.073-7.378 1.427-10 4.5l1 1a118.288 118.288 0 0 0-17 7.5 10.756 10.756 0 0 0-2.5 3l-1-1c-1.049 1.607-2.549 2.273-4.5 2v3h-6v3h-5v3c-2.524-.071-4.524.929-6 3-2.12-1.372-3.12-.705-3 2a12.93 12.93 0 0 0-5 .5 101.657 101.657 0 0 0-10 7.5 9.108 9.108 0 0 1-5 1v3c-2.51-.446-4.51.22-6 2-2.216.703-4.049 2.036-5.5 4-1.813-1.109-2.646-.442-2.5 2a12.93 12.93 0 0 0-5 .5c-1.497 1.871-3.497 2.871-6 3-1.307 2.324-3.307 3.657-6 4l2 1a12.93 12.93 0 0 1-5 .5v3a9.86 9.86 0 0 0-6 1 35.217 35.217 0 0 1-8 4v3h-6v3h-6v3a8.43 8.43 0 0 0-4 .5l-5 5c-1.284.684-2.451.517-3.5-.5-1.263 2.968-3.263 3.968-6 3a2.428 2.428 0 0 0-.5 2h-12c-.507-1.359-1.507-2.359-3-3a137.913 137.913 0 0 0-11-4v-3c-2.133-1.386-5.133-2.386-9-3v-3h-5v-3c-3.005.247-5.505-.753-7.5-3l-1 1a4.934 4.934 0 0 1-.5-3h-6v-3h-5v-3h-6v-3c-5.922-1.727-11.089-4.727-15.5-9-.718.951-1.551 1.117-2.5.5 1.333-.667 1.333-1.333 0-2a12.93 12.93 0 0 0-5-.5v-3a58.97 58.97 0 0 1-11-3v-3c-8.654-3.265-16.321-6.932-23-11v-3h-6v-3h-5v-3a8.43 8.43 0 0 1-4-.5c-4.85-3.699-10.184-6.199-16-7.5v-3h-6v-3c-2.092-.061-3.592-1.061-4.5-3-1.299.466-2.799.466-4.5 0v-3c-1.788.285-3.455-.048-5-1-2.158-3.144-5.158-4.477-9-4v-3a12.93 12.93 0 0 1-5-.5c-2.625-3.031-6.125-5.864-10.5-8.5-2.537.677-4.537-.323-6-3l-1 1c-1.667-1-3-2.333-4-4-1.049 1.017-2.216 1.184-3.5.5l1-1a15.645 15.645 0 0 1-4-2.5c-1-37.661-1.333-75.327-1-113Z"/><path style="opacity:1" fill="#f8f9f9" d="M595.5 580.5v29h-12v-21c4.617-1.649 8.617-4.315 12-8Z"/><path style="opacity:1" fill="#f9fafa" d="M201.5 584.5c3.655 2.329 7.655 3.663 12 4v21h-12v-25Z"/><path style="opacity:1" fill="#010102" d="M213.5 588.5c9.672-.166 19.339 0 29 .5l-20 20a40.914 40.914 0 0 1-9 .5v-21Z"/><path style="opacity:1" fill="#c2d3ee" d="M539.5 593.5h-286a25.14 25.14 0 0 1 4-4.5c92.667-.667 185.333-.667 278 0a25.14 25.14 0 0 1 4 4.5Z"/><path style="opacity:1" fill="#010102" d="M583.5 588.5v21a84.902 84.902 0 0 1-13-.5l-20-20c10.995-.5 21.995-.667 33-.5Z"/><path style="opacity:1" fill="#e4eef9" d="M253.5 593.5h286a348.625 348.625 0 0 1 16 15.5l-219 1c-1.607 1.049-2.273 2.549-2 4.5h-16c.203-1.89-.463-3.39-2-4.5l-79-1a348.625 348.625 0 0 1 16-15.5Z"/><path style="opacity:1" fill="#020202" d="M318.5 614.5h16c-.203 1.89.463 3.39 2 4.5 50.502.167 100.835.667 151 1.5a152.07 152.07 0 0 0-22 13.5c-5.064 1.012-9.397 3.345-13 7-6.744 2.402-12.744 6.069-18 11l-22 11a2929.62 2929.62 0 0 0-12.5 8.5 133.576 133.576 0 0 1-23.5-13.5 114.065 114.065 0 0 1-14-6 523.182 523.182 0 0 1-22-15 93.962 93.962 0 0 1-24-13 49.948 49.948 0 0 0-8-3.5 94.977 94.977 0 0 1 8-2c1.205-1.077 1.872-2.41 2-4Z"/><path style="opacity:1" fill="#fcfcfc" d="M201.5 619.5h12c-.166 7.674 0 15.341.5 23a46.99 46.99 0 0 0 10.5 5.5l4 4a90.42 90.42 0 0 0 14 6 77.598 77.598 0 0 0 23 13l4 4 10 4c4.933 4.604 10.6 7.938 17 10 3.574 3.951 7.907 6.618 13 8 6.962 5.648 14.628 9.981 23 13 1.918 2.928 4.585 4.594 8 5a78.488 78.488 0 0 0 23 13c3.671 4.417 8.338 7.083 14 8 2.457 3.058 5.457 5.392 9 7a97.288 97.288 0 0 1 12 5.5 23356.745 23356.745 0 0 0 182-104.5 4.457 4.457 0 0 1 2-1.5 133.155 133.155 0 0 0 1-23h12c4.364 21.898-3.969 36.065-25 42.5a219.87 219.87 0 0 0-13 10 112.343 112.343 0 0 0-17 8 70.186 70.186 0 0 1-18 10 91.311 91.311 0 0 1-23 13 319.99 319.99 0 0 1-46 27l-4 4c-6.4 2.062-12.067 5.396-17 10l-10 4a78.988 78.988 0 0 1-14 9 131.205 131.205 0 0 1-11 2.5 91.921 91.921 0 0 1-19-7.5c-3.823-3.595-8.156-6.262-13-8a279.412 279.412 0 0 0-19-12c-3.959.349-6.626-1.317-8-5l-10-4a201.636 201.636 0 0 0-27-17 24.569 24.569 0 0 1-8-3c-11.4-8.753-23.733-15.753-37-21l-4-4a58.624 58.624 0 0 1-14-8.5 74.304 74.304 0 0 1-18-10.5c-6.853-2.406-13.02-5.906-18.5-10.5-.5-9.661-.666-19.328-.5-29Z"/><path style="opacity:1" fill="#020202" d="M213.5 619.5c23.075-.322 46.075.011 69 1 6.632.774 12.298 3.607 17 8.5a420.445 420.445 0 0 0 32 17c3.705 4.342 8.372 7.009 14 8a643.917 643.917 0 0 0 29 18c2.861.54 5.528 1.54 8 3l11 7c4 .667 8 .667 12 0 6.962-5.648 14.628-9.981 23-13a679.07 679.07 0 0 0 23-15 24.569 24.569 0 0 0 8-3 819.217 819.217 0 0 1 33-20c5.048-1.356 9.381-4.023 13-8 2.311-.236 4.311-1.069 6-2.5a1314.61 1314.61 0 0 1 72-1 133.155 133.155 0 0 1-1 23 4.457 4.457 0 0 0-2 1.5 23356.745 23356.745 0 0 1-182 104.5 97.288 97.288 0 0 0-12-5.5c-3.543-1.608-6.543-3.942-9-7-5.662-.917-10.329-3.583-14-8a78.488 78.488 0 0 1-23-13c-3.415-.406-6.082-2.072-8-5-8.372-3.019-16.038-7.352-23-13-5.093-1.382-9.426-4.049-13-8-6.4-2.062-12.067-5.396-17-10l-10-4-4-4a77.598 77.598 0 0 1-23-13 90.42 90.42 0 0 1-14-6l-4-4a46.99 46.99 0 0 1-10.5-5.5c-.5-7.659-.666-15.326-.5-23Z"/><path style="opacity:1" fill="#fcfcfc" d="M282.5 620.5c8.568-1.315 17.235-1.315 26 0a49.948 49.948 0 0 1 8 3.5 93.962 93.962 0 0 0 24 13 523.182 523.182 0 0 0 22 15 114.065 114.065 0 0 0 14 6 133.576 133.576 0 0 0 23.5 13.5 2929.62 2929.62 0 0 1 12.5-8.5l22-11c5.256-4.931 11.256-8.598 18-11 3.603-3.655 7.936-5.988 13-7a152.07 152.07 0 0 1 22-13.5c8.099-1.313 16.099-1.313 24 0-1.689 1.431-3.689 2.264-6 2.5-3.619 3.977-7.952 6.644-13 8a819.217 819.217 0 0 0-33 20 24.569 24.569 0 0 1-8 3 679.07 679.07 0 0 1-23 15c-8.372 3.019-16.038 7.352-23 13-4 .667-8 .667-12 0l-11-7a24.569 24.569 0 0 0-8-3 643.917 643.917 0 0 1-29-18c-5.628-.991-10.295-3.658-14-8a420.445 420.445 0 0 1-32-17c-4.702-4.893-10.368-7.726-17-8.5Z"/><path style="opacity:1" d="M599.5 686.5c1.333.667 1.333.667 0 0ZM570.5 703.5c1.333.667 1.333.667 0 0ZM476.5 757.5c1.333.667 1.333.667 0 0Z"/></svg>