<?xml version="1.0" encoding="UTF-8"?><svg xmlns="http://www.w3.org/2000/svg" width="800" height="800" style="shape-rendering:geometricPrecision;text-rendering:geometricPrecision;image-rendering:optimizeQuality;fill-rule:evenodd;clip-rule:evenodd"><path style="opacity:1" fill="#ea3939" d="M576.5-.5h9a2.429 2.429 0 0 0 .5 2c1.049-1.017 2.216-1.184 3.5-.5a20.495 20.495 0 0 0 2.5 3.5c1.356-.88 2.856-1.214 4.5-1v3c2.822 1.432 6.489 2.432 11 3v3c2.092.061 3.592 1.061 4.5 3 2.537-.677 4.537.323 6 3 2.361-.566 4.194.434 5.5 3l2-1c.35 2.067 2.017 3.067 5 3v3h6v3h5v3h6v3a27.247 27.247 0 0 0 9 3c-.219 1.175.114 2.175 1 3a6.846 6.846 0 0 1 4-1v3a8.435 8.435 0 0 1 4 .5c-1.154.914-.987 1.747.5 2.5 1.299-.466 2.799-.466 4.5 0v3h6v3h5v3a428.986 428.986 0 0 0 20 8.5l-2 1c2.522.61 4.522 1.943 6 4 1.634.493 3.301.66 5 .5v3c2.908-.238 5.242.762 7 3 .951-.826 1.951-.992 3-.5l-1 1a6.977 6.977 0 0 1 3.5 2.5l1-1c.483.948.649 1.948.5 3h6v3h5v3c1.951-.273 3.451.393 4.5 2l1-1c6 4.386 12.5 7.886 19.5 10.5l-1 1c1.525 1.009 3.192 1.509 5 1.5v3h6v3h5v3c2.041.354 3.874.354 5.5 0 .483.948.649 1.948.5 3 2.836 1.276 5.836 1.942 9 2a7971.884 7971.884 0 0 1 2 251c-3.013-.128-5.513.872-7.5 3-2.411-1.653-3.578-.987-3.5 2-1.701.466-3.201.466-4.5 0-3.844 1.975-7.177 4.642-10 8l-1-1c-1.049 1.607-2.549 2.273-4.5 2v3c-3.937.204-7.604 1.204-11 3 .381 2.442-.286 3.109-2 2-.886.825-1.219 1.825-1 3h-6v3a12.93 12.93 0 0 0-5 .5c-1.079 2.043-2.746 3.376-5 4l1 1a12.93 12.93 0 0 1-5 .5v3a9.86 9.86 0 0 0-6 1c-3.423 1.192-6.256 3.192-8.5 6l-1-1c-1.049 1.607-2.549 2.273-4.5 2v3h-6v3h-5v3c-2.185.388-4.018 1.388-5.5 3-2.278-1.12-3.778-.287-4.5 2.5a101.955 101.955 0 0 0-13 5.5v3h-6v3h-6v3c-1.788-.285-3.455.048-5 1 1.129 2.029.629 2.363-1.5 1-1.712 3.452-4.212 4.452-7.5 3v3c-3.096-.593-5.429.407-7 3a47.25 47.25 0 0 1-7 3v3h-6v3a5200.8 5200.8 0 0 0-11 3 705.828 705.828 0 0 1 14-28 1248.344 1248.344 0 0 0 65-37.5c5.325-1.003 9.658-3.67 13-8a377.475 377.475 0 0 0 23-12l8-6a190.921 190.921 0 0 0 21.5-10.5c.667-76 .667-152 0-228a36.078 36.078 0 0 0-3.5-4.5c-3.29-.253-6.29-1.253-9-3a29746.604 29746.604 0 0 1-46-28 457.332 457.332 0 0 0-22-11l-4-4a161.879 161.879 0 0 1-33-19c-6.4-2.062-12.067-5.396-17-10a1126.1 1126.1 0 0 0-31-16c-2.365-3.714-5.698-5.714-10-6-7.082-6.364-15.416-9.031-25-8a12271.425 12271.425 0 0 1-129 74 14.696 14.696 0 0 0-3 3.5 305.616 305.616 0 0 0-19-2 420.073 420.073 0 0 1 24-14.5c.837-1.011 1.17-2.178 1-3.5 4.493-.216 7.993-2.216 10.5-6 1.011.837 2.178 1.17 3.5 1v-3a59.031 59.031 0 0 0 11-3v-3c1.808.009 3.475-.491 5-1.5l-1-1a12.935 12.935 0 0 1 5-.5v-3a9.864 9.864 0 0 0 6-1 35.213 35.213 0 0 1 8-4v-3h6v-3a59.031 59.031 0 0 1 11-3v-3c1.808.009 3.475-.491 5-1.5-1.388-.89-1.222-1.39.5-1.5 2.071 1.167 3.571.5 4.5-2 6.434-2.343 12.767-5.343 19-9v-3a59.031 59.031 0 0 1 11-3 4.934 4.934 0 0 1 .5-3l1 1c1.995-2.247 4.495-3.247 7.5-3v-3h5v-3h6v-3c1.808.009 3.475-.491 5-1.5l-1-1a12.936 12.936 0 0 1 5-.5v-3c3.552.188 6.219-1.145 8-4Z"/><path style="opacity:1" fill="#ea3a39" d="M391.5 97.5a297.853 297.853 0 0 1-23 2 360.189 360.189 0 0 0-29-18.5c-6.538-2.271-12.538-5.605-18-10a154.472 154.472 0 0 1-13-6 1013.157 1013.157 0 0 0-54-31c-9.098-8.801-19.765-11.801-32-9-4.194 3.22-8.86 5.554-14 7a2157.081 2157.081 0 0 1-68 39 55.63 55.63 0 0 1-18 10 12458.29 12458.29 0 0 1-28 18c-5.503 1.171-10.17 3.837-14 8A579.672 579.672 0 0 0 38 129.5 3410.247 3410.247 0 0 0 36.5 245c-.152 38.537.348 77.037 1.5 115.5l9.5 5.5c1.374 3.683 4.04 5.349 8 5a4805.221 4805.221 0 0 0 105 60.5 351.14 351.14 0 0 0 10 23 128.952 128.952 0 0 1-13-6.5c-6.204-2.789-12.537-4.622-19-5.5v-3h-6v-3h-3v-3h-6v-3h-5v-3c-2.921.354-5.254-.646-7-3-1.714 1.109-2.381.442-2-2a58.97 58.97 0 0 1-11-3v-3a27.267 27.267 0 0 0-9-3v-3c-2.908.238-5.242-.762-7-3a3.647 3.647 0 0 0-1.5 1c-1.667-1-3-2.333-4-4l-1 1a4.932 4.932 0 0 1-.5-3h-6v-3h-5v-3a544.412 544.412 0 0 1-29-14v-3a58.967 58.967 0 0 1-11-3v-3h-6v-3c-4.013-1.674-8.013-3.341-12-5 .008-83.648.008-167.148 0-250.5a169.104 169.104 0 0 0 15-5.5v-3a58.967 58.967 0 0 0 11-3v-3a417.79 417.79 0 0 0 15-7 32.686 32.686 0 0 0 8.5-6l1 1c1.049-1.607 2.549-2.273 4.5-2v-3a59.029 59.029 0 0 1 11-3 4.932 4.932 0 0 1 .5-3l1 1c2.015-3.065 4.515-4.065 7.5-3v-3h5v-3c1.7.16 3.366-.007 5-.5 1.478-2.057 3.478-3.39 6-4l-2-1a18.436 18.436 0 0 1 6-.5v-3a87.51 87.51 0 0 0 14-5v-3h6v-3h5v-3c1.701-.466 3.201-.466 4.5 0 3.279-4.047 7.946-7.047 14-9a18.264 18.264 0 0 0 5-4l1 1c1.049-1.607 2.549-2.273 4.5-2v-3h5v-3h6v-3c4.612-1.195 9.279-2.862 14-5v-3c1.701-.466 3.201-.466 4.5 0 .908-1.939 2.408-2.939 4.5-3v-3h6v-3c1.788.285 3.455-.048 5-1a38.767 38.767 0 0 0 7-4.5 49.25 49.25 0 0 1 14 0c2.025 1.677 4.359 2.677 7 3-1.134 1.016-.801 1.683 1 2l5 1-1 1c2.622 3.073 5.955 4.573 10 4.5v3h6v3c3.191.262 5.858 1.596 8 4a9.864 9.864 0 0 0 6 1v3c3.58 1.22 7.247 2.386 11 3.5l-2 1c2.767.678 4.934 2.178 6.5 4.5l1-1c3.769 1.797 7.102 4.13 10 7a3.942 3.942 0 0 1 2-1c1.482 1.612 3.315 2.612 5.5 3v3h6v3h5v3h6v3a87.51 87.51 0 0 0 14 5v3c1.699-.16 3.366.007 5 .5l-1 1c1.525 1.009 3.192 1.509 5 1.5v3h6v3h5v3c2.985-1.065 5.485-.065 7.5 3l1-1c.483.948.649 1.948.5 3h5v3h6v3c2.133 1.386 5.133 2.386 9 3v3c2.908-.238 5.242.762 7 3l2-1c.35 2.067 2.017 3.067 5 3Z"/><path style="opacity:1" fill="#273238" d="M630.5 434.5c-.543-.06-.876-.393-1-1 1.637-5.265 3.637-10.265 6-15a3511.738 3511.738 0 0 0 97-56.5 84.545 84.545 0 0 1 18-8.5c.167-70.334 0-140.667-.5-211 .564-4.29-1.269-6.457-5.5-6.5a203.265 203.265 0 0 0-37-21l-4-4a91.311 91.311 0 0 1-23-13 457.332 457.332 0 0 0-22-11l-4-4a483.026 483.026 0 0 1-51-29c-3.415-.406-6.082-2.072-8-5a90.401 90.401 0 0 0-14-6c-5.722-6.435-12.722-8.768-21-7-7.36 5.663-15.36 9.996-24 13-3.619 3.977-7.952 6.644-13 8a14586.256 14586.256 0 0 0-78 45.5 259.021 259.021 0 0 1-17-2c.79-1.294 1.79-2.46 3-3.5a12271.425 12271.425 0 0 0 129-74c9.584-1.031 17.918 1.636 25 8 4.302.286 7.635 2.286 10 6a1126.1 1126.1 0 0 1 31 16c4.933 4.604 10.6 7.938 17 10a161.879 161.879 0 0 0 33 19l4 4a457.332 457.332 0 0 1 22 11 29746.604 29746.604 0 0 0 46 28c2.71 1.747 5.71 2.747 9 3a36.078 36.078 0 0 1 3.5 4.5c.667 76 .667 152 0 228a190.921 190.921 0 0 1-21.5 10.5l-8 6a377.475 377.475 0 0 1-23 12c-3.342 4.33-7.675 6.997-13 8a1248.344 1248.344 0 0 1-65 37.5Z"/><path style="opacity:1" fill="#293238" d="M368.5 99.5a292.105 292.105 0 0 0-18 3c-2.347-2.837-5.347-4.67-9-5.5a130.683 130.683 0 0 0-23-13 88.177 88.177 0 0 0-22-12 153.747 153.747 0 0 0-27-16 179.568 179.568 0 0 1-15-10A228.066 228.066 0 0 0 230 34.5 112.066 112.066 0 0 0 206.5 48l-10 4-3 3c-6.771 2.445-12.771 6.111-18 11l-10 4-4 4a520.666 520.666 0 0 0-59 34l-9 3c-3.796 3.592-8.13 6.259-13 8A361.546 361.546 0 0 1 48 137.5c-.667 72-.667 144 0 216A65.836 65.836 0 0 1 64.5 364l22 11a334.568 334.568 0 0 0 40 23 199.073 199.073 0 0 0 20 13 31.963 31.963 0 0 0 9 3.5 246.387 246.387 0 0 0 5 17 4805.221 4805.221 0 0 1-105-60.5c-3.96.349-6.626-1.317-8-5l-9.5-5.5A3410.247 3410.247 0 0 1 36.5 245c-.152-38.537.348-77.037 1.5-115.5A579.672 579.672 0 0 1 80.5 107c3.83-4.163 8.497-6.829 14-8 9.313-5.97 18.646-11.97 28-18a55.63 55.63 0 0 0 18-10c22.924-12.6 45.591-25.6 68-39 5.14-1.446 9.806-3.78 14-7 12.235-2.801 22.902.199 32 9a1013.157 1013.157 0 0 1 54 31 154.472 154.472 0 0 0 13 6c5.462 4.395 11.462 7.729 18 10a360.189 360.189 0 0 1 29 18.5Z"/><path style="opacity:1" fill="#fdfdfd" d="M350.5 102.5a213.066 213.066 0 0 0-28 6.5 456.874 456.874 0 0 0-42 16.5 467.194 467.194 0 0 1-35-20.5c-3.415-.406-6.082-2.072-8-5a42.498 42.498 0 0 0-13 0 226.438 226.438 0 0 0-29 17c-3.415.406-6.082 2.072-8 5a90.42 90.42 0 0 1-14 6c-3.574 3.951-7.907 6.618-13 8-6.962 5.648-14.628 9.981-23 13a230.435 230.435 0 0 1-32.5 19.5 2946.23 2946.23 0 0 0-1 153 213.392 213.392 0 0 0 27.5 15.5c4.282 4.148 9.282 6.981 15 8.5-.194 23.448 2.806 46.448 9 69a31.963 31.963 0 0 1-9-3.5 199.073 199.073 0 0 1-20-13 334.568 334.568 0 0 1-40-23l-22-11A65.836 65.836 0 0 0 48 353.5c-.667-72-.667-144 0-216A361.546 361.546 0 0 0 80.5 119c4.87-1.741 9.204-4.408 13-8l9-3a520.666 520.666 0 0 1 59-34l4-4 10-4c5.229-4.889 11.229-8.555 18-11l3-3 10-4A112.066 112.066 0 0 1 230 34.5 228.066 228.066 0 0 1 254.5 46a179.568 179.568 0 0 0 15 10 153.747 153.747 0 0 1 27 16 88.177 88.177 0 0 1 22 12 130.683 130.683 0 0 1 23 13c3.653.83 6.653 2.663 9 5.5Z"/><path style="opacity:1" fill="#fdfdfe" d="M635.5 418.5c-.597-.235-.93-.735-1-1.5 6.528-21.669 9.861-43.836 10-66.5a273.466 273.466 0 0 0 30-18.5c7.819-2.16 14.319-6.327 19.5-12.5.99-49.416.657-98.75-1-148a36.078 36.078 0 0 0-3.5-4.5 198.572 198.572 0 0 1-36-21 114.302 114.302 0 0 1-13-6 182.852 182.852 0 0 0-35-20c-3.671-4.417-8.338-7.083-14-8a171.322 171.322 0 0 0-19-12c-8.302-.757-15.635 1.576-22 7a68.695 68.695 0 0 0-14 7c-4.302.286-7.635 2.286-10 6a62.787 62.787 0 0 0-13 7.5 363.482 363.482 0 0 0-68-25 14586.256 14586.256 0 0 1 78-45.5c5.048-1.356 9.381-4.023 13-8 8.64-3.004 16.64-7.337 24-13 8.278-1.768 15.278.565 21 7a90.401 90.401 0 0 1 14 6c1.918 2.928 4.585 4.594 8 5a483.026 483.026 0 0 0 51 29l4 4a457.332 457.332 0 0 1 22 11 91.311 91.311 0 0 0 23 13l4 4a203.265 203.265 0 0 1 37 21c4.231.043 6.064 2.21 5.5 6.5.5 70.333.667 140.666.5 211a84.545 84.545 0 0 0-18 8.5 3511.738 3511.738 0 0 1-97 56.5Z"/><path style="opacity:.999" fill="#353434" d="M391.5 97.5c5.991.466 11.991.799 18 1 6.362.47 12.695 1.136 19 2 5.642.854 11.309 1.52 17 2a363.482 363.482 0 0 1 68 25 158.622 158.622 0 0 0 10.5 7c.383-.556.883-.889 1.5-1 71.891 47.997 111.891 115.33 120 202a61.281 61.281 0 0 0-1 15c-.139 22.664-3.472 44.831-10 66.5.07.765.403 1.265 1 1.5-2.363 4.735-4.363 9.735-6 15 .124.607.457.94 1 1a705.828 705.828 0 0 0-14 28 125.992 125.992 0 0 1-9 17c-1.713 1.135-2.38 2.802-2 5-.934-1.068-1.268-2.401-1-4a54.968 54.968 0 0 0-12-1c13.366-20.07 23.532-41.736 30.5-65 .781-1.444.614-2.777-.5-4-57.776 30.071-118.776 38.904-183 26.5a469.325 469.325 0 0 1-64-18 1054.737 1054.737 0 0 1-56-25c-51.581-19.059-104.915-29.225-160-30.5 3.656 56.169 24.49 104.836 62.5 146 2.436 2.947 5.269 5.28 8.5 7-1.818 4.771-2.485 9.771-2 15a138.291 138.291 0 0 1-15-13 119.566 119.566 0 0 0-12-14 353.636 353.636 0 0 0-15-21c-6.599-8.855-11.932-18.521-16-29a351.14 351.14 0 0 1-10-23 246.387 246.387 0 0 1-5-17c-6.194-22.552-9.194-45.552-9-69a46.809 46.809 0 0 0-1-13c9.095-87.244 50.428-154.244 124-201 4.433-.714 8.1-2.714 11-6a456.874 456.874 0 0 1 42-16.5 213.066 213.066 0 0 1 28-6.5 292.105 292.105 0 0 1 18-3 297.853 297.853 0 0 0 23-2Z"/><path style="opacity:1" fill="#273238" d="M280.5 125.5c-2.9 3.286-6.567 5.286-11 6-7.967-2.944-15.3-7.111-22-12.5-5.603-1.533-10.436-4.366-14.5-8.5-1.604 1.149-3.27 1.149-5 0a1068.258 1068.258 0 0 1-78.5 45.5c-5.201 4.797-11.201 8.13-18 10-5.669 5.02-11.836 9.187-18.5 12.5-.5 45.332-.667 90.665-.5 136 5.301 1.324 9.968 3.824 14 7.5l10 4c2.468 3.148 5.468 5.315 9 6.5a46.809 46.809 0 0 1 1 13c-5.718-1.519-10.718-4.352-15-8.5a213.392 213.392 0 0 1-27.5-15.5 2946.23 2946.23 0 0 1 1-153 230.435 230.435 0 0 0 32.5-19.5c8.372-3.019 16.038-7.352 23-13 5.093-1.382 9.426-4.049 13-8a90.42 90.42 0 0 0 14-6c1.918-2.928 4.585-4.594 8-5a226.438 226.438 0 0 1 29-17 42.498 42.498 0 0 1 13 0c1.918 2.928 4.585 4.594 8 5a467.194 467.194 0 0 0 35 20.5ZM644.5 350.5a61.281 61.281 0 0 1 1-15 119.574 119.574 0 0 0 12-5.5 679.07 679.07 0 0 1 23-15 12.93 12.93 0 0 1 5-.5c.167-28.335 0-56.669-.5-85l-2-2-1-51a4305.66 4305.66 0 0 1-114.5-66 638.127 638.127 0 0 0-42 23c-.617.111-1.117.444-1.5 1a158.622 158.622 0 0 1-10.5-7 62.787 62.787 0 0 1 13-7.5c2.365-3.714 5.698-5.714 10-6a68.695 68.695 0 0 1 14-7c6.365-5.424 13.698-7.757 22-7a171.322 171.322 0 0 1 19 12c5.662.917 10.329 3.583 14 8a182.852 182.852 0 0 1 35 20 114.302 114.302 0 0 0 13 6 198.572 198.572 0 0 0 36 21 36.078 36.078 0 0 1 3.5 4.5c1.657 49.25 1.99 98.584 1 148-5.181 6.173-11.681 10.34-19.5 12.5a273.466 273.466 0 0 1-30 18.5Z"/><path style="opacity:1" fill="#eb3a39" d="M269.5 131.5c-73.572 46.756-114.905 113.756-124 201-3.532-1.185-6.532-3.352-9-6.5l-10-4c-4.032-3.676-8.699-6.176-14-7.5-.167-45.335 0-90.668.5-136 6.664-3.313 12.831-7.48 18.5-12.5 6.799-1.87 12.799-5.203 18-10a1068.258 1068.258 0 0 0 78.5-45.5c1.73 1.149 3.396 1.149 5 0 4.064 4.134 8.897 6.967 14.5 8.5 6.7 5.389 14.033 9.556 22 12.5Z"/><path style="opacity:1" fill="#d6f2fd" d="M375.5 110.5c89.543-3.804 161.043 29.863 214.5 101a279.412 279.412 0 0 1 12 19c1.301 1.902 1.968 3.902 2 6A24929.141 24929.141 0 0 1 472.5 165a12.494 12.494 0 0 0-7 0 13428.476 13428.476 0 0 1-138 70.5l-97-52.5c-1.755-.72-2.589-1.887-2.5-3.5 41.121-39.995 90.288-62.995 147.5-69Z"/><path style="opacity:1" fill="#ea3a39" d="M645.5 335.5c-8.109-86.67-48.109-154.003-120-202a638.127 638.127 0 0 1 42-23 4305.66 4305.66 0 0 0 114.5 66l1 51 2 2c.5 28.331.667 56.665.5 85a12.93 12.93 0 0 0-5 .5 679.07 679.07 0 0 0-23 15 119.574 119.574 0 0 1-12 5.5Z"/><path style="opacity:1" fill="#656565" d="M466.5 177.5c3.294-.241 6.294.592 9 2.5A27684.464 27684.464 0 0 1 614 255.5c10.65 23.268 16.15 47.601 16.5 73l-12 7c-1.289-6.645-4.956-8.478-11-5.5a73.396 73.396 0 0 0-1.5 11.5 71.819 71.819 0 0 1-12.5 6 32.129 32.129 0 0 0-3-7.5c-9.171-.971-12.505 3.196-10 12.5a43.171 43.171 0 0 0-10 3c-.205-6.715-3.539-9.548-10-8.5l-2.5 2.5a50.464 50.464 0 0 0-.5 10c-3.167-.1-6.167.567-9 2a1454.722 1454.722 0 0 0-2.5-52c-8.872-1.959-12.372 1.707-10.5 11h-9a40.914 40.914 0 0 0-.5-9c-3.39-3.532-7.057-3.866-11-1a50.464 50.464 0 0 0-.5 10h-10a50.464 50.464 0 0 0-.5-10c-3.943-2.866-7.61-2.532-11 1a40.914 40.914 0 0 0-.5 9h-9a40.914 40.914 0 0 0-.5-9c-3.39-3.532-7.057-3.866-11-1a50.464 50.464 0 0 0-.5 10h-10c.457-4.084-.21-7.917-2-11.5-3.774-1.183-6.941-.349-9.5 2.5-.5 16.997-.667 33.997-.5 51a79.952 79.952 0 0 1-10.5-2l-1-13c-2.926-3.58-6.26-3.913-10-1a60.931 60.931 0 0 0-.5 11 380.684 380.684 0 0 1-17-3 98.432 98.432 0 0 0-.5-14c-3.62-3.987-7.287-3.987-11 0a40.914 40.914 0 0 0-.5 9 214.185 214.185 0 0 1-16-4 112.97 112.97 0 0 0-.5-15c-3.588-3.893-7.254-3.893-11 0a42.769 42.769 0 0 1-1.5 9l-14-6a100.292 100.292 0 0 1-1.5-14c-2.647-4.263-5.981-4.93-10-2a34.78 34.78 0 0 0-2 10 110.615 110.615 0 0 0-15.5-7.5 113.601 113.601 0 0 1-1.5-14.5c-3.333-2.667-6.667-2.667-10 0a52.141 52.141 0 0 1-1.5 10 144.874 144.874 0 0 1-15.5-6l-1-14c-3.405-2.577-6.738-2.577-10 0a62.744 62.744 0 0 1-1.5 11 140.393 140.393 0 0 0-16-4 98.432 98.432 0 0 0-.5-14c-3.979-4.144-7.645-3.81-11 1a40.914 40.914 0 0 0-.5 9 99.064 99.064 0 0 1-16-2c-.262-1.478.071-2.811 1-4a17649.378 17649.378 0 0 0 224-115ZM217.5 190.5a39.238 39.238 0 0 1 11 4.5l86 47a1931.768 1931.768 0 0 1-74 38c-5.833-.97-9.833 1.196-12 6.5-4.71 2.859-9.71 4.859-15 6a72.367 72.367 0 0 0-.5-12c-3.171-4.914-6.837-5.247-11-1a60.931 60.931 0 0 0-.5 11 645.706 645.706 0 0 1-16-1.5 62.065 62.065 0 0 1-1.5-10.5c-3.74-2.913-7.074-2.58-10 1a40.914 40.914 0 0 0-.5 9 18.453 18.453 0 0 1-6-.5 4.933 4.933 0 0 1-1-2.5c9.975-35.628 26.975-67.295 51-95Z"/><path style="opacity:1" fill="#343434" d="M430.5 223.5a12.93 12.93 0 0 1 5 .5 1018.78 1018.78 0 0 0 42.5 30.5c9.489-6.819 18.989-13.652 28.5-20.5 7.5-1.833 10.333 1 8.5 8.5a1114.058 1114.058 0 0 0-26.5 20 197.237 197.237 0 0 0 13.5 10c2.654 7.184.154 10.351-7.5 9.5l-60-44c-1.667-.667-3.333-.667-5 0a678.892 678.892 0 0 0-31 16c-5.393 1.608-8.393-.392-9-6 .143-2.151 1.143-3.818 3-5a1012.32 1012.32 0 0 0 38-19.5Z"/><path style="opacity:1" fill="#c3b59c" d="M449.5 374.5v51h-3a307.768 307.768 0 0 1-58-14.5 991.327 991.327 0 0 1-67-29c-52.694-18.783-107.028-28.95-163-30.5-.166-8.673 0-17.34.5-26a346.99 346.99 0 0 0 3.5-26c69.751 1.771 135.751 18.271 198 49.5 28.686 12.015 58.353 20.515 89 25.5Z"/><path style="opacity:1" fill="#f7e9cd" d="M461.5 332.5h74v95a474.845 474.845 0 0 1-74 1v-96Z"/><path style="opacity:1" fill="#353534" d="M474.5 342.5c2.772-.28 5.272.387 7.5 2 .667 5 .667 10 0 15-2.497 1.978-5.331 2.478-8.5 1.5a9.454 9.454 0 0 1-1.5-2.5 42.479 42.479 0 0 1 0-13 10.515 10.515 0 0 0 2.5-3Z"/><path style="opacity:1" fill="#383737" d="M495.5 342.5c3.47-.625 6.304.375 8.5 3 .667 8 .667 16 0 24-4.073 4.119-7.74 3.785-11-1a132.434 132.434 0 0 1 0-23 10.515 10.515 0 0 0 2.5-3Z"/><path style="opacity:1" fill="#373736" d="M517.5 342.5c3.855-.655 6.688.679 8.5 4a30.485 30.485 0 0 1 0 11c-2.053 3.792-5.219 4.958-9.5 3.5a9.454 9.454 0 0 1-1.5-2.5 42.479 42.479 0 0 1 0-13 10.515 10.515 0 0 0 2.5-3Z"/><path style="opacity:1" fill="#c2b49b" d="M631.5 341.5c1.627 15.633.794 31.299-2.5 47-.093 2.507-.926 4.674-2.5 6.5-24.531 14.677-50.864 24.51-79 29.5a670.389 670.389 0 0 1 1-51.5c29.683-5.501 57.35-16.001 83-31.5Z"/><path style="opacity:1" fill="#86a939" d="M592.5 479.5c-40.001-.167-80.001 0-120 .5a445.472 445.472 0 0 0-27 2 6167.23 6167.23 0 0 0-111 1.5l-1.5 3c-.5 9.327-.666 18.661-.5 28-19.984 9.653-38.651 21.32-56 35 .167-10.672 0-21.339-.5-32l-1.5-1.5c-14.839-.828-29.506-.661-44 .5-3.231-1.72-6.064-4.053-8.5-7-38.01-41.164-58.844-89.831-62.5-146 55.085 1.275 108.419 11.441 160 30.5a1054.737 1054.737 0 0 0 56 25 469.325 469.325 0 0 0 64 18c64.224 12.404 125.224 3.571 183-26.5 1.114 1.223 1.281 2.556.5 4-6.968 23.264-17.134 44.93-30.5 65Z"/><path style="opacity:1" fill="#58554f" d="M449.5 374.5a676.419 676.419 0 0 1 1 52c-1.599.268-2.932-.066-4-1h3v-51Z"/><path style="opacity:.998" fill="#283238" d="M592.5 479.5a54.968 54.968 0 0 1 12 1c-.268 1.599.066 2.932 1 4v197c.166 9.672 0 19.339-.5 29l-1.5 1.5a463.293 463.293 0 0 1-52 1.5 750.264 750.264 0 0 0-67-.5 23965 23965 0 0 1-76 44c-5.586 2.457-11.253 2.79-17 1a114.302 114.302 0 0 0-13-6l-4-4a7040.07 7040.07 0 0 1-28-16c-3.959.349-6.626-1.317-8-5-8.36-3.016-16.027-7.349-23-13a466.277 466.277 0 0 1-50-29l-9-3a114.425 114.425 0 0 0-30-18 55.63 55.63 0 0 0-18-10 18.839 18.839 0 0 0-6.5-5.5 924.222 924.222 0 0 1-.5-43h-15c-.283-.789-.783-1.456-1.5-2a484.008 484.008 0 0 1 0-44c.383-.556.883-.889 1.5-1a61.281 61.281 0 0 1 15-1v-53a119.566 119.566 0 0 1 12 14v39c5.14.988 10.474 1.321 16 1 .326-8.849-.007-17.516-1-26v-1c-.485-5.229.182-10.229 2-15 14.494-1.161 29.161-1.328 44-.5l1.5 1.5c.5 10.661.667 21.328.5 32v8a523.98 523.98 0 0 0 38 1c1.322-.17 2.489.163 3.5 1 .175 4.519.675 8.853 1.5 13v12c-.989 5.475-1.322 11.142-1 17-.238 1.904-1.238 3.238-3 4-9.672-.166-19.339 0-29 .5.544.717 1.211 1.217 2 1.5a35.406 35.406 0 0 0 7 5.5l4 1a38.769 38.769 0 0 1 8 6 294.485 294.485 0 0 1 24.5 13.5 54.628 54.628 0 0 1 2-7 460.934 460.934 0 0 0 31.5-31 102.102 102.102 0 0 1 12-12 917.504 917.504 0 0 0 36-36c.99-5.81 1.323-11.81 1-18h-78c-1.527.073-2.527-.594-3-2a46.809 46.809 0 0 1-1-13c-.166-9.339 0-18.673.5-28l1.5-3a6167.23 6167.23 0 0 1 111-1.5 445.472 445.472 0 0 1 27-2c39.999-.5 79.999-.667 120-.5Z"/><path style="opacity:1" fill="#eb3a39" d="M607.5 479.5c-.166 8.34 0 16.673.5 25 .414.457.914.791 1.5 1a3571.518 3571.518 0 0 1 0 169c-1.083 2.638-2.416 4.971-4 7v-197c-.38-2.198.287-3.865 2-5ZM186.5 483.5a353.636 353.636 0 0 1 15 21v53a61.281 61.281 0 0 0-15 1v-75Z"/><path style="opacity:1" fill="#b35146" d="M597.5 488.5h-119v216a11770.92 11770.92 0 0 1-1-217c40.17-.332 80.17.001 120 1Z"/><path style="opacity:1" fill="#fd614c" d="M597.5 488.5v216h-119v-216h119Z"/><path style="opacity:1" fill="#fc614c" d="M377.5 673.5c25.828.998 51.828 1.331 78 1v30h-114c.321-5.526-.012-10.86-1-16-.167-19.003 0-38.003.5-57l80-80 .5-14c-.031-5.085-.698-9.918-2-14.5-26.331-.5-52.665-.667-79-.5v-32h116c.167 24.669 0 49.336-.5 74l-81 81a156.422 156.422 0 0 0 0 25c.377 1.442 1.21 2.442 2.5 3Z"/><path style="opacity:1" fill="#91c549" d="M464.5 492.5h5v81a60.204 60.204 0 0 0-12 3c-.607-.124-.94-.457-1-1a63.707 63.707 0 0 1 6.5-7c.168-25.503.668-50.837 1.5-76Z"/><path style="opacity:1" fill="#5d7e40" d="M464.5 492.5c1.765-.961 3.765-1.295 6-1 .331 27.172-.002 54.172-1 81v-80h-5Z"/><path style="opacity:1" fill="#343633" d="M332.5 514.5a46.809 46.809 0 0 0 1 13 214.734 214.734 0 0 0-47 29.5c9.509.17 18.842.67 28 1.5a523.98 523.98 0 0 1-38-1v-8c17.349-13.68 36.016-25.347 56-35Z"/><path style="opacity:1" fill="#fdfdfd" d="M213.5 518.5a138.291 138.291 0 0 0 15 13v26h-15v-39Z"/><path style="opacity:1" fill="#293238" d="M516.5 519.5c14.67-.167 29.337 0 44 .5l1.5 1.5c.83 50.237.664 100.404-.5 150.5a552.224 552.224 0 0 1-47 0 11.333 11.333 0 0 1-1.5-3.5 3601.9 3601.9 0 0 1 .5-147c1.239-.442 2.239-1.109 3-2Z"/><path style="opacity:1" fill="#b75246" d="M268.5 523.5h-31a361.608 361.608 0 0 1-1 38v-39c10.846-.328 21.513.006 32 1Z"/><path style="opacity:1" fill="#fd614c" d="M268.5 523.5c-.167 13.337 0 26.671.5 40l1.5 1.5c13.329.5 26.663.667 40 .5v32a400.456 400.456 0 0 0-40 1l-1.5 3a799.793 799.793 0 0 0-.5 40h-32c.167-14.004 0-28.004-.5-42a11.333 11.333 0 0 0-3.5-1.5 760.316 760.316 0 0 0-39-.5v-31a380.934 380.934 0 0 0 39-1c2.333-.333 3.667-1.667 4-4a361.608 361.608 0 0 0 1-38h31Z"/><path style="opacity:1" fill="#96cc4a" d="M549.5 527.5a149.955 149.955 0 0 1-29 21v-21h29Z"/><path style="opacity:1" fill="#343534" d="M549.5 527.5h5v11a598.173 598.173 0 0 1-25 20c.065-.438-.101-.772-.5-1a89.809 89.809 0 0 1-7.5 5 49.87 49.87 0 0 1-1-14 149.955 149.955 0 0 0 29-21Z"/><path style="opacity:1" fill="#98cf4a" d="M333.5 527.5c.473 1.406 1.473 2.073 3 2a1482.71 1482.71 0 0 0 77 1v17a917.504 917.504 0 0 1-36 36 221.784 221.784 0 0 1-58-11c-.825-4.147-1.325-8.481-1.5-13-1.011-.837-2.178-1.17-3.5-1a386.75 386.75 0 0 0-28-1.5 214.734 214.734 0 0 1 47-29.5Z"/><path style="opacity:1" fill="#4e6a3f" d="M336.5 529.5h78c.323 6.19-.01 12.19-1 18v-17a1482.71 1482.71 0 0 1-77-1Z"/><path style="opacity:1" fill="#5a6367" d="M228.5 532.5c.993 8.484 1.326 17.151 1 26-5.526.321-10.86-.012-16-1h15v-25Z"/><path style="opacity:1" fill="#fafafa" d="M554.5 538.5a2363.647 2363.647 0 0 1 .5 119 128.281 128.281 0 0 1-11.5 7h-22v-50a54.7 54.7 0 0 0 5.5-4l1-50c.717-.544 1.217-1.211 1.5-2a598.173 598.173 0 0 0 25-20Z"/><path style="opacity:1" fill="#c85647" d="M232.5 565.5a380.934 380.934 0 0 1-39 1v31c-.994-10.487-1.328-21.154-1-32h40Z"/><path style="opacity:1" fill="#363433" d="M319.5 572.5a221.784 221.784 0 0 0 58 11 102.102 102.102 0 0 0-12 12 363.752 363.752 0 0 1-45-10c0-.667-.333-1-1-1v-12Z"/><path style="opacity:1" fill="#403534" d="M469.5 573.5c1.184 19.493 1.184 38.827 0 58v-46a429.064 429.064 0 0 1-28 7 180.973 180.973 0 0 1 15-17c.06.543.393.876 1 1a60.204 60.204 0 0 1 12-3Z"/><path style="opacity:1" fill="#883638" d="M319.5 584.5c.667 0 1 .333 1 1l-2 16c-.322-5.858.011-11.525 1-17Z"/><path style="opacity:1" fill="#e83a39" d="M320.5 585.5a363.752 363.752 0 0 0 45 10 460.934 460.934 0 0 1-31.5 31 54.628 54.628 0 0 0-2 7 294.485 294.485 0 0 0-24.5-13.5 38.769 38.769 0 0 0-8-6l-4-1a35.406 35.406 0 0 1-7-5.5l27-2c1.762-.762 2.762-2.096 3-4l2-16Z"/><path style="opacity:1" fill="#ea3a39" d="M469.5 631.5a65.813 65.813 0 0 1-13 5.5c-3.574 3.951-7.907 6.618-13 8a71.916 71.916 0 0 0-9 7l-4 1-20 12c-6.584 1.544-13.251 1.877-20 1-2.871-.131-5.205-1.297-7-3.5a33.225 33.225 0 0 1-.5-14l55.5-55.5a4.934 4.934 0 0 1 3-.5 429.064 429.064 0 0 0 28-7v46Z"/><path style="opacity:1" fill="#6e423f" d="M310.5 565.5c.995 10.821 1.328 21.821 1 33h-41a400.456 400.456 0 0 1 40-1v-32Z"/><path style="opacity:1" fill="#ea3a39" d="M186.5 605.5h15c-.167 14.337 0 28.671.5 43a18.839 18.839 0 0 1 6.5 5.5 55.63 55.63 0 0 1 18 10 114.425 114.425 0 0 1 30 18l9 3a466.277 466.277 0 0 0 50 29c6.973 5.651 14.64 9.984 23 13 1.374 3.683 4.041 5.349 8 5a7040.07 7040.07 0 0 0 28 16l4 4a114.302 114.302 0 0 1 13 6c5.747 1.79 11.414 1.457 17-1a23965 23965 0 0 0 76-44 750.264 750.264 0 0 1 67 .5 22.296 22.296 0 0 1-5 3.5l1 1a118.288 118.288 0 0 0-17 7.5 10.756 10.756 0 0 0-2.5 3l-1-1c-1.049 1.607-2.549 2.273-4.5 2v3h-6v3h-5v3c-2.524-.071-4.524.929-6 3-2.12-1.372-3.12-.705-3 2a12.93 12.93 0 0 0-5 .5 101.657 101.657 0 0 0-10 7.5 9.108 9.108 0 0 1-5 1v3c-2.51-.446-4.51.22-6 2-2.216.703-4.049 2.036-5.5 4-1.813-1.109-2.646-.442-2.5 2a12.93 12.93 0 0 0-5 .5c-1.497 1.871-3.497 2.871-6 3-1.307 2.324-3.307 3.657-6 4l2 1a12.93 12.93 0 0 1-5 .5v3a9.86 9.86 0 0 0-6 1 35.217 35.217 0 0 1-8 4v3h-6v3h-6v3a8.43 8.43 0 0 0-4 .5l-5 5c-1.284.684-2.451.517-3.5-.5-1.263 2.968-3.263 3.968-6 3a2.428 2.428 0 0 0-.5 2h-12c-.507-1.359-1.507-2.359-3-3a137.913 137.913 0 0 0-11-4v-3c-2.133-1.386-5.133-2.386-9-3v-3h-5v-3c-3.005.247-5.505-.753-7.5-3l-1 1a4.934 4.934 0 0 1-.5-3h-6v-3h-5v-3h-6v-3c-5.922-1.727-11.089-4.727-15.5-9-.718.951-1.551 1.117-2.5.5 1.333-.667 1.333-1.333 0-2a12.93 12.93 0 0 0-5-.5v-3a58.97 58.97 0 0 1-11-3v-3c-8.654-3.265-16.321-6.932-23-11v-3h-6v-3h-5v-3a8.43 8.43 0 0 1-4-.5c-4.85-3.699-10.184-6.199-16-7.5v-3h-6v-3c-2.092-.061-3.592-1.061-4.5-3-1.299.466-2.799.466-4.5 0v-3c-1.788.285-3.455-.048-5-1-2.158-3.144-5.158-4.477-9-4v-3a12.93 12.93 0 0 1-5-.5c-2.625-3.031-6.125-5.864-10.5-8.5-2.537.677-4.537-.323-6-3l-1 1c-1.667-1-3-2.333-4-4-1.049 1.017-2.216 1.184-3.5.5l1-1a15.645 15.645 0 0 1-4-2.5c-1-24.991-1.333-49.991-1-75Z"/><path style="opacity:1" fill="#b83838" d="m315.5 605.5-27 2c-.789-.283-1.456-.783-2-1.5 9.661-.5 19.328-.666 29-.5Z"/><path style="opacity:1" fill="#fcfcfc" d="M332.5 688.5c.325 7.187-.009 14.187-1 21-8.08-2.706-15.413-6.873-22-12.5-5.093-1.382-9.426-4.049-13-8-6.4-2.062-12.067-5.396-17-10l-10-4-4-4a77.598 77.598 0 0 1-23-13 90.42 90.42 0 0 1-14-6 45.999 45.999 0 0 0-13-8l-1.5-1.5a684.346 684.346 0 0 1-.5-37h15c-.167 13.004 0 26.004.5 39a11.333 11.333 0 0 0 1.5 3.5c14.667.667 29.333.667 44 0a9.454 9.454 0 0 0 1.5-2.5l1-29a46.47 46.47 0 0 0 14.5 6.5 27.816 27.816 0 0 1 8 6 420.445 420.445 0 0 0 32 17 457.546 457.546 0 0 1 1 42.5Z"/><path style="opacity:1" fill="#babdbf" d="M521.5 614.5v50h22c-7.482.992-15.148 1.325-23 1a650.602 650.602 0 0 1 1-51Z"/><path style="opacity:1" fill="#909699" d="M469.5 707.5a961.42 961.42 0 0 0-1-62c.283-.789.783-1.456 1.5-2a684.92 684.92 0 0 1-.5 64Z"/><path style="opacity:1" fill="#fcfcfc" d="M468.5 645.5a961.42 961.42 0 0 1 1 62c-.787 1.604-2.12 2.271-4 2l-2-39c-.333-2.333-1.667-3.667-4-4l-25-2a257.34 257.34 0 0 1 34-19Z"/><path style="opacity:1" fill="#c5c8c9" d="m434.5 664.5 25 2c-9.006.166-18.006 0-27-.5.544-.717 1.211-1.217 2-1.5Z"/><path style="opacity:1" fill="#c9cbcc" d="m463.5 670.5 2 39c-.06.543-.393.876-1 1a400.778 400.778 0 0 1-1-40Z"/><path style="opacity:1" fill="#5d3e3d" d="M377.5 673.5h79c.328 10.846-.006 21.513-1 32v-31c-26.172.331-52.172-.002-78-1Z"/><path style="opacity:1" fill="#5e666a" d="M332.5 688.5c1.319 7.177 1.319 14.51 0 22-.607-.124-.94-.457-1-1 .991-6.813 1.325-13.813 1-21Z"/><path style="opacity:1" fill="#c95648" d="M340.5 688.5c.988 5.14 1.321 10.474 1 16h114v1h-115v-17Z"/><path style="opacity:1" fill="#5c6569" d="M459.5 713.5c-40.837-.332-81.503.001-122 1-.789-.283-1.456-.783-2-1.5 42.708-.828 84.042-.661 124 .5Z"/><path style="opacity:1" fill="#fcfcfc" d="M337.5 714.5a3720.344 3720.344 0 0 1 122-1 1829.673 1829.673 0 0 0-61 35 97.288 97.288 0 0 0-12-5.5c-3.543-1.608-6.543-3.942-9-7-5.662-.917-10.329-3.583-14-8a78.488 78.488 0 0 1-23-13 4.934 4.934 0 0 0-3-.5Z"/><path style="opacity:1" fill="#eb3a39" d="M476.5 757.5c1.333.667 1.333.667 0 0Z"/></svg>