<svg version="1.0" xmlns="http://www.w3.org/2000/svg" width="533.333" height="533.333" viewBox="0 0 400 400"><path d="M175 16.5C100.4 26.7 39 81.7 20.4 154.9c-7.1 27.9-7.1 62.3 0 90.2 13.7 53.9 50.5 98.5 101.1 122.5 49.3 23.3 107.7 23.3 157 0 57.5-27.3 96.8-81 105-143.3 10.5-80.1-31.6-157.1-105-191.9-18-8.5-36.9-13.9-57.5-16.4-11.3-1.3-34.2-1.1-46 .5zm66.3 89.2c4.9 22.6 18.5 35.9 40.5 39.5l6.2 1.1v31.5l-2.8.6c-3.4.8-15.4-.8-21.9-2.9-2.6-.9-8.8-3.6-13.6-6.1-4.9-2.4-9-4.4-9.2-4.4-.2 0-.5 17.7-.8 39.2-.4 44.2-.4 44.3-8.2 60.3-15.6 32.5-53.4 46.5-84.2 31.2-12.2-6-24.2-19.3-30-33.2-4.8-11.4-6-29-2.9-41.7 6.6-27.8 29-45.4 62.9-49.4l5.7-.6v34.1l-4.2 1.1c-16.8 4.2-25 8.5-29.7 15.7-3.7 5.5-4.5 9.4-3.9 18.1.8 11.6 6.9 20 18.2 25.3 4.8 2.3 7.5 2.9 12.6 2.9 11.7-.1 19.5-4.7 24.7-14.7 5.7-10.6 5.6-9.1 5.4-85.1l-.2-70.2h33.8l1.6 7.7z"/></svg>