<?xml version="1.0" encoding="UTF-8"?><svg xmlns="http://www.w3.org/2000/svg" width="800" height="800" style="shape-rendering:geometricPrecision;text-rendering:geometricPrecision;image-rendering:optimizeQuality;fill-rule:evenodd;clip-rule:evenodd"><path style="opacity:1" fill="#fcfdfd" d="M576.5-.5h9a2.429 2.429 0 0 0 .5 2c1.049-1.017 2.216-1.184 3.5-.5a20.495 20.495 0 0 0 2.5 3.5c1.356-.88 2.856-1.214 4.5-1v3c2.822 1.432 6.489 2.432 11 3v3c2.092.061 3.592 1.061 4.5 3 2.537-.677 4.537.323 6 3 2.361-.566 4.194.434 5.5 3l2-1c.35 2.067 2.017 3.067 5 3v3h6v3h5v3h6v3a27.247 27.247 0 0 0 9 3c-.219 1.175.114 2.175 1 3a6.846 6.846 0 0 1 4-1v3a8.435 8.435 0 0 1 4 .5c-1.154.914-.987 1.747.5 2.5 1.299-.466 2.799-.466 4.5 0v3h6v3h5v3a428.986 428.986 0 0 0 20 8.5l-2 1c2.522.61 4.522 1.943 6 4 1.634.493 3.301.66 5 .5v3c2.908-.238 5.242.762 7 3 .951-.826 1.951-.992 3-.5l-1 1a6.977 6.977 0 0 1 3.5 2.5l1-1c.483.948.649 1.948.5 3h6v3h5v3c1.951-.273 3.451.393 4.5 2l1-1c6 4.386 12.5 7.886 19.5 10.5l-1 1c1.525 1.009 3.192 1.509 5 1.5v3h6v3h5v3c2.041.354 3.874.354 5.5 0 .483.948.649 1.948.5 3 2.836 1.276 5.836 1.942 9 2 1.728 6.164 2.394 12.497 2 19h-31a54.7 54.7 0 0 0-4-5.5c-3.29-.253-6.29-1.253-9-3a29746.604 29746.604 0 0 1-46-28 457.332 457.332 0 0 0-22-11l-4-4a161.879 161.879 0 0 1-33-19c-6.4-2.062-12.067-5.396-17-10a1126.1 1126.1 0 0 0-31-16c-2.365-3.714-5.698-5.714-10-6-7.082-6.364-15.416-9.031-25-8a12271.425 12271.425 0 0 1-129 74l-5.5 5.5c-.667 1.667-.667 3.333 0 5 2.43 3.934 5.597 6.934 9.5 9-10.487.994-21.154 1.328-32 1a8.43 8.43 0 0 1-4-.5 10892.14 10892.14 0 0 0-27-17 326.577 326.577 0 0 1-27-14c-3.83-4.162-8.497-6.83-14-8a2084.03 2084.03 0 0 0-77-44c-9.098-8.801-19.765-11.801-32-9-4.194 3.22-8.86 5.554-14 7a2157.081 2157.081 0 0 1-68 39 55.63 55.63 0 0 1-18 10 12458.29 12458.29 0 0 1-28 18c-5.503 1.171-10.17 3.837-14 8a133.395 133.395 0 0 0-32 18c-2.71 1.747-5.71 2.747-9 3-1.655 1.444-2.322 3.278-2 5.5h-31c.123-6.318.123-12.484 0-18.5a169.104 169.104 0 0 0 15-5.5v-3a58.967 58.967 0 0 0 11-3v-3a417.79 417.79 0 0 0 15-7 32.686 32.686 0 0 0 8.5-6l1 1c1.049-1.607 2.549-2.273 4.5-2v-3a59.029 59.029 0 0 1 11-3 4.932 4.932 0 0 1 .5-3l1 1c2.015-3.065 4.515-4.065 7.5-3v-3h5v-3c1.7.16 3.366-.007 5-.5 1.478-2.057 3.478-3.39 6-4l-2-1a18.436 18.436 0 0 1 6-.5v-3a87.51 87.51 0 0 0 14-5v-3h6v-3h5v-3c1.701-.466 3.201-.466 4.5 0 3.279-4.047 7.946-7.047 14-9a18.264 18.264 0 0 0 5-4l1 1c1.049-1.607 2.549-2.273 4.5-2v-3h5v-3h6v-3c4.612-1.195 9.279-2.862 14-5v-3c1.701-.466 3.201-.466 4.5 0 .908-1.939 2.408-2.939 4.5-3v-3h6v-3c1.788.285 3.455-.048 5-1a38.767 38.767 0 0 0 7-4.5 49.25 49.25 0 0 1 14 0c2.025 1.677 4.359 2.677 7 3-1.134 1.016-.801 1.683 1 2l5 1-1 1c2.622 3.073 5.955 4.573 10 4.5v3h6v3c3.191.262 5.858 1.596 8 4a9.864 9.864 0 0 0 6 1v3c3.58 1.22 7.247 2.386 11 3.5l-2 1c2.767.678 4.934 2.178 6.5 4.5l1-1c3.769 1.797 7.102 4.13 10 7a3.942 3.942 0 0 1 2-1c1.482 1.612 3.315 2.612 5.5 3v3h6v3h5v3h6v3a87.51 87.51 0 0 0 14 5v3c1.699-.16 3.366.007 5 .5l-1 1c1.525 1.009 3.192 1.509 5 1.5v3h6v3h5v3c2.985-1.065 5.485-.065 7.5 3l1-1c.483.948.649 1.948.5 3h5v3h6v3c2.133 1.386 5.133 2.386 9 3v3c2.908-.238 5.242.762 7 3l2-1c.35 2.067 2.017 3.067 5 3v3h6v3c2.516-.255 4.85-1.089 7-2.5a626.207 626.207 0 0 1 29-17c.837-1.011 1.17-2.178 1-3.5 4.493-.216 7.993-2.216 10.5-6 1.011.837 2.178 1.17 3.5 1v-3a59.031 59.031 0 0 0 11-3v-3c1.808.009 3.475-.491 5-1.5l-1-1a12.935 12.935 0 0 1 5-.5v-3a9.864 9.864 0 0 0 6-1 35.213 35.213 0 0 1 8-4v-3h6v-3a59.031 59.031 0 0 1 11-3v-3c1.808.009 3.475-.491 5-1.5-1.388-.89-1.222-1.39.5-1.5 2.071 1.167 3.571.5 4.5-2 6.434-2.343 12.767-5.343 19-9v-3a59.031 59.031 0 0 1 11-3 4.934 4.934 0 0 1 .5-3l1 1c1.995-2.247 4.495-3.247 7.5-3v-3h5v-3h6v-3c1.808.009 3.475-.491 5-1.5l-1-1a12.936 12.936 0 0 1 5-.5v-3c3.552.188 6.219-1.145 8-4Z"/><path style="opacity:1" fill="#273339" d="M761.5 133.5v222c.396 2.544-.271 4.711-2 6.5a302.779 302.779 0 0 0-18 8.5 2083.967 2083.967 0 0 1-71 41c-8.004 5-16.004 10-24 15-4.471 1.46-8.471 3.793-12 7a102.415 102.415 0 0 0-12 5.5c-1.593.949-2.926 2.115-4 3.5a5.727 5.727 0 0 1-3 1 383.185 383.185 0 0 0 10.5-20c.708-.881 1.542-1.547 2.5-2a332.66 332.66 0 0 0 13-5.5 1189.267 1189.267 0 0 1 67-39 846.02 846.02 0 0 0 33-20 73.86 73.86 0 0 0 9-3.5 7901.316 7901.316 0 0 0-1.5-216 2129.254 2129.254 0 0 1-37.5-21.5c-3.415-.406-6.082-2.072-8-5a91.311 91.311 0 0 1-23-13 457.332 457.332 0 0 0-22-11c-2.508-3.042-5.508-5.376-9-7a457.332 457.332 0 0 1-22-11l-24-15c-3.415-.406-6.082-2.072-8-5a90.401 90.401 0 0 0-14-6c-5.722-6.435-12.722-8.768-21-7-7.36 5.663-15.36 9.996-24 13-3.619 3.977-7.952 6.644-13 8-2.537 2.546-5.537 4.212-9 5l-4 4-10 4a2551.356 2551.356 0 0 0-60 36 7185.005 7185.005 0 0 1 26 16 114.065 114.065 0 0 0 14 6c4.2 3.6 8.867 6.433 14 8.5a684.54 684.54 0 0 1 19-8.5 43.593 43.593 0 0 1 13-8c2.365-3.714 5.698-5.714 10-6a705.673 705.673 0 0 1 21-12c4.719-2.307 9.719-2.974 15-2a113.107 113.107 0 0 0 28 15l5 5a182.852 182.852 0 0 1 35 20 193.115 193.115 0 0 1 32 19 83.62 83.62 0 0 1 18.5 9.5l3 5c.667 48.667.667 97.333 0 146-5.181 6.173-11.681 10.34-19.5 12.5a12318.477 12318.477 0 0 1-28 18c-6.207 1.86-11.707 5.026-16.5 9.5a12.93 12.93 0 0 0-.5 5 243.819 243.819 0 0 0-3-18 687.464 687.464 0 0 0 31-17 875.732 875.732 0 0 0 23-14.5 8.43 8.43 0 0 1 4-.5 1207.01 1207.01 0 0 0 .5-85l-2-2a50.464 50.464 0 0 1-.5-10v-28c.318-4.532-.015-8.866-1-13-5.465-4.211-11.465-7.544-18-10a448.55 448.55 0 0 1-15-9 98.501 98.501 0 0 0-17-9c-5.582-4.904-11.915-8.571-19-11a35.406 35.406 0 0 0-7-5.5 478.277 478.277 0 0 1-22-11 202.24 202.24 0 0 0-16-10.5 833.382 833.382 0 0 0-48 27 232.014 232.014 0 0 0-18 9.5 42.479 42.479 0 0 1-13 0 196.639 196.639 0 0 1-17-9.5 7704.682 7704.682 0 0 1-36-21c-3.903-2.066-7.07-5.066-9.5-9-.667-1.667-.667-3.333 0-5l5.5-5.5a12271.425 12271.425 0 0 0 129-74c9.584-1.031 17.918 1.636 25 8 4.302.286 7.635 2.286 10 6a1126.1 1126.1 0 0 1 31 16c4.933 4.604 10.6 7.938 17 10a161.879 161.879 0 0 0 33 19l4 4a457.332 457.332 0 0 1 22 11 29746.604 29746.604 0 0 0 46 28c2.71 1.747 5.71 2.747 9 3a54.7 54.7 0 0 1 4 5.5Z"/><path style="opacity:1" fill="#28343a" d="M403.5 117.5a25.14 25.14 0 0 0 4 4.5 91.311 91.311 0 0 1 23 13 73.86 73.86 0 0 1 9 3.5 25.14 25.14 0 0 0 4 4.5 140.257 140.257 0 0 0 15 6.5 14.698 14.698 0 0 0 3 3.5 51.92 51.92 0 0 0 11 5.5c4.336 1.849 8.336 4.349 12 7.5a42.47 42.47 0 0 0 5 1.5 55.355 55.355 0 0 0 19 11 532.843 532.843 0 0 1 21 13 54.63 54.63 0 0 0 15 7 25.14 25.14 0 0 0 4 4.5 117.669 117.669 0 0 0 17 8c3.941 3.92 8.607 6.42 14 7.5a87.025 87.025 0 0 0 15.5 11c.5 12.329.667 24.662.5 37a160.054 160.054 0 0 0-13-17c1.312-4.515 1.312-9.182 0-14a408.978 408.978 0 0 1-21-12.5c-.937-.692-1.603-.525-2 .5-26.149-24.913-56.482-42.913-91-54a4586.737 4586.737 0 0 0-34-18.5c-4.758-4.768-10.425-7.768-17-9-3.065-4.125-7.065-6.791-12-8l-6-5a546.6 546.6 0 0 0-35-18 108.394 108.394 0 0 1-19-13 1516.16 1516.16 0 0 1-91-52A228.066 228.066 0 0 0 230 34.5 112.066 112.066 0 0 0 206.5 48l-10 4-3 3c-6.771 2.445-12.771 6.111-18 11l-10 4-4 4a520.666 520.666 0 0 0-59 34l-9 3c-2.508 3.042-5.508 5.376-9 7a583.92 583.92 0 0 1-36 19 7827.247 7827.247 0 0 0-.5 216.5 12928.186 12928.186 0 0 0 122.5 70c.853 4.97 1.52 9.97 2 15a35.296 35.296 0 0 0-9-5 2435.114 2435.114 0 0 1-26-15 149.145 149.145 0 0 0-18-10 24128.803 24128.803 0 0 1-64-37c-3.716-.141-6.383-1.975-8-5.5l-9.5-5.5a70.523 70.523 0 0 1-1.5-9v-202a69.269 69.269 0 0 1 1-16c-.322-2.222.345-4.056 2-5.5 3.29-.253 6.29-1.253 9-3a133.395 133.395 0 0 1 32-18c3.83-4.163 8.497-6.829 14-8 9.313-5.97 18.646-11.97 28-18a55.63 55.63 0 0 0 18-10c22.924-12.6 45.591-25.6 68-39 5.14-1.446 9.806-3.78 14-7 12.235-2.801 22.902.199 32 9a2084.03 2084.03 0 0 1 77 44c5.503 1.17 10.17 3.838 14 8a326.577 326.577 0 0 0 27 14c8.98 5.636 17.98 11.302 27 17a8.43 8.43 0 0 0 4 .5Z"/><path style="opacity:1" fill="#fdfdfd" d="M468.5 169.5c-39.268-11.316-78.935-12.983-119-5-9.238-4.042-17.905-9.209-26-15.5-5.009-1.005-9.342-3.339-13-7a456.422 456.422 0 0 0-32-17 51.42 51.42 0 0 0-14-8c-7.09-5.464-14.757-9.797-23-13-2.435-3.89-5.935-5.39-10.5-4.5l-6.5.5a226.438 226.438 0 0 0-29 17c-3.415.406-6.082 2.072-8 5a90.42 90.42 0 0 1-14 6c-3.574 3.951-7.907 6.618-13 8-6.962 5.648-14.628 9.981-23 13a230.435 230.435 0 0 1-32.5 19.5 2946.23 2946.23 0 0 0-1 153 76.322 76.322 0 0 0 18.5 10.5 2015.47 2015.47 0 0 0 48 27.5 601.927 601.927 0 0 1-16.5 28c-1.212 3.334-.379 5.834 2.5 7.5 3.986.499 7.986.666 12 .5a158.207 158.207 0 0 0 2 28 12928.186 12928.186 0 0 1-122.5-70 7827.247 7827.247 0 0 1 .5-216.5 583.92 583.92 0 0 0 36-19c3.492-1.624 6.492-3.958 9-7l9-3a520.666 520.666 0 0 1 59-34l4-4 10-4c5.229-4.889 11.229-8.555 18-11l3-3 10-4A112.066 112.066 0 0 1 230 34.5 228.066 228.066 0 0 1 254.5 46a1516.16 1516.16 0 0 0 91 52 108.394 108.394 0 0 0 19 13 546.6 546.6 0 0 1 35 18l6 5c4.935 1.209 8.935 3.875 12 8 6.575 1.232 12.242 4.232 17 9a4586.737 4586.737 0 0 1 34 18.5Z"/><path style="opacity:1" fill="#fdfdfe" d="M628.5 421.5a237.11 237.11 0 0 1 16.5-28c.944-2.847.444-5.347-1.5-7.5a84.902 84.902 0 0 0-13-.5 161.24 161.24 0 0 0-1-21 12.93 12.93 0 0 1 .5-5c4.793-4.474 10.293-7.64 16.5-9.5 9.313-5.969 18.646-11.969 28-18 7.819-2.16 14.319-6.327 19.5-12.5.667-48.667.667-97.333 0-146l-3-5a83.62 83.62 0 0 0-18.5-9.5 193.115 193.115 0 0 0-32-19 182.852 182.852 0 0 0-35-20l-5-5a113.107 113.107 0 0 1-28-15c-5.281-.974-10.281-.307-15 2a705.673 705.673 0 0 0-21 12c-4.302.286-7.635 2.286-10 6a43.593 43.593 0 0 0-13 8 684.54 684.54 0 0 0-19 8.5 50.162 50.162 0 0 1-14-8.5 114.065 114.065 0 0 1-14-6 7185.005 7185.005 0 0 0-26-16 2551.356 2551.356 0 0 1 60-36l10-4 4-4c3.463-.788 6.463-2.454 9-5 5.048-1.356 9.381-4.023 13-8 8.64-3.004 16.64-7.337 24-13 8.278-1.768 15.278.565 21 7a90.401 90.401 0 0 1 14 6c1.918 2.928 4.585 4.594 8 5l24 15a457.332 457.332 0 0 0 22 11c3.492 1.624 6.492 3.958 9 7a457.332 457.332 0 0 1 22 11 91.311 91.311 0 0 0 23 13c1.918 2.928 4.585 4.594 8 5a2129.254 2129.254 0 0 0 37.5 21.5 7901.316 7901.316 0 0 1 1.5 216 73.86 73.86 0 0 1-9 3.5 846.02 846.02 0 0 1-33 20 1189.267 1189.267 0 0 0-67 39 332.66 332.66 0 0 1-13 5.5Z"/><path style="opacity:1" fill="#273339" d="M349.5 164.5a109.537 109.537 0 0 0-17 5c-1.268-1.547-2.935-2.547-5-3a112.343 112.343 0 0 0-15-9l-16-9a155.084 155.084 0 0 1-19-11 2825.672 2825.672 0 0 1-30-18.5c-5.603-1.533-10.436-4.366-14.5-8.5-2.09.652-4.257.819-6.5.5-14.373 9.671-29.04 18.504-44 26.5a155.084 155.084 0 0 1-19 11 76.987 76.987 0 0 1-14 7.5c-.881.708-1.547 1.542-2 2.5a1445.483 1445.483 0 0 0-16 8 129.805 129.805 0 0 1-17 11c-.617.111-1.117.444-1.5 1a32.462 32.462 0 0 0-.5 8v111c-.322 5.858.011 11.525 1 17 5.857 1.782 11.19 4.448 16 8l17 10c10.01 5.684 20.01 11.35 30 17a37.79 37.79 0 0 1-6 10 2015.47 2015.47 0 0 1-48-27.5 76.322 76.322 0 0 1-18.5-10.5 2946.23 2946.23 0 0 1 1-153 230.435 230.435 0 0 0 32.5-19.5c8.372-3.019 16.038-7.352 23-13 5.093-1.382 9.426-4.049 13-8a90.42 90.42 0 0 0 14-6c1.918-2.928 4.585-4.594 8-5a226.438 226.438 0 0 1 29-17l6.5-.5c4.565-.89 8.065.61 10.5 4.5 8.243 3.203 15.91 7.536 23 13a51.42 51.42 0 0 1 14 8 456.422 456.422 0 0 1 32 17c3.658 3.661 7.991 5.995 13 7 8.095 6.291 16.762 11.458 26 15.5Z"/><path style="opacity:1" fill="#eff6f9" d="M435.5 116.5a7704.682 7704.682 0 0 0 36 21c-10.487.994-21.154 1.328-32 1a73.86 73.86 0 0 0-9-3.5 91.311 91.311 0 0 0-23-13 25.14 25.14 0 0 1-4-4.5c10.846.328 21.513-.006 32-1Z"/><path style="opacity:1" fill="#edf6fa" d="M277.5 137.5a1128.907 1128.907 0 0 1-95 0c14.96-7.996 29.627-16.829 44-26.5 2.243.319 4.41.152 6.5-.5 4.064 4.134 8.897 6.967 14.5 8.5a2825.672 2825.672 0 0 0 30 18.5ZM612.5 137.5c-31 1.333-62 1.333-93 0a833.382 833.382 0 0 1 48-27 202.24 202.24 0 0 1 16 10.5 478.277 478.277 0 0 0 22 11 35.406 35.406 0 0 1 7 5.5Z"/><path style="opacity:1" fill="#e0f2fa" d="M6.5 133.5h31a69.269 69.269 0 0 0-1 16h-30v-16Z"/><path style="opacity:1" fill="#def0f9" d="M182.5 137.5a1128.907 1128.907 0 0 0 95 0 155.084 155.084 0 0 0 19 11 2212.178 2212.178 0 0 1-133 0 155.084 155.084 0 0 0 19-11Z"/><path style="opacity:1" fill="#ddf0f8" d="M471.5 137.5a196.639 196.639 0 0 0 17 9.5c4.333.667 8.667.667 13 0a232.014 232.014 0 0 1 18-9.5c31 1.333 62 1.333 93 0 7.085 2.429 13.418 6.096 19 11a7484.99 7484.99 0 0 1-173 1 140.257 140.257 0 0 1-15-6.5 25.14 25.14 0 0 1-4-4.5c10.846.328 21.513-.006 32-1Z"/><path style="opacity:1" fill="#e0f2fa" d="M761.5 133.5h31v16h-30c.319-4.863-.014-9.53-1-14v-2Z"/><path style="opacity:1" fill="#d1ebf7" d="M163.5 148.5a2212.178 2212.178 0 0 0 133 0l16 9c-54.609.219-109.609.552-165 1 .453-.958 1.119-1.792 2-2.5a76.987 76.987 0 0 0 14-7.5ZM631.5 148.5a98.501 98.501 0 0 1 17 9 9509.032 9509.032 0 0 1-176 1 51.92 51.92 0 0 1-11-5.5 14.698 14.698 0 0 1-3-3.5 7484.99 7484.99 0 0 0 173-1Z"/><path style="opacity:1" fill="#040506" d="M468.5 169.5c34.518 11.087 64.851 29.087 91 54a212.737 212.737 0 0 1 23 26 160.054 160.054 0 0 1 13 17c2.164 5 4.831 9.667 8 14l8 16c1.155 4.297 2.821 8.297 5 12a211.844 211.844 0 0 0 7 22l3 16a243.819 243.819 0 0 1 3 18 161.24 161.24 0 0 1 1 21 84.902 84.902 0 0 1 13 .5c1.944 2.153 2.444 4.653 1.5 7.5a237.11 237.11 0 0 0-16.5 28c-.958.453-1.792 1.119-2.5 2a383.185 383.185 0 0 1-10.5 20 12.066 12.066 0 0 1-4 3 12.93 12.93 0 0 1-5-.5c-2.391-2.637-4.391-5.47-6-8.5-9.012-15.361-18.012-30.694-27-46-.322-2.222.345-4.056 2-5.5a24.935 24.935 0 0 1 7-.5h5c.597-.235.93-.735 1-1.5a675.72 675.72 0 0 0-2-17.5c-.125-5.944-1.125-11.61-3-17-.398-4.261-1.398-8.261-3-12a43.205 43.205 0 0 0-3-10 11.948 11.948 0 0 1 3-5c3.92-.457 6.42 1.209 7.5 5 7.564 21.383 10.564 43.383 9 66-2.908 1.525-6.074 2.525-9.5 3l22 36 22-36c-3.426-.475-6.592-1.475-9.5-3-3.602-95.118-47.768-163.618-132.5-205.5-79.573-31.886-154.239-23.219-224 26-29.925 22.755-52.592 51.255-68 85.5-3.661 4.327-6.661 3.993-9-1a66.134 66.134 0 0 1 5-15 53.615 53.615 0 0 0 7-12c.838-.342 1.172-1.008 1-2 3.968-5.643 7.968-11.31 12-17a266.519 266.519 0 0 1 26-29c2-1.333 3.667-3 5-5 19.286-17.255 40.952-30.922 65-41a117.419 117.419 0 0 1 23-8 109.537 109.537 0 0 1 17-5c40.065-7.983 79.732-6.316 119 5Z"/><path style="opacity:1" fill="#c4e5f5" d="M312.5 157.5a112.343 112.343 0 0 1 15 9 4803.7 4803.7 0 0 1-196 0 1445.483 1445.483 0 0 1 16-8c55.391-.448 110.391-.781 165-1Z"/><path style="opacity:1" fill="#c5e5f6" d="M6.5 149.5h30v29h-30v-29Z"/><path style="opacity:1" fill="#c5e5f5" d="M648.5 157.5a448.55 448.55 0 0 0 15 9 7571.829 7571.829 0 0 1-174 1 42.47 42.47 0 0 1-5-1.5c-3.664-3.151-7.664-5.651-12-7.5 58.395.211 117.062-.122 176-1Z"/><path style="opacity:1" fill="#c3e4f4" d="M761.5 135.5c.986 4.47 1.319 9.137 1 14h30v29h-30c.317-4.202-.017-8.202-1-12v-31Z"/><path style="opacity:1" fill="#70bfe5" d="M580.5 322.5a20.532 20.532 0 0 0-3-8c2.754-1.553 3.587-3.886 2.5-7-1.789-1.729-3.956-2.396-6.5-2l-4-8c2.587-3.652 2.42-7.319-.5-11-45.571-67.866-109.404-99.033-191.5-93.5-73.409 10.679-126.409 49.179-159 115.5a16.339 16.339 0 0 1-5-2l-12-5-4-2c15.408-34.245 38.075-62.745 68-85.5 69.761-49.219 144.427-57.886 224-26 84.732 41.882 128.898 110.382 132.5 205.5 2.908 1.525 6.074 2.525 9.5 3l-22 36-22-36c3.426-.475 6.592-1.475 9.5-3 1.564-22.617-1.436-44.617-9-66-1.08-3.791-3.58-5.457-7.5-5Z"/><path style="opacity:1" fill="#b5def2" d="M131.5 166.5a4803.7 4803.7 0 0 0 196 0c2.065.453 3.732 1.453 5 3a117.419 117.419 0 0 0-23 8c-1.556-2.488-3.889-3.488-7-3-4.477 1.625-8.811 2.959-13 4a10374.768 10374.768 0 0 0-175-1 129.805 129.805 0 0 0 17-11ZM663.5 166.5c6.535 2.456 12.535 5.789 18 10-.283.789-.783 1.456-1.5 2a7338.62 7338.62 0 0 0-171.5 0 55.355 55.355 0 0 1-19-11c58.169.332 116.169-.001 174-1Z"/><path style="opacity:1" fill="#263239" d="M309.5 177.5c-24.048 10.078-45.714 23.745-65 41-2.249.58-3.915 1.913-5 4-5.316 1.16-9.983 3.66-14 7.5a239.706 239.706 0 0 0-12 5.5v17a5731.608 5731.608 0 0 0-12 17c-.167-12.671 0-25.338.5-38a34.706 34.706 0 0 1 7.5-6.5 317.08 317.08 0 0 0 22-12.5 75.717 75.717 0 0 0 14-9c3.333-1.141 6.333-2.974 9-5.5 4.944-1.134 9.277-3.301 13-6.5a9073.762 9073.762 0 0 0 22-13c4.189-1.041 8.523-2.375 13-4 3.111-.488 5.444.512 7 3Z"/><path style="opacity:1" fill="#a8d9f1" d="M681.5 176.5c.985 4.134 1.318 8.468 1 13a2947.244 2947.244 0 0 1-153 2 532.843 532.843 0 0 0-21-13 7338.62 7338.62 0 0 1 171.5 0c.717-.544 1.217-1.211 1.5-2Z"/><path style="opacity:1" fill="#a5d8f1" d="M6.5 178.5h30v13h-30v-13Z"/><path style="opacity:1" fill="#a5d8f0" d="M114.5 177.5c58.423-.158 116.756.175 175 1a9073.762 9073.762 0 0 1-22 13h-154c.284-1.915-.049-3.581-1-5a32.462 32.462 0 0 1 .5-8c.383-.556.883-.889 1.5-1Z"/><path style="opacity:1" fill="#a5d8f1" d="M762.5 178.5h30v13h-30v-13Z"/><path style="opacity:1" fill="#96d1ee" d="M112.5 186.5c.951 1.419 1.284 3.085 1 5h154c-3.723 3.199-8.056 5.366-13 6.5-2.667 2.526-5.667 4.359-9 5.5h-132c.315-3.871-.018-7.538-1-11v-6Z"/><path style="opacity:1" fill="#98d2ef" d="M682.5 189.5v6c-.904.709-1.237 1.709-1 3h-137a54.63 54.63 0 0 1-15-7c51.217.655 102.217-.012 153-2Z"/><path style="opacity:1" fill="#040506" d="M569.5 297.5c-2.657.338-4.99-.329-7-2-33.498-54.444-82.165-85.444-146-93-9.503-.778-18.836-.778-28 0-9.1.157-18.1 1.157-27 3-6.09 1.678-12.09 3.345-18 5-54.148 17.975-93.482 52.808-118 104.5-5.335 1.167-7.669-1-7-6.5 32.591-66.321 85.591-104.821 159-115.5 82.096-5.533 145.929 25.634 191.5 93.5 2.92 3.681 3.087 7.348.5 11Z"/><path style="opacity:1" fill="#273339" d="M388.5 202.5c9.164-.778 18.497-.778 28 0a90.947 90.947 0 0 0 20 11.5c1.918 2.928 4.585 4.594 8 5a663.074 663.074 0 0 0 60 34 116.512 116.512 0 0 1 13.5 10.5c1.049-1.017 2.216-1.184 3.5-.5 1.5 2.167 3.333 4 5.5 5.5.499 5.991.666 11.991.5 18a31.447 31.447 0 0 1-5-4.5 10.098 10.098 0 0 0-6-1.5 9.86 9.86 0 0 0-1-6 104.13 104.13 0 0 0-19-10.5 147.118 147.118 0 0 0-31-18c-2.857-2.87-6.19-4.87-10-6a114.437 114.437 0 0 0-28-15c-3.065-4.125-7.065-6.791-12-8-3.83-4.163-8.497-6.829-14-8-3.857-3.262-8.19-5.428-13-6.5Z"/><path style="opacity:1" fill="#8eceed" d="M6.5 191.5h30v21a349.799 349.799 0 0 0-30 0v-21Z"/><path style="opacity:1" fill="#fafafa" d="M416.5 202.5c63.835 7.556 112.502 38.556 146 93 2.01 1.671 4.343 2.338 7 2l4 8c-2.754 1.553-3.587 3.886-2.5 7 1.789 1.729 3.956 2.396 6.5 2a20.532 20.532 0 0 1 3 8 11.948 11.948 0 0 0-3 5 43.205 43.205 0 0 1 3 10c-3.841 3-7.841 5.833-12 8.5-6.4 2.062-12.067 5.396-17 10a67.4 67.4 0 0 1-13 5.5 179.42 179.42 0 0 0-.5-7 89.978 89.978 0 0 0 15-10c1.405-3.572 1.738-7.239 1-11-6.594-17.053-15.427-32.72-26.5-47a162.597 162.597 0 0 0-.5-18c-2.167-1.5-4-3.333-5.5-5.5-1.284-.684-2.451-.517-3.5.5a116.512 116.512 0 0 0-13.5-10.5 663.074 663.074 0 0 1-60-34c-3.415-.406-6.082-2.072-8-5a90.947 90.947 0 0 1-20-11.5Z"/><path style="opacity:1" fill="#8eceed" d="M762.5 191.5h30v21c-9.646-.042-19.312-.042-29 0a111.148 111.148 0 0 1-1-21Z"/><path style="opacity:1" fill="#273339" d="M361.5 205.5a136.638 136.638 0 0 1 9 7c1.944 4.667.944 8.5-3 11.5a597.973 597.973 0 0 1-49 28l-4 4a291.997 291.997 0 0 1-27 14c-4.783 1.942-6.783 5.442-6 10.5-1.808-.009-3.475.491-5 1.5a63.707 63.707 0 0 1-7 6.5c-.166-6.675 0-13.342.5-20 2.167-1.5 4-3.333 5.5-5.5 12.352-5.326 24.019-11.993 35-20 4.871-1.741 9.204-4.408 13-8a267.16 267.16 0 0 0 32.5-17.5c.617-.949.451-1.782-.5-2.5a30.73 30.73 0 0 0-12-4.5c5.91-1.655 11.91-3.322 18-5Z"/><path style="opacity:1" fill="#88cbeb" d="M112.5 192.5c.982 3.462 1.315 7.129 1 11h132a75.717 75.717 0 0 1-14 9 54321.44 54321.44 0 0 0-117 0 345.94 345.94 0 0 0-2-8v-12Z"/><path style="opacity:1" fill="#fcfcfc" d="M343.5 210.5a30.73 30.73 0 0 1 12 4.5c.951.718 1.117 1.551.5 2.5a267.16 267.16 0 0 1-32.5 17.5c-3.796 3.592-8.129 6.259-13 8-10.981 8.007-22.648 14.674-35 20-1.5 2.167-3.333 4-5.5 5.5-.5 6.658-.666 13.325-.5 20-7.819 10.954-14.652 22.621-20.5 35a68.552 68.552 0 0 0-4.5 14c-.15 4.394 1.517 7.894 5 10.5 4.435 2.203 8.435 4.87 12 8-5.305 22.821-5.305 45.654 0 68.5-.51 1.588-1.51 2.755-3 3.5a64.77 64.77 0 0 0-11.5 6.5c-2.298 3.718-2.965 7.718-2 12 5.886 16.349 14.053 31.349 24.5 45 .328 11.845-.005 23.512-1 35-30.49-29.645-48.824-65.645-55-108v-23c4.084.457 7.917-.21 11.5-2l.5-3a5542.569 5542.569 0 0 0-12-23v-61a16.339 16.339 0 0 0 5 2c-.669 5.5 1.665 7.667 7 6.5 24.518-51.692 63.852-86.525 118-104.5Z"/><path style="opacity:1" fill="#86caeb" d="M682.5 195.5v22c-34.457.121-68.79.455-103 1-5.393-1.08-10.059-3.58-14-7.5a117.669 117.669 0 0 1-17-8 25.14 25.14 0 0 1-4-4.5h137c-.237-1.291.096-2.291 1-3Z"/><path style="opacity:1" fill="#949597" d="M244.5 218.5c-1.333 2-3 3.667-5 5v-1c1.085-2.087 2.751-3.42 5-4Z"/><path style="opacity:1" fill="#f5f5f5" d="M239.5 222.5v1a266.519 266.519 0 0 0-26 29v-17a239.706 239.706 0 0 1 12-5.5c4.017-3.84 8.684-6.34 14-7.5Z"/><path style="opacity:1" fill="#f3f3f3" d="M559.5 223.5c.397-1.025 1.063-1.192 2-.5a408.978 408.978 0 0 0 21 12.5c1.312 4.818 1.312 9.485 0 14a212.737 212.737 0 0 0-23-26Z"/><path style="opacity:1" fill="#050505" d="M516.5 280.5a10.098 10.098 0 0 1 6 1.5 31.447 31.447 0 0 0 5 4.5c11.073 14.28 19.906 29.947 26.5 47 .738 3.761.405 7.428-1 11a89.978 89.978 0 0 1-15 10c.207 2.251.373 4.585.5 7a62.314 62.314 0 0 1 3 13v35c-1.643 4.783-2.976 9.783-4 15 .51 1.588 1.51 2.755 3 3.5a45.457 45.457 0 0 1 11 6.5c3.707 5.791 3.874 11.791.5 18a222.495 222.495 0 0 1-8.5 18 11394.11 11394.11 0 0 0-16 25 68.505 68.505 0 0 1-8 4.5 8.43 8.43 0 0 1-4 .5c-4.784-1.558-9.118-3.891-13-7-1.347-.528-2.681-.695-4-.5a651.915 651.915 0 0 0-9 8.5c-1.904.238-3.238 1.238-4 3a332.737 332.737 0 0 1-30 17c-5.643 1.993-11.31 3.993-17 6a9.86 9.86 0 0 0-1 6v12c-2.517 4.095-6.184 6.428-11 7a191.388 191.388 0 0 1-55 0c-3.744-.428-6.744-2.095-9-5a59.567 59.567 0 0 1-1-14v-6a153.624 153.624 0 0 1-27-10c-1.014-1.174-2.347-1.84-4-2-1.399-1.39-3.066-2.39-5-3-1.399-1.39-3.066-2.39-5-3-.473-1.406-1.473-2.073-3-2a21.614 21.614 0 0 0-5-4 86.79 86.79 0 0 0-12-10c-.751-1.073-1.751-1.24-3-.5-4.718 3.86-10.051 6.36-16 7.5-5.131-1.461-9.131-4.461-12-9-10.447-13.651-18.614-28.651-24.5-45-.965-4.282-.298-8.282 2-12a64.77 64.77 0 0 1 11.5-6.5c1.49-.745 2.49-1.912 3-3.5-5.305-22.846-5.305-45.679 0-68.5-3.565-3.13-7.565-5.797-12-8-3.483-2.606-5.15-6.106-5-10.5a68.552 68.552 0 0 1 4.5-14c5.848-12.379 12.681-24.046 20.5-35a63.707 63.707 0 0 0 7-6.5c1.525-1.009 3.192-1.509 5-1.5 6.454 1.558 12.454 4.225 18 8a178.557 178.557 0 0 1 12-10.5c2.619-1.696 5.286-1.863 8-.5 1.322 2.302 1.322 4.635 0 7a109.399 109.399 0 0 0-16 14.5c-2 .667-4 .667-6 0-5.2-3.267-10.534-5.934-16-8-11.232 12.949-20.065 27.449-26.5 43.5-.667 1.667-.667 3.333 0 5a313.065 313.065 0 0 0 14.5 8.5c1.624 1.117 2.624 2.617 3 4.5-5.258 20.393-6.424 41.06-3.5 62a153.344 153.344 0 0 0 3.5 13.5c-.143 2.151-1.143 3.818-3 5l-13 7c-1.074.739-1.741 1.739-2 3 5.919 17.512 14.919 33.179 27 47 5.466-2.066 10.8-4.733 16-8 2-.667 4-.667 6 0 19.056 18.948 41.556 32.115 67.5 39.5.5 6.992.666 13.992.5 21a546.336 546.336 0 0 0 28 3 547.42 547.42 0 0 0 28-3c-.166-7.008 0-14.008.5-21l2.5-2.5c25.456-5.888 47.122-18.222 65-37 2-.667 4-.667 6 0 5.2 3.267 10.534 5.934 16 8 12.081-13.821 21.081-29.488 27-47-.259-1.261-.926-2.261-2-3l-13-7c-1.857-1.182-2.857-2.849-3-5 4.11-12.163 5.777-24.663 5-37.5.762-12.996-.904-25.663-5-38 .376-1.883 1.376-3.383 3-4.5l14-8a6.293 6.293 0 0 0 1-3c-6.187-17.049-15.187-32.382-27-46-5.466 2.066-10.8 4.733-16 8-2 .667-4 .667-6 0-18.348-18.846-40.348-31.513-66-38a9.454 9.454 0 0 1-1.5-2.5c-.5-6.658-.666-13.325-.5-20-18.29-3.793-36.623-3.96-55-.5a220.832 220.832 0 0 0-1.5 20.5 9.454 9.454 0 0 1-1.5 2.5 113.964 113.964 0 0 0-20 6.5c-2.192-.257-3.859-1.257-5-3-.239-1.967.094-3.801 1-5.5a52.792 52.792 0 0 1 16-5.5c-.166-6.009.001-12.009.5-18 1.5-2.833 3.667-5 6.5-6.5a201.206 201.206 0 0 1 56-1c4.703.118 8.536 1.951 11.5 5.5a254.646 254.646 0 0 1 2.5 20c22.898 6.611 42.898 18.111 60 34.5a220.975 220.975 0 0 1 18-7.5Z"/><path style="opacity:1" fill="#75c3e9" d="M682.5 217.5c-.165 3.35.002 6.683.5 10l2 2c.83 28.503.664 56.836-.5 85v-19a145.053 145.053 0 0 0-.5-17c-26 1.333-52 1.333-78 0-.995.566-1.828 1.233-2.5 2a72.236 72.236 0 0 1-8-14c.167-12.338 0-24.671-.5-37a87.025 87.025 0 0 1-15.5-11 8294.73 8294.73 0 0 1 103-1Z"/><path style="opacity:1" fill="#76c4ea" d="M36.5 212.5v67h-30v-67a349.799 349.799 0 0 1 30 0Z"/><path style="opacity:1" fill="#75c3e9" d="M112.5 204.5a345.94 345.94 0 0 1 2 8c39.021-.042 78.021-.042 117 0a317.08 317.08 0 0 1-22 12.5 34.706 34.706 0 0 0-7.5 6.5 721.824 721.824 0 0 0-.5 38c.172.992-.162 1.658-1 2a3669.606 3669.606 0 0 0-84.5-1c-1.892 2.387-3.058 5.053-3.5 8v-74Z"/><path style="opacity:1" fill="#76c3e8" d="M761.5 166.5c.983 3.798 1.317 7.798 1 12v13c-.33 7.032.003 14.032 1 21 9.688-.042 19.354-.042 29 0v67h-30c.317 4.202-.017 8.202-1 12v-125Z"/><path style="opacity:1" fill="#adadad" d="M319.5 277.5a28.449 28.449 0 0 0 8-4c6.601 3.753 9.601 1.753 9-6l8-3c1.141 1.743 2.808 2.743 5 3a113.964 113.964 0 0 1 20-6.5 9.454 9.454 0 0 0 1.5-2.5c.186-6.914.686-13.747 1.5-20.5 18.377-3.46 36.71-3.293 55 .5-.166 6.675 0 13.342.5 20 .374.916.874 1.75 1.5 2.5 25.652 6.487 47.652 19.154 66 38 2 .667 4 .667 6 0 5.2-3.267 10.534-5.934 16-8 11.813 13.618 20.813 28.951 27 46a6.293 6.293 0 0 1-1 3l-14 8c-1.624 1.117-2.624 2.617-3 4.5 4.096 12.337 5.762 25.004 5 38 .777 12.837-.89 25.337-5 37.5.143 2.151 1.143 3.818 3 5l13 7c1.074.739 1.741 1.739 2 3-5.919 17.512-14.919 33.179-27 47-5.466-2.066-10.8-4.733-16-8-2-.667-4-.667-6 0-17.878 18.778-39.544 31.112-65 37l-2.5 2.5c-.5 6.992-.666 13.992-.5 21a547.42 547.42 0 0 1-28 3 546.336 546.336 0 0 1-28-3c.166-7.008 0-14.008-.5-21-25.944-7.385-48.444-20.552-67.5-39.5-2-.667-4-.667-6 0-5.2 3.267-10.534 5.934-16 8-12.081-13.821-21.081-29.488-27-47 .259-1.261.926-2.261 2-3l13-7c1.857-1.182 2.857-2.849 3-5a153.344 153.344 0 0 1-3.5-13.5c-2.924-20.94-1.758-41.607 3.5-62-.376-1.883-1.376-3.383-3-4.5a313.065 313.065 0 0 1-14.5-8.5c-.667-1.667-.667-3.333 0-5 6.435-16.051 15.268-30.551 26.5-43.5 5.466 2.066 10.8 4.733 16 8 2 .667 4 .667 6 0a109.399 109.399 0 0 1 16-14.5c1.322-2.365 1.322-4.698 0-7Z"/><path style="opacity:1" fill="#76c2e6" d="M388.5 202.5c4.81 1.072 9.143 3.238 13 6.5 5.503 1.171 10.17 3.837 14 8 4.935 1.209 8.935 3.875 12 8a114.437 114.437 0 0 1 28 15c3.81 1.13 7.143 3.13 10 6a147.118 147.118 0 0 1 31 18 104.13 104.13 0 0 1 19 10.5 9.86 9.86 0 0 1 1 6 220.975 220.975 0 0 0-18 7.5c-17.102-16.389-37.102-27.889-60-34.5a254.646 254.646 0 0 0-2.5-20c-2.964-3.549-6.797-5.382-11.5-5.5a201.206 201.206 0 0 0-56 1c-2.833 1.5-5 3.667-6.5 6.5a162.597 162.597 0 0 0-.5 18 52.792 52.792 0 0 0-16 5.5c-.906 1.699-1.239 3.533-1 5.5l-8 3c-6.651-3.695-9.651-1.695-9 6a28.449 28.449 0 0 1-8 4c-2.714-1.363-5.381-1.196-8 .5a178.557 178.557 0 0 0-12 10.5c-5.546-3.775-11.546-6.442-18-8-.783-5.058 1.217-8.558 6-10.5a291.997 291.997 0 0 0 27-14l4-4a597.973 597.973 0 0 0 49-28c3.944-3 4.944-6.833 3-11.5a136.638 136.638 0 0 0-9-7c8.9-1.843 17.9-2.843 27-3Z"/><path style="opacity:1" fill="#090c0e" d="M336.5 267.5c.601 7.753-2.399 9.753-9 6-.651-7.695 2.349-9.695 9-6Z"/><path style="opacity:1" fill="#80cbee" d="M200.5 271.5a53.615 53.615 0 0 1-7 12c-27.226-.644-54.226.022-81 2v-7c.442-2.947 1.608-5.613 3.5-8 28.156.009 56.323.342 84.5 1Z"/><path style="opacity:1" fill="#8cd2f3" d="M193.5 283.5a66.134 66.134 0 0 0-5 15 51.22 51.22 0 0 0-2.5-4 613.153 613.153 0 0 1-70 0c-1.359.865-2.526 1.865-3.5 3v-12c26.774-1.978 53.774-2.644 81-2Z"/><path style="opacity:1" fill="#060606" d="M384.5 289.5c51.309-3.446 87.809 17.888 109.5 64 14.066 43.02 5.233 80.52-26.5 112.5-32.213 26.154-67.88 32.154-107 18-39.36-18.389-60.026-49.389-62-93 1.904-44.88 23.237-76.547 64-95a513.065 513.065 0 0 1 22-6.5Z"/><path style="opacity:1" fill="#8cd2f3" d="M684.5 295.5a3637.139 3637.139 0 0 0-71.5-1c-.717.544-1.217 1.211-1.5 2l-8-16c.672-.767 1.505-1.434 2.5-2 26 1.333 52 1.333 78 0 .499 5.657.666 11.324.5 17Z"/><path style="opacity:1" fill="#96d8f7" d="M6.5 279.5h30v29h-30v-29Z"/><path style="opacity:1" fill="#96d6f4" d="M792.5 279.5v29h-30v43c.268 1.599-.066 2.932-1 4v-64c.983-3.798 1.317-7.798 1-12h30Z"/><path style="opacity:1" fill="#ededed" d="M482.5 300.5a8.43 8.43 0 0 1 4 .5c33.99 34.781 45.157 75.948 33.5 123.5-14.99 45.992-45.823 75.159-92.5 87.5-31.68 7.29-61.68 2.957-90-13-3.024-2.475-3.69-5.475-2-9l3.5-.5c48.289 24.848 93.789 20.682 136.5-12.5 36.161-35.169 46.995-77.003 32.5-125.5-6.085-16.519-15.419-30.852-28-43-.977-3.317-.144-5.984 2.5-8Z"/><path style="opacity:1" fill="#9ddcf9" d="M188.5 298.5c2.339 4.993 5.339 5.327 9 1l4 2v8a1959.637 1959.637 0 0 0-88-1v6c-.989-5.475-1.322-11.142-1-17 .974-1.135 2.141-2.135 3.5-3a613.153 613.153 0 0 0 70 0 51.22 51.22 0 0 1 2.5 4Z"/><path style="opacity:1" fill="#263238" d="m201.5 301.5 12 5v61c-4.32-6.63-8.653-13.297-13-20 .987-4.805 1.321-9.805 1-15v-31Z"/><path style="opacity:1" fill="#9cdbf9" d="M684.5 295.5v13h-68c-2.179-3.703-3.845-7.703-5-12 .283-.789.783-1.456 1.5-2 23.786.098 47.619.432 71.5 1Z"/><path style="opacity:1" fill="#0f1010" d="M573.5 305.5c2.544-.396 4.711.271 6.5 2 1.087 3.114.254 5.447-2.5 7-2.544.396-4.711-.271-6.5-2-1.087-3.114-.254-5.447 2.5-7Z"/><path style="opacity:1" fill="#afe6fe" d="M6.5 308.5h30v20h-30v-20Z"/><path style="opacity:1" fill="#abe4fd" d="M201.5 309.5v13c-.958-.453-1.792-1.119-2.5-2h-68c-.717.544-1.217 1.211-1.5 2-4.81-3.552-10.143-6.218-16-8v-6c29.407-.325 58.74.009 88 1Z"/><path style="opacity:1" fill="#a9e2fb" d="M458.5 321.5a2673.9 2673.9 0 0 0-118 0c28.062-23.553 59.395-28.719 94-15.5 8.982 3.848 16.982 9.015 24 15.5Z"/><path style="opacity:1" fill="#ade4fc" d="M616.5 308.5h68v6a8.43 8.43 0 0 0-4 .5 875.732 875.732 0 0 1-23 14.5c-5.49-.666-11.157-.999-17-1-6.042.004-11.708.671-17 2a211.844 211.844 0 0 1-7-22Z"/><path style="opacity:1" fill="#afe6fe" d="M792.5 308.5v20h-30v-20h30Z"/><path style="opacity:1" fill="#b9ebfe" d="M201.5 322.5v10a380.997 380.997 0 0 0-55 0l-17-10c.283-.789.783-1.456 1.5-2h68c.708.881 1.542 1.547 2.5 2Z"/><path style="opacity:1" fill="#b7eafd" d="M458.5 321.5c3.284 1.617 5.951 3.95 8 7a6477.798 6477.798 0 0 0-134 0c2.049-3.05 4.716-5.383 8-7a2673.9 2673.9 0 0 1 118 0Z"/><path style="opacity:1" fill="#c4effb" d="M201.5 332.5c.321 5.195-.013 10.195-1 15a85.674 85.674 0 0 0-5.5-10c-3.667-5.333-7.333-5.333-11 0a106.482 106.482 0 0 1-7.5 12c-9.99-5.65-19.99-11.316-30-17a380.997 380.997 0 0 1 55 0Z"/><path style="opacity:1" fill="#c3f0fe" d="M466.5 328.5a32.728 32.728 0 0 1 8 11 8741.407 8741.407 0 0 0-150 0 32.728 32.728 0 0 1 8-11c44.769-.462 89.436-.462 134 0Z"/><path style="opacity:.999" fill="#060302" d="M200.5 347.5c4.347 6.703 8.68 13.37 13 20a5542.569 5542.569 0 0 1 12 23l-.5 3c-3.583 1.79-7.416 2.457-11.5 2-1.309 2.071-1.975 4.571-2 7.5.068 5.386.735 10.553 2 15.5 6.176 42.355 24.51 78.355 55 108a103.042 103.042 0 0 0 13 11c11.821 9.752 24.821 17.752 39 24a87.807 87.807 0 0 0 17 7c40.118 14.252 80.452 14.585 121 1a132.485 132.485 0 0 0 20-8c14.687-6.334 28.021-14.668 40-25 12.746-10.078 23.746-21.745 33-35a58.373 58.373 0 0 0 8-12c4.678-6.016 8.345-12.683 11-20 1.329-2.98 3.663-4.313 7-4l3 2v5c-26.467 55.405-69.134 91.905-128 109.5-79.854 18.626-147.687-1.874-203.5-61.5-32.334-38.331-48.001-82.664-47-133 2.908-1.525 6.074-2.525 9.5-3l-22-36-22 36a34.251 34.251 0 0 0 8 1.5l2.5 2.5c-.232 31.28 5.768 61.28 18 90 .833 2.671.333 5.004-1.5 7-3.288.484-5.955-.516-8-3a234.426 234.426 0 0 1-8-23 176.916 176.916 0 0 0-5-18c.237-1.291-.096-2.291-1-3-.48-5.03-1.147-10.03-2-15a158.207 158.207 0 0 1-2-28 72.367 72.367 0 0 1-12-.5c-2.879-1.666-3.712-4.166-2.5-7.5a601.927 601.927 0 0 0 16.5-28 37.79 37.79 0 0 0 6-10 106.482 106.482 0 0 0 7.5-12c3.667-5.333 7.333-5.333 11 0a85.674 85.674 0 0 1 5.5 10Z"/><path style="opacity:1" fill="#c2edfa" d="M657.5 329.5a687.464 687.464 0 0 1-31 17l-3-16c5.292-1.329 10.958-1.996 17-2 5.843.001 11.51.334 17 1Z"/><path style="opacity:1" fill="#273339" d="M580.5 337.5c1.602 3.739 2.602 7.739 3 12a371.57 371.57 0 0 0-20 13.5l-12 5a32.86 32.86 0 0 1-10 6.5 62.314 62.314 0 0 0-3-13 67.4 67.4 0 0 0 13-5.5c4.933-4.604 10.6-7.938 17-10 4.159-2.667 8.159-5.5 12-8.5Z"/><path style="opacity:1" fill="#cef5ff" d="M6.5 328.5h30v23h-30v-23ZM762.5 328.5h30v23h-30v-23Z"/><path style="opacity:1" fill="#d3f7fe" d="M474.5 339.5c3.339 3.335 5.672 7.335 7 12a5146.897 5146.897 0 0 0-164 0c1.328-4.665 3.661-8.665 7-12 49.881-.429 99.881-.429 150 0Z"/><path style="opacity:1" fill="#f85b3c" d="M580.5 472.5a290.332 290.332 0 0 1 21 9c-31.743 66.225-83.409 108.058-155 125.5-88.702 15.661-162.202-10.506-220.5-78.5a511.113 511.113 0 0 1-12.5-17.5c-2.177-1.202-4.511-1.702-7-1.5a36.16 36.16 0 0 0-4-7c2.987-1.608 3.654-3.942 2-7-2.01-1.671-4.343-2.338-7-2a20.532 20.532 0 0 1-3-8c1.833-1.996 2.333-4.329 1.5-7-12.232-28.72-18.232-58.72-18-90l-2.5-2.5a34.251 34.251 0 0 1-8-1.5l22-36 22 36c-3.426.475-6.592 1.475-9.5 3-1.001 50.336 14.666 94.669 47 133 55.813 59.626 123.646 80.126 203.5 61.5 58.866-17.595 101.533-54.095 128-109.5Z"/><path style="opacity:1" fill="#e3fcfd" d="M6.5 351.5h30a70.523 70.523 0 0 0 1.5 9l9.5 5.5c1.617 3.525 4.284 5.359 8 5.5-12.961-1.253-25.294-1.253-37 0a46.62 46.62 0 0 0-12-6v-14Z"/><path style="opacity:1" fill="#e2fdfe" d="M481.5 351.5c3.157 4.457 5.157 9.457 6 15-58.56-.454-117.227-.454-176 0 .843-5.543 2.843-10.543 6-15a5146.897 5146.897 0 0 1 164 0Z"/><path style="opacity:1" fill="#e3fcfd" d="M762.5 351.5h30v14c-3.013-.128-5.513.872-7.5 3-2.411-1.653-3.578-.987-3.5 2-2.196.743-4.196 1.076-6 1a510.563 510.563 0 0 1-34-1 302.779 302.779 0 0 1 18-8.5c1.729-1.789 2.396-3.956 2-6.5.934-1.068 1.268-2.401 1-4Z"/><path style="opacity:1" fill="#edfdfd" d="M487.5 366.5a61.362 61.362 0 0 1 3 13c-.974-1.135-2.141-2.135-3.5-3H311a81.316 81.316 0 0 1-2.5 3 61.362 61.362 0 0 1 3-13c58.773-.454 117.44-.454 176 0Z"/><path style="opacity:1" fill="#eafafa" d="M583.5 349.5c1.875 5.39 2.875 11.056 3 17 .203 1.89-.463 3.39-2 4.5a2109.378 2109.378 0 0 0-41 23.5l-2-14v-6a32.86 32.86 0 0 0 10-6.5l12-5a371.57 371.57 0 0 1 20-13.5Z"/><path style="opacity:1" fill="#283439" d="M586.5 366.5a675.72 675.72 0 0 1 2 17.5c-.07.765-.403 1.265-1 1.5-1.538-2.548-3.204-2.548-5 0a24.935 24.935 0 0 0-7 .5c-1.655 1.444-2.322 3.278-2 5.5l-21 10.5a128.868 128.868 0 0 0-11 7.5v-14c.992.172 1.658-.162 2-1a2109.378 2109.378 0 0 1 41-23.5c1.537-1.11 2.203-2.61 2-4.5Z"/><path style="opacity:1" fill="#f6fefe" d="M490.5 379.5v8h-182v-8a81.316 81.316 0 0 0 2.5-3h176c1.359.865 2.526 1.865 3.5 3Z"/><path style="opacity:1" fill="#edeeef" d="M587.5 385.5h-5c1.796-2.548 3.462-2.548 5 0Z"/><path style="opacity:1" fill="#8f8f8f" d="m541.5 380.5 2 14c-.342.838-1.008 1.172-2 1v-15Z"/><path style="opacity:1" fill="#f9fbfb" d="M55.5 371.5a24128.803 24128.803 0 0 0 64 37c-11.488.995-23.155 1.328-35 1-.754-1.966-1.921-2.3-3.5-1-1.667-1-3-2.333-4-4l-1 1a4.932 4.932 0 0 1-.5-3h-6v-3h-5v-3a544.412 544.412 0 0 1-29-14v-3a58.967 58.967 0 0 1-11-3v-3c-2.582.475-4.582-.192-6-2 11.706-1.253 24.039-1.253 37 0Z"/><path style="opacity:1" fill="#fefefe" d="M308.5 387.5h182v12c-.904.709-1.237 1.709-1 3h-180c.237-1.291-.096-2.291-1-3v-12Z"/><path style="opacity:1" fill="#f9fbfb" d="M741.5 370.5a510.563 510.563 0 0 0 34 1c-3.195 1.676-6.028 4.009-8.5 7l-1-1c-1.049 1.607-2.549 2.273-4.5 2v3c-3.937.204-7.604 1.204-11 3 .381 2.442-.286 3.109-2 2-.886.825-1.219 1.825-1 3h-6v3a12.93 12.93 0 0 0-5 .5c-1.079 2.043-2.746 3.376-5 4l1 1a12.93 12.93 0 0 1-5 .5v3a9.86 9.86 0 0 0-6 1c-5.275 3.112-9.942 6.112-14 9a440.931 440.931 0 0 0-37-1 2083.967 2083.967 0 0 0 71-41Z"/><path style="opacity:1" fill="#fbfbfb" d="M573.5 391.5c8.988 15.306 17.988 30.639 27 46-12.959 8.82-26.625 16.654-41 23.5l-4 4a115.356 115.356 0 0 1-12 5.5 222.495 222.495 0 0 0 8.5-18c3.374-6.209 3.207-12.209-.5-18a45.457 45.457 0 0 0-11-6.5c-1.49-.745-2.49-1.912-3-3.5 1.024-5.217 2.357-10.217 4-15a128.868 128.868 0 0 1 11-7.5l21-10.5Z"/><path style="opacity:1" fill="#243036" d="M213.5 395.5v23c-1.265-4.947-1.932-10.114-2-15.5.025-2.929.691-5.429 2-7.5Z"/><path style="opacity:1" fill="#fef7f5" d="M308.5 399.5c.904.709 1.237 1.709 1 3h180c-.237-1.291.096-2.291 1-3a188.78 188.78 0 0 1-2 12c-59.194.387-118.527.387-178 0a188.78 188.78 0 0 1-2-12Z"/><path style="opacity:1" fill="#fdf0ec" d="M119.5 408.5a149.145 149.145 0 0 1 18 10c-11.154.995-22.488 1.328-34 1h-5v-3a27.267 27.267 0 0 0-9-3v-3c-1.915.284-3.581-.049-5-1 11.845.328 23.512-.005 35-1Z"/><path style="opacity:1" fill="#feece6" d="M310.5 411.5c59.473.387 118.806.387 178 0-1.099 4.644-2.766 8.978-5 13a5203.873 5203.873 0 0 0-168 0c-2.234-4.022-3.901-8.356-5-13Z"/><path style="opacity:1" fill="#fde8e2" d="M670.5 411.5c12.417-.183 24.75.151 37 1-1.765.961-3.765 1.295-6 1v3h-5v3c-2.185.388-4.018 1.388-5.5 3-2.278-1.12-3.778-.287-4.5 2.5a65.064 65.064 0 0 0-8 2.5c-10.846.328-21.513-.006-32-1 7.996-5 15.996-10 24-15Z"/><path style="opacity:1" fill="#fee3db" d="M483.5 424.5a29.417 29.417 0 0 1-2 7h-1a2.428 2.428 0 0 0-.5-2c-52.893.453-105.893.453-159 0-.995.566-1.828 1.233-2.5 2-1.793-1.926-2.793-4.259-3-7a5203.873 5203.873 0 0 1 168 0Z"/><path style="opacity:1" fill="#fde0d7" d="M137.5 418.5a2435.114 2435.114 0 0 0 26 15c-11.154.995-22.488 1.328-34 1-1.765-.961-3.765-1.295-6-1v-3h-5v-3c-2.921.354-5.254-.646-7-3-1.714 1.109-2.381.442-2-2a12.93 12.93 0 0 1-5-.5c-.752-.671-1.086-1.504-1-2.5 11.512.328 22.846-.005 34-1Z"/><path style="opacity:1" fill="#fdddd3" d="M646.5 426.5c10.487.994 21.154 1.328 32 1-1.17 1.779-2.836 2.779-5 3v3c-2.235-.295-4.235.039-6 1-11.179.328-22.179-.005-33-1 3.529-3.207 7.529-5.54 12-7Z"/><path style="opacity:1" fill="#2b363c" d="M480.5 431.5h1c-4.783 10.116-11.45 18.783-20 26-.06-.543-.393-.876-1-1a237.584 237.584 0 0 1-29 15.5 97.22 97.22 0 0 1-10 7.5c-6.836 2.375-14.003 3.375-21.5 3-9.212.28-18.045-1.053-26.5-4-1.481-2.293-3.814-4.46-7-6.5l-4-1a4098.214 4098.214 0 0 0-20-12c-1.249-.74-2.249-.573-3 .5-8.487-7.485-15.487-16.151-21-26 .617-.111 1.117-.444 1.5-1a87.59 87.59 0 0 1 9.5 6 428.737 428.737 0 0 1 17 9 81.989 81.989 0 0 0 16 9 14.698 14.698 0 0 0 3 3.5 92.36 92.36 0 0 0 11 4.5 510.768 510.768 0 0 0 22.5 13 175.866 175.866 0 0 0 18.5-9.5c1.231-1.405 2.564-2.571 4-3.5a81.543 81.543 0 0 1 10-4.5c1.231-1.405 2.564-2.571 4-3.5a98.624 98.624 0 0 1 10-6.5c1.284-.684 2.451-.517 3.5.5a10.515 10.515 0 0 0 2.5-3 4.934 4.934 0 0 0 3-.5c2.508-3.042 5.508-5.376 9-7 1.882-.198 3.548-.698 5-1.5a54.032 54.032 0 0 1 12-7Z"/><path style="opacity:1" fill="#fed8ce" d="M480.5 431.5a54.032 54.032 0 0 0-12 7h-139a87.59 87.59 0 0 0-9.5-6c-.383.556-.883.889-1.5 1v-2c.672-.767 1.505-1.434 2.5-2 53.107.453 106.107.453 159 0 .464.594.631 1.261.5 2Z"/><path style="opacity:1" fill="#283339" d="M600.5 437.5c1.609 3.03 3.609 5.863 6 8.5a12.93 12.93 0 0 0 5 .5 59.707 59.707 0 0 0-18 10 119.574 119.574 0 0 0-12 5.5c-1.593.949-2.926 2.115-4 3.5-3.337-.313-5.671 1.02-7 4a883.77 883.77 0 0 0-35 20 35.061 35.061 0 0 0-8 6 11394.11 11394.11 0 0 1 16-25 115.356 115.356 0 0 0 12-5.5l4-4c14.375-6.846 28.041-14.68 41-23.5Z"/><path style="opacity:1" fill="#fdd1c6" d="M163.5 433.5a35.296 35.296 0 0 1 9 5c.904.709 1.237 1.709 1 3-9.611 1.974-19.611 2.641-30 2-1.419-.951-3.085-1.284-5-1v-3h-6v-3c-1.679.215-2.679-.452-3-2 11.512.328 22.846-.005 34-1ZM634.5 433.5c10.821.995 21.821 1.328 33 1-1.418 1.808-3.418 2.475-6 2v3c-1.788-.285-3.455.048-5 1 1.129 2.029.629 2.363-1.5 1-.717.544-1.217 1.211-1.5 2-11.845.328-23.512-.005-35-1 1.074-1.385 2.407-2.551 4-3.5a102.415 102.415 0 0 1 12-5.5Z"/><path style="opacity:1" fill="#f9c2b4" d="M173.5 441.5a176.916 176.916 0 0 1 5 18c-6.946-3.809-13.946-7.642-21-11.5-3.763.113-6.93-1.053-9.5-3.5l-1 1a19.602 19.602 0 0 1-3.5-2c10.389.641 20.389-.026 30-2Z"/><path style="opacity:1" fill="#feccbf" d="M329.5 438.5h139c-1.452.802-3.118 1.302-5 1.5-3.492 1.624-6.492 3.958-9 7a4.934 4.934 0 0 1-3 .5h-105a428.737 428.737 0 0 0-17-9Z"/><path style="opacity:1" fill="#fdbfaf" d="M346.5 447.5h105a10.515 10.515 0 0 1-2.5 3c-1.049-1.017-2.216-1.184-3.5-.5a98.624 98.624 0 0 0-10 6.5h-73a81.989 81.989 0 0 1-16-9ZM618.5 442.5c11.488.995 23.155 1.328 35 1-.672.767-1.505 1.434-2.5 2-1.011-.837-2.178-1.17-3.5-1v3c-3.096-.593-5.429.407-7 3a47.25 47.25 0 0 1-7 3v3h-40a59.707 59.707 0 0 1 18-10 12.066 12.066 0 0 0 4-3 5.727 5.727 0 0 0 3-1Z"/><path style="opacity:1" fill="#fcb3a3" d="M362.5 456.5h73c-1.436.929-2.769 2.095-4 3.5a81.543 81.543 0 0 0-10 4.5 2.428 2.428 0 0 0-.5-2h-44a2.428 2.428 0 0 0-.5 2 92.36 92.36 0 0 1-11-4.5 14.698 14.698 0 0 1-3-3.5Z"/><path style="opacity:1" fill="#e9eaea" d="M461.5 457.5c-11.249 10.961-24.583 18.295-40 22a97.22 97.22 0 0 0 10-7.5 237.584 237.584 0 0 0 29-15.5c.607.124.94.457 1 1Z"/><path style="opacity:1" fill="#fcaf9e" d="M593.5 456.5h34v3c-1.788-.285-3.455.048-5 1-4.213 1.968-7.88 3.968-11 6-10.514-.328-20.847.006-31 1l-3-2c1.074-1.385 2.407-2.551 4-3.5a119.574 119.574 0 0 1 12-5.5Z"/><path style="opacity:1" fill="#dfe1e1" d="M373.5 478.5c-12.559-4.276-23.892-10.609-34-19 .751-1.073 1.751-1.24 3-.5 6.64 3.958 13.306 7.958 20 12l4 1c3.186 2.04 5.519 4.207 7 6.5Z"/><path style="opacity:1" fill="#faa591" d="M421.5 464.5c-1.436.929-2.769 2.095-4 3.5a175.866 175.866 0 0 1-18.5 9.5 510.768 510.768 0 0 1-22.5-13 2.428 2.428 0 0 1 .5-2h44c.464.594.631 1.261.5 2Z"/><path style="opacity:1" fill="#eceded" d="M311.5 470.5a18.453 18.453 0 0 1 6 .5c4.118 3.776 7.784 7.776 11 12-1.07 4.206-3.737 5.539-8 4a70.588 70.588 0 0 1-10.5-9.5c-.609-2.565-.109-4.899 1.5-7Z"/><path style="opacity:1" fill="#fc9c88" d="M611.5 466.5c-1.068.934-2.401 1.268-4 1v11c-2.589-.039-4.589.961-6 3a290.332 290.332 0 0 0-21-9v-5c10.153-.994 20.486-1.328 31-1Z"/><path style="opacity:.999" fill="#080403" d="M607.5 478.5c2.071 1.072 3.405 2.739 4 5a54.583 54.583 0 0 1-4 9l-12 22a160.054 160.054 0 0 1-13 17 286.269 286.269 0 0 1-23 26.5 318.472 318.472 0 0 1-32 25.5 62.722 62.722 0 0 0-9 6 417.484 417.484 0 0 1-43 20c-50.677 15.949-101.344 15.949-152 0a302.216 302.216 0 0 1-42-20 2117.87 2117.87 0 0 0-12-7 343.291 343.291 0 0 1-30-24.5 357.334 357.334 0 0 1-26-29.5 129.78 129.78 0 0 1-7.5-11c-.602-2.721-.435-5.387.5-8 2.489-.202 4.823.298 7 1.5a511.113 511.113 0 0 0 12.5 17.5c58.298 67.994 131.798 94.161 220.5 78.5 71.591-17.442 123.257-59.275 155-125.5 1.411-2.039 3.411-3.039 6-3Z"/><path style="opacity:1" fill="#f88872" d="M570.5 469.5c-2.655 7.317-6.322 13.984-11 20-8.219.448-16.219.448-24 0a883.77 883.77 0 0 1 35-20Z"/><path style="opacity:1" fill="#fb8168" d="M186.5 482.5c2.045 2.484 4.712 3.484 8 3 .44 2.88 1.44 5.546 3 8-.333 1-1 1.667-2 2-3.176-.392-6.176-.392-9 0v-13Z"/><path style="opacity:1" fill="#253137" d="M269.5 491.5c2.869 4.539 6.869 7.539 12 9v37a103.042 103.042 0 0 1-13-11c.995-11.488 1.328-23.155 1-35Z"/><path style="opacity:1" fill="#100603" d="M197.5 493.5c2.657-.338 4.99.329 7 2 1.654 3.058.987 5.392-2 7h-4c-2.592-1.536-3.592-3.869-3-7 1-.333 1.667-1 2-2Z"/><path style="opacity:1" fill="#283238" d="M300.5 493.5a86.79 86.79 0 0 1 12 10v3a20.69 20.69 0 0 1 5 1c.473 1.406 1.473 2.073 3 2 .901 2.227 2.567 3.227 5 3 .901 2.227 2.567 3.227 5 3 .787 1.604 2.12 2.271 4 2 3.962 3.839 8.629 6.672 14 8.5 3.794 3.52 8.127 6.02 13 7.5a59.567 59.567 0 0 0 1 14c-6.613-2.731-12.78-6.397-18.5-11-1.049 1.017-2.216 1.184-3.5.5-1.333-2-3-3.667-5-5a647.922 647.922 0 0 1-31-17.5 30.233 30.233 0 0 1-3.5-3 162.597 162.597 0 0 1-.5-18Z"/><path style="opacity:1" fill="#eaeaeb" d="M502.5 493.5c.086.996-.248 1.829-1 2.5-3.415.406-6.082 2.072-8 5a8.43 8.43 0 0 1-4 .5 651.915 651.915 0 0 1 9-8.5c1.319-.195 2.653-.028 4 .5Z"/><path style="opacity:1" fill="#293339" d="M502.5 493.5c3.882 3.109 8.216 5.442 13 7l-1 2c-6.843 2.001-12.843 5.501-18 10.5a498.573 498.573 0 0 1-14 6.5 30.233 30.233 0 0 1-3 3.5l-10 4-4 4a784.53 784.53 0 0 0-28 14.5v-12c6.528-4.188 12.528-8.188 18-12a332.737 332.737 0 0 0 30-17c1.904-.238 3.238-1.238 4-3a8.43 8.43 0 0 0 4-.5c1.918-2.928 4.585-4.594 8-5 .752-.671 1.086-1.504 1-2.5Z"/><path style="opacity:1" fill="#fa795f" d="M535.5 489.5c7.781.448 15.781.448 24 0a58.373 58.373 0 0 1-8 12c-2.014-.108-3.68.558-5 2a2.428 2.428 0 0 0-.5-2c-10.013.968-20.513 1.301-31.5 1l1-2a8.43 8.43 0 0 0 4-.5 68.505 68.505 0 0 0 8-4.5 35.061 35.061 0 0 1 8-6Z"/><path style="opacity:1" fill="#283237" d="M551.5 501.5c-9.254 13.255-20.254 24.922-33 35v-16a294.176 294.176 0 0 0 28-17c1.32-1.442 2.986-2.108 5-2Z"/><path style="opacity:1" fill="#b7b9ba" d="M489.5 501.5c-.762 1.762-2.096 2.762-4 3 .762-1.762 2.096-2.762 4-3Z"/><path style="opacity:1" fill="#273339" d="M198.5 502.5h4a36.16 36.16 0 0 1 4 7c-.935 2.613-1.102 5.279-.5 8a129.78 129.78 0 0 0 7.5 11c-.167 38.001 0 76.001.5 114a46.99 46.99 0 0 0 10.5 5.5l4 4a90.42 90.42 0 0 0 14 6c3.492 1.624 6.492 3.958 9 7a169.642 169.642 0 0 1 28 14c4.933 4.604 10.6 7.938 17 10 3.574 3.951 7.907 6.618 13 8 6.962 5.648 14.628 9.981 23 13 1.918 2.928 4.585 4.594 8 5a78.488 78.488 0 0 0 23 13c3.671 4.417 8.338 7.083 14 8 2.457 3.058 5.457 5.392 9 7a97.288 97.288 0 0 1 12 5.5 7683.65 7683.65 0 0 0 184-106c1.33-37.164 1.33-74.164 0-111a160.054 160.054 0 0 0 13-17v124a8.43 8.43 0 0 1-.5 4 104.816 104.816 0 0 1-5.5 9 82.928 82.928 0 0 0-9 6.5l-10 4a25.14 25.14 0 0 0-4 4.5 4.934 4.934 0 0 0-3 .5c-3.346 3.215-7.013 5.715-11 7.5a4.934 4.934 0 0 0-3 .5 472.158 472.158 0 0 1-24 14.5 507.946 507.946 0 0 0-54 31.5 145.581 145.581 0 0 1-18 9c-3.25 3.637-7.25 5.97-12 7-3.492 1.624-6.492 3.958-9 7-6.761 1.869-12.761 5.202-18 10-5.111 2.701-10.611 4.534-16.5 5.5a66.364 66.364 0 0 1-9.5-2.5 35.157 35.157 0 0 0-10-5c-3.796-3.592-8.129-6.259-13-8a279.412 279.412 0 0 0-19-12c-3.959.349-6.626-1.317-8-5-8.36-3.016-16.027-7.349-23-13l-4-1a768.851 768.851 0 0 1-28-16.5 107.542 107.542 0 0 0-23-13 321.185 321.185 0 0 0-21-13 505.266 505.266 0 0 1-22-12c-2.619-2.085-5.619-3.585-9-4.5-.881-.708-1.547-1.542-2-2.5-1.591-.719-3.091-1.719-4.5-3a60.931 60.931 0 0 1-.5-11v-134c-1.291.237-2.291-.096-3-1Z"/><path style="opacity:1" fill="#dddede" d="M312.5 503.5a21.614 21.614 0 0 1 5 4 20.69 20.69 0 0 0-5-1v-3Z"/><path style="opacity:1" fill="#fd6f52" d="M195.5 495.5c-.592 3.131.408 5.464 3 7 .709.904 1.709 1.237 3 1v10a61.281 61.281 0 0 1-15 1v-19c2.824-.392 5.824-.392 9 0Z"/><path style="opacity:1" fill="#fc7053" d="M300.5 493.5c-.166 6.009.001 12.009.5 18a30.233 30.233 0 0 0 3.5 3 139.2 139.2 0 0 1-23-1v-13c5.949-1.14 11.282-3.64 16-7.5 1.249-.74 2.249-.573 3 .5Z"/><path style="opacity:1" fill="#a9abac" d="M317.5 507.5c1.527-.073 2.527.594 3 2-1.527.073-2.527-.594-3-2Z"/><path style="opacity:1" fill="#cfd0d0" d="M320.5 509.5c1.934.61 3.601 1.61 5 3-2.433.227-4.099-.773-5-3Z"/><path style="opacity:1" fill="#bbbcbd" d="M325.5 512.5c1.934.61 3.601 1.61 5 3-2.433.227-4.099-.773-5-3Z"/><path style="opacity:1" fill="#f9684b" d="M546.5 503.5a294.176 294.176 0 0 1-28 17 1012.267 1012.267 0 0 1-36-1 498.573 498.573 0 0 0 14-6.5c5.157-4.999 11.157-8.499 18-10.5 10.987.301 21.487-.032 31.5-1 .464.594.631 1.261.5 2Z"/><path style="opacity:1" fill="#b1b3b4" d="M330.5 515.5c1.653.16 2.986.826 4 2-1.88.271-3.213-.396-4-2Z"/><path style="opacity:1" fill="#fb6748" d="M607.5 492.5c2.217 11.669 3.217 23.669 3 36h-14v33h14v18h-15v-65l12-22Z"/><path style="opacity:1" fill="#e5e5e6" d="M334.5 517.5a153.624 153.624 0 0 0 27 10v6c-4.873-1.48-9.206-3.98-13-7.5-5.371-1.828-10.038-4.661-14-8.5Z"/><path style="opacity:1" fill="#dededf" d="M455.5 521.5c-5.472 3.812-11.472 7.812-18 12a9.86 9.86 0 0 1 1-6c5.69-2.007 11.357-4.007 17-6Z"/><path style="opacity:1" fill="#fc6040" d="M201.5 513.5v56a61.281 61.281 0 0 0-15-1v-54a61.281 61.281 0 0 0 15-1Z"/><path style="opacity:1" fill="#fa5e3f" d="M281.5 513.5a139.2 139.2 0 0 0 23 1 647.922 647.922 0 0 0 31 17.5c2 1.333 3.667 3 5 5 1.284.684 2.451.517 3.5-.5 5.72 4.603 11.887 8.269 18.5 11 2.256 2.905 5.256 4.572 9 5 1.849 3.677 4.849 5.51 9 5.5a10.515 10.515 0 0 0 3 2.5 992.742 992.742 0 0 1-63 1c-14.179-6.248-27.179-14.248-39-24v-24Z"/><path style="opacity:1" fill="#fa5e3e" d="M482.5 519.5c12.302.555 24.302.889 36 1v16c-11.979 10.332-25.313 18.666-40 25-21.84.331-43.506-.003-65-1 3.875-3.568 8.208-6.235 13-8 4.816-.572 8.483-2.905 11-7a784.53 784.53 0 0 1 28-14.5l4-4 10-4a30.233 30.233 0 0 0 3-3.5Z"/><path style="opacity:1" fill="#fc5e3e" d="M610.5 528.5v33h-14v-33h14Z"/><path style="opacity:1" fill="#fdfdfd" d="M213.5 528.5a357.334 357.334 0 0 0 26 29.5 343.291 343.291 0 0 0 30 24.5c-.166 9.006 0 18.006.5 27 5.97 6.53 13.137 11.03 21.5 13.5a27.816 27.816 0 0 1 8 6 420.445 420.445 0 0 0 32 17c3.705 4.342 8.372 7.009 14 8a643.917 643.917 0 0 0 29 18c2.861.54 5.528 1.54 8 3l11 7c4 .667 8 .667 12 0 6.962-5.648 14.628-9.981 23-13a679.07 679.07 0 0 0 23-15l22-11a83.449 83.449 0 0 1 24-13c3.391-3.687 7.391-6.354 12-8a142.458 142.458 0 0 0 16-10l1.5-1.5c.5-8.994.666-17.994.5-27a318.472 318.472 0 0 0 32-25.5 286.269 286.269 0 0 0 23-26.5c1.33 36.836 1.33 73.836 0 111a7683.65 7683.65 0 0 1-184 106 97.288 97.288 0 0 0-12-5.5c-3.543-1.608-6.543-3.942-9-7-5.662-.917-10.329-3.583-14-8a78.488 78.488 0 0 1-23-13c-3.415-.406-6.082-2.072-8-5-8.372-3.019-16.038-7.352-23-13-5.093-1.382-9.426-4.049-13-8-6.4-2.062-12.067-5.396-17-10a169.642 169.642 0 0 0-28-14c-2.508-3.042-5.508-5.376-9-7a90.42 90.42 0 0 1-14-6l-4-4a46.99 46.99 0 0 1-10.5-5.5 6494.98 6494.98 0 0 1-.5-114Z"/><path style="opacity:1" fill="#273137" d="M371.5 552.5a191.388 191.388 0 0 0 55 0c-4.792 1.765-9.125 4.432-13 8-9.985 6.624-19.985 6.624-30 0a10.515 10.515 0 0 1-3-2.5c-4.151.01-7.151-1.823-9-5.5Z"/><path style="opacity:1" fill="#fa6547" d="M383.5 560.5c10.015 6.624 20.015 6.624 30 0 21.494.997 43.16 1.331 65 1a132.485 132.485 0 0 1-20 8 2.428 2.428 0 0 0-.5-2c-1.66-.176-3.326.491-5 2-1.482-2.281-3.149-2.281-5 0-1.482-2.281-3.149-2.281-5 0-1.482-2.281-3.149-2.281-5 0-1.482-2.281-3.149-2.281-5 0-1.482-2.281-3.149-2.281-5 0-1.482-2.281-3.149-2.281-5 0-1.482-2.281-3.149-2.281-5 0-1.482-2.281-3.149-2.281-5 0-1.482-2.281-3.149-2.281-5 0-1.482-2.281-3.149-2.281-5 0-1-1.333-2-1.333-3 0-1.333-2.667-2.667-2.667-4 0l-2-2a805.706 805.706 0 0 1-56.5 1 87.807 87.807 0 0 1-17-7 992.742 992.742 0 0 0 63-1Z"/><path style="opacity:1" fill="#f4684b" d="M458.5 569.5c-40.548 13.585-80.882 13.252-121-1 18.91.326 37.743-.007 56.5-1l2 2c1.333-2.667 2.667-2.667 4 0 1-1.333 2-1.333 3 0 1.851-2.281 3.518-2.281 5 0 1.851-2.281 3.518-2.281 5 0 1.851-2.281 3.518-2.281 5 0 1.851-2.281 3.518-2.281 5 0 1.851-2.281 3.518-2.281 5 0 1.851-2.281 3.518-2.281 5 0 1.851-2.281 3.518-2.281 5 0 1.851-2.281 3.518-2.281 5 0 1.851-2.281 3.518-2.281 5 0 1.851-2.281 3.518-2.281 5 0 1.674-1.509 3.34-2.176 5-2 .464.594.631 1.261.5 2Z"/><path style="opacity:1" fill="#fd755a" d="M186.5 568.5a61.281 61.281 0 0 1 15 1v28a61.281 61.281 0 0 0-15-1v-28Z"/><path style="opacity:1" fill="#273339" d="M269.5 582.5a2117.87 2117.87 0 0 1 12 7v16a12.93 12.93 0 0 1 5 .5c1.614 2.127 3.614 3.627 6 4.5a572.1 572.1 0 0 1 23 13 34.406 34.406 0 0 0 8 5 114.568 114.568 0 0 0 16 8 71.12 71.12 0 0 0 12 8 49.781 49.781 0 0 1 11 7.5 114.09 114.09 0 0 0 12 5.5 152.342 152.342 0 0 0 25.5 14 163.132 163.132 0 0 1 23.5-14 101.201 101.201 0 0 1 11-5.5 89.598 89.598 0 0 1 10-7.5c5.097-1.384 9.43-4.051 13-8 6.021-1.369 11.354-4.036 16-8a47.943 47.943 0 0 0 10-6 222.389 222.389 0 0 0 23-13 19.552 19.552 0 0 0 4-3.5c2.619-.151 4.953-.985 7-2.5a49.87 49.87 0 0 0 1-14 62.722 62.722 0 0 1 9-6c.166 9.006 0 18.006-.5 27l-1.5 1.5a142.458 142.458 0 0 1-16 10c-4.609 1.646-8.609 4.313-12 8a83.449 83.449 0 0 0-24 13l-22 11a679.07 679.07 0 0 1-23 15c-8.372 3.019-16.038 7.352-23 13-4 .667-8 .667-12 0l-11-7a24.569 24.569 0 0 0-8-3 643.917 643.917 0 0 1-29-18c-5.628-.991-10.295-3.658-14-8a420.445 420.445 0 0 1-32-17 27.816 27.816 0 0 0-8-6c-8.363-2.47-15.53-6.97-21.5-13.5-.5-8.994-.666-17.994-.5-27Z"/><path style="opacity:1" fill="#fd7c62" d="M610.5 579.5v17c-5.307-.526-10.307.14-15 2v-19h15Z"/><path style="opacity:1" fill="#fe917b" d="M186.5 596.5a61.281 61.281 0 0 1 15 1v20a61.281 61.281 0 0 0-15-1v-20Z"/><path style="opacity:1" fill="#f98c75" d="M281.5 589.5a302.216 302.216 0 0 0 42 20c-1.967.239-3.801-.094-5.5-1-1.333 2.667-2.667 2.667-4 0-1.333 2.667-2.667 2.667-4 0-1.333 2.667-2.667 2.667-4 0-.667 2.667-1.333 2.667-2 0-1.333 2.667-2.667 2.667-4 0-.667 2.667-1.333 2.667-2 0-1.333 2.667-2.667 2.667-4 0-.717.544-1.217 1.211-1.5 2-2.386-.873-4.386-2.373-6-4.5a12.93 12.93 0 0 0-5-.5v-16Z"/><path style="opacity:1" fill="#f88b74" d="M518.5 589.5a49.87 49.87 0 0 1-1 14c-2.047 1.515-4.381 2.349-7 2.5a19.552 19.552 0 0 1-4 3.5c-9.518.297-19.851.297-31 0a417.484 417.484 0 0 0 43-20Z"/><path style="opacity:1" fill="#fe917b" d="M610.5 596.5v20h-14c.268 1.599-.066 2.932-1 4v-22c4.693-1.86 9.693-2.526 15-2Z"/><path style="opacity:1" fill="#f79c89" d="M323.5 609.5c50.656 15.949 101.323 15.949 152 0 11.149.297 21.482.297 31 0a222.389 222.389 0 0 1-23 13c-52.463.311-104.63-.023-156.5-1a493.088 493.088 0 0 0-11.5 2 572.1 572.1 0 0 0-23-13c.283-.789.783-1.456 1.5-2 1.333 2.667 2.667 2.667 4 0 .667 2.667 1.333 2.667 2 0 1.333 2.667 2.667 2.667 4 0 .667 2.667 1.333 2.667 2 0 1.333 2.667 2.667 2.667 4 0 1.333 2.667 2.667 2.667 4 0 1.333 2.667 2.667 2.667 4 0 1.699.906 3.533 1.239 5.5 1Z"/><path style="opacity:1" fill="#fba998" d="M483.5 622.5a47.943 47.943 0 0 1-10 6c-50-1.333-100-1.333-150 0a34.406 34.406 0 0 1-8-5 493.088 493.088 0 0 1 11.5-2c51.87.977 104.037 1.311 156.5 1Z"/><path style="opacity:1" fill="#fdb3a3" d="M473.5 628.5c-4.646 3.964-9.979 6.631-16 8a1741.435 1741.435 0 0 0-118 0 114.568 114.568 0 0 1-16-8c50-1.333 100-1.333 150 0Z"/><path style="opacity:1" fill="#feb09f" d="M186.5 616.5a61.281 61.281 0 0 1 15 1v20h-15v-21Z"/><path style="opacity:1" fill="#fdb09f" d="M610.5 616.5v21a61.281 61.281 0 0 0-15 1v-18c.934-1.068 1.268-2.401 1-4h14Z"/><path style="opacity:1" fill="#fcbcaf" d="M339.5 636.5a1741.435 1741.435 0 0 1 118 0c-3.57 3.949-7.903 6.616-13 8-31-1.333-62-1.333-93 0a71.12 71.12 0 0 1-12-8Z"/><path style="opacity:1" fill="#fcc4b8" d="M186.5 637.5h15a60.931 60.931 0 0 0 .5 11c1.409 1.281 2.909 2.281 4.5 3-7.033-1.032-13.7-1.032-20 0v-14Z"/><path style="opacity:1" fill="#fcc9bd" d="M351.5 644.5c31-1.333 62-1.333 93 0a89.598 89.598 0 0 0-10 7.5 101.201 101.201 0 0 0-11 5.5 2.428 2.428 0 0 0-.5-2 389.53 389.53 0 0 1-47 0c-.717.544-1.217 1.211-1.5 2a114.09 114.09 0 0 1-12-5.5 49.781 49.781 0 0 0-11-7.5Z"/><path style="opacity:1" fill="#fcc4b8" d="M610.5 637.5v14c-7.28-.559-14.28-.559-21 0a104.816 104.816 0 0 0 5.5-9 8.43 8.43 0 0 0 .5-4 61.281 61.281 0 0 1 15-1Z"/><path style="opacity:1" fill="#fcd1c6" d="M206.5 651.5c.453.958 1.119 1.792 2 2.5 3.381.915 6.381 2.415 9 4.5-10.96.081-21.293.081-31 0v-7c6.3-1.032 12.967-1.032 20 0Z"/><path style="opacity:1" fill="#f9d6ce" d="M423.5 657.5a163.132 163.132 0 0 0-23.5 14 152.342 152.342 0 0 1-25.5-14c.283-.789.783-1.456 1.5-2a389.53 389.53 0 0 0 47 0c.464.594.631 1.261.5 2Z"/><path style="opacity:1" fill="#fcddd4" d="M186.5 658.5c9.707.081 20.04.081 31 0a505.266 505.266 0 0 0 22 12c-2.457 1.574-4.457.907-6-2h-6a4.457 4.457 0 0 0-1.5 2c-1.154-2.457-2.488-2.457-4 0h-28l-2-2a20.975 20.975 0 0 1-5.5 1v-11Z"/><path style="opacity:1" fill="#fcd8cf" d="M610.5 651.5v15a710.88 710.88 0 0 0-44 0 25.14 25.14 0 0 1 4-4.5l10-4a82.928 82.928 0 0 1 9-6.5c6.72-.559 13.72-.559 21 0Z"/><path style="opacity:1" fill="#fde4de" d="M610.5 666.5c.536 3.198-.131 5.865-2 8-17.519.543-36.186.543-56 0 3.987-1.785 7.654-4.285 11-7.5a4.934 4.934 0 0 1 3-.5 710.88 710.88 0 0 1 44 0Z"/><path style="opacity:1" fill="#fdebe6" d="M239.5 670.5a321.185 321.185 0 0 1 21 13c-22.527-.388-44.527-.388-66 0-1.238.912-2.572 1.079-4 .5l1-1a15.645 15.645 0 0 1-4-2.5 31.116 31.116 0 0 1-1-11 20.975 20.975 0 0 0 5.5-1l2 2h28c1.512-2.457 2.846-2.457 4 0a4.457 4.457 0 0 1 1.5-2h6c1.543 2.907 3.543 3.574 6 2Z"/><path style="opacity:1" fill="#fdf1ed" d="M552.5 674.5c19.814.543 38.481.543 56 0a21.435 21.435 0 0 0-1 7c-3.064 1.19-5.731 2.857-8 5h-3v3c-2.121-.175-4.121.159-6 1-.722-.418-1.222-1.084-1.5-2h-4c-.667 2.667-1.333 2.667-2 0h-4c-.667 2.667-1.333 2.667-2 0h-4c-.667 2.667-1.333 2.667-2 0h-4c-.667 2.667-1.333 2.667-2 0h-4c-.667 2.667-1.333 2.667-2 0h-4c-.667 2.667-1.333 2.667-2 0h-4c-.667 2.667-1.333 2.667-2 0h-4c-.667 2.667-1.333 2.667-2 0-5.037.948-10.204 1.282-15.5 1a472.158 472.158 0 0 0 24-14.5 4.934 4.934 0 0 1 3-.5Z"/><path style="opacity:1" fill="#fef6f2" d="M599.5 686.5c1.333.667 1.333.667 0 0Z"/><path style="opacity:1" fill="#fdf7f4" d="M260.5 683.5a107.542 107.542 0 0 1 23 13 910.297 910.297 0 0 0-69 0c-1.109-.79-2.442-1.29-4-1.5l1-1c-2.767-.678-4.934-2.178-6.5-4.5-2.537.677-4.537-.323-6-3-2.24.657-3.74-.343-4.5-3 21.473-.388 43.473-.388 66 0Z"/><path style="opacity:1" fill="#fefdfd" d="M590.5 690.5c-1.052 1.756-2.719 2.423-5 2v3c-1.859-.039-3.192.794-4 2.5a12.93 12.93 0 0 1-5 .5v3c-2.582-.475-4.582.192-6 2-2.281 1.928-4.947 2.928-8 3v3h-6v3c-4.045-.073-7.378 1.427-10 4.5l1 1a118.288 118.288 0 0 0-17 7.5 10.756 10.756 0 0 0-2.5 3l-1-1c-1.049 1.607-2.549 2.273-4.5 2v3h-6v3h-5v3c-2.524-.071-4.524.929-6 3-2.12-1.372-3.12-.705-3 2a12.93 12.93 0 0 0-5 .5 101.657 101.657 0 0 0-10 7.5 9.108 9.108 0 0 1-5 1v3c-2.51-.446-4.51.22-6 2-2.216.703-4.049 2.036-5.5 4-1.813-1.109-2.646-.442-2.5 2a12.93 12.93 0 0 0-5 .5c-1.497 1.871-3.497 2.871-6 3-1.307 2.324-3.307 3.657-6 4l2 1a12.93 12.93 0 0 1-5 .5v3a9.86 9.86 0 0 0-6 1 35.217 35.217 0 0 1-8 4v3h-6v3h-6v3a8.43 8.43 0 0 0-4 .5l-5 5c-1.284.684-2.451.517-3.5-.5-1.263 2.968-3.263 3.968-6 3a2.428 2.428 0 0 0-.5 2h-12c-.507-1.359-1.507-2.359-3-3a137.913 137.913 0 0 0-11-4v-3c-2.133-1.386-5.133-2.386-9-3v-3h-5v-3c-3.005.247-5.505-.753-7.5-3l-1 1a4.934 4.934 0 0 1-.5-3h-6v-3h-5v-3h-6v-3c-5.922-1.727-11.089-4.727-15.5-9-.718.951-1.551 1.117-2.5.5 1.333-.667 1.333-1.333 0-2a12.93 12.93 0 0 0-5-.5v-3a58.97 58.97 0 0 1-11-3v-3c-8.654-3.265-16.321-6.932-23-11v-3h-6v-3h-5v-3a8.43 8.43 0 0 1-4-.5c-4.85-3.699-10.184-6.199-16-7.5v-3h-6v-3c-2.092-.061-3.592-1.061-4.5-3-1.299.466-2.799.466-4.5 0v-3c-1.788.285-3.455-.048-5-1-2.158-3.144-5.158-4.477-9-4v-3c-2.51.446-4.51-.22-6-2a910.297 910.297 0 0 1 69 0 768.851 768.851 0 0 0 28 16.5l4 1c6.973 5.651 14.64 9.984 23 13 1.374 3.683 4.041 5.349 8 5a279.412 279.412 0 0 1 19 12c4.871 1.741 9.204 4.408 13 8a35.157 35.157 0 0 1 10 5 66.364 66.364 0 0 0 9.5 2.5c5.889-.966 11.389-2.799 16.5-5.5 5.239-4.798 11.239-8.131 18-10 2.508-3.042 5.508-5.376 9-7 4.75-1.03 8.75-3.363 12-7a145.581 145.581 0 0 0 18-9 507.946 507.946 0 0 1 54-31.5c5.296.282 10.463-.052 15.5-1 .667 2.667 1.333 2.667 2 0h4c.667 2.667 1.333 2.667 2 0h4c.667 2.667 1.333 2.667 2 0h4c.667 2.667 1.333 2.667 2 0h4c.667 2.667 1.333 2.667 2 0h4c.667 2.667 1.333 2.667 2 0h4c.667 2.667 1.333 2.667 2 0h4c.667 2.667 1.333 2.667 2 0h4c.278.916.778 1.582 1.5 2Z"/><path style="opacity:1" fill="#fefffe" d="M570.5 703.5c1.333.667 1.333.667 0 0ZM476.5 757.5c1.333.667 1.333.667 0 0Z"/></svg>