<?xml version="1.0" encoding="UTF-8"?><svg xmlns="http://www.w3.org/2000/svg" width="800" height="800" style="shape-rendering:geometricPrecision;text-rendering:geometricPrecision;image-rendering:optimizeQuality;fill-rule:evenodd;clip-rule:evenodd"><path style="opacity:1" fill="#8fbed9" d="M308.5 52.5h-19a4.932 4.932 0 0 1-3-.5A1372.577 1372.577 0 0 0 237 23.5a138.219 138.219 0 0 1-14.5 1.5 2347.324 2347.324 0 0 1-50 27.5c-16.775-.883-33.775-.883-51 0v-3h5v-3c1.701-.466 3.201-.466 4.5 0 3.279-4.047 7.946-7.047 14-9a18.264 18.264 0 0 0 5-4l1 1c1.049-1.607 2.549-2.273 4.5-2v-3h5v-3h6v-3c4.612-1.195 9.279-2.862 14-5v-3c1.701-.466 3.201-.466 4.5 0 .908-1.939 2.408-2.939 4.5-3v-3h6v-3c1.788.285 3.455-.048 5-1a38.767 38.767 0 0 0 7-4.5 49.25 49.25 0 0 1 14 0c2.025 1.677 4.359 2.677 7 3-1.134 1.016-.801 1.683 1 2l5 1-1 1c2.622 3.073 5.955 4.573 10 4.5v3h6v3c3.191.262 5.858 1.596 8 4a9.864 9.864 0 0 0 6 1v3c3.58 1.22 7.247 2.386 11 3.5l-2 1c2.767.678 4.934 2.178 6.5 4.5l1-1c3.769 1.797 7.102 4.13 10 7a3.942 3.942 0 0 1 2-1c1.482 1.612 3.315 2.612 5.5 3v3h6v3h5v3Z"/><path style="opacity:1" fill="#273339" d="M626.5 52.5a25.154 25.154 0 0 0 4 4.5 81.329 81.329 0 0 1 19 11c9.985 5.6 19.985 11.1 30 16.5a11267.4 11267.4 0 0 1 54 30.5 138.518 138.518 0 0 0 18 10.5c1.526 1.63 3.526 2.463 6 2.5a22.162 22.162 0 0 1 4 6.5v54c.167 57.334 0 114.668-.5 172a482.268 482.268 0 0 0-47.5 27 1411.236 1411.236 0 0 0-68 39.5c-3.81 1.13-7.143 3.13-10 6l-4 1a487.024 487.024 0 0 1-25 14.5c.04-4.693.373-9.359 1-14 1-.333 1.667-1 2-2 6.905-2.392 13.239-5.892 19-10.5a161.582 161.582 0 0 1 13-6 3660.5 3660.5 0 0 1 91-54 84.545 84.545 0 0 1 18-8.5 7901.316 7901.316 0 0 0-1.5-216 2129.254 2129.254 0 0 1-37.5-21.5c-3.415-.406-6.082-2.072-8-5a91.311 91.311 0 0 1-23-13 457.332 457.332 0 0 0-22-11c-2.508-3.042-5.508-5.376-9-7a457.332 457.332 0 0 1-22-11l-24-15c-3.415-.406-6.082-2.072-8-5a90.401 90.401 0 0 0-14-6c-5.722-6.435-12.722-8.768-21-7-7.36 5.663-15.36 9.996-24 13-3.619 3.977-7.952 6.644-13 8-2.537 2.546-5.537 4.212-9 5l-4 4-10 4a2551.356 2551.356 0 0 0-60 36 7185.005 7185.005 0 0 1 26 16 114.065 114.065 0 0 0 14 6c4.2 3.6 8.867 6.433 14 8.5a684.54 684.54 0 0 1 19-8.5 43.593 43.593 0 0 1 13-8c2.365-3.714 5.698-5.714 10-6a705.673 705.673 0 0 1 21-12c4.719-2.307 9.719-2.974 15-2a113.107 113.107 0 0 0 28 15l5 5a182.852 182.852 0 0 1 35 20 193.115 193.115 0 0 1 32 19 197.694 197.694 0 0 1 17 8 36.078 36.078 0 0 1 3.5 4.5c1.657 49.25 1.99 98.584 1 148-5.181 6.173-11.681 10.34-19.5 12.5a12318.477 12318.477 0 0 1-28 18c-6.381 2.027-12.048 5.361-17 10-6.943 1.604-12.943 4.937-18 10-2.988.502-5.655 1.669-8 3.5a44.83 44.83 0 0 0-4-12c2.939-.418 5.272-1.918 7-4.5 5.319-1.548 9.985-4.215 14-8a285.632 285.632 0 0 0 33-18l4-1a679.07 679.07 0 0 1 23-15 12.93 12.93 0 0 1 5-.5c.331-28.505-.002-56.838-1-85-.283-.789-.783-1.456-1.5-2a162.597 162.597 0 0 1-.5-18v-32a35.926 35.926 0 0 0-9-6.5 51.42 51.42 0 0 1-14-8 285.367 285.367 0 0 1-20-10.5 113.118 113.118 0 0 1-17-10.5 918.374 918.374 0 0 1-55-31.5 3162.857 3162.857 0 0 0-66 36.5 42.479 42.479 0 0 1-13 0 753.216 753.216 0 0 1-59.5-35.5 8.905 8.905 0 0 0-3-4 12.93 12.93 0 0 1-.5-5 132.802 132.802 0 0 1 26-16.5l6-5a501.784 501.784 0 0 1 35-18 1838.27 1838.27 0 0 0 15-10.5 777.505 777.505 0 0 0 53-29.5c9.584-1.031 17.918 1.636 25 8 4.302.286 7.635 2.286 10 6a30.312 30.312 0 0 1 12 7 75.618 75.618 0 0 1 15 8 8.435 8.435 0 0 0 4 .5Z"/><path style="opacity:1" fill="#90bfd9" d="M576.5-.5h9a2.429 2.429 0 0 0 .5 2c1.049-1.017 2.216-1.184 3.5-.5a20.495 20.495 0 0 0 2.5 3.5c1.356-.88 2.856-1.214 4.5-1v3c2.822 1.432 6.489 2.432 11 3v3c2.092.061 3.592 1.061 4.5 3 2.537-.677 4.537.323 6 3 2.361-.566 4.194.434 5.5 3l2-1c.35 2.067 2.017 3.067 5 3v3h6v3h5v3h6v3a27.247 27.247 0 0 0 9 3c-.219 1.175.114 2.175 1 3a6.846 6.846 0 0 1 4-1v3a8.435 8.435 0 0 1 4 .5c-1.154.914-.987 1.747.5 2.5 1.299-.466 2.799-.466 4.5 0v3h6v3a970.495 970.495 0 0 0-50 0 8.435 8.435 0 0 1-4-.5 75.618 75.618 0 0 0-15-8 30.312 30.312 0 0 0-12-7c-2.365-3.714-5.698-5.714-10-6-7.082-6.364-15.416-9.031-25-8a777.505 777.505 0 0 1-53 29.5c-6.107-.884-12.441-.884-19 0v-3a59.031 59.031 0 0 1 11-3v-3c1.808.009 3.475-.491 5-1.5-1.388-.89-1.222-1.39.5-1.5 2.071 1.167 3.571.5 4.5-2 6.434-2.343 12.767-5.343 19-9v-3a59.031 59.031 0 0 1 11-3 4.934 4.934 0 0 1 .5-3l1 1c1.995-2.247 4.495-3.247 7.5-3v-3h5v-3h6v-3c1.808.009 3.475-.491 5-1.5l-1-1a12.936 12.936 0 0 1 5-.5v-3c3.552.188 6.219-1.145 8-4Z"/><path style="opacity:1" fill="#273339" d="M289.5 52.5c6.268 4.143 12.601 8.31 19 12.5l4 1a1048.582 1048.582 0 0 1 47 28c4.224 2.28 8.557 4.28 13 6 2.118 1.049 3.784 2.549 5 4.5-2.333 3-5 5.667-8 8a27.603 27.603 0 0 0-5-1.5 108.394 108.394 0 0 1-19-13 1516.16 1516.16 0 0 1-91-52A228.066 228.066 0 0 0 230 34.5 112.066 112.066 0 0 0 206.5 48l-10 4-3 3c-6.771 2.445-12.771 6.111-18 11l-10 4-4 4a520.666 520.666 0 0 0-59 34l-9 3c-3.796 3.592-8.13 6.259-13 8A361.546 361.546 0 0 1 48 137.5c-.667 72-.667 144 0 216a7214.146 7214.146 0 0 0 125 72c.5-21.664.667-43.331.5-65a340.197 340.197 0 0 0-18-8.5 55.63 55.63 0 0 0-18-10 78.488 78.488 0 0 0-23-13 56.965 56.965 0 0 0-10.5-7.5 2946.23 2946.23 0 0 1 1-153 230.435 230.435 0 0 0 32.5-19.5c8.372-3.019 16.038-7.352 23-13 5.093-1.382 9.426-4.049 13-8a90.42 90.42 0 0 0 14-6c1.918-2.928 4.585-4.594 8-5a226.438 226.438 0 0 1 29-17 42.498 42.498 0 0 1 13 0l4 4c8.243 3.203 15.91 7.536 23 13a51.42 51.42 0 0 1 14 8 114.302 114.302 0 0 0 13 6 1876.842 1876.842 0 0 1 38 22.5 75.568 75.568 0 0 1-8 9l-3-2a137.818 137.818 0 0 1-18-10.5 55.707 55.707 0 0 0-13-5.5 302.5 302.5 0 0 0-50-29.5l-4.5-4.5c-2.09.652-4.257.819-6.5.5a883.048 883.048 0 0 1-55 33.5 397.535 397.535 0 0 0-22 11.5 31.447 31.447 0 0 1-5 4.5 67.4 67.4 0 0 0-13 5.5c-5.677 4.879-11.677 9.045-18 12.5-.992 7.148-1.325 14.481-1 22v114c5.301 1.324 9.968 3.824 14 7.5l10 4c1.918 2.928 4.585 4.594 8 5 2.674 3.012 6.007 4.678 10 5l9 7a72.888 72.888 0 0 1 17 9 36.078 36.078 0 0 1 3.5 4.5c.175 4.519.675 8.853 1.5 13-7.156 22.909-8.823 46.243-5 70a55.146 55.146 0 0 0-9-1.5 15401.317 15401.317 0 0 0-88-50.5 228.843 228.843 0 0 1-28-16.5c-3.96.349-6.626-1.317-8-5l-9.5-5.5a354.906 354.906 0 0 1-1.5-45v-154a195.528 195.528 0 0 1 1.5-32 102.618 102.618 0 0 0 7.5-4 1180.105 1180.105 0 0 0 72-41 81.679 81.679 0 0 1 17-8.5l6-5a322.409 322.409 0 0 1 30-16c.881-.708 1.547-1.542 2-2.5a2347.324 2347.324 0 0 0 50-27.5c4.872-.246 9.705-.746 14.5-1.5A1372.577 1372.577 0 0 1 286.5 52c.948.483 1.948.65 3 .5Z"/><path style="opacity:1" fill="#fdfdfd" d="M369.5 112.5c-13.361 13.693-26.694 27.36-40 41a1876.842 1876.842 0 0 0-38-22.5 114.302 114.302 0 0 1-13-6 51.42 51.42 0 0 0-14-8c-7.09-5.464-14.757-9.797-23-13l-4-4a42.498 42.498 0 0 0-13 0 226.438 226.438 0 0 0-29 17c-3.415.406-6.082 2.072-8 5a90.42 90.42 0 0 1-14 6c-3.574 3.951-7.907 6.618-13 8-6.962 5.648-14.628 9.981-23 13a230.435 230.435 0 0 1-32.5 19.5 2946.23 2946.23 0 0 0-1 153 56.965 56.965 0 0 1 10.5 7.5 78.488 78.488 0 0 1 23 13 55.63 55.63 0 0 1 18 10 340.197 340.197 0 0 1 18 8.5c.167 21.669 0 43.336-.5 65a7214.146 7214.146 0 0 1-125-72c-.667-72-.667-144 0-216A361.546 361.546 0 0 0 80.5 119c4.87-1.741 9.204-4.408 13-8l9-3a520.666 520.666 0 0 1 59-34l4-4 10-4c5.229-4.889 11.229-8.555 18-11l3-3 10-4A112.066 112.066 0 0 1 230 34.5 228.066 228.066 0 0 1 254.5 46a1516.16 1516.16 0 0 0 91 52 108.394 108.394 0 0 0 19 13c1.747.352 3.414.852 5 1.5ZM609.5 432.5c-.951-1.419-1.284-3.085-1-5 1.165-18.301-.502-36.301-5-54 2.345-1.831 5.012-2.998 8-3.5 5.057-5.063 11.057-8.396 18-10 4.952-4.639 10.619-7.973 17-10 9.313-5.969 18.646-11.969 28-18 7.819-2.16 14.319-6.327 19.5-12.5.99-49.416.657-98.75-1-148a36.078 36.078 0 0 0-3.5-4.5 197.694 197.694 0 0 0-17-8 193.115 193.115 0 0 0-32-19 182.852 182.852 0 0 0-35-20l-5-5a113.107 113.107 0 0 1-28-15c-5.281-.974-10.281-.307-15 2a705.673 705.673 0 0 0-21 12c-4.302.286-7.635 2.286-10 6a43.593 43.593 0 0 0-13 8 684.54 684.54 0 0 0-19 8.5 50.162 50.162 0 0 1-14-8.5 114.065 114.065 0 0 1-14-6 7185.005 7185.005 0 0 0-26-16 2551.356 2551.356 0 0 1 60-36l10-4 4-4c3.463-.788 6.463-2.454 9-5 5.048-1.356 9.381-4.023 13-8 8.64-3.004 16.64-7.337 24-13 8.278-1.768 15.278.565 21 7a90.401 90.401 0 0 1 14 6c1.918 2.928 4.585 4.594 8 5l24 15a457.332 457.332 0 0 0 22 11c3.492 1.624 6.492 3.958 9 7a457.332 457.332 0 0 1 22 11 91.311 91.311 0 0 0 23 13c1.918 2.928 4.585 4.594 8 5a2129.254 2129.254 0 0 0 37.5 21.5 7901.316 7901.316 0 0 1 1.5 216 84.545 84.545 0 0 0-18 8.5 3660.5 3660.5 0 0 0-91 54 161.582 161.582 0 0 0-13 6c-5.761 4.608-12.095 8.108-19 10.5Z"/><path style="opacity:1" fill="#8bb6d5" d="M172.5 52.5c-.453.958-1.119 1.792-2 2.5a322.409 322.409 0 0 0-30 16l-6 5a81.679 81.679 0 0 0-17 8.5h-56c2.29-.558 4.29-1.724 6-3.5 1.634-.493 3.3-.66 5-.5a4.932 4.932 0 0 1 .5-3l1 1c2.015-3.065 4.515-4.065 7.5-3v-3h5v-3c1.7.16 3.366-.007 5-.5 1.478-2.057 3.478-3.39 6-4l-2-1a18.436 18.436 0 0 1 6-.5v-3a87.51 87.51 0 0 0 14-5v-3h6c17.225-.883 34.225-.883 51 0Z"/><path style="opacity:1" fill="#89b3d3" d="M308.5 52.5h6v3a87.51 87.51 0 0 0 14 5v3c1.699-.16 3.366.007 5 .5l-1 1c1.525 1.009 3.192 1.509 5 1.5v3h6v3h5v3c2.985-1.065 5.485-.065 7.5 3l1-1c.483.948.649 1.948.5 3h5v3h6v3c2.133 1.386 5.133 2.386 9 3v3c2.908-.238 5.242.762 7 3a5.577 5.577 0 0 1 3-1c-2.333 4.333-5.667 7.667-10 10-1.216-1.951-2.882-3.451-5-4.5a114.233 114.233 0 0 1-13-6 1048.582 1048.582 0 0 0-47-28l-4-1a5321.239 5321.239 0 0 1-19-12.5h19Z"/><path style="opacity:1" fill="#89b4d3" d="M507.5 52.5a1838.27 1838.27 0 0 1-15 10.5 501.784 501.784 0 0 0-35 18l-6 5a132.802 132.802 0 0 0-26 16.5c-5.858-.322-11.525.011-17 1-1.762-.762-2.762-2.096-3-4a579.002 579.002 0 0 0 28-15.5c.837-1.011 1.17-2.178 1-3.5 4.493-.216 7.993-2.216 10.5-6 1.011.837 2.178 1.17 3.5 1v-3a59.031 59.031 0 0 0 11-3v-3c1.808.009 3.475-.491 5-1.5l-1-1a12.935 12.935 0 0 1 5-.5v-3a9.864 9.864 0 0 0 6-1 35.213 35.213 0 0 1 8-4v-3h6c6.559-.884 12.893-.884 19 0Z"/><path style="opacity:1" fill="#8bb6d5" d="M676.5 52.5h5v3a428.986 428.986 0 0 0 20 8.5l-2 1c2.522.61 4.522 1.943 6 4 1.634.493 3.301.66 5 .5v3c2.908-.238 5.242.762 7 3 .951-.826 1.951-.992 3-.5l-1 1a6.977 6.977 0 0 1 3.5 2.5l1-1c.483.948.649 1.948.5 3h6v3c1.915-.284 3.581.049 5 1h-56c-10.015-5.4-20.015-10.9-30-16.5a81.329 81.329 0 0 0-19-11 25.154 25.154 0 0 1-4-4.5c16.548-.43 33.215-.43 50 0Z"/><path style="opacity:1" fill="#020303" d="M405.5 99.5c.238 1.904 1.238 3.238 3 4 14.333 15 29 29.667 44 44 8.34 9.339 16.673 18.672 25 28a877.509 877.509 0 0 1 88.5 116 345.56 345.56 0 0 1 16.5 31 169.242 169.242 0 0 1 11 22 128.578 128.578 0 0 1 6 17 44.83 44.83 0 0 1 4 12c4.498 17.699 6.165 35.699 5 54-.968 2.107-1.302 4.441-1 7-.627 4.641-.96 9.307-1 14a2076.05 2076.05 0 0 1-7 29c-2.9 1.237-6.067 1.903-9.5 2-3.252-.019-6.085-.686-8.5-2a209.558 209.558 0 0 0 6-28c-14.103.228-26.437-4.272-37-13.5-7.878-8.557-16.878-15.557-27-21-13.95-3.842-26.617-1.509-38 7-8.905 9.912-19.238 17.912-31 24-16.27 5.177-32.27 4.51-48-2-3.936-3.444-4.936-7.611-3-12.5 1.876-2.39 4.376-3.39 7.5-3 4.525.951 9.025 2.117 13.5 3.5 10.25 1.673 19.917.006 29-5l27-23c8.663-5.707 18.163-8.207 28.5-7.5 14.482-.839 27.316 3.328 38.5 12.5l20 18c7.057 4.408 14.723 6.242 23 5.5a213.123 213.123 0 0 0 0-40c-11.993 1.002-22.993-1.832-33-8.5l-27-23c-13.36-5.968-26.693-5.968-40 0a356.549 356.549 0 0 0-24 21c-20.472 12.712-41.472 13.712-63 3a496.025 496.025 0 0 1-29-24c-12.522-6.806-25.188-7.14-38-1a496.025 496.025 0 0 0-29 24c-7.736 4.745-16.069 7.578-25 8.5-15.889 1.98-29.889-2.187-42-12.5a169.323 169.323 0 0 1-16-15c-4.447-3.557-9.447-6.057-15-7.5a4.933 4.933 0 0 0-2.5 1 132.517 132.517 0 0 0-9.5 38c11.992-.978 22.992 1.855 33 8.5a114.43 114.43 0 0 1 19 17c12.219 10.862 25.886 13.362 41 7.5 3.687-.676 7.02-2.176 10-4.5a203.406 203.406 0 0 1 26-22c11.94-6.156 24.607-8.156 38-6 7.398.911 14.232 3.411 20.5 7.5 1.747 3.625 1.914 7.292.5 11-1.977 2.239-4.477 3.573-7.5 4-16.73-8.78-32.897-7.947-48.5 2.5-9.12 10.299-19.786 18.466-32 24.5-18.209 5.556-35.542 3.723-52-5.5l-27-23c-6.888-3.685-14.222-5.185-22-4.5.797 39.717 11.131 76.717 31 111 1.317 10.098 1.317 20.098 0 30a97.602 97.602 0 0 1-13-19 344.623 344.623 0 0 1-13-21 2981.978 2981.978 0 0 1-15-40 168.789 168.789 0 0 1-3-11c.597-.235.93-.735 1-1.5a148.022 148.022 0 0 1-4-22.5c-3.823-23.757-2.156-47.091 5-70a277.675 277.675 0 0 1 16-43l13-22a458.26 458.26 0 0 1 34.5-54 1479.51 1479.51 0 0 1 49.5-62 86.79 86.79 0 0 0 10-12 64.748 64.748 0 0 0 13-14 75.568 75.568 0 0 0 8-9c13.306-13.64 26.639-27.307 40-41 3-2.333 5.667-5 8-8 4.333-2.333 7.667-5.667 10-10 3.064-1.843 6.397-2.343 10-1.5 2.251 2.758 4.918 4.925 8 6.5Z"/><path style="opacity:1" fill="#84acd0" d="M61.5 84.5h56a1180.105 1180.105 0 0 1-72 41h-39c.246-3.651.246-7.151 0-10.5a169.104 169.104 0 0 0 15-5.5v-3a58.967 58.967 0 0 0 11-3v-3a417.79 417.79 0 0 0 15-7 32.686 32.686 0 0 0 8.5-6l1 1c1.699-1.24 3.199-2.574 4.5-4ZM679.5 84.5h56c7.173 5.44 15.507 9.94 25 13.5l-1 1c1.525 1.009 3.192 1.509 5 1.5v3h6v3h5v3c2.041.354 3.874.354 5.5 0 .483.948.649 1.948.5 3 2.836 1.276 5.836 1.942 9 2 1.453 3.486 2.119 7.153 2 11h-41a138.518 138.518 0 0 1-18-10.5 11267.4 11267.4 0 0 0-54-30.5Z"/><path style="opacity:1" fill="#93c3db" d="M406.5 127.5c-38.492 41.668-71.826 87.168-100 136.5 8.177.171 16.177.671 24 1.5-12.005-.167-24.005 0-36 .5-22.58 9.11-29.08 24.943-19.5 47.5a98.521 98.521 0 0 0 7.5 9 168.517 168.517 0 0 0-3 46.5c.047 2.295.713 4.129 2 5.5-11.969 1.834-22.636-1.332-32-9.5-8.576-9.583-18.576-17.249-30-23a8.43 8.43 0 0 0-4-.5c4.333-11 9.499-21.667 15.5-32a903.928 903.928 0 0 1 87-117 1358.266 1358.266 0 0 1 74.5-77.5c.667-.667 1.333-.667 2 0 4.36 3.972 8.36 8.139 12 12.5Z"/><path style="opacity:1" fill="#7fa3cc" d="M287.5 144.5a1682.92 1682.92 0 0 1-116 0 883.048 883.048 0 0 0 55-33.5c2.243.319 4.41.152 6.5-.5l4.5 4.5a302.5 302.5 0 0 1 50 29.5Z"/><path style="opacity:1" fill="#b0d1e4" d="M406.5 127.5a781.524 781.524 0 0 1 65 68 366.68 366.68 0 0 1-27 1.5c-21.632 7.764-28.965 22.597-22 44.5-26.388.549-38.555 13.882-36.5 40 3.503 13.337 12.003 21.337 25.5 24 47.569.671 95.236 1.338 143 2 13.57 21.144 23.903 43.81 31 68a47.794 47.794 0 0 1-16-4.5 325.89 325.89 0 0 1-23-20c-24.01-16.628-48.01-16.628-72 0l-20 18c-16.819 9.407-32.819 8.407-48-3-8.393-9.352-18.059-17.019-29-23-17.008-6.598-33.675-5.932-50 2l-32 26c-4.352 2.239-9.019 3.406-14 3.5-1.287-1.371-1.953-3.205-2-5.5a168.517 168.517 0 0 1 3-46.5 98.607 98.607 0 0 0 12 5.5c11.667.667 23.333.667 35 0 19.506-4.817 28.34-17.317 26.5-37.5-3.755-13.255-12.255-21.589-25.5-25a284.057 284.057 0 0 0-24-1.5c28.174-49.332 61.508-94.832 100-136.5Z"/><path style="opacity:1" fill="#7ea1ca" d="M425.5 102.5a12.93 12.93 0 0 0 .5 5 8.905 8.905 0 0 1 3 4 753.216 753.216 0 0 0 59.5 35.5c4.333.667 8.667.667 13 0a3162.857 3162.857 0 0 1 66-36.5 918.374 918.374 0 0 0 55 31.5c5.403 4.03 11.07 7.53 17 10.5a7659.168 7659.168 0 0 1-175 1 63.402 63.402 0 0 0-12-6c-15-14.333-29.667-29-44-44 5.475-.989 11.142-1.322 17-1Z"/><path style="opacity:1" fill="#263238" d="M452.5 147.5a63.402 63.402 0 0 1 12 6c1.236 2.328 3.236 3.494 6 3.5a1354.434 1354.434 0 0 0 42 24.5c7.593 3.838 14.927 8.338 22 13.5 5.662.917 10.329 3.583 14 8a31.774 31.774 0 0 0 7 2.5c.453.958 1.119 1.792 2 2.5 4.69 1.17 8.69 3.503 12 7 6.107 2.096 11.774 4.929 17 8.5 2.549 2.263 5.383 4.263 8.5 6a8.43 8.43 0 0 1 .5 4v28c.167 26.669 0 53.335-.5 80-1.039.744-1.539 1.744-1.5 3a169.242 169.242 0 0 0-11-22 948.987 948.987 0 0 0 0-87 803.828 803.828 0 0 1-52-30.5c-4.758-1.884-9.092-4.551-13-8-8.449-3.02-16.115-7.353-23-13-5.521-1.096-10.187-3.762-14-8a4.934 4.934 0 0 0-3-.5c-8.327-9.328-16.66-18.661-25-28Z"/><path style="opacity:1" fill="#7c9ec9" d="M171.5 144.5a1682.92 1682.92 0 0 0 116 0 55.707 55.707 0 0 1 13 5.5 137.818 137.818 0 0 0 18 10.5c-58 1.333-116 1.333-174 0a31.447 31.447 0 0 0 5-4.5 397.535 397.535 0 0 1 22-11.5Z"/><path style="opacity:1" fill="#7da0cb" d="M6.5 125.5h39a102.618 102.618 0 0 1-7.5 4 195.528 195.528 0 0 0-1.5 32h-30v-36Z"/><path style="opacity:1" fill="#7d9fca" d="M751.5 125.5h41v46h-30a342.787 342.787 0 0 0-1-37 22.162 22.162 0 0 0-4-6.5c-2.474-.037-4.474-.87-6-2.5Z"/><path style="opacity:1" fill="#799ac8" d="M639.5 152.5a285.367 285.367 0 0 0 20 10.5 51.42 51.42 0 0 0 14 8 35.926 35.926 0 0 1 9 6.5c-.934 1.068-1.268 2.401-1 4h-169a1354.434 1354.434 0 0 1-42-24.5c-2.764-.006-4.764-1.172-6-3.5 58.502.332 116.836-.001 175-1Z"/><path style="opacity:1" fill="#7898c7" d="M144.5 160.5c58 1.333 116 1.333 174 0l3 2a64.748 64.748 0 0 1-13 14c-.111-.617-.444-1.117-1-1.5a25.238 25.238 0 0 0-10 0l-2.5 2.5c-1.049-1.017-2.216-1.184-3.5-.5a36.829 36.829 0 0 1-7 4.5h-171v-3c6.323-3.455 12.323-7.621 18-12.5a67.4 67.4 0 0 1 13-5.5Z"/><path style="opacity:1" fill="#263238" d="M308.5 176.5a86.79 86.79 0 0 1-10 12 302.779 302.779 0 0 1-18 8.5l-4 4c-7.273 1.918-13.607 5.585-19 11a24.569 24.569 0 0 0-8 3 6204.11 6204.11 0 0 1-24 15 239.706 239.706 0 0 0-12 5.5c-.331 23.173.002 46.173 1 69l-13 22v-87c-1.155-5.355.512-9.522 5-12.5 6.121-3.5 12.121-7 18-10.5a75.834 75.834 0 0 1 11-5.5 32.859 32.859 0 0 0 6-5.5c5.155-.969 9.488-3.469 13-7.5 6.872-1.189 12.539-4.523 17-10l5-1a111.46 111.46 0 0 0 8-5.5 36.829 36.829 0 0 0 7-4.5c1.284-.684 2.451-.517 3.5.5l2.5-2.5a25.238 25.238 0 0 1 10 0c.556.383.889.883 1 1.5Z"/><path style="opacity:1" fill="#fcfcfc" d="M477.5 175.5a4.934 4.934 0 0 1 3 .5c3.813 4.238 8.479 6.904 14 8 6.885 5.647 14.551 9.98 23 13 3.908 3.449 8.242 6.116 13 8a803.828 803.828 0 0 0 52 30.5 948.987 948.987 0 0 1 0 87 345.56 345.56 0 0 0-16.5-31 877.509 877.509 0 0 0-88.5-116Z"/><path style="opacity:1" fill="#7492c3" d="M682.5 177.5v18c-.979 3.125-1.313 6.458-1 10h-126a31.774 31.774 0 0 1-7-2.5c-3.671-4.417-8.338-7.083-14-8-7.073-5.162-14.407-9.662-22-13.5h169c-.268-1.599.066-2.932 1-4Z"/><path style="opacity:1" fill="#7694c5" d="M6.5 161.5h30v44h-30v-44Z"/><path style="opacity:1" fill="#7492c3" d="M113.5 178.5v3h171a111.46 111.46 0 0 1-8 5.5l-5 1c-4.461 5.477-10.128 8.811-17 10-3.512 4.031-7.845 6.531-13 7.5h-128c.284-1.915-.049-3.581-1-5-.325-7.519.008-14.852 1-22ZM761.5 134.5a342.787 342.787 0 0 1 1 37h30v45h-30c.327-9.515-.006-18.848-1-28v-54Z"/><path style="opacity:1" fill="#fafbfb" d="M298.5 188.5a1479.51 1479.51 0 0 0-49.5 62 458.26 458.26 0 0 0-34.5 54 1190.252 1190.252 0 0 1-1-69 239.706 239.706 0 0 1 12-5.5 6204.11 6204.11 0 0 0 24-15 24.569 24.569 0 0 1 8-3c5.393-5.415 11.727-9.082 19-11l4-4a302.779 302.779 0 0 0 18-8.5Z"/><path style="opacity:1" fill="#6c88bd" d="M112.5 200.5c.951 1.419 1.284 3.085 1 5v11h111c-5.879 3.5-11.879 7-18 10.5-4.488 2.978-6.155 7.145-5 12.5-.934 1.068-1.268 2.401-1 4h-87c.321-5.526-.012-10.86-1-16v-27Z"/><path style="opacity:1" fill="#708dc0" d="M113.5 205.5h128a32.859 32.859 0 0 1-6 5.5 75.834 75.834 0 0 0-11 5.5h-111v-11Z"/><path style="opacity:1" fill="#e9f0f7" d="M541.5 286.5c-42.83.999-85.83 1.332-129 1-6.894-2.264-10.227-7.098-10-14.5.629-6.309 3.962-10.642 10-13a507.371 507.371 0 0 0 44-2c5.653-10.675 2.32-16.008-10-16-9.084-4.919-11.584-12.085-7.5-21.5 2.264-2.933 5.098-5.1 8.5-6.5a400.05 400.05 0 0 1 40 0 632.124 632.124 0 0 1 54 72.5Z"/><path style="opacity:1" fill="#6f8bc0" d="M682.5 195.5v14c-.986 4.47-1.319 9.137-1 14h-95c-5.226-3.571-10.893-6.404-17-8.5-3.31-3.497-7.31-5.83-12-7-.881-.708-1.547-1.542-2-2.5h126c-.313-3.542.021-6.875 1-10Z"/><path style="opacity:1" fill="#6c87bd" d="M682.5 209.5c-.166 6.009.001 12.009.5 18 .717.544 1.217 1.211 1.5 2v13c-29.26.991-58.593 1.325-88 1 .313-3.542-.021-6.875-1-10a8.43 8.43 0 0 0-.5-4c-3.117-1.737-5.951-3.737-8.5-6h95c-.319-4.863.014-9.53 1-14Z"/><path style="opacity:1" fill="#6d89be" d="M6.5 205.5h30v38h-30v-38Z"/><path style="opacity:1" fill="#6c88be" d="M762.5 216.5h30v27h-30v-27Z"/><path style="opacity:1" fill="#6681b9" d="M112.5 227.5c.988 5.14 1.321 10.474 1 16h87c-.268-1.599.066-2.932 1-4v30c-.79 1.109-1.29 2.442-1.5 4a925.231 925.231 0 0 0-86 0c-.175-4.519-.675-8.853-1.5-13v-33ZM595.5 233.5c.979 3.125 1.313 6.458 1 10 29.407.325 58.74-.009 88-1 .166 10.339 0 20.672-.5 31a1094.322 1094.322 0 0 0-86.5 0 1041.63 1041.63 0 0 0-2-12v-28Z"/><path style="opacity:1" fill="#020303" d="M330.5 265.5c13.245 3.411 21.745 11.745 25.5 25 1.84 20.183-6.994 32.683-26.5 37.5a306.347 306.347 0 0 1-35 0 98.607 98.607 0 0 1-12-5.5 98.521 98.521 0 0 1-7.5-9c-9.58-22.557-3.08-38.39 19.5-47.5 11.995-.5 23.995-.667 36-.5Z"/><path style="opacity:1" fill="#5e7bb4" d="M112.5 260.5c.825 4.147 1.325 8.481 1.5 13a925.231 925.231 0 0 1 86 0c.21-1.558.71-2.891 1.5-4v57a277.675 277.675 0 0 0-16 43c-.825-4.147-1.325-8.481-1.5-13a36.078 36.078 0 0 0-3.5-4.5 72.888 72.888 0 0 0-17-9l-9-7c-3.993-.322-7.326-1.988-10-5-3.415-.406-6.082-2.072-8-5l-10-4c-4.032-3.676-8.699-6.176-14-7.5v-54Z"/><path style="opacity:1" fill="#e5ecf3" d="M298.5 282.5c9.672-.166 19.339 0 29 .5 7.492 1.64 11.492 6.306 12 14-1.051 6.718-4.718 11.385-11 14-10 .667-20 .667-30 0-11.051-5.24-13.551-13.073-7.5-23.5 2.426-1.952 4.926-3.619 7.5-5Z"/><path style="opacity:1" fill="#83868a" d="M541.5 286.5c.543.06.876.393 1 1a2116.695 2116.695 0 0 1-130 0c43.17.332 86.17-.001 129-1Z"/><path style="opacity:1" fill="#617db6" d="M6.5 243.5h30v72h-30v-72Z"/><path style="opacity:1" fill="#5d7ab3" d="M684.5 229.5a1807.264 1807.264 0 0 1 1 85 12.93 12.93 0 0 0-5 .5 679.07 679.07 0 0 0-23 15l-4 1a285.632 285.632 0 0 1-33 18c-4.015 3.785-8.681 6.452-14 8-1.728 2.582-4.061 4.082-7 4.5a128.578 128.578 0 0 0-6-17c-.039-1.256.461-2.256 1.5-3 .5-26.665.667-53.331.5-80a1041.63 1041.63 0 0 1 2 12c28.903-1.14 57.737-1.14 86.5 0 .5-10.328.666-20.661.5-31v-13Z"/><path style="opacity:1" fill="#617db6" d="M762.5 243.5h30v72h-30v-72Z"/><path style="opacity:1" fill="#95b2c2" d="M411.5 305.5c48.012-.662 95.678.005 143 2-47.764-.662-95.431-1.329-143-2Z"/><path style="opacity:1" fill="#05658b" d="M403.5 431.5a205.598 205.598 0 0 0-18-16c1.414-3.708 1.247-7.375-.5-11-6.268-4.089-13.102-6.589-20.5-7.5-13.393-2.156-26.06-.156-38 6a203.406 203.406 0 0 0-26 22c-2.98 2.324-6.313 3.824-10 4.5a488.236 488.236 0 0 1-9-35.5c.556-.383.889-.883 1-1.5 8.931-.922 17.264-3.755 25-8.5a496.025 496.025 0 0 1 29-24c12.812-6.14 25.478-5.806 38 1a496.025 496.025 0 0 0 29 24c21.528 10.712 42.528 9.712 63-3a356.549 356.549 0 0 1 24-21c13.307-5.968 26.64-5.968 40 0l27 23c10.007 6.668 21.007 9.502 33 8.5a213.123 213.123 0 0 1 0 40c-8.277.742-15.943-1.092-23-5.5l-20-18c-11.184-9.172-24.018-13.339-38.5-12.5-10.337-.707-19.837 1.793-28.5 7.5l-27 23c-9.083 5.006-18.75 6.673-29 5a150.601 150.601 0 0 0-13.5-3.5c-3.124-.39-5.624.61-7.5 3Z"/><path style="opacity:1" fill="#055d78" d="M282.5 392.5c-.111.617-.444 1.117-1 1.5a488.236 488.236 0 0 0 9 35.5c-15.114 5.862-28.781 3.362-41-7.5a114.43 114.43 0 0 0-19-17c-10.008-6.645-21.008-9.478-33-8.5a132.517 132.517 0 0 1 9.5-38 4.933 4.933 0 0 1 2.5-1c5.553 1.443 10.553 3.943 15 7.5a169.323 169.323 0 0 0 16 15c12.111 10.313 26.111 14.48 42 12.5Z"/><path style="opacity:1" fill="#5676ae" d="M761.5 188.5c.994 9.152 1.327 18.485 1 28v99h30v50c-3.013-.128-5.513.872-7.5 3-2.411-1.653-3.578-.987-3.5 2-1.701.466-3.201.466-4.5 0-3.844 1.975-7.177 4.642-10 8l-1-1c-1.049 1.607-2.549 2.273-4.5 2v3c-3.937.204-7.604 1.204-11 3a4.934 4.934 0 0 1-.5 3c-.977-1.274-1.811-1.274-2.5 0-11.102-.788-22.436-1.121-34-1a482.268 482.268 0 0 1 47.5-27c.5-57.332.667-114.666.5-172Z"/><path style="opacity:1" fill="#5676af" d="M6.5 315.5h30a354.906 354.906 0 0 0 1.5 45l9.5 5.5c1.374 3.683 4.04 5.349 8 5a228.843 228.843 0 0 0 28 16.5 510.557 510.557 0 0 1-34 1c-5.398-1.881-10.065-3.881-14-6v-3a58.967 58.967 0 0 1-11-3v-3h-6v-3c-4.013-1.674-8.013-3.341-12-5v-50Z"/><path style="opacity:1" fill="#4d72a9" d="M83.5 387.5a15401.317 15401.317 0 0 1 88 50.5c3.087.259 6.087.759 9 1.5a148.022 148.022 0 0 0 4 22.5c-.07.765-.403 1.265-1 1.5a224.8 224.8 0 0 0-26-15.5c-6.204-2.789-12.537-4.622-19-5.5v-3h-6v-3h-3v-3h-6v-3h-5v-3c-2.921.354-5.254-.646-7-3-1.714 1.109-2.381.442-2-2a58.97 58.97 0 0 1-11-3v-3a27.267 27.267 0 0 0-9-3v-3c-2.908.238-5.242-.762-7-3a3.647 3.647 0 0 0-1.5 1c-1.667-1-3-2.333-4-4l-1 1a4.932 4.932 0 0 1-.5-3h-6v-3h-5v-3c-4.005-1.087-7.505-3.087-10.5-6-.85.924-1.85.924-3 0-1.03-.336-1.53-1.003-1.5-2 11.144.05 22.477-.283 34-1Z"/><path style="opacity:1" fill="#4c72a8" d="M713.5 387.5c11.564-.121 22.898.212 34 1-1.418 1.808-3.418 2.475-6 2v3a12.93 12.93 0 0 0-5 .5c-1.079 2.043-2.746 3.376-5 4l1 1a12.93 12.93 0 0 1-5 .5v3a9.86 9.86 0 0 0-6 1c-3.423 1.192-6.256 3.192-8.5 6l-1-1c-1.049 1.607-2.549 2.273-4.5 2v3h-6v3h-5v3c-2.185.388-4.018 1.388-5.5 3-2.278-1.12-3.778-.287-4.5 2.5a101.955 101.955 0 0 0-13 5.5v3h-6v3h-6v3c-1.788-.285-3.455.048-5 1 1.129 2.029.629 2.363-1.5 1-1.712 3.452-4.212 4.452-7.5 3v3c-3.096-.593-5.429.407-7 3a47.25 47.25 0 0 1-7 3v3h-6v3c-1.788-.285-3.455.048-5 1a28.335 28.335 0 0 0-9.5 6l-1-1c-1.049 1.607-2.549 2.273-4.5 2-.167 12.338 0 24.671.5 37 1.892 1.117 2.725 2.784 2.5 5h-5c.42-9.747-.08-19.414-1.5-29-2.026-.415-3.526-1.415-4.5-3a2076.05 2076.05 0 0 0 7-29 487.024 487.024 0 0 0 25-14.5l4-1c2.857-2.87 6.19-4.87 10-6a1411.236 1411.236 0 0 1 68-39.5Z"/><path style="opacity:1" fill="#17678a" d="M297.5 446.5c2.618 6.26 5.952 11.926 10 17-25.065 14.7-31.565 35.366-19.5 62 14.114 20.036 32.614 25.536 55.5 16.5 6.117-2.961 11.117-7.128 15-12.5 14.843-.329 29.51.004 44 1 0 .667-.333 1-1 1-12.827-1.16-25.827-1.327-39-.5a266.365 266.365 0 0 0 32 20.5 246.697 246.697 0 0 1 2-7 66.596 66.596 0 0 0 2 17 1208.688 1208.688 0 0 1-50 51.5 12.93 12.93 0 0 1-5 .5 194.123 194.123 0 0 1-26-9 343.655 343.655 0 0 0 .5-45 11.333 11.333 0 0 0-3.5-1.5 721.824 721.824 0 0 0-38-.5c.167-13.337 0-26.671-.5-40l-1.5-1.5a484.008 484.008 0 0 0-44 0c-1.368 2.804-2.368 5.638-3 8.5-19.869-34.283-30.203-71.283-31-111 7.778-.685 15.112.815 22 4.5l27 23c16.458 9.223 33.791 11.056 52 5.5Z"/><path style="opacity:1" fill="#4179a0" d="M385.5 415.5a205.598 205.598 0 0 1 18 16c-1.936 4.889-.936 9.056 3 12.5 15.73 6.51 31.73 7.177 48 2 11.762-6.088 22.095-14.088 31-24 11.383-8.509 24.05-10.842 38-7 10.122 5.443 19.122 12.443 27 21 10.563 9.228 22.897 13.728 37 13.5a209.558 209.558 0 0 1-6 28 2003.045 2003.045 0 0 1-109 2.5c-1.323.816-1.989 1.983-2 3.5a1981.572 1981.572 0 0 0-1 89 24.935 24.935 0 0 1-7-.5c-.556-.383-.889-.883-1-1.5.283-.789.783-1.456 1.5-2 .828-28.239.661-56.405-.5-84.5a1701.73 1701.73 0 0 0-100-1.5c-13.326-20.443-31.659-26.777-55-19-4.048-5.074-7.382-10.74-10-17 12.214-6.034 22.88-14.201 32-24.5 15.603-10.447 31.77-11.28 48.5-2.5 3.023-.427 5.523-1.761 7.5-4Z"/><path style="opacity:1" fill="#9b9d9f" d="M608.5 427.5c-.284 1.915.049 3.581 1 5-.333 1-1 1.667-2 2-.302-2.559.032-4.893 1-7Z"/><path style="opacity:1" fill="#010304" d="M362.5 482.5h-23c-2.39-2.528-5.39-4.028-9-4.5-4.52-.814-8.854-.647-13 .5-17.364 7.747-22.197 20.413-14.5 38 6.202 9.68 15.036 13.68 26.5 12 9.639.86 19.306 1.193 29 1-3.883 5.372-8.883 9.539-15 12.5-22.886 9.036-41.386 3.536-55.5-16.5-12.065-26.634-5.565-47.3 19.5-62 23.341-7.777 41.674-1.443 55 19Z"/><path style="opacity:1" fill="#accde0" d="M339.5 482.5c-2.825-.338-4.992.662-6.5 3a128.507 128.507 0 0 0-.5 16 158.641 158.641 0 0 1-15.5-19c-.579-1.428-.412-2.762.5-4 4.146-1.147 8.48-1.314 13-.5 3.61.472 6.61 1.972 9 4.5Z"/><path style="opacity:1" fill="#263339" d="M581.5 477.5c2.415 1.314 5.248 1.981 8.5 2 3.433-.097 6.6-.763 9.5-2 .974 1.585 2.474 2.585 4.5 3a152.623 152.623 0 0 1 1.5 29v172c.166 9.672 0 19.339-.5 29l-1.5 1.5a463.293 463.293 0 0 1-52 1.5 750.264 750.264 0 0 0-67-.5 1147.103 1147.103 0 0 1-31 17c-3.25 3.637-7.25 5.97-12 7-3.492 1.624-6.492 3.958-9 7-6.761 1.869-12.761 5.202-18 10-5.111 2.701-10.611 4.534-16.5 5.5a66.364 66.364 0 0 1-9.5-2.5 35.157 35.157 0 0 0-10-5c-3.796-3.592-8.129-6.259-13-8a279.412 279.412 0 0 0-19-12c-3.959.349-6.626-1.317-8-5-8.36-3.016-16.027-7.349-23-13a279.06 279.06 0 0 1-33-18.5 103.393 103.393 0 0 0-26-13.5 114.425 114.425 0 0 0-30-18 55.63 55.63 0 0 0-18-10 18.839 18.839 0 0 0-6.5-5.5 924.222 924.222 0 0 1-.5-43 61.281 61.281 0 0 1-15-1c-.617-.111-1.117-.444-1.5-1a484.008 484.008 0 0 1 0-44c.383-.556.883-.889 1.5-1a67.246 67.246 0 0 1 15-1v-43a344.623 344.623 0 0 0 13 21c-.992 7.148-1.325 14.481-1 22a57.15 57.15 0 0 0 15-1 43.836 43.836 0 0 1-1-2c1.317-9.902 1.317-19.902 0-30 .632-2.862 1.632-5.696 3-8.5a484.008 484.008 0 0 1 44 0l1.5 1.5c.5 13.329.667 26.663.5 40 12.671-.167 25.338 0 38 .5 1.266.309 2.433.809 3.5 1.5a343.655 343.655 0 0 1-.5 45 612.897 612.897 0 0 1-34 1.5 226.502 226.502 0 0 0 29 15.5 412.861 412.861 0 0 0 19.5 12 12.93 12.93 0 0 0 .5-5 89.664 89.664 0 0 1 14-13.5c-1.237-.232-2.237-.732-3-1.5a12.93 12.93 0 0 0 5-.5 1208.688 1208.688 0 0 0 50-51.5c5.24-3.733 10.074-8.066 14.5-13 .499-5.991.666-11.991.5-18h-11a484.723 484.723 0 0 0-44-1c-9.694.193-19.361-.14-29-1 .709-.904 1.709-1.237 3-1v-26c-.166-5.344.001-10.677.5-16 1.508-2.338 3.675-3.338 6.5-3h23a1701.73 1701.73 0 0 1 100 1.5 1196.545 1196.545 0 0 1 .5 84.5c-.717.544-1.217 1.211-1.5 2-16.667 16-33 32.333-49 49a443.547 443.547 0 0 0-18 17.5c1.973.495 3.973.662 6 .5-2.469.817-5.135 1.317-8 1.5l-9.5 9.5a33.225 33.225 0 0 0 .5 14c1.795 2.203 4.129 3.369 7 3.5a72.464 72.464 0 0 0 17 0 195.443 195.443 0 0 0 36-21c5.093-1.382 9.426-4.049 13-8a110.248 110.248 0 0 0 14-5.5c.306-2.885-.027-5.552-1-8 1.307-6.432 1.307-12.766 0-19a3691.699 3691.699 0 0 0 1-121c.011-1.517.677-2.684 2-3.5 36.553.151 72.886-.682 109-2.5Z"/><path style="opacity:1" fill="#92c3db" d="M317.5 478.5c-.912 1.238-1.079 2.572-.5 4a158.641 158.641 0 0 0 15.5 19v26c-1.291-.237-2.291.096-3 1-11.464 1.68-20.298-2.32-26.5-12-7.697-17.587-2.864-30.253 14.5-38Z"/><path style="opacity:1" fill="#fafdfd" d="M478.5 487.5h119v60c-11.227-.879-22.56-.879-34 0 .326-8.184-.008-16.184-1-24-.011-1.517-.677-2.684-2-3.5a484.008 484.008 0 0 0-44 0l-3 1.5a169.926 169.926 0 0 0-1 26c-11.227-.879-22.56-.879-34 0v-60Z"/><path style="opacity:1" fill="#f8fbfb" d="M455.5 490.5c.333 19.012 0 38.012-1 57a120.655 120.655 0 0 0-31 0 5046.326 5046.326 0 0 0-2-21c.14-1.624-.527-2.79-2-3.5-26.331-.5-52.665-.667-79-.5v-32h115Z"/><path style="opacity:1" fill="#3a6d9f" d="M186.5 474.5a2981.978 2981.978 0 0 0 15 40v43a67.246 67.246 0 0 0-15 1v-84Z"/><path style="opacity:1" fill="#28343a" d="M562.5 523.5c.167 49.334 0 98.668-.5 148-16 1.333-32 1.333-48 0a684.597 684.597 0 0 1-1.5-63v-61a169.926 169.926 0 0 1 1-26l3-1.5a484.008 484.008 0 0 1 44 0c1.323.816 1.989 1.983 2 3.5Z"/><path style="opacity:1" fill="#b1bbbd" d="M268.5 523.5h-31v24c.319 4.863-.014 9.53-1 14v-39c10.846-.328 21.513.006 32 1Z"/><path style="opacity:1" fill="#f8fefe" d="M268.5 523.5v24h-31v-24h31Z"/><path style="opacity:1" fill="#41789e" d="M554.5 532.5a223.242 223.242 0 0 1-33 38 462.903 462.903 0 0 1-1-43h35c.134 1.792-.199 3.458-1 5Z"/><path style="opacity:1" fill="#4179a0" d="M401.5 531.5a51.197 51.197 0 0 0-5 13 246.697 246.697 0 0 0-2 7 266.365 266.365 0 0 1-32-20.5c13.173-.827 26.173-.66 39 .5Z"/><path style="opacity:1" fill="#010202" d="M402.5 530.5h11a162.597 162.597 0 0 1-.5 18c-4.426 4.934-9.26 9.267-14.5 13a66.596 66.596 0 0 1-2-17 51.197 51.197 0 0 1 5-13c.667 0 1-.333 1-1Z"/><path style="opacity:1" fill="#040505" d="M554.5 532.5c1.317 9.568 1.317 19.235 0 29-.667 0-1 .333-1 1a248.88 248.88 0 0 1-26 27 17.902 17.902 0 0 0-6 4c-1.298-7.724-1.298-15.391 0-23a223.242 223.242 0 0 0 33-38Z"/><path style="opacity:1" fill="#f8f8f8" d="M214.5 535.5a97.602 97.602 0 0 0 13 19c.304.65.637 1.317 1 2a57.15 57.15 0 0 1-15 1c-.325-7.519.008-14.852 1-22Z"/><path style="opacity:1" fill="#effdfe" d="M268.5 547.5a112.97 112.97 0 0 0 .5 15c.374.916.874 1.75 1.5 2.5 13.329.5 26.663.667 40 .5v20h-117v-19a380.934 380.934 0 0 0 39-1c2.333-.333 3.667-1.667 4-4 .986-4.47 1.319-9.137 1-14h31Z"/><path style="opacity:1" fill="#ebf8f9" d="M455.5 490.5c1.329 24.837 1.329 49.837 0 75-7.02 6.688-14.02 13.355-21 20h-47a1607.773 1607.773 0 0 1 33.5-34c.5-8.327.666-16.66.5-25 .667 6.845 1.333 13.845 2 21a120.655 120.655 0 0 1 31 0c1-18.988 1.333-37.988 1-57Z"/><path style="opacity:1" fill="#90969a" d="M553.5 562.5c0-.667.333-1 1-1 1.333 32 1.333 64 0 96 .332-31.838-.002-63.504-1-95Z"/><path style="opacity:1" fill="#fdfdfd" d="M553.5 562.5a2256.409 2256.409 0 0 1 1 95c-.453.958-1.119 1.792-2 2.5l-9 4.5h-22v-50a54.7 54.7 0 0 0 5.5-4c.5-6.992.666-13.992.5-21a248.88 248.88 0 0 0 26-27Z"/><path style="opacity:1" fill="#bfcccd" d="M232.5 565.5a380.934 380.934 0 0 1-39 1v31c-.994-10.487-1.328-21.154-1-32h40Z"/><path style="opacity:1" fill="#1a6588" d="M470.5 483.5c.327 40.406-.006 80.739-1 121-18.169 8.055-37.169 13.055-57 15 16-16.667 32.333-33 49-49 .111.617.444 1.117 1 1.5 2.31.497 4.643.663 7 .5-.331-29.838.002-59.505 1-89Z"/><path style="opacity:1" fill="#e7fcfc" d="M193.5 585.5h117v12a380.934 380.934 0 0 0-39 1c-.958.453-1.792 1.119-2.5 2a840.27 840.27 0 0 0-.5 41h-32a840.27 840.27 0 0 0-.5-41 6.978 6.978 0 0 0-3.5-2.5 760.316 760.316 0 0 0-39-.5v-12Z"/><path style="opacity:1" fill="#edfefe" d="M512.5 547.5v61h-34v-61c11.44-.879 22.773-.879 34 0ZM597.5 547.5v61h-34v-61c11.44-.879 22.773-.879 34 0Z"/><path style="opacity:1" fill="#67757a" d="M310.5 565.5c.995 10.821 1.328 21.821 1 33h-40a380.934 380.934 0 0 1 39-1v-32Z"/><path style="opacity:1" fill="#2f6c99" d="M605.5 509.5h5c.333 55.004 0 110.004-1 165-1.083 2.638-2.416 4.971-4 7v-172Z"/><path style="opacity:1" fill="#010203" d="M317.5 604.5a194.123 194.123 0 0 0 26 9c.763.768 1.763 1.268 3 1.5a89.664 89.664 0 0 0-14 13.5 177.697 177.697 0 0 1-20-7 226.502 226.502 0 0 1-29-15.5 612.897 612.897 0 0 0 34-1.5ZM469.5 604.5c1.307 6.234 1.307 12.568 0 19-22.122 8.947-45.122 13.613-69 14a18.453 18.453 0 0 1-6-.5 443.547 443.547 0 0 1 18-17.5c19.831-1.945 38.831-6.945 57-15Z"/><path style="opacity:1" fill="#fcfcfc" d="M213.5 605.5h15c-.167 13.004 0 26.004.5 39a11.333 11.333 0 0 0 1.5 3.5c14.667.667 29.333.667 44 0l1.5-1.5 1-30a46.47 46.47 0 0 0 14.5 6.5 27.816 27.816 0 0 1 8 6 420.445 420.445 0 0 0 32 17 1016.27 1016.27 0 0 1 1 63.5c-8.46-2.55-16.127-6.717-23-12.5-5.093-1.382-9.426-4.049-13-8-6.4-2.062-12.067-5.396-17-10l-10-4-4-4a77.598 77.598 0 0 1-23-13 90.42 90.42 0 0 1-14-6 45.999 45.999 0 0 0-13-8l-1.5-1.5a684.346 684.346 0 0 1-.5-37Z"/><path style="opacity:1" fill="#e4fcfc" d="M387.5 585.5h47a2299.866 2299.866 0 0 1-57 57 342.787 342.787 0 0 0-37-1c-.165-3.35.002-6.683.5-10a3020.395 3020.395 0 0 1 46.5-46Z"/><path style="opacity:1" fill="#286187" d="M312.5 621.5a177.697 177.697 0 0 0 20 7 12.93 12.93 0 0 1-.5 5 412.861 412.861 0 0 1-19.5-12Z"/><path style="opacity:1" fill="#286993" d="M469.5 623.5c.973 2.448 1.306 5.115 1 8a110.248 110.248 0 0 1-14 5.5c-3.574 3.951-7.907 6.618-13 8a195.443 195.443 0 0 1-36 21 72.464 72.464 0 0 1-17 0c-2.871-.131-5.205-1.297-7-3.5a33.225 33.225 0 0 1-.5-14l9.5-9.5c2.865-.183 5.531-.683 8-1.5 23.878-.387 46.878-5.053 69-14Z"/><path style="opacity:1" fill="#dcfbfa" d="M562.5 523.5c.992 7.816 1.326 15.816 1 24v61h34v72h-119v-72h34a684.597 684.597 0 0 0 1.5 63c16 1.333 32 1.333 48 0 .5-49.332.667-98.666.5-148Z"/><path style="opacity:1" fill="#babec1" d="M521.5 614.5v50h22c-7.482.992-15.148 1.325-23 1a650.602 650.602 0 0 1 1-51Z"/><path style="opacity:1" fill="#90969a" d="M469.5 707.5a961.42 961.42 0 0 0-1-62c.283-.789.783-1.456 1.5-2a684.92 684.92 0 0 1-.5 64Z"/><path style="opacity:1" fill="#fcfcfc" d="M468.5 645.5a961.42 961.42 0 0 1 1 62c-.787 1.604-2.12 2.271-4 2l-2-39c-.333-2.333-1.667-3.667-4-4l-25-2a257.34 257.34 0 0 1 34-19Z"/><path style="opacity:1" fill="#c6c9cb" d="m434.5 664.5 25 2c-9.006.166-18.006 0-27-.5.544-.717 1.211-1.217 2-1.5Z"/><path style="opacity:1" fill="#caccce" d="m463.5 670.5 2 39c-.06.543-.393.876-1 1a400.778 400.778 0 0 1-1-40Z"/><path style="opacity:1" fill="#246a93" d="M186.5 604.5a61.281 61.281 0 0 0 15 1c-.167 14.337 0 28.671.5 43a18.839 18.839 0 0 1 6.5 5.5 55.63 55.63 0 0 1 18 10 114.425 114.425 0 0 1 30 18 103.393 103.393 0 0 1 26 13.5 1156.835 1156.835 0 0 1-68 1c-1.109-.79-2.442-1.29-4-1.5l1-1c-2.767-.678-4.934-2.178-6.5-4.5-2.537.677-4.537-.323-6-3l-1 1c-1.667-1-3-2.333-4-4-1.049 1.017-2.216 1.184-3.5.5l1-1a15.645 15.645 0 0 1-4-2.5c-1-25.325-1.333-50.658-1-76Z"/><path style="opacity:1" fill="#53646b" d="M377.5 673.5h79c.328 10.846-.006 21.513-1 32v-31c-26.172.331-52.172-.002-78-1Z"/><path style="opacity:1" fill="#dafefd" d="M340.5 641.5a342.787 342.787 0 0 1 37 1 10.515 10.515 0 0 1-2.5 3 156.422 156.422 0 0 0 0 25c.377 1.442 1.21 2.442 2.5 3 25.828.998 51.828 1.331 78 1v30h-114c.321-5.526-.012-10.86-1-16v-47Z"/><path style="opacity:1" fill="#d8fffd" d="M478.5 680.5h119v24h-119v-24Z"/><path style="opacity:1" fill="#abcccd" d="M340.5 688.5c.988 5.14 1.321 10.474 1 16h114v1h-115v-17Z"/><path style="opacity:1" fill="#68777c" d="M478.5 487.5v217h119a3599.26 3599.26 0 0 1-120 1c-.333-72.835.001-145.502 1-218Z"/><path style="opacity:1" fill="#1c688e" d="M282.5 695.5a279.06 279.06 0 0 0 33 18.5c6.973 5.651 14.64 9.984 23 13 1.374 3.683 4.041 5.349 8 5a279.412 279.412 0 0 1 19 12c4.871 1.741 9.204 4.408 13 8a35.157 35.157 0 0 1 10 5 66.364 66.364 0 0 0 9.5 2.5c5.889-.966 11.389-2.799 16.5-5.5 5.239-4.798 11.239-8.131 18-10 2.508-3.042 5.508-5.376 9-7 4.75-1.03 8.75-3.363 12-7a1147.103 1147.103 0 0 0 31-17 750.264 750.264 0 0 1 67 .5 22.296 22.296 0 0 1-5 3.5l1 1a118.288 118.288 0 0 0-17 7.5 10.756 10.756 0 0 0-2.5 3l-1-1c-1.049 1.607-2.549 2.273-4.5 2v3h-6v3h-5v3c-2.524-.071-4.524.929-6 3-2.12-1.372-3.12-.705-3 2a12.93 12.93 0 0 0-5 .5 101.657 101.657 0 0 0-10 7.5 9.108 9.108 0 0 1-5 1v3c-2.51-.446-4.51.22-6 2-2.216.703-4.049 2.036-5.5 4-1.813-1.109-2.646-.442-2.5 2a12.93 12.93 0 0 0-5 .5c-1.497 1.871-3.497 2.871-6 3-1.307 2.324-3.307 3.657-6 4l2 1a12.93 12.93 0 0 1-5 .5v3a9.86 9.86 0 0 0-6 1 35.217 35.217 0 0 1-8 4v3h-6v3h-6v3a8.43 8.43 0 0 0-4 .5l-5 5c-1.284.684-2.451.517-3.5-.5-1.263 2.968-3.263 3.968-6 3a2.428 2.428 0 0 0-.5 2h-12c-.507-1.359-1.507-2.359-3-3a137.913 137.913 0 0 0-11-4v-3c-2.133-1.386-5.133-2.386-9-3v-3h-5v-3c-3.005.247-5.505-.753-7.5-3l-1 1a4.934 4.934 0 0 1-.5-3h-6v-3h-5v-3h-6v-3c-5.922-1.727-11.089-4.727-15.5-9-.718.951-1.551 1.117-2.5.5 1.333-.667 1.333-1.333 0-2a12.93 12.93 0 0 0-5-.5v-3a58.97 58.97 0 0 1-11-3v-3c-8.654-3.265-16.321-6.932-23-11v-3h-6v-3h-5v-3a8.43 8.43 0 0 1-4-.5c-4.85-3.699-10.184-6.199-16-7.5v-3h-6v-3c-2.092-.061-3.592-1.061-4.5-3-1.299.466-2.799.466-4.5 0v-3c-1.788.285-3.455-.048-5-1-2.158-3.144-5.158-4.477-9-4v-3c-2.51.446-4.51-.22-6-2 22.839.331 45.506-.003 68-1Z"/><path style="opacity:1" fill="#fcfcfc" d="M337.5 714.5a3720.344 3720.344 0 0 1 122-1 1829.673 1829.673 0 0 0-61 35 97.288 97.288 0 0 0-12-5.5c-3.543-1.608-6.543-3.942-9-7-5.662-.917-10.329-3.583-14-8a78.488 78.488 0 0 1-23-13 4.934 4.934 0 0 0-3-.5Z"/><path style="opacity:1" fill="#5a6569" d="M459.5 713.5c-40.837-.332-81.503.001-122 1-.789-.283-1.456-.783-2-1.5 42.708-.828 84.042-.661 124 .5Z"/><path style="opacity:1" fill="#1a698e" d="M476.5 757.5c1.333.667 1.333.667 0 0Z"/></svg>