<?xml version="1.0" encoding="UTF-8"?>
<svg xmlns="http://www.w3.org/2000/svg" width="800" height="800" style="shape-rendering:geometricPrecision;text-rendering:geometricPrecision;image-rendering:optimizeQuality;fill-rule:evenodd;clip-rule:evenodd"><path style="opacity:1" fill="#93a5be" d="M576.5-.5h9a2.429 2.429 0 0 0 .5 2c1.049-1.017 2.216-1.184 3.5-.5a20.495 20.495 0 0 0 2.5 3.5c1.356-.88 2.856-1.214 4.5-1v3c2.822 1.432 6.489 2.432 11 3v3c2.092.061 3.592 1.061 4.5 3 2.537-.677 4.537.323 6 3 2.361-.566 4.194.434 5.5 3l2-1c.35 2.067 2.017 3.067 5 3v3h6v3h5v3h6v3a27.247 27.247 0 0 0 9 3c-.219 1.175.114 2.175 1 3a6.846 6.846 0 0 1 4-1v3a8.435 8.435 0 0 1 4 .5c-1.154.914-.987 1.747.5 2.5 1.299-.466 2.799-.466 4.5 0v3h6v3h5v3a428.986 428.986 0 0 0 20 8.5l-2 1c2.522.61 4.522 1.943 6 4 1.634.493 3.301.66 5 .5v3c2.908-.238 5.242.762 7 3 .951-.826 1.951-.992 3-.5l-1 1a6.977 6.977 0 0 1 3.5 2.5l1-1c.483.948.649 1.948.5 3h6v3h5v3c1.951-.273 3.451.393 4.5 2l1-1c6 4.386 12.5 7.886 19.5 10.5l-1 1c1.525 1.009 3.192 1.509 5 1.5v3h6v3h5v3c2.041.354 3.874.354 5.5 0 .483.948.649 1.948.5 3 2.836 1.276 5.836 1.942 9 2a7971.884 7971.884 0 0 1 2 251c-3.013-.128-5.513.872-7.5 3-2.411-1.653-3.578-.987-3.5 2-1.701.466-3.201.466-4.5 0-3.844 1.975-7.177 4.642-10 8l-1-1c-1.049 1.607-2.549 2.273-4.5 2v3c-3.937.204-7.604 1.204-11 3 .381 2.442-.286 3.109-2 2-.886.825-1.219 1.825-1 3h-6v3a12.93 12.93 0 0 0-5 .5c-1.079 2.043-2.746 3.376-5 4l1 1a12.93 12.93 0 0 1-5 .5v3a9.86 9.86 0 0 0-6 1c-3.423 1.192-6.256 3.192-8.5 6l-1-1c-1.049 1.607-2.549 2.273-4.5 2v3h-6v3h-5v3c-2.185.388-4.018 1.388-5.5 3-2.278-1.12-3.778-.287-4.5 2.5a101.955 101.955 0 0 0-13 5.5v3h-6v3h-6v3c-1.788-.285-3.455.048-5 1 1.129 2.029.629 2.363-1.5 1-1.712 3.452-4.212 4.452-7.5 3v3c-3.175-.591-5.509.409-7 3a382.592 382.592 0 0 0 5-24 2934.895 2934.895 0 0 1 86-49.5l8-6a190.921 190.921 0 0 0 21.5-10.5c.667-76 .667-152 0-228a7.293 7.293 0 0 1-2-3A695.406 695.406 0 0 1 702.5 97a457.332 457.332 0 0 0-22-11l-4-4a161.879 161.879 0 0 1-33-19c-6.4-2.062-12.067-5.396-17-10l-19-9a30.312 30.312 0 0 0-12-7c-2.365-3.714-5.698-5.714-10-6-7.082-6.364-15.416-9.031-25-8a12271.425 12271.425 0 0 1-129 74c-7.588 4.924-7.921 10.257-1 16a287.246 287.246 0 0 1 25 16 496.946 496.946 0 0 1 33 18c4.333.667 8.667.667 13 0a3162.857 3162.857 0 0 1 66-36.5 4261.045 4261.045 0 0 0 114 65.5c.826 17.093 1.326 34.26 1.5 51.5l2 2c.5 28.331.667 56.665.5 85a12.93 12.93 0 0 0-5 .5 679.07 679.07 0 0 0-23 15 5215.086 5215.086 0 0 1-13.5 6.5c-.383-.556-.883-.889-1.5-1-7.408-37.478-22.908-71.144-46.5-101l-1-5a42.319 42.319 0 0 1-8.5-6.5c-1.525-1.009-3.192-1.509-5-1.5-.453-.958-1.119-1.792-2-2.5a532.543 532.543 0 0 1-10-4c-2.107-1.264-3.107-3.097-3-5.5.252-2.82-.248-5.486-1.5-8a276.54 276.54 0 0 0-39.5-28.5c-3.6-1.073-6.6-.24-9 2.5a54.343 54.343 0 0 1-9-4c.848-5.808-1.485-9.642-7-11.5a305.923 305.923 0 0 0-58-17.5 14.698 14.698 0 0 0-3-3.5 991.986 991.986 0 0 1-67-39 114.233 114.233 0 0 1-13-6 191.292 191.292 0 0 0-20-13c-6.538-2.271-12.538-5.605-18-10a154.472 154.472 0 0 1-13-6 1013.157 1013.157 0 0 0-54-31c-9.098-8.801-19.765-11.801-32-9-4.194 3.22-8.86 5.554-14 7a2157.081 2157.081 0 0 1-68 39 55.63 55.63 0 0 1-18 10 12458.29 12458.29 0 0 1-28 18c-5.503 1.171-10.17 3.837-14 8a133.395 133.395 0 0 0-32 18c-2.71 1.747-5.71 2.747-9 3-1.574 1.826-2.407 3.993-2.5 6.5a6458.19 6458.19 0 0 0 1 226 3858.872 3858.872 0 0 0 115.5 67 730.474 730.474 0 0 0 4 20c-3.79.601-6.956-.399-9.5-3l-1 1c-2.509-1.937-5.343-2.937-8.5-3v-3h-6v-3h-3v-3h-6v-3h-5v-3c-2.921.354-5.254-.646-7-3-1.714 1.109-2.381.442-2-2a58.97 58.97 0 0 1-11-3v-3a27.267 27.267 0 0 0-9-3v-3c-2.908.238-5.242-.762-7-3a3.647 3.647 0 0 0-1.5 1c-1.667-1-3-2.333-4-4l-1 1a4.932 4.932 0 0 1-.5-3h-6v-3h-5v-3a544.412 544.412 0 0 1-29-14v-3a58.967 58.967 0 0 1-11-3v-3h-6v-3c-4.013-1.674-8.013-3.341-12-5 .008-83.648.008-167.148 0-250.5a169.104 169.104 0 0 0 15-5.5v-3a58.967 58.967 0 0 0 11-3v-3a417.79 417.79 0 0 0 15-7 32.686 32.686 0 0 0 8.5-6l1 1c1.049-1.607 2.549-2.273 4.5-2v-3a59.029 59.029 0 0 1 11-3 4.932 4.932 0 0 1 .5-3l1 1c2.015-3.065 4.515-4.065 7.5-3v-3h5v-3c1.7.16 3.366-.007 5-.5 1.478-2.057 3.478-3.39 6-4l-2-1a18.436 18.436 0 0 1 6-.5v-3a87.51 87.51 0 0 0 14-5v-3h6v-3h5v-3c1.701-.466 3.201-.466 4.5 0 3.279-4.047 7.946-7.047 14-9a18.264 18.264 0 0 0 5-4l1 1c1.049-1.607 2.549-2.273 4.5-2v-3h5v-3h6v-3c4.612-1.195 9.279-2.862 14-5v-3c1.701-.466 3.201-.466 4.5 0 .908-1.939 2.408-2.939 4.5-3v-3h6v-3c1.788.285 3.455-.048 5-1a38.767 38.767 0 0 0 7-4.5 49.25 49.25 0 0 1 14 0c2.025 1.677 4.359 2.677 7 3-1.134 1.016-.801 1.683 1 2l5 1-1 1c2.622 3.073 5.955 4.573 10 4.5v3h6v3c3.191.262 5.858 1.596 8 4a9.864 9.864 0 0 0 6 1v3c3.58 1.22 7.247 2.386 11 3.5l-2 1c2.767.678 4.934 2.178 6.5 4.5l1-1c3.769 1.797 7.102 4.13 10 7a3.942 3.942 0 0 1 2-1c1.482 1.612 3.315 2.612 5.5 3v3h6v3h5v3h6v3a87.51 87.51 0 0 0 14 5v3c1.699-.16 3.366.007 5 .5l-1 1c1.525 1.009 3.192 1.509 5 1.5v3h6v3h5v3c2.985-1.065 5.485-.065 7.5 3l1-1c.483.948.649 1.948.5 3h5v3h6v3c2.133 1.386 5.133 2.386 9 3v3c2.908-.238 5.242.762 7 3l2-1c.35 2.067 2.017 3.067 5 3v3h6v3c2.516-.255 4.85-1.089 7-2.5a626.207 626.207 0 0 1 29-17c.837-1.011 1.17-2.178 1-3.5 4.493-.216 7.993-2.216 10.5-6 1.011.837 2.178 1.17 3.5 1v-3a59.031 59.031 0 0 0 11-3v-3c1.808.009 3.475-.491 5-1.5l-1-1a12.935 12.935 0 0 1 5-.5v-3a9.864 9.864 0 0 0 6-1 35.213 35.213 0 0 1 8-4v-3h6v-3a59.031 59.031 0 0 1 11-3v-3c1.808.009 3.475-.491 5-1.5-1.388-.89-1.222-1.39.5-1.5 2.071 1.167 3.571.5 4.5-2 6.434-2.343 12.767-5.343 19-9v-3a59.031 59.031 0 0 1 11-3 4.934 4.934 0 0 1 .5-3l1 1c1.995-2.247 4.495-3.247 7.5-3v-3h5v-3h6v-3c1.808.009 3.475-.491 5-1.5l-1-1a12.936 12.936 0 0 1 5-.5v-3c3.552.188 6.219-1.145 8-4Z"/><path style="opacity:1" fill="#273339" d="M645.5 426.5a348.078 348.078 0 0 1 2-15 1953.115 1953.115 0 0 0 85-49.5 84.545 84.545 0 0 1 18-8.5 7901.316 7901.316 0 0 0-1.5-216 2129.254 2129.254 0 0 1-37.5-21.5c-3.415-.406-6.082-2.072-8-5a91.311 91.311 0 0 1-23-13 457.332 457.332 0 0 0-22-11c-2.508-3.042-5.508-5.376-9-7a457.332 457.332 0 0 1-22-11l-24-15c-3.415-.406-6.082-2.072-8-5a90.401 90.401 0 0 0-14-6c-5.722-6.435-12.722-8.768-21-7-7.36 5.663-15.36 9.996-24 13-3.619 3.977-7.952 6.644-13 8-2.537 2.546-5.537 4.212-9 5l-4 4-10 4a2551.356 2551.356 0 0 0-60 36 7185.005 7185.005 0 0 1 26 16 114.065 114.065 0 0 0 14 6c4.2 3.6 8.867 6.433 14 8.5a684.54 684.54 0 0 1 19-8.5 43.593 43.593 0 0 1 13-8c2.365-3.714 5.698-5.714 10-6a705.673 705.673 0 0 1 21-12c4.719-2.307 9.719-2.974 15-2a113.107 113.107 0 0 0 28 15l5 5a182.852 182.852 0 0 1 35 20 193.115 193.115 0 0 1 32 19 83.62 83.62 0 0 1 18.5 9.5l3 5c.667 48.667.667 97.333 0 146-5.181 6.173-11.681 10.34-19.5 12.5a102.972 102.972 0 0 1-22 13 55.747 55.747 0 0 1-5.5 4.5 12.93 12.93 0 0 0-.5 5c-.503-6.388-1.837-12.721-4-19 .617.111 1.117.444 1.5 1 4.529-2.173 9.029-4.339 13.5-6.5a679.07 679.07 0 0 1 23-15 12.93 12.93 0 0 1 5-.5c.167-28.335 0-56.669-.5-85l-2-2c-.174-17.24-.674-34.407-1.5-51.5a4261.045 4261.045 0 0 1-114-65.5 3162.857 3162.857 0 0 0-66 36.5 42.479 42.479 0 0 1-13 0 496.946 496.946 0 0 0-33-18 287.246 287.246 0 0 0-25-16c-6.921-5.743-6.588-11.076 1-16a12271.425 12271.425 0 0 0 129-74c9.584-1.031 17.918 1.636 25 8 4.302.286 7.635 2.286 10 6a30.312 30.312 0 0 1 12 7l19 9c4.933 4.604 10.6 7.938 17 10a161.879 161.879 0 0 0 33 19l4 4a457.332 457.332 0 0 1 22 11 695.406 695.406 0 0 0 56.5 32.5 7.293 7.293 0 0 0 2 3c.667 76 .667 152 0 228a190.921 190.921 0 0 1-21.5 10.5l-8 6a2934.895 2934.895 0 0 0-86 49.5Z"/><path style="opacity:1" fill="#28343a" d="M442.5 142.5a299.23 299.23 0 0 0-28-3 206.267 206.267 0 0 1-15-10.5 546.6 546.6 0 0 0-35-18 108.394 108.394 0 0 1-19-13 1516.16 1516.16 0 0 1-91-52A228.066 228.066 0 0 0 230 34.5 112.066 112.066 0 0 0 206.5 48l-10 4-3 3c-6.771 2.445-12.771 6.111-18 11l-10 4-4 4a520.666 520.666 0 0 0-59 34l-9 3c-3.796 3.592-8.13 6.259-13 8A361.546 361.546 0 0 1 48 137.5c-.667 72-.667 144 0 216a8644.97 8644.97 0 0 1 103.5 60 201.002 201.002 0 0 1 2 14 3858.872 3858.872 0 0 1-115.5-67 6458.19 6458.19 0 0 1-1-226c.093-2.507.926-4.674 2.5-6.5 3.29-.253 6.29-1.253 9-3a133.395 133.395 0 0 1 32-18c3.83-4.163 8.497-6.829 14-8 9.313-5.97 18.646-11.97 28-18a55.63 55.63 0 0 0 18-10c22.924-12.6 45.591-25.6 68-39 5.14-1.446 9.806-3.78 14-7 12.235-2.801 22.902.199 32 9a1013.157 1013.157 0 0 1 54 31 154.472 154.472 0 0 0 13 6c5.462 4.395 11.462 7.729 18 10a191.292 191.292 0 0 1 20 13c4.224 2.28 8.557 4.28 13 6a991.986 991.986 0 0 0 67 39 14.698 14.698 0 0 1 3 3.5Z"/><path style="opacity:1" fill="#fdfdfd" d="M414.5 139.5c-3.555.554-5.888 2.554-7 6l-2 51a68.695 68.695 0 0 1-14-7c.167-15.337 0-30.67-.5-46-2.4-3.116-5.567-4.449-9.5-4a233.46 233.46 0 0 0-55 10 168.167 168.167 0 0 1-8-1.5 331.67 331.67 0 0 0-40-23 846.02 846.02 0 0 1-33-20c-3.415-.406-6.082-2.072-8-5a42.498 42.498 0 0 0-13 0 226.438 226.438 0 0 0-29 17c-3.415.406-6.082 2.072-8 5a90.42 90.42 0 0 1-14 6c-3.574 3.951-7.907 6.618-13 8-6.962 5.648-14.628 9.981-23 13a230.435 230.435 0 0 1-32.5 19.5 2946.23 2946.23 0 0 0-1 153 213.392 213.392 0 0 0 27.5 15.5 70.186 70.186 0 0 0 18 10c2.419 1.509 3.419 3.675 3 6.5a315.112 315.112 0 0 0-1 60 8644.97 8644.97 0 0 0-103.5-60c-.667-72-.667-144 0-216A361.546 361.546 0 0 0 80.5 119c4.87-1.741 9.204-4.408 13-8l9-3a520.666 520.666 0 0 1 59-34l4-4 10-4c5.229-4.889 11.229-8.555 18-11l3-3 10-4A112.066 112.066 0 0 1 230 34.5 228.066 228.066 0 0 1 254.5 46a1516.16 1516.16 0 0 0 91 52 108.394 108.394 0 0 0 19 13 546.6 546.6 0 0 1 35 18 206.267 206.267 0 0 0 15 10.5Z"/><path style="opacity:1" fill="#fdfefe" d="M647.5 411.5a287.587 287.587 0 0 0-1-57 12.93 12.93 0 0 1 .5-5 55.747 55.747 0 0 0 5.5-4.5 102.972 102.972 0 0 0 22-13c7.819-2.16 14.319-6.327 19.5-12.5.667-48.667.667-97.333 0-146l-3-5a83.62 83.62 0 0 0-18.5-9.5 193.115 193.115 0 0 0-32-19 182.852 182.852 0 0 0-35-20l-5-5a113.107 113.107 0 0 1-28-15c-5.281-.974-10.281-.307-15 2a705.673 705.673 0 0 0-21 12c-4.302.286-7.635 2.286-10 6a43.593 43.593 0 0 0-13 8 684.54 684.54 0 0 0-19 8.5 50.162 50.162 0 0 1-14-8.5 114.065 114.065 0 0 1-14-6 7185.005 7185.005 0 0 0-26-16 2551.356 2551.356 0 0 1 60-36l10-4 4-4c3.463-.788 6.463-2.454 9-5 5.048-1.356 9.381-4.023 13-8 8.64-3.004 16.64-7.337 24-13 8.278-1.768 15.278.565 21 7a90.401 90.401 0 0 1 14 6c1.918 2.928 4.585 4.594 8 5l24 15a457.332 457.332 0 0 0 22 11c3.492 1.624 6.492 3.958 9 7a457.332 457.332 0 0 1 22 11 91.311 91.311 0 0 0 23 13c1.918 2.928 4.585 4.594 8 5a2129.254 2129.254 0 0 0 37.5 21.5 7901.316 7901.316 0 0 1 1.5 216 84.545 84.545 0 0 0-18 8.5 1953.115 1953.115 0 0 1-85 49.5Z"/><path style="opacity:1" fill="#273339" d="M326.5 149.5a97.237 97.237 0 0 0-18 7c-5.673-5.407-12.34-9.24-20-11.5a301.986 301.986 0 0 0-51-30l-4.5-4.5c-1.604 1.149-3.27 1.149-5 0a1068.258 1068.258 0 0 1-78.5 45.5c-5.201 4.797-11.201 8.13-18 10-4.849 4.198-10.183 7.531-16 10l-2.5 2.5c-.5 45.332-.667 90.665-.5 136 5.301 1.324 9.968 3.824 14 7.5l10 4c1.918 2.928 4.585 4.594 8 5 2.902 3.41 6.568 5.243 11 5.5a173.951 173.951 0 0 0-3 17c.419-2.825-.581-4.991-3-6.5a70.186 70.186 0 0 1-18-10 213.392 213.392 0 0 1-27.5-15.5 2946.23 2946.23 0 0 1 1-153 230.435 230.435 0 0 0 32.5-19.5c8.372-3.019 16.038-7.352 23-13 5.093-1.382 9.426-4.049 13-8a90.42 90.42 0 0 0 14-6c1.918-2.928 4.585-4.594 8-5a226.438 226.438 0 0 1 29-17 42.498 42.498 0 0 1 13 0c1.918 2.928 4.585 4.594 8 5a846.02 846.02 0 0 0 33 20 331.67 331.67 0 0 1 40 23c2.668.567 5.334 1.067 8 1.5Z"/><path style="opacity:1" fill="#93a5be" d="M308.5 156.5c-37.822 14.58-70.155 37.08-97 67.5-6.206 2.524-9.706 7.024-10.5 13.5-22.713 29.433-37.88 62.433-45.5 99-4.432-.257-8.098-2.09-11-5.5-3.415-.406-6.082-2.072-8-5l-10-4c-4.032-3.676-8.699-6.176-14-7.5-.167-45.335 0-90.668.5-136l2.5-2.5c5.817-2.469 11.151-5.802 16-10 6.799-1.87 12.799-5.203 18-10a1068.258 1068.258 0 0 0 78.5-45.5c1.73 1.149 3.396 1.149 5 0l4.5 4.5a301.986 301.986 0 0 1 51 30c7.66 2.26 14.327 6.093 20 11.5Z"/><path style="opacity:.999" fill="#242021" d="M391.5 189.5v13c.166 7.008 0 14.008-.5 21l-3.5 3.5a151.57 151.57 0 0 0-40 8.5c-18.993 6.325-35.993 15.992-51 29-5.602 3.933-10.602 8.599-15 14a139.724 139.724 0 0 0-13 15c-33.7 49.949-39.2 102.949-16.5 159a266.762 266.762 0 0 0 16.5 29 139.724 139.724 0 0 0 13 15c16.238 17.789 35.572 31.122 58 40 14.166 6.572 29.166 10.238 45 11 8.582.97 17.249 1.303 26 1 12.063-.951 23.73-3.284 35-7 21.321-5.992 40.321-16.158 57-30.5a16.242 16.242 0 0 1 8 0 129.17 129.17 0 0 1 10 8.5c3 3.667 6.333 7 10 10a1704.523 1704.523 0 0 0 34.5 35c2 3 2 6 0 9-11.554 10.737-24.054 20.07-37.5 28a331.817 331.817 0 0 1-44 21c-57.134 18.946-114.134 18.613-171-1a425.943 425.943 0 0 1-43-21c-20.928-12.822-39.594-28.489-56-47-4.01-4.707-8.01-9.374-12-14a8258.315 8258.315 0 0 1-15-22c-13.548-21.623-23.215-44.956-29-70a730.474 730.474 0 0 1-4-20 201.002 201.002 0 0 0-2-14 315.112 315.112 0 0 1 1-60 173.951 173.951 0 0 1 3-17c7.62-36.567 22.787-69.567 45.5-99 .794-6.476 4.294-10.976 10.5-13.5 26.845-30.42 59.178-52.92 97-67.5a97.237 97.237 0 0 1 18-7 233.46 233.46 0 0 1 55-10c3.933-.449 7.1.884 9.5 4 .5 15.33.667 30.663.5 46Z"/><path style="opacity:1" fill="#252021" d="M414.5 139.5a299.23 299.23 0 0 1 28 3 305.923 305.923 0 0 1 58 17.5c5.515 1.858 7.848 5.692 7 11.5a32.864 32.864 0 0 1-5 4.5c-2 .667-4 .667-6 0a239.812 239.812 0 0 0-51-16.5c-2.338-1.54-5.005-2.206-8-2a185.422 185.422 0 0 0-11-1c-1.068-.934-2.401-1.268-4-1v58h6c28.962 4.898 55.129 16.231 78.5 34a2235.82 2235.82 0 0 0 39.5-40 204.835 204.835 0 0 0-29.5-21c-1.747-3.625-1.914-7.292-.5-11 2.4-2.74 5.4-3.573 9-2.5a276.54 276.54 0 0 1 39.5 28.5c1.252 2.514 1.752 5.18 1.5 8a47.06 47.06 0 0 1-11 12 1076.763 1076.763 0 0 1-39 39c-2.629 3.981-6.296 5.815-11 5.5-17.343-14.179-36.676-24.679-58-31.5a230.208 230.208 0 0 0-36-7.5l-3.5-3.5a72.367 72.367 0 0 1-.5-12v-66c1.112-3.446 3.445-5.446 7-6Z"/><path style="opacity:1" fill="#c5c4c4" d="M407.5 145.5v53c-1.333 0-2-.667-2-2l2-51Z"/><path style="opacity:1" fill="#5c697b" d="M366.5 156.5h9c.333 18.679 0 37.345-1 56-64.727 11.766-110.894 47.433-138.5 107-24.177 65.431-15.177 125.765 27 181 54.977 60.312 121.477 77.812 199.5 52.5 15.479-6.175 29.979-14.009 43.5-23.5a1045.542 1045.542 0 0 1 39 38c.163 1.887-.671 3.387-2.5 4.5-67.131 48.966-140.465 60.966-220 36-74.209-28.543-123.376-80.71-147.5-156.5-23.441-100.678 4.392-183.845 83.5-249.5 32.4-23.7 68.4-38.866 108-45.5Z"/><path style="opacity:1" fill="#815a51" d="M426.5 156.5h-3v56c1.915-.284 3.581.049 5 1h-6v-58c1.599-.268 2.932.066 4 1Z"/><path style="opacity:1" fill="#f47555" d="M426.5 156.5c3.679.224 7.346.558 11 1 2.405 1.268 5.072 1.935 8 2a239.812 239.812 0 0 1 51 16.5c2 .667 4 .667 6 0a32.864 32.864 0 0 0 5-4.5 54.343 54.343 0 0 0 9 4c-1.414 3.708-1.247 7.375.5 11a204.835 204.835 0 0 1 29.5 21 2235.82 2235.82 0 0 1-39.5 40c-23.371-17.769-49.538-29.102-78.5-34-1.419-.951-3.085-1.284-5-1v-56h3Z"/><path style="opacity:1" fill="#895b4f" d="M437.5 157.5c2.995-.206 5.662.46 8 2-2.928-.065-5.595-.732-8-2Z"/><path style="opacity:1" fill="#273238" d="M391.5 189.5a68.695 68.695 0 0 0 14 7c0 1.333.667 2 2 2v13a94.942 94.942 0 0 1-16-9v-13Z"/><path style="opacity:1" fill="#92a4bd" d="M391.5 202.5a94.942 94.942 0 0 0 16 9 72.367 72.367 0 0 0 .5 12l3.5 3.5a230.208 230.208 0 0 1 36 7.5 1968.485 1968.485 0 0 1 68 40 2716.916 2716.916 0 0 0 3.5 106c2.21 2.79 5.044 3.623 8.5 2.5a716.465 716.465 0 0 0 24-15 31.774 31.774 0 0 1 7-2.5c1.379 6.117 2.046 12.45 2 19a1603.67 1603.67 0 0 1-57 33c.167-41.668 0-83.335-.5-125-.833-2.167-2.333-3.667-4.5-4.5-18-.667-36-.667-54 0l-3.5 3.5c-.5 53.999-.667 107.999-.5 162l-10 7c.167-44.001 0-88.001-.5-132-.833-2.167-2.333-3.667-4.5-4.5-18-.667-36-.667-54 0-1.964 1.451-3.297 3.284-4 5.5l-2 130a31.447 31.447 0 0 1-5-4.5 4.934 4.934 0 0 0-3-.5c.486-33.42-.014-66.754-1.5-100l-2.5-2.5a783.858 783.858 0 0 0-56 0l-2.5 2.5c-.667 41-.667 82 0 123 1.107 2.613 2.94 4.28 5.5 5-.166 9.672 0 19.339.5 29a272.604 272.604 0 0 0 34.5 20.5c1.884 1.049 3.218 2.549 4 4.5-22.428-8.878-41.762-22.211-58-40v-218c4.398-5.401 9.398-10.067 15-14a8.43 8.43 0 0 0 4-.5 1721.422 1721.422 0 0 1 47-28.5 151.57 151.57 0 0 1 40-8.5l3.5-3.5c.5-6.992.666-13.992.5-21Z"/><path style="opacity:1" fill="#283339" d="M566.5 209.5c-.107 2.403.893 4.236 3 5.5a532.543 532.543 0 0 0 10 4c.881.708 1.547 1.542 2 2.5-4.974.313-8.641 2.646-11 7a252.02 252.02 0 0 1-9-5.5l-6-1.5a47.06 47.06 0 0 0 11-12Z"/><path style="opacity:1" fill="#fbfbfb" d="m555.5 221.5 6 1.5a252.02 252.02 0 0 0 9 5.5 1306.963 1306.963 0 0 0-43 43 4.934 4.934 0 0 0-.5-3c-2.167-1.5-4-3.333-5.5-5.5-1.284-.684-2.451-.517-3.5.5-1.039-.744-1.539-1.744-1.5-3a1076.763 1076.763 0 0 0 39-39Z"/><path style="opacity:.997" fill="#252121" d="M581.5 221.5c1.808-.009 3.475.491 5 1.5a42.319 42.319 0 0 0 8.5 6.5l1 5c23.592 29.856 39.092 63.522 46.5 101 2.163 6.279 3.497 12.612 4 19a287.587 287.587 0 0 1 1 57 348.078 348.078 0 0 0-2 15 382.592 382.592 0 0 1-5 24c-5.646 25.283-15.646 48.616-30 70-4.997 7.325-9.997 14.658-15 22a102.1 102.1 0 0 1-12 12 24.935 24.935 0 0 1-7-.5 1601.055 1601.055 0 0 0-34-33.5 57.51 57.51 0 0 1-9-9c-5.117-3.778-9.117-8.445-12-14-.202-2.489.298-4.823 1.5-7a159.201 159.201 0 0 0 9.5-12c15.131-22.722 24.131-47.722 27-75 .99-6.145 1.323-12.478 1-19 .046-6.55-.621-12.883-2-19 .31-4.2-.357-8.2-2-12-5.125-23.241-14.792-44.241-29-63-6.599-6.408-6.599-12.741 0-19a1306.963 1306.963 0 0 1 43-43c2.359-4.354 6.026-6.687 11-7Z"/><path style="opacity:1" fill="#28333a" d="M347.5 235.5a1721.422 1721.422 0 0 0-47 28.5 8.43 8.43 0 0 1-4 .5c15.007-13.008 32.007-22.675 51-29Z"/><path style="opacity:1" fill="#f4c154" d="M579.5 241.5c1.871.359 3.371 1.359 4.5 3 49.861 68.176 61.528 142.509 35 223-9.419 24.853-22.419 47.52-39 68L539.5 495c37.008-50.885 45.841-106.385 26.5-166.5-5.915-17.17-14.415-32.836-25.5-47l39-40Z"/><path style="opacity:1" fill="#263238" d="M447.5 234.5c21.324 6.821 40.657 17.321 58 31.5 4.704.315 8.371-1.519 11-5.5-.039 1.256.461 2.256 1.5 3 1.049-1.017 2.216-1.184 3.5-.5 1.5 2.167 3.333 4 5.5 5.5.483.948.649 1.948.5 3-6.599 6.259-6.599 12.592 0 19-.167 26.002 0 52.002.5 78a48.835 48.835 0 0 0 13.5-8.5 289.466 289.466 0 0 1 15-6.5c1.643 3.8 2.31 7.8 2 12a31.774 31.774 0 0 0-7 2.5 716.465 716.465 0 0 1-24 15c-3.456 1.123-6.29.29-8.5-2.5a2716.916 2716.916 0 0 1-3.5-106 1968.485 1968.485 0 0 0-68-40Z"/><path style="opacity:1" fill="#263137" d="M281.5 278.5v218a139.724 139.724 0 0 1-13-15 4419.605 4419.605 0 0 0 0-188 139.724 139.724 0 0 1 13-15Z"/><path style="opacity:1" fill="#262020" d="M503.5 417.5v13c.167 15.337 0 30.67-.5 46a11.532 11.532 0 0 1-3.5 4.5 372.33 372.33 0 0 1-54 1c-2.07-.948-3.57-2.448-4.5-4.5a50.464 50.464 0 0 1-.5-10v-14c-.167-54.001 0-108.001.5-162l3.5-3.5c18-.667 36-.667 54 0 2.167.833 3.667 2.333 4.5 4.5.5 41.665.667 83.332.5 125Z"/><path style="opacity:1" fill="#f9f9f9" d="M527.5 290.5c14.208 18.759 23.875 39.759 29 63a289.466 289.466 0 0 0-15 6.5 48.835 48.835 0 0 1-13.5 8.5c-.5-25.998-.667-51.998-.5-78Z"/><path style="opacity:1" fill="#fcfcfc" d="M268.5 293.5a4419.605 4419.605 0 0 1 0 188 266.762 266.762 0 0 1-16.5-29c-22.7-56.051-17.2-109.051 16.5-159Z"/><path style="opacity:1" fill="#f05832" d="M473.5 303.5v163h-17v-163c5.975-.08 11.642-.08 17 0Z"/><path style="opacity:1" fill="#f47554" d="M473.5 303.5h14v163h-14v-163Z"/><path style="opacity:1" fill="#232021" d="M430.5 460.5v12c.223 4.569-1.777 7.569-6 9h-52c-3.973-1.603-5.639-4.603-5-9v-143c.703-2.216 2.036-4.049 4-5.5 18-.667 36-.667 54 0 2.167.833 3.667 2.333 4.5 4.5.5 43.999.667 87.999.5 132Z"/><path style="opacity:1" fill="#778396" d="M367.5 329.5v131c-.992.172-1.658-.162-2-1l2-130Z"/><path style="opacity:1" fill="#aa8239" d="M383.5 339.5v126h30v-126a4031.82 4031.82 0 0 1 1 127h-32a4031.82 4031.82 0 0 1 1-127Z"/><path style="opacity:1" fill="#f3b745" d="M399.5 339.5h14v126h-14v-126Z"/><path style="opacity:1" fill="#dea841" d="M383.5 339.5h16v126h-16v-126Z"/><path style="opacity:1" fill="#242021" d="M357.5 454.5a394.75 394.75 0 0 1-1 22c-.754 2.591-2.421 4.424-5 5.5-13.996.5-27.996.667-42 .5h-9c-2.56-.72-4.393-2.387-5.5-5-.667-41-.667-82 0-123l2.5-2.5a783.858 783.858 0 0 1 56 0l2.5 2.5a1689.035 1689.035 0 0 1 1.5 100Z"/><path style="opacity:1" fill="#ab8239" d="M309.5 366.5h32v100h-32v-100Z"/><path style="opacity:1" fill="#f3b745" d="M326.5 367.5h14v98h-14v-98Z"/><path style="opacity:1" fill="#dea841" d="M326.5 367.5v98h-16v-98h16Z"/><path style="opacity:1" fill="#273339" d="M560.5 384.5c.323 6.522-.01 12.855-1 19 .262-1.478-.071-2.811-1-4-1.72 1.434-3.72 2.267-6 2.5a77.598 77.598 0 0 1-23 13c-5.236 4.899-11.236 8.566-18 11-1.866 3.054-4.533 4.554-8 4.5v-13a1603.67 1603.67 0 0 0 57-33Z"/><path style="opacity:1" fill="#fdfdfd" d="M559.5 403.5c-2.869 27.278-11.869 52.278-27 75a609.664 609.664 0 0 0-21 10.5c-3.83 4.163-8.497 6.829-14 8-6.888 5.613-14.554 9.946-23 13l-4 4a4988.208 4988.208 0 0 0-60 34.5c-8.751.303-17.418-.03-26-1a394.272 394.272 0 0 1-22-13.5l-10-4c-3.746-3.586-8.079-6.253-13-8a261.839 261.839 0 0 1-22-14c-1.525-1.009-3.192-1.509-5-1.5.372-2.522-.461-4.522-2.5-6a162.597 162.597 0 0 1-.5-18c14.004.167 28.004 0 42-.5 2.579-1.076 4.246-2.909 5-5.5a345.94 345.94 0 0 0 2-8c2.683 2.085 5.683 3.418 9 4-.639 4.397 1.027 7.397 5 9 5.745.459 11.411 1.625 17 3.5 3.681 4.321 8.348 5.654 14 4 5.95-5.569 12.95-8.069 21-7.5 4.223-1.431 6.223-4.431 6-9a941.096 941.096 0 0 0 10-5c-.165 3.35.002 6.683.5 10 .93 2.052 2.43 3.552 4.5 4.5a372.33 372.33 0 0 0 54-1 11.532 11.532 0 0 0 3.5-4.5c.5-15.33.667-30.663.5-46 3.467.054 6.134-1.446 8-4.5 6.764-2.434 12.764-6.101 18-11a77.598 77.598 0 0 0 23-13c2.28-.233 4.28-1.066 6-2.5.929 1.189 1.262 2.522 1 4Z"/><path style="opacity:1" fill="#2a353b" d="M357.5 454.5a4.934 4.934 0 0 1 3 .5 31.447 31.447 0 0 0 5 4.5c.342.838 1.008 1.172 2 1v12c-3.317-.582-6.317-1.915-9-4a345.94 345.94 0 0 1-2 8 394.75 394.75 0 0 0 1-22Z"/><path style="opacity:1" fill="#273339" d="M440.5 453.5v14a941.096 941.096 0 0 1-10 5v-12l10-7Z"/><path style="opacity:1" fill="#283339" d="M532.5 478.5a159.201 159.201 0 0 1-9.5 12c-1.202 2.177-1.702 4.511-1.5 7a126.98 126.98 0 0 1-21 11.5c-5.107 4.888-11.107 8.221-18 10a13.92 13.92 0 0 1-3 4l-10 4-4 4a244.064 244.064 0 0 0-20 10.5c-11.27 3.716-22.937 6.049-35 7a4988.208 4988.208 0 0 1 60-34.5l4-4c8.446-3.054 16.112-7.387 23-13 5.503-1.171 10.17-3.837 14-8a609.664 609.664 0 0 1 21-10.5Z"/><path style="opacity:1" fill="#273339" d="M300.5 482.5h9c-.166 6.009.001 12.009.5 18 2.039 1.478 2.872 3.478 2.5 6 1.808-.009 3.475.491 5 1.5a261.839 261.839 0 0 0 22 14c4.921 1.747 9.254 4.414 13 8l10 4a394.272 394.272 0 0 0 22 13.5c-15.834-.762-30.834-4.428-45-11-.782-1.951-2.116-3.451-4-4.5a272.604 272.604 0 0 1-34.5-20.5c-.5-9.661-.666-19.328-.5-29Z"/><path style="opacity:1" fill="#2c3439" d="M372.5 481.5h52c-8.05-.569-15.05 1.931-21 7.5-5.652 1.654-10.319.321-14-4-5.589-1.875-11.255-3.041-17-3.5Z"/><path style="opacity:1" fill="#8d9fb7" d="M521.5 497.5c2.883 5.555 6.883 10.222 12 14l-13 8a129.17 129.17 0 0 0-10-8.5 16.242 16.242 0 0 0-8 0c-16.679 14.342-35.679 24.508-57 30.5a244.064 244.064 0 0 1 20-10.5l4-4 10-4a13.92 13.92 0 0 0 3-4c6.893-1.779 12.893-5.112 18-10a126.98 126.98 0 0 0 21-11.5Z"/><path style="opacity:1" fill="#283339" d="M533.5 511.5a57.51 57.51 0 0 0 9 9 144.963 144.963 0 0 1-12 6v3c-3.667-3-7-6.333-10-10l13-8Z"/><path style="opacity:1" fill="#93a5be" d="M186.5 517.5c4.967 7.31 9.967 14.644 15 22-.167 36.335 0 72.668.5 109 5.48 4.594 11.647 8.094 18.5 10.5a82.842 82.842 0 0 0 19 11 147.725 147.725 0 0 1 17 12c13.267 5.247 25.6 12.247 37 21a24.569 24.569 0 0 0 8 3 201.636 201.636 0 0 1 27 17l10 4c1.374 3.683 4.041 5.349 8 5a279.412 279.412 0 0 1 19 12c4.871 1.741 9.204 4.408 13 8a91.921 91.921 0 0 0 19 7.5 201.888 201.888 0 0 1 11-2.5 78.988 78.988 0 0 0 14-9l10-4c4.933-4.604 10.6-7.938 17-10l4-4a319.99 319.99 0 0 0 46-27 91.311 91.311 0 0 0 23-13 157.436 157.436 0 0 0 27-15 24.569 24.569 0 0 1 8-3 219.87 219.87 0 0 1 13-10c8.275-2.564 15.442-7.064 21.5-13.5.113-2.474 1.113-4.474 3-6 .5-33.332.667-66.665.5-100 5.003-7.342 10.003-14.675 15-22 .333 51.338 0 102.671-1 154-1.671 2.01-2.338 4.343-2 7-3.064 1.19-5.731 2.857-8 5h-3v3a58.97 58.97 0 0 0-11 3v3c-1.859-.039-3.192.794-4 2.5a12.93 12.93 0 0 1-5 .5v3c-2.582-.475-4.582.192-6 2-2.281 1.928-4.947 2.928-8 3v3h-6v3c-4.045-.073-7.378 1.427-10 4.5l1 1a118.288 118.288 0 0 0-17 7.5 10.756 10.756 0 0 0-2.5 3l-1-1c-1.049 1.607-2.549 2.273-4.5 2v3h-6v3h-5v3c-2.524-.071-4.524.929-6 3-2.12-1.372-3.12-.705-3 2a12.93 12.93 0 0 0-5 .5 101.657 101.657 0 0 0-10 7.5 9.108 9.108 0 0 1-5 1v3c-2.51-.446-4.51.22-6 2-2.216.703-4.049 2.036-5.5 4-1.813-1.109-2.646-.442-2.5 2a12.93 12.93 0 0 0-5 .5c-1.497 1.871-3.497 2.871-6 3-1.307 2.324-3.307 3.657-6 4l2 1a12.93 12.93 0 0 1-5 .5v3a9.86 9.86 0 0 0-6 1 35.217 35.217 0 0 1-8 4v3h-6v3h-6v3a8.43 8.43 0 0 0-4 .5l-5 5c-1.284.684-2.451.517-3.5-.5-1.263 2.968-3.263 3.968-6 3a2.428 2.428 0 0 0-.5 2h-12c-.507-1.359-1.507-2.359-3-3a137.913 137.913 0 0 0-11-4v-3c-2.133-1.386-5.133-2.386-9-3v-3h-5v-3c-3.005.247-5.505-.753-7.5-3l-1 1a4.934 4.934 0 0 1-.5-3h-6v-3h-5v-3h-6v-3c-5.922-1.727-11.089-4.727-15.5-9-.718.951-1.551 1.117-2.5.5 1.333-.667 1.333-1.333 0-2a12.93 12.93 0 0 0-5-.5v-3a58.97 58.97 0 0 1-11-3v-3c-8.654-3.265-16.321-6.932-23-11v-3h-6v-3h-5v-3a8.43 8.43 0 0 1-4-.5c-4.85-3.699-10.184-6.199-16-7.5v-3h-6v-3c-2.092-.061-3.592-1.061-4.5-3-1.299.466-2.799.466-4.5 0v-3c-1.788.285-3.455-.048-5-1-2.158-3.144-5.158-4.477-9-4v-3a12.93 12.93 0 0 1-5-.5c-2.625-3.031-6.125-5.864-10.5-8.5-2.537.677-4.537-.323-6-3l-1 1c-1.667-1-3-2.333-4-4-1.049 1.017-2.216 1.184-3.5.5l1-1a15.645 15.645 0 0 1-4-2.5c-1-54.329-1.333-108.663-1-163Z"/><path style="opacity:1" fill="#fdfdfd" d="M542.5 520.5a1601.055 1601.055 0 0 1 34 33.5c2.31.497 4.643.663 7 .5.333 29.341 0 58.674-1 88a7683.65 7683.65 0 0 1-184 106 97.288 97.288 0 0 0-12-5.5c-3.543-1.608-6.543-3.942-9-7-5.662-.917-10.329-3.583-14-8a78.488 78.488 0 0 1-23-13c-3.415-.406-6.082-2.072-8-5-8.372-3.019-16.038-7.352-23-13-5.093-1.382-9.426-4.049-13-8-6.4-2.062-12.067-5.396-17-10a169.642 169.642 0 0 0-28-14c-2.508-3.042-5.508-5.376-9-7a90.42 90.42 0 0 1-14-6l-4-4a46.99 46.99 0 0 1-10.5-5.5 3958.7 3958.7 0 0 1-.5-89c16.406 18.511 35.072 34.178 56 47a40.914 40.914 0 0 0 .5 9c5.97 6.53 13.137 11.03 21.5 13.5a27.816 27.816 0 0 1 8 6 420.445 420.445 0 0 0 32 17c3.705 4.342 8.372 7.009 14 8a643.917 643.917 0 0 0 29 18c2.861.54 5.528 1.54 8 3l11 7c4 .667 8 .667 12 0 6.962-5.648 14.628-9.981 23-13a679.07 679.07 0 0 0 23-15 24.569 24.569 0 0 0 8-3 185.768 185.768 0 0 1 20-13 42.916 42.916 0 0 0 13-7c5.048-1.356 9.381-4.023 13-8 7.768-3.043 14.934-7.21 21.5-12.5.498-2.982.665-5.982.5-9 13.446-7.93 25.946-17.263 37.5-28 2-3 2-6 0-9a1704.523 1704.523 0 0 1-34.5-35v-3a144.963 144.963 0 0 0 12-6Z"/><path style="opacity:1" fill="#273339" d="M201.5 539.5c3.99 4.626 7.99 9.293 12 14a3958.7 3958.7 0 0 0 .5 89 46.99 46.99 0 0 0 10.5 5.5l4 4a90.42 90.42 0 0 0 14 6c3.492 1.624 6.492 3.958 9 7a169.642 169.642 0 0 1 28 14c4.933 4.604 10.6 7.938 17 10 3.574 3.951 7.907 6.618 13 8 6.962 5.648 14.628 9.981 23 13 1.918 2.928 4.585 4.594 8 5a78.488 78.488 0 0 0 23 13c3.671 4.417 8.338 7.083 14 8 2.457 3.058 5.457 5.392 9 7a97.288 97.288 0 0 1 12 5.5 7683.65 7683.65 0 0 0 184-106c1-29.326 1.333-58.659 1-88a102.1 102.1 0 0 0 12-12c.167 33.335 0 66.668-.5 100-1.887 1.526-2.887 3.526-3 6-6.058 6.436-13.225 10.936-21.5 13.5a219.87 219.87 0 0 0-13 10 24.569 24.569 0 0 0-8 3 157.436 157.436 0 0 1-27 15 91.311 91.311 0 0 1-23 13 319.99 319.99 0 0 1-46 27l-4 4c-6.4 2.062-12.067 5.396-17 10l-10 4a78.988 78.988 0 0 1-14 9 201.888 201.888 0 0 0-11 2.5 91.921 91.921 0 0 1-19-7.5c-3.796-3.592-8.129-6.259-13-8a279.412 279.412 0 0 0-19-12c-3.959.349-6.626-1.317-8-5l-10-4a201.636 201.636 0 0 0-27-17 24.569 24.569 0 0 1-8-3c-11.4-8.753-23.733-15.753-37-21a147.725 147.725 0 0 0-17-12 82.842 82.842 0 0 1-19-11c-6.853-2.406-13.02-5.906-18.5-10.5-.5-36.332-.667-72.665-.5-109Z"/><path style="opacity:1" fill="#273339" d="M269.5 600.5a425.943 425.943 0 0 0 43 21c8.477 6.627 17.81 11.794 28 15.5a523.182 523.182 0 0 0 22 15c8.681 3.01 16.681 7.344 24 13 4.471 2.161 8.971 4.327 13.5 6.5a2929.62 2929.62 0 0 1 12.5-8.5 146.497 146.497 0 0 0 31-18c5.093-1.382 9.426-4.049 13-8 9.827-3.335 18.827-8.168 27-14.5a331.817 331.817 0 0 0 44-21 40.914 40.914 0 0 1-.5 9c-6.566 5.29-13.732 9.457-21.5 12.5-3.619 3.977-7.952 6.644-13 8a42.916 42.916 0 0 1-13 7 185.768 185.768 0 0 0-20 13 24.569 24.569 0 0 1-8 3 679.07 679.07 0 0 1-23 15c-8.372 3.019-16.038 7.352-23 13-4 .667-8 .667-12 0l-11-7a24.569 24.569 0 0 0-8-3 643.917 643.917 0 0 1-29-18c-5.628-.991-10.295-3.658-14-8a420.445 420.445 0 0 1-32-17 27.816 27.816 0 0 0-8-6c-8.363-2.47-15.53-6.97-21.5-13.5a40.914 40.914 0 0 1-.5-9Z"/><path style="opacity:1" fill="#91a3bb" d="M312.5 621.5c56.866 19.613 113.866 19.946 171 1-8.173 6.332-17.173 11.165-27 14.5-3.574 3.951-7.907 6.618-13 8a146.497 146.497 0 0 1-31 18 2929.62 2929.62 0 0 0-12.5 8.5 5215.086 5215.086 0 0 1-13.5-6.5c-7.319-5.656-15.319-9.99-24-13a523.182 523.182 0 0 1-22-15c-10.19-3.706-19.523-8.873-28-15.5Z"/><path style="opacity:1" fill="#93a6be" d="M599.5 686.5c1.333.667 1.333.667 0 0ZM570.5 703.5c1.333.667 1.333.667 0 0ZM476.5 757.5c1.333.667 1.333.667 0 0Z"/></svg>