<?xml version="1.0" standalone="no"?>
<!DOCTYPE svg PUBLIC "-//W3C//DTD SVG 20010904//EN"
 "http://www.w3.org/TR/2001/REC-SVG-20010904/DTD/svg10.dtd">
<svg version="1.0" xmlns="http://www.w3.org/2000/svg"
 width="100.000000pt" height="100.000000pt" viewBox="0 0 100.000000 100.000000"
 preserveAspectRatio="xMidYMid meet">

<g transform="translate(0.000000,100.000000) scale(0.100000,-0.100000)"
fill="#000000" stroke="none">
<path d="M370 976 c-153 -43 -288 -169 -339 -319 -83 -240 26 -500 257 -614
73 -37 80 -38 196 -41 135 -4 197 11 287 68 318 204 302 683 -28 863 -100 54
-264 73 -373 43z m278 -263 l3 -42 57 -3 c56 -3 57 -4 57 -33 0 -30 -1 -30
-57 -33 l-58 -3 0 -39 0 -39 48 -3 47 -3 3 -116 c2 -99 0 -118 -14 -130 -21
-18 -246 -24 -278 -7 -11 6 -33 21 -47 35 l-27 24 -53 -40 c-59 -44 -76 -50
-86 -25 -3 10 7 29 29 52 20 20 40 46 46 57 9 18 7 20 -21 20 l-32 0 -3 164
c-2 125 1 166 10 173 15 9 179 11 202 2 13 -5 16 -26 17 -118 0 -61 3 -105 6
-98 2 6 20 12 39 12 l34 0 0 113 c0 63 3 117 7 121 4 4 21 6 38 4 28 -3 30 -6
33 -45z"/>
<path d="M340 652 c0 -4 16 -8 35 -8 19 0 35 4 35 8 0 4 -16 8 -35 8 -19 0
-35 -4 -35 -8z"/>
<path d="M580 385 l0 -65 45 0 45 0 0 65 0 65 -45 0 -45 0 0 -65z"/>
<path d="M480 405 c0 -8 -11 -17 -25 -21 -32 -8 -31 -14 5 -49 l30 -29 0 57
c0 31 -2 57 -5 57 -3 0 -5 -7 -5 -15z"/>
</g>
</svg>
