<?xml version="1.0" standalone="no"?>
<!DOCTYPE svg PUBLIC "-//W3C//DTD SVG 20010904//EN"
 "http://www.w3.org/TR/2001/REC-SVG-20010904/DTD/svg10.dtd">
<svg version="1.0" xmlns="http://www.w3.org/2000/svg"
 width="100.000000pt" height="100.000000pt" viewBox="0 0 100.000000 100.000000"
 preserveAspectRatio="xMidYMid meet">

<g transform="translate(0.000000,100.000000) scale(0.100000,-0.100000)"
fill="#000000" stroke="none">
<path d="M370 976 c-153 -43 -288 -169 -339 -319 -83 -240 26 -500 257 -614
73 -37 80 -38 196 -41 135 -4 197 11 287 68 318 204 302 683 -28 863 -100 54
-264 73 -373 43z m45 -216 c35 -36 44 -40 88 -40 44 0 55 5 93 40 24 22 48 40
54 40 22 0 22 -32 0 -56 l-23 -24 52 0 c59 0 107 -17 136 -50 18 -20 20 -39
23 -183 4 -188 -4 -229 -51 -257 -18 -11 -40 -20 -49 -20 -10 0 -27 -9 -38
-20 -16 -16 -25 -18 -40 -10 -11 6 -20 15 -20 20 0 6 -51 10 -125 10 -112 0
-127 -2 -145 -20 -16 -16 -25 -18 -40 -10 -11 6 -20 15 -20 20 0 6 -13 10 -29
10 -36 0 -79 34 -97 76 -22 53 -19 318 4 364 22 45 72 70 141 70 l54 0 -23 24
c-23 26 -22 56 3 56 7 0 31 -18 52 -40z"/>
<path d="M260 460 l0 -170 250 0 250 0 0 170 0 170 -250 0 -250 0 0 -170z
m190 59 c0 -18 -20 -26 -107 -44 -29 -6 -33 -4 -39 20 -8 34 -5 36 64 50 61
13 82 7 82 -26z m258 16 c26 -6 30 -40 6 -53 -10 -5 -38 -4 -72 2 -48 10 -58
15 -60 35 -6 40 9 42 126 16z m-182 -136 c3 -6 19 -9 35 -5 34 6 49 -12 25
-30 -21 -15 -131 -13 -147 3 -17 17 -3 31 25 26 13 -3 27 0 30 6 9 14 23 14
32 0z"/>
</g>
</svg>
