<?xml version="1.0" standalone="no"?>
<!DOCTYPE svg PUBLIC "-//W3C//DTD SVG 20010904//EN"
 "http://www.w3.org/TR/2001/REC-SVG-20010904/DTD/svg10.dtd">
<svg version="1.0" xmlns="http://www.w3.org/2000/svg"
 width="100.000000pt" height="100.000000pt" viewBox="0 0 100.000000 100.000000"
 preserveAspectRatio="xMidYMid meet">

<g transform="translate(0.000000,100.000000) scale(0.100000,-0.100000)"
fill="#000000" stroke="none">
<path d="M360 971 c-91 -29 -142 -61 -211 -130 -113 -114 -162 -259 -140 -415
31 -225 218 -410 426 -424 l75 -5 0 191 0 191 -52 3 -53 3 0 60 0 60 53 3 52
3 0 62 c0 78 27 139 72 167 26 15 50 20 111 20 l77 0 0 -54 0 -54 -56 -4 c-33
-3 -60 -11 -65 -19 -5 -8 -9 -38 -9 -66 l0 -53 60 0 c59 0 60 -1 60 -27 0 -16
-3 -45 -6 -66 l-7 -37 -53 0 -54 0 0 -185 0 -184 42 15 c99 35 213 136 262
232 147 289 -4 637 -309 717 -79 20 -206 19 -275 -4z"/>
</g>
</svg>
