<?xml version="1.0" encoding="UTF-8"?><svg xmlns="http://www.w3.org/2000/svg" width="800" height="800" style="shape-rendering:geometricPrecision;text-rendering:geometricPrecision;image-rendering:optimizeQuality;fill-rule:evenodd;clip-rule:evenodd"><path style="opacity:1" fill="#65cbcb" d="M576.5-.5h9a2.429 2.429 0 0 0 .5 2c1.049-1.017 2.216-1.184 3.5-.5a20.495 20.495 0 0 0 2.5 3.5c1.356-.88 2.856-1.214 4.5-1v3c2.822 1.432 6.489 2.432 11 3v3c2.092.061 3.592 1.061 4.5 3 2.537-.677 4.537.323 6 3 2.361-.566 4.194.434 5.5 3l2-1c.35 2.067 2.017 3.067 5 3v3h6v3h5v3h6v3a27.247 27.247 0 0 0 9 3c-.219 1.175.114 2.175 1 3a6.846 6.846 0 0 1 4-1v3a8.435 8.435 0 0 1 4 .5c-1.154.914-.987 1.747.5 2.5 1.299-.466 2.799-.466 4.5 0v3h6v3h5v3a428.986 428.986 0 0 0 20 8.5l-2 1c2.522.61 4.522 1.943 6 4 1.634.493 3.301.66 5 .5v3c2.908-.238 5.242.762 7 3 .951-.826 1.951-.992 3-.5l-1 1a6.977 6.977 0 0 1 3.5 2.5l1-1c.483.948.649 1.948.5 3h6v3h5v3c1.951-.273 3.451.393 4.5 2l1-1c6 4.386 12.5 7.886 19.5 10.5l-1 1c1.525 1.009 3.192 1.509 5 1.5v3h6v3h5v3c2.041.354 3.874.354 5.5 0 .483.948.649 1.948.5 3 2.836 1.276 5.836 1.942 9 2a7971.884 7971.884 0 0 1 2 251c-3.013-.128-5.513.872-7.5 3-2.411-1.653-3.578-.987-3.5 2-1.701.466-3.201.466-4.5 0-3.844 1.975-7.177 4.642-10 8l-1-1c-1.049 1.607-2.549 2.273-4.5 2v3c-3.937.204-7.604 1.204-11 3 .381 2.442-.286 3.109-2 2-.886.825-1.219 1.825-1 3h-6v3a12.93 12.93 0 0 0-5 .5c-1.079 2.043-2.746 3.376-5 4l1 1a12.93 12.93 0 0 1-5 .5v3a9.86 9.86 0 0 0-6 1c-3.423 1.192-6.256 3.192-8.5 6l-1-1c-1.049 1.607-2.549 2.273-4.5 2v3h-6v3h-5v3c-2.185.388-4.018 1.388-5.5 3-2.278-1.12-3.778-.287-4.5 2.5a101.955 101.955 0 0 0-13 5.5v3h-6v3h-6v3c-1.788-.285-3.455.048-5 1 1.129 2.029.629 2.363-1.5 1-1.712 3.452-4.212 4.452-7.5 3v3c-3.096-.593-5.429.407-7 3a47.25 47.25 0 0 1-7 3v3h-6v3c-1.788-.285-3.455.048-5 1a28.335 28.335 0 0 0-9.5 6l-1-1c-1.049 1.607-2.549 2.273-4.5 2-.167 12.338 0 24.671.5 37 .414.457.914.791 1.5 1a3571.518 3571.518 0 0 1 0 169c-1.083 2.638-2.416 4.971-4 7-.167-49.001 0-98.001.5-147 1.886-5.708 1.886-11.375 0-17l-1-32-2.5-2.5a114.67 114.67 0 0 1-15-1.5c-1.16-2.211-2.493-4.211-4-6-.255-2.467-1.255-4.467-3-6-3.017-5.163-1.35-7.996 5-8.5a163.592 163.592 0 0 1 27-15 271.702 271.702 0 0 1 33-19 1884.13 1884.13 0 0 1 86-50l8-6a190.921 190.921 0 0 0 21.5-10.5c.667-76 .667-152 0-228a36.078 36.078 0 0 0-3.5-4.5c-3.29-.253-6.29-1.253-9-3a29746.604 29746.604 0 0 1-46-28 457.332 457.332 0 0 0-22-11l-4-4a161.879 161.879 0 0 1-33-19c-6.4-2.062-12.067-5.396-17-10a1126.1 1126.1 0 0 0-31-16c-2.365-3.714-5.698-5.714-10-6-7.082-6.364-15.416-9.031-25-8a12271.425 12271.425 0 0 1-129 74c-7.588 4.924-7.921 10.257-1 16a287.246 287.246 0 0 1 25 16 496.946 496.946 0 0 1 33 18c4.333.667 8.667.667 13 0a3162.857 3162.857 0 0 1 66-36.5 4261.045 4261.045 0 0 0 114 65.5c.826 17.093 1.326 34.26 1.5 51.5l2 2c.5 28.331.667 56.665.5 85a12.93 12.93 0 0 0-5 .5 679.07 679.07 0 0 0-23 15 349.402 349.402 0 0 1-37 19c-4.015 3.785-8.681 6.452-14 8-2.508 3.042-5.508 5.376-9 7a517.21 517.21 0 0 1-27 14l-4 4c-8.449 3.02-16.115 7.353-23 13-1.444.781-2.777.614-4-.5-1.16-2.211-2.493-4.211-4-6-.557-2.55-1.89-4.55-4-6-.067-3.266 1.599-4.766 5-4.5a157.436 157.436 0 0 1 27-15 172.26 172.26 0 0 0 18-13c5.35-1.428 9.85-4.261 13.5-8.5.667-37.333.667-74.667 0-112a111.89 111.89 0 0 0-25.5-14.5l-4-4a117.669 117.669 0 0 1-17-8c-3.671-4.417-8.338-7.083-14-8a928.605 928.605 0 0 0-68-39 77.598 77.598 0 0 0-23-13c-2.508-3.042-5.508-5.376-9-7a312.387 312.387 0 0 0-27-14c-1.918-2.928-4.585-4.594-8-5a331.67 331.67 0 0 0-40-23 191.292 191.292 0 0 0-20-13c-6.538-2.271-12.538-5.605-18-10a154.472 154.472 0 0 1-13-6 1013.157 1013.157 0 0 0-54-31c-9.098-8.801-19.765-11.801-32-9-4.194 3.22-8.86 5.554-14 7a2157.081 2157.081 0 0 1-68 39 55.63 55.63 0 0 1-18 10 12458.29 12458.29 0 0 1-28 18c-5.503 1.171-10.17 3.837-14 8A579.672 579.672 0 0 0 38 129.5 3410.247 3410.247 0 0 0 36.5 245c-.152 38.537.348 77.037 1.5 115.5l9.5 5.5c1.374 3.683 4.04 5.349 8 5a13376.247 13376.247 0 0 0 116 67c4.091 1.227 7.591.394 10.5-2.5.101-3.2.768-6.2 2-9 .667-23.333.667-46.667 0-70a20.231 20.231 0 0 0-7.5-7.5 82.15 82.15 0 0 1-22-13c-3.993-.322-7.326-1.988-10-5-3.415-.406-6.082-2.072-8-5l-10-4c-4.032-3.676-8.699-6.176-14-7.5-.167-45.335 0-90.668.5-136 2.67-2.75 5.836-4.583 9.5-5.5 6.962-5.648 14.628-9.981 23-13a148.265 148.265 0 0 1 31-18 102.07 102.07 0 0 1 22-13 417.167 417.167 0 0 1 29.5-18.5c1.73 1.149 3.396 1.149 5 0 4.064 4.134 8.897 6.967 14.5 8.5a874.985 874.985 0 0 0 53 31.5c-1.27.788-2.27 1.788-3 3a16970.991 16970.991 0 0 0-152 83.5c-9.664 7.84-11.997 17.34-7 28.5.255 2.467 1.255 4.467 3 6a1718.78 1718.78 0 0 1 34 61c.255 2.467 1.255 4.467 3 6a252.975 252.975 0 0 0 11 19c1.256 4.187 3.256 7.854 6 11 .255 2.467 1.255 4.467 3 6 1.784 1.91 2.784 4.244 3 7v179a61.281 61.281 0 0 0-15 1c.167-32.335 0-64.668-.5-97a1204.023 1204.023 0 0 0-28.5-16.5c-6.204-2.789-12.537-4.622-19-5.5v-3h-6v-3h-3v-3h-6v-3h-5v-3c-2.921.354-5.254-.646-7-3-1.714 1.109-2.381.442-2-2a58.97 58.97 0 0 1-11-3v-3a27.267 27.267 0 0 0-9-3v-3c-2.908.238-5.242-.762-7-3a3.647 3.647 0 0 0-1.5 1c-1.667-1-3-2.333-4-4l-1 1a4.932 4.932 0 0 1-.5-3h-6v-3h-5v-3a544.412 544.412 0 0 1-29-14v-3a58.967 58.967 0 0 1-11-3v-3h-6v-3c-4.013-1.674-8.013-3.341-12-5 .008-83.648.008-167.148 0-250.5a169.104 169.104 0 0 0 15-5.5v-3a58.967 58.967 0 0 0 11-3v-3a417.79 417.79 0 0 0 15-7 32.686 32.686 0 0 0 8.5-6l1 1c1.049-1.607 2.549-2.273 4.5-2v-3a59.029 59.029 0 0 1 11-3 4.932 4.932 0 0 1 .5-3l1 1c2.015-3.065 4.515-4.065 7.5-3v-3h5v-3c1.7.16 3.366-.007 5-.5 1.478-2.057 3.478-3.39 6-4l-2-1a18.436 18.436 0 0 1 6-.5v-3a87.51 87.51 0 0 0 14-5v-3h6v-3h5v-3c1.701-.466 3.201-.466 4.5 0 3.279-4.047 7.946-7.047 14-9a18.264 18.264 0 0 0 5-4l1 1c1.049-1.607 2.549-2.273 4.5-2v-3h5v-3h6v-3c4.612-1.195 9.279-2.862 14-5v-3c1.701-.466 3.201-.466 4.5 0 .908-1.939 2.408-2.939 4.5-3v-3h6v-3c1.788.285 3.455-.048 5-1a38.767 38.767 0 0 0 7-4.5 49.25 49.25 0 0 1 14 0c2.025 1.677 4.359 2.677 7 3-1.134 1.016-.801 1.683 1 2l5 1-1 1c2.622 3.073 5.955 4.573 10 4.5v3h6v3c3.191.262 5.858 1.596 8 4a9.864 9.864 0 0 0 6 1v3c3.58 1.22 7.247 2.386 11 3.5l-2 1c2.767.678 4.934 2.178 6.5 4.5l1-1c3.769 1.797 7.102 4.13 10 7a3.942 3.942 0 0 1 2-1c1.482 1.612 3.315 2.612 5.5 3v3h6v3h5v3h6v3a87.51 87.51 0 0 0 14 5v3c1.699-.16 3.366.007 5 .5l-1 1c1.525 1.009 3.192 1.509 5 1.5v3h6v3h5v3c2.985-1.065 5.485-.065 7.5 3l1-1c.483.948.649 1.948.5 3h5v3h6v3c2.133 1.386 5.133 2.386 9 3v3c2.908-.238 5.242.762 7 3l2-1c.35 2.067 2.017 3.067 5 3v3h6v3c2.516-.255 4.85-1.089 7-2.5a626.207 626.207 0 0 1 29-17c.837-1.011 1.17-2.178 1-3.5 4.493-.216 7.993-2.216 10.5-6 1.011.837 2.178 1.17 3.5 1v-3a59.031 59.031 0 0 0 11-3v-3c1.808.009 3.475-.491 5-1.5l-1-1a12.935 12.935 0 0 1 5-.5v-3a9.864 9.864 0 0 0 6-1 35.213 35.213 0 0 1 8-4v-3h6v-3a59.031 59.031 0 0 1 11-3v-3c1.808.009 3.475-.491 5-1.5-1.388-.89-1.222-1.39.5-1.5 2.071 1.167 3.571.5 4.5-2 6.434-2.343 12.767-5.343 19-9v-3a59.031 59.031 0 0 1 11-3 4.934 4.934 0 0 1 .5-3l1 1c1.995-2.247 4.495-3.247 7.5-3v-3h5v-3h6v-3c1.808.009 3.475-.491 5-1.5l-1-1a12.936 12.936 0 0 1 5-.5v-3c3.552.188 6.219-1.145 8-4Z"/><path style="opacity:1" fill="#273339" d="M580.5 469.5a43.836 43.836 0 0 1-2-1 129.016 129.016 0 0 1-5.5-14 3.647 3.647 0 0 1-1.5 1c-.929-1.189-1.262-2.522-1-4a31.147 31.147 0 0 1 2 2 261.29 261.29 0 0 0 38-21.5 893.858 893.858 0 0 0 77-44c3.415-.406 6.082-2.072 8-5a114.302 114.302 0 0 0 13-6 846.02 846.02 0 0 0 33-20 73.86 73.86 0 0 0 9-3.5 7901.316 7901.316 0 0 0-1.5-216 2129.254 2129.254 0 0 1-37.5-21.5c-3.415-.406-6.082-2.072-8-5a91.311 91.311 0 0 1-23-13 457.332 457.332 0 0 0-22-11c-2.508-3.042-5.508-5.376-9-7a457.332 457.332 0 0 1-22-11l-24-15c-3.415-.406-6.082-2.072-8-5a90.401 90.401 0 0 0-14-6c-5.722-6.435-12.722-8.768-21-7-7.36 5.663-15.36 9.996-24 13-3.619 3.977-7.952 6.644-13 8-2.537 2.546-5.537 4.212-9 5l-4 4-10 4a2551.356 2551.356 0 0 0-60 36 7185.005 7185.005 0 0 1 26 16 114.065 114.065 0 0 0 14 6c4.2 3.6 8.867 6.433 14 8.5a684.54 684.54 0 0 1 19-8.5 43.593 43.593 0 0 1 13-8c2.365-3.714 5.698-5.714 10-6a705.673 705.673 0 0 1 21-12c4.719-2.307 9.719-2.974 15-2a113.107 113.107 0 0 0 28 15l5 5a182.852 182.852 0 0 1 35 20 193.115 193.115 0 0 1 32 19 197.694 197.694 0 0 1 17 8 69.2 69.2 0 0 1 4.5 6.5c.667 48.667.667 97.333 0 146-5.181 6.173-11.681 10.34-19.5 12.5a12318.477 12318.477 0 0 1-28 18c-6.381 2.027-12.048 5.361-17 10-6.943 1.604-12.943 4.937-18 10a59.724 59.724 0 0 0-20 11 146.497 146.497 0 0 0-31 18c-5.707 1.381-10.707 4.048-15 8 .752.671 1.086 1.504 1 2.5a178.143 178.143 0 0 0-11-21c1.507 1.789 2.84 3.789 4 6 1.223 1.114 2.556 1.281 4 .5 6.885-5.647 14.551-9.98 23-13l4-4a517.21 517.21 0 0 0 27-14c3.492-1.624 6.492-3.958 9-7 5.319-1.548 9.985-4.215 14-8a349.402 349.402 0 0 0 37-19 679.07 679.07 0 0 1 23-15 12.93 12.93 0 0 1 5-.5c.167-28.335 0-56.669-.5-85l-2-2c-.174-17.24-.674-34.407-1.5-51.5a4261.045 4261.045 0 0 1-114-65.5 3162.857 3162.857 0 0 0-66 36.5 42.479 42.479 0 0 1-13 0 496.946 496.946 0 0 0-33-18 287.246 287.246 0 0 0-25-16c-6.921-5.743-6.588-11.076 1-16a12271.425 12271.425 0 0 0 129-74c9.584-1.031 17.918 1.636 25 8 4.302.286 7.635 2.286 10 6a1126.1 1126.1 0 0 1 31 16c4.933 4.604 10.6 7.938 17 10a161.879 161.879 0 0 0 33 19l4 4a457.332 457.332 0 0 1 22 11 29746.604 29746.604 0 0 0 46 28c2.71 1.747 5.71 2.747 9 3a36.078 36.078 0 0 1 3.5 4.5c.667 76 .667 152 0 228a190.921 190.921 0 0 1-21.5 10.5l-8 6a1884.13 1884.13 0 0 0-86 50 271.702 271.702 0 0 0-33 19 163.592 163.592 0 0 0-27 15c-6.35.504-8.017 3.337-5 8.5Z"/><path style="opacity:1" fill="#273339" d="M531.5 382.5a153.362 153.362 0 0 0-14-25c.66-1.464.993-3.131 1-5 .088-2.212-.412-4.212-1.5-6a2595.272 2595.272 0 0 0-1.5-72 270.049 270.049 0 0 1-37-22.5 83.315 83.315 0 0 1-19-11c-1.759-.798-3.426-.631-5 .5 1.13 1.122 1.797 2.456 2 4a35.406 35.406 0 0 1-5.5-7 264.078 264.078 0 0 0-8.5-20 931.91 931.91 0 0 0 62 34.5 116.512 116.512 0 0 1 13.5 10.5c1.049-1.017 2.216-1.184 3.5-.5 1.5 2.167 3.333 4 5.5 5.5l1 100a48.835 48.835 0 0 0 13.5-8.5c7.294-1.951 13.627-5.617 19-11a249.84 249.84 0 0 0 22.5-11.5c.833-34.005.667-68.005-.5-102a803.828 803.828 0 0 1-52-30.5c-4.758-1.884-9.092-4.551-13-8-8.449-3.02-16.115-7.353-23-13-5.521-1.096-10.187-3.762-14-8l-4-1a327.567 327.567 0 0 0-42-24c-4.758-4.768-10.425-7.768-17-9-3.065-4.125-7.065-6.791-12-8-3.761-4.301-8.428-6.801-14-7.5-.475-2.222-1.475-2.889-3-2-1.039-2.553-2.706-4.72-5-6.5-4.235-.157-8.235-.99-12-2.5-.437-1.574-1.437-2.741-3-3.5a86.804 86.804 0 0 0-14-7 161.955 161.955 0 0 0-36-21 88.177 88.177 0 0 0-22-12 153.747 153.747 0 0 0-27-16 179.568 179.568 0 0 1-15-10A228.066 228.066 0 0 0 230 34.5 112.066 112.066 0 0 0 206.5 48l-10 4-3 3c-6.771 2.445-12.771 6.111-18 11l-10 4-4 4a520.666 520.666 0 0 0-59 34l-9 3c-3.796 3.592-8.13 6.259-13 8A361.546 361.546 0 0 1 48 137.5c-.667 72-.667 144 0 216a7214.146 7214.146 0 0 0 125 72c.5-21.664.667-43.331.5-65a340.197 340.197 0 0 0-18-8.5 55.63 55.63 0 0 0-18-10 78.488 78.488 0 0 0-23-13 56.965 56.965 0 0 0-10.5-7.5 2946.23 2946.23 0 0 1 1-153 230.435 230.435 0 0 0 32.5-19.5c8.372-3.019 16.038-7.352 23-13 5.093-1.382 9.426-4.049 13-8a90.42 90.42 0 0 0 14-6c1.918-2.928 4.585-4.594 8-5a226.438 226.438 0 0 1 29-17 42.498 42.498 0 0 1 13 0l4 4a154.79 154.79 0 0 0 13 6 1012.512 1012.512 0 0 0 47 28 51.668 51.668 0 0 0 14 5.5c-5.855 1.427-10.521 4.593-14 9.5a8.43 8.43 0 0 1-4 .5c.73-1.212 1.73-2.212 3-3a874.985 874.985 0 0 1-53-31.5c-5.603-1.533-10.436-4.366-14.5-8.5-1.604 1.149-3.27 1.149-5 0a417.167 417.167 0 0 0-29.5 18.5 102.07 102.07 0 0 0-22 13 148.265 148.265 0 0 0-31 18c-8.372 3.019-16.038 7.352-23 13-3.664.917-6.83 2.75-9.5 5.5-.5 45.332-.667 90.665-.5 136 5.301 1.324 9.968 3.824 14 7.5l10 4c1.918 2.928 4.585 4.594 8 5 2.674 3.012 6.007 4.678 10 5a82.15 82.15 0 0 0 22 13 20.231 20.231 0 0 1 7.5 7.5c.667 23.333.667 46.667 0 70-1.232 2.8-1.899 5.8-2 9-2.909 2.894-6.409 3.727-10.5 2.5a13376.247 13376.247 0 0 1-116-67c-3.96.349-6.626-1.317-8-5l-9.5-5.5A3410.247 3410.247 0 0 1 36.5 245c-.152-38.537.348-77.037 1.5-115.5A579.672 579.672 0 0 1 80.5 107c3.83-4.163 8.497-6.829 14-8 9.313-5.97 18.646-11.97 28-18a55.63 55.63 0 0 0 18-10c22.924-12.6 45.591-25.6 68-39 5.14-1.446 9.806-3.78 14-7 12.235-2.801 22.902.199 32 9a1013.157 1013.157 0 0 1 54 31 154.472 154.472 0 0 0 13 6c5.462 4.395 11.462 7.729 18 10a191.292 191.292 0 0 1 20 13 331.67 331.67 0 0 1 40 23c3.415.406 6.082 2.072 8 5a312.387 312.387 0 0 1 27 14c3.492 1.624 6.492 3.958 9 7a77.598 77.598 0 0 1 23 13 928.605 928.605 0 0 1 68 39c5.662.917 10.329 3.583 14 8a117.669 117.669 0 0 0 17 8l4 4a111.89 111.89 0 0 1 25.5 14.5c.667 37.333.667 74.667 0 112-3.65 4.239-8.15 7.072-13.5 8.5a172.26 172.26 0 0 1-18 13 157.436 157.436 0 0 0-27 15c-3.401-.266-5.067 1.234-5 4.5Z"/><path style="opacity:1" fill="#fdfdfd" d="M371.5 115.5a70.523 70.523 0 0 0-9 1.5 799.48 799.48 0 0 0-47 26.5 51.668 51.668 0 0 1-14-5.5 1012.512 1012.512 0 0 1-47-28 154.79 154.79 0 0 1-13-6l-4-4a42.498 42.498 0 0 0-13 0 226.438 226.438 0 0 0-29 17c-3.415.406-6.082 2.072-8 5a90.42 90.42 0 0 1-14 6c-3.574 3.951-7.907 6.618-13 8-6.962 5.648-14.628 9.981-23 13a230.435 230.435 0 0 1-32.5 19.5 2946.23 2946.23 0 0 0-1 153 56.965 56.965 0 0 1 10.5 7.5 78.488 78.488 0 0 1 23 13 55.63 55.63 0 0 1 18 10 340.197 340.197 0 0 1 18 8.5c.167 21.669 0 43.336-.5 65a7214.146 7214.146 0 0 1-125-72c-.667-72-.667-144 0-216A361.546 361.546 0 0 0 80.5 119c4.87-1.741 9.204-4.408 13-8l9-3a520.666 520.666 0 0 1 59-34l4-4 10-4c5.229-4.889 11.229-8.555 18-11l3-3 10-4A112.066 112.066 0 0 1 230 34.5 228.066 228.066 0 0 1 254.5 46a179.568 179.568 0 0 0 15 10 153.747 153.747 0 0 1 27 16 88.177 88.177 0 0 1 22 12 161.955 161.955 0 0 1 36 21 86.804 86.804 0 0 1 14 7c1.563.759 2.563 1.926 3 3.5ZM570.5 451.5c-.838-.342-1.172-1.008-1-2-.968-2.6-2.301-4.934-4-7a176.669 176.669 0 0 1-11-20c-.968-2.6-2.301-4.934-4-7-1.336-2.008-2.67-4.008-4-6 .086-.996-.248-1.829-1-2.5 4.293-3.952 9.293-6.619 15-8a146.497 146.497 0 0 1 31-18 59.724 59.724 0 0 1 20-11c5.057-5.063 11.057-8.396 18-10 4.952-4.639 10.619-7.973 17-10 9.313-5.969 18.646-11.969 28-18 7.819-2.16 14.319-6.327 19.5-12.5.667-48.667.667-97.333 0-146a69.2 69.2 0 0 0-4.5-6.5 197.694 197.694 0 0 0-17-8 193.115 193.115 0 0 0-32-19 182.852 182.852 0 0 0-35-20l-5-5a113.107 113.107 0 0 1-28-15c-5.281-.974-10.281-.307-15 2a705.673 705.673 0 0 0-21 12c-4.302.286-7.635 2.286-10 6a43.593 43.593 0 0 0-13 8 684.54 684.54 0 0 0-19 8.5 50.162 50.162 0 0 1-14-8.5 114.065 114.065 0 0 1-14-6 7185.005 7185.005 0 0 0-26-16 2551.356 2551.356 0 0 1 60-36l10-4 4-4c3.463-.788 6.463-2.454 9-5 5.048-1.356 9.381-4.023 13-8 8.64-3.004 16.64-7.337 24-13 8.278-1.768 15.278.565 21 7a90.401 90.401 0 0 1 14 6c1.918 2.928 4.585 4.594 8 5l24 15a457.332 457.332 0 0 0 22 11c3.492 1.624 6.492 3.958 9 7a457.332 457.332 0 0 1 22 11 91.311 91.311 0 0 0 23 13c1.918 2.928 4.585 4.594 8 5a2129.254 2129.254 0 0 0 37.5 21.5 7901.316 7901.316 0 0 1 1.5 216 73.86 73.86 0 0 1-9 3.5 846.02 846.02 0 0 1-33 20 114.302 114.302 0 0 1-13 6c-1.918 2.928-4.585 4.594-8 5a893.858 893.858 0 0 1-77 44 261.29 261.29 0 0 1-38 21.5 31.147 31.147 0 0 0-2-2Z"/><path style="opacity:1" fill="#232226" d="M371.5 115.5c3.765 1.51 7.765 2.343 12 2.5 2.294 1.78 3.961 3.947 5 6.5 1.131 2.755 2.798 5.089 5 7l2 4c.255 2.467 1.255 4.467 3 6 .968 2.6 2.301 4.934 4 7-.073 1.527.594 2.527 2 3 1.174 1.014 1.84 2.347 2 4 .255 2.467 1.255 4.467 3 6 .936 3.171 2.603 5.838 5 8a72.38 72.38 0 0 0 7 13c.255 2.467 1.255 4.467 3 6 .968 2.6 2.301 4.934 4 7 .255 2.467 1.255 4.467 3 6 .238 1.904 1.238 3.238 3 4a43.571 43.571 0 0 0 8 13 264.078 264.078 0 0 1 8.5 20 35.406 35.406 0 0 0 5.5 7c.225 3.046 1.558 5.379 4 7l2 4c.255 2.467 1.255 4.467 3 6 1.406.473 2.073 1.473 2 3 .225 3.046 1.558 5.379 4 7a72.38 72.38 0 0 0 7 13c.225 3.046 1.558 5.379 4 7 3.631 6.587 7.297 13.254 11 20 .255 2.467 1.255 4.467 3 6a77.362 77.362 0 0 1 5.5 8 42.47 42.47 0 0 1 1.5 5c.936 3.171 2.603 5.838 5 8 .838.342 1.172 1.008 1 2 .225 3.046 1.558 5.379 4 7a90.198 90.198 0 0 1 4 9 153.362 153.362 0 0 1 14 25c2.11 1.45 3.443 3.45 4 6a178.143 178.143 0 0 1 11 21c1.33 1.992 2.664 3.992 4 6 .225 3.046 1.558 5.379 4 7a176.669 176.669 0 0 0 11 20c.225 3.046 1.558 5.379 4 7-.172.992.162 1.658 1 2-.262 1.478.071 2.811 1 4a3.647 3.647 0 0 0 1.5-1 129.016 129.016 0 0 0 5.5 14c.683.363 1.35.696 2 1 .255 2.467 1.255 4.467 3 6a31.71 31.71 0 0 0 2 6c-6.154 1.317-12.154 1.317-18 0 2.651-1.699 2.651-3.366 0-5a723.996 723.996 0 0 0-31-56 69.21 69.21 0 0 0-9-17c.073-1.527-.594-2.527-2-3a31484.739 31484.739 0 0 0-138-250.5c-3.202.086-6.202 1.086-9 3a878220.46 878220.46 0 0 0-93 51.5 211.592 211.592 0 0 0-15 9 8663.519 8663.519 0 0 0-109 60c-1.083.865-1.249 1.865-.5 3a1401.12 1401.12 0 0 1 23.5 44 226.591 226.591 0 0 1 13 23 34058.994 34058.994 0 0 1 120 217c-.011 2.501-.678 2.668-2 .5-4.75-.223-9.416-.723-14-1.5.259-2.489-.741-4.156-3-5a255.854 255.854 0 0 0-15-27 248.042 248.042 0 0 0-14-24c.098-2.053-.569-3.72-2-5 .073-1.527-.594-2.527-2-3-.225-3.046-1.558-5.379-4-7-.255-2.467-1.255-4.467-3-6-.16-1.653-.826-2.986-2-4 .073-1.527-.594-2.527-2-3-.16-1.653-.826-2.986-2-4 .073-1.527-.594-2.527-2-3-.225-3.046-1.558-5.379-4-7-2.178-3.023-3.845-6.356-5-10 .073-1.527-.594-2.527-2-3-.225-3.046-1.558-5.379-4-7-.225-3.046-1.558-5.379-4-7-.255-2.467-1.255-4.467-3-6-.16-1.653-.826-2.986-2-4 .073-1.527-.594-2.527-2-3-.225-3.046-1.558-5.379-4-7-2.178-3.023-3.845-6.356-5-10a252.682 252.682 0 0 0-9.5-18c-1.049-2.118-2.549-3.784-4.5-5-.216-2.756-1.216-5.09-3-7-.255-2.467-1.255-4.467-3-6a89.024 89.024 0 0 1-4-10 43.836 43.836 0 0 0-2-1 252.975 252.975 0 0 1-11-19c-.255-2.467-1.255-4.467-3-6a1718.78 1718.78 0 0 0-34-61c-.255-2.467-1.255-4.467-3-6-4.997-11.16-2.664-20.66 7-28.5a16970.991 16970.991 0 0 1 152-83.5 8.43 8.43 0 0 0 4-.5c3.479-4.907 8.145-8.073 14-9.5a799.48 799.48 0 0 1 47-26.5 70.523 70.523 0 0 1 9-1.5Z"/><path style="opacity:1" fill="#fdfdfd" d="M391.5 126.5c5.572.699 10.239 3.199 14 7.5 4.935 1.209 8.935 3.875 12 8 6.575 1.232 12.242 4.232 17 9a327.567 327.567 0 0 1 42 24l4 1c3.813 4.238 8.479 6.904 14 8 6.885 5.647 14.551 9.98 23 13 3.908 3.449 8.242 6.116 13 8a803.828 803.828 0 0 0 52 30.5 1734.395 1734.395 0 0 1 .5 102 249.84 249.84 0 0 1-22.5 11.5c-5.373 5.383-11.706 9.049-19 11a48.835 48.835 0 0 1-13.5 8.5l-1-100c-2.167-1.5-4-3.333-5.5-5.5-1.284-.684-2.451-.517-3.5.5a116.512 116.512 0 0 0-13.5-10.5 931.91 931.91 0 0 1-62-34.5 43.571 43.571 0 0 1-8-13c-.238-1.904-1.238-3.238-3-4-.255-2.467-1.255-4.467-3-6-.225-3.046-1.558-5.379-4-7-.255-2.467-1.255-4.467-3-6a72.38 72.38 0 0 1-7-13c-.936-3.171-2.603-5.838-5-8-.255-2.467-1.255-4.467-3-6-.16-1.653-.826-2.986-2-4 .073-1.527-.594-2.527-2-3-.225-3.046-1.558-5.379-4-7-.255-2.467-1.255-4.467-3-6l-2-4-2-5Z"/><path style="opacity:1" fill="#7b7a7d" d="m391.5 126.5 2 5c-2.202-1.911-3.869-4.245-5-7 1.525-.889 2.525-.222 3 2Z"/><path style="opacity:1" fill="#78777a" d="M395.5 135.5c1.745 1.533 2.745 3.533 3 6-1.745-1.533-2.745-3.533-3-6Z"/><path style="opacity:1" fill="#7c7b7e" d="M398.5 141.5c2.442 1.621 3.775 3.954 4 7-1.699-2.066-3.032-4.4-4-7Z"/><path style="opacity:1" fill="#8c8c8e" d="M402.5 148.5c1.406.473 2.073 1.473 2 3-1.406-.473-2.073-1.473-2-3Z"/><path style="opacity:1" fill="#72c2c0" d="M525.5 400.5c-.086.996.248 1.829 1 2.5a49.602 49.602 0 0 1-10-.5 1918.2 1918.2 0 0 1-61-8 66.288 66.288 0 0 0-18 3.5 748.23 748.23 0 0 0-33 16c-10.098-.806-19.765-3.473-29-8a34.334 34.334 0 0 1-1-8 661.211 661.211 0 0 0 3.5-96.5 1689.64 1689.64 0 0 0-4.5-7.5 669.676 669.676 0 0 1-31-15 1178.932 1178.932 0 0 1-33.5-19.5 1141.666 1141.666 0 0 1-23.5-55 878220.46 878220.46 0 0 1 93-51.5c2.798-1.914 5.798-2.914 9-3a31484.739 31484.739 0 0 1 138 250.5Z"/><path style="opacity:1" fill="#707074" d="M406.5 155.5c1.745 1.533 2.745 3.533 3 6-1.745-1.533-2.745-3.533-3-6Z"/><path style="opacity:1" fill="#7c7b7e" d="M409.5 161.5c2.397 2.162 4.064 4.829 5 8-2.397-2.162-4.064-4.829-5-8Z"/><path style="opacity:1" fill="#2c2c2c" d="M301.5 168.5c6.011-.924 8.011 1.409 6 7a31.177 31.177 0 0 0-6 4.5 1117.478 1117.478 0 0 0-48 26c-3.159 1.561-6.326 1.728-9.5.5-.965-2.863-.298-5.196 2-7a10094.285 10094.285 0 0 1 55.5-31Z"/><path style="opacity:1" fill="#757579" d="M421.5 182.5c1.745 1.533 2.745 3.533 3 6-1.745-1.533-2.745-3.533-3-6Z"/><path style="opacity:1" fill="#79787b" d="M424.5 188.5c2.442 1.621 3.775 3.954 4 7-1.699-2.066-3.032-4.4-4-7Z"/><path style="opacity:1" fill="#666468" d="M428.5 195.5c1.745 1.533 2.745 3.533 3 6-1.745-1.533-2.745-3.533-3-6Z"/><path style="opacity:1" fill="#7d7c7f" d="M431.5 201.5c1.762.762 2.762 2.096 3 4-1.762-.762-2.762-2.096-3-4Z"/><path style="opacity:1" fill="#4f4f54" d="M285.5 204.5a1141.666 1141.666 0 0 0 23.5 55 1178.932 1178.932 0 0 0 33.5 19.5 669.676 669.676 0 0 0 31 15 1689.64 1689.64 0 0 1 4.5 7.5 661.211 661.211 0 0 1-3.5 96.5 34.334 34.334 0 0 0 1 8c9.235 4.527 18.902 7.194 29 8a748.23 748.23 0 0 1 33-16 66.288 66.288 0 0 1 18-3.5 1918.2 1918.2 0 0 0 61 8c3.569 1.941 7.235 2.274 11 1a69.21 69.21 0 0 1 9 17 143.044 143.044 0 0 1-20-2 292.61 292.61 0 0 0-31-5 469.62 469.62 0 0 1-24-3c-4.146-1.147-8.48-1.314-13-.5-.556.383-.889.883-1 1.5a492.84 492.84 0 0 0-40 18.5c-8.244.274-16.244-1.059-24-4a8281.692 8281.692 0 0 0-20-10c-4.351-2.394-6.018-6.061-5-11a1544.955 1544.955 0 0 0 4-50.5c1.312-4.515 1.312-9.182 0-14-1.526.494-2.859 1.161-4 2a1654.635 1654.635 0 0 0-65 28.5l-16.5 5.5a22.106 22.106 0 0 1-7.5-1.5 4430.854 4430.854 0 0 0-69-32c-1.249-.74-2.249-.573-3 .5a226.591 226.591 0 0 0-13-23 8.43 8.43 0 0 1 4 .5 1637.898 1637.898 0 0 1 73 34 286.177 286.177 0 0 0 15.5 5.5 3383.568 3383.568 0 0 1 86.5-36v-20c-22.828-9.08-44.495-20.246-65-33.5l-2.5-2.5a134.248 134.248 0 0 0-9-20 32262.54 32262.54 0 0 1-13-33c-.71-1.473-1.876-2.14-3.5-2a211.592 211.592 0 0 1 15-9Z"/><path style="opacity:1" fill="#99cdce" d="M270.5 213.5c1.624-.14 2.79.527 3.5 2a32262.54 32262.54 0 0 0 13 33 134.248 134.248 0 0 1 9 20l2.5 2.5c20.505 13.254 42.172 24.42 65 33.5v20a3383.568 3383.568 0 0 0-86.5 36 286.177 286.177 0 0 1-15.5-5.5 1637.898 1637.898 0 0 0-73-34 8.43 8.43 0 0 0-4-.5 1401.12 1401.12 0 0 0-23.5-44c-.749-1.135-.583-2.135.5-3a8663.519 8663.519 0 0 1 109-60Z"/><path style="opacity:1" fill="#64c9c9" d="M517.5 357.5a90.198 90.198 0 0 0-4-9c-.968-2.6-2.301-4.934-4-7 .172-.992-.162-1.658-1-2-.936-3.171-2.603-5.838-5-8a42.47 42.47 0 0 0-1.5-5 77.362 77.362 0 0 0-5.5-8c-.255-2.467-1.255-4.467-3-6-3.703-6.746-7.369-13.413-11-20-.968-2.6-2.301-4.934-4-7a72.38 72.38 0 0 1-7-13c-.968-2.6-2.301-4.934-4-7 .073-1.527-.594-2.527-2-3-.255-2.467-1.255-4.467-3-6l-2-4c-.968-2.6-2.301-4.934-4-7-.203-1.544-.87-2.878-2-4 1.574-1.131 3.241-1.298 5-.5a83.315 83.315 0 0 0 19 11 270.049 270.049 0 0 0 37 22.5 2595.272 2595.272 0 0 1 1.5 72c1.088 1.788 1.588 3.788 1.5 6-.007 1.869-.34 3.536-1 5Z"/><path style="opacity:1" fill="#417173" d="M456.5 245.5c1.699 2.066 3.032 4.4 4 7-2.442-1.621-3.775-3.954-4-7Z"/><path style="opacity:1" fill="#3c6366" d="M462.5 256.5c1.745 1.533 2.745 3.533 3 6-1.745-1.533-2.745-3.533-3-6Z"/><path style="opacity:1" fill="#44787b" d="M138.5 265.5c1.745 1.533 2.745 3.533 3 6-1.745-1.533-2.745-3.533-3-6Z"/><path style="opacity:1" fill="#406d70" d="M467.5 265.5c1.699 2.066 3.032 4.4 4 7-2.442-1.621-3.775-3.954-4-7Z"/><path style="opacity:1" fill="#3d6769" d="M478.5 285.5c1.699 2.066 3.032 4.4 4 7-2.442-1.621-3.775-3.954-4-7Z"/><path style="opacity:1" fill="#3d6568" d="M493.5 312.5c1.745 1.533 2.745 3.533 3 6-1.745-1.533-2.745-3.533-3-6Z"/><path style="opacity:1" fill="#467d7f" d="M175.5 332.5c1.745 1.533 2.745 3.533 3 6-1.745-1.533-2.745-3.533-3-6Z"/><path style="opacity:1" fill="#3c6164" d="M503.5 331.5c2.397 2.162 4.064 4.829 5 8-2.397-2.162-4.064-4.829-5-8Z"/><path style="opacity:1" fill="#528686" d="M362.5 354.5v-12h-4c1.141-.839 2.474-1.506 4-2 1.312 4.818 1.312 9.485 0 14Z"/><path style="opacity:1" fill="#54beb8" d="M358.5 342.5h4v12a1544.955 1544.955 0 0 1-4 50.5c-1.018 4.939.649 8.606 5 11 6.702 3.34 13.369 6.673 20 10 7.756 2.941 15.756 4.274 24 4a492.84 492.84 0 0 1 40-18.5 59.567 59.567 0 0 1 14-1 469.62 469.62 0 0 0 24 3c1.109.79 2.442 1.29 4 1.5-2.401.805-2.234 1.638.5 2.5a23.256 23.256 0 0 1 6.5-1 913.858 913.858 0 0 1 20 2 143.044 143.044 0 0 0 20 2 723.996 723.996 0 0 1 31 56c.108 2.014-.558 3.68-2 5-31.128.652-62.128 1.319-93 2-.617.111-1.117.444-1.5 1-.5 16.663-.667 33.33-.5 50-2.053-.098-3.72.569-5 2l-2-47c-.256-2.276-1.59-3.443-4-3.5a2604.563 2604.563 0 0 0-125 .5l-1.5 3a420.29 420.29 0 0 0 0 41l1.5 1.5c26.331.5 52.665.667 79 .5.166 6.342 0 12.675-.5 19a469.571 469.571 0 0 1-37.5 35.5 60.726 60.726 0 0 1-12 5c-.881.708-1.547 1.542-2 2.5-5.969 2.433-11.635 5.599-17 9.5-1.135.749-2.135.583-3-.5a469.124 469.124 0 0 0-20-36c-.579-2.831-1.912-5.164-4-7a34058.994 34058.994 0 0 0-120-217c.751-1.073 1.751-1.24 3-.5a4430.854 4430.854 0 0 1 69 32 22.106 22.106 0 0 0 7.5 1.5l16.5-5.5a1654.635 1654.635 0 0 1 65-28.5Z"/><path style="opacity:1" fill="#3d696c" d="M509.5 341.5c1.699 2.066 3.032 4.4 4 7-2.442-1.621-3.775-3.954-4-7Z"/><path style="opacity:1" fill="#39595c" d="M189.5 357.5c.65.304 1.317.637 2 1a89.024 89.024 0 0 0 4 10c-2.744-3.146-4.744-6.813-6-11Z"/><path style="opacity:1" fill="#437779" d="M195.5 368.5c1.745 1.533 2.745 3.533 3 6-1.745-1.533-2.745-3.533-3-6Z"/><path style="opacity:.998" fill="#263339" d="M201.5 381.5c1.951 1.216 3.451 2.882 4.5 5a252.682 252.682 0 0 1 9.5 18c-.617-.111-1.117-.444-1.5-1-.5 52.332-.667 104.666-.5 157 5.14.988 10.474 1.321 16 1v-41c.111-.617.444-1.117 1-1.5 12.996-.5 25.996-.667 39-.5v-15a248.042 248.042 0 0 1 14 24c-.617-.111-1.117-.444-1.5-1a577.896 577.896 0 0 0-.5 34c3.149.665 6.482.998 10 1 3.739-.014 7.072-.68 10-2 4.584.777 9.25 1.277 14 1.5 1.322 2.168 1.989 2.001 2-.5 2.088 1.836 3.421 4.169 4 7-.617-.111-1.117-.444-1.5-1-.5 8.327-.666 16.66-.5 25-.985 4.134-1.318 8.468-1 13-.011 1.517-.677 2.684-2 3.5l-27 1a1851.988 1851.988 0 0 0 42.5 24.5 82.014 82.014 0 0 1 5.5-9c.617.111 1.117.444 1.5 1l31-31c.432-1.1-.068-1.767-1.5-2-2.351.673-4.684 1.34-7 2 .453-.958 1.119-1.792 2-2.5a60.726 60.726 0 0 0 12-5 469.571 469.571 0 0 0 37.5-35.5c.5-6.325.666-12.658.5-19-26.335.167-52.669 0-79-.5l-1.5-1.5a420.29 420.29 0 0 1 0-41l1.5-3a2604.563 2604.563 0 0 1 125-.5c2.41.057 3.744 1.224 4 3.5-.651 16.368.015 32.368 2 48v-1c1.28-1.431 2.947-2.098 5-2-.167-16.67 0-33.337.5-50 .383-.556.883-.889 1.5-1 30.668.167 61.335 0 92-.5.556-.383.889-.883 1-1.5h2c5.846 1.317 11.846 1.317 18 0a31.71 31.71 0 0 1-2-6c1.507 1.789 2.84 3.789 4 6a114.67 114.67 0 0 0 15 1.5l2.5 2.5 1 32c1.886 5.625 1.886 11.292 0 17-.5 48.999-.667 97.999-.5 147 .167 10.672 0 21.339-.5 32l-1.5 1.5a536.183 536.183 0 0 1-56 1.5 772.829 772.829 0 0 0-68-.5 209.75 209.75 0 0 0-30 18c-6.4 2.062-12.067 5.396-17 10-6.761 1.869-12.761 5.202-18 10-2.474.113-4.474 1.113-6 3-4.583 1.535-9.25 2.202-14 2-8.99-3.644-17.324-8.311-25-14l-4-1a279.412 279.412 0 0 0-19-12c-3.959.349-6.626-1.317-8-5-8.36-3.016-16.027-7.349-23-13a169.242 169.242 0 0 0-22-11c-11.4-8.753-23.733-15.753-37-21l-4-4a150.824 150.824 0 0 1-18-11 285.561 285.561 0 0 0-26-13 18.839 18.839 0 0 0-6.5-5.5 799.793 799.793 0 0 1-.5-40h-15c-.283-.789-.783-1.456-1.5-2a462.27 462.27 0 0 1 0-43c.278-.916.778-1.582 1.5-2a61.281 61.281 0 0 1 15-1v-179Z"/><path style="opacity:1" fill="#5e8789" d="M525.5 400.5c1.406.473 2.073 1.473 2 3-3.765 1.274-7.431.941-11-1 3.341.505 6.674.672 10 .5-.752-.671-1.086-1.504-1-2.5Z"/><path style="opacity:1" fill="#fcfcfc" d="M215.5 404.5c1.155 3.644 2.822 6.977 5 10 .968 2.6 2.301 4.934 4 7-.073 1.527.594 2.527 2 3 1.174 1.014 1.84 2.347 2 4 .255 2.467 1.255 4.467 3 6 2.442 1.621 3.775 3.954 4 7 .225 3.046 1.558 5.379 4 7-.073 1.527.594 2.527 2 3 1.155 3.644 2.822 6.977 5 10 .968 2.6 2.301 4.934 4 7-.073 1.527.594 2.527 2 3 1.174 1.014 1.84 2.347 2 4-.073 1.527.594 2.527 2 3 1.174 1.014 1.84 2.347 2 4-.475 2.813.525 4.813 3 6 .968 2.6 2.301 4.934 4 7-.073 1.527.594 2.527 2 3 1.431 1.28 2.098 2.947 2 5v15c-13.004-.167-26.004 0-39 .5-.556.383-.889.883-1 1.5a400.456 400.456 0 0 0-1 40h-15c-.167-52.334 0-104.668.5-157 .383.556.883.889 1.5 1Z"/><path style="opacity:1" fill="#538d8d" d="M461.5 410.5a59.567 59.567 0 0 0-14 1c.111-.617.444-1.117 1-1.5 4.52-.814 8.854-.647 13 .5Z"/><path style="opacity:1" fill="#559b98" d="M485.5 413.5a292.61 292.61 0 0 1 31 5 913.858 913.858 0 0 0-20-2 23.256 23.256 0 0 0-6.5 1c-2.734-.862-2.901-1.695-.5-2.5-1.558-.21-2.891-.71-4-1.5Z"/><path style="opacity:1" fill="#9d9c9e" d="M220.5 414.5c2.442 1.621 3.775 3.954 4 7-1.699-2.066-3.032-4.4-4-7Z"/><path style="opacity:1" fill="#838184" d="M550.5 415.5c1.699 2.066 3.032 4.4 4 7-2.442-1.621-3.775-3.954-4-7Z"/><path style="opacity:1" fill="#87878a" d="M224.5 421.5c1.406.473 2.073 1.473 2 3-1.406-.473-2.073-1.473-2-3Z"/><path style="opacity:1" fill="#a4a4a6" d="M228.5 428.5c1.745 1.533 2.745 3.533 3 6-1.745-1.533-2.745-3.533-3-6Z"/><path style="opacity:1" fill="#a7a7aa" d="M235.5 441.5c2.442 1.621 3.775 3.954 4 7-2.442-1.621-3.775-3.954-4-7Z"/><path style="opacity:1" fill="#868689" d="M565.5 442.5c1.699 2.066 3.032 4.4 4 7-2.442-1.621-3.775-3.954-4-7Z"/><path style="opacity:1" fill="#858588" d="M239.5 448.5c1.406.473 2.073 1.473 2 3-1.406-.473-2.073-1.473-2-3Z"/><path style="opacity:1" fill="#9d9c9e" d="M246.5 461.5c2.442 1.621 3.775 3.954 4 7-1.699-2.066-3.032-4.4-4-7Z"/><path style="opacity:1" fill="#88888a" d="M250.5 468.5c1.406.473 2.073 1.473 2 3-1.406-.473-2.073-1.473-2-3Z"/><path style="opacity:1" fill="#3f6c6f" d="M580.5 469.5c1.745 1.533 2.745 3.533 3 6-1.745-1.533-2.745-3.533-3-6Z"/><path style="opacity:1" fill="#7e7e81" d="M254.5 475.5c1.406.473 2.073 1.473 2 3-1.406-.473-2.073-1.473-2-3Z"/><path style="opacity:1" fill="#3e7575" d="M567.5 476.5c2.651 1.634 2.651 3.301 0 5h-2c1.442-1.32 2.108-2.986 2-5Z"/><path style="opacity:1" fill="#325457" d="M565.5 481.5c-.111.617-.444 1.117-1 1.5-30.665.5-61.332.667-92 .5 30.872-.681 61.872-1.348 93-2Z"/><path style="opacity:1" fill="#adadaf" d="M258.5 482.5c1.745 1.533 2.745 3.533 3 6-2.475-1.187-3.475-3.187-3-6Z"/><path style="opacity:1" fill="#3d7777" d="m463.5 489.5 2 47v1c-1.985-15.632-2.651-31.632-2-48Z"/><path style="opacity:1" fill="#166566" d="M597.5 491.5h-119v216a11770.92 11770.92 0 0 1-1-217c40.17-.332 80.17.001 120 1Z"/><path style="opacity:1" fill="#0d7f7f" d="M597.5 491.5v216h-119v-216h119Z"/><path style="opacity:1" fill="#156768" d="M340.5 494.5a3363.08 3363.08 0 0 1 116-1c.331 25.172-.002 50.172-1 75v-74h-115Z"/><path style="opacity:1" fill="#969699" d="M261.5 488.5c2.442 1.621 3.775 3.954 4 7-1.699-2.066-3.032-4.4-4-7Z"/><path style="opacity:1" fill="#0d7f7f" d="M340.5 494.5h115v74a9097.383 9097.383 0 0 0-80.5 80c-.667 8-.667 16 0 24 .2 1.82 1.034 3.153 2.5 4 25.828.998 51.828 1.331 78 1v30h-114c.321-5.526-.012-10.86-1-16-.167-19.003 0-38.003.5-57l79-79a65.046 65.046 0 0 0 1.5-15.5c-.032-4.919-.699-9.586-2-14-26.331-.5-52.665-.667-79-.5v-31Z"/><path style="opacity:1" fill="#858588" d="M265.5 495.5c1.406.473 2.073 1.473 2 3-1.406-.473-2.073-1.473-2-3Z"/><path style="opacity:1" fill="#5d666a" d="M229.5 520.5v41c-5.526.321-10.86-.012-16-1h15a400.456 400.456 0 0 1 1-40Z"/><path style="opacity:1" fill="#263238" d="M516.5 522.5c14.67-.167 29.337 0 44 .5l1.5 1.5c.667 49.667.667 99.333 0 149l-1.5 1.5a528.986 528.986 0 0 1-46 0 11.333 11.333 0 0 1-1.5-3.5 3601.9 3601.9 0 0 1 .5-147c1.239-.442 2.239-1.109 3-2Z"/><path style="opacity:1" fill="#156668" d="M268.5 526.5h-31a361.608 361.608 0 0 1-1 38v-39c10.846-.328 21.513.006 32 1Z"/><path style="opacity:1" fill="#0d7f7f" d="M268.5 526.5c-.167 13.337 0 26.671.5 40a9.454 9.454 0 0 0 2.5 1.5c12.996.5 25.996.667 39 .5v32a400.456 400.456 0 0 0-40 1l-1.5 3a799.793 799.793 0 0 0-.5 40h-32a840.27 840.27 0 0 0-.5-41 6.978 6.978 0 0 0-3.5-2.5 799.793 799.793 0 0 0-40-.5v-32c14.004.167 28.004 0 42-.5 1.323-.816 1.989-1.983 2-3.5a361.608 361.608 0 0 0 1-38h31Z"/><path style="opacity:1" fill="#63c5c5" d="M283.5 527.5a255.854 255.854 0 0 1 15 27 16.076 16.076 0 0 0 2 5 91.123 91.123 0 0 1-19 1c-.167-11.338 0-22.672.5-34 .383.556.883.889 1.5 1Z"/><path style="opacity:1" fill="#222025" d="M553.5 567.5c-1 .333-1.667 1-2 2a376.548 376.548 0 0 0-23 12 4.934 4.934 0 0 0-3 .5l1 1-5 2.5a756.817 756.817 0 0 1-1-55h34a352.647 352.647 0 0 1-1 37Z"/><path style="opacity:1" fill="#2c2c2c" d="M454.5 580.5c9.09-5.868 12.423-14.202 10-25a55.78 55.78 0 0 1 4-1 324.95 324.95 0 0 1 1 36 17.758 17.758 0 0 1-7-1.5 95.356 95.356 0 0 1-8-8.5Z"/><path style="opacity:1" fill="#365558" d="M298.5 554.5c2.259.844 3.259 2.511 3 5-2.928 1.32-6.261 1.986-10 2-3.518-.002-6.851-.335-10-1a91.123 91.123 0 0 0 19-1 16.076 16.076 0 0 1-2-5Z"/><path style="opacity:1" fill="#fbfbfb" d="M554.5 657.5a1858.304 1858.304 0 0 1-15 10.5c-6.325.5-12.658.666-19 .5-.333-18.012 0-36.012 1-54a51.064 51.064 0 0 0 5.5-4c.192-9.744.692-19.41 1.5-29a376.548 376.548 0 0 1 23-12c.996.086 1.829-.248 2.5-1 .5 29.665.667 59.331.5 89Z"/><path style="opacity:1" fill="#91979a" d="M553.5 567.5c1.333 14.651 1.999 29.651 2 45 0 15.17-.333 30.17-1 45a3958.7 3958.7 0 0 0-.5-89c-.671.752-1.504 1.086-2.5 1 .333-1 1-1.667 2-2Z"/><path style="opacity:1" fill="#232327" d="M321.5 567.5a469.124 469.124 0 0 1 20 36c.865 1.083 1.865 1.249 3 .5 5.365-3.901 11.031-7.067 17-9.5 2.316-.66 4.649-1.327 7-2 1.432.233 1.932.9 1.5 2l-31 31c-.383-.556-.883-.889-1.5-1-6.269-9.895-11.936-19.895-17-30a5.727 5.727 0 0 0-1-3c-.166-8.34 0-16.673.5-25 .383.556.883.889 1.5 1Z"/><path style="opacity:1" fill="#222126" d="M468.5 614.5c-1 .333-1.667 1-2 2a4987.674 4987.674 0 0 0-83 45c-1.141-3.14-1.308-6.473-.5-10a7170.73 7170.73 0 0 1 71.5-71 95.356 95.356 0 0 0 8 8.5 17.758 17.758 0 0 0 7 1.5 324.95 324.95 0 0 0-1-36 55.78 55.78 0 0 0-4 1 86.749 86.749 0 0 1 1-18 9.175 9.175 0 0 0 4.5-2 1481.76 1481.76 0 0 1 0 77c-.717.544-1.217 1.211-1.5 2Z"/><path style="opacity:1" fill="#44787b" d="M319.5 591.5c.61.891.943 1.891 1 3l-2 10c-.318-4.532.015-8.866 1-13Z"/><path style="opacity:1" fill="#62c3c4" d="M320.5 594.5c5.064 10.105 10.731 20.105 17 30a82.014 82.014 0 0 0-5.5 9 1851.988 1851.988 0 0 1-42.5-24.5l27-1c1.323-.816 1.989-1.983 2-3.5l2-10Z"/><path style="opacity:1" fill="#1e4c50" d="M310.5 568.5c.995 10.821 1.328 21.821 1 33h-41a400.456 400.456 0 0 1 40-1v-32Z"/><path style="opacity:1" fill="#65cbcb" d="M186.5 608.5h15c-.167 13.337 0 26.671.5 40a18.839 18.839 0 0 1 6.5 5.5 285.561 285.561 0 0 1 26 13 150.824 150.824 0 0 0 18 11l4 4c13.267 5.247 25.6 12.247 37 21a169.242 169.242 0 0 1 22 11c6.973 5.651 14.64 9.984 23 13 1.374 3.683 4.041 5.349 8 5a279.412 279.412 0 0 1 19 12l4 1c7.676 5.689 16.01 10.356 25 14 4.75.202 9.417-.465 14-2 1.526-1.887 3.526-2.887 6-3 5.239-4.798 11.239-8.131 18-10 4.933-4.604 10.6-7.938 17-10a209.75 209.75 0 0 1 30-18 772.829 772.829 0 0 1 68 .5c-1.238.31-1.238.81 0 1.5a118.288 118.288 0 0 0-17 7.5 10.756 10.756 0 0 0-2.5 3l-1-1c-1.049 1.607-2.549 2.273-4.5 2v3h-6v3h-5v3c-2.524-.071-4.524.929-6 3-2.12-1.372-3.12-.705-3 2a12.93 12.93 0 0 0-5 .5 101.657 101.657 0 0 0-10 7.5 9.108 9.108 0 0 1-5 1v3c-2.51-.446-4.51.22-6 2-2.216.703-4.049 2.036-5.5 4-1.813-1.109-2.646-.442-2.5 2a12.93 12.93 0 0 0-5 .5c-1.497 1.871-3.497 2.871-6 3-1.307 2.324-3.307 3.657-6 4l2 1a12.93 12.93 0 0 1-5 .5v3a9.86 9.86 0 0 0-6 1 35.217 35.217 0 0 1-8 4v3h-6v3h-6v3a8.43 8.43 0 0 0-4 .5l-5 5c-1.284.684-2.451.517-3.5-.5-1.263 2.968-3.263 3.968-6 3a2.428 2.428 0 0 0-.5 2h-12c-.507-1.359-1.507-2.359-3-3a137.913 137.913 0 0 0-11-4v-3c-2.133-1.386-5.133-2.386-9-3v-3h-5v-3c-3.005.247-5.505-.753-7.5-3l-1 1a4.934 4.934 0 0 1-.5-3h-6v-3h-5v-3h-6v-3c-5.922-1.727-11.089-4.727-15.5-9-.718.951-1.551 1.117-2.5.5 1.333-.667 1.333-1.333 0-2a12.93 12.93 0 0 0-5-.5v-3a58.97 58.97 0 0 1-11-3v-3c-8.654-3.265-16.321-6.932-23-11v-3h-6v-3h-5v-3a8.43 8.43 0 0 1-4-.5c-4.85-3.699-10.184-6.199-16-7.5v-3h-6v-3c-2.092-.061-3.592-1.061-4.5-3-1.299.466-2.799.466-4.5 0v-3c-1.788.285-3.455-.048-5-1-2.158-3.144-5.158-4.477-9-4v-3a12.93 12.93 0 0 1-5-.5c-2.625-3.031-6.125-5.864-10.5-8.5-2.537.677-4.537-.323-6-3l-1 1c-1.667-1-3-2.333-4-4-1.049 1.017-2.216 1.184-3.5.5l1-1a15.645 15.645 0 0 1-4-2.5c-1-23.991-1.333-47.991-1-72Z"/><path style="opacity:1" fill="#fbfbfc" d="M232.5 651.5v1c-3.467.054-6.134-1.446-8-4.5a46.99 46.99 0 0 1-10.5-5.5 577.896 577.896 0 0 1-.5-34h15c-.167 13.004 0 26.004.5 39 .057 2.41 1.224 3.744 3.5 4Z"/><path style="opacity:1" fill="#63c4c5" d="M469.5 631.5a65.813 65.813 0 0 1-13 5.5c-3.574 3.951-7.907 6.618-13 8a71.916 71.916 0 0 0-9 7l-4 1a333.033 333.033 0 0 1-27 16c-3.761.738-7.428.405-11-1-1.526-1.887-3.526-2.887-6-3-1.563-.759-2.563-1.926-3-3.5a4987.674 4987.674 0 0 1 83-45c.996.086 1.829-.248 2.5-1 .499 5.323.666 10.656.5 16Z"/><path style="opacity:1" fill="#457c7e" d="M468.5 614.5c1.314 2.415 1.981 5.248 2 8.5-.002 3.021-.336 5.854-1 8.5a128.507 128.507 0 0 0-.5-16c-.671.752-1.504 1.086-2.5 1 .333-1 1-1.667 2-2Z"/><path style="opacity:1" fill="#fdfdfd" d="M332.5 691.5c.323 6.19-.01 12.19-1 18-8.08-2.706-15.413-6.873-22-12.5-5.093-1.382-9.426-4.049-13-8-6.4-2.062-12.067-5.396-17-10l-10-4-4-4a90.42 90.42 0 0 1-14-6l-4-4a112.041 112.041 0 0 1-14-7.5l39-2c1.517-.011 2.684-.677 3.5-2l1-33a46.47 46.47 0 0 0 14.5 6.5 27.816 27.816 0 0 1 8 6 420.445 420.445 0 0 0 32 17 524.038 524.038 0 0 1 1 45.5Z"/><path style="opacity:1" fill="#909699" d="M469.5 707.5a961.42 961.42 0 0 0-1-62c.283-.789.783-1.456 1.5-2a684.92 684.92 0 0 1-.5 64Z"/><path style="opacity:1" fill="#fcfcfc" d="M468.5 645.5a961.42 961.42 0 0 1 1 62c-.787 1.604-2.12 2.271-4 2l-2-36c-.333-2.333-1.667-3.667-4-4l-29-2c3.533-2.935 7.533-5.101 12-6.5l9-7a81.356 81.356 0 0 0 17-8.5Z"/><path style="opacity:1" fill="#92989b" d="M232.5 651.5h40l-39 2c-.667 0-1-.333-1-1v-1Z"/><path style="opacity:1" fill="#c5c8c9" d="m430.5 667.5 29 2c-10.339.166-20.672 0-31-.5.544-.717 1.211-1.217 2-1.5Z"/><path style="opacity:1" fill="#c7cacb" d="m463.5 673.5 2 36c-.06.543-.393.876-1 1a343.225 343.225 0 0 1-1-37Z"/><path style="opacity:1" fill="#1f464a" d="M377.5 676.5h79c.328 10.846-.006 21.513-1 32v-31c-26.172.331-52.172-.002-78-1Z"/><path style="opacity:1" fill="#596266" d="M332.5 691.5c1.317 6.178 1.317 12.512 0 19-.607-.124-.94-.457-1-1 .99-5.81 1.323-11.81 1-18Z"/><path style="opacity:1" fill="#126d6e" d="M340.5 691.5c.988 5.14 1.321 10.474 1 16h114v1h-115v-17Z"/><path style="opacity:1" fill="#fcfcfc" d="M342.5 717.5a2094.75 2094.75 0 0 1 112-.5c-4.69 1.17-8.69 3.503-12 7-6.858 2.879-13.191 6.546-19 11a115.786 115.786 0 0 0-25 13.5 97.288 97.288 0 0 0-12-5.5c-3.543-1.608-6.543-3.942-9-7-5.662-.917-10.329-3.583-14-8-6.538-2.271-12.538-5.605-18-10a4.934 4.934 0 0 0-3-.5Z"/><path style="opacity:1" fill="#66cccb" d="M476.5 757.5c1.333.667 1.333.667 0 0Z"/></svg>