<?xml version="1.0" encoding="UTF-8"?><svg xmlns="http://www.w3.org/2000/svg" width="800" height="800" style="shape-rendering:geometricPrecision;text-rendering:geometricPrecision;image-rendering:optimizeQuality;fill-rule:evenodd;clip-rule:evenodd"><path style="opacity:1" fill="#fba41b" d="M576.5-.5h9a2.429 2.429 0 0 0 .5 2c1.049-1.017 2.216-1.184 3.5-.5a20.495 20.495 0 0 0 2.5 3.5c1.356-.88 2.856-1.214 4.5-1v3c2.822 1.432 6.489 2.432 11 3v3c2.092.061 3.592 1.061 4.5 3 2.537-.677 4.537.323 6 3 2.361-.566 4.194.434 5.5 3l2-1c.35 2.067 2.017 3.067 5 3v3h6v3h5v3h6v3a27.247 27.247 0 0 0 9 3c-.219 1.175.114 2.175 1 3a6.846 6.846 0 0 1 4-1v3a8.435 8.435 0 0 1 4 .5c-1.154.914-.987 1.747.5 2.5 1.299-.466 2.799-.466 4.5 0v3h6v3h5v3a428.986 428.986 0 0 0 20 8.5l-2 1c2.522.61 4.522 1.943 6 4 1.634.493 3.301.66 5 .5v3c2.908-.238 5.242.762 7 3 .951-.826 1.951-.992 3-.5l-1 1a6.977 6.977 0 0 1 3.5 2.5l1-1c.483.948.649 1.948.5 3h6v3h5v3c1.951-.273 3.451.393 4.5 2l1-1c6 4.386 12.5 7.886 19.5 10.5l-1 1c1.525 1.009 3.192 1.509 5 1.5v3h6v3h5v3c2.041.354 3.874.354 5.5 0 .483.948.649 1.948.5 3 2.836 1.276 5.836 1.942 9 2a7971.884 7971.884 0 0 1 2 251c-3.013-.128-5.513.872-7.5 3-2.411-1.653-3.578-.987-3.5 2-1.701.466-3.201.466-4.5 0-3.844 1.975-7.177 4.642-10 8l-1-1c-1.049 1.607-2.549 2.273-4.5 2v3c-3.937.204-7.604 1.204-11 3 .381 2.442-.286 3.109-2 2-.886.825-1.219 1.825-1 3h-6v3a12.93 12.93 0 0 0-5 .5c-1.079 2.043-2.746 3.376-5 4l1 1a12.93 12.93 0 0 1-5 .5v3a9.86 9.86 0 0 0-6 1c-3.423 1.192-6.256 3.192-8.5 6l-1-1c-1.049 1.607-2.549 2.273-4.5 2v3h-6v3h-5v3c-2.185.388-4.018 1.388-5.5 3-2.278-1.12-3.778-.287-4.5 2.5a101.955 101.955 0 0 0-13 5.5v3h-6v3h-6v3c-1.788-.285-3.455.048-5 1 1.129 2.029.629 2.363-1.5 1-1.712 3.452-4.212 4.452-7.5 3v3c-3.096-.593-5.429.407-7 3a47.25 47.25 0 0 1-7 3v3h-6v3c-3.303.19-6.303 1.19-9 3-1.31-6.901-1.31-13.901 0-21a1144.256 1144.256 0 0 0 68-39.5 112.343 112.343 0 0 1 17-8l5-5a377.475 377.475 0 0 0 23-12l8-6a190.921 190.921 0 0 0 21.5-10.5c.667-76 .667-152 0-228a36.078 36.078 0 0 0-3.5-4.5c-3.29-.253-6.29-1.253-9-3a29746.604 29746.604 0 0 1-46-28 457.332 457.332 0 0 0-22-11l-4-4a161.879 161.879 0 0 1-33-19c-6.4-2.062-12.067-5.396-17-10a1126.1 1126.1 0 0 0-31-16c-2.365-3.714-5.698-5.714-10-6-7.082-6.364-15.416-9.031-25-8a12271.425 12271.425 0 0 1-129 74c-7.588 4.924-7.921 10.257-1 16a471.083 471.083 0 0 1 19 11.5 70.852 70.852 0 0 1-10 10 469.398 469.398 0 0 0-19-17.5c-6.774-2.155-13.441-1.988-20 .5a11361.098 11361.098 0 0 0-163.5-94 138.219 138.219 0 0 1-14.5 1.5c-4.194 3.22-8.86 5.554-14 7a2157.081 2157.081 0 0 1-68 39 55.63 55.63 0 0 1-18 10 12458.29 12458.29 0 0 1-28 18c-5.503 1.171-10.17 3.837-14 8A579.672 579.672 0 0 0 38 129.5 3410.247 3410.247 0 0 0 36.5 245c-.152 38.537.348 77.037 1.5 115.5l9.5 5.5c1.374 3.683 4.04 5.349 8 5a13376.247 13376.247 0 0 0 116 67c2.31.497 4.643.663 7 .5.992 7.148 1.325 14.481 1 22a352.105 352.105 0 0 0-22-12.5c-6.204-2.789-12.537-4.622-19-5.5v-3h-6v-3h-3v-3h-6v-3h-5v-3c-2.921.354-5.254-.646-7-3-1.714 1.109-2.381.442-2-2a58.97 58.97 0 0 1-11-3v-3a27.267 27.267 0 0 0-9-3v-3c-2.908.238-5.242-.762-7-3a3.647 3.647 0 0 0-1.5 1c-1.667-1-3-2.333-4-4l-1 1a4.932 4.932 0 0 1-.5-3h-6v-3h-5v-3a544.412 544.412 0 0 1-29-14v-3a58.967 58.967 0 0 1-11-3v-3h-6v-3c-4.013-1.674-8.013-3.341-12-5 .008-83.648.008-167.148 0-250.5a169.104 169.104 0 0 0 15-5.5v-3a58.967 58.967 0 0 0 11-3v-3a417.79 417.79 0 0 0 15-7 32.686 32.686 0 0 0 8.5-6l1 1c1.049-1.607 2.549-2.273 4.5-2v-3a59.029 59.029 0 0 1 11-3 4.932 4.932 0 0 1 .5-3l1 1c2.015-3.065 4.515-4.065 7.5-3v-3h5v-3c1.7.16 3.366-.007 5-.5 1.478-2.057 3.478-3.39 6-4l-2-1a18.436 18.436 0 0 1 6-.5v-3a87.51 87.51 0 0 0 14-5v-3h6v-3h5v-3c1.701-.466 3.201-.466 4.5 0 3.279-4.047 7.946-7.047 14-9a18.264 18.264 0 0 0 5-4l1 1c1.049-1.607 2.549-2.273 4.5-2v-3h5v-3h6v-3c4.612-1.195 9.279-2.862 14-5v-3c1.701-.466 3.201-.466 4.5 0 .908-1.939 2.408-2.939 4.5-3v-3h6v-3c1.788.285 3.455-.048 5-1a38.767 38.767 0 0 0 7-4.5 49.25 49.25 0 0 1 14 0c2.025 1.677 4.359 2.677 7 3-1.134 1.016-.801 1.683 1 2l5 1-1 1c2.622 3.073 5.955 4.573 10 4.5v3h6v3c3.191.262 5.858 1.596 8 4a9.864 9.864 0 0 0 6 1v3c3.58 1.22 7.247 2.386 11 3.5l-2 1c2.767.678 4.934 2.178 6.5 4.5l1-1c3.769 1.797 7.102 4.13 10 7a3.942 3.942 0 0 1 2-1c1.482 1.612 3.315 2.612 5.5 3v3h6v3h5v3h6v3a87.51 87.51 0 0 0 14 5v3c1.699-.16 3.366.007 5 .5l-1 1c1.525 1.009 3.192 1.509 5 1.5v3h6v3h5v3c2.985-1.065 5.485-.065 7.5 3l1-1c.483.948.649 1.948.5 3h5v3h6v3c2.133 1.386 5.133 2.386 9 3v3c2.908-.238 5.242.762 7 3l2-1c.35 2.067 2.017 3.067 5 3v3h6v3c2.516-.255 4.85-1.089 7-2.5a626.207 626.207 0 0 1 29-17c.837-1.011 1.17-2.178 1-3.5 4.493-.216 7.993-2.216 10.5-6 1.011.837 2.178 1.17 3.5 1v-3a59.031 59.031 0 0 0 11-3v-3c1.808.009 3.475-.491 5-1.5l-1-1a12.935 12.935 0 0 1 5-.5v-3a9.864 9.864 0 0 0 6-1 35.213 35.213 0 0 1 8-4v-3h6v-3a59.031 59.031 0 0 1 11-3v-3c1.808.009 3.475-.491 5-1.5-1.388-.89-1.222-1.39.5-1.5 2.071 1.167 3.571.5 4.5-2 6.434-2.343 12.767-5.343 19-9v-3a59.031 59.031 0 0 1 11-3 4.934 4.934 0 0 1 .5-3l1 1c1.995-2.247 4.495-3.247 7.5-3v-3h5v-3h6v-3c1.808.009 3.475-.491 5-1.5l-1-1a12.936 12.936 0 0 1 5-.5v-3c3.552.188 6.219-1.145 8-4Z"/><path style="opacity:1" fill="#242020" d="M618.5 441.5v-12l1-2a2881.968 2881.968 0 0 0 113-65.5 84.545 84.545 0 0 1 18-8.5c.167-70.334 0-140.667-.5-211 .564-4.29-1.269-6.457-5.5-6.5a203.265 203.265 0 0 0-37-21l-4-4a91.311 91.311 0 0 1-23-13 457.332 457.332 0 0 0-22-11l-4-4a483.026 483.026 0 0 1-51-29c-3.415-.406-6.082-2.072-8-5a90.401 90.401 0 0 0-14-6c-5.722-6.435-12.722-8.768-21-7-7.36 5.663-15.36 9.996-24 13-3.619 3.977-7.952 6.644-13 8-2.537 2.546-5.537 4.212-9 5l-4 4-10 4a2551.356 2551.356 0 0 0-60 36 256.913 256.913 0 0 1 17 9.5l-8 9a471.083 471.083 0 0 0-19-11.5c-6.921-5.743-6.588-11.076 1-16a12271.425 12271.425 0 0 0 129-74c9.584-1.031 17.918 1.636 25 8 4.302.286 7.635 2.286 10 6a1126.1 1126.1 0 0 1 31 16c4.933 4.604 10.6 7.938 17 10a161.879 161.879 0 0 0 33 19l4 4a457.332 457.332 0 0 1 22 11 29746.604 29746.604 0 0 0 46 28c2.71 1.747 5.71 2.747 9 3a36.078 36.078 0 0 1 3.5 4.5c.667 76 .667 152 0 228a190.921 190.921 0 0 1-21.5 10.5l-8 6a377.475 377.475 0 0 1-23 12l-5 5a112.343 112.343 0 0 0-17 8 1144.256 1144.256 0 0 1-68 39.5Z"/><path style="opacity:1" fill="#252020" d="M400.5 117.5a57.51 57.51 0 0 0-9 9 37.099 37.099 0 0 0-10-7.5 198.572 198.572 0 0 1-36-21 1516.16 1516.16 0 0 1-91-52A228.066 228.066 0 0 0 230 34.5 112.066 112.066 0 0 0 206.5 48l-10 4-3 3c-6.771 2.445-12.771 6.111-18 11l-10 4-4 4a520.666 520.666 0 0 0-59 34l-9 3c-3.796 3.592-8.13 6.259-13 8A361.546 361.546 0 0 1 48 137.5c-.667 72-.667 144 0 216a7214.146 7214.146 0 0 0 125 72c.5-21.664.667-43.331.5-65a340.197 340.197 0 0 0-18-8.5 55.63 55.63 0 0 0-18-10 78.488 78.488 0 0 0-23-13 56.965 56.965 0 0 0-10.5-7.5 5697.651 5697.651 0 0 1 0-151 6.978 6.978 0 0 1 2.5-3.5 146.497 146.497 0 0 0 31-18c8.372-3.019 16.038-7.352 23-13 5.093-1.382 9.426-4.049 13-8a90.42 90.42 0 0 0 14-6c1.918-2.928 4.585-4.594 8-5a226.438 226.438 0 0 1 29-17 42.498 42.498 0 0 1 13 0l4 4a154.79 154.79 0 0 0 13 6 297.673 297.673 0 0 1 27 16.5c-3.982 2.317-7.315 5.317-10 9-.011-1.517-.677-2.684-2-3.5a101.617 101.617 0 0 1-22-13c-5.603-1.533-10.436-4.366-14.5-8.5-1.604 1.149-3.27 1.149-5 0a1068.258 1068.258 0 0 1-78.5 45.5c-5.201 4.797-11.201 8.13-18 10-5.669 5.02-11.836 9.187-18.5 12.5-.5 45.332-.667 90.665-.5 136 5.301 1.324 9.968 3.824 14 7.5l10 4c1.918 2.928 4.585 4.594 8 5 2.674 3.012 6.007 4.678 10 5l9 7a111.605 111.605 0 0 1 17 8.5 1871.548 1871.548 0 0 0-1 86c-.667 0-1 .333-1 1a24.935 24.935 0 0 1-7-.5 13376.247 13376.247 0 0 1-116-67c-3.96.349-6.626-1.317-8-5l-9.5-5.5A3410.247 3410.247 0 0 1 36.5 245c-.152-38.537.348-77.037 1.5-115.5A579.672 579.672 0 0 1 80.5 107c3.83-4.163 8.497-6.829 14-8 9.313-5.97 18.646-11.97 28-18a55.63 55.63 0 0 0 18-10c22.924-12.6 45.591-25.6 68-39 5.14-1.446 9.806-3.78 14-7 4.872-.246 9.705-.746 14.5-1.5a11361.098 11361.098 0 0 1 163.5 94Z"/><path style="opacity:1" fill="#fdfdfd" d="M391.5 126.5a19.359 19.359 0 0 1-4.5 4 96.595 96.595 0 0 0-17.5-15.5c-8.898-2.822-17.231-1.822-25 3a970.456 970.456 0 0 0-26 26.5 469.398 469.398 0 0 0-19-17.5c-5.965-1.77-11.965-1.937-18-.5a297.673 297.673 0 0 0-27-16.5 154.79 154.79 0 0 1-13-6l-4-4a42.498 42.498 0 0 0-13 0 226.438 226.438 0 0 0-29 17c-3.415.406-6.082 2.072-8 5a90.42 90.42 0 0 1-14 6c-3.574 3.951-7.907 6.618-13 8-6.962 5.648-14.628 9.981-23 13a146.497 146.497 0 0 1-31 18 6.978 6.978 0 0 0-2.5 3.5 5697.651 5697.651 0 0 0 0 151 56.965 56.965 0 0 1 10.5 7.5 78.488 78.488 0 0 1 23 13 55.63 55.63 0 0 1 18 10 340.197 340.197 0 0 1 18 8.5c.167 21.669 0 43.336-.5 65a7214.146 7214.146 0 0 1-125-72c-.667-72-.667-144 0-216A361.546 361.546 0 0 0 80.5 119c4.87-1.741 9.204-4.408 13-8l9-3a520.666 520.666 0 0 1 59-34l4-4 10-4c5.229-4.889 11.229-8.555 18-11l3-3 10-4A112.066 112.066 0 0 1 230 34.5 228.066 228.066 0 0 1 254.5 46a1516.16 1516.16 0 0 0 91 52 198.572 198.572 0 0 0 36 21 37.099 37.099 0 0 1 10 7.5ZM619.5 427.5a961.42 961.42 0 0 1-1-62v-1a31.715 31.715 0 0 1 11-4.5c4.952-4.639 10.619-7.973 17-10 9.313-5.969 18.646-11.969 28-18 7.819-2.16 14.319-6.327 19.5-12.5.667-48.667.667-97.333 0-146a69.2 69.2 0 0 0-4.5-6.5 198.572 198.572 0 0 1-36-21 114.302 114.302 0 0 1-13-6 182.852 182.852 0 0 0-35-20c-3.671-4.417-8.338-7.083-14-8a171.322 171.322 0 0 0-19-12c-8.302-.757-15.635 1.576-22 7a68.695 68.695 0 0 0-14 7c-4.302.286-7.635 2.286-10 6-4.536 1.762-8.536 4.262-12 7.5a519.142 519.142 0 0 0-19-19.5c-7.085-4.204-14.752-5.538-23-4a50.665 50.665 0 0 0-15 11.5 256.913 256.913 0 0 0-17-9.5 2551.356 2551.356 0 0 1 60-36l10-4 4-4c3.463-.788 6.463-2.454 9-5 5.048-1.356 9.381-4.023 13-8 8.64-3.004 16.64-7.337 24-13 8.278-1.768 15.278.565 21 7a90.401 90.401 0 0 1 14 6c1.918 2.928 4.585 4.594 8 5a483.026 483.026 0 0 0 51 29l4 4a457.332 457.332 0 0 1 22 11 91.311 91.311 0 0 0 23 13l4 4a203.265 203.265 0 0 1 37 21c4.231.043 6.064 2.21 5.5 6.5.5 70.333.667 140.666.5 211a84.545 84.545 0 0 0-18 8.5 2881.968 2881.968 0 0 1-113 65.5Z"/><path style="opacity:1" fill="#242020" d="M618.5 364.5a46.809 46.809 0 0 0-1-13c1.333 0 2-.667 2-2a515.876 515.876 0 0 0 61-34.5 12.93 12.93 0 0 1 5-.5c.167-28.335 0-56.669-.5-85l-2-2-1-51a4305.66 4305.66 0 0 1-114.5-66 322.269 322.269 0 0 0-36 20.5c-3.653.83-6.653 2.663-9 5.5a5999.972 5999.972 0 0 0-8-9c3.464-3.238 7.464-5.738 12-7.5 2.365-3.714 5.698-5.714 10-6a68.695 68.695 0 0 1 14-7c6.365-5.424 13.698-7.757 22-7a171.322 171.322 0 0 1 19 12c5.662.917 10.329 3.583 14 8a182.852 182.852 0 0 1 35 20 114.302 114.302 0 0 0 13 6 198.572 198.572 0 0 0 36 21 69.2 69.2 0 0 1 4.5 6.5c.667 48.667.667 97.333 0 146-5.181 6.173-11.681 10.34-19.5 12.5a12318.477 12318.477 0 0 1-28 18c-6.381 2.027-12.048 5.361-17 10a31.715 31.715 0 0 0-11 4.5Z"/><path style="opacity:.994" fill="#020100" d="M514.5 127.5c2.695 3.026 5.362 6.026 8 9a11712.623 11712.623 0 0 0 89.5 94c3.241 4.143 5.074 8.81 5.5 14v107a46.809 46.809 0 0 1 1 13v1a512.628 512.628 0 0 0 0 64v12c-1.31 7.099-1.31 14.099 0 21 .167 69.334 0 138.667-.5 208-1.811 4.155-4.977 6.155-9.5 6a487.687 487.687 0 0 0-62 0h-12v-17c22.173.331 44.173-.003 66-1 .167-138.334 0-276.667-.5-415L483.5 121c-2-.667-4-.667-6 0a2494.965 2494.965 0 0 0-58 61c-4.475 2.061-8.808 1.895-13-.5-2.222-3.596-2.389-7.263-.5-11a341.539 341.539 0 0 1 21.5-22.5 148.31 148.31 0 0 1-14-15l-2-.5a101.815 101.815 0 0 0-15.5 14 3392.746 3392.746 0 0 1-37.5 40.5c-4.937 3.463-9.604 3.297-14-.5-1.08-3.243-1.247-6.576-.5-10a1420.475 1420.475 0 0 0 30.5-33c-4.151-5.496-9.151-9.83-15-13l-3 .5a2494.965 2494.965 0 0 0-58 61c-4.475 2.061-8.808 1.895-13-.5-2.222-3.596-2.389-7.263-.5-11a341.539 341.539 0 0 1 21.5-22.5 148.31 148.31 0 0 1-14-15l-2-.5a101.815 101.815 0 0 0-15.5 14 3392.746 3392.746 0 0 1-37.5 40.5c-4.937 3.463-9.604 3.297-14-.5-1.08-3.243-1.247-6.576-.5-10a3442.901 3442.901 0 0 0 48.5-51c2.685-3.683 6.018-6.683 10-9 6.035-1.437 12.035-1.27 18 .5a469.398 469.398 0 0 1 19 17.5 970.456 970.456 0 0 1 26-26.5c7.769-4.822 16.102-5.822 25-3a96.595 96.595 0 0 1 17.5 15.5 19.359 19.359 0 0 0 4.5-4 57.51 57.51 0 0 1 9-9c6.559-2.488 13.226-2.655 20-.5a469.398 469.398 0 0 1 19 17.5 70.852 70.852 0 0 0 10-10l8-9a50.665 50.665 0 0 1 15-11.5c8.248-1.538 15.915-.204 23 4a519.142 519.142 0 0 1 19 19.5Z"/><path style="opacity:1" fill="#fba31a" d="M271.5 135.5a3442.901 3442.901 0 0 1-48.5 51c-.747 3.424-.58 6.757.5 10-2.172 4.85-5.506 8.85-10 12-4.074-1.49-8.074-1.324-12 .5a228.489 228.489 0 0 1-17.5 18.5l-3 6a6958.7 6958.7 0 0 0-.5 118 111.605 111.605 0 0 0-17-8.5l-9-7c-3.993-.322-7.326-1.988-10-5-3.415-.406-6.082-2.072-8-5l-10-4c-4.032-3.676-8.699-6.176-14-7.5-.167-45.335 0-90.668.5-136 6.664-3.313 12.831-7.48 18.5-12.5 6.799-1.87 12.799-5.203 18-10a1068.258 1068.258 0 0 0 78.5-45.5c1.73 1.149 3.396 1.149 5 0 4.064 4.134 8.897 6.967 14.5 8.5a101.617 101.617 0 0 0 22 13c1.323.816 1.989 1.983 2 3.5Z"/><path style="opacity:1" fill="#fba41b" d="m619.5 349.5-2-105c-.426-5.19-2.259-9.857-5.5-14a11712.623 11712.623 0 0 1-89.5-94c2.347-2.837 5.347-4.67 9-5.5a322.269 322.269 0 0 1 36-20.5 4305.66 4305.66 0 0 0 114.5 66l1 51 2 2c.5 28.331.667 56.665.5 85a12.93 12.93 0 0 0-5 .5 515.876 515.876 0 0 1-61 34.5Z"/><path style="opacity:1" fill="#fedb5e" d="M600.5 658.5h-65v-35c9.848.327 19.514-.006 29-1 5.076-.748 7.743-3.748 8-9-.677-4.677-3.344-7.344-8-8 0-.667-.333-1-1-1v-269c6.996-.978 9.829-4.978 8.5-12-.948-2.07-2.448-3.57-4.5-4.5-58-.667-116-.667-174 0-4.361 2.226-5.861 5.726-4.5 10.5 1.564 3.86 4.398 5.86 8.5 6 .331 90.071-.003 180.071-1 270-6.767 1.182-9.267 5.182-7.5 12a6.978 6.978 0 0 0 2.5 3.5 179.122 179.122 0 0 0 32 1.5c1.105 1.1 2.438 1.767 4 2a784.68 784.68 0 0 0 56 1v33h-89a128.507 128.507 0 0 0-.5-16l-1.5-1.5a511.925 511.925 0 0 0-32-.5c-.167-11.005 0-22.005.5-33a324.273 324.273 0 0 0 33-12 453.017 453.017 0 0 0-.5-51 892.203 892.203 0 0 0-32-10c-1-96.331-1.333-192.664-1-289a102.015 102.015 0 0 1 7.5-10 573.597 573.597 0 0 0 28-29c2.046-4.144 1.88-8.144-.5-12a101.669 101.669 0 0 0 11-13c4.192 2.395 8.525 2.561 13 .5a2494.965 2494.965 0 0 1 58-61c2-.667 4-.667 6 0L600 243.5c.5 138.333.667 276.666.5 415Z"/><path style="opacity:1" fill="#fdda5d" d="M344.5 186.5c-2.209 4.881-5.543 8.881-10 12-4.098-2.82-8.098-2.653-12 .5a228.489 228.489 0 0 1-17.5 18.5l-3 6a5509.9 5509.9 0 0 0-.5 105 168.474 168.474 0 0 0-31 1.5c-3.955 4.463-3.955 8.963 0 13.5 1.35 1.45 3.016 2.117 5 2 .662 53.677-.004 107.01-2 160a475.95 475.95 0 0 0-16.5-5c-1.711-.061-3.044.606-4 2a289.106 289.106 0 0 0 0 34c.374.916.874 1.75 1.5 2.5a298.046 298.046 0 0 1 22 6.5 664.474 664.474 0 0 1-1 51c-6.326 1.828-12.659 3.661-19 5.5a6.978 6.978 0 0 0-3.5 2.5 289.106 289.106 0 0 0 0 34c2 1.333 2 2.667 0 4-.5 8.66-.666 17.327-.5 26h-13c-.167-138.334 0-276.667.5-415l35-37c2.046-4.144 1.88-8.144-.5-12a101.669 101.669 0 0 0 11-13c4.192 2.395 8.525 2.561 13 .5a2494.965 2494.965 0 0 1 58-61l3-.5c5.849 3.17 10.849 7.504 15 13a1420.475 1420.475 0 0 1-30.5 33c-.747 3.424-.58 6.757.5 10Z"/><path style="opacity:1" fill="#cba51b" d="M406.5 181.5a101.669 101.669 0 0 1-11 13c-4.496-2.758-8.83-2.591-13 .5L348 231.5c-2.717 3.53-4.217 7.53-4.5 12a20133.193 20133.193 0 0 1-3 284 161.933 161.933 0 0 1-21.5-7c-.5-96.999-.667-193.999-.5-291a139.363 139.363 0 0 1 16.5-18c3.452-4.537 3.285-8.871-.5-13 4.457-3.119 7.791-7.119 10-12 4.396 3.797 9.063 3.963 14 .5a3392.746 3392.746 0 0 0 37.5-40.5 101.815 101.815 0 0 1 15.5-14l2 .5a148.31 148.31 0 0 0 14 15 341.539 341.539 0 0 0-21.5 22.5c-1.889 3.737-1.722 7.404.5 11Z"/><path style="opacity:1" fill="#c8a31b" d="M285.5 191.5a101.669 101.669 0 0 1-11 13c-4.496-2.758-8.83-2.591-13 .5L227 241.5c-2.146 2.626-3.479 5.626-4 9-.5 127.333-.667 254.666-.5 382h-25c-.167-131.334 0-262.667.5-394a192.01 192.01 0 0 1 16-17c3.452-4.537 3.285-8.871-.5-13 4.494-3.15 7.828-7.15 10-12 4.396 3.797 9.063 3.963 14 .5a3392.746 3392.746 0 0 0 37.5-40.5 101.815 101.815 0 0 1 15.5-14l2 .5a148.31 148.31 0 0 0 14 15 341.539 341.539 0 0 0-21.5 22.5c-1.889 3.737-1.722 7.404.5 11Z"/><path style="opacity:1" d="M395.5 194.5c2.38 3.856 2.546 7.856.5 12a573.597 573.597 0 0 1-28 29 102.015 102.015 0 0 0-7.5 10 20739.202 20739.202 0 0 0-1 288 111.342 111.342 0 0 1-16-5v-285c.283-4.47 1.783-8.47 4.5-12l34.5-36.5c4.17-3.091 8.504-3.258 13-.5ZM334.5 198.5c3.785 4.129 3.952 8.463.5 13a139.363 139.363 0 0 0-16.5 18 21028.365 21028.365 0 0 0-1 290 214.185 214.185 0 0 1-16-4 7227.48 7227.48 0 0 0-1-170h-25c-1.984.117-3.65-.55-5-2-3.955-4.537-3.955-9.037 0-13.5a168.474 168.474 0 0 1 31-1.5 5509.9 5509.9 0 0 1 .5-105l3-6a228.489 228.489 0 0 0 17.5-18.5c3.902-3.153 7.902-3.32 12-.5Z"/><path style="opacity:.995" fill="#040301" d="M274.5 204.5c2.38 3.856 2.546 7.856.5 12l-35 37c-.5 138.333-.667 276.666-.5 415 4.134.985 8.468 1.318 13 1-.419 2.825.581 4.991 3 6.5 45 .667 90 .667 135 0 1.833-.5 3-1.667 3.5-3.5.499-4.321.666-8.654.5-13h90v9c-27.002-.167-54.002 0-81 .5l-1.5 1.5a112.97 112.97 0 0 0-.5 15h-113a116.8 116.8 0 0 1-21 1 880.902 880.902 0 0 0-41-1.5c-1.833-.5-3-1.667-3.5-3.5l-1-21a44.11 44.11 0 0 0-13.5-6.5c-1.083-2.056-2.75-3.389-5-4a145.053 145.053 0 0 0-17-.5c-3.175-.34-5.341-2.007-6.5-5-.5-61.332-.667-122.666-.5-184a66.641 66.641 0 0 0 0-23c-.325-28.74.009-57.407 1-86a6958.7 6958.7 0 0 1 .5-118l3-6a228.489 228.489 0 0 0 17.5-18.5c3.926-1.824 7.926-1.99 12-.5 3.785 4.129 3.952 8.463.5 13a192.01 192.01 0 0 0-16 17c-.5 131.333-.667 262.666-.5 394h25c-.167-127.334 0-254.667.5-382 .521-3.374 1.854-6.374 4-9l34.5-36.5c4.17-3.091 8.504-3.258 13-.5Z"/><path style="opacity:1" fill="#030201" d="M473.5 202.5c33.341.173 49.508 16.839 48.5 50-7.688 25.601-24.854 36.768-51.5 33.5-26.86-9.9-36.693-28.734-29.5-56.5 6.659-14.073 17.493-23.073 32.5-27Z"/><path style="opacity:1" fill="#c7a21b" d="M473.5 220.5c5.828-.45 11.495.216 17 2 .599 14.938-6.068 25.438-20 31.5-3.946 1.324-7.946 1.991-12 2-5.883-16.403-.883-28.236 15-35.5Z"/><path style="opacity:1" fill="#66530e" d="M343.5 243.5v285c-1.291.237-2.291-.096-3-1a20133.193 20133.193 0 0 0 3-284Z"/><path style="opacity:1" fill="#7e520d" d="m617.5 244.5 2 105c0 1.333-.667 2-2 2v-107Z"/><path style="opacity:1" fill="#7e641c" d="M504.5 243.5c.091 16.412-8.242 24.912-25 25.5 11.216-5.716 19.549-14.216 25-25.5Z"/><path style="opacity:1" d="M563.5 335.5h-166c-4.102-.14-6.936-2.14-8.5-6-1.361-4.774.139-8.274 4.5-10.5 58-.667 116-.667 174 0 2.052.93 3.552 2.43 4.5 4.5 1.329 7.022-1.504 11.022-8.5 12Z"/><path style="opacity:1" fill="#fef5d5" d="M397.5 335.5h166v269c-9.75.306-19.416-.027-29-1a180.58 180.58 0 0 0-25-25.5c-18.997-.5-37.997-.667-57-.5v-47c26.669.167 53.335 0 80-.5l1.5-1.5a323.223 323.223 0 0 0-.5-44l-3-1.5a2688.562 2688.562 0 0 0-127 .5l-1.5 3c-.667 38-.667 76 0 114a31.447 31.447 0 0 1 4.5 5h-10c.997-89.929 1.331-179.929 1-270Z"/><path style="opacity:1" fill="#fee899" d="M275.5 345.5h1v161c-1.291.237-2.291-.096-3-1a3201.315 3201.315 0 0 0 2-160Z"/><path style="opacity:1" fill="#fef5d5" d="M276.5 345.5h24c.167 56.334 0 112.668-.5 169a194.677 194.677 0 0 1-23.5-8v-161Z"/><path style="opacity:1" fill="#7f7f7f" d="M618.5 365.5a961.42 961.42 0 0 0 1 62l-1 2a512.628 512.628 0 0 1 0-64Z"/><path style="opacity:1" fill="#7a500d" d="M178.5 438.5c0-.667.333-1 1-1a66.641 66.641 0 0 1 0 23c.325-7.519-.008-14.852-1-22Z"/><path style="opacity:1" fill="#293338" d="M534.5 603.5v19c-.328 12.178.005 24.178 1 36h65a1089.684 1089.684 0 0 1-66 1v17h12c-4.163 2.027-7.997 4.693-11.5 8a479.215 479.215 0 0 1-1.5 30.5c-18.71.192-37.377.692-56 1.5h-22a625.298 625.298 0 0 0-50-1c-1.517-.011-2.684-.677-3.5-2-.5-8.994-.666-17.994-.5-27v-1a112.97 112.97 0 0 1 .5-15l1.5-1.5c26.998-.5 53.998-.667 81-.5v-44h-57c-1.562-.233-2.895-.9-4-2-5.333-6-11-11.667-17-17a31.447 31.447 0 0 0-4.5-5c-.667-38-.667-76 0-114l1.5-3a2688.562 2688.562 0 0 1 127-.5l3 1.5a323.223 323.223 0 0 1 .5 44l-1.5 1.5c-26.665.5-53.331.667-80 .5v47c19.003-.167 38.003 0 57 .5a180.58 180.58 0 0 1 25 25.5Z"/><path style="opacity:1" fill="#ed7025" d="M526.5 605.5v102h-117v-31c26.335.167 52.669 0 79-.5 1.833-.5 3-1.667 3.5-3.5a702.15 702.15 0 0 0 0-53l-1.5-1.5-61-1-19.5-19.5c-.5-35.665-.667-71.332-.5-107h117v32c-26.669-.167-53.335 0-80 .5l-1.5 1.5a870.065 870.065 0 0 0 0 59l1.5 1.5 61 1a522.556 522.556 0 0 1 19 19.5Z"/><path style="opacity:1" fill="#2e3435" d="M318.5 229.5c-.167 97.001 0 194.001.5 291a161.933 161.933 0 0 0 21.5 7c.709.904 1.709 1.237 3 1a111.342 111.342 0 0 0 16 5c-.333-96.168.001-192.168 1-288-.333 96.336 0 192.669 1 289a892.203 892.203 0 0 1 32 10 453.017 453.017 0 0 1 .5 51 324.273 324.273 0 0 1-33 12 544.417 544.417 0 0 0-.5 33c10.672-.167 21.339 0 32 .5l1.5 1.5c.499 5.323.666 10.656.5 16h90v1h-90a84.902 84.902 0 0 1-.5 13c-.5 1.833-1.667 3-3.5 3.5-45 .667-90 .667-135 0-2.419-1.509-3.419-3.675-3-6.5-4.532.318-8.866-.015-13-1h13c-.166-8.673 0-17.34.5-26 2-1.333 2-2.667 0-4a289.106 289.106 0 0 1 0-34 6.978 6.978 0 0 1 3.5-2.5c6.341-1.839 12.674-3.672 19-5.5a832.91 832.91 0 0 0 24-8 324.95 324.95 0 0 0 1-36 199.2 199.2 0 0 1-24-7 298.046 298.046 0 0 0-22-6.5 9.454 9.454 0 0 1-1.5-2.5 289.106 289.106 0 0 1 0-34c.956-1.394 2.289-2.061 4-2a475.95 475.95 0 0 1 16.5 5c.709.904 1.709 1.237 3 1a194.677 194.677 0 0 0 23.5 8c.5-56.332.667-112.666.5-169a7227.48 7227.48 0 0 1 1 170 214.185 214.185 0 0 0 16 4c-.333-96.835.001-193.501 1-290Z"/><path style="opacity:1" fill="#ec7025" d="M260.5 510.5a4603.784 4603.784 0 0 1 126 40v41l-125 40a133.155 133.155 0 0 1-1-23 7327.495 7327.495 0 0 0 113-34.5c1.333-2 1.333-4 0-6a10903.825 10903.825 0 0 0-112-35 130.161 130.161 0 0 1-1-22.5Z"/><path style="opacity:1" fill="#fdf4d4" d="M276.5 545.5a199.2 199.2 0 0 0 24 7 324.95 324.95 0 0 1-1 36 832.91 832.91 0 0 1-24 8 664.474 664.474 0 0 0 1-51Z"/><path style="opacity:1" d="M317.5 558.5v25a135.283 135.283 0 0 0-15.5 5 204.664 204.664 0 0 1 .5-35 348.153 348.153 0 0 0 15 5Z"/><path style="opacity:1" fill="#39300c" d="M317.5 558.5c1.291-.237 2.291.096 3 1-1.323 3.438-1.99 7.271-2 11.5.001 4.015.335 7.849 1 11.5-.342.838-1.008 1.172-2 1v-25Z"/><path style="opacity:1" fill="#c7a21c" d="M320.5 559.5a241.828 241.828 0 0 1 23 7v9a247.35 247.35 0 0 1-24 7c-.665-3.651-.999-7.485-1-11.5.01-4.229.677-8.062 2-11.5Z"/><path style="opacity:1" fill="#020304" d="M343.5 566.5a346.387 346.387 0 0 1 14 4.5 114.313 114.313 0 0 0-14 4.5v-9Z"/><path style="opacity:1" fill="#bcb69e" d="M534.5 603.5c9.584.973 19.25 1.306 29 1 .667 0 1 .333 1 1h-30v-2Z"/><path style="opacity:1" fill="#030301" d="M396.5 605.5h10c6 5.333 11.667 11 17 17a179.122 179.122 0 0 1-32-1.5 6.978 6.978 0 0 1-2.5-3.5c-1.767-6.818.733-10.818 7.5-12Z"/><path style="opacity:1" fill="#8a522d" d="M526.5 605.5a2652.905 2652.905 0 0 1 1 103c-39.504.332-78.837-.001-118-1h117v-102Z"/><path style="opacity:1" fill="#020201" d="M534.5 605.5h30c4.656.656 7.323 3.323 8 8-.257 5.252-2.924 8.252-8 9h-30v-17Z"/><path style="opacity:1" d="M342.5 639.5a352.647 352.647 0 0 1-37-1c-2.544-1.208-3.878-3.208-4-6h-17a506.989 506.989 0 0 1 34-11c8.15.993 16.483 1.326 25 1v-9c5-2.443 10.334-4.11 16-5v32a77.772 77.772 0 0 1-17-1Z"/><path style="opacity:1" fill="#bb991e" d="M343.5 613.5v9c-8.517.326-16.85-.007-25-1a136.732 136.732 0 0 1 25-8Z"/><path style="opacity:1" fill="#9e8e4a" d="M534.5 622.5h30c-9.486.994-19.152 1.327-29 1v35c-.995-11.822-1.328-23.822-1-36Z"/><path style="opacity:1" fill="#b2a050" d="M427.5 624.5h57v34h-1v-33a784.68 784.68 0 0 1-56-1Z"/><path style="opacity:1" fill="#f3d25a" d="M284.5 632.5h17c.122 2.792 1.456 4.792 4 6a200.55 200.55 0 0 1-40 0 157.349 157.349 0 0 1 19-6Z"/><path style="opacity:1" fill="#a79548" d="M265.5 638.5a200.55 200.55 0 0 0 40 0 352.647 352.647 0 0 0 37 1 1150.87 1150.87 0 0 1-83 .5 20.093 20.093 0 0 1 6-1.5Z"/><path style="opacity:1" fill="#574232" d="M386.5 648.5h-126v20c-.991-6.813-1.325-13.813-1-21a4031.82 4031.82 0 0 1 127 1Z"/><path style="opacity:1" fill="#ec7025" d="M386.5 648.5v20h-126v-20h126Z"/><path style="opacity:1" fill="#faa31b" d="M186.5 649.5c5.676-.166 11.343.001 17 .5 2.25.611 3.917 1.944 5 4a44.11 44.11 0 0 1 13.5 6.5l1 21c.5 1.833 1.667 3 3.5 3.5 13.741.184 27.408.684 41 1.5a565.649 565.649 0 0 0 48 27.5c6.973 5.651 14.64 9.984 23 13 1.374 3.683 4.041 5.349 8 5a279.412 279.412 0 0 1 19 12c4.871 1.741 9.204 4.408 13 8a35.157 35.157 0 0 1 10 5 66.364 66.364 0 0 0 9.5 2.5c5.889-.966 11.389-2.799 16.5-5.5 5.239-4.798 11.239-8.131 18-10 4.933-4.604 10.6-7.938 17-10l4-4a406.034 406.034 0 0 0 24-13.5c18.623-.808 37.29-1.308 56-1.5a479.215 479.215 0 0 0 1.5-30.5c3.503-3.307 7.337-5.973 11.5-8a487.687 487.687 0 0 1 62 0c-.951 1.419-1.284 3.085-1 5-3.064 1.19-5.731 2.857-8 5h-3v3a58.97 58.97 0 0 0-11 3v3c-1.859-.039-3.192.794-4 2.5a12.93 12.93 0 0 1-5 .5v3c-2.582-.475-4.582.192-6 2-2.281 1.928-4.947 2.928-8 3v3h-6v3c-4.045-.073-7.378 1.427-10 4.5l1 1a118.288 118.288 0 0 0-17 7.5 10.756 10.756 0 0 0-2.5 3l-1-1c-1.049 1.607-2.549 2.273-4.5 2v3h-6v3h-5v3c-2.524-.071-4.524.929-6 3-2.12-1.372-3.12-.705-3 2a12.93 12.93 0 0 0-5 .5 101.657 101.657 0 0 0-10 7.5 9.108 9.108 0 0 1-5 1v3c-2.51-.446-4.51.22-6 2-2.216.703-4.049 2.036-5.5 4-1.813-1.109-2.646-.442-2.5 2a12.93 12.93 0 0 0-5 .5c-1.497 1.871-3.497 2.871-6 3-1.307 2.324-3.307 3.657-6 4l2 1a12.93 12.93 0 0 1-5 .5v3a9.86 9.86 0 0 0-6 1 35.217 35.217 0 0 1-8 4v3h-6v3h-6v3a8.43 8.43 0 0 0-4 .5l-5 5c-1.284.684-2.451.517-3.5-.5-1.263 2.968-3.263 3.968-6 3a2.428 2.428 0 0 0-.5 2h-12c-.507-1.359-1.507-2.359-3-3a137.913 137.913 0 0 0-11-4v-3c-2.133-1.386-5.133-2.386-9-3v-3h-5v-3c-3.005.247-5.505-.753-7.5-3l-1 1a4.934 4.934 0 0 1-.5-3h-6v-3h-5v-3h-6v-3c-5.922-1.727-11.089-4.727-15.5-9-.718.951-1.551 1.117-2.5.5 1.333-.667 1.333-1.333 0-2a12.93 12.93 0 0 0-5-.5v-3a58.97 58.97 0 0 1-11-3v-3c-8.654-3.265-16.321-6.932-23-11v-3h-6v-3h-5v-3a8.43 8.43 0 0 1-4-.5c-4.85-3.699-10.184-6.199-16-7.5v-3h-6v-3c-2.092-.061-3.592-1.061-4.5-3-1.299.466-2.799.466-4.5 0v-3c-1.788.285-3.455-.048-5-1-2.158-3.144-5.158-4.477-9-4v-3a12.93 12.93 0 0 1-5-.5c-2.625-3.031-6.125-5.864-10.5-8.5-2.537.677-4.537-.323-6-3l-1 1c-1.667-1-3-2.333-4-4-1.049 1.017-2.216 1.184-3.5.5l1-1a15.645 15.645 0 0 1-4-2.5 241.046 241.046 0 0 1-1-31Z"/><path style="opacity:1" fill="#7f7e7e" d="M288.5 685.5h113v1c-36.504-.332-72.837.002-109 1-1.653-.16-2.986-.826-4-2Z"/><path style="opacity:1" fill="#252021" d="M288.5 685.5c1.014 1.174 2.347 1.84 4 2a134.315 134.315 0 0 1 13 8.5c4.758 1.884 9.092 4.551 13 8 6.799 1.87 12.799 5.203 18 10 6.783 2.76 13.117 6.427 19 11 5.325 1.003 9.658 3.67 13 8l9 3c2.457 3.058 5.457 5.392 9 7a97.288 97.288 0 0 1 12 5.5 115.786 115.786 0 0 1 25-13.5c5.809-4.454 12.142-8.121 19-11 2.932-3.474 6.599-5.641 11-6.5l2-1h22a406.034 406.034 0 0 1-24 13.5l-4 4c-6.4 2.062-12.067 5.396-17 10-6.761 1.869-12.761 5.202-18 10-5.111 2.701-10.611 4.534-16.5 5.5a66.364 66.364 0 0 1-9.5-2.5 35.157 35.157 0 0 0-10-5c-3.796-3.592-8.129-6.259-13-8a279.412 279.412 0 0 0-19-12c-3.959.349-6.626-1.317-8-5-8.36-3.016-16.027-7.349-23-13a565.649 565.649 0 0 1-48-27.5 116.8 116.8 0 0 0 21-1Z"/><path style="opacity:1" fill="#fdfdfd" d="M401.5 686.5c-.166 9.006 0 18.006.5 27 .816 1.323 1.983 1.989 3.5 2l48 2c-4.401.859-8.068 3.026-11 6.5-6.858 2.879-13.191 6.546-19 11a115.786 115.786 0 0 0-25 13.5 97.288 97.288 0 0 0-12-5.5c-3.543-1.608-6.543-3.942-9-7l-9-3c-3.342-4.33-7.675-6.997-13-8-5.883-4.573-12.217-8.24-19-11-5.201-4.797-11.201-8.13-18-10-3.908-3.449-8.242-6.116-13-8a134.315 134.315 0 0 0-13-8.5 2971.316 2971.316 0 0 1 109-1Z"/><path style="opacity:1" fill="#fca51a" d="M599.5 686.5c1.333.667 1.333.667 0 0ZM570.5 703.5c1.333.667 1.333.667 0 0Z"/><path style="opacity:1" fill="#909699" d="M405.5 715.5c16.842-.33 33.508.003 50 1l-2 1-48-2Z"/><path style="opacity:1" fill="#fca51a" d="M476.5 757.5c1.333.667 1.333.667 0 0Z"/></svg>