<svg viewBox="0 0 185.259 228.386" xmlns="http://www.w3.org/2000/svg"><path d="M132.42 200.77c-2.407-3.935-6.467-14.854-11.251-30.257-3.737-12.031-12.388-30.756-14.21-30.756-.516 0-.608 2.147-.205 4.772.495 3.221.232 4.772-.807 4.772-.847 0-1.436 1.074-1.31 2.386.41 4.254-.016 4.53-3.38 2.2-3.197-2.215-3.427-2.173-6.61 1.192-2.014 2.128-3.292 5.002-3.28 7.376.03 5.968-1.808 7.297-10.09 7.297-4.124 0-9.132.713-11.13 1.585s-6.468 1.692-9.937 1.824c0 0-5.529 2.194-6.307.24 1.22-2.573 7.832-7.496 10.925-7.702 1.353-.023 2.122-1.404 2.98-1.467 11.567-.862.273-1.347-.893-1.458-.929-.09-2.124-.09-2.656 0-1.766.294-1.002-1.532 1.664-3.976 2.107-1.932 4.132-2.268 10.18-1.688 7.091.68 7.685.505 9.788-2.887 3.183-5.135 1.864-11.3-5.106-23.866-3.22-5.807-6.223-12.662-6.673-15.235-.56-3.207-2.977-6.898-7.683-11.735-8.614-8.852-13.106-18.134-15.634-32.3-1.087-6.092-3.088-13.575-4.446-16.628-3.315-7.456-11.58-15.595-15.836-15.595-2.48 0-8.008 2.632-8.008.608 0-3.387 9.044-11.515 12.136-11.515 1.269 0 4.584-1.227 7.367-2.727s6.496-2.727 8.25-2.727c6.04 0 14.066 5.438 20.4 13.824 3.96 5.242 8.494 9.439 12.627 11.686 11.695 6.359 25.17 16.803 29.183 22.621 5.491 7.959 9.493 16.587 16.88 36.39 6.547 17.554 18.105 41.852 26.951 56.656 4.408 7.377 7.99 14.82 5.806 14.82-3.325 0-13.785-8.206-21.277-17.438l-5.663-6.979.95 10.722c.523 5.898 2.056 14.937 3.406 20.088 1.929 7.355 2.16 10.28 2.127 11.397-.12 3.987-1.057.449-2.25.049-2.198-.737-2.58-.245-2.58 3.316 0 1.763-.227 5.407-.638 6.015-.74 1.097-2.077-2.15-3.76-4.9z"/></svg>