<?xml version="1.0" standalone="no"?>
<!DOCTYPE svg PUBLIC "-//W3C//DTD SVG 20010904//EN"
 "http://www.w3.org/TR/2001/REC-SVG-20010904/DTD/svg10.dtd">
<svg version="1.0" xmlns="http://www.w3.org/2000/svg"
 width="400.000000pt" height="400.000000pt" viewBox="0 0 400.000000 400.000000"
 preserveAspectRatio="xMidYMid meet">

<g transform="translate(0.000000,400.000000) scale(0.100000,-0.100000)"
fill="#000000" stroke="none">
<path d="M1750 3835 c-746 -102 -1360 -652 -1546 -1384 -71 -279 -71 -623 0
-902 137 -539 505 -985 1011 -1225 493 -233 1077 -233 1570 0 575 273 968 810
1050 1433 105 801 -316 1571 -1050 1919 -180 85 -369 139 -575 164 -113 13
-342 11 -460 -5z m663 -892 c49 -226 185 -359 405 -395 l62 -11 0 -158 0 -157
-28 -6 c-34 -8 -154 8 -219 29 -26 9 -88 36 -136 61 -49 24 -90 44 -92 44 -2
0 -5 -177 -8 -392 -4 -442 -4 -443 -82 -603 -156 -325 -534 -465 -842 -312
-122 60 -242 193 -300 332 -48 114 -60 290 -29 417 66 278 290 454 629 494
l57 6 0 -170 0 -171 -42 -11 c-168 -42 -250 -85 -297 -157 -37 -55 -45 -94
-39 -181 8 -116 69 -200 182 -253 48 -23 75 -29 126 -29 117 1 195 47 247 147
57 106 56 91 54 851 l-2 702 169 0 169 0 16 -77z"/>
</g>
</svg>
