<?xml version="1.0" encoding="UTF-8"?>
<svg xmlns="http://www.w3.org/2000/svg" width="800" height="800" style="shape-rendering:geometricPrecision;text-rendering:geometricPrecision;image-rendering:optimizeQuality;fill-rule:evenodd;clip-rule:evenodd"><path style="opacity:1" fill="#fdcb65" d="M576.5-.5h9a2.429 2.429 0 0 0 .5 2c1.049-1.017 2.216-1.184 3.5-.5a20.495 20.495 0 0 0 2.5 3.5c1.356-.88 2.856-1.214 4.5-1v3c2.822 1.432 6.489 2.432 11 3v3c2.092.061 3.592 1.061 4.5 3 2.537-.677 4.537.323 6 3 2.361-.566 4.194.434 5.5 3l2-1c.35 2.067 2.017 3.067 5 3v3h6v3h5v3h6v3a27.247 27.247 0 0 0 9 3c-.219 1.175.114 2.175 1 3a6.846 6.846 0 0 1 4-1v3a8.435 8.435 0 0 1 4 .5c-1.154.914-.987 1.747.5 2.5 1.299-.466 2.799-.466 4.5 0v3h6v3h5v3a428.986 428.986 0 0 0 20 8.5l-2 1c2.522.61 4.522 1.943 6 4 1.634.493 3.301.66 5 .5v3c2.908-.238 5.242.762 7 3 .951-.826 1.951-.992 3-.5l-1 1a6.977 6.977 0 0 1 3.5 2.5l1-1c.483.948.649 1.948.5 3h6v3h5v3c1.951-.273 3.451.393 4.5 2l1-1c6 4.386 12.5 7.886 19.5 10.5l-1 1c1.525 1.009 3.192 1.509 5 1.5v3h6v3h5v3c2.041.354 3.874.354 5.5 0 .483.948.649 1.948.5 3 2.836 1.276 5.836 1.942 9 2a7971.884 7971.884 0 0 1 2 251c-3.013-.128-5.513.872-7.5 3-2.411-1.653-3.578-.987-3.5 2-1.701.466-3.201.466-4.5 0-3.844 1.975-7.177 4.642-10 8l-1-1c-1.049 1.607-2.549 2.273-4.5 2v3c-3.937.204-7.604 1.204-11 3 .381 2.442-.286 3.109-2 2-.886.825-1.219 1.825-1 3h-6v3a12.93 12.93 0 0 0-5 .5c-1.079 2.043-2.746 3.376-5 4l1 1a12.93 12.93 0 0 1-5 .5v3a9.86 9.86 0 0 0-6 1c-3.423 1.192-6.256 3.192-8.5 6l-1-1c-1.049 1.607-2.549 2.273-4.5 2v3h-6v3h-5v3c-2.185.388-4.018 1.388-5.5 3-2.278-1.12-3.778-.287-4.5 2.5a101.955 101.955 0 0 0-13 5.5v3h-6v3h-6v3c-1.788-.285-3.455.048-5 1 1.129 2.029.629 2.363-1.5 1-1.712 3.452-4.212 4.452-7.5 3v3c-3.096-.593-5.429.407-7 3a47.25 47.25 0 0 1-7 3v3h-6v3c-1.788-.285-3.455.048-5 1a28.335 28.335 0 0 0-9.5 6l-1-1c-1.049 1.607-2.549 2.273-4.5 2-.167 12.338 0 24.671.5 37 .414.457.914.791 1.5 1a3571.518 3571.518 0 0 1 0 169c-1.671 2.01-2.338 4.343-2 7-3.064 1.19-5.731 2.857-8 5h-3v3h-4c-1.322-13.902-1.322-27.902 0-42-.216-2.181.617-3.847 2.5-5 .667-52 .667-104 0-156a11.105 11.105 0 0 0-4.5-3h-3l-38-2a1894.86 1894.86 0 0 0 46-27.5 472.117 472.117 0 0 0 46-26l4-1a1884.13 1884.13 0 0 1 86-50l8-6a190.921 190.921 0 0 0 21.5-10.5c.667-76 .667-152 0-228a36.078 36.078 0 0 0-3.5-4.5c-3.29-.253-6.29-1.253-9-3a29746.604 29746.604 0 0 1-46-28 457.332 457.332 0 0 0-22-11l-4-4a161.879 161.879 0 0 1-33-19c-6.4-2.062-12.067-5.396-17-10a1126.1 1126.1 0 0 0-31-16c-2.365-3.714-5.698-5.714-10-6-7.082-6.364-15.416-9.031-25-8a12271.425 12271.425 0 0 1-129 74c-7.588 4.924-7.921 10.257-1 16a287.246 287.246 0 0 1 25 16 496.946 496.946 0 0 1 33 18c4.333.667 8.667.667 13 0a3162.857 3162.857 0 0 1 66-36.5 4261.045 4261.045 0 0 0 114 65.5c.826 17.093 1.326 34.26 1.5 51.5l2 2c.5 28.331.667 56.665.5 85a12.93 12.93 0 0 0-5 .5 679.07 679.07 0 0 0-23 15 349.402 349.402 0 0 1-37 19c-4.015 3.785-8.681 6.452-14 8-2.508 3.042-5.508 5.376-9 7a517.21 517.21 0 0 1-27 14l-4 4c-8.449 3.02-16.115 7.353-23 13a365.644 365.644 0 0 1-21 10.5c1.112-3.557 2.778-6.89 5-10a123.476 123.476 0 0 0 5-17c6.857-2.312 13.19-5.812 19-10.5a114.425 114.425 0 0 0 30-18c5.35-1.428 9.85-4.261 13.5-8.5.667-37.333.667-74.667 0-112a111.89 111.89 0 0 0-25.5-14.5l-4-4a117.669 117.669 0 0 1-17-8c-3.671-4.417-8.338-7.083-14-8a10892.14 10892.14 0 0 0-27-17 251.471 251.471 0 0 1-36-22c-23.691-11.196-46.358-23.862-68-38l-4-1a331.67 331.67 0 0 0-40-23 191.292 191.292 0 0 0-20-13c-6.538-2.271-12.538-5.605-18-10a154.472 154.472 0 0 1-13-6 1013.157 1013.157 0 0 0-54-31c-9.098-8.801-19.765-11.801-32-9-4.194 3.22-8.86 5.554-14 7a2157.081 2157.081 0 0 1-68 39 55.63 55.63 0 0 1-18 10 12458.29 12458.29 0 0 1-28 18c-5.503 1.171-10.17 3.837-14 8A579.672 579.672 0 0 0 38 129.5a3439.804 3439.804 0 0 0-1.5 116c-.155 38.379.345 76.712 1.5 115l9.5 5.5c1.374 3.683 4.04 5.349 8 5a13376.247 13376.247 0 0 0 116 67c4.091 1.227 7.591.394 10.5-2.5.101-3.2.768-6.2 2-9 .667-23.333.667-46.667 0-70a20.231 20.231 0 0 0-7.5-7.5 82.15 82.15 0 0 1-22-13c-3.993-.322-7.326-1.988-10-5-3.415-.406-6.082-2.072-8-5l-10-4c-4.032-3.676-8.699-6.176-14-7.5-.167-45.335 0-90.668.5-136 2.67-2.75 5.836-4.583 9.5-5.5 6.962-5.648 14.628-9.981 23-13a148.265 148.265 0 0 1 31-18 102.07 102.07 0 0 1 22-13 417.167 417.167 0 0 1 29.5-18.5c1.73 1.149 3.396 1.149 5 0 4.064 4.134 8.897 6.967 14.5 8.5l35 21c5.457 4.21 11.457 7.544 18 10l21 13a110.348 110.348 0 0 0-14 11l-10 1-2.5 2.5c-1.049-1.017-2.216-1.184-3.5-.5-5.981 4.997-12.648 8.664-20 11-4.461 5.477-10.128 8.811-17 10a463.337 463.337 0 0 1-45 27 34.706 34.706 0 0 0-7.5 6.5c-.5 109.666-.667 219.333-.5 329a16.58 16.58 0 0 0-2.5 4c-.667 14-.667 28 0 42 .708.881 1.542 1.547 2.5 2-.167 13.337 0 26.671.5 40a18.839 18.839 0 0 1 6.5 5.5 285.561 285.561 0 0 1 26 13c12.673 9.05 26.007 16.716 40 23l19 13a24.569 24.569 0 0 0 8 3 201.636 201.636 0 0 1 27 17l10 4c1.374 3.683 4.041 5.349 8 5a14732.27 14732.27 0 0 1 42 25c6.635 3.121 13.302 3.121 20 0a6791.056 6791.056 0 0 0 71-41.5c22.839-.331 45.506.003 68 1-1.238.31-1.238.81 0 1.5a118.288 118.288 0 0 0-17 7.5 10.756 10.756 0 0 0-2.5 3l-1-1c-1.049 1.607-2.549 2.273-4.5 2v3h-6v3h-5v3c-2.524-.071-4.524.929-6 3-2.12-1.372-3.12-.705-3 2a12.93 12.93 0 0 0-5 .5 101.657 101.657 0 0 0-10 7.5 9.108 9.108 0 0 1-5 1v3c-2.51-.446-4.51.22-6 2-2.216.703-4.049 2.036-5.5 4-1.813-1.109-2.646-.442-2.5 2a12.93 12.93 0 0 0-5 .5c-1.497 1.871-3.497 2.871-6 3-1.307 2.324-3.307 3.657-6 4l2 1a12.93 12.93 0 0 1-5 .5v3a9.86 9.86 0 0 0-6 1 35.217 35.217 0 0 1-8 4v3h-6v3h-6v3a8.43 8.43 0 0 0-4 .5l-5 5c-1.284.684-2.451.517-3.5-.5-1.263 2.968-3.263 3.968-6 3a2.428 2.428 0 0 0-.5 2h-12c-.507-1.359-1.507-2.359-3-3a137.913 137.913 0 0 0-11-4v-3c-2.133-1.386-5.133-2.386-9-3v-3h-5v-3c-3.005.247-5.505-.753-7.5-3l-1 1a4.934 4.934 0 0 1-.5-3h-6v-3h-5v-3h-6v-3c-5.922-1.727-11.089-4.727-15.5-9-.718.951-1.551 1.117-2.5.5 1.333-.667 1.333-1.333 0-2a12.93 12.93 0 0 0-5-.5v-3a58.97 58.97 0 0 1-11-3v-3c-8.654-3.265-16.321-6.932-23-11v-3h-6v-3h-5v-3a8.43 8.43 0 0 1-4-.5c-4.85-3.699-10.184-6.199-16-7.5v-3h-6v-3c-2.092-.061-3.592-1.061-4.5-3-1.299.466-2.799.466-4.5 0v-3c-1.788.285-3.455-.048-5-1-2.158-3.144-5.158-4.477-9-4v-3a12.93 12.93 0 0 1-5-.5c-2.625-3.031-6.125-5.864-10.5-8.5-2.537.677-4.537-.323-6-3l-1 1c-1.667-1-3-2.333-4-4-1.049 1.017-2.216 1.184-3.5.5l1-1a15.645 15.645 0 0 1-4-2.5 23352.191 23352.191 0 0 1-1.5-216 1204.023 1204.023 0 0 0-28.5-16.5c-6.204-2.789-12.537-4.622-19-5.5v-3h-6v-3h-3v-3h-6v-3h-5v-3c-2.921.354-5.254-.646-7-3-1.714 1.109-2.381.442-2-2a58.97 58.97 0 0 1-11-3v-3a27.267 27.267 0 0 0-9-3v-3c-2.908.238-5.242-.762-7-3a3.647 3.647 0 0 0-1.5 1c-1.667-1-3-2.333-4-4l-1 1a4.932 4.932 0 0 1-.5-3h-6v-3h-5v-3a544.412 544.412 0 0 1-29-14v-3a58.967 58.967 0 0 1-11-3v-3h-6v-3c-4.013-1.674-8.013-3.341-12-5 .008-83.648.008-167.148 0-250.5a169.104 169.104 0 0 0 15-5.5v-3a58.967 58.967 0 0 0 11-3v-3a417.79 417.79 0 0 0 15-7 32.686 32.686 0 0 0 8.5-6l1 1c1.049-1.607 2.549-2.273 4.5-2v-3a59.029 59.029 0 0 1 11-3 4.932 4.932 0 0 1 .5-3l1 1c2.015-3.065 4.515-4.065 7.5-3v-3h5v-3c1.7.16 3.366-.007 5-.5 1.478-2.057 3.478-3.39 6-4l-2-1a18.436 18.436 0 0 1 6-.5v-3a87.51 87.51 0 0 0 14-5v-3h6v-3h5v-3c1.701-.466 3.201-.466 4.5 0 3.279-4.047 7.946-7.047 14-9a18.264 18.264 0 0 0 5-4l1 1c1.049-1.607 2.549-2.273 4.5-2v-3h5v-3h6v-3c4.612-1.195 9.279-2.862 14-5v-3c1.701-.466 3.201-.466 4.5 0 .908-1.939 2.408-2.939 4.5-3v-3h6v-3c1.788.285 3.455-.048 5-1a38.767 38.767 0 0 0 7-4.5 49.25 49.25 0 0 1 14 0c2.025 1.677 4.359 2.677 7 3-1.134 1.016-.801 1.683 1 2l5 1-1 1c2.622 3.073 5.955 4.573 10 4.5v3h6v3c3.191.262 5.858 1.596 8 4a9.864 9.864 0 0 0 6 1v3c3.58 1.22 7.247 2.386 11 3.5l-2 1c2.767.678 4.934 2.178 6.5 4.5l1-1c3.769 1.797 7.102 4.13 10 7a3.942 3.942 0 0 1 2-1c1.482 1.612 3.315 2.612 5.5 3v3h6v3h5v3h6v3a87.51 87.51 0 0 0 14 5v3c1.699-.16 3.366.007 5 .5l-1 1c1.525 1.009 3.192 1.509 5 1.5v3h6v3h5v3c2.985-1.065 5.485-.065 7.5 3l1-1c.483.948.649 1.948.5 3h5v3h6v3c2.133 1.386 5.133 2.386 9 3v3c2.908-.238 5.242.762 7 3l2-1c.35 2.067 2.017 3.067 5 3v3h6v3c2.516-.255 4.85-1.089 7-2.5a626.207 626.207 0 0 1 29-17c.837-1.011 1.17-2.178 1-3.5 4.493-.216 7.993-2.216 10.5-6 1.011.837 2.178 1.17 3.5 1v-3a59.031 59.031 0 0 0 11-3v-3c1.808.009 3.475-.491 5-1.5l-1-1a12.935 12.935 0 0 1 5-.5v-3a9.864 9.864 0 0 0 6-1 35.213 35.213 0 0 1 8-4v-3h6v-3a59.031 59.031 0 0 1 11-3v-3c1.808.009 3.475-.491 5-1.5-1.388-.89-1.222-1.39.5-1.5 2.071 1.167 3.571.5 4.5-2 6.434-2.343 12.767-5.343 19-9v-3a59.031 59.031 0 0 1 11-3 4.934 4.934 0 0 1 .5-3l1 1c1.995-2.247 4.495-3.247 7.5-3v-3h5v-3h6v-3c1.808.009 3.475-.491 5-1.5l-1-1a12.936 12.936 0 0 1 5-.5v-3c3.552.188 6.219-1.145 8-4Z"/><path style="opacity:1" fill="#242020" d="M549.5 481.5c-1.135.603-2.135.936-3 1-6.854.324-13.521-.009-20-1 5.623-2.432 10.623-5.932 15-10.5l5-1a199.899 199.899 0 0 1 27-17 5188.496 5188.496 0 0 0 168-96 73.86 73.86 0 0 0 9-3.5 7901.316 7901.316 0 0 0-1.5-216 2129.254 2129.254 0 0 1-37.5-21.5c-3.415-.406-6.082-2.072-8-5a91.311 91.311 0 0 1-23-13 457.332 457.332 0 0 0-22-11c-2.508-3.042-5.508-5.376-9-7a457.332 457.332 0 0 1-22-11l-24-15c-3.415-.406-6.082-2.072-8-5a90.401 90.401 0 0 0-14-6c-5.722-6.435-12.722-8.768-21-7-7.36 5.663-15.36 9.996-24 13-3.619 3.977-7.952 6.644-13 8-2.537 2.546-5.537 4.212-9 5l-4 4-10 4a2551.356 2551.356 0 0 0-60 36 7185.005 7185.005 0 0 1 26 16 114.065 114.065 0 0 0 14 6c4.2 3.6 8.867 6.433 14 8.5a684.54 684.54 0 0 1 19-8.5 43.593 43.593 0 0 1 13-8c2.365-3.714 5.698-5.714 10-6a705.673 705.673 0 0 1 21-12c4.719-2.307 9.719-2.974 15-2a113.107 113.107 0 0 0 28 15l5 5a182.852 182.852 0 0 1 35 20 193.115 193.115 0 0 1 32 19 197.694 197.694 0 0 1 17 8 69.2 69.2 0 0 1 4.5 6.5c.667 48.667.667 97.333 0 146-5.181 6.173-11.681 10.34-19.5 12.5a12318.477 12318.477 0 0 1-28 18c-6.381 2.027-12.048 5.361-17 10-6.943 1.604-12.943 4.937-18 10a59.724 59.724 0 0 0-20 11 146.497 146.497 0 0 0-31 18c-6.4 2.062-12.067 5.396-17 10a90.42 90.42 0 0 1-14 6c-5.236 4.899-11.236 8.566-18 11a766.27 766.27 0 0 0-25 21.5 197.291 197.291 0 0 1-12.5 8c-.5 8.994-.666 17.994-.5 27-5.888-.512-11.555.155-17 2v-21c-4.728.59-9.061 1.923-13 4-25.863 5.832-51.53 5.166-77-2-1.28-1.431-2.947-2.098-5-2v19a72.367 72.367 0 0 0-12 .5 9.454 9.454 0 0 0-2.5 1.5c-1.41 5.879-1.91 11.879-1.5 18a400.456 400.456 0 0 0-40 1c-10.314.826-19.98 3.659-29 8.5a1086.203 1086.203 0 0 0-7 5.5 151.198 151.198 0 0 0-24 1c1.114-4.126 3.447-7.459 7-10 3.856-3.1 7.523-6.433 11-10 1.789-1.533 3.789-2.533 6-3v-199c-1.643.02-2.976-.647-4-2-4.437-37.365 3.563-71.031 24-101-4.873 1.48-9.206 3.98-13 7.5-7.273 1.918-13.607 5.585-19 11a24.569 24.569 0 0 0-8 3 6204.11 6204.11 0 0 1-24 15 239.706 239.706 0 0 0-12 5.5v325h-12c-.167-109.667 0-219.334.5-329a34.706 34.706 0 0 1 7.5-6.5 463.337 463.337 0 0 0 45-27c6.872-1.189 12.539-4.523 17-10 7.352-2.336 14.019-6.003 20-11 1.284-.684 2.451-.517 3.5.5l2.5-2.5 10-1a110.348 110.348 0 0 1 14-11l-21-13c-6.543-2.456-12.543-5.79-18-10l-35-21c-5.603-1.533-10.436-4.366-14.5-8.5-1.604 1.149-3.27 1.149-5 0a417.167 417.167 0 0 0-29.5 18.5 102.07 102.07 0 0 0-22 13 148.265 148.265 0 0 0-31 18c-8.372 3.019-16.038 7.352-23 13-3.664.917-6.83 2.75-9.5 5.5-.5 45.332-.667 90.665-.5 136 5.301 1.324 9.968 3.824 14 7.5l10 4c1.918 2.928 4.585 4.594 8 5 2.674 3.012 6.007 4.678 10 5a82.15 82.15 0 0 0 22 13 20.231 20.231 0 0 1 7.5 7.5c.667 23.333.667 46.667 0 70-1.232 2.8-1.899 5.8-2 9-2.909 2.894-6.409 3.727-10.5 2.5a13376.247 13376.247 0 0 1-116-67c-3.96.349-6.626-1.317-8-5l-9.5-5.5a3364.223 3364.223 0 0 1-1.5-115c-.152-38.704.348-77.371 1.5-116A579.672 579.672 0 0 1 80.5 107c3.83-4.163 8.497-6.829 14-8 9.313-5.97 18.646-11.97 28-18a55.63 55.63 0 0 0 18-10c22.924-12.6 45.591-25.6 68-39 5.14-1.446 9.806-3.78 14-7 12.235-2.801 22.902.199 32 9a1013.157 1013.157 0 0 1 54 31 154.472 154.472 0 0 0 13 6c5.462 4.395 11.462 7.729 18 10a191.292 191.292 0 0 1 20 13 331.67 331.67 0 0 1 40 23l4 1c21.642 14.138 44.309 26.804 68 38a251.471 251.471 0 0 0 36 22c8.98 5.636 17.98 11.302 27 17 5.662.917 10.329 3.583 14 8a117.669 117.669 0 0 0 17 8l4 4a111.89 111.89 0 0 1 25.5 14.5c.667 37.333.667 74.667 0 112-3.65 4.239-8.15 7.072-13.5 8.5a114.425 114.425 0 0 1-30 18c-5.81 4.688-12.143 8.188-19 10.5a123.476 123.476 0 0 1-5 17c-2.222 3.11-3.888 6.443-5 10a365.644 365.644 0 0 0 21-10.5c6.885-5.647 14.551-9.98 23-13l4-4a517.21 517.21 0 0 0 27-14c3.492-1.624 6.492-3.958 9-7 5.319-1.548 9.985-4.215 14-8a349.402 349.402 0 0 0 37-19 679.07 679.07 0 0 1 23-15 12.93 12.93 0 0 1 5-.5c.167-28.335 0-56.669-.5-85l-2-2c-.174-17.24-.674-34.407-1.5-51.5a4261.045 4261.045 0 0 1-114-65.5 3162.857 3162.857 0 0 0-66 36.5 42.479 42.479 0 0 1-13 0 496.946 496.946 0 0 0-33-18 287.246 287.246 0 0 0-25-16c-6.921-5.743-6.588-11.076 1-16a12271.425 12271.425 0 0 0 129-74c9.584-1.031 17.918 1.636 25 8 4.302.286 7.635 2.286 10 6a1126.1 1126.1 0 0 1 31 16c4.933 4.604 10.6 7.938 17 10a161.879 161.879 0 0 0 33 19l4 4a457.332 457.332 0 0 1 22 11 29746.604 29746.604 0 0 0 46 28c2.71 1.747 5.71 2.747 9 3a36.078 36.078 0 0 1 3.5 4.5c.667 76 .667 152 0 228a190.921 190.921 0 0 1-21.5 10.5l-8 6a1884.13 1884.13 0 0 0-86 50l-4 1a472.117 472.117 0 0 1-46 26 1894.86 1894.86 0 0 1-46 27.5Z"/><path style="opacity:1" fill="#fdfdfd" d="M229.5 34.5a159.788 159.788 0 0 1 25 11.5 1516.16 1516.16 0 0 0 91 52 198.572 198.572 0 0 0 36 21 71.52 71.52 0 0 0 18 10c3.581 3.919 7.914 6.586 13 8-21.419-1.624-41.419 1.21-60 8.5a242.709 242.709 0 0 0-19.5 10 2729.797 2729.797 0 0 1-41.5-24.5 90.374 90.374 0 0 1-23-13c-5.243-1.623-9.91-4.289-14-8a154.79 154.79 0 0 1-13-6l-4-4a42.498 42.498 0 0 0-13 0 226.438 226.438 0 0 0-29 17c-3.415.406-6.082 2.072-8 5a90.42 90.42 0 0 1-14 6c-3.574 3.951-7.907 6.618-13 8-6.962 5.648-14.628 9.981-23 13a146.497 146.497 0 0 1-31 18 6.978 6.978 0 0 0-2.5 3.5 5697.651 5697.651 0 0 0 0 151 213.392 213.392 0 0 0 27.5 15.5 70.186 70.186 0 0 0 18 10l6 5a340.197 340.197 0 0 1 18 8.5c.167 21.669 0 43.336-.5 65a7214.146 7214.146 0 0 1-125-72c-.667-72-.667-144 0-216A361.546 361.546 0 0 0 80.5 119c4.87-1.741 9.204-4.408 13-8 10.857-4.097 20.857-9.763 30-17 6.867-2.927 13.201-6.594 19-11a3139.568 3139.568 0 0 0 19-9l4-4 10-4c2.508-3.042 5.508-5.376 9-7a632.763 632.763 0 0 0 45-24.5ZM526.5 481.5a716.538 716.538 0 0 1-53 1c-.166-9.006 0-18.006.5-27a197.291 197.291 0 0 0 12.5-8 766.27 766.27 0 0 1 25-21.5c6.764-2.434 12.764-6.101 18-11a90.42 90.42 0 0 0 14-6c4.933-4.604 10.6-7.938 17-10a146.497 146.497 0 0 1 31-18 59.724 59.724 0 0 1 20-11c5.057-5.063 11.057-8.396 18-10 4.952-4.639 10.619-7.973 17-10 9.313-5.969 18.646-11.969 28-18 7.819-2.16 14.319-6.327 19.5-12.5.667-48.667.667-97.333 0-146a69.2 69.2 0 0 0-4.5-6.5 197.694 197.694 0 0 0-17-8 193.115 193.115 0 0 0-32-19 182.852 182.852 0 0 0-35-20l-5-5a113.107 113.107 0 0 1-28-15c-5.281-.974-10.281-.307-15 2a705.673 705.673 0 0 0-21 12c-4.302.286-7.635 2.286-10 6a43.593 43.593 0 0 0-13 8 684.54 684.54 0 0 0-19 8.5 50.162 50.162 0 0 1-14-8.5 114.065 114.065 0 0 1-14-6 7185.005 7185.005 0 0 0-26-16 2551.356 2551.356 0 0 1 60-36l10-4 4-4c3.463-.788 6.463-2.454 9-5 5.048-1.356 9.381-4.023 13-8 8.64-3.004 16.64-7.337 24-13 8.278-1.768 15.278.565 21 7a90.401 90.401 0 0 1 14 6c1.918 2.928 4.585 4.594 8 5l24 15a457.332 457.332 0 0 0 22 11c3.492 1.624 6.492 3.958 9 7a457.332 457.332 0 0 1 22 11 91.311 91.311 0 0 0 23 13c1.918 2.928 4.585 4.594 8 5a2129.254 2129.254 0 0 0 37.5 21.5 7901.316 7901.316 0 0 1 1.5 216 73.86 73.86 0 0 1-9 3.5 5188.496 5188.496 0 0 1-168 96 199.899 199.899 0 0 0-27 17l-5 1c-4.377 4.568-9.377 8.068-15 10.5Z"/><path style="opacity:1" fill="#656d78" d="M425.5 158.5c1.956 3.435 4.956 5.602 9 6.5 18.532 11.865 33.699 27.032 45.5 45.5a115.855 115.855 0 0 1 8.5 21 240.36 240.36 0 0 1-21 24.5 145.196 145.196 0 0 0-19 3 1594.413 1594.413 0 0 1-65 20c-33.181 6.286-66.514 7.119-100 2.5-.465-49.008 20.202-86.175 62-111.5 25.442-13.591 52.109-17.425 80-11.5Z"/><path style="opacity:1" fill="#434a54" d="M425.5 158.5c33.811 8.122 59.811 27.122 78 57-4.367 6.03-9.367 11.363-15 16a115.855 115.855 0 0 0-8.5-21c-11.801-18.468-26.968-33.635-45.5-45.5-4.044-.898-7.044-3.065-9-6.5Z"/><path style="opacity:1" fill="#d6d5d6" d="M289.5 193.5c.283-.789.783-1.456 1.5-2 .528 1.316.028 1.983-1.5 2Z"/><path style="opacity:1" fill="#fefefe" d="M289.5 193.5c-20.437 29.969-28.437 63.635-24 101 1.024 1.353 2.357 2.02 4 2v199c-2.211.467-4.211 1.467-6 3a122.789 122.789 0 0 1-11 10c-3.553 2.541-5.886 5.874-7 10-2.475 1.187-3.475 3.187-3 6-1.593.848-2.76 2.181-3.5 4-4.273 10.154-6.107 20.821-5.5 32h-20v-325a239.706 239.706 0 0 1 12-5.5 6204.11 6204.11 0 0 0 24-15 24.569 24.569 0 0 1 8-3c5.393-5.415 11.727-9.082 19-11 3.794-3.52 8.127-6.02 13-7.5ZM513.5 197.5c1.101-1.098 2.434-1.265 4-.5 3.908 3.449 8.242 6.116 13 8a803.828 803.828 0 0 0 52 30.5 1734.395 1734.395 0 0 1 .5 102 249.84 249.84 0 0 1-22.5 11.5c-5.373 5.383-11.706 9.049-19 11l-4.5 4.5a1449.886 1449.886 0 0 0 1-103c-2.752-21.696-9.752-42.03-21-61-.759-1.563-1.926-2.563-3.5-3Z"/><path style="opacity:1" fill="#353b44" d="M511.5 235.5c5.181 13.765 7.348 28.098 6.5 43-7.934-8.097-17.1-14.431-27.5-19 7.819-7.473 14.819-15.473 21-24Z"/><path style="opacity:1" fill="#e8c4b9" d="M496.5 284.5a812.942 812.942 0 0 0-1.5 38c-.05-2.244-.883-3.911-2.5-5-5.042-17.228-14.709-31.395-29-42.5 12.253-1.915 23.253 1.252 33 9.5Z"/><path style="opacity:1" fill="#d94452" d="M417.5 414.5c-.17-1.322.163-2.489 1-3.5 14.748-8.922 25.415-21.422 32-37.5 10.509-28.104 6.842-54.104-11-78-3-2.333-5.667-5-8-8-1.122-1.13-2.456-1.797-4-2 3.995-2.325 8.328-3.492 13-3.5 25.218 13.352 38.218 34.185 39 62.5-3.399 38.727-24.065 62.06-62 70Z"/><path style="opacity:1" fill="#eb5464" d="M427.5 285.5c1.544.203 2.878.87 4 2 2.333 3 5 5.667 8 8 17.842 23.896 21.509 49.896 11 78-6.585 16.078-17.252 28.578-32 37.5-.837 1.011-1.17 2.178-1 3.5-41.448 1.512-67.614-17.821-78.5-58-2.343-19.879 2.157-37.879 13.5-54a578.56 578.56 0 0 0 75-17Z"/><path style="opacity:1" fill="#d2b0a8" d="M496.5 284.5a140.488 140.488 0 0 1 21.5 23c.667 17 .667 34 0 51-7.254 42.974-31.087 72.808-71.5 89.5a112.716 112.716 0 0 1-24 5.5 2711.368 2711.368 0 0 0 19-8.5 264.651 264.651 0 0 1 20.5-17.5 222.257 222.257 0 0 1 16-19 373.617 373.617 0 0 0 10.5-21c-.247-1.213-.914-1.88-2-2 10.922-21.783 12.922-44.45 6-68 1.617 1.089 2.45 2.756 2.5 5a812.942 812.942 0 0 1 1.5-38Z"/><path style="opacity:1" fill="#6e5d59" d="M313.5 301.5h18c.237 1.291-.096 2.291-1 3-5.427-1.646-11.094-2.646-17-3Z"/><path style="opacity:1" fill="#e8c4ba" d="M313.5 301.5c5.906.354 11.573 1.354 17 3-16.091 36.955-11.091 70.788 15 101.5 32.421 29.126 68.421 34.126 108 15 13.977-9.141 24.977-20.974 33-35.5 1.086.12 1.753.787 2 2a373.617 373.617 0 0 1-10.5 21 222.257 222.257 0 0 0-16 19 264.651 264.651 0 0 0-20.5 17.5 2711.368 2711.368 0 0 1-19 8.5c-43.722 3.716-78.555-11.95-104.5-47-11.197-16.938-17.53-35.605-19-56a600.2 600.2 0 0 1 0-49 321.37 321.37 0 0 1 14.5 0Z"/><path style="opacity:1" fill="#2a1f20" d="M404.5 304.5c8.992-.839 13.159 3.161 12.5 12-5.682 5.621-10.848 5.288-15.5-1-1.131-1.574-1.298-3.241-.5-5a27.563 27.563 0 0 0 3.5-6Z"/><path style="opacity:1" fill="#251c1d" d="M416.5 333.5a578.59 578.59 0 0 1-1 47c-5.621 5.815-10.455 5.148-14.5-2l-.5-22.5a156.693 156.693 0 0 1 1.5-24.5c5.424-4.181 10.258-3.514 14.5 2Z"/><path style="opacity:1" fill="#612229" d="M416.5 333.5c1.161 15.161 1.328 30.494.5 46-.383.556-.883.889-1.5 1a578.59 578.59 0 0 0 1-47Z"/><path style="opacity:1" fill="#fecb65" d="M281.5 369.5a1329.903 1329.903 0 0 1 9 26 341.989 341.989 0 0 0 9 15.5l-1 1c3.87 4.886 7.87 9.719 12 14.5-2.07.052-4.403.219-7 .5l-2.5 2.5c-.5 18.997-.667 37.997-.5 57-6.524-.521-12.691.479-18.5 3-.5-39.999-.667-79.999-.5-120Z"/><path style="opacity:1" fill="#fcfcfc" d="M309.5 440.5a613.635 613.635 0 0 1 34.5 20c.5 7.993.666 15.993.5 24h-35v-44Z"/><path style="opacity:1" fill="#bdbfc3" d="M366.5 465.5h-3v17h-2v-19c2.053-.098 3.72.569 5 2Z"/><path style="opacity:1" fill="#e4e7eb" d="M366.5 465.5c25.47 7.166 51.137 7.832 77 2 3.884.076 7.55-.59 11-2v25a101.14 101.14 0 0 1-16 11 115.847 115.847 0 0 0-16-4 84.902 84.902 0 0 0-.5-13 11.333 11.333 0 0 0-3.5-1.5c-18.33-.5-36.664-.667-55-.5v-17h3Z"/><path style="opacity:1" fill="#bec0c4" d="M456.5 484.5c.175 2.121-.159 4.121-1 6h-1v-25c-3.45 1.41-7.116 2.076-11 2 3.939-2.077 8.272-3.41 13-4v21Z"/><path style="opacity:1" fill="#5a5642" d="m549.5 481.5 38 2a420.766 420.766 0 0 1-41-1c.865-.064 1.865-.397 3-1Z"/><path style="opacity:1" fill="#293439" d="M361.5 482.5h2c18.336-.167 36.67 0 55 .5 1.266.309 2.433.809 3.5 1.5.499 4.321.666 8.654.5 13v171h7c5.344-.166 10.677.001 16 .5a6.978 6.978 0 0 1 3.5 2.5c.965 14.427.632 28.76-1 43l-1.5 1.5a2400.05 2400.05 0 0 1-98 0l-1.5-1.5a484.008 484.008 0 0 1 0-44l1.5-1.5c6.658-.5 13.325-.666 20-.5h3v-13a85.021 85.021 0 0 0 0-26v-16a861.84 861.84 0 0 0 0-83c-7.674.166-15.341 0-23-.5l-1.5-1.5c-.5-8.327-.666-16.66-.5-25h-41a400.456 400.456 0 0 1 40-1c-.41-6.121.09-12.121 1.5-18a9.454 9.454 0 0 1 2.5-1.5 72.367 72.367 0 0 1 12-.5Z"/><path style="opacity:.99" fill="#263238" d="M526.5 481.5c6.479.991 13.146 1.324 20 1a420.766 420.766 0 0 0 41 1h3c.658 54.794 1.325 109.461 2 164-1.322 14.098-1.322 28.098 0 42 .166 7.341 0 14.674-.5 22a11.333 11.333 0 0 1-1.5 3.5 324.812 324.812 0 0 1-43 1.5 1156.835 1156.835 0 0 0-68-1h-23c.029-20.792.029-41.792 0-63v-39c.332-34.171-.002-68.171-1-102 1.31-7.099 1.31-14.099 0-21 .841-1.879 1.175-3.879 1-6 5.445-1.845 11.112-2.512 17-2 17.743.319 35.41-.014 53-1Z"/><path style="opacity:1" fill="#232021" d="M590.5 483.5a11.105 11.105 0 0 1 4.5 3c.667 52 .667 104 0 156-1.883 1.153-2.716 2.819-2.5 5a445918.95 445918.95 0 0 1-2-164Z"/><path style="opacity:1" fill="#af852b" d="M414.5 491.5h-60v31c-.994-10.487-1.328-21.154-1-32a931.31 931.31 0 0 1 61 1Z"/><path style="opacity:1" fill="#575132" d="M464.5 490.5v217h119v-217c.999 72.498 1.333 145.165 1 218h-121c-.333-72.835.001-145.502 1-218Z"/><path style="opacity:1" fill="#edaa25" d="M414.5 491.5c-.167 60.334 0 120.668.5 181 .498 2.044 1.665 3.378 3.5 4 7.148.992 14.481 1.325 22 1v31h-87v-32c8.007.166 16.007 0 24-.5l1.5-1.5c.667-50 .667-100 0-150l-1.5-1.5c-7.659-.5-15.326-.666-23-.5v-31h60Z"/><path style="opacity:1" fill="#242021" d="M454.5 490.5h1c1.31 6.901 1.31 13.901 0 21v1a105.047 105.047 0 0 0-12 6.5 32.462 32.462 0 0 1-8 .5 304.652 304.652 0 0 0-9 18.5c4.385 23.876 8.718 47.709 13 71.5-.17 1.322.163 2.489 1 3.5 5.323.499 10.656.666 16 .5v16h-34v-132a115.847 115.847 0 0 1 16 4 101.14 101.14 0 0 0 16-11Z"/><path style="opacity:1" fill="#edab25" d="M464.5 490.5h119v217h-119v-217Z"/><path style="opacity:1" fill="#cacfd7" d="M305.5 503.5h41c-.166 8.34 0 16.673.5 25l1.5 1.5c7.659.5 15.326.666 23 .5v82h-81v-4c13.337.167 26.671 0 40-.5l1.5-1.5a333.527 333.527 0 0 0-.5-44.5 296.268 296.268 0 0 0-41-1.5c.167-13.337 0-26.671-.5-40l-1.5-1.5a177.566 177.566 0 0 1-19-1.5c2.303-1.825 4.636-3.658 7-5.5 9.02-4.841 18.686-7.674 29-8.5Z"/><path style="opacity:1" fill="#a0a6ad" d="M455.5 511.5a2601.572 2601.572 0 0 1 1 102 128.507 128.507 0 0 1-16-.5c-.837-1.011-1.17-2.178-1-3.5 5.032 1.87 10.365 2.537 16 2v-100Z"/><path style="opacity:1" fill="#cbd0d8" d="M455.5 512.5v99c-5.635.537-10.968-.13-16-2a20438.266 20438.266 0 0 0-13-71.5 304.652 304.652 0 0 1 9-18.5 32.462 32.462 0 0 0 8-.5 105.047 105.047 0 0 1 12-6.5Z"/><path style="opacity:1" fill="#273338" d="M269.5 517.5a177.566 177.566 0 0 0 19 1.5l1.5 1.5c.5 13.329.667 26.663.5 40 13.74-.446 27.407.054 41 1.5a333.527 333.527 0 0 1 .5 44.5l-1.5 1.5c-13.329.5-26.663.667-40 .5v21c.166 6.675 0 13.342-.5 20l-1.5 1.5a484.008 484.008 0 0 1-44 0l-1.5-1.5c-.5-6.992-.666-13.992-.5-21v-20h-41c-.958-.453-1.792-1.119-2.5-2-.667-14-.667-28 0-42a16.58 16.58 0 0 1 2.5-4h41v-36c-.475-2.813.525-4.813 3-6a151.198 151.198 0 0 1 24-1Z"/><path style="opacity:1" fill="#293338" d="M502.5 522.5c14.67-.167 29.337 0 44 .5l1.5 1.5c.83 50.237.664 100.404-.5 150.5a552.224 552.224 0 0 1-47 0 11.333 11.333 0 0 1-1.5-3.5 3601.9 3601.9 0 0 1 .5-147c1.239-.442 2.239-1.109 3-2Z"/><path style="opacity:1" fill="#221f1f" d="M242.5 524.5v36h-9c-.607-11.179 1.227-21.846 5.5-32 .74-1.819 1.907-3.152 3.5-4Z"/><path style="opacity:1" fill="#edaa25" d="M324.5 568.5v32a400.456 400.456 0 0 0-40 1l-1.5 3a799.793 799.793 0 0 0-.5 40h-32a304.505 304.505 0 0 0-1.5-42 9.454 9.454 0 0 0-2.5-1.5 799.793 799.793 0 0 0-40-.5v-32c14.004.167 28.004 0 42-.5l1.5-1.5c.5-13.663.667-27.329.5-41h32a840.27 840.27 0 0 0 .5 41l1.5 1.5c13.329.5 26.663.667 40 .5Z"/><path style="opacity:1" fill="#cbd0d8" d="M540.5 530.5v81h-33v-11c7.696.331 15.362-.003 23-1 2.247-.745 4.08-2.078 5.5-4a85.832 85.832 0 0 0 1.5-17.5c-.006-5.216-.673-10.049-2-14.5-.629-2.629-2.295-4.296-5-5a81.883 81.883 0 0 0-18-1c-.212-3.212-1.879-5.212-5-6a116.8 116.8 0 0 1-1-21h34Z"/><path style="opacity:1" fill="#787f86" d="M540.5 530.5a861.84 861.84 0 0 1 0 83h-34v-1c11.512.328 22.846-.005 34-1v-81Z"/><path style="opacity:1" fill="#242122" d="M507.5 551.5c3.121.788 4.788 2.788 5 6a81.883 81.883 0 0 1 18 1c2.705.704 4.371 2.371 5 5 .166 10.339 0 20.672-.5 31-1.264 2.107-3.097 3.107-5.5 3h-23v-15c4.532.318 8.866-.015 13-1v-7h-13c-.325-7.852.008-15.518 1-23Z"/><path style="opacity:1" fill="#595132" d="M324.5 568.5c.995 10.821 1.328 21.821 1 33h-41a400.456 400.456 0 0 1 40-1v-32Z"/><path style="opacity:1" fill="#b3b7bb" d="M506.5 574.5h13v7h-13v-7Z"/><path style="opacity:1" fill="#eaedf1" d="M507.5 575.5h11v5h-11v-5Z"/><path style="opacity:1" fill="#252021" d="M201.5 608.5h12c-.167 11.338 0 22.672.5 34a46.99 46.99 0 0 0 10.5 5.5l4 4a90.42 90.42 0 0 0 14 6 77.598 77.598 0 0 0 23 13l4 4 10 4c4.933 4.604 10.6 7.938 17 10 3.574 3.951 7.907 6.618 13 8 6.962 5.648 14.628 9.981 23 13 1.918 2.928 4.585 4.594 8 5a78.488 78.488 0 0 0 23 13c3.671 4.417 8.338 7.083 14 8l4 4a95.947 95.947 0 0 1 15 8c5.344-.672 10.011-3.005 14-7 6.4-2.062 12.067-5.396 17-10 4.954-2.323 9.954-4.657 15-7l4-4a62.631 62.631 0 0 0 10-4.5h23a6791.056 6791.056 0 0 1-71 41.5c-6.698 3.121-13.365 3.121-20 0a14732.27 14732.27 0 0 0-42-25c-3.959.349-6.626-1.317-8-5l-10-4a201.636 201.636 0 0 0-27-17 24.569 24.569 0 0 1-8-3l-19-13c-13.993-6.284-27.327-13.95-40-23a285.561 285.561 0 0 0-26-13 18.839 18.839 0 0 0-6.5-5.5 799.793 799.793 0 0 1-.5-40Z"/><path style="opacity:1" fill="#fbfbfb" d="M213.5 608.5h20c-1.963 9.177 1.037 15.844 9 20-.166 7.008 0 14.008.5 21l1.5 1.5c14.667.667 29.333.667 44 0l1.5-1.5c.5-6.658.666-13.325.5-20a40.842 40.842 0 0 1 14 1.5 972.155 972.155 0 0 0 27 15c3.705 4.342 8.372 7.009 14 8a415.177 415.177 0 0 0 23 14.5c-6.675-.166-13.342 0-20 .5l-1.5 1.5a484.008 484.008 0 0 0 0 44l1.5 1.5c32.667.667 65.333.667 98 0l1.5-1.5a237.607 237.607 0 0 0 1-43 6.978 6.978 0 0 0-3.5-2.5 128.507 128.507 0 0 0-16-.5 387.398 387.398 0 0 0 22-14.5 27.603 27.603 0 0 0 5-1.5c.029 21.208.029 42.208 0 63a62.631 62.631 0 0 1-10 4.5l-4 4a4394.799 4394.799 0 0 0-15 7c-4.933 4.604-10.6 7.938-17 10-3.989 3.995-8.656 6.328-14 7a95.947 95.947 0 0 0-15-8l-4-4c-5.662-.917-10.329-3.583-14-8a78.488 78.488 0 0 1-23-13c-3.415-.406-6.082-2.072-8-5-8.372-3.019-16.038-7.352-23-13-5.093-1.382-9.426-4.049-13-8-6.4-2.062-12.067-5.396-17-10l-10-4-4-4a77.598 77.598 0 0 1-23-13 90.42 90.42 0 0 1-14-6l-4-4a46.99 46.99 0 0 1-10.5-5.5 577.896 577.896 0 0 1-.5-34Z"/><path style="opacity:1" fill="#231f20" d="M233.5 608.5h9v20c-7.963-4.156-10.963-10.823-9-20Z"/><path style="opacity:1" fill="#b2b7be" d="M535.5 563.5c1.327 4.451 1.994 9.284 2 14.5a85.832 85.832 0 0 1-1.5 17.5c-1.42 1.922-3.253 3.255-5.5 4a133.155 133.155 0 0 1-23 1v11h33c-11.154.995-22.488 1.328-34 1v-14c7.852.325 15.518-.008 23-1 2.403.107 4.236-.893 5.5-3 .5-10.328.666-20.661.5-31Z"/><path style="opacity:1" fill="#7e8389" d="M371.5 530.5a861.84 861.84 0 0 1 0 83h-81v-1h81v-82Z"/><path style="opacity:1" fill="#231f20" d="M290.5 613.5h81v16c-15.337-.167-30.67 0-46 .5 4.59 3.092 9.59 5.425 15 7a523.182 523.182 0 0 0 22 15 73.86 73.86 0 0 1 9 3.5v13h-3a415.177 415.177 0 0 1-23-14.5c-5.628-.991-10.295-3.658-14-8a972.155 972.155 0 0 1-27-15 40.842 40.842 0 0 0-14-1.5v-16ZM506.5 613.5h34v16h-34v-16Z"/><path style="opacity:1" fill="#f7c664" d="M371.5 629.5a85.021 85.021 0 0 1 0 26 73.86 73.86 0 0 0-9-3.5 523.182 523.182 0 0 1-22-15c-5.41-1.575-10.41-3.908-15-7 15.33-.5 30.663-.667 46-.5Z"/><path style="opacity:1" fill="#f9c764" d="M422.5 629.5h34v8a356.993 356.993 0 0 0-22 14.5 115.356 115.356 0 0 1-12 5.5v-28Z"/><path style="opacity:1" fill="#f7f8f8" d="M506.5 629.5h34c1.16 12.16 1.327 24.493.5 37l-1.5 1.5c-10.995.5-21.995.667-33 .5v-39Z"/><path style="opacity:1" fill="#252021" d="M456.5 637.5v15a27.603 27.603 0 0 1-5 1.5 387.398 387.398 0 0 1-22 14.5h-7v-11a115.356 115.356 0 0 0 12-5.5 356.993 356.993 0 0 1 22-14.5Z"/><path style="opacity:1" fill="#bd8e29" d="M418.5 676.5h23c.328 10.846-.006 21.513-1 32v-31c-7.519.325-14.852-.008-22-1Z"/><path style="opacity:1" fill="#fecc65" d="M599.5 686.5c1.333.667 1.333.667 0 0ZM476.5 757.5c1.333.667 1.333.667 0 0Z"/></svg>