<?xml version="1.0" encoding="UTF-8"?><svg xmlns="http://www.w3.org/2000/svg" width="800" height="800" style="shape-rendering:geometricPrecision;text-rendering:geometricPrecision;image-rendering:optimizeQuality;fill-rule:evenodd;clip-rule:evenodd"><path style="opacity:1" fill="#73f3d1" d="M576.5-.5h9a2.429 2.429 0 0 0 .5 2c1.049-1.017 2.216-1.184 3.5-.5a20.495 20.495 0 0 0 2.5 3.5c1.356-.88 2.856-1.214 4.5-1v3c2.822 1.432 6.489 2.432 11 3v3c2.092.061 3.592 1.061 4.5 3 2.537-.677 4.537.323 6 3 2.361-.566 4.194.434 5.5 3l2-1c.35 2.067 2.017 3.067 5 3v3h6v3h5v3h6v3c3.045 1.344 6.045 2.677 9 4-17.63-.168-35.63-.168-54 0-5.016-.743-9.016-3.243-12-7.5-3.993-.322-7.326-1.988-10-5-4.78-2.655-9.947-4.155-15.5-4.5l-4.5.5a717.099 717.099 0 0 1-27 16 4.932 4.932 0 0 1-3 .5 200.694 200.694 0 0 0-22 0c6.733-2.616 13.399-5.95 20-10v-3a59.031 59.031 0 0 1 11-3 4.934 4.934 0 0 1 .5-3l1 1c1.995-2.247 4.495-3.247 7.5-3v-3h5v-3h6v-3c1.808.009 3.475-.491 5-1.5l-1-1a12.936 12.936 0 0 1 5-.5v-3c3.552.188 6.219-1.145 8-4ZM288.5 39.5c-6.992-.613-14.325-.613-22 0a1277.522 1277.522 0 0 1-29.5-16 138.219 138.219 0 0 1-14.5 1.5 750.35 750.35 0 0 0-28 14.5 2093.723 2093.723 0 0 0-54 0c3.603-1.178 6.769-3.178 9.5-6l1 1c1.049-1.607 2.549-2.273 4.5-2v-3h5v-3h6v-3c4.612-1.195 9.279-2.862 14-5v-3c1.701-.466 3.201-.466 4.5 0 .908-1.939 2.408-2.939 4.5-3v-3h6v-3c1.788.285 3.455-.048 5-1a38.767 38.767 0 0 0 7-4.5 49.25 49.25 0 0 1 14 0c2.025 1.677 4.359 2.677 7 3-1.134 1.016-.801 1.683 1 2l5 1-1 1c2.622 3.073 5.955 4.573 10 4.5v3h6v3c3.191.262 5.858 1.596 8 4a9.864 9.864 0 0 0 6 1v3c3.58 1.22 7.247 2.386 11 3.5l-2 1c2.767.678 4.934 2.178 6.5 4.5l1-1c2.894 1.712 5.727 3.379 8.5 5Z"/><path style="opacity:1" fill="#273339" d="M602.5 39.5c1.216 1.95 2.882 3.45 5 4.5a320.74 320.74 0 0 0 20 9.5c4.426 4.572 9.76 7.739 16 9.5l6 5a295.735 295.735 0 0 0 18 9.5 101840.82 101840.82 0 0 0 44 25 620.66 620.66 0 0 0 35 20c.453.958 1.119 1.792 2 2.5 2.71 1.747 5.71 2.747 9 3 2.04 2.185 3.374 4.685 4 7.5v221c.322 2.222-.345 4.056-2 5.5a160.234 160.234 0 0 1-20 9 829.966 829.966 0 0 1-32 19.5 3867.823 3867.823 0 0 1-62 36.5c-3.81 1.13-7.143 3.13-10 6a1614.434 1614.434 0 0 1-40 21 51.42 51.42 0 0 1-14 8 299.133 299.133 0 0 0-14 9.5h-26v-1c4.036.147 7.369-1.353 10-4.5a23492.338 23492.338 0 0 0 140-79l4-4a114.302 114.302 0 0 0 13-6 846.02 846.02 0 0 0 33-20 73.86 73.86 0 0 0 9-3.5c.167-70.334 0-140.667-.5-211 .564-4.29-1.269-6.457-5.5-6.5a203.265 203.265 0 0 0-37-21l-4-4a91.311 91.311 0 0 1-23-13 457.332 457.332 0 0 0-22-11l-4-4a483.026 483.026 0 0 1-51-29c-3.415-.406-6.082-2.072-8-5a90.401 90.401 0 0 0-14-6c-5.722-6.435-12.722-8.768-21-7-7.36 5.663-15.36 9.996-24 13-3.619 3.977-7.952 6.644-13 8-2.537 2.546-5.537 4.212-9 5l-4 4-10 4a2551.356 2551.356 0 0 0-60 36 7185.005 7185.005 0 0 1 26 16c8.9 2.91 16.9 7.41 24 13.5-7.39-.264-14.723.07-22 1 .172-.992-.162-1.658-1-2a239.706 239.706 0 0 0-12-5.5 287.246 287.246 0 0 0-25-16c-3.305-2.781-4.972-6.281-5-10.5a46.11 46.11 0 0 0 6-5.5 950.427 950.427 0 0 1 34-19.5 657.784 657.784 0 0 0 47-27.5 154.472 154.472 0 0 0 13-6c2.118-1.05 3.784-2.55 5-4.5a4.932 4.932 0 0 0 3-.5 717.099 717.099 0 0 0 27-16l4.5-.5c5.553.345 10.72 1.845 15.5 4.5 2.674 3.012 6.007 4.678 10 5 2.984 4.257 6.984 6.757 12 7.5Z"/><path style="opacity:1" fill="#27333a" d="M266.5 39.5c.453.958 1.119 1.792 2 2.5a4049.386 4049.386 0 0 1 63 35.5 2656.82 2656.82 0 0 1 45 25 638.278 638.278 0 0 0 49 28.5 208.311 208.311 0 0 1 5 4.5 116.8 116.8 0 0 0-21 1c-.333-1-1-1.667-2-2a14200.986 14200.986 0 0 0-26-15.5 265.064 265.064 0 0 1-17-8 337.282 337.282 0 0 1-26-17 731.874 731.874 0 0 1-34-19c-5.487-1.208-10.154-3.875-14-8a24672.35 24672.35 0 0 1-21-11 179.568 179.568 0 0 1-15-10A228.066 228.066 0 0 0 230 34.5 112.066 112.066 0 0 0 206.5 48l-10 4-3 3c-6.771 2.445-12.771 6.111-18 11l-10 4-4 4a520.666 520.666 0 0 0-59 34l-9 3c-2.508 3.042-5.508 5.376-9 7a583.92 583.92 0 0 1-36 19 7827.247 7827.247 0 0 0-.5 216.5 7214.146 7214.146 0 0 0 125 72c.5-21.664.667-43.331.5-65a340.197 340.197 0 0 0-18-8.5 55.63 55.63 0 0 0-18-10 78.488 78.488 0 0 0-23-13 56.965 56.965 0 0 0-10.5-7.5 2946.23 2946.23 0 0 1 1-153 230.435 230.435 0 0 0 32.5-19.5c8.372-3.019 16.038-7.352 23-13 5.093-1.382 9.426-4.049 13-8a90.42 90.42 0 0 0 14-6c1.918-2.928 4.585-4.594 8-5a226.438 226.438 0 0 1 29-17 42.498 42.498 0 0 1 13 0l4 4a154.79 154.79 0 0 0 13 6 1081.768 1081.768 0 0 0 33 20c3.656.825 6.656 2.658 9 5.5a146.875 146.875 0 0 0-23 1c.172-.992-.162-1.658-1-2a224.297 224.297 0 0 0-35-19.5l-4.5-4.5c-1.604 1.149-3.27 1.149-5 0a671.105 671.105 0 0 1-48.5 29 341.075 341.075 0 0 0-37 22c-7.586 2.084-14.252 5.917-20 11.5-4.682.828-8.016 3.328-10 7.5v89a507.055 507.055 0 0 0 1 45c4.925 1.48 9.259 3.98 13 7.5l10 4c3.244 3.21 6.91 5.71 11 7.5 5.891 2.021 11.224 5.188 16 9.5a146.103 146.103 0 0 1 15 7.5c2.307 1.477 4.14 3.477 5.5 6 .667 23.333.667 46.667 0 70-1.232 2.8-1.899 5.8-2 9-2.909 2.894-6.409 3.727-10.5 2.5a5197.461 5197.461 0 0 0-84-47.5 364.178 364.178 0 0 1-32-19.5c-3.96.349-6.626-1.317-8-5l-8-4c-2.315-3.426-3.315-7.259-3-11.5v-209a74.08 74.08 0 0 1 1.5-12c3.467-1.5 6.967-3 10.5-4.5.88-.708 1.547-1.542 2-2.5a515.551 515.551 0 0 1 30-15.5 208.89 208.89 0 0 0 5-4.5 63.672 63.672 0 0 1 9-3.5c9.313-5.97 18.646-11.97 28-18 2.622-1.475 5.288-2.641 8-3.5a18289.685 18289.685 0 0 0 41-24 91.076 91.076 0 0 1 18-9.5c2.118-1.05 3.784-2.55 5-4.5a750.35 750.35 0 0 1 28-14.5c4.872-.246 9.705-.746 14.5-1.5a1277.522 1277.522 0 0 0 29.5 16Z"/><path style="opacity:1" fill="#fdfdfe" d="M407.5 134.5a2916.974 2916.974 0 0 1-108 1h-3c-2.344-2.842-5.344-4.675-9-5.5a1081.768 1081.768 0 0 1-33-20 154.79 154.79 0 0 1-13-6l-4-4a42.498 42.498 0 0 0-13 0 226.438 226.438 0 0 0-29 17c-3.415.406-6.082 2.072-8 5a90.42 90.42 0 0 1-14 6c-3.574 3.951-7.907 6.618-13 8-6.962 5.648-14.628 9.981-23 13a230.435 230.435 0 0 1-32.5 19.5 2946.23 2946.23 0 0 0-1 153 56.965 56.965 0 0 1 10.5 7.5 78.488 78.488 0 0 1 23 13 55.63 55.63 0 0 1 18 10 340.197 340.197 0 0 1 18 8.5c.167 21.669 0 43.336-.5 65a7214.146 7214.146 0 0 1-125-72 7827.247 7827.247 0 0 1 .5-216.5 583.92 583.92 0 0 0 36-19c3.492-1.624 6.492-3.958 9-7l9-3a520.666 520.666 0 0 1 59-34l4-4 10-4c5.229-4.889 11.229-8.555 18-11l3-3 10-4A112.066 112.066 0 0 1 230 34.5 228.066 228.066 0 0 1 254.5 46a179.568 179.568 0 0 0 15 10 24672.35 24672.35 0 0 0 21 11c3.846 4.125 8.513 6.792 14 8a731.874 731.874 0 0 0 34 19 337.282 337.282 0 0 0 26 17 265.064 265.064 0 0 0 17 8c8.688 5.167 17.354 10.333 26 15.5ZM541.5 470.5h-34c.313-3.542-.021-6.875-1-10-.847-2.344-2.514-3.844-5-4.5l-21-1-6-6a7.293 7.293 0 0 0 3-2l88-1c8.962-1.629 14.796-6.795 17.5-15.5.5-15.663.667-31.33.5-47 5.572-.699 10.239-3.199 14-7.5 8.461-3.02 16.128-7.353 23-13 5.015-1.128 9.348-3.461 13-7a70.148 70.148 0 0 1 13-6c9.313-5.969 18.646-11.969 28-18 7.116-1.808 13.282-5.308 18.5-10.5 1.657-49.25 1.99-98.584 1-148a69.2 69.2 0 0 0-4.5-6.5 198.572 198.572 0 0 1-36-21 114.302 114.302 0 0 1-13-6 182.852 182.852 0 0 0-35-20c-3.671-4.417-8.338-7.083-14-8a171.322 171.322 0 0 0-19-12c-8.302-.757-15.635 1.576-22 7a68.695 68.695 0 0 0-14 7c-4.302.286-7.635 2.286-10 6a43.593 43.593 0 0 0-13 8l-12 5c-.881.708-1.547 1.542-2 2.5h-9c-7.1-6.09-15.1-10.59-24-13.5a7185.005 7185.005 0 0 0-26-16 2551.356 2551.356 0 0 1 60-36l10-4 4-4c3.463-.788 6.463-2.454 9-5 5.048-1.356 9.381-4.023 13-8 8.64-3.004 16.64-7.337 24-13 8.278-1.768 15.278.565 21 7a90.401 90.401 0 0 1 14 6c1.918 2.928 4.585 4.594 8 5a483.026 483.026 0 0 0 51 29l4 4a457.332 457.332 0 0 1 22 11 91.311 91.311 0 0 0 23 13l4 4a203.265 203.265 0 0 1 37 21c4.231.043 6.064 2.21 5.5 6.5.5 70.333.667 140.666.5 211a73.86 73.86 0 0 1-9 3.5 846.02 846.02 0 0 1-33 20 114.302 114.302 0 0 1-13 6l-4 4a23492.338 23492.338 0 0 1-140 79c-2.631 3.147-5.964 4.647-10 4.5Z"/><path style="opacity:1" fill="#73efd1" d="M194.5 39.5c-1.216 1.95-2.882 3.45-5 4.5a91.076 91.076 0 0 0-18 9.5h-56c1.765-.961 3.765-1.295 6-1v-3h5v-3c1.701-.466 3.201-.466 4.5 0 1.487-.753 1.654-1.586.5-2.5a85.937 85.937 0 0 0 9-4.5c17.577-.232 35.577-.232 54 0Z"/><path style="opacity:1" fill="#73efd2" d="M656.5 39.5c-.131.876.202 1.543 1 2a6.846 6.846 0 0 1 4-1v3a8.435 8.435 0 0 1 4 .5c-1.154.914-.987 1.747.5 2.5 1.299-.466 2.799-.466 4.5 0v3h6v3c1.915-.285 3.581.049 5 1h-54a320.74 320.74 0 0 1-20-9.5c-2.118-1.05-3.784-2.55-5-4.5 18.37-.168 36.37-.168 54 0Z"/><path style="opacity:1" fill="#72ead2" d="M115.5 53.5h56a18289.685 18289.685 0 0 1-41 24h-55c.969-.81 1.802-1.81 2.5-3 1.011.837 2.178 1.17 3.5 1v-3h5v-3c1.7.16 3.366-.007 5-.5 1.478-2.057 3.478-3.39 6-4l-2-1a18.436 18.436 0 0 1 6-.5v-3a22.413 22.413 0 0 0 9.5-3c1.975-.965 3.475-2.299 4.5-4Z"/><path style="opacity:1" fill="#72ead0" d="M288.5 39.5c.666 2.173 1.833 2.507 3.5 1 1.482 1.612 3.315 2.612 5.5 3v3h6v3h5v3h6v3a87.51 87.51 0 0 0 14 5v3c1.699-.16 3.366.007 5 .5l-1 1c1.525 1.009 3.192 1.509 5 1.5v3h6v3h5v3c1.322.17 2.489-.163 3.5-1 .698 1.19 1.531 2.19 2.5 3h-23a4049.386 4049.386 0 0 0-63-35.5c-.881-.708-1.547-1.542-2-2.5 7.675-.613 15.008-.613 22 0Z"/><path style="opacity:1" fill="#72e9d0" d="M530.5 39.5c-1.216 1.95-2.882 3.45-5 4.5a154.472 154.472 0 0 1-13 6 657.784 657.784 0 0 1-47 27.5h-23c.969-.81 1.802-1.81 2.5-3 1.011.837 2.178 1.17 3.5 1v-3a59.031 59.031 0 0 0 11-3v-3c1.808.009 3.475-.491 5-1.5l-1-1a12.935 12.935 0 0 1 5-.5v-3a9.864 9.864 0 0 0 6-1 35.213 35.213 0 0 1 8-4v-3h6v-3a59.031 59.031 0 0 1 11-3v-3c1.808.009 3.475-.491 5-1.5-1.388-.89-1.222-1.39.5-1.5 1.667 1.507 2.834 1.173 3.5-1a200.694 200.694 0 0 1 22 0Z"/><path style="opacity:1" fill="#72ead2" d="M627.5 53.5h54c.848 1.593 2.181 2.76 4 3.5a621.78 621.78 0 0 0 16 7l-2 1c2.522.61 4.522 1.943 6 4 1.634.493 3.301.66 5 .5v3c2.908-.238 5.242.762 7 3l2-1c-.412 1.282.254 2.282 2 3h-54a295.735 295.735 0 0 1-18-9.5l-6-5c-6.24-1.761-11.574-4.928-16-9.5Z"/><path style="opacity:1" fill="#71e3d2" d="M75.5 77.5h55c-2.712.859-5.378 2.025-8 3.5a12458.29 12458.29 0 0 1-28 18 63.672 63.672 0 0 0-9 3.5h-53a43.925 43.925 0 0 1 4-4.5c7.296-2.064 13.796-5.564 19.5-10.5l1 1c1.049-1.607 2.549-2.273 4.5-2v-3a59.029 59.029 0 0 1 11-3 4.932 4.932 0 0 1 .5-3c.77 1.098 1.603 1.098 2.5 0Z"/><path style="opacity:1" fill="#70e2d0" d="M331.5 77.5h23c.897 1.098 1.73 1.098 2.5 0 .483.948.649 1.948.5 3h5v3h6v3c2.133 1.386 5.133 2.386 9 3v3c2.908-.238 5.242.762 7 3l2-1c.35 2.067 2.017 3.067 5 3v3c2.582-.475 4.582.192 6 2h-21a2656.82 2656.82 0 0 0-45-25ZM442.5 77.5h23a950.427 950.427 0 0 0-34 19.5 46.11 46.11 0 0 1-6 5.5h-23a355.099 355.099 0 0 1 31-18.5c.837-1.011 1.17-2.178 1-3.5 3.126.015 5.793-.985 8-3Z"/><path style="opacity:1" fill="#71e3d2" d="M667.5 77.5h54c.897 1.098 1.73 1.098 2.5 0 .483.948.649 1.948.5 3h6v3h5v3c1.951-.273 3.451.393 4.5 2l1-1c6 4.386 12.5 7.886 19.5 10.5l-1 1c2.26.55 3.926 1.716 5 3.5h-53a101840.82 101840.82 0 0 1-44-25Z"/><path style="opacity:1" fill="#273339" d="M583.5 383.5v-12a103.73 103.73 0 0 1 19-10.5c4.117-3.541 8.784-6.208 14-8 3.25-3.637 7.25-5.97 12-7a523.432 523.432 0 0 0 23-13.5 855.366 855.366 0 0 1 29-17.5 8.43 8.43 0 0 1 4-.5 903.85 903.85 0 0 0 0-85c-1.843-3.687-2.51-7.687-2-12v-30c.315-3.871-.018-7.538-1-11a350.703 350.703 0 0 0-27-15 291.026 291.026 0 0 0-39-22 189.657 189.657 0 0 0-32-18.5 202.24 202.24 0 0 0-16-10.5 449.44 449.44 0 0 0-43 24c-.838.342-1.172 1.008-1 2a159.11 159.11 0 0 0-24-1c.453-.958 1.119-1.792 2-2.5l12-5a43.593 43.593 0 0 1 13-8c2.365-3.714 5.698-5.714 10-6a68.695 68.695 0 0 1 14-7c6.365-5.424 13.698-7.757 22-7a171.322 171.322 0 0 1 19 12c5.662.917 10.329 3.583 14 8a182.852 182.852 0 0 1 35 20 114.302 114.302 0 0 0 13 6 198.572 198.572 0 0 0 36 21 69.2 69.2 0 0 1 4.5 6.5c.99 49.416.657 98.75-1 148-5.218 5.192-11.384 8.692-18.5 10.5a12318.477 12318.477 0 0 1-28 18 70.148 70.148 0 0 0-13 6c-3.652 3.539-7.985 5.872-13 7-6.872 5.647-14.539 9.98-23 13-3.761 4.301-8.428 6.801-14 7.5Z"/><path style="opacity:1" fill="#71ddd2" d="M32.5 102.5h53a208.89 208.89 0 0 1-5 4.5 515.551 515.551 0 0 0-30 15.5h-44c.392-2.646.392-5.146 0-7.5a169.104 169.104 0 0 0 15-5.5v-3c1.7.16 3.366-.006 5-.5 1.71-1.776 3.71-2.942 6-3.5Z"/><path style="opacity:1" fill="#70dad0" d="M376.5 102.5h21c1.499.994 3.166.994 5 0h23c.028 4.219 1.695 7.719 5 10.5a287.246 287.246 0 0 1 25 16 239.706 239.706 0 0 1 12 5.5c-10.821.995-21.821 1.328-33 1h-4a208.311 208.311 0 0 0-5-4.5 638.278 638.278 0 0 1-49-28.5Z"/><path style="opacity:1" fill="#71ddd2" d="M711.5 102.5h53c1.765.961 3.765 1.295 6 1v3h5v3c2.041.354 3.874.354 5.5 0 .483.948.649 1.948.5 3 2.836 1.276 5.836 1.942 9 2a23.142 23.142 0 0 1 2 8h-46a620.66 620.66 0 0 1-35-20Z"/><path style="opacity:1" fill="#6fd7d1" d="M615.5 139.5c-12.94.935-26.274 1.268-40 1a32.503 32.503 0 0 0-10-4l-41-2a449.44 449.44 0 0 1 43-24 202.24 202.24 0 0 1 16 10.5 189.657 189.657 0 0 1 32 18.5Z"/><path style="opacity:1" fill="#70d8d2" d="M6.5 122.5h44c-.453.958-1.12 1.792-2 2.5-3.533 1.5-7.033 3-10.5 4.5a74.08 74.08 0 0 0-1.5 12c-9.167-.654-18.334-1.321-27.5-2-.67.752-1.504 1.086-2.5 1v-18Z"/><path style="opacity:1" fill="#6fd7d1" d="m272.5 134.5-43 2a32.503 32.503 0 0 0-10 4c-13.701.248-27.035-.085-40-1a671.105 671.105 0 0 0 48.5-29c1.73 1.149 3.396 1.149 5 0l4.5 4.5a224.297 224.297 0 0 1 35 19.5Z"/><path style="opacity:1" fill="#70d8d2" d="M746.5 122.5h46v18c-9.847-.063-19.513-.063-29 0a112.33 112.33 0 0 0-2-5c-.626-2.815-1.96-5.315-4-7.5-3.29-.253-6.29-1.253-9-3-.881-.708-1.547-1.542-2-2.5Z"/><path style="opacity:1" fill="#386b6a" d="M272.5 134.5c.838.342 1.172 1.008 1 2h-44l43-2Z"/><path style="opacity:1" fill="#7e7e7e" d="M407.5 134.5c1 .333 1.667 1 2 2a3026.14 3026.14 0 0 1-110-1c36.171.332 72.171-.002 108-1Z"/><path style="opacity:1" fill="#386a69" d="M467.5 134.5c.838.342 1.172 1.008 1 2-11.512.328-22.846-.005-34-1 11.179.328 22.179-.005 33-1Z"/><path style="opacity:1" fill="#386b6a" d="m524.5 134.5 41 2h-42c-.172-.992.162-1.658 1-2Z"/><path style="opacity:.999" fill="#050505" d="M296.5 135.5h3a3026.14 3026.14 0 0 0 110 1 116.8 116.8 0 0 1 21-1h4c11.154.995 22.488 1.328 34 1 7.277-.93 14.61-1.264 22-1h9a159.11 159.11 0 0 1 24 1h42a32.503 32.503 0 0 1 10 4c4.503 4.006 7.17 9.006 8 15v66a874.423 874.423 0 0 0-1 41c-1.085 2.087-2.751 3.42-5 4-3.682.775-6.182-.559-7.5-4l-1-108c-.833-2.167-2.333-3.667-4.5-4.5a27875.313 27875.313 0 0 0-334 0l-3.5 3.5c-.5 85.333-.667 170.666-.5 256-.166 6.342 0 12.675.5 19a6.978 6.978 0 0 0 2.5 3.5c112 .667 224 .667 336 0l3.5-3.5c.5-46.332.667-92.665.5-139 1.087-4.073 3.754-5.739 8-5 2.249.58 3.915 1.913 5 4a1233.14 1233.14 0 0 0 1 61v34c.167 15.67 0 31.337-.5 47-2.704 8.705-8.538 13.871-17.5 15.5l-88 1a7.293 7.293 0 0 1-3 2l6 6 21 1c2.486.656 4.153 2.156 5 4.5v11h101c2.403-.107 4.236.893 5.5 3 .667 40 .667 80 0 120-.708.881-1.542 1.547-2.5 2-5.195-.321-10.195.013-15 1-1.322.17-2.489-.163-3.5-1a84.902 84.902 0 0 1-.5-13h8c.994-10.487 1.328-21.154 1-32h-9v-13h9a702.728 702.728 0 0 0-1-53 345.94 345.94 0 0 0-8-2c-.864-1.697-2.197-2.863-4-3.5a4030.485 4030.485 0 0 0-127 0c-1.803.637-3.136 1.803-4 3.5a145.036 145.036 0 0 1-34 0c-.864-1.697-2.197-2.863-4-3.5a1155.672 1155.672 0 0 0-68 0c-2.947.112-4.28 1.612-4 4.5-11.845-.328-23.512.005-35 1v53c10.006-.166 20.006 0 30 .5 5.676 5.288 5.009 9.622-2 13-9.327.5-18.661.666-28 .5-.951 1.419-1.284 3.085-1 5h-12c.331-24.172-.002-48.172-1-72h-100c.166 8.007 0 16.007-.5 24-1.312 2.738-3.478 4.072-6.5 4h-4a10.515 10.515 0 0 0-2.5-3c-.667-12-.667-24 0-36 .708-.881 1.542-1.547 2.5-2a61.281 61.281 0 0 1 15-1h86a72.367 72.367 0 0 1 .5-12 14.698 14.698 0 0 1 3.5-3h18a8.43 8.43 0 0 0 4-.5c11.464-7.918 10.131-11.084-4-9.5h-40c-13.337.167-26.671 0-40-.5-7.303-1.475-12.303-5.642-15-12.5-.283-.789-.783-1.456-1.5-2-.5-68.999-.667-137.999-.5-207v-70c.749-5.498 3.082-10.164 7-14a32.503 32.503 0 0 1 10-4h44a146.875 146.875 0 0 1 23-1Z"/><path style="opacity:1" fill="#70d2d4" d="M36.5 141.5v21h-30v-22c.996.086 1.83-.248 2.5-1 9.166.679 18.333 1.346 27.5 2Z"/><path style="opacity:1" fill="#6fd0d2" d="M179.5 139.5c12.965.915 26.299 1.248 40 1-3.918 3.836-6.251 8.502-7 14-.977 2.787-1.31 5.787-1 9-.722-.418-1.222-1.084-1.5-2-23.066 1.255-45.566 1.255-67.5 0a341.075 341.075 0 0 1 37-22ZM615.5 139.5a291.026 291.026 0 0 1 39 22c-22.969.954-46.302 1.287-70 1 .302-2.559-.032-4.893-1-7-.83-5.994-3.497-10.994-8-15 13.726.268 27.06-.065 40-1Z"/><path style="opacity:1" fill="#6fd2d3" d="M761.5 135.5a112.33 112.33 0 0 1 2 5c9.487-.063 19.153-.063 29 0v22h-30c.324-6.854-.009-13.521-1-20v-7Z"/><path style="opacity:1" fill="#ece5c0" d="M577.5 266.5c-1.333 6-1.333 12 0 18-4.246-.739-6.913.927-8 5-.556 51.507-1.223 91.841-2 121-6.755-.293-13.422.04-20 1a16.58 16.58 0 0 0-4-2.5 256.122 256.122 0 0 0-32 0l-3 1.5c-94.041.328-188.041-.005-282-1-.167-85.334 0-170.667.5-256l3.5-3.5c111.333-.667 222.667-.667 334 0 2.167.833 3.667 2.333 4.5 4.5l1 108c1.318 3.441 3.818 4.775 7.5 4Z"/><path style="opacity:1" fill="#6ecad3" d="M583.5 155.5c.968 2.107 1.302 4.441 1 7 23.698.287 47.031-.046 70-1a350.703 350.703 0 0 1 27 15 13.116 13.116 0 0 1-1 7 1128.907 1128.907 0 0 0-95 0 467.073 467.073 0 0 0-2-9v-19ZM142.5 161.5c21.934 1.255 44.434 1.255 67.5 0 .278.916.778 1.582 1.5 2v20c-32.56-.879-65.227-.879-98 0 .237-1.291-.096-2.291-1-3 1.984-4.172 5.318-6.672 10-7.5 5.748-5.583 12.414-9.416 20-11.5Z"/><path style="opacity:1" fill="#6ecbd4" d="M6.5 162.5h30v21h-30v-21ZM762.5 162.5h30v21h-30v-21Z"/><path style="opacity:1" fill="#020201" d="M247.5 168.5c100.748-.495 201.415.005 302 1.5a9.454 9.454 0 0 1 1.5 2.5c.667 73 .667 146 0 219-.833 1.5-2 2.667-3.5 3.5-100 .667-200 .667-300 0l-2.5-2.5c-.667-73.667-.667-147.333 0-221a10.515 10.515 0 0 0 2.5-3Z"/><path style="opacity:1" fill="#6dc5d3" d="M583.5 174.5a467.073 467.073 0 0 1 2 9 1128.907 1128.907 0 0 1 95 0 13.116 13.116 0 0 0 1-7c.982 3.462 1.315 7.129 1 11-.973 2.448-1.306 5.115-1 8a6576.533 6576.533 0 0 0-96.5 0c-.191-2.208-.691-4.208-1.5-6v-15Z"/><path style="opacity:1" fill="#6ec6d3" d="M211.5 183.5v12a3731.306 3731.306 0 0 0-98 0v-12c32.773-.879 65.44-.879 98 0Z"/><path style="opacity:1" fill="#52a397" d="M434.5 182.5a9586.11 9586.11 0 0 1-176 153v-153h176Z"/><path style="opacity:1" fill="#396e66" d="M537.5 182.5h-279v199a10005.475 10005.475 0 0 1-1-200c93.501-.333 186.835.001 280 1Z"/><path style="opacity:1" fill="#62b5a8" d="M434.5 182.5h102a183.078 183.078 0 0 1-1 27 15594.328 15594.328 0 0 0-194 170.5c65.332.5 130.666.667 196 .5-46.162 1.333-92.662 2-139.5 2-46.668 0-93.168-.333-139.5-1v-46a9586.11 9586.11 0 0 0 176-153Z"/><path style="opacity:1" fill="#6ec2d4" d="M583.5 189.5c.809 1.792 1.309 3.792 1.5 6 32.118-.236 64.285-.236 96.5 0a72.367 72.367 0 0 1-.5 12h-96c-.181-3.195-.681-6.195-1.5-9v-9Z"/><path style="opacity:1" fill="#6ec3d4" d="M6.5 183.5h30v24a349.799 349.799 0 0 0-30 0v-24Z"/><path style="opacity:1" fill="#6ec2d4" d="M211.5 195.5v11c-32.55.097-65.05.43-97.5 1a72.367 72.367 0 0 1-.5-12c32.785-.429 65.452-.429 98 0Z"/><path style="opacity:1" fill="#6ec3d4" d="M762.5 183.5h30v24c-10.001-.665-19.834-.665-29.5 0-.5-7.993-.666-15.993-.5-24Z"/><path style="opacity:1" fill="#6cbed4" d="M112.5 180.5c.904.709 1.237 1.709 1 3v12a72.367 72.367 0 0 0 .5 12c32.45-.57 64.95-.903 97.5-1 .289 3.606-.044 7.106-1 10.5-32.332.5-64.665.667-97 .5.295 2.235-.039 4.235-1 6v-43ZM682.5 187.5v30h-98c.237 1.291-.096 2.291-1 3v-22c.819 2.805 1.319 5.805 1.5 9h96c.499-3.986.666-7.986.5-12-.306-2.885.027-5.552 1-8Z"/><path style="opacity:1" fill="#6ab9cf" d="M761.5 142.5c.991 6.479 1.324 13.146 1 20v21c-.166 8.007 0 16.007.5 24 9.666-.665 19.499-.665 29.5 0v10h-30v9h-1v-84Z"/><path style="opacity:1" fill="#51a296" d="M536.5 182.5h1v198c-65.334.167-130.668 0-196-.5a15594.328 15594.328 0 0 1 194-170.5 183.078 183.078 0 0 0 1-27Z"/><path style="opacity:1" fill="#6bb8d3" d="M212.5 154.5v70c-4.762 1.086-8.428 3.753-11 8-.934 1.068-1.268 2.401-1 4h-87c.302-2.559-.032-4.893-1-7v-6c.961-1.765 1.295-3.765 1-6 32.335.167 64.668 0 97-.5.956-3.394 1.289-6.894 1-10.5v-43c-.31-3.213.023-6.213 1-9Z"/><path style="opacity:1" fill="#6cbad5" d="M36.5 207.5v29h-30v-29a349.799 349.799 0 0 1 30 0Z"/><path style="opacity:1" fill="#6cb9d4" d="M682.5 217.5c-.51 4.313.157 8.313 2 12v8l-89-2a18.453 18.453 0 0 0-.5-6 33.25 33.25 0 0 1-11.5-8v-1c.904-.709 1.237-1.709 1-3h98Z"/><path style="opacity:1" fill="#6cb9d5" d="M792.5 217.5v19h-30v-19h30Z"/><path style="opacity:1" fill="#29343a" d="M583.5 221.5a33.25 33.25 0 0 0 11.5 8c.495 1.973.662 3.973.5 6v87c.166 6.342 0 12.675-.5 19-3.107 3.796-6.94 6.463-11.5 8a1233.14 1233.14 0 0 1-1-61 85.021 85.021 0 0 0 0-26 874.423 874.423 0 0 1 1-41Z"/><path style="opacity:1" fill="#253137" d="M212.5 224.5c-.167 69.001 0 138.001.5 207 .717.544 1.217 1.211 1.5 2a361.608 361.608 0 0 0-1 38h-12v-239c2.572-4.247 6.238-6.914 11-8Z"/><path style="opacity:1" fill="#6bb1d5" d="M112.5 229.5c.968 2.107 1.302 4.441 1 7h87c-.268-1.599.066-2.932 1-4v30c-.934 1.068-1.268 2.401-1 4h-87v3h-1v-40ZM6.5 236.5h30v30h-30v-30ZM595.5 235.5l89 2v29h-88v7h-1v-38ZM762.5 236.5h30v30h-30v-30Z"/><path style="opacity:1" fill="#69abd6" d="M201.5 262.5v14c-1.377 1.056-2.21 2.389-2.5 4a6134.299 6134.299 0 0 0-84.5 0 31.116 31.116 0 0 1-1-11v-3h87c-.268-1.599.066-2.932 1-4Z"/><path style="opacity:1" fill="#f9fafa" d="M582.5 262.5a85.021 85.021 0 0 1 0 26c-1.085-2.087-2.751-3.42-5-4-1.333-6-1.333-12 0-18 2.249-.58 3.915-1.913 5-4Z"/><path style="opacity:1" fill="#69abd6" d="M6.5 266.5h30v14a349.799 349.799 0 0 0-30 0v-14Z"/><path style="opacity:1" fill="#68a9d3" d="M684.5 229.5a903.85 903.85 0 0 1 0 85v-6c.472-9.833-.028-19.5-1.5-29-28.429.528-56.929.861-85.5 1a13.116 13.116 0 0 1-1-7v-7h88v-37Z"/><path style="opacity:1" fill="#68a9d2" d="M761.5 226.5h1v40h30v14a544.72 544.72 0 0 0-27.5-1c-1.892 1.117-2.725 2.784-2.5 5h-1v-58Z"/><path style="opacity:1" fill="#68a5d6" d="M112.5 269.5h1a31.116 31.116 0 0 0 1 11c28.236-.194 56.403-.194 84.5 0 .29-1.611 1.123-2.944 2.5-4v32c-1.943.578-2.277 1.578-1 3a1875.484 1875.484 0 0 0-87 3 507.055 507.055 0 0 1-1-45Z"/><path style="opacity:1" fill="#68a5d7" d="M36.5 280.5v32c-9.515-.14-19.515-.14-30 0v-32a349.799 349.799 0 0 1 30 0Z"/><path style="opacity:1" fill="#68a5d6" d="M595.5 273.5h1a13.116 13.116 0 0 0 1 7c28.571-.139 57.071-.472 85.5-1 1.472 9.5 1.972 19.167 1.5 29-2.005.754-2.672 1.921-2 3.5-28.665.5-57.331.667-86 .5v10h-1v-49Z"/><path style="opacity:1" fill="#68a5d7" d="M792.5 280.5v32c-9.515-.14-19.515-.14-30 0v-28c-.225-2.216.608-3.883 2.5-5 9.122.1 18.289.433 27.5 1Z"/><path style="opacity:1" fill="#659fd7" d="M201.5 308.5v14c-.979 3.125-1.313 6.458-1 10-3.712-.158-7.212-.158-10.5 0-.667-2.667-1.333-2.667-2 0-.667-2.667-1.333-2.667-2 0-.667-2.667-1.333-2.667-2 0-.667-2.667-1.333-2.667-2 0-.667-2.667-1.333-2.667-2 0-.667-2.667-1.333-2.667-2 0-.667-2.667-1.333-2.667-2 0-.667-2.667-1.333-2.667-2 0-.667-2.667-1.333-2.667-2 0-.667-2.667-1.333-2.667-2 0-.667-2.667-1.333-2.667-2 0-.667-2.667-1.333-2.667-2 0-.667-2.667-1.333-2.667-2 0-.667-2.667-1.333-2.667-2 0-.667-2.667-1.333-2.667-2 0-.667-2.667-1.333-2.667-2 0-.667-2.667-1.333-2.667-2 0-.667-2.667-1.333-2.667-2 0-.667-2.667-1.333-2.667-2 0-.667-2.667-1.333-2.667-2 0-1.007-2.242-1.841-1.908-2.5 1-4.09-1.79-7.756-4.29-11-7.5l-10-4c-3.741-3.52-8.075-6.02-13-7.5a1875.484 1875.484 0 0 1 87-3c-1.277-1.422-.943-2.422 1-3ZM684.5 308.5v6a8.43 8.43 0 0 0-4 .5 855.366 855.366 0 0 0-29 17.5h-55v-20c28.669.167 57.335 0 86-.5-.672-1.579-.005-2.746 2-3.5Z"/><path style="opacity:1" fill="#649bd6" d="M201.5 322.5v26c-.722.418-1.222 1.084-1.5 2-6.999-.665-14.166-.665-21.5 0a146.103 146.103 0 0 0-15-7.5c-4.776-4.312-10.109-7.479-16-9.5.659-2.908 1.493-3.242 2.5-1 .667-2.667 1.333-2.667 2 0 .667-2.667 1.333-2.667 2 0 .667-2.667 1.333-2.667 2 0 .667-2.667 1.333-2.667 2 0 .667-2.667 1.333-2.667 2 0 .667-2.667 1.333-2.667 2 0 .667-2.667 1.333-2.667 2 0 .667-2.667 1.333-2.667 2 0 .667-2.667 1.333-2.667 2 0 .667-2.667 1.333-2.667 2 0 .667-2.667 1.333-2.667 2 0 .667-2.667 1.333-2.667 2 0 .667-2.667 1.333-2.667 2 0 .667-2.667 1.333-2.667 2 0 .667-2.667 1.333-2.667 2 0 .667-2.667 1.333-2.667 2 0 .667-2.667 1.333-2.667 2 0 .667-2.667 1.333-2.667 2 0 .667-2.667 1.333-2.667 2 0 .667-2.667 1.333-2.667 2 0 3.288-.158 6.788-.158 10.5 0-.313-3.542.021-6.875 1-10Z"/><path style="opacity:1" fill="#6399d6" d="M595.5 322.5h1v10h55a523.432 523.432 0 0 1-23 13.5c-4.75 1.03-8.75 3.363-12 7-5.216 1.792-9.883 4.459-14 8a103.73 103.73 0 0 0-19 10.5v-22c4.56-1.537 8.393-4.204 11.5-8 .5-6.325.666-12.658.5-19Z"/><path style="opacity:1" fill="#659dd7" d="M36.5 312.5v38a349.799 349.799 0 0 0-30 0v-38c10.485-.14 20.485-.14 30 0Z"/><path style="opacity:1" fill="#649cd6" d="M761.5 284.5h1v28c10.485-.14 20.485-.14 30 0v38a544.72 544.72 0 0 0-27.5-1c-1.842 2.046-3.009 4.38-3.5 7v-72Z"/><path style="opacity:1" fill="#6197d8" d="M36.5 350.5c-.315 4.241.685 8.074 3 11.5l8 4c1.374 3.683 4.04 5.349 8 5a364.178 364.178 0 0 0 32 19.5h-33c-.617.111-1.117.444-1.5 1-6.134-3.855-11.967-6.855-17.5-9v-3a58.967 58.967 0 0 1-11-3v-3h-6v-3c-4.013-1.674-8.013-3.341-12-5v-15a349.799 349.799 0 0 1 30 0ZM792.5 350.5v15c-3.013-.128-5.513.872-7.5 3-2.411-1.653-3.578-.987-3.5 2-1.701.466-3.201.466-4.5 0-3.844 1.975-7.177 4.642-10 8l-1-1c-1.049 1.607-2.549 2.273-4.5 2v3c-3.937.204-7.604 1.204-11 3 .381 2.442-.286 3.109-2 2-.886.825-1.219 1.825-1 3h-40a829.966 829.966 0 0 0 32-19.5 160.234 160.234 0 0 0 20-9c1.655-1.444 2.322-3.278 2-5.5.491-2.62 1.658-4.954 3.5-7 9.122.1 18.289.433 27.5 1Z"/><path style="opacity:1" fill="#0b0a08" d="M547.5 411.5c1.581 3.594.914 6.761-2 9.5a86.467 86.467 0 0 1-18 1.5 86.467 86.467 0 0 1-18-1.5c-2.168-3.341-2.502-6.841-1-10.5l3-1.5a256.122 256.122 0 0 1 32 0 16.58 16.58 0 0 1 4 2.5Z"/><path style="opacity:1" fill="#e1d8b2" d="M569.5 289.5c.167 46.335 0 92.668-.5 139l-3.5 3.5c-112 .667-224 .667-336 0a6.978 6.978 0 0 1-2.5-3.5c-.5-6.325-.666-12.658-.5-19 93.959.995 187.959 1.328 282 1-1.502 3.659-1.168 7.159 1 10.5a86.467 86.467 0 0 0 18 1.5 86.467 86.467 0 0 0 18-1.5c2.914-2.739 3.581-5.906 2-9.5a106.296 106.296 0 0 1 20-1c.777-29.159 1.444-69.493 2-121Z"/><path style="opacity:1" fill="#5d96db" d="M201.5 348.5v123a61.281 61.281 0 0 0-15 1 32.462 32.462 0 0 0-.5-8 1204.023 1204.023 0 0 0-28.5-16.5c-6.204-2.789-12.537-4.622-19-5.5v-3h-6v-3h-3v-3h-6v-3h-5v-3c-2.921.354-5.254-.646-7-3-1.714 1.109-2.381.442-2-2a58.97 58.97 0 0 1-11-3v-3a27.267 27.267 0 0 0-9-3v-3c-2.908.238-5.242-.762-7-3a3.647 3.647 0 0 0-1.5 1c-1.667-1-3-2.333-4-4l-1 1a4.932 4.932 0 0 1-.5-3h-6v-3h-5v-3c-2.77-.3-5.27-1.3-7.5-3-1.31-.63-2.144-1.63-2.5-3h33a5197.461 5197.461 0 0 1 84 47.5c4.091 1.227 7.591.394 10.5-2.5.101-3.2.768-6.2 2-9 .667-23.333.667-46.667 0-70-1.36-2.523-3.193-4.523-5.5-6 7.334-.665 14.501-.665 21.5 0 .278-.916.778-1.582 1.5-2Z"/><path style="opacity:1" fill="#5b95db" d="M707.5 390.5h34v3a12.93 12.93 0 0 0-5 .5c-1.079 2.043-2.746 3.376-5 4l1 1a12.93 12.93 0 0 1-5 .5v3a9.86 9.86 0 0 0-6 1c-3.423 1.192-6.256 3.192-8.5 6l-1-1c-1.049 1.607-2.549 2.273-4.5 2v3h-6v3h-5v3c-2.185.388-4.018 1.388-5.5 3-2.278-1.12-3.778-.287-4.5 2.5a101.955 101.955 0 0 0-13 5.5v3h-6v3h-6v3c-1.788-.285-3.455.048-5 1 1.129 2.029.629 2.363-1.5 1-1.712 3.452-4.212 4.452-7.5 3v3c-3.096-.593-5.429.407-7 3a47.25 47.25 0 0 1-7 3v3h-6v3c-1.788-.285-3.455.048-5 1a28.335 28.335 0 0 0-9.5 6l-1-1c-1.049 1.607-2.549 2.273-4.5 2v4h-40a299.133 299.133 0 0 1 14-9.5 51.42 51.42 0 0 0 14-8 1614.434 1614.434 0 0 0 40-21c2.857-2.87 6.19-4.87 10-6a3867.823 3867.823 0 0 0 62-36.5Z"/><path style="opacity:1" fill="#fcfcfc" d="M214.5 433.5c2.697 6.858 7.697 11.025 15 12.5 13.329.5 26.663.667 40 .5v25h-56a361.608 361.608 0 0 1 1-38Z"/><path style="opacity:1" fill="#d5cca5" d="M459.5 454.5a1922.98 1922.98 0 0 1-124 0 98.521 98.521 0 0 1 9-7.5 2861.07 2861.07 0 0 1 107 0 83.084 83.084 0 0 0 8 7.5Z"/><path style="opacity:1" fill="#253137" d="M269.5 446.5h12v25h-12v-25Z"/><path style="opacity:1" fill="#5996dc" d="M281.5 446.5h19v9c-3.213-.31-6.213.023-9 1a14.698 14.698 0 0 0-3.5 3 72.367 72.367 0 0 0-.5 12h-6v-25Z"/><path style="opacity:1" fill="#243036" d="M300.5 446.5h9v10h-18c2.787-.977 5.787-1.31 9-1v-9Z"/><path style="opacity:1" fill="#edeeee" d="M309.5 446.5c14.131-1.584 15.464 1.582 4 9.5a8.43 8.43 0 0 1-4 .5v-10Z"/><path style="opacity:1" fill="#625e4d" d="M335.5 454.5a1922.98 1922.98 0 0 0 124 0c.543.06.876.393 1 1-42 1.333-84 1.333-126 0 .124-.607.457-.94 1-1Z"/><path style="opacity:1" fill="#b4ad90" d="M301.5 469.5c64.003-.333 128.003 0 192 1l-96 1c-32.34 0-64.34-.667-96-2Z"/><path style="opacity:1" fill="#c2c2c3" d="M506.5 460.5c.979 3.125 1.313 6.458 1 10h34v1h-35v-11Z"/><path style="opacity:1" fill="#273339" d="M599.5 485.5h-7a702.728 702.728 0 0 0-1 53v45a84.902 84.902 0 0 0 .5 13c1.011.837 2.178 1.17 3.5 1v40a12.93 12.93 0 0 1-.5 5c-1.887 1.526-2.887 3.526-3 6-.827 13.84-.661 27.506.5 41 .166 6.675 0 13.342-.5 20a9.454 9.454 0 0 1-1.5 2.5 263.418 263.418 0 0 1-39 1.5 750.264 750.264 0 0 0-67-.5 1147.103 1147.103 0 0 1-31 17c-3.25 3.637-7.25 5.97-12 7-3.492 1.624-6.492 3.958-9 7a107.681 107.681 0 0 0-10 4.5 152.842 152.842 0 0 1-14 8.5c-6.703 3.123-13.37 3.123-20 0a1079.19 1079.19 0 0 1-14-8.5 299.815 299.815 0 0 0-33-17.5 13.92 13.92 0 0 1-3-4 94.36 94.36 0 0 1-15-7.5c-9.456-6.233-19.456-11.733-30-16.5l-19-13a4.934 4.934 0 0 0-3-.5c-4.223-3.828-9.223-6.328-15-7.5l-4-4a150.824 150.824 0 0 1-18-11 8.43 8.43 0 0 0-4-.5 97.22 97.22 0 0 1-10-7.5c-6.853-2.406-13.02-5.906-18.5-10.5a60.931 60.931 0 0 1-.5-11c.167-10.672 0-21.339-.5-32-2.023-2.269-2.856-4.936-2.5-8-3.542.313-6.875-.021-10-1h10v-13c-.166-7.674 0-15.341.5-23 1.242-2.041 3.075-3.207 5.5-3.5a19.602 19.602 0 0 1 2-3.5v4h13c3 1.333 6 1.333 9 0a98.432 98.432 0 0 0 14-.5c-.752-.671-1.086-1.504-1-2.5.992-7.816 1.326-15.816 1-24-.379-4.797.121-9.464 1.5-14a206.139 206.139 0 0 0 8.5-2c1.647-5.765 2.647-11.765 3-18v19h13c6.675-.166 13.342 0 20 .5l1.5 1.5c.5 13.329.667 26.663.5 40h7v-72a1296.178 1296.178 0 0 1 1 72h12c-.284-1.915.049-3.581 1-5v5c5.676-.166 11.343.001 17 .5 1.824.66 3.157 1.827 4 3.5v35h40a46.809 46.809 0 0 0-1-13 120.655 120.655 0 0 0 0-31c-2.885.306-5.552-.027-8-1h9a46.809 46.809 0 0 0-1-13c1.333-3.667 1.333-7.333 0-11-7.674.166-15.341 0-23-.5l-1.5-1.5a799.793 799.793 0 0 1-.5-40h-35c11.488-.995 23.155-1.328 35-1-.28-2.888 1.053-4.388 4-4.5 22.667-.667 45.333-.667 68 0 1.803.637 3.136 1.803 4 3.5a145.036 145.036 0 0 0 34 0c.864-1.697 2.197-2.863 4-3.5 42.333-.667 84.667-.667 127 0 1.803.637 3.136 1.803 4 3.5a345.94 345.94 0 0 1 8 2Z"/><path style="opacity:1" fill="#a7a38b" d="M592.5 485.5v52h7v-52a702.728 702.728 0 0 1 1 53h-9a702.728 702.728 0 0 1 1-53Z"/><path style="opacity:1" fill="#ece4c0" d="M297.5 485.5v72h-7c.167-13.337 0-26.671-.5-40l-1.5-1.5c-6.658-.5-13.325-.666-20-.5.166-6.675 0-13.342-.5-20-4.764-5.473-8.931-5.14-12.5 1-.353 6.235-1.353 12.235-3 18 .166-6.675 0-13.342-.5-20-4-4-8-4-12 0a289.106 289.106 0 0 0 0 34c.708.881 1.542 1.547 2.5 2 .326 8.184-.008 16.184-1 24-3.204-8.756-9.538-12.756-19-12-7.48.471-12.814 4.138-16 11a19.602 19.602 0 0 0-2 3.5c-2.425.293-4.258 1.459-5.5 3.5-.5 7.659-.666 15.326-.5 23a1339.267 1339.267 0 0 1-1.5-52c-1.571-2.423-3.737-3.756-6.5-4v-14c3.022.072 5.188-1.262 6.5-4 .5-7.993.666-15.993.5-24h100Z"/><path style="opacity:1" fill="#efe7c2" d="M311.5 485.5h35c-.167 13.337 0 26.671.5 40l1.5 1.5c7.659.5 15.326.666 23 .5v10c-2.885-.306-5.552.027-8 1-4.442 1.89-5.942 5.223-4.5 10 1.129 1.641 2.629 2.641 4.5 3 2.448.973 5.115 1.306 8 1v9h-39c-.843-1.673-2.176-2.84-4-3.5a145.053 145.053 0 0 0-17-.5v-5c9.339.166 18.673 0 28-.5 7.009-3.378 7.676-7.712 2-13-9.994-.5-19.994-.666-30-.5v-53Z"/><path style="opacity:1" fill="#f2eac5" d="M592.5 485.5h7v52h-7v-52Z"/><path style="opacity:1" fill="#b6ad71" d="M414.5 488.5h-60v31c-.994-10.487-1.328-21.154-1-32a931.31 931.31 0 0 1 61 1Z"/><path style="opacity:1" fill="#050403" d="M212.5 491.5c3.773-.678 6.606.656 8.5 4 .667 11 .667 22 0 33-4.038 3.925-8.038 3.925-12 0a289.106 289.106 0 0 1 0-34 30.233 30.233 0 0 1 3.5-3Z"/><path style="opacity:1" fill="#0b0b09" d="M227.5 491.5c3.926-.453 7.092.88 9.5 4a256.122 256.122 0 0 1 0 32 6.978 6.978 0 0 1-2.5 3.5 16.242 16.242 0 0 1-8 0 6.978 6.978 0 0 1-2.5-3.5 256.122 256.122 0 0 1 0-32 19.552 19.552 0 0 0 3.5-4Z"/><path style="opacity:1" fill="#050504" d="M252.5 514.5a206.139 206.139 0 0 1-8.5 2c-1.379 4.536-1.879 9.203-1.5 14-.958-.453-1.792-1.119-2.5-2a289.106 289.106 0 0 1 0-34c4-4 8-4 12 0 .5 6.658.666 13.325.5 20Z"/><path style="opacity:1" fill="#040403" d="M268.5 515.5h-13v-19c3.569-6.14 7.736-6.473 12.5-1 .5 6.658.666 13.325.5 20Z"/><path style="opacity:1" fill="#bbb598" d="M423.5 485.5v7h32v-7c.973 2.448 1.306 5.115 1 8h-34c-.306-2.885.027-5.552 1-8Z"/><path style="opacity:1" fill="#f3ebc6" d="M423.5 485.5h32v7h-32v-7Z"/><path style="opacity:1" fill="#f7e68c" d="M414.5 488.5v17h-60v-17h60Z"/><path style="opacity:1" fill="#296f80" d="M424.5 507.5h32v9h-32v-9Z"/><path style="opacity:1" fill="#ede28d" d="M354.5 505.5h60v12c-19.894.454-39.894.454-60 0v-12Z"/><path style="opacity:1" fill="#54a2dd" d="M186.5 513.5h4v14c-1.459-.067-2.792.266-4 1v-15Z"/><path style="opacity:1" fill="#e3dd8e" d="M354.5 517.5c20.106.454 40.106.454 60 0v21h-34c.321-5.195-.013-10.195-1-15-.074-1.911-1.074-3.078-3-3.5a242.43 242.43 0 0 0-22-.5v-2Z"/><path style="opacity:1" fill="#020303" d="M422.5 493.5h34v13c-10.846-.328-21.513.006-32 1v9h32v13h-34v-36Z"/><path style="opacity:.979" fill="#060605" d="M190.5 527.5c2.763.244 4.929 1.577 6.5 4 .168 17.505.668 34.838 1.5 52v13h-12c-.958-.453-1.792-1.119-2.5-2a1023.738 1023.738 0 0 1 0-64c.708-.881 1.542-1.547 2.5-2 1.208-.734 2.541-1.067 4-1Z"/><path style="opacity:1" fill="#d9d78c" d="M282.5 538.5h-32v-16h32v16Z"/><path style="opacity:1" fill="#a9a58d" d="M371.5 527.5c1.333 3.667 1.333 7.333 0 11h-8c2.448-.973 5.115-1.306 8-1v-10Z"/><path style="opacity:1" fill="#bbb598" d="M423.5 530.5v7h32v-7c.973 2.448 1.306 5.115 1 8h-34c-.306-2.885.027-5.552 1-8Z"/><path style="opacity:1" fill="#f4edc8" d="M423.5 530.5h32v7h-32v-7Z"/><path style="opacity:1" fill="#090908" d="M363.5 538.5h8a46.809 46.809 0 0 1 1 13h-9c-1.871-.359-3.371-1.359-4.5-3-1.442-4.777.058-8.11 4.5-10Z"/><path style="opacity:1" fill="#020202" d="M422.5 538.5h34v13h-34v-13Z"/><path style="opacity:1" fill="#d0d690" d="M250.5 538.5h32v21c-10.786-.904-21.452-.904-32 0v-21ZM380.5 538.5h34v21a449.255 449.255 0 0 0-34 0v-21Z"/><path style="opacity:1" fill="#040504" d="M241.5 554.5c-.086.996.248 1.829 1 2.5a98.432 98.432 0 0 1-14 .5c-3-1.333-6-1.333-9 0h-13v-4c3.186-6.862 8.52-10.529 16-11 9.462-.756 15.796 3.244 19 12Z"/><path style="opacity:1" fill="#416c6a" d="M228.5 557.5c-3 1.333-6 1.333-9 0 3-1.333 6-1.333 9 0Z"/><path style="opacity:1" fill="#b5b096" d="M591.5 552.5h1v30h7v1h-8v-31Z"/><path style="opacity:1" fill="#e5dcb7" d="M592.5 552.5h7v30h-7v-30Z"/><path style="opacity:1" fill="#6f6c5a" d="M591.5 552.5v-1h9c.328 10.846-.006 21.513-1 32v-31h-8Z"/><path style="opacity:1" fill="#b8ca92" d="M282.5 559.5c-.322 2.222.345 4.056 2 5.5 13.329.5 26.663.667 40 .5v11h-118v-11c14.004.167 28.004 0 42-.5 1.655-1.444 2.322-3.278 2-5.5 10.548-.904 21.214-.904 32 0Z"/><path style="opacity:1" fill="#bbcd93" d="M414.5 559.5v17h-34v-17a449.255 449.255 0 0 1 34 0Z"/><path style="opacity:1" fill="#b0c894" d="M206.5 576.5h118v8a5409.628 5409.628 0 0 0-118 0v-8Z"/><path style="opacity:1" fill="#aca78d" d="M371.5 552.5a120.655 120.655 0 0 1 0 31h-39v-22h1v21h38v-30Z"/><path style="opacity:1" fill="#e2d9b3" d="M333.5 561.5h38v21h-38v-21Z"/><path style="opacity:1" fill="#b7b296" d="M423.5 552.5v30h32v-30c.994 10.153 1.328 20.486 1 31h-34c-.328-10.514.006-20.847 1-31Z"/><path style="opacity:1" fill="#e2d9b3" d="M423.5 561.5h32v21h-32v-21Z"/><path style="opacity:1" fill="#f0e8c3" d="M423.5 552.5h32v9h-32v-9Z"/><path style="opacity:1" fill="#010201" d="M332.5 583.5h39a46.809 46.809 0 0 1 1 13h-40v-13Z"/><path style="opacity:1" fill="#010101" d="M422.5 583.5h34v13h-34v-13Z"/><path style="opacity:1" fill="#a9c695" d="M380.5 576.5h34v16h-34v-16Z"/><path style="opacity:1" fill="#a3c395" d="M324.5 584.5v13a400.456 400.456 0 0 0-40 1c-1.581 1.642-2.247 3.642-2 6-10.548-.904-21.214-.904-32 0 .526-3.308-.807-5.474-4-6.5a799.793 799.793 0 0 0-40-.5v-13c39.452-.429 78.785-.429 118 0Z"/><path style="opacity:1" fill="#455750" d="M324.5 565.5c.995 10.821 1.328 21.821 1 33h-41a400.456 400.456 0 0 1 40-1v-32Z"/><path style="opacity:1" fill="#98be96" d="M380.5 592.5h34v17a449.255 449.255 0 0 0-34 0v-17Z"/><path style="opacity:1" fill="#41b9ed" d="M186.5 596.5h2c3.125.979 6.458 1.313 10 1-.356 3.064.477 5.731 2.5 8 .5 10.661.667 21.328.5 32-.973-2.448-1.306-5.115-1-8h-14v-33Z"/><path style="opacity:1" fill="#fbfbfb" d="M213.5 605.5h29c-.167 13.337 0 26.671.5 40 .374.916.874 1.75 1.5 2.5 14.667.667 29.333.667 44 0a9.454 9.454 0 0 0 1.5-2.5l1-23a42.319 42.319 0 0 1 8.5 6.5 420.445 420.445 0 0 0 32 17c2.365 3.714 5.698 5.714 10 6a387.056 387.056 0 0 0 23 13l-15 1a9.454 9.454 0 0 0-2.5 1.5 484.008 484.008 0 0 0 0 44l1.5 1.5c33.085.985 66.085.652 99-1a9.454 9.454 0 0 0 1.5-2.5 420.29 420.29 0 0 0 0-41 6.978 6.978 0 0 0-3.5-2.5l-12-1a736.57 736.57 0 0 0 22.5-12.5l1 58a6.978 6.978 0 0 0 3.5 2.5 2601.643 2601.643 0 0 0-62 35.5 97.288 97.288 0 0 0-12-5.5c-3.543-1.608-6.543-3.942-9-7-5.662-.917-10.329-3.583-14-8a78.488 78.488 0 0 1-23-13c-3.415-.406-6.082-2.072-8-5-8.372-3.019-16.038-7.352-23-13-5.093-1.382-9.426-4.049-13-8-6.4-2.062-12.067-5.396-17-10l-10-4-4-4a77.598 77.598 0 0 1-23-13 90.42 90.42 0 0 1-14-6 45.999 45.999 0 0 0-13-8l-1.5-1.5a684.346 684.346 0 0 1-.5-37Z"/><path style="opacity:1" fill="#41b6e9" d="M371.5 655.5a169.926 169.926 0 0 0-1-26 3.647 3.647 0 0 1-1.5-1c-14 1.333-28 1.333-42 0a2.428 2.428 0 0 0-.5 2 662.414 662.414 0 0 1-27-16.5 73.86 73.86 0 0 1-9-3.5v-5c13.337.167 26.671 0 40-.5 1.778-2.135 2.445-4.635 2-7.5h40a841.82 841.82 0 0 1-1 58Z"/><path style="opacity:1" fill="#40b7ea" d="M610.5 596.5v33h-14c.306 2.885-.027 5.552-1 8v-40c4.805-.987 9.805-1.321 15-1Z"/><path style="opacity:1" fill="#8cb998" d="M282.5 604.5v24c-10.548-.904-21.214-.904-32 0v-24c10.786-.904 21.452-.904 32 0Z"/><path style="opacity:1" fill="#87b798" d="M414.5 609.5v19a449.255 449.255 0 0 0-34 0v-19a449.255 449.255 0 0 1 34 0Z"/><path style="opacity:1" fill="#40b7ea" d="M455.5 637.5c.545-3.498-.288-6.498-2.5-9h-28c-1.472 9.5-1.972 19.167-1.5 29a900.97 900.97 0 0 1-1-60h34a400.456 400.456 0 0 1-1 40Z"/><path style="opacity:1" fill="#75ac97" d="M282.5 628.5v13h-32v-13c10.786-.904 21.452-.904 32 0Z"/><path style="opacity:1" fill="#3dbeed" d="M371.5 655.5a73.86 73.86 0 0 0-9-3.5 523.182 523.182 0 0 1-22-15c-5.101-1.519-9.768-3.686-14-6.5a2.428 2.428 0 0 1 .5-2c14 1.333 28 1.333 42 0 .414.457.914.791 1.5 1a169.926 169.926 0 0 1 1 26Z"/><path style="opacity:1" fill="#3dbfee" d="M455.5 637.5a14.698 14.698 0 0 1-3 3.5 305.965 305.965 0 0 0-29 16.5c-.472-9.833.028-19.5 1.5-29h28c2.212 2.502 3.045 5.502 2.5 9Z"/><path style="opacity:1" fill="#73ae9b" d="M414.5 628.5v19h-34v-19a449.255 449.255 0 0 1 34 0Z"/><path style="opacity:1" fill="#3bc3ef" d="M186.5 629.5h14c-.306 2.885.027 5.552 1 8a60.931 60.931 0 0 0 .5 11c5.48 4.594 11.647 8.094 18.5 10.5a97.22 97.22 0 0 0 10 7.5h-44v-37Z"/><path style="opacity:1" fill="#3ac3ef" d="M610.5 629.5a507.128 507.128 0 0 1-1 45c-1.671 2.01-2.338 4.343-2 7-3.064 1.19-5.731 2.857-8 5h-3v3h-4c-1.161-13.494-1.327-27.16-.5-41 .113-2.474 1.113-4.474 3-6a12.93 12.93 0 0 0 .5-5c.973-2.448 1.306-5.115 1-8h14Z"/><path style="opacity:1" fill="#62a89c" d="M380.5 647.5h34v16h-34v-16Z"/><path style="opacity:1" fill="#3a5150" d="M464.5 487.5v217h119v-217c.999 72.498 1.333 145.165 1 218h-121c-.333-72.835.001-145.502 1-218Z"/><path style="opacity:1" fill="#62a89c" d="M549.5 647.5h34v16h-34v-16ZM464.5 647.5h34v16h-34v-16Z"/><path style="opacity:1" fill="#73ae9b" d="M583.5 628.5v19h-34v-19a449.255 449.255 0 0 1 34 0ZM498.5 628.5v19h-34v-19a449.255 449.255 0 0 1 34 0Z"/><path style="opacity:1" fill="#87b798" d="M583.5 609.5v19a449.255 449.255 0 0 0-34 0v-19a449.255 449.255 0 0 1 34 0ZM498.5 609.5v19a449.255 449.255 0 0 0-34 0v-19a449.255 449.255 0 0 1 34 0Z"/><path style="opacity:1" fill="#98be96" d="M549.5 592.5h34v17a449.255 449.255 0 0 0-34 0v-17ZM464.5 592.5h34v17a449.255 449.255 0 0 0-34 0v-17Z"/><path style="opacity:1" fill="#a9c695" d="M549.5 576.5h34v16h-34v-16ZM464.5 576.5h34v16h-34v-16Z"/><path style="opacity:1" fill="#bbcd93" d="M583.5 559.5v17h-34v-17a449.255 449.255 0 0 1 34 0ZM498.5 559.5v17h-34v-17a449.255 449.255 0 0 1 34 0Z"/><path style="opacity:1" fill="#d0d690" d="M549.5 538.5h34v21a449.255 449.255 0 0 0-34 0v-21ZM464.5 538.5h34v21a449.255 449.255 0 0 0-34 0v-21Z"/><path style="opacity:1" fill="#283439" d="M548.5 523.5c.167 49.334 0 98.668-.5 148a379.781 379.781 0 0 1-47.5.5c-1.491-2.621-2.158-5.455-2-8.5v-125a73.133 73.133 0 0 1 1-17l3-1.5a462.27 462.27 0 0 1 43 0c1.926.422 2.926 1.589 3 3.5Z"/><path style="opacity:1" fill="#8e9396" d="M527.5 597.5c4.47-.986 9.137-1.319 14-1v69c-11.845.328-23.512-.005-35-1h34v-67h-13Z"/><path style="opacity:1" fill="#fdfdfd" d="M527.5 597.5h13v67h-34v-42c7.456-2.78 14.289-6.78 20.5-12 .499-4.321.666-8.654.5-13Z"/><path style="opacity:1" fill="#41b1e4" d="M518.5 597.5c.425 5.64-2.242 8.473-8 8.5l-3.5 3.5a72.367 72.367 0 0 1-.5-12h12Z"/><path style="opacity:1" fill="#020202" d="M506.5 583.5h34a46.809 46.809 0 0 1 1 13c-4.863-.319-9.53.014-14 1h-9c-3.798-.983-7.798-1.317-12-1v-13Z"/><path style="opacity:1" fill="#aca78e" d="M507.5 552.5v30h33v-30a120.655 120.655 0 0 1 0 31h-34c-.328-10.514.006-20.847 1-31Z"/><path style="opacity:1" fill="#e2d9b3" d="M507.5 561.5h33v21h-33v-21Z"/><path style="opacity:1" fill="#f0e8c3" d="M507.5 552.5h33v9h-33v-9Z"/><path style="opacity:1" fill="#030302" d="M506.5 538.5h34a46.809 46.809 0 0 1 1 13h-35v-13Z"/><path style="opacity:1" fill="#e2dd8e" d="M464.5 517.5h119v21h-34c.321-5.195-.013-10.195-1-15-.074-1.911-1.074-3.078-3-3.5a462.27 462.27 0 0 0-43 0l-3 1.5a73.133 73.133 0 0 0-1 17h-34v-21Z"/><path style="opacity:1" fill="#b5af94" d="M507.5 530.5v7h33v-7c1.333 2.667 1.333 5.333 0 8h-34c-.306-2.885.027-5.552 1-8Z"/><path style="opacity:1" fill="#f4edc8" d="M507.5 530.5h33v7h-33v-7Z"/><path style="opacity:1" fill="#000101" d="M506.5 527.5a307.162 307.162 0 0 1 35 1l-17.5 1c-6.207-.004-12.04-.671-17.5-2Z"/><path style="opacity:1" fill="#ede28d" d="M464.5 505.5h119v12h-119v-12Z"/><path style="opacity:1" fill="#f4e48b" d="M464.5 487.5h119v18h-119v-18Z"/><path style="opacity:1" fill="#549d99" d="M379.5 523.5c.987 4.805 1.321 9.805 1 15v125h34c-.927 4.814.74 8.148 5 10 6.813.991 13.813 1.325 21 1a72.367 72.367 0 0 1-.5 12 1832.377 1832.377 0 0 0-85.5 0v-12c7.187.325 14.187-.009 21-1 1.517-.011 2.684-.677 3.5-2 .5-49.332.667-98.666.5-148Z"/><path style="opacity:1" fill="#549e9a" d="M548.5 523.5c.987 4.805 1.321 9.805 1 15v125h34v23h-119v-23h34c-.158 3.045.509 5.879 2 8.5 15.908.824 31.741.657 47.5-.5.5-49.332.667-98.666.5-148Z"/><path style="opacity:1" fill="#36cbf3" d="M186.5 666.5h44a8.43 8.43 0 0 1 4 .5 150.824 150.824 0 0 0 18 11l4 4c5.777 1.172 10.777 3.672 15 7.5h-66c-2.749.873-4.916-.127-6.5-3l-1 1c-1.667-1-3-2.333-4-4-1.049 1.017-2.216 1.184-3.5.5l1-1a15.645 15.645 0 0 1-4-2.5 49.87 49.87 0 0 1-1-14Z"/><path style="opacity:1" fill="#3c7171" d="M375.5 673.5c-6.813.991-13.813 1.325-21 1v31c-.994-10.487-1.328-21.154-1-32h22Z"/><path style="opacity:1" fill="#36cdf5" d="M599.5 686.5c1.333.667 1.333.667 0 0Z"/><path style="opacity:1" fill="#33d1f5" d="M205.5 689.5h66a4.934 4.934 0 0 1 3 .5l19 13c10.544 4.767 20.544 10.267 30 16.5-11.55-.158-22.717-.158-33.5 0-.945-.405-1.612-1.072-2-2a4.457 4.457 0 0 1-1.5 2 406.48 406.48 0 0 0-32 0c-1.419-.951-3.085-1.284-5-1v-3h-6v-3c-2.092-.061-3.592-1.061-4.5-3-1.299.466-2.799.466-4.5 0v-3c-1.788.285-3.455-.048-5-1-2.158-3.144-5.158-4.477-9-4v-3a12.93 12.93 0 0 1-5-.5c-2.609-2.935-5.943-5.768-10-8.5Z"/><path style="opacity:1" fill="#469a9f" d="M419.5 673.5h22v32h-87v-19c28.667-.665 57.167-.665 85.5 0 .499-3.986.666-7.986.5-12-7.187.325-14.187-.009-21-1Z"/><path style="opacity:1" fill="#469ba0" d="M583.5 686.5v18h-119v-18h119Z"/><path style="opacity:1" fill="#30d7f7" d="M323.5 719.5a94.36 94.36 0 0 0 15 7.5 13.92 13.92 0 0 0 3 4 299.815 299.815 0 0 1 33 17.5h-71c-1.025-1.701-2.525-3.035-4.5-4-6.518-3.629-12.684-6.629-18.5-9v-3h-6v-3h-5v-3a8.43 8.43 0 0 1-4-.5c-3.452-2.719-7.119-4.885-11-6.5a406.48 406.48 0 0 1 32 0 4.457 4.457 0 0 0 1.5-2c.388.928 1.055 1.595 2 2 10.783-.158 21.95-.158 33.5 0Z"/><path style="opacity:1" fill="#30d5f6" d="M551.5 713.5a22.296 22.296 0 0 1-5 3.5l1 1a118.288 118.288 0 0 0-17 7.5 10.756 10.756 0 0 0-2.5 3l-1-1c-1.049 1.607-2.549 2.273-4.5 2v3h-6v3h-5v3c-2.524-.071-4.524.929-6 3-2.12-1.372-3.12-.705-3 2a12.93 12.93 0 0 0-5 .5c-1.729 1.948-3.729 3.448-6 4.5h-69a107.681 107.681 0 0 1 10-4.5c2.508-3.042 5.508-5.376 9-7 4.75-1.03 8.75-3.363 12-7a1147.103 1147.103 0 0 0 31-17 750.264 750.264 0 0 1 67 .5Z"/><path style="opacity:1" fill="#2cdefa" d="M303.5 748.5h71a1079.19 1079.19 0 0 0 14 8.5c6.63 3.123 13.297 3.123 20 0a152.842 152.842 0 0 0 14-8.5h69c-2.339 2.638-5.339 3.972-9 4v3c-2.51-.446-4.51.22-6 2-2.216.703-4.049 2.036-5.5 4-1.813-1.109-2.646-.442-2.5 2a12.93 12.93 0 0 0-5 .5c-1.497 1.871-3.497 2.871-6 3-1.307 2.324-3.307 3.657-6 4l2 1a12.93 12.93 0 0 1-5 .5v3a9.86 9.86 0 0 0-6 1 35.217 35.217 0 0 1-8 4v3h-6v3h-6v3a8.43 8.43 0 0 0-4 .5l-5 5c-1.284.684-2.451.517-3.5-.5-1.263 2.968-3.263 3.968-6 3a2.428 2.428 0 0 0-.5 2h-12c-.507-1.359-1.507-2.359-3-3a137.913 137.913 0 0 0-11-4v-3c-2.133-1.386-5.133-2.386-9-3v-3h-5v-3c-3.005.247-5.505-.753-7.5-3l-1 1a4.934 4.934 0 0 1-.5-3h-6v-3h-5v-3h-6v-3c-5.922-1.727-11.089-4.727-15.5-9-.718.951-1.551 1.117-2.5.5 1.333-.667 1.333-1.333 0-2a12.93 12.93 0 0 0-5-.5v-3a12.93 12.93 0 0 1-5-.5c-1.711-1.776-3.711-2.942-6-3.5Z"/><path style="opacity:1" fill="#2eddfa" d="M476.5 757.5c1.333.667 1.333.667 0 0Z"/></svg>