<?xml version="1.0" standalone="no"?>
<!DOCTYPE svg PUBLIC "-//W3C//DTD SVG 20010904//EN"
 "http://www.w3.org/TR/2001/REC-SVG-20010904/DTD/svg10.dtd">
<svg version="1.0" xmlns="http://www.w3.org/2000/svg"
 width="340.000000pt" height="340.000000pt" viewBox="0 0 340.000000 340.000000"
 preserveAspectRatio="xMidYMid meet">

<g transform="translate(0.000000,340.000000) scale(0.100000,-0.100000)"
fill="#000000" stroke="none">
<path d="M1385 3083 c-72 -16 -201 -60 -272 -93 -102 -47 -203 -108 -203 -121
0 -6 25 -55 55 -110 30 -55 55 -103 55 -108 0 -4 -27 -30 -61 -56 l-60 -47
-30 28 -29 28 -25 -24 -25 -24 29 -30 30 -31 -51 -63 -50 -62 -113 60 -113 60
-37 -59 c-73 -122 -149 -314 -170 -431 l-6 -36 121 -34 122 -35 -6 -44 c-3
-24 -6 -61 -6 -82 l0 -39 -45 0 c-45 0 -45 0 -45 -35 0 -35 0 -35 44 -35 l43
0 7 -76 c4 -42 3 -80 -1 -84 -8 -6 -50 -19 -176 -55 -67 -19 -66 -11 -20 -164
40 -135 157 -371 184 -371 6 0 55 25 110 55 55 30 103 55 108 55 4 0 30 -27
56 -61 l47 -60 -28 -30 -28 -29 24 -25 24 -25 30 29 31 30 63 -51 62 -50 -60
-113 -60 -113 59 -37 c122 -73 314 -149 431 -170 l36 -6 34 121 35 122 44 -6
c24 -3 61 -6 82 -6 l39 0 0 -45 c0 -45 0 -45 35 -45 35 0 35 0 35 44 l0 43 76
7 c42 4 80 3 84 -1 6 -8 19 -50 55 -176 19 -67 11 -66 164 -20 135 40 371 157
371 184 0 6 -25 55 -55 110 -30 55 -55 103 -55 108 0 4 27 30 61 56 l60 47 30
-28 29 -28 25 24 25 24 -29 30 -30 31 51 63 50 62 113 -60 113 -60 37 59 c73
122 149 314 170 431 l6 36 -121 34 -122 35 6 44 c3 24 6 61 6 82 l0 39 45 0
c45 0 45 0 45 35 0 35 0 35 -44 35 l-43 0 -7 76 c-4 42 -3 80 1 84 8 6 50 19
176 55 67 19 66 11 20 164 -40 135 -157 371 -184 371 -6 0 -55 -25 -110 -55
-55 -30 -103 -55 -108 -55 -4 0 -30 27 -56 61 l-47 60 28 30 28 29 -24 25 -24
25 -30 -29 -31 -30 -63 51 -62 50 60 113 60 113 -59 37 c-122 73 -314 149
-431 170 l-36 6 -34 -121 -35 -122 -44 6 c-24 3 -61 6 -82 6 l-39 0 0 45 c0
45 0 45 -35 45 -35 0 -35 0 -35 -44 l0 -43 -76 -7 c-42 -4 -80 -3 -84 1 -6 8
-19 50 -55 176 -9 31 -22 56 -28 56 -7 -1 -21 -3 -32 -6z m550 -483 c327 -88
577 -339 667 -671 33 -121 33 -337 0 -458 -91 -334 -339 -582 -673 -673 -121
-33 -337 -33 -458 0 -334 91 -582 339 -673 673 -33 121 -33 337 0 458 97 357
375 617 737 687 100 19 297 12 400 -16z"/>
<path d="M1515 2596 c-211 -49 -400 -165 -525 -322 -69 -86 -149 -245 -176
-349 -15 -54 -19 -106 -19 -225 0 -184 13 -245 86 -396 92 -193 230 -331 423
-423 151 -73 212 -86 396 -86 184 0 245 13 396 86 193 92 331 230 423 423 73
151 86 212 86 396 0 184 -13 245 -86 396 -90 188 -227 328 -412 419 -145 72
-208 87 -382 91 -104 2 -168 -1 -210 -10z m338 -21 c323 -56 606 -304 693
-607 46 -157 54 -278 29 -421 -56 -323 -304 -606 -607 -693 -157 -46 -278 -54
-421 -29 -323 56 -606 304 -693 607 -46 157 -54 278 -29 421 56 323 304 605
607 693 155 45 279 54 421 29z"/>
<path d="M1545 2405 c-282 -61 -506 -295 -556 -580 -18 -105 -7 -253 27 -354
49 -148 157 -288 289 -376 230 -152 552 -153 783 -2 228 148 344 378 329 651
-16 323 -249 594 -567 662 -81 17 -225 17 -305 -1z m213 -280 c-3 -14 -2 -25
2 -25 4 0 22 -3 39 -6 27 -6 31 -4 31 15 0 26 1 26 50 1 l39 -20 -19 -33 c-19
-32 -19 -33 1 -45 17 -11 22 -9 37 18 9 16 20 30 25 30 4 0 28 -19 53 -42 44
-41 45 -43 26 -56 -19 -13 -20 -15 -4 -43 18 -30 31 -36 48 -19 7 7 16 -2 29
-30 21 -46 13 -60 -32 -60 -18 0 -23 -6 -23 -25 0 -24 3 -25 43 -23 l42 3 3
-64 c3 -63 3 -64 -22 -59 -15 3 -26 2 -26 -2 0 -4 -3 -22 -6 -39 -6 -27 -4
-31 15 -31 26 0 26 -1 1 -50 l-20 -39 -33 19 c-32 19 -33 19 -45 -1 -11 -17
-9 -22 18 -37 16 -9 30 -20 30 -25 0 -4 -19 -28 -42 -53 -41 -44 -43 -45 -56
-26 -13 19 -15 20 -43 4 -30 -18 -36 -31 -19 -48 7 -7 -2 -16 -30 -29 -46 -21
-60 -13 -60 33 0 17 -6 22 -25 22 -24 0 -25 -3 -23 -42 l3 -43 -64 -3 c-63 -3
-64 -3 -59 22 3 15 2 26 -2 26 -4 0 -22 3 -39 6 -27 6 -31 4 -31 -15 0 -26 -1
-26 -50 -1 l-39 20 19 33 c19 32 19 33 -1 45 -17 11 -22 9 -37 -18 -9 -16 -20
-30 -25 -30 -4 0 -28 19 -53 42 -44 41 -45 43 -26 56 19 13 20 15 4 43 -18 30
-31 36 -48 19 -7 -7 -16 2 -29 30 -21 46 -13 60 33 60 17 0 22 6 22 25 0 24
-3 25 -42 23 l-43 -3 -3 64 c-3 63 -3 64 22 59 15 -3 26 -2 26 2 0 4 3 22 6
39 6 27 4 31 -15 31 -26 0 -26 1 -1 50 l20 39 33 -19 c32 -19 33 -19 45 1 11
17 9 22 -18 37 -16 9 -30 20 -30 25 0 4 19 28 42 53 41 44 43 45 56 26 13 -19
15 -20 43 -4 30 18 36 31 19 48 -7 7 2 16 30 29 46 21 60 13 60 -32 0 -18 6
-23 26 -23 25 0 26 2 20 35 -4 20 -4 40 -1 45 3 6 33 10 67 10 59 0 60 -1 56
-25z"/>
</g>
</svg>
