<?xml version="1.0" encoding="UTF-8"?><svg xmlns="http://www.w3.org/2000/svg" width="800" height="800" style="shape-rendering:geometricPrecision;text-rendering:geometricPrecision;image-rendering:optimizeQuality;fill-rule:evenodd;clip-rule:evenodd"><path style="opacity:1" fill="#fbcb1b" d="M576.5-.5h9a2.429 2.429 0 0 0 .5 2c1.049-1.017 2.216-1.184 3.5-.5a20.495 20.495 0 0 0 2.5 3.5c1.356-.88 2.856-1.214 4.5-1v3c2.822 1.432 6.489 2.432 11 3v3c2.092.061 3.592 1.061 4.5 3 2.537-.677 4.537.323 6 3 2.361-.566 4.194.434 5.5 3l2-1c.35 2.067 2.017 3.067 5 3v3h6v3h5v3h6v3a27.247 27.247 0 0 0 9 3c-.219 1.175.114 2.175 1 3a6.846 6.846 0 0 1 4-1v3a8.435 8.435 0 0 1 4 .5c-1.154.914-.987 1.747.5 2.5 1.299-.466 2.799-.466 4.5 0v3h6v3h5v3a428.986 428.986 0 0 0 20 8.5l-2 1c2.522.61 4.522 1.943 6 4 1.634.493 3.301.66 5 .5v3c2.908-.238 5.242.762 7 3 .951-.826 1.951-.992 3-.5l-1 1a6.977 6.977 0 0 1 3.5 2.5l1-1c.483.948.649 1.948.5 3h6v3h5v3c1.951-.273 3.451.393 4.5 2l1-1c6 4.386 12.5 7.886 19.5 10.5l-1 1c1.525 1.009 3.192 1.509 5 1.5v3h6v3h5v3c2.041.354 3.874.354 5.5 0 .483.948.649 1.948.5 3 2.836 1.276 5.836 1.942 9 2a7971.884 7971.884 0 0 1 2 251c-3.013-.128-5.513.872-7.5 3-2.411-1.653-3.578-.987-3.5 2-1.701.466-3.201.466-4.5 0-3.844 1.975-7.177 4.642-10 8l-1-1c-1.049 1.607-2.549 2.273-4.5 2v3c-3.937.204-7.604 1.204-11 3 .381 2.442-.286 3.109-2 2-.886.825-1.219 1.825-1 3h-6v3a12.93 12.93 0 0 0-5 .5c-1.079 2.043-2.746 3.376-5 4l1 1a12.93 12.93 0 0 1-5 .5v3a9.86 9.86 0 0 0-6 1c-3.423 1.192-6.256 3.192-8.5 6l-1-1c-1.049 1.607-2.549 2.273-4.5 2v3h-6v3h-5v3c-2.185.388-4.018 1.388-5.5 3-2.278-1.12-3.778-.287-4.5 2.5a101.955 101.955 0 0 0-13 5.5v3h-6v3h-6v3c-1.788-.285-3.455.048-5 1 1.129 2.029.629 2.363-1.5 1-1.712 3.452-4.212 4.452-7.5 3v3c-3.096-.593-5.429.407-7 3a47.25 47.25 0 0 1-7 3v3h-6v3c-1.788-.285-3.455.048-5 1a28.335 28.335 0 0 0-9.5 6l-1-1c-1.049 1.607-2.549 2.273-4.5 2-.167 12.338 0 24.671.5 37 .414.457.914.791 1.5 1a3571.518 3571.518 0 0 1 0 169c-1.671 2.01-2.338 4.343-2 7-3.064 1.19-5.731 2.857-8 5h-3v3a58.97 58.97 0 0 0-11 3v3c-1.859-.039-3.192.794-4 2.5a12.93 12.93 0 0 1-5 .5v3c-2.582-.475-4.582.192-6 2-2.281 1.928-4.947 2.928-8 3v3h-6v3c-4.045-.073-7.378 1.427-10 4.5l1 1a118.288 118.288 0 0 0-17 7.5 10.756 10.756 0 0 0-2.5 3l-1-1c-1.049 1.607-2.549 2.273-4.5 2v3h-6v3h-5v3c-2.524-.071-4.524.929-6 3-2.12-1.372-3.12-.705-3 2a12.93 12.93 0 0 0-5 .5 101.657 101.657 0 0 0-10 7.5 9.108 9.108 0 0 1-5 1v3c-2.51-.446-4.51.22-6 2-2.216.703-4.049 2.036-5.5 4-1.813-1.109-2.646-.442-2.5 2a12.93 12.93 0 0 0-5 .5c-1.497 1.871-3.497 2.871-6 3-1.307 2.324-3.307 3.657-6 4l2 1a12.93 12.93 0 0 1-5 .5v3a9.86 9.86 0 0 0-6 1 35.217 35.217 0 0 1-8 4v3h-6v3h-6v3a8.43 8.43 0 0 0-4 .5l-5 5c-1.284.684-2.451.517-3.5-.5-1.263 2.968-3.263 3.968-6 3a2.428 2.428 0 0 0-.5 2h-12c-.507-1.359-1.507-2.359-3-3a137.913 137.913 0 0 0-11-4v-3c-2.133-1.386-5.133-2.386-9-3v-3h-5v-3c-3.005.247-5.505-.753-7.5-3l-1 1a4.934 4.934 0 0 1-.5-3h-6v-3h-5v-3h-6v-3c-5.922-1.727-11.089-4.727-15.5-9-.718.951-1.551 1.117-2.5.5 1.333-.667 1.333-1.333 0-2a12.93 12.93 0 0 0-5-.5v-3a58.97 58.97 0 0 1-11-3v-3c-8.654-3.265-16.321-6.932-23-11v-3h-6v-3h-5v-3a8.43 8.43 0 0 1-4-.5c-4.85-3.699-10.184-6.199-16-7.5v-3h-6v-3c-2.092-.061-3.592-1.061-4.5-3-1.299.466-2.799.466-4.5 0v-3c-1.788.285-3.455-.048-5-1-2.158-3.144-5.158-4.477-9-4v-3a12.93 12.93 0 0 1-5-.5c-2.625-3.031-6.125-5.864-10.5-8.5-2.537.677-4.537-.323-6-3l-1 1c-1.667-1-3-2.333-4-4-1.049 1.017-2.216 1.184-3.5.5l1-1a15.645 15.645 0 0 1-4-2.5 23352.191 23352.191 0 0 1-1.5-216 1204.023 1204.023 0 0 0-28.5-16.5c-6.204-2.789-12.537-4.622-19-5.5v-3h-6v-3h-3v-3h-6v-3h-5v-3c-2.921.354-5.254-.646-7-3-1.714 1.109-2.381.442-2-2a58.97 58.97 0 0 1-11-3v-3a27.267 27.267 0 0 0-9-3v-3c-2.908.238-5.242-.762-7-3a3.647 3.647 0 0 0-1.5 1c-1.667-1-3-2.333-4-4l-1 1a4.932 4.932 0 0 1-.5-3h-6v-3h-5v-3a544.412 544.412 0 0 1-29-14v-3a58.967 58.967 0 0 1-11-3v-3h-6v-3c-4.013-1.674-8.013-3.341-12-5 .008-83.648.008-167.148 0-250.5a169.104 169.104 0 0 0 15-5.5v-3a58.967 58.967 0 0 0 11-3v-3a417.79 417.79 0 0 0 15-7 32.686 32.686 0 0 0 8.5-6l1 1c1.049-1.607 2.549-2.273 4.5-2v-3a59.029 59.029 0 0 1 11-3 4.932 4.932 0 0 1 .5-3l1 1c2.015-3.065 4.515-4.065 7.5-3v-3h5v-3c1.7.16 3.366-.007 5-.5 1.478-2.057 3.478-3.39 6-4l-2-1a18.436 18.436 0 0 1 6-.5v-3a87.51 87.51 0 0 0 14-5v-3h6v-3h5v-3c1.701-.466 3.201-.466 4.5 0 3.279-4.047 7.946-7.047 14-9a18.264 18.264 0 0 0 5-4l1 1c1.049-1.607 2.549-2.273 4.5-2v-3h5v-3h6v-3c4.612-1.195 9.279-2.862 14-5v-3c1.701-.466 3.201-.466 4.5 0 .908-1.939 2.408-2.939 4.5-3v-3h6v-3c1.788.285 3.455-.048 5-1a38.767 38.767 0 0 0 7-4.5 49.25 49.25 0 0 1 14 0c2.025 1.677 4.359 2.677 7 3-1.134 1.016-.801 1.683 1 2l5 1-1 1c2.622 3.073 5.955 4.573 10 4.5v3h6v3c3.191.262 5.858 1.596 8 4a9.864 9.864 0 0 0 6 1v3c3.58 1.22 7.247 2.386 11 3.5l-2 1c2.767.678 4.934 2.178 6.5 4.5l1-1c3.769 1.797 7.102 4.13 10 7a3.942 3.942 0 0 1 2-1c1.482 1.612 3.315 2.612 5.5 3v3h6v3h5v3h6v3a87.51 87.51 0 0 0 14 5v3c1.699-.16 3.366.007 5 .5l-1 1c1.525 1.009 3.192 1.509 5 1.5v3h6v3h5v3c2.985-1.065 5.485-.065 7.5 3l1-1c.483.948.649 1.948.5 3h5v3h6v3c2.133 1.386 5.133 2.386 9 3v3c2.908-.238 5.242.762 7 3l2-1c.35 2.067 2.017 3.067 5 3v3h6v3c2.516-.255 4.85-1.089 7-2.5a626.207 626.207 0 0 1 29-17c.837-1.011 1.17-2.178 1-3.5 4.493-.216 7.993-2.216 10.5-6 1.011.837 2.178 1.17 3.5 1v-3a59.031 59.031 0 0 0 11-3v-3c1.808.009 3.475-.491 5-1.5l-1-1a12.935 12.935 0 0 1 5-.5v-3a9.864 9.864 0 0 0 6-1 35.213 35.213 0 0 1 8-4v-3h6v-3a59.031 59.031 0 0 1 11-3v-3c1.808.009 3.475-.491 5-1.5-1.388-.89-1.222-1.39.5-1.5 2.071 1.167 3.571.5 4.5-2 6.434-2.343 12.767-5.343 19-9v-3a59.031 59.031 0 0 1 11-3 4.934 4.934 0 0 1 .5-3l1 1c1.995-2.247 4.495-3.247 7.5-3v-3h5v-3h6v-3c1.808.009 3.475-.491 5-1.5l-1-1a12.936 12.936 0 0 1 5-.5v-3c3.552.188 6.219-1.145 8-4Z"/><path style="opacity:1" fill="#273338" d="M549.5 481.5v-13c.838-.342 1.172-1.008 1-2 3.856-.342 6.856-2.176 9-5.5a51.42 51.42 0 0 0 14-8c22.698-12.348 45.365-24.681 68-37a3660.5 3660.5 0 0 1 91-54 84.545 84.545 0 0 1 18-8.5 7901.316 7901.316 0 0 0-1.5-216 2129.254 2129.254 0 0 1-37.5-21.5c-3.415-.406-6.082-2.072-8-5a91.311 91.311 0 0 1-23-13 457.332 457.332 0 0 0-22-11c-2.508-3.042-5.508-5.376-9-7a457.332 457.332 0 0 1-22-11l-24-15c-3.415-.406-6.082-2.072-8-5a90.401 90.401 0 0 0-14-6c-5.722-6.435-12.722-8.768-21-7-7.36 5.663-15.36 9.996-24 13-3.619 3.977-7.952 6.644-13 8-2.537 2.546-5.537 4.212-9 5l-4 4-10 4a2551.356 2551.356 0 0 0-60 36 7185.005 7185.005 0 0 1 26 16 114.065 114.065 0 0 0 14 6c4.2 3.6 8.867 6.433 14 8.5a684.54 684.54 0 0 1 19-8.5 43.593 43.593 0 0 1 13-8c2.365-3.714 5.698-5.714 10-6a705.673 705.673 0 0 1 21-12c4.719-2.307 9.719-2.974 15-2a113.107 113.107 0 0 0 28 15l5 5a182.852 182.852 0 0 1 35 20 193.115 193.115 0 0 1 32 19 197.694 197.694 0 0 1 17 8 69.2 69.2 0 0 1 4.5 6.5c.667 48.667.667 97.333 0 146-5.181 6.173-11.681 10.34-19.5 12.5a12318.477 12318.477 0 0 1-28 18c-6.381 2.027-12.048 5.361-17 10-6.943 1.604-12.943 4.937-18 10a59.724 59.724 0 0 0-20 11 24.569 24.569 0 0 1-8 3 926.365 926.365 0 0 1-34 20.5v-13c.667 0 1-.333 1-1 .453-.958 1.119-1.792 2-2.5l14-6 4-4a517.21 517.21 0 0 0 27-14c3.492-1.624 6.492-3.958 9-7 5.319-1.548 9.985-4.215 14-8a349.402 349.402 0 0 0 37-19 679.07 679.07 0 0 1 23-15 12.93 12.93 0 0 1 5-.5c.167-28.335 0-56.669-.5-85l-2-2c-.174-17.24-.674-34.407-1.5-51.5a4261.045 4261.045 0 0 1-114-65.5 3162.857 3162.857 0 0 0-66 36.5 42.479 42.479 0 0 1-13 0 496.946 496.946 0 0 0-33-18 114.32 114.32 0 0 1-14-10 4.934 4.934 0 0 0-3-.5c-1.365-2.36-3.365-4.027-6-5a3741.969 3741.969 0 0 0-8-7c1.243-3.775 3.576-6.942 7-9.5a12271.425 12271.425 0 0 0 129-74c9.584-1.031 17.918 1.636 25 8 4.302.286 7.635 2.286 10 6a974.743 974.743 0 0 1 66 38l15 7 4 4a457.332 457.332 0 0 1 22 11 29746.604 29746.604 0 0 0 46 28c2.71 1.747 5.71 2.747 9 3a36.078 36.078 0 0 1 3.5 4.5c.667 76 .667 152 0 228a190.921 190.921 0 0 1-21.5 10.5l-8 6a1884.13 1884.13 0 0 0-86 50c-3.81 1.13-7.143 3.13-10 6a1614.434 1614.434 0 0 1-40 21 1894.86 1894.86 0 0 1-46 27.5Z"/><path style="opacity:1" fill="#283338" d="M391.5 112.5a5999.972 5999.972 0 0 0-8 9c-.453-.958-1.119-1.792-2-2.5a265.064 265.064 0 0 1-17-8 337.282 337.282 0 0 1-26-17 731.874 731.874 0 0 1-34-19c-5.487-1.208-10.154-3.875-14-8a24672.35 24672.35 0 0 1-21-11 179.568 179.568 0 0 1-15-10A228.066 228.066 0 0 0 230 34.5 112.066 112.066 0 0 0 206.5 48l-10 4-3 3c-6.771 2.445-12.771 6.111-18 11l-10 4-4 4a520.666 520.666 0 0 0-59 34l-9 3c-3.796 3.592-8.13 6.259-13 8A361.546 361.546 0 0 1 48 137.5c-.667 72-.667 144 0 216a7214.146 7214.146 0 0 0 125 72c.5-21.664.667-43.331.5-65a340.197 340.197 0 0 0-18-8.5 55.63 55.63 0 0 0-18-10 78.488 78.488 0 0 0-23-13 56.965 56.965 0 0 0-10.5-7.5 2946.23 2946.23 0 0 1 1-153 230.435 230.435 0 0 0 32.5-19.5c8.372-3.019 16.038-7.352 23-13 5.093-1.382 9.426-4.049 13-8a90.42 90.42 0 0 0 14-6c1.918-2.928 4.585-4.594 8-5a226.438 226.438 0 0 1 29-17 42.498 42.498 0 0 1 13 0l4 4a154.79 154.79 0 0 0 13 6 1081.768 1081.768 0 0 0 33 20l4 1a289.603 289.603 0 0 1 16 10.5 3741.969 3741.969 0 0 0-7 8 95.841 95.841 0 0 0-12-4.5 301.986 301.986 0 0 0-51-30l-4.5-4.5c-1.604 1.149-3.27 1.149-5 0a1068.258 1068.258 0 0 1-78.5 45.5c-5.201 4.797-11.201 8.13-18 10-4.849 4.198-10.183 7.531-16 10l-2.5 2.5c-.5 45.332-.667 90.665-.5 136 5.301 1.324 9.968 3.824 14 7.5l10 4c1.918 2.928 4.585 4.594 8 5 2.674 3.012 6.007 4.678 10 5a82.15 82.15 0 0 0 22 13 20.231 20.231 0 0 1 7.5 7.5c.667 23.333.667 46.667 0 70-1.232 2.8-1.899 5.8-2 9-2.909 2.894-6.409 3.727-10.5 2.5a13376.247 13376.247 0 0 1-116-67c-3.96.349-6.626-1.317-8-5l-9.5-5.5a6458.19 6458.19 0 0 1-1-226c.093-2.507.926-4.674 2.5-6.5 3.29-.253 6.29-1.253 9-3a133.395 133.395 0 0 1 32-18c3.83-4.163 8.497-6.829 14-8a336.071 336.071 0 0 1 40-23l6-5c22.924-12.6 45.591-25.6 68-39 5.14-1.446 9.806-3.78 14-7 12.235-2.801 22.902.199 32 9a2084.03 2084.03 0 0 1 77 44c2.861.54 5.528 1.54 8 3a191.292 191.292 0 0 1 20 13c11.346 5.22 22.012 11.387 32 18.5Z"/><path style="opacity:1" fill="#fdfdfd" d="M383.5 121.5a119.615 119.615 0 0 1-13 13 395.674 395.674 0 0 1-17-16.5c-8.201-3.649-16.201-3.315-24 1a233.592 233.592 0 0 1-22 22.5 289.603 289.603 0 0 0-16-10.5l-4-1a1081.768 1081.768 0 0 1-33-20 154.79 154.79 0 0 1-13-6l-4-4a42.498 42.498 0 0 0-13 0 226.438 226.438 0 0 0-29 17c-3.415.406-6.082 2.072-8 5a90.42 90.42 0 0 1-14 6c-3.574 3.951-7.907 6.618-13 8-6.962 5.648-14.628 9.981-23 13a230.435 230.435 0 0 1-32.5 19.5 2946.23 2946.23 0 0 0-1 153 56.965 56.965 0 0 1 10.5 7.5 78.488 78.488 0 0 1 23 13 55.63 55.63 0 0 1 18 10 340.197 340.197 0 0 1 18 8.5c.167 21.669 0 43.336-.5 65a7214.146 7214.146 0 0 1-125-72c-.667-72-.667-144 0-216A361.546 361.546 0 0 0 80.5 119c4.87-1.741 9.204-4.408 13-8l9-3a520.666 520.666 0 0 1 59-34l4-4 10-4c5.229-4.889 11.229-8.555 18-11l3-3 10-4A112.066 112.066 0 0 1 230 34.5 228.066 228.066 0 0 1 254.5 46a179.568 179.568 0 0 0 15 10 24672.35 24672.35 0 0 0 21 11c3.846 4.125 8.513 6.792 14 8a731.874 731.874 0 0 0 34 19 337.282 337.282 0 0 0 26 17 265.064 265.064 0 0 0 17 8c.881.708 1.547 1.542 2 2.5Z"/><path style="opacity:1" fill="#fdfefe" d="M550.5 466.5a961.42 961.42 0 0 1-1-62 926.365 926.365 0 0 0 34-20.5 24.569 24.569 0 0 0 8-3 59.724 59.724 0 0 1 20-11c5.057-5.063 11.057-8.396 18-10 4.952-4.639 10.619-7.973 17-10 9.313-5.969 18.646-11.969 28-18 7.819-2.16 14.319-6.327 19.5-12.5.667-48.667.667-97.333 0-146a69.2 69.2 0 0 0-4.5-6.5 197.694 197.694 0 0 0-17-8 193.115 193.115 0 0 0-32-19 182.852 182.852 0 0 0-35-20l-5-5a113.107 113.107 0 0 1-28-15c-5.281-.974-10.281-.307-15 2a705.673 705.673 0 0 0-21 12c-4.302.286-7.635 2.286-10 6a43.593 43.593 0 0 0-13 8 684.54 684.54 0 0 0-19 8.5 50.162 50.162 0 0 1-14-8.5 114.065 114.065 0 0 1-14-6 7185.005 7185.005 0 0 0-26-16 2551.356 2551.356 0 0 1 60-36l10-4 4-4c3.463-.788 6.463-2.454 9-5 5.048-1.356 9.381-4.023 13-8 8.64-3.004 16.64-7.337 24-13 8.278-1.768 15.278.565 21 7a90.401 90.401 0 0 1 14 6c1.918 2.928 4.585 4.594 8 5l24 15a457.332 457.332 0 0 0 22 11c3.492 1.624 6.492 3.958 9 7a457.332 457.332 0 0 1 22 11 91.311 91.311 0 0 0 23 13c1.918 2.928 4.585 4.594 8 5a2129.254 2129.254 0 0 0 37.5 21.5 7901.316 7901.316 0 0 1 1.5 216 84.545 84.545 0 0 0-18 8.5 3660.5 3660.5 0 0 0-91 54 430775.028 430775.028 0 0 1-68 37 51.42 51.42 0 0 1-14 8c-2.144 3.324-5.144 5.158-9 5.5Z"/><path style="opacity:1" fill="#020101" d="M424.5 106.5c2.641 2.304 5.308 4.638 8 7 .919 2.589 2.586 4.589 5 6a610.024 610.024 0 0 0 41 42 366.495 366.495 0 0 0 30 33 1773.087 1773.087 0 0 1 34.5 36 59.043 59.043 0 0 1 5 9c.167 39.169.667 78.169 1.5 117v14c-1.333 7-1.333 14 0 21v13a512.628 512.628 0 0 0 0 64v13c-1.309 6.766-1.309 13.432 0 20v15a2629.282 2629.282 0 0 0 0 145c1.344 11.49-3.656 16.324-15 14.5a15.096 15.096 0 0 0-3-6c-26.331-.5-52.665-.667-79-.5v-10c26.505.331 52.839-.002 79-1v-84a19.177 19.177 0 0 1 2.5-5 1599.45 1599.45 0 0 0 0-80c-.377-1.442-1.21-2.442-2.5-3 .167-81.001 0-162.001-.5-243L414.5 121c-2-.667-4-.667-6 0a2494.965 2494.965 0 0 0-58 61c-4.475 2.061-8.808 1.895-13-.5-2.222-3.596-2.389-7.263-.5-11a341.539 341.539 0 0 1 21.5-22.5 148.31 148.31 0 0 1-14-15l-2-.5a101.815 101.815 0 0 0-15.5 14 3392.746 3392.746 0 0 1-37.5 40.5c-4.937 3.463-9.604 3.297-14-.5-1.08-3.243-1.247-6.576-.5-10a980.525 980.525 0 0 1 25.5-27c2.304-2.641 4.638-5.308 7-8a233.592 233.592 0 0 0 22-22.5c7.799-4.315 15.799-4.649 24-1a395.674 395.674 0 0 0 17 16.5 119.615 119.615 0 0 0 13-13c2.638-2.974 5.305-5.974 8-9 9.49-9.664 20.49-11.664 33-6Z"/><path style="opacity:1" fill="#fbcb1b" d="M550.5 390.5c-.991-6.479-1.324-13.146-1-20v-1a157.93 157.93 0 0 0 32-19.5c5.35-1.428 9.85-4.261 13.5-8.5.667-37.333.667-74.667 0-112a111.89 111.89 0 0 0-25.5-14.5l-4-4a117.669 117.669 0 0 1-17-8c-3.671-4.417-8.338-7.083-14-8a1066.368 1066.368 0 0 0-56-33.5 610.024 610.024 0 0 1-41-42c0-.667.333-1 1-1a4.934 4.934 0 0 1 3 .5 114.32 114.32 0 0 0 14 10 496.946 496.946 0 0 1 33 18c4.333.667 8.667.667 13 0a3162.857 3162.857 0 0 1 66-36.5 4261.045 4261.045 0 0 0 114 65.5c.826 17.093 1.326 34.26 1.5 51.5l2 2c.5 28.331.667 56.665.5 85a12.93 12.93 0 0 0-5 .5 679.07 679.07 0 0 0-23 15 349.402 349.402 0 0 1-37 19c-4.015 3.785-8.681 6.452-14 8-2.508 3.042-5.508 5.376-9 7a517.21 517.21 0 0 1-27 14l-4 4-14 6c-.881.708-1.547 1.542-2 2.5Z"/><path style="opacity:1" fill="#75641d" d="M432.5 113.5c2.635.973 4.635 2.64 6 5-.667 0-1 .333-1 1-2.414-1.411-4.081-3.411-5-6Z"/><path style="opacity:1" fill="#fedb5e" d="M531.5 486.5a352.647 352.647 0 0 0-37-1v-150c6.996-.978 9.829-4.978 8.5-12-.948-2.07-2.448-3.57-4.5-4.5-58-.667-116-.667-174 0-4.361 2.226-5.861 5.726-4.5 10.5 1.564 3.86 4.398 5.86 8.5 6v184a792.12 792.12 0 0 1-35 12 10225.407 10225.407 0 0 1-2-286 102.015 102.015 0 0 1 7.5-10 573.597 573.597 0 0 0 28-29c2.046-4.144 1.88-8.144-.5-12a101.669 101.669 0 0 0 11-13c4.192 2.395 8.525 2.561 13 .5a2494.965 2494.965 0 0 1 58-61c2-.667 4-.667 6 0L531 243.5c.5 80.999.667 161.999.5 243Z"/><path style="opacity:1" fill="#c8a21b" d="M337.5 181.5a101.669 101.669 0 0 1-11 13c-4.496-2.758-8.83-2.591-13 .5L279 231.5c-2.146 2.626-3.479 5.626-4 9-.5 98.999-.667 197.999-.5 297a118.803 118.803 0 0 0-21.5 8c-.667 17-.667 34 0 51a282.945 282.945 0 0 0 21.5 8v18h-25c-.167-131.334 0-262.667.5-394a192.01 192.01 0 0 1 16-17c3.452-4.537 3.285-8.871-.5-13a39.312 39.312 0 0 0 10-11v-1c4.396 3.797 9.063 3.963 14 .5a3392.746 3392.746 0 0 0 37.5-40.5 101.815 101.815 0 0 1 15.5-14l2 .5a148.31 148.31 0 0 0 14 15 341.539 341.539 0 0 0-21.5 22.5c-1.889 3.737-1.722 7.404.5 11Z"/><path style="opacity:1" fill="#273338" d="M478.5 161.5a1066.368 1066.368 0 0 1 56 33.5c5.662.917 10.329 3.583 14 8a117.669 117.669 0 0 0 17 8l4 4a111.89 111.89 0 0 1 25.5 14.5c.667 37.333.667 74.667 0 112-3.65 4.239-8.15 7.072-13.5 8.5a157.93 157.93 0 0 1-32 19.5v-13c4.16-1.68 7.827-4.18 11-7.5a249.84 249.84 0 0 0 22.5-11.5c.833-34.005.667-68.005-.5-102a25779.823 25779.823 0 0 0-73-42c-.607.124-.94.457-1 1a366.495 366.495 0 0 1-30-33Z"/><path style="opacity:1" fill="#323936" d="M275.5 187.5a39.312 39.312 0 0 1-10 11c-1.797-1.23-3.797-1.896-6-2 4.38-2.047 8.38-4.88 12-8.5a8.43 8.43 0 0 1 4-.5Z"/><path style="opacity:1" d="M326.5 194.5c2.38 3.856 2.546 7.856.5 12a573.597 573.597 0 0 1-28 29 102.015 102.015 0 0 0-7.5 10 20595.371 20595.371 0 0 0-1 287 11630.65 11630.65 0 0 1-16 5c-.167-99.001 0-198.001.5-297 .521-3.374 1.854-6.374 4-9l34.5-36.5c4.17-3.091 8.504-3.258 13-.5Z"/><path style="opacity:1" fill="#fafafa" d="M508.5 194.5c.06-.543.393-.876 1-1a25779.823 25779.823 0 0 1 73 42 1734.395 1734.395 0 0 1 .5 102 249.84 249.84 0 0 1-22.5 11.5c-3.173 3.32-6.84 5.82-11 7.5a6808.835 6808.835 0 0 1-1.5-117 59.043 59.043 0 0 0-5-9 1773.087 1773.087 0 0 0-34.5-36Z"/><path style="opacity:1" fill="#040300" d="M259.5 196.5c2.203.104 4.203.77 6 2 3.785 4.129 3.952 8.463.5 13a192.01 192.01 0 0 0-16 17c-.5 131.333-.667 262.666-.5 394h25v-18a215.17 215.17 0 0 1 16 4v32a77.772 77.772 0 0 1-17-1h-34c-2.763-.244-4.929-1.577-6.5-4-.5-136.666-.667-273.333-.5-410a41.002 41.002 0 0 1 3.5-8 82.309 82.309 0 0 0 12.5-14c2.879-3.541 6.546-5.874 11-7Z"/><path style="opacity:1" fill="#293439" d="M248.5 203.5a82.309 82.309 0 0 1-12.5 14 41.002 41.002 0 0 0-3.5 8 184.447 184.447 0 0 1-19 10c-.167 135.667 0 271.334.5 407a46.99 46.99 0 0 0 10.5 5.5l4 4a151.662 151.662 0 0 1 22 11.5c.283.789.783 1.456 1.5 2 .5-6.992.666-13.992.5-21-.237-1.291.096-2.291 1-3 6.767-.632 13.433-1.299 20-2a77.772 77.772 0 0 0 17 1v-32a215.17 215.17 0 0 0-16-4 282.945 282.945 0 0 1-21.5-8c-.667-17-.667-34 0-51a118.803 118.803 0 0 1 21.5-8 11630.65 11630.65 0 0 0 16-5c1.291.237 2.291-.096 3-1a792.12 792.12 0 0 0 35-12 1481.05 1481.05 0 0 0 60.5-19l4 2a212.903 212.903 0 0 1-.5 35.5 2465.386 2465.386 0 0 1-64 20.5 701.1 701.1 0 0 0-35 10.5c-1.473.71-2.14 1.876-2 3.5a1177.478 1177.478 0 0 1 37 11 10869.395 10869.395 0 0 1 61 18.5c1.824.66 3.157 1.827 4 3.5v32c-1.333 2.333-1.333 4.667 0 7v15a112.97 112.97 0 0 1-.5 15 11.333 11.333 0 0 1-3.5 1.5c4.321.499 8.654.666 13 .5v-18c-.166-9.006 0-18.006.5-27a84.01 84.01 0 0 0 7.5-8c.667 0 1-.333 1-1 6-5.333 11.667-11 17-17l55-54c.99-6.145 1.323-12.478 1-19h-78c-2.276-.256-3.443-1.59-3.5-4a400.05 400.05 0 0 1 0-40l2.5-2.5a3958.7 3958.7 0 0 1 89-.5 352.647 352.647 0 0 1 37 1c1.29.558 2.123 1.558 2.5 3a1599.45 1599.45 0 0 1 0 80 19.177 19.177 0 0 0-2.5 5c-11 10.333-21.667 21-32 32a96.331 96.331 0 0 0-17 16c-10 9.333-19.667 19-29 29-.973 2.448-1.306 5.115-1 8v10c26.335-.167 52.669 0 79 .5a15.096 15.096 0 0 1 3 6c11.344 1.824 16.344-3.01 15-14.5.667 0 1-.333 1-1a438.623 438.623 0 0 0 32-18c1.167-48.663 1.333-97.33.5-146a881.14 881.14 0 0 0-33.5 19v-14c5.141-3.545 10.808-6.045 17-7.5l5-5a58.12 58.12 0 0 0 11-5c4.652-1.193 8.819-.36 12.5 2.5.667 52 .667 104 0 156-2.329 5.671-6.162 10.171-11.5 13.5a192.811 192.811 0 0 0-13 6 219.87 219.87 0 0 0-13 10 75.136 75.136 0 0 0-23.5 13.5c-.18 9.91-.68 19.744-1.5 29.5a802.238 802.238 0 0 1-55 2c-7.958 4.314-15.958 8.647-24 13-4.933 4.604-10.6 7.938-17 10l-4 4c-6.761 1.869-12.761 5.202-18 10-5.111 2.701-10.611 4.534-16.5 5.5a66.364 66.364 0 0 1-9.5-2.5 35.157 35.157 0 0 0-10-5c-3.796-3.592-8.129-6.259-13-8a279.412 279.412 0 0 0-19-12c-3.959.349-6.626-1.317-8-5-8.36-3.016-16.027-7.349-23-13a466.277 466.277 0 0 1-50-29l-9-3a114.425 114.425 0 0 0-30-18 55.63 55.63 0 0 0-18-10 18.839 18.839 0 0 0-6.5-5.5c-.667-139-.667-278 0-417a34.706 34.706 0 0 1 7.5-6.5 194.201 194.201 0 0 0 32-19 31.774 31.774 0 0 1 7-2.5Z"/><path style="opacity:1" fill="#030201" d="M404.5 202.5c33.341.173 49.508 16.839 48.5 50-7.688 25.601-24.854 36.768-51.5 33.5-26.86-9.9-36.693-28.734-29.5-56.5 6.659-14.073 17.493-23.073 32.5-27Z"/><path style="opacity:1" fill="#c7a21b" d="M404.5 220.5c5.828-.45 11.495.216 17 2 .605 14.927-6.061 25.427-20 31.5-3.946 1.324-7.946 1.991-12 2-5.883-16.403-.883-28.236 15-35.5Z"/><path style="opacity:1" fill="#f7f7f7" d="M232.5 225.5c-.167 136.667 0 273.334.5 410 1.571 2.423 3.737 3.756 6.5 4l14 2c-.904.709-1.237 1.709-1 3l-2 19a151.662 151.662 0 0 0-22-11.5l-4-4a46.99 46.99 0 0 1-10.5-5.5c-.5-135.666-.667-271.333-.5-407 6.5-2.95 12.833-6.283 19-10Z"/><path style="opacity:1" fill="#403718" d="M291.5 245.5c-.664 95.673.002 191.006 2 286-.709.904-1.709 1.237-3 1-.333-95.835.001-191.501 1-287Z"/><path style="opacity:1" fill="#7c631c" d="M435.5 243.5c.633 12.826-5.367 21.326-18 25.5a16.242 16.242 0 0 1-8 0c11.801-5.301 20.467-13.801 26-25.5Z"/><path style="opacity:1" d="M494.5 335.5h-166c-4.102-.14-6.936-2.14-8.5-6-1.361-4.774.139-8.274 4.5-10.5 58-.667 116-.667 174 0 2.052.93 3.552 2.43 4.5 4.5 1.329 7.022-1.504 11.022-8.5 12Z"/><path style="opacity:1" fill="#fef5d5" d="M328.5 335.5h166v150a3958.7 3958.7 0 0 0-89 .5l-2.5 2.5a400.05 400.05 0 0 0 0 40c.057 2.41 1.224 3.744 3.5 4a1482.71 1482.71 0 0 0 77 1v18l-55 54h-35c-.843-1.673-2.176-2.84-4-3.5a10869.395 10869.395 0 0 0-61-18.5v-25a2465.386 2465.386 0 0 0 64-20.5 212.903 212.903 0 0 0 .5-35.5l-4-2a1481.05 1481.05 0 0 1-60.5 19v-184Z"/><path style="opacity:1" fill="#7a6410" d="M549.5 370.5c-.324 6.854.009 13.521 1 20 0 .667-.333 1-1 1-1.333-7-1.333-14 0-21Z"/><path style="opacity:1" fill="#7f7f7f" d="M549.5 404.5a961.42 961.42 0 0 0 1 62c.172.992-.162 1.658-1 2a512.628 512.628 0 0 1 0-64Z"/><path style="opacity:1" fill="#bdbb72" d="M525.5 567.5v-73h-114v30c25.505-.331 50.839.002 76 1h-77v-32h116c.331 24.839-.002 49.506-1 74Z"/><path style="opacity:1" fill="#fef58b" d="M525.5 567.5a8970.857 8970.857 0 0 1-79.5 80 196.152 196.152 0 0 0 0 28c.383.556.883.889 1.5 1 25.828.998 51.828 1.331 78 1v30h-114v-73a2888.317 2888.317 0 0 1 78.5-78c1.615-9.9 1.949-19.9 1-30-1.011-.837-2.178-1.17-3.5-1a1444.401 1444.401 0 0 0-76-1v-30h114v73Z"/><path style="opacity:1" fill="#fefefe" d="M550.5 660.5c-.999-47.83-1.332-95.83-1-144v-1a881.14 881.14 0 0 1 33.5-19c.833 48.67.667 97.337-.5 146a438.623 438.623 0 0 1-32 18Z"/><path style="opacity:1" fill="#929361" d="M384.5 510.5c.06-.543.393-.876 1-1 1.32 7.823 1.32 15.49 0 23 .325-7.519-.008-14.852-1-22Z"/><path style="opacity:.73" fill="#cba61b" d="M722.5 509.5c2.427.023 4.76.523 7 1.5.88 1.356 1.214 2.856 1 4.5a18.074 18.074 0 0 1-8-2c-1.126-1.308-1.126-2.642 0-4Z"/><path style="opacity:1" fill="#faf28a" d="M384.5 510.5c.992 7.148 1.325 14.481 1 22a20363.055 20363.055 0 0 0-109 33.5c-5.508 2.155-6.175 5.155-2 9a7205.48 7205.48 0 0 0 110 33.5 139.2 139.2 0 0 1 1 23 13796.535 13796.535 0 0 1-126-40 421.042 421.042 0 0 1 1-41 22546.8 22546.8 0 0 1 124-40Z"/><path style="opacity:1" fill="#7e7e7e" d="M549.5 516.5c-.332 48.17.001 96.17 1 144 0 .667-.333 1-1 1a2629.282 2629.282 0 0 1 0-145Z"/><path style="opacity:1" fill="#909285" d="M406.5 532.5h78c.323 6.522-.01 12.855-1 19v-18a1482.71 1482.71 0 0 1-77-1Z"/><path style="opacity:1" fill="#f7d65f" d="M328.5 558.5v25a1177.478 1177.478 0 0 0-37-11c-.14-1.624.527-2.79 2-3.5a701.1 701.1 0 0 1 35-10.5Z"/><path style="opacity:1" fill="#fddb5d" d="M531.5 574.5v84h-78v-7c9.333-10 19-19.667 29-29 5.344.166 10.677-.001 16-.5 6.138-4.937 6.471-10.103 1-15.5 10.333-11 21-21.667 32-32Z"/><path style="opacity:1" fill="#000101" d="M393.5 605.5h35c-5.333 6-11 11.667-17 17h-18v-17Z"/><path style="opacity:1" fill="#070605" d="M499.5 606.5c5.471 5.397 5.138 10.563-1 15.5-5.323.499-10.656.666-16 .5a96.331 96.331 0 0 1 17-16Z"/><path style="opacity:1" fill="#8f9060" d="M384.5 608.5c1.324 3.607 1.991 7.607 2 12 .036 4.425-.298 8.091-1 11a139.2 139.2 0 0 0-1-23Z"/><path style="opacity:1" fill="#fdda5d" d="M381.5 638.5a2026.42 2026.42 0 0 1-90 1c-.166-10.006 0-20.006.5-30a2812.48 2812.48 0 0 0 89.5 29Z"/><path style="opacity:1" fill="#a09049" d="M393.5 622.5h18c0 .667-.333 1-1 1h-16c.319 4.863-.014 9.53-1 14v-15Z"/><path style="opacity:1" fill="#fdda5d" d="M410.5 623.5a84.01 84.01 0 0 1-7.5 8c-.5 8.994-.666 17.994-.5 27h-8c.319-4.863-.014-9.53-1-14-1.333-2.333-1.333-4.667 0-7 .986-4.47 1.319-9.137 1-14h16Z"/><path style="opacity:1" fill="#a4a6a7" d="M239.5 639.5h34c-6.567.701-13.233 1.368-20 2l-14-2Z"/><path style="opacity:1" fill="#c7b053" d="M381.5 638.5c1.266.59 2.599 1.09 4 1.5-31.503.831-62.836.664-94-.5a2026.42 2026.42 0 0 0 90-1Z"/><path style="opacity:1" fill="#909699" d="M252.5 644.5c.166 7.008 0 14.008-.5 21-.717-.544-1.217-1.211-1.5-2l2-19Z"/><path style="opacity:1" fill="#5c532b" d="M393.5 644.5c.986 4.47 1.319 9.137 1 14h8v1h-9v-15Z"/><path style="opacity:1" fill="#453c1b" d="M453.5 651.5v7h78a1560.835 1560.835 0 0 1-79 1c-.306-2.885.027-5.552 1-8Z"/><path style="opacity:1" fill="#030505" d="M393.5 659.5h9v17a84.902 84.902 0 0 1-13-.5 11.333 11.333 0 0 0 3.5-1.5c.499-4.989.666-9.989.5-15Z"/><path style="opacity:1" fill="#bdba72" d="M260.5 648.5v19h125v-19c.991 6.479 1.324 13.146 1 20h-127c-.324-6.854.009-13.521 1-20Z"/><path style="opacity:1" fill="#fef68b" d="M260.5 648.5h125v19h-125v-19Z"/><path style="opacity:1" fill="#fdfdfd" d="M274.5 677.5a2020.592 2020.592 0 0 1 110-.5 40.977 40.977 0 0 1 9 5c2.982.498 5.982.665 9 .5-.166 10.006 0 20.006.5 30a6.978 6.978 0 0 0 2.5 3.5l49 1c-4.69 1.17-8.69 3.503-12 7-6.858 2.879-13.191 6.546-19 11a115.786 115.786 0 0 0-25 13.5 97.288 97.288 0 0 0-12-5.5c-3.543-1.608-6.543-3.942-9-7-5.662-.917-10.329-3.583-14-8a78.488 78.488 0 0 1-23-13c-3.415-.406-6.082-2.072-8-5-8.372-3.019-16.038-7.352-23-13-5.093-1.382-9.426-4.049-13-8-6.4-2.062-12.067-5.396-17-10a27.603 27.603 0 0 1-5-1.5Z"/><path style="opacity:1" fill="#7c7f59" d="M447.5 676.5h79c.328 10.846-.006 21.513-1 32v-31c-26.172.331-52.172-.002-78-1Z"/><path style="opacity:1" fill="#fccc1a" d="M599.5 686.5c1.333.667 1.333.667 0 0ZM570.5 703.5c1.333.667 1.333.667 0 0Z"/><path style="opacity:1" fill="#c6c375" d="M411.5 634.5v73h114v1h-115c-.331-24.839.002-49.506 1-74Z"/><path style="opacity:1" fill="#fccc1a" d="M476.5 757.5c1.333.667 1.333.667 0 0Z"/></svg>