<?xml version="1.0" encoding="UTF-8"?><svg xmlns="http://www.w3.org/2000/svg" width="800" height="800" style="shape-rendering:geometricPrecision;text-rendering:geometricPrecision;image-rendering:optimizeQuality;fill-rule:evenodd;clip-rule:evenodd"><path style="opacity:1" fill="#263239" d="M631.5 57.5a226.654 226.654 0 0 1 30 17.5l15 7 4 4a329.667 329.667 0 0 1 23 11.5 2083.255 2083.255 0 0 0 45 27.5c2.71 1.747 5.71 2.747 9 3a36.078 36.078 0 0 1 3.5 4.5c.5 29.998.667 59.998.5 90v133c.396 2.544-.271 4.711-2 6.5a113.606 113.606 0 0 0-28 15 377.475 377.475 0 0 1-23 12l-5 5a112.343 112.343 0 0 0-17 8 98.54 98.54 0 0 1-10 7.5 8.43 8.43 0 0 0-4 .5 10892.14 10892.14 0 0 0-27 17c-3.81 1.13-7.143 3.13-10 6a1614.434 1614.434 0 0 1-40 21 649.768 649.768 0 0 1-39 23.5v-14a2926.69 2926.69 0 0 1 85-47.5 3660.5 3660.5 0 0 1 91-54 84.545 84.545 0 0 1 18-8.5c.167-70.334 0-140.667-.5-211 .564-4.29-1.269-6.457-5.5-6.5a203.265 203.265 0 0 0-37-21l-4-4a91.311 91.311 0 0 1-23-13 457.332 457.332 0 0 0-22-11l-4-4a483.026 483.026 0 0 1-51-29c-3.415-.406-6.082-2.072-8-5a90.401 90.401 0 0 0-14-6c-5.722-6.435-12.722-8.768-21-7-7.36 5.663-15.36 9.996-24 13-3.619 3.977-7.952 6.644-13 8-2.537 2.546-5.537 4.212-9 5l-4 4-10 4a2551.356 2551.356 0 0 0-60 36 247.275 247.275 0 0 1 16 8.5c-.841 1.879-1.175 3.879-1 6 4.13-.251 8.13-.251 12 0a88.153 88.153 0 0 0-6 11 125.293 125.293 0 0 1-20-12.5l-4-1c-2.287-2.962-5.12-5.129-8.5-6.5-1.633-1.953-2.799-4.12-3.5-6.5 1.046-2.886 2.713-5.386 5-7.5a2196.258 2196.258 0 0 0 70-40 3916.491 3916.491 0 0 1 60-34.5c9.584-1.031 17.918 1.636 25 8 4.302.286 7.635 2.286 10 6a1126.1 1126.1 0 0 1 31 16 31.418 31.418 0 0 0 5 4.5Z"/><path style="opacity:1" fill="#263239" d="M296.5 57.5a2093.574 2093.574 0 0 0 70 40 518.075 518.075 0 0 1 41 24.5 312.387 312.387 0 0 1 27 14 168.046 168.046 0 0 0 25 14.5 35.406 35.406 0 0 0 7 5.5 211.964 211.964 0 0 1 27 14.5 960.746 960.746 0 0 1 27 15c6.761 5.716 14.428 9.883 23 12.5 3.486 4.207 7.819 7.04 13 8.5 2.619 2.085 5.619 3.585 9 4.5 4.015 3.785 8.681 6.452 14 8a122.618 122.618 0 0 0 15.5 10.5c.499 5.657.666 11.324.5 17v93c-2.961 5.659-7.627 9.159-14 10.5a114.425 114.425 0 0 1-30 18 1235.95 1235.95 0 0 0-11 8.5 57.731 57.731 0 0 1-8-10 186.207 186.207 0 0 1 24-13.5l4-4a249.84 249.84 0 0 0 22.5-11.5c.833-34.005.667-68.005-.5-102a803.828 803.828 0 0 1-52-30.5c-4.758-1.884-9.092-4.551-13-8-8.449-3.02-16.115-7.353-23-13-5.521-1.096-10.187-3.762-14-8a8.43 8.43 0 0 0-4-.5c-19.682-23.676-44.682-38.343-75-44-.453-.958-1.119-1.792-2-2.5a71.52 71.52 0 0 1-18-10 265.064 265.064 0 0 1-17-8 337.282 337.282 0 0 1-26-17 731.874 731.874 0 0 1-34-19c-5.487-1.208-10.154-3.875-14-8a24672.35 24672.35 0 0 1-21-11 179.568 179.568 0 0 1-15-10A228.066 228.066 0 0 0 230 34.5 112.066 112.066 0 0 0 206.5 48l-10 4-3 3c-6.771 2.445-12.771 6.111-18 11l-10 4-4 4a520.666 520.666 0 0 0-59 34l-9 3c-3.796 3.592-8.13 6.259-13 8A361.546 361.546 0 0 1 48 137.5c-.667 72-.667 144 0 216a7214.146 7214.146 0 0 0 125 72c.5-21.664.667-43.331.5-65a340.197 340.197 0 0 0-18-8.5 55.63 55.63 0 0 0-18-10 78.488 78.488 0 0 0-23-13 56.965 56.965 0 0 0-10.5-7.5 2946.23 2946.23 0 0 1 1-153 230.435 230.435 0 0 0 32.5-19.5c8.372-3.019 16.038-7.352 23-13 5.093-1.382 9.426-4.049 13-8a90.42 90.42 0 0 0 14-6c1.918-2.928 4.585-4.594 8-5a226.438 226.438 0 0 1 29-17 42.498 42.498 0 0 1 13 0c1.918 2.928 4.585 4.594 8 5a1566.61 1566.61 0 0 0 73 41.5 82.955 82.955 0 0 0-13 9c-2.07-3.39-5.07-5.723-9-7a925.17 925.17 0 0 1-49-29.5c-5.603-1.533-10.436-4.366-14.5-8.5-1.604 1.149-3.27 1.149-5 0a2990.282 2990.282 0 0 0-65.5 39 288.418 288.418 0 0 1-13 6.5c-5.201 4.797-11.201 8.13-18 10-1.593.949-2.926 2.115-4 3.5a84.306 84.306 0 0 0-14.5 9 84.902 84.902 0 0 0-.5 13v121c2.791 2.568 6.124 4.401 10 5.5l4 4 10 4c1.918 2.928 4.585 4.594 8 5 2.902 3.41 6.568 5.243 11 5.5 6.336 5.182 13.336 9.349 21 12.5a20.231 20.231 0 0 1 7.5 7.5c.5 9.327.666 18.661.5 28 .689 17.198-.144 34.198-2.5 51-2.909 2.894-6.409 3.727-10.5 2.5-4.863-3.51-10.196-6.177-16-8a1406.405 1406.405 0 0 0-71-41.5 249 249 0 0 1-29-17.5c-3.96.349-6.626-1.317-8-5l-9.5-5.5a157.69 157.69 0 0 1-1.5-29v-196c.533-2.622 1.533-5.122 3-7.5 3.29-.253 6.29-1.253 9-3a133.395 133.395 0 0 1 32-18c4.616-4.007 9.616-7.174 15-9.5a2359.02 2359.02 0 0 0 70-40 954.657 954.657 0 0 1 57-32.5c4.872-.246 9.705-.746 14.5-1.5a2993.856 2993.856 0 0 1 59.5 34Z"/><path style="opacity:1" fill="#072a65" d="M317.5 56.5c-7.187-.325-14.187.009-21 1a2993.856 2993.856 0 0 0-59.5-34 138.219 138.219 0 0 1-14.5 1.5 954.657 954.657 0 0 0-57 32.5 702.833 702.833 0 0 0-53-1c.709-.904 1.709-1.237 3-1v-3h6v-3h5v-3c1.701-.466 3.201-.466 4.5 0 3.279-4.047 7.946-7.047 14-9a18.264 18.264 0 0 0 5-4l1 1c1.049-1.607 2.549-2.273 4.5-2v-3h5v-3h6v-3c4.612-1.195 9.279-2.862 14-5v-3c1.701-.466 3.201-.466 4.5 0 .908-1.939 2.408-2.939 4.5-3v-3h6v-3c1.788.285 3.455-.048 5-1a38.767 38.767 0 0 0 7-4.5 49.25 49.25 0 0 1 14 0c2.025 1.677 4.359 2.677 7 3-1.134 1.016-.801 1.683 1 2l5 1-1 1c2.622 3.073 5.955 4.573 10 4.5v3h6v3c3.191.262 5.858 1.596 8 4a9.864 9.864 0 0 0 6 1v3c3.58 1.22 7.247 2.386 11 3.5l-2 1c2.767.678 4.934 2.178 6.5 4.5l1-1c3.769 1.797 7.102 4.13 10 7a3.942 3.942 0 0 1 2-1c1.482 1.612 3.315 2.612 5.5 3v3h6v3h5v3h6v3c1.291-.237 2.291.096 3 1ZM576.5-.5h9a2.429 2.429 0 0 0 .5 2c1.049-1.017 2.216-1.184 3.5-.5a20.495 20.495 0 0 0 2.5 3.5c1.356-.88 2.856-1.214 4.5-1v3c2.822 1.432 6.489 2.432 11 3v3c2.092.061 3.592 1.061 4.5 3 2.537-.677 4.537.323 6 3 2.361-.566 4.194.434 5.5 3l2-1c.35 2.067 2.017 3.067 5 3v3h6v3h5v3h6v3a27.247 27.247 0 0 0 9 3c-.219 1.175.114 2.175 1 3a6.846 6.846 0 0 1 4-1v3a8.435 8.435 0 0 1 4 .5c-1.154.914-.987 1.747.5 2.5 1.299-.466 2.799-.466 4.5 0v3h6v3h5v3c1.291-.237 2.291.096 3 1a702.833 702.833 0 0 0-53 1 31.418 31.418 0 0 1-5-4.5 1126.1 1126.1 0 0 0-31-16c-2.365-3.714-5.698-5.714-10-6-7.082-6.364-15.416-9.031-25-8a3916.491 3916.491 0 0 0-60 34.5c-6.813-.991-13.813-1.325-21-1 .709-.904 1.709-1.237 3-1v-3h6v-3a59.031 59.031 0 0 1 11-3v-3c1.808.009 3.475-.491 5-1.5-1.388-.89-1.222-1.39.5-1.5 2.071 1.167 3.571.5 4.5-2 6.434-2.343 12.767-5.343 19-9v-3a59.031 59.031 0 0 1 11-3 4.934 4.934 0 0 1 .5-3l1 1c1.995-2.247 4.495-3.247 7.5-3v-3h5v-3h6v-3c1.808.009 3.475-.491 5-1.5l-1-1a12.936 12.936 0 0 1 5-.5v-3c3.552.188 6.219-1.145 8-4Z"/><path style="opacity:1" fill="#fdfdfd" d="M401.5 131.5c-29.431-4.379-57.098.621-83 15a1566.61 1566.61 0 0 1-73-41.5c-3.415-.406-6.082-2.072-8-5a42.498 42.498 0 0 0-13 0 226.438 226.438 0 0 0-29 17c-3.415.406-6.082 2.072-8 5a90.42 90.42 0 0 1-14 6c-3.574 3.951-7.907 6.618-13 8-6.962 5.648-14.628 9.981-23 13a230.435 230.435 0 0 1-32.5 19.5 2946.23 2946.23 0 0 0-1 153 56.965 56.965 0 0 1 10.5 7.5 78.488 78.488 0 0 1 23 13 55.63 55.63 0 0 1 18 10 340.197 340.197 0 0 1 18 8.5c.167 21.669 0 43.336-.5 65a7214.146 7214.146 0 0 1-125-72c-.667-72-.667-144 0-216A361.546 361.546 0 0 0 80.5 119c4.87-1.741 9.204-4.408 13-8l9-3a520.666 520.666 0 0 1 59-34l4-4 10-4c5.229-4.889 11.229-8.555 18-11l3-3 10-4A112.066 112.066 0 0 1 230 34.5 228.066 228.066 0 0 1 254.5 46a179.568 179.568 0 0 0 15 10 24672.35 24672.35 0 0 0 21 11c3.846 4.125 8.513 6.792 14 8a731.874 731.874 0 0 0 34 19 337.282 337.282 0 0 0 26 17 265.064 265.064 0 0 0 17 8 71.52 71.52 0 0 0 18 10c.881.708 1.547 1.542 2 2.5ZM556.5 463.5c.167-17.67 0-35.336-.5-53a90.583 90.583 0 0 1-2.5-9 226.794 226.794 0 0 0 30-17.5c5.503-1.171 10.17-3.837 14-8 8.461-3.02 16.128-7.353 23-13 5.015-1.128 9.348-3.461 13-7a70.148 70.148 0 0 1 13-6c9.313-5.969 18.646-11.969 28-18 7.819-2.16 14.319-6.327 19.5-12.5.99-49.416.657-98.75-1-148a36.078 36.078 0 0 0-3.5-4.5 197.694 197.694 0 0 0-17-8 193.115 193.115 0 0 0-32-19 182.852 182.852 0 0 0-35-20c-3.671-4.417-8.338-7.083-14-8-7.559-5.549-15.559-10.049-24-13.5a129.685 129.685 0 0 1 5-9.5c-15.663-.5-31.33-.667-47-.5v15c7.363-.331 14.697.003 22 1a18.67 18.67 0 0 1-3 5c-10.893 5.023-21.226 11.189-31 18.5a201.903 201.903 0 0 0-9.5 4.5c-.399-.228-.565-.562-.5-1a678.892 678.892 0 0 1 16-31c-11.822-.995-23.822-1.328-36-1-.317 4.202.017 8.202 1 12a64.873 64.873 0 0 1 16 1 312.11 312.11 0 0 1-11 21 102.168 102.168 0 0 0-16-8l6-12-11.5-1c-4.229.01-8.062.677-11.5 2a247.275 247.275 0 0 0-16-8.5 2551.356 2551.356 0 0 1 60-36l10-4 4-4c3.463-.788 6.463-2.454 9-5 5.048-1.356 9.381-4.023 13-8 8.64-3.004 16.64-7.337 24-13 8.278-1.768 15.278.565 21 7a90.401 90.401 0 0 1 14 6c1.918 2.928 4.585 4.594 8 5a483.026 483.026 0 0 0 51 29l4 4a457.332 457.332 0 0 1 22 11 91.311 91.311 0 0 0 23 13l4 4a203.265 203.265 0 0 1 37 21c4.231.043 6.064 2.21 5.5 6.5.5 70.333.667 140.666.5 211a84.545 84.545 0 0 0-18 8.5 3660.5 3660.5 0 0 0-91 54 2926.69 2926.69 0 0 0-85 47.5Z"/><path style="opacity:1" fill="#0f2e6f" d="M112.5 56.5c17.841-.33 35.508.003 53 1a2359.02 2359.02 0 0 1-70 40 729.596 729.596 0 0 0-54-1 110.94 110.94 0 0 0 14.5-9l1 1c1.049-1.607 2.549-2.273 4.5-2v-3a59.029 59.029 0 0 1 11-3 4.932 4.932 0 0 1 .5-3l1 1c2.015-3.065 4.515-4.065 7.5-3v-3h5v-3c1.7.16 3.366-.007 5-.5 1.478-2.057 3.478-3.39 6-4l-2-1a18.436 18.436 0 0 1 6-.5v-3c3.973-.665 7.64-1.999 11-4Z"/><path style="opacity:1" fill="#102e6e" d="M479.5 56.5c7.187-.325 14.187.009 21 1a2196.258 2196.258 0 0 1-70 40c-5.81-.99-11.81-1.323-18-1a162.94 162.94 0 0 1 21-12.5c.837-1.011 1.17-2.178 1-3.5 4.493-.216 7.993-2.216 10.5-6 1.011.837 2.178 1.17 3.5 1v-3a59.031 59.031 0 0 0 11-3v-3c1.808.009 3.475-.491 5-1.5l-1-1a12.935 12.935 0 0 1 5-.5v-3c4.262.016 7.929-1.317 11-4Z"/><path style="opacity:1" fill="#0f2e6f" d="M631.5 57.5a702.833 702.833 0 0 1 53-1 197.803 197.803 0 0 0 17 7.5l-2 1c2.522.61 4.522 1.943 6 4 1.634.493 3.301.66 5 .5v3c2.908-.238 5.242.762 7 3 .951-.826 1.951-.992 3-.5l-1 1a6.977 6.977 0 0 1 3.5 2.5l1-1c.483.948.649 1.948.5 3h6v3h5v3c1.951-.273 3.451.393 4.5 2l1-1c4.693 3.28 9.526 6.28 14.5 9a676.57 676.57 0 0 0-52 1 329.667 329.667 0 0 0-23-11.5l-4-4-15-7a226.654 226.654 0 0 0-30-17.5Z"/><path style="opacity:1" fill="#112f71" d="M296.5 57.5c6.813-.991 13.813-1.325 21-1 3.36 2.001 7.027 3.335 11 4v3c1.699-.16 3.366.007 5 .5l-1 1c1.525 1.009 3.192 1.509 5 1.5v3h6v3h5v3c2.985-1.065 5.485-.065 7.5 3l1-1c.483.948.649 1.948.5 3h5v3h6v3c2.133 1.386 5.133 2.386 9 3v3c2.908-.238 5.242.762 7 3 2.386-1.488 3.052-1.155 2 1-6.854-.324-13.521.01-20 1a2093.574 2093.574 0 0 1-70-40Z"/><path style="opacity:1" fill="#1c1d21" d="M567.5 98.5a155.307 155.307 0 0 0-7 15 125.814 125.814 0 0 0-12 23h24v15a600.937 600.937 0 0 1-49-1v-1a144.306 144.306 0 0 0 11-20l10-20a18.67 18.67 0 0 0 3-5 121.862 121.862 0 0 0-22-1v-15c15.67-.167 31.337 0 47 .5a129.685 129.685 0 0 0-5 9.5Z"/><path style="opacity:1" fill="#bcbdbe" d="M519.5 100.5h-35v11c-.983-3.798-1.317-7.798-1-12 12.178-.328 24.178.005 36 1Z"/><path style="opacity:1" fill="#273239" d="M567.5 98.5c8.441 3.451 16.441 7.951 24 13.5 5.662.917 10.329 3.583 14 8a182.852 182.852 0 0 1 35 20 193.115 193.115 0 0 1 32 19 197.694 197.694 0 0 1 17 8 36.078 36.078 0 0 1 3.5 4.5c1.657 49.25 1.99 98.584 1 148-5.181 6.173-11.681 10.34-19.5 12.5a12318.477 12318.477 0 0 1-28 18 70.148 70.148 0 0 0-13 6c-3.652 3.539-7.985 5.872-13 7-6.872 5.647-14.539 9.98-23 13-3.83 4.163-8.497 6.829-14 8a226.794 226.794 0 0 1-30 17.5 27.36 27.36 0 0 0-4-11 3609.552 3609.552 0 0 1 53-29.5c4.117-3.541 8.784-6.208 14-8 3.25-3.637 7.25-5.97 12-7a523.432 523.432 0 0 0 23-13.5 855.366 855.366 0 0 1 29-17.5 8.43 8.43 0 0 1 4-.5 1207.01 1207.01 0 0 0 .5-85l-2-2c-.5-6.325-.666-12.658-.5-19v-22a50.464 50.464 0 0 0-.5-10 270.207 270.207 0 0 0-13.5-7 3925.91 3925.91 0 0 0-58-34 1435.31 1435.31 0 0 1-43-25c-1.746 2.354-4.079 3.354-7 3a155.307 155.307 0 0 1 7-15Z"/><path style="opacity:1" fill="#1d1e22" d="M519.5 100.5a678.892 678.892 0 0 0-16 31c-.839 1.141-1.506 2.474-2 4a81.883 81.883 0 0 0 18 1v11c-12.338.167-24.671 0-37-.5.752-.671 1.086-1.504 1-2.5a86.664 86.664 0 0 0 6-11 312.11 312.11 0 0 0 11-21 64.873 64.873 0 0 0-16-1v-11h35Z"/><path style="opacity:1" fill="#273339" d="m544.5 109.5-10 20c.065-.438-.101-.772-.5-1-4.107 2-7.94 4.5-11.5 7.5a4.934 4.934 0 0 1-3 .5 81.883 81.883 0 0 1-18-1c.494-1.526 1.161-2.859 2-4-.065.438.101.772.5 1a201.903 201.903 0 0 1 9.5-4.5c9.774-7.311 20.107-13.477 31-18.5Z"/><path style="opacity:1" fill="#1c1e22" d="M473.5 125.5a158.408 158.408 0 0 0-6 10.5c4.321.499 8.654.666 13 .5.256 2.292-.077 4.459-1 6.5-7.993.5-15.993.666-24 .5l6-12a88.153 88.153 0 0 1 6-11 95.686 95.686 0 0 0-12 0c-.175-2.121.159-4.121 1-6 3.438-1.323 7.271-1.99 11.5-2l11.5 1-6 12Z"/><path style="opacity:1" fill="#1c337d" d="M41.5 96.5c18.174-.33 36.174.003 54 1-5.384 2.326-10.384 5.493-15 9.5a133.395 133.395 0 0 0-32 18c-2.71 1.747-5.71 2.747-9 3-1.467 2.378-2.467 4.878-3 7.5-9.79-.063-19.79-.063-30 0 .11-6.984.11-13.818 0-20.5a169.104 169.104 0 0 0 15-5.5v-3a58.967 58.967 0 0 0 11-3v-3c2.656-2.068 5.656-3.401 9-4Z"/><path style="opacity:1" fill="#263039" d="M473.5 125.5a102.168 102.168 0 0 1 16 8 86.664 86.664 0 0 1-6 11 222.268 222.268 0 0 1-28-1c8.007.166 16.007 0 24-.5.923-2.041 1.256-4.208 1-6.5a84.902 84.902 0 0 1-13-.5 158.408 158.408 0 0 1 6-10.5Z"/><path style="opacity:1" fill="#1f347d" d="M610.5 135.5h-37v17a651.277 651.277 0 0 1-51-1c.124-.607.457-.94 1-1a600.937 600.937 0 0 0 49 1v-15h-24a125.814 125.814 0 0 1 12-23c2.921.354 5.254-.646 7-3a1435.31 1435.31 0 0 0 43 25Z"/><path style="opacity:1" fill="#1e347e" d="M755.5 96.5a92.262 92.262 0 0 1 9 4v3h6v3h5v3c2.041.354 3.874.354 5.5 0 .483.948.649 1.948.5 3 2.836 1.276 5.836 1.942 9 2 1.758 6.835 2.425 13.835 2 21h-30v70c.322 5.858-.011 11.525-1 17 .167-30.002 0-60.002-.5-90a36.078 36.078 0 0 0-3.5-4.5c-3.29-.253-6.29-1.253-9-3a2083.255 2083.255 0 0 1-45-27.5 676.57 676.57 0 0 1 52-1Z"/><path style="opacity:.998" fill="#1d1e22" d="M401.5 131.5c30.318 5.657 55.318 20.324 75 44 16.048 19.8 25.048 42.467 27 68v23c-1.848 16.542-6.515 32.208-14 47-7.239 12.424-16.239 23.591-27 33.5 19.297-1.785 37.63 1.382 55 9.5 3.325 1.997 6.659 3.997 10 6 1.085 2.087 2.751 3.42 5 4a57.731 57.731 0 0 0 8 10 75.717 75.717 0 0 1 9 14 27.36 27.36 0 0 1 4 11 90.583 90.583 0 0 0 2.5 9c.5 17.664.667 35.33.5 53v16h-11v-44h-56a484.723 484.723 0 0 0-1 44h-10v-79c2.547-4.89 5.714-5.223 9.5-1 .5 8.327.666 16.66.5 25h57c-1.373-32.253-17.373-53.42-48-63.5a73.619 73.619 0 0 0-11-2 420.29 420.29 0 0 0-41 0c-23.901 14.266-49.734 20.1-77.5 17.5.69 9.456-.31 18.789-3 28a2634.146 2634.146 0 0 0-45.5 98v1a623.91 623.91 0 0 0-14.5 30c-2.997 5.496-7.163 9.829-12.5 13-1 .333-1.667 1-2 2-3.244.963-6.244 2.296-9 4-1.644-.214-3.144.12-4.5 1-.998-4.644-.498-8.977 1.5-13 7.804-2.633 13.638-7.633 17.5-15a13280.159 13280.159 0 0 1 57-122c7.465-18.598 3.632-34.432-11.5-47.5a1097.93 1097.93 0 0 1-63.5-47.5c-3.001-5.926-4.335-12.26-4-19l-2.5-2.5a72.464 72.464 0 0 0-17 0l-2.5 2.5a107.618 107.618 0 0 0 1 28 2424.346 2424.346 0 0 0 59 58c5.228 9.652 5.895 19.652 2 30a7110.904 7110.904 0 0 1-41.5 68.5c-4.162 2.572-7.328 1.738-9.5-2.5a612.388 612.388 0 0 1-.5-35 552.805 552.805 0 0 0-47-1 2117.57 2117.57 0 0 0 1 92c1.16 6.491 4.827 10.824 11 13a46.809 46.809 0 0 1 1 13c-5.195-.321-10.195.013-15 1h-12c-5-1.333-10-1.333-15 0-9.339.166-18.673 0-28-.5-5.432-4.324-5.099-8.324 1-12 8.994-.5 17.994-.666 27-.5 4.805.987 9.805 1.321 15 1a40.914 40.914 0 0 0 9-.5c-2.763-3.361-4.597-7.195-5.5-11.5a3538.73 3538.73 0 0 1 0-119c1.501-9.343 4.668-18.009 9.5-26 11.814-19.958 29.148-32.458 52-37.5a894.604 894.604 0 0 1-20.5-19.5c-3.09-4.182-5.09-8.849-6-14-.667-9-.667-18 0-27 3.144-8.654 9.311-12.987 18.5-13-3.764-22.981-1.431-45.315 7-67a140.01 140.01 0 0 1 10-20c.838-.342 1.172-1.008 1-2 3.97-4.976 7.97-9.976 12-15a180.487 180.487 0 0 1 17-15 82.955 82.955 0 0 1 13-9c25.902-14.379 53.569-19.379 83-15Z"/><path style="opacity:1" fill="#223584" d="M296.5 148.5a4524.43 4524.43 0 0 1-134 1 2990.282 2990.282 0 0 1 65.5-39c1.73 1.149 3.396 1.149 5 0 4.064 4.134 8.897 6.967 14.5 8.5a925.17 925.17 0 0 0 49 29.5Z"/><path style="opacity:1" fill="#1f347e" d="M366.5 97.5c6.479-.99 13.146-1.324 20-1 1.617.538 3.284.871 5 1v3h6v3a91.287 91.287 0 0 0 15-7c6.19-.323 12.19.01 18 1-2.287 2.114-3.954 4.614-5 7.5.701 2.38 1.867 4.547 3.5 6.5 3.38 1.371 6.213 3.538 8.5 6.5l4 1a125.293 125.293 0 0 0 20 12.5l-6 12a222.268 222.268 0 0 0 28 1c.086.996-.248 1.829-1 2.5 12.329.5 24.662.667 37 .5v-11a4.934 4.934 0 0 0 3-.5c3.56-3 7.393-5.5 11.5-7.5.399.228.565.562.5 1a144.306 144.306 0 0 1-11 20c-21.507-.331-42.84.003-64 1a168.046 168.046 0 0 1-25-14.5 312.387 312.387 0 0 0-27-14 518.075 518.075 0 0 0-41-24.5Z"/><path style="opacity:1" fill="#fbdd7e" d="M368.5 141.5c58.768-1.381 98.601 25.286 119.5 80 11.433 47.116-.734 86.949-36.5 119.5-25.825 20.373-55.159 28.373-88 24a63.669 63.669 0 0 0-13-17 1097.93 1097.93 0 0 1-63.5-47.5c1.261-8.844-1.239-16.344-7.5-22.5a42.638 42.638 0 0 0-8-3.5c-7.957-51.258 10.043-90.758 54-118.5 13.576-7.467 27.91-12.301 43-14.5Z"/><path style="opacity:1" fill="#27388b" d="M36.5 135.5v34h-30v-34c10.21-.063 20.21-.063 30 0Z"/><path style="opacity:1" fill="#28388c" d="M296.5 148.5c3.93 1.277 6.93 3.61 9 7a180.487 180.487 0 0 0-17 15 6481.967 6481.967 0 0 0-161-1c1.074-1.385 2.407-2.551 4-3.5 6.799-1.87 12.799-5.203 18-10a288.418 288.418 0 0 0 13-6.5 4524.43 4524.43 0 0 0 134-1Z"/><path style="opacity:1" fill="#28388b" d="M610.5 135.5a3925.91 3925.91 0 0 1 58 34 7659.168 7659.168 0 0 0-175 1 211.964 211.964 0 0 0-27-14.5 35.406 35.406 0 0 1-7-5.5c21.16-.997 42.493-1.331 64-1v1c-.543.06-.876.393-1 1a651.277 651.277 0 0 0 51 1v-17h37Z"/><path style="opacity:1" fill="#27388b" d="M792.5 135.5v34h-30v-34h30Z"/><path style="opacity:1" fill="#2e3a93" d="M127.5 169.5c53.836-.332 107.503.001 161 1-4.03 5.024-8.03 10.024-12 15a632.785 632.785 0 0 0-12.5-2c-49.591.185-99.758.518-150.5 1 .302 2.559-.032 4.893-1 7a84.902 84.902 0 0 1 .5-13 84.306 84.306 0 0 1 14.5-9ZM493.5 170.5a7659.168 7659.168 0 0 1 175-1 270.207 270.207 0 0 1 13.5 7c.498 3.317.665 6.65.5 10-1.249-1.278-2.749-2.278-4.5-3a2665.666 2665.666 0 0 1-146 0 493.088 493.088 0 0 0-11.5 2 960.746 960.746 0 0 0-27-15Z"/><path style="opacity:1" fill="#fdfdfd" d="M476.5 175.5a8.43 8.43 0 0 1 4 .5c3.813 4.238 8.479 6.904 14 8 6.885 5.647 14.551 9.98 23 13 3.908 3.449 8.242 6.116 13 8a803.828 803.828 0 0 0 52 30.5 1734.395 1734.395 0 0 1 .5 102 249.84 249.84 0 0 1-22.5 11.5l-4 4a186.207 186.207 0 0 0-24 13.5c-2.249-.58-3.915-1.913-5-4v-29h5c-.165 3.35.002 6.683.5 10 3.286 3.985 6.619 3.985 10 0 .498-3.317.665-6.65.5-10a40.914 40.914 0 0 0 9-.5c6.234-3.237 6.567-6.904 1-11a50.464 50.464 0 0 0-10-.5 60.931 60.931 0 0 0-.5-11c-3.333-2.667-6.667-2.667-10 0a60.931 60.931 0 0 0-.5 11h-5c.167-17.67 0-35.336-.5-53-2.167-1.5-4-3.333-5.5-5.5-1.284-.684-2.451-.517-3.5.5a92.35 92.35 0 0 0-13-10c-.179-3.525-.679-6.859-1.5-10-1.952-25.533-10.952-48.2-27-68Z"/><path style="opacity:1" fill="#333d99" d="M276.5 185.5c.172.992-.162 1.658-1 2a8.43 8.43 0 0 0-4 .5c-4.461 5.477-10.128 8.811-17 10-3.972 4.039-8.639 6.872-14 8.5a4031.82 4031.82 0 0 0-127-1c.317 4.202-.017 8.202-1 12v-26c.968-2.107 1.302-4.441 1-7 50.742-.482 100.909-.815 150.5-1 4.268.64 8.435 1.307 12.5 2ZM682.5 186.5v22c-.904-.709-1.237-1.709-1-3-41.837-.332-83.503.001-125 1-5.181-1.46-9.514-4.293-13-8.5-8.572-2.617-16.239-6.784-23-12.5a493.088 493.088 0 0 1 11.5-2 2665.666 2665.666 0 0 0 146 0c1.751.722 3.251 1.722 4.5 3Z"/><path style="opacity:1" fill="#333d98" d="M6.5 169.5h30v42h-30v-42Z"/><path style="opacity:1" fill="#323c98" d="M762.5 169.5h30v36c-9.82-.087-19.82-.087-30 0v-36Z"/><path style="opacity:1" fill="#263238" d="M275.5 187.5a140.01 140.01 0 0 0-10 20c-.397-1.025-1.063-1.192-2-.5-3.846 4.125-8.513 6.792-14 8a6204.11 6204.11 0 0 1-24 15 239.706 239.706 0 0 0-12 5.5v86h-3a34.301 34.301 0 0 0-1-11c-2.351-1.729-5.018-2.396-8-2v-68c-1.222-5.666.445-10.166 5-13.5a845.012 845.012 0 0 1 29-16 208.311 208.311 0 0 0 5-4.5c5.361-1.628 10.028-4.461 14-8.5 6.872-1.189 12.539-4.523 17-10a8.43 8.43 0 0 1 4-.5Z"/><path style="opacity:1" fill="#212123" d="M423.5 188.5c4.935-.877 7.602 1.123 8 6-3.787 11.157-11.62 17.157-23.5 18-6.449.14-12.116-1.86-17-6-2.892-6.763-.725-9.93 6.5-9.5 11.585 6.104 20.251 3.27 26-8.5Z"/><path style="opacity:1" fill="#fdfdfd" d="M265.5 207.5c-8.431 21.685-10.764 44.019-7 67-9.189.013-15.356 4.346-18.5 13-.667 9-.667 18 0 27 .91 5.151 2.91 9.818 6 14a894.604 894.604 0 0 0 20.5 19.5c-22.852 5.042-40.186 17.542-52 37.5a676.419 676.419 0 0 1-1-52c5.601 1.436 8.934-.564 10-6-1.066-5.436-4.399-7.436-10-6v-86a239.706 239.706 0 0 1 12-5.5 6204.11 6204.11 0 0 0 24-15c5.487-1.208 10.154-3.875 14-8 .937-.692 1.603-.525 2 .5Z"/><path style="opacity:1" fill="#202023" d="M338.5 210.5c4.963-1.182 7.963.652 9 5.5-3.875 11.959-12.208 18.126-25 18.5-6.384-.276-11.884-2.609-16.5-7 .2-9.743 4.367-11.576 12.5-5.5 9.786 1.607 16.453-2.227 20-11.5Z"/><path style="opacity:1" fill="#3d41a5" d="M240.5 206.5a208.311 208.311 0 0 1-5 4.5 845.012 845.012 0 0 0-29 16c-4.555 3.334-6.222 7.834-5 13.5a1959.637 1959.637 0 0 0-88-1c.31 3.213-.023 6.213-1 9v-31c.983-3.798 1.317-7.798 1-12a4031.82 4031.82 0 0 1 127 1Z"/><path style="opacity:1" fill="#3e41a4" d="M792.5 205.5v34h-30v36a342.787 342.787 0 0 1-1 37v-90c.989-5.475 1.322-11.142 1-17 10.18-.087 20.18-.087 30 0Z"/><path style="opacity:1" fill="#3f42a8" d="M6.5 211.5h30v28h-30v-28Z"/><path style="opacity:1" fill="#3f42a7" d="M682.5 208.5c-.166 6.342 0 12.675.5 19l2 2c.83 28.503.664 56.836-.5 85v-75h-88c.302 2.559-.032 4.893-1 7a145.053 145.053 0 0 0-.5-17 122.618 122.618 0 0 1-15.5-10.5c-5.319-1.548-9.985-4.215-14-8-3.381-.915-6.381-2.415-9-4.5a3905.727 3905.727 0 0 1 125-1c-.237 1.291.096 2.291 1 3Z"/><path style="opacity:1" fill="#4745b2" d="M201.5 240.5v22c-.768-.763-1.268-1.763-1.5-3h-84a3.647 3.647 0 0 1-1.5 1 624.355 624.355 0 0 1-2 10v-22c.977-2.787 1.31-5.787 1-9 29.407-.325 58.74.009 88 1ZM684.5 260.5c-28.55-.097-57.05-.43-85.5-1-1.892 2.387-3.058 5.053-3.5 8v-21c.968-2.107 1.302-4.441 1-7h88v21Z"/><path style="opacity:1" fill="#1f2023" d="M390.5 245.5c21.855-1.038 41.855 4.462 60 16.5 7.485 8.385 7.985 17.218 1.5 26.5-6.289 5.651-13.456 7.151-21.5 4.5-21.548-14.493-42.548-13.826-63 2a426.915 426.915 0 0 0-17 22c-12.381 5.713-21.548 2.546-27.5-9.5a42.479 42.479 0 0 1 0-13c14.531-27.372 37.031-43.705 67.5-49Z"/><path style="opacity:1" fill="#263238" d="M503.5 243.5c.821 3.141 1.321 6.475 1.5 10a92.35 92.35 0 0 1 13 10c1.049-1.017 2.216-1.184 3.5-.5 1.5 2.167 3.333 4 5.5 5.5.5 17.664.667 35.33.5 53-7.989-.181-10.322 3.319-7 10.5 2.177 1.202 4.511 1.702 7 1.5v29c-3.341-2.003-6.675-4.003-10-6 .658-1.293.992-2.793 1-4.5-1.86-10.647-2.527-21.48-2-32.5a507.128 507.128 0 0 0-1-45 69.186 69.186 0 0 0-12-8v-23Z"/><path style="opacity:1" fill="#e8eff2" d="M388.5 257.5c14.505-.971 28.505 1.196 42 6.5a89.113 89.113 0 0 1 13.5 8.5c1.618 7.295-1.215 10.462-8.5 9.5-31.263-18.479-59.097-14.313-83.5 12.5a140.089 140.089 0 0 0-7.5 12c-7.735 2.758-11.235.091-10.5-8 12.062-21.91 30.229-35.576 54.5-41Z"/><path style="opacity:1" fill="#4e48b9" d="M201.5 262.5v14c-.958-.453-1.792-1.119-2.5-2-28.227.122-56.727.456-85.5 1 .31 3.213-.023 6.213-1 9v-14a624.355 624.355 0 0 0 2-10 3.647 3.647 0 0 0 1.5-1h84c.232 1.237.732 2.237 1.5 3ZM684.5 260.5v15c-29.227-.454-58.56-.454-88 0 .31 3.213-.023 6.213-1 9v-17c.442-2.947 1.608-5.613 3.5-8 28.45.57 56.95.903 85.5 1Z"/><path style="opacity:1" fill="#4b47b6" d="M6.5 239.5h30v36h-30v-36ZM792.5 239.5v36h-30v-36h30Z"/><path style="opacity:1" fill="#fbdd7e" d="M278.5 540.5c-1.805-7.268-2.639-14.935-2.5-23l-1.5-1.5a484.008 484.008 0 0 0-44 0 9.454 9.454 0 0 0-1.5 2.5 238.217 238.217 0 0 1-1.5 22c-6.173-2.176-9.84-6.509-11-13v-91h46c-.167 11.671 0 23.338.5 35 2.172 4.238 5.338 5.072 9.5 2.5a7110.904 7110.904 0 0 0 41.5-68.5c3.895-10.348 3.228-20.348-2-30a2424.346 2424.346 0 0 1-59-58 107.618 107.618 0 0 1-1-28l2.5-2.5a72.464 72.464 0 0 1 17 0l2.5 2.5c-.335 6.74.999 13.074 4 19a1097.93 1097.93 0 0 0 63.5 47.5c15.132 13.068 18.965 28.902 11.5 47.5a13280.159 13280.159 0 0 0-57 122c-3.862 7.367-9.696 12.367-17.5 15Z"/><path style="opacity:1" fill="#554bc2" d="M6.5 275.5h30v24h-30v-24Z"/><path style="opacity:1" fill="#564bc3" d="M201.5 276.5v26c-.904-.709-1.237-1.709-1-3h-87c.318 4.532-.015 8.866-1 13v-28c.977-2.787 1.31-5.787 1-9 28.773-.544 57.273-.878 85.5-1 .708.881 1.542 1.547 2.5 2ZM684.5 275.5v24h-88c.315 3.871-.018 7.538-1 11v-26c.977-2.787 1.31-5.787 1-9 29.44-.454 58.773-.454 88 0Z"/><path style="opacity:1" fill="#584cc4" d="M503.5 266.5a69.186 69.186 0 0 1 12 8 507.128 507.128 0 0 1 1 45c-.961-1.765-1.295-3.765-1-6h-26c7.485-14.792 12.152-30.458 14-47Z"/><path style="opacity:1" fill="#5d4fcb" d="M684.5 299.5v15a8.43 8.43 0 0 0-4 .5 855.366 855.366 0 0 0-29 17.5 756.853 756.853 0 0 0-55-1c.306 2.885-.027 5.552-1 8v-29c.982-3.462 1.315-7.129 1-11h88Z"/><path style="opacity:1" fill="#584dc5" d="M762.5 275.5h30v38h-30v38c.268 1.599-.066 2.932-1 4v-43a342.787 342.787 0 0 0 1-37Z"/><path style="opacity:1" fill="#1d1e24" d="M201.5 308.5c2.982-.396 5.649.271 8 2a34.301 34.301 0 0 1 1 11h3c5.601-1.436 8.934.564 10 6-1.066 5.436-4.399 7.436-10 6h-3a50.464 50.464 0 0 1-.5 10c-2.196 2.625-5.03 3.625-8.5 3-2.556-3.168-3.556-6.834-3-11-3.295-1.648-6.961-2.815-11-3.5-2.843-3.619-2.51-6.952 1-10a50.464 50.464 0 0 1 10-.5c-.762-4.893.238-9.226 3-13Z"/><path style="opacity:1" fill="#1e1f23" d="M527.5 333.5c-2.489.202-4.823-.298-7-1.5-3.322-7.181-.989-10.681 7-10.5h5a60.931 60.931 0 0 1 .5-11c3.333-2.667 6.667-2.667 10 0 .499 3.652.665 7.318.5 11 3.35-.165 6.683.002 10 .5 5.567 4.096 5.234 7.763-1 11a40.914 40.914 0 0 1-9 .5 50.464 50.464 0 0 1-.5 10c-3.381 3.985-6.714 3.985-10 0a50.464 50.464 0 0 1-.5-10h-5Z"/><path style="opacity:1" fill="#5f50cd" d="M6.5 299.5h30v32h-30v-32ZM201.5 302.5v6c-2.762 3.774-3.762 8.107-3 13a50.464 50.464 0 0 0-10 .5c-3.51 3.048-3.843 6.381-1 10 4.039.685 7.705 1.852 11 3.5a462.903 462.903 0 0 0-43 1c-4.432-.257-8.098-2.09-11-5.5-3.415-.406-6.082-2.072-8-5l-10-4-4-4c-3.876-1.099-7.209-2.932-10-5.5.985-4.134 1.318-8.468 1-13h87c-.237 1.291.096 2.291 1 3Z"/><path style="opacity:1" fill="#253137" d="M213.5 333.5a676.419 676.419 0 0 0 1 52c-4.832 7.991-7.999 16.657-9.5 26a3538.73 3538.73 0 0 0 0 119c.903 4.305 2.737 8.139 5.5 11.5a40.914 40.914 0 0 1-9 .5v-196c3.47.625 6.304-.375 8.5-3 .498-3.317.665-6.65.5-10h3Z"/><path style="opacity:1" fill="#6953d7" d="M198.5 335.5c-.556 4.166.444 7.832 3 11v27c-.951-1.419-1.284-3.085-1-5h-15c.321 5.526-.012 10.86-1 16 .166-9.339 0-18.673-.5-28a20.231 20.231 0 0 0-7.5-7.5c-7.664-3.151-14.664-7.318-21-12.5a462.903 462.903 0 0 1 43-1Z"/><path style="opacity:1" fill="#6452d2" d="M489.5 313.5h26c-.295 2.235.039 4.235 1 6-.527 11.02.14 21.853 2 32.5-.008 1.707-.342 3.207-1 4.5-17.37-8.118-35.703-11.285-55-9.5 10.761-9.909 19.761-21.076 27-33.5Z"/><path style="opacity:1" fill="#6a54d8" d="M651.5 332.5a523.432 523.432 0 0 1-23 13.5c-4.75 1.03-8.75 3.363-12 7-5.216 1.792-9.883 4.459-14 8a3609.552 3609.552 0 0 0-53 29.5 75.717 75.717 0 0 0-9-14 1235.95 1235.95 0 0 1 11-8.5 114.425 114.425 0 0 0 30-18c6.373-1.341 11.039-4.841 14-10.5.973-2.448 1.306-5.115 1-8 18.508-.33 36.841.003 55 1Z"/><path style="opacity:1" fill="#6552d4" d="M792.5 313.5v38c-9.893-.879-19.893-.879-30 0v-38h30Z"/><path style="opacity:1" fill="#373f9c" d="M276.5 445.5c-.617.111-1.117.444-1.5 1a1095.91 1095.91 0 0 0-1.5-47c-2.314-3.114-5.314-3.781-9-2a4.457 4.457 0 0 0-1.5 2c-.5 7.993-.666 15.993-.5 24h-46v-7c4.518-30.021 21.518-48.855 51-56.5 4-.667 8-.667 12 0l23.5 23.5c2.374 4.394 3.041 9.06 2 14a699.408 699.408 0 0 0-28.5 48ZM478.5 400.5a1560.835 1560.835 0 0 0-1 79c-3.131-.592-5.464.408-7 3-.986 4.47-1.319 9.137-1 14h-5c.315-3.871-.018-7.538-1-11-.847-1.466-2.18-2.3-4-2.5a2604.563 2604.563 0 0 0-125 .5c-1.144 6.604-2.811 12.937-5 19h-10a2634.146 2634.146 0 0 1 45.5-98c2.69-9.211 3.69-18.544 3-28 27.766 2.6 53.599-3.234 77.5-17.5a420.29 420.29 0 0 1 41 0 73.619 73.619 0 0 1 11 2c30.627 10.08 46.627 31.247 48 63.5h-57c.166-8.34 0-16.673-.5-25-3.786-4.223-6.953-3.89-9.5 1Z"/><path style="opacity:1" fill="#7057df" d="M6.5 331.5h30c-.39 9.733.11 19.4 1.5 29l9.5 5.5c1.374 3.683 4.04 5.349 8 5a249 249 0 0 0 29 17.5c-2.18 1.664-4.013 1.33-5.5-1a85.021 85.021 0 0 1-26 0c-.816 1.323-1.983 1.989-3.5 2-5.077-2.796-9.744-5.129-14-7v-3a58.967 58.967 0 0 1-11-3v-3h-6v-3c-4.013-1.674-8.013-3.341-12-5v-34Z"/><path style="opacity:1" fill="#7559e5" d="M792.5 351.5v14c-3.013-.128-5.513.872-7.5 3-2.411-1.653-3.578-.987-3.5 2-1.701.466-3.201.466-4.5 0-3.844 1.975-7.177 4.642-10 8l-1-1c-1.049 1.607-2.549 2.273-4.5 2v3c-3.937.204-7.604 1.204-11 3 .381 2.442-.286 3.109-2 2-.886.825-1.219 1.825-1 3h-6v3a12.93 12.93 0 0 0-5 .5c-1.079 2.043-2.746 3.376-5 4l1 1a12.93 12.93 0 0 1-5 .5v3a9.86 9.86 0 0 0-6 1c-3.868 2.028-7.201 4.028-10 6h-35a98.54 98.54 0 0 0 10-7.5 112.343 112.343 0 0 1 17-8l5-5a377.475 377.475 0 0 0 23-12 113.606 113.606 0 0 1 28-15c1.729-1.789 2.396-3.956 2-6.5.934-1.068 1.268-2.401 1-4 10.107-.879 20.107-.879 30 0Z"/><path style="opacity:1" fill="#344770" d="M273.5 399.5a1095.91 1095.91 0 0 1 1.5 47c.383-.556.883-.889 1.5-1-.321 1.548-1.321 2.215-3 2v-48Z"/><path style="opacity:1" fill="#40559d" d="M216.5 416.5v7h46a552.805 552.805 0 0 1-47 1c-.306-2.885.027-5.552 1-8Z"/><path style="opacity:1" fill="#7c5dee" d="M201.5 373.5v74c-.968-2.107-1.302-4.441-1-7h-62c-1.765-.961-3.765-1.295-6-1v-3h-3v-3h-6v-3h-5v-3c-2.921.354-5.254-.646-7-3-1.714 1.109-2.381.442-2-2a58.97 58.97 0 0 1-11-3v-3a27.267 27.267 0 0 0-9-3v-3c-2.908.238-5.242-.762-7-3a3.647 3.647 0 0 0-1.5 1c-1.667-1-3-2.333-4-4l-1 1a4.932 4.932 0 0 1-.5-3h-6v-3h-5v-3c-5.582-2.134-10.582-4.467-15-7 1.517-.011 2.684-.677 3.5-2a85.021 85.021 0 0 0 26 0c1.487 2.33 3.32 2.664 5.5 1a1406.405 1406.405 0 0 1 71 41.5c5.804 1.823 11.137 4.49 16 8 4.091 1.227 7.591.394 10.5-2.5 2.356-16.802 3.189-33.802 2.5-51 .988-5.14 1.321-10.474 1-16h15c-.284 1.915.049 3.581 1 5Z"/><path style="opacity:1" fill="#7e744d" d="M489.5 436.5v-1h56v44a392.598 392.598 0 0 1-56 0h55v-43h-55Z"/><path style="opacity:1" fill="#8b7d4f" d="M262.5 436.5h-46v91a2117.57 2117.57 0 0 1-1-92c15.842-.33 31.509.004 47 1Z"/><path style="opacity:1" fill="#fcdf7e" d="M489.5 436.5h55v43h-55v-43Z"/><path style="opacity:1" fill="#8561f6" d="M676.5 409.5h35c-1.068.934-2.401 1.268-4 1v3h-6v3h-5v3c-2.185.388-4.018 1.388-5.5 3-2.278-1.12-3.778-.287-4.5 2.5a101.955 101.955 0 0 0-13 5.5v3h-6v3h-6v3c-1.788-.285-3.455.048-5 1 1.129 2.029.629 2.363-1.5 1-1.712 3.452-4.212 4.452-7.5 3v3c-3.096-.593-5.429.407-7 3a47.25 47.25 0 0 1-7 3v3h-6v3c-1.788-.285-3.455.048-5 1a28.335 28.335 0 0 0-9.5 6l-1-1c-1.049 1.607-2.549 2.273-4.5 2-.167 12.338 0 24.671.5 37 .414.457.914.791 1.5 1a307.162 307.162 0 0 1 1 35h-5c.167-19.336 0-38.67-.5-58l-2.5-2.5c-15.33-.5-30.663-.667-46-.5v-2a649.768 649.768 0 0 0 39-23.5 1614.434 1614.434 0 0 0 40-21c2.857-2.87 6.19-4.87 10-6 9.02-5.698 18.02-11.364 27-17a8.43 8.43 0 0 1 4-.5Z"/><path style="opacity:1" fill="#8c65fb" d="M138.5 440.5h62c-.302 2.559.032 4.893 1 7v95c-5.195.321-10.195-.013-15-1 .167-25.669 0-51.335-.5-77-12.12-8.056-24.787-14.723-38-20l-1 1c-3.119-1.489-5.953-3.156-8.5-5Z"/><path style="opacity:1" fill="#273239" d="M478.5 400.5v79h10a484.723 484.723 0 0 1 1-44v44a392.598 392.598 0 0 0 56 0h11c15.337-.167 30.67 0 46 .5l2.5 2.5c.5 19.33.667 38.664.5 58v141c.166 9.672 0 19.339-.5 29l-1.5 1.5a463.293 463.293 0 0 1-52 1.5 750.264 750.264 0 0 0-67-.5 1147.103 1147.103 0 0 1-31 17c-3.25 3.637-7.25 5.97-12 7-3.193 1.556-5.86 3.723-8 6.5a92.36 92.36 0 0 0-11 4.5 78.988 78.988 0 0 1-14 9 92.109 92.109 0 0 0-10.5 2.5 66.364 66.364 0 0 1-9.5-2.5 35.157 35.157 0 0 0-10-5c-5.375-4.888-11.375-8.721-18-11.5a88.263 88.263 0 0 1-14-8.5c-3.959.349-6.626-1.317-8-5l-10-4a377.247 377.247 0 0 0-22-13.5c-4.028-2.522-8.362-4.688-13-6.5a181.496 181.496 0 0 0-31-18.5 391.609 391.609 0 0 0-23-14c-3.889-2.904-8.222-5.071-13-6.5a55.63 55.63 0 0 0-18-10 18.839 18.839 0 0 0-6.5-5.5 32.462 32.462 0 0 1-.5-8v-35a61.281 61.281 0 0 1-15-1c-.617-.111-1.117-.444-1.5-1a484.008 484.008 0 0 1 0-44c.717-.544 1.217-1.211 1.5-2h15v-3h12c4.805-.987 9.805-1.321 15-1a46.809 46.809 0 0 0-1-13 238.217 238.217 0 0 0 1.5-22 9.454 9.454 0 0 1 1.5-2.5 484.008 484.008 0 0 1 44 0l1.5 1.5c-.139 8.065.695 15.732 2.5 23-1.998 4.023-2.498 8.356-1.5 13 1.356-.88 2.856-1.214 4.5-1v5c11.338-.167 22.672 0 34 .5 1.442.377 2.442 1.21 3 2.5.167 14.337 0 28.671-.5 43l-1.5 1.5-30 1 4 4a53.875 53.875 0 0 1 17 9.5 1481.921 1481.921 0 0 1 24.5 14 20.64 20.64 0 0 1 2-6 84.01 84.01 0 0 0 7.5-8 1433.501 1433.501 0 0 0 45-45 107.125 107.125 0 0 0 9-8.5 101.248 101.248 0 0 0-11-4.5c-2.58-3.105-5.913-4.772-10-5a43.836 43.836 0 0 1-1-2c11.061-.171 22.061-.338 33-.5 5.096-2.242 7.429-6.075 7-11.5.985-4.134 1.318-8.468 1-13h-78c-1.517-.011-2.684-.677-3.5-2l-1-20c-3.313-3.511-7.48-4.845-12.5-4v-1h10c2.189-6.063 3.856-12.396 5-19a2604.563 2604.563 0 0 1 125-.5c1.82.2 3.153 1.034 4 2.5v12h7v-15c1.536-2.592 3.869-3.592 7-3-.331-26.505.002-52.839 1-79Z"/><path style="opacity:1" fill="#2d3972" d="M470.5 482.5v15h-7v-12c.982 3.462 1.315 7.129 1 11h5c-.319-4.863.014-9.53 1-14Z"/><path style="opacity:1" fill="#223d6b" d="M597.5 488.5h-119v22c-.992-7.482-1.325-15.148-1-23 40.17-.332 80.17.001 120 1Z"/><path style="opacity:1" fill="#214488" d="M597.5 488.5v5h-119v-5h119Z"/><path style="opacity:1" fill="#234074" d="M340.5 491.5a3363.08 3363.08 0 0 1 116-1c.324 6.854-.009 13.521-1 20v-19h-115Z"/><path style="opacity:1" fill="#244a98" d="M340.5 491.5h115v5a5108.313 5108.313 0 0 1-115 1v-6Z"/><path style="opacity:1" fill="#244b9c" d="M478.5 493.5h119v4a1771.068 1771.068 0 0 0-119 0v-4Z"/><path style="opacity:1" fill="#2f5dba" d="M455.5 496.5v11a8103.65 8103.65 0 0 0-115 0v-10c38.454.097 76.787-.236 115-1ZM597.5 497.5v10a1771.068 1771.068 0 0 0-119 0v-10a1771.068 1771.068 0 0 1 119 0Z"/><path style="opacity:1" fill="#f9db7d" d="M319.5 503.5c5.02-.845 9.187.489 12.5 4l1 20c.816 1.323 1.983 1.989 3.5 2a1482.71 1482.71 0 0 0 77 1v12c-34.335-.167-68.668 0-103 .5-1.556.72-2.556 1.887-3 3.5-5.1 1.3-10.1 1.3-15 0 5.337-3.171 9.503-7.504 12.5-13a623.91 623.91 0 0 1 14.5-30Z"/><path style="opacity:1" fill="#4973bc" d="M455.5 507.5v4h-115v-4a8103.65 8103.65 0 0 1 115 0ZM597.5 507.5v4h-119v-4a1771.068 1771.068 0 0 1 119 0Z"/><path style="opacity:1" fill="#dfc775" d="M463.5 508.5h7v34h-7v-34Z"/><path style="opacity:1" fill="#eddf1a" d="M340.5 513.5h115v5h-115v-5ZM597.5 513.5v5h-119v-5h119Z"/><path style="opacity:1" fill="#9fac69" d="M340.5 511.5h115c.888 2.554 1.221 5.221 1 8a3392.821 3392.821 0 0 1-116 1v-2h115v-5h-115v-2Z"/><path style="opacity:1" fill="#a0ad68" d="M478.5 511.5h119v2h-119v5h119v2h-36c-15.765-1.323-31.431-1.323-47 0a352.647 352.647 0 0 1-37-1c-.221-2.779.112-5.446 1-8Z"/><path style="opacity:1" fill="#263238" d="M561.5 520.5c.734 1.208 1.067 2.541 1 4v144c.17 1.322-.163 2.489-1 3.5a552.224 552.224 0 0 1-47 0c-.752-.671-1.086-1.504-1-2.5.332-41.17-.001-82.17-1-123v-23l1-2c.667 0 1-.333 1-1 15.569-1.323 31.235-1.323 47 0Z"/><path style="opacity:1" fill="#54769c" d="M456.5 519.5v5h-35v-1a289.882 289.882 0 0 0 34-1c-12.827-1.325-25.494-1.325-38 0-26.022.657-51.688-.009-77-2 38.739.327 77.406-.006 116-1Z"/><path style="opacity:1" fill="#4874bd" d="M417.5 522.5c12.506-1.325 25.173-1.325 38 0a289.882 289.882 0 0 1-34 1c-1.208-.734-2.541-1.067-4-1ZM513.5 521.5l-1 2a289.882 289.882 0 0 1-34-1 307.162 307.162 0 0 1 35-1Z"/><path style="opacity:1" fill="#537ab4" d="M561.5 520.5h36v4h-35c.067-1.459-.266-2.792-1-4Z"/><path style="opacity:1" fill="#627e91" d="M268.5 525.5h-32v-3h32v3Z"/><path style="opacity:1" fill="#5e82a6" d="M477.5 519.5a352.647 352.647 0 0 0 37 1c0 .667-.333 1-1 1a307.162 307.162 0 0 0-35 1 289.882 289.882 0 0 0 34 1v1h-35v-5Z"/><path style="opacity:1" fill="#87a077" d="M421.5 525.5v-1h35v2h-1c-11.154-.995-22.488-1.328-34-1Z"/><path style="opacity:1" fill="#88a178" d="M477.5 524.5h35v1c-11.512-.328-22.846.005-34 1h-1v-2ZM562.5 524.5h35v1c-11.512-.328-22.846.005-34 1h-1v-2Z"/><path style="opacity:1" fill="#f1ec12" d="M268.5 526.5v4h-31v-4h31Z"/><path style="opacity:1" fill="#e7e525" d="M512.5 525.5v5h-34v-4c11.154-.995 22.488-1.328 34-1Z"/><path style="opacity:1" fill="#f5d87c" d="M544.5 527.5c-3.785 11.41-11.785 16.41-24 15v-15h24Z"/><path style="opacity:1" fill="#1d1e22" d="M544.5 527.5h11a21.435 21.435 0 0 1-1 7c-.67 2.838-2.004 5.338-4 7.5a12.93 12.93 0 0 0 5 .5v11c-8.517-.326-16.85.007-25 1-3.277.284-6.443-.049-9.5-1a60.931 60.931 0 0 1-.5-11c12.215 1.41 20.215-3.59 24-15Z"/><path style="opacity:1" fill="#e7e525" d="M597.5 525.5v5h-34v-4c11.154-.995 22.488-1.328 34-1Z"/><path style="opacity:1" fill="#888158" d="M336.5 529.5h78c.318 4.532-.015 8.866-1 13v-12a1482.71 1482.71 0 0 1-77-1Z"/><path style="opacity:1" fill="#b7c14a" d="M236.5 525.5h32v1h-31v4h31v2h-32v-7Z"/><path style="opacity:1" fill="#b4be49" d="M421.5 525.5c11.512-.328 22.846.005 34 1h1v5a316.283 316.283 0 0 1-35 1v-7Z"/><path style="opacity:1" fill="#f1ec12" d="M455.5 526.5v4h-33v-4h33Z"/><path style="opacity:1" fill="#b5bf49" d="M477.5 526.5h1v4h34v2a316.283 316.283 0 0 1-35-1v-5ZM562.5 526.5h1v4h34v2a316.283 316.283 0 0 1-35-1v-5Z"/><path style="opacity:1" fill="#708f8e" d="M456.5 531.5v2h-35v-1a316.283 316.283 0 0 0 35-1Z"/><path style="opacity:1" fill="#71908f" d="M477.5 531.5a316.283 316.283 0 0 0 35 1v1h-35v-2ZM562.5 531.5a316.283 316.283 0 0 0 35 1v1h-35v-2Z"/><path style="opacity:1" fill="#5e81aa" d="M236.5 532.5h32v5h-32v-5Z"/><path style="opacity:1" fill="#4f78b5" d="M421.5 533.5h35v3h-35v-3Z"/><path style="opacity:1" fill="#4f78b6" d="M477.5 533.5h35v3h-35v-3Z"/><path style="opacity:1" fill="#aeb1b3" d="M554.5 534.5c.973 2.448 1.306 5.115 1 8a12.93 12.93 0 0 1-5-.5c1.996-2.162 3.33-4.662 4-7.5Z"/><path style="opacity:1" fill="#4f78b6" d="M562.5 533.5h35v3h-35v-3Z"/><path style="opacity:1" fill="#819a81" d="M421.5 536.5h35v2h-35v-2Z"/><path style="opacity:1" fill="#829a82" d="M477.5 536.5h35v2h-35v-2ZM562.5 536.5h35v2h-35v-2Z"/><path style="opacity:1" fill="#f8f107" d="M268.5 539.5v3h-31v-3h31ZM455.5 539.5v3h-33v-3h33Z"/><path style="opacity:.882" fill="#1c1e22" d="M135.5 541.5c8.656-1.796 12.489 1.537 11.5 10-4.478 3.349-9.312 3.849-14.5 1.5-3.217-5.12-2.217-8.953 3-11.5Z"/><path style="opacity:1" fill="#eae71c" d="M478.5 538.5h34v6h-34v-6ZM563.5 538.5h34v6h-34v-6Z"/><path style="opacity:.882" fill="#1c1e22" d="M617.5 541.5c3.773-.237 7.44.263 11 1.5 3.674 7.153 1.507 10.986-6.5 11.5-6.636.37-9.303-2.63-8-9 .69-1.85 1.856-3.184 3.5-4Z"/><path style="opacity:1" fill="#ced23a" d="M236.5 537.5h32v2h-31v3h31v2a265.208 265.208 0 0 1-32-1v-6Z"/><path style="opacity:1" fill="#1c1d21" d="M413.5 542.5c.429 5.425-1.904 9.258-7 11.5-10.939.162-21.939.329-33 .5a2110.808 2110.808 0 0 0-64-1.5c-1.537-1.11-2.203-2.61-2-4.5v-2c.444-1.613 1.444-2.78 3-3.5 34.332-.5 68.665-.667 103-.5Z"/><path style="opacity:1" fill="#d9db29" d="M421.5 538.5h34v1h-33v3h33c-5.124 1.329-10.624 1.995-16.5 2a161.94 161.94 0 0 1-17.5-1v-5Z"/><path style="opacity:1" fill="#adb752" d="M236.5 543.5a265.208 265.208 0 0 0 32 1v1h-32v-2Z"/><path style="opacity:1" fill="#a7b04d" d="M455.5 538.5h1v7h-35v-2a161.94 161.94 0 0 0 17.5 1c5.876-.005 11.376-.671 16.5-2v-4Z"/><path style="opacity:1" fill="#93a66a" d="M477.5 538.5h1v6h34v2h-35v-8ZM562.5 538.5h1v6h34v2h-35v-8Z"/><path style="opacity:1" fill="#74938f" d="M236.5 545.5h32v2h-32v-2Z"/><path style="opacity:1" fill="#74928f" d="M421.5 545.5h35v1a298.696 298.696 0 0 1-34 1h-1v-2Z"/><path style="opacity:1" fill="#d8ba95" d="M292.5 546.5c4.9 1.3 9.9 1.3 15 0v2h-17c.333-1 1-1.667 2-2Z"/><path style="opacity:1" fill="#496fa4" d="M456.5 546.5c.323 6.522-.01 12.855-1 19v-17c-11.179.328-22.179-.005-33-1a298.696 298.696 0 0 0 34-1Z"/><path style="opacity:1" fill="#37506f" d="M477.5 546.5h35c.999 40.83 1.332 81.83 1 123a3720.344 3720.344 0 0 1-1-122h-34v157h119a3599.26 3599.26 0 0 1-120 1v-159Z"/><path style="opacity:1" fill="#405d81" d="M562.5 546.5h35v1h-34c.332 40.503-.001 80.837-1 121v-122Z"/><path style="opacity:1" fill="#4572bf" d="M236.5 547.5h32c-.166 5.344.001 10.677.5 16l1.5 1.5c13.329.5 26.663.667 40 .5v32a380.934 380.934 0 0 0-39 1c-.958.453-1.792 1.119-2.5 2a840.27 840.27 0 0 0-.5 41h-32a840.27 840.27 0 0 0-.5-41l-2.5-2.5a840.27 840.27 0 0 0-41-.5v-32c14.004.167 28.004 0 42-.5l1.5-1.5c.499-5.323.666-10.656.5-16Z"/><path style="opacity:1" fill="#9770f9" d="M290.5 548.5h17c-.203 1.89.463 3.39 2 4.5 21.406.178 42.739.678 64 1.5.304.65.637 1.317 1 2 4.087.228 7.42 1.895 10 5a101.248 101.248 0 0 1 11 4.5 107.125 107.125 0 0 1-9 8.5h-67c.319-4.863-.014-9.53-1-14-.558-1.29-1.558-2.123-3-2.5a577.896 577.896 0 0 0-34-.5v-5c2.756-1.704 5.756-3.037 9-4Z"/><path style="opacity:1" fill="#4572c0" d="M421.5 547.5h1c10.821.995 21.821 1.328 33 1v17a9097.383 9097.383 0 0 0-80.5 80 169.166 169.166 0 0 0 0 26c.708.881 1.542 1.547 2.5 2 25.828.998 51.828 1.331 78 1v30h-114c.321-5.526-.012-10.86-1-16-.167-19.003 0-38.003.5-57l79-79c1.009-1.525 1.509-3.192 1.5-5Z"/><path style="opacity:1" fill="#4672c0" d="M513.5 669.5c-.086.996.248 1.829 1 2.5 15.667.667 31.333.667 47 0 .837-1.011 1.17-2.178 1-3.5a3659.552 3659.552 0 0 0 1-121h34v157h-119v-157h34c-.332 40.837.001 81.503 1 122Z"/><path style="opacity:1" fill="#8c68e7" d="M201.5 554.5v3h-15v-3c5-1.333 10-1.333 15 0Z"/><path style="opacity:1" fill="#fefefe" d="M213.5 554.5h15v3h-15v-3Z"/><path style="opacity:1" fill="#5f5397" d="M469.5 631.5v-77h-5c.318 4.532-.015 8.866-1 13v-14h7c.331 26.172-.002 52.172-1 78Z"/><path style="opacity:1" fill="#fefefe" d="M530.5 554.5h24v103c-.453.958-1.119 1.792-2 2.5l-9 4.5h-22v-50a54.7 54.7 0 0 0 5.5-4l1-50c2.039-1.478 2.872-3.478 2.5-6Z"/><path style="opacity:1" fill="#909598" d="M530.5 554.5c8.15-.993 16.483-1.326 25-1a2704.72 2704.72 0 0 1-1 104v-103h-24Z"/><path style="opacity:1" fill="#9977f8" d="M318.5 560.5c.986 4.47 1.319 9.137 1 14h67a1433.501 1433.501 0 0 1-45 45h-34a53.875 53.875 0 0 0-17-9.5l-4-4 30-1 1.5-1.5c.5-14.329.667-28.663.5-43Z"/><path style="opacity:1" fill="#9a78fa" d="M469.5 619.5a784.68 784.68 0 0 1-56-1l50-51c.985-4.134 1.318-8.468 1-13h5v65Z"/><path style="opacity:1" fill="#9b76fd" d="M605.5 540.5h5v79h-5v-79Z"/><path style="opacity:1" fill="#304764" d="M310.5 565.5c.995 10.821 1.328 21.821 1 33h-40a380.934 380.934 0 0 1 39-1v-32Z"/><path style="opacity:1" fill="#fcfcfc" d="M213.5 605.5h15c-.167 13.004 0 26.004.5 39a11.333 11.333 0 0 0 1.5 3.5c14.667.667 29.333.667 44 0l1.5-1.5 1-30a46.47 46.47 0 0 0 14.5 6.5 27.816 27.816 0 0 1 8 6 420.445 420.445 0 0 0 32 17 1016.27 1016.27 0 0 1 1 63.5c-8.46-2.55-16.127-6.717-23-12.5-5.093-1.382-9.426-4.049-13-8-6.4-2.062-12.067-5.396-17-10l-10-4-4-4a77.598 77.598 0 0 1-23-13 90.42 90.42 0 0 1-14-6 45.999 45.999 0 0 0-13-8l-1.5-1.5a684.346 684.346 0 0 1-.5-37Z"/><path style="opacity:1" fill="#9b7cf5" d="M186.5 604.5a61.281 61.281 0 0 0 15 1v35c-.934 1.068-1.268 2.401-1 4h-14v-40Z"/><path style="opacity:1" fill="#b9bbbd" d="M521.5 614.5v50h22c-7.482.992-15.148 1.325-23 1a650.602 650.602 0 0 1 1-51Z"/><path style="opacity:1" fill="#9678ed" d="M307.5 619.5h34a84.01 84.01 0 0 1-7.5 8 20.64 20.64 0 0 0-2 6 1481.921 1481.921 0 0 0-24.5-14Z"/><path style="opacity:1" fill="#9b7df4" d="M413.5 618.5a784.68 784.68 0 0 0 56 1v12a140.993 140.993 0 0 0-26 13 756.853 756.853 0 0 1-55-1c8-8.667 16.333-17 25-25Z"/><path style="opacity:1" fill="#997fec" d="M388.5 643.5a756.853 756.853 0 0 0 55 1 723.278 723.278 0 0 1-9 7.5l-4 1a229.01 229.01 0 0 1-22 13 90.455 90.455 0 0 1-19 0c-2.369-.536-4.369-1.703-6-3.5a33.225 33.225 0 0 1-.5-14 38.47 38.47 0 0 1 5.5-5Z"/><path style="opacity:1" fill="#909699" d="M469.5 707.5a961.42 961.42 0 0 0-1-62c.283-.789.783-1.456 1.5-2a684.92 684.92 0 0 1-.5 64Z"/><path style="opacity:1" fill="#f6f7f7" d="M468.5 645.5a961.42 961.42 0 0 1 1 62c-1.236 1.543-2.902 2.543-5 3a883.56 883.56 0 0 1-1.5-42l-1.5-1.5-29-1a35.157 35.157 0 0 1 10-5l9-7a81.356 81.356 0 0 0 17-8.5Z"/><path style="opacity:1" fill="#9b81ec" d="M201.5 640.5a32.462 32.462 0 0 0 .5 8 18.839 18.839 0 0 1 6.5 5.5 55.63 55.63 0 0 1 18 10c4.778 1.429 9.111 3.596 13 6.5a906.169 906.169 0 0 0-53 1v-27h14c-.268-1.599.066-2.932 1-4Z"/><path style="opacity:1" fill="#9c81ef" d="M605.5 619.5h5c.333 18.345 0 36.679-1 55-1.083 2.638-2.416 4.971-4 7v-62Z"/><path style="opacity:1" fill="#9b84e8" d="M239.5 670.5a391.609 391.609 0 0 1 23 14 1971.11 1971.11 0 0 1-67 1c-.283-.789-.783-1.456-1.5-2-1.049 1.017-2.216 1.184-3.5.5l1-1c-4.355-2.461-6.021-6.294-5-11.5a906.169 906.169 0 0 1 53-1Z"/><path style="opacity:1" fill="#2e425a" d="M377.5 673.5h79c.328 10.846-.006 21.513-1 32v-31c-26.172.331-52.172-.002-78-1Z"/><path style="opacity:1" fill="#9b86e3" d="M262.5 684.5a181.496 181.496 0 0 1 31 18.5c4.638 1.812 8.972 3.978 13 6.5-1.042 1.291-2.208 1.291-3.5 0-.667 2.667-1.333 2.667-2 0-20.256.484-40.423.817-60.5 1-1.804.076-3.804-.257-6-1v-3c-1.788.285-3.455-.048-5-1-2.158-3.144-5.158-4.477-9-4v-3a12.93 12.93 0 0 1-5-.5c-2.625-3.031-6.125-5.864-10.5-8.5l-1 1c-2.688-2.654-5.522-4.32-8.5-5a1971.11 1971.11 0 0 0 67-1Z"/><path style="opacity:1" fill="#3e639f" d="M340.5 688.5c.988 5.14 1.321 10.474 1 16h114v1h-115v-17Z"/><path style="opacity:1" fill="#9b8adc" d="M306.5 709.5a377.247 377.247 0 0 1 22 13.5l10 4c1.374 3.683 4.041 5.349 8 5a88.263 88.263 0 0 0 14 8.5c-.079 1.458-.579 2.792-1.5 4-1.645-.193-3.479-.36-5.5-.5-1.916-3.161-3.75-2.994-5.5.5a42.987 42.987 0 0 0-5-6l-2 2a85.423 85.423 0 0 1-9.5-1 4.457 4.457 0 0 0-1.5 2 4.457 4.457 0 0 0-1.5-2h-6a6.802 6.802 0 0 0-1.5 3 6.802 6.802 0 0 0-1.5-3c-7 1.333-14 1.333-21 0a4.457 4.457 0 0 0-2 1.5c1.593.949 2.926 2.115 4 3.5-7.283-3.06-13.949-6.06-20-9v-3h-6v-3h-5v-3a8.43 8.43 0 0 1-4-.5c-4.85-3.699-10.184-6.199-16-7.5v-3h-6v-3c-1.679.215-2.679-.452-3-2 20.077-.183 40.244-.516 60.5-1 .667 2.667 1.333 2.667 2 0 1.292 1.291 2.458 1.291 3.5 0Z"/><path style="opacity:1" fill="#5c6468" d="M459.5 713.5c-40.837-.332-81.503.001-122 1-.789-.283-1.456-.783-2-1.5 42.708-.828 84.042-.661 124 .5Z"/><path style="opacity:1" fill="#fcfcfc" d="M337.5 714.5a3720.344 3720.344 0 0 1 122-1 1829.673 1829.673 0 0 0-61 35 97.288 97.288 0 0 0-12-5.5c-3.543-1.608-6.543-3.942-9-7-5.662-.917-10.329-3.583-14-8a78.488 78.488 0 0 1-23-13 4.934 4.934 0 0 0-3-.5Z"/><path style="opacity:1" fill="#9a89da" d="M551.5 713.5a22.296 22.296 0 0 1-5 3.5l1 1a118.288 118.288 0 0 0-17 7.5 10.756 10.756 0 0 0-2.5 3l-1-1c-1.049 1.607-2.549 2.273-4.5 2v3h-6v3h-5v3c-2.524-.071-4.524.929-6 3a5.576 5.576 0 0 0-3-1 2007.49 2007.49 0 0 0-28-1 6.802 6.802 0 0 0-1.5 3 6.802 6.802 0 0 0-1.5-3h-6a4.457 4.457 0 0 0-1.5 2 4.457 4.457 0 0 0-1.5-2 35.193 35.193 0 0 0-4.5 1l-3-2c-1.362 1.425-2.862 2.258-4.5 2.5.14 1.264.14 2.431 0 3.5-3.83-.009-7.83-.175-12-.5-1.319-1.628-2.652-1.461-4 .5-.607-.124-.94-.457-1-1 2.14-2.777 4.807-4.944 8-6.5 4.75-1.03 8.75-3.363 12-7a1147.103 1147.103 0 0 0 31-17 750.264 750.264 0 0 1 67 .5Z"/><path style="opacity:1" fill="#9b8dd7" d="M476.5 757.5c1.333.667 1.333.667 0 0Z"/><path style="opacity:1" fill="#9b8ed4" d="M360.5 740.5c6.625 2.779 12.625 6.612 18 11.5a35.157 35.157 0 0 1 10 5 66.364 66.364 0 0 0 9.5 2.5 92.109 92.109 0 0 1 10.5-2.5 78.988 78.988 0 0 0 14-9 92.36 92.36 0 0 1 11-4.5c.06.543.393.876 1 1 1.348-1.961 2.681-2.128 4-.5 4.17.325 8.17.491 12 .5.14-1.069.14-2.236 0-3.5 1.638-.242 3.138-1.075 4.5-2.5l3 2a35.193 35.193 0 0 1 4.5-1 4.457 4.457 0 0 1 1.5 2 4.457 4.457 0 0 1 1.5-2h6a6.802 6.802 0 0 1 1.5 3 6.802 6.802 0 0 1 1.5-3c9.395.27 18.729.604 28 1v3a12.93 12.93 0 0 0-5 .5 101.657 101.657 0 0 0-10 7.5 9.108 9.108 0 0 1-5 1v3c-2.51-.446-4.51.22-6 2-2.216.703-4.049 2.036-5.5 4-1.813-1.109-2.646-.442-2.5 2a12.93 12.93 0 0 0-5 .5c-1.497 1.871-3.497 2.871-6 3-1.307 2.324-3.307 3.657-6 4l2 1a12.93 12.93 0 0 1-5 .5v3a9.86 9.86 0 0 0-6 1 35.217 35.217 0 0 1-8 4v3h-6v3h-6v3a8.43 8.43 0 0 0-4 .5l-5 5c-1.284.684-2.451.517-3.5-.5-1.263 2.968-3.263 3.968-6 3a2.428 2.428 0 0 0-.5 2h-12c-.507-1.359-1.507-2.359-3-3a137.913 137.913 0 0 0-11-4v-3c-2.133-1.386-5.133-2.386-9-3v-3h-5v-3c-3.005.247-5.505-.753-7.5-3l-1 1a4.934 4.934 0 0 1-.5-3h-6v-3h-5v-3h-6v-3c-5.922-1.727-11.089-4.727-15.5-9-.718.951-1.551 1.117-2.5.5 1.333-.667 1.333-1.333 0-2a12.93 12.93 0 0 0-5-.5v-3a58.97 58.97 0 0 1-11-3v-3c-1.679.215-2.679-.452-3-2-1.074-1.385-2.407-2.551-4-3.5a4.457 4.457 0 0 1 2-1.5c7 1.333 14 1.333 21 0a6.802 6.802 0 0 1 1.5 3 6.802 6.802 0 0 1 1.5-3h6a4.457 4.457 0 0 1 1.5 2 4.457 4.457 0 0 1 1.5-2c3.227.519 6.394.852 9.5 1l2-2a42.987 42.987 0 0 1 5 6c1.75-3.494 3.584-3.661 5.5-.5 2.021.14 3.855.307 5.5.5.921-1.208 1.421-2.542 1.5-4Z"/></svg>