<?xml version="1.0" encoding="UTF-8"?><svg xmlns="http://www.w3.org/2000/svg" width="800" height="800" style="shape-rendering:geometricPrecision;text-rendering:geometricPrecision;image-rendering:optimizeQuality;fill-rule:evenodd;clip-rule:evenodd"><path style="opacity:1" fill="#262b2d" d="M576.5-.5h9a2.429 2.429 0 0 0 .5 2c1.049-1.017 2.216-1.184 3.5-.5a20.495 20.495 0 0 0 2.5 3.5c1.356-.88 2.856-1.214 4.5-1v3c2.822 1.432 6.489 2.432 11 3v3c2.092.061 3.592 1.061 4.5 3 2.537-.677 4.537.323 6 3 2.361-.566 4.194.434 5.5 3l2-1c.35 2.067 2.017 3.067 5 3v3h6v3h5v3h6v3a27.247 27.247 0 0 0 9 3c-.219 1.175.114 2.175 1 3a6.846 6.846 0 0 1 4-1v3a8.435 8.435 0 0 1 4 .5c-1.154.914-.987 1.747.5 2.5l1-1a19.62 19.62 0 0 1 3.5 2h-54a154.272 154.272 0 0 1-21-10.5c-2.365-3.714-5.698-5.714-10-6-7.082-6.364-15.416-9.031-25-8a1320.219 1320.219 0 0 1-55 31.5h-23c1.418-1.808 3.418-2.475 6-2v-3a59.031 59.031 0 0 1 11-3v-3c1.808.009 3.475-.491 5-1.5-1.388-.89-1.222-1.39.5-1.5 2.071 1.167 3.571.5 4.5-2 6.434-2.343 12.767-5.343 19-9v-3a59.031 59.031 0 0 1 11-3 4.934 4.934 0 0 1 .5-3l1 1c1.995-2.247 4.495-3.247 7.5-3v-3h5v-3h6v-3c1.808.009 3.475-.491 5-1.5l-1-1a12.936 12.936 0 0 1 5-.5v-3c3.552.188 6.219-1.145 8-4ZM314.5 54.5h-23a2639.252 2639.252 0 0 0-54.5-31 138.219 138.219 0 0 1-14.5 1.5 583.354 583.354 0 0 0-33 19 73.81 73.81 0 0 0-9 3.5h-54a19.62 19.62 0 0 1 3.5-2c.914 1.154 1.747.987 2.5-.5l-1-1c4.479-2.163 8.979-4.33 13.5-6.5a18.264 18.264 0 0 0 5-4l1 1c1.049-1.607 2.549-2.273 4.5-2v-3h5v-3h6v-3c4.612-1.195 9.279-2.862 14-5v-3c1.701-.466 3.201-.466 4.5 0 .908-1.939 2.408-2.939 4.5-3v-3h6v-3c1.788.285 3.455-.048 5-1a38.767 38.767 0 0 0 7-4.5 49.25 49.25 0 0 1 14 0c2.025 1.677 4.359 2.677 7 3-1.134 1.016-.801 1.683 1 2l5 1-1 1c2.622 3.073 5.955 4.573 10 4.5v3h6v3c3.191.262 5.858 1.596 8 4a9.864 9.864 0 0 0 6 1v3c3.58 1.22 7.247 2.386 11 3.5l-2 1c2.767.678 4.934 2.178 6.5 4.5l1-1c3.769 1.797 7.102 4.13 10 7a3.942 3.942 0 0 1 2-1c1.482 1.612 3.315 2.612 5.5 3v3h6v3h5v3c2.582-.475 4.582.192 6 2Z"/><path style="opacity:1" fill="#273339" d="M616.5 47.5c6.858 3.151 13.192 7.318 19 12.5a62.65 62.65 0 0 1 10 4.5 272.42 272.42 0 0 0 19 12 132.314 132.314 0 0 1 24 13 93.9 93.9 0 0 0 16 9c7.256 4.323 14.59 8.657 22 13a156.11 156.11 0 0 0 18 10c3.652 3.393 7.986 5.56 13 6.5a36.078 36.078 0 0 1 3.5 4.5c.5 6.992.666 13.992.5 21v202c.396 2.544-.271 4.711-2 6.5a113.606 113.606 0 0 0-28 15 1884.13 1884.13 0 0 0-86 50c-3.81 1.13-7.143 3.13-10 6a1614.434 1614.434 0 0 1-40 21 51.42 51.42 0 0 1-14 8l-23 15-22 11c-3.619 3.977-7.952 6.644-13 8a91.311 91.311 0 0 1-23 13c-5.107 4.888-11.107 8.221-18 10a13.92 13.92 0 0 1-3 4l-10 4-4 4-19 9-4 4a94.29 94.29 0 0 1-22 11c-12.538 12.813-25.872 13.813-40 3-3.942.063-6.942-1.603-9-5l-17-9a58.317 58.317 0 0 1-10.5-7.5c-1.049 1.017-2.216 1.184-3.5.5a65.89 65.89 0 0 0-13-10 137.025 137.025 0 0 1-18-9l-8.5-6.5a581.022 581.022 0 0 0-1.5-34l-3-2a95.032 95.032 0 0 1-15 4v126a12.93 12.93 0 0 1 5 .5c3.716 3.723 8.049 6.223 13 7.5a332.308 332.308 0 0 1 8 6.5c1.525 1.009 3.192 1.509 5 1.5a49.698 49.698 0 0 0 10 6c1.074 1.385 2.407 2.551 4 3.5a51.303 51.303 0 0 0 14 5.5c5.281 5.604 11.614 9.604 19 12a14.698 14.698 0 0 0 3 3.5 63.089 63.089 0 0 0 10 3.5 141.615 141.615 0 0 0 27.5 16c8.511-6.129 17.345-11.462 26.5-16 2.328-1.8 4.995-2.967 8-3.5a14.698 14.698 0 0 0 3-3.5 249.627 249.627 0 0 1 15-7.5 25.14 25.14 0 0 0 4-4.5c6.903-1.246 12.903-4.246 18-9a37.827 37.827 0 0 0 10-6 98.758 98.758 0 0 1 12-5.5c.881-.708 1.547-1.542 2-2.5 4.739-1.209 8.739-3.709 12-7.5 4.706.113 7.373-2.054 8-6.5v-39c-.167-13.337 0-26.671.5-40a768.781 768.781 0 0 0 38.5-23.5c5.662-.917 10.329-3.583 14-8a58.12 58.12 0 0 0 11-5c4.652-1.193 8.819-.36 12.5 2.5.499 4.989.666 9.989.5 15v139c-1.59 4.793-4.257 8.96-8 12.5-4.337 3.53-9.004 6.364-14 8.5a4.934 4.934 0 0 0-3 .5 212.145 212.145 0 0 0-14 10.5 31.774 31.774 0 0 0-7 2.5 361.887 361.887 0 0 1-21 12.5l-18 10a89.294 89.294 0 0 0-12 7 1198.926 1198.926 0 0 1-17 10l-24 14a243.736 243.736 0 0 1-21 12c-4.199 3.268-8.866 5.768-14 7.5-5.29 4.867-11.29 8.367-18 10.5-4.319 1.174-8.653 1.174-13 0-10.315-5.97-20.648-11.97-31-18a70.087 70.087 0 0 1-14-8.5c-2.651-.153-4.984-.987-7-2.5.086-.996-.248-1.829-1-2.5l-10-4a68.5 68.5 0 0 0-13-8.5c-5.79-4.065-12.123-7.398-19-10a91.385 91.385 0 0 0-11-7 218.713 218.713 0 0 0-17-10c-3.678-2.428-7.678-4.261-12-5.5a31.447 31.447 0 0 0-5-4.5 103.585 103.585 0 0 1-15-9c-5.879-2.139-11.212-5.305-16-9.5a75.465 75.465 0 0 0-11-4.5c-2.117-2.416-4.617-4.416-7.5-6a98.432 98.432 0 0 1-.5-14v-403c3.208-3.424 6.875-6.091 11-8a214.476 214.476 0 0 0 24-14 41.24 41.24 0 0 1 12-6.5 208.311 208.311 0 0 0 5-4.5c6.366-1.248 11.699-4.248 16-9 2.016-1.513 4.349-2.347 7-2.5a35.926 35.926 0 0 0 9-6.5 16.607 16.607 0 0 0 7.5-4c1.868 1.21 3.368.71 4.5-1.5a25.238 25.238 0 0 1 10 0 153.69 153.69 0 0 0 19 10 55.747 55.747 0 0 0 5.5 4.5c1.158-.498 1.991-1.331 2.5-2.5a215.586 215.586 0 0 1 4-14c-1.346-1.669-3.013-2.836-5-3.5a59.89 59.89 0 0 0-8-4c-4.467-3.74-9.467-6.74-15-9a121.482 121.482 0 0 0-13-7 106.083 106.083 0 0 1-15-9c-7.298-4.319-14.631-8.652-22-13a163.81 163.81 0 0 0-23-12.5l-4.5-4.5c-2.09.652-4.257.819-6.5.5a757.558 757.558 0 0 0-26 16.5 9475.662 9475.662 0 0 0-22 13 81.989 81.989 0 0 0-16 9 161.471 161.471 0 0 0-13 7c-3.411 3.197-7.411 5.364-12 6.5-.881.708-1.547 1.542-2 2.5-3.352.03-6.018 1.363-8 4a84.306 84.306 0 0 0-14.5 9 72.367 72.367 0 0 0-.5 12v124c5.301 1.324 9.968 3.824 14 7.5l10 4c1.918 2.928 4.585 4.594 8 5 2.674 3.012 6.007 4.678 10 5a82.15 82.15 0 0 0 22 13 20.231 20.231 0 0 1 7.5 7.5c.667 23.333.667 46.667 0 70-1.232 2.8-1.899 5.8-2 9-2.909 2.894-6.409 3.727-10.5 2.5a13376.247 13376.247 0 0 1-116-67c-3.96.349-6.626-1.317-8-5l-9.5-5.5a12.935 12.935 0 0 1-.5-5c-.167-75.334 0-150.667.5-226 4.308-1.212 8.141-3.212 11.5-6a2911.307 2911.307 0 0 0 21-12c8.077-4.369 16.077-8.702 24-13 5.17-2.75 10.17-5.75 15-9 4.949-1.826 9.283-4.66 13-8.5a146.512 146.512 0 0 1 11-4.5 94.957 94.957 0 0 1 19-12 190.706 190.706 0 0 0 28-17 73.81 73.81 0 0 1 9-3.5 583.354 583.354 0 0 1 33-19c4.872-.246 9.705-.746 14.5-1.5a2639.252 2639.252 0 0 1 54.5 31 4089.23 4089.23 0 0 1 18 11 146.313 146.313 0 0 1 20 11c3.296 1.497 6.63 2.997 10 4.5a568.237 568.237 0 0 1 21 13.5 436.47 436.47 0 0 1 31 17 205.47 205.47 0 0 0 30 17c5.359 4.51 11.359 8.01 18 10.5l4 4a81.543 81.543 0 0 1 10 4.5 24.558 24.558 0 0 1 6 3c.453.958 1.119 1.792 2 2.5 4.039 2.168 8.039 4.334 12 6.5a76.444 76.444 0 0 1 13 7c4.694 2.679 9.361 5.345 14 8a144.374 144.374 0 0 0 11 6 71.45 71.45 0 0 0 12 7 47.544 47.544 0 0 0 16 9c3.604 1.071 6.604 3.238 9 6.5a64.76 64.76 0 0 1 13 6.5 450.713 450.713 0 0 0 25 14c2.549 2.263 5.383 4.263 8.5 6 .5 36.665.667 73.332.5 110-2.961 5.659-7.627 9.159-14 10.5L567 360.5c-.667 1-.667 2 0 3a178.482 178.482 0 0 0 11.5 11 142.459 142.459 0 0 1 24-13.5c4.117-3.541 8.784-6.208 14-8l4-4a349.402 349.402 0 0 0 37-19 679.07 679.07 0 0 1 23-15 8.43 8.43 0 0 1 4-.5 1207.01 1207.01 0 0 0 .5-85c-1.481-.971-2.315-2.304-2.5-4v-43c1.019-5.644-1.314-8.644-7-9-.453-.958-1.119-1.792-2-2.5a119.574 119.574 0 0 0-12-5.5c-.453-.958-1.119-1.792-2-2.5a66.953 66.953 0 0 1-10-4.5c-4.99-4.326-10.657-7.326-17-9a52.469 52.469 0 0 0-14-9 119.8 119.8 0 0 0-19-11c-11.102-5.4-21.769-11.733-32-19a259.682 259.682 0 0 0-34 19 2123.171 2123.171 0 0 1-20 11 116.594 116.594 0 0 1-12 6.5c-4.752.773-9.419.607-14-.5a419.035 419.035 0 0 0-34-19 82.342 82.342 0 0 0-16-9.5c-2.777-2.939-5.777-5.439-9-7.5-2.649-2.059-3.482-4.725-2.5-8a117.265 117.265 0 0 1 18.5-13 227.265 227.265 0 0 1 23-13 26.162 26.162 0 0 0 7-5 664.508 664.508 0 0 0 13-6 4089.23 4089.23 0 0 1 18-11 1320.219 1320.219 0 0 0 55-31.5c9.584-1.031 17.918 1.636 25 8 4.302.286 7.635 2.286 10 6a154.272 154.272 0 0 0 21 10.5Z"/><path style="opacity:1" fill="#fdfdfd" d="M229.5 34.5a159.788 159.788 0 0 1 25 11.5 1516.16 1516.16 0 0 0 91 52 108.394 108.394 0 0 0 19 13 546.6 546.6 0 0 1 35 18c3.581 3.919 7.914 6.586 13 8 3.671 4.417 8.338 7.083 14 8a175.043 175.043 0 0 0 28 16 272.364 272.364 0 0 1 22 14c4.758 1.884 9.092 4.551 13 8l5 1c6.885 5.647 14.551 9.98 23 13 3.908 3.449 8.242 6.116 13 8a803.828 803.828 0 0 0 52 30.5 1734.395 1734.395 0 0 1 .5 102 249.84 249.84 0 0 1-22.5 11.5c-5.373 5.383-11.706 9.049-19 11a48.835 48.835 0 0 1-13.5 8.5l-1-100c-2.167-1.5-4-3.333-5.5-5.5-1.284-.684-2.451-.517-3.5.5a116.512 116.512 0 0 0-13.5-10.5 663.074 663.074 0 0 1-60-34c-3.415-.406-6.082-2.072-8-5-8.05-3.027-15.383-7.36-22-13a164.63 164.63 0 0 1-28-14c-5.075-5.091-11.075-8.425-18-10-3.492-1.624-6.492-3.958-9-7l-10-4c-3.25-3.637-7.25-5.97-12-7-5.396-5.42-11.73-9.087-19-11a331.67 331.67 0 0 0-40-23 846.02 846.02 0 0 1-33-20c-3.415-.406-6.082-2.072-8-5a42.498 42.498 0 0 0-13 0 226.438 226.438 0 0 0-29 17c-3.415.406-6.082 2.072-8 5a90.42 90.42 0 0 1-14 6c-3.574 3.951-7.907 6.618-13 8-6.962 5.648-14.628 9.981-23 13a146.497 146.497 0 0 1-31 18 6.978 6.978 0 0 0-2.5 3.5 5697.651 5697.651 0 0 0 0 151 213.392 213.392 0 0 0 27.5 15.5 70.186 70.186 0 0 0 18 10l6 5a340.197 340.197 0 0 1 18 8.5c.167 21.669 0 43.336-.5 65a7214.146 7214.146 0 0 1-125-72c-.667-72-.667-144 0-216A361.546 361.546 0 0 0 80.5 119c4.87-1.741 9.204-4.408 13-8 10.857-4.097 20.857-9.763 30-17 6.867-2.927 13.201-6.594 19-11a3139.568 3139.568 0 0 0 19-9l4-4 10-4c2.508-3.042 5.508-5.376 9-7a632.763 632.763 0 0 0 45-24.5Z"/><path style="opacity:1" fill="#fdfdfd" d="M564.5 34.5a129.7 129.7 0 0 0 7 1.5c3.868 1.484 7.201 3.818 10 7a90.401 90.401 0 0 1 14 6c1.918 2.928 4.585 4.594 8 5a483.026 483.026 0 0 0 51 29l4 4a457.332 457.332 0 0 1 22 11 91.311 91.311 0 0 0 23 13c1.918 2.928 4.585 4.594 8 5a2129.254 2129.254 0 0 0 37.5 21.5 7901.316 7901.316 0 0 1 1.5 216 73.86 73.86 0 0 1-9 3.5 3128.68 3128.68 0 0 1-113 65 71.52 71.52 0 0 1-18 10 1023.807 1023.807 0 0 1-47 28c-3.415.406-6.082 2.072-8 5-3.463.788-6.463 2.454-9 5-5.048 1.356-9.381 4.023-13 8l-22 11c-3.83 4.163-8.497 6.829-14 8-6.888 5.613-14.554 9.946-23 13l-4 4a27313.193 27313.193 0 0 1-71.5 41.5 35.323 35.323 0 0 0-9.5-4.5c-5.366-5.372-11.699-9.039-19-11-5.239-4.798-11.239-8.131-18-10-3.746-3.586-8.079-6.253-13-8a261.839 261.839 0 0 1-22-14c-1.525-1.009-3.192-1.509-5-1.5.372-2.522-.461-4.522-2.5-6a600.697 600.697 0 0 1 .5-60 917.37 917.37 0 0 1 34 20.5 456.961 456.961 0 0 0 22 11c6.962 5.648 14.628 9.981 23 13 3.681 4.321 8.348 5.654 14 4a619.746 619.746 0 0 0 37-22 24.569 24.569 0 0 0 8-3 246.812 246.812 0 0 0 18-12 532.543 532.543 0 0 1 10-4 679.07 679.07 0 0 1 23-15c4.69-1.17 8.69-3.503 12-7 6.764-2.434 12.764-6.101 18-11a90.42 90.42 0 0 0 14-6c4.933-4.604 10.6-7.938 17-10a146.497 146.497 0 0 1 31-18 59.724 59.724 0 0 1 20-11c5.057-5.063 11.057-8.396 18-10 4.952-4.639 10.619-7.973 17-10 9.313-5.969 18.646-11.969 28-18 7.116-1.808 13.282-5.308 18.5-10.5 1.657-49.25 1.99-98.584 1-148a69.2 69.2 0 0 0-4.5-6.5 198.572 198.572 0 0 1-36-21 114.302 114.302 0 0 1-13-6 182.852 182.852 0 0 0-35-20c-3.671-4.417-8.338-7.083-14-8a171.322 171.322 0 0 0-19-12c-8.302-.757-15.635 1.576-22 7a68.695 68.695 0 0 0-14 7c-4.302.286-7.635 2.286-10 6a43.593 43.593 0 0 0-13 8 684.54 684.54 0 0 0-19 8.5 50.162 50.162 0 0 1-14-8.5 114.065 114.065 0 0 1-14-6 7185.005 7185.005 0 0 0-26-16 1301.662 1301.662 0 0 1 78-45c2.674-3.012 6.007-4.678 10-5 3.619-3.977 7.952-6.644 13-8a200.86 200.86 0 0 1 23-13.5Z"/><path style="opacity:1" fill="#33383a" d="M126.5 47.5h54a190.706 190.706 0 0 1-28 17h-55c-.702-1.13.632-1.464 4-1v-3a87.51 87.51 0 0 0 14-5v-3h6v-3c2.281.423 3.948-.244 5-2Z"/><path style="opacity:1" fill="#363a3c" d="M291.5 54.5h23c4.203 2.96 8.87 4.96 14 6v3c2.267-.355 3.601-.021 4 1-7.852-.325-15.518.008-23 1a4089.23 4089.23 0 0 0-18-11ZM482.5 54.5h23a4089.23 4089.23 0 0 0-18 11c-7.482-.992-15.148-1.325-23-1 .399-1.021 1.733-1.355 4-1v-3c5.143-.905 9.81-2.905 14-6Z"/><path style="opacity:1" fill="#33383a" d="M616.5 47.5h54c1.418 1.808 3.418 2.475 6 2v3h5v3a340.414 340.414 0 0 0 14 5.5c1.497 1.87 3.497 2.87 6 3a2.427 2.427 0 0 1-2 .5h-54a62.65 62.65 0 0 0-10-4.5c-5.808-5.182-12.142-9.349-19-12.5Z"/><path style="opacity:1" fill="#404546" d="M97.5 64.5h55a94.957 94.957 0 0 0-19 12 676.57 676.57 0 0 0-52-1v-3h5v-3c1.7.16 3.366-.007 5-.5 1.729-1.948 3.729-3.448 6-4.5Z"/><path style="opacity:1" fill="#404446" d="M309.5 65.5c7.482-.992 15.148-1.325 23-1 1.28 1.431 2.947 2.098 5 2v3h6v3h5v3c-6.522-.323-12.855.01-19 1a146.313 146.313 0 0 0-20-11ZM464.5 64.5c7.852-.325 15.518.008 23 1a664.508 664.508 0 0 1-13 6 26.162 26.162 0 0 1-7 5c-6.145-.99-12.478-1.323-19-1v-3a59.031 59.031 0 0 0 11-3v-3c2.053.098 3.72-.569 5-2Z"/><path style="opacity:1" fill="#404546" d="M645.5 64.5h54c2.271 1.052 4.271 2.552 6 4.5 1.634.493 3.301.66 5 .5v3c2.82-.413 4.82.587 6 3a676.57 676.57 0 0 0-52 1 272.42 272.42 0 0 1-19-12Z"/><path style="opacity:1" fill="#4c5052" d="M81.5 75.5a676.57 676.57 0 0 1 52 1 146.512 146.512 0 0 0-11 4.5c-3.717 3.84-8.051 6.674-13 8.5a676.567 676.567 0 0 0-52-1c.683-1.677 2.017-2.343 4-2v-3a59.029 59.029 0 0 1 11-3 4.932 4.932 0 0 1 .5-3l1 1c2.015-3.065 4.515-4.065 7.5-3Z"/><path style="opacity:1" fill="#4d5254" d="M382.5 93.5c-7.519-.325-14.852.008-22 1a568.237 568.237 0 0 0-21-13.5c-3.37-1.503-6.704-3.003-10-4.5 6.145-.99 12.478-1.323 19-1 2.985-1.065 5.485-.065 7.5 3l1-1c.483.948.649 1.948.5 3h5v3h6v3c2.133 1.386 5.133 2.386 9 3v3c1.915-.284 3.581.049 5 1Z"/><path style="opacity:1" fill="#4c5052" d="M448.5 75.5c6.522-.323 12.855.01 19 1a227.265 227.265 0 0 0-23 13c-5.81-.99-11.81-1.323-18-1 1.928-1.974 4.261-3.474 7-4.5.837-1.011 1.17-2.178 1-3.5 4.493-.216 7.993-2.216 10.5-6 1.011.837 2.178 1.17 3.5 1ZM739.5 88.5a650.846 650.846 0 0 0-51 1 132.314 132.314 0 0 0-24-13 676.57 676.57 0 0 1 52-1c1.347-.528 2.681-.695 4-.5l-1 1a6.977 6.977 0 0 1 3.5 2.5l1-1c.483.948.649 1.948.5 3h6v3h5v3c1.983-.343 3.317.323 4 2Z"/><path style="opacity:1" fill="#585c5e" d="M57.5 88.5c17.508-.33 34.841.003 52 1-4.83 3.25-9.83 6.25-15 9a702.832 702.832 0 0 0-53-1c-.13-.876.203-1.543 1-2a53.866 53.866 0 0 0 13.5-8c.383.556.883.89 1.5 1ZM755.5 97.5a650.846 650.846 0 0 0-51 1 93.9 93.9 0 0 1-16-9 650.846 650.846 0 0 1 51-1c.617-.11 1.117-.444 1.5-1a53.28 53.28 0 0 0 13.5 8c.798.457 1.131 1.124 1 2Z"/><path style="opacity:1" fill="#66696b" d="M41.5 97.5c17.841-.33 35.508.003 53 1-7.923 4.298-15.923 8.631-24 13a702.727 702.727 0 0 0-53-1c1.068-.934 2.401-1.268 4-1v-3a58.967 58.967 0 0 0 11-3v-3c1.859.039 3.192-.794 4-2.5 1.634-.493 3.3-.66 5-.5Z"/><path style="opacity:1" fill="#636668" d="M426.5 88.5c6.19-.323 12.19.01 18 1a117.265 117.265 0 0 0-18.5 13c-.982 3.275-.149 5.941 2.5 8a342.787 342.787 0 0 0-37 1 436.47 436.47 0 0 0-31-17c7.148-.992 14.481-1.325 22-1 .87 2.099 2.203 2.432 4 1 .35 2.067 2.017 3.067 5 3v3h6v3a597.339 597.339 0 0 0 29-15Z"/><path style="opacity:1" fill="#66696b" d="M755.5 97.5c1.699-.16 3.366.007 5 .5l-1 1c1.525 1.009 3.192 1.509 5 1.5v3h6v3h5v3c1.599-.268 2.932.066 4 1a702.728 702.728 0 0 0-53 1 3560.912 3560.912 0 0 1-22-13 650.846 650.846 0 0 1 51-1Z"/><path style="opacity:1" fill="#75787a" d="M17.5 110.5c17.841-.33 35.508.003 53 1a2911.307 2911.307 0 0 1-21 12 462.905 462.905 0 0 0-43-1c.392-2.646.392-5.146 0-7.5 4.165-.44 7.831-1.94 11-4.5Z"/><path style="opacity:1" fill="#747779" d="M792.5 120.5a576.628 576.628 0 0 0-48 1 156.11 156.11 0 0 1-18-10 702.728 702.728 0 0 1 53-1c1.703-1.16 2.369-.493 2 2 2.836 1.276 5.836 1.942 9 2l2 6Z"/><path style="opacity:1" fill="#7c8081" d="M260.5 127.5h-60a757.558 757.558 0 0 1 26-16.5c2.243.319 4.41.152 6.5-.5l4.5 4.5a163.81 163.81 0 0 1 23 12.5Z"/><path style="opacity:1" fill="#797d7e" d="M428.5 110.5c3.223 2.061 6.223 4.561 9 7.5a82.342 82.342 0 0 1 16 9.5c-10.846-.328-21.513.006-32 1a205.47 205.47 0 0 1-30-17 342.787 342.787 0 0 1 37-1Z"/><path style="opacity:1" fill="#7f8284" d="M599.5 129.5h-66a259.682 259.682 0 0 1 34-19c10.231 7.267 20.898 13.6 32 19Z"/><path style="opacity:1" fill="#87898b" d="M792.5 120.5v20h-30c.318 4.532-.015 8.866-1 13 .166-7.008 0-14.008-.5-21a36.078 36.078 0 0 0-3.5-4.5c-5.014-.94-9.348-3.107-13-6.5a576.628 576.628 0 0 1 48-1Z"/><path style="opacity:1" fill="#7e8384" d="M6.5 122.5c14.51-.329 28.843.004 43 1-3.359 2.788-7.192 4.788-11.5 6-.5 75.333-.667 150.666-.5 226a3844.585 3844.585 0 0 1-1-124v-95h-30v-14Z"/><path style="opacity:1" fill="#8e9192" d="M200.5 127.5h60c7.369 4.348 14.702 8.681 22 13h-104c7.305-4.33 14.638-8.663 22-13Z"/><path style="opacity:1" fill="#8f9293" d="M533.5 129.5h66a119.8 119.8 0 0 1 19 11h-105a2123.171 2123.171 0 0 0 20-11Z"/><path style="opacity:1" fill="#909394" d="M453.5 127.5a419.035 419.035 0 0 1 34 19c-11.512-.328-22.846.005-34 1a81.543 81.543 0 0 0-10-4.5l-4-4c-6.641-2.49-12.641-5.99-18-10.5 10.487-.994 21.154-1.328 32-1Z"/><path style="opacity:1" fill="#9c9e9f" d="M178.5 140.5h104a106.083 106.083 0 0 0 15 9h-135a81.989 81.989 0 0 1 16-9ZM513.5 140.5h105a52.469 52.469 0 0 1 14 9 7484.99 7484.99 0 0 0-173 1 24.558 24.558 0 0 0-6-3c11.154-.995 22.488-1.328 34-1 4.581 1.107 9.248 1.273 14 .5a116.594 116.594 0 0 0 12-6.5Z"/><path style="opacity:1" fill="#9d9fa0" d="M6.5 136.5h30v17h-30v-17Z"/><path style="opacity:1" fill="#a5a7a8" d="M162.5 149.5h135a121.482 121.482 0 0 1 13 7h-161a161.471 161.471 0 0 1 13-7Z"/><path style="opacity:1" fill="#a6a8a9" d="M632.5 149.5c6.343 1.674 12.01 4.674 17 9a7747.008 7747.008 0 0 0-176 1 1754.169 1754.169 0 0 0-12-6.5c-.881-.708-1.547-1.542-2-2.5a7484.99 7484.99 0 0 1 173-1Z"/><path style="opacity:1" fill="#a3a5a6" d="M792.5 140.5v16h-30v33c.302 2.559-.032 4.893-1 7v-43c.985-4.134 1.318-8.468 1-13h30Z"/><path style="opacity:1" fill="#aeb0b1" d="M149.5 156.5h161c5.533 2.26 10.533 5.26 15 9-63.839-1.313-127.172-1.313-190 0 .453-.958 1.119-1.792 2-2.5 4.589-1.136 8.589-3.303 12-6.5Z"/><path style="opacity:1" fill="#afb1b2" d="M473.5 159.5a7747.008 7747.008 0 0 1 176-1 66.953 66.953 0 0 0 10 4.5c.881.708 1.547 1.542 2 2.5a5222.734 5222.734 0 0 0-176-.5c.556.383.889.883 1 1.5a76.444 76.444 0 0 0-13-7Z"/><path style="opacity:1" fill="#b7b8b9" d="M325.5 165.5a59.89 59.89 0 0 1 8 4h-206c1.982-2.637 4.648-3.97 8-4 62.828-1.313 126.161-1.313 190 0Z"/><path style="opacity:1" fill="#b3b5b6" d="M792.5 156.5v13h-30v-13h30Z"/><path style="opacity:1" fill="#b6b8b9" d="M6.5 153.5h30v20h-30v-20Z"/><path style="opacity:1" fill="#babcbc" d="M661.5 165.5a119.574 119.574 0 0 1 12 5.5c.881.708 1.547 1.542 2 2.5a7659.168 7659.168 0 0 0-175 1c-4.639-2.655-9.306-5.321-14-8-.111-.617-.444-1.117-1-1.5a5222.734 5222.734 0 0 1 176 .5Z"/><path style="opacity:1" fill="#c1c2c3" d="M127.5 169.5h206c1.987.664 3.654 1.831 5 3.5a215.586 215.586 0 0 0-4 14c-.509 1.169-1.342 2.002-2.5 2.5a55.747 55.747 0 0 1-5.5-4.5 153.69 153.69 0 0 1-19-10 25.238 25.238 0 0 0-10 0c-1.132 2.21-2.632 2.71-4.5 1.5a16.607 16.607 0 0 1-7.5 4 7398.653 7398.653 0 0 0-172-1v10c0 .667-.333 1-1 1a72.367 72.367 0 0 1 .5-12 84.306 84.306 0 0 1 14.5-9Z"/><path style="opacity:1" fill="#c3c4c5" d="M500.5 174.5a7659.168 7659.168 0 0 1 175-1c5.686.356 8.019 3.356 7 9-.904-.709-1.237-1.709-1-3a7227.48 7227.48 0 0 0-170 1 144.374 144.374 0 0 1-11-6Z"/><path style="opacity:1" fill="#fafbfb" d="M345.5 177.5c8.955 3.27 17.288 7.77 25 13.5a241.972 241.972 0 0 1 31 18c5.503 1.171 10.17 3.837 14 8 4.935 1.209 8.935 3.875 12 8l5 1a17014.784 17014.784 0 0 1 83 48.5 2716.916 2716.916 0 0 0 3.5 106c2.21 2.79 5.044 3.623 8.5 2.5a362.82 362.82 0 0 0 28.5-17.5 247.588 247.588 0 0 0 13.5 13 14.972 14.972 0 0 1-3 3.5l-14 6c-4.933 4.604-10.6 7.938-17 10a56.81 56.81 0 0 1-15 9c-3.25 3.637-7.25 5.97-12 7a53822.01 53822.01 0 0 1-40 25l-5 1-14.5 10.5c-1.049-1.017-2.216-1.184-3.5-.5a83.41 83.41 0 0 0-14 10 51.42 51.42 0 0 0-14 8 175.866 175.866 0 0 1-18.5 9.5 36.947 36.947 0 0 0-9.5-4.5 104.544 104.544 0 0 0-24-13l-5-5a298.954 298.954 0 0 1-26-13 137.743 137.743 0 0 0-28-15.5c-2.412-.094-4.245.906-5.5 3a647.854 647.854 0 0 0-.5 36 180.148 180.148 0 0 0-18 5 6403.063 6403.063 0 0 1-.5-196 18.778 18.778 0 0 1 5.5-4.5 291.997 291.997 0 0 0 27-14 72.56 72.56 0 0 1 17-10 21.53 21.53 0 0 1 6-5c8.327-4.322 16.66-8.655 25-13a142.196 142.196 0 0 0 8.5-7.5c1.567-5.033.067-8.867-4.5-11.5a159.462 159.462 0 0 0-23-13.5l-1-3a239.942 239.942 0 0 0 3-15Z"/><path style="opacity:1" fill="#cbcccd" d="M285.5 180.5a35.926 35.926 0 0 1-9 6.5c-2.651.153-4.984.987-7 2.5h-156v-10c57.502-.332 114.836.001 172 1Z"/><path style="opacity:1" fill="#cacbcb" d="M682.5 182.5v5a1609.704 1609.704 0 0 0-80-2c-26.675 0-53.009.667-79 2a71.45 71.45 0 0 1-12-7 7227.48 7227.48 0 0 1 170-1c-.237 1.291.096 2.291 1 3Z"/><path style="opacity:1" fill="#fefefe" d="M300.5 186.5a8.43 8.43 0 0 1 4 .5c4.194 3.221 8.86 5.554 14 7a679.07 679.07 0 0 1 23 15c5.567 1.45 10.567 3.95 15 7.5a169.786 169.786 0 0 1-33 18.5c-3.796 3.592-8.129 6.259-13 8-10.981 8.007-22.648 14.674-35 20-1.5 2.167-3.333 4-5.5 5.5a29055.972 29055.972 0 0 0 0 341c5.97 6.53 13.137 11.03 21.5 13.5a27.816 27.816 0 0 1 8 6 420.445 420.445 0 0 0 32 17c3.705 4.342 8.372 7.009 14 8a643.917 643.917 0 0 0 29 18c2.861.54 5.528 1.54 8 3l11 7c4 .667 8 .667 12 0 6.962-5.648 14.628-9.981 23-13a679.07 679.07 0 0 0 23-15l22-11a83.449 83.449 0 0 1 24-13c6.218-5.632 13.218-9.965 21-13l8.5-6.5 1-50 2-2c.5-10.661.667-21.328.5-32 4.561-1.48 8.561-3.98 12-7.5l4-1a599.649 599.649 0 0 1 36.5-21.5c.833 48.67.667 97.337-.5 146a14998.59 14998.59 0 0 0-140 81.5c-6.858 2.879-13.191 6.546-19 11-8.243 3.203-15.91 7.536-23 13-1.333.667-2.667.667-4 0a95.947 95.947 0 0 0-15-8c-3.603-3.655-7.936-5.988-13-7-3.342-4.33-7.675-6.997-13-8-5.883-4.573-12.217-8.24-19-11-5.201-4.797-11.201-8.13-18-10-5.256-4.931-11.256-8.598-18-11l-4-4c-6.4-2.062-12.067-5.396-17-10l-10-4-4-4a77.598 77.598 0 0 1-23-13 90.42 90.42 0 0 1-14-6 45.999 45.999 0 0 0-13-8l-1.5-1.5c-.5-135.666-.667-271.333-.5-407a239.706 239.706 0 0 1 12-5.5 6204.11 6204.11 0 0 0 24-15c6.379-2.03 12.046-5.363 17-10l10-4 4-4a90.42 90.42 0 0 1 14-6 157.284 157.284 0 0 1 6-4.5Z"/><path style="opacity:1" fill="#c9cbcb" d="M762.5 169.5h30v20h-30v-20Z"/><path style="opacity:1" fill="#cfd1d1" d="M6.5 173.5h30v22h-30v-22Z"/><path style="opacity:1" fill="#d6d7d7" d="M113.5 189.5h156c-4.301 4.752-9.634 7.752-16 9a4900.286 4900.286 0 0 0-140-1c.302 2.559-.032 4.893-1 7v-14c.667 0 1-.333 1-1Z"/><path style="opacity:1" fill="#d3d5d5" d="M682.5 187.5v13c-.951-1.419-1.284-3.085-1-5-47.503-.332-94.836.001-142 1a47.544 47.544 0 0 1-16-9c25.991-1.333 52.325-2 79-2 26.881.009 53.548.675 80 2Z"/><path style="opacity:1" fill="#d8d9d9" d="M762.5 189.5h30v13h-30v13c.332 46.836-.001 93.503-1 140v-159c.968-2.107 1.302-4.441 1-7Z"/><path style="opacity:1" fill="#e1e2e2" d="M253.5 198.5a208.311 208.311 0 0 1-5 4.5 41.24 41.24 0 0 0-12 6.5c-40.83-.999-81.83-1.332-123-1 .306 2.885-.027 5.552-1 8v-12c.968-2.107 1.302-4.441 1-7 46.836-.332 93.503.001 140 1Z"/><path style="opacity:1" fill="#e0e1e1" d="M682.5 200.5v12c-.934-1.068-1.268-2.401-1-4-40.17-.332-80.17.001-120 1a64.76 64.76 0 0 0-13-6.5c-2.396-3.262-5.396-5.429-9-6.5a5041.406 5041.406 0 0 1 142-1c-.284 1.915.049 3.581 1 5Z"/><path style="opacity:1" fill="#e4e5e5" d="M6.5 195.5h30v20h-30v-20Z"/><path style="opacity:1" fill="#e7e8e8" d="M792.5 202.5v13h-30v-13h30Z"/><path style="opacity:1" fill="#273339" d="M390.5 215.5h18v16c46.252 6.088 78.085 30.754 95.5 74 6.95 22.885 7.283 45.885 1 69a79.696 79.696 0 0 1-5.5 13.5l14 9-9 15c-4.133-1.4-8.133-3.4-12-6-1-.667-2-.667-3 0-28.624 36.295-65.957 50.962-112 44-27.975-6.643-50.642-21.31-68-44-1-.667-2-.667-3 0-3.867 2.6-7.867 4.6-12 6l-9-15 14-9c-17.557-41.709-12.724-80.542 14.5-116.5 20.308-23.237 45.808-36.571 76.5-40v-16Z"/><path style="opacity:1" fill="#ededed" d="M236.5 209.5a214.476 214.476 0 0 1-24 14 2450.637 2450.637 0 0 0-99-1v9c.172.992-.162 1.658-1 2v-17c.973-2.448 1.306-5.115 1-8 41.17-.332 82.17.001 123 1ZM682.5 212.5v13c-.904-.709-1.237-1.709-1-3-31.838-.332-63.504.002-95 1a450.713 450.713 0 0 1-25-14 3599.26 3599.26 0 0 1 120-1c-.268 1.599.066 2.932 1 4Z"/><path style="opacity:1" fill="#f4f4f4" d="M6.5 215.5h30v16h-30v-16Z"/><path style="opacity:1" fill="#f5f5f5" d="M212.5 223.5c-4.125 1.909-7.792 4.576-11 8h-88v-9c33.171-.332 66.171.002 99 1Z"/><path style="opacity:1" fill="#f1f2f2" d="M682.5 225.5c.185 1.696 1.019 3.029 2.5 4 .83 28.503.664 56.836-.5 85v-83h-88c.332 36.171-.002 72.171-1 108 .167-36.668 0-73.335-.5-110-3.117-1.737-5.951-3.737-8.5-6a2256.409 2256.409 0 0 1 95-1c-.237 1.291.096 2.291 1 3Z"/><path style="opacity:1" fill="#fefefe" d="M6.5 231.5h30c-.332 41.503.001 82.837 1 124-.16 1.699.007 3.366.5 5l9.5 5.5c1.374 3.683 4.04 5.349 8 5a13376.247 13376.247 0 0 0 116 67c4.091 1.227 7.591.394 10.5-2.5.101-3.2.768-6.2 2-9 .667-23.333.667-46.667 0-70a20.231 20.231 0 0 0-7.5-7.5 82.15 82.15 0 0 1-22-13c-3.993-.322-7.326-1.988-10-5-3.415-.406-6.082-2.072-8-5l-10-4c-4.032-3.676-8.699-6.176-14-7.5v-81c.838-.342 1.172-1.008 1-2h88v332c-.934 1.068-1.268 2.401-1 4h-14c.167-34.335 0-68.668-.5-103a1204.023 1204.023 0 0 0-28.5-16.5c-6.204-2.789-12.537-4.622-19-5.5v-3h-6v-3h-3v-3h-6v-3h-5v-3c-2.921.354-5.254-.646-7-3-1.714 1.109-2.381.442-2-2a58.97 58.97 0 0 1-11-3v-3a27.267 27.267 0 0 0-9-3v-3c-2.908.238-5.242-.762-7-3a3.647 3.647 0 0 0-1.5 1c-1.667-1-3-2.333-4-4l-1 1a4.932 4.932 0 0 1-.5-3h-6v-3h-5v-3a544.412 544.412 0 0 1-29-14v-3a58.967 58.967 0 0 1-11-3v-3h-6v-3c-4.013-1.674-8.013-3.341-12-5v-134ZM684.5 314.5a8.43 8.43 0 0 0-4 .5 679.07 679.07 0 0 0-23 15 349.402 349.402 0 0 1-37 19l-4 4c-5.216 1.792-9.883 4.459-14 8a142.459 142.459 0 0 0-24 13.5 178.482 178.482 0 0 1-11.5-11c-.667-1-.667-2 0-3l14.5-10.5c6.373-1.341 11.039-4.841 14-10.5a2916.974 2916.974 0 0 0 1-108h88v83Z"/><path style="opacity:1" fill="#fdfdfd" d="M762.5 215.5h30v150c-3.013-.128-5.513.872-7.5 3-2.411-1.653-3.578-.987-3.5 2-1.701.466-3.201.466-4.5 0-3.844 1.975-7.177 4.642-10 8l-1-1c-1.049 1.607-2.549 2.273-4.5 2v3c-3.937.204-7.604 1.204-11 3 .381 2.442-.286 3.109-2 2-.886.825-1.219 1.825-1 3h-6v3a12.93 12.93 0 0 0-5 .5c-1.079 2.043-2.746 3.376-5 4l1 1a12.93 12.93 0 0 1-5 .5v3a9.86 9.86 0 0 0-6 1c-3.423 1.192-6.256 3.192-8.5 6l-1-1c-1.049 1.607-2.549 2.273-4.5 2v3h-6v3h-5v3c-2.185.388-4.018 1.388-5.5 3-2.278-1.12-3.778-.287-4.5 2.5a101.955 101.955 0 0 0-13 5.5v3h-6v3h-6v3c-1.788-.285-3.455.048-5 1 1.129 2.029.629 2.363-1.5 1-1.712 3.452-4.212 4.452-7.5 3v3c-3.096-.593-5.429.407-7 3a47.25 47.25 0 0 1-7 3v3h-6v3c-1.788-.285-3.455.048-5 1a28.335 28.335 0 0 0-9.5 6l-1-1c-1.049 1.607-2.549 2.273-4.5 2 2.173 33.04 3.173 66.373 3 100h-14c.331-22.173-.003-44.173-1-66a112.97 112.97 0 0 0-.5-15c-3.681-2.86-7.848-3.693-12.5-2.5a58.12 58.12 0 0 1-11 5c-3.671 4.417-8.338 7.083-14 8a768.781 768.781 0 0 1-38.5 23.5 799.793 799.793 0 0 0-.5 40c-.968 2.107-1.302 4.441-1 7h-235c.268-1.599-.066-2.932-1-4v-84c5.1-.922 10.1-2.255 15-4l3 2a581.022 581.022 0 0 1 1.5 34l8.5 6.5a137.025 137.025 0 0 0 18 9 65.89 65.89 0 0 1 13 10c1.284.684 2.451.517 3.5-.5a58.317 58.317 0 0 0 10.5 7.5l17 9c2.058 3.397 5.058 5.063 9 5 14.128 10.813 27.462 9.813 40-3a94.29 94.29 0 0 0 22-11l4-4 19-9 4-4 10-4a13.92 13.92 0 0 0 3-4c6.893-1.779 12.893-5.112 18-10a91.311 91.311 0 0 0 23-13c5.048-1.356 9.381-4.023 13-8l22-11 23-15a51.42 51.42 0 0 0 14-8 1614.434 1614.434 0 0 0 40-21c2.857-2.87 6.19-4.87 10-6a1884.13 1884.13 0 0 1 86-50 113.606 113.606 0 0 1 28-15c1.729-1.789 2.396-3.956 2-6.5a4900.286 4900.286 0 0 0 1-140Z"/><path style="opacity:1" fill="#aaacad" d="M385.5 251.5c1.419-.951 3.085-1.284 5-1v39c-5.195-.321-10.195.013-15 1-.543-.06-.876-.393-1-1a57.15 57.15 0 0 1 15-1v-37h-4Z"/><path style="opacity:1" fill="#a8aaab" d="M409.5 250.5v38a57.15 57.15 0 0 1 15 1c-.124.607-.457.94-1 1-4.805-.987-9.805-1.321-15-1a380.934 380.934 0 0 1 1-39Z"/><path style="opacity:1" fill="#fdfdfd" d="M409.5 250.5c44.718 7.551 71.551 33.551 80.5 78 1.301 13.526.301 26.859-3 40a27.127 27.127 0 0 1-4.5 10 1466.605 1466.605 0 0 1-31.5-18c.716-5.092 2.882-9.592 6.5-13.5a624.938 624.938 0 0 0-50 0 866.79 866.79 0 0 0 25 41.5l8-12a805.256 805.256 0 0 1 33 19c-25.445 31.65-58.112 43.15-98 34.5-20.643-5.822-37.31-17.322-50-34.5a805.256 805.256 0 0 1 33-19l8 12a866.79 866.79 0 0 0 25-41.5 624.938 624.938 0 0 0-50 0c3.618 3.908 5.784 8.408 6.5 13.5a1466.605 1466.605 0 0 1-31.5 18c-16.109-40.081-8.775-75.248 22-105.5 13.623-11.492 29.29-18.659 47-21.5h4v37a57.15 57.15 0 0 0-15 1c.124.607.457.94 1 1a1245.557 1245.557 0 0 0 24 41 1245.557 1245.557 0 0 0 24-41c.543-.06.876-.393 1-1a57.15 57.15 0 0 0-15-1v-38Z"/><path style="opacity:1" fill="#f6f7f7" d="M518.5 560.5v8c-.961 1.765-1.295 3.765-1 6h-235c.237-1.291-.096-2.291-1-3v-8c.934 1.068 1.268 2.401 1 4h235c-.302-2.559.032-4.893 1-7Z"/><path style="opacity:1" fill="#f0f0f0" d="M201.5 563.5v25c-.904.709-1.237 1.709-1 3h-14v-24h14c-.268-1.599.066-2.932 1-4ZM518.5 568.5v11c-.951 1.419-1.284 3.085-1 5h-235c.237-1.291-.096-2.291-1-3v-10c.904.709 1.237 1.709 1 3h235c-.295-2.235.039-4.235 1-6Z"/><path style="opacity:1" fill="#f1f1f1" d="M595.5 501.5a1089.684 1089.684 0 0 1 1 66h14v24h-14c.306-2.885-.027-5.552-1-8v-82Z"/><path style="opacity:1" fill="#e9e9e9" d="M518.5 579.5v7c-.951 1.419-1.284 3.085-1 5h-235c.237-1.291-.096-2.291-1-3v-7c.904.709 1.237 1.709 1 3h235c-.284-1.915.049-3.581 1-5Z"/><path style="opacity:1" fill="#e1e2e2" d="M518.5 586.5v13c-.904.709-1.237 1.709-1 3-78.88.659-157.546-.007-236-2v-12c.904.709 1.237 1.709 1 3h235c-.284-1.915.049-3.581 1-5Z"/><path style="opacity:1" fill="#d8d9da" d="M201.5 588.5v25c-4.693 1.86-9.693 2.526-15 2v-24h14c-.237-1.291.096-2.291 1-3Z"/><path style="opacity:1" fill="#d5d6d7" d="M518.5 599.5c-.627 4.446-3.294 6.613-8 6.5-3.261 3.791-7.261 6.291-12 7.5h-199c-4.951-1.277-9.284-3.777-13-7.5a12.93 12.93 0 0 0-5-.5v-5a6992.225 6992.225 0 0 0 236 2c-.237-1.291.096-2.291 1-3Z"/><path style="opacity:1" fill="#d8d9da" d="M595.5 583.5c.973 2.448 1.306 5.115 1 8h14v24h-14c.284-1.915-.049-3.581-1-5v-27Z"/><path style="opacity:1" fill="#cacbcc" d="M299.5 613.5h199c-.453.958-1.119 1.792-2 2.5a98.758 98.758 0 0 0-12 5.5h-172c-1.808.009-3.475-.491-5-1.5a332.308 332.308 0 0 0-8-6.5Z"/><path style="opacity:1" fill="#c2c4c4" d="M312.5 621.5h172a37.827 37.827 0 0 1-10 6h-152a49.698 49.698 0 0 1-10-6Z"/><path style="opacity:1" fill="#babcbd" d="M322.5 627.5h152c-5.097 4.754-11.097 7.754-18 9h-116a51.303 51.303 0 0 1-14-5.5c-1.593-.949-2.926-2.115-4-3.5Z"/><path style="opacity:1" fill="#bdbfbf" d="M201.5 613.5v21c-4.693 1.86-9.693 2.526-15 2v-21c5.307.526 10.307-.14 15-2Z"/><path style="opacity:1" fill="#bbbdbe" d="M595.5 610.5c.951 1.419 1.284 3.085 1 5h14v26a61.281 61.281 0 0 1-15-1v-30Z"/><path style="opacity:1" fill="#adafb0" d="M340.5 636.5h116a25.14 25.14 0 0 1-4 4.5 249.627 249.627 0 0 0-15 7.5h-78c-7.386-2.396-13.719-6.396-19-12Z"/><path style="opacity:1" fill="#a0a2a3" d="M359.5 648.5h78a14.698 14.698 0 0 1-3 3.5c-3.005.533-5.672 1.7-8 3.5h-54a63.089 63.089 0 0 1-10-3.5 14.698 14.698 0 0 1-3-3.5Z"/><path style="opacity:1" fill="#a3a5a6" d="M201.5 634.5a98.432 98.432 0 0 0 .5 14c2.883 1.584 5.383 3.584 7.5 6-7.482.992-15.148 1.325-23 1v-19c5.307.526 10.307-.14 15-2Z"/><path style="opacity:1" fill="#9a9c9d" d="M595.5 640.5a61.281 61.281 0 0 0 15 1v21a342.787 342.787 0 0 1-37-1c4.996-2.136 9.663-4.97 14-8.5 3.743-3.54 6.41-7.707 8-12.5Z"/><path style="opacity:1" fill="#939596" d="M372.5 655.5h54c-9.155 4.538-17.989 9.871-26.5 16a141.615 141.615 0 0 1-27.5-16Z"/><path style="opacity:1" fill="#909394" d="M209.5 654.5a75.465 75.465 0 0 1 11 4.5c4.788 4.195 10.121 7.361 16 9.5a625.298 625.298 0 0 1-50 1v-14c7.852.325 15.518-.008 23-1Z"/><path style="opacity:1" fill="#8a8d8e" d="M573.5 661.5a342.787 342.787 0 0 0 37 1v11a729.55 729.55 0 0 1-54-1 212.145 212.145 0 0 1 14-10.5 4.934 4.934 0 0 1 3-.5Z"/><path style="opacity:1" fill="#838687" d="M236.5 668.5c4.758 3.43 9.758 6.43 15 9-21.494.997-43.16 1.331-65 1v-9c16.842.33 33.508-.003 50-1Z"/><path style="opacity:1" fill="#787b7d" d="M251.5 677.5a31.447 31.447 0 0 1 5 4.5c4.322 1.239 8.322 3.072 12 5.5a1156.835 1156.835 0 0 1-68 1c-2.363-.682-4.529-2.349-6.5-5-1.049 1.017-2.216 1.184-3.5.5l1-1c-2.208-1.047-3.874-2.547-5-4.5 21.84.331 43.506-.003 65-1Z"/><path style="opacity:1" fill="#797c7e" d="M556.5 672.5a729.55 729.55 0 0 0 54 1c-2.482 2.003-3.482 4.669-3 8-3.064 1.19-5.731 2.857-8 5-1.679-.215-2.679.452-3 2-22.839.331-45.506-.003-68-1a361.887 361.887 0 0 0 21-12.5 31.774 31.774 0 0 1 7-2.5Z"/><path style="opacity:1" fill="#747878" d="M599.5 686.5c1.333.667 1.333.667 0 0Z"/><path style="opacity:1" fill="#6b6e70" d="M268.5 687.5a218.713 218.713 0 0 1 17 10c-21.494.997-43.16 1.331-65 1a12.93 12.93 0 0 1-5-.5c-2.625-3.031-6.125-5.864-10.5-8.5l-1 1a19.602 19.602 0 0 1-3.5-2c22.839.331 45.506-.003 68-1ZM528.5 687.5c22.494.997 45.161 1.331 68 1a10480.68 10480.68 0 0 1-11 4v3c-1.859-.039-3.192.794-4 2.5a12.93 12.93 0 0 1-5 .5c-22.173.331-44.173-.003-66-1l18-10Z"/><path style="opacity:1" fill="#626667" d="M285.5 697.5a91.385 91.385 0 0 1 11 7c-22.16.997-44.494 1.331-67 1-2.14-3.113-5.14-4.446-9-4v-3c21.84.331 43.506-.003 65-1Z"/><path style="opacity:1" fill="#626567" d="M510.5 697.5c21.827.997 43.827 1.331 66 1v3c-2.582-.475-4.582.192-6 2-1.562.233-2.895.9-4 2-22.839.331-45.506-.003-68-1a89.294 89.294 0 0 1 12-7Z"/><path style="opacity:1" fill="#606565" d="M570.5 703.5c1.333.667 1.333.667 0 0Z"/><path style="opacity:1" fill="#595d5e" d="M296.5 704.5c6.877 2.602 13.21 5.935 19 10a1089.684 1089.684 0 0 1-66 1h-6v-3c-2.092-.061-3.592-1.061-4.5-3-1.299.466-2.799.466-4.5 0v-3c-1.915.284-3.581-.049-5-1 22.506.331 44.84-.003 67-1ZM498.5 704.5c22.494.997 45.161 1.331 68 1-1.068.934-2.401 1.268-4 1v3h-6v3a12.93 12.93 0 0 0-5 .5c-.808 1.706-2.141 2.539-4 2.5-22.173.331-44.173-.003-66-1a1198.926 1198.926 0 0 0 17-10Z"/><path style="opacity:1" fill="#4a4e50" d="M315.5 714.5a68.5 68.5 0 0 1 13 8.5l10 4c.752.671 1.086 1.504 1 2.5h-70v-3a8.43 8.43 0 0 1-4-.5c-4.85-3.699-10.184-6.199-16-7.5v-3c22.173.331 44.173-.003 66-1ZM481.5 714.5c21.827.997 43.827 1.331 66 1-1.098.897-1.098 1.73 0 2.5a118.288 118.288 0 0 0-17 7.5 10.756 10.756 0 0 0-2.5 3l-1-1c-1.049 1.607-2.549 2.273-4.5 2-21.84.331-43.506-.003-65-1l24-14Z"/><path style="opacity:1" fill="#3e4345" d="M274.5 729.5h65c2.016 1.513 4.349 2.347 7 2.5a70.087 70.087 0 0 0 14 8.5 1089.684 1089.684 0 0 1-66 1 8.43 8.43 0 0 1-4-.5c-1.497-1.871-3.497-2.871-6-3l1-1c-1.525-1.009-3.192-1.509-5-1.5v-3h-6v-3ZM457.5 728.5c21.494.997 43.16 1.331 65 1v3h-6v3h-5v3c-3.202 1.404-6.202 2.404-9 3-22.173.331-44.173-.003-66-1a243.736 243.736 0 0 0 21-12Z"/><path style="opacity:1" fill="#313537" d="M360.5 740.5c10.352 6.03 20.685 12.03 31 18h-68c-1.207-.689-2.541-.855-4-.5 1.333-.667 1.333-1.333 0-2a12.93 12.93 0 0 0-5-.5v-3a58.97 58.97 0 0 1-11-3v-3a557.717 557.717 0 0 1-7.5-3c-1.03-.336-1.53-1.003-1.5-2 22.173.331 44.173-.003 66-1ZM436.5 740.5c21.827.997 43.827 1.331 66 1l-15 10a9.108 9.108 0 0 1-5 1v3c-2.51-.446-4.51.22-6 2a5.727 5.727 0 0 0-3 1h-69c6.71-2.133 12.71-5.633 18-10.5 5.134-1.732 9.801-4.232 14-7.5Z"/><path style="opacity:1" fill="#2c3233" d="M476.5 757.5c1.333.667 1.333.667 0 0Z"/><path style="opacity:1" fill="#262b2d" d="M323.5 758.5h68c4.347 1.174 8.681 1.174 13 0h69c-.822 2.228-2.155 2.895-4 2-.886.825-1.219 1.825-1 3a12.93 12.93 0 0 0-5 .5c-1.497 1.871-3.497 2.871-6 3-1.307 2.324-3.307 3.657-6 4l2 1a12.93 12.93 0 0 1-5 .5v3a9.86 9.86 0 0 0-6 1 35.217 35.217 0 0 1-8 4v3h-6v3h-6v3a8.43 8.43 0 0 0-4 .5l-5 5c-1.284.684-2.451.517-3.5-.5-1.263 2.968-3.263 3.968-6 3a2.428 2.428 0 0 0-.5 2h-12c-.507-1.359-1.507-2.359-3-3a137.913 137.913 0 0 0-11-4v-3c-2.133-1.386-5.133-2.386-9-3v-3h-5v-3c-3.005.247-5.505-.753-7.5-3l-1 1a4.934 4.934 0 0 1-.5-3h-6v-3h-5v-3h-6v-3a82.648 82.648 0 0 1-13-6c-.798-.457-1.131-1.124-1-2Z"/></svg>