<?xml version="1.0" standalone="no"?>
<!DOCTYPE svg PUBLIC "-//W3C//DTD SVG 20010904//EN"
 "http://www.w3.org/TR/2001/REC-SVG-20010904/DTD/svg10.dtd">
<svg version="1.0" xmlns="http://www.w3.org/2000/svg"
 width="100.000000pt" height="100.000000pt" viewBox="0 0 100.000000 100.000000"
 preserveAspectRatio="xMidYMid meet">

<g transform="translate(0.000000,100.000000) scale(0.100000,-0.100000)"
fill="#000000" stroke="none">
<path d="M370 976 c-153 -43 -288 -169 -339 -319 -83 -240 26 -500 257 -614
73 -37 80 -38 196 -41 135 -4 197 11 287 68 318 204 302 683 -28 863 -100 54
-264 73 -373 43z m360 -241 c17 -21 5 -45 -24 -45 -27 0 -42 26 -25 46 15 18
33 18 49 -1z m-45 -68 c40 -14 40 -15 38 -63 -2 -31 0 -44 6 -35 7 11 13 10
34 -4 40 -26 44 -53 13 -84 -24 -24 -33 -26 -104 -25 -76 0 -230 27 -264 45
-13 7 -18 5 -18 -5 0 -15 34 -31 48 -22 5 3 35 -3 68 -13 33 -11 85 -22 117
-26 31 -4 59 -11 62 -15 10 -16 -17 -115 -37 -137 -67 -73 -246 -73 -306 0 -7
8 -21 61 -32 118 -11 57 -27 133 -36 168 -19 76 -13 86 63 107 63 18 292 12
348 -9z m92 7 c8 -21 -13 -42 -28 -27 -13 13 -5 43 11 43 6 0 13 -7 17 -16z"/>
<path d="M375 637 l-50 -13 60 -13 c59 -13 200 -10 254 5 l25 7 -25 9 c-42 16
-210 18 -264 5z"/>
<path d="M710 527 c0 -19 4 -25 15 -21 8 4 15 10 15 14 0 4 -7 13 -15 20 -13
11 -15 8 -15 -13z"/>
</g>
</svg>
