<?xml version="1.0" encoding="UTF-8"?>
<svg xmlns="http://www.w3.org/2000/svg" width="800" height="800" style="shape-rendering:geometricPrecision;text-rendering:geometricPrecision;image-rendering:optimizeQuality;fill-rule:evenodd;clip-rule:evenodd"><path style="opacity:1" fill="#f7d48e" d="M576.5-.5h9a2.429 2.429 0 0 0 .5 2c1.049-1.017 2.216-1.184 3.5-.5a20.495 20.495 0 0 0 2.5 3.5c1.356-.88 2.856-1.214 4.5-1v3c2.822 1.432 6.489 2.432 11 3v3c2.092.061 3.592 1.061 4.5 3 2.537-.677 4.537.323 6 3 2.361-.566 4.194.434 5.5 3l2-1c.35 2.067 2.017 3.067 5 3v3h6v3h5v3h6v3a27.247 27.247 0 0 0 9 3c-.219 1.175.114 2.175 1 3a6.846 6.846 0 0 1 4-1v3a8.435 8.435 0 0 1 4 .5c-1.154.914-.987 1.747.5 2.5 1.299-.466 2.799-.466 4.5 0v3h6v3h5v3a428.986 428.986 0 0 0 20 8.5l-2 1c2.522.61 4.522 1.943 6 4 1.634.493 3.301.66 5 .5v3c2.908-.238 5.242.762 7 3 .951-.826 1.951-.992 3-.5l-1 1a6.977 6.977 0 0 1 3.5 2.5l1-1c.483.948.649 1.948.5 3h6v3h5v3c1.951-.273 3.451.393 4.5 2l1-1c6 4.386 12.5 7.886 19.5 10.5l-1 1c1.525 1.009 3.192 1.509 5 1.5v3h6v3h5v3c2.041.354 3.874.354 5.5 0 .483.948.649 1.948.5 3 2.836 1.276 5.836 1.942 9 2a7971.884 7971.884 0 0 1 2 251c-3.013-.128-5.513.872-7.5 3-2.411-1.653-3.578-.987-3.5 2-1.701.466-3.201.466-4.5 0-3.844 1.975-7.177 4.642-10 8l-1-1c-1.049 1.607-2.549 2.273-4.5 2v3c-3.937.204-7.604 1.204-11 3 .381 2.442-.286 3.109-2 2-.886.825-1.219 1.825-1 3h-6v3a12.93 12.93 0 0 0-5 .5c-1.079 2.043-2.746 3.376-5 4l1 1a12.93 12.93 0 0 1-5 .5v3a9.86 9.86 0 0 0-6 1c-3.423 1.192-6.256 3.192-8.5 6l-1-1c-1.049 1.607-2.549 2.273-4.5 2v3h-6v3h-5v3c-2.185.388-4.018 1.388-5.5 3-2.278-1.12-3.778-.287-4.5 2.5a101.955 101.955 0 0 0-13 5.5v3h-6v3h-6v3c-1.788-.285-3.455.048-5 1 1.129 2.029.629 2.363-1.5 1-1.712 3.452-4.212 4.452-7.5 3v3c-3.096-.593-5.429.407-7 3a47.25 47.25 0 0 1-7 3v3h-6v3c-1.788-.285-3.455.048-5 1a28.335 28.335 0 0 0-9.5 6l-1-1c-1.049 1.607-2.549 2.273-4.5 2-.167 12.338 0 24.671.5 37 .414.457.914.791 1.5 1a3571.518 3571.518 0 0 1 0 169c-1.083 2.638-2.416 4.971-4 7a9751.23 9751.23 0 0 0-1-197v-36a15.024 15.024 0 0 0 8-2.5 2059.344 2059.344 0 0 0 74-44 112.343 112.343 0 0 1 17-8l5-5a377.475 377.475 0 0 0 23-12l8-6a190.921 190.921 0 0 0 21.5-10.5c.667-76 .667-152 0-228a36.078 36.078 0 0 0-3.5-4.5c-3.29-.253-6.29-1.253-9-3a29746.604 29746.604 0 0 1-46-28 457.332 457.332 0 0 0-22-11l-4-4a161.879 161.879 0 0 1-33-19c-6.4-2.062-12.067-5.396-17-10a1126.1 1126.1 0 0 0-31-16c-2.365-3.714-5.698-5.714-10-6-7.082-6.364-15.416-9.031-25-8a12271.425 12271.425 0 0 1-129 74c-7.588 4.924-7.921 10.257-1 16a287.246 287.246 0 0 1 25 16 496.946 496.946 0 0 1 33 18c4.333.667 8.667.667 13 0a3162.857 3162.857 0 0 1 66-36.5 4261.045 4261.045 0 0 0 114 65.5c.826 17.093 1.326 34.26 1.5 51.5l2 2c.5 28.331.667 56.665.5 85a12.93 12.93 0 0 0-5 .5 679.07 679.07 0 0 0-23 15l-4 1a285.632 285.632 0 0 1-33 18l-4 4a101.096 101.096 0 0 1-12 5.5c.167-54.001 0-108.001-.5-162-2.167-7.5-7-12.333-14.5-14.5-25.998-.5-51.998-.667-78-.5a713.94 713.94 0 0 0-50-28.5l-4-4a77.598 77.598 0 0 1-23-13 312.387 312.387 0 0 0-27-14c-1.918-2.928-4.585-4.594-8-5a10892.14 10892.14 0 0 0-27-17 326.577 326.577 0 0 1-27-14c-3.83-4.162-8.497-6.83-14-8a2084.03 2084.03 0 0 0-77-44c-9.098-8.801-19.765-11.801-32-9a583.354 583.354 0 0 0-33 19 175.013 175.013 0 0 0-28 16l-4 1-23 15a336.071 336.071 0 0 0-40 23c-5.503 1.171-10.17 3.837-14 8A579.672 579.672 0 0 0 38 129.5 3410.247 3410.247 0 0 0 36.5 245c-.152 38.537.348 77.037 1.5 115.5l9.5 5.5c1.374 3.683 4.04 5.349 8 5a13376.247 13376.247 0 0 0 116 67c4.091 1.227 7.591.394 10.5-2.5.101-3.2.768-6.2 2-9 .667-23.333.667-46.667 0-70a20.231 20.231 0 0 0-7.5-7.5 82.15 82.15 0 0 1-22-13c-3.993-.322-7.326-1.988-10-5-3.415-.406-6.082-2.072-8-5l-10-4c-4.032-3.676-8.699-6.176-14-7.5-.167-45.335 0-90.668.5-136 6.664-3.313 12.831-7.48 18.5-12.5 6.799-1.87 12.799-5.203 18-10a81.82 81.82 0 0 0 19-11c5.503-1.171 10.17-3.837 14-8a368.678 368.678 0 0 0 44-26c2.243.319 4.41.152 6.5-.5 4.064 4.134 8.897 6.967 14.5 8.5a131.76 131.76 0 0 0 17 10 320.348 320.348 0 0 1 24 16 445.595 445.595 0 0 1 55 31 222.638 222.638 0 0 1 12 5.5h-38a112.692 112.692 0 0 0-10-6.5 25.238 25.238 0 0 0-10 0l-2.5 2.5c-1.049-1.017-2.216-1.184-3.5-.5a157.284 157.284 0 0 1-6 4.5c-26.335-.167-52.669 0-79 .5-7.5 2.167-12.333 7-14.5 14.5-.5 121.333-.667 242.666-.5 364a20.69 20.69 0 0 0-5 1c.167-32.335 0-64.668-.5-97a1204.023 1204.023 0 0 0-28.5-16.5c-6.204-2.789-12.537-4.622-19-5.5v-3h-6v-3h-3v-3h-6v-3h-5v-3c-2.921.354-5.254-.646-7-3-1.714 1.109-2.381.442-2-2a58.97 58.97 0 0 1-11-3v-3a27.267 27.267 0 0 0-9-3v-3c-2.908.238-5.242-.762-7-3a3.647 3.647 0 0 0-1.5 1c-1.667-1-3-2.333-4-4l-1 1a4.932 4.932 0 0 1-.5-3h-6v-3h-5v-3a544.412 544.412 0 0 1-29-14v-3a58.967 58.967 0 0 1-11-3v-3h-6v-3c-4.013-1.674-8.013-3.341-12-5 .008-83.648.008-167.148 0-250.5a169.104 169.104 0 0 0 15-5.5v-3a58.967 58.967 0 0 0 11-3v-3a417.79 417.79 0 0 0 15-7 32.686 32.686 0 0 0 8.5-6l1 1c1.049-1.607 2.549-2.273 4.5-2v-3a59.029 59.029 0 0 1 11-3 4.932 4.932 0 0 1 .5-3l1 1c2.015-3.065 4.515-4.065 7.5-3v-3h5v-3c1.7.16 3.366-.007 5-.5 1.478-2.057 3.478-3.39 6-4l-2-1a18.436 18.436 0 0 1 6-.5v-3a87.51 87.51 0 0 0 14-5v-3h6v-3h5v-3c1.701-.466 3.201-.466 4.5 0 3.279-4.047 7.946-7.047 14-9a18.264 18.264 0 0 0 5-4l1 1c1.049-1.607 2.549-2.273 4.5-2v-3h5v-3h6v-3c4.612-1.195 9.279-2.862 14-5v-3c1.701-.466 3.201-.466 4.5 0 .908-1.939 2.408-2.939 4.5-3v-3h6v-3c1.788.285 3.455-.048 5-1a38.767 38.767 0 0 0 7-4.5 49.25 49.25 0 0 1 14 0c2.025 1.677 4.359 2.677 7 3-1.134 1.016-.801 1.683 1 2l5 1-1 1c2.622 3.073 5.955 4.573 10 4.5v3h6v3c3.191.262 5.858 1.596 8 4a9.864 9.864 0 0 0 6 1v3c3.58 1.22 7.247 2.386 11 3.5l-2 1c2.767.678 4.934 2.178 6.5 4.5l1-1c3.769 1.797 7.102 4.13 10 7a3.942 3.942 0 0 1 2-1c1.482 1.612 3.315 2.612 5.5 3v3h6v3h5v3h6v3a87.51 87.51 0 0 0 14 5v3c1.699-.16 3.366.007 5 .5l-1 1c1.525 1.009 3.192 1.509 5 1.5v3h6v3h5v3c2.985-1.065 5.485-.065 7.5 3l1-1c.483.948.649 1.948.5 3h5v3h6v3c2.133 1.386 5.133 2.386 9 3v3c2.908-.238 5.242.762 7 3l2-1c.35 2.067 2.017 3.067 5 3v3h6v3c2.516-.255 4.85-1.089 7-2.5a626.207 626.207 0 0 1 29-17c.837-1.011 1.17-2.178 1-3.5 4.493-.216 7.993-2.216 10.5-6 1.011.837 2.178 1.17 3.5 1v-3a59.031 59.031 0 0 0 11-3v-3c1.808.009 3.475-.491 5-1.5l-1-1a12.935 12.935 0 0 1 5-.5v-3a9.864 9.864 0 0 0 6-1 35.213 35.213 0 0 1 8-4v-3h6v-3a59.031 59.031 0 0 1 11-3v-3c1.808.009 3.475-.491 5-1.5-1.388-.89-1.222-1.39.5-1.5 2.071 1.167 3.571.5 4.5-2 6.434-2.343 12.767-5.343 19-9v-3a59.031 59.031 0 0 1 11-3 4.934 4.934 0 0 1 .5-3l1 1c1.995-2.247 4.495-3.247 7.5-3v-3h5v-3h6v-3c1.808.009 3.475-.491 5-1.5l-1-1a12.936 12.936 0 0 1 5-.5v-3c3.552.188 6.219-1.145 8-4Z"/><path style="opacity:1" fill="#273339" d="M604.5 448.5v-12a5838.284 5838.284 0 0 0 137-79.5 73.86 73.86 0 0 0 9-3.5 7901.316 7901.316 0 0 0-1.5-216 2129.254 2129.254 0 0 1-37.5-21.5c-3.415-.406-6.082-2.072-8-5a91.311 91.311 0 0 1-23-13 457.332 457.332 0 0 0-22-11c-2.508-3.042-5.508-5.376-9-7a457.332 457.332 0 0 1-22-11l-24-15c-3.415-.406-6.082-2.072-8-5a90.401 90.401 0 0 0-14-6c-5.722-6.435-12.722-8.768-21-7-7.36 5.663-15.36 9.996-24 13-3.619 3.977-7.952 6.644-13 8-2.537 2.546-5.537 4.212-9 5l-4 4-10 4a2551.356 2551.356 0 0 0-60 36 7185.005 7185.005 0 0 1 26 16 114.065 114.065 0 0 0 14 6c4.2 3.6 8.867 6.433 14 8.5a684.54 684.54 0 0 1 19-8.5 43.593 43.593 0 0 1 13-8c2.365-3.714 5.698-5.714 10-6a705.673 705.673 0 0 1 21-12c4.719-2.307 9.719-2.974 15-2a113.107 113.107 0 0 0 28 15l5 5a182.852 182.852 0 0 1 35 20 193.115 193.115 0 0 1 32 19 197.694 197.694 0 0 1 17 8 36.078 36.078 0 0 1 3.5 4.5c1.657 49.25 1.99 98.584 1 148-5.181 6.173-11.681 10.34-19.5 12.5a12318.477 12318.477 0 0 1-28 18c-6.381 2.027-12.048 5.361-17 10-6.943 1.604-12.943 4.937-18 10-2.56.384-4.894 1.217-7 2.5v-14a101.096 101.096 0 0 0 12-5.5l4-4a285.632 285.632 0 0 0 33-18l4-1a679.07 679.07 0 0 1 23-15 12.93 12.93 0 0 1 5-.5c.167-28.335 0-56.669-.5-85l-2-2c-.174-17.24-.674-34.407-1.5-51.5a4261.045 4261.045 0 0 1-114-65.5 3162.857 3162.857 0 0 0-66 36.5 42.479 42.479 0 0 1-13 0 496.946 496.946 0 0 0-33-18 287.246 287.246 0 0 0-25-16c-6.921-5.743-6.588-11.076 1-16a12271.425 12271.425 0 0 0 129-74c9.584-1.031 17.918 1.636 25 8 4.302.286 7.635 2.286 10 6a1126.1 1126.1 0 0 1 31 16c4.933 4.604 10.6 7.938 17 10a161.879 161.879 0 0 0 33 19l4 4a457.332 457.332 0 0 1 22 11 29746.604 29746.604 0 0 0 46 28c2.71 1.747 5.71 2.747 9 3a36.078 36.078 0 0 1 3.5 4.5c.667 76 .667 152 0 228a190.921 190.921 0 0 1-21.5 10.5l-8 6a377.475 377.475 0 0 1-23 12l-5 5a112.343 112.343 0 0 0-17 8 2059.344 2059.344 0 0 1-74 44 15.024 15.024 0 0 1-8 2.5Z"/><path style="opacity:1" fill="#283439" d="M511.5 181.5h-25c-2.667-3.162-6-5.329-10-6.5a327.567 327.567 0 0 0-42-24c-4.758-4.768-10.425-7.768-17-9-3.065-4.125-7.065-6.791-12-8l-6-5a546.6 546.6 0 0 0-35-18 108.394 108.394 0 0 1-19-13 425.826 425.826 0 0 1-41-23c-5.487-1.208-10.154-3.875-14-8a826.449 826.449 0 0 1-49-28 50.657 50.657 0 0 1-11.5-4.5A112.066 112.066 0 0 0 206.5 48l-10 4-3 3c-6.771 2.445-12.771 6.111-18 11l-10 4-4 4a520.666 520.666 0 0 0-59 34l-9 3c-3.796 3.592-8.13 6.259-13 8A361.546 361.546 0 0 1 48 137.5c-.667 72-.667 144 0 216a7214.146 7214.146 0 0 0 125 72c.5-21.664.667-43.331.5-65a340.197 340.197 0 0 0-18-8.5 55.63 55.63 0 0 0-18-10 78.488 78.488 0 0 0-23-13 56.965 56.965 0 0 0-10.5-7.5 5697.651 5697.651 0 0 1 0-151 6.978 6.978 0 0 1 2.5-3.5 146.497 146.497 0 0 0 31-18c8.372-3.019 16.038-7.352 23-13 5.093-1.382 9.426-4.049 13-8a90.42 90.42 0 0 0 14-6c1.918-2.928 4.585-4.594 8-5a226.438 226.438 0 0 1 29-17 42.498 42.498 0 0 1 13 0l4 4a154.79 154.79 0 0 0 13 6 1081.768 1081.768 0 0 0 33 20l4 1c8.98 5.636 17.98 11.302 27 17 7.27 1.913 13.604 5.58 19 11 4.75 1.03 8.75 3.363 12 7l10 4 4 4a222.128 222.128 0 0 1 15 7.5h-23a222.638 222.638 0 0 0-12-5.5 445.595 445.595 0 0 0-55-31 320.348 320.348 0 0 0-24-16 131.76 131.76 0 0 1-17-10c-5.603-1.533-10.436-4.366-14.5-8.5-2.09.652-4.257.819-6.5.5a368.678 368.678 0 0 1-44 26c-3.83 4.163-8.497 6.829-14 8a81.82 81.82 0 0 1-19 11c-5.201 4.797-11.201 8.13-18 10-5.669 5.02-11.836 9.187-18.5 12.5-.5 45.332-.667 90.665-.5 136 5.301 1.324 9.968 3.824 14 7.5l10 4c1.918 2.928 4.585 4.594 8 5 2.674 3.012 6.007 4.678 10 5a82.15 82.15 0 0 0 22 13 20.231 20.231 0 0 1 7.5 7.5c.667 23.333.667 46.667 0 70-1.232 2.8-1.899 5.8-2 9-2.909 2.894-6.409 3.727-10.5 2.5a13376.247 13376.247 0 0 1-116-67c-3.96.349-6.626-1.317-8-5l-9.5-5.5A3410.247 3410.247 0 0 1 36.5 245c-.152-38.537.348-77.037 1.5-115.5A579.672 579.672 0 0 1 80.5 107c3.83-4.163 8.497-6.829 14-8a336.071 336.071 0 0 1 40-23l23-15 4-1a175.013 175.013 0 0 1 28-16 583.354 583.354 0 0 1 33-19c12.235-2.801 22.902.199 32 9a2084.03 2084.03 0 0 1 77 44c5.503 1.17 10.17 3.838 14 8a326.577 326.577 0 0 0 27 14c8.98 5.636 17.98 11.302 27 17 3.415.406 6.082 2.072 8 5a312.387 312.387 0 0 1 27 14 77.598 77.598 0 0 0 23 13l4 4a713.94 713.94 0 0 1 50 28.5Z"/><path style="opacity:1" fill="#fdfdfd" d="M486.5 181.5h-108a222.128 222.128 0 0 0-15-7.5l-4-4-10-4c-3.25-3.637-7.25-5.97-12-7-5.396-5.42-11.73-9.087-19-11a10892.14 10892.14 0 0 0-27-17l-4-1a1081.768 1081.768 0 0 1-33-20 154.79 154.79 0 0 1-13-6l-4-4a42.498 42.498 0 0 0-13 0 226.438 226.438 0 0 0-29 17c-3.415.406-6.082 2.072-8 5a90.42 90.42 0 0 1-14 6c-3.574 3.951-7.907 6.618-13 8-6.962 5.648-14.628 9.981-23 13a146.497 146.497 0 0 1-31 18 6.978 6.978 0 0 0-2.5 3.5 5697.651 5697.651 0 0 0 0 151 56.965 56.965 0 0 1 10.5 7.5 78.488 78.488 0 0 1 23 13 55.63 55.63 0 0 1 18 10 340.197 340.197 0 0 1 18 8.5c.167 21.669 0 43.336-.5 65a7214.146 7214.146 0 0 1-125-72c-.667-72-.667-144 0-216A361.546 361.546 0 0 0 80.5 119c4.87-1.741 9.204-4.408 13-8l9-3a520.666 520.666 0 0 1 59-34l4-4 10-4c5.229-4.889 11.229-8.555 18-11l3-3 10-4A112.066 112.066 0 0 1 230 34.5a50.657 50.657 0 0 0 11.5 4.5 826.449 826.449 0 0 0 49 28c3.846 4.125 8.513 6.792 14 8a425.826 425.826 0 0 0 41 23 108.394 108.394 0 0 0 19 13 546.6 546.6 0 0 1 35 18l6 5c4.935 1.209 8.935 3.875 12 8 6.575 1.232 12.242 4.232 17 9a327.567 327.567 0 0 1 42 24c4 1.171 7.333 3.338 10 6.5Z"/><path style="opacity:1" fill="#fdfefe" d="M604.5 436.5v-64c2.106-1.283 4.44-2.116 7-2.5 5.057-5.063 11.057-8.396 18-10 4.952-4.639 10.619-7.973 17-10 9.313-5.969 18.646-11.969 28-18 7.819-2.16 14.319-6.327 19.5-12.5.99-49.416.657-98.75-1-148a36.078 36.078 0 0 0-3.5-4.5 197.694 197.694 0 0 0-17-8 193.115 193.115 0 0 0-32-19 182.852 182.852 0 0 0-35-20l-5-5a113.107 113.107 0 0 1-28-15c-5.281-.974-10.281-.307-15 2a705.673 705.673 0 0 0-21 12c-4.302.286-7.635 2.286-10 6a43.593 43.593 0 0 0-13 8 684.54 684.54 0 0 0-19 8.5 50.162 50.162 0 0 1-14-8.5 114.065 114.065 0 0 1-14-6 7185.005 7185.005 0 0 0-26-16 2551.356 2551.356 0 0 1 60-36l10-4 4-4c3.463-.788 6.463-2.454 9-5 5.048-1.356 9.381-4.023 13-8 8.64-3.004 16.64-7.337 24-13 8.278-1.768 15.278.565 21 7a90.401 90.401 0 0 1 14 6c1.918 2.928 4.585 4.594 8 5l24 15a457.332 457.332 0 0 0 22 11c3.492 1.624 6.492 3.958 9 7a457.332 457.332 0 0 1 22 11 91.311 91.311 0 0 0 23 13c1.918 2.928 4.585 4.594 8 5a2129.254 2129.254 0 0 0 37.5 21.5 7901.316 7901.316 0 0 1 1.5 216 73.86 73.86 0 0 1-9 3.5 5838.284 5838.284 0 0 1-137 79.5Z"/><path style="opacity:1" fill="#293439" d="M317.5 181.5h-32a157.284 157.284 0 0 0 6-4.5c1.284-.684 2.451-.517 3.5.5l2.5-2.5a25.238 25.238 0 0 1 10 0 112.692 112.692 0 0 1 10 6.5Z"/><path style="opacity:1" d="M285.5 181.5h226c26.002-.167 52.002 0 78 .5 7.5 2.167 12.333 7 14.5 14.5.5 53.999.667 107.999.5 162v126c-4.131-1.683-8.464-2.35-13-2v-224h-387v302h-13c-.167-121.334 0-242.667.5-364 2.167-7.5 7-12.333 14.5-14.5 26.331-.5 52.665-.667 79-.5Z"/><path style="opacity:1" fill="#acb1c5" d="M590.5 198.5v47h-385v-47a14.698 14.698 0 0 1 3-3.5c126.333-.667 252.667-.667 379 0a14.698 14.698 0 0 1 3 3.5Z"/><path style="opacity:1" fill="#6f727f" d="M205.5 198.5v47h385v-47a576.628 576.628 0 0 1 1 48h-387a576.628 576.628 0 0 1 1-48Z"/><path style="opacity:1" fill="#d2d5e0" d="M281.5 213.5h291v14h-291v-14Z"/><path style="opacity:1" fill="#656973" d="M249.5 214.5c4.47-.986 9.137-1.319 14-1 .318 4.532-.015 8.866-1 13v-12h-13Z"/><path style="opacity:1" fill="#fefefe" d="M282.5 214.5h289v12h-289v-12Z"/><path style="opacity:1" fill="#030303" d="M249.5 214.5h13v12h-13v-12Z"/><path style="opacity:1" fill="#f6f6f9" d="M223.5 213.5h14a84.902 84.902 0 0 1-.5 13c-4.401.967-8.901 1.3-13.5 1v-14Z"/><path style="opacity:1" fill="#dee0e9" d="M384.5 355.5v19a5625.947 5625.947 0 0 0-150 1 371.68 371.68 0 0 0-16.5 16c-.92 6.776-.586 13.443 1 20a326.819 326.819 0 0 0 15.5 15c1.068.934 2.401 1.268 4 1 2.728 4.237 6.061 8.071 10 11.5 45.332.5 90.665.667 136 .5v6h-26v14h66v-14h-26v-6c45.335.167 90.668 0 136-.5a2267.594 2267.594 0 0 0 50-19 440.042 440.042 0 0 1-21-8.5 297.083 297.083 0 0 1 13.5-6c2.074-3.291 1.908-6.457-.5-9.5a1838.266 1838.266 0 0 0-54-20.5 3843.432 3843.432 0 0 0-124-1v-19a2.428 2.428 0 0 1 2 .5c-1.559 2.642-1.225 4.975 1 7a117.978 117.978 0 0 0 23 5c16.696.853 33.363.52 50-1a894.287 894.287 0 0 0 36.5-8.5c26.632-4.444 53.132-3.777 79.5 2v122a6958.7 6958.7 0 0 0-118 .5c-.881.708-1.547 1.542-2 2.5l-2 22c-1.187-2.475-3.187-3.475-6-3a145.053 145.053 0 0 0-.5-17 14.828 14.828 0 0 0-6.5-2v-3a32.462 32.462 0 0 0-.5-8c-.708-.881-1.542-1.547-2.5-2-5.14-.988-10.474-1.321-16-1-.318 4.532.015 8.866 1 13h4a2500.447 2500.447 0 0 1-100 1v-1h5v-13a128.507 128.507 0 0 0-16 .5l-2.5 2.5-1 24a29.517 29.517 0 0 1-2.5 4.5c-8.892.402-12.226 5.068-10 14-2.052 8.604 1.281 13.271 10 14a20.499 20.499 0 0 0 2.5 3.5l1 25a6.978 6.978 0 0 0 3.5 2.5c4.989.499 9.989.666 15 .5v-13c-1.419-.951-3.085-1.284-5-1 .318-4.532-.015-8.866-1-13v-1a1296.178 1296.178 0 0 1 72-1v44c-25.336-.167-50.669 0-76 .5-1.323.816-1.989 1.983-2 3.5h-15a162.597 162.597 0 0 0-.5-18c-.816-1.323-1.983-1.989-3.5-2a361.608 361.608 0 0 0-38-1 380.934 380.934 0 0 0-1-39c.086-.996-.248-1.829-1-2.5-15-.667-30-.667-45 0-.752.671-1.086 1.504-1 2.5a380.934 380.934 0 0 0-1 39h-23v-197c21.047 4.788 42.381 6.288 64 4.5 21.344-4.005 42.677-8.005 64-12a191.355 191.355 0 0 1 47.5 2.5c3.063-.435 3.23-1.268.5-2.5a4.934 4.934 0 0 1 3-.5Z"/><path style="opacity:1" fill="#96989e" d="M591.5 482.5h-1v-223h-385v301h-1v-302h387v224Z"/><path style="opacity:1" fill="#65686e" d="M354.5 305.5a123.888 123.888 0 0 0-1 19c-.664-2.478-.997-5.145-1-8-.206-3.969.461-7.635 2-11Z"/><path style="opacity:1" fill="#ccd1e0" d="M590.5 309.5v51c-26.368-5.777-52.868-6.444-79.5-2a894.287 894.287 0 0 1-36.5 8.5 351.654 351.654 0 0 1-50 1 117.978 117.978 0 0 1-23-5c-2.225-2.025-2.559-4.358-1-7a2.428 2.428 0 0 0-2-.5c20.959-5.565 31.625-19.232 32-41 .904.709 1.237 1.709 1 3 26.772 1.712 52.772-1.788 78-10.5 27.168-3.961 54.168-3.128 81 2.5ZM354.5 304.5v1c-1.539 3.365-2.206 7.031-2 11 .003 2.855.336 5.522 1 8 4.072 16.739 14.405 27.072 31 31a4.934 4.934 0 0 0-3 .5c2.73 1.232 2.563 2.065-.5 2.5a191.355 191.355 0 0 0-47.5-2.5c-21.323 3.995-42.656 7.995-64 12-21.619 1.788-42.953.288-64-4.5v-51c27.225 5.981 54.558 6.481 82 1.5a561.003 561.003 0 0 1 32-8 266.329 266.329 0 0 1 35-1.5Z"/><path style="opacity:1" fill="#040302" d="M430.5 314.5c-.375 21.768-11.041 35.435-32 41-.991 6.479-1.324 13.146-1 20h125a1838.266 1838.266 0 0 1 54 20.5c2.408 3.043 2.574 6.209.5 9.5a297.083 297.083 0 0 0-13.5 6 1025.314 1025.314 0 0 0-42 15h-124c-.323 6.522.01 12.855 1 19 8.15.993 16.483 1.326 25 1v12h-64v-12h26v-20h-151a326.819 326.819 0 0 1-15.5-15c-1.586-6.557-1.92-13.224-1-20a371.68 371.68 0 0 1 16.5-16h151c.324-6.854-.009-13.521-1-20-16.595-3.928-26.928-14.261-31-31-.153-6.369.18-12.703 1-19v-1c11.871-24.48 30.537-31.647 56-21.5 11.842 7.177 18.508 17.677 20 31.5Z"/><path style="opacity:1" fill="#fa626c" d="M384.5 291.5c16.124-1.858 26.957 4.809 32.5 20 1.633 14.902-4.534 25.069-18.5 30.5-19.27 2.233-30.27-6.267-33-25.5 1.452-12.11 7.785-20.443 19-25Z"/><path style="opacity:1" fill="#f6f6f9" d="M385.5 304.5c8.308-2.041 14.474.626 18.5 8 1.746 8.109-1.087 13.942-8.5 17.5-7.702 1.565-13.202-1.268-16.5-8.5-.667-3-.667-6 0-9a76.332 76.332 0 0 1 6.5-8Z"/><path style="opacity:1" fill="#e9edf5" d="M590.5 309.5c-26.832-5.628-53.832-6.461-81-2.5-25.228 8.712-51.228 12.212-78 10.5.237-1.291-.096-2.291-1-3-1.492-13.823-8.158-24.323-20-31.5-25.463-10.147-44.129-2.98-56 21.5a266.329 266.329 0 0 0-35 1.5 561.003 561.003 0 0 0-32 8c-27.442 4.981-54.775 4.481-82-1.5v-53h385v50Z"/><path style="opacity:1" fill="#797a7f" d="M384.5 355.5c.991 6.479 1.324 13.146 1 20h-151a5625.947 5625.947 0 0 1 150-1v-19Z"/><path style="opacity:1" fill="#78797e" d="M398.5 355.5v19c41.503-.332 82.837.001 124 1h-125c-.324-6.854.009-13.521 1-20Z"/><path style="opacity:1" fill="#7e5d21" d="M515.5 388.5h-246v25c-.993-8.484-1.326-17.151-1-26 82.502-.333 164.835.001 247 1Z"/><path style="opacity:1" fill="#ffd34c" d="M478.5 388.5c-69.165.999-138.498 1.333-208 1v24h-1v-25h209Z"/><path style="opacity:1" fill="#8cd4f5" d="M239.5 388.5h16v25a145.053 145.053 0 0 1-17-.5c-10.911-8.631-10.578-16.797 1-24.5Z"/><path style="opacity:1" fill="#517b8e" d="M239.5 388.5c5.475-.989 11.142-1.322 17-1 .326 8.849-.007 17.516-1 26v-25h-16Z"/><path style="opacity:1" fill="#fec146" d="M478.5 388.5h1a130.086 130.086 0 0 1 2 25h-211v-24c69.502.333 138.835-.001 208-1Z"/><path style="opacity:1" fill="#fda325" d="M479.5 388.5h36c2.2 3.429 3.533 7.262 4 11.5a132.226 132.226 0 0 1-3 13.5h-35c.138-8.406-.529-16.74-2-25Z"/><path style="opacity:1" fill="#f2dbba" d="M531.5 394.5c.235-.597.735-.93 1.5-1a115.175 115.175 0 0 1 19.5 7.5 136.498 136.498 0 0 1-21 7.5c.658-2.656 1.325-5.322 2-8-.099-2.299-.766-4.299-2-6Z"/><path style="opacity:1" fill="#adb2c7" d="M563.5 411.5a440.042 440.042 0 0 0 21 8.5 2267.594 2267.594 0 0 1-50 19c-45.332.5-90.665.667-136 .5v-12c41.17.332 82.17-.001 123-1a1025.314 1025.314 0 0 1 42-15Z"/><path style="opacity:1" fill="#6c6f7c" d="M521.5 426.5c-40.83.999-81.83 1.332-123 1v18c-.99-6.145-1.323-12.478-1-19h124Z"/><path style="opacity:1" fill="#adb2c8" d="M238.5 427.5h146v12c-45.335.167-90.668 0-136-.5-3.939-3.429-7.272-7.263-10-11.5Z"/><path style="opacity:1" fill="#6c6e75" d="M234.5 426.5h151v20h-26v12h64v-12c-8.517.326-16.85-.007-25-1h26v14h-66v-14h26v-18h-146c-1.599.268-2.932-.066-4-1Z"/><path style="opacity:1" fill="#404145" d="M452.5 472.5h-15v12c-.985-4.134-1.318-8.468-1-13 5.526-.321 10.86.012 16 1Z"/><path style="opacity:1" fill="#090a0a" d="M341.5 484.5a33.485 33.485 0 0 0-9.5 3 393.51 393.51 0 0 1-1.5 27c-4 1.667-4 3.333 0 5a88.581 88.581 0 0 1 1.5 12c2.381.935 4.881 1.268 7.5 1-.172.992.162 1.658 1 2v15h6v13a112.97 112.97 0 0 1-15-.5 6.978 6.978 0 0 1-3.5-2.5l-1-25a20.499 20.499 0 0 1-2.5-3.5c-8.719-.729-12.052-5.396-10-14-2.226-8.932 1.108-13.598 10-14a29.517 29.517 0 0 0 2.5-4.5l1-24 2.5-2.5a128.507 128.507 0 0 1 16-.5v13h-5Z"/><path style="opacity:1" d="M452.5 472.5c.958.453 1.792 1.119 2.5 2 .497 2.646.664 5.313.5 8-.904.709-1.237 1.709-1 3h-12c0-.667-.333-1-1-1h-4v-12h15Z"/><path style="opacity:.997" fill="#293439" d="M455.5 482.5v3c2.327.165 4.493.831 6.5 2 .499 5.657.666 11.324.5 17v130c2.429-.085 4.429-1.085 6-3a343.225 343.225 0 0 0 1-37v-13a2304.214 2304.214 0 0 0 1-96c.453-.958 1.119-1.792 2-2.5a6958.7 6958.7 0 0 1 118-.5h1c4.536-.35 8.869.317 13 2a9751.23 9751.23 0 0 1 1 197c.167 10.672 0 21.339-.5 32l-1.5 1.5a536.183 536.183 0 0 1-56 1.5 772.829 772.829 0 0 0-68-.5 209.75 209.75 0 0 0-30 18c-6.4 2.062-12.067 5.396-17 10-6.761 1.869-12.761 5.202-18 10-3.978 2.407-8.311 4.073-13 5a12.494 12.494 0 0 1-7 0c-8.99-3.644-17.324-8.311-25-14l-4-1a279.412 279.412 0 0 0-19-12c-3.959.349-6.626-1.317-8-5-8.36-3.016-16.027-7.349-23-13a169.242 169.242 0 0 0-22-11c-11.4-8.753-23.733-15.753-37-21l-4-4a150.824 150.824 0 0 1-18-11 285.561 285.561 0 0 0-26-13 18.839 18.839 0 0 0-6.5-5.5 799.793 799.793 0 0 1-.5-40 61.281 61.281 0 0 1-15-1c-.722-.418-1.222-1.084-1.5-2-.667-14-.667-28 0-42 .278-.916.778-1.582 1.5-2a20.69 20.69 0 0 1 5-1h13c8.15.993 16.483 1.326 25 1v-40c-.086-.996.248-1.829 1-2.5 15-.667 30-.667 45 0 .752.671 1.086 1.504 1 2.5v40h39c1.517.011 2.684.677 3.5 2 .499 5.991.666 11.991.5 18v13a60.931 60.931 0 0 1-.5 11 9.454 9.454 0 0 1-1.5 2.5l-28 1a41.8 41.8 0 0 0 10 5l27 17a90.42 90.42 0 0 0 14 6 523.182 523.182 0 0 0 22 15c8.681 3.01 16.681 7.344 24 13a32.449 32.449 0 0 1 9 4c2.667.667 5.333.667 8 0a40.411 40.411 0 0 1 8.5-5.5c.5-12.996.667-25.996.5-39-25.336.167-50.669 0-76-.5l-1.5-1.5c-.5-9.327-.666-18.661-.5-28v-13c.011-1.517.677-2.684 2-3.5 25.331-.5 50.664-.667 76-.5v-44a1332.468 1332.468 0 0 0-73-1c-2.619.268-5.119-.065-7.5-1a88.581 88.581 0 0 0-1.5-12c1.333-1.667 1.333-3.333 0-5a393.51 393.51 0 0 0 1.5-27 33.485 33.485 0 0 1 9.5-3v1a1275.944 1275.944 0 0 0 101 0h12c-.237-1.291.096-2.291 1-3Z"/><path style="opacity:1" fill="#535d62" d="M441.5 484.5c.667 0 1 .333 1 1a1275.944 1275.944 0 0 1-101 0c33.504.332 66.838-.002 100-1Z"/><path style="opacity:1" fill="#c57a3f" d="M596.5 707.5v-216h-118v216a11770.92 11770.92 0 0 1-1-217h120a11770.92 11770.92 0 0 1-1 217Z"/><path style="opacity:1" fill="#fa9042" d="M596.5 707.5h-118v-216h118v216Z"/><path style="opacity:1" fill="#90623d" d="M339.5 493.5v31a1482.71 1482.71 0 0 1 77 1h-78c-.328-10.846.006-21.513 1-32Z"/><path style="opacity:1" fill="#fa9042" d="M339.5 493.5h115v214h-115v-30c25.669.167 51.335 0 77-.5 1.833-.5 3-1.667 3.5-3.5a756.122 756.122 0 0 0 0-55l-1.5-1.5c-25.331-.5-50.664-.667-76-.5v-31c25.336.167 50.669 0 76-.5l1.5-1.5a783.858 783.858 0 0 0 0-56c-.816-1.323-1.983-1.989-3.5-2a1482.71 1482.71 0 0 0-77-1v-31Z"/><path style="opacity:1" fill="#050606" d="M462.5 504.5c2.813-.475 4.813.525 6 3v17c-.231 2.563-1.565 4.23-4 5h-2v-25Z"/><path style="opacity:1" fill="#bdc0c8" d="M330.5 514.5c1.333 1.667 1.333 3.333 0 5-4-1.667-4-3.333 0-5Z"/><path style="opacity:1" fill="#747c83" d="M229.5 521.5v40c-8.517.326-16.85-.007-25-1h24a380.934 380.934 0 0 1 1-39Z"/><path style="opacity:1" fill="#273238" d="M514.5 522.5c15.337-.167 30.67 0 46 .5l1.5 1.5c.667 49.667.667 99.333 0 149l-1.5 1.5-23.5.5c-8.234-.017-16.234-.683-24-2a5547.726 5547.726 0 0 1 0-149c.717-.544 1.217-1.211 1.5-2Z"/><path style="opacity:1" fill="#90623d" d="M269.5 564.5a361.608 361.608 0 0 1-1-38h-31a361.608 361.608 0 0 1-1 38v-39h33v39Z"/><path style="opacity:1" fill="#fa9042" d="M269.5 564.5c.025 2.679 1.358 4.012 4 4a342.787 342.787 0 0 0 37 1v31c-12.671-.167-25.338 0-38 .5-1.926.422-2.926 1.589-3 3.5a380.934 380.934 0 0 0-1 39h-31a380.934 380.934 0 0 0-1-39c-.256-2.276-1.59-3.443-4-3.5a760.316 760.316 0 0 0-39-.5v-31a380.934 380.934 0 0 0 39-1c2.333-.333 3.667-1.667 4-4a361.608 361.608 0 0 0 1-38h31a361.608 361.608 0 0 0 1 38Z"/><path style="opacity:1" fill="#555e64" d="M470.5 485.5c.332 32.171-.002 64.171-1 96v-1a784.68 784.68 0 0 0-1-56v-17l2-22Z"/><path style="opacity:1" fill="#dee0e9" d="M468.5 524.5a784.68 784.68 0 0 1 1 56h-6a664.474 664.474 0 0 1 1-51c2.435-.77 3.769-2.437 4-5Z"/><path style="opacity:1" fill="#aeb2ba" d="M462.5 529.5h2a664.474 664.474 0 0 0-1 51h6v1h-7v-52Z"/><path style="opacity:1" fill="#dee0e9" d="M554.5 581.5h-34v-51h34v51Z"/><path style="opacity:1" fill="#80878f" d="M339.5 532.5c24.506-.331 48.839.002 73 1-24.172-.331-48.172.002-72 1-.838-.342-1.172-1.008-1-2Z"/><path style="opacity:1" fill="#64666b" d="M340.5 535.5c.985 4.134 1.318 8.468 1 13 1.915-.284 3.581.049 5 1h-6v-14Z"/><path style="opacity:1" fill="#626b72" d="M276.5 521.5a380.934 380.934 0 0 1 1 39 361.608 361.608 0 0 1 38 1h-39v-40Z"/><path style="opacity:1" fill="#b5723f" d="M232.5 568.5a380.934 380.934 0 0 1-39 1v31c-.994-10.487-1.328-21.154-1-32h40Z"/><path style="opacity:1" fill="#c57a3f" d="M273.5 568.5h38c.328 10.846-.006 21.513-1 32v-31a342.787 342.787 0 0 1-37-1Z"/><path style="opacity:1" fill="#010000" d="M319.5 581.5h15v13h-15v-13Z"/><path style="opacity:1" fill="#020202" d="M462.5 581.5h7v13h-7v-13Z"/><path style="opacity:1" d="M520.5 581.5h34v13h-34v-13Z"/><path style="opacity:1" fill="#f7d38e" d="M319.5 594.5h15c-.166 9.339 0 18.673.5 28l1.5 1.5c25.331.5 50.664.667 76 .5.167 13.004 0 26.004-.5 39a40.411 40.411 0 0 0-8.5 5.5 16.242 16.242 0 0 1-8 0 32.449 32.449 0 0 0-9-4c-7.319-5.656-15.319-9.99-24-13a523.182 523.182 0 0 1-22-15 90.42 90.42 0 0 1-14-6l-27-17a41.8 41.8 0 0 1-10-5l28-1a9.454 9.454 0 0 0 1.5-2.5c.499-3.652.665-7.318.5-11Z"/><path style="opacity:1" fill="#f1ce8b" d="M462.5 594.5h7a343.225 343.225 0 0 1-1 37c-1.571 1.915-3.571 2.915-6 3v-40Z"/><path style="opacity:1" fill="#fefefe" d="M527.5 594.5h27c.167 21.336 0 42.669-.5 64a324.606 324.606 0 0 0-14.5 9h-19v-52a63.382 63.382 0 0 1 6.5-5c.499-5.323.666-10.656.5-16Z"/><path style="opacity:1" fill="#91623e" d="M236.5 604.5a380.934 380.934 0 0 1 1 39h31a380.934 380.934 0 0 1 1-39v40h-33v-40Z"/><path style="opacity:1" fill="#f7d48e" d="M186.5 607.5a61.281 61.281 0 0 0 15 1c-.167 13.337 0 26.671.5 40a18.839 18.839 0 0 1 6.5 5.5 285.561 285.561 0 0 1 26 13 150.824 150.824 0 0 0 18 11l4 4c13.267 5.247 25.6 12.247 37 21a169.242 169.242 0 0 1 22 11c6.973 5.651 14.64 9.984 23 13 1.374 3.683 4.041 5.349 8 5a279.412 279.412 0 0 1 19 12l4 1c7.676 5.689 16.01 10.356 25 14 2.333.667 4.667.667 7 0 4.689-.927 9.022-2.593 13-5 5.239-4.798 11.239-8.131 18-10 4.933-4.604 10.6-7.938 17-10a209.75 209.75 0 0 1 30-18 772.829 772.829 0 0 1 68 .5c-1.238.31-1.238.81 0 1.5a118.288 118.288 0 0 0-17 7.5 10.756 10.756 0 0 0-2.5 3l-1-1c-1.049 1.607-2.549 2.273-4.5 2v3h-6v3h-5v3c-2.524-.071-4.524.929-6 3-2.12-1.372-3.12-.705-3 2a12.93 12.93 0 0 0-5 .5 101.657 101.657 0 0 0-10 7.5 9.108 9.108 0 0 1-5 1v3c-2.51-.446-4.51.22-6 2-2.216.703-4.049 2.036-5.5 4-1.813-1.109-2.646-.442-2.5 2a12.93 12.93 0 0 0-5 .5c-1.497 1.871-3.497 2.871-6 3-1.307 2.324-3.307 3.657-6 4l2 1a12.93 12.93 0 0 1-5 .5v3a9.86 9.86 0 0 0-6 1 35.217 35.217 0 0 1-8 4v3h-6v3h-6v3a8.43 8.43 0 0 0-4 .5l-5 5c-1.284.684-2.451.517-3.5-.5-1.263 2.968-3.263 3.968-6 3a2.428 2.428 0 0 0-.5 2h-12c-.507-1.359-1.507-2.359-3-3a137.913 137.913 0 0 0-11-4v-3c-2.133-1.386-5.133-2.386-9-3v-3h-5v-3c-3.005.247-5.505-.753-7.5-3l-1 1a4.934 4.934 0 0 1-.5-3h-6v-3h-5v-3h-6v-3c-5.922-1.727-11.089-4.727-15.5-9-.718.951-1.551 1.117-2.5.5 1.333-.667 1.333-1.333 0-2a12.93 12.93 0 0 0-5-.5v-3a58.97 58.97 0 0 1-11-3v-3c-8.654-3.265-16.321-6.932-23-11v-3h-6v-3h-5v-3a8.43 8.43 0 0 1-4-.5c-4.85-3.699-10.184-6.199-16-7.5v-3h-6v-3c-2.092-.061-3.592-1.061-4.5-3-1.299.466-2.799.466-4.5 0v-3c-1.788.285-3.455-.048-5-1-2.158-3.144-5.158-4.477-9-4v-3a12.93 12.93 0 0 1-5-.5c-2.625-3.031-6.125-5.864-10.5-8.5-2.537.677-4.537-.323-6-3l-1 1c-1.667-1-3-2.333-4-4-1.049 1.017-2.216 1.184-3.5.5l1-1a15.645 15.645 0 0 1-4-2.5c-1-24.324-1.333-48.658-1-73Z"/><path style="opacity:1" fill="#f5f5f6" d="M232.5 651.5v1c-3.467.054-6.134-1.446-8-4.5a46.99 46.99 0 0 1-10.5-5.5 577.896 577.896 0 0 1-.5-34h16c-.167 14.004 0 28.004.5 42 .671.752 1.504 1.086 2.5 1Z"/><path style="opacity:1" fill="#656d71" d="M520.5 615.5v52h19c-6.479.991-13.146 1.324-20 1a702.728 702.728 0 0 1 1-53Z"/><path style="opacity:1" fill="#8f9598" d="m278.5 617.5-2 31a256.827 256.827 0 0 1 1-32c.607.124.94.457 1 1Z"/><path style="opacity:1" fill="#fdfdfd" d="M278.5 617.5a65.813 65.813 0 0 0 13 5.5 27.816 27.816 0 0 1 8 6 420.445 420.445 0 0 0 32 17c3.705 4.342 8.372 7.009 14 8a152.07 152.07 0 0 0 22 13.5l-33 2c-2 0-3 1-3 3l-2 36c-7.586-2.084-14.252-5.917-20-11.5-5.093-1.382-9.426-4.049-13-8-6.4-2.062-12.067-5.396-17-10l-10-4-4-4a90.42 90.42 0 0 1-14-6l-4-4a112.041 112.041 0 0 1-14-7.5l40-2c2 0 3-1 3-3l2-31Z"/><path style="opacity:1" fill="#f6f7f7" d="M468.5 644.5a684.92 684.92 0 0 1 .5 64 14.828 14.828 0 0 1-6.5 2c-.167-20.669 0-41.336.5-62a59.93 59.93 0 0 1 5.5-4Z"/><path style="opacity:1" fill="#93999c" d="M232.5 651.5h41l-40 2c-.667 0-1-.333-1-1v-1Z"/><path style="opacity:1" fill="#c6c9ca" d="M367.5 667.5c.789.283 1.456.783 2 1.5-11.662.5-23.329.667-35 .5l33-2Z"/><path style="opacity:1" fill="#93989b" d="M331.5 672.5a343.225 343.225 0 0 1-1 37c-.607-.124-.94-.457-1-1l2-36Z"/><path style="opacity:1" fill="#bc753f" d="M339.5 677.5v30h115a3363.08 3363.08 0 0 1-116 1c-.328-10.514.006-20.847 1-31Z"/><path style="opacity:1" fill="#fcfcfc" d="M342.5 717.5a2094.75 2094.75 0 0 1 112-.5c-4.69 1.17-8.69 3.503-12 7-6.858 2.879-13.191 6.546-19 11a115.786 115.786 0 0 0-25 13.5 97.288 97.288 0 0 0-12-5.5c-3.543-1.608-6.543-3.942-9-7-5.662-.917-10.329-3.583-14-8-6.538-2.271-12.538-5.605-18-10a4.934 4.934 0 0 0-3-.5Z"/><path style="opacity:1" fill="#f8d58e" d="M476.5 757.5c1.333.667 1.333.667 0 0Z"/></svg>