<?xml version="1.0" encoding="UTF-8"?><svg xmlns="http://www.w3.org/2000/svg" width="800" height="800" style="shape-rendering:geometricPrecision;text-rendering:geometricPrecision;image-rendering:optimizeQuality;fill-rule:evenodd;clip-rule:evenodd"><path style="opacity:1" fill="#bf123b" d="M576.5-.5h9a2.429 2.429 0 0 0 .5 2c1.049-1.017 2.216-1.184 3.5-.5a20.495 20.495 0 0 0 2.5 3.5c1.356-.88 2.856-1.214 4.5-1v3c2.822 1.432 6.489 2.432 11 3v3c2.092.061 3.592 1.061 4.5 3 2.537-.677 4.537.323 6 3 2.361-.566 4.194.434 5.5 3l2-1c.35 2.067 2.017 3.067 5 3v3h6v3h5v3h6v3a27.247 27.247 0 0 0 9 3c-.219 1.175.114 2.175 1 3a6.846 6.846 0 0 1 4-1v3a8.435 8.435 0 0 1 4 .5c-1.154.914-.987 1.747.5 2.5 1.299-.466 2.799-.466 4.5 0v3h6v3h5v3a428.986 428.986 0 0 0 20 8.5l-2 1c2.522.61 4.522 1.943 6 4 1.634.493 3.301.66 5 .5v3c2.908-.238 5.242.762 7 3 .951-.826 1.951-.992 3-.5l-1 1a6.977 6.977 0 0 1 3.5 2.5l1-1c.483.948.649 1.948.5 3h6v3h5v3c1.951-.273 3.451.393 4.5 2l1-1c6 4.386 12.5 7.886 19.5 10.5l-1 1c1.525 1.009 3.192 1.509 5 1.5v3h6v3h5v3c2.041.354 3.874.354 5.5 0 .483.948.649 1.948.5 3 2.836 1.276 5.836 1.942 9 2a1342.537 1342.537 0 0 1 2 102c-9.881.429-19.881.429-30 0 .331-27.172-.002-54.172-1-81-.626-2.815-1.96-5.315-4-7.5-3.29-.253-6.29-1.253-9-3a29746.604 29746.604 0 0 1-46-28 457.332 457.332 0 0 0-22-11l-4-4a161.879 161.879 0 0 1-33-19c-6.4-2.062-12.067-5.396-17-10a1126.1 1126.1 0 0 0-31-16c-2.365-3.714-5.698-5.714-10-6-7.082-6.364-15.416-9.031-25-8a12271.425 12271.425 0 0 1-129 74c-7.588 4.924-7.921 10.257-1 16 2.868.861 5.202 2.528 7 5a239.372 239.372 0 0 1 16 8.5c-4.057 5.193-9.057 9.193-15 12a706.602 706.602 0 0 0-27-15 183.36 183.36 0 0 1-1.5-18c-1.848-2.541-4.348-3.541-7.5-3a355.099 355.099 0 0 1 31-18.5c.837-1.011 1.17-2.178 1-3.5 4.493-.216 7.993-2.216 10.5-6 1.011.837 2.178 1.17 3.5 1v-3a59.031 59.031 0 0 0 11-3v-3c1.808.009 3.475-.491 5-1.5l-1-1a12.935 12.935 0 0 1 5-.5v-3a9.864 9.864 0 0 0 6-1 35.213 35.213 0 0 1 8-4v-3h6v-3a59.031 59.031 0 0 1 11-3v-3c1.808.009 3.475-.491 5-1.5-1.388-.89-1.222-1.39.5-1.5 2.071 1.167 3.571.5 4.5-2 6.434-2.343 12.767-5.343 19-9v-3a59.031 59.031 0 0 1 11-3 4.934 4.934 0 0 1 .5-3l1 1c1.995-2.247 4.495-3.247 7.5-3v-3h5v-3h6v-3c1.808.009 3.475-.491 5-1.5l-1-1a12.936 12.936 0 0 1 5-.5v-3c3.552.188 6.219-1.145 8-4ZM268.5 27.5a52.511 52.511 0 0 1-7 10 183.48 183.48 0 0 0-24.5-14 138.219 138.219 0 0 1-14.5 1.5 583.354 583.354 0 0 0-33 19 175.013 175.013 0 0 0-28 16l-4 1-23 15a336.071 336.071 0 0 0-40 23c-5.503 1.171-10.17 3.837-14 8a133.395 133.395 0 0 0-32 18c-2.71 1.747-5.71 2.747-9 3-1.621 2.166-2.455 4.666-2.5 7.5a3281.02 3281.02 0 0 0-.5 81c-9.881.429-19.881.429-30 0 .02-33.982.02-67.815 0-101.5a169.104 169.104 0 0 0 15-5.5v-3a58.967 58.967 0 0 0 11-3v-3a417.79 417.79 0 0 0 15-7 32.686 32.686 0 0 0 8.5-6l1 1c1.049-1.607 2.549-2.273 4.5-2v-3a59.029 59.029 0 0 1 11-3 4.932 4.932 0 0 1 .5-3l1 1c2.015-3.065 4.515-4.065 7.5-3v-3h5v-3c1.7.16 3.366-.007 5-.5 1.478-2.057 3.478-3.39 6-4l-2-1a18.436 18.436 0 0 1 6-.5v-3a87.51 87.51 0 0 0 14-5v-3h6v-3h5v-3c1.701-.466 3.201-.466 4.5 0 3.279-4.047 7.946-7.047 14-9a18.264 18.264 0 0 0 5-4l1 1c1.049-1.607 2.549-2.273 4.5-2v-3h5v-3h6v-3c4.612-1.195 9.279-2.862 14-5v-3c1.701-.466 3.201-.466 4.5 0 .908-1.939 2.408-2.939 4.5-3v-3h6v-3c1.788.285 3.455-.048 5-1a38.767 38.767 0 0 0 7-4.5 49.25 49.25 0 0 1 14 0c2.025 1.677 4.359 2.677 7 3-1.134 1.016-.801 1.683 1 2l5 1-1 1c2.622 3.073 5.955 4.573 10 4.5v3h6v3c3.191.262 5.858 1.596 8 4a9.864 9.864 0 0 0 6 1v3c1.915-.285 3.581.049 5 1Z"/><path style="opacity:1" fill="#273339" d="M761.5 135.5v224c-.453.958-1.119 1.792-2 2.5a113.606 113.606 0 0 0-28 15 377.475 377.475 0 0 1-23 12 46.081 46.081 0 0 1-6 5.5 148.574 148.574 0 0 0-27 15 4.934 4.934 0 0 0-3 .5 1353.552 1353.552 0 0 1-25 15.5 377.78 377.78 0 0 0-29 17 181 181 0 0 0-29 16c-5.131 1.791-9.798 4.458-14 8a90.82 90.82 0 0 0-17 10.5 4.934 4.934 0 0 1-3 .5 157.669 157.669 0 0 1-14 9c-4.942 1.752-9.275 4.585-13 8.5-4.221.72-7.888 2.554-11 5.5a118.029 118.029 0 0 1-17 8.5 14.698 14.698 0 0 0-3 3.5c-1.395-4.091-2.062-8.424-2-13 5.49-3.031 10.823-6.531 16-10.5l22-11c3.619-3.977 7.952-6.644 13-8 2.537-2.546 5.537-4.212 9-5 1.918-2.928 4.585-4.594 8-5a7430.748 7430.748 0 0 1 128-73l4-4a114.302 114.302 0 0 0 13-6 846.02 846.02 0 0 0 33-20 73.86 73.86 0 0 0 9-3.5 7901.316 7901.316 0 0 0-1.5-216 2129.254 2129.254 0 0 1-37.5-21.5c-3.415-.406-6.082-2.072-8-5a91.311 91.311 0 0 1-23-13 457.332 457.332 0 0 0-22-11c-2.508-3.042-5.508-5.376-9-7a457.332 457.332 0 0 1-22-11l-24-15c-3.415-.406-6.082-2.072-8-5a90.401 90.401 0 0 0-14-6c-5.722-6.435-12.722-8.768-21-7-7.36 5.663-15.36 9.996-24 13-3.619 3.977-7.952 6.644-13 8-2.537 2.546-5.537 4.212-9 5l-4 4-10 4a2551.356 2551.356 0 0 0-60 36 7185.005 7185.005 0 0 1 26 16 114.065 114.065 0 0 0 14 6c4.2 3.6 8.867 6.433 14 8.5a684.54 684.54 0 0 1 19-8.5 43.593 43.593 0 0 1 13-8c2.365-3.714 5.698-5.714 10-6a705.673 705.673 0 0 1 21-12c4.719-2.307 9.719-2.974 15-2a113.107 113.107 0 0 0 28 15l5 5a182.852 182.852 0 0 1 35 20 193.115 193.115 0 0 1 32 19 197.694 197.694 0 0 1 17 8 69.2 69.2 0 0 1 4.5 6.5c.667 48.667.667 97.333 0 146-5.181 6.173-11.681 10.34-19.5 12.5a12318.477 12318.477 0 0 1-28 18c-6.381 2.027-12.048 5.361-17 10-6.943 1.604-12.943 4.937-18 10a59.724 59.724 0 0 0-20 11 146.497 146.497 0 0 0-31 18c-6.4 2.062-12.067 5.396-17 10-3.005.533-5.672 1.7-8 3.5h-1a131.363 131.363 0 0 1-9-4 5.727 5.727 0 0 0-1-3 9931.735 9931.735 0 0 0 34-20 865.177 865.177 0 0 0 35-20.5l4-1a35.406 35.406 0 0 0 7-5.5 4507.317 4507.317 0 0 1 29-16 72.452 72.452 0 0 0 14-8 260.46 260.46 0 0 1 13-7c3.141-2.507 6.474-4.507 10-6a59.648 59.648 0 0 0 11-7h3c.994-9.819 1.327-19.819 1-30a756.853 756.853 0 0 0-1-55c-.333-1-1-1.667-2-2v-9a457.546 457.546 0 0 0-1-42.5 4261.045 4261.045 0 0 1-114-65.5 3162.857 3162.857 0 0 0-66 36.5 42.479 42.479 0 0 1-13 0 454.796 454.796 0 0 0-23-12.5c.949-9.543-3.051-12.21-12-8a239.372 239.372 0 0 0-16-8.5c-1.798-2.472-4.132-4.139-7-5-6.921-5.743-6.588-11.076 1-16a12271.425 12271.425 0 0 0 129-74c9.584-1.031 17.918 1.636 25 8 4.302.286 7.635 2.286 10 6a1126.1 1126.1 0 0 1 31 16c4.933 4.604 10.6 7.938 17 10a161.879 161.879 0 0 0 33 19l4 4a457.332 457.332 0 0 1 22 11 29746.604 29746.604 0 0 0 46 28c2.71 1.747 5.71 2.747 9 3 2.04 2.185 3.374 4.685 4 7.5Z"/><path style="opacity:1" fill="#283339" d="M261.5 37.5c-1.175 3.683-2.841 7.016-5 10a420.746 420.746 0 0 1-22-11.5 15.28 15.28 0 0 1-4.5-1.5A112.066 112.066 0 0 0 206.5 48a190.467 190.467 0 0 0-22 11c-3.492 1.624-6.492 3.958-9 7l-10 4-4 4a520.666 520.666 0 0 0-59 34l-9 3c-3.796 3.592-8.13 6.259-13 8A361.546 361.546 0 0 1 48 137.5c-.667 72-.667 144 0 216a7214.146 7214.146 0 0 0 125 72c.5-21.664.667-43.331.5-65a340.197 340.197 0 0 0-18-8.5 55.63 55.63 0 0 0-18-10 78.488 78.488 0 0 0-23-13 56.965 56.965 0 0 0-10.5-7.5 5697.651 5697.651 0 0 1 0-151 6.978 6.978 0 0 1 2.5-3.5 146.497 146.497 0 0 0 31-18c8.372-3.019 16.038-7.352 23-13 5.093-1.382 9.426-4.049 13-8a90.42 90.42 0 0 0 14-6c1.918-2.928 4.585-4.594 8-5a226.438 226.438 0 0 1 29-17 42.498 42.498 0 0 1 13 0l4 4a62.873 62.873 0 0 0 13 5.5 6.547 6.547 0 0 0 3 3c.342.838 1.008 1.172 2 1 .79.901 1.79 1.568 3 2a62.115 62.115 0 0 1 10 5c-2.48 3.124-4.48 6.457-6 10a797.67 797.67 0 0 0-29-15.5l-4.5-4.5c-2.09.652-4.257.819-6.5.5a368.678 368.678 0 0 1-44 26c-3.83 4.163-8.497 6.829-14 8a81.82 81.82 0 0 1-19 11c-5.201 4.797-11.201 8.13-18 10-4.849 4.198-10.183 7.531-16 10l-2.5 2.5a799.793 799.793 0 0 0-.5 40v94c3.139 2.77 6.806 4.77 11 6a14.698 14.698 0 0 0 3 3.5 114.09 114.09 0 0 0 12 5.5c.453.958 1.119 1.792 2 2.5a23.077 23.077 0 0 1 9 4.5c4.835 2.092 9.501 4.759 14 8 3.963 2.618 8.296 4.785 13 6.5a20.231 20.231 0 0 1 7.5 7.5c.5 9.994.666 19.994.5 30v40c-.617.111-1.117.444-1.5 1 .871 8.799-2.962 12.299-11.5 10.5a43.12 43.12 0 0 0-8-4.5 12999.216 12999.216 0 0 0-28-16 513.272 513.272 0 0 1-26-15.5 4.934 4.934 0 0 0-3-.5 416.229 416.229 0 0 0-30-18 385.576 385.576 0 0 1-21-12.5c-3.96.349-6.626-1.317-8-5l-8-4c-1.574-1.826-2.407-3.993-2.5-6.5a40.939 40.939 0 0 1-.5-9v-130c-.167-27.002 0-54.002.5-81 .045-2.834.879-5.334 2.5-7.5 3.29-.253 6.29-1.253 9-3a133.395 133.395 0 0 1 32-18c3.83-4.163 8.497-6.829 14-8a336.071 336.071 0 0 1 40-23l23-15 4-1a175.013 175.013 0 0 1 28-16 583.354 583.354 0 0 1 33-19c4.872-.246 9.705-.746 14.5-1.5a183.48 183.48 0 0 1 24.5 14Z"/><path style="opacity:.995" fill="#3c3a49" d="M298.5 46.5c1.613 4.507 2.279 9.173 2 14-.454 3.866-1.788 7.366-4 10.5.556.383.889.883 1 1.5a4.932 4.932 0 0 0-3 .5c-2.457 3.058-5.457 5.392-9 7l23 1c1.857 1.182 2.857 2.849 3 5a261.704 261.704 0 0 1-12.5 25.5l-1.5 1.5a42.769 42.769 0 0 0-9 1.5 153.55 153.55 0 0 1 7 15 19.048 19.048 0 0 1 1 6c1.291-.237 2.291.096 3 1-.597.235-.93.735-1 1.5a296.377 296.377 0 0 1 6 15.5 169.316 169.316 0 0 1 7 19.5c1.162 3.003 2.829 5.503 5 7.5-.543.06-.876.393-1 1a148.278 148.278 0 0 0 6 15 934 934 0 0 0 13 33c-1.525 1.716-2.525 3.716-3 6-4.165.027-7.332-1.64-9.5-5a1071.576 1071.576 0 0 0-25.5-65 42.95 42.95 0 0 0-5.5-13l-3-12a98.88 98.88 0 0 1-5-10c-2.894-1.115-4.061.052-3.5 3.5a3746.33 3746.33 0 0 0 25 97.5c-.163 2.357.003 4.69.5 7 .383.556.883.889 1.5 1a200.822 200.822 0 0 0 5 22c-.135 2.801-1.468 4.801-4 6-3.288.484-5.955-.516-8-3 .111-.617.444-1.117 1-1.5a229.708 229.708 0 0 0-4-11.5 24.935 24.935 0 0 0-.5-7 905.23 905.23 0 0 0-10.5-40c.206-2.995-.46-5.662-2-8l-3-12a33.691 33.691 0 0 1-2-9c.09-2.652-.576-4.985-2-7a227.171 227.171 0 0 0-5.5-25c-1.29-4.47-2.79-8.803-4.5-13 1.52-3.543 3.52-6.876 6-10 3.181-.849 5.848-2.515 8-5 .543-.06.876-.393 1-1a121.862 121.862 0 0 0-22-1c-.992.172-1.658-.162-2-1 .438.065.772-.101 1-.5-1.281-1.409-2.281-2.909-3-4.5a258.04 258.04 0 0 0-11-21.5c.49-1.982 1.49-3.649 3-5a290.18 290.18 0 0 0 24-1.5c-5.579-1.59-9.579-4.923-12-10a217.34 217.34 0 0 1-3-21v-1c2.159-2.984 3.825-6.317 5-10a52.511 52.511 0 0 0 7-10c5.932-2.383 11.932-2.55 18-.5 6.358 5.162 10.358 11.662 12 19.5Z"/><path style="opacity:1" fill="#fdfdfd" d="M256.5 47.5v1a49.974 49.974 0 0 0-.5 15c.977 2.207 2.143 4.207 3.5 6 2.421 5.077 6.421 8.41 12 10a290.18 290.18 0 0 1-24 1.5c-1.51 1.351-2.51 3.018-3 5a258.04 258.04 0 0 1 11 21.5c.172.992-.162 1.658-1 2a62.873 62.873 0 0 1-13-5.5l-4-4a42.498 42.498 0 0 0-13 0 226.438 226.438 0 0 0-29 17c-3.415.406-6.082 2.072-8 5a90.42 90.42 0 0 1-14 6c-3.574 3.951-7.907 6.618-13 8-6.962 5.648-14.628 9.981-23 13a146.497 146.497 0 0 1-31 18 6.978 6.978 0 0 0-2.5 3.5 5697.651 5697.651 0 0 0 0 151 56.965 56.965 0 0 1 10.5 7.5 78.488 78.488 0 0 1 23 13 55.63 55.63 0 0 1 18 10 340.197 340.197 0 0 1 18 8.5c.167 21.669 0 43.336-.5 65a7214.146 7214.146 0 0 1-125-72c-.667-72-.667-144 0-216A361.546 361.546 0 0 0 80.5 119c4.87-1.741 9.204-4.408 13-8l9-3a520.666 520.666 0 0 1 59-34l4-4 10-4c2.508-3.042 5.508-5.376 9-7a190.467 190.467 0 0 1 22-11A112.066 112.066 0 0 1 230 34.5a15.28 15.28 0 0 0 4.5 1.5 420.746 420.746 0 0 0 22 11.5ZM495.5 499.5c-2.799-11.74-4.799-23.74-6-36 .09-2.652-.576-4.985-2-7a44.866 44.866 0 0 0-1-10 6.547 6.547 0 0 0 3-3c2.489.202 4.823-.298 7-1.5a183.542 183.542 0 0 0 7.5-10.5c.671-.752 1.504-1.086 2.5-1l4 3c-2.341 5.245-.841 8.578 4.5 10 10.747-.443 17.581-5.777 20.5-16 1.191-4.855 1.191-9.855 0-15 2.328-1.8 4.995-2.967 8-3.5 4.933-4.604 10.6-7.938 17-10a146.497 146.497 0 0 1 31-18 59.724 59.724 0 0 1 20-11c5.057-5.063 11.057-8.396 18-10 4.952-4.639 10.619-7.973 17-10 9.313-5.969 18.646-11.969 28-18 7.819-2.16 14.319-6.327 19.5-12.5.667-48.667.667-97.333 0-146a69.2 69.2 0 0 0-4.5-6.5 197.694 197.694 0 0 0-17-8 193.115 193.115 0 0 0-32-19 182.852 182.852 0 0 0-35-20l-5-5a113.107 113.107 0 0 1-28-15c-5.281-.974-10.281-.307-15 2a705.673 705.673 0 0 0-21 12c-4.302.286-7.635 2.286-10 6a43.593 43.593 0 0 0-13 8 684.54 684.54 0 0 0-19 8.5 50.162 50.162 0 0 1-14-8.5 114.065 114.065 0 0 1-14-6 7185.005 7185.005 0 0 0-26-16 2551.356 2551.356 0 0 1 60-36l10-4 4-4c3.463-.788 6.463-2.454 9-5 5.048-1.356 9.381-4.023 13-8 8.64-3.004 16.64-7.337 24-13 8.278-1.768 15.278.565 21 7a90.401 90.401 0 0 1 14 6c1.918 2.928 4.585 4.594 8 5l24 15a457.332 457.332 0 0 0 22 11c3.492 1.624 6.492 3.958 9 7a457.332 457.332 0 0 1 22 11 91.311 91.311 0 0 0 23 13c1.918 2.928 4.585 4.594 8 5a2129.254 2129.254 0 0 0 37.5 21.5 7901.316 7901.316 0 0 1 1.5 216 73.86 73.86 0 0 1-9 3.5 846.02 846.02 0 0 1-33 20 114.302 114.302 0 0 1-13 6l-4 4a7430.748 7430.748 0 0 0-128 73c-3.415.406-6.082 2.072-8 5-3.463.788-6.463 2.454-9 5-5.048 1.356-9.381 4.023-13 8l-22 11c-5.177 3.969-10.51 7.469-16 10.5Z"/><path style="opacity:1" fill="#f2dda3" d="M279.5 37.5a5.727 5.727 0 0 1-1 3c-6.794 8.987-7.461 18.32-2 28-5.885-.895-8.885-4.395-9-10.5.72-8.605 4.22-15.772 10.5-21.5.383.556.883.89 1.5 1Z"/><path style="opacity:1" fill="#c39e44" d="M279.5 37.5c2.974 1.827 5.141 4.493 6.5 8 3.291 5.789 3.957 11.789 2 18-3.163 3.943-6.996 5.61-11.5 5 1.478.262 2.811-.071 4-1 3.817-8.622 3.15-17.622-2-27a5.727 5.727 0 0 0 1-3Z"/><path style="opacity:1" fill="#fece57" d="M278.5 40.5c5.15 9.378 5.817 18.378 2 27-1.189.929-2.522 1.262-4 1-5.461-9.68-4.794-19.013 2-28Z"/><path style="opacity:1" fill="#bd133b" d="M298.5 46.5h5v3h5v3h6v3a87.51 87.51 0 0 0 14 5v3c1.699-.16 3.366.007 5 .5l-1 1c1.525 1.009 3.192 1.509 5 1.5v3h6v3h5v3c2.985-1.065 5.485-.065 7.5 3l1-1c.483.948.649 1.948.5 3h5v3h6v3c2.133 1.386 5.133 2.386 9 3v3c2.908-.238 5.242.762 7 3l2-1c.35 2.067 2.017 3.067 5 3v3h6v3h3v1c-1.625 3.391-2.625 7.058-3 11a1353.552 1353.552 0 0 1-25-15.5 326.577 326.577 0 0 1-27-14c-3.83-4.162-8.497-6.83-14-8-9.97-6.691-20.303-12.524-31-17.5.279-4.827-.387-9.493-2-14Z"/><path style="opacity:1" fill="#74747e" d="M256.5 48.5a217.34 217.34 0 0 0 3 21c-1.357-1.793-2.523-3.793-3.5-6a49.974 49.974 0 0 1 .5-15Z"/><path style="opacity:1" fill="#283339" d="M300.5 60.5c10.697 4.976 21.03 10.809 31 17.5 5.503 1.17 10.17 3.838 14 8a326.577 326.577 0 0 0 27 14 1353.552 1353.552 0 0 0 25 15.5c0 .667.333 1 1 1v12c-5.989-2.465-11.655-5.632-17-9.5a1122.837 1122.837 0 0 0-27-14 161.955 161.955 0 0 0-36-21 80.662 80.662 0 0 0-21-11.5c-.111-.617-.444-1.117-1-1.5 2.212-3.134 3.546-6.634 4-10.5Z"/><path style="opacity:1" fill="#fbfbfb" d="M297.5 72.5a80.662 80.662 0 0 1 21 11.5 161.955 161.955 0 0 1 36 21 1122.837 1122.837 0 0 1 27 14c5.345 3.868 11.011 7.035 17 9.5.665 2.814.998 5.814 1 9-.017 3.413-.684 6.413-2 9-2.652-.09-4.985.576-7 2-2.614 1.045-5.28 1.545-8 1.5a533.952 533.952 0 0 1-30-25c-7.005-1.324-9.505 1.51-7.5 8.5a35256.99 35256.99 0 0 0 27.5 23.5 105.797 105.797 0 0 0-8 9.5c-3.228.914-6.561 1.247-10 1-3.856-.342-6.856-2.176-9-5.5a91.767 91.767 0 0 1-22-13l-5-1a86.198 86.198 0 0 0-19-11.5c-.709-.904-1.709-1.237-3-1a19.048 19.048 0 0 0-1-6 153.55 153.55 0 0 0-7-15 42.769 42.769 0 0 1 9-1.5l1.5-1.5A261.704 261.704 0 0 0 311.5 86c-.143-2.151-1.143-3.818-3-5l-23-1c3.543-1.608 6.543-3.942 9-7a4.932 4.932 0 0 1 3-.5Z"/><path style="opacity:1" fill="#4fc2ea" d="M265.5 92.5c8.36-.331 16.693.002 25 1-.696 2.857-2.029 5.357-4 7.5-5.657.499-11.324.666-17 .5a37.71 37.71 0 0 0-4-9Z"/><path style="opacity:1" fill="#8cd3eb" d="M265.5 91.5v1a37.71 37.71 0 0 1 4 9h-4c-1.878-2.745-3.545-5.745-5-9 1.545-.952 3.212-1.285 5-1Z"/><path style="opacity:1" fill="#4496b6" d="M265.5 92.5v-1a241.136 241.136 0 0 1 31 1 43.097 43.097 0 0 0-5 9.5c-8.843.824-17.51.657-26-.5h4c5.676.166 11.343-.001 17-.5 1.971-2.143 3.304-4.643 4-7.5a157.123 157.123 0 0 0-25-1Z"/><path style="opacity:1" fill="#3c3a49" d="M402.5 102.5c3.152-.541 5.652.459 7.5 3a183.36 183.36 0 0 0 1.5 18c-.985 4.134-1.318 8.468-1 13v10c2.719 1.413 5.719 2.08 9 2a36.87 36.87 0 0 1 5.5 2c2.521-.322 4.021-1.656 4.5-4 4.064-1.522 7.064-4.189 9-8 5.943-2.807 10.943-6.807 15-12 8.949-4.21 12.949-1.543 12 8a4.934 4.934 0 0 0-3 .5 79.171 79.171 0 0 0-13 11.5 40.775 40.775 0 0 1-6 4.5c-1.323.816-1.989 1.983-2 3.5-2.135-.353-3.468.48-4 2.5a120.35 120.35 0 0 1 8 10.5 50.512 50.512 0 0 0 20 0c6.457-.747 10.457 1.919 12 8l-4 3h-22c-.268 1.599.066 2.932 1 4-.172.992.162 1.658 1 2a452.669 452.669 0 0 1 1 42v48c-1.085 2.087-2.751 3.42-5 4-2.858.472-4.858-.528-6-3a463.087 463.087 0 0 0-1-43c-.607.124-.94.457-1 1-7.595 10.639-17.595 18.139-30 22.5a49.226 49.226 0 0 1-14 0c-15.269-6.107-26.936-16.273-35-30.5.131-.876-.202-1.543-1-2-.952 1.545-1.285 3.212-1 5h-1c-.268-2.619.065-5.119 1-7.5a142.37 142.37 0 0 1-7-20.5c1.309-2.071 1.975-4.571 2-7.5.348-3.867.514-7.701.5-11.5a93.762 93.762 0 0 0-20.5-2.5c-2.226-2.964-2.559-6.13-1-9.5a106.296 106.296 0 0 1 20-1c3.829.569 7.163-.098 10-2a105.797 105.797 0 0 1 8-9.5 35256.99 35256.99 0 0 1-27.5-23.5c-2.005-6.99.495-9.824 7.5-8.5a533.952 533.952 0 0 0 30 25c2.72.045 5.386-.455 8-1.5 2.652.09 4.985-.576 7-2 1.316-2.587 1.983-5.587 2-9-.002-3.186-.335-6.186-1-9v-12a331.2 331.2 0 0 0 2-12v-1c.342-.838 1.008-1.172 2-1Z"/><path style="opacity:1" fill="#7f243e" d="M400.5 104.5a331.2 331.2 0 0 1-2 12c-.667 0-1-.333-1-1 .375-3.942 1.375-7.609 3-11Z"/><path style="opacity:1" fill="#a1a3a9" d="M255.5 107.5c.719 1.591 1.719 3.091 3 4.5-.228.399-.562.565-1 .5a6.547 6.547 0 0 1-3-3c.838-.342 1.172-1.008 1-2Z"/><path style="opacity:1" fill="#bf123b" d="M266.5 130.5c1.71 4.197 3.21 8.53 4.5 13a227.171 227.171 0 0 1 5.5 25c-.329 2.728.337 5.062 2 7a33.691 33.691 0 0 0 2 9c-2.505 2.215-5.505 3.381-9 3.5-4.461 5.477-10.128 8.811-17 10a279.312 279.312 0 0 1-30 18.5c-1.38-1.206-2.547-.873-3.5 1-1.333-2.667-2.667-2.667-4 0-1.333-2.667-2.667-2.667-4 0-1.333-2.667-2.667-2.667-4 0-1.333-2.667-2.667-2.667-4 0-1.333-2.667-2.667-2.667-4 0-1.333-2.667-2.667-2.667-4 0-1.333-2.667-2.667-2.667-4 0-1.333-2.667-2.667-2.667-4 0-1.333-2.667-2.667-2.667-4 0-1.333-2.667-2.667-2.667-4 0-1.333-2.667-2.667-2.667-4 0-1.333-2.667-2.667-2.667-4 0-1.333-2.667-2.667-2.667-4 0-1.333-2.667-2.667-2.667-4 0-1.333-2.667-2.667-2.667-4 0-1.333-2.667-2.667-2.667-4 0-1.333-2.667-2.667-2.667-4 0-1.333-2.667-2.667-2.667-4 0-1.333-2.667-2.667-2.667-4 0-1.333-2.667-2.667-2.667-4 0-1.333-2.667-2.667-2.667-4 0-1.333-2.667-2.667-2.667-4 0-1.333-2.667-2.667-2.667-4 0-1.333-2.667-2.667-2.667-4 0-1.333-2.667-2.667-2.667-4 0-1.333-2.667-2.667-2.667-4 0l-3-1c-.278.916-.778 1.582-1.5 2-.167-13.337 0-26.671.5-40l2.5-2.5c5.817-2.469 11.151-5.802 16-10 6.799-1.87 12.799-5.203 18-10a81.82 81.82 0 0 0 19-11c5.503-1.171 10.17-3.837 14-8a368.678 368.678 0 0 0 44-26c2.243.319 4.41.152 6.5-.5l4.5 4.5a797.67 797.67 0 0 1 29 15.5ZM682.5 218.5c-1.879.107-2.212-.393-1-1.5-1.249-1.824-2.415-1.657-3.5.5-1.333-2.667-2.667-2.667-4 0-1.333-2.667-2.667-2.667-4 0-1.333-2.667-2.667-2.667-4 0-1.333-2.667-2.667-2.667-4 0-1.333-2.667-2.667-2.667-4 0-1.333-2.667-2.667-2.667-4 0-1.333-2.667-2.667-2.667-4 0-1.333-2.667-2.667-2.667-4 0-1.333-2.667-2.667-2.667-4 0-1.333-2.667-2.667-2.667-4 0-1.333-2.667-2.667-2.667-4 0-1.333-2.667-2.667-2.667-4 0-1.333-2.667-2.667-2.667-4 0-1.333-2.667-2.667-2.667-4 0-1.333-2.667-2.667-2.667-4 0-1.333-2.667-2.667-2.667-4 0-1.333-2.667-2.667-2.667-4 0-1.333-2.667-2.667-2.667-4 0-1.333-2.667-2.667-2.667-4 0-1.333-2.667-2.667-2.667-4 0-1.333-2.667-2.667-2.667-4 0-1.333-2.667-2.667-2.667-4 0-1.333-2.667-2.667-2.667-4 0-1.333-2.667-2.667-2.667-4 0-1.333-2.667-2.667-2.667-4 0-.953-1.873-2.12-2.206-3.5-1-3.867-.358-6.867-2.191-9-5.5a117.669 117.669 0 0 1-17-8c-3.671-4.417-8.338-7.083-14-8a928.605 928.605 0 0 0-68-39c-3.492-1.624-6.492-3.958-9-7a57.829 57.829 0 0 1-8-2.5 79.171 79.171 0 0 1 13-11.5 4.934 4.934 0 0 1 3-.5 454.796 454.796 0 0 1 23 12.5c4.333.667 8.667.667 13 0a3162.857 3162.857 0 0 1 66-36.5 4261.045 4261.045 0 0 0 114 65.5 457.546 457.546 0 0 1 1 42.5Z"/><path style="opacity:1" fill="#a8a7ac" d="M259.5 113.5c7.363-.331 14.697.003 22 1-.124.607-.457.94-1 1-6-1.333-12-1.333-18 0-1.21-.432-2.21-1.099-3-2Z"/><path style="opacity:1" fill="#f4f4f5" d="M262.5 115.5c6-1.333 12-1.333 18 0-2.152 2.485-4.819 4.151-8 5a62.115 62.115 0 0 0-10-5Z"/><path style="opacity:1" fill="#273238" d="M411.5 123.5a706.602 706.602 0 0 1 27 15c-1.936 3.811-4.936 6.478-9 8a7087.606 7087.606 0 0 0-12-4.5c-1.941-2.454-4.275-4.287-7-5.5-.318-4.532.015-8.866 1-13Z"/><path style="opacity:1" fill="#283339" d="M299.5 136.5a86.198 86.198 0 0 1 19 11.5l5 1a91.767 91.767 0 0 0 22 13c2.144 3.324 5.144 5.158 9 5.5v1c-6.755-.293-13.422.04-20 1a407.278 407.278 0 0 0-30-16 296.377 296.377 0 0 0-6-15.5c.07-.765.403-1.265 1-1.5Z"/><path style="opacity:1" fill="#eff0f0" d="M410.5 136.5c2.725 1.213 5.059 3.046 7 5.5 4.019 1.503 8.019 3.003 12 4.5-.479 2.344-1.979 3.678-4.5 4a36.87 36.87 0 0 0-5.5-2c-2.719-1.413-5.719-2.08-9-2v-10Z"/><path style="opacity:1" fill="#84c7dc" d="M296.5 165.5a2318.7 2318.7 0 0 0 23 92c-3.212 5.794-6.878 11.128-11 16a19.22 19.22 0 0 1-1-6c2.532-1.199 3.865-3.199 4-6a200.822 200.822 0 0 1-5-22c-.463-2.83-1.129-5.497-2-8a3746.33 3746.33 0 0 1-25-97.5c-.561-3.448.606-4.615 3.5-3.5a98.88 98.88 0 0 0 5 10l3 12a42.95 42.95 0 0 1 5.5 13Z"/><path style="opacity:1" fill="#848790" d="M410.5 146.5c3.281-.08 6.281.587 9 2-3.281.08-6.281-.587-9-2Z"/><path style="opacity:1" fill="#273238" d="M449.5 146.5a57.829 57.829 0 0 0 8 2.5c2.508 3.042 5.508 5.376 9 7a928.605 928.605 0 0 1 68 39c5.662.917 10.329 3.583 14 8a117.669 117.669 0 0 0 17 8c2.133 3.309 5.133 5.142 9 5.5a191.593 191.593 0 0 1 21 13v112c-3.883 4.109-8.549 6.942-14 8.5-3.173 3.32-6.84 5.82-11 7.5-5.566 4.851-11.899 8.184-19 10-.438.065-.772-.101-1-.5 3.556-3.596 3.889-7.429 1-11.5 3.636-1.176 6.636-3.342 9-6.5a249.84 249.84 0 0 0 22.5-11.5c.833-34.005.667-68.005-.5-102a803.828 803.828 0 0 1-52-30.5c-4.758-1.884-9.092-4.551-13-8-8.449-3.02-16.115-7.353-23-13-5.521-1.096-10.187-3.762-14-8a4.934 4.934 0 0 0-3-.5c-1.543-6.081-5.543-8.747-12-8a5.727 5.727 0 0 1-3-1 480.846 480.846 0 0 0-21-12c.011-1.517.677-2.684 2-3.5a40.775 40.775 0 0 0 6-4.5Z"/><path style="opacity:1" fill="#83838d" d="M397.5 146.5c-2.015 1.424-4.348 2.09-7 2 2.015-1.424 4.348-2.09 7-2Z"/><path style="opacity:1" fill="#f6f6f6" d="M441.5 154.5a480.846 480.846 0 0 1 21 12c-5.475.989-11.142 1.322-17 1a120.35 120.35 0 0 0-8-10.5c.532-2.02 1.865-2.853 4-2.5Z"/><path style="opacity:1" fill="#ba143b" d="M304.5 153.5a407.278 407.278 0 0 1 30 16c-1.559 3.37-1.226 6.536 1 9.5a93.762 93.762 0 0 1 20.5 2.5c.014 3.799-.152 7.633-.5 11.5-.025 2.929-.691 5.429-2 7.5a8.43 8.43 0 0 1-4-.5 6504.564 6504.564 0 0 0-23-15c-3.37-1.503-6.704-3.003-10-4.5-2.171-1.997-3.838-4.497-5-7.5a169.316 169.316 0 0 0-7-19.5Z"/><path style="opacity:1" fill="#8fd2ea" d="M395.5 158.5h9c-4.853 2.175-8.853 5.508-12 10-2.286.095-4.286.762-6 2a27.085 27.085 0 0 0-11 3c-1.021-.502-1.188-1.168-.5-2 5.414-6.779 12.248-11.112 20.5-13Z"/><path style="opacity:1" fill="#4fbfe6" d="M404.5 158.5c4.983 2.17 9.317 5.337 13 9.5a4.934 4.934 0 0 1-3 .5h-22c3.147-4.492 7.147-7.825 12-10Z"/><path style="opacity:1" fill="#4095b4" d="M395.5 158.5c16.074-3.302 29.407 1.365 40 14l-1.5 1a61.134 61.134 0 0 0-19.5-4v-1a4.934 4.934 0 0 0 3-.5c-3.683-4.163-8.017-7.33-13-9.5h-9Z"/><path style="opacity:1" fill="#aaaab1" d="M364.5 166.5c-2.837 1.902-6.171 2.569-10 2v-1c3.439.247 6.772-.086 10-1Z"/><path style="opacity:1" fill="#b7b6bc" d="M462.5 166.5c.891.61 1.891.943 3 1a50.512 50.512 0 0 1-20 0c5.858.322 11.525-.011 17-1Z"/><path style="opacity:1" fill="#45667c" d="M392.5 168.5h22v1a251.234 251.234 0 0 0-28 1c1.714-1.238 3.714-1.905 6-2Z"/><path style="opacity:1" fill="#82243e" d="M276.5 168.5c1.424 2.015 2.09 4.348 2 7-1.663-1.938-2.329-4.272-2-7Z"/><path style="opacity:1" fill="#fdfdfe" d="M477.5 175.5a4.934 4.934 0 0 1 3 .5c3.813 4.238 8.479 6.904 14 8 6.885 5.647 14.551 9.98 23 13 3.908 3.449 8.242 6.116 13 8a803.828 803.828 0 0 0 52 30.5 1734.395 1734.395 0 0 1 .5 102 249.84 249.84 0 0 1-22.5 11.5c-2.364 3.158-5.364 5.324-9 6.5a247.043 247.043 0 0 1-17-5c-1.341-1.62-3.174-2.62-5.5-3a2872.361 2872.361 0 0 0-1.5-76 4.934 4.934 0 0 0-.5-3c-2.167-1.5-4-3.333-5.5-5.5-1.284-.684-2.451-.517-3.5.5-7.819-7.157-16.652-12.657-26.5-16.5a347.814 347.814 0 0 1-28-17 73.86 73.86 0 0 1-9-3.5 452.669 452.669 0 0 0-1-42v-4c6.522.323 12.855-.01 19-1 .667 0 1-.333 1-1l4-3Z"/><path style="opacity:1" fill="#6c6a75" d="M473.5 178.5c0 .667-.333 1-1 1h-20v3c-.934-1.068-1.268-2.401-1-4h22Z"/><path style="opacity:1" fill="#426d86" d="M396.5 180.5c7.155-1.155 14.488-1.322 22-.5.556.383.889.883 1 1.5a146.875 146.875 0 0 0-23-1Z"/><path style="opacity:1" fill="#c3c2c7" d="M472.5 179.5c-6.145.99-12.478 1.323-19 1v4c-.838-.342-1.172-1.008-1-2v-3h20Z"/><path style="opacity:1" fill="#273239" d="M316.5 180.5c3.296 1.497 6.63 2.997 10 4.5a6504.564 6504.564 0 0 1 23 15 8.43 8.43 0 0 0 4 .5 142.37 142.37 0 0 0 7 20.5c-.935 2.381-1.268 4.881-1 7.5-.667 0-1 .333-1 1a74.406 74.406 0 0 0-12 7c-2.656-.658-5.322-1.325-8-2a19.876 19.876 0 0 0-7 3v-2c.475-2.284 1.475-4.284 3-6a286.972 286.972 0 0 0 20-10.5 7.248 7.248 0 0 0 2-2.5 304.467 304.467 0 0 1-35-20 148.278 148.278 0 0 1-6-15c.124-.607.457-.94 1-1Z"/><path style="opacity:1" fill="#4fc0e8" d="M396.5 180.5c7.722-.267 15.389.066 23 1 1.915-.284 3.581.049 5 1 2.099 4.296 3.099 8.962 3 14-1.3 9.331-3.8 18.331-7.5 27a133.943 133.943 0 0 1-15.5 18c-8.621-8.538-15.287-18.538-20-30-2.649-9.211-2.649-18.378 0-27.5-1.925.135-3.925.302-6 .5 5.646-2.392 11.646-3.725 18-4Z"/><path style="opacity:1" fill="#263238" d="m280.5 184.5 3 12c-5.231 3.571-10.898 6.404-17 8.5-4.954 4.637-10.621 7.97-17 10a6204.11 6204.11 0 0 1-24 15 239.706 239.706 0 0 0-12 5.5c-.167 135.667 0 271.334.5 407a46.99 46.99 0 0 0 10.5 5.5l4 4a90.42 90.42 0 0 0 14 6 77.598 77.598 0 0 0 23 13l4 4 10 4 4 4a47.746 47.746 0 0 0 11 5.5c-1.097 7.444-5.097 9.777-12 7a103.393 103.393 0 0 0-26-13.5 114.425 114.425 0 0 0-30-18 55.63 55.63 0 0 0-18-10 18.839 18.839 0 0 0-6.5-5.5c-.5-37.332-.667-74.665-.5-112v-306a2855.18 2855.18 0 0 1 23-14 279.312 279.312 0 0 0 30-18.5c6.872-1.189 12.539-4.523 17-10 3.495-.119 6.495-1.285 9-3.5Z"/><path style="opacity:1" fill="#92d7ef" d="M404.5 241.5c-1.797 1.23-3.797 1.896-6 2-12.953-5.786-22.453-15.12-28.5-28-3.234-8.383-4.234-17.05-3-26 3.311-2.797 7.144-4.463 11.5-5 2.075-.198 4.075-.365 6-.5-2.649 9.122-2.649 18.289 0 27.5 4.713 11.462 11.379 21.462 20 30Z"/><path style="opacity:1" fill="#4199b9" d="M424.5 182.5a62.637 62.637 0 0 1 17.5 7c1.508 25.656-9.325 43.989-32.5 55-3.284 1.157-6.618 1.324-10 .5-.556-.383-.889-.883-1-1.5 2.203-.104 4.203-.77 6-2a133.943 133.943 0 0 0 15.5-18c3.7-8.669 6.2-17.669 7.5-27 .099-5.038-.901-9.704-3-14Z"/><path style="opacity:1" fill="#3aaaca" d="M296.5 165.5a1071.576 1071.576 0 0 1 25.5 65c2.168 3.36 5.335 5.027 9.5 5v2c-2.723 7.399-6.723 14.066-12 20a2318.7 2318.7 0 0 1-23-92Z"/><path style="opacity:1" fill="#fefefe" d="M283.5 196.5c-.206 2.995.46 5.662 2 8a905.23 905.23 0 0 1 10.5 40c.497 2.31.663 4.643.5 7a290.15 290.15 0 0 1-13 8.5 24.569 24.569 0 0 1-8 3c-1.5 2.167-3.333 4-5.5 5.5a29055.972 29055.972 0 0 0 0 341c5.97 6.53 13.137 11.03 21.5 13.5a50.784 50.784 0 0 1 8 5.5c.6 3.629 1.267 7.296 2 11 2.118 1.446 4.451 2.113 7 2 1.658 9.792 2.658 19.792 3 30 .767.672 1.434 1.505 2 2.5l-11 1c-3.326 4.189-5.992 8.689-8 13.5a47.746 47.746 0 0 1-11-5.5l-4-4-10-4-4-4a77.598 77.598 0 0 1-23-13 90.42 90.42 0 0 1-14-6l-4-4a46.99 46.99 0 0 1-10.5-5.5c-.5-135.666-.667-271.333-.5-407a239.706 239.706 0 0 1 12-5.5 6204.11 6204.11 0 0 0 24-15c6.379-2.03 12.046-5.363 17-10 6.102-2.096 11.769-4.929 17-8.5Z"/><path style="opacity:1" fill="#f7f7f7" d="M321.5 196.5a304.467 304.467 0 0 0 35 20 7.248 7.248 0 0 1-2 2.5 286.972 286.972 0 0 1-20 10.5 934 934 0 0 1-13-33Z"/><path style="opacity:1" fill="#a9a9b0" d="M283.5 196.5c1.54 2.338 2.206 5.005 2 8-1.54-2.338-2.206-5.005-2-8Z"/><path style="opacity:1" fill="#c52147" d="M36.5 216.5v13c-9.881.429-19.881.429-30 0v-13c10.119.429 20.119.429 30 0Z"/><path style="opacity:1" fill="#c42046" d="M224.5 216.5a2855.18 2855.18 0 0 0-23 14c-.221-2.597-.721-2.597-1.5 0-.667-2.667-1.333-2.667-2 0-.667-2.667-1.333-2.667-2 0-.667-2.667-1.333-2.667-2 0-.667-2.667-1.333-2.667-2 0-.667-2.667-1.333-2.667-2 0-.667-2.667-1.333-2.667-2 0-.667-2.667-1.333-2.667-2 0-.667-2.667-1.333-2.667-2 0-.667-2.667-1.333-2.667-2 0-.667-2.667-1.333-2.667-2 0-.667-2.667-1.333-2.667-2 0-.667-2.667-1.333-2.667-2 0-.667-2.667-1.333-2.667-2 0-.667-2.667-1.333-2.667-2 0-.667-2.667-1.333-2.667-2 0-.667-2.667-1.333-2.667-2 0-.667-2.667-1.333-2.667-2 0-.667-2.667-1.333-2.667-2 0-.667-2.667-1.333-2.667-2 0-.667-2.667-1.333-2.667-2 0-.667-2.667-1.333-2.667-2 0-.667-2.667-1.333-2.667-2 0-.667-2.667-1.333-2.667-2 0-.667-2.667-1.333-2.667-2 0-.667-2.667-1.333-2.667-2 0-.667-2.667-1.333-2.667-2 0-.667-2.667-1.333-2.667-2 0-.667-2.667-1.333-2.667-2 0-.667-2.667-1.333-2.667-2 0-.667-2.667-1.333-2.667-2 0-.667-2.667-1.333-2.667-2 0-.667-2.667-1.333-2.667-2 0-.667-2.667-1.333-2.667-2 0-.667-2.667-1.333-2.667-2 0-.667-2.667-1.333-2.667-2 0-.667-2.667-1.333-2.667-2 0-.667-2.667-1.333-2.667-2 0-.667-2.667-1.333-2.667-2 0-.667-2.667-1.333-2.667-2 0-.667-2.667-1.333-2.667-2 0-.667-2.667-1.333-2.667-2 0-.667-2.667-1.333-2.667-2 0l-1-2a81.316 81.316 0 0 1-2.5 3v-13c.722-.418 1.222-1.084 1.5-2l3 1c1.333-2.667 2.667-2.667 4 0 1.333-2.667 2.667-2.667 4 0 1.333-2.667 2.667-2.667 4 0 1.333-2.667 2.667-2.667 4 0 1.333-2.667 2.667-2.667 4 0 1.333-2.667 2.667-2.667 4 0 1.333-2.667 2.667-2.667 4 0 1.333-2.667 2.667-2.667 4 0 1.333-2.667 2.667-2.667 4 0 1.333-2.667 2.667-2.667 4 0 1.333-2.667 2.667-2.667 4 0 1.333-2.667 2.667-2.667 4 0 1.333-2.667 2.667-2.667 4 0 1.333-2.667 2.667-2.667 4 0 1.333-2.667 2.667-2.667 4 0 1.333-2.667 2.667-2.667 4 0 1.333-2.667 2.667-2.667 4 0 1.333-2.667 2.667-2.667 4 0 1.333-2.667 2.667-2.667 4 0 1.333-2.667 2.667-2.667 4 0 1.333-2.667 2.667-2.667 4 0 1.333-2.667 2.667-2.667 4 0 1.333-2.667 2.667-2.667 4 0 1.333-2.667 2.667-2.667 4 0 1.333-2.667 2.667-2.667 4 0 1.333-2.667 2.667-2.667 4 0 .953-1.873 2.12-2.206 3.5-1Z"/><path style="opacity:1" fill="#c52047" d="M792.5 216.5v13c-1.325 1.453-2.158 1.119-2.5-1-.667 2.667-1.333 2.667-2 0-.667 2.667-1.333 2.667-2 0-.667 2.667-1.333 2.667-2 0-.667 2.667-1.333 2.667-2 0-.667 2.667-1.333 2.667-2 0-.667 2.667-1.333 2.667-2 0-.667 2.667-1.333 2.667-2 0-.667 2.667-1.333 2.667-2 0-.667 2.667-1.333 2.667-2 0-.667 2.667-1.333 2.667-2 0-.667 2.667-1.333 2.667-2 0-.667 2.667-1.333 2.667-2 0-.667 2.667-1.333 2.667-2 0l-1 1a84.902 84.902 0 0 1-.5-13c10.119.429 20.119.429 30 0Z"/><path style="opacity:1" fill="#c52348" d="M682.5 218.5v9a10.515 10.515 0 0 1-2.5 3c-28.003.33-56.17-.004-84.5-1a191.593 191.593 0 0 0-21-13c1.38-1.206 2.547-.873 3.5 1 1.333-2.667 2.667-2.667 4 0 1.333-2.667 2.667-2.667 4 0 1.333-2.667 2.667-2.667 4 0 1.333-2.667 2.667-2.667 4 0 1.333-2.667 2.667-2.667 4 0 1.333-2.667 2.667-2.667 4 0 1.333-2.667 2.667-2.667 4 0 1.333-2.667 2.667-2.667 4 0 1.333-2.667 2.667-2.667 4 0 1.333-2.667 2.667-2.667 4 0 1.333-2.667 2.667-2.667 4 0 1.333-2.667 2.667-2.667 4 0 1.333-2.667 2.667-2.667 4 0 1.333-2.667 2.667-2.667 4 0 1.333-2.667 2.667-2.667 4 0 1.333-2.667 2.667-2.667 4 0 1.333-2.667 2.667-2.667 4 0 1.333-2.667 2.667-2.667 4 0 1.333-2.667 2.667-2.667 4 0 1.333-2.667 2.667-2.667 4 0 1.333-2.667 2.667-2.667 4 0 1.333-2.667 2.667-2.667 4 0 1.333-2.667 2.667-2.667 4 0 1.333-2.667 2.667-2.667 4 0 1.333-2.667 2.667-2.667 4 0 1.085-2.157 2.251-2.324 3.5-.5-1.212 1.107-.879 1.607 1 1.5Z"/><path style="opacity:1" fill="#273238" d="M454.5 226.5a73.86 73.86 0 0 0 9 3.5 347.814 347.814 0 0 0 28 17c9.848 3.843 18.681 9.343 26.5 16.5 1.049-1.017 2.216-1.184 3.5-.5 1.5 2.167 3.333 4 5.5 5.5.483.948.649 1.948.5 3v76a102.904 102.904 0 0 1-11-3v-60a25.879 25.879 0 0 0-1-10 43.836 43.836 0 0 0-2-1 35.926 35.926 0 0 0-9-6.5 8.43 8.43 0 0 0-4-.5c-3.79-3.403-8.124-6.069-13-8-6.522-5.432-13.855-9.599-22-12.5-2.792-2.99-6.125-4.823-10-5.5 0-.667-.333-1-1-1v-13Z"/><path style="opacity:1" fill="#39abca" d="M362.5 225.5c8.064 14.227 19.731 24.393 35 30.5 4.667.667 9.333.667 14 0 12.405-4.361 22.405-11.861 30-22.5l2 42c1.142 2.472 3.142 3.472 6 3v11c-4.15-.325-6.15 1.675-6 6a803.394 803.394 0 0 0 47 59.5c2.098.678 4.098.511 6-.5.154 2.47 1.154 4.47 3 6a228.017 228.017 0 0 0-15 21c-.617.111-1.117.444-1.5 1-.886-4.97-1.552-9.97-2-15-.278-.916-.778-1.582-1.5-2-.423-5.364-1.923-10.364-4.5-15a217.24 217.24 0 0 0-24.5-35.5c-1.288-.239-2.288.261-3 1.5-24.748-28.074-53.414-51.408-86-70-.325-7.187.009-14.187 1-21Z"/><path style="opacity:1" fill="#ca2f53" d="M201.5 230.5v6c-1.38-1.206-2.547-.873-3.5 1-1-1.333-2-1.333-3 0-1.482-2.281-3.149-2.281-5 0-1.482-2.281-3.149-2.281-5 0-1.482-2.281-3.149-2.281-5 0-1.482-2.281-3.149-2.281-5 0-1.482-2.281-3.149-2.281-5 0-1.482-2.281-3.149-2.281-5 0-1.482-2.281-3.149-2.281-5 0-1.482-2.281-3.149-2.281-5 0-1.482-2.281-3.149-2.281-5 0-1.482-2.281-3.149-2.281-5 0-1.482-2.281-3.149-2.281-5 0-1.482-2.281-3.149-2.281-5 0-1.482-2.281-3.149-2.281-5 0-1.482-2.281-3.149-2.281-5 0-1.482-2.281-3.149-2.281-5 0h-4c-1.733-2.458-2.9-2.125-3.5 1v-7a81.316 81.316 0 0 0 2.5-3l1 2c.667-2.667 1.333-2.667 2 0 .667-2.667 1.333-2.667 2 0 .667-2.667 1.333-2.667 2 0 .667-2.667 1.333-2.667 2 0 .667-2.667 1.333-2.667 2 0 .667-2.667 1.333-2.667 2 0 .667-2.667 1.333-2.667 2 0 .667-2.667 1.333-2.667 2 0 .667-2.667 1.333-2.667 2 0 .667-2.667 1.333-2.667 2 0 .667-2.667 1.333-2.667 2 0 .667-2.667 1.333-2.667 2 0 .667-2.667 1.333-2.667 2 0 .667-2.667 1.333-2.667 2 0 .667-2.667 1.333-2.667 2 0 .667-2.667 1.333-2.667 2 0 .667-2.667 1.333-2.667 2 0 .667-2.667 1.333-2.667 2 0 .667-2.667 1.333-2.667 2 0 .667-2.667 1.333-2.667 2 0 .667-2.667 1.333-2.667 2 0 .667-2.667 1.333-2.667 2 0 .667-2.667 1.333-2.667 2 0 .667-2.667 1.333-2.667 2 0 .667-2.667 1.333-2.667 2 0 .667-2.667 1.333-2.667 2 0 .667-2.667 1.333-2.667 2 0 .667-2.667 1.333-2.667 2 0 .667-2.667 1.333-2.667 2 0 .667-2.667 1.333-2.667 2 0 .667-2.667 1.333-2.667 2 0 .667-2.667 1.333-2.667 2 0 .667-2.667 1.333-2.667 2 0 .667-2.667 1.333-2.667 2 0 .667-2.667 1.333-2.667 2 0 .667-2.667 1.333-2.667 2 0 .667-2.667 1.333-2.667 2 0 .667-2.667 1.333-2.667 2 0 .667-2.667 1.333-2.667 2 0 .667-2.667 1.333-2.667 2 0 .667-2.667 1.333-2.667 2 0 .667-2.667 1.333-2.667 2 0 .779-2.597 1.279-2.597 1.5 0Z"/><path style="opacity:1" fill="#5d86a2" d="M362.5 225.5c-.991 6.813-1.325 13.813-1 21-.667 0-1-.333-1-1v-17c-.285-1.788.048-3.455 1-5 .798.457 1.131 1.124 1 2Z"/><path style="opacity:1" fill="#c92f53" d="M682.5 227.5c1 .333 1.667 1 2 2v8c-.722-.418-1.222-1.084-1.5-2-.667 2.667-1.333 2.667-2 0-.667 2.667-1.333 2.667-2 0l-3 2h-72c-1.482-2.281-3.149-2.281-5 0-1.393-2.625-2.559-2.625-3.5 0v-8c28.33.996 56.497 1.33 84.5 1a10.515 10.515 0 0 0 2.5-3Z"/><path style="opacity:1" fill="#bf2b4e" d="M761.5 135.5a1640.966 1640.966 0 0 1 1 81 84.902 84.902 0 0 0 .5 13l1-1c.667 2.667 1.333 2.667 2 0 .667 2.667 1.333 2.667 2 0 .667 2.667 1.333 2.667 2 0 .667 2.667 1.333 2.667 2 0 .667 2.667 1.333 2.667 2 0 .667 2.667 1.333 2.667 2 0 .667 2.667 1.333 2.667 2 0 .667 2.667 1.333 2.667 2 0 .667 2.667 1.333 2.667 2 0 .667 2.667 1.333 2.667 2 0 .667 2.667 1.333 2.667 2 0 .667 2.667 1.333 2.667 2 0 .667 2.667 1.333 2.667 2 0 .342 2.119 1.175 2.453 2.5 1v7c-10.001-.665-19.834-.665-29.5 0a60.931 60.931 0 0 0-.5 11v5h-1v-117Z"/><path style="opacity:1" fill="#ca2f53" d="M6.5 229.5c10.119.429 20.119.429 30 0v6c-.958.453-1.792 1.119-2.5 2h-4c-1.333-2.667-2.667-2.667-4 0-1.566.561-2.899-.106-4-2l-2 2c-1.566.561-2.899-.106-4-2l-2 2c-1.566.561-2.899-.106-4-2-.953 1.873-2.12 2.206-3.5 1v-7Z"/><path style="opacity:1" fill="#a05268" d="M358.5 229.5c0-.667.333-1 1-1h1v17c-.992.172-1.658-.162-2-1 1.333-5 1.333-10 0-15Z"/><path style="opacity:1" fill="#3a3949" d="M346.5 236.5c3.208 3.622 7.208 6.288 12 8 .342.838 1.008 1.172 2 1 0 .667.333 1 1 1 32.586 18.592 61.252 41.926 86 70 10.177 11.676 18.343 24.676 24.5 39a284.558 284.558 0 0 1 6 29 352.2 352.2 0 0 0 3.5 29 1688.807 1688.807 0 0 0 5 33 44.866 44.866 0 0 1 1 10c-.51 2.888.156 5.221 2 7 1.201 12.26 3.201 24.26 6 36-.062 4.576.605 8.909 2 13-.306 2.885.027 5.552 1 8 1.401 3.377 1.235 6.71-.5 10a86.346 86.346 0 0 0-13.5 7 514.367 514.367 0 0 1 3 4v92c.167 12.671 0 25.338-.5 38a4.457 4.457 0 0 0-1.5 2 52.141 52.141 0 0 0 10 1.5 203.736 203.736 0 0 0 9 12.5c-.152 2.941.848 5.774 3 8.5 2.429.703 4.762.537 7-.5 2.167.698 4 2.031 5.5 4 .667 9 .667 18 0 27-2.21 2.79-5.044 3.623-8.5 2.5-1.537-1.11-2.203-2.61-2-4.5v-17h-17c-67.835-.333-135.502.001-203 1v16c-2.211 5.289-5.711 6.289-10.5 3a210.395 210.395 0 0 1 0-29 30.233 30.233 0 0 1 3.5-3c6.903 2.777 10.903.444 12-7 2.008-4.811 4.674-9.311 8-13.5l11-1c-.566-.995-1.233-1.828-2-2.5.167-10.672 0-21.339-.5-32-.995.566-1.828 1.233-2.5 2-2.549.113-4.882-.554-7-2-.733-3.704-1.4-7.371-2-11 .693-4.065 1.36-8.232 2-12.5-.556-.383-.889-.883-1-1.5 1.62-17.181 3.12-34.514 4.5-52 .208-8.868.708-17.702 1.5-26.5-.07-.765-.403-1.265-1-1.5.53-6.287.864-12.621 1-19a608.4 608.4 0 0 0 3-49 316.701 316.701 0 0 0 2-26v-11c1.575-6.77 2.241-13.77 2-21v-14c-.302-2.559.032-4.893 1-7a154.506 154.506 0 0 0 1-38 22.38 22.38 0 0 0-5-7c-2.335-6.014-5.669-11.348-10-16a124.394 124.394 0 0 0-11-18 18.453 18.453 0 0 1 .5-6 250.595 250.595 0 0 0 10.5-17c3.656-3.303 6.322-7.303 8-12 4.122-4.872 7.788-10.206 11-16 5.277-5.934 9.277-12.601 12-20a19.876 19.876 0 0 1 7-3c2.678.675 5.344 1.342 8 2Z"/><path style="opacity:1" fill="#c33757" d="M358.5 229.5c1.333 5 1.333 10 0 15-4.792-1.712-8.792-4.378-12-8a74.406 74.406 0 0 1 12-7Z"/><path style="opacity:1" fill="#397188" d="M441.5 233.5c.06-.543.393-.876 1-1a463.087 463.087 0 0 1 1 43l-2-42Z"/><path style="opacity:1" fill="#617d90" d="M304.5 231.5c.871 2.503 1.537 5.17 2 8-.617-.111-1.117-.444-1.5-1a24.935 24.935 0 0 1-.5-7Z"/><path style="opacity:1" fill="#ce3e5f" d="M36.5 235.5v12a349.799 349.799 0 0 0-30 0v-11c1.38 1.206 2.547.873 3.5-1 1.101 1.894 2.434 2.561 4 2l2-2c1.101 1.894 2.434 2.561 4 2l2-2c1.101 1.894 2.434 2.561 4 2 1.333-2.667 2.667-2.667 4 0h4c.708-.881 1.542-1.547 2.5-2ZM201.5 236.5v11c-29.005.334-57.838 0-86.5-1a81.316 81.316 0 0 1-2.5 3v-11c.6-3.125 1.767-3.458 3.5-1h4c1.851-2.281 3.518-2.281 5 0 1.851-2.281 3.518-2.281 5 0 1.851-2.281 3.518-2.281 5 0 1.851-2.281 3.518-2.281 5 0 1.851-2.281 3.518-2.281 5 0 1.851-2.281 3.518-2.281 5 0 1.851-2.281 3.518-2.281 5 0 1.851-2.281 3.518-2.281 5 0 1.851-2.281 3.518-2.281 5 0 1.851-2.281 3.518-2.281 5 0 1.851-2.281 3.518-2.281 5 0 1.851-2.281 3.518-2.281 5 0 1.851-2.281 3.518-2.281 5 0 1.851-2.281 3.518-2.281 5 0 1.851-2.281 3.518-2.281 5 0 1-1.333 2-1.333 3 0 .953-1.873 2.12-2.206 3.5-1ZM684.5 237.5v9a1136.15 1136.15 0 0 1-86.5 0c-.708.881-1.542 1.547-2.5 2v-11c.941-2.625 2.107-2.625 3.5 0 1.851-2.281 3.518-2.281 5 0h72l3-2c.667 2.667 1.333 2.667 2 0 .667 2.667 1.333 2.667 2 0 .278.916.778 1.582 1.5 2ZM792.5 236.5v11a349.799 349.799 0 0 0-30 0 60.931 60.931 0 0 1 .5-11c9.666-.665 19.499-.665 29.5 0Z"/><path style="opacity:1" fill="#d34b69" d="M201.5 247.5v8c-1.322.17-2.489-.163-3.5-1-.667 2.667-1.333 2.667-2 0-1.333 2.667-2.667 2.667-4 0-1.333 2.667-2.667 2.667-4 0-1.333 2.667-2.667 2.667-4 0-1.333 2.667-2.667 2.667-4 0-1.333 2.667-2.667 2.667-4 0-1.333 2.667-2.667 2.667-4 0-1.333 2.667-2.667 2.667-4 0-1.333 2.667-2.667 2.667-4 0-1.333 2.667-2.667 2.667-4 0-1.333 2.667-2.667 2.667-4 0-1.333 2.667-2.667 2.667-4 0-1.333 2.667-2.667 2.667-4 0-1.333 2.667-2.667 2.667-4 0-1.333 2.667-2.667 2.667-4 0-1.333 2.667-2.667 2.667-4 0-1.333 2.667-2.667 2.667-4 0-1.333 2.667-2.667 2.667-4 0-1.333 2.667-2.667 2.667-4 0-1.333 2.667-2.667 2.667-4 0l-2 2c-1.101-1.894-2.434-2.561-4-2-.232 1.237-.732 2.237-1.5 3v-8a81.316 81.316 0 0 0 2.5-3c28.662 1 57.495 1.334 86.5 1ZM684.5 246.5v9c-.996-.086-1.829.248-2.5 1-1.333-2.667-2.667-2.667-4 0-1.333-2.667-2.667-2.667-4 0-1.333-2.667-2.667-2.667-4 0-1.333-2.667-2.667-2.667-4 0-1.333-2.667-2.667-2.667-4 0-1.333-2.667-2.667-2.667-4 0-1.333-2.667-2.667-2.667-4 0-1.333-2.667-2.667-2.667-4 0-1.333-2.667-2.667-2.667-4 0-1.333-2.667-2.667-2.667-4 0-1.333-2.667-2.667-2.667-4 0-1.333-2.667-2.667-2.667-4 0-1.333-2.667-2.667-2.667-4 0-1.333-2.667-2.667-2.667-4 0-1.333-2.667-2.667-2.667-4 0-1.333-2.667-2.667-2.667-4 0-1.333-2.667-2.667-2.667-4 0-1.333-2.667-2.667-2.667-4 0-1.333-2.667-2.667-2.667-4 0-1.333-2.667-2.667-2.667-4 0-1.101-1.894-2.434-2.561-4-2a81.316 81.316 0 0 1-2.5 3v-9c.958-.453 1.792-1.119 2.5-2a1136.15 1136.15 0 0 0 86.5 0Z"/><path style="opacity:1" fill="#3f99b8" d="M466.5 386.5a72.367 72.367 0 0 0 .5 12c.278.916.778 1.582 1.5 2a51.522 51.522 0 0 0 2 15c.57 9.232 1.903 18.232 4 27a3851.543 3851.543 0 0 1 12 77 7.93 7.93 0 0 1-1 3.5 185.042 185.042 0 0 1-16 8.5c1.713-.723 2.713-2.057 3-4a3371.128 3371.128 0 0 1-25-159.5 141.708 141.708 0 0 0-11.5-27.5c-17.78-25.114-38.947-46.947-63.5-65.5a56167.097 56167.097 0 0 1-35-22.5 10.5 10.5 0 0 1 3.5-5c31.149 17.303 59.649 38.303 85.5 63 15.985 15.974 28.485 34.307 37.5 55 .573 7.18 1.406 14.18 2.5 21Z"/><path style="opacity:1" fill="#263238" d="M296.5 251.5a229.708 229.708 0 0 1 4 11.5c-.556.383-.889.883-1 1.5a115.356 115.356 0 0 0-12 5.5c-5.573 3.172-7.573 8.005-6 14.5v321c3.978-.534 6.978.966 9 4.5a26.803 26.803 0 0 0 10 4.5c.111.617.444 1.117 1 1.5a632.785 632.785 0 0 1-2 12.5 50.784 50.784 0 0 0-8-5.5c-8.363-2.47-15.53-6.97-21.5-13.5a29055.972 29055.972 0 0 1 0-341c2.167-1.5 4-3.333 5.5-5.5a24.569 24.569 0 0 0 8-3 290.15 290.15 0 0 0 13-8.5Z"/><path style="opacity:1" fill="#4fc0e8" d="M337.5 252.5c11.643 7.491 23.31 14.991 35 22.5 24.553 18.553 45.72 40.386 63.5 65.5a141.708 141.708 0 0 1 11.5 27.5 3371.128 3371.128 0 0 0 25 159.5c-.287 1.943-1.287 3.277-3 4a201.52 201.52 0 0 0-24 12 726.204 726.204 0 0 1-3-54c-3.658-2.801-6.992-2.468-10 1a43703.54 43703.54 0 0 0-2 61 48.25 48.25 0 0 1-9 3.5 1437.11 1437.11 0 0 1-44 24.5c.166-7.674 0-15.341-.5-23-3.048-3.51-6.381-3.843-10-1a280.701 280.701 0 0 0 .5 41c1.915 1.571 2.915 3.571 3 6a1927.96 1927.96 0 0 1-41 17c1.841-40.345 3.841-80.678 6-121a18.453 18.453 0 0 0 6-.5c38.209-23.049 62.876-56.216 74-99.5 4.09-11.611 6.09-23.778 6-36.5.193-2.008-.474-3.508-2-4.5-.462-1.38-1.462-2.047-3-2a43.145 43.145 0 0 0-5 1.5c-.752.671-1.086 1.504-1 2.5-.768.763-1.268 1.763-1.5 3a633.307 633.307 0 0 0-1.5 22c-7.879 39.711-27.879 71.877-60 96.5a85.674 85.674 0 0 1-10 5.5 6061.034 6061.034 0 0 0 6-135.5c-.384-3.597-1.717-6.764-4-9.5a168.421 168.421 0 0 0 15.5-22c.996-6.666-1.837-9.166-8.5-7.5a442.97 442.97 0 0 1-14 19.5 140.305 140.305 0 0 0-6.5-13 661.519 661.519 0 0 0-16.5-24 918.682 918.682 0 0 1 28-42Z"/><path style="opacity:1" fill="#d75572" d="M36.5 247.5v15h-30v-15a349.799 349.799 0 0 1 30 0Z"/><path style="opacity:1" fill="#d3506d" d="M455.5 240.5c3.875.677 7.208 2.51 10 5.5 8.145 2.901 15.478 7.068 22 12.5-3.336.666-6.503.666-9.5 0-1.333 2.667-2.667 2.667-4 0-5.589.51-10.922.51-16 0l-2 2c-.5-6.658-.666-13.325-.5-20Z"/><path style="opacity:1" fill="#d75572" d="M792.5 247.5v15h-30v-15a349.799 349.799 0 0 1 30 0Z"/><path style="opacity:1" fill="#d95b77" d="M201.5 255.5v8a2002.922 2002.922 0 0 0-89-1v-5c.768-.763 1.268-1.763 1.5-3 1.566-.561 2.899.106 4 2l2-2c1.333 2.667 2.667 2.667 4 0 1.333 2.667 2.667 2.667 4 0 1.333 2.667 2.667 2.667 4 0 1.333 2.667 2.667 2.667 4 0 1.333 2.667 2.667 2.667 4 0 1.333 2.667 2.667 2.667 4 0 1.333 2.667 2.667 2.667 4 0 1.333 2.667 2.667 2.667 4 0 1.333 2.667 2.667 2.667 4 0 1.333 2.667 2.667 2.667 4 0 1.333 2.667 2.667 2.667 4 0 1.333 2.667 2.667 2.667 4 0 1.333 2.667 2.667 2.667 4 0 1.333 2.667 2.667 2.667 4 0 1.333 2.667 2.667 2.667 4 0 1.333 2.667 2.667 2.667 4 0 1.333 2.667 2.667 2.667 4 0 1.333 2.667 2.667 2.667 4 0 1.333 2.667 2.667 2.667 4 0 .667 2.667 1.333 2.667 2 0 1.011.837 2.178 1.17 3.5 1Z"/><path style="opacity:1" fill="#3a3c4c" d="M424.5 256.5c3.152-.541 5.652.459 7.5 3a64.218 64.218 0 0 1 0 16c-3.508 3.936-6.841 3.936-10 0a72.464 72.464 0 0 1 0-17c.995-.566 1.828-1.233 2.5-2Z"/><path style="opacity:1" fill="#d95b77" d="M684.5 255.5v7h-88c.237 1.291-.096 2.291-1 3v-8a81.316 81.316 0 0 0 2.5-3c1.566-.561 2.899.106 4 2 1.333-2.667 2.667-2.667 4 0 1.333-2.667 2.667-2.667 4 0 1.333-2.667 2.667-2.667 4 0 1.333-2.667 2.667-2.667 4 0 1.333-2.667 2.667-2.667 4 0 1.333-2.667 2.667-2.667 4 0 1.333-2.667 2.667-2.667 4 0 1.333-2.667 2.667-2.667 4 0 1.333-2.667 2.667-2.667 4 0 1.333-2.667 2.667-2.667 4 0 1.333-2.667 2.667-2.667 4 0 1.333-2.667 2.667-2.667 4 0 1.333-2.667 2.667-2.667 4 0 1.333-2.667 2.667-2.667 4 0 1.333-2.667 2.667-2.667 4 0 1.333-2.667 2.667-2.667 4 0 1.333-2.667 2.667-2.667 4 0 1.333-2.667 2.667-2.667 4 0 1.333-2.667 2.667-2.667 4 0 1.333-2.667 2.667-2.667 4 0 .671-.752 1.504-1.086 2.5-1Z"/><path style="opacity:1" fill="#dc637e" d="M112.5 262.5c29.74-.325 59.407.008 89 1v4c-29.183-.482-58.35-.816-87.5-1-.278.916-.778 1.582-1.5 2v-6Z"/><path style="opacity:1" fill="#d6607a" d="M454.5 239.5c.667 0 1 .333 1 1-.166 6.675 0 13.342.5 20l2-2c5.078.51 10.411.51 16 0 1.333 2.667 2.667 2.667 4 0 2.997.666 6.164.666 9.5 0 4.876 1.931 9.21 4.597 13 8-13.931.598-28.431.598-43.5 0a274.481 274.481 0 0 0-2.5 7v-34Z"/><path style="opacity:1" fill="#df6b84" d="M6.5 262.5h30v12c-9.85-.517-19.85-.517-30 0v-12Z"/><path style="opacity:1" fill="#db6780" d="M684.5 229.5a756.853 756.853 0 0 1 1 55h-1v-14c-29.891-.646-59.558.02-89 2v-7c.904-.709 1.237-1.709 1-3h88v-33Z"/><path style="opacity:1" fill="#de6982" d="M762.5 262.5h30v8h-30v-8Z"/><path style="opacity:1" fill="#e27088" d="M201.5 267.5v7c-28.915.088-57.748-.245-86.5-1a81.316 81.316 0 0 1-2.5 3v-8c.722-.418 1.222-1.084 1.5-2 29.15.184 58.317.518 87.5 1Z"/><path style="opacity:1" fill="#e17088" d="M500.5 266.5a8.43 8.43 0 0 1 4 .5 35.926 35.926 0 0 1 9 6.5c-19.303.277-38.969.61-59 1v-1c.764-2.24 1.598-4.573 2.5-7 15.069.598 29.569.598 43.5 0Z"/><path style="opacity:1" fill="#e4768e" d="M684.5 276.5c-29.442.45-59.108.45-89 0v-4c29.442-1.98 59.109-2.646 89-2v6Z"/><path style="opacity:1" fill="#e57c92" d="M201.5 274.5v6a1209.46 1209.46 0 0 0-46.5-1c-14.388.017-28.555.684-42.5 2v-5a81.316 81.316 0 0 0 2.5-3c28.752.755 57.585 1.088 86.5 1Z"/><path style="opacity:1" fill="#e27990" d="M299.5 264.5c2.045 2.484 4.712 3.484 8 3a19.22 19.22 0 0 0 1 6c-1.678 4.697-4.344 8.697-8 12 .03-.997-.47-1.664-1.5-2-5.93.055-11.764.388-17.5 1-1.573-6.495.427-11.328 6-14.5a115.356 115.356 0 0 1 12-5.5Z"/><path style="opacity:1" fill="#dddee0" d="M527.5 271.5a2872.361 2872.361 0 0 1 1.5 76c2.326.38 4.159 1.38 5.5 3-2.706-.387-5.039-1.387-7-3v-76Z"/><path style="opacity:1" fill="#e2788f" d="M761.5 252.5h1v18h30v9h-31v-27Z"/><path style="opacity:1" fill="#e78197" d="M36.5 274.5v9c-10.107.879-20.107.879-30 0v-9c10.15-.517 20.15-.517 30 0Z"/><path style="opacity:1" fill="#e9879b" d="M201.5 280.5v7c-29.74.325-59.407-.008-89-1v-5c13.945-1.316 28.112-1.983 42.5-2 15.764.041 31.264.374 46.5 1Z"/><path style="opacity:1" fill="#e78197" d="M513.5 273.5c.65.304 1.317.637 2 1a25.879 25.879 0 0 1 1 10c-21.778.113-43.778-.22-66-1 .237-1.291-.096-2.291-1-3v-2c2.249-.58 3.915-1.913 5-4 20.031-.39 39.697-.723 59-1Z"/><path style="opacity:1" fill="#e88298" d="M595.5 276.5c29.892.45 59.558.45 89 0v7c-28.526.611-57.026.944-85.5 1l-1-2a51.22 51.22 0 0 0-2.5 4v-10Z"/><path style="opacity:1" fill="#ea8a9d" d="M762.5 279.5h30v8h-30v-8Z"/><path style="opacity:1" fill="#ed93a5" d="M6.5 283.5c9.893.879 19.893.879 30 0v9h-30v-9Z"/><path style="opacity:1" fill="#ee95a7" d="M112.5 286.5c29.593.992 59.26 1.325 89 1v6a1959.637 1959.637 0 0 0-88-1c.237 1.291-.096 2.291-1 3v-9Z"/><path style="opacity:1" fill="#ec92a4" d="M449.5 280.5c.904.709 1.237 1.709 1 3 22.222.78 44.222 1.113 66 1v10c-9.939-1.309-20.106-1.976-30.5-2-10.19.001-20.023.668-29.5 2a32.6 32.6 0 0 1-4-4.5 4.934 4.934 0 0 0-3-.5v-9Z"/><path style="opacity:1" fill="#ed93a5" d="M684.5 283.5v9h-88c.237 1.291-.096 2.291-1 3v-9a51.22 51.22 0 0 1 2.5-4l1 2c28.474-.056 56.974-.389 85.5-1Z"/><path style="opacity:1" fill="#3d3b4a" d="M449.5 289.5a4.934 4.934 0 0 1 3 .5 32.6 32.6 0 0 0 4 4.5 46.493 46.493 0 0 0 7 9 56.242 56.242 0 0 0 11 14 65.842 65.842 0 0 0 10 12c.624 2.254 1.957 3.921 4 5 2.206 4.547 5.206 8.547 9 12 1.398 2.935 1.065 5.602-1 8-1.902 1.011-3.902 1.178-6 .5a803.394 803.394 0 0 1-47-59.5c-.15-4.325 1.85-6.325 6-6Z"/><path style="opacity:1" fill="#f2a0b0" d="M201.5 293.5v6a990.872 990.872 0 0 0-89 0v-4c.904-.709 1.237-1.709 1-3 29.407-.325 58.74.009 88 1Z"/><path style="opacity:1" fill="#ee9bab" d="M300.5 285.5a250.595 250.595 0 0 1-10.5 17 18.453 18.453 0 0 0-.5 6c-.968-2.107-1.302-4.441-1-7-2.45-.202-4.783.131-7 1v-18c5.736-.612 11.57-.945 17.5-1 1.03.336 1.53 1.003 1.5 2Z"/><path style="opacity:1" fill="#ef9fae" d="M684.5 284.5h1c.327 10.181-.006 20.181-1 30v-11c.214-1.644-.12-3.144-1-4.5a3782.79 3782.79 0 0 0-87-.5c.237 1.291-.096 2.291-1 3v-6c.904-.709 1.237-1.709 1-3h88v-8Z"/><path style="opacity:1" fill="#f19dad" d="M762.5 287.5h30v11h-30v-11Z"/><path style="opacity:1" fill="#92d8f0" d="M309.5 294.5a661.519 661.519 0 0 1 16.5 24 140.305 140.305 0 0 1 6.5 13 107.125 107.125 0 0 1-8.5 9 472.819 472.819 0 0 1-21.5-35 61.099 61.099 0 0 1 7-11Z"/><path style="opacity:1" fill="#f4a9b7" d="M201.5 299.5v4c-29.891-.646-59.558.02-89 2v-6a990.872 990.872 0 0 1 89 0Z"/><path style="opacity:1" fill="#f3a5b4" d="M516.5 294.5v10c-.958-.453-1.792-1.119-2.5-2a633.163 633.163 0 0 1-50.5 1 46.493 46.493 0 0 1-7-9c9.477-1.332 19.31-1.999 29.5-2 10.394.024 20.561.691 30.5 2Z"/><path style="opacity:1" fill="#f4a9b7" d="M684.5 303.5a5264.116 5264.116 0 0 1-83.5-1c-2.099.631-3.932 1.631-5.5 3v-4c.904-.709 1.237-1.709 1-3 29.002-.167 58.002 0 87 .5.88 1.356 1.214 2.856 1 4.5Z"/><path style="opacity:1" fill="#f4a7b5" d="M6.5 292.5h30v11h-30v-11Z"/><path style="opacity:1" fill="#f6b1bd" d="M684.5 303.5v4c-29.16-.058-58.494-.058-88 0 .268 1.599-.066 2.932-1 4v-6c1.568-1.369 3.401-2.369 5.5-3 27.558.551 55.392.884 83.5 1Z"/><path style="opacity:1" fill="#efacb8" d="M761.5 279.5h1v19h30v9h-30v19c0 .667-.333 1-1 1v-48Z"/><path style="opacity:1" fill="#f8b6c1" d="M201.5 303.5v8c-29.818-1.662-59.485-1.328-89 1v-7c29.442-1.98 59.109-2.646 89-2Z"/><path style="opacity:1" fill="#f9b9c4" d="M6.5 303.5h30v10h-30v-10Z"/><path style="opacity:1" fill="#f7b7c3" d="M516.5 304.5v11c-7.098-1.298-14.431-1.965-22-2l-21 1a5.576 5.576 0 0 1 1 3 56.242 56.242 0 0 1-11-14c17.007.335 33.841.002 50.5-1 .708.881 1.542 1.547 2.5 2Z"/><path style="opacity:1" fill="#fabcc7" d="M684.5 307.5v7h-3a1807.264 1807.264 0 0 0-85-1c.268 1.599-.066 2.932-1 4v-6c.934-1.068 1.268-2.401 1-4 29.506-.058 58.84-.058 88 0Z"/><path style="opacity:1" fill="#fac1cb" d="M201.5 311.5v7c-.958-.453-1.792-1.119-2.5-2a685.171 685.171 0 0 1-74 0c-.717.544-1.217 1.211-1.5 2-4.194-1.23-7.861-3.23-11-6 29.515-2.328 59.182-2.662 89-1Z"/><path style="opacity:1" fill="#fbc1ca" d="M792.5 307.5v10a349.799 349.799 0 0 0-30 0v-10h30Z"/><path style="opacity:1" fill="#fdcad2" d="M6.5 313.5h30v13h-30v-13Z"/><path style="opacity:1" fill="#fcc7cf" d="M681.5 314.5a59.648 59.648 0 0 1-11 7 1369.272 1369.272 0 0 0-74-1c.284 1.915-.049 3.581-1 5v-8c.934-1.068 1.268-2.401 1-4 28.505-.331 56.838.002 85 1Z"/><path style="opacity:1" fill="#3088a2" d="M479.5 365.5a225.36 225.36 0 0 0 4 25.5c-.43 1.434-1.264 2.601-2.5 3.5-.102 6.325.065 12.658.5 19a352.2 352.2 0 0 1-3.5-29 284.558 284.558 0 0 0-6-29c-6.157-14.324-14.323-27.324-24.5-39 .712-1.239 1.712-1.739 3-1.5a217.24 217.24 0 0 1 24.5 35.5c2.577 4.636 4.077 9.636 4.5 15Z"/><path style="opacity:1" fill="#fdced6" d="M201.5 318.5v9a499.363 499.363 0 0 0-63 0 114.09 114.09 0 0 1-12-5.5 14.698 14.698 0 0 1-3-3.5c.283-.789.783-1.456 1.5-2a685.171 685.171 0 0 0 74 0c.708.881 1.542 1.547 2.5 2Z"/><path style="opacity:1" fill="#fac9d1" d="M289.5 308.5a124.394 124.394 0 0 1 11 18c-6.621-.56-12.955.107-19 2v-26c2.217-.869 4.55-1.202 7-1-.302 2.559.032 4.893 1 7Z"/><path style="opacity:1" fill="#fccdd4" d="M516.5 315.5v14c-.904-.709-1.237-1.709-1-3-10.672-.167-21.339 0-32 .5.752.671 1.086 1.504 1 2.5a65.842 65.842 0 0 1-10-12 5.576 5.576 0 0 0-1-3l21-1c7.569.035 14.902.702 22 2Z"/><path style="opacity:1" fill="#fed0d7" d="M670.5 321.5c-3.526 1.493-6.859 3.493-10 6a1024.542 1024.542 0 0 0-64-1c.268 1.599-.066 2.932-1 4v-5c.951-1.419 1.284-3.085 1-5 24.839-.331 49.506.002 74 1Z"/><path style="opacity:1" fill="#fecfd6" d="M792.5 317.5v9h-30v-9a349.799 349.799 0 0 1 30 0Z"/><path style="opacity:1" fill="#fddadf" d="M201.5 327.5v6a633.163 633.163 0 0 1-50.5-1c-.717.544-1.217 1.211-1.5 2a23.077 23.077 0 0 0-9-4.5c-.881-.708-1.547-1.542-2-2.5a499.363 499.363 0 0 1 63 0ZM516.5 329.5v6a81.316 81.316 0 0 1-2.5-3h-24c-.717.544-1.217 1.211-1.5 2-2.043-1.079-3.376-2.746-4-5 .086-.996-.248-1.829-1-2.5 10.661-.5 21.328-.667 32-.5-.237 1.291.096 2.291 1 3ZM660.5 327.5a260.46 260.46 0 0 0-13 7 2.428 2.428 0 0 0-.5-2c-16.891.553-34.057.886-51.5 1v-3c.934-1.068 1.268-2.401 1-4 21.507-.331 42.84.003 64 1Z"/><path style="opacity:1" fill="#fcd9df" d="M762.5 326.5h30v7c-9.656-.992-19.156-1.326-28.5-1-1.392 2.778-1.892 5.778-1.5 9 .319 4.863-.014 9.53-1 14v-28c.667 0 1-.333 1-1Z"/><path style="opacity:1" fill="#ffdfe3" d="M6.5 326.5h30v11a349.799 349.799 0 0 0-30 0v-11Z"/><path style="opacity:1" fill="#fde2e6" d="M201.5 333.5v9c-.897-1.098-1.73-1.098-2.5 0-1.333-2.667-2.667-2.667-4 0-1.333-2.667-2.667-2.667-4 0-1.333-2.667-2.667-2.667-4 0-1.333-2.667-2.667-2.667-4 0-1.333-2.667-2.667-2.667-4 0-1.333-2.667-2.667-2.667-4 0-1.333-2.667-2.667-2.667-4 0-1.333-2.667-2.667-2.667-4 0-1.349-2.57-2.516-2.57-3.5 0-4.499-3.241-9.165-5.908-14-8 .283-.789.783-1.456 1.5-2a633.163 633.163 0 0 0 50.5 1Z"/><path style="opacity:1" fill="#fce0e4" d="M300.5 326.5c4.331 4.652 7.665 9.986 10 16-2.067-2.047-3.9-2.047-5.5 0-1.333-2.667-2.667-2.667-4 0-1.333-2.667-2.667-2.667-4 0-1.333-2.667-2.667-2.667-4 0-1.333-2.667-2.667-2.667-4 0-1.333-2.667-2.667-2.667-4 0-1.733-2.458-2.9-2.125-3.5 1v-15c6.045-1.893 12.379-2.56 19-2Z"/><path style="opacity:1" fill="#fae4e7" d="M516.5 335.5v9a12.93 12.93 0 0 0-5 .5c-4.625 4.784-8.625 9.951-12 15.5-1.846-1.53-2.846-3.53-3-6 2.065-2.398 2.398-5.065 1-8-3.794-3.453-6.794-7.453-9-12 .283-.789.783-1.456 1.5-2h24a81.316 81.316 0 0 0 2.5 3Z"/><path style="opacity:1" fill="#fde3e7" d="M647.5 334.5a72.452 72.452 0 0 1-14 8c-.275-2.342-1.108-2.342-2.5 0-1.333-2.667-2.667-2.667-4 0-1.333-2.667-2.667-2.667-4 0-1.333-2.667-2.667-2.667-4 0-1.333-2.667-2.667-2.667-4 0-1.333-2.667-2.667-2.667-4 0-1.333-2.667-2.667-2.667-4 0-1.333-2.667-2.667-2.667-4 0-1.333-2.667-2.667-2.667-4 0-.953-1.873-2.12-2.206-3.5-1v-8c17.443-.114 34.609-.447 51.5-1 .464.594.631 1.261.5 2Z"/><path style="opacity:1" fill="#ffe5e8" d="M792.5 333.5v8a349.799 349.799 0 0 1-30 0c-.392-3.222.108-6.222 1.5-9 9.344-.326 18.844.008 28.5 1Z"/><path style="opacity:1" fill="#ffebed" d="M36.5 337.5v9a349.799 349.799 0 0 0-30 0v-9a349.799 349.799 0 0 1 30 0Z"/><path style="opacity:1" fill="#92d9f1" d="M339.5 341.5c2.283 2.736 3.616 5.903 4 9.5a6061.034 6061.034 0 0 1-6 135.5c-4.531 3.184-5.198 7.184-2 12a15348.611 15348.611 0 0 0-6 121l-16 7c-.475-6.482-.475-13.149 0-20a542.5 542.5 0 0 1 1-29c.814-2.131 1.314-4.464 1.5-7l1.5-36a184.09 184.09 0 0 1 1-23c1.267-8.138 1.934-16.471 2-25a86.749 86.749 0 0 1 1-18 292.674 292.674 0 0 0 2-31 281.16 281.16 0 0 1 1-27c-.325-7.187.009-14.187 1-21a412.551 412.551 0 0 0 2-34 6.846 6.846 0 0 1 1-4c4.337-2.674 8.004-6.007 11-10Z"/><path style="opacity:1" fill="#fcf0f1" d="M201.5 342.5v19c-1.733-.508-2.066-1.341-1-2.5a112.97 112.97 0 0 0-15-.5v26c.172.992-.162 1.658-1 2 .166-10.006 0-20.006-.5-30a20.231 20.231 0 0 0-7.5-7.5c-4.704-1.715-9.037-3.882-13-6.5.984-2.57 2.151-2.57 3.5 0 1.333-2.667 2.667-2.667 4 0 1.333-2.667 2.667-2.667 4 0 1.333-2.667 2.667-2.667 4 0 1.333-2.667 2.667-2.667 4 0 1.333-2.667 2.667-2.667 4 0 1.333-2.667 2.667-2.667 4 0 1.333-2.667 2.667-2.667 4 0 1.333-2.667 2.667-2.667 4 0 .77-1.098 1.603-1.098 2.5 0Z"/><path style="opacity:1" fill="#3c3b4b" d="M516.5 344.5a102.904 102.904 0 0 0 11 3c1.961 1.613 4.294 2.613 7 3a247.043 247.043 0 0 0 17 5c2.889 4.071 2.556 7.904-1 11.5.228.399.562.565 1 .5-4.62 3.901-8.287 8.568-11 14a432.571 432.571 0 0 0-17 23 169.487 169.487 0 0 0-17 26c-.996-.086-1.829.248-2.5 1a183.542 183.542 0 0 1-7.5 10.5c-2.177 1.202-4.511 1.702-7 1.5-1.932-2.677-2.432-5.677-1.5-9 1.802-1.289 2.969-2.956 3.5-5a6002.866 6002.866 0 0 0 46-64.5c-.869-1.702-2.202-2.869-4-3.5-5.672-.748-11.005-2.415-16-5a723.615 723.615 0 0 0-22 29c-6.061 4.907-9.727 3.574-11-4a228.017 228.017 0 0 1 15-21c3.375-5.549 7.375-10.716 12-15.5a12.93 12.93 0 0 1 5-.5Z"/><path style="opacity:1" fill="#fef4f5" d="M310.5 342.5a22.38 22.38 0 0 1 5 7c.315 3.871-.018 7.538-1 11 .039-1.256-.461-2.256-1.5-3a237.256 237.256 0 0 1-30.5 1c.237 1.291-.096 2.291-1 3v-18c.6-3.125 1.767-3.458 3.5-1 1.333-2.667 2.667-2.667 4 0 1.333-2.667 2.667-2.667 4 0 1.333-2.667 2.667-2.667 4 0 1.333-2.667 2.667-2.667 4 0 1.333-2.667 2.667-2.667 4 0 1.6-2.047 3.433-2.047 5.5 0Z"/><path style="opacity:1" fill="#fbf1f2" d="M633.5 342.5a4507.317 4507.317 0 0 0-29 16c-11.689.205-23.022-.129-34-1 4.16-1.68 7.827-4.18 11-7.5 5.451-1.558 10.117-4.391 14-8.5 1.38-1.206 2.547-.873 3.5 1 1.333-2.667 2.667-2.667 4 0 1.333-2.667 2.667-2.667 4 0 1.333-2.667 2.667-2.667 4 0 1.333-2.667 2.667-2.667 4 0 1.333-2.667 2.667-2.667 4 0 1.333-2.667 2.667-2.667 4 0 1.333-2.667 2.667-2.667 4 0 1.333-2.667 2.667-2.667 4 0 1.392-2.342 2.225-2.342 2.5 0Z"/><path style="opacity:1" fill="#fef4f5" d="M792.5 341.5v17c-.617-.111-1.117-.444-1.5-1-9.833.679-19.666 1.345-29.5 2v-4c.986-4.47 1.319-9.137 1-14 9.881.429 19.881.429 30 0Z"/><path style="opacity:1" fill="#3a3a49" d="M419.5 357.5c.166 7.008 0 14.008-.5 21a117.672 117.672 0 0 0-3.5 20c-11.124 43.284-35.791 76.451-74 99.5a18.453 18.453 0 0 1-6 .5c-3.198-4.816-2.531-8.816 2-12a85.674 85.674 0 0 0 10-5.5c32.121-24.623 52.121-56.789 60-96.5 1.818-8.091 2.818-16.424 3-25-.086-.996.248-1.829 1-2.5a43.145 43.145 0 0 1 5-1.5c1.538-.047 2.538.62 3 2Z"/><path style="opacity:1" fill="#fcfafb" d="M36.5 346.5a40.939 40.939 0 0 0 .5 9c.093 2.507.926 4.674 2.5 6.5l8 4c1.374 3.683 4.04 5.349 8 5a385.576 385.576 0 0 0 21 12.5c-11.97.273-23.97.606-36 1-1.28-1.431-2.947-2.098-5-2v-3a58.967 58.967 0 0 1-11-3v-3h-6v-3c-4.013-1.674-8.013-3.341-12-5v-19a349.799 349.799 0 0 1 30 0Z"/><path style="opacity:1" fill="#fdfdfe" d="M314.5 360.5v20a51.22 51.22 0 0 1-2.5 4c-9.43-.194-18.93-.194-28.5 0a44.093 44.093 0 0 0-2-3v-20c.904-.709 1.237-1.709 1-3a237.256 237.256 0 0 0 30.5-1c1.039.744 1.539 1.744 1.5 3Z"/><path style="opacity:1" fill="#f9f9fa" d="M570.5 357.5c10.978.871 22.311 1.205 34 1a35.406 35.406 0 0 1-7 5.5l-4 1a865.177 865.177 0 0 1-35 20.5c-.283-.789-.783-1.456-1.5-2-5.218-.07-10.551.263-16 1l-1.5-.5c.752-.671 1.086-1.504 1-2.5 2.713-5.432 6.38-10.099 11-14 7.101-1.816 13.434-5.149 19-10Z"/><path style="opacity:1" fill="#f9fbfc" d="M792.5 358.5v7c-3.013-.128-5.513.872-7.5 3-2.411-1.653-3.578-.987-3.5 2-1.701.466-3.201.466-4.5 0-3.844 1.975-7.177 4.642-10 8l-1-1c-1.049 1.607-2.549 2.273-4.5 2v3c-3.937.204-7.604 1.204-11 3 .381 2.442-.286 3.109-2 2-.886.825-1.219 1.825-1 3h-6v3c-2.51-.446-4.51.22-6 2-11.179.328-22.179-.005-33-1a46.081 46.081 0 0 0 6-5.5 377.475 377.475 0 0 0 23-12 113.606 113.606 0 0 1 28-15c.881-.708 1.547-1.542 2-2.5 9.834-.655 19.667-1.321 29.5-2 .383.556.883.889 1.5 1Z"/><path style="opacity:1" fill="#fdfdfe" d="M201.5 361.5v20c-.904.709-1.237 1.709-1 3h-15v-26a112.97 112.97 0 0 1 15 .5c-1.066 1.159-.733 1.992 1 2.5Z"/><path style="opacity:1" fill="#4ebee6" d="M491.5 429.5c-.617.111-1.117.444-1.5 1-.29-1.544-.956-2.877-2-4a521.959 521.959 0 0 0-3.5-32c-.088-2.212.412-4.212 1.5-6 2.795 1.283 5.628 1.283 8.5 0a5.576 5.576 0 0 0 1-3 723.615 723.615 0 0 1 22-29c4.995 2.585 10.328 4.252 16 5 1.798.631 3.131 1.798 4 3.5a6002.866 6002.866 0 0 1-46 64.5Z"/><path style="opacity:1" fill="#5e788c" d="M327.5 355.5a412.551 412.551 0 0 1-2 34c-.166-9.006 0-18.006.5-27 .186-2.536.686-4.869 1.5-7Z"/><path style="opacity:1" fill="#4586a3" d="M410.5 359.5c-.182 8.576-1.182 16.909-3 25 .372-7.337.872-14.671 1.5-22 .232-1.237.732-2.237 1.5-3Z"/><path style="opacity:1" fill="#7a7b85" d="M315.5 349.5a154.506 154.506 0 0 1-1 38v-27c.982-3.462 1.315-7.129 1-11Z"/><path style="opacity:1" fill="#eff9fb" d="M76.5 383.5a416.229 416.229 0 0 1 30 18c-10.153.994-20.487 1.328-31 1h-6v-3h-5v-3c-8.452-3.46-16.452-7.46-24-12 12.03-.394 24.03-.727 36-1Z"/><path style="opacity:1" fill="#e7f0f2" d="M540.5 381.5c.086.996-.248 1.829-1 2.5l1.5.5c5.449-.737 10.782-1.07 16-1 .717.544 1.217 1.211 1.5 2a9931.735 9931.735 0 0 1-34 20c-.667 0-1-.333-1-1a432.571 432.571 0 0 1 17-23Z"/><path style="opacity:1" fill="#3d5265" d="M419.5 357.5c1.526.992 2.193 2.492 2 4.5.09 12.722-1.91 24.889-6 36.5.603-6.84 1.77-13.507 3.5-20 .5-6.992.666-13.992.5-21Z"/><path style="opacity:1" fill="#eaf7fa" d="M201.5 381.5v27a14.698 14.698 0 0 0-3.5 3c-1.333-2.667-2.667-2.667-4 0-1.333-2.667-2.667-2.667-4 0-.928-1.835-2.094-2.168-3.5-1a467.073 467.073 0 0 0-2-9v-15c.838-.342 1.172-1.008 1-2h15c-.237-1.291.096-2.291 1-3Z"/><path style="opacity:1" fill="#ecf8fb" d="M314.5 380.5v7c-.968 2.107-1.302 4.441-1 7a379.145 379.145 0 0 0-2 10.5c-10.077.807-20.077.64-30-.5v-23a44.093 44.093 0 0 1 2 3c9.57-.194 19.07-.194 28.5 0a51.22 51.22 0 0 0 2.5-4Z"/><path style="opacity:1" fill="#3d6a82" d="M466.5 386.5c1.021 4.48 1.687 9.147 2 14-.722-.418-1.222-1.084-1.5-2a72.367 72.367 0 0 1-.5-12Z"/><path style="opacity:1" fill="#e3f2f6" d="M702.5 394.5c10.821.995 21.821 1.328 33 1-1.1 1.058-2.434 1.892-4 2.5l1 1a12.93 12.93 0 0 1-5 .5v3a9.86 9.86 0 0 0-6 1c-3.423 1.192-6.256 3.192-8.5 6l-1-1c-1.049 1.607-2.549 2.273-4.5 2-.829-.832-1.662-.499-2.5 1-1.333-2.667-2.667-2.667-4 0-1.333-2.667-2.667-2.667-4 0-1.333-2.667-2.667-2.667-4 0-1.333-2.667-2.667-2.667-4 0-1.333-2.667-2.667-2.667-4 0-1.333-2.667-2.667-2.667-4 0l-2-2c-1.292 1.291-2.458 1.291-3.5 0a148.574 148.574 0 0 1 27-15Z"/><path style="opacity:1" fill="#39a8c7" d="M523.5 404.5c0 .667.333 1 1 1 .61.891.943 1.891 1 3a63.83 63.83 0 0 1-2 7.5c3.133 11.368-1.2 17.201-13 17.5l-4-3a169.487 169.487 0 0 1 17-26Z"/><path style="opacity:1" fill="#3c3b4a" d="M525.5 408.5a131.363 131.363 0 0 0 9 4 89.41 89.41 0 0 1 1 15c-2.919 10.223-9.753 15.557-20.5 16-5.341-1.422-6.841-4.755-4.5-10 11.8-.299 16.133-6.132 13-17.5a63.83 63.83 0 0 0 2-7.5Z"/><path style="opacity:1" fill="#3f99b8" d="M479.5 365.5c.722.418 1.222 1.084 1.5 2 .448 5.03 1.114 10.03 2 15 .383-.556.883-.889 1.5-1 1.273 7.574 4.939 8.907 11 4a5.576 5.576 0 0 1-1 3c-2.872 1.283-5.705 1.283-8.5 0-1.088 1.788-1.588 3.788-1.5 6a521.959 521.959 0 0 1 3.5 32c1.044 1.123 1.71 2.456 2 4 .383-.556.883-.889 1.5-1-.531 2.044-1.698 3.711-3.5 5-.932 3.323-.432 6.323 1.5 9a6.547 6.547 0 0 1-3 3 1688.807 1688.807 0 0 1-5-33 224.604 224.604 0 0 1-.5-19c1.236-.899 2.07-2.066 2.5-3.5a225.36 225.36 0 0 1-4-25.5Z"/><path style="opacity:1" fill="#d9ebf1" d="M106.5 401.5a4.934 4.934 0 0 1 3 .5 513.272 513.272 0 0 0 26 15.5 342.787 342.787 0 0 1-37 1c-2.11-3.065-5.11-4.731-9-5v-3c-2.908.238-5.242-.762-7-3a3.647 3.647 0 0 0-1.5 1c-1.667-1-3-2.333-4-4l-1 1a4.932 4.932 0 0 1-.5-3c10.513.328 20.847-.006 31-1Z"/><path style="opacity:1" fill="#d3e7ee" d="M313.5 394.5v14a223.196 223.196 0 0 1-3 19c-2.217-.869-4.55-1.202-7-1-7.611.576-14.944-.09-22-2v-20a154.309 154.309 0 0 0 30 .5 379.145 379.145 0 0 1 2-10.5Z"/><path style="opacity:1" fill="#4c5a6a" d="M324.5 410.5a281.16 281.16 0 0 0-1 27h-1c-.166-7.008 0-14.008.5-21 .191-2.208.691-4.208 1.5-6Z"/><path style="opacity:1" fill="#b1b0b5" d="M534.5 412.5h1c1.191 5.145 1.191 10.145 0 15a89.41 89.41 0 0 0-1-15Z"/><path style="opacity:1" fill="#d0e5ed" d="M184.5 401.5a467.073 467.073 0 0 1 2 9c1.406-1.168 2.572-.835 3.5 1 1.333-2.667 2.667-2.667 4 0 1.333-2.667 2.667-2.667 4 0a14.698 14.698 0 0 1 3.5-3v16c-5.37 1.879-11.037 2.545-17 2v-25Z"/><path style="opacity:1" fill="#92969e" d="M313.5 408.5c.241 7.23-.425 14.23-2 21l-1-2a223.196 223.196 0 0 0 3-19Z"/><path style="opacity:1" fill="#cfe3eb" d="M675.5 409.5c1.042 1.291 2.208 1.291 3.5 0l2 2c1.333-2.667 2.667-2.667 4 0 1.333-2.667 2.667-2.667 4 0 1.333-2.667 2.667-2.667 4 0 1.333-2.667 2.667-2.667 4 0 1.333-2.667 2.667-2.667 4 0 1.333-2.667 2.667-2.667 4 0 .838-1.499 1.671-1.832 2.5-1v3h-6v3h-5v3c-2.185.388-4.018 1.388-5.5 3-2.278-1.12-3.778-.287-4.5 2.5-1.882.198-3.548.698-5 1.5-11.512.328-22.846-.005-34-1a1353.552 1353.552 0 0 0 25-15.5 4.934 4.934 0 0 1 3-.5Z"/><path style="opacity:1" fill="#3d566a" d="M470.5 415.5c2.633 8.643 3.966 17.643 4 27-2.097-8.768-3.43-17.768-4-27Z"/><path style="opacity:1" fill="#263238" d="M303.5 426.5c2.45-.202 4.783.131 7 1l1 2v11c-1.97 8.269-2.636 16.935-2 26a608.4 608.4 0 0 1-3 49h-2c-.946-1.431-2.112-2.764-3.5-4a98.432 98.432 0 0 1-.5-14v-57a60.931 60.931 0 0 1 .5-11 10.515 10.515 0 0 0 2.5-3Z"/><path style="opacity:1" fill="#c4dae4" d="M135.5 417.5c9.443 5.381 18.777 10.714 28 16-.283.789-.783 1.456-1.5 2-.667-1.333-1.333-1.333-2 0-.667-2.667-1.333-2.667-2 0-.667-2.667-1.333-2.667-2 0-2.924-.51-5.59-.51-8 0-.667-2.667-1.333-2.667-2 0-5.455-1.212-10.955-1.212-16.5 0-1.418-1.808-3.418-2.475-6-2v-3h-5v-3c-2.921.354-5.254-.646-7-3-1.714 1.109-2.381.442-2-2a12.93 12.93 0 0 1-5-.5c-1.711-1.776-3.711-2.942-6-3.5a342.787 342.787 0 0 0 37-1Z"/><path style="opacity:1" fill="#b6cfdd" d="M201.5 424.5v18c-.958.453-1.792 1.119-2.5 2-15-1.333-30-1.333-45 0-1.791-2.013-3.125-2.013-4 0l-1-2c-1.57.17-3.403.503-5.5 1-1.419-.951-3.085-1.284-5-1v-3h-6v-3c-1.291.237-2.291-.096-3-1 5.545-1.212 11.045-1.212 16.5 0 .667-2.667 1.333-2.667 2 0 2.41-.51 5.076-.51 8 0 .667-2.667 1.333-2.667 2 0 .667-2.667 1.333-2.667 2 0 .667-1.333 1.333-1.333 2 0 .717-.544 1.217-1.211 1.5-2a43.12 43.12 0 0 1 8 4.5c8.538 1.799 12.371-1.701 11.5-10.5.383-.556.883-.889 1.5-1 5.963.545 11.63-.121 17-2Z"/><path style="opacity:1" fill="#b8d1de" d="M281.5 424.5c7.056 1.91 14.389 2.576 22 2a10.515 10.515 0 0 1-2.5 3 60.931 60.931 0 0 0-.5 11 51.22 51.22 0 0 1-2.5 4c-3-1.333-6-1.333-9 0-1.851-2.281-3.518-2.281-5 0-.708-.881-1.542-1.547-2.5-2v-18Z"/><path style="opacity:1" fill="#b8d0dd" d="M647.5 425.5c11.154.995 22.488 1.328 34 1l-8 4v3h-6v3h-6v3c-1.788-.285-3.455.048-5 1 1.129 2.029.629 2.363-1.5 1-.717.544-1.217 1.211-1.5 2a19.871 19.871 0 0 0-5.5-1l-2 2h-22c-1.309-2.391-2.309-2.391-3 0-.667-2.667-1.333-2.667-2 0a2.428 2.428 0 0 1-.5-2 377.78 377.78 0 0 1 29-17Z"/><path style="opacity:1" fill="#a9c4d4" d="M201.5 442.5v8c-1.266 3.431-3.099 3.765-5.5 1-1.851 2.281-3.518 2.281-5 0-.667 2.667-1.333 2.667-2 0-1.333 2.667-2.667 2.667-4 0-.667 2.667-1.333 2.667-2 0-1.333 2.667-2.667 2.667-4 0-1.851 2.281-3.518 2.281-5 0-.667 2.667-1.333 2.667-2 0-1.333 2.667-2.667 2.667-4 0-.383.556-.883.889-1.5 1-8.025-3.347-15.692-6.347-23-9 2.097-.497 3.93-.83 5.5-1l1 2c.875-2.013 2.209-2.013 4 0 15-1.333 30-1.333 45 0 .708-.881 1.542-1.547 2.5-2Z"/><path style="opacity:1" fill="#c9cacd" d="M311.5 440.5a316.701 316.701 0 0 1-2 26c-.636-9.065.03-17.731 2-26Z"/><path style="opacity:1" fill="#688ca0" d="M322.5 437.5h1a292.674 292.674 0 0 1-2 31 339.915 339.915 0 0 1 1-31Z"/><path style="opacity:1" fill="#97b4c7" d="M201.5 450.5v16c-4.866.77-9.866 1.103-15 1 .17-1.322-.163-2.489-1-3.5a400.458 400.458 0 0 1-19-11.5c.617-.111 1.117-.444 1.5-1 1.333 2.667 2.667 2.667 4 0 .667 2.667 1.333 2.667 2 0 1.482 2.281 3.149 2.281 5 0 1.333 2.667 2.667 2.667 4 0 .667 2.667 1.333 2.667 2 0 1.333 2.667 2.667 2.667 4 0 .667 2.667 1.333 2.667 2 0 1.482 2.281 3.149 2.281 5 0 2.401 2.765 4.234 2.431 5.5-1Z"/><path style="opacity:1" fill="#9fbacc" d="M300.5 440.5v17c-6.128 2.303-12.462 2.636-19 1v-16c.958.453 1.792 1.119 2.5 2 1.482-2.281 3.149-2.281 5 0 3-1.333 6-1.333 9 0a51.22 51.22 0 0 0 2.5-4Z"/><path style="opacity:1" fill="#9eb9cb" d="M618.5 442.5a2.428 2.428 0 0 0 .5 2c.667-2.667 1.333-2.667 2 0 .691-2.391 1.691-2.391 3 0h22l2-2c1.829.065 3.662.398 5.5 1-.672.767-1.505 1.434-2.5 2-1.011-.837-2.178-1.17-3.5-1v3c-3.096-.593-5.429.407-7 3a47.25 47.25 0 0 1-7 3v3h-6v3h-5c-11.179.328-22.179-.005-33-1a181 181 0 0 1 29-16Z"/><path style="opacity:1" fill="#9c9da5" d="M487.5 456.5c1.424 2.015 2.09 4.348 2 7-1.844-1.779-2.51-4.112-2-7Z"/><path style="opacity:1" fill="#8daac0" d="M300.5 457.5v8c-.809 1.792-1.309 3.792-1.5 6a212.766 212.766 0 0 0-17.5-1v-12c6.538 1.636 12.872 1.303 19-1Z"/><path style="opacity:1" fill="#8eabc0" d="M589.5 458.5c10.821.995 21.821 1.328 33 1 .131.876-.202 1.543-1 2-3.394.778-6.227 2.445-8.5 5l-1-1c-1.049 1.607-2.549 2.273-4.5 2a3058.929 3058.929 0 0 1-32-1c4.202-3.542 8.869-6.209 14-8Z"/><path style="opacity:1" fill="#7c9ab4" d="M575.5 466.5c10.639.388 21.305.722 32 1v12c-17.699.653-35.032-.014-52-2a4.934 4.934 0 0 0 3-.5 90.82 90.82 0 0 1 17-10.5Z"/><path style="opacity:1" fill="#7897b1" d="M201.5 466.5v17a61.281 61.281 0 0 1-15 1v-17c5.134.103 10.134-.23 15-1Z"/><path style="opacity:1" fill="#6d8ea9" d="M555.5 477.5c16.968 1.986 34.301 2.653 52 2v12c-4.1.263-8.1-.07-12-1 .526-3.308-.807-5.474-4-6.5-3-.667-6-.667-9 0a19.51 19.51 0 0 1-7 3.5c-11.512.328-22.846-.005-34-1a157.669 157.669 0 0 0 14-9Z"/><path style="opacity:1" fill="#7292ad" d="M300.5 465.5v22a96.254 96.254 0 0 1-19-1v-16c5.889.095 11.722.429 17.5 1 .191-2.208.691-4.208 1.5-6Z"/><path style="opacity:1" fill="#263238" d="M595.5 490.5v50c.167 34.002 0 68.002-.5 102-2.329 5.671-6.162 10.171-11.5 13.5a192.811 192.811 0 0 0-13 6 219.87 219.87 0 0 0-13 10 78.488 78.488 0 0 0-23 13 72.248 72.248 0 0 0-20 10.5c-2.238 1.037-4.571 1.203-7 .5-2.152-2.726-3.152-5.559-3-8.5 25.973-14.988 51.973-29.988 78-45 1.167-48.663 1.333-97.33.5-146a599.649 599.649 0 0 0-36.5 21.5l-4 1c-3.439 3.52-7.439 6.02-12 7.5.167 10.672 0 21.339-.5 32l-2 2-1 50c-6.566 5.29-13.732 9.457-21.5 12.5a39.806 39.806 0 0 0-8 7c-3.615.47-6.949 1.637-10 3.5v-13a281.28 281.28 0 0 0 19-10.5c2.945-3.418 6.612-5.584 11-6.5 1-20.656 1.333-41.323 1-62v-21a1615.446 1615.446 0 0 1 25-14.5c2.118-1.049 3.784-2.549 5-4.5a89.045 89.045 0 0 1 18-7.5c2.396-3.262 5.396-5.429 9-6.5a19.51 19.51 0 0 0 7-3.5c3-.667 6-.667 9 0 3.193 1.026 4.526 3.192 4 6.5Z"/><path style="opacity:1" fill="#416c84" d="M442.5 489.5a726.204 726.204 0 0 0 3 54c-.311.978-.978 1.645-2 2a784.569 784.569 0 0 1-1-56Z"/><path style="opacity:1" fill="#437792" d="M432.5 490.5c.655 20.694-.012 41.027-2 61a43703.54 43703.54 0 0 1 2-61Z"/><path style="opacity:1" fill="#5c7c9c" d="M595.5 490.5c3.9.93 7.9 1.263 12 1v10c-4.1.263-8.1-.07-12-1v-10Z"/><path style="opacity:1" fill="#5e7f9e" d="M201.5 483.5v17a61.281 61.281 0 0 1-15 1v-17a61.281 61.281 0 0 0 15-1Z"/><path style="opacity:1" fill="#5c7c9c" d="M281.5 486.5a96.254 96.254 0 0 0 19 1v10c-.934 1.068-1.268 2.401-1 4a86.749 86.749 0 0 1-18-1v-14Z"/><path style="opacity:1" fill="#fdfdfd" d="M504.5 687.5a203.736 203.736 0 0 1-9-12.5 52.141 52.141 0 0 1-10-1.5 4.457 4.457 0 0 1 1.5-2c.5-12.662.667-25.329.5-38 3.051-1.863 6.385-3.03 10-3.5a39.806 39.806 0 0 1 8-7c7.768-3.043 14.934-7.21 21.5-12.5l1-50 2-2c.5-10.661.667-21.328.5-32 4.561-1.48 8.561-3.98 12-7.5l4-1a599.649 599.649 0 0 1 36.5-21.5c.833 48.67.667 97.337-.5 146a436209.776 436209.776 0 0 0-78 45Z"/><path style="opacity:1" fill="#5b7b9a" d="M541.5 486.5c11.154.995 22.488 1.328 34 1-3.604 1.071-6.604 3.238-9 6.5a89.045 89.045 0 0 0-18 7.5c-10.514.328-20.847-.006-31-1 3.112-2.946 6.779-4.78 11-5.5 3.725-3.915 8.058-6.748 13-8.5Z"/><path style="opacity:1" fill="#5e788b" d="M320.5 486.5c-.066 8.529-.733 16.862-2 25-.398-8.568.269-16.901 2-25Z"/><path style="opacity:1" fill="#48698d" d="M300.5 497.5a98.432 98.432 0 0 0 .5 14c1.388 1.236 2.554 2.569 3.5 4a66.641 66.641 0 0 1-23 0v-15a86.749 86.749 0 0 0 18 1c-.268-1.599.066-2.932 1-4Z"/><path style="opacity:1" fill="#46678b" d="M517.5 500.5c10.153.994 20.486 1.328 31 1-1.216 1.951-2.882 3.451-5 4.5a1615.446 1615.446 0 0 0-25 14.5c-6.84.493-13.507.493-20 0-.973-2.448-1.306-5.115-1-8a14.698 14.698 0 0 1 3-3.5 118.029 118.029 0 0 0 17-8.5Z"/><path style="opacity:1" fill="#44658b" d="M595.5 500.5c3.9.93 7.9 1.263 12 1-.278 1.846.389 3.18 2 4a57.15 57.15 0 0 1 1 15c-3.385.42-6.552.753-9.5 1a72.144 72.144 0 0 0-5.5-2v-19ZM201.5 500.5v20c-4.834.555-9.834.555-15 0v-19a61.281 61.281 0 0 0 15-1Z"/><path style="opacity:1" fill="#32547e" d="M186.5 520.5c5.166.555 10.166.555 15 0v16h-15v-16ZM281.5 515.5a66.641 66.641 0 0 0 23 0h2a303.033 303.033 0 0 1-1 19c-.672.767-1.505 1.434-2.5 2-6.999-.665-14.166-.665-21.5 0v-21Z"/><path style="opacity:1" fill="#2c4f7a" d="M518.5 520.5v21c-10.312.042-20.646.042-31 0a514.367 514.367 0 0 0-3-4 86.346 86.346 0 0 1 13.5-7c1.735-3.29 1.901-6.623.5-10 6.493.493 13.16.493 20 0Z"/><path style="opacity:1" fill="#2d4f7a" d="M595.5 519.5a72.144 72.144 0 0 1 5.5 2c2.948-.247 6.115-.58 9.5-1v22a670.647 670.647 0 0 0-13 0 31.147 31.147 0 0 0-2-2v-21Z"/><path style="opacity:1" fill="#1f4370" d="M186.5 536.5h15c-.167 37.335 0 74.668.5 112a18.839 18.839 0 0 1 6.5 5.5 55.63 55.63 0 0 1 18 10 114.425 114.425 0 0 1 30 18 103.393 103.393 0 0 1 26 13.5 30.233 30.233 0 0 0-3.5 3 210.395 210.395 0 0 0 0 29c4.789 3.289 8.289 2.289 10.5-3h44c1.181 1.567 2.847 2.401 5 2.5 1.374 3.683 4.041 5.349 8 5a279.412 279.412 0 0 1 19 12c4.871 1.741 9.204 4.408 13 8a35.157 35.157 0 0 1 10 5 90.158 90.158 0 0 0 10 2.5c5.709-1.029 11.042-2.862 16-5.5 5.239-4.798 11.239-8.131 18-10 4.933-4.604 10.6-7.938 17-10l4-4c3.754-1.296 7.087-3.13 10-5.5h46c-.203 1.89.463 3.39 2 4.5 3.456 1.123 6.29.29 8.5-2.5.667-9 .667-18 0-27-1.5-1.969-3.333-3.302-5.5-4a72.248 72.248 0 0 1 20-10.5 78.488 78.488 0 0 1 23-13 219.87 219.87 0 0 1 13-10 192.811 192.811 0 0 1 13-6c5.338-3.329 9.171-7.829 11.5-13.5.5-33.998.667-67.998.5-102a31.147 31.147 0 0 1 2 2c4.354-.042 8.688-.042 13 0 .333 44.005 0 88.005-1 132-1.671 2.01-2.338 4.343-2 7-3.064 1.19-5.731 2.857-8 5h-3v3a58.97 58.97 0 0 0-11 3v3c-1.859-.039-3.192.794-4 2.5a12.93 12.93 0 0 1-5 .5v3c-2.582-.475-4.582.192-6 2-2.281 1.928-4.947 2.928-8 3v3h-6v3c-4.045-.073-7.378 1.427-10 4.5l1 1a118.288 118.288 0 0 0-17 7.5 10.756 10.756 0 0 0-2.5 3l-1-1c-1.049 1.607-2.549 2.273-4.5 2v3h-6v3h-5v3c-2.524-.071-4.524.929-6 3-2.12-1.372-3.12-.705-3 2a12.93 12.93 0 0 0-5 .5 101.657 101.657 0 0 0-10 7.5 9.108 9.108 0 0 1-5 1v3c-2.51-.446-4.51.22-6 2-2.216.703-4.049 2.036-5.5 4-1.813-1.109-2.646-.442-2.5 2a12.93 12.93 0 0 0-5 .5c-1.497 1.871-3.497 2.871-6 3-1.307 2.324-3.307 3.657-6 4l2 1a12.93 12.93 0 0 1-5 .5v3a9.86 9.86 0 0 0-6 1 35.217 35.217 0 0 1-8 4v3h-6v3h-6v3a8.43 8.43 0 0 0-4 .5l-5 5c-1.284.684-2.451.517-3.5-.5-1.263 2.968-3.263 3.968-6 3a2.428 2.428 0 0 0-.5 2h-12c-.507-1.359-1.507-2.359-3-3a137.913 137.913 0 0 0-11-4v-3c-2.133-1.386-5.133-2.386-9-3v-3h-5v-3c-3.005.247-5.505-.753-7.5-3l-1 1a4.934 4.934 0 0 1-.5-3h-6v-3h-5v-3h-6v-3c-5.922-1.727-11.089-4.727-15.5-9-.718.951-1.551 1.117-2.5.5 1.333-.667 1.333-1.333 0-2a12.93 12.93 0 0 0-5-.5v-3a58.97 58.97 0 0 1-11-3v-3c-8.654-3.265-16.321-6.932-23-11v-3h-6v-3h-5v-3a8.43 8.43 0 0 1-4-.5c-4.85-3.699-10.184-6.199-16-7.5v-3h-6v-3c-2.092-.061-3.592-1.061-4.5-3-1.299.466-2.799.466-4.5 0v-3c-1.788.285-3.455-.048-5-1-2.158-3.144-5.158-4.477-9-4v-3a12.93 12.93 0 0 1-5-.5c-2.625-3.031-6.125-5.864-10.5-8.5-2.537.677-4.537-.323-6-3l-1 1c-1.667-1-3-2.333-4-4-1.049 1.017-2.216 1.184-3.5.5l1-1a15.645 15.645 0 0 1-4-2.5c-1-47.995-1.333-95.995-1-144Z"/><path style="opacity:1" fill="#2d8aa4" d="M473.5 542.5a4148.763 4148.763 0 0 1 3 129c.978.311 1.645.978 2 2a122.079 122.079 0 0 1-27 .5 10.515 10.515 0 0 1 3-2.5c1.052 1.756 2.719 2.423 5 2 .661-41.347-.006-82.347-2-123a89.654 89.654 0 0 1 16-8Z"/><path style="opacity:1" fill="#36667a" d="M473.5 542.5c.709-.904 1.709-1.237 3-1v130a4148.763 4148.763 0 0 0-3-129Z"/><path style="opacity:1" fill="#204370" d="M305.5 534.5c.597.235.93.735 1 1.5a400.151 400.151 0 0 0-1.5 26.5 3421.528 3421.528 0 0 1-4.5 52 26.803 26.803 0 0 1-10-4.5c-2.022-3.534-5.022-5.034-9-4.5v-69c7.334-.665 14.501-.665 21.5 0 .995-.566 1.828-1.233 2.5-2Z"/><path style="opacity:1" fill="#1f4370" d="M487.5 541.5c10.354.042 20.688.042 31 0 .333 20.677 0 41.344-1 62-4.388.916-8.055 3.082-11 6.5a281.28 281.28 0 0 1-19 10.5v-79Z"/><path style="opacity:1" fill="#597084" d="m317.5 534.5-1.5 36c-.186 2.536-.686 4.869-1.5 7 .513-12.329 1.013-24.663 1.5-37 .191-2.208.691-4.208 1.5-6Z"/><path style="opacity:1" fill="#38a8c7" d="M457.5 550.5c1.994 40.653 2.661 81.653 2 123-2.281.423-3.948-.244-5-2 .167-38.335 0-76.668-.5-115a10.756 10.756 0 0 1-2.5-3 12.805 12.805 0 0 1 6-3Z"/><path style="opacity:1" fill="#397087" d="M441.5 558.5c.06-.543.393-.876 1-1 1 37.994 1.333 75.994 1 114l-2-113Z"/><path style="opacity:1" fill="#38aece" d="m441.5 558.5 2 113c.767.672 1.434 1.505 2 2.5a113.23 113.23 0 0 1-26-.5c.355-1.022 1.022-1.689 2-2 .667-16.163 1-32.497 1-49-.001-16.681-.667-33.014-2-49-.453-.958-1.119-1.792-2-2.5l1-1a4092.538 4092.538 0 0 0 22-11.5Z"/><path style="opacity:1" fill="#398fab" d="M420.5 573.5c1.333 15.986 1.999 32.319 2 49 0 16.503-.333 32.837-1 49 .326-32.74-.008-65.407-1-98Z"/><path style="opacity:1" fill="#3a87a2" d="M407.5 576.5c.709-.904 1.709-1.237 3-1v95a2199.162 2199.162 0 0 0-3-94Z"/><path style="opacity:1" fill="#38abcb" d="M407.5 576.5a2199.162 2199.162 0 0 1 3 94c.641.982 1.307 1.982 2 3a85.021 85.021 0 0 1-26 0 4.457 4.457 0 0 1 1.5-2c.667-20 .667-40 0-60a10.756 10.756 0 0 1-2.5-3c1.936-2.708 2.436-5.708 1.5-9-2.858-1.865-5.358-4.032-7.5-6.5a2823.25 2823.25 0 0 0 9-7l19-9.5Z"/><path style="opacity:1" fill="#38778f" d="M375.5 612.5c.06-.543.393-.876 1-1 1 19.989 1.333 39.989 1 60l-2-59Z"/><path style="opacity:1" fill="#38accc" d="m375.5 612.5 2 59c-3.438 1.323-7.271 1.99-11.5 2-4.015-.001-7.849-.335-11.5-1a359.083 359.083 0 0 0 .5-46c-.9-1.27-2.066-2.27-3.5-3a7.248 7.248 0 0 1 2-2.5 908.907 908.907 0 0 1 22-8.5Z"/><path style="opacity:1" fill="#5d788c" d="M313.5 606.5c-.475 6.851-.475 13.518 0 20-.06.543-.393.876-1 1-1.383-7.216-1.05-14.216 1-21Z"/><path style="opacity:1" fill="#387a92" d="M344.5 671.5a484.723 484.723 0 0 1-1-44h-3c.761-.891 1.761-1.558 3-2a529.904 529.904 0 0 1 1 46Z"/><path style="opacity:1" fill="#87cbdf" d="M322.5 671.5c.167-10.672 0-21.339-.5-32a26.585 26.585 0 0 1-3.5-2c4.592-3.304 9.592-5.637 15-7 1.644.214 3.144-.12 4.5-1 .5 14.663.667 29.33.5 44-5.771.613-11.104-.054-16-2Z"/><path style="opacity:1" fill="#4baecc" d="M340.5 627.5h3a484.723 484.723 0 0 0 1 44c.978.311 1.645.978 2 2a122.079 122.079 0 0 1-27 .5 10.515 10.515 0 0 1 3-2.5c4.896 1.946 10.229 2.613 16 2 .167-14.67 0-29.337-.5-44-1.356.88-2.856 1.214-4.5 1a43.355 43.355 0 0 1 7-3Z"/><path style="opacity:1" fill="#b2b5b8" d="M311.5 671.5c-.342-10.208-1.342-20.208-3-30 .672-.767 1.505-1.434 2.5-2 .5 10.661.667 21.328.5 32Z"/><path style="opacity:1" fill="#3a8ba6" d="M377.5 671.5c.978.311 1.645.978 2 2a122.079 122.079 0 0 1-27 .5c.544-.717 1.211-1.217 2-1.5 3.651.665 7.485.999 11.5 1 4.229-.01 8.062-.677 11.5-2Z"/><path style="opacity:1" fill="#636a75" d="M309.5 686.5a6725.953 6725.953 0 0 1 164-1 109.584 109.584 0 0 0 5 11 7571.829 7571.829 0 0 1-174-1c-.073-1.527.594-2.527 2-3 .086.996-.248 1.829-1 2.5a38.064 38.064 0 0 0 15-.5 36.294 36.294 0 0 1 4-7.5 112.97 112.97 0 0 0-15-.5Z"/><path style="opacity:1" fill="#1f4371" d="M599.5 686.5c1.333.667 1.333.667 0 0Z"/><path style="opacity:1" fill="#848992" d="M309.5 686.5a112.97 112.97 0 0 1 15 .5 36.294 36.294 0 0 0-4 7.5 38.064 38.064 0 0 1-15 .5c.752-.671 1.086-1.504 1-2.5.255-2.467 1.255-4.467 3-6Z"/><path style="opacity:1" fill="#474954" d="M473.5 685.5a64.873 64.873 0 0 1 16 1 35.581 35.581 0 0 0 5 9.5l-15 1a5163.06 5163.06 0 0 1-176-.5c.124-.607.457-.94 1-1a7571.829 7571.829 0 0 0 174 1 109.584 109.584 0 0 1-5-11Z"/><path style="opacity:1" fill="#1f4371" d="M570.5 703.5c1.333.667 1.333.667 0 0Z"/><path style="opacity:1" fill="#575965" d="M289.5 708.5c67.498-.999 135.165-1.333 203-1v2a8699.008 8699.008 0 0 0-186-1h-17Z"/><path style="opacity:1" fill="#838891" d="M289.5 708.5h17v15h-17v-15Z"/><path style="opacity:1" fill="#474a54" d="M492.5 707.5h17v17h-17v-17Z"/><path style="opacity:1" fill="#646c77" d="M306.5 708.5c62.071-.329 124.071.004 186 1v15h-50a968.742 968.742 0 0 0-88 0h-65v-1h17v-15Z"/><path style="opacity:1" fill="#9ea1a9" d="M354.5 724.5a968.742 968.742 0 0 1 88 0 5.727 5.727 0 0 0-3 1 861.84 861.84 0 0 0-83 0l-2-1Z"/><path style="opacity:1" fill="#273239" d="M333.5 724.5h21l2 1c5.016.743 9.016 3.243 12 7.5l9 3c2.457 3.058 5.457 5.392 9 7a97.288 97.288 0 0 1 12 5.5 115.786 115.786 0 0 1 25-13.5l4-4a119.574 119.574 0 0 1 12-5.5 5.727 5.727 0 0 1 3-1h21c-2.913 2.37-6.246 4.204-10 5.5l-4 4c-6.4 2.062-12.067 5.396-17 10-6.761 1.869-12.761 5.202-18 10-4.958 2.638-10.291 4.471-16 5.5a90.158 90.158 0 0 1-10-2.5 35.157 35.157 0 0 0-10-5c-3.796-3.592-8.129-6.259-13-8a279.412 279.412 0 0 0-19-12c-3.959.349-6.626-1.317-8-5-2.153-.099-3.819-.933-5-2.5Z"/><path style="opacity:1" fill="#fafafa" d="M356.5 725.5a861.84 861.84 0 0 1 83 0 119.574 119.574 0 0 0-12 5.5l-4 4a115.786 115.786 0 0 0-25 13.5 97.288 97.288 0 0 0-12-5.5c-3.543-1.608-6.543-3.942-9-7l-9-3c-2.984-4.257-6.984-6.757-12-7.5Z"/><path style="opacity:1" fill="#1f4371" d="M476.5 757.5c1.333.667 1.333.667 0 0Z"/></svg>