<?xml version="1.0" encoding="UTF-8"?><svg xmlns="http://www.w3.org/2000/svg" width="800" height="800" style="shape-rendering:geometricPrecision;text-rendering:geometricPrecision;image-rendering:optimizeQuality;fill-rule:evenodd;clip-rule:evenodd"><path style="opacity:1" fill="#2da9d1" d="M576.5-.5h9a2.429 2.429 0 0 0 .5 2c1.049-1.017 2.216-1.184 3.5-.5a20.495 20.495 0 0 0 2.5 3.5c1.356-.88 2.856-1.214 4.5-1v3c2.822 1.432 6.489 2.432 11 3v3c2.092.061 3.592 1.061 4.5 3 2.537-.677 4.537.323 6 3 2.361-.566 4.194.434 5.5 3l2-1c.35 2.067 2.017 3.067 5 3v3h6v3h5v3h6v3a27.247 27.247 0 0 0 9 3c-.219 1.175.114 2.175 1 3a6.846 6.846 0 0 1 4-1v3a8.435 8.435 0 0 1 4 .5c-1.154.914-.987 1.747.5 2.5 1.299-.466 2.799-.466 4.5 0v3h6v3h5v3a428.986 428.986 0 0 0 20 8.5l-2 1c2.522.61 4.522 1.943 6 4 1.634.493 3.301.66 5 .5v3c2.908-.238 5.242.762 7 3 .951-.826 1.951-.992 3-.5l-1 1a6.977 6.977 0 0 1 3.5 2.5l1-1c.483.948.649 1.948.5 3h6v3h5v3c1.951-.273 3.451.393 4.5 2l1-1c6 4.386 12.5 7.886 19.5 10.5l-1 1c1.525 1.009 3.192 1.509 5 1.5v3h6v3h5v3c2.041.354 3.874.354 5.5 0 .483.948.649 1.948.5 3 2.836 1.276 5.836 1.942 9 2a7971.884 7971.884 0 0 1 2 251c-3.013-.128-5.513.872-7.5 3-2.411-1.653-3.578-.987-3.5 2-1.701.466-3.201.466-4.5 0-3.844 1.975-7.177 4.642-10 8l-1-1c-1.049 1.607-2.549 2.273-4.5 2v3c-3.937.204-7.604 1.204-11 3 .381 2.442-.286 3.109-2 2-.886.825-1.219 1.825-1 3h-6v3a12.93 12.93 0 0 0-5 .5c-1.079 2.043-2.746 3.376-5 4l1 1a12.93 12.93 0 0 1-5 .5v3a9.86 9.86 0 0 0-6 1c-3.423 1.192-6.256 3.192-8.5 6l-1-1c-1.049 1.607-2.549 2.273-4.5 2v3h-6v3h-5v3c-2.185.388-4.018 1.388-5.5 3-2.278-1.12-3.778-.287-4.5 2.5a101.955 101.955 0 0 0-13 5.5v3h-6v3h-6v3c-1.788-.285-3.455.048-5 1 1.129 2.029.629 2.363-1.5 1-1.712 3.452-4.212 4.452-7.5 3v3c-3.096-.593-5.429.407-7 3a47.25 47.25 0 0 1-7 3v3h-6v3c-3.303.19-6.303 1.19-9 3v-21a1144.256 1144.256 0 0 0 68-39.5 112.343 112.343 0 0 1 17-8l5-5a377.475 377.475 0 0 0 23-12l8-6a190.921 190.921 0 0 0 21.5-10.5c.667-76 .667-152 0-228a36.078 36.078 0 0 0-3.5-4.5c-3.29-.253-6.29-1.253-9-3a29746.604 29746.604 0 0 1-46-28 457.332 457.332 0 0 0-22-11l-4-4a161.879 161.879 0 0 1-33-19c-6.4-2.062-12.067-5.396-17-10a1126.1 1126.1 0 0 0-31-16c-2.365-3.714-5.698-5.714-10-6-7.082-6.364-15.416-9.031-25-8a569.356 569.356 0 0 1-55 30.5c-1.488-3.389-3.488-6.389-6-9a38.715 38.715 0 0 1 5-2.5l-1-1c1.284-.684 2.451-.517 3.5.5l2.5-3c6.434-2.343 12.767-5.343 19-9v-3a59.031 59.031 0 0 1 11-3 4.934 4.934 0 0 1 .5-3l1 1c1.995-2.247 4.495-3.247 7.5-3v-3h5v-3h6v-3c1.808.009 3.475-.491 5-1.5l-1-1a12.936 12.936 0 0 1 5-.5v-3c3.552.188 6.219-1.145 8-4Z"/><path style="opacity:1" fill="#2da9d2" d="M277.5 32.5c-2.308 3.3-5.308 5.967-9 8a359.583 359.583 0 0 1-14-6.5c-9.098-8.801-19.765-11.801-32-9a583.354 583.354 0 0 0-33 19 175.013 175.013 0 0 0-28 16l-4 1-23 15a336.071 336.071 0 0 0-40 23c-5.503 1.171-10.17 3.837-14 8A579.672 579.672 0 0 0 38 129.5 3410.247 3410.247 0 0 0 36.5 245c-.152 38.537.348 77.037 1.5 115.5l9.5 5.5c1.374 3.683 4.04 5.349 8 5a13376.247 13376.247 0 0 0 116 67c2.646.497 5.313.664 8 .5.992 7.148 1.325 14.481 1 22a26812.82 26812.82 0 0 0-23-12.5c-6.204-2.789-12.537-4.622-19-5.5v-3h-6v-3h-3v-3h-6v-3h-5v-3c-2.921.354-5.254-.646-7-3-1.714 1.109-2.381.442-2-2a58.97 58.97 0 0 1-11-3v-3a27.267 27.267 0 0 0-9-3v-3c-2.908.238-5.242-.762-7-3a3.647 3.647 0 0 0-1.5 1c-1.667-1-3-2.333-4-4l-1 1a4.932 4.932 0 0 1-.5-3h-6v-3h-5v-3a544.412 544.412 0 0 1-29-14v-3a58.967 58.967 0 0 1-11-3v-3h-6v-3c-4.013-1.674-8.013-3.341-12-5 .008-83.648.008-167.148 0-250.5a169.104 169.104 0 0 0 15-5.5v-3a58.967 58.967 0 0 0 11-3v-3a417.79 417.79 0 0 0 15-7 32.686 32.686 0 0 0 8.5-6l1 1c1.049-1.607 2.549-2.273 4.5-2v-3a59.029 59.029 0 0 1 11-3 4.932 4.932 0 0 1 .5-3l1 1c2.015-3.065 4.515-4.065 7.5-3v-3h5v-3c1.7.16 3.366-.007 5-.5 1.478-2.057 3.478-3.39 6-4l-2-1a18.436 18.436 0 0 1 6-.5v-3a87.51 87.51 0 0 0 14-5v-3h6v-3h5v-3c1.701-.466 3.201-.466 4.5 0 3.279-4.047 7.946-7.047 14-9a18.264 18.264 0 0 0 5-4l1 1c1.049-1.607 2.549-2.273 4.5-2v-3h5v-3h6v-3c4.612-1.195 9.279-2.862 14-5v-3c1.701-.466 3.201-.466 4.5 0 .908-1.939 2.408-2.939 4.5-3v-3h6v-3c1.788.285 3.455-.048 5-1a38.767 38.767 0 0 0 7-4.5 49.25 49.25 0 0 1 14 0c2.025 1.677 4.359 2.677 7 3-1.134 1.016-.801 1.683 1 2l5 1-1 1c2.622 3.073 5.955 4.573 10 4.5v3h6v3c3.191.262 5.858 1.596 8 4a9.864 9.864 0 0 0 6 1v3c3.58 1.22 7.247 2.386 11 3.5l-2 1c1.525 1.009 3.192 1.509 5 1.5Z"/><path style="opacity:1" fill="#242021" d="M618.5 441.5a794.072 794.072 0 0 1 0-76c-.167 21.003 0 42.003.5 63 40.888-23.841 81.721-47.674 122.5-71.5a73.86 73.86 0 0 0 9-3.5c.167-70.334 0-140.667-.5-211 .564-4.29-1.269-6.457-5.5-6.5a203.265 203.265 0 0 0-37-21l-4-4a91.311 91.311 0 0 1-23-13 457.332 457.332 0 0 0-22-11l-4-4a483.026 483.026 0 0 1-51-29c-3.415-.406-6.082-2.072-8-5a90.401 90.401 0 0 0-14-6c-5.722-6.435-12.722-8.768-21-7-7.36 5.663-15.36 9.996-24 13-3.619 3.977-7.952 6.644-13 8-2.537 2.546-5.537 4.212-9 5l-4 4a338.687 338.687 0 0 0-34 18.5 4.934 4.934 0 0 1 .5-3 211.57 211.57 0 0 1 14-19c6.445 3.663 11.445 2.33 15-4 .384-1.697.218-3.363-.5-5a569.356 569.356 0 0 0 55-30.5c9.584-1.031 17.918 1.636 25 8 4.302.286 7.635 2.286 10 6a1126.1 1126.1 0 0 1 31 16c4.933 4.604 10.6 7.938 17 10a161.879 161.879 0 0 0 33 19l4 4a457.332 457.332 0 0 1 22 11 29746.604 29746.604 0 0 0 46 28c2.71 1.747 5.71 2.747 9 3a36.078 36.078 0 0 1 3.5 4.5c.667 76 .667 152 0 228a190.921 190.921 0 0 1-21.5 10.5l-8 6a377.475 377.475 0 0 1-23 12l-5 5a112.343 112.343 0 0 0-17 8 1144.256 1144.256 0 0 1-68 39.5Z"/><path style="opacity:1" fill="#242022" d="M268.5 40.5c-4.058 2.456-5.725 6.123-5 11a1760.645 1760.645 0 0 1-29-15.5 15.28 15.28 0 0 1-4.5-1.5A112.066 112.066 0 0 0 206.5 48a190.467 190.467 0 0 0-22 11c-3.492 1.624-6.492 3.958-9 7l-10 4-4 4a520.666 520.666 0 0 0-59 34l-9 3c-3.796 3.592-8.13 6.259-13 8A361.546 361.546 0 0 1 48 137.5c-.667 72-.667 144 0 216a7214.146 7214.146 0 0 0 125 72c.5-21.664.667-43.331.5-65a340.197 340.197 0 0 0-18-8.5 55.63 55.63 0 0 0-18-10 78.488 78.488 0 0 0-23-13 56.965 56.965 0 0 0-10.5-7.5 2946.23 2946.23 0 0 1 1-153 230.435 230.435 0 0 0 32.5-19.5c8.372-3.019 16.038-7.352 23-13 5.093-1.382 9.426-4.049 13-8a90.42 90.42 0 0 0 14-6c1.918-2.928 4.585-4.594 8-5a226.438 226.438 0 0 1 29-17 42.498 42.498 0 0 1 13 0l4 4c8.243 3.203 15.91 7.536 23 13a326.546 326.546 0 0 0 27 14c8.98 5.636 17.98 11.302 27 17l5 1a264.586 264.586 0 0 0 18 11.5 52.392 52.392 0 0 0-1 13 1339.52 1339.52 0 0 1-40-23.5 47.592 47.592 0 0 0-12-5 301.986 301.986 0 0 0-51-30l-4.5-4.5c-1.604 1.149-3.27 1.149-5 0a1068.258 1068.258 0 0 1-78.5 45.5c-5.201 4.797-11.201 8.13-18 10-3.908 3.449-8.242 6.116-13 8a18.778 18.778 0 0 0-5.5 4.5c-.5 45.332-.667 90.665-.5 136 5.301 1.324 9.968 3.824 14 7.5l10 4c1.918 2.928 4.585 4.594 8 5 2.674 3.012 6.007 4.678 10 5l9 7a72.885 72.885 0 0 1 16 8.5c0 .667.333 1 1 1v84l-1 2a32.462 32.462 0 0 1-8-.5 13376.247 13376.247 0 0 1-116-67c-3.96.349-6.626-1.317-8-5l-9.5-5.5A3410.247 3410.247 0 0 1 36.5 245c-.152-38.537.348-77.037 1.5-115.5A579.672 579.672 0 0 1 80.5 107c3.83-4.163 8.497-6.829 14-8a336.071 336.071 0 0 1 40-23l23-15 4-1a175.013 175.013 0 0 1 28-16 583.354 583.354 0 0 1 33-19c12.235-2.801 22.902.199 32 9a359.583 359.583 0 0 0 14 6.5Z"/><path style="opacity:.994" fill="#010203" d="M296.5 43.5c-.876-.13-1.543.203-2 1a15.645 15.645 0 0 1 2.5 4 660.631 660.631 0 0 1 21.5 22c8.362 9.359 16.695 18.692 25 28a3858.846 3858.846 0 0 0 53 57c2.333 1.333 4.667 1.333 7 0a5809.51 5809.51 0 0 0 11-16 106.616 106.616 0 0 1 8-11l10-15a596.841 596.841 0 0 0 18-27 292.662 292.662 0 0 0 17-23c2.31-3.945 4.643-7.945 7-12-6.628-6.205-6.628-12.371 0-18.5a16.25 16.25 0 0 1 8 0 119.535 119.535 0 0 0 17 11.5c2.512 2.611 4.512 5.611 6 9 .718 1.637.884 3.303.5 5-3.555 6.33-8.555 7.663-15 4a211.57 211.57 0 0 0-14 19 4.934 4.934 0 0 0-.5 3 38.44 38.44 0 0 0-5.5 5 620.116 620.116 0 0 1-16.5 24 98.984 98.984 0 0 1-7 11 106.308 106.308 0 0 0-10 14l-7 10c-1.692 1.705-3.025 3.705-4 6-.543.06-.876.393-1 1 6.634.997 13.3 1.33 20 1 8.426-2.42 13.093.58 14 9v30h75c21.72-.456 43.387.044 65 1.5 9.351 3.514 15.351 10.014 18 19.5-.332 45.17.001 90.17 1 135v14a794.072 794.072 0 0 0 0 76v21c.167 10.672 0 21.339-.5 32-1.41 3.289-3.91 4.956-7.5 5-4.76-.286-7.927-2.619-9.5-7l-1-272a15.83 15.83 0 0 0-3.5-5.5 19261.092 19261.092 0 0 0-392-1c-2.521 1.558-4.188 3.725-5 6.5a24840.124 24840.124 0 0 0-.5 386c1.031 3.039 2.865 5.539 5.5 7.5 129.667.667 259.333.667 389 0 3.5-.833 5.667-3 6.5-6.5.5-8.66.666-17.327.5-26-.167-20.003 0-40.003.5-60 1.811-4.155 4.977-6.155 9.5-6 3.67-.173 6.17 1.493 7.5 5 .667 30.333.667 60.667 0 91-1.503 5.019-4.003 9.352-7.5 13-4.632 3.481-9.632 6.148-15 8h-382c-4.1.263-8.1-.07-12-1-5.831-2.083-10.831-5.416-15-10-3.441-3.56-5.274-7.893-5.5-13-.5-48.999-.667-97.999-.5-147a78.644 78.644 0 0 0 0-25v-84a4422.145 4422.145 0 0 0 1-133c1.862-11.876 8.529-19.709 20-23.5 20.664-.5 41.331-.667 62-.5h56c7.255.313 14.421-.02 21.5-1 .821-7.179.655-14.179-.5-21a52.392 52.392 0 0 1 1-13 17.902 17.902 0 0 1 6-4c8.028.331 16.028-.002 24-1-.124-.607-.457-.94-1-1a10007.968 10007.968 0 0 0-81-87.5 172.94 172.94 0 0 1-13-8c-5.83-.046-10.163-2.546-13-7.5-.725-4.877.942-8.544 5-11 3.692-2.033 6.692-4.7 9-8a110.962 110.962 0 0 1 10-6.5c7.505-1.506 12.171 1.494 14 9-.623 3.454-2.289 6.287-5 8.5Z"/><path style="opacity:1" fill="#fdfdfd" d="M263.5 51.5c2.837 4.954 7.17 7.454 13 7.5a172.94 172.94 0 0 0 13 8 10007.968 10007.968 0 0 1 81 87.5l-23 2a17.902 17.902 0 0 0-6 4 264.586 264.586 0 0 1-18-11.5l-5-1a10892.14 10892.14 0 0 0-27-17 326.546 326.546 0 0 1-27-14c-7.09-5.464-14.757-9.797-23-13l-4-4a42.498 42.498 0 0 0-13 0 226.438 226.438 0 0 0-29 17c-3.415.406-6.082 2.072-8 5a90.42 90.42 0 0 1-14 6c-3.574 3.951-7.907 6.618-13 8-6.962 5.648-14.628 9.981-23 13a230.435 230.435 0 0 1-32.5 19.5 2946.23 2946.23 0 0 0-1 153 56.965 56.965 0 0 1 10.5 7.5 78.488 78.488 0 0 1 23 13 55.63 55.63 0 0 1 18 10 340.197 340.197 0 0 1 18 8.5c.167 21.669 0 43.336-.5 65a7214.146 7214.146 0 0 1-125-72c-.667-72-.667-144 0-216A361.546 361.546 0 0 0 80.5 119c4.87-1.741 9.204-4.408 13-8l9-3a520.666 520.666 0 0 1 59-34l4-4 10-4c2.508-3.042 5.508-5.376 9-7a190.467 190.467 0 0 1 22-11A112.066 112.066 0 0 1 230 34.5a15.28 15.28 0 0 0 4.5 1.5c9.63 5.263 19.297 10.43 29 15.5ZM618.5 365.5v-1a31.715 31.715 0 0 1 11-4.5c4.952-4.639 10.619-7.973 17-10 9.313-5.969 18.646-11.969 28-18 7.819-2.16 14.319-6.327 19.5-12.5.99-49.416.657-98.75-1-148a36.078 36.078 0 0 0-3.5-4.5 198.572 198.572 0 0 1-36-21 114.302 114.302 0 0 1-13-6 182.852 182.852 0 0 0-35-20c-3.671-4.417-8.338-7.083-14-8a171.322 171.322 0 0 0-19-12c-8.302-.757-15.635 1.576-22 7a68.695 68.695 0 0 0-14 7c-4.302.286-7.635 2.286-10 6a43.593 43.593 0 0 0-13 8 684.54 684.54 0 0 0-19 8.5 486.652 486.652 0 0 1-40-23 620.116 620.116 0 0 0 16.5-24 38.44 38.44 0 0 1 5.5-5 338.687 338.687 0 0 1 34-18.5l4-4c3.463-.788 6.463-2.454 9-5 5.048-1.356 9.381-4.023 13-8 8.64-3.004 16.64-7.337 24-13 8.278-1.768 15.278.565 21 7a90.401 90.401 0 0 1 14 6c1.918 2.928 4.585 4.594 8 5a483.026 483.026 0 0 0 51 29l4 4a457.332 457.332 0 0 1 22 11 91.311 91.311 0 0 0 23 13l4 4a203.265 203.265 0 0 1 37 21c4.231.043 6.064 2.21 5.5 6.5.5 70.333.667 140.666.5 211a73.86 73.86 0 0 1-9 3.5A159704.572 159704.572 0 0 1 619 428.5a1983.68 1983.68 0 0 1-.5-63Z"/><path style="opacity:1" fill="#2da7d0" d="M296.5 43.5c.904.709 1.237 1.709 1 3h6v3h5v3h6v3a87.51 87.51 0 0 0 14 5v3c1.699-.16 3.366.007 5 .5l-1 1c1.525 1.009 3.192 1.509 5 1.5v3h6v3h5v3c2.985-1.065 5.485-.065 7.5 3l1-1c.483.948.649 1.948.5 3h5v3h6v3c2.133 1.386 5.133 2.386 9 3v3c2.908-.238 5.242.762 7 3l2-1c.35 2.067 2.017 3.067 5 3v3h6v3c2.516-.255 4.85-1.089 7-2.5a626.207 626.207 0 0 1 29-17c.837-1.011 1.17-2.178 1-3.5 4.493-.216 7.993-2.216 10.5-6 1.011.837 2.178 1.17 3.5 1v-3a59.031 59.031 0 0 0 11-3v-3c3.365-.86 6.032-1.86 8-3a292.662 292.662 0 0 1-17 23 117.722 117.722 0 0 0-24.5 16c-.667 1.667-.667 3.333 0 5 1.535 2.794 3.702 4.794 6.5 6l-10 15a139.081 139.081 0 0 1-15-6.5c-1.918-2.928-4.585-4.594-8-5a343.7 343.7 0 0 0-31-18 736.18 736.18 0 0 0-50-28.5 660.631 660.631 0 0 0-21.5-22 15.645 15.645 0 0 0-2.5-4c.457-.797 1.124-1.13 2-1Z"/><path style="opacity:1" fill="#242022" d="M318.5 70.5a736.18 736.18 0 0 1 50 28.5 343.7 343.7 0 0 1 31 18c3.415.406 6.082 2.072 8 5a139.081 139.081 0 0 0 15 6.5 106.616 106.616 0 0 0-8 11 206.267 206.267 0 0 1-15-10.5 546.6 546.6 0 0 0-35-18 108.394 108.394 0 0 1-19-13c-.937-.692-1.603-.525-2 .5a55790.102 55790.102 0 0 0-25-28Z"/><path style="opacity:1" fill="#232021" d="M450.5 86.5a596.841 596.841 0 0 1-18 27c-2.798-1.206-4.965-3.206-6.5-6-.667-1.667-.667-3.333 0-5a117.722 117.722 0 0 1 24.5-16Z"/><path style="opacity:1" fill="#242021" d="M618.5 364.5v-13c.667 0 1-.333 1-1a4351.886 4351.886 0 0 1 34-19.5l4-1a679.07 679.07 0 0 1 23-15 12.93 12.93 0 0 1 5-.5c.167-28.335 0-56.669-.5-85l-2-2c-.174-17.24-.674-34.407-1.5-51.5a4261.045 4261.045 0 0 1-114-65.5 3162.857 3162.857 0 0 0-66 36.5 42.479 42.479 0 0 1-13 0l-38-22a4.934 4.934 0 0 0-3-.5 98.984 98.984 0 0 0 7-11 486.652 486.652 0 0 0 40 23 684.54 684.54 0 0 1 19-8.5 43.593 43.593 0 0 1 13-8c2.365-3.714 5.698-5.714 10-6a68.695 68.695 0 0 1 14-7c6.365-5.424 13.698-7.757 22-7a171.322 171.322 0 0 1 19 12c5.662.917 10.329 3.583 14 8a182.852 182.852 0 0 1 35 20 114.302 114.302 0 0 0 13 6 198.572 198.572 0 0 0 36 21 36.078 36.078 0 0 1 3.5 4.5c1.657 49.25 1.99 98.584 1 148-5.181 6.173-11.681 10.34-19.5 12.5a12318.477 12318.477 0 0 1-28 18c-6.381 2.027-12.048 5.361-17 10a31.715 31.715 0 0 0-11 4.5Z"/><path style="opacity:1" fill="#f7f7f7" d="M343.5 98.5c.397-1.025 1.063-1.192 2-.5a108.394 108.394 0 0 0 19 13 546.6 546.6 0 0 1 35 18 206.267 206.267 0 0 0 15 10.5 5809.51 5809.51 0 0 1-11 16c-2.333 1.333-4.667 1.333-7 0a3858.846 3858.846 0 0 1-53-57Z"/><path style="opacity:1" fill="#2da9d2" d="M340.5 173.5c.33 6.7-.003 13.366-1 20a724.403 724.403 0 0 0-32-18.5 25.238 25.238 0 0 0-10 0l-2.5 2.5c-1.049-1.017-2.216-1.184-3.5-.5-5.981 4.997-12.648 8.664-20 11a83.084 83.084 0 0 1-8 7.5c-20.669-.167-41.336 0-62 .5-11.471 3.791-18.138 11.624-20 23.5l-2 132a72.885 72.885 0 0 0-16-8.5l-9-7c-3.993-.322-7.326-1.988-10-5-3.415-.406-6.082-2.072-8-5l-10-4c-4.032-3.676-8.699-6.176-14-7.5-.167-45.335 0-90.668.5-136a18.778 18.778 0 0 1 5.5-4.5c4.758-1.884 9.092-4.551 13-8 6.799-1.87 12.799-5.203 18-10a1068.258 1068.258 0 0 0 78.5-45.5c1.73 1.149 3.396 1.149 5 0l4.5 4.5a301.986 301.986 0 0 1 51 30 47.592 47.592 0 0 1 12 5 1339.52 1339.52 0 0 0 40 23.5Z"/><path style="opacity:1" fill="#2da9d1" d="m619.5 350.5-2-134c-2.649-9.486-8.649-15.986-18-19.5a736.572 736.572 0 0 0-65-1.5 5982.78 5982.78 0 0 0-15-10.5 32001.018 32001.018 0 0 0-82-46.5 106.308 106.308 0 0 1 10-14 4.934 4.934 0 0 1 3 .5l38 22c4.333.667 8.667.667 13 0a3162.857 3162.857 0 0 1 66-36.5 4261.045 4261.045 0 0 0 114 65.5c.826 17.093 1.326 34.26 1.5 51.5l2 2c.5 28.331.667 56.665.5 85a12.93 12.93 0 0 0-5 .5 679.07 679.07 0 0 0-23 15l-4 1a4351.886 4351.886 0 0 0-34 19.5Z"/><path style="opacity:1" fill="#232021" d="M437.5 138.5a32001.018 32001.018 0 0 1 82 46.5 5982.78 5982.78 0 0 1 15 10.5h-22c-.79-.901-1.79-1.568-3-2a9861.046 9861.046 0 0 1-49-28h-1c-.907-8.42-5.574-11.42-14-9-1.171-.845-2.505-1.511-4-2a87.567 87.567 0 0 1-11-6l7-10Z"/><path style="opacity:1" fill="#f2f2f2" d="M430.5 148.5a87.567 87.567 0 0 0 11 6c-5 1.333-10 1.333-15 0 .975-2.295 2.308-4.295 4-6Z"/><path style="opacity:1" fill="#9f9f9f" d="M370.5 154.5c.543.06.876.393 1 1a144.841 144.841 0 0 1-24 1l23-2Z"/><path style="opacity:1" fill="#9a9a9a" d="M426.5 154.5c5 1.333 10 1.333 15 0 1.495.489 2.829 1.155 4 2-6.7.33-13.366-.003-20-1 .124-.607.457-.94 1-1Z"/><path style="opacity:1" fill="#fcfcfc" d="M460.5 165.5a9861.046 9861.046 0 0 0 49 28 600.937 600.937 0 0 1-49 1v-29Z"/><path style="opacity:1" fill="#232122" d="M340.5 173.5c1.155 6.821 1.321 13.821.5 21a119.044 119.044 0 0 1-21.5 1c-.333-1-1-1.667-2-2a89.108 89.108 0 0 1-15-7 89.108 89.108 0 0 1-15 7c-1 .333-1.667 1-2 2h-22a83.084 83.084 0 0 0 8-7.5c7.352-2.336 14.019-6.003 20-11 1.284-.684 2.451-.517 3.5.5l2.5-2.5a25.238 25.238 0 0 1 10 0 724.403 724.403 0 0 1 32 18.5c.997-6.634 1.33-13.3 1-20Z"/><path style="opacity:1" fill="#2c7892" d="M441.5 194.5c-.979-3.125-1.313-6.458-1-10h-80a50.464 50.464 0 0 1-.5 10c-.179-3.525-.679-6.859-1.5-10v-10h83v20Z"/><path style="opacity:1" fill="#226479" d="M358.5 184.5c.821 3.141 1.321 6.475 1.5 10 .498-3.317.665-6.65.5-10h80c-.313 3.542.021 6.875 1 10a1723.12 1723.12 0 0 1-83 1v-11Z"/><path style="opacity:1" fill="#f7f7f7" d="M317.5 193.5c-10 1.333-20 1.333-30 0a89.108 89.108 0 0 0 15-7 89.108 89.108 0 0 0 15 7Z"/><path style="opacity:1" fill="#c3c2c2" d="M287.5 193.5c10 1.333 20 1.333 30 0 1 .333 1.667 1 2 2h-34c.333-1 1-1.667 2-2Z"/><path style="opacity:1" fill="#c1c0c0" d="M459.5 165.5h1v29c16.509.33 32.842-.004 49-1 1.21.432 2.21 1.099 3 2h-53v-30Z"/><path style="opacity:1" fill="#2c7892" d="M610.5 499.5v16c-4.523-.155-7.689 1.845-9.5 6-.5 19.997-.667 39.997-.5 60a33.052 33.052 0 0 1-6 2.5c-7.993.5-15.993.666-24 .5.268-1.599-.066-2.932-1-4-1.595-2.76-3.928-4.593-7-5.5a3658.67 3658.67 0 0 0-121 0c-2.7 1.857-4.366 4.357-5 7.5-5.37 1.879-11.037 2.545-17 2 .302-2.559-.032-4.893-1-7-3.502-12.485-11.835-19.151-25-20-13.603.95-21.937 7.95-25 21a36.354 36.354 0 0 0-2 4.5c-2.31.497-4.643.663-7 .5.237-1.291-.096-2.291-1-3-4.268-17.982-15.601-25.149-34-21.5-9.604 4.036-15.271 11.202-17 21.5-.904.709-1.237 1.709-1 3-2.779.221-5.446-.112-8-1-2.188-15.517-11.188-23.85-27-25-12.534 1.555-20.534 8.222-24 20-.968 2.107-1.302 4.441-1 7-14.004.167-28.004 0-42-.5a29.517 29.517 0 0 1-4.5-2.5c-.5-120.333-.667-240.666-.5-361 .812-2.775 2.479-4.942 5-6.5 130.747-.996 261.414-.663 392 1a15.83 15.83 0 0 1 3.5 5.5l1 272c1.573 4.381 4.74 6.714 9.5 7Z"/><path style="opacity:1" fill="#165569" d="M181.5 219.5c.332 44.503-.001 88.836-1 133-.667 0-1-.333-1-1l2-132Z"/><path style="opacity:1" fill="#0b2a34" d="m617.5 216.5 2 134c0 .667-.333 1-1 1-.999-44.83-1.332-89.83-1-135Z"/><path style="opacity:1" fill="#000101" d="M234.5 345.5c4.158.173 6.825 2.173 8 6v182c104.835.333 209.501-.001 314-1v-275a24654.478 24654.478 0 0 0-314-1v61c-1.269 4.477-4.269 6.81-9 7-3.59-.044-6.09-1.711-7.5-5a1443.528 1443.528 0 0 1 0-76 11.532 11.532 0 0 1 4.5-3.5c112.667-.667 225.333-.667 338 0a17.842 17.842 0 0 1 5.5 4.5 22639.18 22639.18 0 0 1 0 301c-.948 2.07-2.448 3.57-4.5 4.5-113.333.667-226.667.667-340 0a11.532 11.532 0 0 1-3.5-4.5c-.667-65-.667-130 0-195 1.674-3.589 4.507-5.255 8.5-5Z"/><path style="opacity:1" fill="#217290" d="M556.5 257.5h-313a900.97 900.97 0 0 1-1 60v-61c104.835-.333 209.501.001 314 1Z"/><path style="opacity:1" fill="#00a0d5" d="M453.5 257.5a7931.558 7931.558 0 0 1-129 130.5 60.364 60.364 0 0 1-8 5.5 4.934 4.934 0 0 1-.5 3 7362.426 7362.426 0 0 1-72.5 72c.332-39.17-.001-78.17-1-117-1.175-3.827-3.842-5.827-8-6a116.8 116.8 0 0 1-1-21c4.731-.19 7.731-2.523 9-7a900.97 900.97 0 0 0 1-60h210Z"/><path style="opacity:1" fill="#50c1e6" d="M453.5 257.5h103v36a3083.416 3083.416 0 0 0-66 66 666.266 666.266 0 0 1-22-21.5c-12.664-8.605-19.497-5.439-20.5 9.5a36.16 36.16 0 0 0 4 7 605.464 605.464 0 0 1 20.5 21 435.72 435.72 0 0 1-24 26c-.825.886-1.825 1.219-3 1-3.806-8.233-10.139-11.066-19-8.5l-3.5 3.5c-1.713 7.567-.047 14.234 5 20a8.43 8.43 0 0 1 .5 4 69.875 69.875 0 0 1-11 9c-10.483-17.187-20.983-17.187-31.5 0-2.951 3.9-5.618 3.567-8-1-.767-4.094-.434-8.094 1-12 3.753-5.141 5.419-10.807 5-17-7.425-9.318-14.758-9.318-22 0-7.443 11.095-9.443 23.095-6 36 4.786 11.628 13.286 18.628 25.5 21a82.989 82.989 0 0 0 10-2c1.528.017 2.028.684 1.5 2a1579.719 1579.719 0 0 0-74.5 75h-75v-64a7362.426 7362.426 0 0 0 72.5-72 4.934 4.934 0 0 0 .5-3 60.364 60.364 0 0 0 8-5.5 7931.558 7931.558 0 0 0 129-130.5Z"/><path style="opacity:1" fill="#00a1d5" d="M556.5 293.5v239h-238a1579.719 1579.719 0 0 1 74.5-75c.528-1.316.028-1.983-1.5-2 3.292-2.276 6.625-4.609 10-7 4.2 3.6 8.867 6.433 14 8.5 16.854 3.159 28.02-3.341 33.5-19.5 2.324-7.854 2.991-15.854 2-24a42.493 42.493 0 0 0-5.5-11c1.175.219 2.175-.114 3-1a435.72 435.72 0 0 0 24-26 255.286 255.286 0 0 1 23 23.5c14.284 3.962 19.784-1.205 16.5-15.5a719.212 719.212 0 0 1-21.5-24 3083.416 3083.416 0 0 1 66-66Z"/><path style="opacity:1" fill="#232022" d="M316.5 393.5c-4.461 6.897-10.795 10.064-19 9.5-5.509-3.82-7.676-8.987-6.5-15.5a2129.86 2129.86 0 0 1 52.5-57.5c7.501-4.286 13.667-2.786 18.5 4.5.912 3.952.245 7.619-2 11a2462.636 2462.636 0 0 0-43.5 48Z"/><path style="opacity:1" fill="#232123" d="M490.5 359.5a719.212 719.212 0 0 0 21.5 24c3.284 14.295-2.216 19.462-16.5 15.5a255.286 255.286 0 0 0-23-23.5 605.464 605.464 0 0 0-20.5-21 36.16 36.16 0 0 1-4-7c1.003-14.939 7.836-18.105 20.5-9.5a666.266 666.266 0 0 0 22 21.5Z"/><path style="opacity:1" fill="#232022" d="M417.5 430.5c4.52 5.742 8.02 5.075 10.5-2 .497-2.31.663-4.643.5-7a8.43 8.43 0 0 0-.5-4c-5.047-5.766-6.713-12.433-5-20l3.5-3.5c8.861-2.566 15.194.267 19 8.5a42.493 42.493 0 0 1 5.5 11c.991 8.146.324 16.146-2 24-5.48 16.159-16.646 22.659-33.5 19.5a50.162 50.162 0 0 1-14-8.5 1065.418 1065.418 0 0 1-10 7 82.989 82.989 0 0 1-10 2c-12.214-2.372-20.714-9.372-25.5-21-3.443-12.905-1.443-24.905 6-36 7.242-9.318 14.575-9.318 22 0 .419 6.193-1.247 11.859-5 17-1.434 3.906-1.767 7.906-1 12 2.382 4.567 5.049 4.9 8 1 10.517-17.187 21.017-17.187 31.5 0Z"/><path style="opacity:1" fill="#0c9dce" d="M428.5 421.5a24.935 24.935 0 0 1-.5 7c-2.48 7.075-5.98 7.742-10.5 2a69.875 69.875 0 0 0 11-9Z"/><path style="opacity:1" fill="#165569" d="M180.5 436.5a78.644 78.644 0 0 1 0 25v-1c.325-7.519-.008-14.852-1-22l1-2Z"/><path style="opacity:1" fill="#2f8bac" d="M242.5 351.5a3421.39 3421.39 0 0 1 1 117v64h313a24654.478 24654.478 0 0 1-314 1v-182Z"/><path style="opacity:1" fill="#010202" d="M298.5 582.5c-1.22 16.219-9.886 25.219-26 27-10.957-.797-18.791-6.13-23.5-16a55.824 55.824 0 0 1-1.5-16c3.466-11.778 11.466-18.445 24-20 15.812 1.15 24.812 9.483 27 25Z"/><path style="opacity:1" fill="#010203" d="M358.5 580.5c-.337 17.672-9.337 27.339-27 29-15.78-3.225-23.78-12.892-24-29 1.729-10.298 7.396-17.464 17-21.5 18.399-3.649 29.732 3.518 34 21.5Z"/><path style="opacity:1" fill="#010202" d="M418.5 577.5c1.716 18.584-6.617 29.25-25 32-18.045-2.397-26.379-12.731-25-31 3.063-13.05 11.397-20.05 25-21 13.165.849 21.498 7.515 25 20Z"/><path style="opacity:1" fill="#020405" d="M569.5 580.5c1.257 5.656-.743 9.489-6 11.5a3719.39 3719.39 0 0 1-122 0c-3.392-2.285-5.059-5.452-5-9.5.634-3.143 2.3-5.643 5-7.5a3658.67 3658.67 0 0 1 121 0c3.072.907 5.405 2.74 7 5.5Z"/><path style="opacity:1" fill="#5baca2" d="M330.5 575.5c10.389.996 12.722 5.829 7 14.5-9.124 2.549-12.957-.951-11.5-10.5 1.397-1.57 2.897-2.904 4.5-4Z"/><path style="opacity:1" fill="#eab84a" d="M269.5 575.5c8.158-.677 11.658 2.99 10.5 11-5.421 6.933-10.421 6.6-15-1-.384-4.228 1.116-7.561 4.5-10Z"/><path style="opacity:1" fill="#dd5d7a" d="M390.5 575.5c7.664-.834 11.164 2.5 10.5 10-4.579 7.6-9.579 7.933-15 1-1.224-4.874.276-8.541 4.5-11Z"/><path style="opacity:1" fill="#226479" d="M199.5 220.5c-.167 120.334 0 240.667.5 361a29.517 29.517 0 0 0 4.5 2.5c13.996.5 27.996.667 42 .5-.302-2.559.032-4.893 1-7a55.824 55.824 0 0 0 1.5 16c4.709 9.87 12.543 15.203 23.5 16 16.114-1.781 24.78-10.781 26-27 2.554.888 5.221 1.221 8 1-.237-1.291.096-2.291 1-3 .22 16.108 8.22 25.775 24 29 17.663-1.661 26.663-11.328 27-29 .904.709 1.237 1.709 1 3 2.357.163 4.69-.003 7-.5a36.354 36.354 0 0 1 2-4.5c-1.379 18.269 6.955 28.603 25 31 18.383-2.75 26.716-13.416 25-32 .968 2.107 1.302 4.441 1 7 5.963.545 11.63-.121 17-2-.059 4.048 1.608 7.215 5 9.5 40.667.667 81.333.667 122 0 5.257-2.011 7.257-5.844 6-11.5.934 1.068 1.268 2.401 1 4 8.007.166 16.007 0 24-.5a33.052 33.052 0 0 0 6-2.5c.166 8.673 0 17.34-.5 26-.833 3.5-3 5.667-6.5 6.5-129.667.667-259.333.667-389 0-2.635-1.961-4.469-4.461-5.5-7.5-.833-128.834-.666-257.501.5-386Z"/><path style="opacity:1" fill="#2da9d2" d="M186.5 621.5c4.169 4.584 9.169 7.917 15 10-.166 5.676.001 11.343.5 17a18.839 18.839 0 0 1 6.5 5.5 285.561 285.561 0 0 1 26 13c12.673 9.05 26.007 16.716 40 23l19 13a24.569 24.569 0 0 0 8 3 201.636 201.636 0 0 1 27 17l10 4c1.374 3.683 4.041 5.349 8 5a279.412 279.412 0 0 1 19 12c4.871 1.741 9.204 4.408 13 8a91.921 91.921 0 0 0 19 7.5c6.067-.902 11.734-2.736 17-5.5 5.239-4.798 11.239-8.131 18-10 4.933-4.604 10.6-7.938 17-10l4-4a319.99 319.99 0 0 0 46-27 91.311 91.311 0 0 0 23-13 157.436 157.436 0 0 0 27-15 24.569 24.569 0 0 1 8-3c6.951-5.974 14.618-10.641 23-14 6.616-3.612 11.449-8.779 14.5-15.5.498-3.317.665-6.65.5-10 5.368-1.852 10.368-4.519 15-8a625.997 625.997 0 0 1-1 50c-1.671 2.01-2.338 4.343-2 7-3.064 1.19-5.731 2.857-8 5h-3v3a58.97 58.97 0 0 0-11 3v3c-1.859-.039-3.192.794-4 2.5a12.93 12.93 0 0 1-5 .5v3c-2.582-.475-4.582.192-6 2-2.281 1.928-4.947 2.928-8 3v3h-6v3c-4.045-.073-7.378 1.427-10 4.5l1 1a118.288 118.288 0 0 0-17 7.5 10.756 10.756 0 0 0-2.5 3l-1-1c-1.049 1.607-2.549 2.273-4.5 2v3h-6v3h-5v3c-2.524-.071-4.524.929-6 3-2.12-1.372-3.12-.705-3 2a12.93 12.93 0 0 0-5 .5 101.657 101.657 0 0 0-10 7.5 9.108 9.108 0 0 1-5 1v3c-2.51-.446-4.51.22-6 2-2.216.703-4.049 2.036-5.5 4-1.813-1.109-2.646-.442-2.5 2a12.93 12.93 0 0 0-5 .5c-1.497 1.871-3.497 2.871-6 3-1.307 2.324-3.307 3.657-6 4l2 1a12.93 12.93 0 0 1-5 .5v3a9.86 9.86 0 0 0-6 1 35.217 35.217 0 0 1-8 4v3h-6v3h-6v3a8.43 8.43 0 0 0-4 .5l-5 5c-1.284.684-2.451.517-3.5-.5-1.263 2.968-3.263 3.968-6 3a2.428 2.428 0 0 0-.5 2h-12c-.507-1.359-1.507-2.359-3-3a137.913 137.913 0 0 0-11-4v-3c-2.133-1.386-5.133-2.386-9-3v-3h-5v-3c-3.005.247-5.505-.753-7.5-3l-1 1a4.934 4.934 0 0 1-.5-3h-6v-3h-5v-3h-6v-3c-5.922-1.727-11.089-4.727-15.5-9-.718.951-1.551 1.117-2.5.5 1.333-.667 1.333-1.333 0-2a12.93 12.93 0 0 0-5-.5v-3a58.97 58.97 0 0 1-11-3v-3c-8.654-3.265-16.321-6.932-23-11v-3h-6v-3h-5v-3a8.43 8.43 0 0 1-4-.5c-4.85-3.699-10.184-6.199-16-7.5v-3h-6v-3c-2.092-.061-3.592-1.061-4.5-3-1.299.466-2.799.466-4.5 0v-3c-1.788.285-3.455-.048-5-1-2.158-3.144-5.158-4.477-9-4v-3a12.93 12.93 0 0 1-5-.5c-2.625-3.031-6.125-5.864-10.5-8.5-2.537.677-4.537-.323-6-3l-1 1c-1.667-1-3-2.333-4-4-1.049 1.017-2.216 1.184-3.5.5l1-1a15.645 15.645 0 0 1-4-2.5 870.838 870.838 0 0 1-1-59Z"/><path style="opacity:1" fill="#242022" d="M201.5 631.5c3.9.93 7.9 1.263 12 1-.165 3.35.002 6.683.5 10a46.99 46.99 0 0 0 10.5 5.5l4 4a90.42 90.42 0 0 0 14 6 77.598 77.598 0 0 0 23 13l4 4 10 4c4.933 4.604 10.6 7.938 17 10 3.574 3.951 7.907 6.618 13 8 6.962 5.648 14.628 9.981 23 13 1.918 2.928 4.585 4.594 8 5a78.488 78.488 0 0 0 23 13c3.671 4.417 8.338 7.083 14 8 2.457 3.058 5.457 5.392 9 7a97.288 97.288 0 0 1 12 5.5 23356.745 23356.745 0 0 0 182-104.5c2.69-3.241 3.69-7.075 3-11.5h12a50.464 50.464 0 0 1-.5 10c-3.051 6.721-7.884 11.888-14.5 15.5-8.382 3.359-16.049 8.026-23 14a24.569 24.569 0 0 0-8 3 157.436 157.436 0 0 1-27 15 91.311 91.311 0 0 1-23 13 319.99 319.99 0 0 1-46 27l-4 4c-6.4 2.062-12.067 5.396-17 10-6.761 1.869-12.761 5.202-18 10-5.266 2.764-10.933 4.598-17 5.5a91.921 91.921 0 0 1-19-7.5c-3.796-3.592-8.129-6.259-13-8a279.412 279.412 0 0 0-19-12c-3.959.349-6.626-1.317-8-5l-10-4a201.636 201.636 0 0 0-27-17 24.569 24.569 0 0 1-8-3l-19-13c-13.993-6.284-27.327-13.95-40-23a285.561 285.561 0 0 0-26-13 18.839 18.839 0 0 0-6.5-5.5 145.053 145.053 0 0 1-.5-17Z"/><path style="opacity:1" fill="#fdfdfd" d="M213.5 632.5h94a448.477 448.477 0 0 1 24 13.5c3.705 4.342 8.372 7.009 14 8a643.917 643.917 0 0 0 29 18c2.861.54 5.528 1.54 8 3l11 7c4 .667 8 .667 12 0 6.962-5.648 14.628-9.981 23-13a679.07 679.07 0 0 0 23-15 24.569 24.569 0 0 0 8-3 975.974 975.974 0 0 0 30-18.5h94c.69 4.425-.31 8.259-3 11.5a23356.745 23356.745 0 0 1-182 104.5 97.288 97.288 0 0 0-12-5.5c-3.543-1.608-6.543-3.942-9-7-5.662-.917-10.329-3.583-14-8a78.488 78.488 0 0 1-23-13c-3.415-.406-6.082-2.072-8-5-8.372-3.019-16.038-7.352-23-13-5.093-1.382-9.426-4.049-13-8-6.4-2.062-12.067-5.396-17-10l-10-4-4-4a77.598 77.598 0 0 1-23-13 90.42 90.42 0 0 1-14-6l-4-4a46.99 46.99 0 0 1-10.5-5.5 50.464 50.464 0 0 1-.5-10Z"/><path style="opacity:1" fill="#242021" d="M307.5 632.5h24a944.645 944.645 0 0 0 68.5 39 2929.62 2929.62 0 0 1 12.5-8.5 146.497 146.497 0 0 0 31-18c5.093-1.382 9.426-4.049 13-8 3.57-1.208 6.903-2.708 10-4.5h23a975.974 975.974 0 0 1-30 18.5 24.569 24.569 0 0 1-8 3 679.07 679.07 0 0 1-23 15c-8.372 3.019-16.038 7.352-23 13-4 .667-8 .667-12 0l-11-7a24.569 24.569 0 0 0-8-3 643.917 643.917 0 0 1-29-18c-5.628-.991-10.295-3.658-14-8a448.477 448.477 0 0 0-24-13.5Z"/><path style="opacity:1" fill="#2da8d1" d="M331.5 632.5h135c-3.097 1.792-6.43 3.292-10 4.5-3.574 3.951-7.907 6.618-13 8a146.497 146.497 0 0 1-31 18 2929.62 2929.62 0 0 0-12.5 8.5 944.645 944.645 0 0 1-68.5-39Z"/><path style="opacity:1" fill="#2eaad3" d="M599.5 686.5c1.333.667 1.333.667 0 0ZM570.5 703.5c1.333.667 1.333.667 0 0ZM476.5 757.5c1.333.667 1.333.667 0 0Z"/></svg>