<?xml version="1.0" encoding="UTF-8"?><svg xmlns="http://www.w3.org/2000/svg" width="800" height="800" style="shape-rendering:geometricPrecision;text-rendering:geometricPrecision;image-rendering:optimizeQuality;fill-rule:evenodd;clip-rule:evenodd"><path style="opacity:1" fill="#fd8844" d="M308.5 50.5c-7.83-.215-14.663-.548-20.5-1-.717.544-1.217 1.21-1.5 2a6692.52 6692.52 0 0 0-49.5-28 138.219 138.219 0 0 1-14.5 1.5 4393.157 4393.157 0 0 1-47 25.5c-17.218-.898-35.218-.898-54 0 1.419-.951 3.085-1.285 5-1v-3c1.701-.466 3.201-.466 4.5 0 3.279-4.047 7.946-7.047 14-9a18.264 18.264 0 0 0 5-4l1 1c1.049-1.607 2.549-2.273 4.5-2v-3h5v-3h6v-3c4.612-1.195 9.279-2.862 14-5v-3c1.701-.466 3.201-.466 4.5 0 .908-1.939 2.408-2.939 4.5-3v-3h6v-3c1.788.285 3.455-.048 5-1a38.767 38.767 0 0 0 7-4.5 49.25 49.25 0 0 1 14 0c2.025 1.677 4.359 2.677 7 3-1.134 1.016-.801 1.683 1 2l5 1-1 1c2.622 3.073 5.955 4.573 10 4.5v3h6v3c3.191.262 5.858 1.596 8 4a9.864 9.864 0 0 0 6 1v3c3.58 1.22 7.247 2.386 11 3.5l-2 1c2.767.678 4.934 2.178 6.5 4.5l1-1c3.769 1.797 7.102 4.13 10 7a3.942 3.942 0 0 1 2-1c1.482 1.612 3.315 2.612 5.5 3v3h6v3c1.915-.285 3.581.049 5 1Z"/><path style="opacity:1" fill="#fd8845" d="M576.5-.5h9a2.429 2.429 0 0 0 .5 2c1.049-1.017 2.216-1.184 3.5-.5a20.495 20.495 0 0 0 2.5 3.5c1.356-.88 2.856-1.214 4.5-1v3c2.822 1.432 6.489 2.432 11 3v3c2.092.061 3.592 1.061 4.5 3 2.537-.677 4.537.323 6 3 2.361-.566 4.194.434 5.5 3l2-1c.35 2.067 2.017 3.067 5 3v3h6v3h5v3h6v3a27.247 27.247 0 0 0 9 3c-.219 1.175.114 2.175 1 3a6.846 6.846 0 0 1 4-1v3a8.435 8.435 0 0 1 4 .5c-1.154.914-.987 1.747.5 2.5 1.299-.466 2.799-.466 4.5 0v3c2.235-.295 4.235.039 6 1-19.333-.669-37.666-.669-55 0-11.222-4.614-21.556-10.78-31-18.5-3.993-.322-7.326-1.988-10-5-4.78-2.655-9.947-4.155-15.5-4.5l-4.5.5a1881.2 1881.2 0 0 1-50 28.5c-.283-.79-.783-1.456-1.5-2-5.84.471-12.674.805-20.5 1 2.289-.558 4.289-1.724 6-3.5a12.935 12.935 0 0 1 5-.5v-3c1.808.009 3.475-.491 5-1.5-1.388-.89-1.222-1.39.5-1.5 2.071 1.167 3.571.5 4.5-2 6.434-2.343 12.767-5.343 19-9v-3a59.031 59.031 0 0 1 11-3 4.934 4.934 0 0 1 .5-3l1 1c1.995-2.247 4.495-3.247 7.5-3v-3h5v-3h6v-3c1.808.009 3.475-.491 5-1.5l-1-1a12.936 12.936 0 0 1 5-.5v-3c3.552.188 6.219-1.145 8-4Z"/><path style="opacity:1" fill="#242021" d="M621.5 50.5a788.409 788.409 0 0 1 40 24.5 63.754 63.754 0 0 0 13 5.5c2.667 3.162 6 5.329 10 6.5a3535.434 3535.434 0 0 0 42 24.5 155.5 155.5 0 0 1 22 13.5 465.547 465.547 0 0 0 11 4.5c1.778 4.065 2.445 8.399 2 13v213c.396 2.544-.271 4.711-2 6.5a160.234 160.234 0 0 1-20 9c-1.231 1.405-2.564 2.571-4 3.5a2650.175 2650.175 0 0 1-69 40 1028.442 1028.442 0 0 1-37 21 111.696 111.696 0 0 0-17 10.5 15.024 15.024 0 0 1-8 2.5v-12a5838.284 5838.284 0 0 0 137-79.5 73.86 73.86 0 0 0 9-3.5 7901.316 7901.316 0 0 0-1.5-216 2129.254 2129.254 0 0 1-37.5-21.5c-3.415-.406-6.082-2.072-8-5a91.311 91.311 0 0 1-23-13 457.332 457.332 0 0 0-22-11c-2.508-3.042-5.508-5.376-9-7a457.332 457.332 0 0 1-22-11l-24-15c-3.415-.406-6.082-2.072-8-5a90.401 90.401 0 0 0-14-6c-5.722-6.435-12.722-8.768-21-7-7.36 5.663-15.36 9.996-24 13-3.619 3.977-7.952 6.644-13 8-2.537 2.546-5.537 4.212-9 5l-4 4-10 4a2551.356 2551.356 0 0 0-60 36 7185.005 7185.005 0 0 1 26 16 114.065 114.065 0 0 0 14 6c4.2 3.6 8.867 6.433 14 8.5a684.54 684.54 0 0 1 19-8.5 43.593 43.593 0 0 1 13-8c2.365-3.714 5.698-5.714 10-6a705.673 705.673 0 0 1 21-12c4.719-2.307 9.719-2.974 15-2a113.107 113.107 0 0 0 28 15l5 5a182.852 182.852 0 0 1 35 20 193.115 193.115 0 0 1 32 19 197.694 197.694 0 0 1 17 8 36.078 36.078 0 0 1 3.5 4.5c1.657 49.25 1.99 98.584 1 148-5.181 6.173-11.681 10.34-19.5 12.5a12318.477 12318.477 0 0 1-28 18c-6.381 2.027-12.048 5.361-17 10-6.943 1.604-12.943 4.937-18 10-2.56.384-4.894 1.217-7 2.5v-14a101.096 101.096 0 0 0 12-5.5l4-4a285.632 285.632 0 0 0 33-18l4-1a679.07 679.07 0 0 1 23-15 8.43 8.43 0 0 1 4-.5 903.85 903.85 0 0 0 0-85c-.283-.789-.783-1.456-1.5-2a128.507 128.507 0 0 1-.5-16v-16c.166-6.342 0-12.675-.5-19a76.67 76.67 0 0 0-16.5-9 457.91 457.91 0 0 0-32-18 25857.41 25857.41 0 0 1-66-39 3162.857 3162.857 0 0 0-66 36.5 42.479 42.479 0 0 1-13 0 496.946 496.946 0 0 0-33-18 114.32 114.32 0 0 1-14-10l-4-1c-3.407-2.924-6.74-5.757-10-8.5-1.833-1.996-2.333-4.329-1.5-7A106.905 106.905 0 0 1 451.5 86a208.311 208.311 0 0 0 5-4.5 63.686 63.686 0 0 1 9-3.5 809.964 809.964 0 0 0 45-26.5 1881.2 1881.2 0 0 0 50-28.5l4.5-.5c5.553.345 10.72 1.845 15.5 4.5 2.674 3.012 6.007 4.678 10 5 9.444 7.72 19.778 13.886 31 18.5Z"/><path style="opacity:1" fill="#252021" d="M286.5 51.5a844.225 844.225 0 0 0 45 26.5 63.686 63.686 0 0 1 9 3.5c2.347 2.837 5.347 4.67 9 5.5a1283.148 1283.148 0 0 0 42 24.5c3.533 2.935 7.533 5.101 12 6.5l4 4a1041.037 1041.037 0 0 1 32 17l4 4a110.6 110.6 0 0 1 17 8.5 688.953 688.953 0 0 0 31 18 208.745 208.745 0 0 1 20 12h-25c-2.667-3.162-6-5.329-10-6.5a327.567 327.567 0 0 0-42-24c-4.758-4.768-10.425-7.768-17-9-3.065-4.125-7.065-6.791-12-8l-6-5a546.6 546.6 0 0 0-35-18 108.394 108.394 0 0 1-19-13 425.826 425.826 0 0 1-41-23c-5.487-1.208-10.154-3.875-14-8a826.449 826.449 0 0 1-49-28 50.657 50.657 0 0 1-11.5-4.5A112.066 112.066 0 0 0 206.5 48l-10 4-3 3c-6.771 2.445-12.771 6.111-18 11l-10 4-4 4a520.666 520.666 0 0 0-59 34l-9 3c-3.796 3.592-8.13 6.259-13 8A361.546 361.546 0 0 1 48 137.5c-.667 72-.667 144 0 216a7214.146 7214.146 0 0 0 125 72c.5-21.664.667-43.331.5-65a340.197 340.197 0 0 0-18-8.5 55.63 55.63 0 0 0-18-10 78.488 78.488 0 0 0-23-13 56.965 56.965 0 0 0-10.5-7.5 5697.651 5697.651 0 0 1 0-151 6.978 6.978 0 0 1 2.5-3.5 146.497 146.497 0 0 0 31-18c8.372-3.019 16.038-7.352 23-13 5.093-1.382 9.426-4.049 13-8a90.42 90.42 0 0 0 14-6c1.918-2.928 4.585-4.594 8-5a226.438 226.438 0 0 1 29-17 42.498 42.498 0 0 1 13 0l4 4a154.79 154.79 0 0 0 13 6 1081.768 1081.768 0 0 0 33 20l4 1c8.98 5.636 17.98 11.302 27 17 7.27 1.913 13.604 5.58 19 11 4.75 1.03 8.75 3.363 12 7l10 4 4 4a222.128 222.128 0 0 1 15 7.5h-23a122.264 122.264 0 0 1-24-13 513.802 513.802 0 0 0-33-19 988.027 988.027 0 0 1-51-30.5c-5.603-1.533-10.436-4.366-14.5-8.5-1.604 1.149-3.27 1.149-5 0a5250.243 5250.243 0 0 0-67.5 40 216.688 216.688 0 0 1-32 18 770.16 770.16 0 0 0-15.5 10c-.5 8.994-.666 17.994-.5 27v109c5.301 1.324 9.968 3.824 14 7.5l10 4c2.657 3.313 5.991 5.479 10 6.5 2.042 2.33 4.708 3.496 8 3.5a82.15 82.15 0 0 0 22 13 20.231 20.231 0 0 1 7.5 7.5c.5 11.328.667 22.662.5 34 .664 15.202-.169 30.202-2.5 45-2.909 2.894-6.409 3.727-10.5 2.5a1288.216 1288.216 0 0 1-41-23.5 283574.965 283574.965 0 0 0-70-40c-2.759-2.547-6.092-4.047-10-4.5a13.908 13.908 0 0 1-3-4l-9.5-5.5a746.227 746.227 0 0 1-1.5-65v-127a465.533 465.533 0 0 1 1-39 465.373 465.373 0 0 0 11-4.5c7.049-5.159 14.382-9.659 22-13.5a711.065 711.065 0 0 0 46-25.5 32.87 32.87 0 0 0 6-5.5 86.146 86.146 0 0 0 12-4.5l23-15c6.661-2.523 12.661-6.023 18-10.5a4393.157 4393.157 0 0 0 47-25.5c4.872-.246 9.705-.746 14.5-1.5a6692.52 6692.52 0 0 1 49.5 28Z"/><path style="opacity:1" fill="#fdfdfd" d="M486.5 181.5h-108a222.128 222.128 0 0 0-15-7.5l-4-4-10-4c-3.25-3.637-7.25-5.97-12-7-5.396-5.42-11.73-9.087-19-11a10892.14 10892.14 0 0 0-27-17l-4-1a1081.768 1081.768 0 0 1-33-20 154.79 154.79 0 0 1-13-6l-4-4a42.498 42.498 0 0 0-13 0 226.438 226.438 0 0 0-29 17c-3.415.406-6.082 2.072-8 5a90.42 90.42 0 0 1-14 6c-3.574 3.951-7.907 6.618-13 8-6.962 5.648-14.628 9.981-23 13a146.497 146.497 0 0 1-31 18 6.978 6.978 0 0 0-2.5 3.5 5697.651 5697.651 0 0 0 0 151 56.965 56.965 0 0 1 10.5 7.5 78.488 78.488 0 0 1 23 13 55.63 55.63 0 0 1 18 10 340.197 340.197 0 0 1 18 8.5c.167 21.669 0 43.336-.5 65a7214.146 7214.146 0 0 1-125-72c-.667-72-.667-144 0-216A361.546 361.546 0 0 0 80.5 119c4.87-1.741 9.204-4.408 13-8l9-3a520.666 520.666 0 0 1 59-34l4-4 10-4c5.229-4.889 11.229-8.555 18-11l3-3 10-4A112.066 112.066 0 0 1 230 34.5a50.657 50.657 0 0 0 11.5 4.5 826.449 826.449 0 0 0 49 28c3.846 4.125 8.513 6.792 14 8a425.826 425.826 0 0 0 41 23 108.394 108.394 0 0 0 19 13 546.6 546.6 0 0 1 35 18l6 5c4.935 1.209 8.935 3.875 12 8 6.575 1.232 12.242 4.232 17 9a327.567 327.567 0 0 1 42 24c4 1.171 7.333 3.338 10 6.5Z"/><path style="opacity:1" fill="#fdfdfd" d="M604.5 436.5v-64c2.106-1.283 4.44-2.116 7-2.5 5.057-5.063 11.057-8.396 18-10 4.952-4.639 10.619-7.973 17-10 9.313-5.969 18.646-11.969 28-18 7.819-2.16 14.319-6.327 19.5-12.5.99-49.416.657-98.75-1-148a36.078 36.078 0 0 0-3.5-4.5 197.694 197.694 0 0 0-17-8 193.115 193.115 0 0 0-32-19 182.852 182.852 0 0 0-35-20l-5-5a113.107 113.107 0 0 1-28-15c-5.281-.974-10.281-.307-15 2a705.673 705.673 0 0 0-21 12c-4.302.286-7.635 2.286-10 6a43.593 43.593 0 0 0-13 8 684.54 684.54 0 0 0-19 8.5 50.162 50.162 0 0 1-14-8.5 114.065 114.065 0 0 1-14-6 7185.005 7185.005 0 0 0-26-16 2551.356 2551.356 0 0 1 60-36l10-4 4-4c3.463-.788 6.463-2.454 9-5 5.048-1.356 9.381-4.023 13-8 8.64-3.004 16.64-7.337 24-13 8.278-1.768 15.278.565 21 7a90.401 90.401 0 0 1 14 6c1.918 2.928 4.585 4.594 8 5l24 15a457.332 457.332 0 0 0 22 11c3.492 1.624 6.492 3.958 9 7a457.332 457.332 0 0 1 22 11 91.311 91.311 0 0 0 23 13c1.918 2.928 4.585 4.594 8 5a2129.254 2129.254 0 0 0 37.5 21.5 7901.316 7901.316 0 0 1 1.5 216 73.86 73.86 0 0 1-9 3.5 5838.284 5838.284 0 0 1-137 79.5Z"/><path style="opacity:1" fill="#fd7e47" d="M175.5 50.5c-5.339 4.477-11.339 7.977-18 10.5l-23 15a86.146 86.146 0 0 1-12 4.5h-50a4.932 4.932 0 0 1 .5-3l1 1c2.015-3.065 4.515-4.065 7.5-3v-3h5v-3c1.7.16 3.366-.007 5-.5 1.478-2.057 3.478-3.39 6-4l-2-1a18.436 18.436 0 0 1 6-.5v-3a87.51 87.51 0 0 0 14-5v-3c2.582.475 4.582-.192 6-2 18.782-.898 36.782-.898 54 0Z"/><path style="opacity:1" fill="#fb7e46" d="M308.5 50.5c1.418 1.808 3.418 2.475 6 2v3a87.51 87.51 0 0 0 14 5v3c1.699-.16 3.366.007 5 .5l-1 1c1.525 1.009 3.192 1.509 5 1.5v3h6v3h5v3c2.985-1.065 5.485-.065 7.5 3l1-1c.483.948.649 1.948.5 3-5.858-.322-11.525.011-17 1a63.686 63.686 0 0 0-9-3.5 844.225 844.225 0 0 1-45-26.5c.283-.79.783-1.456 1.5-2 5.837.452 12.67.785 20.5 1Z"/><path style="opacity:1" fill="#fb7d46" d="M510.5 51.5a809.964 809.964 0 0 1-45 26.5 63.686 63.686 0 0 0-9 3.5c-5.475-.989-11.142-1.322-17-1a78.462 78.462 0 0 0 5.5-6c1.011.837 2.178 1.17 3.5 1v-3a59.031 59.031 0 0 0 11-3v-3c1.808.009 3.475-.491 5-1.5l-1-1a12.935 12.935 0 0 1 5-.5v-3a9.864 9.864 0 0 0 6-1 35.213 35.213 0 0 1 8-4v-3c2.582.475 4.582-.192 6-2 7.826-.195 14.66-.529 20.5-1 .717.544 1.217 1.21 1.5 2Z"/><path style="opacity:1" fill="#fd7e47" d="M676.5 50.5c1.052 1.756 2.719 2.423 5 2v3a428.986 428.986 0 0 0 20 8.5l-2 1c2.522.61 4.522 1.943 6 4 1.634.493 3.301.66 5 .5v3c2.908-.238 5.242.762 7 3 .951-.826 1.951-.992 3-.5l-1 1a6.977 6.977 0 0 1 3.5 2.5l1-1c.483.948.649 1.948.5 3h-50a63.754 63.754 0 0 1-13-5.5 788.409 788.409 0 0 0-40-24.5c17.334-.669 35.667-.669 55 0Z"/><path style="opacity:1" fill="#fd7549" d="M72.5 80.5h50a32.87 32.87 0 0 1-6 5.5 711.065 711.065 0 0 1-46 25.5 702.727 702.727 0 0 0-53-1c1.068-.934 2.401-1.268 4-1v-3a58.967 58.967 0 0 0 11-3v-3a417.79 417.79 0 0 0 15-7 32.686 32.686 0 0 0 8.5-6l1 1c1.049-1.607 2.549-2.273 4.5-2v-3a59.029 59.029 0 0 1 11-3Z"/><path style="opacity:1" fill="#fc7449" d="M357.5 80.5h5v3h6v3c2.133 1.386 5.133 2.386 9 3v3c2.908-.238 5.242.762 7 3l2-1c.35 2.067 2.017 3.067 5 3v3h6v3c2.516-.255 4.85-1.089 7-2.5a626.207 626.207 0 0 1 29-17c.837-1.011 1.17-2.178 1-3.5h5c5.858-.322 11.525.011 17 1a208.311 208.311 0 0 1-5 4.5 106.905 106.905 0 0 0-25.5 16.5c-.833 2.671-.333 5.004 1.5 7l-36 2a1283.148 1283.148 0 0 1-42-24.5c-3.653-.83-6.653-2.663-9-5.5 5.475-.989 11.142-1.322 17-1Z"/><path style="opacity:1" fill="#fd7549" d="M674.5 80.5h56v3h5v3c1.951-.273 3.451.393 4.5 2l1-1c6 4.386 12.5 7.886 19.5 10.5l-1 1c1.525 1.009 3.192 1.509 5 1.5v3h6v3h5v3c1.599-.268 2.932.066 4 1a702.728 702.728 0 0 0-53 1 3535.434 3535.434 0 0 1-42-24.5c-4-1.171-7.333-3.338-10-6.5Z"/><path style="opacity:1" fill="#fd6e4b" d="M17.5 110.5c17.841-.33 35.508.003 53 1-7.618 3.841-14.951 8.341-22 13.5a465.373 465.373 0 0 1-11 4.5c-10.153-.994-20.486-1.328-31-1 .18-4.651.18-9.151 0-13.5 4.165-.44 7.831-1.94 11-4.5ZM792.5 128.5c-11.179-.328-22.179.005-33 1a465.547 465.547 0 0 1-11-4.5 155.5 155.5 0 0 0-22-13.5 702.728 702.728 0 0 1 53-1c1.703-1.16 2.369-.493 2 2 2.836 1.276 5.836 1.942 9 2 1.602 4.486 2.268 9.153 2 14Z"/><path style="opacity:1" fill="#fd674c" d="M298.5 149.5c-45.83.999-91.83 1.332-138 1a5250.243 5250.243 0 0 1 67.5-40c1.73 1.149 3.396 1.149 5 0 4.064 4.134 8.897 6.967 14.5 8.5a988.027 988.027 0 0 0 51 30.5Z"/><path style="opacity:1" fill="#fc674c" d="M427.5 109.5c3.26 2.743 6.593 5.576 10 8.5l4 1a114.32 114.32 0 0 0 14 10 496.946 496.946 0 0 1 33 18c4.333.667 8.667.667 13 0a3162.857 3162.857 0 0 1 66-36.5 25857.41 25857.41 0 0 0 66 39l-173 2a110.6 110.6 0 0 0-17-8.5l-4-4a1041.037 1041.037 0 0 0-32-17l-4-4c-4.467-1.399-8.467-3.565-12-6.5l36-2Z"/><path style="opacity:1" fill="#fe5f4e" d="M298.5 149.5a513.802 513.802 0 0 1 33 19h-203a216.688 216.688 0 0 0 32-18c46.17.332 92.17-.001 138-1ZM633.5 149.5a457.91 457.91 0 0 1 32 18l-174 2a688.953 688.953 0 0 1-31-18l173-2Z"/><path style="opacity:1" fill="#fe624d" d="M6.5 128.5c10.514-.328 20.847.006 31 1a465.533 465.533 0 0 0-1 39h-30v-40ZM792.5 128.5v40h-30c.326-8.849-.007-17.516-1-26 .445-4.601-.222-8.935-2-13 10.821-.995 21.821-1.328 33-1Z"/><path style="opacity:1" fill="#fe5850" d="M665.5 167.5a76.67 76.67 0 0 1 16.5 9c.5 6.325.666 12.658.5 19h-78c-2.984-7.141-8.317-11.641-16-13.5-25.665-.5-51.331-.667-77-.5a208.745 208.745 0 0 0-20-12l174-2Z"/><path style="opacity:1" fill="#ff5750" d="M6.5 168.5h30v27h-30v-27Z"/><path style="opacity:1" fill="#fe5850" d="M128.5 168.5h203a122.264 122.264 0 0 0 24 13h-38a112.692 112.692 0 0 0-10-6.5 25.238 25.238 0 0 0-10 0l-2.5 2.5c-1.049-1.017-2.216-1.184-3.5-.5a157.284 157.284 0 0 1-6 4.5c-26.669-.167-53.335 0-80 .5-6.544 2.713-11.211 7.213-14 13.5h-78v10h-1c-.166-9.006 0-18.006.5-27a770.16 770.16 0 0 1 15.5-10Z"/><path style="opacity:1" fill="#ff5750" d="M762.5 168.5h30v27h-30v-27Z"/><path style="opacity:1" fill="#262020" d="M317.5 181.5h-32a157.284 157.284 0 0 0 6-4.5c1.284-.684 2.451-.517 3.5.5l2.5-2.5a25.238 25.238 0 0 1 10 0 112.692 112.692 0 0 1 10 6.5Z"/><path style="opacity:1" d="M285.5 181.5h226c25.669-.167 51.335 0 77 .5 7.683 1.859 13.016 6.359 16 13.5v325c-.672.767-1.505 1.434-2.5 2a2110.808 2110.808 0 0 1-1.5 64c0 .667-.333 1-1 1 .167-21.336 0-42.669-.5-64-1.995-2.247-4.495-3.247-7.5-3v-262h-387v262h-13v-325c2.789-6.287 7.456-10.787 14-13.5 26.665-.5 53.331-.667 80-.5Z"/><path style="opacity:1" fill="#ff4e52" d="M191.5 195.5v18h-78v-18h78ZM604.5 195.5h78v16c-25.773 1.977-51.773 2.643-78 2v-18Z"/><path style="opacity:1" fill="#acb0c5" d="M590.5 198.5v47h-385v-47a14.698 14.698 0 0 1 3-3.5c126.333-.667 252.667-.667 379 0a14.698 14.698 0 0 1 3 3.5Z"/><path style="opacity:1" fill="#ff4a53" d="M6.5 195.5h30v34h-30v-34Z"/><path style="opacity:1" fill="#f84752" d="M761.5 142.5c.993 8.484 1.326 17.151 1 26v27h30v34h-30v66a900.97 900.97 0 0 1-1 60v-213Z"/><path style="opacity:1" fill="#fe4355" d="M682.5 211.5c-.166 5.344.001 10.677.5 16 .717.544 1.217 1.211 1.5 2v18h-80v-34c26.227.643 52.227-.023 78-2ZM112.5 205.5h1v8h78v34h-78c.237-1.291-.096-2.291-1-3v-39Z"/><path style="opacity:1" fill="#6f737e" d="M205.5 198.5v47h385v-47a576.628 576.628 0 0 1 1 48h-387a576.628 576.628 0 0 1 1-48Z"/><path style="opacity:1" fill="#d3d6e0" d="M282.5 226.5c-.985-4.134-1.318-8.468-1-13h291v14c-96.835.333-193.501-.001-290-1Z"/><path style="opacity:1" fill="#fefffe" d="M282.5 226.5v-12h289v12h-289Z"/><path style="opacity:1" fill="#636570" d="M249.5 214.5c4.47-.986 9.137-1.319 14-1 .318 4.532-.015 8.866-1 13v-12h-13Z"/><path style="opacity:1" fill="#040303" d="M249.5 214.5h13v12h-13v-12Z"/><path style="opacity:1" fill="#f6f6f9" d="M223.5 213.5h14a84.902 84.902 0 0 1-.5 13c-4.401.967-8.901 1.3-13.5 1v-14Z"/><path style="opacity:1" fill="#fe3b57" d="M112.5 244.5c.904.709 1.237 1.709 1 3h78v19h-78v12h-1v-34Z"/><path style="opacity:1" fill="#fb3a56" d="M684.5 229.5a903.85 903.85 0 0 1 0 85v-48h-80v-19h80v-18Z"/><path style="opacity:1" fill="#ff3c56" d="M6.5 229.5h30v37h-30v-37ZM792.5 229.5v37h-30v-37h30Z"/><path style="opacity:1" fill="#ff3159" d="M6.5 266.5h30v29h-30v-29ZM191.5 266.5v29h-78v-29h78ZM604.5 266.5h80v29h-80v-29ZM762.5 266.5h30v29h-30v-29Z"/><path style="opacity:1" fill="#fe285c" d="M112.5 278.5h1v17h78v36a502.265 502.265 0 0 0-44.5-1 2.428 2.428 0 0 0-.5 2c-4.009-1.021-7.343-3.187-10-6.5l-10-4c-4.032-3.676-8.699-6.176-14-7.5v-36Z"/><path style="opacity:1" fill="#fd255c" d="M604.5 295.5h80v19a8.43 8.43 0 0 0-4 .5 679.07 679.07 0 0 0-23 15l-4 1a285.632 285.632 0 0 1-33 18l-4 4a101.096 101.096 0 0 1-12 5.5v-63Z"/><path style="opacity:1" fill="#fc1d5e" d="M191.5 331.5v84h-6c.326-8.517-.007-16.85-1-25 .167-11.338 0-22.672-.5-34a20.231 20.231 0 0 0-7.5-7.5 82.15 82.15 0 0 1-22-13c-3.292-.004-5.958-1.17-8-3.5a2.428 2.428 0 0 1 .5-2 502.265 502.265 0 0 1 44.5 1Z"/><path style="opacity:1" fill="#fe1f5e" d="M6.5 295.5h30a746.227 746.227 0 0 0 1.5 65l9.5 5.5a13.908 13.908 0 0 0 3 4c3.908.453 7.241 1.953 10 4.5-11.822.995-23.822 1.328-36 1-1.418-1.808-3.418-2.475-6-2v-3c-4.013-1.674-8.013-3.341-12-5v-70ZM762.5 295.5h30v70c-3.013-.128-5.513.872-7.5 3-2.411-1.653-3.578-.987-3.5 2-1.701.466-3.201.466-4.5 0-1.967 2.051-4.134 3.718-6.5 5-11.845.328-23.512-.005-35-1 1.436-.929 2.769-2.095 4-3.5a160.234 160.234 0 0 0 20-9c1.729-1.789 2.396-3.956 2-6.5a900.97 900.97 0 0 0 1-60Z"/><path style="opacity:1" fill="#dee0e9" d="M384.5 355.5v19a5625.947 5625.947 0 0 0-150 1 371.68 371.68 0 0 0-16.5 16c-.92 6.776-.586 13.443 1 20a326.819 326.819 0 0 0 15.5 15c1.068.934 2.401 1.268 4 1 2.728 4.237 6.061 8.071 10 11.5 45.332.5 90.665.667 136 .5v6h-26c-.318 4.532.015 8.866 1 13 21.494.997 43.16 1.331 65 1v-14h-26v-6c45.668.167 91.335 0 137-.5l49-19a440.042 440.042 0 0 1-21-8.5 297.083 297.083 0 0 1 13.5-6c2.364-3.974 1.864-7.474-1.5-10.5-17.682-6.51-35.349-13.01-53-19.5a3843.432 3843.432 0 0 0-124-1v-19a2.428 2.428 0 0 1 2 .5c-1.559 2.642-1.225 4.975 1 7a117.978 117.978 0 0 0 23 5 462.27 462.27 0 0 0 43 0 4615.663 4615.663 0 0 1 59-12c21.714-2.006 43.048-.173 64 5.5v159c-32.002-.167-64.002 0-96 .5-.881.708-1.547 1.542-2 2.5a1610.981 1610.981 0 0 0-1.5 57 1554.642 1554.642 0 0 0-1.5-56c-.011-1.517-.677-2.684-2-3.5a162.597 162.597 0 0 0-18-.5c.317-4.202-.017-8.202-1-12-.011-1.517-.677-2.684-2-3.5a25.777 25.777 0 0 0-8-2 9.454 9.454 0 0 1-1.5-2.5 195.086 195.086 0 0 1-2-26c-.708-.881-1.542-1.547-2.5-2-5.14-.988-10.474-1.321-16-1-.318 4.532.015 8.866 1 13h4c-.81 9.461 1.357 18.127 6.5 26a37.783 37.783 0 0 0 7.5 6.5c-.63 1.31-1.63 2.144-3 2.5a218.833 218.833 0 0 1-29 1v-10h-12c-.979 3.125-1.313 6.458-1 10h-12c.313-3.542-.021-6.875-1-10h-12a96.301 96.301 0 0 1-2.5 12c-1 78.667-2 78.667-3 0-2.135-1.778-4.635-2.445-7.5-2 .313-3.542-.021-6.875-1-10h-12v10c-9.75.306-19.416-.027-29-1-1.37-.356-2.37-1.19-3-2.5 7.608-4.697 12.108-11.531 13.5-20.5.499-3.986.666-7.986.5-12h5v-13a128.507 128.507 0 0 0-16 .5l-2.5 2.5-1 24a29.517 29.517 0 0 1-2.5 4.5c-5.289-.539-8.622 1.628-10 6.5-.982 3.462-1.315 7.129-1 11-12.671-.167-25.338 0-38 .5-1.323.816-1.989 1.983-2 3.5a1554.642 1554.642 0 0 0-1.5 56 1610.981 1610.981 0 0 0-1.5-57c-.453-.958-1.119-1.792-2-2.5a1983.68 1983.68 0 0 0-63-.5v-157a138.776 138.776 0 0 0 23 4.5 462.27 462.27 0 0 0 43 0 4632.12 4632.12 0 0 0 59-12 230.091 230.091 0 0 1 53 2.5c-.237-1.291.096-2.291 1-3Z"/><path style="opacity:1" fill="#96999f" d="M591.5 520.5h-1v-261h-385v261h-1v-262h387v262Z"/><path style="opacity:1" fill="#666a70" d="M354.5 305.5a123.888 123.888 0 0 0-1 19c-.664-2.478-.997-5.145-1-8-.206-3.969.461-7.635 2-11Z"/><path style="opacity:1" fill="#ccd1e0" d="M590.5 309.5v52c-20.952-5.673-42.286-7.506-64-5.5a4615.663 4615.663 0 0 0-59 12 462.27 462.27 0 0 1-43 0 117.978 117.978 0 0 1-23-5c-2.225-2.025-2.559-4.358-1-7a2.428 2.428 0 0 0-2-.5c20.92-5.449 31.587-19.115 32-41 1.034 1.187 2.367 2.02 4 2.5a174.548 174.548 0 0 0 47-3c35.932-10.831 72.265-12.331 109-4.5ZM354.5 304.5v1c-1.539 3.365-2.206 7.031-2 11 .003 2.855.336 5.522 1 8 4.081 16.748 14.415 27.082 31 31-.904.709-1.237 1.709-1 3a230.091 230.091 0 0 0-53-2.5 4632.12 4632.12 0 0 1-59 12 462.27 462.27 0 0 1-43 0 138.776 138.776 0 0 1-23-4.5v-51c36.828 8.03 73.162 6.197 109-5.5a228.697 228.697 0 0 1 40-2.5Z"/><path style="opacity:1" fill="#040302" d="M430.5 314.5c-.413 21.885-11.08 35.551-32 41-.991 6.479-1.324 13.146-1 20h125c17.651 6.49 35.318 12.99 53 19.5 3.364 3.026 3.864 6.526 1.5 10.5a297.083 297.083 0 0 0-13.5 6 1017.484 1017.484 0 0 0-42 15h-124c-.323 6.522.01 12.855 1 19 8.15.993 16.483 1.326 25 1v12h-64v-12h26v-20h-151a326.819 326.819 0 0 1-15.5-15c-1.586-6.557-1.92-13.224-1-20a371.68 371.68 0 0 1 16.5-16h151c.324-6.854-.009-13.521-1-20-16.585-3.918-26.919-14.252-31-31-.153-6.369.18-12.703 1-19v-1c11.83-24.559 30.496-31.726 56-21.5 11.837 7.164 18.503 17.664 20 31.5Z"/><path style="opacity:1" fill="#f9626c" d="M384.5 291.5c15.631-1.771 26.464 4.563 32.5 19 1.939 15.293-4.228 25.793-18.5 31.5-16.118 2.356-26.951-4.144-32.5-19.5-1.101-14.72 5.065-25.054 18.5-31Z"/><path style="opacity:1" fill="#f6f6fa" d="M385.5 304.5c7.144-1.508 12.977.492 17.5 6 3.516 11.154-.484 17.821-12 20-9.501-2.335-13.501-8.335-12-18a76.332 76.332 0 0 1 6.5-8Z"/><path style="opacity:1" fill="#e9edf5" d="M590.5 309.5c-36.735-7.831-73.068-6.331-109 4.5a174.548 174.548 0 0 1-47 3c-1.633-.48-2.966-1.313-4-2.5-1.497-13.836-8.163-24.336-20-31.5-25.504-10.226-44.17-3.059-56 21.5a228.697 228.697 0 0 0-40 2.5c-35.838 11.697-72.172 13.53-109 5.5v-53h385v50Z"/><path style="opacity:1" fill="#797a7f" d="M384.5 355.5c.991 6.479 1.324 13.146 1 20h-151a5625.947 5625.947 0 0 1 150-1v-19Z"/><path style="opacity:1" fill="#78797e" d="M398.5 355.5v19c41.503-.332 82.837.001 124 1h-125c-.324-6.854.009-13.521 1-20Z"/><path style="opacity:1" fill="#f81461" d="M60.5 374.5c23.365 13.347 46.699 26.681 70 40-11.488.995-23.155 1.328-35 1-1.714-1.238-3.714-1.905-6-2v-3c-2.908.238-5.242-.762-7-3a3.647 3.647 0 0 0-1.5 1c-1.667-1-3-2.333-4-4l-1 1a4.932 4.932 0 0 1-.5-3h-6v-3h-5v-3a544.412 544.412 0 0 1-29-14v-3a12.93 12.93 0 0 1-5-.5c-1.71-1.776-3.71-2.942-6-3.5 12.178.328 24.178-.005 36-1ZM735.5 374.5c11.488.995 23.155 1.328 35 1-1.348.686-2.515 1.686-3.5 3l-1-1c-1.049 1.607-2.549 2.273-4.5 2v3c-3.937.204-7.604 1.204-11 3 .381 2.442-.286 3.109-2 2-.886.825-1.219 1.825-1 3h-6v3a12.93 12.93 0 0 0-5 .5c-1.079 2.043-2.746 3.376-5 4l1 1a12.93 12.93 0 0 1-5 .5v3a9.86 9.86 0 0 0-6 1c-3.423 1.192-6.256 3.192-8.5 6l-1-1c-1.049 1.607-2.549 2.273-4.5 2v3c-2.582-.475-4.582.192-6 2-11.845.328-23.512-.005-35-1a2650.175 2650.175 0 0 0 69-40Z"/><path style="opacity:1" fill="#7e5d21" d="M515.5 388.5h-246v25c-.993-8.484-1.326-17.151-1-26 82.502-.333 164.835.001 247 1Z"/><path style="opacity:1" fill="#527c90" d="M239.5 388.5c5.475-.989 11.142-1.322 17-1 .326 8.849-.007 17.516-1 26v-25h-16Z"/><path style="opacity:1" fill="#ffd34c" d="M479.5 388.5c0 .667-.333 1-1 1h-208c.325 7.852-.008 15.518-1 23v-24h210Z"/><path style="opacity:1" fill="#8cd3f4" d="M239.5 388.5h16v25a145.053 145.053 0 0 1-17-.5c-10.911-8.631-10.578-16.797 1-24.5Z"/><path style="opacity:1" fill="#fec146" d="M478.5 389.5c1.754 8.145 2.754 16.145 3 24h-212v-1c.992-7.482 1.325-15.148 1-23h208Z"/><path style="opacity:1" fill="#fca325" d="M479.5 388.5h36c2.129 3.867 3.796 8.034 5 12.5-2.177 3.869-3.511 8.035-4 12.5h-35c-.246-7.855-1.246-15.855-3-24 .667 0 1-.333 1-1Z"/><path style="opacity:1" fill="#f1dab9" d="M531.5 393.5a157.324 157.324 0 0 1 21 7.5 157.524 157.524 0 0 1-21 7.5c.658-2.656 1.325-5.322 2-8a687.783 687.783 0 0 1-2-7Z"/><path style="opacity:1" fill="#adb2c7" d="M563.5 411.5a440.042 440.042 0 0 0 21 8.5l-49 19c-45.665.5-91.332.667-137 .5v-12c41.17.332 82.17-.001 123-1a1017.484 1017.484 0 0 1 42-15Z"/><path style="opacity:1" fill="#ef1262" d="M666.5 414.5c11.488.995 23.155 1.328 35 1-1.419.951-3.085 1.284-5 1v3c-2.185.388-4.018 1.388-5.5 3-2.278-1.12-3.778-.287-4.5 2.5a101.955 101.955 0 0 0-13 5.5v3h-6v3h-6c-10.846.328-21.513-.006-32-1a1028.442 1028.442 0 0 0 37-21Z"/><path style="opacity:1" fill="#6c6e7a" d="M234.5 426.5h151v20h-26v12c-.985-4.134-1.318-8.468-1-13h26v-18h-146c-1.599.268-2.932-.066-4-1Z"/><path style="opacity:1" fill="#6c6e7c" d="M521.5 426.5c-40.83.999-81.83 1.332-123 1v18c-.99-6.145-1.323-12.478-1-19h124Z"/><path style="opacity:1" fill="#adb2c7" d="M238.5 427.5h146v12c-45.335.167-90.668 0-136-.5-3.939-3.429-7.272-7.263-10-11.5Z"/><path style="opacity:1" fill="#ea1263" d="M184.5 390.5c.993 8.15 1.326 16.483 1 25h6v76c-1.667-1.333-3.333-1.333-5 0 .166-9.006 0-18.006-.5-27a1204.023 1204.023 0 0 0-28.5-16.5c-6.204-2.789-12.537-4.622-19-5.5v-3h-6v-3h-3v-3h-6v-3h-5v-3c-2.921.354-5.254-.646-7-3-1.714 1.109-2.381.442-2-2a58.97 58.97 0 0 1-11-3v-3c-1.291.237-2.291-.096-3-1 11.845.328 23.512-.005 35-1a1288.216 1288.216 0 0 0 41 23.5c4.091 1.227 7.591.394 10.5-2.5 2.331-14.798 3.164-29.798 2.5-45Z"/><path style="opacity:1" fill="#e51263" d="M629.5 435.5c10.487.994 21.154 1.328 32 1v3c-1.788-.285-3.455.048-5 1 1.129 2.029.629 2.363-1.5 1-1.712 3.452-4.212 4.452-7.5 3v3c-3.096-.593-5.429.407-7 3a47.25 47.25 0 0 1-7 3v3h-6v3c-1.788-.285-3.455.048-5 1a28.335 28.335 0 0 0-9.5 6l-1-1c-1.049 1.607-2.549 2.273-4.5 2v24h-3v-43a15.024 15.024 0 0 0 8-2.5 111.696 111.696 0 0 1 17-10.5Z"/><path style="opacity:1" fill="#686a6f" d="M398.5 445.5h26v14c-21.84.331-43.506-.003-65-1h64v-12c-8.517.326-16.85-.007-25-1Z"/><path style="opacity:1" fill="#404043" d="M452.5 472.5h-15v12c-.985-4.134-1.318-8.468-1-13 5.526-.321 10.86.012 16 1Z"/><path style="opacity:1" fill="#09090a" d="M330.5 519.5c-5.14.988-10.474 1.321-16 1v-11c1.378-4.872 4.711-7.039 10-6.5a29.517 29.517 0 0 0 2.5-4.5l1-24 2.5-2.5a128.507 128.507 0 0 1 16-.5v13h-5a72.367 72.367 0 0 1-.5 12c-1.392 8.969-5.892 15.803-13.5 20.5.63 1.31 1.63 2.144 3 2.5Z"/><path style="opacity:1" fill="#070808" d="M452.5 472.5c.958.453 1.792 1.119 2.5 2 .089 8.742.756 17.409 2 26 .374.916.874 1.75 1.5 2.5 2.789.241 5.456.908 8 2 1.323.816 1.989 1.983 2 3.5v12c-5.526.321-10.86-.012-16-1 1.37-.356 2.37-1.19 3-2.5a37.783 37.783 0 0 1-7.5-6.5c-5.143-7.873-7.31-16.539-6.5-26h-4v-12h15Z"/><path style="opacity:1" fill="#cc1265" d="M191.5 491.5v29h-5v-29c1.667-1.333 3.333-1.333 5 0Z"/><path style="opacity:1" fill="#cb1266" d="M604.5 491.5h3c1.709 9.368 2.709 19.035 3 29h-6v-29Z"/><path style="opacity:.952" fill="#293137" d="M80.5 520.5c19.003-.167 38.003 0 57 .5a6.978 6.978 0 0 1 2.5 3.5c.5 46.665.667 93.332.5 140 5.344-.166 10.677.001 16 .5a6.978 6.978 0 0 1 3.5 2.5 306.347 306.347 0 0 1 0 35l-1.5 1.5c-26 .667-52 .667-78 0a4.458 4.458 0 0 1-2-1.5 162.808 162.808 0 0 1-1-17.5 91.062 91.062 0 0 1 1.5-18.5 9.457 9.457 0 0 1 2.5-1.5 145.05 145.05 0 0 1 17-.5v-105c-6.01.166-12.01-.001-18-.5-1.167-.5-2-1.333-2.5-2.5-.667-11-.667-22 0-33 .698-1.191 1.531-2.191 2.5-3Z"/><path style="opacity:1" fill="#263137" d="M468.5 508.5c.983 3.798 1.317 7.798 1 12 6.009-.166 12.009.001 18 .5 1.323.816 1.989 1.983 2 3.5v57h3v-58c.453-.958 1.119-1.792 2-2.5 31.998-.5 63.998-.667 96-.5h1c3.005-.247 5.505.753 7.5 3 .5 21.331.667 42.664.5 64v97c-.086.996.248 1.829 1 2.5a113.601 113.601 0 0 0-1.5 14.5l-1.5 1.5a147.951 147.951 0 0 1-29 1.5 1225.063 1225.063 0 0 0-70-1c-5.315.003-7.315-2.664-6-8 .333-21.344 0-42.677-1-64-.607.124-.94.457-1 1a1024.542 1024.542 0 0 0-1 64c.253 2.327-.414 4.327-2 6a28.819 28.819 0 0 1-10 1h-91c-1.517-.011-2.684-.677-3.5-2-1-36-2-36-3 0-.816 1.323-1.983 1.989-3.5 2h-80c-7.008.166-14.008 0-21-.5l-1.5-1.5a72.367 72.367 0 0 1-.5-12h-3a72.367 72.367 0 0 1-.5 12l-1.5 1.5c-13.506.169-26.84.669-40 1.5-20.336.167-40.669 0-61-.5a6.978 6.978 0 0 1-3.5-2.5 8006.497 8006.497 0 0 1 0-179l1.5-1.5c6.992-.5 13.992-.666 21-.5h19c21.003-.167 42.003 0 63 .5.881.708 1.547 1.542 2 2.5v58h3v-57c.011-1.517.677-2.684 2-3.5 12.662-.5 25.329-.667 38-.5-.315-3.871.018-7.538 1-11v11c5.526.321 10.86-.012 16-1 9.584.973 19.25 1.306 29 1h12v-10c.979 3.125 1.313 6.458 1 10 2.865-.445 5.365.222 7.5 2 1 78.667 2 78.667 3 0a96.301 96.301 0 0 0 2.5-12v10h12v-10c.979 3.125 1.313 6.458 1 10h12c-.313-3.542.021-6.875 1-10v10h12c9.75.306 19.416-.027 29-1 5.14.988 10.474 1.321 16 1v-12Z"/><path style="opacity:1" fill="#020303" d="M411.5 510.5h12v10h-12v-10ZM385.5 510.5h12v10h-12v-10ZM371.5 510.5v10h-12v-10h12Z"/><path style="opacity:.952" fill="#263137" d="M604.5 520.5h6c32.002-.167 64.002 0 96 .5l1.5 1.5a3983.197 3983.197 0 0 1 1 178c-.5 1.833-1.667 3-3.5 3.5a2499 2499 0 0 1-100 0 6.978 6.978 0 0 1-3.5-2.5 145.053 145.053 0 0 1-.5-17c.332-32.838-.002-65.504-1-98a2110.808 2110.808 0 0 0 1.5-64c.995-.566 1.828-1.233 2.5-2Zm39 39h24v105h-24v-105Z"/><path style="opacity:1" fill="#91959d" d="M270.5 523.5a1610.981 1610.981 0 0 1 1.5 57c.168-18.838.668-37.504 1.5-56v57h-3v-58Z"/><path style="opacity:1" fill="#9fa3ab" d="M492.5 523.5v58h-3v-57a1554.642 1554.642 0 0 1 1.5 56c.168-19.171.668-38.171 1.5-57Z"/><path style="opacity:1" fill="#fe0000" d="M151.5 673.5v22h-65v-22c5.344.166 10.677-.001 16-.5a6.978 6.978 0 0 0 3.5-2.5c.667-39 .667-78 0-117l-1.5-1.5c-6.325-.5-12.658-.666-19-.5v-23h46c-.167 47.001 0 94.001.5 141 .5 1.833 1.667 3 3.5 3.5 5.323.499 10.656.666 16 .5Z"/><path style="opacity:1" fill="#fc0101" d="M262.5 528.5v167h-91v-167h91Z"/><path style="opacity:1" fill="#5b2529" d="M281.5 528.5v167h91a2117.57 2117.57 0 0 1-92 1 7058.311 7058.311 0 0 1 1-168Z"/><path style="opacity:1" fill="#fe0000" d="M281.5 528.5h91v167h-91v-167ZM481.5 528.5v167h-91v-167h91Z"/><path style="opacity:1" fill="#5b2529" d="M481.5 528.5a7058.311 7058.311 0 0 1 1 168 2117.57 2117.57 0 0 1-92-1h91v-167Z"/><path style="opacity:1" fill="#fc0101" d="M500.5 528.5h91v167h-91v-167Z"/><path style="opacity:1" fill="#fe0000" d="M700.5 528.5v167h-91v-167h91Zm-57 31v105h24v-105h-24Z"/><path style="opacity:1" fill="#5b2529" d="M700.5 528.5a7058.311 7058.311 0 0 1 1 168 2117.57 2117.57 0 0 1-92-1h91v-167Z"/><path style="opacity:1" fill="#273238" d="M199.5 551.5c12.005-.167 24.005 0 36 .5a9.454 9.454 0 0 1 1.5 2.5c.667 38.667.667 77.333 0 116l-1.5 1.5c-12 .667-24 .667-36 0l-1.5-1.5c-.667-39-.667-78 0-117 .717-.544 1.217-1.211 1.5-2Z"/><path style="opacity:1" fill="#2a3137" d="M308.5 551.5c12.005-.167 24.005 0 36 .5a4.457 4.457 0 0 0 2 1.5 2204.561 2204.561 0 0 1 .5 115 6.978 6.978 0 0 1-2.5 3.5 306.347 306.347 0 0 1-35 0 9.454 9.454 0 0 1-2.5-1.5c-.667-39-.667-78 0-117 .717-.544 1.217-1.211 1.5-2ZM418.5 551.5c12.005-.167 24.005 0 36 .5l1.5 1.5c.667 39 .667 78 0 117a9.454 9.454 0 0 1-2.5 1.5 216.503 216.503 0 0 1-36-.5l-1.5-3c-.833-38.338-.667-76.671.5-115 1.022-.355 1.689-1.022 2-2Z"/><path style="opacity:1" fill="#263137" d="M527.5 551.5c12.005-.167 24.005 0 36 .5l1.5 1.5c.667 39 .667 78 0 117l-1.5 1.5-18.5.5c-6.574-.022-12.907-.689-19-2a3362.569 3362.569 0 0 1 0-116l1.5-3Z"/><path style="opacity:.963" fill="#293137" d="M637.5 551.5c12.005-.167 24.005 0 36 .5l1.5 1.5c.667 39 .667 78 0 117a9.454 9.454 0 0 1-2.5 1.5 216.503 216.503 0 0 1-36-.5l-1.5-3c-.833-38.338-.667-76.671.5-115 1.022-.355 1.689-1.022 2-2Zm6 8v105h24v-105h-24Z"/><path style="opacity:1" fill="#dddfe8" d="M229.5 581.5c-7.008.166-14.008 0-21-.5-.544-.717-1.211-1.217-2-1.5 0-.667-.333-1-1-1v-19h24v22Z"/><path style="opacity:1" fill="#dbdde6" d="M339.5 581.5h-25v-22a98.432 98.432 0 0 1 14 .5c3.289 2.209 6.956 3.042 11 2.5v19Z"/><path style="opacity:1" fill="#dadde6" d="M448.5 581.5h-25v-22h13v3h12v19Z"/><path style="opacity:1" fill="#dfe1ea" d="M557.5 559.5v21h-24v-21h24Z"/><path style="opacity:1" fill="#010101" d="M206.5 579.5c.789.283 1.456.783 2 1.5 6.992.5 13.992.666 21 .5v13h-16c-2.619.268-5.119-.065-7.5-1-.815-4.852-.648-9.519.5-14Z"/><path style="opacity:1" fill="#9fa3ab" d="M557.5 559.5c.992 7.148 1.325 14.481 1 22h-25v-1h24v-21Z"/><path style="opacity:1" fill="#010001" d="M314.5 581.5h25v13h-25v-13ZM423.5 581.5h25v13h-25v-13Z"/><path style="opacity:1" fill="#010101" d="M533.5 581.5h25v13h-25v-13Z"/><path style="opacity:1" fill="#231f21" d="M205.5 578.5c.667 0 1 .333 1 1-1.148 4.481-1.315 9.148-.5 14 2.381.935 4.881 1.268 7.5 1-.167 16.003 0 32.003.5 48a210.957 210.957 0 0 0 14.5 9c0 .667.333 1 1 1a36.875 36.875 0 0 1-1 12 43.836 43.836 0 0 0-2-1 282.523 282.523 0 0 0-22-13c-.331-24.172.002-48.172 1-72Z"/><path style="opacity:1" fill="#fdfdfd" d="M213.5 594.5h16a813 813 0 0 1-1 57 210.957 210.957 0 0 1-14.5-9c-.5-15.997-.667-31.997-.5-48Z"/><path style="opacity:1" fill="#5c6469" d="M229.5 594.5a421.105 421.105 0 0 1 0 58c-.667 0-1-.333-1-1a813 813 0 0 0 1-57Z"/><path style="opacity:1" fill="#5a6267" d="M533.5 594.5v70h10c-3.462.982-7.129 1.315-11 1-.331-23.839.002-47.506 1-71Z"/><path style="opacity:1" fill="#fafafa" d="M533.5 594.5h25v63c-5.195 1.741-10.195 4.074-15 7h-10v-70Z"/><path style="opacity:1" fill="#931268" d="M314.5 594.5h24v20h-24v-20ZM424.5 594.5h24v20h-24v-20Z"/><path style="opacity:1" fill="#7d185e" d="M489.5 594.5h3c.166 7.341 0 14.674-.5 22a4.457 4.457 0 0 1-1.5 2 144.841 144.841 0 0 1-1-24Z"/><path style="opacity:1" fill="#91979a" d="M272.5 612.5a992.742 992.742 0 0 0-1 63c-1.328-21.17-1.328-42.504 0-64 .607.124.94.457 1 1Z"/><path style="opacity:1" fill="#d9dbdc" d="M272.5 612.5c.667 10.328 1 20.828 1 31.5-.001 10.855-.668 21.355-2 31.5a992.742 992.742 0 0 1 1-63Z"/><path style="opacity:1" fill="#841366" d="M338.5 594.5h1v42a62.873 62.873 0 0 1-13-5.5c-3.654-3.15-7.654-5.65-12-7.5v-9h24v-20Z"/><path style="opacity:1" fill="#242022" d="M314.5 623.5c4.346 1.85 8.346 4.35 12 7.5a62.873 62.873 0 0 0 13 5.5v15c-3.287-.764-5.954-2.597-8-5.5a30.316 30.316 0 0 1-12-7 27.603 27.603 0 0 1-5-1.5v-14Z"/><path style="opacity:1" fill="#7f1267" d="M423.5 594.5h1v20h24v29a27.603 27.603 0 0 1-5 1.5c-5.772 5.166-12.105 9.333-19 12.5a992.742 992.742 0 0 1-1-63Z"/><path style="opacity:1" fill="#801268" d="M600.5 586.5a2401.328 2401.328 0 0 1 1 98h-2v-97c.667 0 1-.333 1-1Z"/><path style="opacity:1" fill="#8e9497" d="M490.5 632.5c.06-.543.393-.876 1-1 1 21.323 1.333 42.656 1 64h-1a992.742 992.742 0 0 0-1-63Z"/><path style="opacity:1" fill="#d8dadb" d="M490.5 632.5a992.742 992.742 0 0 1 1 63c-.342.838-1.008 1.172-2 1-.331-21.507.003-42.84 1-64Z"/><path style="opacity:1" fill="#fbfbfb" d="M314.5 637.5a27.603 27.603 0 0 0 5 1.5 30.316 30.316 0 0 0 12 7c2.046 2.903 4.713 4.736 8 5.5v13h-25v-27Z"/><path style="opacity:1" fill="#241f21" d="M448.5 643.5v13a32.324 32.324 0 0 0-6 4.5c-2.56.384-4.894 1.217-7 2.5-3.564.923-7.231 1.256-11 1v-7c6.895-3.167 13.228-7.334 19-12.5a27.603 27.603 0 0 0 5-1.5Z"/><path style="opacity:1" fill="#7f1267" d="M380.5 594.5c1.332 10.98 1.999 22.313 2 34l-.5 34a777.564 777.564 0 0 1-1.5-68Z"/><path style="opacity:1" fill="#6e1365" d="M204.5 650.5a282.523 282.523 0 0 1 22 13c-7.148.992-14.481 1.325-22 1v-14Z"/><path style="opacity:1" fill="#f4f4f4" d="M448.5 656.5v8c-4.532.318-8.866-.015-13-1 2.106-1.283 4.44-2.116 7-2.5a32.324 32.324 0 0 1 6-4.5Z"/><path style="opacity:1" fill="#bf1011" d="M86.5 673.5v22h65v-22c.992 7.482 1.325 15.148 1 23h-67c-.325-7.852.008-15.518 1-23Z"/><path style="opacity:1" fill="#fdfdfd" d="m386.5 703.5 87 2a5766.808 5766.808 0 0 1-75 43 97.288 97.288 0 0 0-12-5.5c-3.543-1.608-6.543-3.942-9-7-5.662-.917-10.329-3.583-14-8a24.569 24.569 0 0 0-8-3 407.636 407.636 0 0 0-32-19.5l53-2c1.517-.011 2.684-.677 3.5-2 1-36 2-36 3 0 .816 1.323 1.983 1.989 3.5 2Z"/><path style="opacity:1" fill="#712224" d="M262.5 528.5a7058.311 7058.311 0 0 1 1 168 2117.57 2117.57 0 0 1-92-1h91v-167ZM500.5 528.5v167h91a2117.57 2117.57 0 0 1-92 1 7058.311 7058.311 0 0 1 1-168Z"/><path style="opacity:1" fill="#242021" d="M491.5 695.5h1c-1.315 5.336.685 8.003 6 8a5844.096 5844.096 0 0 0-21 14 411.655 411.655 0 0 0-24 12.5c-3.25 3.637-7.25 5.97-12 7a200.512 200.512 0 0 1-15 10.5 8.43 8.43 0 0 0-4 .5 78.988 78.988 0 0 1-14 9 55.94 55.94 0 0 0-10 2.5 90.158 90.158 0 0 1-10-2.5 103.694 103.694 0 0 1-18-10.5c-9.029-6.157-18.696-11.323-29-15.5a13.92 13.92 0 0 1-3-4c-6.603-1.988-12.603-5.155-18-9.5-7.968-4.653-15.968-9.32-24-14h22a26.335 26.335 0 0 0 5 2 407.636 407.636 0 0 1 32 19.5c2.861.54 5.528 1.54 8 3 3.671 4.417 8.338 7.083 14 8 2.457 3.058 5.457 5.392 9 7a97.288 97.288 0 0 1 12 5.5 5766.808 5766.808 0 0 0 75-43c1.495-.489 2.829-1.155 4-2a28.819 28.819 0 0 0 10-1c1.586-1.673 2.253-3.673 2-6 .992.172 1.658-.162 2-1Z"/><path style="opacity:1" fill="#c6c9ca" d="M318.5 703.5h58l-53 2a26.335 26.335 0 0 1-5-2Z"/><path style="opacity:1" fill="#c7cacb" d="M386.5 703.5h91c-1.171.845-2.505 1.511-4 2l-87-2Z"/><path style="opacity:1" fill="#551267" d="M296.5 703.5c8.032 4.68 16.032 9.347 24 14a1089.684 1089.684 0 0 1-66 1h-5v-3h-6v-3c-2.092-.061-3.592-1.061-4.5-3-1.299.466-2.799.466-4.5 0v-3c-2.386.241-4.386-.425-6-2a791.918 791.918 0 0 1 40-1.5l1.5-1.5c.499-3.986.666-7.986.5-12h3a72.367 72.367 0 0 0 .5 12l1.5 1.5c6.992.5 13.992.666 21 .5Z"/><path style="opacity:1" fill="#551268" d="M498.5 703.5c23.506-.331 46.839.002 70 1-1.642 1.581-3.642 2.247-6 2v3h-6v3c-4.045-.073-7.378 1.427-10 4.5l1 1a12.93 12.93 0 0 1-5 .5c-21.84.331-43.506-.003-65-1 6.962-4.663 13.962-9.33 21-14Z"/><path style="opacity:1" fill="#4c1268" d="M320.5 717.5c5.397 4.345 11.397 7.512 18 9.5a13.92 13.92 0 0 0 3 4c10.304 4.177 19.971 9.343 29 15.5a1140.047 1140.047 0 0 1-67 1c-8.331-4.172-15.997-8.172-23-12v-3h-6v-3h-5v-3a9.108 9.108 0 0 1-5-1 20.07 20.07 0 0 0-9-5c-.798-.457-1.131-1.124-1-2 22.173.331 44.173-.003 66-1Z"/><path style="opacity:1" fill="#4d1268" d="M477.5 717.5c21.494.997 43.16 1.331 65 1 .131.876-.202 1.543-1 2l-11 5a10.756 10.756 0 0 0-2.5 3l-1-1c-1.049 1.607-2.549 2.273-4.5 2v3h-6v3h-5v3c-2.524-.071-4.524.929-6 3-2.12-1.372-3.12-.705-3 2a12.93 12.93 0 0 0-5 .5c-1.389 2.188-3.389 3.354-6 3.5h-65a200.512 200.512 0 0 0 15-10.5c4.75-1.03 8.75-3.363 12-7a411.655 411.655 0 0 1 24-12.5Z"/><path style="opacity:1" fill="#411269" d="M370.5 746.5a103.694 103.694 0 0 0 18 10.5 90.158 90.158 0 0 0 10 2.5 55.94 55.94 0 0 1 10-2.5 78.988 78.988 0 0 0 14-9 8.43 8.43 0 0 1 4-.5h65c-1.998 3.305-4.998 4.971-9 5v3c-2.51-.446-4.51.22-6 2-2.216.703-4.049 2.036-5.5 4-1.813-1.109-2.646-.442-2.5 2a12.93 12.93 0 0 0-5 .5 47.596 47.596 0 0 0-12 7.5h-108c-1.418-1.808-3.418-2.475-6-2v-3c-5.922-1.727-11.089-4.727-15.5-9-.718.951-1.551 1.117-2.5.5 1.333-.667 1.333-1.333 0-2a12.93 12.93 0 0 0-5-.5v-3a12.93 12.93 0 0 1-5-.5 996.939 996.939 0 0 0-6-4.5c22.408.322 44.742-.011 67-1Z"/><path style="opacity:1" fill="#43126a" d="M476.5 757.5c1.333.667 1.333.667 0 0Z"/><path style="opacity:1" fill="#3a126a" d="M343.5 771.5h108a2.428 2.428 0 0 1 2 .5 12.93 12.93 0 0 1-5 .5v3a9.86 9.86 0 0 0-6 1 35.217 35.217 0 0 1-8 4v3h-6v3h-6v3a8.43 8.43 0 0 0-4 .5l-5 5c-1.284.684-2.451.517-3.5-.5-1.263 2.968-3.263 3.968-6 3a2.428 2.428 0 0 0-.5 2h-12c-.507-1.359-1.507-2.359-3-3a137.913 137.913 0 0 0-11-4v-3c-2.133-1.386-5.133-2.386-9-3v-3h-5v-3c-3.005.247-5.505-.753-7.5-3l-1 1a4.934 4.934 0 0 1-.5-3h-6v-3c-1.915.284-3.581-.049-5-1Z"/></svg>