<svg version="1.0" xmlns="http://www.w3.org/2000/svg" width="133.333" height="133.333" viewBox="0 0 100 100"><path d="M37 2.4C21.7 6.7 8.2 19.3 3.1 34.3c-8.3 24 2.6 50 25.7 61.4 7.3 3.7 8 3.8 19.6 4.1 13.5.4 19.7-1.1 28.7-6.8 31.8-20.4 30.2-68.3-2.8-86.3C64.3 1.3 47.9-.6 37 2.4zm20.7 28.8c9.5 9.5 17.7 18.6 18.3 20.1 1.4 3.9 1.3 11.2-.4 15-.7 1.8-4.7 6.4-8.8 10.4-8 7.7-11.2 9-19 8-3.6-.5-5.4-1.8-13.2-9.6L25.5 66l-.3-14.1c-.4-14.9.1-18.9 2-18.9.7 0 3.4 2.1 6 4.7l4.8 4.7V28.2c0-10.8.3-14.2 1.3-14.2.7 0 9 7.8 18.4 17.2z"/></svg>