<?xml version="1.0" encoding="UTF-8"?><svg xmlns="http://www.w3.org/2000/svg" width="800" height="800" style="shape-rendering:geometricPrecision;text-rendering:geometricPrecision;image-rendering:optimizeQuality;fill-rule:evenodd;clip-rule:evenodd"><path style="opacity:1" fill="#da8adb" d="M576.5-.5h9a2.429 2.429 0 0 0 .5 2c1.049-1.017 2.216-1.184 3.5-.5a20.495 20.495 0 0 0 2.5 3.5c1.356-.88 2.856-1.214 4.5-1v3c2.822 1.432 6.489 2.432 11 3v3c2.092.061 3.592 1.061 4.5 3 2.537-.677 4.537.323 6 3 2.361-.566 4.194.434 5.5 3l2-1c.35 2.067 2.017 3.067 5 3v3h6v3h5v3h6v3a27.247 27.247 0 0 0 9 3c-.219 1.175.114 2.175 1 3a6.846 6.846 0 0 1 4-1v3a8.435 8.435 0 0 1 4 .5c-1.154.914-.987 1.747.5 2.5 1.299-.466 2.799-.466 4.5 0v3h6v3h5v3a84.933 84.933 0 0 1 15 7c-2.377-.285-4.544-.285-6.5 0-.667-2.667-1.333-2.667-2 0-.667-2.667-1.333-2.667-2 0a11.496 11.496 0 0 1-3.5-5c-1.299.59-2.132 1.59-2.5 3-.667-2.667-1.333-2.667-2 0-.667-2.667-1.333-2.667-2 0-.667-2.667-1.333-2.667-2 0-.667-2.667-1.333-2.667-2 0-.667-2.667-1.333-2.667-2 0-.667-2.667-1.333-2.667-2 0-.667-2.667-1.333-2.667-2 0-.667-2.667-1.333-2.667-2 0-.667-2.667-1.333-2.667-2 0-.667-2.667-1.333-2.667-2 0-.667-2.667-1.333-2.667-2 0-.667-2.667-1.333-2.667-2 0-.667-2.667-1.333-2.667-2 0-.667-2.667-1.333-2.667-2 0-.667-2.667-1.333-2.667-2 0-.667-2.667-1.333-2.667-2 0l-1-2c-.498 2.044-1.665 3.378-3.5 4-6.472-1.62-12.138-4.786-17-9.5l-19-9a30.312 30.312 0 0 0-12-7c-2.365-3.714-5.698-5.714-10-6-6.095-4.893-13.095-7.726-21-8.5-13.787 5.592-26.787 12.759-39 21.5l-4 1a394.633 394.633 0 0 1-21 12.5c-.283-.79-.783-1.456-1.5-2-1.011.837-2.178 1.17-3.5 1-.193 3.949-.693 3.949-1.5 0-.569 3.86-1.402 3.86-2.5 0-.929 1.189-1.262 2.522-1 4-3.098-.087-3.432.413-1 1.5-1.771 2.114-3.271 1.947-4.5-.5-1.566-.56-2.899.106-4 2-1.333-2.667-2.667-2.667-4 0l-2-2c-2.041.923-4.208 1.256-6.5 1 4.357-2.625 9.024-4.958 14-7v-3h6v-3a59.031 59.031 0 0 1 11-3v-3c1.808.009 3.475-.491 5-1.5-1.388-.89-1.222-1.39.5-1.5 2.071 1.167 3.571.5 4.5-2 6.434-2.343 12.767-5.343 19-9v-3a59.031 59.031 0 0 1 11-3 4.934 4.934 0 0 1 .5-3l1 1c1.995-2.247 4.495-3.247 7.5-3v-3h5v-3h6v-3c1.808.009 3.475-.491 5-1.5l-1-1a12.936 12.936 0 0 1 5-.5v-3c3.552.188 6.219-1.145 8-4ZM328.5 62.5c-2.377-.285-4.544-.285-6.5 0a14.962 14.962 0 0 0-3.5-3c-1.041 2.491-1.874 2.491-2.5 0-1.553 3.8-2.886 3.8-4 0-.667 4-1.333 4-2 0-.359 3.044-1.026 3.378-2 1-.417 1.256-1.25 1.923-2.5 2a12882.651 12882.651 0 0 0-68.5-39 138.219 138.219 0 0 1-14.5 1.5 583.354 583.354 0 0 0-33 19 175.013 175.013 0 0 0-28 16c-2.56.384-4.894 1.217-7 2.5-.996.086-1.829-.248-2.5-1-1.333 2.667-2.667 2.667-4 0-1.333 2.667-2.667 2.667-4 0-1.333 2.667-2.667 2.667-4 0-1.333 2.667-2.667 2.667-4 0-1.333 2.667-2.667 2.667-4 0-1.333 2.667-2.667 2.667-4 0-1.874 2.276-3.541 1.943-5-1-.667 2.667-1.333 2.667-2 0-.667 2.667-1.333 2.667-2 0-.667 2.667-1.333 2.667-2 0-.667 2.667-1.333 2.667-2 0-.667 2.667-1.333 2.667-2 0-.667 2.667-1.333 2.667-2 0-.626 2.491-1.459 2.491-2.5 0-2.01 1.671-4.343 2.338-7 2 4.159-3.071 8.826-5.405 14-7v-3h6v-3h5v-3c1.701-.466 3.201-.466 4.5 0 3.279-4.047 7.946-7.047 14-9a18.264 18.264 0 0 0 5-4l1 1c1.049-1.607 2.549-2.273 4.5-2v-3h5v-3h6v-3c4.612-1.195 9.279-2.862 14-5v-3c1.701-.466 3.201-.466 4.5 0 .908-1.939 2.408-2.939 4.5-3v-3h6v-3c1.788.285 3.455-.048 5-1a38.767 38.767 0 0 0 7-4.5 49.25 49.25 0 0 1 14 0c2.025 1.677 4.359 2.677 7 3-1.134 1.016-.801 1.683 1 2l5 1-1 1c2.622 3.073 5.955 4.573 10 4.5v3h6v3c3.191.262 5.858 1.596 8 4a9.864 9.864 0 0 0 6 1v3c3.58 1.22 7.247 2.386 11 3.5l-2 1c2.767.678 4.934 2.178 6.5 4.5l1-1c3.769 1.797 7.102 4.13 10 7a3.942 3.942 0 0 1 2-1c1.482 1.612 3.315 2.612 5.5 3v3h6v3h5v3h6v3c5.174 1.595 9.841 3.929 14 7Z"/><path style="opacity:1" fill="#273339" d="M643.5 62.5c9.98 7.999 20.98 14.499 33 19.5l4 4a457.332 457.332 0 0 1 22 11c3.801 2.3 7.467 4.8 11 7.5a365.314 365.314 0 0 1 35 20.5c2.71 1.747 5.71 2.747 9 3a22.162 22.162 0 0 1 4 6.5v222c.322 2.222-.345 4.056-2 5.5a439.298 439.298 0 0 1-14 6.5 3366.052 3366.052 0 0 0-33 19.5 1182.868 1182.868 0 0 0-67 39c-3.81 1.13-7.143 3.13-10 6-2.988.502-5.655 1.669-8 3.5v-14a133.781 133.781 0 0 1 14-6.5 3660.5 3660.5 0 0 1 91-54 84.545 84.545 0 0 1 18-8.5 7901.316 7901.316 0 0 0-1.5-216 2129.254 2129.254 0 0 1-37.5-21.5c-3.415-.406-6.082-2.072-8-5a91.311 91.311 0 0 1-23-13 457.332 457.332 0 0 0-22-11c-2.508-3.042-5.508-5.376-9-7a457.332 457.332 0 0 1-22-11l-24-15c-3.415-.406-6.082-2.072-8-5a90.401 90.401 0 0 0-14-6c-5.722-6.435-12.722-8.768-21-7-7.36 5.663-15.36 9.996-24 13-3.619 3.977-7.952 6.644-13 8-2.537 2.546-5.537 4.212-9 5l-4 4-10 4a2551.356 2551.356 0 0 0-60 36 7185.005 7185.005 0 0 1 26 16 114.065 114.065 0 0 0 14 6c4.2 3.6 8.867 6.433 14 8.5a684.54 684.54 0 0 1 19-8.5c3.552-3.273 7.552-5.773 12-7.5a209.449 209.449 0 0 0-12.5 12 39.44 39.44 0 0 0-5.5 12c-2.522-.372-4.522.461-6 2.5a42.479 42.479 0 0 1-13 0 496.946 496.946 0 0 0-33-18 287.246 287.246 0 0 0-25-16 68.974 68.974 0 0 0-5-6.5c.471-4.003 2.471-7.17 6-9.5a4386.09 4386.09 0 0 0 69-39.5 394.633 394.633 0 0 0 21-12.5l4-1c12.213-8.741 25.213-15.908 39-21.5 7.905.774 14.905 3.607 21 8.5 4.302.286 7.635 2.286 10 6a30.312 30.312 0 0 1 12 7l19 9c4.862 4.714 10.528 7.88 17 9.5Z"/><path style="opacity:1" fill="#28333a" d="M305.5 62.5a4051.442 4051.442 0 0 1 73 42 321.79 321.79 0 0 1 29 17.5 91.311 91.311 0 0 1 23 13c4.871 1.741 9.204 4.408 13 8a77.598 77.598 0 0 1 23 13l4 1a1218.928 1218.928 0 0 0 39 22.5 115.27 115.27 0 0 0 19 25 50.433 50.433 0 0 1-11-7.5c-8.449-3.02-16.115-7.353-23-13-5.521-1.096-10.187-3.762-14-8l-4-1a327.567 327.567 0 0 0-42-24c-4.758-4.768-10.425-7.768-17-9-3.065-4.125-7.065-6.791-12-8l-6-5a546.6 546.6 0 0 0-35-18 108.394 108.394 0 0 1-19-13 1516.16 1516.16 0 0 1-91-52A228.066 228.066 0 0 0 230 34.5 112.066 112.066 0 0 0 206.5 48l-10 4-3 3c-6.771 2.445-12.771 6.111-18 11l-10 4-4 4a520.666 520.666 0 0 0-59 34l-9 3c-2.508 3.042-5.508 5.376-9 7a583.92 583.92 0 0 1-36 19 7827.247 7827.247 0 0 0-.5 216.5A65.836 65.836 0 0 1 64.5 364l22 11a334.568 334.568 0 0 0 40 23 199.073 199.073 0 0 0 20 13 182.866 182.866 0 0 1 25 12.5v14a1613.704 1613.704 0 0 1-93-53.5c-5.487-1.208-10.154-3.875-14-8a175.007 175.007 0 0 0-16-7.5c.086-.996-.248-1.829-1-2.5l-9.5-5.5-1-4a760.886 760.886 0 0 1-.5-39v-146a323.851 323.851 0 0 1 1.5-42c3.467-1.5 6.967-3 10.5-4.5 12.03-7.167 24.03-14.333 36-21.5a740.714 740.714 0 0 0 32-17.5 55.63 55.63 0 0 1 18-10 353.94 353.94 0 0 1 20-13.5c2.106-1.283 4.44-2.116 7-2.5a175.013 175.013 0 0 1 28-16 583.354 583.354 0 0 1 33-19c4.872-.246 9.705-.746 14.5-1.5a12882.651 12882.651 0 0 1 68.5 39Z"/><path style="opacity:1" fill="#fdfdfd" d="M528.5 204.5a443.915 443.915 0 0 0 20 14.5 78.853 78.853 0 0 0 15 7.5c2.131.814 4.464 1.314 7 1.5a50.642 50.642 0 0 0 12 7.5c1.317 6.488 1.317 12.822 0 19a185.931 185.931 0 0 0-16-9.5c-3.827-.976-7.16-.143-10 2.5a68.746 68.746 0 0 1-14-7c-17.687-36.849-47.02-54.849-88-54a49.056 49.056 0 0 0-8-5.5c-1.323-.816-1.989-1.983-2-3.5 1.072-5.089-.595-8.922-5-11.5l-32-20c-4.055-2.34-8.389-3.007-13-2a1077.713 1077.713 0 0 0-38 24.5c-4.401-.859-8.068-3.026-11-6.5a91.767 91.767 0 0 1-22-13l-5-1a331.67 331.67 0 0 0-40-23 846.02 846.02 0 0 1-33-20c-3.415-.406-6.082-2.072-8-5a42.498 42.498 0 0 0-13 0 226.438 226.438 0 0 0-29 17c-3.415.406-6.082 2.072-8 5a90.42 90.42 0 0 1-14 6c-3.574 3.951-7.907 6.618-13 8-6.962 5.648-14.628 9.981-23 13a230.435 230.435 0 0 1-32.5 19.5 2946.23 2946.23 0 0 0-1 153 76.322 76.322 0 0 0 18.5 10.5 157.436 157.436 0 0 0 27 15l6 5a61.33 61.33 0 0 1 16 8.5v63a182.866 182.866 0 0 0-25-12.5 199.073 199.073 0 0 1-20-13 334.568 334.568 0 0 1-40-23l-22-11A65.836 65.836 0 0 0 48 353.5a7827.247 7827.247 0 0 1 .5-216.5 583.92 583.92 0 0 0 36-19c3.492-1.624 6.492-3.958 9-7l9-3a520.666 520.666 0 0 1 59-34l4-4 10-4c5.229-4.889 11.229-8.555 18-11l3-3 10-4A112.066 112.066 0 0 1 230 34.5 228.066 228.066 0 0 1 254.5 46a1516.16 1516.16 0 0 0 91 52 108.394 108.394 0 0 0 19 13 546.6 546.6 0 0 1 35 18l6 5c4.935 1.209 8.935 3.875 12 8 6.575 1.232 12.242 4.232 17 9a327.567 327.567 0 0 1 42 24l4 1c3.813 4.238 8.479 6.904 14 8 6.885 5.647 14.551 9.98 23 13a50.433 50.433 0 0 0 11 7.5Z"/><path style="opacity:1" fill="#fefefe" d="M627.5 422.5v-62a1854.42 1854.42 0 0 0 47-28.5c7.819-2.16 14.319-6.327 19.5-12.5.667-48.667.667-97.333 0-146a69.2 69.2 0 0 0-4.5-6.5 198.572 198.572 0 0 1-36-21 114.302 114.302 0 0 1-13-6 182.852 182.852 0 0 0-35-20c-3.671-4.417-8.338-7.083-14-8a171.322 171.322 0 0 0-19-12c-8.302-.757-15.635 1.576-22 7a68.695 68.695 0 0 0-14 7c-4.508.338-7.841 2.504-10 6.5h-1c-4.448 1.727-8.448 4.227-12 7.5a684.54 684.54 0 0 0-19 8.5 50.162 50.162 0 0 1-14-8.5 114.065 114.065 0 0 1-14-6 7185.005 7185.005 0 0 0-26-16 2551.356 2551.356 0 0 1 60-36l10-4 4-4c3.463-.788 6.463-2.454 9-5 5.048-1.356 9.381-4.023 13-8 8.64-3.004 16.64-7.337 24-13 8.278-1.768 15.278.565 21 7a90.401 90.401 0 0 1 14 6c1.918 2.928 4.585 4.594 8 5l24 15a457.332 457.332 0 0 0 22 11c3.492 1.624 6.492 3.958 9 7a457.332 457.332 0 0 1 22 11 91.311 91.311 0 0 0 23 13c1.918 2.928 4.585 4.594 8 5a2129.254 2129.254 0 0 0 37.5 21.5 7901.316 7901.316 0 0 1 1.5 216 84.545 84.545 0 0 0-18 8.5 3660.5 3660.5 0 0 0-91 54 133.781 133.781 0 0 0-14 6.5Z"/><path style="opacity:1" fill="#db8dd9" d="M154.5 62.5a353.94 353.94 0 0 0-20 13.5 55.63 55.63 0 0 0-18 10 740.714 740.714 0 0 1-32 17.5h-52v-3a417.79 417.79 0 0 0 15-7 32.686 32.686 0 0 0 8.5-6l1 1c1.049-1.607 2.549-2.273 4.5-2v-3a59.029 59.029 0 0 1 11-3 4.932 4.932 0 0 1 .5-3l1 1c2.015-3.065 4.515-4.065 7.5-3v-3h5v-3c1.7.16 3.366-.007 5-.5 1.478-2.057 3.478-3.39 6-4l-2-1c2.208-.19 4.208-.69 6-1.5 2.657.338 4.99-.329 7-2 1.041 2.491 1.874 2.491 2.5 0 .667 2.667 1.333 2.667 2 0 .667 2.667 1.333 2.667 2 0 .667 2.667 1.333 2.667 2 0 .667 2.667 1.333 2.667 2 0 .667 2.667 1.333 2.667 2 0 .667 2.667 1.333 2.667 2 0 1.459 2.943 3.126 3.276 5 1 1.333 2.667 2.667 2.667 4 0 1.333 2.667 2.667 2.667 4 0 1.333 2.667 2.667 2.667 4 0 1.333 2.667 2.667 2.667 4 0 1.333 2.667 2.667 2.667 4 0 1.333 2.667 2.667 2.667 4 0 .671.752 1.504 1.086 2.5 1Z"/><path style="opacity:1" fill="#d98cd7" d="M500.5 57.5a4386.09 4386.09 0 0 1-69 39.5c-3.529 2.33-5.529 5.497-6 9.5-.904-.709-1.237-1.709-1-3h-24a1199.924 1199.924 0 0 1 33-19.5c.837-1.011 1.17-2.178 1-3.5 4.493-.216 7.993-2.216 10.5-6 1.011.837 2.178 1.17 3.5 1v-3a59.031 59.031 0 0 0 11-3v-3a92.262 92.262 0 0 1 9-4c2.292.256 4.459-.077 6.5-1l2 2c1.333-2.667 2.667-2.667 4 0 1.101-1.894 2.434-2.56 4-2 1.229 2.447 2.729 2.614 4.5.5-2.432-1.087-2.098-1.587 1-1.5-.262-1.478.071-2.811 1-4 1.098 3.86 1.931 3.86 2.5 0 .807 3.949 1.307 3.949 1.5 0 1.322.17 2.489-.163 3.5-1 .717.544 1.217 1.21 1.5 2Z"/><path style="opacity:1" fill="#db8dd9" d="M696.5 62.5c1.452.802 3.118 1.302 5 1.5l-2 1c2.522.61 4.522 1.943 6 4 1.634.493 3.301.66 5 .5v3c2.908-.238 5.242.762 7 3 .951-.826 1.951-.992 3-.5l-1 1a6.977 6.977 0 0 1 3.5 2.5l1-1c.483.948.649 1.948.5 3h6v3h5v3c1.951-.273 3.451.393 4.5 2l1-1c6 4.386 12.5 7.886 19.5 10.5l-1 1c1.525 1.009 3.192 1.509 5 1.5v3a650.602 650.602 0 0 0-51 1c-3.533-2.7-7.199-5.2-11-7.5a457.332 457.332 0 0 0-22-11l-4-4c-12.02-5.001-23.02-11.501-33-19.5 1.835-.622 3.002-1.956 3.5-4l1 2c.667-2.667 1.333-2.667 2 0 .667-2.667 1.333-2.667 2 0 .667-2.667 1.333-2.667 2 0 .667-2.667 1.333-2.667 2 0 .667-2.667 1.333-2.667 2 0 .667-2.667 1.333-2.667 2 0 .667-2.667 1.333-2.667 2 0 .667-2.667 1.333-2.667 2 0 .667-2.667 1.333-2.667 2 0 .667-2.667 1.333-2.667 2 0 .667-2.667 1.333-2.667 2 0 .667-2.667 1.333-2.667 2 0 .667-2.667 1.333-2.667 2 0 .667-2.667 1.333-2.667 2 0 .667-2.667 1.333-2.667 2 0 .667-2.667 1.333-2.667 2 0 .368-1.41 1.201-2.41 2.5-3a11.496 11.496 0 0 0 3.5 5c.667-2.667 1.333-2.667 2 0 .667-2.667 1.333-2.667 2 0 1.956-.285 4.123-.285 6.5 0Z"/><path style="opacity:1" fill="#da8cd7" d="M328.5 62.5a92.262 92.262 0 0 1 9 4v3h6v3h5v3c2.985-1.065 5.485-.065 7.5 3l1-1c.483.948.649 1.948.5 3h5v3h6v3c2.133 1.386 5.133 2.386 9 3v3c2.908-.238 5.242.762 7 3l2-1c.35 2.067 2.017 3.067 5 3v3h6v3c-6.522-.323-12.855.01-19 1a4051.442 4051.442 0 0 0-73-42c1.25-.077 2.083-.744 2.5-2 .974 2.378 1.641 2.044 2-1 .667 4 1.333 4 2 0 1.114 3.8 2.447 3.8 4 0 .626 2.491 1.459 2.491 2.5 0a14.962 14.962 0 0 1 3.5 3c1.956-.285 4.123-.285 6.5 0Z"/><path style="opacity:1" fill="#273339" d="M356.5 168.5c-2.591 3.631-2.591 7.298 0 11-1.459-.067-2.792.266-4 1a75.189 75.189 0 0 1-17-10 68975.74 68975.74 0 0 0-35-20.5 47.592 47.592 0 0 0-12-5 301.986 301.986 0 0 0-51-30l-4.5-4.5c-2.09.652-4.257.819-6.5.5a368.678 368.678 0 0 1-44 26c-3.83 4.163-8.497 6.829-14 8a81.82 81.82 0 0 1-19 11c-5.201 4.797-11.201 8.13-18 10a40.775 40.775 0 0 0-6 4.5c-4.593 1.878-8.759 4.545-12.5 8a162.597 162.597 0 0 0-.5 18v118c5.301 1.324 9.968 3.824 14 7.5l10 4c1.918 2.928 4.585 4.594 8 5 2.674 3.012 6.007 4.678 10 5 5.088 4.618 10.754 8.118 17 10.5v14a61.33 61.33 0 0 0-16-8.5l-6-5a157.436 157.436 0 0 1-27-15 76.322 76.322 0 0 1-18.5-10.5 2946.23 2946.23 0 0 1 1-153 230.435 230.435 0 0 0 32.5-19.5c8.372-3.019 16.038-7.352 23-13 5.093-1.382 9.426-4.049 13-8a90.42 90.42 0 0 0 14-6c1.918-2.928 4.585-4.594 8-5a226.438 226.438 0 0 1 29-17 42.498 42.498 0 0 1 13 0c1.918 2.928 4.585 4.594 8 5a846.02 846.02 0 0 0 33 20 331.67 331.67 0 0 1 40 23l5 1a91.767 91.767 0 0 0 22 13c2.932 3.474 6.599 5.641 11 6.5Z"/><path style="opacity:1" fill="#dd90d6" d="M32.5 103.5h52c-11.97 7.167-23.97 14.333-36 21.5-3.533 1.5-7.033 3-10.5 4.5a323.851 323.851 0 0 0-1.5 42h-30c.036-18.982.036-37.816 0-56.5a169.104 169.104 0 0 0 15-5.5v-3a58.967 58.967 0 0 0 11-3Z"/><path style="opacity:1" fill="#da8fd3" d="M378.5 104.5c6.145-.99 12.478-1.323 19-1h27c-.237 1.291.096 2.291 1 3a68.974 68.974 0 0 1 5 6.5 287.246 287.246 0 0 1 25 16 496.946 496.946 0 0 1 33 18c4.333.667 8.667.667 13 0 1.478-2.039 3.478-2.872 6-2.5-3.886 11.844-3.219 23.511 2 35a1218.928 1218.928 0 0 1-39-22.5l-4-1a77.598 77.598 0 0 0-23-13c-3.796-3.592-8.129-6.259-13-8a91.311 91.311 0 0 0-23-13 321.79 321.79 0 0 0-29-17.5Z"/><path style="opacity:1" fill="#dd90d6" d="M713.5 104.5a650.602 650.602 0 0 1 51-1h6v3h5v3c2.041.354 3.874.354 5.5 0 .483.948.649 1.948.5 3 2.836 1.276 5.836 1.942 9 2a431.37 431.37 0 0 1 2 57h-30a342.787 342.787 0 0 0-1-37 22.162 22.162 0 0 0-4-6.5c-3.29-.253-6.29-1.253-9-3a365.314 365.314 0 0 0-35-20.5Z"/><path style="opacity:1" fill="#dd90d4" d="M335.5 170.5c-70 1.333-140 1.333-210 0a40.775 40.775 0 0 1 6-4.5c6.799-1.87 12.799-5.203 18-10a81.82 81.82 0 0 0 19-11c5.503-1.171 10.17-3.837 14-8a368.678 368.678 0 0 0 44-26c2.243.319 4.41.152 6.5-.5l4.5 4.5a301.986 301.986 0 0 1 51 30 47.592 47.592 0 0 1 12 5 68975.74 68975.74 0 0 1 35 20.5Z"/><path style="opacity:1" fill="#d48ace" d="M577.5 119.5c-4.802 1.627-8.968 4.294-12.5 8-3.532-3.706-7.698-6.373-12.5-8a109.705 109.705 0 0 1 15-9 55.266 55.266 0 0 1 11 7.5c-.556.383-.889.883-1 1.5Z"/><path style="opacity:1" fill="#050506" d="M552.5 119.5c4.802 1.627 8.968 4.294 12.5 8 3.532-3.706 7.698-6.373 12.5-8 14.948-4.714 27.781-1.048 38.5 11 3.327 4.326 5.827 8.992 7.5 14 4.664 19.361.331 36.361-13 51a265.18 265.18 0 0 1-30 25l-11 5.5a18.453 18.453 0 0 1-6 .5 78.853 78.853 0 0 1-15-7.5 443.915 443.915 0 0 1-20-14.5 115.27 115.27 0 0 1-19-25c-5.219-11.489-5.886-23.156-2-35a39.44 39.44 0 0 1 5.5-12 209.449 209.449 0 0 1 12.5-12h1a75.645 75.645 0 0 1 15.5-4c3.9-.294 7.4.706 10.5 3Z"/><path style="opacity:1" fill="#273339" d="M627.5 360.5v-14a527.13 527.13 0 0 0 26-15.5l4-1a679.07 679.07 0 0 1 23-15 12.93 12.93 0 0 1 5-.5c.331-28.505-.002-56.838-1-85-.333-1-1-1.667-2-2v-2c.167-16.337 0-32.67-.5-49a2540.91 2540.91 0 0 1-58-33c-.399.228-.565.562-.5 1-1.673-5.008-4.173-9.674-7.5-14-10.719-12.048-23.552-15.714-38.5-11 .111-.617.444-1.117 1-1.5a55.266 55.266 0 0 0-11-7.5 109.705 109.705 0 0 0-15 9c-3.1-2.294-6.6-3.294-10.5-3a75.645 75.645 0 0 0-15.5 4c2.159-3.996 5.492-6.162 10-6.5a68.695 68.695 0 0 1 14-7c6.365-5.424 13.698-7.757 22-7a171.322 171.322 0 0 1 19 12c5.662.917 10.329 3.583 14 8a182.852 182.852 0 0 1 35 20 114.302 114.302 0 0 0 13 6 198.572 198.572 0 0 0 36 21 69.2 69.2 0 0 1 4.5 6.5c.667 48.667.667 97.333 0 146-5.181 6.173-11.681 10.34-19.5 12.5a1854.42 1854.42 0 0 1-47 28.5Z"/><path style="opacity:1" fill="#affd98" d="M551.5 140.5c.579 2.831 1.912 5.164 4 7-.944 6.172 1.056 11.006 6 14.5 6.788 1.61 11.121-.89 13-7.5.934-3.156 1.601-6.489 2-10 1.72-3.231 4.053-6.064 7-8.5 10.607-.777 18.107 3.723 22.5 13.5 2.507 11.273.173 21.273-7 30-9.234 10.857-20.067 19.691-32.5 26.5-2.135.635-4.135.301-6-1-12.097-7.765-22.597-17.265-31.5-28.5a66.584 66.584 0 0 1-4.5-10c-1.173-4.987-1.173-9.987 0-15 3.104-11.282 10.437-16.449 22-15.5a44.555 44.555 0 0 0 5 4.5Z"/><path style="opacity:1" fill="#050505" d="M444.5 177.5c-2.589 4.793-6.589 6.627-12 5.5a44066.81 44066.81 0 0 1-33-19.5 364.776 364.776 0 0 0-31 18.5c-4.82 2.537-8.82 1.704-12-2.5-2.591-3.702-2.591-7.369 0-11a1077.713 1077.713 0 0 1 38-24.5c4.611-1.007 8.945-.34 13 2l32 20c4.405 2.578 6.072 6.411 5 11.5Z"/><path style="opacity:1" fill="#a0d2b4" d="M551.5 140.5c2.088 1.836 3.421 4.169 4 7-2.088-1.836-3.421-4.169-4-7Z"/><path style="opacity:1" fill="#87afba" d="M576.5 144.5c-.399 3.511-1.066 6.844-2 10a32.462 32.462 0 0 1 .5-8c.278-.916.778-1.582 1.5-2Z"/><path style="opacity:1" fill="#72929b" d="M524.5 151.5c-1.173 5.013-1.173 10.013 0 15-2.667-5-2.667-10 0-15Z"/><path style="opacity:1" fill="#d4ceca" d="M444.5 177.5c.011 1.517.677 2.684 2 3.5a49.056 49.056 0 0 1 8 5.5c-25.066 5.734-43.4 20.068-55 43-11.773-23.454-30.44-37.787-56-43l9-6c1.208-.734 2.541-1.067 4-1 3.18 4.204 7.18 5.037 12 2.5a364.776 364.776 0 0 1 31-18.5 44066.81 44066.81 0 0 0 33 19.5c5.411 1.127 9.411-.707 12-5.5Z"/><path style="opacity:1" fill="#df93d2" d="M125.5 170.5c70 1.333 140 1.333 210 0a75.189 75.189 0 0 0 17 10l-9 6h-16a298.67 298.67 0 0 1-20-11.5 25.238 25.238 0 0 0-10 0l-2.5 2.5c-1.049-1.017-2.216-1.184-3.5-.5-5.981 4.997-12.648 8.664-20 11-4.27 5.133-9.603 8.299-16 9.5a5112.717 5112.717 0 0 0-143-1c-.166-6.009.001-12.009.5-18 3.741-3.455 7.907-6.122 12.5-8Z"/><path style="opacity:1" fill="#dd92d1" d="M682.5 225.5c-.994-9.486-1.327-19.152-1-29-23.839.331-47.506-.002-71-1 13.331-14.639 17.664-31.639 13-51-.065-.438.101-.772.5-1a2540.91 2540.91 0 0 0 58 33c.5 16.33.667 32.663.5 49Z"/><path style="opacity:1" fill="#273339" d="M327.5 186.5c-6.282.189-12.282 1.522-18 4-1.403-1.431-3.069-2.598-5-3.5-1.333-.667-2.667-.667-4 0l-20 10-4 4c-7.273 1.918-13.607 5.585-19 11a24.569 24.569 0 0 0-8 3 6204.11 6204.11 0 0 1-24 15 239.706 239.706 0 0 0-12 5.5c-.324 6.854.009 13.521 1 20a120.457 120.457 0 0 1-13 7c-.166-10.339 0-20.672.5-31a19.552 19.552 0 0 0 3.5-4 529.71 529.71 0 0 0 50-30c6.397-1.201 11.73-4.367 16-9.5 7.352-2.336 14.019-6.003 20-11 1.284-.684 2.451-.517 3.5.5l2.5-2.5a25.238 25.238 0 0 1 10 0 298.67 298.67 0 0 0 20 11.5Z"/><path style="opacity:1" fill="#f9f9f9" d="M309.5 190.5c-24.521 10.19-42.521 27.19-54 51a114.037 114.037 0 0 1-13 6c-3.178-2.72-6.845-3.554-11-2.5a12425.97 12425.97 0 0 0-17 10.5c-.991-6.479-1.324-13.146-1-20a239.706 239.706 0 0 1 12-5.5 6204.11 6204.11 0 0 0 24-15 24.569 24.569 0 0 1 8-3c5.393-5.415 11.727-9.082 19-11l4-4 20-10c1.333-.667 2.667-.667 4 0 1.931.902 3.597 2.069 5 3.5Z"/><path style="opacity:1" fill="#040303" d="M327.5 186.5h16c25.56 5.213 44.227 19.546 56 43 11.6-22.932 29.934-37.266 55-43 40.98-.849 70.313 17.151 88 54 11.457 23.377 13.957 47.71 7.5 73-3.327 2.654-7.161 3.654-11.5 3-4.113-3.249-5.779-7.582-5-13 5.329-31.518-3.338-58.685-26-81.5-18.091-15.803-38.757-20.469-62-14-25.5 14.574-38 36.74-37.5 66.5-4.522 7.149-9.855 7.815-16 2 .016-23.304-8.151-43.137-24.5-59.5-23.831-16.951-47.498-16.618-71 1-26.314 22.782-36.648 51.282-31 85.5.779 5.418-.887 9.751-5 13-7.786 1.884-12.453-1.116-14-9a373.589 373.589 0 0 1-1-28 133.342 133.342 0 0 1 10-38c11.479-23.81 29.479-40.81 54-51 5.718-2.478 11.718-3.811 18-4Z"/><path style="opacity:1" fill="#e095d0" d="M6.5 171.5h30v56h-30v-56Z"/><path style="opacity:1" fill="#e095cf" d="M112.5 196.5c47.836-.332 95.503.001 143 1a529.71 529.71 0 0 1-50 30h-92c.268 1.599-.066 2.932-1 4v-35ZM610.5 195.5c23.494.998 47.161 1.331 71 1-.327 9.848.006 19.514 1 29v2h-89c-3.867-.358-6.867-2.191-9-5.5a28.208 28.208 0 0 1-4-1.5 265.18 265.18 0 0 0 30-25Z"/><path style="opacity:1" fill="#e095d0" d="M762.5 171.5h30v56h-30v-56Z"/><path style="opacity:1" fill="#f87076" d="M533.5 303.5c-26.982 17.307-53.982 34.64-81 52a764.7 764.7 0 0 0-53-36 2486.927 2486.927 0 0 0-51 34.5c-1.333.667-2.667.667-4 0a225306.019 225306.019 0 0 1-79-50.5c-5.648-34.218 4.686-62.718 31-85.5 23.502-17.618 47.169-17.951 71-1 16.349 16.363 24.516 36.196 24.5 59.5 6.145 5.815 11.478 5.149 16-2-.5-29.76 12-51.926 37.5-66.5 23.243-6.469 43.909-1.803 62 14 22.662 22.815 31.329 49.982 26 81.5Z"/><path style="opacity:1" fill="#273339" d="M580.5 220.5c1.266.59 2.599 1.09 4 1.5 2.133 3.309 5.133 5.142 9 5.5.283.789.783 1.456 1.5 2 .5 10.661.667 21.328.5 32a120.457 120.457 0 0 1-13-7c1.317-6.178 1.317-12.512 0-19a50.642 50.642 0 0 1-12-7.5c-2.536-.186-4.869-.686-7-1.5a18.453 18.453 0 0 0 6-.5l11-5.5Z"/><path style="opacity:1" fill="#e399cc" d="M6.5 227.5h30v62c-1.879.107-2.212-.393-1-1.5l-1.5-1.5-3 1c-.667-2.667-1.333-2.667-2 0l-3-2c-1.566-.561-2.899.106-4 2-.667-2.667-1.333-2.667-2 0-.667-2.667-1.333-2.667-2 0l-1-2-2 4-2-4-2 4c-.667-2.667-1.333-2.667-2 0-.77-1.098-1.603-1.098-2.5 0v-62Z"/><path style="opacity:1" fill="#e298cc" d="M205.5 227.5a19.552 19.552 0 0 1-3.5 4 481.165 481.165 0 0 0-.5 31 241.614 241.614 0 0 1-25 16.5l-4.5 4.5a18.453 18.453 0 0 0-.5 6c-1.911-.074-3.078-1.074-3.5-3-.974 2.378-1.641 2.044-2-1l-1 3c-1.333-4-2.667-4-4 0-.667-4-1.333-4-2 0-1.312-2.158-2.978-2.491-5-1-.667-2.667-1.333-2.667-2 0-1.333-2.667-2.667-2.667-4 0-.667-2.667-1.333-2.667-2 0l-2-2-6 2c-.667-2.667-1.333-2.667-2 0-1.333-2.667-2.667-2.667-4 0-.667-2.667-1.333-2.667-2 0-1.729-1.934-3.729-1.934-6 0-1.333-2.667-2.667-2.667-4 0l-1-2c-1.652.568-3.318 1.901-5 4-.174-4.851-.674-9.518-1.5-14v-44c.934-1.068 1.268-2.401 1-4h92ZM593.5 227.5h89c1 .333 1.667 1 2 2 .333 20.011 0 40.011-1 60a604.676 604.676 0 0 1-3.5-3c-1.646 1.641-2.646 1.307-3-1-.691 2.391-1.691 2.391-3 0-1.309 2.391-2.309 2.391-3 0-.691 2.391-1.691 2.391-3 0l-6 2c-.667-2.667-1.333-2.667-2 0-1.333-2.667-2.667-2.667-4 0-.667-2.667-1.333-2.667-2 0l-2-2-6 2c-.667-2.667-1.333-2.667-2 0-1.482-2.281-3.149-2.281-5 0-.667-2.667-1.333-2.667-2 0-.667-2.667-1.333-2.667-2 0l-2-2a33.673 33.673 0 0 0-5.5 4 18.453 18.453 0 0 0-.5-6l-4.5-4.5a279.16 279.16 0 0 1-27-17.5c.167-10.672 0-21.339-.5-32-.717-.544-1.217-1.211-1.5-2Z"/><path style="opacity:1" fill="#e399cc" d="M762.5 227.5h30v62c-1.879.107-2.212-.393-1-1.5l-1.5-1.5-3 1c-.667-2.667-1.333-2.667-2 0l-3-2c-1.566-.561-2.899.106-4 2-.667-2.667-1.333-2.667-2 0-.667-2.667-1.333-2.667-2 0l-1-2-2 4-2-4-2 4c-.667-2.667-1.333-2.667-2 0-.667-1.333-1.333-1.333-2 0-.5-20.664-.667-41.331-.5-62Z"/><path style="opacity:1" fill="#d3cdc9" d="M255.5 241.5a133.342 133.342 0 0 0-10 38c-.665 3.317-.999 6.817-1 10.5-.11 6.067.557 11.9 2 17.5 1.547 7.884 6.214 10.884 14 9a51.318 51.318 0 0 0 5 13 1776.316 1776.316 0 0 1-67-42.5 3085.654 3085.654 0 0 0 44.5-28.5c2.132-3.814 1.965-7.481-.5-11 4.442-1.72 8.776-3.72 13-6Z"/><path style="opacity:1" fill="#d2cbc7" d="M542.5 240.5a68.746 68.746 0 0 0 14 7c-2.904 4.99-2.237 9.49 2 13.5l42 26a3475.979 3475.979 0 0 1-66 42.5l4-13c4.339.654 8.173-.346 11.5-3 6.457-25.29 3.957-49.623-7.5-73Z"/><path style="opacity:.999" fill="#030203" d="M242.5 247.5c2.465 3.519 2.632 7.186.5 11a3085.654 3085.654 0 0 1-44.5 28.5 1776.316 1776.316 0 0 0 67 42.5 1461.682 1461.682 0 0 0 81.5 52 3770.982 3770.982 0 0 0 47.5-32.5c3.333-2 6.667-2 10 0a92029.632 92029.632 0 0 1 57 39.5l146 101c.06.543.393.876 1 1a5828.565 5828.565 0 0 0 .5-187c-.995.566-1.828 1.233-2.5 2a14148.61 14148.61 0 0 0-123 78.5c-5.593 3.472-10.926 3.305-16-.5-1.897-4.684-1.23-8.85 2-12.5 21.695-13.844 43.362-27.677 65-41.5a3475.979 3475.979 0 0 0 66-42.5l-42-26c-4.237-4.01-4.904-8.51-2-13.5 2.84-2.643 6.173-3.476 10-2.5a185.931 185.931 0 0 1 16 9.5 120.457 120.457 0 0 0 13 7 279.16 279.16 0 0 0 27 17.5l4.5 4.5c.495 1.973.662 3.973.5 6v167c.167 18.67 0 37.336-.5 56-.833 2.167-2.333 3.667-4.5 4.5a72.367 72.367 0 0 1-12 .5h-19c.167-11.671 0-23.338-.5-35a6.978 6.978 0 0 0-3.5-2.5c-8.66-.5-17.327-.666-26-.5l-2-1a13054.62 13054.62 0 0 0-160-110 12731.368 12731.368 0 0 0-115 78.5c-7.124 1.877-11.458-.79-13-8a18.091 18.091 0 0 1 2.5-6.5 4841.984 4841.984 0 0 1 54.5-37.5c.951-.718 1.117-1.551.5-2.5a17840.92 17840.92 0 0 0-138.5-88 4134.047 4134.047 0 0 0-1 92.5l1 93.5c.607-.124.94-.457 1-1a3553.8 3553.8 0 0 0 60-41.5c5.767-2.7 10.6-1.533 14.5 3.5.79 3.134.457 6.134-1 9a1548.034 1548.034 0 0 1-52.5 37c-.789.283-1.456.783-2 1.5 9.661.5 19.328.666 29 .5 4.259 1.583 6.592 4.583 7 9-.32 4.487-2.653 7.32-7 8.5-8.66.5-17.327.666-26 .5h-27a50.464 50.464 0 0 1-10-.5c-2.167-.833-3.667-2.333-4.5-4.5-.5-18.997-.667-37.997-.5-57v-166a18.453 18.453 0 0 1 .5-6l4.5-4.5a241.614 241.614 0 0 0 25-16.5 120.457 120.457 0 0 0 13-7 12425.97 12425.97 0 0 1 17-10.5c4.155-1.054 7.822-.22 11 2.5Z"/><path style="opacity:1" fill="#a09b98" d="M245.5 279.5a373.589 373.589 0 0 0 1 28c-1.443-5.6-2.11-11.433-2-17.5.001-3.683.335-7.183 1-10.5Z"/><path style="opacity:1" fill="#e49cc8" d="M36.5 289.5v28h-30v-28c.897-1.098 1.73-1.098 2.5 0 .667-2.667 1.333-2.667 2 0l2-4 2 4 2-4 1 2c.667-2.667 1.333-2.667 2 0 .667-2.667 1.333-2.667 2 0 1.101-1.894 2.434-2.561 4-2l3 2c.667-2.667 1.333-2.667 2 0l3-1 1.5 1.5c-1.212 1.107-.879 1.607 1 1.5Z"/><path style="opacity:1" fill="#e49cc7" d="M112.5 275.5c.826 4.482 1.326 9.149 1.5 14 1.682-2.099 3.348-3.432 5-4l1 2c1.333-2.667 2.667-2.667 4 0 2.271-1.934 4.271-1.934 6 0 .667-2.667 1.333-2.667 2 0 1.333-2.667 2.667-2.667 4 0 .667-2.667 1.333-2.667 2 0l6-2 2 2c.667-2.667 1.333-2.667 2 0 1.333-2.667 2.667-2.667 4 0 .667-2.667 1.333-2.667 2 0 2.022-1.491 3.688-1.158 5 1 .667-4 1.333-4 2 0 1.333-4 2.667-4 4 0l1-3c.359 3.044 1.026 3.378 2 1 .422 1.926 1.589 2.926 3.5 3v57c-6.246-2.382-11.912-5.882-17-10.5-3.993-.322-7.326-1.988-10-5-3.415-.406-6.082-2.072-8-5l-10-4c-4.032-3.676-8.699-6.176-14-7.5v-39Z"/><path style="opacity:1" fill="#e29bc6" d="M684.5 229.5a1807.264 1807.264 0 0 1 1 85 12.93 12.93 0 0 0-5 .5 679.07 679.07 0 0 0-23 15l-4 1a527.13 527.13 0 0 1-26 15.5v-57a33.673 33.673 0 0 1 5.5-4l2 2c.667-2.667 1.333-2.667 2 0 .667-2.667 1.333-2.667 2 0 1.851-2.281 3.518-2.281 5 0 .667-2.667 1.333-2.667 2 0l6-2 2 2c.667-2.667 1.333-2.667 2 0 1.333-2.667 2.667-2.667 4 0 .667-2.667 1.333-2.667 2 0l6-2c1.309 2.391 2.309 2.391 3 0 .691 2.391 1.691 2.391 3 0 1.309 2.391 2.309 2.391 3 0 .354 2.307 1.354 2.641 3 1a604.676 604.676 0 0 0 3.5 3c1-19.989 1.333-39.989 1-60Z"/><path style="opacity:1" fill="#de98c3" d="M761.5 134.5a342.787 342.787 0 0 1 1 37v56c-.167 20.669 0 41.336.5 62 .667-1.333 1.333-1.333 2 0 .667-2.667 1.333-2.667 2 0l2-4 2 4 2-4 1 2c.667-2.667 1.333-2.667 2 0 .667-2.667 1.333-2.667 2 0 1.101-1.894 2.434-2.561 4-2l3 2c.667-2.667 1.333-2.667 2 0l3-1 1.5 1.5c-1.212 1.107-.879 1.607 1 1.5v28h-30a380.934 380.934 0 0 1-1 39v-222Z"/><path style="opacity:1" fill="#a9a39f" d="M190.5 304.5a8560.11 8560.11 0 0 0 1 185c-.06.543-.393.876-1 1l-1-93.5c-.004-31.571.33-62.404 1-92.5Z"/><path style="opacity:1" fill="#e34252" d="M265.5 303.5c26.305 16.823 52.638 33.656 79 50.5 1.333.667 2.667.667 4 0a2486.927 2486.927 0 0 1 51-34.5 764.7 764.7 0 0 1 53 36c27.018-17.36 54.018-34.693 81-52-.779 5.418.887 9.751 5 13l-4 13a152804.381 152804.381 0 0 1-65 41.5c-3.23 3.65-3.897 7.816-2 12.5a579.57 579.57 0 0 0-6 5 92029.632 92029.632 0 0 0-57-39.5c-3.333-2-6.667-2-10 0a3770.982 3770.982 0 0 1-47.5 32.5 1461.682 1461.682 0 0 1-81.5-52 51.318 51.318 0 0 1-5-13c4.113-3.249 5.779-7.582 5-13Z"/><path style="opacity:1" fill="#a9a39f" d="M607.5 489.5c.667-30.498 1-61.165 1-92 0-31.007-.667-61.674-2-92 .672-.767 1.505-1.434 2.5-2 .833 62.336.667 124.669-.5 187-.607-.124-.94-.457-1-1Z"/><path style="opacity:1" fill="#e9e1db" d="M190.5 304.5a17840.92 17840.92 0 0 1 138.5 88c.617.949.451 1.782-.5 2.5a4841.984 4841.984 0 0 0-54.5 37.5 18.091 18.091 0 0 0-2.5 6.5c1.542 7.21 5.876 9.877 13 8a12731.368 12731.368 0 0 1 115-78.5 13054.62 13054.62 0 0 1 160 110l-101 2c-1.406.473-2.073 1.473-2 3-.987 4.805-1.321 9.805-1 15h-32c.321-5.195-.013-10.195-1-15-.256-2.276-1.59-3.443-4-3.5a1917.16 1917.16 0 0 1-61-1.5c-15.372-9.145-29.705-7.812-43 4-8.817-9.042-19.484-12.208-32-9.5-15.839 6.675-25.172 18.509-28 35.5h-8c-.408-4.417-2.741-7.417-7-9l-27-2a1548.034 1548.034 0 0 0 52.5-37c1.457-2.866 1.79-5.866 1-9-3.9-5.033-8.733-6.2-14.5-3.5a3553.8 3553.8 0 0 1-60 41.5 8560.11 8560.11 0 0 1-1-185ZM606.5 305.5c1.333 30.326 2 60.993 2 92 0 30.835-.333 61.502-1 92l-146-101a579.57 579.57 0 0 1 6-5c5.074 3.805 10.407 3.972 16 .5a14148.61 14148.61 0 0 1 123-78.5Z"/><path style="opacity:1" fill="#e69fc4" d="M6.5 317.5h30c-.167 13.004 0 26.004.5 39l1 4 9.5 5.5c.752.671 1.086 1.504 1 2.5-10.82.995-21.82 1.328-33 1a54.715 54.715 0 0 0-9-4v-48ZM792.5 317.5v48c-3.013-.128-5.513.872-7.5 3-1.922-1.605-3.089-1.272-3.5 1-12.178.328-24.178-.005-36-1a439.298 439.298 0 0 0 14-6.5c1.655-1.444 2.322-3.278 2-5.5a380.934 380.934 0 0 0 1-39h30Z"/><path style="opacity:1" fill="#e7a4bc" d="M48.5 368.5a175.007 175.007 0 0 1 16 7.5c3.846 4.125 8.513 6.792 14 8a1613.704 1613.704 0 0 0 93 53.5v18a165.629 165.629 0 0 1-14-7.5c-6.204-2.789-12.537-4.622-19-5.5v-3h-6v-3h-3v-3h-6v-3h-5v-3c-2.921.354-5.254-.646-7-3-1.714 1.109-2.381.442-2-2a58.97 58.97 0 0 1-11-3v-3a27.267 27.267 0 0 0-9-3v-3c-2.908.238-5.242-.762-7-3a3.647 3.647 0 0 0-1.5 1c-1.667-1-3-2.333-4-4l-1 1a4.932 4.932 0 0 1-.5-3h-6v-3h-5v-3a544.412 544.412 0 0 1-29-14v-3a58.967 58.967 0 0 1-11-3v-3h-6v-3c-1.291.237-2.291-.096-3-1 11.18.328 22.18-.005 33-1ZM745.5 368.5c11.822.995 23.822 1.328 36 1a19.602 19.602 0 0 1-3.5 2l-1-1c-3.844 1.975-7.177 4.642-10 8l-1-1c-1.049 1.607-2.549 2.273-4.5 2v3c-3.937.204-7.604 1.204-11 3 .381 2.442-.286 3.109-2 2-.886.825-1.219 1.825-1 3h-6v3a12.93 12.93 0 0 0-5 .5c-1.079 2.043-2.746 3.376-5 4l1 1a12.93 12.93 0 0 1-5 .5v3a9.86 9.86 0 0 0-6 1c-3.423 1.192-6.256 3.192-8.5 6l-1-1c-1.049 1.607-2.549 2.273-4.5 2v3h-6v3h-5v3c-2.185.388-4.018 1.388-5.5 3-2.278-1.12-3.778-.287-4.5 2.5a101.955 101.955 0 0 0-13 5.5v3h-6v3h-6v3c-1.788-.285-3.455.048-5 1 1.129 2.029.629 2.363-1.5 1-1.712 3.452-4.212 4.452-7.5 3v3c-3.096-.593-5.429.407-7 3a47.25 47.25 0 0 1-7 3v3h-6v-20c2.345-1.831 5.012-2.998 8-3.5 2.857-2.87 6.19-4.87 10-6a1182.868 1182.868 0 0 1 67-39 3366.052 3366.052 0 0 1 33-19.5Z"/><path style="opacity:1" fill="#040404" d="M357.5 478.5c-3.534.559-7.034 1.559-10.5 3-.177 3.856-.677 7.523-1.5 11-9.55-4.48-16.383-1.813-20.5 8a340.507 340.507 0 0 1-3 13c-4.423 4.691-9.09 5.024-14 1a589.012 589.012 0 0 1-5-17c-10.041-10.038-19.041-9.038-27 3a22.394 22.394 0 0 0-2.5 8c-.968 2.107-1.302 4.441-1 7h-18v-7c2.828-16.991 12.161-28.825 28-35.5 12.516-2.708 23.183.458 32 9.5 13.295-11.812 27.628-13.145 43-4Z"/><path style="opacity:1" fill="#273339" d="M357.5 478.5a1917.16 1917.16 0 0 0 61 1.5c2.41.057 3.744 1.224 4 3.5v34a144.841 144.841 0 0 0 1 24 471.685 471.685 0 0 1 33-19v-39c-.073-1.527.594-2.527 2-3 34.504.332 68.837-.002 103-1 8.673-.166 17.34 0 26 .5a6.978 6.978 0 0 1 3.5 2.5c.5 11.662.667 23.329.5 35h4v117a32.462 32.462 0 0 1-.5 8c-1.887 1.526-2.887 3.526-3 6-.827 13.84-.661 27.506.5 41 .166 6.675 0 13.342-.5 20a9.454 9.454 0 0 1-1.5 2.5 263.418 263.418 0 0 1-39 1.5 750.264 750.264 0 0 0-67-.5 1147.103 1147.103 0 0 1-31 17c-3.25 3.637-7.25 5.97-12 7-3.492 1.624-6.492 3.958-9 7-6.761 1.869-12.761 5.202-18 10-4.924 2.739-10.257 4.572-16 5.5a90.158 90.158 0 0 1-10-2.5 103.694 103.694 0 0 1-18-10.5c-9.029-6.157-18.696-11.323-29-15.5a13.92 13.92 0 0 1-3-4c-8.36-3.016-16.027-7.349-23-13l-4-1a146.61 146.61 0 0 0-23-13.5 9011.124 9011.124 0 0 0-23-14.5c-5.064-1.012-9.397-3.345-13-7a150.824 150.824 0 0 1-18-11 57.829 57.829 0 0 1-8-2.5c-5.131-4.888-11.131-8.388-18-10.5a18.839 18.839 0 0 0-6.5-5.5l-1-43a7.293 7.293 0 0 1-2-3c-.5-7.659-.666-15.326-.5-23-.166-6.342 0-12.675.5-19l2-2c.5-13.663.667-27.329.5-41h12v40h29c-.167-13.337 0-26.671.5-40l1.5-1.5a50.464 50.464 0 0 1 10-.5h33c.958.453 1.792 1.119 2.5 2 .192 9.744.692 19.41 1.5 29-.982 3.462-1.315 7.129-1 11 4.863.319 9.53-.014 14-1a50.512 50.512 0 0 0 20 0c2.745.668 5.245 2.001 7.5 4 .176 4.188.676 8.188 1.5 12l-2 32a431.7 431.7 0 0 1-41 1v5a73.86 73.86 0 0 0 9 3.5l27 17a90.42 90.42 0 0 0 14 6 523.182 523.182 0 0 0 22 15 73.86 73.86 0 0 1 9 3.5 1737.33 1737.33 0 0 0 .5-102 30.553 30.553 0 0 0-10.5-5l7-10c.982.641 1.982 1.307 3 2 1.303-3.145 1.303-6.145 0-9a5.576 5.576 0 0 1 1-3c-6.92-1.562-13.587-1.228-20 1-1.535-1.552-3.369-2.885-5.5-4a579.093 579.093 0 0 0-1.5-33c.823-3.477 1.323-7.144 1.5-11 3.466-1.441 6.966-2.441 10.5-3Z"/><path style="opacity:1" fill="#575c5d" d="m559.5 478.5 2 1a2652.905 2652.905 0 0 1-103 1l101-2Z"/><path style="opacity:1" fill="#96bc95" d="M414.5 488.5h-60v31c-.994-10.487-1.328-21.154-1-32a931.31 931.31 0 0 1 61 1Z"/><path style="opacity:1" fill="#cbfbbf" d="M414.5 488.5v13h-60v-13h60Z"/><path style="opacity:1" fill="#f6eca8" d="M345.5 492.5a579.093 579.093 0 0 1 1.5 33c2.131 1.115 3.965 2.448 5.5 4-7.379 11.045-16.712 20.045-28 27a50.512 50.512 0 0 1-20 0 4511.123 4511.123 0 0 1-13-10 451.194 451.194 0 0 1-1.5-29c-.708-.881-1.542-1.547-2.5-2-4.47-.986-9.137-1.319-14-1v-6a22.394 22.394 0 0 1 2.5-8c7.959-12.038 16.959-13.038 27-3a589.012 589.012 0 0 0 5 17c4.91 4.024 9.577 3.691 14-1a340.507 340.507 0 0 0 3-13c4.117-9.813 10.95-12.48 20.5-8Z"/><path style="opacity:1" fill="#a9a3a0" d="m212.5 497.5 27 2c-9.672.166-19.339 0-29-.5.544-.717 1.211-1.217 2-1.5Z"/><path style="opacity:1" fill="#afa9a5" d="M422.5 483.5c.987 4.805 1.321 9.805 1 15h32c-.321-5.195.013-10.195 1-15v16h-34v-16Z"/><path style="opacity:1" fill="#010101" d="M422.5 499.5h34v18h-34v-18Z"/><path style="opacity:1" fill="#cff6bf" d="M354.5 501.5h60v21c-1.842 1.534-3.175 1.2-4-1 2.631-1.505 2.297-2.171-1-2-.333 5.333-.667 5.333-1 0h-5c-.333 5.333-.667 5.333-1 0h-5c-.333 5.333-.667 5.333-1 0h-5c-.333 5.333-.667 5.333-1 0h-5c-.333 5.333-.667 5.333-1 0-2.121-.175-4.121.159-6 1a151.198 151.198 0 0 0-24-1v-18Z"/><path style="opacity:1" fill="#9b9974" d="M273.5 508.5v6c4.863-.319 9.53.014 14 1h-15c-.302-2.559.032-4.893 1-7Z"/><path style="opacity:1" fill="#eeb0b0" d="M186.5 517.5h15a840.27 840.27 0 0 1-.5 41l-2 2c-.5 6.325-.666 12.658-.5 19h-12v-62Z"/><path style="opacity:1" fill="#fdfdfe" d="M246.5 508.5h8v7a50.464 50.464 0 0 0-10 .5l-1.5 1.5a799.793 799.793 0 0 0-.5 40h-29v-40c8.673.166 17.34 0 26-.5 4.347-1.18 6.68-4.013 7-8.5Z"/><path style="opacity:1" fill="#f9f9f9" d="M422.5 517.5h34v5a471.685 471.685 0 0 0-33 19 144.841 144.841 0 0 1-1-24Z"/><path style="opacity:1" fill="#efb1af" d="M595.5 517.5h15v87h-14c.327 10.181-.006 20.181-1 30v-117Z"/><path style="opacity:1" fill="#d2f0be" d="M414.5 522.5v22h-34c.325-7.187-.009-14.187-1-21a5.727 5.727 0 0 0-1-3c1.879-.841 3.879-1.175 6-1 .333 5.333.667 5.333 1 0h5c.333 5.333.667 5.333 1 0h5c.333 5.333.667 5.333 1 0h5c.333 5.333.667 5.333 1 0h5c.333 5.333.667 5.333 1 0 3.297-.171 3.631.495 1 2 .825 2.2 2.158 2.534 4 1Z"/><path style="opacity:1" fill="#cfecbb" d="M282.5 544.5h-32v-22h32v22Z"/><path style="opacity:1" fill="#040403" d="M371.5 531.5a45.777 45.777 0 0 1-3 7l-7 10a160.593 160.593 0 0 1-28 24c-.824-3.812-1.324-7.812-1.5-12-2.255-1.999-4.755-3.332-7.5-4 11.288-6.955 20.621-15.955 28-27 6.413-2.228 13.08-2.562 20-1a5.576 5.576 0 0 0-1 3Z"/><path style="opacity:1" fill="#cbcdce" d="M371.5 531.5c1.303 2.855 1.303 5.855 0 9a185.977 185.977 0 0 0-3-2 45.777 45.777 0 0 0 3-7Z"/><path style="opacity:1" fill="#d7eabf" d="M250.5 544.5h32v13h-32v-13ZM380.5 544.5h34v13h-34v-13Z"/><path style="opacity:1" fill="#060605" d="M291.5 546.5c4.357 3.364 8.691 6.698 13 10-4.47.986-9.137 1.319-14 1-.315-3.871.018-7.538 1-11Z"/><path style="opacity:1" fill="#d9e0bd" d="M250.5 557.5h32c-.445 2.865.222 5.365 2 7.5 13.329.5 26.663.667 40 .5v10a5996.681 5996.681 0 0 0-118 0v-10c14.004.167 28.004 0 42-.5 1.778-2.135 2.445-4.635 2-7.5Z"/><path style="opacity:1" fill="#dce3bf" d="M380.5 557.5h34v18h-34v-18Z"/><path style="opacity:1" fill="#565e5a" d="M324.5 565.5c.995 10.821 1.328 21.821 1 33h-41a400.456 400.456 0 0 1 40-1v-32Z"/><path style="opacity:1" fill="#e9afa9" d="M361.5 548.5a30.553 30.553 0 0 1 10.5 5 1737.33 1737.33 0 0 1-.5 102v-51h-40l2-32a160.593 160.593 0 0 0 28-24Z"/><path style="opacity:1" fill="#ebafaa" d="M455.5 637.5v-33h-32v53a1329.94 1329.94 0 0 1 0-103 4.457 4.457 0 0 0 2-1.5 743.79 743.79 0 0 0 30.5-17.5 1737.33 1737.33 0 0 1-.5 102Z"/><path style="opacity:1" fill="#e0dcbf" d="M324.5 575.5v16c-39.614-.104-78.948-.104-118 0v-16c39.194-.387 78.527-.387 118 0Z"/><path style="opacity:1" fill="#e0ddbf" d="M380.5 575.5h34v16h-34v-16Z"/><path style="opacity:1" fill="#e3d7be" d="M324.5 591.5v6a400.456 400.456 0 0 0-40 1c-1.306.967-1.973 2.301-2 4h-32c.02-1.643-.647-2.976-2-4a441.814 441.814 0 0 0-42-1v-6c39.052-.104 78.386-.104 118 0Z"/><path style="opacity:1" fill="#e5d5be" d="M380.5 591.5h34v18h-34v-18Z"/><path style="opacity:1" fill="#efb4a9" d="M331.5 604.5h40v51a73.86 73.86 0 0 0-9-3.5 523.182 523.182 0 0 1-22-15 90.42 90.42 0 0 1-14-6l-27-17a73.86 73.86 0 0 1-9-3.5v-5a431.7 431.7 0 0 0 41-1Z"/><path style="opacity:1" fill="#f0b5a9" d="M455.5 637.5a14.698 14.698 0 0 1-3 3.5 305.965 305.965 0 0 0-29 16.5v-53h32v33Z"/><path style="opacity:1" fill="#fbfbfb" d="M213.5 605.5h29c-.167 13.337 0 26.671.5 40 .374.916.874 1.75 1.5 2.5 14.667.667 29.333.667 44 0a9.454 9.454 0 0 0 1.5-2.5l1-23a42.319 42.319 0 0 1 8.5 6.5 420.445 420.445 0 0 0 32 17c2.365 3.714 5.698 5.714 10 6a387.056 387.056 0 0 0 23 13l-16 1-1.5 1.5a484.008 484.008 0 0 0 0 44l1.5 1.5c33.085.985 66.085.652 99-1a9.454 9.454 0 0 0 1.5-2.5 420.29 420.29 0 0 0 0-41 6.978 6.978 0 0 0-3.5-2.5l-12-1a736.57 736.57 0 0 0 22.5-12.5l1 58a6.978 6.978 0 0 0 3.5 2.5 2601.643 2601.643 0 0 0-62 35.5 97.288 97.288 0 0 0-12-5.5c-3.543-1.608-6.543-3.942-9-7-5.662-.917-10.329-3.583-14-8a78.488 78.488 0 0 1-23-13c-3.415-.406-6.082-2.072-8-5-8.372-3.019-16.038-7.352-23-13-5.093-1.382-9.426-4.049-13-8-6.4-2.062-12.067-5.396-17-10l-10-4-4-4a77.598 77.598 0 0 1-23-13 90.42 90.42 0 0 1-14-6 45.999 45.999 0 0 0-13-8l-1.5-1.5a684.346 684.346 0 0 1-.5-37Z"/><path style="opacity:1" fill="#e8d1be" d="M250.5 602.5h32v16a2106.877 2106.877 0 0 0-32 0v-16Z"/><path style="opacity:1" fill="#585859" d="M464.5 487.5v217h119v-217c.999 72.498 1.333 145.165 1 218h-121c-.333-72.835.001-145.502 1-218Z"/><path style="opacity:1" fill="#e5d5be" d="M549.5 591.5h34v18h-34v-18ZM464.5 591.5h34v18h-34v-18Z"/><path style="opacity:1" fill="#e0ddbf" d="M549.5 575.5h34v16h-34v-16ZM464.5 575.5h34v16h-34v-16Z"/><path style="opacity:1" fill="#dce3bf" d="M549.5 557.5h34v18h-34v-18ZM464.5 557.5h34v18h-34v-18Z"/><path style="opacity:1" fill="#d7eabf" d="M549.5 544.5h34v13h-34v-13ZM464.5 544.5h34v13h-34v-13Z"/><path style="opacity:1" fill="#d2f0be" d="M500.5 520.5c-.283.789-.783 1.456-1.5 2a242.43 242.43 0 0 0-.5 22h-34v-22c1.612.952 3.112 1.286 4.5 1 1.512-2.457 2.846-2.457 4 0 .691-2.391 1.691-2.391 3 0 1.512-2.457 2.846-2.457 4 0 .691-2.391 1.691-2.391 3 0 1.512-2.457 2.846-2.457 4 0 .691-2.391 1.691-2.391 3 0 1.309-2.391 2.309-2.391 3 0 .691-2.391 1.691-2.391 3 0 .908-1.939 2.408-2.939 4.5-3ZM583.5 522.5v22h-34c.325-7.187-.009-14.187-1-21a5.727 5.727 0 0 0-1-3c1.879-.841 3.879-1.175 6-1 .002 4.041 1.335 4.708 4 2a7.248 7.248 0 0 1 2.5 2c1.61.37 3.11-.297 4.5-2 1.39 1.703 2.89 2.37 4.5 2 1.079-1.894 2.413-2.227 4-1 .974-2.378 1.641-2.044 2 1 .691-2.391 1.691-2.391 3 0 1.309-2.391 2.309-2.391 3 0l1-3c.278.916.778 1.582 1.5 2Z"/><path style="opacity:1" fill="#283339" d="M547.5 520.5c.61.891.943 1.891 1 3v145c.17 1.322-.163 2.489-1 3.5a552.224 552.224 0 0 1-47 0 11.333 11.333 0 0 1-1.5-3.5c-.5-6.325-.666-12.658-.5-19v-105c-.166-7.341 0-14.674.5-22 .717-.544 1.217-1.211 1.5-2a279.409 279.409 0 0 1 47 0Z"/><path style="opacity:1" fill="#909799" d="M540.5 527.5c.999 45.83 1.332 91.83 1 138-11.845.328-23.512-.005-35-1h34v-137Z"/><path style="opacity:1" fill="#fcfcfd" d="M540.5 527.5v137h-34v-42c7.456-2.78 14.289-6.78 20.5-12l1-50 2-2c.5-10.328.666-20.661.5-31h10Z"/><path style="opacity:1" fill="#eaaeac" d="M506.5 527.5h12c.333 25.342 0 50.675-1 76-4.081.983-7.581 2.983-10.5 6a3360.51 3360.51 0 0 1-.5-82Z"/><path style="opacity:1" fill="#cff6be" d="M464.5 501.5h119v21c-.722-.418-1.222-1.084-1.5-2l-1 3c-.691-2.391-1.691-2.391-3 0-1.309-2.391-2.309-2.391-3 0-.359-3.044-1.026-3.378-2-1-1.587-1.227-2.921-.894-4 1-1.61.37-3.11-.297-4.5-2-1.39 1.703-2.89 2.37-4.5 2a7.248 7.248 0 0 0-2.5-2c-2.665 2.708-3.998 2.041-4-2-2.121-.175-4.121.159-6 1a279.409 279.409 0 0 0-47 0c-2.092.061-3.592 1.061-4.5 3-1.309-2.391-2.309-2.391-3 0-.691-2.391-1.691-2.391-3 0-1.309-2.391-2.309-2.391-3 0-1.154-2.457-2.488-2.457-4 0-1.309-2.391-2.309-2.391-3 0-1.154-2.457-2.488-2.457-4 0-1.309-2.391-2.309-2.391-3 0-1.154-2.457-2.488-2.457-4 0-1.388.286-2.888-.048-4.5-1v-21Z"/><path style="opacity:1" fill="#c8f7bc" d="M464.5 487.5h119v14h-119v-14Z"/><path style="opacity:1" fill="#e8c7bb" d="M282.5 618.5v23h-32v-23c10.487-.081 21.154-.081 32 0Z"/><path style="opacity:1" fill="#ebcdbe" d="M380.5 609.5h34v22h-34v-22ZM464.5 609.5h34v22h-34v-22Z"/><path style="opacity:1" fill="#ddc2b4" d="M548.5 523.5c.991 6.813 1.325 13.813 1 21v65h34v22h-34v18c.323 6.522-.01 12.855-1 19v-145Z"/><path style="opacity:1" fill="#f1b6a8" d="M186.5 579.5h12c-.166 7.674 0 15.341.5 23a7.293 7.293 0 0 0 2 3l1 43a18.839 18.839 0 0 1 6.5 5.5c6.869 2.112 12.869 5.612 18 10.5-3.277.284-6.443-.049-9.5-1-1.439 1.514-2.939 1.847-4.5 1-1.383 2.576-2.217 2.242-2.5-1-.691 2.391-1.691 2.391-3 0-.359 3.044-1.026 3.378-2 1-.741 1.141-1.575 1.141-2.5 0a4.457 4.457 0 0 0-1.5 2c-2-2.667-4-2.667-6 0a4.457 4.457 0 0 0-1.5-2c-1 1.333-2 1.333-3 0a6.802 6.802 0 0 0-1.5 3c-.236-1.619-1.069-2.619-2.5-3v-85Z"/><path style="opacity:1" fill="#f0b6a7" d="M610.5 604.5c.333 23.343 0 46.676-1 70-1.671 2.01-2.338 4.343-2 7-3.064 1.19-5.731 2.857-8 5h-3v3h-4c-1.161-13.494-1.327-27.16-.5-41 .113-2.474 1.113-4.474 3-6 .497-2.646.664-5.313.5-8 .994-9.819 1.327-19.819 1-30h14Z"/><path style="opacity:1" fill="#dfb9b2" d="M379.5 523.5c.991 6.813 1.325 13.813 1 21v87h34v18h-34c.324 6.854-.009 13.521-1 20v-146Z"/><path style="opacity:1" fill="#f0c5be" d="M464.5 631.5h34v18h-34v-18ZM583.5 631.5v18h-34v-18h34Z"/><path style="opacity:1" fill="#f2b8a5" d="M226.5 664.5a57.829 57.829 0 0 0 8 2.5 150.824 150.824 0 0 0 18 11c3.603 3.655 7.936 5.988 13 7a9011.124 9011.124 0 0 1 23 14.5c-2.324-.495-4.491-.495-6.5 0a19.953 19.953 0 0 1-4.5-3c-1 1.333-2 1.333-3 0a14.972 14.972 0 0 0-3.5 3 7.293 7.293 0 0 1-2-3l-1 2c-.869-3.263-2.203-3.596-4-1-1.398-.551-2.732-.884-4-1-1.261 3.32-2.928 3.654-5 1l-2 2c-.367-3.781-1.7-4.448-4-2a35.193 35.193 0 0 0-4.5-1c-1.922 1.503-3.088 3.503-3.5 6l-2-6-1 3a7.293 7.293 0 0 0-2-3c-.741 1.141-1.575 1.141-2.5 0a9.425 9.425 0 0 0-3 3c-1.561-.847-3.061-.514-4.5 1-1.044-1.123-1.71-2.456-2-4a4.934 4.934 0 0 0-.5 3h-3c-3.618-.764-6.951-2.264-10-4.5l1-1c-2.767-.678-4.934-2.178-6.5-4.5-2.537.677-4.537-.323-6-3l-1 1c-1.667-1-3-2.333-4-4-1.049 1.017-2.216 1.184-3.5.5l1-1a15.645 15.645 0 0 1-4-2.5 64.873 64.873 0 0 1-1-16c1.431.381 2.264 1.381 2.5 3a6.802 6.802 0 0 1 1.5-3c1 1.333 2 1.333 3 0a4.457 4.457 0 0 1 1.5 2c2-2.667 4-2.667 6 0a4.457 4.457 0 0 1 1.5-2c.925 1.141 1.759 1.141 2.5 0 .974 2.378 1.641 2.044 2-1 1.309 2.391 2.309 2.391 3 0 .283 3.242 1.117 3.576 2.5 1 1.561.847 3.061.514 4.5-1 3.057.951 6.223 1.284 9.5 1Z"/><path style="opacity:1" fill="#f2b9bb" d="M414.5 649.5a98.746 98.746 0 0 0 1.5 23c.671.752 1.504 1.086 2.5 1 7.148.992 14.481 1.325 22 1v3h-86v28c-.994-10.487-1.328-21.154-1-32 8.007.166 16.007 0 24-.5 1.323-.816 1.989-1.983 2-3.5.991-6.479 1.324-13.146 1-20h34Z"/><path style="opacity:1" fill="#f4bbbc" d="M464.5 649.5h34c-.166 6.342 0 12.675.5 19a11.333 11.333 0 0 0 1.5 3.5c15.667.667 31.333.667 47 0 .837-1.011 1.17-2.178 1-3.5.99-6.145 1.323-12.478 1-19h34v28h-119v-28Z"/><path style="opacity:1" fill="#c5989c" d="M418.5 673.5h23c.328 10.846-.006 21.513-1 32v-31c-7.519.325-14.852-.008-22-1Z"/><path style="opacity:1" fill="#f9b8be" d="M464.5 677.5h119v15c-1.431-.381-2.264-1.381-2.5-3-.667 4-1.333 4-2 0-.667 4-1.333 4-2 0-.667 4-1.333 4-2 0-.667 4-1.333 4-2 0-.667 4-1.333 4-2 0-.667 4-1.333 4-2 0-.667 4-1.333 4-2 0-.667 4-1.333 4-2 0-.667 4-1.333 4-2 0-.667 4-1.333 4-2 0-.667 4-1.333 4-2 0-.667 4-1.333 4-2 0-.667 4-1.333 4-2 0-.667 4-1.333 4-2 0-.667 4-1.333 4-2 0-.667 4-1.333 4-2 0-.667 4-1.333 4-2 0-.667 4-1.333 4-2 0-.667 4-1.333 4-2 0-.667 4-1.333 4-2 0-.667 4-1.333 4-2 0-.667 4-1.333 4-2 0-.667 4-1.333 4-2 0-.667 4-1.333 4-2 0-.667 4-1.333 4-2 0-.667 4-1.333 4-2 0-.667 4-1.333 4-2 0-.667 4-1.333 4-2 0-.667 4-1.333 4-2 0-.667 4-1.333 4-2 0-.667 4-1.333 4-2 0-.667 4-1.333 4-2 0-.667 4-1.333 4-2 0-.667 4-1.333 4-2 0-.667 4-1.333 4-2 0-.667 4-1.333 4-2 0-.667 4-1.333 4-2 0-.667 4-1.333 4-2 0-.667 4-1.333 4-2 0-.667 4-1.333 4-2 0-.667 4-1.333 4-2 0-.667 4-1.333 4-2 0-.667 4-1.333 4-2 0-.667 4-1.333 4-2 0-.667 4-1.333 4-2 0-.667 4-1.333 4-2 0-.667 4-1.333 4-2 0-.667 4-1.333 4-2 0-.667 4-1.333 4-2 0-.667 4-1.333 4-2 0-.667 4-1.333 4-2 0-.667 4-1.333 4-2 0-.667 4-1.333 4-2 0-.667 4-1.333 4-2 0-.667 4-1.333 4-2 0-.667 4-1.333 4-2 0-.667 4-1.333 4-2 0-.236 1.619-1.069 2.619-2.5 3v-15Z"/><path style="opacity:1" fill="#f3baa5" d="M599.5 686.5c1.333.667 1.333.667 0 0Z"/><path style="opacity:1" fill="#fcb5bd" d="M583.5 692.5v12h-119v-12c1.431-.381 2.264-1.381 2.5-3 .667 4 1.333 4 2 0 .667 4 1.333 4 2 0 .667 4 1.333 4 2 0 .667 4 1.333 4 2 0 .667 4 1.333 4 2 0 .667 4 1.333 4 2 0 .667 4 1.333 4 2 0 .667 4 1.333 4 2 0 .667 4 1.333 4 2 0 .667 4 1.333 4 2 0 .667 4 1.333 4 2 0 .667 4 1.333 4 2 0 .667 4 1.333 4 2 0 .667 4 1.333 4 2 0 .667 4 1.333 4 2 0 .667 4 1.333 4 2 0 .667 4 1.333 4 2 0 .667 4 1.333 4 2 0 .667 4 1.333 4 2 0 .667 4 1.333 4 2 0 .667 4 1.333 4 2 0 .667 4 1.333 4 2 0 .667 4 1.333 4 2 0 .667 4 1.333 4 2 0 .667 4 1.333 4 2 0 .667 4 1.333 4 2 0 .667 4 1.333 4 2 0 .667 4 1.333 4 2 0 .667 4 1.333 4 2 0 .667 4 1.333 4 2 0 .667 4 1.333 4 2 0 .667 4 1.333 4 2 0 .667 4 1.333 4 2 0 .667 4 1.333 4 2 0 .667 4 1.333 4 2 0 .667 4 1.333 4 2 0 .667 4 1.333 4 2 0 .667 4 1.333 4 2 0 .667 4 1.333 4 2 0 .667 4 1.333 4 2 0 .667 4 1.333 4 2 0 .667 4 1.333 4 2 0 .667 4 1.333 4 2 0 .667 4 1.333 4 2 0 .667 4 1.333 4 2 0 .667 4 1.333 4 2 0 .667 4 1.333 4 2 0 .667 4 1.333 4 2 0 .667 4 1.333 4 2 0 .667 4 1.333 4 2 0 .667 4 1.333 4 2 0 .667 4 1.333 4 2 0 .667 4 1.333 4 2 0 .667 4 1.333 4 2 0 .667 4 1.333 4 2 0 .667 4 1.333 4 2 0 .667 4 1.333 4 2 0 .236 1.619 1.069 2.619 2.5 3Z"/><path style="opacity:1" fill="#fcb5be" d="M440.5 677.5v28h-86v-28h86Z"/><path style="opacity:1" fill="#f3bba2" d="M288.5 699.5a146.61 146.61 0 0 1 23 13.5l4 1c6.973 5.651 14.64 9.984 23 13a13.92 13.92 0 0 0 3 4c10.304 4.177 19.971 9.343 29 15.5-7.674.166-15.341 0-23-.5v-4c-.655-1.487-1.655-2.653-3-3.5-4.526.946-9.192.946-14 0-1.041 2.491-1.874 2.491-2.5 0a57.56 57.56 0 0 0-3 8 76.537 76.537 0 0 1-4-9c-.691 2.391-1.691 2.391-3 0-1.333 2.667-2.667 2.667-4 0l-2 4c-.29-1.544-.956-2.877-2-4l-4 4c-.667-4-1.333-4-2 0a7.293 7.293 0 0 0-2-3c-1.333-1.333-2.667-1.333-4 0-2.301 1.176-2.634 2.51-1 4l2-2a14.506 14.506 0 0 0 4 5l1-1c.692.937.525 1.603-.5 2-8.654-3.265-16.321-6.932-23-11v-3h-6v-3h-5v-3a8.43 8.43 0 0 1-4-.5c-4.85-3.699-10.184-6.199-16-7.5v-3h-6v-3c-2.092-.061-3.592-1.061-4.5-3-1.299.466-2.799.466-4.5 0v-3c-1.788.285-3.455-.048-5-1-2.716-2.688-5.716-4.688-9-6h3a4.934 4.934 0 0 1 .5-3c.29 1.544.956 2.877 2 4 1.439-1.514 2.939-1.847 4.5-1a9.425 9.425 0 0 1 3-3c.925 1.141 1.759 1.141 2.5 0a7.293 7.293 0 0 1 2 3l1-3 2 6c.412-2.497 1.578-4.497 3.5-6 1.467.223 2.967.556 4.5 1 2.3-2.448 3.633-1.781 4 2l2-2c2.072 2.654 3.739 2.32 5-1 1.268.116 2.602.449 4 1 1.797-2.596 3.131-2.263 4 1l1-2a7.293 7.293 0 0 0 2 3 14.972 14.972 0 0 1 3.5-3c1 1.333 2 1.333 3 0a19.953 19.953 0 0 0 4.5 3c2.009-.495 4.176-.495 6.5 0Z"/><path style="opacity:1" fill="#f4bca1" d="M551.5 713.5a22.296 22.296 0 0 1-5 3.5l1 1a118.288 118.288 0 0 0-17 7.5 10.756 10.756 0 0 0-2.5 3l-1-1c-1.049 1.607-2.549 2.273-4.5 2v3h-6v3h-5v3c-2.524-.071-4.524.929-6 3-2.12-1.372-3.12-.705-3 2a12.93 12.93 0 0 0-5 .5 101.657 101.657 0 0 0-10 7.5 9.108 9.108 0 0 1-5 1v3c-2.51-.446-4.51.22-6 2-2.216.703-4.049 2.036-5.5 4-1.813-1.109-2.646-.442-2.5 2a12.93 12.93 0 0 0-5 .5c-1.497 1.871-3.497 2.871-6 3-1.307 2.324-3.307 3.657-6 4l2 1a12.93 12.93 0 0 1-5 .5v3a9.86 9.86 0 0 0-6 1 35.217 35.217 0 0 1-8 4v3h-6v3h-6v3a8.43 8.43 0 0 0-4 .5l-5 5c-1.284.684-2.451.517-3.5-.5-1.263 2.968-3.263 3.968-6 3a2.428 2.428 0 0 0-.5 2h-12c-.507-1.359-1.507-2.359-3-3a137.913 137.913 0 0 0-11-4v-3c-2.133-1.386-5.133-2.386-9-3v-3h-5v-3c-3.005.247-5.505-.753-7.5-3l-1 1a4.934 4.934 0 0 1-.5-3h-6v-3h-5v-3h-6v-3c-5.922-1.727-11.089-4.727-15.5-9-.718.951-1.551 1.117-2.5.5 1.333-.667 1.333-1.333 0-2a12.93 12.93 0 0 0-5-.5v-3a58.97 58.97 0 0 1-11-3v-3c1.025-.397 1.192-1.063.5-2l-1 1a14.506 14.506 0 0 1-4-5l-2 2c-1.634-1.49-1.301-2.824 1-4 1.333-1.333 2.667-1.333 4 0a7.293 7.293 0 0 1 2 3c.667-4 1.333-4 2 0l4-4c1.044 1.123 1.71 2.456 2 4l2-4c1.333 2.667 2.667 2.667 4 0 1.309 2.391 2.309 2.391 3 0a76.537 76.537 0 0 0 4 9 57.56 57.56 0 0 1 3-8c.626 2.491 1.459 2.491 2.5 0 4.808.946 9.474.946 14 0 1.345.847 2.345 2.013 3 3.5v4c7.659.5 15.326.666 23 .5a103.694 103.694 0 0 0 18 10.5 90.158 90.158 0 0 0 10 2.5c5.743-.928 11.076-2.761 16-5.5 5.239-4.798 11.239-8.131 18-10 2.508-3.042 5.508-5.376 9-7 4.75-1.03 8.75-3.363 12-7a1147.103 1147.103 0 0 0 31-17 750.264 750.264 0 0 1 67 .5Z"/><path style="opacity:1" fill="#f5bea0" d="M476.5 757.5c1.333.667 1.333.667 0 0Z"/></svg>