<svg xmlns="http://www.w3.org/2000/svg" viewBox="0 0 1235 1935.674"><path d="M569.41 1065.1c1.61 1.81.69 3.83.2 5.7-3.74 14.1-4.07 14.17-14.18 4.26-5.27-5.17-10.66-10.22-16.22-15.54 4.39-2.91 8.39-7.21 13.58-5.91 6.7 1.68 12.01 6.31 16.62 11.49zM481.19 1115.4c.13 2.92-1.07 4.79-4.31 4.79-3.26.01-4.3-1.95-4.4-4.94.46-2.52.79-5.47 4.4-5.43 3.53.04 4.17 2.77 4.31 5.58z" fill="#fff"/><path d="M403.61 750.59v.1c-.07.41-.2.76-.4 1.04.2-.28.33-.63.39-1.04 0-.03 0-.07.01-.1zM403.56 750.14z" fill="#FCC429"/><path d="M386.14 1066.3c1.34-2.42 3.6-.96 5.44-1.32-1.65 1.14-3.55 1.2-5.44 1.32z" fill="#FCD84A"/><path d="M348.1 1098.2c2.02 6.69 2.47 13.39.15 20.09-.42 1.23-.9 2.77-2.64 2.44-1.33-.26-1.58-1.62-1.72-2.77-.36-2.97-.64-5.94-.96-9.03.38-3.39.73-6.86 1.19-10.32.16-1.15.55-2.42 2.04-2.38 1.12.03 1.64.96 1.94 1.97zM313.9 963.43c.16 2.88-.85 4.95-4.08 5.05-3.1.09-4.54-1.59-4.55-5.02.17-2.39.68-5.28 4.09-5.42 3.35-.14 4.38 2.48 4.54 5.39z" fill="#fff"/><path d="M202.2 1927.4c12.14-1.19 24.31-.27 36.47-.43-2.99 1.17-6.12.95-9.21.88-.47.32-.97.63-1.46.95h-2c-.67-.87-1.33-.87-2 0h-4c-.33-.46-.67-.45-1 0h-7c-1.83-1.56-4.08-.75-6.13-1.07l-3.67-.33z" fill="#FCD84A"/><path d="M233.99 827.67c.46.81 1.38 1.72.17 2.54-.9.61-1.76 1.45-3.12 1.08-3.19-.89-8.28-8-7.99-11.28.13-1.55 1.02-2.35 2.4-2.73 1.74.34 3.19 1.08 4.09 2.62 1.51 2.57 2.98 5.17 4.45 7.77z" fill="#fff"/><path d="M231 1928.8h-3c.49-.32.99-.63 1.46-.95.5.32 1.02.63 1.54.95zM226 1928.8h-2c.67-.87 1.33-.87 2 0zM220 1928.8h-1c.33-.45.67-.46 1 0z" fill="#FCC429"/><path d="M205.41 800.19c12.49-.66 10.29-1.94 10.22 11.82-3.75-4.33-6.74-7.8-10.22-11.82z" fill="#fff"/><path d="M212 1928.8h-8.56c.88-.11 1.69-.47 2.43-1.07 2.05.32 4.3-.49 6.13 1.07zM202 1928.8h1.44c-.46.07-.94.07-1.44 0z" fill="#FCC429"/><path d="M1154.2 898.91c-3.66-.09-6.58.71-9.51 3.22-31.21 26.72-65.79 47.68-105.21 59.92-29.87 9.28-60.7 13.86-91.69 17.31-40.66 4.52-81.45 6-122.27 3.15-51.04-3.55-101.08-13.13-150.04-27.88-56.78-17.1-110.2-41.5-158.75-75.87-23.34-16.52-44.41-35.62-63.54-56.9-14.98-16.67-28.04-34.66-38.81-54.32-1.73-3.61-3.46-7.22-5.19-10.84.04-1.01-.26-1.88-1.13-2.5-.16-2.23-2.19-3.78-2.64-5.59-2.73-10.97-6.89-21.5-9.41-32.55-6.11-26.74-5.78-53.88-6.21-81.05-.12-8.2 2.79-13.18 9.02-17.24.56-.36 1.11-.73 1.65-1.13 19.92-14.64 64.38-12.55 80.35 23.83a293.736 293.736 0 0 1 18.96 59.91c.63 3.08.37 6.89 2.13 9.06 1.95 2.41 5.95.68 9.04.86 2.7.16 3.13 1 1.92 3.34-1.67 3.26-3.18 6.6-4 10.21-1.32 5.87-.85 6.29 5.1 5.82 12.6-.99 23.37-6.36 33.7-13.24 12.03-8 25.56-10.78 40.55-10.41-1.05 2.67-1.72 4.9-2.79 6.92-1.42 2.68-1.12 4.16 2.1 4.92 6.03 1.44 8.92 5.94 10.56 11.52 2.39 8.09 2.74 8.48 10.62 5.01 7.12-3.13 14.2-5.4 22.13-4.65 4.46.42 8.99.04 13.49.09 12.83.14 24.15 4 33.57 13.09 8.81 8.49 19.71 11.45 31.7 10.8 3.71-.2 7.24-1.23 10.14-3.74 3.41-2.97 6.99-5.72 11.06-7.67 2.85-1.37 2.08-2.77.67-4.54-2.62-3.26-5.47-6.26-8.86-8.75-7.49-5.47-16.09-7.82-25.07-9.24-11.72-1.86-21.97-6.58-29.69-15.92-.87-1.06-2.67-2.13-1.72-3.73.71-1.21 2.44-.57 3.72-.58 14.19-.05 27.72 3.25 40.97 8.03 14.48 5.21 27.68 12.32 37.5 24.63.72.91.95 2.49 3 2.45v-32.51c0-1.16.16-2.63-1.38-2.81-7.01-.8-11.31-6.11-16.47-9.89-26.5-19.4-51.99-40.07-76.92-61.45-26.82-22.98-51.7-48.16-79.41-70.14-24.86-19.7-50.75-37.87-78.45-53.31-4.14-2.31-8.21-6.8-14.4-4.32 39.49 39.62 83.33 74.05 123.36 113.87-7.49.93-13.99.14-20.5-.81-20.08-2.93-35.88-14.87-52.15-25.44-16.77-10.88-32.56-23.26-49.09-34.52-32.34-22.02-67.96-32.44-107.25-29.54-26.84 1.99-50.12 11.53-68.74 31.39-11.68 12.47-19.55 27.4-26.96 42.54-7.99 16.31-14.4 33.32-21.03 50.22-2.8 7.13-8.16 8.54-13.99 3.7-14.09-11.68-20.57-27.94-27.3-44.27-9.19-22.26-12.59-45.86-17.37-69.15-5.41-26.39-8.5-53.21-14.25-79.54-1.23-5.63-3.14-11.2-3.61-16.88-.91-11.06-1.99-21.99-6.55-32.25-.71-1.6-.72-3.19-.91-4.82-3.14-26.87-2.27-53.92-3.59-80.87-2.64-53.77 2.02-107.22 11.19-160.25 7.89-45.64 17.57-90.92 29.07-135.79 1.46-5.68 1.53-11.3 1.14-18.15-1.27 1.87-1.96 2.75-2.5 3.7-14.04 24.7-25.61 50.5-34.26 77.56-17.08 53.47-24.42 108.75-30.17 164.3-.43 4.14-.68 8.3-1.04 12.45-.35 3.97-.73 7.94-1.23 13.23-.99-2.17-1.44-3.03-1.79-3.93-6.66-16.98-11.01-34.56-13.79-52.56-4.07-26.32-3.22-52.85-3.28-79.33-.04-16.05-.01-32.1-.01-47.65-.5.39-.57 1.78-.94 3.02-4.27 14.21-7.81 28.6-10.82 43.12-8.07 39.01-10.17 78.6-11.13 118.27-.32 13.11-1.88 26.28.69 39.38 3.76 19.28 7.42 38.57 11.07 57.87 1.88 9.96.85 19.94.44 29.99-3.48-3.21-5.72-6.84-7.55-10.86-6.36-14.03-14.94-27.19-15.81-43.3-.24-4.24-2.6-8.01-6.93-10.87-1.22 7.87-2.55 15.06-2.48 22.36.26 26.52 4.59 52.36 13.99 77.19 8.65 22.84 15.91 45.97 18.17 70.42.85 9.17 1.77 18.36.83 28.73-12.69-12.33-24.6-23.9-37.05-36-1.31 9.63 1.11 17.56 4.25 25.3 9.83 24.24 23.51 46.3 38.57 67.55 3.92 5.53 7.83 11.07 12.12 17.14-3.97.82-6.88.54-9.63-1.43-5.82-4.19-11.67-8.31-17.53-12.44-4.9-3.46-9.76-6.96-14.75-10.3-3.77-2.52-8.71-2.48-11.93-.77-2.45 1.3 1.2 5.32 1.85 8.2.37 1.61 1.16 3.12 1.77 4.67 12.02 30.19 26.09 59.17 49.31 82.69 2.27 2.3 4.46 4.67 7.22 7.56-5.25.54-9.57.89-13.78-.03-16.92-3.69-33.86-7.36-50.68-11.48-4.16-1.02-4.05.65-3.95 3.51.06 1.51.6 2.48 1.98 3.14 1.65.78 3.24 1.7 4.83 2.61 26.63 15.25 53.04 31.08 84.82 33.14 1.79.11 2.03 1.12 2.22 2.62 1.63 12.73-3.34 22.82-14.59 29.41-5.99 3.51-5.93 3.5-.39 8.04 1.8 1.48 3.7 1.3 5.65 1.3 13.67.02 27.34.2 41-.1 4.52-.1 7.21.91 8.11 5.65.46 2.44 1.9 4.73 3.75 6.41 7.59 6.91 7.14 20.97-.93 29.34-9.66 10.02-21.22 14.93-35.17 12.5-8.34-1.45-16.81-2.49-24.81-5.53-2.64-1-4.72-.2-6.59 1.95 1.92 1.6 3.59 3.11 5.86 3.68l-.02-.02c.07-.01.13-.02.2-.02.01.03.01.06.01.09-.06-.01-.13-.03-.19-.05 1.42 1.73 3.25 2.91 5.31 3.75 4.86 4.45 10.94 7.13 16.13 11.85h-26.34c1.31 2 2.79 3 4.24 4.04 10.82 7.7 23.4 11.94 35.11 17.89 21.19 10.75 32.31 29.45 39.8 50.9 1.89 5.4 4.16 10.45 8.03 14.79.61-6.51.46-12.8.67-19.07.11-3.04-1.65-7.49.98-8.78 2.61-1.28 6.1 1.68 9 3.26 10.84 5.88 15.48 16.48 20.11 26.93 5.52 12.47 8.45 25.92 14.08 38.38 3.88 8.57 7.97 17.09 15.85 22.61 4.05 2.84 3.57 4.76 1.15 8.2a861.521 861.521 0 0 0-18.98 28.17c-6.34 9.83-9.84 20.52-8.56 33.73l18.53-27.7c1.4 8.29.47 15.78-2.56 22.96-2.54 6.01-4.53 12.16-5.1 18.71-.18 2.02-.47 3.9 2.6 4.28 6.34.78 11.12 4.54 14.8 9.39 2.43 3.2 3.52 2.32 5.26-.34 5.8-8.87 9.87-18.46 12.51-28.71 3.99-15.43 12.88-22.1 28.9-21.89 2.83.03 5.31.59 6.61 3.48 1.27 2.84-.91 4.29-2.43 5.96-5.64 6.23-9.07 13.26-9.65 21.86-1.18 17.49-.48 34.98-.71 52.46-.07 5.83-.12 11.66.91 17.44 1.64 9.21 5.15 17.42 12.19 23.99 2.04-2.17 2.44-4.72 3.47-6.96.94-2.02 1.87-2.13 3.08-.3 1.59 2.41 3.16 4.82 4.97 7.6 2.54-3.21 4.03-6.15 5.25-9.24 1.77-4.49 3.39-9.04 5.29-13.47.6-1.39 1.02-3.7 2.97-3.48 1.47.17 1.6 2.31 2.09 3.65 4.66 12.84 9.25 25.69 13.89 38.53 1.5 4.12 4.12 7.22 8.42 9.19.49-10.13-.05-19.77-.83-29.4-.75-9.32-3.09-18.36-5.21-27.45-3.23-13.82-5.5-27.76-4.42-42.04 1.34-2.42 3.6-.96 5.44-1.32 2.71-.67 5.42-1.36 8.14-2.02 1.62-.39 3.27-.9 4.84.13 6.53 4.31 12.31 9.41 16.4 16.17 7.85 12.98 10.09 27.76 13.12 42.21 2.84 13.53 5.09 27.16 10.82 39.92 4.1 9.14 10.69 14.56 20.83 15.64 3.41.36 4.79-.4 4.8-4.07.02-6.02.55-12.18 3.43-17.52 4.88-9.08 8.13-18.58 9.31-28.8.28-2.42 1.22-2.93 3.11-1.18 2.2 2.03 4.49 3.98 6.69 6.02 36.94 34.24 70.78 71.16 99.76 112.55 22.81 32.58 39.96 67.52 49.45 106.2 11.03 45 13.01 90.57 8.78 136.52-5.56 60.37-23.79 116.67-55.51 168.36-26.45 43.09-58.71 81.62-94.86 116.86-41.77 40.73-88.12 75.39-138.96 104.06-27.77 15.65-57.24 23.24-89.33 22.66-45.82-.82-91.66-.23-137.49-.23-1.36 0-2.8-.26-4.34.81 14.38 9.24 29.5 16.06 45.26 21.49 8.59 2.96 17.24 5.83 26.37 6.72 12.14-1.19 24.31-.27 36.47-.43 1.32.03 2.65.16 3.96.06 32.46-2.37 63.84-9.56 94.1-21.5 26.32-10.38 51.61-22.97 76.13-37.08 20.06-11.55 39.84-23.71 57.79-38.28 25.56-20.76 49.38-43.52 72.22-67.26 32.01-33.28 61.29-68.8 88.26-106.29 29.43-40.92 52.3-84.98 65.96-133.65 11.66-41.53 16.64-83.88 16.24-126.95-.39-40.2-7.4-79.13-21.37-116.86-11.68-31.55-29.65-59.69-47.42-87.89-20.81-33.03-44.43-64.03-69.58-93.87-1.13-1.35-2.74-2.43-2.97-4.53 5.04-2.42 10.91-2.52 15.45-6.52 2.7-2.37 7.73-.22 9.29 3.23 3.57 7.89 6.99 15.84 10.52 23.75 2.79 6.24 8.96 6.87 13.01 1.27 1.05-1.46 1.59-3.28 2.4-4.91 2.22-4.5 6.8-7.1 10.95-5.86 4.14 1.24 8.3 2.55 12.2 4.37 11.62 5.42 23.11 11.12 34.67 16.68 15.9 7.66 31.92 15.05 47.67 23.01 8.14 4.11 16.37 6.18 26.39 4.87-2.91-1.59-1.94-5.44-4.39-5.94-8.5-1.74-14.31-8.22-21.86-11.71-12.46-5.77-25.09-11.45-35.69-20.72-9.17-8.02-18.21-16.11-26.22-25.31-1.47-1.69-2.61-3.69-1.71-5.93 1.03-2.57 3.48-1.34 5.27-1.3 24.72.53 48.59 5.61 71.76 14.04 15.37 5.6 30.96 10.24 47.13 12.97 27.15 4.59 54.51 2.85 81.81 3.06.8.01 1.77.2 2.46-.79-15.71-4.15-31.36-8.15-46.93-12.42-23.75-6.52-47.88-11.78-70.62-21.66-12.52-5.43-24.64-11.69-36.76-17.89-3.17-1.63-6.87-3.69-9.13-8.21 7.92 1.08 14.47 3.9 21.15 6.22 13.4 4.64 26.09 10.98 39.22 16.27 13.75 5.54 28.07 8.38 42.93 8.09 3.61-.07 8.41.59 10.23-2.64 2.73-4.82 6.63-3.94 10.56-4.18 39.4-2.4 78.91-3.5 117.96-9.96 13.09-2.16 26.11-4.71 38.88-8.79-51.5-.96-102.42-6.43-152.76-17.4 1.58-.88 3.14-1.2 4.71-1.36 29.01-2.85 58.03-5.66 87.04-8.53 6.87-.68 14.07-.31 19.65-5.67.79-.75 2.08-1.03 3.19-1.36 12.45-3.68 24.93-7.28 37.37-10.99 13.7-4.09 27.74-7.25 40.31-14.52 28.28-16.32 56.46-32.84 83.22-51.59 13.49-9.45 27.12-18.83 37.93-31.54 2.62-3.08 4.63-6.52 5.75-10.43.71-2.48.04-3.63-2.82-3.7zM680.49 663.36c1.76.11 6.72-.75 6.03 1.28 3.69 5.41-.493 9.651-6.99 6.71-2.1-.95-7.34-2.31-7.26-4.64.08-2.76 5.93-3.48 8.22-3.35zM215.65 812.01c-3.75-4.33-6.74-7.8-10.22-11.82 12.49-.66 10.29-1.94 10.22 11.82zm18.53 18.2c-.9.61-1.76 1.45-3.12 1.08-3.19-.89-8.28-8-7.99-11.28.13-1.55 1.02-2.35 2.4-2.73 1.74.34 3.19 1.08 4.09 2.62 1.51 2.57 2.98 5.17 4.45 7.77.46.81 1.38 1.72.17 2.54zm75.66 138.27c-3.1.09-4.54-1.59-4.55-5.02.17-2.39.68-5.28 4.09-5.42 3.35-.14 4.38 2.48 4.54 5.39.16 2.88-.85 4.95-4.08 5.05zm38.43 149.82c-.42 1.23-.9 2.77-2.64 2.44-1.33-.26-1.58-1.62-1.72-2.77-.36-2.97-.64-5.94-.96-9.03.38-3.39.73-6.86 1.19-10.32.16-1.15.55-2.42 2.04-2.38 1.12.03 1.64.96 1.94 1.97 2.02 6.69 2.47 13.39.15 20.09zm128.63 1.85c-3.26.01-4.3-1.95-4.4-4.94.46-2.52.79-5.47 4.4-5.43 3.53.04 4.17 2.77 4.31 5.58.13 2.92-1.07 4.79-4.31 4.79zm92.73-49.34c-3.74 14.1-4.07 14.17-14.18 4.26-5.27-5.17-10.66-10.22-16.22-15.54 4.39-2.91 8.39-7.21 13.58-5.91 6.7 1.68 12.01 6.31 16.62 11.49 1.61 1.81.69 3.83.2 5.7z"/><path d="M148.91 801.05c.01.03.01.06.01.09l-.21-.07c.07-.01.13-.02.2-.02zM148.92 801.14c-.06-.01-.13-.03-.19-.05l-.02-.02.21.07z" fill="#FCD84A"/></svg>