<?xml version="1.0" standalone="no"?>
<!DOCTYPE svg PUBLIC "-//W3C//DTD SVG 20010904//EN"
 "http://www.w3.org/TR/2001/REC-SVG-20010904/DTD/svg10.dtd">
<svg version="1.0" xmlns="http://www.w3.org/2000/svg"
 width="100.000000pt" height="100.000000pt" viewBox="0 0 100.000000 100.000000"
 preserveAspectRatio="xMidYMid meet">

<g transform="translate(0.000000,100.000000) scale(0.100000,-0.100000)"
fill="#000000" stroke="none">
<path d="M360 971 c-119 -38 -216 -112 -279 -210 -160 -248 -61 -588 208 -718
71 -35 84 -38 185 -41 132 -5 210 13 294 68 152 98 232 245 232 426 0 221
-139 409 -349 474 -81 26 -214 26 -291 1z m340 -213 c75 -38 84 -66 88 -253 3
-151 2 -163 -20 -204 -43 -83 -53 -86 -263 -86 -170 0 -186 2 -211 21 -65 48
-69 61 -72 237 -4 176 3 220 42 256 43 40 91 50 246 51 132 0 150 -2 190 -22z"/>
<path d="M330 713 c-53 -28 -60 -50 -60 -214 0 -171 9 -205 56 -225 44 -19
318 -19 354 -1 47 23 60 69 60 212 0 232 -6 239 -225 243 -129 2 -155 0 -185
-15z m354 -55 c8 -14 7 -21 -5 -33 -28 -29 -73 11 -48 42 15 17 38 13 53 -9z
m-96 -46 c41 -30 66 -85 59 -134 -11 -78 -68 -128 -150 -128 -42 0 -53 5 -89
38 -36 34 -42 45 -45 93 -4 45 -1 60 19 89 47 70 140 89 206 42z"/>
<path d="M439 561 c-62 -62 -23 -161 63 -161 99 0 134 131 47 176 -43 22 -77
17 -110 -15z"/>
</g>
</svg>
