<svg version="1.0" xmlns="http://www.w3.org/2000/svg" width="1600" height="1600" viewBox="0 0 1200 1200"><path d="M496 129.1c-184.9 3-313.7 11.6-357.4 23.9-25.8 7.3-47.5 20-66 38.7-16.5 16.7-28 35.3-35 56.4C6.8 340.4.4 722.7 26.6 901.5c4.5 30.8 10.4 52.6 18.6 68.9 14.2 28.4 38.1 52.2 66.3 66.3 24.5 12.3 53 17.7 127 23.7 26.5 2.2 37.8 3 76 5.1 81.7 4.6 268.5 7.4 375 5.6 187.2-3.2 311.4-10.7 361.5-21.7 31.9-7.1 53.2-18.5 75.1-40.3 12.8-12.8 17.3-18.5 24.8-31.7 12.3-21.4 19-46.7 25-94.9 9.8-78.2 15.5-221.8 13.2-333.5-3.5-169.1-12.9-266.6-29.8-309-15.8-39.4-50.5-71.7-91-84.9-35.1-11.4-120.6-18.9-268.3-23.6-102.3-3.3-204.8-4.1-304-2.4zm22.5 289c5.4 1.4 272.3 155.2 278.4 160.5 12.6 10.9 12.5 32-.2 43-6.8 5.8-273.1 159.1-278.9 160.4-12.9 3.2-26.3-3.4-32.9-16l-2.4-4.5v-323l2.3-4.5c6.8-13 20.1-19.3 33.7-15.9z"/></svg>