<?xml version="1.0" encoding="UTF-8"?><svg xmlns="http://www.w3.org/2000/svg" width="800" height="800" style="shape-rendering:geometricPrecision;text-rendering:geometricPrecision;image-rendering:optimizeQuality;fill-rule:evenodd;clip-rule:evenodd"><path style="opacity:1" fill="#c4f6f8" d="M576.5-.5h9a2.429 2.429 0 0 0 .5 2c1.049-1.017 2.216-1.184 3.5-.5a20.495 20.495 0 0 0 2.5 3.5c1.356-.88 2.856-1.214 4.5-1v3c2.822 1.432 6.489 2.432 11 3v3c2.092.061 3.592 1.061 4.5 3 2.537-.677 4.537.323 6 3 2.361-.566 4.194.434 5.5 3l2-1c.35 2.067 2.017 3.067 5 3v3h6v3h5v3h6v3a27.247 27.247 0 0 0 9 3c-.219 1.175.114 2.175 1 3a6.846 6.846 0 0 1 4-1v3a8.435 8.435 0 0 1 4 .5c-1.154.914-.987 1.747.5 2.5 1.299-.466 2.799-.466 4.5 0v3h6v3h5v3a428.986 428.986 0 0 0 20 8.5l-2 1c2.522.61 4.522 1.943 6 4 1.634.493 3.301.66 5 .5v3c2.908-.238 5.242.762 7 3 .951-.826 1.951-.992 3-.5l-1 1a6.977 6.977 0 0 1 3.5 2.5l1-1c.483.948.649 1.948.5 3h6v3h5v3c1.951-.273 3.451.393 4.5 2l1-1c6 4.386 12.5 7.886 19.5 10.5l-1 1c1.525 1.009 3.192 1.509 5 1.5v3h6v3h5v3c2.041.354 3.874.354 5.5 0 .483.948.649 1.948.5 3 2.836 1.276 5.836 1.942 9 2a7971.884 7971.884 0 0 1 2 251c-3.013-.128-5.513.872-7.5 3-2.411-1.653-3.578-.987-3.5 2-1.701.466-3.201.466-4.5 0-3.844 1.975-7.177 4.642-10 8l-1-1c-1.049 1.607-2.549 2.273-4.5 2v3c-3.937.204-7.604 1.204-11 3 .381 2.442-.286 3.109-2 2-.886.825-1.219 1.825-1 3h-6v3a12.93 12.93 0 0 0-5 .5c-1.079 2.043-2.746 3.376-5 4l1 1a12.93 12.93 0 0 1-5 .5v3a9.86 9.86 0 0 0-6 1c-3.423 1.192-6.256 3.192-8.5 6l-1-1c-1.049 1.607-2.549 2.273-4.5 2v3h-6v3h-5v3c-2.185.388-4.018 1.388-5.5 3-2.278-1.12-3.778-.287-4.5 2.5a101.955 101.955 0 0 0-13 5.5v3h-6v3h-6v3c-1.788-.285-3.455.048-5 1 1.129 2.029.629 2.363-1.5 1-1.712 3.452-4.212 4.452-7.5 3v3c-3.096-.593-5.429.407-7 3a47.25 47.25 0 0 1-7 3v3h-6v3c-1.788-.285-3.455.048-5 1-4.81 2.484-9.143 4.817-13 7-.991-6.479-1.324-13.146-1-20a1523.194 1523.194 0 0 0 78-45.5 112.343 112.343 0 0 1 17-8l5-5a377.475 377.475 0 0 0 23-12l8-6a190.921 190.921 0 0 0 21.5-10.5c.667-76 .667-152 0-228a36.078 36.078 0 0 0-3.5-4.5c-3.29-.253-6.29-1.253-9-3a29746.604 29746.604 0 0 1-46-28 457.332 457.332 0 0 0-22-11l-4-4a161.879 161.879 0 0 1-33-19c-6.4-2.062-12.067-5.396-17-10a1126.1 1126.1 0 0 0-31-16c-2.365-3.714-5.698-5.714-10-6-7.082-6.364-15.416-9.031-25-8a12271.425 12271.425 0 0 1-129 74c-7.588 4.924-7.921 10.257-1 16a287.246 287.246 0 0 1 25 16 496.946 496.946 0 0 1 33 18c4.333.667 8.667.667 13 0a3162.857 3162.857 0 0 1 66-36.5 4261.045 4261.045 0 0 0 114 65.5c.826 17.093 1.326 34.26 1.5 51.5l2 2c.5 28.331.667 56.665.5 85a12.93 12.93 0 0 0-5 .5 679.07 679.07 0 0 0-23 15l-4 1a1288.893 1288.893 0 0 1-43 24.5l-2-146c-1.784-15.116-10.117-24.116-25-27a1296.178 1296.178 0 0 0-72-1 713.94 713.94 0 0 0-50-28.5l-4-4a77.598 77.598 0 0 1-23-13 312.387 312.387 0 0 0-27-14c-1.918-2.928-4.585-4.594-8-5a10892.14 10892.14 0 0 0-27-17 326.577 326.577 0 0 1-27-14c-3.83-4.162-8.497-6.83-14-8a2084.03 2084.03 0 0 0-77-44c-9.098-8.801-19.765-11.801-32-9a583.354 583.354 0 0 0-33 19 175.013 175.013 0 0 0-28 16l-4 1-23 15a336.071 336.071 0 0 0-40 23c-5.503 1.171-10.17 3.837-14 8A579.672 579.672 0 0 0 38 129.5 3410.247 3410.247 0 0 0 36.5 245c-.152 38.537.348 77.037 1.5 115.5l9.5 5.5c1.374 3.683 4.04 5.349 8 5a13376.247 13376.247 0 0 0 116 67c4.091 1.227 7.591.394 10.5-2.5.101-3.2.768-6.2 2-9 .667-23.333.667-46.667 0-70a20.231 20.231 0 0 0-7.5-7.5 82.15 82.15 0 0 1-22-13c-3.993-.322-7.326-1.988-10-5-3.415-.406-6.082-2.072-8-5l-10-4c-4.032-3.676-8.699-6.176-14-7.5-.167-45.335 0-90.668.5-136 6.664-3.313 12.831-7.48 18.5-12.5 6.799-1.87 12.799-5.203 18-10a81.82 81.82 0 0 0 19-11c5.503-1.171 10.17-3.837 14-8a368.678 368.678 0 0 0 44-26c2.243.319 4.41.152 6.5-.5 4.064 4.134 8.897 6.967 14.5 8.5a131.76 131.76 0 0 0 17 10 320.348 320.348 0 0 1 24 16 445.595 445.595 0 0 1 55 31 52.415 52.415 0 0 0 12 4.5 361.608 361.608 0 0 1-38 1 112.692 112.692 0 0 0-10-6.5 25.238 25.238 0 0 0-10 0l-2.5 2.5c-1.049-1.017-2.216-1.184-3.5-.5a157.284 157.284 0 0 1-6 4.5c-24.002-.167-48.002 0-72 .5-1.237.232-2.237.732-3 1.5-10.179 3.512-16.512 10.512-19 21a17117.28 17117.28 0 0 0 0 370c1.482 7.296 4.815 13.629 10 19-.167 18.336 0 36.67.5 55a18.839 18.839 0 0 1 6.5 5.5 4.934 4.934 0 0 0 3 .5v11a162.597 162.597 0 0 0-18 .5l-1.5 1.5c-.174 5.184-.674 10.184-1.5 15a185.977 185.977 0 0 1-3-2 21.127 21.127 0 0 1-1-9v-102a5509.9 5509.9 0 0 0-.5-105 1204.023 1204.023 0 0 0-28.5-16.5c-6.204-2.789-12.537-4.622-19-5.5v-3h-6v-3h-3v-3h-6v-3h-5v-3c-2.921.354-5.254-.646-7-3-1.714 1.109-2.381.442-2-2a58.97 58.97 0 0 1-11-3v-3a27.267 27.267 0 0 0-9-3v-3c-2.908.238-5.242-.762-7-3a3.647 3.647 0 0 0-1.5 1c-1.667-1-3-2.333-4-4l-1 1a4.932 4.932 0 0 1-.5-3h-6v-3h-5v-3a544.412 544.412 0 0 1-29-14v-3a58.967 58.967 0 0 1-11-3v-3h-6v-3c-4.013-1.674-8.013-3.341-12-5 .008-83.648.008-167.148 0-250.5a169.104 169.104 0 0 0 15-5.5v-3a58.967 58.967 0 0 0 11-3v-3a417.79 417.79 0 0 0 15-7 32.686 32.686 0 0 0 8.5-6l1 1c1.049-1.607 2.549-2.273 4.5-2v-3a59.029 59.029 0 0 1 11-3 4.932 4.932 0 0 1 .5-3l1 1c2.015-3.065 4.515-4.065 7.5-3v-3h5v-3c1.7.16 3.366-.007 5-.5 1.478-2.057 3.478-3.39 6-4l-2-1a18.436 18.436 0 0 1 6-.5v-3a87.51 87.51 0 0 0 14-5v-3h6v-3h5v-3c1.701-.466 3.201-.466 4.5 0 3.279-4.047 7.946-7.047 14-9a18.264 18.264 0 0 0 5-4l1 1c1.049-1.607 2.549-2.273 4.5-2v-3h5v-3h6v-3c4.612-1.195 9.279-2.862 14-5v-3c1.701-.466 3.201-.466 4.5 0 .908-1.939 2.408-2.939 4.5-3v-3h6v-3c1.788.285 3.455-.048 5-1a38.767 38.767 0 0 0 7-4.5 49.25 49.25 0 0 1 14 0c2.025 1.677 4.359 2.677 7 3-1.134 1.016-.801 1.683 1 2l5 1-1 1c2.622 3.073 5.955 4.573 10 4.5v3h6v3c3.191.262 5.858 1.596 8 4a9.864 9.864 0 0 0 6 1v3c3.58 1.22 7.247 2.386 11 3.5l-2 1c2.767.678 4.934 2.178 6.5 4.5l1-1c3.769 1.797 7.102 4.13 10 7a3.942 3.942 0 0 1 2-1c1.482 1.612 3.315 2.612 5.5 3v3h6v3h5v3h6v3a87.51 87.51 0 0 0 14 5v3c1.699-.16 3.366.007 5 .5l-1 1c1.525 1.009 3.192 1.509 5 1.5v3h6v3h5v3c2.985-1.065 5.485-.065 7.5 3l1-1c.483.948.649 1.948.5 3h5v3h6v3c2.133 1.386 5.133 2.386 9 3v3c2.908-.238 5.242.762 7 3l2-1c.35 2.067 2.017 3.067 5 3v3h6v3c2.516-.255 4.85-1.089 7-2.5a626.207 626.207 0 0 1 29-17c.837-1.011 1.17-2.178 1-3.5 4.493-.216 7.993-2.216 10.5-6 1.011.837 2.178 1.17 3.5 1v-3a59.031 59.031 0 0 0 11-3v-3c1.808.009 3.475-.491 5-1.5l-1-1a12.935 12.935 0 0 1 5-.5v-3a9.864 9.864 0 0 0 6-1 35.213 35.213 0 0 1 8-4v-3h6v-3a59.031 59.031 0 0 1 11-3v-3c1.808.009 3.475-.491 5-1.5-1.388-.89-1.222-1.39.5-1.5 2.071 1.167 3.571.5 4.5-2 6.434-2.343 12.767-5.343 19-9v-3a59.031 59.031 0 0 1 11-3 4.934 4.934 0 0 1 .5-3l1 1c1.995-2.247 4.495-3.247 7.5-3v-3h5v-3h6v-3c1.808.009 3.475-.491 5-1.5l-1-1a12.936 12.936 0 0 1 5-.5v-3c3.552.188 6.219-1.145 8-4Z"/><path style="opacity:1" fill="#273339" d="M608.5 447.5v-13c.667 0 1-.333 1-1l1-2a57.829 57.829 0 0 1 8-2.5 2367.217 2367.217 0 0 1 73-42l4-4a114.302 114.302 0 0 0 13-6 846.02 846.02 0 0 0 33-20 73.86 73.86 0 0 0 9-3.5 7901.316 7901.316 0 0 0-1.5-216 2129.254 2129.254 0 0 1-37.5-21.5c-3.415-.406-6.082-2.072-8-5a91.311 91.311 0 0 1-23-13 457.332 457.332 0 0 0-22-11c-2.508-3.042-5.508-5.376-9-7a457.332 457.332 0 0 1-22-11l-24-15c-3.415-.406-6.082-2.072-8-5a90.401 90.401 0 0 0-14-6c-5.722-6.435-12.722-8.768-21-7-7.36 5.663-15.36 9.996-24 13-3.619 3.977-7.952 6.644-13 8-2.537 2.546-5.537 4.212-9 5l-4 4-10 4a2551.356 2551.356 0 0 0-60 36 7185.005 7185.005 0 0 1 26 16 114.065 114.065 0 0 0 14 6c4.2 3.6 8.867 6.433 14 8.5a684.54 684.54 0 0 1 19-8.5 43.593 43.593 0 0 1 13-8c2.365-3.714 5.698-5.714 10-6a705.673 705.673 0 0 1 21-12c4.719-2.307 9.719-2.974 15-2a113.107 113.107 0 0 0 28 15l5 5a182.852 182.852 0 0 1 35 20 193.115 193.115 0 0 1 32 19 197.694 197.694 0 0 1 17 8 36.078 36.078 0 0 1 3.5 4.5c1.657 49.25 1.99 98.584 1 148-5.181 6.173-11.681 10.34-19.5 12.5a12318.477 12318.477 0 0 1-28 18c-6.381 2.027-12.048 5.361-17 10-3.29.253-6.29 1.253-9 3a128.868 128.868 0 0 0-11 7.5h-1v-14c.992.172 1.658-.162 2-1a1288.893 1288.893 0 0 0 43-24.5l4-1a679.07 679.07 0 0 1 23-15 12.93 12.93 0 0 1 5-.5c.167-28.335 0-56.669-.5-85l-2-2c-.174-17.24-.674-34.407-1.5-51.5a4261.045 4261.045 0 0 1-114-65.5 3162.857 3162.857 0 0 0-66 36.5 42.479 42.479 0 0 1-13 0 496.946 496.946 0 0 0-33-18 287.246 287.246 0 0 0-25-16c-6.921-5.743-6.588-11.076 1-16a12271.425 12271.425 0 0 0 129-74c9.584-1.031 17.918 1.636 25 8 4.302.286 7.635 2.286 10 6a1126.1 1126.1 0 0 1 31 16c4.933 4.604 10.6 7.938 17 10a161.879 161.879 0 0 0 33 19l4 4a457.332 457.332 0 0 1 22 11 29746.604 29746.604 0 0 0 46 28c2.71 1.747 5.71 2.747 9 3a36.078 36.078 0 0 1 3.5 4.5c.667 76 .667 152 0 228a190.921 190.921 0 0 1-21.5 10.5l-8 6a377.475 377.475 0 0 1-23 12l-5 5a112.343 112.343 0 0 0-17 8 1523.194 1523.194 0 0 1-78 45.5Z"/><path style="opacity:1" fill="#28343a" d="M511.5 181.5a163.67 163.67 0 0 1-25-1 758.84 758.84 0 0 0-32-19.5 175.043 175.043 0 0 1-28-16c-5.662-.917-10.329-3.583-14-8-5.086-1.414-9.419-4.081-13-8a546.6 546.6 0 0 0-35-18 337.282 337.282 0 0 1-26-17 731.874 731.874 0 0 1-34-19c-5.487-1.208-10.154-3.875-14-8a24672.35 24672.35 0 0 1-21-11 179.568 179.568 0 0 1-15-10A228.066 228.066 0 0 0 230 34.5 112.066 112.066 0 0 0 206.5 48l-10 4-3 3c-6.771 2.445-12.771 6.111-18 11l-10 4-4 4a520.666 520.666 0 0 0-59 34l-9 3c-3.796 3.592-8.13 6.259-13 8A361.546 361.546 0 0 1 48 137.5c-.667 72-.667 144 0 216a7214.146 7214.146 0 0 0 125 72c.5-21.664.667-43.331.5-65a340.197 340.197 0 0 0-18-8.5 55.63 55.63 0 0 0-18-10 78.488 78.488 0 0 0-23-13 56.965 56.965 0 0 0-10.5-7.5 5697.651 5697.651 0 0 1 0-151 6.978 6.978 0 0 1 2.5-3.5 146.497 146.497 0 0 0 31-18c8.372-3.019 16.038-7.352 23-13 5.093-1.382 9.426-4.049 13-8a90.42 90.42 0 0 0 14-6c1.918-2.928 4.585-4.594 8-5a226.438 226.438 0 0 1 29-17 42.498 42.498 0 0 1 13 0l4 4a154.79 154.79 0 0 0 13 6 1081.768 1081.768 0 0 0 33 20l4 1c8.98 5.636 17.98 11.302 27 17 7.27 1.913 13.604 5.58 19 11 4.75 1.03 8.75 3.363 12 7l10 4 4 4a222.128 222.128 0 0 1 15 7.5 139.2 139.2 0 0 1-23-1 52.415 52.415 0 0 1-12-4.5 445.595 445.595 0 0 0-55-31 320.348 320.348 0 0 0-24-16 131.76 131.76 0 0 1-17-10c-5.603-1.533-10.436-4.366-14.5-8.5-2.09.652-4.257.819-6.5.5a368.678 368.678 0 0 1-44 26c-3.83 4.163-8.497 6.829-14 8a81.82 81.82 0 0 1-19 11c-5.201 4.797-11.201 8.13-18 10-5.669 5.02-11.836 9.187-18.5 12.5-.5 45.332-.667 90.665-.5 136 5.301 1.324 9.968 3.824 14 7.5l10 4c1.918 2.928 4.585 4.594 8 5 2.674 3.012 6.007 4.678 10 5a82.15 82.15 0 0 0 22 13 20.231 20.231 0 0 1 7.5 7.5c.667 23.333.667 46.667 0 70-1.232 2.8-1.899 5.8-2 9-2.909 2.894-6.409 3.727-10.5 2.5a13376.247 13376.247 0 0 1-116-67c-3.96.349-6.626-1.317-8-5l-9.5-5.5A3410.247 3410.247 0 0 1 36.5 245c-.152-38.537.348-77.037 1.5-115.5A579.672 579.672 0 0 1 80.5 107c3.83-4.163 8.497-6.829 14-8a336.071 336.071 0 0 1 40-23l23-15 4-1a175.013 175.013 0 0 1 28-16 583.354 583.354 0 0 1 33-19c12.235-2.801 22.902.199 32 9a2084.03 2084.03 0 0 1 77 44c5.503 1.17 10.17 3.838 14 8a326.577 326.577 0 0 0 27 14c8.98 5.636 17.98 11.302 27 17 3.415.406 6.082 2.072 8 5a312.387 312.387 0 0 1 27 14 77.598 77.598 0 0 0 23 13l4 4a713.94 713.94 0 0 1 50 28.5Z"/><path style="opacity:1" fill="#fdfdfd" d="M486.5 180.5a2916.974 2916.974 0 0 1-108 1 222.128 222.128 0 0 0-15-7.5l-4-4-10-4c-3.25-3.637-7.25-5.97-12-7-5.396-5.42-11.73-9.087-19-11a10892.14 10892.14 0 0 0-27-17l-4-1a1081.768 1081.768 0 0 1-33-20 154.79 154.79 0 0 1-13-6l-4-4a42.498 42.498 0 0 0-13 0 226.438 226.438 0 0 0-29 17c-3.415.406-6.082 2.072-8 5a90.42 90.42 0 0 1-14 6c-3.574 3.951-7.907 6.618-13 8-6.962 5.648-14.628 9.981-23 13a146.497 146.497 0 0 1-31 18 6.978 6.978 0 0 0-2.5 3.5 5697.651 5697.651 0 0 0 0 151 56.965 56.965 0 0 1 10.5 7.5 78.488 78.488 0 0 1 23 13 55.63 55.63 0 0 1 18 10 340.197 340.197 0 0 1 18 8.5c.167 21.669 0 43.336-.5 65a7214.146 7214.146 0 0 1-125-72c-.667-72-.667-144 0-216A361.546 361.546 0 0 0 80.5 119c4.87-1.741 9.204-4.408 13-8l9-3a520.666 520.666 0 0 1 59-34l4-4 10-4c5.229-4.889 11.229-8.555 18-11l3-3 10-4A112.066 112.066 0 0 1 230 34.5 228.066 228.066 0 0 1 254.5 46a179.568 179.568 0 0 0 15 10 24672.35 24672.35 0 0 0 21 11c3.846 4.125 8.513 6.792 14 8a731.874 731.874 0 0 0 34 19 337.282 337.282 0 0 0 26 17 546.6 546.6 0 0 1 35 18c3.581 3.919 7.914 6.586 13 8 3.671 4.417 8.338 7.083 14 8a175.043 175.043 0 0 0 28 16 758.84 758.84 0 0 1 32 19.5Z"/><path style="opacity:1" fill="#fdfefe" d="M610.5 431.5a931.31 931.31 0 0 1-1-61 128.868 128.868 0 0 1 11-7.5c2.71-1.747 5.71-2.747 9-3 4.952-4.639 10.619-7.973 17-10 9.313-5.969 18.646-11.969 28-18 7.819-2.16 14.319-6.327 19.5-12.5.99-49.416.657-98.75-1-148a36.078 36.078 0 0 0-3.5-4.5 197.694 197.694 0 0 0-17-8 193.115 193.115 0 0 0-32-19 182.852 182.852 0 0 0-35-20l-5-5a113.107 113.107 0 0 1-28-15c-5.281-.974-10.281-.307-15 2a705.673 705.673 0 0 0-21 12c-4.302.286-7.635 2.286-10 6a43.593 43.593 0 0 0-13 8 684.54 684.54 0 0 0-19 8.5 50.162 50.162 0 0 1-14-8.5 114.065 114.065 0 0 1-14-6 7185.005 7185.005 0 0 0-26-16 2551.356 2551.356 0 0 1 60-36l10-4 4-4c3.463-.788 6.463-2.454 9-5 5.048-1.356 9.381-4.023 13-8 8.64-3.004 16.64-7.337 24-13 8.278-1.768 15.278.565 21 7a90.401 90.401 0 0 1 14 6c1.918 2.928 4.585 4.594 8 5l24 15a457.332 457.332 0 0 0 22 11c3.492 1.624 6.492 3.958 9 7a457.332 457.332 0 0 1 22 11 91.311 91.311 0 0 0 23 13c1.918 2.928 4.585 4.594 8 5a2129.254 2129.254 0 0 0 37.5 21.5 7901.316 7901.316 0 0 1 1.5 216 73.86 73.86 0 0 1-9 3.5 846.02 846.02 0 0 1-33 20 114.302 114.302 0 0 1-13 6l-4 4a2367.217 2367.217 0 0 0-73 42 57.829 57.829 0 0 0-8 2.5Z"/><path style="opacity:1" fill="#28343a" d="M317.5 181.5h-32a157.284 157.284 0 0 0 6-4.5c1.284-.684 2.451-.517 3.5.5l2.5-2.5a25.238 25.238 0 0 1 10 0 112.692 112.692 0 0 1 10 6.5Z"/><path style="opacity:1" fill="#4c4e51" d="M355.5 180.5a139.2 139.2 0 0 0 23 1c36.171.332 72.171-.002 108-1a163.67 163.67 0 0 0 25 1c24.172-.331 48.172.002 72 1-124.355-.326-248.688.007-373 1 .763-.768 1.763-1.268 3-1.5 23.998-.5 47.998-.667 72-.5h32a361.608 361.608 0 0 0 38-1Z"/><path style="opacity:.995" fill="#1f2024" d="M583.5 182.5c14.883 2.884 23.216 11.884 25 27v161a512.628 512.628 0 0 0 0 64v13c-.324 6.854.009 13.521 1 20v38h-1c-.597 5.08-1.43 10.746-2.5 17a1917.16 1917.16 0 0 1-1.5 61c0 .667-.333 1-1 1 .167-20.336 0-40.669-.5-61-.417-1.256-1.25-1.923-2.5-2 .333-104.835-.001-209.501-1-314-1.881-9.381-7.548-14.881-17-16.5-123-.667-246-.667-369 0-7.763 2.926-12.43 8.426-14 16.5a24497.634 24497.634 0 0 0-1 313c-2.544-.396-4.711.271-6.5 2-.5-105.999-.667-211.999-.5-318 2.488-10.488 8.821-17.488 19-21a35157.776 35157.776 0 0 1 373-1Z"/><path style="opacity:1" fill="#fefefe" d="M599.5 207.5c.333 104.501-.001 208.835-1 313a139.2 139.2 0 0 1-23-1v-58h-31c.332-31.504-.002-62.838-1-94-2.298-8.298-7.631-13.631-16-16-37.83-.999-75.83-1.332-114-1v-62h121c1.157 8.49 1.324 17.157.5 26a116.252 116.252 0 0 0-11.5-13.5c-4.5-.833-6.333 1-5.5 5.5a190.218 190.218 0 0 0 21 25c2.879-.876 5.213-2.542 7-5l15-19c1.33-4.998-.504-7.164-5.5-6.5a174.328 174.328 0 0 0-10 12.5c-.993-8.15-1.326-16.483-1-25h30c.167-20.336 0-40.669-.5-61a32.27 32.27 0 0 0-9.5-9.5c-94.403-.169-188.737-.669-283-1.5.086-.996-.248-1.829-1-2.5-6-.667-12-.667-18 0-1.323.816-1.989 1.983-2 3.5h-12c.17-1.322-.163-2.489-1-3.5-14.371-3.068-23.538 2.432-27.5 16.5-.667 10-.667 20 0 30 .918 1.876 2.418 2.876 4.5 3v25h30c-.332 41.503.001 82.837 1 124 1.915 8.915 7.249 14.581 16 17 37.83.999 75.83 1.332 114 1v32h-114c-3.358-5.19-7.525-9.523-12.5-13-4.67 3.171-8.504 7.171-11.5 12h-24v59h-24v-313c1.57-8.074 6.237-13.574 14-16.5 123-.667 246-.667 369 0 9.452 1.619 15.119 7.119 17 16.5Z"/><path style="opacity:1" fill="#4e4f52" d="M599.5 207.5a24654.478 24654.478 0 0 1 1 314c-.992.172-1.658-.162-2-1a24497.634 24497.634 0 0 0 1-313Z"/><path style="opacity:1" fill="#93b8ba" d="m608.5 209.5 2 146c-.342.838-1.008 1.172-2 1v-147Z"/><path style="opacity:1" fill="#232428" d="M248.5 217.5c-.011 1.517-.677 2.684-2 3.5-6.811-.954-12.311 1.213-16.5 6.5a308.045 308.045 0 0 0-2 34c-.816 1.323-1.983 1.989-3.5 2-2.082-.124-3.582-1.124-4.5-3-.667-10-.667-20 0-30 3.962-14.068 13.129-19.568 27.5-16.5.837 1.011 1.17 2.178 1 3.5Z"/><path style="opacity:1" fill="#1e2024" d="M281.5 216.5c.203 1.89-.463 3.39-2 4.5a64.218 64.218 0 0 1-16 0c-1.926-.422-2.926-1.589-3-3.5.011-1.517.677-2.684 2-3.5 6-.667 12-.667 18 0 .752.671 1.086 1.504 1 2.5Z"/><path style="opacity:1" fill="#83e0e4" d="M281.5 216.5c94.263.831 188.597 1.331 283 1.5 3.833 2.5 7 5.667 9.5 9.5.5 20.331.667 40.664.5 61h-31c-2.074-8.576-7.408-14.076-16-16.5-36-.667-72-.667-108 0-2.667 2.667-2.667 5.333 0 8l108 1c3.239 1.736 5.573 4.236 7 7.5h-122c-2.384-8.219-7.717-13.719-16-16.5a3904.548 3904.548 0 0 0-125 0c-7.152 2.311-12.319 6.811-15.5 13.5a8060.64 8060.64 0 0 0-.5 127 3843.432 3843.432 0 0 1-1-124h-30v-25c1.517-.011 2.684-.677 3.5-2 .043-11.43.71-22.763 2-34 4.189-5.287 9.689-7.454 16.5-6.5 1.323-.816 1.989-1.983 2-3.5h12c.074 1.911 1.074 3.078 3 3.5a64.218 64.218 0 0 0 16 0c1.537-1.11 2.203-2.61 2-4.5Z"/><path style="opacity:1" fill="#1f2024" d="M412.5 288.5v63h115c8.369 2.369 13.702 7.702 16 16 .167 42.335 0 84.668-.5 127-2.899 7.232-8.066 12.065-15.5 14.5a3842.33 3842.33 0 0 1-124 0c-8.78-2.28-14.447-7.78-17-16.5v-63h-115c-8.751-2.419-14.085-8.085-16-17-.167-42.335 0-84.668.5-127 3.181-6.689 8.348-11.189 15.5-13.5 41.667-.667 83.333-.667 125 0 8.283 2.781 13.616 8.281 16 16.5Z"/><path style="opacity:1" fill="#202327" d="M543.5 288.5a169.926 169.926 0 0 0 1 26c.607-.124.94-.457 1-1a174.328 174.328 0 0 1 10-12.5c4.996-.664 6.83 1.502 5.5 6.5l-15 19c-1.787 2.458-4.121 4.124-7 5a190.218 190.218 0 0 1-21-25c-.833-4.5 1-6.333 5.5-5.5a116.252 116.252 0 0 1 11.5 13.5c.824-8.843.657-17.51-.5-26-1.427-3.264-3.761-5.764-7-7.5l-108-1c-2.667-2.667-2.667-5.333 0-8 36-.667 72-.667 108 0 8.592 2.424 13.926 7.924 16 16.5Z"/><path style="opacity:1" fill="#fbdd7e" d="M386.5 367.5a702.728 702.728 0 0 0-1 53h-114c-3.653-1.489-6.153-4.156-7.5-8a3842.33 3842.33 0 0 1 0-124 25.55 25.55 0 0 1 5.5-6.5 2033.076 2033.076 0 0 1 127-1 20.231 20.231 0 0 1 7.5 7.5c.5 20.997.667 41.997.5 63-9.427 1.425-15.427 6.758-18 16Z"/><path style="opacity:1" fill="#838486" d="M543.5 288.5h1c-.326 8.517.007 16.85 1 25-.06.543-.393.876-1 1a169.926 169.926 0 0 1-1-26Z"/><path style="opacity:1" fill="#1e1f22" d="M337.5 305.5v11h36c1.493.812 2.16 2.145 2 4a7.93 7.93 0 0 1-1 3.5c-5.991.499-11.991.666-18 .5-1.374 15.743-7.374 29.409-18 41l34 26c1.475 2.745.809 4.912-2 6.5-1.333.667-2.667.667-4 0a1298.356 1298.356 0 0 1-34-26.5 1298.356 1298.356 0 0 1-34 26.5c-2.808.92-4.975.087-6.5-2.5-.624-1.964-.124-3.631 1.5-5a1733.414 1733.414 0 0 0 31.5-24c.667-1 .667-2 0-3-7.049-7.431-11.382-16.097-13-26 2.333-2.667 4.667-2.667 7 0 3.005 8.023 7.505 15.023 13.5 21 8.412-7.822 13.412-17.488 15-29 .951-1.419 1.284-3.085 1-5h-54c-3.473-2.063-3.806-4.563-1-7.5 11.995-.5 23.995-.667 36-.5a60.931 60.931 0 0 1 .5-11c2.621-2.64 5.121-2.64 7.5 0Z"/><path style="opacity:1" fill="#887b4e" d="M337.5 305.5c.979 3.125 1.313 6.458 1 10 11.845-.328 23.512.005 35 1h-36v-11Z"/><path style="opacity:1" fill="#c3ad66" d="M294.5 324.5h54c.284 1.915-.049 3.581-1 5v-4a702.728 702.728 0 0 1-53-1Z"/><path style="opacity:1" fill="#a2a2a4" d="M412.5 288.5h1v62c38.17-.332 76.17.001 114 1h-115v-63Z"/><path style="opacity:1" fill="#eaf2f5" d="M403.5 359.5c41.001-.167 82.001 0 123 .5 3.062 1.061 5.562 2.894 7.5 5.5a2001.188 2001.188 0 0 1 1 126c-1.031 3.039-2.865 5.539-5.5 7.5a2033.076 2033.076 0 0 1-127 1c-3.99-1.99-6.49-5.157-7.5-9.5a3719.39 3719.39 0 0 1 0-122c1.662-4.16 4.495-7.16 8.5-9Z"/><path style="opacity:1" fill="#babcbd" d="M608.5 370.5h1a931.31 931.31 0 0 0 1 61l-1 2a992.742 992.742 0 0 1-1-63Z"/><path style="opacity:1" fill="#4c4d50" d="M608.5 370.5a992.742 992.742 0 0 0 1 63c0 .667-.333 1-1 1a512.628 512.628 0 0 1 0-64Z"/><path style="opacity:1" fill="#1e1f23" d="M463.5 382.5c2.481-.177 4.314.823 5.5 3 12.984 27.969 25.984 55.969 39 84 1.825 5.486-.008 7.986-5.5 7.5a2181.564 2181.564 0 0 1-19-39.5 171.668 171.668 0 0 0-37 0 977.656 977.656 0 0 1-17.5 38c-2.333 2.667-4.667 2.667-7 0-.584-2.757-.25-5.423 1-8a2498.045 2498.045 0 0 1 40.5-85Z"/><path style="opacity:1" fill="#e5edef" d="M464.5 398.5a590.57 590.57 0 0 1 15 29 140.772 140.772 0 0 1-29 .5 1185.086 1185.086 0 0 0 14-29.5Z"/><path style="opacity:1" fill="#c8b169" d="M386.5 367.5v54c-38.504.332-76.837-.001-115-1h114a702.728 702.728 0 0 1 1-53Z"/><path style="opacity:1" fill="#98a0a2" d="M271.5 429.5h115v63c-.994-9.819-1.327-19.819-1-30v-32c-38.17.332-76.17-.001-114-1Z"/><path style="opacity:1" fill="#1f2226" d="M271.5 462.5a100.226 100.226 0 0 0 8.5 10c.944 2.847.444 5.347-1.5 7.5-1 .667-2 .667-3 0L264 466.5a104.936 104.936 0 0 0 1 28l5.5 5.5 109 1c2.667 2.667 2.667 5.333 0 8-36.333.667-72.667.667-109 0-8.013-2.842-13.013-8.342-15-16.5a169.926 169.926 0 0 0-1-26c-.607.124-.94.457-1 1a144.543 144.543 0 0 1-9 11.5c-5.408 2.267-7.575.433-6.5-5.5a130.837 130.837 0 0 0 8.5-11c.667 0 1-.333 1-1 2.996-4.829 6.83-8.829 11.5-12 4.975 3.477 9.142 7.81 12.5 13Z"/><path style="opacity:1" fill="#caf1f2" d="M247.5 461.5c0 .667-.333 1-1 1h-22v58h-1v-59h24Z"/><path style="opacity:1" fill="#cbf2f3" d="M544.5 461.5h31v58h-1v-57c-10.181.327-20.181-.006-30-1Z"/><path style="opacity:1" fill="#82dee2" d="M543.5 367.5a2209.105 2209.105 0 0 1 1 94c9.819.994 19.819 1.327 30 1v57a3049.866 3049.866 0 0 1-76 1.5l-1.5 1.5a2297.055 2297.055 0 0 1-1.5 68c.166-8.34 0-16.673-.5-25-.383.556-.883.889-1.5 1 .167-14.67 0-29.337-.5-44l-1.5-1.5a2651.175 2651.175 0 0 0-103 0l-1.5 1.5a924.222 924.222 0 0 0-.5 43h-2a463.087 463.087 0 0 0-1-43 4.457 4.457 0 0 1-2-1.5c-34-.667-68-.667-102 0l-1.5 1.5a2297.055 2297.055 0 0 1-1.5 68v-25h-23v25a2297.055 2297.055 0 0 1-1.5-68l-1.5-1.5c-8.66-.5-17.327-.666-26-.5v-58h22a130.837 130.837 0 0 1-8.5 11c-1.075 5.933 1.092 7.767 6.5 5.5a144.543 144.543 0 0 0 9-11.5l2 25c1.987 8.158 6.987 13.658 15 16.5 36.333.667 72.667.667 109 0 2.667-2.667 2.667-5.333 0-8l-109-1-5.5-5.5a104.936 104.936 0 0 1-1-28l11.5 13.5c1 .667 2 .667 3 0 1.944-2.153 2.444-4.653 1.5-7.5a100.226 100.226 0 0 1-8.5-10h114c-.327 10.181.006 20.181 1 30 2.553 8.72 8.22 14.22 17 16.5 41.333.667 82.667.667 124 0 7.434-2.435 12.601-7.268 15.5-14.5.5-42.332.667-84.665.5-127Z"/><path style="opacity:1" fill="#395559" d="M253.5 467.5c.06-.543.393-.876 1-1a169.926 169.926 0 0 1 1 26l-2-25Z"/><path style="opacity:1" fill="#b4e2e4" d="M608.5 505.5h1c.987 4.805 1.321 9.805 1 15-1.942-4.556-2.608-9.556-2-15Z"/><path style="opacity:.997" fill="#283339" d="M191.5 204.5c-.167 106.001 0 212.001.5 318 1.789-1.729 3.956-2.396 6.5-2-.333-104.501.001-208.835 1-313v313h25c8.673-.166 17.34 0 26 .5l1.5 1.5c.168 22.837.668 45.504 1.5 68h23a2297.055 2297.055 0 0 0 1.5-68l1.5-1.5c34-.667 68-.667 102 0a4.457 4.457 0 0 0 2 1.5 463.087 463.087 0 0 1 1 43c.667 33.333 1.333 33.333 2 0-.167-14.337 0-28.671.5-43l1.5-1.5c34.333-.667 68.667-.667 103 0l1.5 1.5c.5 14.663.667 29.33.5 44-.634 8.403.033 16.403 2 24a2297.055 2297.055 0 0 0 1.5-68l1.5-1.5c25.376-.185 50.709-.685 76-1.5h1a139.2 139.2 0 0 0 23 1c.342.838 1.008 1.172 2 1 1.25.077 2.083.744 2.5 2 .5 20.331.667 40.664.5 61v99a162.597 162.597 0 0 1-.5 18l-1.5 1.5a190.267 190.267 0 0 1-33 1.5 818.961 818.961 0 0 0-70-.5 10892.14 10892.14 0 0 1-27 17 145.581 145.581 0 0 1-18 9c-4.933 4.604-10.6 7.938-17 10l-4 4c-6.761 1.869-12.761 5.202-18 10-5.111 2.701-10.611 4.534-16.5 5.5a66.364 66.364 0 0 1-9.5-2.5 35.157 35.157 0 0 0-10-5c-3.796-3.592-8.129-6.259-13-8a279.412 279.412 0 0 0-19-12c-3.959.349-6.626-1.317-8-5l-10-4a201.636 201.636 0 0 0-27-17c-7.441-1.979-15.108-3.145-23-3.5a65.75 65.75 0 0 1-1.5-10l-3-3-1 12a6.978 6.978 0 0 1-3.5 2.5c-13.329.5-26.663.667-40 .5-12.005.167-24.005 0-36-.5a6.978 6.978 0 0 1-2.5-3.5 162.597 162.597 0 0 1-.5-18c.826-4.816 1.326-9.816 1.5-15l1.5-1.5a162.597 162.597 0 0 1 18-.5v-11a4.934 4.934 0 0 1-3-.5 18.839 18.839 0 0 0-6.5-5.5c-.5-18.33-.667-36.664-.5-55a32.503 32.503 0 0 0 10 4v-8c1.333-10 1.333-20 0-30h-12v13c-.985-4.134-1.318-8.468-1-13-2.544.396-4.711-.271-6.5-2a145.053 145.053 0 0 0-.5 17 17117.28 17117.28 0 0 1 0-370Z"/><path style="opacity:.978" fill="#263238" d="M608.5 505.5c-.608 5.444.058 10.444 2 15 33.335-.167 66.668 0 100 .5l1.5 1.5c.667 59.667.667 119.333 0 179a6.978 6.978 0 0 1-3.5 2.5 2499 2499 0 0 1-100 0c-1.833-.5-3-1.667-3.5-3.5a145.053 145.053 0 0 1-.5-17 1261.207 1261.207 0 0 0 0-100 1917.16 1917.16 0 0 0 1.5-61c1.07-6.254 1.903-11.92 2.5-17Zm38 54h24v105h-24v-105Z"/><path style="opacity:1" fill="#fa6565" d="M199.5 696.5v-23c5.526.321 10.86-.012 16-1 1.322.17 2.489-.163 3.5-1a3479.51 3479.51 0 0 0 0-118l-1.5-1.5a162.597 162.597 0 0 0-18-.5v-23h46c-.167 47.668 0 95.334.5 143l1.5 1.5c5.991.499 11.991.666 18 .5v23h-66Z"/><path style="opacity:1" fill="#fc6565" d="M285.5 528.5h91v167h-91v-167Z"/><path style="opacity:1" fill="#fe6565" d="M485.5 528.5v167h-91v-167h91Z"/><path style="opacity:1" fill="#5b3f43" d="M485.5 528.5a7058.311 7058.311 0 0 1 1 168 2117.57 2117.57 0 0 1-92-1h91v-167Z"/><path style="opacity:1" fill="#fc6565" d="M504.5 528.5h91v167h-91v-167Z"/><path style="opacity:1" fill="#5b3f43" d="M613.5 528.5v167h91a2117.57 2117.57 0 0 1-92 1 7058.311 7058.311 0 0 1 1-168Z"/><path style="opacity:1" fill="#fe6565" d="M613.5 528.5h91v167h-91v-167Zm33 31v105h24v-105h-24Z"/><path style="opacity:.938" fill="#293238" d="M186.5 569.5v41a3104.894 3104.894 0 0 1-94 31.5l92 1c.544.717 1.211 1.217 2 1.5v27c-.789.283-1.456.783-2 1.5-36 .667-72 .667-108 0a6.977 6.977 0 0 1-2.5-3.5l-.5-11.5c.25-13.459.417-26.959.5-40.5a6.977 6.977 0 0 1 2.5-3.5 680444.61 680444.61 0 0 1 76-24 680444.61 680444.61 0 0 1-76-24 6.977 6.977 0 0 1-2.5-3.5 156.492 156.492 0 0 1 0-25c.759-2.135 2.259-3.468 4.5-4a3415.494 3415.494 0 0 1 108 36Z"/><path style="opacity:1" fill="#fa6465" d="M82.5 544.5a2664.25 2664.25 0 0 1 96 30v31a2664.25 2664.25 0 0 1-96 30 62.787 62.787 0 0 1 1-15.5 6433.925 6433.925 0 0 0 86-27c2.667-2 2.667-4 0-6a6433.925 6433.925 0 0 0-86-27 62.787 62.787 0 0 1-1-15.5Z"/><path style="opacity:1" fill="#283339" d="M312.5 551.5c12.005-.167 24.005 0 36 .5l1.5 1.5c.667 39 .667 78 0 117l-1.5 1.5c-12 .667-24 .667-36 0l-1.5-1.5c-.667-39-.667-78 0-117 .717-.544 1.217-1.211 1.5-2Z"/><path style="opacity:1" fill="#2a3339" d="M422.5 551.5c12.005-.167 24.005 0 36 .5l1.5 1.5c.667 39 .667 78 0 117l-1.5 1.5a342.33 342.33 0 0 1-37 0 11.333 11.333 0 0 1-1.5-3.5c-.833-38.338-.667-76.671.5-115 1.022-.355 1.689-1.022 2-2Z"/><path style="opacity:1" fill="#273238" d="M531.5 551.5c12.005-.167 24.005 0 36 .5l1.5 1.5c.667 39 .667 78 0 117l-1.5 1.5c-12 .667-24 .667-36 0l-1.5-1.5c-.667-39-.667-78 0-117 .717-.544 1.217-1.211 1.5-2Z"/><path style="opacity:.963" fill="#293238" d="M640.5 551.5c12.005-.167 24.005 0 36 .5a4.457 4.457 0 0 0 2 1.5 2204.561 2204.561 0 0 1 .5 115 11.333 11.333 0 0 1-1.5 3.5 342.33 342.33 0 0 1-37 0l-1.5-1.5c-.667-39-.667-78 0-117 .717-.544 1.217-1.211 1.5-2Zm6 8v105h24v-105h-24Z"/><path style="opacity:1" fill="#1e2024" d="M199.5 572.5c1.199 7.076 4.866 12.41 11 16 0 .667.333 1 1 1v8a32.503 32.503 0 0 1-10-4c-5.185-5.371-8.518-11.704-10-19-.166-5.676.001-11.343.5-17 1.789 1.729 3.956 2.396 6.5 2-.318 4.532.015 8.866 1 13Z"/><path style="opacity:1" fill="#fbfbfb" d="M211.5 559.5c.327 9.848-.006 19.514-1 29-6.134-3.59-9.801-8.924-11-16v-13h12Z"/><path style="opacity:1" fill="#596266" d="M211.5 559.5c1.333 10 1.333 20 0 30-.667 0-1-.333-1-1 .994-9.486 1.327-19.152 1-29Z"/><path style="opacity:1" fill="#85d5d8" d="M342.5 590.5v-25h-24v-6h25c.328 10.514-.006 20.847-1 31Z"/><path style="opacity:1" fill="#82dfe3" d="M452.5 565.5a163.67 163.67 0 0 0-25 1v-7h25v6Z"/><path style="opacity:1" fill="#81dde1" d="M550.5 566.5c-3.9-.93-7.9-1.263-12-1a19.22 19.22 0 0 1-1-6c8.028-.331 16.028.002 24 1a42.769 42.769 0 0 1-9 1.5c-1.537 1.11-2.203 2.61-2 4.5Z"/><path style="opacity:1" fill="#fcfefe" d="M276.5 590.5h-23v-25h23v25ZM318.5 565.5h24v25h-24v-25ZM384.5 565.5h2c-.667 33.333-1.333 33.333-2 0Z"/><path style="opacity:1" fill="#fafcfc" d="M452.5 565.5v25h-25v-24a163.67 163.67 0 0 1 25-1Z"/><path style="opacity:1" fill="#ebeded" d="M495.5 590.5c-1.967-7.597-2.634-15.597-2-24 .617-.111 1.117-.444 1.5-1 .5 8.327.666 16.66.5 25Z"/><path style="opacity:1" fill="#fdfefe" d="M538.5 565.5c4.1-.263 8.1.07 12 1-.073 1.527.594 2.527 2 3 2.787.977 5.787 1.31 9 1v20h-24c-.273-8.388.06-16.721 1-25Z"/><path style="opacity:1" fill="#8e9396" d="M552.5 569.5h10c.325 7.187-.009 14.187-1 21v-20c-3.213.31-6.213-.023-9-1Z"/><path style="opacity:1" fill="#a8d5d8" d="M604.5 583.5a1261.207 1261.207 0 0 1 0 100h-1v-99c.667 0 1-.333 1-1Z"/><path style="opacity:1" fill="#1c1d21" d="M269.5 599.5c-5.14-.988-10.474-1.321-16-1v-7h23v8h-7Z"/><path style="opacity:1" fill="#1b1d20" d="M318.5 591.5h24v7h-24v-7Z"/><path style="opacity:1" fill="#1c1d21" d="M427.5 591.5h25v7h-25v-7Z"/><path style="opacity:1" fill="#1b1d20" d="M537.5 591.5h24v7h-24v-7Z"/><path style="opacity:1" fill="#9ea2a5" d="M269.5 599.5v1h-16v64c5.526-.321 10.86.012 16 1h-17v-66h17Z"/><path style="opacity:1" fill="#fefefe" d="M269.5 600.5a40.914 40.914 0 0 0 .5 9 63.707 63.707 0 0 1 6.5 7 931.31 931.31 0 0 1-1 61c-.617-.111-1.117-.444-1.5-1l-1-9c-.816-1.323-1.983-1.989-3.5-2-5.14-.988-10.474-1.321-16-1v-64h16Z"/><path style="opacity:1" fill="#c4f6f9" d="M318.5 600.5h24a342.787 342.787 0 0 1-1 37 671.256 671.256 0 0 0-23-11v-26Z"/><path style="opacity:1" fill="#7c9da0" d="M318.5 600.5c8.15-.993 16.483-1.326 25-1 .167 13.337 0 26.671-.5 40-.717-.544-1.217-1.211-1.5-2a342.787 342.787 0 0 0 1-37h-24Z"/><path style="opacity:1" fill="#c3f5f7" d="M384.5 599.5c1.332 10.479 1.999 21.312 2 32.5l-.5 32.5a711.156 711.156 0 0 1-1.5-65Z"/><path style="opacity:1" fill="#99c2c4" d="M452.5 600.5h-24a702.728 702.728 0 0 0 1 53c-.283.789-.783 1.456-1.5 2-.5-18.664-.667-37.33-.5-56 8.517-.326 16.85.007 25 1Z"/><path style="opacity:1" fill="#c4f7f9" d="M452.5 600.5a421.042 421.042 0 0 1-1 41c-6.281 2.436-11.947 5.936-17 10.5a27.603 27.603 0 0 0-5 1.5 702.728 702.728 0 0 1-1-53h24Z"/><path style="opacity:1" fill="#a4cfd2" d="M493.5 599.5h3v17h-3v-17Z"/><path style="opacity:1" fill="#5a6367" d="M537.5 599.5v65h6c-2.107.968-4.441 1.302-7 1-.331-22.173.003-44.173 1-66Z"/><path style="opacity:1" fill="#fefefe" d="M537.5 600.5h24v54a165.354 165.354 0 0 1-18 10h-6v-64Z"/><path style="opacity:1" fill="#999ea1" d="M537.5 600.5v-1h25a756.853 756.853 0 0 1-1 55v-54h-24Z"/><path style="opacity:1" fill="#909699" d="M276.5 616.5c1.328 20.504 1.328 41.171 0 62-.607-.124-.94-.457-1-1a931.31 931.31 0 0 0 1-61Z"/><path style="opacity:1" fill="#c6c9ca" d="M493.5 630.5h3c.167 20.669 0 41.336-.5 62l-2 2a2047.17 2047.17 0 0 1-.5-64Z"/><path style="opacity:1" fill="#626b6f" d="M318.5 638.5v26h24v-11c.983 3.798 1.317 7.798 1 12h-26c-.327-9.182.007-18.182 1-27Z"/><path style="opacity:1" fill="#fcfcfc" d="M318.5 638.5c3.719 3.522 8.052 6.022 13 7.5l5 5c2.474.037 4.474.87 6 2.5v11h-24v-26Z"/><path style="opacity:1" fill="#f16263" d="M82.5 650.5h96v15h-96v-15Z"/><path style="opacity:1" fill="#f6f6f6" d="M451.5 653.5c.982 3.462 1.315 7.129 1 11a145.053 145.053 0 0 1-17-.5 51.41 51.41 0 0 0 16-10.5Z"/><path style="opacity:1" fill="#5b3f43" d="M215.5 672.5c-5.14.988-10.474 1.321-16 1v23c-.992-7.816-1.326-15.816-1-24h17Z"/><path style="opacity:1" fill="#5c6569" d="m385.5 677.5-2 23a144.841 144.841 0 0 1 1-24c.607.124.94.457 1 1Z"/><path style="opacity:1" fill="#fdfdfd" d="M385.5 677.5a284.057 284.057 0 0 1 1.5 24c.816 1.323 1.983 1.989 3.5 2l83 2a5766.808 5766.808 0 0 1-75 43 97.288 97.288 0 0 0-12-5.5c-3.543-1.608-6.543-3.942-9-7-5.662-.917-10.329-3.583-14-8a24.569 24.569 0 0 0-8-3 407.636 407.636 0 0 0-32-19.5l57-2c2 0 3-1 3-3l2-23Z"/><path style="opacity:1" fill="#c4f6f8" d="M568.5 704.5c-1.642 1.581-3.642 2.247-6 2v3h-6v3c-4.045-.073-7.378 1.427-10 4.5l1 1a118.288 118.288 0 0 0-17 7.5 10.756 10.756 0 0 0-2.5 3l-1-1c-1.049 1.607-2.549 2.273-4.5 2v3h-6v3h-5v3c-2.524-.071-4.524.929-6 3-2.12-1.372-3.12-.705-3 2a12.93 12.93 0 0 0-5 .5 101.657 101.657 0 0 0-10 7.5 9.108 9.108 0 0 1-5 1v3c-2.51-.446-4.51.22-6 2-2.216.703-4.049 2.036-5.5 4-1.813-1.109-2.646-.442-2.5 2a12.93 12.93 0 0 0-5 .5c-1.497 1.871-3.497 2.871-6 3-1.307 2.324-3.307 3.657-6 4l2 1a12.93 12.93 0 0 1-5 .5v3a9.86 9.86 0 0 0-6 1 35.217 35.217 0 0 1-8 4v3h-6v3h-6v3a8.43 8.43 0 0 0-4 .5l-5 5c-1.284.684-2.451.517-3.5-.5-1.263 2.968-3.263 3.968-6 3a2.428 2.428 0 0 0-.5 2h-12c-.507-1.359-1.507-2.359-3-3a137.913 137.913 0 0 0-11-4v-3c-2.133-1.386-5.133-2.386-9-3v-3h-5v-3c-3.005.247-5.505-.753-7.5-3l-1 1a4.934 4.934 0 0 1-.5-3h-6v-3h-5v-3h-6v-3c-5.922-1.727-11.089-4.727-15.5-9-.718.951-1.551 1.117-2.5.5 1.333-.667 1.333-1.333 0-2a12.93 12.93 0 0 0-5-.5v-3a58.97 58.97 0 0 1-11-3v-3c-8.654-3.265-16.321-6.932-23-11v-3h-6v-3h-5v-3a8.43 8.43 0 0 1-4-.5c-4.85-3.699-10.184-6.199-16-7.5v-3h-6v-3c-2.092-.061-3.592-1.061-4.5-3-1.299.466-2.799.466-4.5 0v-3c-2.281.423-3.948-.244-5-2 13.337.167 26.671 0 40-.5a6.978 6.978 0 0 0 3.5-2.5l1-12 3 3a65.75 65.75 0 0 0 1.5 10c7.892.355 15.559 1.521 23 3.5a201.636 201.636 0 0 1 27 17l10 4c1.374 3.683 4.041 5.349 8 5a279.412 279.412 0 0 1 19 12c4.871 1.741 9.204 4.408 13 8a35.157 35.157 0 0 1 10 5 66.364 66.364 0 0 0 9.5 2.5c5.889-.966 11.389-2.799 16.5-5.5 5.239-4.798 11.239-8.131 18-10l4-4c6.4-2.062 12.067-5.396 17-10a145.581 145.581 0 0 0 18-9c8.98-5.636 17.98-11.302 27-17a818.961 818.961 0 0 1 70 .5Z"/><path style="opacity:1" fill="#714448" d="M285.5 528.5v167h91a2117.57 2117.57 0 0 1-92 1 7058.311 7058.311 0 0 1 1-168ZM504.5 528.5v167h91a2117.57 2117.57 0 0 1-92 1 7058.311 7058.311 0 0 1 1-168Z"/><path style="opacity:1" fill="#c6cacb" d="m380.5 703.5-57 2a27.603 27.603 0 0 0-5-1.5c20.664-.5 41.331-.667 62-.5Z"/><path style="opacity:1" fill="#c7cacb" d="M390.5 703.5c29.002-.167 58.002 0 87 .5-1.401.41-2.734.91-4 1.5l-83-2Z"/><path style="opacity:1" fill="#c4f8f9" d="M476.5 757.5c1.333.667 1.333.667 0 0Z"/></svg>