<svg version="1.0" xmlns="http://www.w3.org/2000/svg" width="480" height="853.333" viewBox="0 0 360 640"><path d="M313 1.6c0 .4 1.5 7.2 3.4 15.3 4.5 19 8.1 38.9 9.6 52.6 1.4 13 .8 61.2-.8 66.5-.6 1.9-2.1 9.1-3.3 16-4.6 26.7-8 42.2-10.6 48.5-3 7.3-8.7 14.8-11 14.3-.8-.2-3-3.9-4.8-8.4-10-24.8-18.7-33.2-36.7-35-7.5-.7-18.4 1.4-26.5 5.1-3 1.3-5.8 2.3-6.2 2-.4-.2-3 1.9-5.7 4.6-2.7 2.8-6.1 5.9-7.5 6.9l-2.6 1.9.5-2.4c.7-3.9-2.5-3.1-4.2.9-1.2 3-7.7 8.6-9.8 8.6-.5 0-.8-1.8-.8-4 0-2.3-.7-5.5-1.6-7.3l-1.7-3.1-2.1 6.6c-2.2 6.8-4.5 10.1-8 12-1.6.9-1.8.7-1.3-.6.9-2.3-.3-7.6-1.7-7.6-.7 0-2.3 2.5-3.5 5.5-1.3 3-3.5 6.4-4.9 7.6-4.2 3.3-8 9.8-8.7 15-.6 3.9-1.3 5.3-4.2 7.5-3.7 2.8-7.2 9.3-7.3 13.2 0 2.1.3 2 3.7-1.4 3.8-3.9 13.5-8.9 19.3-10l3.5-.7-1.6 2.4c-.9 1.3-5 4.1-9.2 6.1-4.2 2.1-8.1 4.7-8.7 5.9-1.5 2.7-.5 3.6 1.7 1.7 3-2.6 6-3.8 12-4.9 8.3-1.4 18.5-4.9 20.8-6.9 3.7-3.3 13.2-7 18-7 4.6 0 9.4 1.8 12.8 4.8 5.2 4.6 2.2-6.1-3.3-11.6-3.6-3.6-3.9-4.2-2.5-5.5.8-.9 1.5-1.8 1.5-2.1 0-1 11.2-11.2 14.3-12.9 2.4-1.4 4.8-1.7 10-1.5 5.7.3 7.1.8 9.4 3 2.6 2.6 2.6 3 2.4 14-.3 20-5.3 34.3-16.9 48.9-24.8 31.3-71.3 52.9-124.2 58-20.5 1.9-50.4-.3-69.7-5.1-9.8-2.5-25.8-10.3-34.5-16.9-6.4-4.8-9.8-6.3-9.8-4.1s6.7 8.3 16.3 14.8c18.5 12.5 28.4 17.8 40.2 21.3 6.1 1.7 12.4 3.8 14 4.4 1.7.7 9.8 1.8 18 2.5 8.3.7 15.4 1.6 15.8 2 1.4 1.2-30.2 5.5-44.3 6l-2.5.1 2.3 1c3.4 1.3 22.8 3.7 37.5 4.5 7 .4 13 1.1 13.3 1.5.8 1.4 10.6 1 15.5-.5 2.4-.8 7.6-2.7 11.4-4.4 8.5-3.5 11.7-4.4 10.9-3-1.6 2.6-20.2 10.1-34.5 13.9-19.4 5.2-19.7 5.3-12.4 5.7 10.3.6 24.3-1.5 36-5.3 11.3-3.7 26.5-5.8 26.5-3.8 0 .6-2.6 3.5-5.8 6.5-5.1 4.6-10.5 8-20.9 13.2-1.3.6-2.3 1.4-2.3 1.8 0 2.2 6.3 0 21.4-7.2 9.2-4.4 17.6-8 18.6-8s2.5 1.1 3.4 2.5c.9 1.4 2.1 2.5 2.7 2.5.5 0 2.1-2.5 3.5-5.5 2.7-5.8 3.3-6.1 7.5-4.2l2.7 1.2-8.7 11.1c-10.5 13.3-23 32.8-28.2 43.9-11.4 24.3-13.1 58.8-4.3 89.3 7.3 25.3 27 54.7 55.9 83.7 14.8 14.7 23.4 21.5 38.5 30.3 21.5 12.5 37.7 18 57 19.1 14.3.8 19.1 0 29.7-5.1l6.8-3.3-29.5-.5c-34.3-.7-36.2-1.1-52.1-10.6-36-21.7-67.4-55.2-81-86.5-7.2-16.6-10.9-35.1-10.9-54.9 0-33.7 9.8-57 36.5-87 9.5-10.6 19.1-19.5 19.8-18.3.2.5 1.4 4.3 2.7 8.5 1.5 4.7 3 7.8 3.8 7.8 4.6 0 7-4.5 10.1-18.9 2.2-10 3.7-13.5 7.3-16.9 1.9-1.7 3.1-2.1 5.6-1.6 3.9.8 4 1.8 1.2 16.2-3.6 18.7-2.2 22.6 3.1 8.5l3.3-8.7 1.8 4.2c1.9 4.3 3.2 5.2 4.2 2.9.5-.9.7-1 1.2 0 1 2.2 2.5 1.4 4-2.2 1-2.4 1.4-7.3 1.4-16.2 0-11-.3-13.3-2-16.1-2.7-4.3-2.5-5.2.9-5.2 3.6 0 7.7 3.2 8.5 6.7.4 1.6 1.6 4.7 2.7 7l2 4.1 3.5-2.1c3-1.9 3.4-2.6 2.9-5.2-.3-1.7-.7-4.8-1-7-.6-3.7-.5-3.9.9-2 4.7 6.3 4.8 6.3 4.2 2.1-.3-2.3-2.4-6.8-5.1-10.9l-4.7-6.9 2.6-2.7c1.5-1.5 4.4-7.4 6.6-13.2 2.7-7.2 4.8-11.2 7-13.2 1.7-1.5 3.4-2.7 4-2.7.5 0 1 2.1 1.2 4.7l.3 4.8 3.3-7c4.3-9.1 8.1-12.9 16.9-17.2 4-1.9 7.5-3.9 7.8-4.4.4-.5-1.3-.9-3.7-.9h-4.3l4.2-2.8c4.7-2.9 5.6-4.8 2.1-3.8-1.3.3-4.6.9-7.5 1.2-4.2.5-5.8.3-8.6-1.5-5-3.1-6.1-6.8-3.4-12l2.1-4.1h8.7c4.8 0 9.1-.5 9.4-1 .3-.6-.7-2.2-2.4-3.6-2.3-1.9-3.1-3.4-3.1-5.8 0-3.1.2-3.2 6-4.4 7-1.5 24-9.9 24-12 0-.8-.7-1.1-1.7-.8-5.6 1.6-18.4 3.8-18.9 3.3-.4-.3 1.5-3 4.1-5.9 2.7-3 6.7-9.5 9.6-15.4 7.3-15.1 6.7-16.3-4.4-8.8-3.7 2.6-7 4.4-7.3 4.1-.3-.3 1.7-3.8 4.4-7.9 8.1-12 15.2-27.8 12.6-27.8-.5 0-3.4 2.6-6.6 5.7l-5.8 5.7V168c0-6.6 2.1-16.1 6.2-28.8 3.4-10.7 4.1-14.4 4.6-23.7.4-10.1.3-10.9-1.2-9.6-.9.7-1.6 2.2-1.6 3.2 0 2.7-4.9 14.6-6.6 16-2.2 1.8-1.8-4.4 1.1-19.3 2.4-12.1 2.4-13.4 1.5-30.7-.9-16.1-3.6-35.2-5.9-41.4-.5-1.3-1 5.7-1.4 17.8-.4 15.9-.9 21.6-2.6 28-1.2 4.3-2.5 8.3-2.9 8.7-.4.4-1.5-6.3-2.5-14.8-2-17.7-5.6-35.7-9.3-47.1C322.2 16.8 315 1 313.9 1c-.5 0-.9.3-.9.6zM176 221c0 2-2.5 3.8-3.7 2.6-.5-.5 2.4-4.6 3.4-4.6.1 0 .3.9.3 2zm139.4 44.5c-.4.8-1 1.5-1.5 1.5s-.9-.7-.9-1.5.7-1.5 1.5-1.5c.9 0 1.2.6.9 1.5zm-5.8 7.3c-2.3 2.3-3.3.6-1-1.9 1.2-1.3 2-1.6 2.2-.9.3.7-.3 1.9-1.2 2.8zM283.5 318c0 .7-.6 1.5-1.2 1.7-.8.3-1.3-.4-1.3-1.7 0-1.3.5-2 1.3-1.8.6.3 1.2 1.1 1.2 1.8zM204 349c1.2.8.8 1.6-2.4 4.9-4.3 4.4-5.1 4.4-5.8.6-.4-1.9.1-3.1 2-4.5 2.7-2.2 4-2.4 6.2-1zm67 17.5c0 1.9-.4 3.5-1 3.5-.5 0-1-1.6-1-3.5s.5-3.5 1-3.5c.6 0 1 1.6 1 3.5zm-43 2c0 .8-.7 1.5-1.5 1.5s-1.5-.7-1.5-1.5.7-1.5 1.5-1.5 1.5.7 1.5 1.5z"/></svg>