<svg version="1.0" xmlns="http://www.w3.org/2000/svg" width="133.333" height="133.333" viewBox="0 0 100 100"><path d="M37 2.4C21.7 6.7 8.2 19.3 3.1 34.3c-8.3 24 2.6 50 25.7 61.4 7.3 3.7 8 3.8 19.6 4.1 13.5.4 19.7-1.1 28.7-6.8 31.8-20.4 30.2-68.3-2.8-86.3C64.3 1.3 47.9-.6 37 2.4zM66.5 30c3.2 1.6 4.6 1.8 6.9 1 3.8-1.3 4.1-.9 1.4 2l-2.2 2.3 2.7-.5 2.6-.5-2.3 2.7c-1.4 1.8-2.5 4.7-2.9 7.9-1.3 11-9.3 21.9-19 26.2-6.8 3-17.2 3.2-24.2.5l-5-2 5-1.1c2.8-.6 6-1.7 7.3-2.4 2.4-1.3 2.1-3.1-.4-3.1-1.7 0-6.4-4.4-6.4-6 0-.5 1-1 2.3-1 2.2 0 2.2 0-.3-1.3-2.4-1.2-7-7.1-7-9 0-.5 1.2-.6 2.7-.2 2.6.6 2.7.6 1.1-1.2-2.5-2.8-3.8-7-3.2-10.2l.6-3 5.2 3.9c5.4 4.1 12.1 7 16.1 7 1.7 0 2.4-.7 2.9-3.2.9-4.6 3.3-7.7 6.9-9.3 4.2-1.9 4.6-1.8 9.2.5z"/></svg>