<?xml version="1.0" encoding="UTF-8"?><svg xmlns="http://www.w3.org/2000/svg" width="800" height="800" style="shape-rendering:geometricPrecision;text-rendering:geometricPrecision;image-rendering:optimizeQuality;fill-rule:evenodd;clip-rule:evenodd"><path style="opacity:1" fill="#f8c622" d="M576.5-.5h9a2.429 2.429 0 0 0 .5 2c1.049-1.017 2.216-1.184 3.5-.5a20.495 20.495 0 0 0 2.5 3.5c1.356-.88 2.856-1.214 4.5-1v3c2.822 1.432 6.489 2.432 11 3v3c2.092.061 3.592 1.061 4.5 3 2.537-.677 4.537.323 6 3 2.361-.566 4.194.434 5.5 3l2-1c.35 2.067 2.017 3.067 5 3v3h6v3h5v3h6v3a27.247 27.247 0 0 0 9 3c-.219 1.175.114 2.175 1 3a6.846 6.846 0 0 1 4-1v3a8.435 8.435 0 0 1 4 .5c-1.154.914-.987 1.747.5 2.5 1.299-.466 2.799-.466 4.5 0v3h6v3h5v3a428.986 428.986 0 0 0 20 8.5l-2 1c2.522.61 4.522 1.943 6 4 1.634.493 3.301.66 5 .5v3c2.908-.238 5.242.762 7 3l2-1c1.196.346 1.196.846 0 1.5a6.977 6.977 0 0 1 3.5 2.5c1.107-1.212 1.607-.879 1.5 1h-53a345.018 345.018 0 0 1-22-11.5c-3.83-4.163-8.497-6.83-14-8-3.492-1.624-6.492-3.958-9-7a1126.1 1126.1 0 0 0-31-16c-2.365-3.714-5.698-5.714-10-6-7.082-6.364-15.416-9.031-25-8a4170.73 4170.73 0 0 1-101 57.5c-6.479-.99-13.146-1.324-20-1 2.254-1.082 4.088-2.749 5.5-5 1.011.837 2.178 1.17 3.5 1v-3a59.031 59.031 0 0 0 11-3v-3c1.808.009 3.475-.491 5-1.5l-1-1a12.935 12.935 0 0 1 5-.5v-3a9.864 9.864 0 0 0 6-1 35.213 35.213 0 0 1 8-4v-3h6v-3a59.031 59.031 0 0 1 11-3v-3c1.808.009 3.475-.491 5-1.5-1.388-.89-1.222-1.39.5-1.5 2.071 1.167 3.571.5 4.5-2 6.434-2.343 12.767-5.343 19-9v-3a59.031 59.031 0 0 1 11-3 4.934 4.934 0 0 1 .5-3l1 1c1.995-2.247 4.495-3.247 7.5-3v-3h5v-3h6v-3c1.808.009 3.475-.491 5-1.5l-1-1a12.936 12.936 0 0 1 5-.5v-3c3.552.188 6.219-1.145 8-4ZM357.5 79.5c-6.854-.324-13.521.01-20 1a6740.252 6740.252 0 0 1-100.5-57 138.219 138.219 0 0 1-14.5 1.5c-4.194 3.22-8.86 5.554-14 7a2157.081 2157.081 0 0 1-68 39c-4.244 4.24-9.244 7.074-15 8.5h-53c-.107-1.879.393-2.212 1.5-1 2.015-3.065 4.515-4.065 7.5-3v-3h5v-3c1.7.16 3.366-.007 5-.5 1.478-2.057 3.478-3.39 6-4l-2-1a18.436 18.436 0 0 1 6-.5v-3a87.51 87.51 0 0 0 14-5v-3h6v-3h5v-3c1.701-.466 3.201-.466 4.5 0 3.279-4.047 7.946-7.047 14-9a18.264 18.264 0 0 0 5-4l1 1c1.049-1.607 2.549-2.273 4.5-2v-3h5v-3h6v-3c4.612-1.195 9.279-2.862 14-5v-3c1.701-.466 3.201-.466 4.5 0 .908-1.939 2.408-2.939 4.5-3v-3h6v-3c1.788.285 3.455-.048 5-1a38.767 38.767 0 0 0 7-4.5 49.25 49.25 0 0 1 14 0c2.025 1.677 4.359 2.677 7 3-1.134 1.016-.801 1.683 1 2l5 1-1 1c2.622 3.073 5.955 4.573 10 4.5v3h6v3c3.191.262 5.858 1.596 8 4a9.864 9.864 0 0 0 6 1v3c3.58 1.22 7.247 2.386 11 3.5l-2 1c2.767.678 4.934 2.178 6.5 4.5l1-1c3.769 1.797 7.102 4.13 10 7a3.942 3.942 0 0 1 2-1c1.482 1.612 3.315 2.612 5.5 3v3h6v3h5v3h6v3a87.51 87.51 0 0 0 14 5v3c1.699-.16 3.366.007 5 .5l-1 1c1.525 1.009 3.192 1.509 5 1.5v3h6v3h5v3c2.985-1.065 5.485-.065 7.5 3 1.107-1.212 1.607-.879 1.5 1Z"/><path style="opacity:1" fill="#283338" d="M671.5 79.5a2174.432 2174.432 0 0 0 68 39 75.701 75.701 0 0 1 9 6.5c2.71 1.747 5.71 2.747 9 3a22.162 22.162 0 0 1 4 6.5v221a12.93 12.93 0 0 1-.5 5c-4.241 1.758-8.075 4.091-11.5 7a63.089 63.089 0 0 0-10 3.5l-8 6a377.475 377.475 0 0 1-23 12l-5 5a112.343 112.343 0 0 0-17 8 257.907 257.907 0 0 0-28 17.5 101.18 101.18 0 0 1-17 8.5 472.117 472.117 0 0 1-46 26 813.198 813.198 0 0 0-25 15.5 306.525 306.525 0 0 0-30 17.5c-4.609 1.646-8.609 4.313-12 8-5.697 1.365-10.697 4.032-15 8-6.4 2.062-12.067 5.396-17 10a92.138 92.138 0 0 1-14 6 30.786 30.786 0 0 1-3 4.5 63.089 63.089 0 0 0-10 3.5c-1.918 2.928-4.585 4.594-8 5a112.692 112.692 0 0 0-10 6.5c-3.428-3.701-7.428-6.368-12-8a8.43 8.43 0 0 0 4-.5 358.181 358.181 0 0 1 27-16c4.117-3.541 8.784-6.208 14-8 2.537-2.546 5.537-4.212 9-5 3.31-3.497 7.31-5.83 12-7l6-5 22-11c3.619-3.977 7.952-6.644 13-8a199.899 199.899 0 0 1 27-17 5188.496 5188.496 0 0 0 168-96 73.86 73.86 0 0 0 9-3.5 7901.316 7901.316 0 0 0-1.5-216 2129.254 2129.254 0 0 1-37.5-21.5c-3.415-.406-6.082-2.072-8-5a91.311 91.311 0 0 1-23-13 457.332 457.332 0 0 0-22-11c-2.508-3.042-5.508-5.376-9-7a457.332 457.332 0 0 1-22-11l-24-15c-3.415-.406-6.082-2.072-8-5a90.401 90.401 0 0 0-14-6c-5.722-6.435-12.722-8.768-21-7-7.36 5.663-15.36 9.996-24 13-3.619 3.977-7.952 6.644-13 8-2.537 2.546-5.537 4.212-9 5l-4 4-10 4a2551.356 2551.356 0 0 0-60 36 7185.005 7185.005 0 0 1 26 16 114.065 114.065 0 0 0 14 6c4.2 3.6 8.867 6.433 14 8.5a684.54 684.54 0 0 1 19-8.5 43.593 43.593 0 0 1 13-8c2.365-3.714 5.698-5.714 10-6a705.673 705.673 0 0 1 21-12c4.719-2.307 9.719-2.974 15-2a113.107 113.107 0 0 0 28 15l5 5a182.852 182.852 0 0 1 35 20 193.115 193.115 0 0 1 32 19 197.694 197.694 0 0 1 17 8 69.2 69.2 0 0 1 4.5 6.5c.667 48.667.667 97.333 0 146-5.181 6.173-11.681 10.34-19.5 12.5a12318.477 12318.477 0 0 1-28 18c-6.381 2.027-12.048 5.361-17 10-6.943 1.604-12.943 4.937-18 10a169.642 169.642 0 0 0-28 14 493.877 493.877 0 0 1-36 21l-4 4a90.42 90.42 0 0 1-14 6c-5.236 4.899-11.236 8.566-18 11-3.31 3.497-7.31 5.83-12 7a78.986 78.986 0 0 0-8 6.5 80.953 80.953 0 0 0-5-11 208.311 208.311 0 0 1 5-4.5 131.76 131.76 0 0 0 17-10c4.75-1.03 8.75-3.363 12-7 8.111-3.673 15.778-7.84 23-12.5 7.041-5.192 14.708-9.359 23-12.5 1.918-2.928 4.585-4.594 8-5 4.365-2.845 8.698-5.678 13-8.5a66.953 66.953 0 0 1 10-4.5c3.492-1.624 6.492-3.958 9-7 5.319-1.548 9.985-4.215 14-8 4.815-1.431 9.148-3.598 13-6.5a161.434 161.434 0 0 1 24-12.5c3.908-3.449 8.242-6.116 13-8a49.056 49.056 0 0 0 8-5.5c1.979-1.668 4.312-2.334 7-2 .331-28.505-.002-56.838-1-85-1.799-3.005-2.466-6.338-2-10v-30c.3-4.599-.033-9.099-1-13.5a547.505 547.505 0 0 0-43-23.5c-.453-.958-1.119-1.792-2-2.5a478.277 478.277 0 0 0-22-11l-4-4a683.868 683.868 0 0 1-43-24.5 3162.857 3162.857 0 0 0-66 36.5 42.479 42.479 0 0 1-13 0 496.946 496.946 0 0 0-33-18 114.32 114.32 0 0 1-14-10 8.43 8.43 0 0 0-4-.5 77.777 77.777 0 0 1-11.5-11c-.667-1.667-.667-3.333 0-5l5.5-5.5a578.977 578.977 0 0 0 28-16.5 4170.73 4170.73 0 0 0 101-57.5c9.584-1.031 17.918 1.636 25 8 4.302.286 7.635 2.286 10 6a1126.1 1126.1 0 0 1 31 16c2.508 3.042 5.508 5.376 9 7 5.503 1.17 10.17 3.837 14 8a345.018 345.018 0 0 0 22 11.5ZM337.5 80.5a41029.43 41029.43 0 0 1 66 38c-6.549-.866-12.549.467-18 4-6.371-4.855-13.371-8.688-21-11.5-2.747-3.038-6.08-5.038-10-6a161.955 161.955 0 0 0-36-21 88.177 88.177 0 0 0-22-12 153.747 153.747 0 0 0-27-16 179.568 179.568 0 0 1-15-10A228.066 228.066 0 0 0 230 34.5 112.066 112.066 0 0 0 206.5 48l-10 4-3 3c-6.771 2.445-12.771 6.111-18 11l-10 4-4 4a520.666 520.666 0 0 0-59 34l-9 3c-3.796 3.592-8.13 6.259-13 8A361.546 361.546 0 0 1 48 137.5c-.667 72-.667 144 0 216a7214.146 7214.146 0 0 0 125 72c.5-21.664.667-43.331.5-65a340.197 340.197 0 0 0-18-8.5 55.63 55.63 0 0 0-18-10 78.488 78.488 0 0 0-23-13 56.965 56.965 0 0 0-10.5-7.5 2946.23 2946.23 0 0 1 1-153 230.435 230.435 0 0 0 32.5-19.5c8.372-3.019 16.038-7.352 23-13 5.093-1.382 9.426-4.049 13-8a90.42 90.42 0 0 0 14-6c1.918-2.928 4.585-4.594 8-5a226.438 226.438 0 0 1 29-17 42.498 42.498 0 0 1 13 0l4 4a154.79 154.79 0 0 0 13 6 1081.768 1081.768 0 0 0 33 20l4 1c8.98 5.636 17.98 11.302 27 17 7.27 1.913 13.604 5.58 19 11 2.861.54 5.528 1.54 8 3 1.614 2.127 3.614 3.627 6 4.5a78.083 78.083 0 0 1-13 6 438.662 438.662 0 0 0-36-20c-3.85-3.762-8.517-6.262-14-7.5a301.986 301.986 0 0 0-51-30l-4.5-4.5c-2.09.652-4.257.819-6.5.5a368.678 368.678 0 0 1-44 26 82.842 82.842 0 0 1-19 11c-2.118 1.049-3.784 2.549-5 4.5a128.789 128.789 0 0 1-27 13.5c-5.677 4.879-11.677 9.045-18 12.5-.994 10.487-1.328 21.154-1 32v104c2.203.104 4.203.77 6 2a1298.848 1298.848 0 0 0 62 35.5c3.679 4.43 5.012 9.597 4 15.5v39c.526 9.885-.307 19.552-2.5 29-2.909 2.894-6.409 3.727-10.5 2.5a311.175 311.175 0 0 1-33-18.5 5315.94 5315.94 0 0 1-83-48.5c-3.092.107-5.425-1.059-7-3.5a90.072 90.072 0 0 0-9-5.5c-1.504-1.491-2.337-3.324-2.5-5.5a800.393 800.393 0 0 1-.5-40v-164a109.108 109.108 0 0 1 1.5-23c3.467-1.5 6.967-3 10.5-4.5a75.766 75.766 0 0 1 9-6.5 997.3 997.3 0 0 0 68-39c5.756-1.426 10.756-4.26 15-8.5 22.924-12.6 45.591-25.6 68-39 5.14-1.446 9.806-3.78 14-7 4.872-.246 9.705-.746 14.5-1.5a6740.252 6740.252 0 0 0 100.5 57Z"/><path style="opacity:1" fill="#fdfdfd" d="M385.5 122.5c-13.444 9.248-16.777 21.414-10 36.5a200.266 200.266 0 0 0-24 7.5c-2.386-.873-4.386-2.373-6-4.5a24.569 24.569 0 0 0-8-3c-5.396-5.42-11.73-9.087-19-11a10892.14 10892.14 0 0 0-27-17l-4-1a1081.768 1081.768 0 0 1-33-20 154.79 154.79 0 0 1-13-6l-4-4a42.498 42.498 0 0 0-13 0 226.438 226.438 0 0 0-29 17c-3.415.406-6.082 2.072-8 5a90.42 90.42 0 0 1-14 6c-3.574 3.951-7.907 6.618-13 8-6.962 5.648-14.628 9.981-23 13a230.435 230.435 0 0 1-32.5 19.5 2946.23 2946.23 0 0 0-1 153 56.965 56.965 0 0 1 10.5 7.5 78.488 78.488 0 0 1 23 13 55.63 55.63 0 0 1 18 10 340.197 340.197 0 0 1 18 8.5c.167 21.669 0 43.336-.5 65a7214.146 7214.146 0 0 1-125-72c-.667-72-.667-144 0-216A361.546 361.546 0 0 0 80.5 119c4.87-1.741 9.204-4.408 13-8l9-3a520.666 520.666 0 0 1 59-34l4-4 10-4c5.229-4.889 11.229-8.555 18-11l3-3 10-4A112.066 112.066 0 0 1 230 34.5 228.066 228.066 0 0 1 254.5 46a179.568 179.568 0 0 0 15 10 153.747 153.747 0 0 1 27 16 88.177 88.177 0 0 1 22 12 161.955 161.955 0 0 1 36 21c3.92.962 7.253 2.962 10 6 7.629 2.812 14.629 6.645 21 11.5ZM439.5 530.5a102.078 102.078 0 0 0-18-1v-51a97.982 97.982 0 0 1 22-12c11.231 7.924 23.231 9.091 36 3.5 10.388-7.665 14.388-17.831 12-30.5a78.986 78.986 0 0 1 8-6.5c4.69-1.17 8.69-3.503 12-7 6.764-2.434 12.764-6.101 18-11a90.42 90.42 0 0 0 14-6l4-4a493.877 493.877 0 0 0 36-21 169.642 169.642 0 0 1 28-14c5.057-5.063 11.057-8.396 18-10 4.952-4.639 10.619-7.973 17-10 9.313-5.969 18.646-11.969 28-18 7.819-2.16 14.319-6.327 19.5-12.5.667-48.667.667-97.333 0-146a69.2 69.2 0 0 0-4.5-6.5 197.694 197.694 0 0 0-17-8 193.115 193.115 0 0 0-32-19 182.852 182.852 0 0 0-35-20l-5-5a113.107 113.107 0 0 1-28-15c-5.281-.974-10.281-.307-15 2a705.673 705.673 0 0 0-21 12c-4.302.286-7.635 2.286-10 6a43.593 43.593 0 0 0-13 8 684.54 684.54 0 0 0-19 8.5 50.162 50.162 0 0 1-14-8.5 114.065 114.065 0 0 1-14-6 7185.005 7185.005 0 0 0-26-16 2551.356 2551.356 0 0 1 60-36l10-4 4-4c3.463-.788 6.463-2.454 9-5 5.048-1.356 9.381-4.023 13-8 8.64-3.004 16.64-7.337 24-13 8.278-1.768 15.278.565 21 7a90.401 90.401 0 0 1 14 6c1.918 2.928 4.585 4.594 8 5l24 15a457.332 457.332 0 0 0 22 11c3.492 1.624 6.492 3.958 9 7a457.332 457.332 0 0 1 22 11 91.311 91.311 0 0 0 23 13c1.918 2.928 4.585 4.594 8 5a2129.254 2129.254 0 0 0 37.5 21.5 7901.316 7901.316 0 0 1 1.5 216 73.86 73.86 0 0 1-9 3.5 5188.496 5188.496 0 0 1-168 96 199.899 199.899 0 0 0-27 17c-5.048 1.356-9.381 4.023-13 8l-22 11-6 5c-4.69 1.17-8.69 3.503-12 7-3.463.788-6.463 2.454-9 5-5.216 1.792-9.883 4.459-14 8a358.181 358.181 0 0 0-27 16 8.43 8.43 0 0 1-4 .5Z"/><path style="opacity:1" fill="#f8be20" d="M72.5 79.5h53a997.3 997.3 0 0 1-68 39h-51c1.184-1.188 1.184-2.355 0-3.5a169.104 169.104 0 0 0 15-5.5v-3a58.967 58.967 0 0 0 11-3v-3a417.79 417.79 0 0 0 15-7 32.686 32.686 0 0 0 8.5-6l1 1c1.049-1.607 2.549-2.273 4.5-2v-3c3.666-1.331 7.333-2.664 11-4Z"/><path style="opacity:1" fill="#f7bd20" d="M337.5 80.5c6.479-.99 13.146-1.324 20-1 1.419.951 3.085 1.284 5 1v3h6v3c2.133 1.386 5.133 2.386 9 3v3c2.908-.238 5.242.762 7 3l2-1c.35 2.067 2.017 3.067 5 3v3h6v3c2.516-.255 4.85-1.089 7-2.5a626.207 626.207 0 0 1 29-17c.837-1.011 1.17-2.178 1-3.5 1.915.284 3.581-.049 5-1 6.854-.324 13.521.01 20 1a578.977 578.977 0 0 1-28 16.5l-5.5 5.5c-.667 1.667-.667 3.333 0 5a77.777 77.777 0 0 0 11.5 11h-34a41029.43 41029.43 0 0 0-66-38Z"/><path style="opacity:1" fill="#f8be20" d="M671.5 79.5h53c1.765.961 3.765 1.295 6 1v3h5v3c1.951-.273 3.451.393 4.5 2l1-1c6 4.386 12.5 7.886 19.5 10.5l-1 1c1.525 1.009 3.192 1.509 5 1.5v3h6v3h5v3c2.041.354 3.874.354 5.5 0 .483.948.649 1.948.5 3 2.836 1.276 5.836 1.942 9 2 .027 1.699.694 3.033 2 4h-53a2174.432 2174.432 0 0 1-68-39Z"/><path style="opacity:1" fill="#f9b91e" d="M6.5 118.5h51a75.766 75.766 0 0 0-9 6.5c-3.533 1.5-7.033 3-10.5 4.5a109.108 109.108 0 0 0-1.5 23h-30v-34Z"/><path style="opacity:1" fill="#f8b71e" d="M302.5 152.5h-144c1.216-1.951 2.882-3.451 5-4.5a82.842 82.842 0 0 0 19-11 368.678 368.678 0 0 0 44-26c2.243.319 4.41.152 6.5-.5l4.5 4.5a301.986 301.986 0 0 1 51 30c5.483 1.238 10.15 3.738 14 7.5Z"/><path style="opacity:1" fill="#f7b71e" d="M638.5 152.5h-177a97.144 97.144 0 0 0-18-9.5c-2.508-3.042-5.508-5.376-9-7a98.758 98.758 0 0 1-12-5.5c-4.579-5.585-10.246-9.585-17-12h32a8.43 8.43 0 0 1 4 .5 114.32 114.32 0 0 0 14 10 496.946 496.946 0 0 1 33 18c4.333.667 8.667.667 13 0a3162.857 3162.857 0 0 1 66-36.5 683.868 683.868 0 0 0 43 24.5l4 4a478.277 478.277 0 0 1 22 11c.881.708 1.547 1.542 2 2.5Z"/><path style="opacity:1" fill="#f9b91e" d="M739.5 118.5h53v34h-30c.323-6.19-.01-12.19-1-18a22.162 22.162 0 0 0-4-6.5c-3.29-.253-6.29-1.253-9-3a75.701 75.701 0 0 0-9-6.5Z"/><path style="opacity:1" fill="#242020" d="M403.5 118.5h2c6.754 2.415 12.421 6.415 17 12 2.958 4.544 4.291 9.544 4 15 .46 4.989-.54 9.656-3 14 29.383 6.402 53.717 21.069 73 44 15.193-1.83 25.693 4.17 31.5 18 .852 4.496.352 8.83-1.5 13 17.924-3.605 34.257.229 49 11.5 2.923 2.416 5.257 5.25 7 8.5 13.546 18.97 15.712 39.303 6.5 61-1.676 4.027-3.842 7.694-6.5 11a76.389 76.389 0 0 1-11 17 225.865 225.865 0 0 1-33 32 14415.519 14415.519 0 0 0-25 18 2965.45 2965.45 0 0 1-54 32.5c-5.471 4.457-8.804 10.124-10 17-.193 2.008.474 3.508 2 4.5-1.001 1.289-.834 2.622.5 4 2.249 2.871 5.082 4.871 8.5 6 6.995 1.622 11.995-.711 15-7 1.907-5.218.574-9.551-4-13 .655-9.76 5.655-12.76 15-9a80.953 80.953 0 0 1 5 11c2.388 12.669-1.612 22.835-12 30.5-12.769 5.591-24.769 4.424-36-3.5a67.99 67.99 0 0 0-8-9 92.404 92.404 0 0 1-2.5-17 35.267 35.267 0 0 1-11.5 5v84c6.045-.197 12.045.137 18 1 4.572 1.632 8.572 4.299 12 8 2.61 5.327 3.61 10.994 3 17 5.921 1.798 12.254 2.631 19 2.5 7.587 1.918 13.087 6.418 16.5 13.5a196.046 196.046 0 0 1 1 38c-.594 4.637-2.428 8.637-5.5 12-3.178 2.758-6.845 4.758-11 6h-152c-2.831-.579-5.164-1.912-7-4-3.991-3.835-6.491-8.502-7.5-14a196.046 196.046 0 0 1 1-38c2.833-5.5 7-9.667 12.5-12.5 7.996-.724 15.663-1.89 23-3.5-.698-5.561.302-10.727 3-15.5-.556-.383-.889-.883-1-1.5 3.315-2.308 6.649-4.641 10-7 6.851-1.784 13.851-2.45 21-2v-64a91.123 91.123 0 0 0-1-19l-10-5a55.22 55.22 0 0 1-4 16 75.629 75.629 0 0 1-7 9c-12.744 8.578-25.744 9.078-39 1.5-2.594-2.086-4.594-4.586-6-7.5-5.839-10.771-5.172-21.104 2-31 8.936-4.368 13.936-1.702 15 8-4.574 3.449-5.907 7.782-4 13 2.835 5.805 7.502 8.139 14 7 4.849-.856 8.182-3.523 10-8 2.458-4.116 2.624-8.45.5-13a40.616 40.616 0 0 0-8.5-10.5 2516.81 2516.81 0 0 1-58-35.5c-3.992-2.664-7.992-5.33-12-8-14.502-10.992-28.002-23.325-40.5-37a130.126 130.126 0 0 1-14.5-22c-10.476-17.515-12.476-36.015-6-55.5a155.767 155.767 0 0 1 6-10.5c13.467-20.553 32.301-27.887 56.5-22-3.096-13.973 2.07-24.14 15.5-30.5a130.373 130.373 0 0 0 16-1.5c3.689-4.02 7.355-8.02 11-12a59.425 59.425 0 0 1 7-5.5c1.323-.816 1.989-1.983 2-3.5a4.934 4.934 0 0 0 3-.5c4.401-3.188 8.734-6.355 13-9.5a78.083 78.083 0 0 0 13-6 200.266 200.266 0 0 1 24-7.5c-6.777-15.086-3.444-27.252 10-36.5 5.451-3.533 11.451-4.866 18-4Z"/><path style="opacity:1" fill="#273338" d="M422.5 130.5a98.758 98.758 0 0 0 12 5.5c3.492 1.624 6.492 3.958 9 7a97.144 97.144 0 0 1 18 9.5 3107.047 3107.047 0 0 1 65 37c4.862 4.342 10.528 7.176 17 8.5a57.376 57.376 0 0 0 14 10c4.69 1.17 8.69 3.503 12 7a81.1 81.1 0 0 0 11 4.5c4.379 3.86 9.213 7.194 14.5 10 .5 7.993.666 15.993.5 24v76a46.809 46.809 0 0 1-1 13 11321.75 11321.75 0 0 1-40 25 113.323 113.323 0 0 1-16 8 225.865 225.865 0 0 0 33-32 62.805 62.805 0 0 1 11.5-6c.81-3.858.643-7.524-.5-11 2.658-3.306 4.824-6.973 6.5-11 9.212-21.697 7.046-42.03-6.5-61 1.317-6.178 1.317-12.512 0-19a10.756 10.756 0 0 1-3-2.5 478.277 478.277 0 0 0-22-11l-4-4a299.672 299.672 0 0 1-27-14 77.598 77.598 0 0 0-23-13c-2.508-3.042-5.508-5.376-9-7-5.521-1.096-10.187-3.762-14-8-4.581-1.292-8.581-3.625-12-7a1293.748 1293.748 0 0 1-42-23.5c.291-5.456-1.042-10.456-4-15Z"/><path style="opacity:1" fill="#ea7807" d="M394.5 135.5c11.989-1.843 17.156 3.157 15.5 15-3.29 5.561-8.123 7.727-14.5 6.5-6.408-3.323-8.575-8.489-6.5-15.5 1.36-2.523 3.193-4.523 5.5-6Z"/><path style="opacity:1" fill="#f7f7f7" d="M426.5 145.5a1293.748 1293.748 0 0 0 42 23.5c3.419 3.375 7.419 5.708 12 7 3.813 4.238 8.479 6.904 14 8 3.492 1.624 6.492 3.958 9 7a77.598 77.598 0 0 1 23 13 299.672 299.672 0 0 0 27 14l4 4a478.277 478.277 0 0 1 22 11 10.756 10.756 0 0 0 3 2.5c1.317 6.488 1.317 12.822 0 19-1.743-3.25-4.077-6.084-7-8.5-14.743-11.271-31.076-15.105-49-11.5 1.852-4.17 2.352-8.504 1.5-13-5.807-13.83-16.307-19.83-31.5-18-19.283-22.931-43.617-37.598-73-44 2.46-4.344 3.46-9.011 3-14Z"/><path style="opacity:1" fill="#fab31c" d="M6.5 152.5h30v37h-30v-37Z"/><path style="opacity:1" fill="#f9b21c" d="M158.5 152.5h144a438.662 438.662 0 0 1 36 20 1923.106 1923.106 0 0 1-13 9.5 4.934 4.934 0 0 1-3 .5c-5.373-1.632-10.373-4.132-15-7.5a25.238 25.238 0 0 0-10 0l-2.5 2.5c-1.049-1.017-2.216-1.184-3.5-.5-6.722 5.392-14.055 9.559-22 12.5h-156v-11c6.323-3.455 12.323-7.621 18-12.5a128.789 128.789 0 0 0 27-13.5ZM461.5 152.5h177a547.505 547.505 0 0 1 43 23.5c.967 4.401 1.3 8.901 1 13.5h-156a3107.047 3107.047 0 0 0-65-37Z"/><path style="opacity:1" fill="#fab31c" d="M762.5 152.5h30v37h-30v-37Z"/><path style="opacity:1" fill="#273238" d="M322.5 182.5c-.011 1.517-.677 2.684-2 3.5a59.425 59.425 0 0 0-7 5.5 60.188 60.188 0 0 1-9-4.5c-1.333-.667-2.667-.667-4 0l-20 10-4 4c-7.273 1.918-13.607 5.585-19 11a24.569 24.569 0 0 0-8 3 6204.11 6204.11 0 0 1-24 15 239.706 239.706 0 0 0-12 5.5c-.325 7.519.008 14.852 1 22a155.767 155.767 0 0 0-6 10.5c-6.476 19.485-4.476 37.985 6 55.5a16964.622 16964.622 0 0 0-.5 319 46.99 46.99 0 0 0 10.5 5.5l4 4a90.42 90.42 0 0 0 14 6 77.598 77.598 0 0 0 23 13l4 4 10 4c4.933 4.604 10.6 7.938 17 10 3.574 3.951 7.907 6.618 13 8 6.962 5.648 14.628 9.981 23 13 1.918 2.928 4.585 4.594 8 5a78.488 78.488 0 0 0 23 13c3.671 4.417 8.338 7.083 14 8l4 4a95.947 95.947 0 0 1 15 8c5.344-.672 10.011-3.005 14-7 6.4-2.062 12.067-5.396 17-10 4.954-2.323 9.954-4.657 15-7a14998.59 14998.59 0 0 1 140-81.5c1.167-48.663 1.333-97.33.5-146a599.649 599.649 0 0 0-36.5 21.5l-4 1c-3.439 3.52-7.439 6.02-12 7.5.167 10.672 0 21.339-.5 32l-2 2-1 50c-6.566 5.29-13.732 9.457-21.5 12.5-3.619 3.977-7.952 6.644-13 8a176.797 176.797 0 0 0-19 12l-22 11a679.07 679.07 0 0 1-23 15c-8.372 3.019-16.038 7.352-23 13-4 .667-8 .667-12 0l-11-7a24.569 24.569 0 0 0-8-3 643.917 643.917 0 0 1-29-18c-5.628-.991-10.295-3.658-14-8a420.445 420.445 0 0 1-32-17c-4.758-4.768-10.425-7.768-17-9-4.729-2.721-8.896-6.221-12.5-10.5-.5-75.666-.667-151.333-.5-227 4.008 2.67 8.008 5.336 12 8v215c3.978-.534 6.978.966 9 4.5a420.812 420.812 0 0 1 25 13.5c1.836 2.088 4.169 3.421 7 4 1.074 1.385 2.407 2.551 4 3.5a90.42 90.42 0 0 0 14 6 523.182 523.182 0 0 0 22 15c8.681 3.01 16.681 7.344 24 13 4.471 2.161 8.971 4.327 13.5 6.5a2929.62 2929.62 0 0 1 12.5-8.5 146.497 146.497 0 0 0 31-18c5.093-1.382 9.426-4.049 13-8 5.945-1.31 11.279-3.81 16-7.5 1-.333 1.667-1 2-2 4.155-1.242 7.822-3.242 11-6a203.292 203.292 0 0 0 21-11.5c2.945-3.418 6.612-5.584 11-6.5a553.172 553.172 0 0 0 1-47v-23a84.902 84.902 0 0 1 .5-13 768.781 768.781 0 0 0 38.5-23.5c5.662-.917 10.329-3.583 14-8a58.12 58.12 0 0 0 11-5c4.652-1.193 8.819-.36 12.5 2.5.499 4.989.666 9.989.5 15v103c.167 12.671 0 25.338-.5 38a35.09 35.09 0 0 1-6.5 10c-5.397 4.345-11.397 7.512-18 9.5a219.87 219.87 0 0 0-13 10 78.488 78.488 0 0 0-23 13 134.402 134.402 0 0 0-12 5 208.311 208.311 0 0 0-5 4.5 268.192 268.192 0 0 1-18 8.5 319.99 319.99 0 0 1-46 27c-3.25 3.637-7.25 5.97-12 7-3.492 1.624-6.492 3.958-9 7-6.761 1.869-12.761 5.202-18 10-4.976 2.639-10.31 4.472-16 5.5a54.915 54.915 0 0 1-10-2.5 35.157 35.157 0 0 0-10-5c-3.796-3.592-8.129-6.259-13-8a279.412 279.412 0 0 0-19-12c-3.959.349-6.626-1.317-8-5-8.36-3.016-16.027-7.349-23-13a73.44 73.44 0 0 1-14-8c-5.503-1.171-10.17-3.837-14-8a49.948 49.948 0 0 0-8-3.5 208.311 208.311 0 0 0-5-4.5c-13.993-6.284-27.327-13.95-40-23-5.503-1.171-10.17-3.837-14-8a192.372 192.372 0 0 1-14-6.5c-1.141-1.588-2.641-2.921-4.5-4a2311.03 2311.03 0 0 1-.5-68v-332c-.166-5.676.001-11.343.5-17 5.32-5.009 11.154-9.009 17.5-12a378.005 378.005 0 0 0 35-21.5c6.137-.937 11.137-3.77 15-8.5 7.945-2.941 15.278-7.108 22-12.5 1.284-.684 2.451-.517 3.5.5l2.5-2.5a25.238 25.238 0 0 1 10 0c4.627 3.368 9.627 5.868 15 7.5Z"/><path style="opacity:1" fill="#eb7807" d="M410.5 174.5a12.93 12.93 0 0 0-5 .5c-12.341 5.655-23.674 12.988-34 22-2.29 1.777-3.957 3.944-5 6.5-.667 0-1 .333-1 1a420.766 420.766 0 0 1-41-1c24.324-22.58 52.991-32.247 86-29Z"/><path style="opacity:1" fill="#fd9800" d="M410.5 174.5c24.187 2.387 45.187 11.72 63 28a2863.174 2863.174 0 0 1-107 1c1.043-2.556 2.71-4.723 5-6.5 10.326-9.012 21.659-16.345 34-22a12.93 12.93 0 0 1 5-.5Z"/><path style="opacity:1" fill="#f9f9f9" d="M313.5 191.5c-3.645 3.98-7.311 7.98-11 12a130.373 130.373 0 0 1-16 1.5c-13.43 6.36-18.596 16.527-15.5 30.5-24.199-5.887-43.033 1.447-56.5 22-.992-7.148-1.325-14.481-1-22a239.706 239.706 0 0 1 12-5.5 6204.11 6204.11 0 0 0 24-15 24.569 24.569 0 0 1 8-3c5.393-5.415 11.727-9.082 19-11l4-4 20-10c1.333-.667 2.667-.667 4 0a60.188 60.188 0 0 0 9 4.5Z"/><path style="opacity:1" fill="#faac1b" d="M6.5 189.5h30v30h-30v-30Z"/><path style="opacity:1" fill="#f9ac1b" d="M113.5 178.5v11h156c-3.863 4.73-8.863 7.563-15 8.5a378.005 378.005 0 0 1-35 21.5h-106c.31-3.213-.023-6.213-1-9-.328-10.846.006-21.513 1-32ZM526.5 189.5h156v30h-102a81.1 81.1 0 0 1-11-4.5c-3.31-3.497-7.31-5.83-12-7a57.376 57.376 0 0 1-14-10c-6.472-1.324-12.138-4.158-17-8.5Z"/><path style="opacity:1" fill="#faac1b" d="M762.5 189.5h30v30h-30v-30Z"/><path style="opacity:1" fill="#dc8505" d="M473.5 202.5c.667 0 1 .333 1 1a2971.316 2971.316 0 0 1-109 1c0-.667.333-1 1-1 35.837.332 71.504-.002 107-1Z"/><path style="opacity:1" fill="#422f1b" d="M324.5 203.5a420.766 420.766 0 0 0 41 1c36.504.332 72.837-.002 109-1 .543.06.876.393 1 1a2889.222 2889.222 0 0 1-152 0c.124-.607.457-.94 1-1Z"/><path style="opacity:1" fill="#f43e20" d="M290.5 221.5c14.004-.167 28.004 0 42 .5-1.295 2.801-1.295 5.634 0 8.5a441.814 441.814 0 0 1-42 1c-5.282-3.476-5.282-6.809 0-10Z"/><path style="opacity:1" fill="#e7571d" d="M290.5 221.5a7925.974 7925.974 0 0 1 218-.5c5.315 3.617 5.315 7.283 0 11l-45 1c-2.524 1.883-3.858 4.383-4 7.5h-11c-.044-3.59-1.711-6.09-5-7.5-51.168-.167-102.168-.667-153-1.5a441.814 441.814 0 0 0 42-1c-1.295-2.866-1.295-5.699 0-8.5a881.746 881.746 0 0 0-42-.5Z"/><path style="opacity:1" fill="#f9a51a" d="M6.5 219.5h30v34h-30v-34Z"/><path style="opacity:1" fill="#f8a51a" d="M112.5 210.5c.977 2.787 1.31 5.787 1 9h106c-6.346 2.991-12.18 6.991-17.5 12a145.053 145.053 0 0 0-.5 17c-.951 1.419-1.284 3.085-1 5h-88v-43ZM580.5 219.5h102c-.466 3.662.201 6.995 2 10v24h-89c.166-8.007 0-16.007-.5-24-5.287-2.806-10.121-6.14-14.5-10Z"/><path style="opacity:1" fill="#f9a51a" d="M762.5 219.5h30v34h-30v-34Z"/><path style="opacity:1" fill="#fe9800" d="M448.5 240.5h11c.634 3.143 2.3 5.643 5 7.5 9.994.5 19.994.666 30 .5-.741 40.034-8.241 78.701-22.5 116-8.518 22.491-21.684 41.657-39.5 57.5a61.464 61.464 0 0 1-16 8.5c-14.205-11.373-25.705-25.04-34.5-41-21.52-44.411-32.687-91.411-33.5-141 31.335.167 62.668 0 94-.5 3.546-1.256 5.546-3.756 6-7.5Z"/><path style="opacity:1" fill="#f89f18" d="M201.5 248.5v28c-.934 1.068-1.268 2.401-1 4h-87c.284 1.915-.049 3.581-1 5v-32h88c-.284-1.915.049-3.581 1-5Z"/><path style="opacity:1" fill="#ee7906" d="M348.5 248.5c.813 49.589 11.98 96.589 33.5 141 8.795 15.96 20.295 29.627 34.5 41-13.977 4.631-27.644 3.797-41-2.5-14.07-9.282-25.57-21.115-34.5-35.5-24.263-44.779-36.43-92.779-36.5-144h44Z"/><path style="opacity:1" fill="#fafafa" d="M281.5 259.5c-4.478 1.956-8.312 4.956-11.5 9a577.896 577.896 0 0 0-.5 34c-13.349-.178-19.516-6.845-18.5-20a21.53 21.53 0 0 1 5-6c3.921-5.395 3.088-9.895-2.5-13.5-4.617-1.297-8.45-.13-11.5 3.5-10.355 14.537-9.855 28.703 1.5 42.5 7.3 6.813 15.966 9.979 26 9.5a441.579 441.579 0 0 1-1 42c-18.717-13.877-33.217-31.21-43.5-52-8.575-21.365-4.075-39.198 13.5-53.5 15.462-8.339 29.796-6.839 43 4.5ZM528.5 362.5a484.723 484.723 0 0 1-1-44c27.581-.875 39.415-14.875 35.5-42-2.416-5.407-5.916-9.907-10.5-13.5-6.234-1.424-10.234.91-12 7a18.091 18.091 0 0 0 2.5 6.5c6.522 6.036 7.189 12.703 2 20-4.983 4.405-10.816 6.405-17.5 6 .167-11.338 0-22.672-.5-34-2.167-1.5-4-3.333-5.5-5.5-1.284-.684-2.451-.517-3.5.5-1.039-.744-1.539-1.744-1.5-3 13.192-12.289 27.859-14.123 44-5.5 15.521 11.897 20.688 27.397 15.5 46.5-3.752 12.843-10.085 24.176-19 34a360.014 360.014 0 0 1-28.5 27Z"/><path style="opacity:1" fill="#f99f18" d="M6.5 253.5h30v27h-30v-27Z"/><path style="opacity:1" fill="#f89f18" d="M595.5 253.5h89v27h-88c.284 1.915-.049 3.581-1 5v-32Z"/><path style="opacity:1" fill="#f19b1a" d="M761.5 134.5c.99 5.81 1.323 11.81 1 18v101h30v27h-30v36a380.934 380.934 0 0 1-1 39v-221Z"/><path style="opacity:1" fill="#263238" d="M281.5 259.5c3.079 2.757 5.412 6.09 7 10a25.53 25.53 0 0 0-6.5 5 242.43 242.43 0 0 0-.5 22c-2.879 4.08-6.879 6.08-12 6-.167-11.338 0-22.672.5-34 3.188-4.044 7.022-7.044 11.5-9ZM516.5 260.5c-.039 1.256.461 2.256 1.5 3 1.049-1.017 2.216-1.184 3.5-.5 1.5 2.167 3.333 4 5.5 5.5.5 11.328.667 22.662.5 34-4.488-1.076-8.155-3.409-11-7 .33-7.032-.003-14.032-1-21a514.367 514.367 0 0 0-4-3c-.311-4.392 1.356-8.058 5-11Z"/><path style="opacity:1" fill="#f89817" d="M201.5 276.5v35c-.951 1.419-1.284 3.085-1 5h-82c-1.797-1.23-3.797-1.896-6-2v-29c.951-1.419 1.284-3.085 1-5h87c-.268-1.599.066-2.932 1-4Z"/><path style="opacity:1" fill="#f39718" d="M288.5 269.5c3.056 10.532.722 19.532-7 27-.166-7.341 0-14.674.5-22a25.53 25.53 0 0 1 6.5-5Z"/><path style="opacity:1" fill="#f99816" d="M6.5 280.5h30v36h-30v-36Z"/><path style="opacity:1" fill="#f19618" d="M511.5 271.5c1.315.976 2.648 1.976 4 3a111.148 111.148 0 0 1 1 21c-3.161-2.975-5.328-6.642-6.5-11l-.5-6.5c.033-2.61.7-4.777 2-6.5Z"/><path style="opacity:1" fill="#f79717" d="M684.5 229.5a1807.264 1807.264 0 0 1 1 85c-2.688-.334-5.021.332-7 2h-82c.318 4.532-.015 8.866-1 13v-44c.951-1.419 1.284-3.085 1-5h88v-51Z"/><path style="opacity:1" fill="#f99816" d="M792.5 280.5v36h-30v-36h30Z"/><path style="opacity:1" fill="#f79015" d="M201.5 311.5v52c-.934 1.068-1.268 2.401-1 4h-16c1.012-5.903-.321-11.07-4-15.5a1298.848 1298.848 0 0 1-62-35.5h82c-.284-1.915.049-3.581 1-5Z"/><path style="opacity:1" fill="#263137" d="M281.5 316.5v54a4511.123 4511.123 0 0 0-13-10 441.579 441.579 0 0 0 1-42c4.174.166 8.174-.5 12-2ZM516.5 315.5c3.301 2.077 6.968 3.077 11 3a484.723 484.723 0 0 0 1 44c-3.31 2.301-6.643 4.634-10 7a579.879 579.879 0 0 1-2-54Z"/><path style="opacity:1" fill="#f79115" d="M678.5 316.5a49.056 49.056 0 0 1-8 5.5c-4.758 1.884-9.092 4.551-13 8a161.434 161.434 0 0 0-24 12.5h-39a46.809 46.809 0 0 0 1-13c.985-4.134 1.318-8.468 1-13h82Z"/><path style="opacity:1" fill="#fefefe" d="M214.5 323.5c4.067 7.79 8.9 15.124 14.5 22 12.498 13.675 25.998 26.008 40.5 37-.167 75.667 0 151.334.5 227 3.604 4.279 7.771 7.779 12.5 10.5 6.575 1.232 12.242 4.232 17 9a420.445 420.445 0 0 0 32 17c3.705 4.342 8.372 7.009 14 8a643.917 643.917 0 0 0 29 18c2.861.54 5.528 1.54 8 3l11 7c4 .667 8 .667 12 0 6.962-5.648 14.628-9.981 23-13a679.07 679.07 0 0 0 23-15l22-11a176.797 176.797 0 0 1 19-12c5.048-1.356 9.381-4.023 13-8 7.768-3.043 14.934-7.21 21.5-12.5l1-50 2-2c.5-10.661.667-21.328.5-32 4.561-1.48 8.561-3.98 12-7.5l4-1a599.649 599.649 0 0 1 36.5-21.5c.833 48.67.667 97.337-.5 146a14998.59 14998.59 0 0 0-140 81.5 4394.799 4394.799 0 0 0-15 7c-4.933 4.604-10.6 7.938-17 10-3.989 3.995-8.656 6.328-14 7a95.947 95.947 0 0 0-15-8l-4-4c-5.662-.917-10.329-3.583-14-8a78.488 78.488 0 0 1-23-13c-3.415-.406-6.082-2.072-8-5-8.372-3.019-16.038-7.352-23-13-5.093-1.382-9.426-4.049-13-8-6.4-2.062-12.067-5.396-17-10l-10-4-4-4a77.598 77.598 0 0 1-23-13 90.42 90.42 0 0 1-14-6l-4-4a46.99 46.99 0 0 1-10.5-5.5c-.833-106.501-.666-212.834.5-319Z"/><path style="opacity:1" fill="#e9eaea" d="M582.5 326.5c1.143 3.476 1.31 7.142.5 11a62.805 62.805 0 0 0-11.5 6 76.389 76.389 0 0 0 11-17Z"/><path style="opacity:1" fill="#f58914" d="M281.5 370.5v-54c4.015-1.825 7.682-4.325 11-7.5.983-.591 1.65-.257 2 1 5.623 31.207 15.79 60.707 30.5 88.5a420.39 420.39 0 0 1-43.5-28Z"/><path style="opacity:1" fill="#f88d14" d="M6.5 316.5h30c-.167 13.337 0 26.671.5 40 .163 2.176.996 4.009 2.5 5.5a90.072 90.072 0 0 1 9 5.5h-36c-1.815-1.13-3.815-1.796-6-2v-49Z"/><path style="opacity:1" fill="#f58914" d="M516.5 315.5a579.879 579.879 0 0 0 2 54c-14.17 11.222-29.17 20.555-45 28 15.392-27.341 25.726-56.508 31-87.5l1-1.5c3.216 3.104 6.882 5.437 11 7Z"/><path style="opacity:1" fill="#f58915" d="M594.5 342.5h39c-3.852 2.902-8.185 5.069-13 6.5-4.015 3.785-8.681 6.452-14 8-2.508 3.042-5.508 5.376-9 7a66.953 66.953 0 0 0-10 4.5c-10.821-.995-21.821-1.328-33-1a11321.75 11321.75 0 0 0 40-25Z"/><path style="opacity:1" fill="#f88d14" d="M762.5 316.5h30v49c-3.013-.128-5.513.872-7.5 3a14.093 14.093 0 0 0-3.5-1h-32c3.425-2.909 7.259-5.242 11.5-7a12.93 12.93 0 0 0 .5-5 380.934 380.934 0 0 0 1-39Z"/><path style="opacity:1" fill="#f58313" d="M554.5 367.5c11.179-.328 22.179.005 33 1a5281.345 5281.345 0 0 1-13 8.5c-3.415.406-6.082 2.072-8 5-8.292 3.141-15.959 7.308-23 12.5-9.819-.994-19.819-1.327-30-1 8.355-6.029 16.688-12.029 25-18a113.323 113.323 0 0 0 16-8Z"/><path style="opacity:1" fill="#f88111" d="M201.5 363.5v51c-.951 1.419-1.284 3.085-1 5h-15c.318-4.532-.015-8.866-1-13v-39h16c-.268-1.599.066-2.932 1-4Z"/><path style="opacity:1" fill="#f78011" d="M12.5 367.5h36c1.575 2.441 3.908 3.607 7 3.5a5315.94 5315.94 0 0 0 83 48.5h-40v-3a27.267 27.267 0 0 0-9-3v-3c-2.908.238-5.242-.762-7-3a3.647 3.647 0 0 0-1.5 1c-1.667-1-3-2.333-4-4l-1 1a4.932 4.932 0 0 1-.5-3h-6v-3h-5v-3a544.412 544.412 0 0 1-29-14v-3a58.967 58.967 0 0 1-11-3v-3h-6v-3c-2.284-.529-4.284-1.529-6-3Z"/><path style="opacity:1" fill="#f37b11" d="M513.5 393.5c10.181-.327 20.181.006 30 1-7.222 4.66-14.889 8.827-23 12.5-3.25 3.637-7.25 5.97-12 7a131.76 131.76 0 0 1-17 10 208.311 208.311 0 0 0-5 4.5c-9.345-3.76-14.345-.76-15 9-6.469 1.615-12.136 4.782-17 9.5a4.934 4.934 0 0 1-3 .5c-1.526-.992-2.193-2.492-2-4.5 1.196-6.876 4.529-12.543 10-17a2965.45 2965.45 0 0 0 54-32.5Z"/><path style="opacity:1" fill="#f78011" d="M749.5 367.5h32v3c-1.701.466-3.201.466-4.5 0-3.844 1.975-7.177 4.642-10 8l-1-1c-1.049 1.607-2.549 2.273-4.5 2v3c-3.937.204-7.604 1.204-11 3 .381 2.442-.286 3.109-2 2-.886.825-1.219 1.825-1 3h-6v3a12.93 12.93 0 0 0-5 .5c-1.079 2.043-2.746 3.376-5 4l1 1a12.93 12.93 0 0 1-5 .5v3a9.86 9.86 0 0 0-6 1c-3.423 1.192-6.256 3.192-8.5 6l-1-1c-1.049 1.607-2.549 2.273-4.5 2v3h-6v3h-5v3h-38a257.907 257.907 0 0 1 28-17.5 112.343 112.343 0 0 1 17-8l5-5a377.475 377.475 0 0 0 23-12l8-6a63.089 63.089 0 0 1 10-3.5Z"/><path style="opacity:1" fill="#f7770f" d="M184.5 406.5c.985 4.134 1.318 8.468 1 13h15c-.284-1.915.049-3.581 1-5v43c-.985 4.134-1.318 8.468-1 13h-14c.884-3.99-.449-6.823-4-8.5a456.087 456.087 0 0 0-25-14c-6.204-2.789-12.537-4.622-19-5.5v-3h-6v-3h-3v-3h-6v-3h-5v-3c-2.921.354-5.254-.646-7-3-1.714 1.109-2.381.442-2-2a12.93 12.93 0 0 1-5-.5c-.752-.671-1.086-1.504-1-2.5h35a311.175 311.175 0 0 0 33 18.5c4.091 1.227 7.591.394 10.5-2.5 2.193-9.448 3.026-19.115 2.5-29Z"/><path style="opacity:1" fill="#f5790f" d="M281.5 390.5a2516.81 2516.81 0 0 0 58 35.5 40.616 40.616 0 0 1 8.5 10.5c2.124 4.55 1.958 8.884-.5 13a88.52 88.52 0 0 0-20-12c-1.064-9.702-6.064-12.368-15-8-3.836-3.945-7.669-3.945-11.5 0a684.346 684.346 0 0 0-.5 37c-.992-7.148-1.325-14.481-1-22h-17c.268-1.599-.066-2.932-1-4v-50Z"/><path style="opacity:1" fill="#273238" d="M312.5 429.5c-7.172 9.896-7.839 20.229-2 31-1.16 13.16-1.327 26.494-.5 40 2.039 1.478 2.872 3.478 2.5 6 1.808-.009 3.475.491 5 1.5a591.678 591.678 0 0 0 39 23.5 2349.814 2349.814 0 0 1-10 7c-.958-.453-1.792-1.119-2.5-2-1.049 1.017-2.216 1.184-3.5.5-1.333-2-3-3.667-5-5a272.604 272.604 0 0 1-34.5-20.5 18.453 18.453 0 0 1-.5-6v-39c-.167-12.338 0-24.671.5-37 3.831-3.945 7.664-3.945 11.5 0Z"/><path style="opacity:1" fill="#283338" d="M471.5 437.5c4.574 3.449 5.907 7.782 4 13-.343-1.725-1.343-2.225-3-1.5-4.715 1.89-8.715 4.724-12 8.5-3.418-1.129-6.251-3.129-8.5-6-1.334-1.378-1.501-2.711-.5-4a4.934 4.934 0 0 0 3-.5c4.864-4.718 10.531-7.885 17-9.5ZM327.5 437.5a88.52 88.52 0 0 1 20 12c-1.818 4.477-5.151 7.144-10 8a14.698 14.698 0 0 0-3-3.5 59.61 59.61 0 0 1-9-5c-1.316-.528-1.983-.028-2 1.5-1.907-5.218-.574-9.551 4-13Z"/><path style="opacity:1" fill="#f7740e" d="M658.5 419.5h35c-.499 2.889-1.999 3.556-4.5 2a20.499 20.499 0 0 0-2.5 3.5 101.955 101.955 0 0 0-13 5.5v3h-6v3h-6v3c-1.788-.285-3.455.048-5 1 1.129 2.029.629 2.363-1.5 1-1.712 3.452-4.212 4.452-7.5 3v3c-3.096-.593-5.429.407-7 3a47.25 47.25 0 0 1-7 3v3h-6v3c-1.788-.285-3.455.048-5 1a28.335 28.335 0 0 0-9.5 6l-1-1c-1.049 1.607-2.549 2.273-4.5 2v3a342.787 342.787 0 0 1-37-1 813.198 813.198 0 0 1 25-15.5 472.117 472.117 0 0 0 46-26 101.18 101.18 0 0 0 17-8.5Z"/><path style="opacity:1" fill="#f3720e" d="m377.5 465.5-15-8a55.22 55.22 0 0 0 4-16l10 5a91.123 91.123 0 0 1 1 19Z"/><path style="opacity:1" fill="#f1710f" d="M435.5 457.5a125.456 125.456 0 0 0-14 7v-19a35.267 35.267 0 0 0 11.5-5 92.404 92.404 0 0 0 2.5 17Z"/><path style="opacity:1" fill="#eaebeb" d="M475.5 450.5c-3.005 6.289-8.005 8.622-15 7 3.285-3.776 7.285-6.61 12-8.5 1.657-.725 2.657-.225 3 1.5Z"/><path style="opacity:1" fill="#e8e9e9" d="M337.5 457.5c-6.498 1.139-11.165-1.195-14-7 .017-1.528.684-2.028 2-1.5a59.61 59.61 0 0 0 9 5 14.698 14.698 0 0 1 3 3.5Z"/><path style="opacity:1" fill="#9a5512" d="M393.5 449.5h12v81h-12v-81Z"/><path style="opacity:1" fill="#f17b05" d="M394.5 450.5h10v79h-10v-79Z"/><path style="opacity:1" fill="#283338" d="M435.5 457.5a67.99 67.99 0 0 1 8 9 97.982 97.982 0 0 0-22 12v-14a125.456 125.456 0 0 1 14-7ZM362.5 457.5l15 8v14a111.751 111.751 0 0 0-22-13 75.629 75.629 0 0 0 7-9Z"/><path style="opacity:1" fill="#fdfdfd" d="M310.5 460.5c1.406 2.914 3.406 5.414 6 7.5 13.256 7.578 26.256 7.078 39-1.5a111.751 111.751 0 0 1 22 13v50c-7.149-.45-14.149.216-21 2a591.678 591.678 0 0 1-39-23.5c-1.525-1.009-3.192-1.509-5-1.5.372-2.522-.461-4.522-2.5-6-.827-13.506-.66-26.84.5-40Z"/><path style="opacity:1" fill="#f86b0b" d="M201.5 457.5v76c-.979-3.125-1.313-6.458-1-10h-14v-53h14c-.318-4.532.015-8.866 1-13Z"/><path style="opacity:1" fill="#f86e0c" d="M281.5 440.5c.934 1.068 1.268 2.401 1 4h17c-.325 7.519.008 14.852 1 22v39c-.934-1.068-1.268-2.401-1-4h-17c.318-4.532-.015-8.866-1-13v-48Z"/><path style="opacity:1" fill="#f5680c" d="M570.5 469.5a342.787 342.787 0 0 0 37 1v31h-12a112.97 112.97 0 0 0-.5-15c-3.681-2.86-7.848-3.693-12.5-2.5a58.12 58.12 0 0 1-11 5c-3.671 4.417-8.338 7.083-14 8a768.781 768.781 0 0 1-38.5 23.5 84.902 84.902 0 0 0-.5 13c-.979-3.125-1.313-6.458-1-10h-38a30.786 30.786 0 0 0 3-4.5 92.138 92.138 0 0 0 14-6c4.933-4.604 10.6-7.938 17-10 4.303-3.968 9.303-6.635 15-8 3.391-3.687 7.391-6.354 12-8a306.525 306.525 0 0 1 30-17.5Z"/><path style="opacity:1" fill="#f7620a" d="M281.5 488.5c.985 4.134 1.318 8.468 1 13h17c-.268 1.599.066 2.932 1 4a18.453 18.453 0 0 0 .5 6 272.604 272.604 0 0 0 34.5 20.5c2 1.333 3.667 3 5 5 1.284.684 2.451.517 3.5-.5.708.881 1.542 1.547 2.5 2 .111.617.444 1.117 1 1.5-2.698 4.773-3.698 9.939-3 15.5-.934-1.068-1.268-2.401-1-4h-62v-63Z"/><path style="opacity:1" fill="#f86109" d="M479.5 523.5h38c-.313 3.542.021 6.875 1 10v23c-.951-1.419-1.284-3.085-1-5h-62c.268 1.599-.066 2.932-1 4 .61-6.006-.39-11.673-3-17a112.692 112.692 0 0 1 10-6.5c3.415-.406 6.082-2.072 8-5a63.089 63.089 0 0 1 10-3.5Z"/><path style="opacity:1" fill="#a49285" d="M434.5 546.5c-10.339-.166-20.672 0-31 .5.178 2.955.178 6.121 0 9.5h31a842.53 842.53 0 0 1-71 .5c-4.204-4.155-3.871-7.822 1-11a818.961 818.961 0 0 1 70 .5Z"/><path style="opacity:1" fill="#bab0a8" d="M434.5 546.5c4.275 1.816 5.108 4.816 2.5 9-.671.752-1.504 1.086-2.5 1h-31c.178-3.379.178-6.545 0-9.5 10.328-.5 20.661-.666 31-.5Z"/><path style="opacity:1" fill="#f85d08" d="M186.5 523.5h14c-.313 3.542.021 6.875 1 10v47c-.951 1.419-1.284 3.085-1 5h-14v-62Z"/><path style="opacity:1" fill="#f55808" d="M281.5 551.5h62c-.268 1.599.066 2.932 1 4-7.337 1.61-15.004 2.776-23 3.5-5.5 2.833-9.667 7-12.5 12.5a196.046 196.046 0 0 0-1 38c1.009 5.498 3.509 10.165 7.5 14a420.812 420.812 0 0 0-25-13.5c-2.022-3.534-5.022-5.034-9-4.5v-54ZM518.5 556.5a553.172 553.172 0 0 1-1 47c-4.388.916-8.055 3.082-11 6.5a203.292 203.292 0 0 1-21 11.5c3.072-3.363 4.906-7.363 5.5-12a196.046 196.046 0 0 0-1-38c-3.413-7.082-8.913-11.582-16.5-13.5-6.746.131-13.079-.702-19-2.5.934-1.068 1.268-2.401 1-4h62c-.284 1.915.049 3.581 1 5Z"/><path style="opacity:1" fill="#f85d09" d="M595.5 501.5h12c-.278 1.846.389 3.18 2 4 1 26.658 1.333 53.325 1 80h-14c.323 6.522-.01 12.855-1 19v-103Z"/><path style="opacity:1" fill="#683b1a" d="M470.5 574.5h-103a174.4 174.4 0 0 0 0 37h103a3364.144 3364.144 0 0 1-142 .5c-2.167-.833-3.667-2.333-4.5-4.5-.667-10-.667-20 0-30l3.5-3.5a3411.7 3411.7 0 0 1 143 .5Z"/><path style="opacity:1" fill="#7b4a20" d="M470.5 574.5c1.871.359 3.371 1.359 4.5 3 .667 10 .667 20 0 30-.792 2.144-2.292 3.477-4.5 4h-103a174.4 174.4 0 0 1 0-37h103Z"/><path style="opacity:1" fill="#f74f05" d="M201.5 580.5c-.167 22.669 0 45.336.5 68 1.859 1.079 3.359 2.412 4.5 4a273.276 273.276 0 0 0-20 0v-67h14c-.284-1.915.049-3.581 1-5ZM610.5 585.5v67h-22a35.09 35.09 0 0 0 6.5-10c.5-12.662.667-25.329.5-38 .99-6.145 1.323-12.478 1-19h14Z"/><path style="opacity:1" fill="#552a1a" d="M325.5 627.5h149c-.333 1-1 1.667-2 2l-147-2Z"/><path style="opacity:1" fill="#f64c05" d="M322.5 627.5h3l147 2c-4.721 3.69-10.055 6.19-16 7.5-3.574 3.951-7.907 6.618-13 8a146.497 146.497 0 0 1-31 18 2929.62 2929.62 0 0 0-12.5 8.5 5215.086 5215.086 0 0 1-13.5-6.5c-7.319-5.656-15.319-9.99-24-13a523.182 523.182 0 0 1-22-15 90.42 90.42 0 0 1-14-6c-1.593-.949-2.926-2.115-4-3.5Z"/><path style="opacity:1" fill="#f64603" d="M206.5 652.5a192.372 192.372 0 0 0 14 6.5c3.83 4.163 8.497 6.829 14 8 12.673 9.05 26.007 16.716 40 23a208.311 208.311 0 0 1 5 4.5h-68c-2.561-1.046-4.727-2.712-6.5-5-2.537.677-4.537-.323-6-3l-1 1c-1.667-1-3-2.333-4-4-1.049 1.017-2.216 1.184-3.5.5l1-1a15.645 15.645 0 0 1-4-2.5 196.869 196.869 0 0 1-1-28 273.276 273.276 0 0 1 20 0ZM588.5 652.5h22a121.862 121.862 0 0 1-1 22c-1.671 2.01-2.338 4.343-2 7-3.064 1.19-5.731 2.857-8 5h-3v3a12.93 12.93 0 0 0-5 .5 996.939 996.939 0 0 1-6 4.5h-68a208.311 208.311 0 0 1 5-4.5c3.93-1.865 7.93-3.531 12-5a78.488 78.488 0 0 1 23-13 219.87 219.87 0 0 1 13-10c6.603-1.988 12.603-5.155 18-9.5Z"/><path style="opacity:1" fill="#f74502" d="M599.5 686.5c1.333.667 1.333.667 0 0Z"/><path style="opacity:1" fill="#f74201" d="M570.5 703.5c1.333.667 1.333.667 0 0Z"/><path style="opacity:1" fill="#f73c01" d="M211.5 694.5h68a49.948 49.948 0 0 1 8 3.5c3.83 4.163 8.497 6.829 14 8a73.44 73.44 0 0 0 14 8c6.973 5.651 14.64 9.984 23 13 1.374 3.683 4.041 5.349 8 5a279.412 279.412 0 0 1 19 12c4.871 1.741 9.204 4.408 13 8a35.157 35.157 0 0 1 10 5 54.915 54.915 0 0 0 10 2.5c5.69-1.028 11.024-2.861 16-5.5 5.239-4.798 11.239-8.131 18-10 2.508-3.042 5.508-5.376 9-7 4.75-1.03 8.75-3.363 12-7a319.99 319.99 0 0 0 46-27 268.192 268.192 0 0 0 18-8.5h68c-1.576.783-2.909 1.95-4 3.5a12.93 12.93 0 0 1-5 .5v3c-2.582-.475-4.582.192-6 2-2.281 1.928-4.947 2.928-8 3v3h-6v3c-4.045-.073-7.378 1.427-10 4.5l1 1a118.288 118.288 0 0 0-17 7.5 10.756 10.756 0 0 0-2.5 3l-1-1c-1.049 1.607-2.549 2.273-4.5 2v3h-6v3h-5v3c-2.524-.071-4.524.929-6 3-2.12-1.372-3.12-.705-3 2a12.93 12.93 0 0 0-5 .5 101.657 101.657 0 0 0-10 7.5 9.108 9.108 0 0 1-5 1v3c-2.51-.446-4.51.22-6 2-2.216.703-4.049 2.036-5.5 4-1.813-1.109-2.646-.442-2.5 2a12.93 12.93 0 0 0-5 .5c-1.497 1.871-3.497 2.871-6 3-1.307 2.324-3.307 3.657-6 4l2 1a12.93 12.93 0 0 1-5 .5v3a9.86 9.86 0 0 0-6 1 35.217 35.217 0 0 1-8 4v3h-6v3h-6v3a8.43 8.43 0 0 0-4 .5l-5 5c-1.284.684-2.451.517-3.5-.5-1.263 2.968-3.263 3.968-6 3a2.428 2.428 0 0 0-.5 2h-12c-.507-1.359-1.507-2.359-3-3a137.913 137.913 0 0 0-11-4v-3c-2.133-1.386-5.133-2.386-9-3v-3h-5v-3c-3.005.247-5.505-.753-7.5-3l-1 1a4.934 4.934 0 0 1-.5-3h-6v-3h-5v-3h-6v-3c-5.922-1.727-11.089-4.727-15.5-9-.718.951-1.551 1.117-2.5.5 1.333-.667 1.333-1.333 0-2a12.93 12.93 0 0 0-5-.5v-3a58.97 58.97 0 0 1-11-3v-3c-8.654-3.265-16.321-6.932-23-11v-3h-6v-3h-5v-3a8.43 8.43 0 0 1-4-.5c-4.85-3.699-10.184-6.199-16-7.5v-3h-6v-3c-2.092-.061-3.592-1.061-4.5-3-1.299.466-2.799.466-4.5 0v-3c-1.788.285-3.455-.048-5-1-2.158-3.144-5.158-4.477-9-4v-3a12.93 12.93 0 0 1-5-.5c-1.17-1.755-2.837-2.755-5-3 .228-.399.562-.565 1-.5Z"/><path style="opacity:1" fill="#f73c00" d="M476.5 757.5c1.333.667 1.333.667 0 0Z"/></svg>