<svg version="1.0" xmlns="http://www.w3.org/2000/svg" width="133.333" height="133.333" viewBox="0 0 100 100"><path d="M36 2.9c-11.9 3.8-21.6 11.2-27.9 21-17.7 27.6-3 66.4 28.3 74.7 7.6 2 22.2 1.8 29.5-.5C86.2 91.8 100 72.5 100 50.4S86.2 9.5 65.1 3C57 .4 43.7.4 36 2.9zm39.8 22c.4 2.6-2.4 6.1-4.8 6.1-.9 0-2.8-1.3-4.2-2.9-1.7-1.9-3.9-3-6.8-3.5-2.4-.4-4.5-.5-4.7-.2-.5.4-3.2 12-3.3 13.8 0 .4 1.7 1 3.8 1.4 2 .3 6.5 1.7 9.8 3 4.7 1.9 6.8 2.2 8.6 1.5 5.2-2 11.2 4.4 8.7 9.1-.7 1.3-1.8 2.7-2.5 3.1-.8.4-1.4 2.5-1.4 4.6 0 5.8-4.5 11.2-12.7 15.3-6 3-7.6 3.3-15.3 3.3-9.8 0-16.9-2.2-22.7-6.9-3.6-3-7.2-9.5-7.3-12.9 0-1.1-.9-3-2-4.4-3.3-4.2-2.3-8.5 2.7-11.1 1.5-.8 3-.9 5-.1 2.4.8 3.9.5 8.4-1.6 3-1.3 6.5-2.5 7.9-2.6 5.5-.1 6.3-1.1 8.2-9.9 1-4.5 1.9-8.5 2.2-8.7.2-.2 3 .1 6.3.7 4.9 1 6.3.9 8.8-.4 2.5-1.3 3.3-1.3 5-.2 1.1.7 2.1 2.3 2.3 3.5z"/><path d="M35.1 52.4c-1.6 1.9-1 6.6 1 7.9 2.6 1.6 6.8 0 7.5-3 .4-1.4.2-3.3-.3-4.2-1.3-2.1-6.6-2.6-8.2-.7zM58.1 52.4c-1.6 1.9-1 6.6 1 7.9 4.4 2.8 9.5-2.5 6.9-7.2-1.3-2.5-6.1-2.9-7.9-.7zM38.2 68.7c.5 2.7 5.5 4.5 12.3 4.5 7.7 0 14.4-3 11.9-5.4-.3-.3-2 .2-3.7 1.1-4.3 2.2-13.6 2.1-17-.2-3.3-2.1-3.9-2.1-3.5 0z"/></svg>