<?xml version="1.0" encoding="UTF-8"?><svg xmlns="http://www.w3.org/2000/svg" width="800" height="800" style="shape-rendering:geometricPrecision;text-rendering:geometricPrecision;image-rendering:optimizeQuality;fill-rule:evenodd;clip-rule:evenodd"><path style="opacity:1" fill="#90b2b0" d="M576.5-.5h9a2.429 2.429 0 0 0 .5 2c1.049-1.017 2.216-1.184 3.5-.5a20.495 20.495 0 0 0 2.5 3.5c1.356-.88 2.856-1.214 4.5-1v3c2.822 1.432 6.489 2.432 11 3v3c2.092.061 3.592 1.061 4.5 3 2.537-.677 4.537.323 6 3 2.361-.566 4.194.434 5.5 3l2-1c.35 2.067 2.017 3.067 5 3v3h6v3h5v3h6v3a27.247 27.247 0 0 0 9 3c-.219 1.175.114 2.175 1 3a6.846 6.846 0 0 1 4-1v3a8.435 8.435 0 0 1 4 .5c-1.154.914-.987 1.747.5 2.5 1.299-.466 2.799-.466 4.5 0v3h-50a62.867 62.867 0 0 1-13-5.5 30.312 30.312 0 0 0-12-7c-2.365-3.714-5.698-5.714-10-6-7.082-6.364-15.416-9.031-25-8a12359.219 12359.219 0 0 0-35 21 62.867 62.867 0 0 1-13 5.5h-19c-.086-.996.248-1.83 1-2.5a12.935 12.935 0 0 1 5-.5v-3c1.808.009 3.475-.491 5-1.5-1.388-.89-1.222-1.39.5-1.5 2.071 1.167 3.571.5 4.5-2 6.434-2.343 12.767-5.343 19-9v-3a59.031 59.031 0 0 1 11-3 4.934 4.934 0 0 1 .5-3l1 1c1.995-2.247 4.495-3.247 7.5-3v-3h5v-3h6v-3c1.808.009 3.475-.491 5-1.5l-1-1a12.936 12.936 0 0 1 5-.5v-3c3.552.188 6.219-1.145 8-4Z"/><path style="opacity:1" fill="#283339" d="M620.5 49.5a200.63 200.63 0 0 1 15 10.5c2.861.54 5.528 1.54 8 3a161.879 161.879 0 0 0 33 19c1.918 2.928 4.585 4.594 8 5a1504.83 1504.83 0 0 0 60 34.5c3.652 3.393 7.986 5.56 13 6.5a22.162 22.162 0 0 1 4 6.5c.167 75.334 0 150.667-.5 226a190.921 190.921 0 0 1-21.5 10.5l-8 6a1884.13 1884.13 0 0 0-86 50c-3.81 1.13-7.143 3.13-10 6a206.573 206.573 0 0 0-26 13.5v59a463.087 463.087 0 0 1-1 43c-2.11 8.219-6.277 15.219-12.5 21l-1 73c-2.329 5.671-6.162 10.171-11.5 13.5a192.811 192.811 0 0 0-13 6c-7.065 5.921-14.732 10.754-23 14.5-4.949 1.826-9.283 4.659-13 8.5a8.43 8.43 0 0 1-4 .5c.166 8.673 0 17.34-.5 26a11.333 11.333 0 0 1-1.5 3.5l-49 1a209.75 209.75 0 0 0-30 18c-6.4 2.062-12.067 5.396-17 10a114.09 114.09 0 0 1-12 5.5c-6.819 5.12-14.486 8.453-23 10a98.029 98.029 0 0 1-21-9c-.453-.958-1.119-1.792-2-2.5a7040.07 7040.07 0 0 1-28-16c-3.959.349-6.626-1.317-8-5-6.761-1.869-12.761-5.202-18-10l-61-1a11.333 11.333 0 0 1-1.5-3.5l-1-30c-8.969-7.48-18.803-13.48-29.5-18a56.75 56.75 0 0 0-19-10.5 18.839 18.839 0 0 0-6.5-5.5l-1-74c-5.702-4.201-10.535-9.201-14.5-15-2.366-3.252-3.866-6.919-4.5-11a3782.79 3782.79 0 0 1-.5-87c.166-8.34 0-16.673-.5-25-2.841 2.004-6.007 2.504-9.5 1.5a2922.937 2922.937 0 0 0-52-29.5 3170.75 3170.75 0 0 1-64-37.5c-3.96.349-6.626-1.317-8-5l-8-4c-1.369-1.719-2.369-3.552-3-5.5v-153c-.167-23.002 0-46.002.5-69-.167-5.167 2.333-7.667 7.5-7.5 3.1-1.276 5.766-3.11 8-5.5a5091.627 5091.627 0 0 1 28-14.5c3.83-4.163 8.497-6.829 14-8a336.071 336.071 0 0 1 40-23l6-5c22.924-12.6 45.591-25.6 68-39 5.14-1.446 9.806-3.78 14-7 12.235-2.801 22.902.199 32 9a2084.03 2084.03 0 0 1 77 44c5.503 1.17 10.17 3.838 14 8a1179.478 1179.478 0 0 1 62 35.5c8.04 3.648 15.706 8.148 23 13.5 4.871 1.741 9.204 4.408 13 8a90.42 90.42 0 0 0 14 6c4.58 5.682 10.246 7.682 17 6 17.828-1.375 35.495-.375 53 3 20.203 7.104 37.87 18.271 53 33.5a72.508 72.508 0 0 0 9 11l14 28a30039.73 30039.73 0 0 1 6 24c.167 11.338 0 22.672-.5 34a77.614 77.614 0 0 0-2.5 12c-.988 5.599-3.321 10.599-7 15a5.727 5.727 0 0 0-1 3c-19.104 38.771-50.104 60.771-93 66a299.29 299.29 0 0 1-32-1 84.826 84.826 0 0 1-16-3c-43.67-16.519-69.836-47.853-78.5-94-5.031-54.948 16.469-95.614 64.5-122a26.221 26.221 0 0 0 9-3.5 81.994 81.994 0 0 0-18-10c-4.758-4.768-10.425-7.768-17-9-3.065-4.125-7.065-6.791-12-8l-6-5a546.6 546.6 0 0 0-35-18 108.394 108.394 0 0 1-19-13 1516.16 1516.16 0 0 1-91-52A228.066 228.066 0 0 0 230 34.5 112.066 112.066 0 0 0 206.5 48l-10 4-3 3c-6.771 2.445-12.771 6.111-18 11l-10 4-4 4a520.666 520.666 0 0 0-59 34l-9 3c-2.508 3.042-5.508 5.376-9 7a583.92 583.92 0 0 1-36 19 7827.247 7827.247 0 0 0-.5 216.5 7214.146 7214.146 0 0 0 125 72c.5-21.664.667-43.331.5-65a340.197 340.197 0 0 0-18-8.5 55.63 55.63 0 0 0-18-10 78.488 78.488 0 0 0-23-13 56.965 56.965 0 0 0-10.5-7.5 5697.651 5697.651 0 0 1 0-151 6.978 6.978 0 0 1 2.5-3.5 146.497 146.497 0 0 0 31-18c8.372-3.019 16.038-7.352 23-13 5.093-1.382 9.426-4.049 13-8a90.42 90.42 0 0 0 14-6c1.918-2.928 4.585-4.594 8-5a226.438 226.438 0 0 1 29-17 42.498 42.498 0 0 1 13 0l4 4a154.79 154.79 0 0 0 13 6 1081.768 1081.768 0 0 0 33 20l4 1c8.98 5.636 17.98 11.302 27 17a63.954 63.954 0 0 1 13 6l69 1a10.515 10.515 0 0 0 3 2.5c1.93 5.02.93 9.353-3 13-48.997.833-97.997 1.333-147 1.5-.83 36.762-1.33 73.595-1.5 110.5-1.755 2.794-4.255 4.46-7.5 5-5.064.265-8.064-2.069-9-7a144.841 144.841 0 0 0-1-24c-1.688 1.021-3.021 2.355-4 4a1291.409 1291.409 0 0 0-30.5 30c-.832 84.168-.666 168.168.5 252 .651 5.324 2.984 9.657 7 13a27.204 27.204 0 0 0 8 6c.418.722 1.084 1.222 2 1.5 36.169.831 72.169.664 108-.5a210.447 210.447 0 0 0 12.5-12c.499-5.991.666-11.991.5-18-26.675.333-53.342 0-80-1a291.8 291.8 0 0 1-1.5-23c-.383-.556-.883-.889-1.5-1-3.049-5.062-2.549-9.729 1.5-14l91.5-91.5a4451.692 4451.692 0 0 0-108-71c-4.909-3.43-6.243-7.93-4-13.5a19.552 19.552 0 0 0 4-3.5 8.43 8.43 0 0 1 4-.5 4.934 4.934 0 0 1 3 .5 17183.212 17183.212 0 0 0 156 101.5c2.642 11.191-1.691 15.691-13 13.5-8.681-6.489-17.681-12.156-27-17a7475.937 7475.937 0 0 1-73 72.5c-.543.06-.876.393-1 1 31.66 1 63.326 1.333 95 1 1.911.074 3.078 1.074 3.5 3 .5 24.664.667 49.331.5 74h6c-.167-26.002 0-52.002.5-78l2.5-2.5c37.332-.5 74.665-.667 112-.5 6.009-.166 12.009.001 18 .5l2.5 2.5c.499 5.991.666 11.991.5 18v60c13.004.167 26.004 0 39-.5 5.582-.907 10.249-3.407 14-7.5 3.882-3.418 6.382-7.751 7.5-13 .5-55.999.667-111.999.5-168v-2a17.902 17.902 0 0 1 6-4h3v-7c2.386-.873 4.386-2.373 6-4.5 5.319-1.548 9.985-4.215 14-8a349.402 349.402 0 0 0 37-19 679.07 679.07 0 0 1 23-15 12.93 12.93 0 0 1 5-.5c.331-28.505-.002-56.838-1-85-.283-.789-.783-1.456-1.5-2a1287.892 1287.892 0 0 0-1.5-51 1338.1 1338.1 0 0 1-59-34.5 918.374 918.374 0 0 1-55-31.5 3162.857 3162.857 0 0 0-66 36.5 42.479 42.479 0 0 1-13 0 717.715 717.715 0 0 1-46-26.5 154.577 154.577 0 0 1-13.5-9 8.905 8.905 0 0 0-3-4c-.667-1.667-.667-3.333 0-5A106.905 106.905 0 0 1 451.5 86c3.83-4.162 8.497-6.83 14-8a157.449 157.449 0 0 1 27-15 380.093 380.093 0 0 1 20-13.5 62.867 62.867 0 0 0 13-5.5c11.694-7.042 23.36-14.042 35-21 9.584-1.031 17.918 1.636 25 8 4.302.286 7.635 2.286 10 6a30.312 30.312 0 0 1 12 7 62.867 62.867 0 0 0 13 5.5Z"/><path style="opacity:1" fill="#fdfdfd" d="M443.5 164.5c-.438.065-.772-.101-1-.5l2-1-19-.5c-6.74.022-13.24.688-19.5 2-.156-2.691-.989-5.024-2.5-7a10.515 10.515 0 0 1-3-2.5l-69-1a63.954 63.954 0 0 0-13-6 10892.14 10892.14 0 0 0-27-17l-4-1a1081.768 1081.768 0 0 1-33-20 154.79 154.79 0 0 1-13-6l-4-4a42.498 42.498 0 0 0-13 0 226.438 226.438 0 0 0-29 17c-3.415.406-6.082 2.072-8 5a90.42 90.42 0 0 1-14 6c-3.574 3.951-7.907 6.618-13 8-6.962 5.648-14.628 9.981-23 13a146.497 146.497 0 0 1-31 18 6.978 6.978 0 0 0-2.5 3.5 5697.651 5697.651 0 0 0 0 151 56.965 56.965 0 0 1 10.5 7.5 78.488 78.488 0 0 1 23 13 55.63 55.63 0 0 1 18 10 340.197 340.197 0 0 1 18 8.5c.167 21.669 0 43.336-.5 65a7214.146 7214.146 0 0 1-125-72 7827.247 7827.247 0 0 1 .5-216.5 583.92 583.92 0 0 0 36-19c3.492-1.624 6.492-3.958 9-7l9-3a520.666 520.666 0 0 1 59-34l4-4 10-4c5.229-4.889 11.229-8.555 18-11l3-3 10-4A112.066 112.066 0 0 1 230 34.5 228.066 228.066 0 0 1 254.5 46a1516.16 1516.16 0 0 0 91 52 108.394 108.394 0 0 0 19 13 546.6 546.6 0 0 1 35 18l6 5c4.935 1.209 8.935 3.875 12 8 6.575 1.232 12.242 4.232 17 9a81.994 81.994 0 0 1 18 10 26.221 26.221 0 0 1-9 3.5Z"/><path style="opacity:1" fill="#fdfefe" d="M564.5 34.5a129.7 129.7 0 0 0 7 1.5c3.868 1.484 7.201 3.818 10 7a90.401 90.401 0 0 1 14 6c1.918 2.928 4.585 4.594 8 5a483.026 483.026 0 0 0 51 29l4 4a457.332 457.332 0 0 1 22 11 91.311 91.311 0 0 0 23 13c1.918 2.928 4.585 4.594 8 5a2129.254 2129.254 0 0 0 37.5 21.5 7901.316 7901.316 0 0 1 1.5 216 84.545 84.545 0 0 0-18 8.5 3660.5 3660.5 0 0 0-91 54 1429.976 1429.976 0 0 1-31.5 16.5 1919.142 1919.142 0 0 0-1.5-61.5l12-8c2.71-1.747 5.71-2.747 9-3 4.952-4.639 10.619-7.973 17-10 9.313-5.969 18.646-11.969 28-18 7.819-2.16 14.319-6.327 19.5-12.5.99-49.416.657-98.75-1-148a36.078 36.078 0 0 0-3.5-4.5 198.572 198.572 0 0 1-36-21 114.302 114.302 0 0 1-13-6 182.852 182.852 0 0 0-35-20c-3.671-4.417-8.338-7.083-14-8a171.322 171.322 0 0 0-19-12c-8.302-.757-15.635 1.576-22 7a68.695 68.695 0 0 0-14 7c-4.302.286-7.635 2.286-10 6a43.593 43.593 0 0 0-13 8 684.54 684.54 0 0 0-19 8.5 50.162 50.162 0 0 1-14-8.5 114.065 114.065 0 0 1-14-6 7185.005 7185.005 0 0 0-26-16 1301.662 1301.662 0 0 1 78-45c2.674-3.012 6.007-4.678 10-5 3.619-3.977 7.952-6.644 13-8a200.86 200.86 0 0 1 23-13.5Z"/><path style="opacity:1" fill="#8eafad" d="M493.5 49.5h19a380.093 380.093 0 0 0-20 13.5 157.449 157.449 0 0 0-27 15c-5.503 1.17-10.17 3.838-14 8a106.905 106.905 0 0 0-25.5 16.5c-.667 1.667-.667 3.333 0 5a8.905 8.905 0 0 1 3 4 154.577 154.577 0 0 0 13.5 9c-11.488.995-23.155 1.328-35 1a1179.478 1179.478 0 0 0-62-35.5c-3.83-4.162-8.497-6.83-14-8a2084.03 2084.03 0 0 0-77-44c-9.098-8.801-19.765-11.801-32-9-4.194 3.22-8.86 5.554-14 7a2157.081 2157.081 0 0 1-68 39l-6 5a336.071 336.071 0 0 0-40 23c-5.503 1.171-10.17 3.837-14 8a5091.627 5091.627 0 0 0-28 14.5h-46c.486-2.307.486-4.473 0-6.5a169.104 169.104 0 0 0 15-5.5v-3a58.967 58.967 0 0 0 11-3v-3a417.79 417.79 0 0 0 15-7 32.686 32.686 0 0 0 8.5-6l1 1c1.049-1.607 2.549-2.273 4.5-2v-3a59.029 59.029 0 0 1 11-3 4.932 4.932 0 0 1 .5-3l1 1c2.015-3.065 4.515-4.065 7.5-3v-3h5v-3c1.7.16 3.366-.007 5-.5 1.478-2.057 3.478-3.39 6-4l-2-1a18.436 18.436 0 0 1 6-.5v-3a87.51 87.51 0 0 0 14-5v-3h6v-3h5v-3c1.701-.466 3.201-.466 4.5 0 3.279-4.047 7.946-7.047 14-9a18.264 18.264 0 0 0 5-4l1 1c1.049-1.607 2.549-2.273 4.5-2v-3h5v-3h6v-3c4.612-1.195 9.279-2.862 14-5v-3c1.701-.466 3.201-.466 4.5 0 .908-1.939 2.408-2.939 4.5-3v-3h6v-3c1.788.285 3.455-.048 5-1a38.767 38.767 0 0 0 7-4.5 49.25 49.25 0 0 1 14 0c2.025 1.677 4.359 2.677 7 3-1.134 1.016-.801 1.683 1 2l5 1-1 1c2.622 3.073 5.955 4.573 10 4.5v3h6v3c3.191.262 5.858 1.596 8 4a9.864 9.864 0 0 0 6 1v3c3.58 1.22 7.247 2.386 11 3.5l-2 1c2.767.678 4.934 2.178 6.5 4.5l1-1c3.769 1.797 7.102 4.13 10 7a3.942 3.942 0 0 1 2-1c1.482 1.612 3.315 2.612 5.5 3v3h6v3h5v3h6v3a87.51 87.51 0 0 0 14 5v3c1.699-.16 3.366.007 5 .5l-1 1c1.525 1.009 3.192 1.509 5 1.5v3h6v3h5v3c2.985-1.065 5.485-.065 7.5 3l1-1c.483.948.649 1.948.5 3h5v3h6v3c2.133 1.386 5.133 2.386 9 3v3c2.908-.238 5.242.762 7 3l2-1c.35 2.067 2.017 3.067 5 3v3h6v3c2.516-.255 4.85-1.089 7-2.5a626.207 626.207 0 0 1 29-17c.837-1.011 1.17-2.178 1-3.5 4.493-.216 7.993-2.216 10.5-6 1.011.837 2.178 1.17 3.5 1v-3a59.031 59.031 0 0 0 11-3v-3c1.808.009 3.475-.491 5-1.5l-1-1a12.935 12.935 0 0 1 5-.5v-3a9.864 9.864 0 0 0 6-1 35.213 35.213 0 0 1 8-4v-3h6v-3h5Z"/><path style="opacity:1" fill="#8dafad" d="M620.5 49.5h56v3h5v3a428.986 428.986 0 0 0 20 8.5l-2 1c2.522.61 4.522 1.943 6 4 1.634.493 3.301.66 5 .5v3c2.908-.238 5.242.762 7 3 .951-.826 1.951-.992 3-.5l-1 1a6.977 6.977 0 0 1 3.5 2.5l1-1c.483.948.649 1.948.5 3h6v3h5v3c1.951-.273 3.451.393 4.5 2l1-1c6 4.386 12.5 7.886 19.5 10.5l-1 1c1.525 1.009 3.192 1.509 5 1.5v3h6v3h5v3c2.041.354 3.874.354 5.5 0 .483.948.649 1.948.5 3 2.836 1.276 5.836 1.942 9 2a29.753 29.753 0 0 1 2 7h-48a1504.83 1504.83 0 0 1-60-34.5c-3.415-.406-6.082-2.072-8-5a161.879 161.879 0 0 1-33-19 24.564 24.564 0 0 0-8-3 200.63 200.63 0 0 0-15-10.5Z"/><path style="opacity:1" fill="#eff0f1" d="M403.5 157.5c1.511 1.976 2.344 4.309 2.5 7 6.26-1.312 12.76-1.978 19.5-2l19 .5-2 1c.228.399.562.565 1 .5-48.031 26.386-69.531 67.052-64.5 122 8.664 46.147 34.83 77.481 78.5 94a310.942 310.942 0 0 0-28 19 260.365 260.365 0 0 0-26 16 17183.212 17183.212 0 0 1-156-101.5 4.934 4.934 0 0 0-3-.5v-26c3.245-.54 5.745-2.206 7.5-5 .17-36.905.67-73.738 1.5-110.5 49.003-.167 98.003-.667 147-1.5 3.93-3.647 4.93-7.98 3-13Z"/><path style="opacity:1" fill="#fd5a6b" d="M586.5 238.5c-.09 2.652.576 4.985 2 7 1.157 2.773 1.824 5.773 2 9a113.05 113.05 0 0 1 0 29c-4.704 27.237-18.037 49.403-40 66.5-26.801 17.522-55.801 22.188-87 14-40.798-15.374-63.465-44.874-68-88.5.227-8.372.893-16.705 2-25 4.077-22.256 14.743-40.756 32-55.5l16-12a46.227 46.227 0 0 1 14-4.5 132.664 132.664 0 0 0 19-6c43.964-3.768 77.797 12.899 101.5 50a152.433 152.433 0 0 1 6.5 16Z"/><path style="opacity:1" fill="#bf5c6c" d="M478.5 172.5a132.664 132.664 0 0 1-19 6c1.885-1.811 4.219-2.978 7-3.5a47.11 47.11 0 0 1 12-2.5Z"/><path style="opacity:1" fill="#8ba9a7" d="M6.5 121.5h46c-2.234 2.39-4.9 4.224-8 5.5-5.167-.167-7.667 2.333-7.5 7.5-.5 22.998-.667 45.998-.5 69h-30v-82Z"/><path style="opacity:1" fill="#8aa9a7" d="M234.5 168.5c-.995 11.488-1.328 23.155-1 35h-120v-25c6.323-3.455 12.323-7.621 18-12.5 6.799-1.87 12.799-5.203 18-10a1068.258 1068.258 0 0 0 78.5-45.5c1.73 1.149 3.396 1.149 5 0 4.064 4.134 8.897 6.967 14.5 8.5l35 21c5.457 4.21 11.457 7.544 18 10a22.755 22.755 0 0 0 5 4l-60 1c-6.17 2.651-9.837 7.151-11 13.5Z"/><path style="opacity:1" fill="#8aa8a7" d="M681.5 176.5v27a2140.27 2140.27 0 0 1-92-1 72.508 72.508 0 0 1-9-11c-15.13-15.229-32.797-26.396-53-33.5-17.505-3.375-35.172-4.375-53-3-6.754 1.682-12.42-.318-17-6a90.42 90.42 0 0 1-14-6c-3.796-3.592-8.129-6.259-13-8-7.294-5.352-14.96-9.852-23-13.5 11.845.328 23.512-.005 35-1a717.715 717.715 0 0 0 46 26.5c4.333.667 8.667.667 13 0a3162.857 3162.857 0 0 1 66-36.5 918.374 918.374 0 0 0 55 31.5 1338.1 1338.1 0 0 0 59 34.5Z"/><path style="opacity:1" fill="#8ba9a7" d="M744.5 121.5h48v82h-30c.331-23.173-.002-46.173-1-69a22.162 22.162 0 0 0-4-6.5c-5.014-.94-9.348-3.107-13-6.5Z"/><path style="opacity:1" fill="#87a3a1" d="M681.5 176.5a1287.892 1287.892 0 0 1 1.5 51c.717.544 1.217 1.211 1.5 2v25h-75a30039.73 30039.73 0 0 0-6-24l-14-28a2140.27 2140.27 0 0 0 92 1v-27Z"/><path style="opacity:1" fill="#86a2a0" d="M6.5 203.5h30v99h-30v-99Z"/><path style="opacity:1" fill="#87a3a1" d="M234.5 168.5a463.087 463.087 0 0 1-1 43 617.788 617.788 0 0 1-27 15.5c-4.403 2.623-6.069 6.457-5 11.5-.988 5.14-1.321 10.474-1 16h-87v-51h120c-.328-11.845.005-23.512 1-35Z"/><path style="opacity:1" fill="#86a2a0" d="M762.5 203.5h30v99h-30v-99Z"/><path style="opacity:1" fill="#f6f6f6" d="M232.5 224.5c1.225.652 1.892 1.819 2 3.5-6.024 8.034-12.858 15.534-20.5 22.5a112.97 112.97 0 0 1-.5-15 75.21 75.21 0 0 0 19-11Z"/><path style="opacity:1" fill="#5c464f" d="M497.5 226.5a18.453 18.453 0 0 0-6 .5c1.154.914.987 1.747-.5 2.5-1.016-1.134-1.683-.801-2 1-1.776-1.036-3.609-1.036-5.5 0 3.688-4.851 8.355-6.184 14-4Z"/><path style="opacity:1" fill="#2a353b" d="M497.5 226.5a30.233 30.233 0 0 1 3.5 3 1979.51 1979.51 0 0 1 0 89c-3.308 3.827-7.474 4.994-12.5 3.5-.566-.995-1.233-1.828-2-2.5a1247.335 1247.335 0 0 1-1-69c-1.291-.237-2.291.096-3 1a51.591 51.591 0 0 1-15.5 9c-7.44-1.191-10.107-5.525-8-13a204.796 204.796 0 0 1 24.5-17c1.891-1.036 3.724-1.036 5.5 0 .317-1.801.984-2.134 2-1 1.487-.753 1.654-1.586.5-2.5a18.453 18.453 0 0 1 6-.5Z"/><path style="opacity:1" fill="#859f9d" d="M113.5 178.5v76h87c-.321-5.526.012-10.86 1-16 .166 8.34 0 16.673-.5 25l-19 19c-.5 6.658-.666 13.325-.5 20h-68a507.055 507.055 0 0 0-1-45c-.331-26.505.002-52.839 1-79Z"/><path style="opacity:1" fill="#af5969" d="M586.5 238.5c1.424 2.015 2.09 4.348 2 7-1.424-2.015-2.09-4.348-2-7Z"/><path style="opacity:1" fill="#875867" d="M482.5 251.5c.709-.904 1.709-1.237 3-1-.303 23.033.031 46.033 1 69-.722-.418-1.222-1.084-1.5-2 .158-22.356-.675-44.356-2.5-66Z"/><path style="opacity:1" fill="#829a98" d="M112.5 257.5a507.055 507.055 0 0 1 1 45h68c.167 16.67 0 33.337-.5 50a66.891 66.891 0 0 0-17.5-9.5c-4.138-3.732-8.805-6.398-14-8-2.537-2.546-5.537-4.212-9-5l-4-4-10-4c-4.032-3.676-8.699-6.176-14-7.5v-57Z"/><path style="opacity:1" fill="#a15767" d="M397.5 250.5a237.523 237.523 0 0 0-2 25c-.662-1.804-.995-3.804-1-6 .208-6.602 1.208-12.935 3-19Z"/><path style="opacity:1" fill="#c19447" d="M235.5 280.5a238.217 238.217 0 0 1-1.5-22c-.816 1.323-1.983 1.989-3.5 2 .979-1.645 2.312-2.979 4-4a144.841 144.841 0 0 1 1 24Z"/><path style="opacity:1" fill="#efb347" d="M235.5 280.5c.936 4.931 3.936 7.265 9 7v26a8.43 8.43 0 0 0-4 .5 19.552 19.552 0 0 1-4 3.5 900.175 900.175 0 0 0-35-23c-1 82.664-1.333 165.331-1 248a10591.488 10591.488 0 0 1-.5-252 1291.409 1291.409 0 0 1 30.5-30c1.517-.011 2.684-.677 3.5-2 .171 7.511.671 14.845 1.5 22Z"/><path style="opacity:1" fill="#7d515e" d="M590.5 254.5c2.589 9.677 2.589 19.344 0 29a113.05 113.05 0 0 0 0-29Z"/><path style="opacity:1" fill="#849e9c" d="M609.5 254.5h75v48c-26.355.658-52.355-.009-78-2a77.614 77.614 0 0 1 2.5-12c.5-11.328.667-22.662.5-34Z"/><path style="opacity:1" fill="#fdd049" d="M236.5 317.5c-2.243 5.57-.909 10.07 4 13.5a4451.692 4451.692 0 0 1 108 71L257 493.5c-4.049 4.271-4.549 8.938-1.5 14a1630.981 1630.981 0 0 1-48 48c-4.016-3.343-6.349-7.676-7-13-.333-82.669 0-165.336 1-248a900.175 900.175 0 0 1 35 23Z"/><path style="opacity:1" fill="#829998" d="M6.5 302.5h30v54c-9.61 1.974-19.61 2.641-30 2v-56Z"/><path style="opacity:1" fill="#819997" d="M684.5 229.5a1807.264 1807.264 0 0 1 1 85 12.93 12.93 0 0 0-5 .5 679.07 679.07 0 0 0-23 15 349.402 349.402 0 0 1-37 19c-4.015 3.785-8.681 6.452-14 8-1.614 2.127-3.614 3.627-6 4.5a529.493 529.493 0 0 0-1-46c3.679-4.401 6.012-9.401 7-15 25.645 1.991 51.645 2.658 78 2v-73Z"/><path style="opacity:1" fill="#829998" d="M762.5 302.5h30v56h-30v-56Z"/><path style="opacity:1" fill="#debe56" d="M599.5 315.5a529.493 529.493 0 0 1 1 46v7h-3c1.304-8.269 1.97-16.769 2-25.5 0-8.34-.334-16.507-1-24.5a5.727 5.727 0 0 1 1-3Z"/><path style="opacity:1" fill="#fdcf49" d="M598.5 318.5c.666 7.993 1 16.16 1 24.5-.03 8.731-.696 17.231-2 25.5a17.902 17.902 0 0 0-6 4c.065-.438-.101-.772-.5-1l-1 2a6969.016 6969.016 0 0 0 0 167c.167-55.502.667-110.835 1.5-166 .167 56.001 0 112.001-.5 168-1.118 5.249-3.618 9.582-7.5 13l-53-52a162.597 162.597 0 0 0-.5-18l-2.5-2.5a162.597 162.597 0 0 0-18-.5 8539.232 8539.232 0 0 0-77.5-78l-2.5-5a310.942 310.942 0 0 1 28-19 84.826 84.826 0 0 0 16 3c.418.722 1.084 1.222 2 1.5 10.175.825 20.175.658 30-.5 42.896-5.229 73.896-27.229 93-66Z"/><path style="opacity:1" fill="#7d9291" d="M36.5 356.5c.631 1.948 1.631 3.781 3 5.5l8 4c1.374 3.683 4.04 5.349 8 5a3170.75 3170.75 0 0 0 64 37.5c-11.488.995-23.155 1.328-35 1-.754-1.966-1.921-2.3-3.5-1-1.667-1-3-2.333-4-4l-1 1a4.932 4.932 0 0 1-.5-3h-6v-3h-5v-3a544.412 544.412 0 0 1-29-14v-3a58.967 58.967 0 0 1-11-3v-3h-6v-3c-4.013-1.674-8.013-3.341-12-5v-7c10.39.641 20.39-.026 30-2Z"/><path style="opacity:1" fill="#fedd47" d="M591.5 372.5v2a13730.794 13730.794 0 0 0-1.5 166 6969.016 6969.016 0 0 1 0-167l1-2c.399.228.565.562.5 1Z"/><path style="opacity:1" fill="#84774d" d="M473.5 383.5a299.29 299.29 0 0 0 32 1c-9.825 1.158-19.825 1.325-30 .5-.916-.278-1.582-.778-2-1.5Z"/><path style="opacity:1" fill="#f5b345" d="m429.5 399.5 2.5 5a8539.232 8539.232 0 0 1 77.5 78c-37.335-.167-74.668 0-112 .5l-2.5 2.5c-.5 25.998-.667 51.998-.5 78h-6c.167-24.669 0-49.336-.5-74-.422-1.926-1.589-2.926-3.5-3l-94-2a7475.937 7475.937 0 0 0 73-72.5c9.319 4.844 18.319 10.511 27 17 11.309 2.191 15.642-2.309 13-13.5a260.365 260.365 0 0 1 26-16Z"/><path style="opacity:1" fill="#7a8d8c" d="M119.5 408.5a2922.937 2922.937 0 0 1 52 29.5c3.493 1.004 6.659.504 9.5-1.5.5 8.327.666 16.66.5 25a417.59 417.59 0 0 0-24-13.5c-6.204-2.789-12.537-4.622-19-5.5v-3h-6v-3h-3v-3h-6v-3h-5v-3c-2.921.354-5.254-.646-7-3-1.714 1.109-2.381.442-2-2a58.97 58.97 0 0 1-11-3v-3a27.267 27.267 0 0 0-9-3v-3c-1.915.284-3.581-.049-5-1 11.845.328 23.512-.005 35-1Z"/><path style="opacity:1" fill="#7b8f8d" d="M761.5 134.5a1190.252 1190.252 0 0 1 1 69v155h30v7c-3.013-.128-5.513.872-7.5 3-2.411-1.653-3.578-.987-3.5 2-1.701.466-3.201.466-4.5 0-3.844 1.975-7.177 4.642-10 8l-1-1c-1.049 1.607-2.549 2.273-4.5 2v3c-3.937.204-7.604 1.204-11 3 .381 2.442-.286 3.109-2 2-.886.825-1.219 1.825-1 3h-6v3a12.93 12.93 0 0 0-5 .5c-1.079 2.043-2.746 3.376-5 4l1 1a12.93 12.93 0 0 1-5 .5v3a9.86 9.86 0 0 0-6 1c-3.423 1.192-6.256 3.192-8.5 6l-1-1c-1.049 1.607-2.549 2.273-4.5 2v3h-6v3h-5v3c-2.185.388-4.018 1.388-5.5 3-2.278-1.12-3.778-.287-4.5 2.5a101.955 101.955 0 0 0-13 5.5v3h-6v3h-6v3c-1.788-.285-3.455.048-5 1 1.129 2.029.629 2.363-1.5 1-1.712 3.452-4.212 4.452-7.5 3v3c-3.096-.593-5.429.407-7 3a47.25 47.25 0 0 1-7 3v3h-6v3c-1.788-.285-3.455.048-5 1-4.81 2.484-9.143 4.817-13 7v-21a206.573 206.573 0 0 1 26-13.5c2.857-2.87 6.19-4.87 10-6a1884.13 1884.13 0 0 1 86-50l8-6a190.921 190.921 0 0 0 21.5-10.5c.5-75.333.667-150.666.5-226Z"/><path style="opacity:1" fill="#58513b" d="m290.5 484.5 94 2c-31.674.333-63.34 0-95-1 .124-.607.457-.94 1-1Z"/><path style="opacity:1" fill="#43afab" d="M521.5 707.5v-216h-118v216a11770.92 11770.92 0 0 1-1-217h120a11770.92 11770.92 0 0 1-1 217Z"/><path style="opacity:1" fill="#4cd7d1" d="M521.5 707.5h-118v-216h118v216ZM265.5 493.5h115c.167 25.002 0 50.002-.5 75a4350.025 4350.025 0 0 0-79 78 61.144 61.144 0 0 0-1.5 15l.5 13 2.5 2.5c25.665.5 51.331.667 77 .5v30h-114c-.167-24.336 0-48.669.5-73l80-80c.667-9 .667-18 0-27-.816-1.323-1.983-1.989-3.5-2a1482.71 1482.71 0 0 0-77-1v-31Z"/><path style="opacity:1" fill="#f5b345" d="m530.5 503.5 53 52c-3.751 4.093-8.418 6.593-14 7.5-12.996.5-25.996.667-39 .5v-60Z"/><path style="opacity:1" fill="#f3b244" d="M255.5 507.5c.617.111 1.117.444 1.5 1a291.8 291.8 0 0 0 1.5 23c26.658 1 53.325 1.333 80 1a162.597 162.597 0 0 1-.5 18 210.447 210.447 0 0 1-12.5 12c-36.691.308-73.357-.025-110-1a27.204 27.204 0 0 1-8-6 1630.981 1630.981 0 0 0 48-48Z"/><path style="opacity:1" fill="#273238" d="M439.5 522.5c15.337-.167 30.67 0 46 .5l1.5 1.5c.667 49.667.667 99.333 0 149l-1.5 1.5a528.986 528.986 0 0 1-46 0l-1.5-1.5a5547.726 5547.726 0 0 1 0-149c.717-.544 1.217-1.211 1.5-2Z"/><path style="opacity:1" fill="#377b7c" d="M265.5 493.5v31a1482.71 1482.71 0 0 1 77 1h-78c-.328-10.846.006-21.513 1-32Z"/><path style="opacity:1" fill="#f5b345" d="M445.5 530.5h34v33h-34v-33Z"/><path style="opacity:1" fill="#dfa647" d="M215.5 561.5c36.643.975 73.309 1.308 110 1a1947.772 1947.772 0 0 1-108 .5c-.916-.278-1.582-.778-2-1.5Z"/><path style="opacity:1" fill="#fefefe" d="M579.5 579.5h4c.333 21.011 0 42.011-1 63a8207.056 8207.056 0 0 0-51.5 30c-.5-30.332-.667-60.665-.5-91 15.337.167 30.67 0 46-.5 1.237-.232 2.237-.732 3-1.5ZM257.5 633.5l-2 32a8.43 8.43 0 0 1-4-.5c-2.508-3.042-5.508-5.376-9-7a90.42 90.42 0 0 1-14-6l-4-4a46.99 46.99 0 0 1-10.5-5.5 960.77 960.77 0 0 1 0-62 777.441 777.441 0 0 0 55.5 1c-.166 9.339 0 18.673.5 28l4.5 4.5-16.5 16.5a4.934 4.934 0 0 0-.5 3Z"/><path style="opacity:1" fill="#717e7d" d="M281.5 581.5c8.34-.166 16.673 0 25 .5a796.785 796.785 0 0 1-24 23.5 144.841 144.841 0 0 1-1-24Z"/><path style="opacity:1" fill="#6f7978" d="M609.5 505.5a3576.875 3576.875 0 0 1 0 169 7.47 7.47 0 0 0-2 3 900.97 900.97 0 0 1-60-1c8.268-3.746 15.935-8.579 23-14.5a192.811 192.811 0 0 1 13-6c5.338-3.329 9.171-7.829 11.5-13.5l1-73c6.223-5.781 10.39-12.781 12.5-21a463.087 463.087 0 0 0 1-43Z"/><path style="opacity:1" fill="#707c7a" d="M445.5 581.5h34c.167 14.67 0 29.337-.5 44a126.866 126.866 0 0 1-22.5 11.5 29.086 29.086 0 0 1-10 7.5 992.863 992.863 0 0 1-1-63Z"/><path style="opacity:1" fill="#6f7a78" d="M186.5 559.5c3.965 5.799 8.798 10.799 14.5 15l1 74a18.839 18.839 0 0 1 6.5 5.5 56.75 56.75 0 0 1 19 10.5 420.766 420.766 0 0 1-41 1v-106Z"/><path style="opacity:1" fill="#6f7a79" d="M377.5 581.5h17c.333 29.008 0 58.008-1 87a256.389 256.389 0 0 1-17-10.5 114.065 114.065 0 0 1-14-6 523.182 523.182 0 0 1-22-15 35.625 35.625 0 0 1-12-6 3425.143 3425.143 0 0 0 49-49.5Z"/><path style="opacity:1" fill="#c5c8ca" d="M257.5 633.5c.167 11.338 0 22.672-.5 34-.717-.544-1.217-1.211-1.5-2l2-32Z"/><path style="opacity:1" fill="#f7f7f7" d="M478.5 638.5c.994 9.819 1.327 19.819 1 30h-34c-.165-3.35.002-6.683.5-10l1.5-1.5a103.462 103.462 0 0 0 22-13c3.653-.83 6.653-2.663 9-5.5Z"/><path style="opacity:1" fill="#fcfcfd" d="M367.5 667.5a900.97 900.97 0 0 1-60 1c-.166-5.676.001-11.343.5-17l12-12a34.176 34.176 0 0 0 11.5 6.5c3.705 4.342 8.372 7.009 14 8a152.07 152.07 0 0 0 22 13.5Z"/><path style="opacity:1" fill="#c6c9ca" d="M367.5 667.5c.789.283 1.456.783 2 1.5a642.78 642.78 0 0 1-62-.5 900.97 900.97 0 0 0 60-1Z"/><path style="opacity:1" fill="#6b7473" d="M227.5 664.5c10.697 4.52 20.531 10.52 29.5 18l1 30a11.333 11.333 0 0 0 1.5 3.5l61 1c5.239 4.798 11.239 8.131 18 10 1.374 3.683 4.041 5.349 8 5a7040.07 7040.07 0 0 0 28 16c.881.708 1.547 1.542 2 2.5h-68c-1.419-.951-3.085-1.284-5-1v-3c-8.654-3.265-16.321-6.932-23-11v-3h-6v-3h-5v-3a8.43 8.43 0 0 1-4-.5c-4.85-3.699-10.184-6.199-16-7.5v-3h-6v-3c-2.092-.061-3.592-1.061-4.5-3-1.299.466-2.799.466-4.5 0v-3c-1.788.285-3.455-.048-5-1-2.158-3.144-5.158-4.477-9-4v-3a12.93 12.93 0 0 1-5-.5c-2.625-3.031-6.125-5.864-10.5-8.5-2.537.677-4.537-.323-6-3l-1 1c-1.667-1-3-2.333-4-4-1.049 1.017-2.216 1.184-3.5.5l1-1a15.645 15.645 0 0 1-4-2.5 57.15 57.15 0 0 1-1-15c13.844.329 27.51-.004 41-1Z"/><path style="opacity:1" fill="#43afab" d="M379.5 677.5c.994 10.153 1.328 20.486 1 31-38.504.332-76.837-.001-115-1h114v-30Z"/><path style="opacity:1" fill="#6b7372" d="M547.5 676.5a900.97 900.97 0 0 0 60 1v4c-3.064 1.19-5.731 2.857-8 5h-3v3a58.97 58.97 0 0 0-11 3v3c-1.859-.039-3.192.794-4 2.5a12.93 12.93 0 0 1-5 .5v3c-2.582-.475-4.582.192-6 2-2.281 1.928-4.947 2.928-8 3v3h-6v3c-4.045-.073-7.378 1.427-10 4.5l1 1a118.288 118.288 0 0 0-17 7.5 10.756 10.756 0 0 0-2.5 3l-1-1c-1.049 1.607-2.549 2.273-4.5 2v3h-6v3h-5v3c-2.524-.071-4.524.929-6 3-2.12-1.372-3.12-.705-3 2a12.93 12.93 0 0 0-5 .5 2214.042 2214.042 0 0 0-9 6.5c-22.839.331-45.506-.003-68-1a114.09 114.09 0 0 0 12-5.5c4.933-4.604 10.6-7.938 17-10a209.75 209.75 0 0 1 30-18l49-1a11.333 11.333 0 0 0 1.5-3.5c.5-8.66.666-17.327.5-26a8.43 8.43 0 0 0 4-.5c3.717-3.841 8.051-6.674 13-8.5Z"/><path style="opacity:1" fill="#5b6467" d="m389.5 679.5-2 33a289.882 289.882 0 0 1 1-34c.607.124.94.457 1 1Z"/><path style="opacity:1" fill="#fcfcfc" d="M389.5 679.5c1.871.359 3.371 1.359 4.5 3l1 29c.057 2.41 1.224 3.744 3.5 4l55 2c-4.401.859-8.068 3.026-11 6.5-6.858 2.879-13.191 6.546-19 11a115.786 115.786 0 0 0-25 13.5 97.288 97.288 0 0 0-12-5.5c-3.543-1.608-6.543-3.942-9-7-5.662-.917-10.329-3.583-14-8-7.4-2.867-14.4-6.534-21-11l42-1c1.926-.422 2.926-1.589 3-3.5l2-33Z"/><path style="opacity:1" fill="#6c7674" d="M599.5 686.5c1.333.667 1.333.667 0 0Z"/><path style="opacity:1" fill="#6b7573" d="M570.5 703.5c1.333.667 1.333.667 0 0Z"/><path style="opacity:1" fill="#c6c9ca" d="M398.5 715.5c19.003-.167 38.003 0 57 .5-.544.717-1.211 1.217-2 1.5l-55-2Z"/><path style="opacity:1" fill="#69716f" d="M476.5 757.5c1.333.667 1.333.667 0 0Z"/><path style="opacity:1" fill="#69706f" d="M420.5 749.5c22.494.997 45.161 1.331 68 1-1.602 1.574-3.602 2.241-6 2v3c-2.51-.446-4.51.22-6 2-2.216.703-4.049 2.036-5.5 4-1.813-1.109-2.646-.442-2.5 2a12.93 12.93 0 0 0-5 .5c-1.497 1.871-3.497 2.871-6 3-1.307 2.324-3.307 3.657-6 4l2 1a12.93 12.93 0 0 1-5 .5v3a9.86 9.86 0 0 0-6 1 35.217 35.217 0 0 1-8 4v3h-6v3h-6v3a8.43 8.43 0 0 0-4 .5l-5 5c-1.284.684-2.451.517-3.5-.5-1.263 2.968-3.263 3.968-6 3a2.428 2.428 0 0 0-.5 2h-12c-.507-1.359-1.507-2.359-3-3a137.913 137.913 0 0 0-11-4v-3c-2.133-1.386-5.133-2.386-9-3v-3h-5v-3c-3.005.247-5.505-.753-7.5-3l-1 1a4.934 4.934 0 0 1-.5-3h-6v-3h-5v-3h-6v-3c-5.922-1.727-11.089-4.727-15.5-9-.718.951-1.551 1.117-2.5.5 1.333-.667 1.333-1.333 0-2a12.93 12.93 0 0 0-5-.5v-3c-2.51.446-4.51-.22-6-2h68a98.029 98.029 0 0 0 21 9c8.514-1.547 16.181-4.88 23-10Z"/></svg>