<?xml version="1.0" encoding="UTF-8"?><svg xmlns="http://www.w3.org/2000/svg" width="800" height="800" style="shape-rendering:geometricPrecision;text-rendering:geometricPrecision;image-rendering:optimizeQuality;fill-rule:evenodd;clip-rule:evenodd"><path style="opacity:1" fill="#dad7d1" d="M294.5 43.5h-22a375.612 375.612 0 0 1-35.5-20 138.219 138.219 0 0 1-14.5 1.5 2412.48 2412.48 0 0 0-33 18.5h-54c-.131-.876.202-1.543 1-2a53.28 53.28 0 0 0 13.5-8l1 1c1.049-1.607 2.549-2.273 4.5-2v-3h5v-3h6v-3c4.612-1.195 9.279-2.862 14-5v-3c1.701-.466 3.201-.466 4.5 0 .908-1.939 2.408-2.939 4.5-3v-3h6v-3c1.788.285 3.455-.048 5-1a38.767 38.767 0 0 0 7-4.5 49.25 49.25 0 0 1 14 0c2.025 1.677 4.359 2.677 7 3-1.134 1.016-.801 1.683 1 2l5 1-1 1c2.622 3.073 5.955 4.573 10 4.5v3h6v3c3.191.262 5.858 1.596 8 4a9.864 9.864 0 0 0 6 1v3c3.58 1.22 7.247 2.386 11 3.5l-2 1c2.767.678 4.934 2.178 6.5 4.5.85-.924 1.85-.924 3 0 3.234 1.291 5.901 3.291 8 6 2.501-1.556 4.001-.89 4.5 2Z"/><path style="opacity:1" fill="#dbd7d1" d="M576.5-.5h9a2.429 2.429 0 0 0 .5 2c1.049-1.017 2.216-1.184 3.5-.5a20.495 20.495 0 0 0 2.5 3.5c1.356-.88 2.856-1.214 4.5-1v3c2.822 1.432 6.489 2.432 11 3v3c2.092.061 3.592 1.061 4.5 3 2.537-.677 4.537.323 6 3 2.361-.566 4.194.434 5.5 3l2-1c.35 2.067 2.017 3.067 5 3v3h6v3h5v3h6v3a27.247 27.247 0 0 0 9 3c-.219 1.175.114 2.175 1 3a6.846 6.846 0 0 1 4-1v3h-54a750.599 750.599 0 0 1-27-16.5c-4.78-2.655-9.947-4.155-15.5-4.5l-4.5.5a1195.844 1195.844 0 0 1-35 20.5h-23c.418-.722 1.084-1.222 2-1.5l-1-1c1.284-.684 2.451-.517 3.5.5l2.5-3c6.434-2.343 12.767-5.343 19-9v-3a59.031 59.031 0 0 1 11-3 4.934 4.934 0 0 1 .5-3l1 1c1.995-2.247 4.495-3.247 7.5-3v-3h5v-3h6v-3c1.808.009 3.475-.491 5-1.5l-1-1a12.936 12.936 0 0 1 5-.5v-3c3.552.188 6.219-1.145 8-4Z"/><path style="opacity:1" fill="#273339" d="M607.5 43.5a390.246 390.246 0 0 0 19 9.5c4.933 4.604 10.6 7.938 17 10a90.798 90.798 0 0 0 17 10.5c4.878 3.477 10.211 6.31 16 8.5 2.932 3.474 6.599 5.64 11 6.5a270.06 270.06 0 0 1 30 18.5 96.517 96.517 0 0 0 12 5.5 307.96 307.96 0 0 1 19 12.5c2.71 1.747 5.71 2.747 9 3 2.04 2.185 3.374 4.685 4 7.5v221c.322 2.222-.345 4.056-2 5.5a160.234 160.234 0 0 1-20 9 206.537 206.537 0 0 1-21 13.5 44.35 44.35 0 0 0-15 9.5 510.711 510.711 0 0 0-59 33.5 82.73 82.73 0 0 0 1-14c1-.333 1.667-1 2-2a1953.115 1953.115 0 0 0 85-49.5 84.545 84.545 0 0 1 18-8.5 7901.316 7901.316 0 0 0-1.5-216 2129.254 2129.254 0 0 1-37.5-21.5c-3.415-.406-6.082-2.072-8-5a91.311 91.311 0 0 1-23-13 457.332 457.332 0 0 0-22-11c-2.508-3.042-5.508-5.376-9-7a457.332 457.332 0 0 1-22-11l-24-15c-3.415-.406-6.082-2.072-8-5a90.401 90.401 0 0 0-14-6c-5.722-6.435-12.722-8.768-21-7-7.36 5.663-15.36 9.996-24 13-3.619 3.977-7.952 6.644-13 8-2.537 2.546-5.537 4.212-9 5l-4 4-10 4a2551.356 2551.356 0 0 0-60 36 7185.005 7185.005 0 0 1 26 16 114.065 114.065 0 0 0 14 6c4.2 3.6 8.867 6.433 14 8.5a684.54 684.54 0 0 1 19-8.5 43.593 43.593 0 0 1 13-8c2.365-3.714 5.698-5.714 10-6a705.673 705.673 0 0 1 21-12c4.719-2.307 9.719-2.974 15-2a113.107 113.107 0 0 0 28 15l5 5a182.852 182.852 0 0 1 35 20 193.115 193.115 0 0 1 32 19 83.62 83.62 0 0 1 18.5 9.5l3 5c.667 48.667.667 97.333 0 146-5.181 6.173-11.681 10.34-19.5 12.5a102.972 102.972 0 0 1-22 13 32.859 32.859 0 0 0-6 5.5h-1a113.727 113.727 0 0 0-1-15 62.873 62.873 0 0 0 13-5.5 679.07 679.07 0 0 1 23-15 8.43 8.43 0 0 1 4-.5 903.85 903.85 0 0 0 0-85c-.283-.789-.783-1.456-1.5-2a84.902 84.902 0 0 1-.5-13v-37a82.1 82.1 0 0 0-21-12 338.053 338.053 0 0 0-37-21c-.453-.958-1.119-1.792-2-2.5a918.374 918.374 0 0 1-55-31.5 322.269 322.269 0 0 0-36 20.5l-4 1c-6.335 4.863-13.002 9.03-20 12.5-2.522-.372-4.522.461-6 2.5a42.479 42.479 0 0 1-13 0c-1.478-2.039-3.478-2.872-6-2.5a665.825 665.825 0 0 1-54-33c-.185-1.696-1.019-3.029-2.5-4-.667-1.667-.667-3.333 0-5l5.5-5.5a579.343 579.343 0 0 0 39-22.5 2267.73 2267.73 0 0 1 55-31 1195.844 1195.844 0 0 0 35-20.5l4.5-.5c5.553.345 10.72 1.845 15.5 4.5a750.599 750.599 0 0 0 27 16.5Z"/><path style="opacity:1" fill="#293339" d="M272.5 43.5c18.005 10.34 36.005 20.674 54 31a1115.356 1115.356 0 0 0 67 38c2.863 2.6 6.197 4.433 10 5.5l4 4a154.79 154.79 0 0 0 13 6 855.366 855.366 0 0 1 29 17.5c2.303 1.755 4.97 2.922 8 3.5l4 4a428.22 428.22 0 0 1 24 13.5 37.779 37.779 0 0 1 9 5h-23c-.79-.901-1.79-1.568-3-2a4586.737 4586.737 0 0 0-34-18.5c-4.758-4.768-10.425-7.768-17-9-3.065-4.125-7.065-6.791-12-8l-6-5a546.6 546.6 0 0 0-35-18 108.394 108.394 0 0 1-19-13 1516.16 1516.16 0 0 1-91-52A228.066 228.066 0 0 0 230 34.5 112.066 112.066 0 0 0 206.5 48l-10 4-3 3c-6.771 2.445-12.771 6.111-18 11l-10 4-4 4a520.666 520.666 0 0 0-59 34l-9 3c-2.508 3.042-5.508 5.376-9 7a583.92 583.92 0 0 1-36 19 7827.247 7827.247 0 0 0-.5 216.5A65.836 65.836 0 0 1 64.5 364l22 11a334.568 334.568 0 0 0 40 23 199.073 199.073 0 0 0 20 13 31.774 31.774 0 0 0 7 2.5 67.246 67.246 0 0 0 1 15 6727.648 6727.648 0 0 0-76-44 202.445 202.445 0 0 1-23-13.5c-3.96.349-6.626-1.317-8-5l-9.5-5.5c-1.3-7.271-1.8-14.604-1.5-22v-194a68.79 68.79 0 0 1 1.5-15c3.467-1.5 6.967-3 10.5-4.5 6.356-4.894 13.022-9.061 20-12.5a75.697 75.697 0 0 0 18-10.5c8.729-3.29 16.729-7.79 24-13.5 4.609-1.426 8.609-3.926 12-7.5l12-5c.881-.708 1.547-1.542 2-2.5a2078.225 2078.225 0 0 0 53-30 2412.48 2412.48 0 0 1 33-18.5c4.872-.246 9.705-.746 14.5-1.5a375.612 375.612 0 0 0 35.5 20Z"/><path style="opacity:1" fill="#fdfdfd" d="M468.5 169.5a2916.974 2916.974 0 0 1-108 1 92.36 92.36 0 0 1-11-4.5c-3.25-3.637-7.25-5.97-12-7-5.396-5.42-11.73-9.087-19-11a331.67 331.67 0 0 0-40-23 846.02 846.02 0 0 1-33-20c-3.415-.406-6.082-2.072-8-5a42.498 42.498 0 0 0-13 0 226.438 226.438 0 0 0-29 17c-3.415.406-6.082 2.072-8 5a90.42 90.42 0 0 1-14 6c-3.574 3.951-7.907 6.618-13 8-6.962 5.648-14.628 9.981-23 13a146.497 146.497 0 0 1-31 18 6.978 6.978 0 0 0-2.5 3.5 5697.651 5697.651 0 0 0 0 151 736.942 736.942 0 0 0 49.5 28v64a31.774 31.774 0 0 1-7-2.5 199.073 199.073 0 0 1-20-13 334.568 334.568 0 0 1-40-23l-22-11A65.836 65.836 0 0 0 48 353.5a7827.247 7827.247 0 0 1 .5-216.5 583.92 583.92 0 0 0 36-19c3.492-1.624 6.492-3.958 9-7l9-3a520.666 520.666 0 0 1 59-34l4-4 10-4c5.229-4.889 11.229-8.555 18-11l3-3 10-4A112.066 112.066 0 0 1 230 34.5 228.066 228.066 0 0 1 254.5 46a1516.16 1516.16 0 0 0 91 52 108.394 108.394 0 0 0 19 13 546.6 546.6 0 0 1 35 18l6 5c4.935 1.209 8.935 3.875 12 8 6.575 1.232 12.242 4.232 17 9a4586.737 4586.737 0 0 1 34 18.5Z"/><path style="opacity:1" fill="#fefefe" d="M647.5 411.5a931.31 931.31 0 0 1-1-61 32.859 32.859 0 0 1 6-5.5 102.972 102.972 0 0 0 22-13c7.819-2.16 14.319-6.327 19.5-12.5.667-48.667.667-97.333 0-146l-3-5a83.62 83.62 0 0 0-18.5-9.5 193.115 193.115 0 0 0-32-19 182.852 182.852 0 0 0-35-20l-5-5a113.107 113.107 0 0 1-28-15c-5.281-.974-10.281-.307-15 2a705.673 705.673 0 0 0-21 12c-4.302.286-7.635 2.286-10 6a43.593 43.593 0 0 0-13 8 684.54 684.54 0 0 0-19 8.5 50.162 50.162 0 0 1-14-8.5 114.065 114.065 0 0 1-14-6 7185.005 7185.005 0 0 0-26-16 2551.356 2551.356 0 0 1 60-36l10-4 4-4c3.463-.788 6.463-2.454 9-5 5.048-1.356 9.381-4.023 13-8 8.64-3.004 16.64-7.337 24-13 8.278-1.768 15.278.565 21 7a90.401 90.401 0 0 1 14 6c1.918 2.928 4.585 4.594 8 5l24 15a457.332 457.332 0 0 0 22 11c3.492 1.624 6.492 3.958 9 7a457.332 457.332 0 0 1 22 11 91.311 91.311 0 0 0 23 13c1.918 2.928 4.585 4.594 8 5a2129.254 2129.254 0 0 0 37.5 21.5 7901.316 7901.316 0 0 1 1.5 216 84.545 84.545 0 0 0-18 8.5 1953.115 1953.115 0 0 1-85 49.5Z"/><path style="opacity:1" fill="#dcd0ca" d="M135.5 43.5h54a2078.225 2078.225 0 0 1-53 30h-55c1.419-.951 3.085-1.284 5-1v-3c1.7.16 3.366-.007 5-.5 1.478-2.057 3.478-3.39 6-4l-2-1a18.436 18.436 0 0 1 6-.5v-3a87.51 87.51 0 0 0 14-5v-3h6v-3h5v-3c1.701-.466 3.201-.466 4.5 0 1.487-.753 1.654-1.586.5-2.5a8.435 8.435 0 0 1 4-.5Z"/><path style="opacity:1" fill="#dbcec9" d="M272.5 43.5h25v3h6v3h5v3h6v3a87.51 87.51 0 0 0 14 5v3c1.699-.16 3.366.007 5 .5l-1 1c1.525 1.009 3.192 1.509 5 1.5v3h6v3c1.915-.284 3.581.049 5 1-7.519-.325-14.852.008-22 1-17.995-10.326-35.995-20.66-54-31Z"/><path style="opacity:1" fill="#dacec9" d="M502.5 43.5h23a2267.73 2267.73 0 0 0-55 31c-7.148-.992-14.481-1.325-22-1 3.667-1.336 7.334-2.669 11-4v-3c1.808.009 3.475-.491 5-1.5l-1-1a12.935 12.935 0 0 1 5-.5v-3a9.864 9.864 0 0 0 6-1 35.213 35.213 0 0 1 8-4v-3h6v-3a59.031 59.031 0 0 1 11-3v-3h3Z"/><path style="opacity:1" fill="#dcd0ca" d="M607.5 43.5h54a8.435 8.435 0 0 1 4 .5c-1.154.914-.987 1.747.5 2.5 1.299-.466 2.799-.466 4.5 0v3h6v3h5v3a428.986 428.986 0 0 0 20 8.5l-2 1c2.522.61 4.522 1.943 6 4 1.634.493 3.301.66 5 .5v3c1.915-.284 3.581.049 5 1h-55a90.798 90.798 0 0 1-17-10.5c-6.4-2.062-12.067-5.396-17-10a390.246 390.246 0 0 1-19-9.5Z"/><path style="opacity:1" fill="#dec9c4" d="M81.5 73.5h55c-.453.958-1.119 1.792-2 2.5l-12 5c-3.391 3.574-7.391 6.074-12 7.5h-53c.683-1.677 2.017-2.343 4-2v-3a59.029 59.029 0 0 1 11-3 4.932 4.932 0 0 1 .5-3l1 1a16.667 16.667 0 0 0 4-4c1.757 1.485 2.923 1.152 3.5-1Z"/><path style="opacity:1" fill="#ddc9c4" d="M660.5 73.5h55c.311.978.978 1.644 2 2 .951-.826 1.951-.992 3-.5l-1 1a6.977 6.977 0 0 1 3.5 2.5l1-1c.483.948.649 1.948.5 3h6v3h5v3c1.983-.343 3.317.323 4 2h-52c-4.401-.86-8.068-3.026-11-6.5-5.789-2.19-11.122-5.023-16-8.5Z"/><path style="opacity:1" fill="#dfc3be" d="M57.5 88.5h53c-7.271 5.71-15.271 10.21-24 13.5a75.697 75.697 0 0 1-18 10.5h-53c1.107-2.469 3.107-3.469 6-3v-3a58.967 58.967 0 0 0 11-3v-3a417.79 417.79 0 0 0 15-7 32.686 32.686 0 0 0 8.5-6c.383.556.883.89 1.5 1ZM781.5 112.5h-52a96.517 96.517 0 0 1-12-5.5 270.06 270.06 0 0 0-30-18.5h52c.617-.11 1.117-.444 1.5-1 6 4.386 12.5 7.886 19.5 10.5l-1 1c1.525 1.009 3.192 1.509 5 1.5v3h6v3h5v3c2.041.354 3.874.354 5.5 0 .483.948.649 1.948.5 3Z"/><path style="opacity:1" fill="#273339" d="M360.5 170.5v1h-24c-3.223-2.747-6.889-4.747-11-6-.453-.958-1.119-1.792-2-2.5a511.189 511.189 0 0 0-26-13.5 508.638 508.638 0 0 0-32-19 251.15 251.15 0 0 0-28-15.5l-4.5-4.5c-2.09.652-4.257.819-6.5.5a785.534 785.534 0 0 1-29 18.5 4.934 4.934 0 0 0-3 .5 802.394 802.394 0 0 1-32 19.5 288.418 288.418 0 0 1-13 6.5c-3.25 3.637-7.25 5.97-12 7-.881.708-1.547 1.542-2 2.5a8.43 8.43 0 0 0-4 .5c-5.347 4.55-11.013 8.383-17 11.5-.617.111-1.117.444-1.5 1a145.053 145.053 0 0 0-.5 17v119c5.301 1.324 9.968 3.824 14 7.5l10 4c1.918 2.928 4.585 4.594 8 5 2.631 3.147 5.964 4.647 10 4.5-.627 4.641-.96 9.307-1 14a736.942 736.942 0 0 1-49.5-28 5697.651 5697.651 0 0 1 0-151 6.978 6.978 0 0 1 2.5-3.5 146.497 146.497 0 0 0 31-18c8.372-3.019 16.038-7.352 23-13 5.093-1.382 9.426-4.049 13-8a90.42 90.42 0 0 0 14-6c1.918-2.928 4.585-4.594 8-5a226.438 226.438 0 0 1 29-17 42.498 42.498 0 0 1 13 0c1.918 2.928 4.585 4.594 8 5a846.02 846.02 0 0 0 33 20 331.67 331.67 0 0 1 40 23c7.27 1.913 13.604 5.58 19 11 4.75 1.03 8.75 3.363 12 7a92.36 92.36 0 0 0 11 4.5Z"/><path style="opacity:1" fill="#dec3bd" d="M348.5 73.5c.577 2.152 1.744 2.485 3.5 1a16.668 16.668 0 0 0 4 4l1-1c.483.948.649 1.948.5 3h5v3h6v3c2.133 1.386 5.133 2.386 9 3v3c2.908-.238 5.242.762 7 3l2-1c.35 2.067 2.017 3.067 5 3v3h6v3c2.516-.255 4.85-1.089 7-2.5a626.207 626.207 0 0 1 29-17c.837-1.011 1.17-2.178 1-3.5 4.493-.216 7.993-2.216 10.5-6 1.756 1.485 2.923 1.152 3.5-1 7.519-.325 14.852.008 22 1a579.343 579.343 0 0 1-39 22.5l-5.5 5.5c-.667 1.667-.667 3.333 0 5 1.481.971 2.315 2.304 2.5 4-11.488.995-23.155 1.328-35 1a1115.356 1115.356 0 0 1-67-38c7.148-.992 14.481-1.325 22-1Z"/><path style="opacity:1" fill="#debab4" d="M265.5 130.5c-22.839.331-45.506-.003-68-1a785.534 785.534 0 0 0 29-18.5c2.243.319 4.41.152 6.5-.5l4.5 4.5a251.15 251.15 0 0 1 28 15.5Z"/><path style="opacity:1" fill="#e1bbb6" d="M15.5 112.5h53c-6.978 3.439-13.644 7.606-20 12.5-3.533 1.5-7.033 3-10.5 4.5a68.79 68.79 0 0 0-1.5 15h-30c.073-9.983.073-19.817 0-29.5a46.68 46.68 0 0 0 9-2.5ZM729.5 112.5h52c2.836 1.276 5.836 1.942 9 2 1.84 9.85 2.507 19.85 2 30h-30c.31-3.213-.023-6.213-1-9-.626-2.815-1.96-5.315-4-7.5-3.29-.253-6.29-1.253-9-3a307.96 307.96 0 0 0-19-12.5Z"/><path style="opacity:1" fill="#e2b6b0" d="M197.5 129.5c22.494.997 45.161 1.331 68 1a508.638 508.638 0 0 1 32 19h-135a802.394 802.394 0 0 0 32-19.5 4.934 4.934 0 0 1 3-.5Z"/><path style="opacity:1" fill="#dfb7b2" d="M428.5 111.5a665.825 665.825 0 0 0 54 33c-11.179-.328-22.179.005-33 1a855.366 855.366 0 0 0-29-17.5 154.79 154.79 0 0 1-13-6l-4-4c-3.803-1.067-7.137-2.9-10-5.5 11.845.328 23.512-.005 35-1Z"/><path style="opacity:1" fill="#e1b7b2" d="M624.5 144.5h-117c6.998-3.47 13.665-7.637 20-12.5l4-1a322.269 322.269 0 0 1 36-20.5 918.374 918.374 0 0 0 55 31.5c.881.708 1.547 1.542 2 2.5Z"/><path style="opacity:1" fill="#e5b1ab" d="M6.5 144.5h30v21h-30v-21Z"/><path style="opacity:1" fill="#e4b0aa" d="M162.5 149.5h135a511.189 511.189 0 0 1 26 13.5c.881.708 1.547 1.542 2 2.5h-190c.453-.958 1.119-1.792 2-2.5 4.75-1.03 8.75-3.363 12-7a288.418 288.418 0 0 0 13-6.5Z"/><path style="opacity:1" fill="#e4b1ab" d="M482.5 144.5c2.522-.372 4.522.461 6 2.5 4.333.667 8.667.667 13 0 1.478-2.039 3.478-2.872 6-2.5h117a338.053 338.053 0 0 1 37 21 7747.008 7747.008 0 0 0-176 1 428.22 428.22 0 0 0-24-13.5l-4-4c-3.03-.578-5.697-1.745-8-3.5 10.821-.995 21.821-1.328 33-1Z"/><path style="opacity:1" fill="#e5b1ab" d="M762.5 144.5h30v21h-30v-21Z"/><path style="opacity:1" fill="#e3a9a4" d="M135.5 165.5h190c4.111 1.253 7.777 3.253 11 6a242.43 242.43 0 0 0-22 .5 37.84 37.84 0 0 0-5 5.5c-.453-.958-1.119-1.792-2-2.5a25.238 25.238 0 0 0-10 0l-2.5 2.5c-1.049-1.017-2.216-1.184-3.5-.5-1.455 1.626-3.122 2.792-5 3.5h-1c-.224-4.062-2.224-6.895-6-8.5a528.986 528.986 0 0 0-46 0c-2.215 1.379-3.881 3.213-5 5.5h-114c5.987-3.117 11.653-6.95 17-11.5a8.43 8.43 0 0 1 4-.5Z"/><path style="opacity:1" fill="#e5aaa5" d="M485.5 166.5a7747.008 7747.008 0 0 1 176-1 82.1 82.1 0 0 1 21 12h-163a57.09 57.09 0 0 0-7-5.5 162.597 162.597 0 0 0-18-.5 37.779 37.779 0 0 0-9-5Z"/><path style="opacity:1" fill="#c4c4c4" d="M468.5 169.5c1.21.432 2.21 1.099 3 2h-111v-1c36.171.332 72.171-.002 108-1Z"/><path style="opacity:1" fill="#171717" d="M285.5 180.5c-.29 4.461-2.623 7.295-7 8.5-7.659.5-15.326.666-23 .5h-9v111c101.832.999 203.832 1.333 306 1v-59c-15.67.167-31.337 0-47-.5-2.881-1.251-4.714-3.417-5.5-6.5-.5-15.33-.667-30.663-.5-46-61.334.167-122.668 0-184-.5-3.776-1.605-5.776-4.438-6-8.5v-3a37.84 37.84 0 0 1 5-5.5 242.43 242.43 0 0 1 22-.5h158c6.009-.166 12.009.001 18 .5a57.09 57.09 0 0 1 7 5.5c5 5.667 10.333 11 16 16l4 4c9.694 10.027 19.361 20.027 29 30l1.5 3c.5 23.664.667 47.331.5 71h25c24.574-.41 40.908 10.923 49 34 .664 4.973.997 9.973 1 15v63a82.73 82.73 0 0 1-1 14c-2.082 8.164-5.749 15.497-11 22-5.64 4.827-11.973 8.66-19 11.5-12.04.955-24.04 1.955-36 3a66.73 66.73 0 0 0-7.5 5.5 84.902 84.902 0 0 0-.5 13h-18v-19c-3.125-.979-6.458-1.313-10-1v20h-17v-20c-25.505-.331-50.839.002-76 1l-3 1.5c3.249 1.08 5.249 3.247 6 6.5v65c.166 10.006 0 20.006-.5 30-1.451 1.964-3.284 3.297-5.5 4h-24c.167-28.669 0-57.335-.5-86l-1.5-1.5a84.902 84.902 0 0 0-13-.5v-9c1.599-7.48 6.266-10.48 14-9a28.208 28.208 0 0 1 4-1.5c-10.841-.825-21.508-.659-32 .5v11c-.973 2.448-1.306 5.115-1 8h-17v-20h-10v20h-17v-20h-75v55h-17v-55c-3.542-.313-6.875.021-10 1v55c-1.624-.14-2.79.527-3.5 2a799.793 799.793 0 0 0-.5 40h-14v-97c-8.818-.993-17.818-1.327-27-1-13.853.738-25.853-3.596-36-13-4.969-6.27-8.636-13.27-11-21a67.246 67.246 0 0 1-1-15v-64c.04-4.693.373-9.359 1-14 7.72-22.357 23.387-33.69 47-34h27v-124c1.119-2.287 2.785-4.121 5-5.5a528.986 528.986 0 0 1 46 0c3.776 1.605 5.776 4.438 6 8.5Z"/><path style="opacity:1" fill="#313b41" d="M309.5 177.5v3h-23c1.878-.708 3.545-1.874 5-3.5 1.284-.684 2.451-.517 3.5.5l2.5-2.5a25.238 25.238 0 0 1 10 0c.881.708 1.547 1.542 2 2.5Z"/><path style="opacity:1" fill="#e3e3e2" d="M285.5 180.5h24c.224 4.062 2.224 6.895 6 8.5 61.332.5 122.666.667 184 .5-.167 15.337 0 30.67.5 46 .786 3.083 2.619 5.249 5.5 6.5 15.663.5 31.33.667 47 .5v59c-102.168.333-204.168-.001-306-1h9v-111c7.674.166 15.341 0 23-.5 4.377-1.205 6.71-4.039 7-8.5Z"/><path style="opacity:1" fill="#e7a6a1" d="M519.5 177.5h163v19c-.904-.709-1.237-1.709-1-3h-146c-5.667-5-11-10.333-16-16Z"/><path style="opacity:1" fill="#e7a7a2" d="M6.5 165.5h30v28h-30v-28Z"/><path style="opacity:1" fill="#e7a6a1" d="M114.5 177.5h114v16c-38.887-.651-77.554.015-116 2-.166-5.676.001-11.343.5-17 .383-.556.883-.889 1.5-1Z"/><path style="opacity:1" fill="#e4a5a0" d="M761.5 135.5c.977 2.787 1.31 5.787 1 9v21h30v28h-30v22h-1v-80Z"/><path style="opacity:1" fill="#eeefee" d="M255.5 189.5v111h-9v-111h9Z"/><path style="opacity:1" fill="#263238" d="M539.5 197.5c3.826.297 6.826 2.13 9 5.5a59.248 59.248 0 0 1 14 7.5 342.635 342.635 0 0 0 22 11.5 113.438 113.438 0 0 0 11 8.5v71h-12c.333-22.01 0-44.01-1-66a89.227 89.227 0 0 1-14-8c-9.639-9.973-19.306-19.973-29-30Z"/><path style="opacity:1" fill="#e99f9a" d="M6.5 193.5h30v22h-30v-22Z"/><path style="opacity:1" fill="#e8a09b" d="M228.5 193.5v16h-115c.237 1.291-.096 2.291-1 3v-17a1697.915 1697.915 0 0 1 116-2Z"/><path style="opacity:1" fill="#e89f9a" d="M535.5 193.5h146c-.237 1.291.096 2.291 1 3v18c-.951-1.419-1.284-3.085-1-5-39.837-.332-79.504.001-119 1a59.248 59.248 0 0 0-14-7.5c-2.174-3.37-5.174-5.203-9-5.5l-4-4Z"/><path style="opacity:1" fill="#e99f9a" d="M792.5 193.5v22h-30v-22h30Z"/><path style="opacity:1" fill="#bfbfc0" d="M518.5 203.5c7 6.333 13.667 13 20 20h-20v-20Z"/><path style="opacity:1" fill="#263238" d="M228.5 214.5v13a56.95 56.95 0 0 1-15 8v66h-12v-70a76.332 76.332 0 0 1 8-6.5 106.41 106.41 0 0 0 19-10.5Z"/><path style="opacity:1" fill="#e99994" d="M562.5 210.5a3539.447 3539.447 0 0 1 119-1c-.284 1.915.049 3.581 1 5a84.902 84.902 0 0 0 .5 13c.717.544 1.217 1.211 1.5 2-14.318 1.333-28.984 1.999-44 2a1032.606 1032.606 0 0 1-45-1 113.438 113.438 0 0 1-11-8.5 342.635 342.635 0 0 1-22-11.5Z"/><path style="opacity:1" fill="#ea9893" d="M6.5 215.5h30v16h-30v-16Z"/><path style="opacity:1" fill="#e99994" d="M228.5 209.5v5a106.41 106.41 0 0 1-19 10.5 76.332 76.332 0 0 0-8 6.5h-89v-19c.904-.709 1.237-1.709 1-3h115Z"/><path style="opacity:1" fill="#ea9893" d="M762.5 215.5h30v16h-30v-16Z"/><path style="opacity:1" fill="#919597" d="M518.5 203.5v20h20c-6.242.999-13.242 1.333-21 1-.333-7.758.001-14.758 1-21Z"/><path style="opacity:1" fill="#fcfcfc" d="M228.5 227.5v74h-15v-66a56.95 56.95 0 0 0 15-8Z"/><path style="opacity:1" fill="#151615" d="M432.5 229.5v16h-156v-16h156Z"/><path style="opacity:1" fill="#fdfdfd" d="M568.5 227.5a89.227 89.227 0 0 0 14 8c1 21.99 1.333 43.99 1 66h-13c.167-23.669 0-47.336-.5-71l-1.5-3Z"/><path style="opacity:1" fill="#eb918d" d="M112.5 231.5h89v13c-.904.709-1.237 1.709-1 3h-88v-16Z"/><path style="opacity:1" fill="#e88f8b" d="M684.5 229.5a903.85 903.85 0 0 1 0 85v-67c-29.891-.646-59.558.02-89 2v-19c14.927.659 29.927.992 45 1 15.016-.001 29.682-.667 44-2Z"/><path style="opacity:1" fill="#4e4e4e" d="M432.5 229.5c.989 5.475 1.322 11.142 1 17a6163.664 6163.664 0 0 1-157-1h156v-16Z"/><path style="opacity:1" fill="#eb8c87" d="M201.5 244.5v16c-.904.709-1.237 1.709-1 3h-87c.295 2.235-.039 4.235-1 6v-22h88c-.237-1.291.096-2.291 1-3Z"/><path style="opacity:1" fill="#eb8e89" d="M6.5 231.5h30v32h-30v-32Z"/><path style="opacity:1" fill="#eb8c87" d="M684.5 263.5h-88c.295 2.235-.039 4.235-1 6v-20c29.442-1.98 59.109-2.646 89-2v16Z"/><path style="opacity:1" fill="#eb8e89" d="M762.5 231.5h30v32h-30v-32Z"/><path style="opacity:1" fill="#151615" d="M494.5 263.5v17h-218v-17h218Z"/><path style="opacity:1" fill="#eb8682" d="M201.5 260.5v16c-.904.709-1.237 1.709-1 3h-87v13h-1v-23c.961-1.765 1.295-3.765 1-6h87c-.237-1.291.096-2.291 1-3Z"/><path style="opacity:1" fill="#eb8681" d="M684.5 263.5v16h-88v15h-1v-25c.961-1.765 1.295-3.765 1-6h88Z"/><path style="opacity:1" fill="#adadad" d="M494.5 263.5c.99 5.81 1.323 11.81 1 18a11988.97 11988.97 0 0 1-219-1h218v-17Z"/><path style="opacity:1" fill="#ec7f7c" d="M201.5 276.5v19c-.904.709-1.237 1.709-1 3h-87v-19h87c-.237-1.291.096-2.291 1-3Z"/><path style="opacity:1" fill="#ec817d" d="M6.5 263.5h30v35h-30v-35Z"/><path style="opacity:1" fill="#ec7f7c" d="M684.5 279.5v19h-88v-19h88Z"/><path style="opacity:1" fill="#e77f7b" d="M761.5 215.5h1v48h30v35h-30v40c.323 6.19-.01 12.19-1 18v-141Z"/><path style="opacity:1" fill="#ea7774" d="M112.5 292.5h1v6h87c-.237-1.291.096-2.291 1-3v6c-23.613.31-39.28 11.643-47 34-4.036.147-7.369-1.353-10-4.5-3.415-.406-6.082-2.072-8-5l-10-4c-4.032-3.676-8.699-6.176-14-7.5v-22Z"/><path style="opacity:1" fill="#e97774" d="M595.5 294.5h1v4h88v16a8.43 8.43 0 0 0-4 .5 679.07 679.07 0 0 0-23 15 62.873 62.873 0 0 1-13 5.5c-8.092-23.077-24.426-34.41-49-34v-7Z"/><path style="opacity:1" fill="#fd9fa8" d="M198.5 319.5a105.353 105.353 0 0 1-7.5 10 28.946 28.946 0 0 0-3 10c-.667 29-.667 58 0 87 2.103 6.713 5.603 12.546 10.5 17.5a8.43 8.43 0 0 1-4 .5c-11.388-2.217-18.888-8.884-22.5-20a1805.597 1805.597 0 0 1 0-85c4.569-12.363 13.402-19.03 26.5-20Z"/><path style="opacity:1" fill="#fb6d7e" d="M198.5 319.5c135.667-.167 271.334 0 407 .5 10.983 2.317 18.149 8.817 21.5 19.5.667 28.333.667 56.667 0 85-3.68 11.012-11.18 17.846-22.5 20.5-136.834.833-273.501.666-410-.5a8.43 8.43 0 0 0 4-.5c-4.897-4.954-8.397-10.787-10.5-17.5-.667-29-.667-58 0-87a28.946 28.946 0 0 1 3-10 105.353 105.353 0 0 0 7.5-10Z"/><path style="opacity:1" fill="#ec7571" d="M6.5 298.5h30v40h-30v-40ZM792.5 298.5v40h-30v-40h30Z"/><path style="opacity:1" fill="#171717" d="M306.5 336.5a5509.9 5509.9 0 0 1 105 .5c2.5 1.167 4.333 3 5.5 5.5.667 9.667.667 19.333 0 29a17.842 17.842 0 0 1-5.5 4.5c-35.333.667-70.667.667-106 0a17.842 17.842 0 0 1-4.5-5.5 196.152 196.152 0 0 1 0-28c1.36-2.523 3.193-4.523 5.5-6Z"/><path style="opacity:1" fill="#171616" d="M513.5 336.5c9.339-.166 18.673 0 28 .5 2.557.685 4.391 2.185 5.5 4.5a1559.72 1559.72 0 0 1 0 79c-.833 2.167-2.333 3.667-4.5 4.5-10 .667-20 .667-30 0-2.31-1.637-3.81-3.804-4.5-6.5a1443.528 1443.528 0 0 1 0-76c1.36-2.523 3.193-4.523 5.5-6Z"/><path style="opacity:1" fill="#161616" d="M567.5 336.5c9.672-.166 19.339 0 29 .5l4.5 4.5c.667 26 .667 52 0 78-.398 2.732-1.898 4.565-4.5 5.5-10 .667-20 .667-30 0-2.226-1.227-3.726-3.061-4.5-5.5a1481.76 1481.76 0 0 1 0-77c1.36-2.523 3.193-4.523 5.5-6Z"/><path style="opacity:1" fill="#181717" d="M230.5 338.5c24.678-1.141 41.178 9.859 49.5 33 3.701 22.761-4.465 39.594-24.5 50.5-22.044 8.117-40.211 2.95-54.5-15.5-12.928-24.444-8.428-44.944 13.5-61.5 5.107-3.065 10.44-5.231 16-6.5Z"/><path style="opacity:1" fill="#c3c3c3" d="M645.5 350.5h1a931.31 931.31 0 0 0 1 61c-.333 1-1 1.667-2 2v-63Z"/><path style="opacity:1" fill="#e4e4e3" d="M318.5 354.5h81v4h-81v-4Z"/><path style="opacity:1" fill="#89beb9" d="M525.5 354.5h5v53h-5v-53Z"/><path style="opacity:1" fill="#99d7d1" d="M579.5 354.5h4v53h-4v-53Z"/><path style="opacity:1" fill="#ea6867" d="M6.5 338.5h30c-.3 7.396.2 14.729 1.5 22l9.5 5.5c1.374 3.683 4.04 5.349 8 5a202.445 202.445 0 0 0 23 13.5h-38c-1.28-1.431-2.947-2.098-5-2v-3a58.967 58.967 0 0 1-11-3v-3h-6v-3c-4.013-1.674-8.013-3.341-12-5v-27Z"/><path style="opacity:1" fill="#99d5d0" d="M230.5 406.5c-9.174-11.384-11.341-24.051-6.5-38a46.447 46.447 0 0 1 6.5-9.5 2.428 2.428 0 0 0-2-.5c15.707-4.566 26.874.767 33.5 16 3.081 16.222-3.085 27.056-18.5 32.5-4.52.814-8.854.647-13-.5Z"/><path style="opacity:1" fill="#ea6867" d="M762.5 338.5h30v27c-3.013-.128-5.513.872-7.5 3-2.411-1.653-3.578-.987-3.5 2-1.701.466-3.201.466-4.5 0-3.844 1.975-7.177 4.642-10 8l-1-1c-1.049 1.607-2.549 2.273-4.5 2v3c-2.917-.135-5.584.532-8 2h-35a206.537 206.537 0 0 0 21-13.5 160.234 160.234 0 0 0 20-9c1.655-1.444 2.322-3.278 2-5.5.99-5.81 1.323-11.81 1-18Z"/><path style="opacity:1" fill="#a6e6e0" d="M228.5 358.5a2.428 2.428 0 0 1 2 .5 46.447 46.447 0 0 0-6.5 9.5c-4.841 13.949-2.674 26.616 6.5 38-16.238-6.48-21.738-18.147-16.5-35 3.132-6.302 7.966-10.636 14.5-13Z"/><path style="opacity:1" fill="#171717" d="M305.5 387.5c35.335-.167 70.668 0 106 .5 2.5 1.167 4.333 3 5.5 5.5.667 9.333.667 18.667 0 28-1.26 2.928-3.427 4.761-6.5 5.5-34.667.667-69.333.667-104 0-2.5-1.167-4.333-3-5.5-5.5a196.152 196.152 0 0 1 0-28 40.775 40.775 0 0 1 4.5-6Z"/><path style="opacity:1" fill="#e4e4e3" d="M318.5 405.5h81v4h-81v-4Z"/><path style="opacity:1" fill="#e85d60" d="M40.5 384.5h38a6727.648 6727.648 0 0 1 76 44c2.364 7.73 6.031 14.73 11 21h-4c-8.178-1.984-15.845-4.317-23-7v-3h-6v-3h-3v-3h-6v-3h-5v-3c-2.921.354-5.254-.646-7-3-1.714 1.109-2.381.442-2-2a58.97 58.97 0 0 1-11-3v-3a27.267 27.267 0 0 0-9-3v-3c-2.908.238-5.242-.762-7-3a3.647 3.647 0 0 0-1.5 1c-1.667-1-3-2.333-4-4l-1 1a4.932 4.932 0 0 1-.5-3h-6v-3h-5v-3c-8.452-3.46-16.452-7.46-24-12ZM718.5 384.5h35c-.709.904-1.709 1.237-3 1 .381 2.442-.286 3.109-2 2-.886.825-1.219 1.825-1 3h-6v3a12.93 12.93 0 0 0-5 .5c-1.079 2.043-2.746 3.376-5 4l1 1a12.93 12.93 0 0 1-5 .5v3a9.86 9.86 0 0 0-6 1c-3.423 1.192-6.256 3.192-8.5 6l-1-1c-1.049 1.607-2.549 2.273-4.5 2v3h-6v3h-5v3c-2.185.388-4.018 1.388-5.5 3-2.278-1.12-3.778-.287-4.5 2.5a101.955 101.955 0 0 0-13 5.5v3h-6v3h-6v3c-1.788-.285-3.455.048-5 1 1.129 2.029.629 2.363-1.5 1-1.712 3.452-4.212 4.452-7.5 3v3c-2.51-.446-4.51.22-6 2h-8c5.251-6.503 8.918-13.836 11-22a510.711 510.711 0 0 1 59-33.5 44.35 44.35 0 0 1 15-9.5Z"/><path style="opacity:1" fill="#dd535f" d="M633.5 449.5h8a36.807 36.807 0 0 1-8 4v3h-6v3c-1.788-.285-3.455.048-5 1a28.335 28.335 0 0 0-9.5 6l-1-1c-1.049 1.607-2.549 2.273-4.5 2v17h-14a81.271 81.271 0 0 0-23-2 84.902 84.902 0 0 1 .5-13 66.73 66.73 0 0 1 7.5-5.5c11.96-1.045 23.96-2.045 36-3 7.027-2.84 13.36-6.673 19-11.5Z"/><path style="opacity:1" fill="#7d363b" d="M393.5 463.5c10.492-1.159 21.159-1.325 32-.5-1.401.41-2.734.91-4 1.5-9.152-.994-18.485-1.327-28-1Z"/><path style="opacity:1" fill="#888" d="M449.5 463.5a1444.401 1444.401 0 0 1 76-1v20h-1v-19h-75Z"/><path style="opacity:.998" fill="#283339" d="M201.5 462.5c9.182-.327 18.182.007 27 1h-15v97h29c-.167-13.337 0-26.671.5-40 .71-1.473 1.876-2.14 3.5-2 3.542.313 6.875-.021 10-1h17v-55h8v56h7c.722.418 1.222 1.084 1.5 2 .5 13.329.667 26.663.5 40h25v-64c.997 21.16 1.331 42.493 1 64a98.432 98.432 0 0 1 14 .5l1.5 1.5a349.084 349.084 0 0 1-.5 45 402.53 402.53 0 0 1-39 1c-.876-.131-1.543.202-2 1a22.729 22.729 0 0 0 9 4.5l27 17a90.42 90.42 0 0 0 14 6 523.182 523.182 0 0 0 22 15 63.089 63.089 0 0 0 10 3.5c.332-33.837-.002-67.504-1-101v-18c-2.235.295-4.235-.039-6-1h6v-5h-6a77.74 77.74 0 0 1-17-1 25.879 25.879 0 0 0-1 10 14.698 14.698 0 0 1-3.5-3c-1.049 1.017-2.216 1.184-3.5.5-1.545-2.38-3.545-4.214-6-5.5v-13c2.88 2.539 6.213 4.206 10 5 .283.789.783 1.456 1.5 2 .5-12.996.667-25.996.5-39a146.875 146.875 0 0 0 1-23h-38v-1h39v20h44c-.306-2.885.027-5.552 1-8a12.469 12.469 0 0 1 5.5 3 28.316 28.316 0 0 1 8.5-4v9a84.902 84.902 0 0 1 13 .5l1.5 1.5c.5 28.665.667 57.331.5 86-.331 29.171.002 58.171 1 87a305.965 305.965 0 0 1 29-16.5l3.5-3.5c.829-34.405.663-68.072-.5-101h-3v-13c.992.172 1.658-.162 2-1 1.818-12.294 2.651-24.96 2.5-38l1.5-1.5a471.249 471.249 0 0 1 66-.5h46a81.271 81.271 0 0 1 23 2c.283.789.783 1.456 1.5 2 .5 16.663.667 33.33.5 50v51c.167 18.336 0 36.67-.5 55-2.039 1.478-2.872 3.478-2.5 6a210.677 210.677 0 0 0 0 41c.166 7.674 0 15.341-.5 23a9.454 9.454 0 0 1-1.5 2.5 318.836 318.836 0 0 1-43 1.5 772.829 772.829 0 0 0-68-.5 209.75 209.75 0 0 0-30 18c-6.4 2.062-12.067 5.396-17 10-6.761 1.869-12.761 5.202-18 10-5.073 2.817-10.573 4.651-16.5 5.5a66.364 66.364 0 0 1-9.5-2.5 35.157 35.157 0 0 0-10-5c-3.796-3.592-8.129-6.259-13-8a279.412 279.412 0 0 0-19-12c-3.959.349-6.626-1.317-8-5a4.934 4.934 0 0 0-3-.5 2871.146 2871.146 0 0 1-34-20.5c-2.56-.384-4.894-1.217-7-2.5-12.069-9.088-25.069-16.421-39-22-8.682-7.346-18.349-13.18-29-17.5a55.63 55.63 0 0 0-18-10 18.839 18.839 0 0 0-6.5-5.5 791.918 791.918 0 0 0-1.5-40c-.283-.789-.783-1.456-1.5-2a462.27 462.27 0 0 1 0-43l2-2c.498-2.982.665-5.982.5-9v-90Z"/><path style="opacity:1" fill="#fefefe" d="M228.5 463.5v97h-15v-97h15Z"/><path style="opacity:1" fill="#eeefee" d="M246.5 463.5h9v54h-9v-54Z"/><path style="opacity:1" fill="#7f8080" d="M246.5 463.5c3.125-.979 6.458-1.313 10-1v55c-3.125.979-6.458 1.313-10 1v-1h9v-54h-9Z"/><path style="opacity:1" fill="#253136" d="M300.5 462.5h9v16h-9v-16Z"/><path style="opacity:1" fill="#fdfdfd" d="M309.5 463.5h38a146.875 146.875 0 0 1-1 23l-2 37c-3.787-.794-7.12-2.461-10-5 .167-11.005 0-22.005-.5-33-.833-3.5-3-5.667-6.5-6.5a162.597 162.597 0 0 0-18-.5v-15Z"/><path style="opacity:1" fill="#a6a6a6" d="M375.5 482.5h-1v-19h-8v19h-1v-20h10v20Z"/><path style="opacity:1" fill="#e4e5e3" d="M374.5 482.5h-8v-19h8v19Z"/><path style="opacity:1" fill="#df5460" d="M393.5 463.5c9.515-.327 18.848.006 28 1-7.734-1.48-12.401 1.52-14 9a28.316 28.316 0 0 0-8.5 4 12.469 12.469 0 0 0-5.5-3v-11Z"/><path style="opacity:1" fill="#fdfdfd" d="M449.5 463.5h75v19a471.249 471.249 0 0 0-66 .5l-1.5 1.5c.151 13.04-.682 25.706-2.5 38l-2-51c-.751-3.253-2.751-5.42-6-6.5l3-1.5Z"/><path style="opacity:1" fill="#7c7c7b" d="M552.5 463.5h-9v19h-1v-20c3.542-.313 6.875.021 10 1Z"/><path style="opacity:1" fill="#e4e5e3" d="M552.5 463.5v19h-9v-19h9Z"/><path style="opacity:1" fill="#888989" d="m452.5 471.5 2 51c-.342.838-1.008 1.172-2 1v-52Z"/><path style="opacity:1" fill="#dd5260" d="M161.5 449.5h4c10.147 9.404 22.147 13.738 36 13v40c-.968 2.107-1.302 4.441-1 7h-14c.167-15.004 0-30.004-.5-45-8.314-4.9-16.481-9.9-24.5-15Z"/><path style="opacity:1" fill="#181717" d="M300.5 478.5h9c6.009-.166 12.009.001 18 .5 3.5.833 5.667 3 6.5 6.5.5 10.995.667 21.995.5 33v65c.166 7.008 0 14.008-.5 21-.377 1.442-1.21 2.442-2.5 3a349.084 349.084 0 0 0 .5-45l-1.5-1.5a98.432 98.432 0 0 0-14-.5c.331-21.507-.003-42.84-1-64h-9v64h-16c.167-13.337 0-26.671-.5-40-.278-.916-.778-1.582-1.5-2-.167-11.338 0-22.672.5-34 2.575-4.407 6.408-6.407 11.5-6Z"/><path style="opacity:1" fill="#e4e4e3" d="M434.5 482.5v70h-9v-70h9Z"/><path style="opacity:1" fill="#7c7c7c" d="M434.5 482.5a1260.363 1260.363 0 0 1 1 71c-3.542.313-6.875-.021-10-1h9v-70Z"/><path style="opacity:1" fill="#929799" d="M346.5 486.5c.167 13.004 0 26.004-.5 39-.717-.544-1.217-1.211-1.5-2l2-37Z"/><path style="opacity:1" fill="#d9515f" d="M281.5 462.5h19v16c-5.092-.407-8.925 1.593-11.5 6a577.896 577.896 0 0 0-.5 34h-7v-56Z"/><path style="opacity:1" fill="#ba9ea0" d="M414.5 491.5h-60v31c-.994-10.487-1.328-21.154-1-32a931.31 931.31 0 0 1 61 1Z"/><path style="opacity:1" fill="#5b5a5d" d="M464.5 490.5v217h119v-217c.999 72.498 1.333 145.165 1 218h-121c-.333-72.835.001-145.502 1-218Z"/><path style="opacity:1" fill="#fccece" d="M414.5 491.5c-.167 60.334 0 120.668.5 181 .057 2.41 1.224 3.744 3.5 4 7.148.992 14.481 1.325 22 1v31h-87v-32c8.007.166 16.007 0 24-.5l1.5-1.5c.667-50 .667-100 0-150l-1.5-1.5c-7.659-.5-15.326-.666-23-.5v-31h60Z"/><path style="opacity:1" fill="#fdcece" d="M464.5 490.5h119v217h-119v-217Z"/><path style="opacity:1" fill="#e4e4e3" d="M315.5 496.5v64h-9v-64h9Z"/><path style="opacity:1" fill="#d84f60" d="M593.5 484.5h14c2.075 17.027 3.075 34.36 3 52h-15c.167-16.67 0-33.337-.5-50-.717-.544-1.217-1.211-1.5-2Z"/><path style="opacity:1" fill="#d44e61" d="M201.5 502.5v50c-.973 2.448-1.306 5.115-1 8h-14v-51h14c-.302-2.559.032-4.893 1-7Z"/><path style="opacity:1" fill="#283339" d="M502.5 522.5c14.67-.167 29.337 0 44 .5l1.5 1.5c.83 50.237.664 100.404-.5 150.5a552.224 552.224 0 0 1-47 0 11.333 11.333 0 0 1-1.5-3.5 3601.9 3601.9 0 0 1 .5-147c1.239-.442 2.239-1.109 3-2Z"/><path style="opacity:1" fill="#fdcece" d="M324.5 568.5v32a400.456 400.456 0 0 0-40 1l-1.5 3a799.793 799.793 0 0 0-.5 40h-32a304.505 304.505 0 0 0-1.5-42 9.454 9.454 0 0 0-2.5-1.5 799.793 799.793 0 0 0-40-.5v-32c14.004.167 28.004 0 42-.5l1.5-1.5c.5-13.663.667-27.329.5-41h32a840.27 840.27 0 0 0 .5 41l1.5 1.5c13.329.5 26.663.667 40 .5Z"/><path style="opacity:1" fill="#171616" d="M365.5 530.5v5c1.765.961 3.765 1.295 6 1v17c-6.342.166-12.675 0-19-.5-4.417-3.43-6.084-7.93-5-13.5a25.879 25.879 0 0 1 1-10 77.74 77.74 0 0 0 17 1Z"/><path style="opacity:1" fill="#dddddc" d="M365.5 530.5h6v5h-6v-5Z"/><path style="opacity:1" fill="#1f1a1b" d="M511.5 530.5c.167 23.002 0 46.002-.5 69-.876 2.135-2.376 3.469-4.5 4v-73h5Z"/><path style="opacity:1" fill="#cb4a60" d="M511.5 530.5h7c.333 24.342 0 48.676-1 73-4.081.983-7.581 2.983-10.5 6a18.453 18.453 0 0 1-.5-6c2.124-.531 3.624-1.865 4.5-4 .5-22.998.667-45.998.5-69Z"/><path style="opacity:1" fill="#161616" d="M540.5 576.5c-4.571.446-8.904-.22-13-2-.283-.789-.783-1.456-1.5-2a881.746 881.746 0 0 1-.5-42h15v46Z"/><path style="opacity:1" fill="#cb4a60" d="M334.5 531.5c2.455 1.286 4.455 3.12 6 5.5 1.284.684 2.451.517 3.5-.5a14.698 14.698 0 0 0 3.5 3c-1.084 5.57.583 10.07 5 13.5 6.325.5 12.658.666 19 .5v30h-37v-52Z"/><path style="opacity:1" fill="#5d5b5f" d="M324.5 568.5c.995 10.821 1.328 21.821 1 33h-41a400.456 400.456 0 0 1 40-1v-32Z"/><path style="opacity:1" fill="#c94a61" d="M595.5 536.5h15v73h-14c.325-7.519-.008-14.852-1-22v-51Z"/><path style="opacity:1" fill="#f6f7f7" d="M527.5 574.5c4.096 1.78 8.429 2.446 13 2a1361.458 1361.458 0 0 1 .5 90l-1.5 1.5c-10.995.5-21.995.667-33 .5v-46c7.456-2.78 14.289-6.78 20.5-12 .5-11.995.667-23.995.5-36Z"/><path style="opacity:1" fill="#c54960" d="M201.5 552.5a40.914 40.914 0 0 1-.5 9l-2 2a462.27 462.27 0 0 0 0 43c.717.544 1.217 1.211 1.5 2-4.47.986-9.137 1.319-14 1v-49h14c-.306-2.885.027-5.552 1-8Z"/><path style="opacity:1" fill="#c34860" d="M334.5 583.5h37v26a400.456 400.456 0 0 1-40-1v-1c1.29-.558 2.123-1.558 2.5-3 .5-6.992.666-13.992.5-21ZM452.5 536.5h3v73h-32v-38c7.852.325 15.518-.008 23-1 2.216-.703 4.049-2.036 5.5-4 .5-9.994.666-19.994.5-30Z"/><path style="opacity:1" fill="#934053" d="M422.5 570.5h24c-7.482.992-15.148 1.325-23 1v86a1893.431 1893.431 0 0 1-1-87Z"/><path style="opacity:1" fill="#fbfbfb" d="M213.5 608.5h29a840.27 840.27 0 0 0 .5 41l1.5 1.5c14.667.667 29.333.667 44 0l1.5-1.5 1-27a42.319 42.319 0 0 1 8.5 6.5 420.445 420.445 0 0 0 32 17c3.705 4.342 8.372 7.009 14 8a184.026 184.026 0 0 0 23 14l-20 1-1.5 1.5a484.008 484.008 0 0 0 0 44l1.5 1.5c32.667.667 65.333.667 98 0a6.978 6.978 0 0 0 2.5-3.5 420.29 420.29 0 0 0 0-41 6.978 6.978 0 0 0-3.5-2.5l-16-1a330.581 330.581 0 0 0 26.5-15.5 521.05 521.05 0 0 1-1 64 32.573 32.573 0 0 0-12.5 7.5c-6.858 2.879-13.191 6.546-19 11a115.786 115.786 0 0 0-25 13.5 97.288 97.288 0 0 0-12-5.5c-3.543-1.608-6.543-3.942-9-7-5.662-.917-10.329-3.583-14-8a78.488 78.488 0 0 1-23-13c-3.415-.406-6.082-2.072-8-5-8.372-3.019-16.038-7.352-23-13-5.093-1.382-9.426-4.049-13-8-6.4-2.062-12.067-5.396-17-10l-10-4-4-4a77.598 77.598 0 0 1-23-13 90.42 90.42 0 0 1-14-6 45.999 45.999 0 0 0-13-8l-1.5-1.5a577.896 577.896 0 0 1-.5-34Z"/><path style="opacity:1" fill="#191a1a" d="M331.5 607.5v1l-3 1.5a289.106 289.106 0 0 1-34 0c-.916-.278-1.582-.778-2-1.5a402.53 402.53 0 0 0 39-1Z"/><path style="opacity:1" fill="#b6465f" d="M371.5 554.5a2550.778 2550.778 0 0 1 1 101 63.089 63.089 0 0 1-10-3.5 523.182 523.182 0 0 1-22-15 90.42 90.42 0 0 1-14-6l-27-17a22.729 22.729 0 0 1-9-4.5c.457-.798 1.124-1.131 2-1 .418.722 1.084 1.222 2 1.5 11.333.667 22.667.667 34 0l3-1.5a400.456 400.456 0 0 0 40 1v-55Z"/><path style="opacity:1" fill="#b94660" d="M595.5 587.5c.992 7.148 1.325 14.481 1 22h14v42h-18v-3c-.372-2.522.461-4.522 2.5-6 .5-18.33.667-36.664.5-55Z"/><path style="opacity:1" fill="#b74660" d="M423.5 657.5v-48h32v-73c1.163 32.928 1.329 66.595.5 101l-3.5 3.5a305.965 305.965 0 0 0-29 16.5Z"/><path style="opacity:1" fill="#b04460" d="M200.5 608.5a791.918 791.918 0 0 1 1.5 40 18.839 18.839 0 0 1 6.5 5.5 55.63 55.63 0 0 1 18 10c10.651 4.32 20.318 10.154 29 17.5-21.16.997-42.493 1.331-64 1-1.544-.203-2.878-.87-4-2-1-23.657-1.333-47.324-1-71 4.863.319 9.53-.014 14-1Z"/><path style="opacity:1" fill="#ae4460" d="M592.5 648.5v3h18a133.155 133.155 0 0 1-1 23c-1.671 2.01-2.338 4.343-2 7-3.064 1.19-5.731 2.857-8 5h-3v3h-4a210.677 210.677 0 0 1 0-41Z"/><path style="opacity:1" fill="#c9a9aa" d="M418.5 676.5h23c.328 10.846-.006 21.513-1 32v-31c-7.519.325-14.852-.008-22-1Z"/><path style="opacity:1" fill="#aa4360" d="M255.5 681.5c13.931 5.579 26.931 12.912 39 22-21.494.997-43.16 1.331-65 1-2.497-2.371-5.497-3.371-9-3v-3a12.93 12.93 0 0 1-5-.5c-2.625-3.031-6.125-5.864-10.5-8.5-2.537.677-4.537-.323-6-3l-1 1c-1.667-1-3-2.333-4-4-2.447 1.496-3.281 1.163-2.5-1 21.507.331 42.84-.003 64-1Z"/><path style="opacity:1" fill="#ab4460" d="M599.5 686.5c1.333.667 1.333.667 0 0Z"/><path style="opacity:1" fill="#a54260" d="M294.5 703.5c2.106 1.283 4.44 2.116 7 2.5a2871.146 2871.146 0 0 0 34 20.5 1089.684 1089.684 0 0 1-66 1 2258.655 2258.655 0 0 1-15-8c-1.545-.952-3.212-1.285-5-1v-3h-6v-3c-2.092-.061-3.592-1.061-4.5-3-1.299.466-2.799.466-4.5 0v-3c-2.281.423-3.948-.244-5-2 21.84.331 43.506-.003 65-1Z"/><path style="opacity:1" fill="#9f4161" d="M547.5 716.5c-1.238.31-1.238.81 0 1.5a118.288 118.288 0 0 0-17 7.5 10.756 10.756 0 0 0-2.5 3l-1-1c-1.049 1.607-2.549 2.273-4.5 2v3h-6v3h-5v3c-2.524-.071-4.524.929-6 3-2.12-1.372-3.12-.705-3 2a12.93 12.93 0 0 0-5 .5 101.657 101.657 0 0 0-10 7.5 9.108 9.108 0 0 1-5 1v3c-2.51-.446-4.51.22-6 2-2.216.703-4.049 2.036-5.5 4-1.813-1.109-2.646-.442-2.5 2-2.51-.446-4.51.22-6 2h-128c-4.638-1.869-8.805-4.536-12.5-8-.718.951-1.551 1.117-2.5.5 1.333-.667 1.333-1.333 0-2a12.93 12.93 0 0 0-5-.5v-3a58.97 58.97 0 0 1-11-3v-3c-8.654-3.265-16.321-6.932-23-11v-3h-6v-3c-2.281.423-3.948-.244-5-2 22.173.331 44.173-.003 66-1a4.934 4.934 0 0 1 3 .5c1.374 3.683 4.041 5.349 8 5a279.412 279.412 0 0 1 19 12c4.871 1.741 9.204 4.408 13 8a35.157 35.157 0 0 1 10 5 66.364 66.364 0 0 0 9.5 2.5c5.927-.849 11.427-2.683 16.5-5.5 5.239-4.798 11.239-8.131 18-10 4.933-4.604 10.6-7.938 17-10a209.75 209.75 0 0 1 30-18 772.829 772.829 0 0 1 68 .5Z"/><path style="opacity:1" fill="#9c4161" d="M476.5 757.5c1.333.667 1.333.667 0 0Z"/><path style="opacity:1" fill="#9a4062" d="M334.5 765.5h128c-3.896 1.175-7.563 3.008-11 5.5l2 1a12.93 12.93 0 0 1-5 .5v3a9.86 9.86 0 0 0-6 1 35.217 35.217 0 0 1-8 4v3h-6v3h-6v3a8.43 8.43 0 0 0-4 .5l-5 5c-1.284.684-2.451.517-3.5-.5-1.263 2.968-3.263 3.968-6 3a2.428 2.428 0 0 0-.5 2h-12c-.507-1.359-1.507-2.359-3-3a137.913 137.913 0 0 0-11-4v-3c-2.133-1.386-5.133-2.386-9-3v-3h-5v-3c-3.005.247-5.505-.753-7.5-3l-1 1a4.934 4.934 0 0 1-.5-3h-6v-3h-5v-3h-6v-3c-1.291.237-2.291-.096-3-1Z"/></svg>