<?xml version="1.0" encoding="UTF-8"?>
<svg xmlns="http://www.w3.org/2000/svg" width="800" height="800" style="shape-rendering:geometricPrecision;text-rendering:geometricPrecision;image-rendering:optimizeQuality;fill-rule:evenodd;clip-rule:evenodd"><path style="opacity:1" fill="#fdfdfd" d="M576.5-.5h9a2.429 2.429 0 0 0 .5 2c1.049-1.017 2.216-1.184 3.5-.5a20.495 20.495 0 0 0 2.5 3.5c1.356-.88 2.856-1.214 4.5-1v3c2.822 1.432 6.489 2.432 11 3v3c2.092.061 3.592 1.061 4.5 3 2.537-.677 4.537.323 6 3 2.361-.566 4.194.434 5.5 3l2-1c.35 2.067 2.017 3.067 5 3v3h6v3h5v3h6v3a27.247 27.247 0 0 0 9 3c-.219 1.175.114 2.175 1 3a6.846 6.846 0 0 1 4-1v3a8.435 8.435 0 0 1 4 .5c-1.154.914-.987 1.747.5 2.5 1.299-.466 2.799-.466 4.5 0v3h6v3h5v3a428.986 428.986 0 0 0 20 8.5l-2 1c2.522.61 4.522 1.943 6 4 1.634.493 3.301.66 5 .5v3c2.908-.238 5.242.762 7 3 .951-.826 1.951-.992 3-.5l-1 1a6.977 6.977 0 0 1 3.5 2.5l1-1c.483.948.649 1.948.5 3h6v3h5v3c1.951-.273 3.451.393 4.5 2l1-1c6 4.386 12.5 7.886 19.5 10.5l-1 1c1.525 1.009 3.192 1.509 5 1.5v3h6v3h5v3c2.041.354 3.874.354 5.5 0 .483.948.649 1.948.5 3 2.836 1.276 5.836 1.942 9 2a7971.884 7971.884 0 0 1 2 251c-3.013-.128-5.513.872-7.5 3-2.411-1.653-3.578-.987-3.5 2-1.701.466-3.201.466-4.5 0-3.844 1.975-7.177 4.642-10 8l-1-1c-1.049 1.607-2.549 2.273-4.5 2v3c-3.937.204-7.604 1.204-11 3 .381 2.442-.286 3.109-2 2-.886.825-1.219 1.825-1 3h-6v3a12.93 12.93 0 0 0-5 .5c-1.079 2.043-2.746 3.376-5 4l1 1a12.93 12.93 0 0 1-5 .5v3a9.86 9.86 0 0 0-6 1c-3.423 1.192-6.256 3.192-8.5 6l-1-1c-1.049 1.607-2.549 2.273-4.5 2v3h-6v3h-5v3c-2.185.388-4.018 1.388-5.5 3-2.278-1.12-3.778-.287-4.5 2.5a101.955 101.955 0 0 0-13 5.5v3h-6v3h-6v3c-1.788-.285-3.455.048-5 1 1.129 2.029.629 2.363-1.5 1-1.712 3.452-4.212 4.452-7.5 3v3c-3.096-.593-5.429.407-7 3a47.25 47.25 0 0 1-7 3v3h-6v3c-1.788-.285-3.455.048-5 1a28.335 28.335 0 0 0-9.5 6l-1-1c-1.049 1.607-2.549 2.273-4.5 2-.167 12.338 0 24.671.5 37 .414.457.914.791 1.5 1a3571.518 3571.518 0 0 1 0 169c-1.671 2.01-2.338 4.343-2 7-3.064 1.19-5.731 2.857-8 5h-3v3h-4c-1.161-13.494-1.327-27.16-.5-41 .113-2.474 1.113-4.474 3-6 .667-52 .667-104 0-156-1.734-1.951-3.901-2.951-6.5-3l-39-2a1894.86 1894.86 0 0 0 46-27.5 472.117 472.117 0 0 0 46-26l4-1a1884.13 1884.13 0 0 1 86-50l8-6a190.921 190.921 0 0 0 21.5-10.5c.667-76 .667-152 0-228a36.078 36.078 0 0 0-3.5-4.5c-3.29-.253-6.29-1.253-9-3a29746.604 29746.604 0 0 1-46-28 457.332 457.332 0 0 0-22-11l-4-4a161.879 161.879 0 0 1-33-19c-6.4-2.062-12.067-5.396-17-10a1126.1 1126.1 0 0 0-31-16c-2.365-3.714-5.698-5.714-10-6-7.082-6.364-15.416-9.031-25-8a246.93 246.93 0 0 0-16 8.5v-12c1.068-.934 2.401-1.268 4-1v-3h5v-3h6v-3c1.808.009 3.475-.491 5-1.5l-1-1a12.936 12.936 0 0 1 5-.5v-3c3.552.188 6.219-1.145 8-4Z"/><path style="opacity:1" fill="#d66161" d="M254.5 20.5v13a127.652 127.652 0 0 0-17.5-10 138.219 138.219 0 0 1-14.5 1.5 583.354 583.354 0 0 0-33 19 175.013 175.013 0 0 0-28 16l-4 1-23 15a336.071 336.071 0 0 0-40 23c-5.503 1.171-10.17 3.837-14 8A579.672 579.672 0 0 0 38 129.5a3439.804 3439.804 0 0 0-1.5 116c-.155 38.379.345 76.712 1.5 115l9.5 5.5c1.374 3.683 4.04 5.349 8 5a13376.247 13376.247 0 0 0 116 67c4.091 1.227 7.591.394 10.5-2.5.101-3.2.768-6.2 2-9 .667-23.333.667-46.667 0-70a20.231 20.231 0 0 0-7.5-7.5 82.15 82.15 0 0 1-22-13c-3.993-.322-7.326-1.988-10-5-3.415-.406-6.082-2.072-8-5l-10-4c-4.032-3.676-8.699-6.176-14-7.5-.167-45.335 0-90.668.5-136 6.664-3.313 12.831-7.48 18.5-12.5 6.799-1.87 12.799-5.203 18-10a81.82 81.82 0 0 0 19-11c5.503-1.171 10.17-3.837 14-8a368.678 368.678 0 0 0 44-26c2.243.319 4.41.152 6.5-.5l4.5 4.5c6.102 2.096 11.768 4.929 17 8.5v33c-6.298.751-12.298 2.418-18 5a5769.848 5769.848 0 0 1-17 59c-6.734 2.096-12.567 5.762-17.5 11a162.597 162.597 0 0 0-.5 18l-2 5c-1.316 2.587-1.983 5.587-2 9 .017 3.413.684 6.413 2 9l2 5c.167 94.667 0 189.334-.5 284l-2 2c-.667 14-.667 28 0 42a7.293 7.293 0 0 0 2 3l1 40a18.839 18.839 0 0 1 6.5 5.5 285.561 285.561 0 0 1 26 13 353.513 353.513 0 0 0 20 13.5v38h-5v-3h-6v-3c-2.092-.061-3.592-1.061-4.5-3-1.299.466-2.799.466-4.5 0v-3c-1.788.285-3.455-.048-5-1-2.158-3.144-5.158-4.477-9-4v-3a12.93 12.93 0 0 1-5-.5c-2.625-3.031-6.125-5.864-10.5-8.5-2.537.677-4.537-.323-6-3l-1 1c-1.667-1-3-2.333-4-4-1.049 1.017-2.216 1.184-3.5.5l1-1a15.645 15.645 0 0 1-4-2.5 23352.191 23352.191 0 0 1-1.5-216 1204.023 1204.023 0 0 0-28.5-16.5c-6.204-2.789-12.537-4.622-19-5.5v-3h-6v-3h-3v-3h-6v-3h-5v-3c-2.921.354-5.254-.646-7-3-1.714 1.109-2.381.442-2-2a58.97 58.97 0 0 1-11-3v-3a27.267 27.267 0 0 0-9-3v-3c-2.908.238-5.242-.762-7-3a3.647 3.647 0 0 0-1.5 1c-1.667-1-3-2.333-4-4l-1 1a4.932 4.932 0 0 1-.5-3h-6v-3h-5v-3a544.412 544.412 0 0 1-29-14v-3a58.967 58.967 0 0 1-11-3v-3h-6v-3c-4.013-1.674-8.013-3.341-12-5 .008-83.648.008-167.148 0-250.5a169.104 169.104 0 0 0 15-5.5v-3a58.967 58.967 0 0 0 11-3v-3a417.79 417.79 0 0 0 15-7 32.686 32.686 0 0 0 8.5-6l1 1c1.049-1.607 2.549-2.273 4.5-2v-3a59.029 59.029 0 0 1 11-3 4.932 4.932 0 0 1 .5-3l1 1c2.015-3.065 4.515-4.065 7.5-3v-3h5v-3c1.7.16 3.366-.007 5-.5 1.478-2.057 3.478-3.39 6-4l-2-1a18.436 18.436 0 0 1 6-.5v-3a87.51 87.51 0 0 0 14-5v-3h6v-3h5v-3c1.701-.466 3.201-.466 4.5 0 3.279-4.047 7.946-7.047 14-9a18.264 18.264 0 0 0 5-4l1 1c1.049-1.607 2.549-2.273 4.5-2v-3h5v-3h6v-3c4.612-1.195 9.279-2.862 14-5v-3c1.701-.466 3.201-.466 4.5 0 .908-1.939 2.408-2.939 4.5-3v-3h6v-3c1.788.285 3.455-.048 5-1a38.767 38.767 0 0 0 7-4.5 49.25 49.25 0 0 1 14 0c2.025 1.677 4.359 2.677 7 3-1.134 1.016-.801 1.683 1 2l5 1-1 1c2.622 3.073 5.955 4.573 10 4.5v3h6v3c2.053-.098 3.72.569 5 2Z"/><path style="opacity:1" fill="#61d469" d="M544.5 19.5v12a191.067 191.067 0 0 1-32 18.5 298.754 298.754 0 0 1-37 21c-5.462 4.395-11.462 7.729-18 10a260.747 260.747 0 0 1-26 16c-2.825 2.143-4.825 4.81-6 8 .701 2.38 1.867 4.547 3.5 6.5a753.216 753.216 0 0 0 59.5 35.5c4.333.667 8.667.667 13 0a1793.64 1793.64 0 0 0 43-23.5v32a21.435 21.435 0 0 0-7-1 24.93 24.93 0 0 1-8-1c-1.602-1.574-3.602-2.241-6-2a40.914 40.914 0 0 0-9 .5 140.846 140.846 0 0 1-17 17.5c-1.568.973-3.235 1.14-5 .5a229.01 229.01 0 0 1-22-13c-4.871-1.741-9.204-4.408-13-8a90.42 90.42 0 0 1-14-6l-4-4a43965.09 43965.09 0 0 1-185-105.5v-13c2.565 2.188 5.565 3.188 9 3v3c3.58 1.22 7.247 2.386 11 3.5l-2 1c2.767.678 4.934 2.178 6.5 4.5l1-1c3.769 1.797 7.102 4.13 10 7a3.942 3.942 0 0 1 2-1c1.482 1.612 3.315 2.612 5.5 3v3h6v3h5v3h6v3a87.51 87.51 0 0 0 14 5v3c1.699-.16 3.366.007 5 .5l-1 1c1.525 1.009 3.192 1.509 5 1.5v3h6v3h5v3c2.985-1.065 5.485-.065 7.5 3l1-1c.483.948.649 1.948.5 3h5v3h6v3c2.133 1.386 5.133 2.386 9 3v3c2.908-.238 5.242.762 7 3l2-1c.35 2.067 2.017 3.067 5 3v3h6v3c2.516-.255 4.85-1.089 7-2.5a626.207 626.207 0 0 1 29-17c.837-1.011 1.17-2.178 1-3.5 4.493-.216 7.993-2.216 10.5-6 1.011.837 2.178 1.17 3.5 1v-3a59.031 59.031 0 0 0 11-3v-3c1.808.009 3.475-.491 5-1.5l-1-1a12.935 12.935 0 0 1 5-.5v-3a9.864 9.864 0 0 0 6-1 35.213 35.213 0 0 1 8-4v-3h6v-3a59.031 59.031 0 0 1 11-3v-3c1.808.009 3.475-.491 5-1.5-1.388-.89-1.222-1.39.5-1.5 2.071 1.167 3.571.5 4.5-2 6.434-2.343 12.767-5.343 19-9v-3a59.031 59.031 0 0 1 11-3 4.934 4.934 0 0 1 .5-3l1 1c.816-1.323 1.983-1.99 3.5-2Z"/><path style="opacity:.999" fill="#273339" d="M549.5 481.5c-1.458.079-2.792.579-4 1.5 14.329.5 28.663.667 43 .5 2.599.049 4.766 1.049 6.5 3 .667 52 .667 104 0 156-1.887 1.526-2.887 3.526-3 6-.827 13.84-.661 27.506.5 41 .166 7.341 0 14.674-.5 22a11.333 11.333 0 0 1-1.5 3.5 324.812 324.812 0 0 1-43 1.5c-.709-.904-1.709-1.237-3-1-21.669-.167-43.336 0-65 .5a209.75 209.75 0 0 0-30 18c-6.4 2.062-12.067 5.396-17 10-6.761 1.869-12.761 5.202-18 10-4.976 2.639-10.31 4.472-16 5.5a54.915 54.915 0 0 1-10-2.5 35.157 35.157 0 0 0-10-5c-3.796-3.592-8.129-6.259-13-8a279.412 279.412 0 0 0-19-12c-3.959.349-6.626-1.317-8-5-8.36-3.016-16.027-7.349-23-13a169.242 169.242 0 0 0-22-11l-19-13a126.364 126.364 0 0 0-20-9.5 353.513 353.513 0 0 1-20-13.5 285.561 285.561 0 0 0-26-13 18.839 18.839 0 0 0-6.5-5.5l-1-40a7.293 7.293 0 0 1-2-3c-.667-14-.667-28 0-42l2-2c.5-94.666.667-189.333.5-284 3.346 3.671 7.346 6.338 12 8v275h21c-.321-5.195.013-10.195 1-15v15h7c.328-11.845-.005-23.512-1-35 .393-4.062 2.393-7.062 6-9 5.81.99 11.81 1.323 18 1 6.813.991 13.813 1.325 21 1 1.517.011 2.684.677 3.5 2 .5 13.329.667 26.663.5 40a290.49 290.49 0 0 1 41 1.5 333.527 333.527 0 0 1 .5 44.5l-1.5 1.5c-13.329.5-26.663.667-40 .5v5a1681.8 1681.8 0 0 0 82 1c.331-28.172-.002-56.172-1-84-7.674.166-15.341 0-23-.5a13.92 13.92 0 0 1-3-4c-5.516-.173-10.849-.673-16-1.5h17c.319-4.863-.014-9.53-1-14v-1a308.5 308.5 0 0 0 1.5-25 9.454 9.454 0 0 1 2.5-1.5c23.333-.667 46.667-.667 70 0l2.5 2.5c.5 8.66.666 17.327.5 26v103h34v-89h-25c8.15-.993 16.483-1.326 25-1v-15c-.166-8.007 0-16.007.5-24 1.129-1.641 2.629-2.641 4.5-3h24c13 1.333 26 1.333 39 0a10114.473 10114.473 0 0 1 167-95.5l4-4a114.302 114.302 0 0 0 13-6 846.02 846.02 0 0 0 33-20 73.86 73.86 0 0 0 9-3.5 7901.316 7901.316 0 0 0-1.5-216 2129.254 2129.254 0 0 1-37.5-21.5c-3.415-.406-6.082-2.072-8-5a91.311 91.311 0 0 1-23-13 457.332 457.332 0 0 0-22-11c-2.508-3.042-5.508-5.376-9-7a457.332 457.332 0 0 1-22-11l-24-15c-3.415-.406-6.082-2.072-8-5a90.401 90.401 0 0 0-14-6c-5.722-6.435-12.722-8.768-21-7-7.36 5.663-15.36 9.996-24 13-3.619 3.977-7.952 6.644-13 8-2.537 2.546-5.537 4.212-9 5l-4 4-10 4a2551.356 2551.356 0 0 0-60 36 7185.005 7185.005 0 0 1 26 16 114.065 114.065 0 0 0 14 6c4.2 3.6 8.867 6.433 14 8.5a684.54 684.54 0 0 1 19-8.5 43.593 43.593 0 0 1 13-8c2.365-3.714 5.698-5.714 10-6a705.673 705.673 0 0 1 21-12c4.719-2.307 9.719-2.974 15-2a113.107 113.107 0 0 0 28 15l5 5a182.852 182.852 0 0 1 35 20 193.115 193.115 0 0 1 32 19 197.694 197.694 0 0 1 17 8 69.2 69.2 0 0 1 4.5 6.5c.667 48.667.667 97.333 0 146-5.181 6.173-11.681 10.34-19.5 12.5a12318.477 12318.477 0 0 1-28 18c-6.381 2.027-12.048 5.361-17 10-6.943 1.604-12.943 4.937-18 10a59.724 59.724 0 0 0-20 11 146.497 146.497 0 0 0-31 18c-6.4 2.062-12.067 5.396-17 10a90.42 90.42 0 0 1-14 6c-5.236 4.899-11.236 8.566-18 11-3.31 3.497-7.31 5.83-12 7-5.638 4.312-11.638 7.812-18 10.5-1.025-.397-1.192-1.063-.5-2 7.609-7.312 14.109-15.312 19.5-24 2.952.383 5.619-.783 8-3.5 4.75-1.03 8.75-3.363 12-7a56.81 56.81 0 0 0 15-9 24.569 24.569 0 0 1 8-3c.752-.671 1.086-1.504 1-2.5 3.467.054 6.134-1.446 8-4.5l14-6 4-4a517.21 517.21 0 0 0 27-14c3.492-1.624 6.492-3.958 9-7 5.319-1.548 9.985-4.215 14-8a349.402 349.402 0 0 0 37-19 679.07 679.07 0 0 1 23-15 12.93 12.93 0 0 1 5-.5c.167-28.335 0-56.669-.5-85l-2-2-1-51a4305.66 4305.66 0 0 1-114.5-66 254.839 254.839 0 0 0-23 13 1793.64 1793.64 0 0 1-43 23.5 42.479 42.479 0 0 1-13 0 753.216 753.216 0 0 1-59.5-35.5c-1.633-1.953-2.799-4.12-3.5-6.5 1.175-3.19 3.175-5.857 6-8a260.747 260.747 0 0 0 26-16c6.538-2.271 12.538-5.605 18-10a298.754 298.754 0 0 0 37-21 191.067 191.067 0 0 0 32-18.5 246.93 246.93 0 0 1 16-8.5c9.584-1.031 17.918 1.636 25 8 4.302.286 7.635 2.286 10 6a1126.1 1126.1 0 0 1 31 16c4.933 4.604 10.6 7.938 17 10a161.879 161.879 0 0 0 33 19l4 4a457.332 457.332 0 0 1 22 11 29746.604 29746.604 0 0 0 46 28c2.71 1.747 5.71 2.747 9 3a36.078 36.078 0 0 1 3.5 4.5c.667 76 .667 152 0 228a190.921 190.921 0 0 1-21.5 10.5l-8 6a1884.13 1884.13 0 0 0-86 50l-4 1a472.117 472.117 0 0 1-46 26 1894.86 1894.86 0 0 1-46 27.5Z"/><path style="opacity:1" fill="#283339" d="M254.5 33.5a43965.09 43965.09 0 0 0 185 105.5l4 4a90.42 90.42 0 0 0 14 6c3.796 3.592 8.129 6.259 13 8a229.01 229.01 0 0 0 22 13c1.765.64 3.432.473 5-.5a101.944 101.944 0 0 0-12 12c-1.961-3.442-4.961-5.609-9-6.5l-8-6c-8.398-4.53-16.731-9.03-25-13.5-.011-1.517-.677-2.684-2-3.5a24.935 24.935 0 0 0-7-.5c-4.571-5.059-10.238-8.226-17-9.5-3.065-4.125-7.065-6.791-12-8l-6-5a546.6 546.6 0 0 0-35-18 108.394 108.394 0 0 1-19-13 1516.16 1516.16 0 0 1-91-52A228.066 228.066 0 0 0 230 34.5 112.066 112.066 0 0 0 206.5 48l-10 4-3 3c-6.771 2.445-12.771 6.111-18 11l-10 4-4 4a520.666 520.666 0 0 0-59 34l-9 3c-2.508 3.042-5.508 5.376-9 7a583.92 583.92 0 0 1-36 19 7827.247 7827.247 0 0 0-.5 216.5 7214.146 7214.146 0 0 0 125 72c.5-21.664.667-43.331.5-65a340.197 340.197 0 0 0-18-8.5 55.63 55.63 0 0 0-18-10 78.488 78.488 0 0 0-23-13 56.965 56.965 0 0 0-10.5-7.5 2946.23 2946.23 0 0 1 1-153 230.435 230.435 0 0 0 32.5-19.5c8.372-3.019 16.038-7.352 23-13 5.093-1.382 9.426-4.049 13-8a90.42 90.42 0 0 0 14-6c1.918-2.928 4.585-4.594 8-5a226.438 226.438 0 0 1 29-17 42.498 42.498 0 0 1 13 0l4 4a154.79 154.79 0 0 0 13 6 1081.768 1081.768 0 0 0 33 20l4 1c8.98 5.636 17.98 11.302 27 17 7.27 1.913 13.604 5.58 19 11 2.861.54 5.528 1.54 8 3 1.614 2.127 3.614 3.627 6 4.5a38.469 38.469 0 0 0-2 12 4475.595 4475.595 0 0 1-95-55c-5.232-3.571-10.898-6.404-17-8.5l-4.5-4.5c-2.09.652-4.257.819-6.5.5a368.678 368.678 0 0 1-44 26c-3.83 4.163-8.497 6.829-14 8a81.82 81.82 0 0 1-19 11c-5.201 4.797-11.201 8.13-18 10-5.669 5.02-11.836 9.187-18.5 12.5-.5 45.332-.667 90.665-.5 136 5.301 1.324 9.968 3.824 14 7.5l10 4c1.918 2.928 4.585 4.594 8 5 2.674 3.012 6.007 4.678 10 5a82.15 82.15 0 0 0 22 13 20.231 20.231 0 0 1 7.5 7.5c.667 23.333.667 46.667 0 70-1.232 2.8-1.899 5.8-2 9-2.909 2.894-6.409 3.727-10.5 2.5a13376.247 13376.247 0 0 1-116-67c-3.96.349-6.626-1.317-8-5l-9.5-5.5a3364.223 3364.223 0 0 1-1.5-115c-.152-38.704.348-77.371 1.5-116A579.672 579.672 0 0 1 80.5 107c3.83-4.163 8.497-6.829 14-8a336.071 336.071 0 0 1 40-23l23-15 4-1a175.013 175.013 0 0 1 28-16 583.354 583.354 0 0 1 33-19c4.872-.246 9.705-.746 14.5-1.5a127.652 127.652 0 0 1 17.5 10Z"/><path style="opacity:1" fill="#fdfdfd" d="M434.5 151.5c-25.669-.167-51.335 0-77 .5-2.684 4.052-4.184 8.552-4.5 13.5-.383.556-.883.889-1.5 1-2.386-.873-4.386-2.373-6-4.5a24.569 24.569 0 0 0-8-3c-5.396-5.42-11.73-9.087-19-11a10892.14 10892.14 0 0 0-27-17l-4-1a1081.768 1081.768 0 0 1-33-20 154.79 154.79 0 0 1-13-6l-4-4a42.498 42.498 0 0 0-13 0 226.438 226.438 0 0 0-29 17c-3.415.406-6.082 2.072-8 5a90.42 90.42 0 0 1-14 6c-3.574 3.951-7.907 6.618-13 8-6.962 5.648-14.628 9.981-23 13a230.435 230.435 0 0 1-32.5 19.5 2946.23 2946.23 0 0 0-1 153 56.965 56.965 0 0 1 10.5 7.5 78.488 78.488 0 0 1 23 13 55.63 55.63 0 0 1 18 10 340.197 340.197 0 0 1 18 8.5c.167 21.669 0 43.336-.5 65a7214.146 7214.146 0 0 1-125-72 7827.247 7827.247 0 0 1 .5-216.5 583.92 583.92 0 0 0 36-19c3.492-1.624 6.492-3.958 9-7l9-3a520.666 520.666 0 0 1 59-34l4-4 10-4c5.229-4.889 11.229-8.555 18-11l3-3 10-4A112.066 112.066 0 0 1 230 34.5 228.066 228.066 0 0 1 254.5 46a1516.16 1516.16 0 0 0 91 52 108.394 108.394 0 0 0 19 13 546.6 546.6 0 0 1 35 18l6 5c4.935 1.209 8.935 3.875 12 8 6.762 1.274 12.429 4.441 17 9.5ZM524.5 482.5a342.787 342.787 0 0 1-37-1 173.073 173.073 0 0 0 16.5-13 12.494 12.494 0 0 0 0-7 708.88 708.88 0 0 1-22.5-18c6.362-2.688 12.362-6.188 18-10.5 4.69-1.17 8.69-3.503 12-7 6.764-2.434 12.764-6.101 18-11a90.42 90.42 0 0 0 14-6c4.933-4.604 10.6-7.938 17-10a146.497 146.497 0 0 1 31-18 59.724 59.724 0 0 1 20-11c5.057-5.063 11.057-8.396 18-10 4.952-4.639 10.619-7.973 17-10 9.313-5.969 18.646-11.969 28-18 7.819-2.16 14.319-6.327 19.5-12.5.667-48.667.667-97.333 0-146a69.2 69.2 0 0 0-4.5-6.5 197.694 197.694 0 0 0-17-8 193.115 193.115 0 0 0-32-19 182.852 182.852 0 0 0-35-20l-5-5a113.107 113.107 0 0 1-28-15c-5.281-.974-10.281-.307-15 2a705.673 705.673 0 0 0-21 12c-4.302.286-7.635 2.286-10 6a43.593 43.593 0 0 0-13 8 684.54 684.54 0 0 0-19 8.5 50.162 50.162 0 0 1-14-8.5 114.065 114.065 0 0 1-14-6 7185.005 7185.005 0 0 0-26-16 2551.356 2551.356 0 0 1 60-36l10-4 4-4c3.463-.788 6.463-2.454 9-5 5.048-1.356 9.381-4.023 13-8 8.64-3.004 16.64-7.337 24-13 8.278-1.768 15.278.565 21 7a90.401 90.401 0 0 1 14 6c1.918 2.928 4.585 4.594 8 5l24 15a457.332 457.332 0 0 0 22 11c3.492 1.624 6.492 3.958 9 7a457.332 457.332 0 0 1 22 11 91.311 91.311 0 0 0 23 13c1.918 2.928 4.585 4.594 8 5a2129.254 2129.254 0 0 0 37.5 21.5 7901.316 7901.316 0 0 1 1.5 216 73.86 73.86 0 0 1-9 3.5 846.02 846.02 0 0 1-33 20 114.302 114.302 0 0 1-13 6l-4 4a10114.473 10114.473 0 0 0-167 95.5Z"/><path style="opacity:1" fill="#fdfdfd" d="M544.5 392.5v-19c5.609-4.712 11.943-8.212 19-10.5a172.26 172.26 0 0 0 18-13c5.35-1.428 9.85-4.261 13.5-8.5.5-22.998.667-45.998.5-69 2.458-3.253 4.125-6.92 5-11 1.147-4.146 1.314-8.48.5-13-.383-.556-.883-.889-1.5-1l-4-8a50.464 50.464 0 0 0-.5-10 32.06 32.06 0 0 1-10.5-7.5 4.934 4.934 0 0 0-3-.5 1854.58 1854.58 0 0 0-18.5-59 36.078 36.078 0 0 0-4.5-3.5c-4.68-.837-9.346-1.671-14-2.5v-33a254.839 254.839 0 0 1 23-13 4305.66 4305.66 0 0 0 114.5 66l1 51 2 2c.5 28.331.667 56.665.5 85a12.93 12.93 0 0 0-5 .5 679.07 679.07 0 0 0-23 15 349.402 349.402 0 0 1-37 19c-4.015 3.785-8.681 6.452-14 8-2.508 3.042-5.508 5.376-9 7a517.21 517.21 0 0 1-27 14l-4 4-14 6c-1.866 3.054-4.533 4.554-8 4.5Z"/><path style="opacity:1" fill="#5fd167" d="M254.5 123.5a4475.595 4475.595 0 0 0 95 55 146.73 146.73 0 0 1-3 18 881.362 881.362 0 0 1-35-19c-9.887-7.215-18.887-15.548-27-25-3.284-1.157-6.618-1.324-10-.5a218.526 218.526 0 0 0-20 4.5v-33Z"/><path style="opacity:1" fill="#241f21" d="M311.5 177.5c9.8 10.969 19.8 21.802 30 32.5 1.813.614 2.147.281 1-1a60.84 60.84 0 0 1 4-12.5 146.73 146.73 0 0 0 3-18c.034-4.13.701-8.13 2-12 .617-.111 1.117-.444 1.5-1 .316-4.948 1.816-9.448 4.5-13.5 25.665-.5 51.331-.667 77-.5 2.357-.163 4.69.003 7 .5 1.323.816 1.989 1.983 2 3.5a963.607 963.607 0 0 1 13 55 594.556 594.556 0 0 0 29-29 101.944 101.944 0 0 1 12-12 140.846 140.846 0 0 0 17-17.5 40.914 40.914 0 0 1 9-.5c1.602 1.574 3.602 2.241 6 2a24.93 24.93 0 0 0 8 1c2.099 1.112 4.433 1.779 7 2 4.654.829 9.32 1.663 14 2.5a36.078 36.078 0 0 1 4.5 3.5 1854.58 1854.58 0 0 1 18.5 59c1.163 3.982 2.329 7.982 3.5 12 3.903 1.366 7.403 3.366 10.5 6l4 8a59.567 59.567 0 0 1 1 14c-.875 4.08-2.542 7.747-5 11a47.216 47.216 0 0 1-12 6c-18.508.66-27.674-8.34-27.5-27a205.256 205.256 0 0 0-21-13 3.943 3.943 0 0 0-2 1 354.66 354.66 0 0 0-9.5 24c-.73 3.078-1.897 6.078-3.5 9l-1 91a27.603 27.603 0 0 1-1.5 5 461.162 461.162 0 0 0-2 15 438.254 438.254 0 0 0-7 19 128.836 128.836 0 0 0-6 12c-.901.79-1.568 1.79-2 3-5.391 8.688-11.891 16.688-19.5 24-.692.937-.525 1.603.5 2 7.3 6.09 14.8 12.09 22.5 18a12.494 12.494 0 0 1 0 7 173.073 173.073 0 0 1-16.5 13l-2 1h-24a210.93 210.93 0 0 1 21-17 75.246 75.246 0 0 0-16-13 91.71 91.71 0 0 0-10 6 598.896 598.896 0 0 0-6 3c-2.467.255-4.467 1.255-6 3a271.819 271.819 0 0 0-14 4c-2.873.302-5.539.969-8 2-5.18.347-10.18 1.013-15 2h-16a348.244 348.244 0 0 0-28-5c-1.903-.296-3.57-.963-5-2-2.255-1.88-4.922-2.88-8-3a190.949 190.949 0 0 1-18-10 398.162 398.162 0 0 0-15.5 11c-.711 1.867-.211 3.367 1.5 4.5a189.783 189.783 0 0 1 21 16.5v26h6c.986 4.47 1.319 9.137 1 14h-17a514.367 514.367 0 0 1-4-3 81.883 81.883 0 0 1-1-18c-10.158-1.159-20.492-1.325-31-.5-1.882.198-3.548.698-5 1.5-7.564 2.114-14.231 5.78-20 11l-3 2c-6.19.323-12.19-.01-18-1 5.694-9.027 13.027-16.361 22-22 7.042-2.688 14.042-4.688 21-6 3.228-.914 6.561-1.247 10-1a98.432 98.432 0 0 0-.5-14 14.698 14.698 0 0 0-3.5-3c-1.333-3.333-1.333-6.667 0-10a119.872 119.872 0 0 0 4-5 49.995 49.995 0 0 0 10-6l2-1c4.248-1.088 5.748-3.755 4.5-8-4.774-4.266-8.941-8.932-12.5-14-11.707-16.935-19.374-34.935-23-54-.819-2.805-1.319-5.805-1.5-9l-1-91a88.805 88.805 0 0 1-4.5-12 64.353 64.353 0 0 0-6-14c-.865-1.083-1.865-1.249-3-.5a241.21 241.21 0 0 0-22.5 13.5c-.656 19.159-10.49 27.826-29.5 26-4.654-1.662-8.654-4.329-12-8l-2-5c-1.333-6-1.333-12 0-18l2-5c3.181-3.84 7.181-6.507 12-8 1.238-1.714 1.905-3.714 2-6a24453.08 24453.08 0 0 1 4-15 5769.848 5769.848 0 0 0 17-59c5.702-2.582 11.702-4.249 18-5a218.526 218.526 0 0 1 20-4.5c3.382-.824 6.716-.657 10 .5 8.113 9.452 17.113 17.785 27 25Z"/><path style="opacity:1" fill="#326d36" d="M523.5 151.5c2.398-.241 4.398.426 6 2-2.398.241-4.398-.426-6-2Z"/><path style="opacity:1" fill="#397e3e" d="M537.5 154.5a21.435 21.435 0 0 1 7 1v1c-2.567-.221-4.901-.888-7-2Z"/><path style="opacity:1" fill="#f4f4f5" d="M443.5 155.5c8.269 4.47 16.602 8.97 25 13.5l8 6c4.039.891 7.039 3.058 9 6.5a594.556 594.556 0 0 1-29 29 963.607 963.607 0 0 0-13-55Z"/><path style="opacity:1" fill="#6d5f94" d="M424.5 169.5c-7.972-1.331-16.306-1.998-25-2-8.694.002-17.028.669-25 2-.904-.709-1.237-1.709-1-3h52c.237 1.291-.096 2.291-1 3Z"/><path style="opacity:1" fill="#7a68a9" d="M278.5 168.5a105.642 105.642 0 0 1-22 3 267.743 267.743 0 0 1 14-3.5c2.867-.801 5.534-.634 8 .5Z"/><path style="opacity:1" fill="#b4a1f1" d="M424.5 169.5a660.097 660.097 0 0 0-19.5 51c-3.667 6.667-7.333 6.667-11 0-2.979-11.635-7.313-22.635-13-33-1.399-6.428-3.565-12.428-6.5-18 7.972-1.331 16.306-1.998 25-2 8.694.002 17.028.669 25 2Z"/><path style="opacity:1" fill="#aa91ea" d="M524.5 168.5c-14.2 34.09-28.7 68.09-43.5 102a42.34 42.34 0 0 0 .5 15h-186a162.597 162.597 0 0 0-.5-18 2542.728 2542.728 0 0 1-41.5-96h3a105.642 105.642 0 0 0 22-3 2035.67 2035.67 0 0 0 65 64.5c5.062 1.607 8.728.107 11-4.5.617-.111 1.117-.444 1.5-1 .548-3.67 1.048-7.337 1.5-11a27.555 27.555 0 0 0 2-10 314.23 314.23 0 0 1 5-16 31.147 31.147 0 0 0 2 2c.226 3.897 1.559 7.23 4 10 4.812 9.316 8.812 19.149 12 29.5a32.845 32.845 0 0 0-4 8.5c-1.305 1.897-1.971 4.231-2 7 .003 2.525.337 4.859 1 7 2.606 6.939 7.272 11.939 14 15 .111.617.444 1.117 1 1.5 4.667.667 9.333.667 14 0 1.82-.2 3.153-1.034 4-2.5 4.427-3.093 7.76-7.093 10-12 1.309-2.071 1.975-4.571 2-7.5l-.5-7.5c-.383-.556-.883-.889-1.5-1a32.845 32.845 0 0 0-4-8.5 366.644 366.644 0 0 0 4-9.5c3.925-5.214 6.258-11.214 7-18 .375-2.198 1.042-4.198 2-6 2.08-2.291 3.746-4.958 5-8a314.23 314.23 0 0 1 5 16 27.555 27.555 0 0 0 2 10c.452 3.663.952 7.33 1.5 11 .383.556.883.889 1.5 1 2.6 5.225 6.6 6.392 12 3.5l64-64c1.566-.765 2.899-.598 4 .5Z"/><path style="opacity:1" fill="#9479da" d="M524.5 168.5c7.004.927 14.004 1.927 21 3a8620.096 8620.096 0 0 1-40 94c-.617.111-1.117.444-1.5 1-.5 6.325-.666 12.658-.5 19h-22a42.34 42.34 0 0 1-.5-15c14.8-33.91 29.3-67.91 43.5-102Z"/><path style="opacity:1" fill="#263338" d="M311.5 177.5a881.362 881.362 0 0 0 35 19 60.84 60.84 0 0 0-4 12.5c1.147 1.281.813 1.614-1 1a1365.035 1365.035 0 0 1-30-32.5Z"/><path style="opacity:1" fill="#68598f" d="M366.5 192.5a31.147 31.147 0 0 1-2-2 314.23 314.23 0 0 0-5 16 108.985 108.985 0 0 1 4-20c2.478 1.222 3.478 3.222 3 6Z"/><path style="opacity:1" fill="#685a90" d="M439.5 206.5a314.23 314.23 0 0 0-5-16c-1.254 3.042-2.92 5.709-5 8a77.918 77.918 0 0 1 3.5-10 7.248 7.248 0 0 1 2.5-2 108.985 108.985 0 0 1 4 20Z"/><path style="opacity:1" fill="#8068c7" d="M554.5 190.5c1.086.12 1.753.787 2 2a1292.858 1292.858 0 0 1 12 41.5c-1.298 3.205-3.632 4.205-7 3-7.037-4.846-14.037-9.679-21-14.5a967.54 967.54 0 0 1 14-32Z"/><path style="opacity:1" fill="#6e5f99" d="M366.5 192.5c2.397 2.809 3.73 6.142 4 10-2.441-2.77-3.774-6.103-4-10Z"/><path style="opacity:1" fill="#8f74d2" d="M242.5 191.5c1.322-.17 2.489.163 3.5 1a836.85 836.85 0 0 0 15.5 37 228.678 228.678 0 0 1-26.5 16c-2.797-.297-4.297-1.797-4.5-4.5a379.565 379.565 0 0 1 11.5-42.5c.497-2.31.663-4.643.5-7Z"/><path style="opacity:1" fill="#7c6aab" d="M427.5 204.5c-.742 6.786-3.075 12.786-7 18a93.012 93.012 0 0 1 7-18Z"/><path style="opacity:1" fill="#263137" d="M219.5 220.5a24453.08 24453.08 0 0 0-4 15c-1.808 1.418-2.475 3.418-2 6-4.819 1.493-8.819 4.16-12 8-.166-6.009.001-12.009.5-18 4.933-5.238 10.766-8.904 17.5-11Z"/><path style="opacity:1" fill="#263238" d="M581.5 221.5a4.934 4.934 0 0 1 3 .5 32.06 32.06 0 0 0 10.5 7.5c.498 3.317.665 6.65.5 10-3.097-2.634-6.597-4.634-10.5-6-1.171-4.018-2.337-8.018-3.5-12Z"/><path style="opacity:1" fill="#6d5d97" d="M357.5 216.5c-.452 3.663-.952 7.33-1.5 11-.383.556-.883.889-1.5 1 .37-4.274 1.37-8.274 3-12ZM441.5 216.5c1.63 3.726 2.63 7.726 3 12-.617-.111-1.117-.444-1.5-1a436.267 436.267 0 0 1-1.5-11Z"/><path style="opacity:1" fill="#b5b6b7" d="M215.5 235.5c-.095 2.286-.762 4.286-2 6-.475-2.582.192-4.582 2-6Z"/><path style="opacity:1" fill="#fcfcfc" d="M583.5 278.5c.167 19.669 0 39.336-.5 59a249.84 249.84 0 0 1-22.5 11.5c-5.373 5.383-11.706 9.049-19 11a48.835 48.835 0 0 1-13.5 8.5l-1-100c-2.172-1.009-3.338-2.676-3.5-5a354.66 354.66 0 0 1 9.5-24 3.943 3.943 0 0 1 2-1 205.256 205.256 0 0 1 21 13c-.174 18.66 8.992 27.66 27.5 27Z"/><path style="opacity:1" fill="#63558b" d="M378.5 240.5a59.567 59.567 0 0 0-1 14c-.663-2.141-.997-4.475-1-7 .029-2.769.695-5.103 2-7Z"/><path style="opacity:1" fill="#62548a" d="M420.5 240.5c.617.111 1.117.444 1.5 1l.5 7.5c-.025 2.929-.691 5.429-2 7.5 1.333-5.333 1.333-10.667 0-16Z"/><path style="opacity:1" fill="#fdfdfd" d="M274.5 260.5c.322 3.688-1.178 6.355-4.5 8-.5 75.333-.667 150.666-.5 226-8.973 5.639-16.306 12.973-22 22-3.607 1.938-5.607 4.938-6 9a5.727 5.727 0 0 0-1 3c-3.394 3.804-5.06 8.47-5 14v3c-.987 4.805-1.321 9.805-1 15h-21v-275c19.01 1.826 28.844-6.841 29.5-26a241.21 241.21 0 0 1 22.5-13.5c1.135-.749 2.135-.583 3 .5a64.353 64.353 0 0 1 6 14Z"/><path style="opacity:1" fill="#d8b047" d="M394.5 243.5c.812-1.493 2.145-2.16 4-2 7.609.28 9.943 3.946 7 11-2.817 2.704-6.15 3.538-10 2.5-3.425-3.749-3.759-7.582-1-11.5Z"/><path style="opacity:1" fill="#fed054" d="M394.5 243.5a40.914 40.914 0 0 1 9 .5l2 2a26.67 26.67 0 0 0-1.5 6.5h-9a40.914 40.914 0 0 1-.5-9Z"/><path style="opacity:1" fill="#e5af3e" d="M576.5 248.5c6.436.269 9.603 3.602 9.5 10-4.375 4.881-9.042 5.215-14 1-1.607-5.062-.107-8.728 4.5-11Z"/><path style="opacity:1" fill="#6b6c6c" d="M599.5 247.5c.617.111 1.117.444 1.5 1 .814 4.52.647 8.854-.5 13a59.567 59.567 0 0 0-1-14Z"/><path style="opacity:1" fill="#8e6f2b" d="M223.5 257.5h-7c2.416-2.534 4.75-2.534 7 0Z"/><path style="opacity:1" fill="#e4af3e" d="M216.5 257.5h7c5.311 4.04 5.311 8.206 0 12.5-7.131 1.529-10.631-1.304-10.5-8.5.66-1.824 1.827-3.157 3.5-4Z"/><path style="opacity:1" fill="#6b3131" d="M199.5 254.5c-1.333 6-1.333 12 0 18-1.316-2.587-1.983-5.587-2-9 .017-3.413.684-6.413 2-9Z"/><path style="opacity:1" fill="#253137" d="M274.5 260.5a88.805 88.805 0 0 0 4.5 12l1 91c.181 3.195.681 6.195 1.5 9v117c3.018-.204 6.018-.537 9-1-6.958 1.312-13.958 3.312-21 6-.167-75.334 0-150.667.5-226 3.322-1.645 4.822-4.312 4.5-8Z"/><path style="opacity:1" fill="#263238" d="M523.5 263.5c.162 2.324 1.328 3.991 3.5 5l1 100a48.835 48.835 0 0 0 13.5-8.5c7.294-1.951 13.627-5.617 19-11a249.84 249.84 0 0 0 22.5-11.5c.5-19.664.667-39.331.5-59a47.216 47.216 0 0 0 12-6c.167 23.002 0 46.002-.5 69-3.65 4.239-8.15 7.072-13.5 8.5a172.26 172.26 0 0 1-18 13c-7.057 2.288-13.391 5.788-19 10.5l-20 10c-5.117-.801-7.117-3.801-6-9 .295-2.235-.039-4.235-1-6a27.603 27.603 0 0 0 1.5-5l1-91c1.603-2.922 2.77-5.922 3.5-9Z"/><path style="opacity:1" fill="#605386" d="M410.5 268.5c-.847 1.466-2.18 2.3-4 2.5a49.226 49.226 0 0 1-14 0c-.556-.383-.889-.883-1-1.5 6.429 1.457 12.762 1.124 19-1Z"/><path style="opacity:1" fill="#493d69" d="M505.5 265.5a789.108 789.108 0 0 1-2 20c-.166-6.342 0-12.675.5-19 .383-.556.883-.889 1.5-1Z"/><path style="opacity:1" fill="#886d2c" d="M503.5 301.5c.968 2.107 1.302 4.441 1 7h-210v-8c69.835-.333 139.502.001 209 1Z"/><path style="opacity:1" fill="#d5ab45" d="M503.5 301.5v6h-208v-6h208Z"/><path style="opacity:1" fill="#fed154" d="M296.5 302.5h206v4h-206v-4Z"/><path style="opacity:1" fill="#e9c5ba" d="M417.5 455.5h-5a146.25 146.25 0 0 1-33 0c-39.42-8.413-65.753-31.746-79-70a287.314 287.314 0 0 1-4-61c61.668-.167 123.334 0 185 .5-.659 15.103-1.326 30.27-2 45.5-6.528 37.855-26.862 65.522-61 83-.363.683-.696 1.35-1 2Z"/><path style="opacity:1" fill="#d0afa7" d="M417.5 455.5c.304-.65.637-1.317 1-2 34.138-17.478 54.472-45.145 61-83 .674-15.23 1.341-30.397 2-45.5-61.666-.5-123.332-.667-185-.5a287.314 287.314 0 0 0 4 61 259.73 259.73 0 0 1-4.5-18c-.5-14.663-.667-29.33-.5-44h208c7.167 46.662-7.167 84.828-43 114.5-12.971 9.151-27.305 14.985-43 17.5Z"/><path style="opacity:1" fill="#5fd167" d="M544.5 373.5v19c.086.996-.248 1.829-1 2.5a24.569 24.569 0 0 0-8 3 56.81 56.81 0 0 1-15 9c-3.25 3.637-7.25 5.97-12 7-2.381 2.717-5.048 3.883-8 3.5.432-1.21 1.099-2.21 2-3 3.312-3.222 5.312-7.222 6-12a438.254 438.254 0 0 1 7-19 45.733 45.733 0 0 0 3-9c-1.117 5.199.883 8.199 6 9l20-10Z"/><path style="opacity:1" fill="#37793c" d="M517.5 368.5c.961 1.765 1.295 3.765 1 6a45.733 45.733 0 0 1-3 9 461.162 461.162 0 0 1 2-15Z"/><path style="opacity:1" fill="#5fd267" d="M304.5 426.5a14.698 14.698 0 0 0-3.5 3c-.5 8.66-.666 17.327-.5 26a119.872 119.872 0 0 1-4 5c-.617.111-1.117.444-1.5 1a16.242 16.242 0 0 0 0 8c.383.556.883.889 1.5 1 1.294.79 2.461 1.79 3.5 3 .499 4.655.666 9.321.5 14-3.439-.247-6.772.086-10 1-2.982.463-5.982.796-9 1v-117c3.626 19.065 11.293 37.065 23 54Z"/><path style="opacity:1" fill="#408d46" d="M508.5 402.5c-.688 4.778-2.688 8.778-6 12a128.836 128.836 0 0 1 6-12Z"/><path style="opacity:1" fill="#273238" d="M304.5 426.5c3.559 5.068 7.726 9.734 12.5 14 1.248 4.245-.252 6.912-4.5 8a25.14 25.14 0 0 1 4-4.5c-2.369-.536-4.369-1.703-6-3.5-1.303 3.145-1.303 6.145 0 9a49.995 49.995 0 0 1-10 6c-.166-8.673 0-17.34.5-26a14.698 14.698 0 0 1 3.5-3Z"/><path style="opacity:1" fill="#e6e7e7" d="m312.5 448.5-2 1c-1.303-2.855-1.303-5.855 0-9 1.631 1.797 3.631 2.964 6 3.5a25.14 25.14 0 0 0-4 4.5Z"/><path style="opacity:1" fill="#f9ca52" d="M350.5 462.5c2.255 1.88 4.922 2.88 8 3 1.43 1.037 3.097 1.704 5 2 8.863 3.518 18.197 5.185 28 5h16a98.432 98.432 0 0 0 14-.5c.556-.383.889-.883 1-1.5 3.053.389 5.72-.277 8-2a271.819 271.819 0 0 1 14-4c2.467-.255 4.467-1.255 6-3a598.896 598.896 0 0 1 6-3c3.459 1.584 6.459 3.917 9 7a608.175 608.175 0 0 1-20.5 21c-.5 6.992-.666 13.992-.5 21a60.931 60.931 0 0 1 11 .5c-10.384-.146-20.384.687-30 2.5-.709.904-1.709 1.237-3 1 .166-8.673 0-17.34-.5-26l-2.5-2.5a1224.638 1224.638 0 0 0-70 0 9.454 9.454 0 0 0-2.5 1.5 308.5 308.5 0 0 1-1.5 25h-5c.326-8.517-.007-16.85-1-25a189.783 189.783 0 0 0-21-16.5c-1.711-1.133-2.211-2.633-1.5-4.5a398.162 398.162 0 0 1 15.5-11 190.949 190.949 0 0 0 18 10Z"/><path style="opacity:1" fill="#b0948d" d="M379.5 455.5a146.25 146.25 0 0 0 33 0c-.763.768-1.763 1.268-3 1.5l-12 .5c-6.24.167-12.24-.5-18-2Z"/><path style="opacity:1" fill="#efb741" d="M461.5 482.5c-1.871.359-3.371 1.359-4.5 3-.5 7.993-.666 15.993-.5 24a249.277 249.277 0 0 0-31 1c9.616-1.813 19.616-2.646 30-2.5a60.931 60.931 0 0 0-11-.5c-.166-7.008 0-14.008.5-21a608.175 608.175 0 0 0 20.5-21c-2.541-3.083-5.541-5.416-9-7a91.71 91.71 0 0 1 10-6 75.246 75.246 0 0 1 16 13 210.93 210.93 0 0 0-21 17Z"/><path style="opacity:1" fill="#29562c" d="M296.5 460.5c-1.333 3.333-1.333 6.667 0 10-.617-.111-1.117-.444-1.5-1a16.242 16.242 0 0 1 0-8c.383-.556.883-.889 1.5-1Z"/><path style="opacity:1" fill="#96772e" d="M450.5 461.5c-1.533 1.745-3.533 2.745-6 3 1.533-1.745 3.533-2.745 6-3Z"/><path style="opacity:1" fill="#6a5422" d="M350.5 462.5c3.078.12 5.745 1.12 8 3-3.078-.12-5.745-1.12-8-3Z"/><path style="opacity:1" fill="#524220" d="M363.5 467.5a348.244 348.244 0 0 1 28 5c-9.803.185-19.137-1.482-28-5Z"/><path style="opacity:1" fill="#796025" d="M430.5 468.5c-2.28 1.723-4.947 2.389-8 2 2.461-1.031 5.127-1.698 8-2Z"/><path style="opacity:1" fill="#94762f" d="M422.5 470.5c-.111.617-.444 1.117-1 1.5a98.432 98.432 0 0 1-14 .5c4.82-.987 9.82-1.653 15-2Z"/><path style="opacity:1" fill="#5a6266" d="M487.5 481.5a342.787 342.787 0 0 0 37 1c-13 1.333-26 1.333-39 0l2-1Z"/><path style="opacity:1" fill="#5a6367" d="m549.5 481.5 39 2c-14.337.167-28.671 0-43-.5 1.208-.921 2.542-1.421 4-1.5Z"/><path style="opacity:1" fill="#d0d0d1" d="M309.5 481.5a24.99 24.99 0 0 1 8 5 16.873 16.873 0 0 1-8 1v-6Z"/><path style="opacity:1" fill="#8b6f2d" d="M339.5 484.5c.993 8.15 1.326 16.483 1 25h5v1h-6v-26Z"/><path style="opacity:1" fill="#aca9c0" d="M414.5 491.5h-60v31c-.994-10.487-1.328-21.154-1-32a931.31 931.31 0 0 1 61 1Z"/><path style="opacity:1" fill="#565f67" d="M464.5 490.5v217h119v-217c.999 72.498 1.333 145.165 1 218h-121c-.333-72.835.001-145.502 1-218Z"/><path style="opacity:1" fill="#e6defc" d="M414.5 491.5c-.167 60.334 0 120.668.5 181l1.5 3c8.307.998 16.64 1.331 25 1v32h-88v-32c8.007.166 16.007 0 24-.5l1.5-1.5c.667-50 .667-100 0-150l-1.5-1.5c-7.659-.5-15.326-.666-23-.5v-31h60Z"/><path style="opacity:1" fill="#e7defd" d="M464.5 490.5h119v217h-119v-217Z"/><path style="opacity:1" fill="#66578d" d="M324.5 503.5a487.277 487.277 0 0 0-36 1c1.452-.802 3.118-1.302 5-1.5 10.508-.825 20.842-.659 31 .5Z"/><path style="opacity:1" fill="#aa91ea" d="M324.5 503.5a81.883 81.883 0 0 0 1 18 514.367 514.367 0 0 0 4 3c5.151.827 10.484 1.327 16 1.5a13.92 13.92 0 0 0 3 4c7.659.5 15.326.666 23 .5v83h-81v-5c13.337.167 26.671 0 40-.5l1.5-1.5a333.527 333.527 0 0 0-.5-44.5 290.49 290.49 0 0 0-41-1.5c.167-13.337 0-26.671-.5-40-.816-1.323-1.983-1.989-3.5-2-6.235-.353-12.235-1.353-18-3 5.769-5.22 12.436-8.886 20-11a487.277 487.277 0 0 1 36-1Z"/><path style="opacity:1" fill="#272120" d="M456.5 509.5v15c-8.517-.326-16.85.007-25 1-1 .333-1.667 1-2 2a17.902 17.902 0 0 0-6 4h-1v-20c1.291.237 2.291-.096 3-1a249.277 249.277 0 0 1 31-1Z"/><path style="opacity:1" fill="#685f90" d="M268.5 515.5c5.765 1.647 11.765 2.647 18 3-7.187.325-14.187-.009-21-1l3-2Z"/><path style="opacity:1" fill="#28343a" d="M501.5 522.5c15.004-.167 30.004 0 45 .5l1.5 1.5c.83 50.237.664 100.404-.5 150.5a552.224 552.224 0 0 1-47 0 11.333 11.333 0 0 1-1.5-3.5 3601.9 3601.9 0 0 1 .5-147c1.022-.355 1.689-1.022 2-2Z"/><path style="opacity:1" fill="#242021" d="M241.5 525.5c.995 11.488 1.328 23.155 1 35h-7v-18a145.568 145.568 0 0 1 5-14 5.727 5.727 0 0 1 1-3Z"/><path style="opacity:1" fill="#e7defd" d="M324.5 568.5v32a400.456 400.456 0 0 0-40 1c-.283.789-.783 1.456-1.5 2a840.27 840.27 0 0 0-.5 41h-32a840.27 840.27 0 0 0-.5-41 6.978 6.978 0 0 0-3.5-2.5 799.793 799.793 0 0 0-40-.5v-32c14.004.167 28.004 0 42-.5l1.5-1.5c.5-13.663.667-27.329.5-41h32a840.27 840.27 0 0 0 .5 41l1.5 1.5c13.329.5 26.663.667 40 .5Z"/><path style="opacity:1" fill="#8474b6" d="M431.5 525.5h25v89h-34v-83h1v82h32v-87a185.163 185.163 0 0 0-26 1c.333-1 1-1.667 2-2Z"/><path style="opacity:1" fill="#ab91eb" d="M423.5 531.5a17.902 17.902 0 0 1 6-4 185.163 185.163 0 0 1 26-1v87h-32v-82Z"/><path style="opacity:1" fill="#8c7bc1" d="M507.5 530.5v82h19v1h-20a1723.12 1723.12 0 0 1 1-83Z"/><path style="opacity:1" fill="#ab91eb" d="M507.5 530.5h14a67.544 67.544 0 0 1 4.5 18c.5 21.331.667 42.664.5 64h-19v-82Z"/><path style="opacity:1" fill="#967adc" d="M521.5 530.5h19v83h-14v-1c.167-21.336 0-42.669-.5-64a67.544 67.544 0 0 0-4.5-18Z"/><path style="opacity:1" fill="#5f5488" d="M540.5 530.5a1764.925 1764.925 0 0 1 1 84h-35v-1h34v-83Z"/><path style="opacity:1" fill="#a2a2a3" d="M240.5 528.5a145.568 145.568 0 0 0-5 14c-.06-5.53 1.606-10.196 5-14Z"/><path style="opacity:1" fill="#586069" d="M324.5 568.5c.995 10.821 1.328 21.821 1 33h-41a400.456 400.456 0 0 1 40-1v-32Z"/><path style="opacity:1" fill="#fbfbfb" d="M235.5 617.5c.859 4.392 3.193 7.725 7 10-.166 7.341 0 14.674.5 22l1.5 1.5c14.667.667 29.333.667 44 0l1.5-1.5c.5-6.658.666-13.325.5-20h11a279.731 279.731 0 0 0 30 16.5c3.705 4.342 8.372 7.009 14 8a184.026 184.026 0 0 0 23 14l-20 1-1.5 1.5a484.008 484.008 0 0 0 0 44l1.5 1.5c32.667.667 65.333.667 98 0a6.978 6.978 0 0 0 2.5-3.5 420.29 420.29 0 0 0 0-41 6.978 6.978 0 0 0-3.5-2.5l-16-1a330.581 330.581 0 0 0 26.5-15.5 521.05 521.05 0 0 1-1 64 32.573 32.573 0 0 0-12.5 7.5c-6.858 2.879-13.191 6.546-19 11a115.786 115.786 0 0 0-25 13.5 97.288 97.288 0 0 0-12-5.5c-3.543-1.608-6.543-3.942-9-7-5.662-.917-10.329-3.583-14-8a78.488 78.488 0 0 1-23-13c-3.415-.406-6.082-2.072-8-5-8.372-3.019-16.038-7.352-23-13-5.093-1.382-9.426-4.049-13-8-6.4-2.062-12.067-5.396-17-10l-10-4-4-4a77.598 77.598 0 0 1-23-13 90.42 90.42 0 0 1-14-6 45.999 45.999 0 0 0-13-8l-1.5-1.5a577.896 577.896 0 0 1-.5-34h21c-.31 3.213.023 6.213 1 9Z"/><path style="opacity:1" fill="#232020" d="M242.5 627.5c-3.807-2.275-6.141-5.608-7-10v-9h7v19Z"/><path style="opacity:1" fill="#695c91" d="M371.5 530.5a1764.925 1764.925 0 0 1 1 84 1681.8 1681.8 0 0 1-82-1h81v-83Z"/><path style="opacity:1" fill="#221e1f" d="M371.5 629.5h-81v-14h81v14Z"/><path style="opacity:1" fill="#231f20" d="M456.5 629.5h-34v-14h34v14Z"/><path style="opacity:1" fill="#231f21" d="M506.5 614.5h35a61.281 61.281 0 0 0-1 15h-34v-15Z"/><path style="opacity:1" fill="#60d168" d="M325.5 629.5h46c.993 8.484 1.326 17.151 1 26a63.089 63.089 0 0 1-10-3.5 523.182 523.182 0 0 1-22-15c-5.633-1.522-10.633-4.022-15-7.5Z"/><path style="opacity:1" fill="#60d268" d="M422.5 629.5h34c.325 8.857-4.009 14.024-13 15.5-6.316 5.472-13.316 9.639-21 12.5v-28Z"/><path style="opacity:1" fill="#f7f8f8" d="M506.5 629.5h34c1.16 12.16 1.327 24.493.5 37l-1.5 1.5c-10.995.5-21.995.667-33 .5v-39Z"/><path style="opacity:1" fill="#61d669" d="M254.5 680.5a126.364 126.364 0 0 1 20 9.5l19 13a169.242 169.242 0 0 1 22 11c6.973 5.651 14.64 9.984 23 13 1.374 3.683 4.041 5.349 8 5a279.412 279.412 0 0 1 19 12c4.871 1.741 9.204 4.408 13 8a35.157 35.157 0 0 1 10 5 54.915 54.915 0 0 0 10 2.5c5.69-1.028 11.024-2.861 16-5.5 5.239-4.798 11.239-8.131 18-10 4.933-4.604 10.6-7.938 17-10a209.75 209.75 0 0 1 30-18c21.664-.5 43.331-.667 65-.5v3l-14 7a10.756 10.756 0 0 0-2.5 3l-1-1c-1.049 1.607-2.549 2.273-4.5 2v3h-6v3h-5v3c-2.524-.071-4.524.929-6 3-2.12-1.372-3.12-.705-3 2a12.93 12.93 0 0 0-5 .5 101.657 101.657 0 0 0-10 7.5 9.108 9.108 0 0 1-5 1v3c-2.51-.446-4.51.22-6 2-2.216.703-4.049 2.036-5.5 4-1.813-1.109-2.646-.442-2.5 2a12.93 12.93 0 0 0-5 .5c-1.497 1.871-3.497 2.871-6 3-1.307 2.324-3.307 3.657-6 4l2 1a12.93 12.93 0 0 1-5 .5v3a9.86 9.86 0 0 0-6 1 35.217 35.217 0 0 1-8 4v3h-6v3h-6v3a8.43 8.43 0 0 0-4 .5l-5 5c-1.284.684-2.451.517-3.5-.5-1.263 2.968-3.263 3.968-6 3a2.428 2.428 0 0 0-.5 2h-12c-.507-1.359-1.507-2.359-3-3a137.913 137.913 0 0 0-11-4v-3c-2.133-1.386-5.133-2.386-9-3v-3h-5v-3c-3.005.247-5.505-.753-7.5-3l-1 1a4.934 4.934 0 0 1-.5-3h-6v-3h-5v-3h-6v-3c-5.922-1.727-11.089-4.727-15.5-9-.718.951-1.551 1.117-2.5.5 1.333-.667 1.333-1.333 0-2a12.93 12.93 0 0 0-5-.5v-3a58.97 58.97 0 0 1-11-3v-3c-8.654-3.265-16.321-6.932-23-11v-3h-6v-3h-5v-3a9.108 9.108 0 0 1-5-1 20.07 20.07 0 0 0-9-5c-.798-.457-1.131-1.124-1-2v-38Z"/><path style="opacity:1" fill="#fefffe" d="M599.5 686.5c1.333.667 1.333.667 0 0Z"/><path style="opacity:1" fill="#e5eee6" d="M544.5 715.5c1.291-.237 2.291.096 3 1-1.238.31-1.238.81 0 1.5a4.934 4.934 0 0 1-3 .5v-3Z"/><path style="opacity:1" fill="#62d769" d="M476.5 757.5c1.333.667 1.333.667 0 0Z"/></svg>