<?xml version="1.0" standalone="no"?>
<!DOCTYPE svg PUBLIC "-//W3C//DTD SVG 20010904//EN"
 "http://www.w3.org/TR/2001/REC-SVG-20010904/DTD/svg10.dtd">
<svg version="1.0" xmlns="http://www.w3.org/2000/svg"
 width="100.000000pt" height="100.000000pt" viewBox="0 0 100.000000 100.000000"
 preserveAspectRatio="xMidYMid meet">

<g transform="translate(0.000000,100.000000) scale(0.100000,-0.100000)"
fill="#000000" stroke="none">
<path d="M78 961 l-33 -29 0 -374 c0 -343 1 -376 18 -401 10 -16 29 -32 43
-37 14 -6 162 -10 334 -10 l309 0 -14 40 c-8 22 -12 40 -9 40 3 0 55 -43 114
-95 59 -52 111 -95 114 -95 12 0 7 910 -5 933 -30 58 -20 57 -446 57 l-393 0
-32 -29z m285 -231 c-35 -16 -63 -31 -63 -33 0 -2 25 5 57 15 69 24 197 26
268 4 63 -20 71 -12 14 13 -36 16 -40 20 -19 20 49 1 107 -35 130 -79 25 -49
60 -180 60 -225 0 -37 -27 -67 -82 -90 -49 -20 -71 -19 -92 4 -17 18 -16 20
23 42 55 30 46 35 -15 7 -69 -31 -205 -31 -284 0 -46 18 -51 19 -34 5 12 -10
30 -23 40 -29 16 -10 17 -13 5 -28 -19 -22 -59 -20 -111 7 -57 28 -68 56 -53
140 13 73 47 167 71 197 10 12 42 30 72 40 79 28 84 23 13 -10z"/>
<path d="M364 545 c-34 -52 31 -111 76 -70 38 34 18 95 -30 95 -21 0 -35 -8
-46 -25z"/>
<path d="M562 558 c-20 -20 -15 -76 7 -88 43 -22 81 1 81 49 0 34 -17 51 -50
51 -14 0 -31 -5 -38 -12z"/>
</g>
</svg>
