<?xml version="1.0" encoding="UTF-8"?><svg xmlns="http://www.w3.org/2000/svg" width="800" height="800" style="shape-rendering:geometricPrecision;text-rendering:geometricPrecision;image-rendering:optimizeQuality;fill-rule:evenodd;clip-rule:evenodd"><path style="opacity:1" fill="#273339" d="M761.5 135.5v220c.396 2.544-.271 4.711-2 6.5a113.606 113.606 0 0 0-28 15 377.475 377.475 0 0 1-23 12 25.14 25.14 0 0 0-4 4.5 666.895 666.895 0 0 0-59 33.5c-3.81 1.13-7.143 3.13-10 6a1614.434 1614.434 0 0 1-40 21c-2.266 1.426-3.932 3.26-5 5.5-3.238-4.953-7.905-7.286-14-7a10126.277 10126.277 0 0 0 165-95.5 73.86 73.86 0 0 0 9-3.5c.167-70.334 0-140.667-.5-211 .564-4.29-1.269-6.457-5.5-6.5a203.265 203.265 0 0 0-37-21l-4-4a91.311 91.311 0 0 1-23-13 457.332 457.332 0 0 0-22-11l-4-4a483.026 483.026 0 0 1-51-29c-3.415-.406-6.082-2.072-8-5a90.401 90.401 0 0 0-14-6c-5.722-6.435-12.722-8.768-21-7-7.36 5.663-15.36 9.996-24 13-3.619 3.977-7.952 6.644-13 8-2.537 2.546-5.537 4.212-9 5l-4 4-10 4a2551.356 2551.356 0 0 0-60 36 22215.552 22215.552 0 0 1 41 23.5 575.213 575.213 0 0 1-34 0c8.557 1.124 9.557-.376 3-4.5-1.249-.74-2.249-.573-3 .5-2.272-8.582-7.938-12.582-17-12a63.385 63.385 0 0 1-5-8.5c1.175-3.19 3.175-5.857 6-8a12271.425 12271.425 0 0 0 129-74c9.584-1.031 17.918 1.636 25 8 4.302.286 7.635 2.286 10 6a974.743 974.743 0 0 1 66 38l15 7 4 4a457.332 457.332 0 0 1 22 11 29746.604 29746.604 0 0 0 46 28c2.71 1.747 5.71 2.747 9 3 2.04 2.185 3.374 4.685 4 7.5ZM393.5 113.5h-24c-.333-1-1-1.667-2-2-3.333-1.141-6.333-2.974-9-5.5-5.079-1.403-9.412-4.07-13-8a1516.16 1516.16 0 0 1-91-52A228.066 228.066 0 0 0 230 34.5 112.066 112.066 0 0 0 206.5 48l-10 4-3 3c-6.771 2.445-12.771 6.111-18 11l-10 4-4 4a520.666 520.666 0 0 0-59 34l-9 3c-3.796 3.592-8.13 6.259-13 8A361.546 361.546 0 0 1 48 137.5c-.667 72-.667 144 0 216a7214.146 7214.146 0 0 0 125 72c.5-21.664.667-43.331.5-65a340.197 340.197 0 0 0-18-8.5 55.63 55.63 0 0 0-18-10 78.488 78.488 0 0 0-23-13 56.965 56.965 0 0 0-10.5-7.5 5697.651 5697.651 0 0 1 0-151 6.978 6.978 0 0 1 2.5-3.5 146.497 146.497 0 0 0 31-18c2.56-.384 4.894-1.217 7-2.5v14a67.4 67.4 0 0 0-13 5.5c-5.669 5.02-11.836 9.187-18.5 12.5-.5 26.331-.667 52.665-.5 79v57c5.301 1.324 9.968 3.824 14 7.5l10 4c1.918 2.928 4.585 4.594 8 5 2.674 3.012 6.007 4.678 10 5a102.978 102.978 0 0 0 23 13.5c2.639 1.809 4.806 4.142 6.5 7 .667 23.333.667 46.667 0 70-1.232 2.8-1.899 5.8-2 9-2.909 2.894-6.409 3.727-10.5 2.5a13376.247 13376.247 0 0 1-116-67c-3.96.349-6.626-1.317-8-5l-9.5-5.5a47.181 47.181 0 0 1-1.5-12v-198c-.166-5.344 0-10.677.5-16 .093-2.507.926-4.674 2.5-6.5 3.29-.253 6.29-1.253 9-3a133.395 133.395 0 0 1 32-18c3.83-4.163 8.497-6.829 14-8a336.071 336.071 0 0 1 40-23l23-15a175.013 175.013 0 0 0 28-16l4-1a583.354 583.354 0 0 1 33-19c12.235-2.801 22.902.199 32 9a2084.03 2084.03 0 0 1 77 44c5.503 1.17 10.17 3.838 14 8a326.577 326.577 0 0 0 27 14 206.537 206.537 0 0 0 21 13.5Z"/><path style="opacity:1" fill="#afacab" d="M576.5-.5h9a2.429 2.429 0 0 0 .5 2c1.049-1.017 2.216-1.184 3.5-.5a20.495 20.495 0 0 0 2.5 3.5c1.356-.88 2.856-1.214 4.5-1v3c2.822 1.432 6.489 2.432 11 3v3c2.092.061 3.592 1.061 4.5 3 2.537-.677 4.537.323 6 3 2.361-.566 4.194.434 5.5 3l2-1c.35 2.067 2.017 3.067 5 3v3h6v3h5v3h6v3a27.247 27.247 0 0 0 9 3c-.219 1.175.114 2.175 1 3a6.846 6.846 0 0 1 4-1v3a8.435 8.435 0 0 1 4 .5c-1.154.914-.987 1.747.5 2.5 1.299-.466 2.799-.466 4.5 0v3h6v3h5v3a428.986 428.986 0 0 0 20 8.5l-2 1c2.522.61 4.522 1.943 6 4 1.634.493 3.301.66 5 .5v3c2.908-.238 5.242.762 7 3 .951-.826 1.951-.992 3-.5l-1 1a6.977 6.977 0 0 1 3.5 2.5l1-1c.483.948.649 1.948.5 3h6v3h5v3c1.951-.273 3.451.393 4.5 2l1-1c6 4.386 12.5 7.886 19.5 10.5l-1 1c1.525 1.009 3.192 1.509 5 1.5v3h6v3h5v3c2.041.354 3.874.354 5.5 0 .483.948.649 1.948.5 3 2.836 1.276 5.836 1.942 9 2 1.87 11.857 2.536 23.857 2 36h-30c.321-5.195-.013-10.195-1-15-.626-2.815-1.96-5.315-4-7.5-3.29-.253-6.29-1.253-9-3a29746.604 29746.604 0 0 1-46-28 457.332 457.332 0 0 0-22-11l-4-4-15-7a974.743 974.743 0 0 0-66-38c-2.365-3.714-5.698-5.714-10-6-7.082-6.364-15.416-9.031-25-8a12271.425 12271.425 0 0 1-129 74c-2.825 2.143-4.825 4.81-6 8a63.385 63.385 0 0 0 5 8.5h-37a206.537 206.537 0 0 1-21-13.5 326.577 326.577 0 0 1-27-14c-3.83-4.162-8.497-6.83-14-8a2084.03 2084.03 0 0 0-77-44c-9.098-8.801-19.765-11.801-32-9a583.354 583.354 0 0 0-33 19l-4 1a175.013 175.013 0 0 1-28 16l-23 15a336.071 336.071 0 0 0-40 23c-5.503 1.171-10.17 3.837-14 8a133.395 133.395 0 0 0-32 18c-2.71 1.747-5.71 2.747-9 3-1.574 1.826-2.407 3.993-2.5 6.5a128.43 128.43 0 0 0-.5 16h-30c.06-11.983.06-23.816 0-35.5a169.104 169.104 0 0 0 15-5.5v-3a58.967 58.967 0 0 0 11-3v-3a417.79 417.79 0 0 0 15-7 32.686 32.686 0 0 0 8.5-6l1 1c1.049-1.607 2.549-2.273 4.5-2v-3a59.029 59.029 0 0 1 11-3 4.932 4.932 0 0 1 .5-3l1 1c2.015-3.065 4.515-4.065 7.5-3v-3h5v-3c1.7.16 3.366-.007 5-.5 1.478-2.057 3.478-3.39 6-4l-2-1a18.436 18.436 0 0 1 6-.5v-3a87.51 87.51 0 0 0 14-5v-3h6v-3h5v-3c1.701-.466 3.201-.466 4.5 0 3.279-4.047 7.946-7.047 14-9a18.264 18.264 0 0 0 5-4l1 1c1.049-1.607 2.549-2.273 4.5-2v-3h5v-3h6v-3c4.612-1.195 9.279-2.862 14-5v-3c1.701-.466 3.201-.466 4.5 0 .908-1.939 2.408-2.939 4.5-3v-3h6v-3c1.788.285 3.455-.048 5-1a38.767 38.767 0 0 0 7-4.5 49.25 49.25 0 0 1 14 0c2.025 1.677 4.359 2.677 7 3-1.134 1.016-.801 1.683 1 2l5 1-1 1c2.622 3.073 5.955 4.573 10 4.5v3h6v3c3.191.262 5.858 1.596 8 4a9.864 9.864 0 0 0 6 1v3c3.58 1.22 7.247 2.386 11 3.5l-2 1c2.767.678 4.934 2.178 6.5 4.5l1-1c3.769 1.797 7.102 4.13 10 7a3.942 3.942 0 0 1 2-1c1.482 1.612 3.315 2.612 5.5 3v3h6v3h5v3h6v3a87.51 87.51 0 0 0 14 5v3c1.699-.16 3.366.007 5 .5l-1 1c1.525 1.009 3.192 1.509 5 1.5v3h6v3h5v3c2.985-1.065 5.485-.065 7.5 3l1-1c.483.948.649 1.948.5 3h5v3h6v3c2.133 1.386 5.133 2.386 9 3v3c2.908-.238 5.242.762 7 3l2-1c.35 2.067 2.017 3.067 5 3v3h6v3c2.516-.255 4.85-1.089 7-2.5a626.207 626.207 0 0 1 29-17c.837-1.011 1.17-2.178 1-3.5 4.493-.216 7.993-2.216 10.5-6 1.011.837 2.178 1.17 3.5 1v-3a59.031 59.031 0 0 0 11-3v-3c1.808.009 3.475-.491 5-1.5l-1-1a12.935 12.935 0 0 1 5-.5v-3a9.864 9.864 0 0 0 6-1 35.213 35.213 0 0 1 8-4v-3h6v-3a59.031 59.031 0 0 1 11-3v-3c1.808.009 3.475-.491 5-1.5-1.388-.89-1.222-1.39.5-1.5 2.071 1.167 3.571.5 4.5-2 6.434-2.343 12.767-5.343 19-9v-3a59.031 59.031 0 0 1 11-3 4.934 4.934 0 0 1 .5-3l1 1c1.995-2.247 4.495-3.247 7.5-3v-3h5v-3h6v-3c1.808.009 3.475-.491 5-1.5l-1-1a12.936 12.936 0 0 1 5-.5v-3c3.552.188 6.219-1.145 8-4Z"/><path style="opacity:1" fill="#fdfdfd" d="m367.5 111.5-35 2c-10.286.955-15.286 6.622-15 17a249.277 249.277 0 0 1-31-1 884.134 884.134 0 0 1-32-19.5 154.79 154.79 0 0 1-13-6c-2.435-3.89-5.935-5.39-10.5-4.5l-6.5.5a226.438 226.438 0 0 0-29 17c-3.415.406-6.082 2.072-8 5a136.068 136.068 0 0 0-15 7.5 514.115 514.115 0 0 1-31 1.5c-3.203 4.482-2.203 7.648 3 9.5v6c-2.106 1.283-4.44 2.116-7 2.5a146.497 146.497 0 0 1-31 18 6.978 6.978 0 0 0-2.5 3.5 5697.651 5697.651 0 0 0 0 151 56.965 56.965 0 0 1 10.5 7.5 78.488 78.488 0 0 1 23 13 55.63 55.63 0 0 1 18 10 340.197 340.197 0 0 1 18 8.5c.167 21.669 0 43.336-.5 65a7214.146 7214.146 0 0 1-125-72c-.667-72-.667-144 0-216A361.546 361.546 0 0 0 80.5 119c4.87-1.741 9.204-4.408 13-8l9-3a520.666 520.666 0 0 1 59-34l4-4 10-4c5.229-4.889 11.229-8.555 18-11l3-3 10-4A112.066 112.066 0 0 1 230 34.5 228.066 228.066 0 0 1 254.5 46a1516.16 1516.16 0 0 0 91 52c3.588 3.93 7.921 6.597 13 8 2.667 2.526 5.667 4.359 9 5.5ZM576.5 452.5a840.27 840.27 0 0 0-41 .5c-1.926.422-2.926 1.589-3 3.5-3.228.914-6.561 1.247-10 1-2.934-6.245-6.267-6.579-10-1-3.228.914-6.561 1.247-10 1-.333-2.333-1.667-3.667-4-4a506.426 506.426 0 0 0-32-1.5c7.301-1.961 13.634-5.628 19-11 5.243-1.623 9.91-4.289 14-8a24.569 24.569 0 0 1 8-3c5.277-4.963 11.277-8.629 18-11l4-4a90.42 90.42 0 0 0 14-6c4.933-4.604 10.6-7.938 17-10l23-15a169.642 169.642 0 0 1 28-14c5.057-5.063 11.057-8.396 18-10 4.952-4.639 10.619-7.973 17-10 9.313-5.969 18.646-11.969 28-18 7.819-2.16 14.319-6.327 19.5-12.5.667-48.667.667-97.333 0-146-1.859-4.526-5.026-7.692-9.5-9.5-4.04-1.69-8.04-3.357-12-5a193.115 193.115 0 0 0-32-19 182.852 182.852 0 0 0-35-20c-3.671-4.417-8.338-7.083-14-8a171.322 171.322 0 0 0-19-12c-8.302-.757-15.635 1.576-22 7a68.695 68.695 0 0 0-14 7c-4.302.286-7.635 2.286-10 6-5.765 2.632-11.098 5.799-16 9.5a105.651 105.651 0 0 1-29 0 22215.552 22215.552 0 0 0-41-23.5 2551.356 2551.356 0 0 1 60-36l10-4 4-4c3.463-.788 6.463-2.454 9-5 5.048-1.356 9.381-4.023 13-8 8.64-3.004 16.64-7.337 24-13 8.278-1.768 15.278.565 21 7a90.401 90.401 0 0 1 14 6c1.918 2.928 4.585 4.594 8 5a483.026 483.026 0 0 0 51 29l4 4a457.332 457.332 0 0 1 22 11 91.311 91.311 0 0 0 23 13l4 4a203.265 203.265 0 0 1 37 21c4.231.043 6.064 2.21 5.5 6.5.5 70.333.667 140.666.5 211a73.86 73.86 0 0 1-9 3.5 10126.277 10126.277 0 0 1-165 95.5Z"/><path style="opacity:1" fill="#273339" d="M286.5 129.5h-21c0-.667-.333-1-1-1l-27-13.5-4.5-4.5c-2.09.652-4.257.819-6.5.5a722.332 722.332 0 0 1-28 17.5 56.584 56.584 0 0 0-4 1h-22a136.068 136.068 0 0 1 15-7.5c1.918-2.928 4.585-4.594 8-5a226.438 226.438 0 0 1 29-17l6.5-.5c4.565-.89 8.065.61 10.5 4.5a154.79 154.79 0 0 0 13 6 884.134 884.134 0 0 0 32 19.5Z"/><path style="opacity:1" fill="#afa9a7" d="M264.5 128.5c-22 1.333-44 1.333-66 0a722.332 722.332 0 0 0 28-17.5c2.243.319 4.41.152 6.5-.5l4.5 4.5 27 13.5Z"/><path style="opacity:1" fill="#bdbdbd" d="M367.5 111.5c1 .333 1.667 1 2 2h-37l35-2Z"/><path style="opacity:.996" fill="#030202" d="M332.5 113.5h98c9.062-.582 14.728 3.418 17 12v4c11.152.335 22.485.335 34 0a105.651 105.651 0 0 0 29 0h22a578.644 578.644 0 0 0 68 0 94.81 94.81 0 0 1 23 1.5c3.203 4.482 2.203 7.648-3 9.5h-173v28c12.005-.167 24.005 0 36 .5 1.537 1.11 2.203 2.61 2 4.5-.011 1.517-.677 2.684-2 3.5a640.343 640.343 0 0 0-36 1.5 112.97 112.97 0 0 1-.5 15c-3.845 6.361-7.678 12.694-11.5 19a134.761 134.761 0 0 1-8 13c2.625 2.549 4.792 5.549 6.5 9a90.455 90.455 0 0 1 0 19c-2.103 4.434-5.603 6.934-10.5 7.5-2.997 5.189-6.997 9.356-12 12.5a2597.035 2597.035 0 0 0 0 144c3.909-2.966 8.242-4.133 13-3.5 1.444 1.126 2.11 2.626 2 4.5a413.04 413.04 0 0 1-11 25c8.709 5.014 18.043 8.014 28 9a2271.3 2271.3 0 0 0 55 1c2.333.333 3.667 1.667 4 4 .203 1.89-.463 3.39-2 4.5l-63 1a291.782 291.782 0 0 0-22 8.5c1.679 4.021 3.346 8.021 5 12a321.314 321.314 0 0 1-12-2 66.78 66.78 0 0 0-4.5-10c-1.58-5.096.254-8.263 5.5-9.5a63.372 63.372 0 0 0 12-4 149.218 149.218 0 0 0-15-6c-2.787-2.167-3.62-5.001-2.5-8.5 2.615-4.546 4.615-9.213 6-14a249.25 249.25 0 0 0-13.5 6.5c-2.402.814-4.735.647-7-.5a374.483 374.483 0 0 1-7-17 374.483 374.483 0 0 1-7 17c-2.265 1.147-4.598 1.314-7 .5a65.78 65.78 0 0 1-13-6.5l-1 1 6.5 13c.667 2 .667 4 0 6a141.575 141.575 0 0 1-17.5 8.5 136.8 136.8 0 0 1 17.5 7.5c.667 2 .667 4 0 6a66.78 66.78 0 0 0-4.5 10 33.485 33.485 0 0 0-9.5 3 165.187 165.187 0 0 1-1.5 17h-4c-2.832-1.907-3.666-4.573-2.5-8a177.107 177.107 0 0 0 10.5-23 122.375 122.375 0 0 1-22-7.5c-47.75-.99-95.417-.657-143 1a6.978 6.978 0 0 0-2.5 3.5 521.05 521.05 0 0 0 1 64l1.5 1.5c19.33.5 38.664.667 58 .5v10c-31.668-.167-63.335 0-95 .5l-2.5 2.5c-.667 17-.667 34 0 51l2.5 2.5c16.997.5 33.997.667 51 .5-.445 2.865.222 5.365 2 7.5 14.369-.153 28.369.68 42 2.5h-41c-5.195-.321-10.195.013-15 1a338.578 338.578 0 0 1-43-1.5c-5.987-2.462-9.154-6.962-9.5-13.5a600.2 600.2 0 0 1 0-49c.838-6.187 4.004-10.687 9.5-13.5l29-1a810.318 810.318 0 0 1-.5-69.5 33.052 33.052 0 0 1 2.5-6l9-4.5a162.597 162.597 0 0 1 18-.5h127a7454.95 7454.95 0 0 0 14-6c2.679-.173 5.013-1.173 7-3a331.675 331.675 0 0 0-10.5-22c-1.651-4.641-.151-7.307 4.5-8a38.14 38.14 0 0 1 10 4c1-24.324 1.333-48.658 1-73 .629-2.497 2.296-3.83 5-4 1.591.719 3.091 1.719 4.5 3 .5 26.665.667 53.331.5 80a6.846 6.846 0 0 1 4 1c3.155-8.315 6.322-16.648 9.5-25 3-2.667 6-2.667 9 0 3.178 8.352 6.345 16.685 9.5 25 1.526-.494 2.859-1.161 4-2a2561.098 2561.098 0 0 0 0-143c-.607.124-.94.457-1 1-11.39 3.787-22.724 3.787-34 0-.06-.543-.393-.876-1-1a211.151 211.151 0 0 0-1 29c-.333 1-1 1.667-2 2-2.579.417-4.746-.25-6.5-2a613.783 613.783 0 0 0-1.5-35c-5.01-3.177-9.01-7.344-12-12.5-8.035-1.533-11.702-6.367-11-14.5-.485-5.229.182-10.229 2-15a38.88 38.88 0 0 1 5-5.5 1523.087 1523.087 0 0 0-20-32.5v-16c-58.309.122-116.642.122-175 0-3.867-2.913-3.867-5.913 0-9h175v-28h-173c-5.203-1.852-6.203-5.018-3-9.5a514.115 514.115 0 0 0 31-1.5h22a630.782 630.782 0 0 0 71 0h21a249.277 249.277 0 0 0 31 1c-.286-10.378 4.714-16.045 15-17Z"/><path style="opacity:1" fill="#afafaf" d="M436.5 126.5v59h-15c.167-17.337 0-34.67-.5-52-3-2.667-6-2.667-9 0a1351.5 1351.5 0 0 0-.5 52h-83v-59c.453-.958 1.119-1.792 2-2.5 34.667-.667 69.333-.667 104 0 .881.708 1.547 1.542 2 2.5Z"/><path style="opacity:1" fill="#aaa5a4" d="M447.5 129.5v-4c.751-1.073 1.751-1.24 3-.5 6.557 4.124 5.557 5.624-3 4.5Z"/><path style="opacity:1" fill="#575454" d="M198.5 128.5c22 1.333 44 1.333 66 0 .667 0 1 .333 1 1a630.782 630.782 0 0 1-71 0 56.584 56.584 0 0 1 4-1ZM533.5 128.5c22 1.333 44 1.333 66 0 .667 0 1 .333 1 1a578.644 578.644 0 0 1-68 0c0-.667.333-1 1-1Z"/><path style="opacity:1" fill="#273339" d="M498.5 453.5a2271.3 2271.3 0 0 1-55-1c1.138-2.767 2.972-3.434 5.5-2l14.5-10.5c5.009-1.005 9.342-3.339 13-7a74.12 74.12 0 0 0 9-4 146.497 146.497 0 0 1 31-18c4.324-4.11 9.324-7.11 15-9 4.933-4.604 10.6-7.938 17-10l4-4 14-6 4-4 32-17c4.117-3.541 8.784-6.208 14-8a14.698 14.698 0 0 0 3-3.5 515.876 515.876 0 0 0 61-34.5 12.93 12.93 0 0 1 5-.5c.331-28.505-.002-56.838-1-85-.283-.789-.783-1.456-1.5-2-.5-16.663-.667-33.33-.5-50a35.926 35.926 0 0 0-9-6.5 51.42 51.42 0 0 1-14-8l-4-1a887.985 887.985 0 0 0-35-20.5v-1c5.203-1.852 6.203-5.018 3-9.5a94.81 94.81 0 0 0-23-1.5c0-.667-.333-1-1-1a189.117 189.117 0 0 1-16-7.5 202.24 202.24 0 0 0-16-10.5 112.253 112.253 0 0 1-17 8.5c-5.365 3.901-11.031 7.067-17 9.5-.667 0-1 .333-1 1h-22c4.902-3.701 10.235-6.868 16-9.5 2.365-3.714 5.698-5.714 10-6a68.695 68.695 0 0 1 14-7c6.365-5.424 13.698-7.757 22-7a171.322 171.322 0 0 1 19 12c5.662.917 10.329 3.583 14 8a182.852 182.852 0 0 1 35 20 193.115 193.115 0 0 1 32 19c3.96 1.643 7.96 3.31 12 5 4.474 1.808 7.641 4.974 9.5 9.5.667 48.667.667 97.333 0 146-5.181 6.173-11.681 10.34-19.5 12.5a12318.477 12318.477 0 0 1-28 18c-6.381 2.027-12.048 5.361-17 10-6.943 1.604-12.943 4.937-18 10a169.642 169.642 0 0 0-28 14l-23 15c-6.4 2.062-12.067 5.396-17 10a90.42 90.42 0 0 1-14 6l-4 4c-6.723 2.371-12.723 6.037-18 11a24.569 24.569 0 0 0-8 3c-4.09 3.711-8.757 6.377-14 8-5.366 5.372-11.699 9.039-19 11 10.841.17 21.508.67 32 1.5Z"/><path style="opacity:1" fill="#afa9a7" d="M599.5 128.5c-22 1.333-44 1.333-66 0 5.969-2.433 11.635-5.599 17-9.5a112.253 112.253 0 0 0 17-8.5 202.24 202.24 0 0 1 16 10.5 189.117 189.117 0 0 0 16 7.5Z"/><path style="opacity:1" fill="#6ebce2" d="M144.5 140.5h173v28h-175c1.702-2.3 2.368-4.967 2-8v-20Z"/><path style="opacity:1" fill="#6fbde3" d="M620.5 140.5v1c-.595 9.265.072 18.265 2 27a5509.9 5509.9 0 0 0-105 .5c-1.537 1.11-2.203 2.61-2 4.5h-10c-.674-4.651-3.341-6.151-8-4.5-1.537 1.11-2.203 2.61-2 4.5h-10c.203-1.89-.463-3.39-2-4.5a647.854 647.854 0 0 0-36-.5v-28h173Z"/><path style="opacity:1" fill="#040607" d="M171.5 148.5c5.268-1.361 7.934.639 8 6-.693 4.651-3.359 6.151-8 4.5-2.62-3.498-2.62-6.998 0-10.5Z"/><path style="opacity:1" fill="#06090b" d="M201.5 148.5c7.741.238 9.741 3.738 6 10.5-7.575 1.921-10.075-.912-7.5-8.5.717-.544 1.217-1.211 1.5-2Z"/><path style="opacity:1" fill="#030607" d="M230.5 148.5c8.118-.118 10.118 3.382 6 10.5-7.932.326-9.932-3.174-6-10.5Z"/><path style="opacity:1" fill="#030507" d="M260.5 148.5c7.757.003 9.757 3.503 6 10.5-7.005 1.324-9.505-1.51-7.5-8.5.717-.544 1.217-1.211 1.5-2Z"/><path style="opacity:1" fill="#060a0b" d="M290.5 148.5c2.544-.396 4.711.271 6.5 2 2.518 8.15-.149 10.817-8 8-2.271-3.803-1.771-7.137 1.5-10ZM469.5 148.5c7.741.238 9.741 3.738 6 10.5-7.575 1.921-10.075-.912-7.5-8.5.717-.544 1.217-1.211 1.5-2Z"/><path style="opacity:1" fill="#030507" d="M498.5 148.5c8.118-.118 10.118 3.382 6 10.5-7.932.326-9.932-3.174-6-10.5Z"/><path style="opacity:1" fill="#030607" d="M528.5 148.5c7.757.003 9.757 3.503 6 10.5-7.005 1.324-9.505-1.51-7.5-8.5.717-.544 1.217-1.211 1.5-2Z"/><path style="opacity:1" fill="#06090b" d="M558.5 148.5c2.544-.396 4.711.271 6.5 2 2.518 8.15-.149 10.817-8 8-2.271-3.803-1.771-7.137 1.5-10Z"/><path style="opacity:1" fill="#040607" d="M587.5 148.5c8.118-.118 10.118 3.382 6 10.5-8.219.505-10.219-2.995-6-10.5Z"/><path style="opacity:1" fill="#b2a8a5" d="M620.5 141.5a887.985 887.985 0 0 1 35 20.5l4 1a51.42 51.42 0 0 0 14 8 35.926 35.926 0 0 1 9 6.5c-.995 10.821-1.328 21.821-1 33h-71c-2.667-1.333-5.333-1.333-8 0-4-4.667-8.333-9-13-13 2.72-6.313.72-9.146-6-8.5L567 205.5c-.49 2.045-.323 4.045.5 6 0 .667-.333 1-1 1a238.492 238.492 0 0 1-18-9.5c-3.671-4.417-8.338-7.083-14-8a10892.14 10892.14 0 0 0-27-17 8.43 8.43 0 0 0-4-.5c1.1-1.105 1.767-2.438 2-4h10c.359 1.871 1.359 3.371 3 4.5 34.333.667 68.667.667 103 0 4.966-2.693 5.299-5.859 1-9.5-1.928-8.735-2.595-17.735-2-27Z"/><path style="opacity:1" fill="#b3a7a4" d="M144.5 160.5c.368 3.033-.298 5.7-2 8-3.867 3.087-3.867 6.087 0 9 48.832.833 97.832 1.333 147 1.5a129.073 129.073 0 0 0-13 8c-5.048 1.356-9.381 4.023-13 8l-9 3a618.976 618.976 0 0 1-36 23 12.93 12.93 0 0 1-5 .5 1376.221 1376.221 0 0 0-31-31.5c-7.651-2.85-10.318-.35-8 7.5-4.667 4-9 8.333-13 13-6.393-2.719-9.226-.719-8.5 6l48 48c.667 3 .667 6 0 9a7.248 7.248 0 0 1-2.5 2 445.01 445.01 0 0 1-18-17.5c-4.476-2.877-9.143-3.21-14-1a98.521 98.521 0 0 0-9 7.5h-44c.302-2.559-.032-4.893-1-7-.167-26.335 0-52.669.5-79 6.664-3.313 12.831-7.48 18.5-12.5a67.4 67.4 0 0 1 13-5.5Z"/><path style="opacity:1" fill="#040506" d="M505.5 173.5c-.233 1.562-.9 2.895-2 4-4.263 1.868-6.93.535-8-4-.203-1.89.463-3.39 2-4.5 4.659-1.651 7.326-.151 8 4.5Z"/><path style="opacity:1" fill="#060606" d="M622.5 168.5c4.299 3.641 3.966 6.807-1 9.5-34.333.667-68.667.667-103 0-1.641-1.129-2.641-2.629-3-4.5-.203-1.89.463-3.39 2-4.5a5509.9 5509.9 0 0 1 105-.5Z"/><path style="opacity:1" fill="#283439" d="M485.5 173.5h10c1.07 4.535 3.737 5.868 8 4a8.43 8.43 0 0 1 4 .5c8.98 5.636 17.98 11.302 27 17 5.662.917 10.329 3.583 14 8a238.492 238.492 0 0 0 18 9.5l-5 6c-2.667-2.667-5.333-2.667-8 0a4162.965 4162.965 0 0 0-69-39.5 684.346 684.346 0 0 0-37-.5 640.343 640.343 0 0 1 36-1.5c1.323-.816 1.989-1.983 2-3.5Z"/><path style="opacity:1" fill="#283338" d="M142.5 177.5c58.358.122 116.691.122 175 0v16c-4.844-1.129-9.177-3.296-13-6.5-1.333-.667-2.667-.667-4 0l-20 10-4 4c-7.273 1.918-13.607 5.585-19 11a478.277 478.277 0 0 0-22 11 111.955 111.955 0 0 0-12 8.5c-3-3.667-6.333-7-10-10a12.93 12.93 0 0 0 5-.5 618.976 618.976 0 0 0 36-23l9-3c3.619-3.977 7.952-6.644 13-8a129.073 129.073 0 0 1 13-8c-49.168-.167-98.168-.667-147-1.5Z"/><path style="opacity:1" fill="#fdfdfd" d="M447.5 178.5c12.338-.167 24.671 0 37 .5a4162.965 4162.965 0 0 1 69 39.5c-1.333 2.333-1.333 4.667 0 7-1.739 2.743-4.073 4.743-7 6a18.453 18.453 0 0 0-6 .5L519 253.5a19.177 19.177 0 0 0-2.5 5c-.712 1.239-1.712 1.739-3 1.5-3.492-1.624-6.492-3.958-9-7a663.074 663.074 0 0 1-60-34c-3.969-.8-6.969-2.966-9-6.5 3.822-6.306 7.655-12.639 11.5-19 .499-4.989.666-9.989.5-15Z"/><path style="opacity:1" fill="#6a6a6a" d="M328.5 126.5v59h108v-59a900.97 900.97 0 0 1 1 60h-110a900.97 900.97 0 0 1 1-60Z"/><path style="opacity:1" fill="#eee" d="M421.5 185.5h-10c-.167-17.337 0-34.67.5-52 3-2.667 6-2.667 9 0 .5 17.33.667 34.663.5 52Z"/><path style="opacity:1" fill="#fcfdfd" d="M317.5 193.5a1523.087 1523.087 0 0 1 20 32.5 38.88 38.88 0 0 0-5 5.5c-4.925 1.48-9.259 3.98-13 7.5a32.449 32.449 0 0 1-9 4c-10.981 8.007-22.648 14.674-35 20-1.5 2.167-3.333 4-5.5 5.5a3596.397 3596.397 0 0 1-1.5 85 185.977 185.977 0 0 0-2-3c1.02-1.932 1.187-3.932.5-6a2704.44 2704.44 0 0 1-43.5-44 667.23 667.23 0 0 1 21.5-22c4.171-7.871 4.504-15.871 1-24a244.438 244.438 0 0 0-22.5-23 111.955 111.955 0 0 1 12-8.5 478.277 478.277 0 0 1 22-11c5.393-5.415 11.727-9.082 19-11l4-4 20-10c1.333-.667 2.667-.667 4 0 3.823 3.204 8.156 5.371 13 6.5Z"/><path style="opacity:1" fill="#050403" d="M213.5 221.5c3.667 3 7 6.333 10 10a244.438 244.438 0 0 1 22.5 23c3.504 8.129 3.171 16.129-1 24a667.23 667.23 0 0 0-21.5 22 2704.44 2704.44 0 0 0 43.5 44c.687 2.068.52 4.068-.5 6a185.977 185.977 0 0 1 2 3l13 16a105.353 105.353 0 0 0 7.5 10c.667 2 .667 4 0 6a63.707 63.707 0 0 0-6.5 7c-.667 0-1 .333-1 1-4 4-8 4-12 0a573.94 573.94 0 0 1-23-18.5 62.644 62.644 0 0 1-10-2 696.251 696.251 0 0 1-22-22.5c-4.307-3.972-8.641-7.972-13-12 0-.667-.333-1-1-1a34.807 34.807 0 0 0-7-7c-5.319 4.594-10.985 5.094-17 1.5l-9.5-9.5c-3.594-6.015-3.094-11.681 1.5-17a183.39 183.39 0 0 1-18.5-21 25.238 25.238 0 0 1 0-10 37.037 37.037 0 0 1 7.5-10 98.521 98.521 0 0 1 9-7.5c4.857-2.21 9.524-1.877 14 1a445.01 445.01 0 0 0 18 17.5 7.248 7.248 0 0 0 2.5-2c.667-3 .667-6 0-9l-48-48c-.726-6.719 2.107-8.719 8.5-6a4382.789 4382.789 0 0 0 55.5 56c.667 1.667.667 3.333 0 5l-41 41c-.667 1.667-.667 3.333 0 5l5.5 5.5c1.667.667 3.333.667 5 0l49.5-49.5c2.814-4.506 3.147-9.173 1-14a5473.064 5473.064 0 0 0-62.5-62c-2.318-7.85.349-10.35 8-7.5a1376.221 1376.221 0 0 1 31 31.5Z"/><path style="opacity:1" fill="#020202" d="M589.5 197.5a305.702 305.702 0 0 0-15 14.5c-2.429.703-4.762.537-7-.5-.823-1.955-.99-3.955-.5-6l16.5-16.5c6.72-.646 8.72 2.187 6 8.5Z"/><path style="opacity:1" fill="#2d2c2c" d="M432.5 197.5c-4.47-.986-9.137-1.319-14-1h-13c-24.506-.331-48.839.002-73 1-.543-.06-.876-.393-1-1 34-1.333 68-1.333 102 0-.124.607-.457.94-1 1Z"/><path style="opacity:1" fill="#aeaeae" d="M405.5 196.5a67.904 67.904 0 0 1-6 9 394.281 394.281 0 0 1-28 1.5c-4.229 3.843-3.895 7.177 1 10l15 .5a77.54 77.54 0 0 0 17-1.5 130.807 130.807 0 0 0 14-19.5c4.863-.319 9.53.014 14 1a633.944 633.944 0 0 1-16 26.5c-22.667.667-45.333.667-68 0a36.427 36.427 0 0 1-5-8.5c3.738 1.917 7.738 2.417 12 1.5 2.787-2.167 3.62-5.001 2.5-8.5-4.667-2.667-9.333-2.667-14 0a18.453 18.453 0 0 0-.5 6 148.44 148.44 0 0 1-11-17 1332.468 1332.468 0 0 1 73-1Z"/><path style="opacity:1" fill="#ebebeb" d="M405.5 196.5h13a130.807 130.807 0 0 1-14 19.5 77.54 77.54 0 0 1-17 1.5l-15-.5c-4.895-2.823-5.229-6.157-1-10a394.281 394.281 0 0 0 28-1.5 67.904 67.904 0 0 0 6-9Z"/><path style="opacity:1" fill="#aaa" d="M174.5 197.5a5473.064 5473.064 0 0 1 62.5 62c2.147 4.827 1.814 9.494-1 14L186.5 323c-1.667.667-3.333.667-5 0l-5.5-5.5c-.667-1.667-.667-3.333 0-5l41-41c.667-1.667.667-3.333 0-5a4382.789 4382.789 0 0 1-55.5-56c4-4.667 8.333-9 13-13ZM589.5 197.5c4.667 4 9 8.333 13 13a4382.789 4382.789 0 0 1-55.5 56c-.667 1.667-.667 3.333 0 5l41 41c.667 1.667.667 3.333 0 5l-5.5 5.5c-1.667.667-3.333.667-5 0L528 273.5c-3.265-5.067-3.265-10.067 0-15l20-20c.833-2.671.333-5.004-1.5-7 2.927-1.257 5.261-3.257 7-6 7.152 2.509 9.819.176 8-7l5-6c.667 0 1-.333 1-1 2.238 1.037 4.571 1.203 7 .5a305.702 305.702 0 0 1 15-14.5Z"/><path style="opacity:1" fill="#eaeaea" d="M343.5 215.5v-1a18.453 18.453 0 0 1 .5-6c4.667-2.667 9.333-2.667 14 0 1.12 3.499.287 6.333-2.5 8.5-4.262.917-8.262.417-12-1.5Z"/><path style="opacity:1" fill="#050403" d="M610.5 210.5c1.011 1.902 1.178 3.902.5 6a348.625 348.625 0 0 0-15.5 16 102.102 102.102 0 0 0-12 12 277.622 277.622 0 0 0-24 24.5c1.463 2.631 3.463 4.798 6 6.5a229.508 229.508 0 0 0 18-18c3.892-2.034 7.892-2.367 12-1a32.647 32.647 0 0 1 11 8c8.285 6.514 10.119 14.514 5.5 24a395.674 395.674 0 0 0-16.5 17c5.273 6.438 5.273 12.771 0 19a107.125 107.125 0 0 0-9 8.5c-3.317.498-6.65.665-10 .5a276.35 276.35 0 0 0-7-2.5 1084.999 1084.999 0 0 1-28 27.5c-2 1.333-3.667 3-5 5a146.475 146.475 0 0 1-10 10.5c-2.068.687-4.068.52-6-.5-1.239.442-2.239 1.109-3 2a630.73 630.73 0 0 0-26 20.5c-2 .667-4 .667-6 0a19.552 19.552 0 0 0-4-3.5 63.707 63.707 0 0 0-6.5-7c-.667-2-.667-4 0-6l22-28c.47-1.077.303-2.077-.5-3a8.43 8.43 0 0 1 .5-4 548.441 548.441 0 0 0 19.5-20c4.026-3.695 8.026-7.362 12-11 3.978-4.313 7.978-8.646 12-13a119.617 119.617 0 0 0-13-13 100.329 100.329 0 0 1-11-13c-1.333-5.333-1.333-10.667 0-16a19.177 19.177 0 0 1 2.5-5l21.5-21.5a18.453 18.453 0 0 1 6-.5c1.833 1.996 2.333 4.329 1.5 7l-20 20c-3.265 4.933-3.265 9.933 0 15l49.5 49.5c1.667.667 3.333.667 5 0l5.5-5.5c.667-1.667.667-3.333 0-5l-41-41c-.667-1.667-.667-3.333 0-5a4382.789 4382.789 0 0 0 55.5-56c2.667-1.333 5.333-1.333 8 0Z"/><path style="opacity:1" fill="#273339" d="M435.5 212.5c2.031 3.534 5.031 5.7 9 6.5a663.074 663.074 0 0 0 60 34c2.508 3.042 5.508 5.376 9 7 1.288.239 2.288-.261 3-1.5-1.333 5.333-1.333 10.667 0 16a4773.335 4773.335 0 0 0-80-46.5c-2.671-1.903-5.671-2.736-9-2.5a134.761 134.761 0 0 0 8-13Z"/><path style="opacity:1" fill="#050606" d="M561.5 218.5c1.819 7.176-.848 9.509-8 7-1.333-2.333-1.333-4.667 0-7 2.667-2.667 5.333-2.667 8 0Z"/><path style="opacity:1" fill="#263238" d="M332.5 231.5c-1.818 4.771-2.485 9.771-2 15a64.883 64.883 0 0 0-16 9.5 291.997 291.997 0 0 1-27 14 18.778 18.778 0 0 0-5.5 4.5c-.5 16.663-.667 33.33-.5 50v45l-13-16a3596.397 3596.397 0 0 0 1.5-85c2.167-1.5 4-3.333 5.5-5.5 12.352-5.326 24.019-11.993 35-20a32.449 32.449 0 0 0 9-4c3.741-3.52 8.075-6.02 13-7.5Z"/><path style="opacity:1" fill="#253036" d="M595.5 232.5v24c-4.108-1.367-8.108-1.034-12 1v-13a102.102 102.102 0 0 1 12-12Z"/><path style="opacity:1" fill="#b4a8a4" d="M6.5 150.5h30v114h-30v-114Z"/><path style="opacity:1" fill="#b5a7a3" d="M682.5 177.5c-.167 16.67 0 33.337.5 50 .717.544 1.217 1.211 1.5 2v35h-78a32.647 32.647 0 0 0-11-8v-24a348.625 348.625 0 0 1 15.5-16c.678-2.098.511-4.098-.5-6h71c-.328-11.179.005-22.179 1-33Z"/><path style="opacity:1" fill="#b3a6a3" d="M761.5 135.5c.987 4.805 1.321 9.805 1 15h30v114h-30v84c.302 2.559-.032 4.893-1 7v-220Z"/><path style="opacity:1" fill="#a9a9a9" d="M343.5 234.5c26.002-.167 52.002 0 78 .5l2.5 2.5c.499 4.321.666 8.654.5 13h-84a84.902 84.902 0 0 1 .5-13 10.515 10.515 0 0 0 2.5-3Z"/><path style="opacity:1" fill="#f4f4f4" d="M583.5 244.5v13a229.508 229.508 0 0 1-18 18c-2.537-1.702-4.537-3.869-6-6.5a277.622 277.622 0 0 1 24-24.5Z"/><path style="opacity:1" fill="#bb452d" d="M408.5 262.5a338.584 338.584 0 0 0-52 0c-.789-.283-1.456-.783-2-1.5a783.858 783.858 0 0 1 56 0c-.544.717-1.211 1.217-2 1.5Z"/><path style="opacity:1" fill="#f65b3b" d="M408.5 262.5c-7.155 7.055-15.821 10.388-26 10-10.239.539-18.906-2.794-26-10a338.584 338.584 0 0 1 52 0Z"/><path style="opacity:1" fill="#b7a49e" d="M6.5 264.5h30v84h-30v-84Z"/><path style="opacity:1" fill="#b6a39e" d="M112.5 257.5c.968 2.107 1.302 4.441 1 7h44a37.037 37.037 0 0 0-7.5 10 25.238 25.238 0 0 0 0 10 183.39 183.39 0 0 0 18.5 21c-4.594 5.319-5.094 10.985-1.5 17l9.5 9.5c6.015 3.594 11.681 3.094 17-1.5a34.807 34.807 0 0 1 7 7v11c-7.852-.325-15.518.008-23 1a102.978 102.978 0 0 1-23-13.5c-3.993-.322-7.326-1.988-10-5-3.415-.406-6.082-2.072-8-5l-10-4c-4.032-3.676-8.699-6.176-14-7.5v-57ZM330.5 246.5c-.702 8.133 2.965 12.967 11 14.5 2.99 5.156 6.99 9.323 12 12.5a613.783 613.783 0 0 1 1.5 35c1.754 1.75 3.921 2.417 6.5 2-1.773 2.988-2.44 6.321-2 10-4.651.74-6.151 3.406-4.5 8 1.789 1.729 3.956 2.396 6.5 2-1.773 2.988-2.44 6.321-2 10-2.704.17-4.371 1.503-5 4-.934 1.068-1.268 2.401-1 4h-71c.326-8.184-.008-16.184-1-24-.167-16.67 0-33.337.5-50a18.778 18.778 0 0 1 5.5-4.5 291.997 291.997 0 0 0 27-14 64.883 64.883 0 0 1 16-9.5Z"/><path style="opacity:1" fill="#b7a49f" d="M427.5 225.5c3.329-.236 6.329.597 9 2.5a4773.335 4773.335 0 0 1 80 46.5v50a548.441 548.441 0 0 1-19.5 20 8.43 8.43 0 0 0-.5 4h-85v-75c5.003-3.144 9.003-7.311 12-12.5 4.897-.566 8.397-3.066 10.5-7.5a90.455 90.455 0 0 0 0-19c-1.708-3.451-3.875-6.451-6.5-9Z"/><path style="opacity:1" fill="#b6a39e" d="M684.5 229.5a1807.264 1807.264 0 0 1 1 85 12.93 12.93 0 0 0-5 .5 515.876 515.876 0 0 1-61 34.5c-10.821-.995-21.821-1.328-33-1 3.225-1.713 6.059-4.046 8.5-7 .499-5.657.666-11.324.5-17 5.273-6.229 5.273-12.562 0-19a395.674 395.674 0 0 1 16.5-17c4.619-9.486 2.785-17.486-5.5-24h78v-35Z"/><path style="opacity:1" fill="#b7a49e" d="M792.5 264.5v84h-30v-84h30Z"/><path style="opacity:1" fill="#ebbc1f" d="M171.5 265.5c6.923 5.253 13.257 11.253 19 18-4.333 5-9 9.667-14 14-6.4-5.397-12.067-11.397-17-18a118.753 118.753 0 0 1 12-14Z"/><path style="opacity:1" fill="#ecbc1f" d="M590.5 265.5c5.653 3.653 10.32 8.32 14 14-4.933 6.603-10.6 12.603-17 18-5-4.333-9.667-9-14-14 5.688-6.02 11.355-12.02 17-18Z"/><path style="opacity:1" fill="#253137" d="M516.5 274.5a100.329 100.329 0 0 0 11 13c-.326 8.849.007 17.516 1 26-3.974 3.638-7.974 7.305-12 11v-50Z"/><path style="opacity:1" fill="#421810" d="m365.5 280.5-2 28c-.332-9.69.002-19.356 1-29 .607.124.94.457 1 1Z"/><path style="opacity:1" fill="#fa5c3d" d="M365.5 280.5c11.276 3.787 22.61 3.787 34 0a5041.406 5041.406 0 0 1 1 142c-1.141.839-2.474 1.506-4 2-3.155-8.315-6.322-16.648-9.5-25-3-2.667-6-2.667-9 0-3.178 8.352-6.345 16.685-9.5 25a6.846 6.846 0 0 0-4-1c.167-26.669 0-53.335-.5-80-1.409-1.281-2.909-2.281-4.5-3-.44-3.679.227-7.012 2-10 2.754-1.553 3.587-3.886 2.5-7-1.409-1.281-2.909-2.281-4.5-3-.44-3.679.227-7.012 2-10 1-.333 1.667-1 2-2l2-28Z"/><path style="opacity:1" fill="#3f170f" d="M399.5 280.5c.06-.543.393-.876 1-1a2561.098 2561.098 0 0 1 0 143c.332-47.503-.001-94.836-1-142Z"/><path style="opacity:1" fill="#f6f6f6" d="M527.5 287.5a119.617 119.617 0 0 1 13 13c-4.022 4.354-8.022 8.687-12 13-.993-8.484-1.326-17.151-1-26Z"/><path style="opacity:1" fill="#ffcac2" d="M379.5 291.5c2.865-.445 5.365.222 7.5 2a870.065 870.065 0 0 1 0 59c-3 4-6 4-9 0a870.065 870.065 0 0 1 0-59c.717-.544 1.217-1.211 1.5-2Z"/><path style="opacity:1" fill="#ecbd1f" d="M214.5 308.5a704.007 704.007 0 0 1 39.5 38c.667.667.667 1.333 0 2L241.5 361c-.667.667-1.333.667-2 0L202 323.5c-.667-.667-.667-1.333 0-2a228.344 228.344 0 0 0 12.5-13Z"/><path style="opacity:1" fill="#edbe1f" d="M547.5 308.5c5.588 3.917 10.588 8.584 15 14a1076.763 1076.763 0 0 1-39 39c-5-4.333-9.667-9-14-14l38-39Z"/><path style="opacity:1" fill="#110806" d="M359.5 320.5c1.591.719 3.091 1.719 4.5 3 1.087 3.114.254 5.447-2.5 7-2.544.396-4.711-.271-6.5-2-1.651-4.594-.151-7.26 4.5-8Z"/><path style="opacity:1" fill="#baa199" d="M281.5 324.5c.992 7.816 1.326 15.816 1 24h71v45h-58c-3-2.667-6-2.667-9 0-1.599.268-2.932-.066-4-1a63.707 63.707 0 0 1 6.5-7c.667-2 .667-4 0-6a105.353 105.353 0 0 1-7.5-10v-45Z"/><path style="opacity:1" fill="#273339" d="M595.5 324.5a145.053 145.053 0 0 1-.5 17c-2.441 2.954-5.275 5.287-8.5 7-8.225 3.815-15.892 8.648-23 14.5l-12 5a716.465 716.465 0 0 1-24 15c-6.08 1.08-9.414-1.42-10-7.5.761-.891 1.761-1.558 3-2 1.932 1.02 3.932 1.187 6 .5a146.475 146.475 0 0 0 10-10.5c-.065.438.101.772.5 1a37.84 37.84 0 0 1 5.5-5c6.818-1.961 12.818-5.461 18-10.5a478.277 478.277 0 0 0 22-11c.837-1.011 1.17-2.178 1-3.5-2.559.302-4.893-.032-7-1 3.35.165 6.683-.002 10-.5a107.125 107.125 0 0 1 9-8.5Z"/><path style="opacity:1" fill="#f9f9f9" d="M576.5 333.5c2.107.968 4.441 1.302 7 1 .17 1.322-.163 2.489-1 3.5a478.277 478.277 0 0 1-22 11c-5.182 5.039-11.182 8.539-18 10.5-.667 0-1-.333-1-1a1084.999 1084.999 0 0 0 28-27.5 276.35 276.35 0 0 1 7 2.5Z"/><path style="opacity:1" fill="#263238" d="M201.5 338.5c4.359 4.028 8.693 8.028 13 12a2601.572 2601.572 0 0 0-1 102h-12v-114Z"/><path style="opacity:1" fill="#b9a099" d="M762.5 348.5h30v17c-3.013-.128-5.513.872-7.5 3-2.411-1.653-3.578-.987-3.5 2-1.701.466-3.201.466-4.5 0-3.844 1.975-7.177 4.642-10 8l-1-1c-1.049 1.607-2.549 2.273-4.5 2v3c-3.937.204-7.604 1.204-11 3 .381 2.442-.286 3.109-2 2-.886.825-1.219 1.825-1 3h-6v3h-37a25.14 25.14 0 0 1 4-4.5 377.475 377.475 0 0 0 23-12 113.606 113.606 0 0 1 28-15c1.729-1.789 2.396-3.956 2-6.5.968-2.107 1.302-4.441 1-7Z"/><path style="opacity:1" fill="#fefefe" d="M214.5 350.5a696.251 696.251 0 0 0 22 22.5 62.644 62.644 0 0 0 10 2 573.94 573.94 0 0 0 23 18.5v59h-56c-.332-34.171.002-68.171 1-102Z"/><path style="opacity:1" fill="#a6a6a6" d="M257.5 358.5c1.175-.219 2.175.114 3 1a497.156 497.156 0 0 0 16.5 21c.345 1.701-.322 3.034-2 4l-23-18c-.667-.667-.667-1.333 0-2a46.081 46.081 0 0 0 5.5-6Z"/><path style="opacity:1" fill="#ffc9c1" d="M379.5 365.5c2.865-.445 5.365.222 7.5 2a25.238 25.238 0 0 1 0 10c-3 2.667-6 2.667-9 0-1.006-4.302-.506-8.302 1.5-12Z"/><path style="opacity:1" fill="#0f0d0c" d="M295.5 393.5c.502 7.986-2.665 9.986-9.5 6-.678-2.098-.511-4.098.5-6 3-2.667 6-2.667 9 0Z"/><path style="opacity:1" fill="#b79b93" d="M354.5 344.5c.333 24.342 0 48.676-1 73a38.14 38.14 0 0 0-10-4c-4.651.693-6.151 3.359-4.5 8a331.675 331.675 0 0 1 10.5 22c-1.987 1.827-4.321 2.827-7 3a331.102 331.102 0 0 1-27-17 29.312 29.312 0 0 1-9-3c-2.412-.094-4.245.906-5.5 3-.5 7.659-.666 15.326-.5 23h-19v-59c0-.667.333-1 1-1 1.068.934 2.401 1.268 4 1-1.011 1.902-1.178 3.902-.5 6 6.835 3.986 10.002 1.986 9.5-6h58v-45c-.268-1.599.066-2.932 1-4Z"/><path style="opacity:1" fill="#b79c94" d="M411.5 273.5v120h57c-.852 6.988 1.981 9.322 8.5 7 1.664-2.286 1.83-4.619.5-7 1.599.268 2.932-.066 4-1a19.552 19.552 0 0 1 4 3.5c2 .667 4 .667 6 0a630.73 630.73 0 0 1 26-20.5c.586 6.08 3.92 8.58 10 7.5a716.465 716.465 0 0 0 24-15l12-5c7.108-5.852 14.775-10.685 23-14.5 11.179-.328 22.179.005 33 1a14.698 14.698 0 0 1-3 3.5c-5.216 1.792-9.883 4.459-14 8l-32 17-4 4-14 6-4 4c-6.4 2.062-12.067 5.396-17 10-5.676 1.89-10.676 4.89-15 9a146.497 146.497 0 0 0-31 18 74.12 74.12 0 0 1-9 4c-3.658 3.661-7.991 5.995-13 7L449 450.5c-2.528-1.434-4.362-.767-5.5 2-9.957-.986-19.291-3.986-28-9a413.04 413.04 0 0 0 11-25c.11-1.874-.556-3.374-2-4.5-4.758-.633-9.091.534-13 3.5a2597.035 2597.035 0 0 1 0-144Z"/><path style="opacity:1" fill="#0a0808" d="M477.5 393.5c1.33 2.381 1.164 4.714-.5 7-6.519 2.322-9.352-.012-8.5-7 3.078-2.534 6.078-2.534 9 0Z"/><path style="opacity:1" fill="#949698" d="M541.5 358.5c0 .667.333 1 1 1a37.84 37.84 0 0 0-5.5 5c-.399-.228-.565-.562-.5-1 1.333-2 3-3.667 5-5Z"/><path style="opacity:1" fill="#a7a7a7" d="M504.5 358.5c3.804 1.631 6.304 4.298 7.5 8a297.973 297.973 0 0 1-23 18l-2.5-2.5a631.557 631.557 0 0 1 18-23.5Z"/><path style="opacity:1" fill="#baa199" d="M411.5 348.5h85c.803.923.97 1.923.5 3l-22 28c-.667 2-.667 4 0 6a63.707 63.707 0 0 1 6.5 7c-1.068.934-2.401 1.268-4 1-2.922-2.534-5.922-2.534-9 0h-57v-45Z"/><path style="opacity:1" fill="#253137" d="M269.5 393.5c4 4 8 4 12 0v59h-12v-59Z"/><path style="opacity:1" fill="#120f0f" d="M302.5 405.5c6.763.047 8.763 3.214 6 9.5-9.281 1.234-11.281-1.933-6-9.5Z"/><path style="opacity:1" fill="#0d0b0b" d="M457.5 405.5c6.797.607 8.464 3.774 5 9.5-5.993 1.668-8.493-.498-7.5-6.5.698-1.191 1.531-2.191 2.5-3Z"/><path style="opacity:1" fill="#0f0d0c" d="M315.5 429.5c-3.078-7.467-.744-10.3 7-8.5 2.902 4.369 1.902 7.536-3 9.5a343.58 343.58 0 0 0-4-1Z"/><path style="opacity:1" fill="#f65b3b" d="M408.5 481.5c-2.107.968-4.441 1.302-7 1-2.993-3.052-6.659-4.219-11-3.5-1.323.816-1.989 1.983-2 3.5h-12c-.384-2.55-1.884-3.883-4.5-4-3.622.478-6.788 1.811-9.5 4-2.235.295-4.235-.039-6-1a66.78 66.78 0 0 1 4.5-10c.667-2 .667-4 0-6a136.8 136.8 0 0 0-17.5-7.5 141.575 141.575 0 0 0 17.5-8.5c.667-2 .667-4 0-6l-6.5-13 1-1a65.78 65.78 0 0 0 13 6.5c2.402.814 4.735.647 7-.5a374.483 374.483 0 0 0 7-17 374.483 374.483 0 0 0 7 17c2.265 1.147 4.598 1.314 7 .5a249.25 249.25 0 0 1 13.5-6.5c-1.385 4.787-3.385 9.454-6 14-1.12 3.499-.287 6.333 2.5 8.5a149.218 149.218 0 0 1 15 6 63.372 63.372 0 0 1-12 4c-5.246 1.237-7.08 4.404-5.5 9.5a66.78 66.78 0 0 1 4.5 10Z"/><path style="opacity:1" fill="#110f0e" d="M441.5 420.5c9.03-.84 11.03 2.327 6 9.5-6.854.255-8.854-2.912-6-9.5Z"/><path style="opacity:1" fill="#273339" d="M315.5 429.5a331.102 331.102 0 0 0 27 17 7454.95 7454.95 0 0 1-14 6c-1.354-2.828-3.687-4.328-7-4.5a35.27 35.27 0 0 0-11-7.5 36.875 36.875 0 0 0-1 12h-9c-.166-7.674 0-15.341.5-23 1.255-2.094 3.088-3.094 5.5-3a29.312 29.312 0 0 0 9 3Z"/><path style="opacity:1" fill="#ba9e96" d="M200.5 337.5c.667 0 1 .333 1 1v114a162.597 162.597 0 0 0-18 .5 37730.68 37730.68 0 0 1-9 4.5c-5.639-3.155-11.306-6.321-17-9.5-6.204-2.789-12.537-4.622-19-5.5v-3h-6v-3h-3v-3h-6v-3h-5v-3c-2.921.354-5.254-.646-7-3-1.714 1.109-2.381.442-2-2a58.97 58.97 0 0 1-11-3v-3a27.267 27.267 0 0 0-9-3v-3c-2.908.238-5.242-.762-7-3a3.647 3.647 0 0 0-1.5 1c-1.667-1-3-2.333-4-4l-1 1a4.932 4.932 0 0 1-.5-3h-6v-3h-5v-3a544.412 544.412 0 0 1-29-14v-3a58.967 58.967 0 0 1-11-3v-3h-6v-3c-4.013-1.674-8.013-3.341-12-5v-17h30c-.015 4.06.485 8.06 1.5 12l9.5 5.5c1.374 3.683 4.04 5.349 8 5a13376.247 13376.247 0 0 0 116 67c4.091 1.227 7.591.394 10.5-2.5.101-3.2.768-6.2 2-9 .667-23.333.667-46.667 0-70-1.694-2.858-3.861-5.191-6.5-7 7.482-.992 15.148-1.325 23-1v-11Z"/><path style="opacity:1" fill="#bc9c93" d="M704.5 393.5h32c-.847 2.344-2.514 3.844-5 4.5l1 1a12.93 12.93 0 0 1-5 .5v3a9.86 9.86 0 0 0-6 1c-3.423 1.192-6.256 3.192-8.5 6l-1-1c-1.049 1.607-2.549 2.273-4.5 2v3h-6v3h-5v3c-2.185.388-4.018 1.388-5.5 3-2.278-1.12-3.778-.287-4.5 2.5a101.955 101.955 0 0 0-13 5.5v3h-6v3h-6v3c-1.788-.285-3.455.048-5 1 1.129 2.029.629 2.363-1.5 1-1.712 3.452-4.212 4.452-7.5 3v3c-3.096-.593-5.429.407-7 3a47.25 47.25 0 0 1-7 3v3h-6v3c-1.788-.285-3.455.048-5 1a28.335 28.335 0 0 0-9.5 6l-1-1c-1.049 1.607-2.549 2.273-4.5 2-.167 12.338 0 24.671.5 37 .414.457.914.791 1.5 1a196.869 196.869 0 0 1 1 28h-15c.167-15.67 0-31.337-.5-47-.383-.556-.883-.889-1.5-1 .166-7.008 0-14.008-.5-21l-2.5-5c1.068-2.24 2.734-4.074 5-5.5a1614.434 1614.434 0 0 0 40-21c2.857-2.87 6.19-4.87 10-6a666.895 666.895 0 0 1 59-33.5Z"/><path style="opacity:1" fill="#f6f6f6" d="M328.5 452.5h-19a36.875 36.875 0 0 1 1-12 35.27 35.27 0 0 1 11 7.5c3.313.172 5.646 1.672 7 4.5Z"/><path style="opacity:1" fill="#121111" d="M522.5 457.5c-.064 3.562-1.897 5.229-5.5 5-3.654-.289-5.154-2.289-4.5-6 3.733-5.579 7.066-5.245 10 1Z"/><path style="opacity:1" fill="#acacac" d="M512.5 456.5c-.654 3.711.846 5.711 4.5 6 3.603.229 5.436-1.438 5.5-5 3.439.247 6.772-.086 10-1-.239 1.967.094 3.801 1 5.5l45 1c2.251.748 3.584 2.248 4 4.5v15h-7c.429-3.757-.237-7.257-2-10.5-3.707-2.209-6.54-1.376-8.5 2.5a32.462 32.462 0 0 0-.5 8c-35.335-.167-70.668 0-106 .5l-1.5 1.5a481.165 481.165 0 0 0-.5 31c-4.645-1.084-7.645.583-9 5 1.355 4.417 4.355 6.084 9 5v8h-34a265.208 265.208 0 0 1 1-32c2.214-.892 3.214-2.558 3-5a20.648 20.648 0 0 0-3-8c-.453-2.065-1.453-3.732-3-5a8136.975 8136.975 0 0 0-5-12 291.782 291.782 0 0 1 22-8.5l63-1c1.537-1.11 2.203-2.61 2-4.5 3.439.247 6.772-.086 10-1ZM341.5 501.5c1.068.934 2.401 1.268 4 1-.326 8.184.008 16.184 1 24 .011 1.517.677 2.684 2 3.5 7.993.5 15.993.666 24 .5v3h-82a84.902 84.902 0 0 0-.5-13c-.717-.544-1.217-1.211-1.5-2-.453-.958-1.119-1.792-2-2.5-28.665-.5-57.331-.667-86-.5a840.27 840.27 0 0 0-.5-41 9.454 9.454 0 0 0-1.5-2.5 12.494 12.494 0 0 0-7 0 9.454 9.454 0 0 0-1.5 2.5c-.667 16-.667 32 0 48l2.5 2.5c16.663.5 33.33.667 50 .5v8c-19.336.167-38.67 0-58-.5l-1.5-1.5a521.05 521.05 0 0 1-1-64 6.978 6.978 0 0 1 2.5-3.5c47.583-1.657 95.25-1.99 143-1a122.375 122.375 0 0 0 22 7.5 177.107 177.107 0 0 1-10.5 23c-1.166 3.427-.332 6.093 2.5 8Z"/><path style="opacity:1" fill="#e9e9e9" d="M288.5 518.5c-14.67-.167-29.337 0-44 .5-1.729 1.789-2.396 3.956-2 6.5-16.67.167-33.337 0-50-.5l-2.5-2.5c-.667-16-.667-32 0-48a9.454 9.454 0 0 1 1.5-2.5 12.494 12.494 0 0 1 7 0 9.454 9.454 0 0 1 1.5 2.5c.5 13.663.667 27.329.5 41 28.669-.167 57.335 0 86 .5.881.708 1.547 1.542 2 2.5Z"/><path style="opacity:1" fill="#eaeaea" d="M575.5 482.5h-11a32.462 32.462 0 0 1 .5-8c1.96-3.876 4.793-4.709 8.5-2.5 1.763 3.243 2.429 6.743 2 10.5Z"/><path style="opacity:1" fill="#0d0402" d="M376.5 482.5h-14c2.712-2.189 5.878-3.522 9.5-4 2.616.117 4.116 1.45 4.5 4Z"/><path style="opacity:1" fill="#0b0302" d="M401.5 482.5h-13c.011-1.517.677-2.684 2-3.5 4.341-.719 8.007.448 11 3.5Z"/><path style="opacity:.998" fill="#273339" d="M582.5 467.5c.987 4.805 1.321 9.805 1 15 3.005-.247 5.505.753 7.5 3 .5 19.33.667 38.664.5 58v67h4c.167 10.672 0 21.339-.5 32-1.887 1.526-2.887 3.526-3 6-.827 13.84-.661 27.506.5 41 .166 7.674 0 15.341-.5 23a9.454 9.454 0 0 1-1.5 2.5 318.836 318.836 0 0 1-43 1.5 772.829 772.829 0 0 0-68-.5 209.75 209.75 0 0 0-30 18c-6.4 2.062-12.067 5.396-17 10-6.761 1.869-12.761 5.202-18 10-5.266 2.764-10.933 4.598-17 5.5a91.921 91.921 0 0 1-19-7.5c-2.508-3.042-5.508-5.376-9-7a285.057 285.057 0 0 0-21-10.5c-1.575-2.441-3.908-3.607-7-3.5a13.92 13.92 0 0 1-3-4c-8.36-3.016-16.027-7.349-23-13a466.277 466.277 0 0 1-50-29l-9-3a114.425 114.425 0 0 0-30-18 55.63 55.63 0 0 0-18-10 18.839 18.839 0 0 0-6.5-5.5 721.824 721.824 0 0 1-.5-38h12c-.167 10.672 0 21.339.5 32a46.99 46.99 0 0 0 10.5 5.5l4 4a90.42 90.42 0 0 0 14 6 77.598 77.598 0 0 0 23 13l4 4 10 4c4.933 4.604 10.6 7.938 17 10 3.574 3.951 7.907 6.618 13 8 6.962 5.648 14.628 9.981 23 13 1.918 2.928 4.585 4.594 8 5a78.488 78.488 0 0 0 23 13c3.671 4.417 8.338 7.083 14 8 2.457 3.058 5.457 5.392 9 7a97.288 97.288 0 0 1 12 5.5 115.786 115.786 0 0 1 25-13.5c5.809-4.454 12.142-8.121 19-11a32.573 32.573 0 0 1 12.5-7.5 521.05 521.05 0 0 0 1-64 330.581 330.581 0 0 1-26.5 15.5l16 1a6.978 6.978 0 0 1 3.5 2.5 420.29 420.29 0 0 1 0 41 6.978 6.978 0 0 1-2.5 3.5 2400.05 2400.05 0 0 1-98 0l-1.5-1.5a484.008 484.008 0 0 1 0-44l1.5-1.5 20-1a184.026 184.026 0 0 1-23-14c-5.628-.991-10.295-3.658-14-8a420.445 420.445 0 0 1-32-17 42.319 42.319 0 0 0-8.5-6.5l-1 27-1.5 1.5a484.008 484.008 0 0 1-44 0l-1.5-1.5a760.316 760.316 0 0 1-.5-39c-13.631-1.82-27.631-2.653-42-2.5-1.778-2.135-2.445-4.635-2-7.5.325-7.519-.008-14.852-1-22 1.273-4.301 1.273-8.635 0-13 1.096-1.603 2.43-3.103 4-4.5l35-1a10.502 10.502 0 0 1 5-3.5 43.117 43.117 0 0 0 1-13v-18c-.396-2.544.271-4.711 2-6.5 14.663-.5 29.33-.667 44-.5.283.789.783 1.456 1.5 2 .499 4.321.666 8.654.5 13v27h37c1.544.203 2.878.87 4 2a104.781 104.781 0 0 1 2 10 213.023 213.023 0 0 0-1 28c.445 2.865-.222 5.365-2 7.5a801.488 801.488 0 0 0-40 1.5c.825.886 1.825 1.219 3 1 .333 1 1 1.667 2 2a777.154 777.154 0 0 1 31 18.5 90.42 90.42 0 0 0 14 6 523.182 523.182 0 0 0 22 15 73.86 73.86 0 0 1 9 3.5 507.055 507.055 0 0 0 1-45v-10a61.281 61.281 0 0 0-1-15c.993-8.818 1.327-17.818 1-27v-28c-8.007.166-16.007 0-24-.5-1.323-.816-1.989-1.983-2-3.5.326-8.517-.007-16.85-1-25a165.187 165.187 0 0 0 1.5-17 33.485 33.485 0 0 1 9.5-3c1.765.961 3.765 1.295 6 1h39c2.559.302 4.893-.032 7-1 3.962.738 7.962 1.405 12 2 1.547 1.268 2.547 2.935 3 5-1.333 4.333-1.333 8.667 0 13a265.208 265.208 0 0 0-1 32v77a552.805 552.805 0 0 0 1 47 305.965 305.965 0 0 1 29-16.5 14.698 14.698 0 0 0 3-3.5c.993-8.818 1.327-17.818 1-27v-22c.318-4.532-.015-8.866-1-13 1.333-2.333 1.333-4.667 0-7 .662-1.804.995-3.804 1-6-.143-2.613-.81-4.947-2-7h1c.983-3.798 1.317-7.798 1-12v-28c-.166-10.339 0-20.672.5-31l1.5-1.5c35.332-.5 70.665-.667 106-.5h18v-15Z"/><path style="opacity:1" fill="#263238" d="M593.5 485.5c.617.111 1.117.444 1.5 1 .5 15.663.667 31.33.5 47a4.934 4.934 0 0 1-3-.5 570.702 570.702 0 0 0 1-47.5Z"/><path style="opacity:1" fill="#9d8689" d="M414.5 491.5h-60v31c-.994-10.487-1.328-21.154-1-32a931.31 931.31 0 0 1 61 1Z"/><path style="opacity:1" fill="#090a0a" d="M423.5 488.5a20.648 20.648 0 0 1 3 8c.214 2.442-.786 4.108-3 5-1.333-4.333-1.333-8.667 0-13Z"/><path style="opacity:1" fill="#515155" d="M464.5 490.5v217h119v-217c.999 72.498 1.333 145.165 1 218h-121c-.333-72.835.001-145.502 1-218Z"/><path style="opacity:1" fill="#d2acac" d="M414.5 491.5c-.167 60.334 0 120.668.5 181 .057 2.41 1.224 3.744 3.5 4 7.148.992 14.481 1.325 22 1v31h-87v-32c8.007.166 16.007 0 24-.5l1.5-1.5c.667-50 .667-100 0-150l-1.5-1.5c-7.659-.5-15.326-.666-23-.5v-31h60Z"/><path style="opacity:1" fill="#d2adad" d="M464.5 490.5h119v217h-119v-217Z"/><path style="opacity:1" fill="#696e70" d="M341.5 501.5h4c.993 8.15 1.326 16.483 1 25-.992-7.816-1.326-15.816-1-24-1.599.268-2.932-.066-4-1Z"/><path style="opacity:1" fill="#ededed" d="M301.5 515.5a84.902 84.902 0 0 1 13 .5c4 3 4 6 0 9a42.479 42.479 0 0 1-13 0c-2.612-3.164-2.612-6.331 0-9.5Z"/><path style="opacity:1" fill="#e7e7e7" d="M456.5 515.5v10c-4.645 1.084-7.645-.583-9-5 1.355-4.417 4.355-6.084 9-5Z"/><path style="opacity:1" fill="#283339" d="M502.5 522.5c14.67-.167 29.337 0 44 .5l1.5 1.5c.83 50.237.664 100.404-.5 150.5a552.224 552.224 0 0 1-47 0 11.333 11.333 0 0 1-1.5-3.5 3601.9 3601.9 0 0 1 .5-147c1.239-.442 2.239-1.109 3-2Z"/><path style="opacity:1" fill="#d2acac" d="M324.5 568.5v32a400.456 400.456 0 0 0-40 1l-1.5 3a799.793 799.793 0 0 0-.5 40h-32a304.505 304.505 0 0 0-1.5-42 9.454 9.454 0 0 0-2.5-1.5 799.793 799.793 0 0 0-40-.5v-32c14.004.167 28.004 0 42-.5l1.5-1.5c.5-13.663.667-27.329.5-41h32a840.27 840.27 0 0 0 .5 41l1.5 1.5c13.329.5 26.663.667 40 .5Z"/><path style="opacity:1" fill="#acacac" d="M541.5 533.5h-35v-3h35v3Z"/><path style="opacity:1" d="M290.5 533.5h82v10h-82v-10ZM422.5 533.5h34v10h-34v-10Z"/><path style="opacity:1" fill="#000101" d="M506.5 533.5h35v10h-35v-10Z"/><path style="opacity:.96" fill="#030303" d="M576.5 452.5c6.095-.286 10.762 2.047 14 7l2.5 5c.5 6.992.666 13.992.5 21a570.702 570.702 0 0 1-1 47.5 4.934 4.934 0 0 0 3 .5h15c11.396-1.744 18.229 2.923 20.5 14a600.2 600.2 0 0 1 0 49c-2.099 11.158-8.932 16.158-20.5 15-4.805-.987-9.805-1.321-15-1h-4v-10c8.673.166 17.34 0 26-.5l2.5-2.5c.667-17 .667-34 0-51-.708-.881-1.542-1.547-2.5-2-8.484-.993-17.151-1.326-26-1 .167-19.336 0-38.67-.5-58-1.995-2.247-4.495-3.247-7.5-3 .321-5.195-.013-10.195-1-15-.416-2.252-1.749-3.752-4-4.5l-45-1c-.906-1.699-1.239-3.533-1-5.5.074-1.911 1.074-3.078 3-3.5a840.27 840.27 0 0 1 41-.5Z"/><path style="opacity:1" fill="#548eaa" d="M290.5 544.5v-1h82v15h-1v-14h-81Z"/><path style="opacity:1" fill="#5692af" d="M591.5 543.5c8.849-.326 17.516.007 26 1h-25v13h-1v-14Z"/><path style="opacity:1" fill="#70bfe5" d="M242.5 543.5a43.117 43.117 0 0 1-1 13 10.502 10.502 0 0 0-5 3.5l-35 1c-1.57 1.397-2.904 2.897-4 4.5-4.708-8.847-12.042-12.014-22-9.5-12.082 7.13-14.248 16.63-6.5 28.5 9.576 7.047 18.576 6.38 27-2a10.134 10.134 0 0 0 1.5-4c.992 7.148 1.325 14.481 1 22-17.003.167-34.003 0-51-.5l-2.5-2.5c-.667-17-.667-34 0-51l2.5-2.5c31.665-.5 63.332-.667 95-.5Z"/><path style="opacity:1" fill="#71c0e6" d="M290.5 544.5h81v14c-6.111 6.273-7.611 13.606-4.5 22 1.049 2.118 2.549 3.784 4.5 5a61.281 61.281 0 0 1 1 15h-40a213.023 213.023 0 0 1 1-28 104.781 104.781 0 0 0-2-10c-1.122-1.13-2.456-1.797-4-2-3.142-3.981-7.309-5.647-12.5-5-4.992-.809-8.826.858-11.5 5h-13v-16Z"/><path style="opacity:1" fill="#5b99b9" d="M422.5 543.5h34c.317 4.202-.017 8.202-1 12v-11h-32v56h-1v-57Z"/><path style="opacity:1" fill="#70bfe5" d="M455.5 555.5h-1c-17.659-.51-24.492 7.824-20.5 25 5.492 8.157 12.992 10.823 22.5 8v12h-33v-56h32v11Z"/><path style="opacity:1" fill="#70bfe6" d="M540.5 600.5h-34c-.318-4.532.015-8.866 1-13 10.599 4.611 18.766 1.944 24.5-8 3.955-11.252.455-19.085-10.5-23.5-4.42-.768-8.753-.602-13 .5-.983-3.798-1.317-7.798-1-12h33v56Z"/><path style="opacity:1" fill="#4f8098" d="M506.5 543.5h35v57h-1v-56h-33c-.317 4.202.017 8.202 1 12-.342.838-1.008 1.172-2 1v-14Z"/><path style="opacity:1" fill="#71c0e7" d="M617.5 544.5c.958.453 1.792 1.119 2.5 2 .667 17 .667 34 0 51l-2.5 2.5c-8.66.5-17.327.666-26 .5v-13c8.74-5.508 11.24-13.175 7.5-23-1.666-2.831-3.832-5.164-6.5-7v-13h25Z"/><path style="opacity:1" fill="#040505" d="M197.5 565.5c1.273 4.365 1.273 8.699 0 13a10.134 10.134 0 0 1-1.5 4c-8.424 8.38-17.424 9.047-27 2-7.748-11.87-5.582-21.37 6.5-28.5 9.958-2.514 17.292.653 22 9.5Z"/><path style="opacity:1" fill="#030405" d="M327.5 560.5h-24c2.674-4.142 6.508-5.809 11.5-5 5.191-.647 9.358 1.019 12.5 5Z"/><path style="opacity:1" fill="#040405" d="M454.5 555.5c1.19 2.053 1.857 4.387 2 7-.005 2.196-.338 4.196-1 6-2.704-2.803-6.037-3.637-10-2.5-4.269 4.709-3.936 9.042 1 13 3.91 1.041 6.91-.125 9-3.5.985 4.134 1.318 8.468 1 13-9.508 2.823-17.008.157-22.5-8-3.992-17.176 2.841-25.51 20.5-25Z"/><path style="opacity:1" fill="#050607" d="M507.5 587.5a233.825 233.825 0 0 1-1-30c.992.172 1.658-.162 2-1 4.247-1.102 8.58-1.268 13-.5 10.955 4.415 14.455 12.248 10.5 23.5-5.734 9.944-13.901 12.611-24.5 8Z"/><path style="opacity:1" fill="#040708" d="M591.5 557.5h1c2.668 1.836 4.834 4.169 6.5 7 3.74 9.825 1.24 17.492-7.5 23v-30Z"/><path style="opacity:1" fill="#06090b" d="M371.5 558.5h1c.327 9.182-.007 18.182-1 27-1.951-1.216-3.451-2.882-4.5-5-3.111-8.394-1.611-15.727 4.5-22Z"/><path style="opacity:1" fill="#f6f6f6" d="M178.5 565.5c7.828-1.007 10.994 2.326 9.5 10-4.931 5.672-9.265 5.339-13-1-.957-3.861.21-6.861 3.5-9Z"/><path style="opacity:1" fill="#f5f5f5" d="M455.5 568.5c1.333 2.333 1.333 4.667 0 7-2.09 3.375-5.09 4.541-9 3.5-4.936-3.958-5.269-8.291-1-13 3.963-1.137 7.296-.303 10 2.5Z"/><path style="opacity:1" fill="#f7f7f7" d="M512.5 565.5c5.971-1.359 9.637.808 11 6.5-.919 5.792-4.252 8.126-10 7-4.991-4.125-5.325-8.625-1-13.5Z"/><path style="opacity:1" fill="#535256" d="M324.5 568.5c.995 10.821 1.328 21.821 1 33h-41a400.456 400.456 0 0 1 40-1v-32Z"/><path style="opacity:1" fill="#010102" d="M332.5 600.5h40v10h-79c-1.175.219-2.175-.114-3-1a801.488 801.488 0 0 1 40-1.5c1.778-2.135 2.445-4.635 2-7.5Z"/><path style="opacity:1" d="M422.5 600.5h34v10h-34v-10Z"/><path style="opacity:1" fill="#000101" d="M506.5 600.5h35v10h-35v-10Z"/><path style="opacity:1" fill="#896d64" d="M293.5 610.5h79a507.055 507.055 0 0 1-1 45v-44c-25.505-.331-50.839.002-76 1-1-.333-1.667-1-2-2Z"/><path style="opacity:1" fill="#96766d" d="M422.5 610.5h34c.327 9.182-.007 18.182-1 27v-26h-32v46a552.805 552.805 0 0 1-1-47Z"/><path style="opacity:1" fill="#fbfbfb" d="M213.5 610.5h29c-.167 13.004 0 26.004.5 39l1.5 1.5c14.667.667 29.333.667 44 0l1.5-1.5 1-27a42.319 42.319 0 0 1 8.5 6.5 420.445 420.445 0 0 0 32 17c3.705 4.342 8.372 7.009 14 8a184.026 184.026 0 0 0 23 14l-20 1-1.5 1.5a484.008 484.008 0 0 0 0 44l1.5 1.5c32.667.667 65.333.667 98 0a6.978 6.978 0 0 0 2.5-3.5 420.29 420.29 0 0 0 0-41 6.978 6.978 0 0 0-3.5-2.5l-16-1a330.581 330.581 0 0 0 26.5-15.5 521.05 521.05 0 0 1-1 64 32.573 32.573 0 0 0-12.5 7.5c-6.858 2.879-13.191 6.546-19 11a115.786 115.786 0 0 0-25 13.5 97.288 97.288 0 0 0-12-5.5c-3.543-1.608-6.543-3.942-9-7-5.662-.917-10.329-3.583-14-8a78.488 78.488 0 0 1-23-13c-3.415-.406-6.082-2.072-8-5-8.372-3.019-16.038-7.352-23-13-5.093-1.382-9.426-4.049-13-8-6.4-2.062-12.067-5.396-17-10l-10-4-4-4a77.598 77.598 0 0 1-23-13 90.42 90.42 0 0 1-14-6l-4-4a46.99 46.99 0 0 1-10.5-5.5 511.925 511.925 0 0 1-.5-32Z"/><path style="opacity:1" fill="#c29587" d="M371.5 655.5a73.86 73.86 0 0 0-9-3.5 523.182 523.182 0 0 1-22-15 90.42 90.42 0 0 1-14-6 777.154 777.154 0 0 0-31-18.5 1444.401 1444.401 0 0 1 76-1v44Z"/><path style="opacity:1" fill="#c39588" d="M455.5 637.5a14.698 14.698 0 0 1-3 3.5 305.965 305.965 0 0 0-29 16.5v-46h32v26Z"/><path style="opacity:1" fill="#fbfbfb" d="M526.5 611.5h14v55c-.111.617-.444 1.117-1 1.5-10.995.5-21.995.667-33 .5v-46a103.966 103.966 0 0 0 20-11Z"/><path style="opacity:1" fill="#969b9e" d="M526.5 611.5v-1h15a784.68 784.68 0 0 1-1 56v-55h-14Z"/><path style="opacity:1" fill="#c49384" d="M201.5 610.5c-.167 12.671 0 25.338.5 38a18.839 18.839 0 0 1 6.5 5.5 55.63 55.63 0 0 1 18 10 114.425 114.425 0 0 1 30 18l9 3a466.277 466.277 0 0 0 50 29c6.973 5.651 14.64 9.984 23 13a13.92 13.92 0 0 0 3 4c3.092-.107 5.425 1.059 7 3.5h-68c-1.418-1.808-3.418-2.475-6-2v-3h-5v-3a8.43 8.43 0 0 1-4-.5c-4.85-3.699-10.184-6.199-16-7.5v-3h-6v-3c-2.092-.061-3.592-1.061-4.5-3-1.299.466-2.799.466-4.5 0v-3c-1.788.285-3.455-.048-5-1-2.158-3.144-5.158-4.477-9-4v-3a12.93 12.93 0 0 1-5-.5c-2.625-3.031-6.125-5.864-10.5-8.5-2.537.677-4.537-.323-6-3l-1 1c-1.667-1-3-2.333-4-4-1.049 1.017-2.216 1.184-3.5.5l1-1a15.645 15.645 0 0 1-4-2.5c-1-22.99-1.333-45.99-1-69 4.805-.987 9.805-1.321 15-1Z"/><path style="opacity:1" fill="#c39486" d="M595.5 610.5c5.195-.321 10.195.013 15 1 .333 21.011 0 42.011-1 63-1.671 2.01-2.338 4.343-2 7-3.064 1.19-5.731 2.857-8 5h-3v3h-4c-1.161-13.494-1.327-27.16-.5-41 .113-2.474 1.113-4.474 3-6 .5-10.661.667-21.328.5-32Z"/><path style="opacity:1" fill="#a98f90" d="M418.5 676.5h23c.328 10.846-.006 21.513-1 32v-31c-7.519.325-14.852-.008-22-1Z"/><path style="opacity:1" fill="#c59383" d="M599.5 686.5c1.333.667 1.333.667 0 0Z"/><path style="opacity:1" fill="#c69182" d="M547.5 716.5c-1.238.31-1.238.81 0 1.5a118.288 118.288 0 0 0-17 7.5 10.756 10.756 0 0 0-2.5 3l-1-1c-1.049 1.607-2.549 2.273-4.5 2v3h-6v3h-5v3c-2.524-.071-4.524.929-6 3-2.12-1.372-3.12-.705-3 2a12.93 12.93 0 0 0-5 .5 101.657 101.657 0 0 0-10 7.5 9.108 9.108 0 0 1-5 1v3c-2.51-.446-4.51.22-6 2-2.216.703-4.049 2.036-5.5 4-1.813-1.109-2.646-.442-2.5 2a12.93 12.93 0 0 0-5 .5c-1.497 1.871-3.497 2.871-6 3-1.307 2.324-3.307 3.657-6 4l2 1a12.93 12.93 0 0 1-5 .5v3a9.86 9.86 0 0 0-6 1 35.217 35.217 0 0 1-8 4v3h-6v3h-6v3a8.43 8.43 0 0 0-4 .5l-5 5c-1.284.684-2.451.517-3.5-.5-1.263 2.968-3.263 3.968-6 3a2.428 2.428 0 0 0-.5 2h-12c-.507-1.359-1.507-2.359-3-3a137.913 137.913 0 0 0-11-4v-3c-2.133-1.386-5.133-2.386-9-3v-3h-5v-3c-3.005.247-5.505-.753-7.5-3l-1 1a4.934 4.934 0 0 1-.5-3h-6v-3h-5v-3h-6v-3c-5.922-1.727-11.089-4.727-15.5-9-.718.951-1.551 1.117-2.5.5 1.333-.667 1.333-1.333 0-2a12.93 12.93 0 0 0-5-.5v-3a58.97 58.97 0 0 1-11-3v-3a14486.41 14486.41 0 0 0-19-8.5l1-1a38.715 38.715 0 0 1-5-2.5h68a285.057 285.057 0 0 1 21 10.5c3.492 1.624 6.492 3.958 9 7a91.921 91.921 0 0 0 19 7.5c6.067-.902 11.734-2.736 17-5.5 5.239-4.798 11.239-8.131 18-10 4.933-4.604 10.6-7.938 17-10a209.75 209.75 0 0 1 30-18 772.829 772.829 0 0 1 68 .5Z"/><path style="opacity:1" fill="#c69282" d="M476.5 757.5c1.333.667 1.333.667 0 0Z"/></svg>