<?xml version="1.0" encoding="UTF-8"?><svg xmlns="http://www.w3.org/2000/svg" width="800" height="800" style="shape-rendering:geometricPrecision;text-rendering:geometricPrecision;image-rendering:optimizeQuality;fill-rule:evenodd;clip-rule:evenodd"><path style="opacity:1" fill="#67430e" d="M576.5-.5h9a2.429 2.429 0 0 0 .5 2c1.049-1.017 2.216-1.184 3.5-.5a20.495 20.495 0 0 0 2.5 3.5c1.356-.88 2.856-1.214 4.5-1v3c2.822 1.432 6.489 2.432 11 3v3c2.092.061 3.592 1.061 4.5 3 2.537-.677 4.537.323 6 3 2.361-.566 4.194.434 5.5 3l2-1c.35 2.067 2.017 3.067 5 3v3h6v3h5v3h6v3a27.247 27.247 0 0 0 9 3c-.219 1.175.114 2.175 1 3a6.846 6.846 0 0 1 4-1v3a8.435 8.435 0 0 1 4 .5c-1.154.914-.987 1.747.5 2.5 1.299-.466 2.799-.466 4.5 0v3h6v3h5v3a428.986 428.986 0 0 0 20 8.5l-2 1c2.522.61 4.522 1.943 6 4 1.634.493 3.301.66 5 .5v3c2.908-.238 5.242.762 7 3 .951-.826 1.951-.992 3-.5l-1 1a6.977 6.977 0 0 1 3.5 2.5l1-1c.483.948.649 1.948.5 3h6v3h5v3c1.951-.273 3.451.393 4.5 2l1-1c6 4.386 12.5 7.886 19.5 10.5l-1 1c1.525 1.009 3.192 1.509 5 1.5v3h6v3h5v3c2.041.354 3.874.354 5.5 0 .483.948.649 1.948.5 3 2.836 1.276 5.836 1.942 9 2a7971.884 7971.884 0 0 1 2 251c-3.013-.128-5.513.872-7.5 3-2.411-1.653-3.578-.987-3.5 2-1.701.466-3.201.466-4.5 0-3.844 1.975-7.177 4.642-10 8l-1-1c-1.049 1.607-2.549 2.273-4.5 2v3c-3.937.204-7.604 1.204-11 3 .381 2.442-.286 3.109-2 2-.886.825-1.219 1.825-1 3h-6v3a12.93 12.93 0 0 0-5 .5c-1.079 2.043-2.746 3.376-5 4l1 1a12.93 12.93 0 0 1-5 .5v3a9.86 9.86 0 0 0-6 1c-3.423 1.192-6.256 3.192-8.5 6l-1-1c-1.049 1.607-2.549 2.273-4.5 2v3h-6v3h-5v3c-2.185.388-4.018 1.388-5.5 3-2.278-1.12-3.778-.287-4.5 2.5a101.955 101.955 0 0 0-13 5.5v3h-6v3h-6v3c-1.788-.285-3.455.048-5 1 1.129 2.029.629 2.363-1.5 1-1.206 2.801-3.039 3.801-5.5 3a116.8 116.8 0 0 1 1-21 1188.685 1188.685 0 0 0 36-21.5 112.343 112.343 0 0 1 17-8l5-5a377.475 377.475 0 0 0 23-12l8-6a190.921 190.921 0 0 0 21.5-10.5c.667-76 .667-152 0-228a36.078 36.078 0 0 0-3.5-4.5c-3.29-.253-6.29-1.253-9-3a29746.604 29746.604 0 0 1-46-28 457.332 457.332 0 0 0-22-11l-4-4a161.879 161.879 0 0 1-33-19c-6.4-2.062-12.067-5.396-17-10a1126.1 1126.1 0 0 0-31-16c-2.365-3.714-5.698-5.714-10-6-7.082-6.364-15.416-9.031-25-8a12271.425 12271.425 0 0 1-129 74c-7.588 4.924-7.921 10.257-1 16a287.246 287.246 0 0 1 25 16 211.964 211.964 0 0 1 27 14.5c-11.902 1.32-23.902 1.32-36 0A21028.566 21028.566 0 0 0 237 23.5a138.219 138.219 0 0 1-14.5 1.5c-4.194 3.22-8.86 5.554-14 7a2157.081 2157.081 0 0 1-68 39 55.63 55.63 0 0 1-18 10 12458.29 12458.29 0 0 1-28 18c-5.503 1.171-10.17 3.837-14 8a133.395 133.395 0 0 0-32 18c-2.71 1.747-5.71 2.747-9 3-1.574 1.826-2.407 3.993-2.5 6.5a6443.111 6443.111 0 0 0 1 226l9.5 5.5c1.374 3.683 4.04 5.349 8 5a2581.404 2581.404 0 0 0 93 53.5 116.8 116.8 0 0 1 1 21c-3.383-.921-7.049-1.921-11-3v-3h-6v-3h-3v-3h-6v-3h-5v-3c-2.921.354-5.254-.646-7-3-1.714 1.109-2.381.442-2-2a58.97 58.97 0 0 1-11-3v-3a27.267 27.267 0 0 0-9-3v-3c-2.908.238-5.242-.762-7-3a3.647 3.647 0 0 0-1.5 1c-1.667-1-3-2.333-4-4l-1 1a4.932 4.932 0 0 1-.5-3h-6v-3h-5v-3a544.412 544.412 0 0 1-29-14v-3a58.967 58.967 0 0 1-11-3v-3h-6v-3c-4.013-1.674-8.013-3.341-12-5 .008-83.648.008-167.148 0-250.5a169.104 169.104 0 0 0 15-5.5v-3a58.967 58.967 0 0 0 11-3v-3a417.79 417.79 0 0 0 15-7 32.686 32.686 0 0 0 8.5-6l1 1c1.049-1.607 2.549-2.273 4.5-2v-3a59.029 59.029 0 0 1 11-3 4.932 4.932 0 0 1 .5-3l1 1c2.015-3.065 4.515-4.065 7.5-3v-3h5v-3c1.7.16 3.366-.007 5-.5 1.478-2.057 3.478-3.39 6-4l-2-1a18.436 18.436 0 0 1 6-.5v-3a87.51 87.51 0 0 0 14-5v-3h6v-3h5v-3c1.701-.466 3.201-.466 4.5 0 3.279-4.047 7.946-7.047 14-9a18.264 18.264 0 0 0 5-4l1 1c1.049-1.607 2.549-2.273 4.5-2v-3h5v-3h6v-3c4.612-1.195 9.279-2.862 14-5v-3c1.701-.466 3.201-.466 4.5 0 .908-1.939 2.408-2.939 4.5-3v-3h6v-3c1.788.285 3.455-.048 5-1a38.767 38.767 0 0 0 7-4.5 49.25 49.25 0 0 1 14 0c2.025 1.677 4.359 2.677 7 3-1.134 1.016-.801 1.683 1 2l5 1-1 1c2.622 3.073 5.955 4.573 10 4.5v3h6v3c3.191.262 5.858 1.596 8 4a9.864 9.864 0 0 0 6 1v3c3.58 1.22 7.247 2.386 11 3.5l-2 1c2.767.678 4.934 2.178 6.5 4.5l1-1c3.769 1.797 7.102 4.13 10 7a3.942 3.942 0 0 1 2-1c1.482 1.612 3.315 2.612 5.5 3v3h6v3h5v3h6v3a87.51 87.51 0 0 0 14 5v3c1.699-.16 3.366.007 5 .5l-1 1c1.525 1.009 3.192 1.509 5 1.5v3h6v3h5v3c2.985-1.065 5.485-.065 7.5 3l1-1c.483.948.649 1.948.5 3h5v3h6v3c2.133 1.386 5.133 2.386 9 3v3c2.908-.238 5.242.762 7 3l2-1c.35 2.067 2.017 3.067 5 3v3h6v3c2.516-.255 4.85-1.089 7-2.5a626.207 626.207 0 0 1 29-17c.837-1.011 1.17-2.178 1-3.5 4.493-.216 7.993-2.216 10.5-6 1.011.837 2.178 1.17 3.5 1v-3a59.031 59.031 0 0 0 11-3v-3c1.808.009 3.475-.491 5-1.5l-1-1a12.935 12.935 0 0 1 5-.5v-3a9.864 9.864 0 0 0 6-1 35.213 35.213 0 0 1 8-4v-3h6v-3a59.031 59.031 0 0 1 11-3v-3c1.808.009 3.475-.491 5-1.5-1.388-.89-1.222-1.39.5-1.5 2.071 1.167 3.571.5 4.5-2 6.434-2.343 12.767-5.343 19-9v-3a59.031 59.031 0 0 1 11-3 4.934 4.934 0 0 1 .5-3l1 1c1.995-2.247 4.495-3.247 7.5-3v-3h5v-3h6v-3c1.808.009 3.475-.491 5-1.5l-1-1a12.936 12.936 0 0 1 5-.5v-3c3.552.188 6.219-1.145 8-4Z"/><path style="opacity:1" fill="#241f20" d="M650.5 423.5c-.985-4.134-1.318-8.468-1-13a1324.505 1324.505 0 0 0 83-48.5 84.545 84.545 0 0 1 18-8.5 7901.316 7901.316 0 0 0-1.5-216 2129.254 2129.254 0 0 1-37.5-21.5c-3.415-.406-6.082-2.072-8-5a91.311 91.311 0 0 1-23-13 457.332 457.332 0 0 0-22-11c-2.508-3.042-5.508-5.376-9-7a457.332 457.332 0 0 1-22-11l-24-15c-3.415-.406-6.082-2.072-8-5a90.401 90.401 0 0 0-14-6c-5.722-6.435-12.722-8.768-21-7-7.36 5.663-15.36 9.996-24 13-3.619 3.977-7.952 6.644-13 8-2.537 2.546-5.537 4.212-9 5l-4 4-10 4a2551.356 2551.356 0 0 0-60 36 7185.005 7185.005 0 0 1 26 16 114.065 114.065 0 0 0 14 6c4.2 3.6 8.867 6.433 14 8.5a684.54 684.54 0 0 1 19-8.5 43.593 43.593 0 0 1 13-8c2.365-3.714 5.698-5.714 10-6a705.673 705.673 0 0 1 21-12c4.719-2.307 9.719-2.974 15-2a113.107 113.107 0 0 0 28 15l5 5a182.852 182.852 0 0 1 35 20 193.115 193.115 0 0 1 32 19 83.62 83.62 0 0 1 18.5 9.5l3 5c.667 48.667.667 97.333 0 146-5.181 6.173-11.681 10.34-19.5 12.5a257.347 257.347 0 0 1-24 14.5c-.985-4.134-1.318-8.468-1-13 2.328-1.8 4.995-2.967 8-3.5a679.07 679.07 0 0 1 23-15 12.93 12.93 0 0 1 5-.5c.167-28.335 0-56.669-.5-85l-2-2-1-51a2035.151 2035.151 0 0 0-32.5-18c1.363-6.09-.637-10.59-6-13.5a128.507 128.507 0 0 0-16-.5 5.727 5.727 0 0 1-3-1 1358.844 1358.844 0 0 1-57-33 2320.978 2320.978 0 0 0-60 33c-1.208.734-2.541 1.067-4 1a116.8 116.8 0 0 1-21-1 211.964 211.964 0 0 0-27-14.5 287.246 287.246 0 0 0-25-16c-6.921-5.743-6.588-11.076 1-16a12271.425 12271.425 0 0 0 129-74c9.584-1.031 17.918 1.636 25 8 4.302.286 7.635 2.286 10 6a1126.1 1126.1 0 0 1 31 16c4.933 4.604 10.6 7.938 17 10a161.879 161.879 0 0 0 33 19l4 4a457.332 457.332 0 0 1 22 11 29746.604 29746.604 0 0 0 46 28c2.71 1.747 5.71 2.747 9 3a36.078 36.078 0 0 1 3.5 4.5c.667 76 .667 152 0 228a190.921 190.921 0 0 1-21.5 10.5l-8 6a377.475 377.475 0 0 1-23 12l-5 5a112.343 112.343 0 0 0-17 8 1188.685 1188.685 0 0 1-36 21.5Z"/><path style="opacity:1" fill="#242020" d="M446.5 143.5c-6.479.991-13.146 1.324-20 1-1.459.067-2.792-.266-4-1-4.209-.689-7.542-2.856-10-6.5-5.086-1.414-9.419-4.081-13-8a546.6 546.6 0 0 0-35-18 337.282 337.282 0 0 1-26-17 731.874 731.874 0 0 1-34-19c-5.487-1.208-10.154-3.875-14-8a24672.35 24672.35 0 0 1-21-11 179.568 179.568 0 0 1-15-10A228.066 228.066 0 0 0 230 34.5 112.066 112.066 0 0 0 206.5 48l-10 4-3 3c-6.771 2.445-12.771 6.111-18 11l-10 4-4 4a520.666 520.666 0 0 0-59 34l-9 3c-2.508 3.042-5.508 5.376-9 7a583.92 583.92 0 0 1-36 19 7827.247 7827.247 0 0 0-.5 216.5 8212.66 8212.66 0 0 0 100.5 58c0 .667.333 1 1 1 .317 4.202-.017 8.202-1 12a2581.404 2581.404 0 0 1-93-53.5c-3.96.349-6.626-1.317-8-5l-9.5-5.5a6443.111 6443.111 0 0 1-1-226c.093-2.507.926-4.674 2.5-6.5 3.29-.253 6.29-1.253 9-3a133.395 133.395 0 0 1 32-18c3.83-4.163 8.497-6.829 14-8 9.313-5.97 18.646-11.97 28-18a55.63 55.63 0 0 0 18-10c22.924-12.6 45.591-25.6 68-39 5.14-1.446 9.806-3.78 14-7 4.872-.246 9.705-.746 14.5-1.5a21028.566 21028.566 0 0 1 209.5 120Z"/><path style="opacity:1" fill="#fdfdfd" d="M422.5 143.5a2916.974 2916.974 0 0 1-108 1l-2-1a1102.918 1102.918 0 0 0-34-18.5 51.42 51.42 0 0 0-14-8c-7.09-5.464-14.757-9.797-23-13l-4-4a42.498 42.498 0 0 0-13 0 226.438 226.438 0 0 0-29 17c-3.415.406-6.082 2.072-8 5a90.42 90.42 0 0 1-14 6c-3.574 3.951-7.907 6.618-13 8-6.962 5.648-14.628 9.981-23 13a230.435 230.435 0 0 1-32.5 19.5 2946.23 2946.23 0 0 0-1 153 213.392 213.392 0 0 0 27.5 15.5c5.407 4.346 11.407 7.512 18 9.5v1c.331 21.507-.003 42.84-1 64a8212.66 8212.66 0 0 1-100.5-58 7827.247 7827.247 0 0 1 .5-216.5 583.92 583.92 0 0 0 36-19c3.492-1.624 6.492-3.958 9-7l9-3a520.666 520.666 0 0 1 59-34l4-4 10-4c5.229-4.889 11.229-8.555 18-11l3-3 10-4A112.066 112.066 0 0 1 230 34.5 228.066 228.066 0 0 1 254.5 46a179.568 179.568 0 0 0 15 10 24672.35 24672.35 0 0 0 21 11c3.846 4.125 8.513 6.792 14 8a731.874 731.874 0 0 0 34 19 337.282 337.282 0 0 0 26 17 546.6 546.6 0 0 1 35 18c3.581 3.919 7.914 6.586 13 8 2.458 3.644 5.791 5.811 10 6.5ZM649.5 410.5a1040.99 1040.99 0 0 1 1-64 257.347 257.347 0 0 0 24-14.5c7.819-2.16 14.319-6.327 19.5-12.5.667-48.667.667-97.333 0-146l-3-5a83.62 83.62 0 0 0-18.5-9.5 193.115 193.115 0 0 0-32-19 182.852 182.852 0 0 0-35-20l-5-5a113.107 113.107 0 0 1-28-15c-5.281-.974-10.281-.307-15 2a705.673 705.673 0 0 0-21 12c-4.302.286-7.635 2.286-10 6a43.593 43.593 0 0 0-13 8 684.54 684.54 0 0 0-19 8.5 50.162 50.162 0 0 1-14-8.5 114.065 114.065 0 0 1-14-6 7185.005 7185.005 0 0 0-26-16 2551.356 2551.356 0 0 1 60-36l10-4 4-4c3.463-.788 6.463-2.454 9-5 5.048-1.356 9.381-4.023 13-8 8.64-3.004 16.64-7.337 24-13 8.278-1.768 15.278.565 21 7a90.401 90.401 0 0 1 14 6c1.918 2.928 4.585 4.594 8 5l24 15a457.332 457.332 0 0 0 22 11c3.492 1.624 6.492 3.958 9 7a457.332 457.332 0 0 1 22 11 91.311 91.311 0 0 0 23 13c1.918 2.928 4.585 4.594 8 5a2129.254 2129.254 0 0 0 37.5 21.5 7901.316 7901.316 0 0 1 1.5 216 84.545 84.545 0 0 0-18 8.5 1324.505 1324.505 0 0 1-83 48.5Z"/><path style="opacity:1" fill="#241f20" d="M312.5 143.5c-7.816.992-15.816 1.326-24 1h-1a302.5 302.5 0 0 0-50-29.5l-4.5-4.5c-2.09.652-4.257.819-6.5.5a844.331 844.331 0 0 1-54 32.5c-1.208.734-2.541 1.067-4 1a84.902 84.902 0 0 0-13 .5c-4.407 2.575-6.407 6.408-6 11.5-5.359 4.344-11.359 7.511-18 9.5-5.669 5.02-11.836 9.187-18.5 12.5-.5 45.332-.667 90.665-.5 136 5.301 1.324 9.968 3.824 14 7.5l10 4 4 4a23.077 23.077 0 0 1 9 4.5v12c-6.593-1.988-12.593-5.154-18-9.5a213.392 213.392 0 0 1-27.5-15.5 2946.23 2946.23 0 0 1 1-153 230.435 230.435 0 0 0 32.5-19.5c8.372-3.019 16.038-7.352 23-13 5.093-1.382 9.426-4.049 13-8a90.42 90.42 0 0 0 14-6c1.918-2.928 4.585-4.594 8-5a226.438 226.438 0 0 1 29-17 42.498 42.498 0 0 1 13 0l4 4c8.243 3.203 15.91 7.536 23 13a51.42 51.42 0 0 1 14 8 1102.918 1102.918 0 0 1 34 18.5Z"/><path style="opacity:1" fill="#67430e" d="M287.5 144.5c-38.504.332-76.837-.001-115-1a844.331 844.331 0 0 0 54-32.5c2.243.319 4.41.152 6.5-.5l4.5 4.5a302.5 302.5 0 0 1 50 29.5ZM624.5 143.5c-39 1.333-78 1.333-117 0a2320.978 2320.978 0 0 1 60-33 1358.844 1358.844 0 0 0 57 33Z"/><path style="opacity:1" fill="#3f3629" d="M172.5 143.5c38.163.999 76.496 1.332 115 1h1c-40 1.333-80 1.333-120 0 1.459.067 2.792-.266 4-1ZM507.5 143.5c39 1.333 78 1.333 117 0 .891.61 1.891.943 3 1a1922.98 1922.98 0 0 1-124 0c1.459.067 2.792-.266 4-1Z"/><path style="opacity:.999" fill="#343333" d="m312.5 143.5 2 1a1568.892 1568.892 0 0 0 112 0c6.854.324 13.521-.009 20-1 12.098 1.32 24.098 1.32 36 0a116.8 116.8 0 0 0 21 1 1922.98 1922.98 0 0 0 124 0c5.344-.166 10.677.001 16 .5 5.363 2.91 7.363 7.41 6 13.5v175c-.318 4.532.015 8.866 1 13a1040.99 1040.99 0 0 0-1 64c-.318 4.532.015 8.866 1 13a116.8 116.8 0 0 0-1 21c.167 32.335 0 64.668-.5 97-.833 2.167-2.333 3.667-4.5 4.5-11.328.5-22.662.667-34 .5h-5v-17a112.97 112.97 0 0 0 15-.5 305.702 305.702 0 0 0-15-14.5 269.94 269.94 0 0 0-1-31 41.73 41.73 0 0 0-9-1c.167-22.336 0-44.669-.5-67a3573.278 3573.278 0 0 0-50.5-50 14487.924 14487.924 0 0 0-101.5 101c-.667.667-.667 1.333 0 2a348.625 348.625 0 0 1 15.5 16 238.217 238.217 0 0 1-22 1.5c-33.998.5-67.998.667-102 .5a5084.337 5084.337 0 0 1 101-1.5L423 472.5c-1.25-2.577-1.584-5.243-1-8a1627.327 1627.327 0 0 1 47.5-48.5 1617.165 1617.165 0 0 0-53.5-42.5 146.206 146.206 0 0 1-28.5 10.5c-.928.388-1.595 1.055-2 2 9.62 16.736 19.12 33.57 28.5 50.5 1.202 4.293.035 7.793-3.5 10.5l-152 1-54 30a55.155 55.155 0 0 0-1 14.5h129v17c-45.001-.167-90.001 0-135 .5l-19 19c16.663.5 33.33.667 50 .5v17h-42c-10.672.167-21.339 0-32-.5-2.167-.833-3.667-2.333-4.5-4.5-.5-31.998-.667-63.998-.5-96a116.8 116.8 0 0 0-1-21c.983-3.798 1.317-7.798 1-12a528.757 528.757 0 0 0 0-65v-191c-.407-5.092 1.593-8.925 6-11.5a84.902 84.902 0 0 1 13-.5c40 1.333 80 1.333 120 0 8.184.326 16.184-.008 24-1Z"/><path style="opacity:1" fill="#656565" d="M422.5 143.5c1.208.734 2.541 1.067 4 1a1568.892 1568.892 0 0 1-112 0c36.171.332 72.171-.002 108-1Z"/><path style="opacity:1" fill="#67430e" d="M149.5 156.5v178a23.077 23.077 0 0 0-9-4.5l-4-4-10-4c-4.032-3.676-8.699-6.176-14-7.5-.167-45.335 0-90.668.5-136 6.664-3.313 12.831-7.48 18.5-12.5 6.641-1.989 12.641-5.156 18-9.5ZM649.5 158.5a2035.151 2035.151 0 0 1 32.5 18l1 51 2 2c.5 28.331.667 56.665.5 85a12.93 12.93 0 0 0-5 .5 679.07 679.07 0 0 0-23 15c-3.005.533-5.672 1.7-8 3.5v-175Z"/><path style="opacity:1" fill="#91611c" d="M618.5 163.5c-146-1.333-292-1.333-438 0-.789-.283-1.456-.783-2-1.5 147.333-.667 294.667-.667 442 0-.544.717-1.211 1.217-2 1.5Z"/><path style="opacity:1" fill="#b17114" d="M618.5 163.5a418.271 418.271 0 0 1-17 17.5c-134.667.667-269.333.667-404 0a418.271 418.271 0 0 1-17-17.5c146-1.333 292-1.333 438 0Z"/><path style="opacity:1" fill="#91611c" d="M168.5 175.5a14454.113 14454.113 0 0 0 0 340c-.283.789-.783 1.456-1.5 2a29569.466 29569.466 0 0 1 0-344c.717.544 1.217 1.211 1.5 2ZM630.5 515.5a14454.113 14454.113 0 0 0 0-340c.283-.789.783-1.456 1.5-2 .667 114.667.667 229.333 0 344-.717-.544-1.217-1.211-1.5-2Z"/><path style="opacity:1" fill="#b17114" d="M168.5 175.5a418.271 418.271 0 0 1 17.5 17c.667 102 .667 204 0 306a418.271 418.271 0 0 1-17.5 17 14454.113 14454.113 0 0 1 0-340ZM630.5 175.5a14454.113 14454.113 0 0 1 0 340 418.271 418.271 0 0 1-17.5-17c-.667-102-.667-204 0-306a418.271 418.271 0 0 1 17.5-17Z"/><path style="opacity:1" fill="#99d04a" d="M203.5 198.5a5509.9 5509.9 0 0 1 105 .5c-23.963 16.724-38.796 39.557-44.5 68.5l-60-48c-.5-6.992-.666-13.992-.5-21Z"/><path style="opacity:1" fill="#f85328" d="M354.5 198.5c42.229-1.816 72.396 16.184 90.5 54 12.268 37.763 4.101 70.263-24.5 97.5-11.117 8.391-23.451 14.391-37 18-3.054.821-6.054.655-9-.5a1288.239 1288.239 0 0 0-39-65.5c-3.744-.929-7.244-.429-10.5 1.5a1004.86 1004.86 0 0 0-21 37c-.718.951-1.551 1.117-2.5.5-21.911-26.891-27.077-56.724-15.5-89.5 13.71-29.553 36.544-47.22 68.5-53Z"/><path style="opacity:1" fill="#99d04a" d="M421.5 199.5a2052.082 2052.082 0 0 1 128 0 18009.45 18009.45 0 0 0-35 100.5c-3.424-.361-6.758-1.361-10-3a894.978 894.978 0 0 0-36-17.5c-2.729-29.958-15.395-54.791-38-74.5a31.515 31.515 0 0 0-9-5.5Z"/><path style="opacity:1" fill="#f75328" d="M567.5 198.5h28c.167 47.335 0 94.668-.5 142a5571.733 5571.733 0 0 0-63.5-31l-1-2.5a4152.517 4152.517 0 0 1 37-108.5Z"/><path style="opacity:1" fill="#f5b039" d="M203.5 241.5a3904.594 3904.594 0 0 1 59.5 47c1.095 16.389 5.595 31.722 13.5 46a1526.999 1526.999 0 0 1-72-28c-1-21.656-1.333-43.323-1-65Z"/><path style="opacity:1" fill="#f5b139" d="M466.5 297.5a7893.857 7893.857 0 0 1 128 61 182.078 182.078 0 0 1 .5 33L550.5 347c-4-3.333-8-3.333-12 0l-56 56c-1.408.315-2.741-.018-4-1a1336.603 1336.603 0 0 0-48-39c20.453-17.063 32.453-38.896 36-65.5Z"/><path style="opacity:1" fill="#99d04a" d="M203.5 324.5a1573.269 1573.269 0 0 1 88 36.5c-4.317 7.657-8.65 15.323-13 23-24.998.5-49.998.667-75 .5v-60Z"/><path style="opacity:1" fill="#2ba4f5" d="M390.5 429.5a3539.447 3539.447 0 0 1-119 1 2634.982 2634.982 0 0 1 60-103 3898.285 3898.285 0 0 1 59 102Z"/><path style="opacity:1" fill="#656565" d="M149.5 347.5a528.757 528.757 0 0 1 0 65c-.667 0-1-.333-1-1 .997-21.16 1.331-42.493 1-64Z"/><path style="opacity:1" fill="#2ba4f6" d="M595.5 482.5c-40.668-.167-81.335 0-122 .5a9.454 9.454 0 0 0-2.5 1.5 32.462 32.462 0 0 0-.5 8 8.43 8.43 0 0 1-4-.5c-1.914-3.354-4.581-5.854-8-7.5a348.625 348.625 0 0 0-15.5-16c-.667-.667-.667-1.333 0-2a14487.924 14487.924 0 0 1 101.5-101 3573.278 3573.278 0 0 1 50.5 50c.5 22.331.667 44.664.5 67Z"/><path style="opacity:1" fill="#99cf4a" d="M334.5 486.5c-1.23 1.797-1.896 3.797-2 6h-129a55.155 55.155 0 0 1 1-14.5l54-30 152-1c3.535-2.707 4.702-6.207 3.5-10.5a3682.635 3682.635 0 0 0-28.5-50.5c.405-.945 1.072-1.612 2-2a146.206 146.206 0 0 0 28.5-10.5 1617.165 1617.165 0 0 1 53.5 42.5 1627.327 1627.327 0 0 0-47.5 48.5c-.584 2.757-.25 5.423 1 8l12.5 12.5c-33.836.168-67.502.668-101 1.5Z"/><path style="opacity:1" fill="#f5b139" d="M203.5 401.5c21.669-.167 43.336 0 65 .5a499.787 499.787 0 0 1-19 31.5 3046.001 3046.001 0 0 0-45.5 26c-.5-19.33-.667-38.664-.5-58Z"/><path style="opacity:1" fill="#2f6c95" d="M390.5 429.5c.543.06.876.393 1 1a1803.647 1803.647 0 0 1-120 0c39.837.332 79.504-.001 119-1Z"/><path style="opacity:1" fill="#283338" d="M595.5 482.5a41.73 41.73 0 0 1 9 1 269.94 269.94 0 0 1 1 31v167c.167 10.672 0 21.339-.5 32l-1.5 1.5a536.183 536.183 0 0 1-56 1.5 1156.835 1156.835 0 0 0-68-1c-6.219 1.418-9.553-.916-10-7v-1c.997-21.16 1.331-42.493 1-64a2352.52 2352.52 0 0 0-1-97h-6c.166 8.34 0 16.673-.5 25l-80 80c-.825 3.711-.659 7.378.5 11a116.09 116.09 0 0 0 9 5.5 27.866 27.866 0 0 0 11 1.5 163.67 163.67 0 0 0 25-1c10.153.994 20.486 1.328 31 1 2.333.333 3.667 1.667 4 4a342.787 342.787 0 0 0 1 37c-1.735 4.539-5.069 6.539-10 6h-112a24.935 24.935 0 0 1-7-.5 98.534 98.534 0 0 1-4-6.5 515.326 515.326 0 0 0 0-64c.983-3.798 1.317-7.798 1-12a4.934 4.934 0 0 1 .5-3 2007.443 2007.443 0 0 0 65.5-65 284.889 284.889 0 0 0 14.5-14 8.43 8.43 0 0 0 .5-4v-14c-26.002.167-52.002 0-78-.5-1.281-1.409-2.281-2.909-3-4.5v-36c.104-2.203.77-4.203 2-6 34.002.167 68.002 0 102-.5a238.217 238.217 0 0 0 22-1.5c3.419 1.646 6.086 4.146 8 7.5a8.43 8.43 0 0 0 4 .5 32.462 32.462 0 0 1 .5-8 9.454 9.454 0 0 1 2.5-1.5c40.665-.5 81.332-.667 122-.5Z"/><path style="opacity:1" fill="#729a44" d="M597.5 491.5h-119v216a11770.92 11770.92 0 0 1-1-217c40.17-.332 80.17.001 120 1Z"/><path style="opacity:1" fill="#99d04a" d="M597.5 491.5v216h-119v-216h119Z"/><path style="opacity:1" fill="#f65328" d="M377.5 676.5c25.828.998 51.828 1.331 78 1v30h-114c.321-5.526-.012-10.86-1-16-.167-19.003 0-38.003.5-57l80-80 .5-14c-.031-5.085-.698-9.918-2-14.5-26.331-.5-52.665-.667-79-.5v-32h116c.167 24.669 0 49.336-.5 74l-81 81a156.422 156.422 0 0 0 0 25c.377 1.442 1.21 2.442 2.5 3Z"/><path style="opacity:1" fill="#ae7015" d="M332.5 509.5v19a784.68 784.68 0 0 1-56 1 40.914 40.914 0 0 0-.5-9l-1.5-1.5a484.008 484.008 0 0 0-44 0c-1.763 3.243-2.429 6.743-2 10.5-16.67.167-33.337 0-50-.5l19-19c44.999-.5 89.999-.667 135-.5Z"/><path style="opacity:1" fill="#9e691b" d="M463.5 509.5h7v20h-7v-20Z"/><path style="opacity:1" fill="#a86d17" d="M605.5 514.5a305.702 305.702 0 0 1 15 14.5 112.97 112.97 0 0 1-15 .5v-15Z"/><path style="opacity:.997" fill="#273338" d="M276.5 529.5v31h5c11.005-.167 22.005 0 33 .5 1.266.309 2.433.809 3.5 1.5a484.008 484.008 0 0 1 0 44l-1.5 1.5c-8.994.5-17.994.666-27 .5h-13v8c.167 11.005 0 22.005-.5 33-.816 1.323-1.983 1.989-3.5 2h-40c-2.276-.256-3.443-1.59-3.5-4a760.316 760.316 0 0 1-.5-39h-27a61.281 61.281 0 0 1-15-1c-.617-.111-1.117-.444-1.5-1a484.008 484.008 0 0 1 0-44c.383-.556.883-.889 1.5-1a61.281 61.281 0 0 1 15-1h12c5.14.988 10.474 1.321 16 1 .321-5.195-.013-10.195-1-15v-17c-.429-3.757.237-7.257 2-10.5a484.008 484.008 0 0 1 44 0l1.5 1.5c.498 2.982.665 5.982.5 9Z"/><path style="opacity:1" fill="#273337" d="M516.5 522.5c14.67-.167 29.337 0 44 .5l1.5 1.5c.83 50.237.664 100.404-.5 150.5a552.224 552.224 0 0 1-47 0 11.333 11.333 0 0 1-1.5-3.5 3601.9 3601.9 0 0 1 .5-147c1.239-.442 2.239-1.109 3-2Z"/><path style="opacity:1" fill="#2a7fb8" d="M268.5 526.5h-31a361.608 361.608 0 0 1-1 38v-39c10.846-.328 21.513.006 32 1Z"/><path style="opacity:1" fill="#2ba4f5" d="M268.5 526.5c-.167 13.337 0 26.671.5 40l1.5 1.5c13.329.5 26.663.667 40 .5v32a380.934 380.934 0 0 0-39 1c-.958.453-1.792 1.119-2.5 2a840.27 840.27 0 0 0-.5 41h-32a840.27 840.27 0 0 0-.5-41l-2.5-2.5a799.793 799.793 0 0 0-40-.5v-31a380.934 380.934 0 0 0 39-1c2.333-.333 3.667-1.667 4-4a361.608 361.608 0 0 0 1-38h31Z"/><path style="opacity:1" fill="#323231" d="M332.5 528.5c.719 1.591 1.719 3.091 3 4.5 25.998.5 51.998.667 78 .5v12c-10.514-.328-20.847.006-31 1-7.519-.325-14.852.008-22 1a1581.561 1581.561 0 0 0-79-1v14h-5v-31a784.68 784.68 0 0 0 56-1Z"/><path style="opacity:1" fill="#323232" d="M554.5 545.5c-8.184-.326-16.184.008-24 1h-10v-16h34v15Z"/><path style="opacity:1" fill="#666" d="M382.5 546.5c10.153-.994 20.486-1.328 31-1v2h-2c-9-1.333-18-1.333-27 0l-2-1Z"/><path style="opacity:1" fill="#67430e" d="M186.5 546.5h15v14a61.281 61.281 0 0 0-15 1v-15Z"/><path style="opacity:1" fill="#221f1f" d="M201.5 546.5h12v14h-12v-14Z"/><path style="opacity:1" fill="#fefefe" d="M213.5 546.5h15v14h-15v-14Z"/><path style="opacity:1" fill="#5a6467" d="M228.5 546.5c.987 4.805 1.321 9.805 1 15-5.526.321-10.86-.012-16-1h15v-14Z"/><path style="opacity:1" fill="#67430e" d="M360.5 547.5a182.491 182.491 0 0 0 31 17.5c2.31.497 4.643.663 7 .5a2007.443 2007.443 0 0 1-65.5 65 4.934 4.934 0 0 0-.5 3 613.544 613.544 0 0 1-43-25c9.006.166 18.006 0 27-.5l1.5-1.5a484.008 484.008 0 0 0 0-44 11.333 11.333 0 0 0-3.5-1.5 544.417 544.417 0 0 0-33-.5v-14c26.408-.324 52.741.01 79 1Z"/><path style="opacity:1" fill="#242021" d="M360.5 547.5c7.148-.992 14.481-1.325 22-1l2 1a430.304 430.304 0 0 0 14.5 8 590.202 590.202 0 0 1 12.5-8h2a8.43 8.43 0 0 1-.5 4 284.889 284.889 0 0 1-14.5 14 24.935 24.935 0 0 1-7-.5 182.491 182.491 0 0 1-31-17.5Z"/><path style="opacity:1" fill="#f6f6f6" d="M384.5 547.5c9-1.333 18-1.333 27 0a590.202 590.202 0 0 0-12.5 8 430.304 430.304 0 0 1-14.5-8Z"/><path style="opacity:1" fill="#67430e" d="M469.5 546.5c.333 28.341 0 56.675-1 85a43.989 43.989 0 0 1-12 5.5c-3.574 3.951-7.907 6.618-13 8a146.497 146.497 0 0 1-31 18 35.926 35.926 0 0 0-9 6.5 27.866 27.866 0 0 1-11-1.5 116.09 116.09 0 0 1-9-5.5c-1.159-3.622-1.325-7.289-.5-11l80-80c.5-8.327.666-16.66.5-25h6Z"/><path style="opacity:1" fill="#232021" d="M520.5 546.5h10a72.367 72.367 0 0 1-.5 12l-2 2-1 50a54.7 54.7 0 0 1-5.5 4h-1v-68Z"/><path style="opacity:1" fill="#fdfdfd" d="M530.5 546.5h24v111a169.498 169.498 0 0 1-15 10h-18v-53a54.7 54.7 0 0 0 5.5-4l1-50 2-2c.499-3.986.666-7.986.5-12Z"/><path style="opacity:1" fill="#898f91" d="M530.5 546.5c7.816-.992 15.816-1.326 24-1a1568.892 1568.892 0 0 1 0 112v-111h-24Z"/><path style="opacity:1" fill="#67440d" d="M605.5 546.5h5c.333 42.672 0 85.339-1 128-1.083 2.638-2.416 4.971-4 7v-135Z"/><path style="opacity:1" fill="#2a89c8" d="M232.5 568.5a380.934 380.934 0 0 1-39 1v31c-.994-10.487-1.328-21.154-1-32h40Z"/><path style="opacity:1" fill="#285877" d="M310.5 568.5c.995 10.821 1.328 21.821 1 33h-40a380.934 380.934 0 0 1 39-1v-32Z"/><path style="opacity:1" fill="#67430e" d="M186.5 607.5a61.281 61.281 0 0 0 15 1c-.167 13.337 0 26.671.5 40a18.839 18.839 0 0 1 6.5 5.5 285.561 285.561 0 0 1 26 13c12.673 9.05 26.007 16.716 40 23l19 13a24.569 24.569 0 0 0 8 3 201.636 201.636 0 0 1 27 17l10 4c1.374 3.683 4.041 5.349 8 5a14732.27 14732.27 0 0 1 42 25c6.635 3.121 13.302 3.121 20 0a6791.056 6791.056 0 0 0 71-41.5c22.839-.331 45.506.003 68 1-1.238.31-1.238.81 0 1.5a118.288 118.288 0 0 0-17 7.5 10.756 10.756 0 0 0-2.5 3l-1-1c-1.049 1.607-2.549 2.273-4.5 2v3h-6v3h-5v3c-2.524-.071-4.524.929-6 3-2.12-1.372-3.12-.705-3 2a12.93 12.93 0 0 0-5 .5 101.657 101.657 0 0 0-10 7.5 9.108 9.108 0 0 1-5 1v3c-2.51-.446-4.51.22-6 2-2.216.703-4.049 2.036-5.5 4-1.813-1.109-2.646-.442-2.5 2a12.93 12.93 0 0 0-5 .5c-1.497 1.871-3.497 2.871-6 3-1.307 2.324-3.307 3.657-6 4l2 1a12.93 12.93 0 0 1-5 .5v3a9.86 9.86 0 0 0-6 1 35.217 35.217 0 0 1-8 4v3h-6v3h-6v3a8.43 8.43 0 0 0-4 .5l-5 5c-1.284.684-2.451.517-3.5-.5-1.263 2.968-3.263 3.968-6 3a2.428 2.428 0 0 0-.5 2h-12c-.507-1.359-1.507-2.359-3-3a137.913 137.913 0 0 0-11-4v-3c-2.133-1.386-5.133-2.386-9-3v-3h-5v-3c-3.005.247-5.505-.753-7.5-3l-1 1a4.934 4.934 0 0 1-.5-3h-6v-3h-5v-3h-6v-3c-5.922-1.727-11.089-4.727-15.5-9-.718.951-1.551 1.117-2.5.5 1.333-.667 1.333-1.333 0-2a12.93 12.93 0 0 0-5-.5v-3a58.97 58.97 0 0 1-11-3v-3c-8.654-3.265-16.321-6.932-23-11v-3h-6v-3h-5v-3a8.43 8.43 0 0 1-4-.5c-4.85-3.699-10.184-6.199-16-7.5v-3h-6v-3c-2.092-.061-3.592-1.061-4.5-3-1.299.466-2.799.466-4.5 0v-3c-1.788.285-3.455-.048-5-1-2.158-3.144-5.158-4.477-9-4v-3a12.93 12.93 0 0 1-5-.5c-2.625-3.031-6.125-5.864-10.5-8.5-2.537.677-4.537-.323-6-3l-1 1c-1.667-1-3-2.333-4-4-1.049 1.017-2.216 1.184-3.5.5l1-1a15.645 15.645 0 0 1-4-2.5c-1-24.324-1.333-48.658-1-73Z"/><path style="opacity:1" fill="#242020" d="M201.5 608.5h12c-.167 11.338 0 22.672.5 34a46.99 46.99 0 0 0 10.5 5.5c1.866 3.054 4.533 4.554 8 4.5 0 .667.333 1 1 1a112.041 112.041 0 0 0 14 7.5l4 4a90.42 90.42 0 0 0 14 6l4 4 10 4c4.933 4.604 10.6 7.938 17 10 3.574 3.951 7.907 6.618 13 8 6.587 5.627 13.92 9.794 22 12.5a98.534 98.534 0 0 0 4 6.5c2.31.497 4.643.663 7 .5 6.371 4.855 13.371 8.688 21 11.5 3.671 4.417 8.338 7.083 14 8 2.457 3.058 5.457 5.392 9 7a97.288 97.288 0 0 1 12 5.5 1260.304 1260.304 0 0 1 56-32c4.931.539 8.265-1.461 10-6 .667 0 1-.333 1-1 1.459.067 2.792-.266 4-1 .447 6.084 3.781 8.418 10 7a6791.056 6791.056 0 0 1-71 41.5c-6.698 3.121-13.365 3.121-20 0a14732.27 14732.27 0 0 0-42-25c-3.959.349-6.626-1.317-8-5l-10-4a201.636 201.636 0 0 0-27-17 24.569 24.569 0 0 1-8-3l-19-13c-13.993-6.284-27.327-13.95-40-23a285.561 285.561 0 0 0-26-13 18.839 18.839 0 0 0-6.5-5.5 799.793 799.793 0 0 1-.5-40Z"/><path style="opacity:1" fill="#fbfbfb" d="M213.5 608.5h15c-.167 13.004 0 26.004.5 39 .057 2.41 1.224 3.744 3.5 4v1c-3.467.054-6.134-1.446-8-4.5a46.99 46.99 0 0 1-10.5-5.5 577.896 577.896 0 0 1-.5-34Z"/><path style="opacity:1" fill="#242021" d="M289.5 608.5a613.544 613.544 0 0 0 43 25c.317 4.202-.017 8.202-1 12a189.117 189.117 0 0 1-16-7.5 640.035 640.035 0 0 1-24-15c-5.369-1.419-10.369-3.585-15-6.5v-8h13Z"/><path style="opacity:1" fill="#bcbfc1" d="M520.5 614.5h1v53h18c-6.145.99-12.478 1.323-19 1v-54Z"/><path style="opacity:1" fill="#fdfdfd" d="M276.5 616.5c4.631 2.915 9.631 5.081 15 6.5a640.035 640.035 0 0 0 24 15 189.117 189.117 0 0 0 16 7.5 515.326 515.326 0 0 1 0 64c-8.08-2.706-15.413-6.873-22-12.5-5.093-1.382-9.426-4.049-13-8-6.4-2.062-12.067-5.396-17-10l-10-4-4-4a90.42 90.42 0 0 1-14-6l-4-4a112.041 112.041 0 0 1-14-7.5l39-2c1.517-.011 2.684-.677 3.5-2 .5-10.995.667-21.995.5-33Z"/><path style="opacity:1" fill="#272221" d="M469.5 546.5a2352.52 2352.52 0 0 1 1 97c-1 .333-1.667 1-2 2a81.356 81.356 0 0 1-17 8.5c-3.908 3.449-8.242 6.116-13 8a49.056 49.056 0 0 0-8 5.5l-2 1a163.67 163.67 0 0 1-25 1 35.926 35.926 0 0 1 9-6.5 146.497 146.497 0 0 0 31-18c5.093-1.382 9.426-4.049 13-8a43.989 43.989 0 0 0 12-5.5c1-28.325 1.333-56.659 1-85Z"/><path style="opacity:1" fill="#909699" d="M470.5 643.5c.331 21.507-.003 42.84-1 64a961.42 961.42 0 0 0-1-62c.333-1 1-1.667 2-2Z"/><path style="opacity:1" fill="#fcfcfc" d="M468.5 645.5a961.42 961.42 0 0 1 1 62v1c-1.208.734-2.541 1.067-4 1l-2-36c-.333-2.333-1.667-3.667-4-4l-29-2a49.056 49.056 0 0 1 8-5.5c4.758-1.884 9.092-4.551 13-8a81.356 81.356 0 0 0 17-8.5Z"/><path style="opacity:1" fill="#92989a" d="M232.5 651.5h40l-39 2c-.667 0-1-.333-1-1v-1Z"/><path style="opacity:1" fill="#c5c8c9" d="m430.5 667.5 29 2c-10.514.328-20.847-.006-31-1l2-1Z"/><path style="opacity:1" fill="#c7cacb" d="m463.5 673.5 2 36c0 .667-.333 1-1 1a342.787 342.787 0 0 1-1-37Z"/><path style="opacity:1" fill="#5b3b33" d="M377.5 676.5h79c.328 10.846-.006 21.513-1 32v-31c-26.172.331-52.172-.002-78-1Z"/><path style="opacity:1" fill="#c54c2b" d="M340.5 691.5c.988 5.14 1.321 10.474 1 16h114v1h-115v-17Z"/><path style="opacity:1" fill="#fcfcfc" d="M342.5 716.5h112a1260.304 1260.304 0 0 0-56 32 97.288 97.288 0 0 0-12-5.5c-3.543-1.608-6.543-3.942-9-7-5.662-.917-10.329-3.583-14-8-7.629-2.812-14.629-6.645-21-11.5Z"/><path style="opacity:1" fill="#67440d" d="M476.5 757.5c1.333.667 1.333.667 0 0Z"/></svg>