<?xml version="1.0" encoding="UTF-8"?><svg xmlns="http://www.w3.org/2000/svg" width="800" height="800" style="shape-rendering:geometricPrecision;text-rendering:geometricPrecision;image-rendering:optimizeQuality;fill-rule:evenodd;clip-rule:evenodd"><path style="opacity:1" fill="#39b675" d="M576.5-.5h9a2.429 2.429 0 0 0 .5 2c1.049-1.017 2.216-1.184 3.5-.5a20.495 20.495 0 0 0 2.5 3.5c1.356-.88 2.856-1.214 4.5-1v3c2.822 1.432 6.489 2.432 11 3v3c2.092.061 3.592 1.061 4.5 3 2.537-.677 4.537.323 6 3 2.361-.566 4.194.434 5.5 3l2-1c.35 2.067 2.017 3.067 5 3v3h6v3h5v3h6v3a27.247 27.247 0 0 0 9 3c-.219 1.175.114 2.175 1 3a6.846 6.846 0 0 1 4-1v3a8.435 8.435 0 0 1 4 .5c-1.154.914-.987 1.747.5 2.5 1.299-.466 2.799-.466 4.5 0v3h6v3h5v3a428.986 428.986 0 0 0 20 8.5l-2 1c2.522.61 4.522 1.943 6 4 1.634.493 3.301.66 5 .5v3c2.908-.238 5.242.762 7 3 .951-.826 1.951-.992 3-.5l-1 1a6.977 6.977 0 0 1 3.5 2.5l1-1c.483.948.649 1.948.5 3h6v3h5v3c1.951-.273 3.451.393 4.5 2l1-1c6 4.386 12.5 7.886 19.5 10.5l-1 1c1.525 1.009 3.192 1.509 5 1.5v3h6v3h5v3c2.041.354 3.874.354 5.5 0 .483.948.649 1.948.5 3 3.408.787 6.408 2.121 9 4a702.728 702.728 0 0 0-53 1 2373.458 2373.458 0 0 1-53-30.5c-3.415-.406-6.082-2.072-8-5a161.879 161.879 0 0 1-33-19c-6.4-2.062-12.067-5.396-17-10l-19-9a30.312 30.312 0 0 0-12-7c-2.365-3.714-5.698-5.714-10-6-7.082-6.364-15.416-9.031-25-8a12271.425 12271.425 0 0 1-129 74l-5.5 5.5c-.667 1.667-.667 3.333 0 5 2.43 3.934 5.597 6.934 9.5 9h-16c.322-5.858-.011-11.525-1-17-.111-.617-.444-1.117-1-1.5a24.939 24.939 0 0 0-7-.5 582.274 582.274 0 0 1 23-13.5c.837-1.011 1.17-2.178 1-3.5 4.493-.216 7.993-2.216 10.5-6 1.011.837 2.178 1.17 3.5 1v-3a59.031 59.031 0 0 0 11-3v-3c1.808.009 3.475-.491 5-1.5l-1-1a12.935 12.935 0 0 1 5-.5v-3a9.864 9.864 0 0 0 6-1 35.213 35.213 0 0 1 8-4v-3h6v-3a59.031 59.031 0 0 1 11-3v-3c1.808.009 3.475-.491 5-1.5-1.388-.89-1.222-1.39.5-1.5 2.071 1.167 3.571.5 4.5-2 6.434-2.343 12.767-5.343 19-9v-3a59.031 59.031 0 0 1 11-3 4.934 4.934 0 0 1 .5-3l1 1c1.995-2.247 4.495-3.247 7.5-3v-3h5v-3h6v-3c1.808.009 3.475-.491 5-1.5l-1-1a12.936 12.936 0 0 1 5-.5v-3c3.552.188 6.219-1.145 8-4Z"/><path style="opacity:1" fill="#39b775" d="M388.5 97.5c-5.011-.166-10.011 0-15 .5-.556.383-.889.883-1 1.5a8.435 8.435 0 0 1-4-.5A5921.093 5921.093 0 0 0 237 23.5a138.219 138.219 0 0 1-14.5 1.5c-4.194 3.22-8.86 5.554-14 7a2157.081 2157.081 0 0 1-68 39 55.63 55.63 0 0 1-18 10 12458.29 12458.29 0 0 1-28 18c-5.503 1.171-10.17 3.837-14 8a358.76 358.76 0 0 0-19 9.5h-54c-.11-.617-.444-1.117-1-1.5a169.104 169.104 0 0 0 15-5.5v-3a58.967 58.967 0 0 0 11-3v-3a417.79 417.79 0 0 0 15-7 32.686 32.686 0 0 0 8.5-6l1 1c1.049-1.607 2.549-2.273 4.5-2v-3a59.029 59.029 0 0 1 11-3 4.932 4.932 0 0 1 .5-3l1 1c2.015-3.065 4.515-4.065 7.5-3v-3h5v-3c1.7.16 3.366-.007 5-.5 1.478-2.057 3.478-3.39 6-4l-2-1a18.436 18.436 0 0 1 6-.5v-3a87.51 87.51 0 0 0 14-5v-3h6v-3h5v-3c1.701-.466 3.201-.466 4.5 0 3.279-4.047 7.946-7.047 14-9a18.264 18.264 0 0 0 5-4l1 1c1.049-1.607 2.549-2.273 4.5-2v-3h5v-3h6v-3c4.612-1.195 9.279-2.862 14-5v-3c1.701-.466 3.201-.466 4.5 0 .908-1.939 2.408-2.939 4.5-3v-3h6v-3c1.788.285 3.455-.048 5-1a38.767 38.767 0 0 0 7-4.5 49.25 49.25 0 0 1 14 0c2.025 1.677 4.359 2.677 7 3-1.134 1.016-.801 1.683 1 2l5 1-1 1c2.622 3.073 5.955 4.573 10 4.5v3h6v3c3.191.262 5.858 1.596 8 4a9.864 9.864 0 0 0 6 1v3c3.58 1.22 7.247 2.386 11 3.5l-2 1c2.767.678 4.934 2.178 6.5 4.5l1-1c3.769 1.797 7.102 4.13 10 7a3.942 3.942 0 0 1 2-1c1.482 1.612 3.315 2.612 5.5 3v3h6v3h5v3h6v3a87.51 87.51 0 0 0 14 5v3c1.699-.16 3.366.007 5 .5l-1 1c1.525 1.009 3.192 1.509 5 1.5v3h6v3h5v3c2.985-1.065 5.485-.065 7.5 3l1-1c.483.948.649 1.948.5 3h5v3h6v3c2.133 1.386 5.133 2.386 9 3v3c2.908-.238 5.242.762 7 3l2-1c-.412 1.282.254 2.282 2 3Z"/><path style="opacity:1" fill="#273339" d="M737.5 117.5a68.883 68.883 0 0 0 20 10.5c2.04 2.185 3.374 4.685 4 7.5.167 75.001 0 150.001-.5 225a190.921 190.921 0 0 1-21.5 10.5c-4.09 3.367-8.424 6.2-13 8.5a3493.884 3493.884 0 0 0-69 40 61.354 61.354 0 0 1-16 8.5l-6 5a169.15 169.15 0 0 0-21 10.5v-13c.667 0 1-.333 1-1a208.673 208.673 0 0 1 26-13.5 3660.5 3660.5 0 0 1 91-54 84.545 84.545 0 0 1 18-8.5 7901.316 7901.316 0 0 0-1.5-216 2129.254 2129.254 0 0 1-37.5-21.5c-3.415-.406-6.082-2.072-8-5a91.311 91.311 0 0 1-23-13 457.332 457.332 0 0 0-22-11c-2.508-3.042-5.508-5.376-9-7a457.332 457.332 0 0 1-22-11l-24-15c-3.415-.406-6.082-2.072-8-5a90.401 90.401 0 0 0-14-6c-5.722-6.435-12.722-8.768-21-7-7.36 5.663-15.36 9.996-24 13-3.619 3.977-7.952 6.644-13 8-2.537 2.546-5.537 4.212-9 5l-4 4-10 4a2551.356 2551.356 0 0 0-60 36 7185.005 7185.005 0 0 1 26 16 114.065 114.065 0 0 0 14 6c4.2 3.6 8.867 6.433 14 8.5a684.54 684.54 0 0 1 19-8.5 43.593 43.593 0 0 1 13-8c2.365-3.714 5.698-5.714 10-6a705.673 705.673 0 0 1 21-12c4.719-2.307 9.719-2.974 15-2a113.107 113.107 0 0 0 28 15l5 5a182.852 182.852 0 0 1 35 20 193.115 193.115 0 0 1 32 19 83.62 83.62 0 0 1 18.5 9.5l3 5c.667 48.667.667 97.333 0 146-5.181 6.173-11.681 10.34-19.5 12.5a12318.477 12318.477 0 0 1-28 18c-6.381 2.027-12.048 5.361-17 10-5.407 1.3-10.407 3.466-15 6.5a8265.805 8265.805 0 0 1-1-175c.983 3.798 1.317 7.798 1 12v105a507.128 507.128 0 0 0 1 45 31.84 31.84 0 0 0 5-4.5 349.402 349.402 0 0 0 37-19 679.07 679.07 0 0 1 23-15 12.93 12.93 0 0 1 5-.5c.331-28.505-.002-56.838-1-85-.283-.789-.783-1.456-1.5-2-.5-7.993-.666-15.993-.5-24a193.186 193.186 0 0 0-1-27.5 4261.045 4261.045 0 0 1-114-65.5 3162.857 3162.857 0 0 0-66 36.5 42.479 42.479 0 0 1-13 0 6352.564 6352.564 0 0 1-53-30.5c-3.903-2.066-7.07-5.066-9.5-9-.667-1.667-.667-3.333 0-5l5.5-5.5a12271.425 12271.425 0 0 0 129-74c9.584-1.031 17.918 1.636 25 8 4.302.286 7.635 2.286 10 6a30.312 30.312 0 0 1 12 7l19 9c4.933 4.604 10.6 7.938 17 10a161.879 161.879 0 0 0 33 19c1.918 2.928 4.585 4.594 8 5a2373.458 2373.458 0 0 0 53 30.5ZM372.5 99.5v15a2173.073 2173.073 0 0 1-50-29.5 944.57 944.57 0 0 1-68-39A228.066 228.066 0 0 0 230 34.5 112.066 112.066 0 0 0 206.5 48l-10 4-3 3c-6.771 2.445-12.771 6.111-18 11l-10 4-4 4a520.666 520.666 0 0 0-59 34l-9 3c-3.796 3.592-8.13 6.259-13 8A361.546 361.546 0 0 1 48 137.5c-.667 72-.667 144 0 216a7214.146 7214.146 0 0 0 125 72c.5-21.664.667-43.331.5-65a340.197 340.197 0 0 0-18-8.5 55.63 55.63 0 0 0-18-10 78.488 78.488 0 0 0-23-13 56.965 56.965 0 0 0-10.5-7.5 5697.651 5697.651 0 0 1 0-151 6.978 6.978 0 0 1 2.5-3.5 146.497 146.497 0 0 0 31-18c8.372-3.019 16.038-7.352 23-13 5.093-1.382 9.426-4.049 13-8a90.42 90.42 0 0 0 14-6c1.918-2.928 4.585-4.594 8-5a226.438 226.438 0 0 1 29-17 42.498 42.498 0 0 1 13 0l4 4a154.79 154.79 0 0 0 13 6 1081.768 1081.768 0 0 0 33 20l4 1c8.98 5.636 17.98 11.302 27 17 7.27 1.913 13.604 5.58 19 11 4.75 1.03 8.75 3.363 12 7l10 4c1.614 2.127 3.614 3.627 6 4.5-7.482.992-15.148 1.325-23 1a689.893 689.893 0 0 0-42-25.5c-6.543-2.456-12.543-5.79-18-10l-35-21c-5.603-1.533-10.436-4.366-14.5-8.5-1.604 1.149-3.27 1.149-5 0a1068.258 1068.258 0 0 1-78.5 45.5c-5.201 4.797-11.201 8.13-18 10-3.908 3.449-8.242 6.116-13 8-3.823 1.641-5.823 4.474-6 8.5v131a68.233 68.233 0 0 0 10 4.5l4 4 10 4c1.918 2.928 4.585 4.594 8 5 2.674 3.012 6.007 4.678 10 5 6.302 5.472 13.302 9.639 21 12.5 0 .667.333 1 1 1v89a12.93 12.93 0 0 1-5-.5c-4.863-3.51-10.196-6.177-16-8a213.054 213.054 0 0 0-16-10.5 3727.55 3727.55 0 0 1-71-40c-5.305-4.387-11.305-7.554-18-9.5a13.908 13.908 0 0 1-3-4l-9.5-5.5a485.765 485.765 0 0 1-1.5-52v-105a959.549 959.549 0 0 1 1.5-74 165.454 165.454 0 0 0 23.5-13 358.76 358.76 0 0 1 19-9.5c3.83-4.163 8.497-6.829 14-8 9.313-5.97 18.646-11.97 28-18a55.63 55.63 0 0 0 18-10c22.924-12.6 45.591-25.6 68-39 5.14-1.446 9.806-3.78 14-7 4.872-.246 9.705-.746 14.5-1.5A5921.093 5921.093 0 0 1 368.5 99a8.435 8.435 0 0 0 4 .5Z"/><path style="opacity:1" fill="#fdfdfd" d="M372.5 114.5v61c-2.45.202-4.783-.131-7-1-2.386-.873-4.386-2.373-6-4.5l-10-4c-3.25-3.637-7.25-5.97-12-7-5.396-5.42-11.73-9.087-19-11a10892.14 10892.14 0 0 0-27-17l-4-1a1081.768 1081.768 0 0 1-33-20 154.79 154.79 0 0 1-13-6l-4-4a42.498 42.498 0 0 0-13 0 226.438 226.438 0 0 0-29 17c-3.415.406-6.082 2.072-8 5a90.42 90.42 0 0 1-14 6c-3.574 3.951-7.907 6.618-13 8-6.962 5.648-14.628 9.981-23 13a146.497 146.497 0 0 1-31 18 6.978 6.978 0 0 0-2.5 3.5 5697.651 5697.651 0 0 0 0 151 56.965 56.965 0 0 1 10.5 7.5 78.488 78.488 0 0 1 23 13 55.63 55.63 0 0 1 18 10 340.197 340.197 0 0 1 18 8.5c.167 21.669 0 43.336-.5 65a7214.146 7214.146 0 0 1-125-72c-.667-72-.667-144 0-216A361.546 361.546 0 0 0 80.5 119c4.87-1.741 9.204-4.408 13-8l9-3a520.666 520.666 0 0 1 59-34l4-4 10-4c5.229-4.889 11.229-8.555 18-11l3-3 10-4A112.066 112.066 0 0 1 230 34.5 228.066 228.066 0 0 1 254.5 46a944.57 944.57 0 0 0 68 39 2173.073 2173.073 0 0 0 50 29.5Z"/><path style="opacity:1" fill="#fdfefe" d="M615.5 429.5a961.42 961.42 0 0 1-1-62v-1c4.593-3.034 9.593-5.2 15-6.5 4.952-4.639 10.619-7.973 17-10 9.313-5.969 18.646-11.969 28-18 7.819-2.16 14.319-6.327 19.5-12.5.667-48.667.667-97.333 0-146l-3-5a83.62 83.62 0 0 0-18.5-9.5 193.115 193.115 0 0 0-32-19 182.852 182.852 0 0 0-35-20l-5-5a113.107 113.107 0 0 1-28-15c-5.281-.974-10.281-.307-15 2a705.673 705.673 0 0 0-21 12c-4.302.286-7.635 2.286-10 6a43.593 43.593 0 0 0-13 8 684.54 684.54 0 0 0-19 8.5 50.162 50.162 0 0 1-14-8.5 114.065 114.065 0 0 1-14-6 7185.005 7185.005 0 0 0-26-16 2551.356 2551.356 0 0 1 60-36l10-4 4-4c3.463-.788 6.463-2.454 9-5 5.048-1.356 9.381-4.023 13-8 8.64-3.004 16.64-7.337 24-13 8.278-1.768 15.278.565 21 7a90.401 90.401 0 0 1 14 6c1.918 2.928 4.585 4.594 8 5l24 15a457.332 457.332 0 0 0 22 11c3.492 1.624 6.492 3.958 9 7a457.332 457.332 0 0 1 22 11 91.311 91.311 0 0 0 23 13c1.918 2.928 4.585 4.594 8 5a2129.254 2129.254 0 0 0 37.5 21.5 7901.316 7901.316 0 0 1 1.5 216 84.545 84.545 0 0 0-18 8.5 3660.5 3660.5 0 0 0-91 54 208.673 208.673 0 0 0-26 13.5Z"/><path style="opacity:.997" fill="#3a3948" d="M388.5 97.5h22c2.357-.163 4.69.003 7 .5.556.383.889.883 1 1.5v76a841.82 841.82 0 0 0 58-1 163.67 163.67 0 0 0 25 1c32.668-.167 65.335 0 98 .5 8.049 2.212 12.716 7.378 14 15.5a8265.805 8265.805 0 0 0 1 175v1c-1.333 21-1.333 42 0 63v41a72.367 72.367 0 0 1 12 .5 6.802 6.802 0 0 1 3 1.5 76.616 76.616 0 0 1 .5 21l-1.5 1.5c-6.992.5-13.992.666-21 .5-.342-.838-1.008-1.172-2-1v-8h16v-7c-5.858-.322-11.525.011-17 1-.789-.283-1.456-.783-2-1.5a2890.488 2890.488 0 0 0-131 .5h-302c-.973 2.448-1.306 5.115-1 8h164v22c-1.917 1.78-2.584 3.78-2 6-.996-.086-1.829.248-2.5 1l-4.5 9a1052.99 1052.99 0 0 1-17 31h-9a161.904 161.904 0 0 1 8-15l-1.5-1c-6.481 2.988-10.648 7.988-12.5 15 1.545.952 3.212 1.285 5 1a50.512 50.512 0 0 1-20 0c2.544.396 4.711-.271 6.5-2 2.62-6.414 6.12-12.247 10.5-17.5 4.02-3.51 8.686-5.01 14-4.5 1.322.17 2.489-.163 3.5-1a925.642 925.642 0 0 1 19.5-36c-4.751-.689-10.251-1.023-16.5-1l-17.5 1c.124.607.457.94 1 1l1 2a578.532 578.532 0 0 1-22 40c-.166-5.344.001-10.677.5-16l4.5-9a175.023 175.023 0 0 1 11-18.5 60.931 60.931 0 0 0-11-.5h-80c-5.195-.321-10.195.013-15 1-8.007.166-16.007 0-24-.5l-1.5-1.5c-.797-7.05-.63-14.05.5-21a6.802 6.802 0 0 1 3-1.5 72.367 72.367 0 0 1 12-.5v-122a6242.489 6242.489 0 0 0 1-158c1.186-7.695 5.519-12.862 13-15.5a6921.49 6921.49 0 0 0 112-1.5 467.321 467.321 0 0 0 40 1c7.852.325 15.518-.008 23-1 2.217.869 4.55 1.202 7 1v-76c.111-.617.444-1.117 1-1.5 4.989-.5 9.989-.666 15-.5Z"/><path style="opacity:1" fill="#ffe6ce" d="M380.5 105.5h4v66h-4v-66Z"/><path style="opacity:1" fill="#fdd0a5" d="M384.5 105.5h23v66h-8c.167-11.005 0-22.005-.5-33-2.333-2.667-4.667-2.667-7 0a544.417 544.417 0 0 0-.5 33h-7v-66Z"/><path style="opacity:1" fill="#be9d7f" d="M407.5 105.5h4v70a98.432 98.432 0 0 1-14-.5c1.323-.816 1.989-1.983 2-3.5h8v-66Z"/><path style="opacity:1" fill="#39b379" d="M342.5 175.5a467.321 467.321 0 0 1-40-1 6921.49 6921.49 0 0 1-112 1.5c-7.481 2.638-11.814 7.805-13 15.5-.983 3.798-1.317 7.798-1 12h-63c.325-7.187-.009-14.187-1-21 .177-4.026 2.177-6.859 6-8.5 4.758-1.884 9.092-4.551 13-8 6.799-1.87 12.799-5.203 18-10a1068.258 1068.258 0 0 0 78.5-45.5c1.73 1.149 3.396 1.149 5 0 4.064 4.134 8.897 6.967 14.5 8.5l35 21c5.457 4.21 11.457 7.544 18 10a689.893 689.893 0 0 1 42 25.5ZM418.5 99.5c.989 5.475 1.322 11.142 1 17h16a6352.564 6352.564 0 0 0 53 30.5c4.333.667 8.667.667 13 0a3162.857 3162.857 0 0 1 66-36.5 4261.045 4261.045 0 0 0 114 65.5 193.186 193.186 0 0 1 1 27.5h-68c.317-4.202-.017-8.202-1-12-1.284-8.122-5.951-13.288-14-15.5-32.665-.5-65.332-.667-98-.5a24793.925 24793.925 0 0 0-83-48v-28Z"/><path style="opacity:1" fill="#3ab379" d="M7.5 116.5h54a165.454 165.454 0 0 1-23.5 13 959.549 959.549 0 0 0-1.5 74h-30c-.325-29.074.009-58.074 1-87Z"/><path style="opacity:1" fill="#39b379" d="M737.5 117.5a702.728 702.728 0 0 1 53-1c1.979 28.775 2.646 57.775 2 87h-30c.331-22.839-.003-45.506-1-68-.626-2.815-1.96-5.315-4-7.5a68.883 68.883 0 0 1-20-10.5Z"/><path style="opacity:1" fill="#273339" d="M418.5 127.5a24793.925 24793.925 0 0 1 83 48 163.67 163.67 0 0 1-25-1 431.248 431.248 0 0 0-42-23.5c-4.564-4.424-9.898-7.258-16-8.5v-15Z"/><path style="opacity:1" fill="#f9f9f9" d="M418.5 142.5c6.102 1.242 11.436 4.076 16 8.5a431.248 431.248 0 0 1 42 23.5 841.82 841.82 0 0 1-58 1v-33Z"/><path style="opacity:1" fill="#b99e87" d="M380.5 105.5v66h11c.011 1.517.677 2.684 2 3.5a98.432 98.432 0 0 1-14 .5c-.331-23.506.002-46.839 1-70Z"/><path style="opacity:1" fill="#c9ced6" d="M599.5 184.5a23.423 23.423 0 0 0 2.5 6c.5 92.666.667 185.333.5 278h-3a17823.86 17823.86 0 0 0-1-267c-.57-4.412-2.903-7.578-7-9.5a38397.052 38397.052 0 0 0-392 0c-4.097 1.922-6.43 5.088-7 9.5a17823.86 17823.86 0 0 0-1 267h-3c-.167-92.334 0-184.667.5-277 .36-1.921 1.194-3.588 2.5-5-.124-.607-.457-.94-1-1 .418-.722 1.084-1.222 2-1.5 135.736-.831 271.403-.665 407 .5Z"/><path style="opacity:1" fill="#fefefe" d="M190.5 185.5c.543.06.876.393 1 1-1.306 1.412-2.14 3.079-2.5 5-.5 92.333-.667 184.666-.5 277h-3v-277c.919-2.589 2.586-4.589 5-6Z"/><path style="opacity:1" fill="#9fa2aa" d="M599.5 184.5c2.668 1.836 4.834 4.169 6.5 7l1 279 1.5 1.5c-3.711.825-7.378.659-11-.5.997-89.959 1.331-179.959 1-270a17823.86 17823.86 0 0 1 1 267h3c.167-92.667 0-185.334-.5-278a23.423 23.423 0 0 1-2.5-6Z"/><path style="opacity:1" fill="#395455" d="M177.5 191.5a6242.489 6242.489 0 0 1-1 158c-.667 0-1-.333-1-1a400.456 400.456 0 0 0 1-40v-105c-.317-4.202.017-8.202 1-12Z"/><path style="opacity:1" fill="#9fe5d3" d="M204.5 199.5v269h-4c-.167-89.334 0-178.667.5-268 1.011-.837 2.178-1.17 3.5-1Z"/><path style="opacity:1" fill="#47ceac" d="M204.5 199.5h382v269h-19c.167-11.005 0-22.005-.5-33l-1.5-1.5a1680.41 1680.41 0 0 0-82 0c-.881.708-1.547 1.542-2 2.5-.994 10.487-1.328 21.154-1 32h-276v-269Z"/><path style="opacity:1" fill="#3aa78b" d="M586.5 199.5c1.322-.17 2.489.163 3.5 1l1 270 1.5 1.5c-9 .667-18 .667-27 0 1.323-.816 1.989-1.983 2-3.5h19v-269Z"/><path style="opacity:1" fill="#b2b4bc" d="M185.5 191.5v277h6a17823.86 17823.86 0 0 1 1-267c-.331 90.041.003 180.041 1 270-3.622 1.159-7.289 1.325-11 .5l1.5-1.5c.167-93.168.667-186.168 1.5-279Z"/><path style="opacity:1" fill="#3aaf7d" d="M6.5 203.5h30v32h-30v-32Z"/><path style="opacity:1" fill="#39af7d" d="M112.5 182.5c.991 6.813 1.325 13.813 1 21h63v32h-64v-53Z"/><path style="opacity:1" fill="#3aaf7d" d="M614.5 203.5h68c-.166 8.007 0 16.007.5 24 .717.544 1.217 1.211 1.5 2v6h-70v-32ZM762.5 203.5h30v32h-30v-32Z"/><path style="opacity:1" fill="#3aab81" d="M6.5 235.5h30v73h-30v-73Z"/><path style="opacity:1" fill="#3aac80" d="M113.5 235.5h63v49h-63v-49ZM614.5 235.5h70v49h-70v-49Z"/><path style="opacity:1" fill="#3aab81" d="M762.5 235.5h30v73h-30v-73Z"/><path style="opacity:1" fill="#3a3c49" d="M280.5 254.5c10.841-.497 20.341 2.837 28.5 10 1.314 3.681.147 6.014-3.5 7a61.352 61.352 0 0 0-16-8.5c-5.969-1.71-9.803.457-11.5 6.5-.86 14.899 1.64 29.232 7.5 43-1.507 4.335-4.007 5.002-7.5 2-4.807-11.728-7.641-23.894-8.5-36.5-.975-10.208 2.691-18.041 11-23.5Z"/><path style="opacity:1" fill="#3a3b49" d="M309.5 294.5c-17.481 21.976-28.148 46.976-32 75-1.545 12.97 3.789 17.803 16 14.5a105.761 105.761 0 0 1 12-6.5c3.726.298 4.893 2.298 3.5 6-8.148 7.329-17.648 10.495-28.5 9.5-5.338-2.007-8.504-5.841-9.5-11.5-2.171-10.42-1.838-20.753 1-31 10.427-34.399 28.927-63.566 55.5-87.5 5.855-4.762 12.522-7.595 20-8.5 12.848 1.529 18.848 8.863 18 22a75.132 75.132 0 0 1-1.5 13c-1.826 3.537-4.16 3.871-7 1-.121-4.316.045-8.65.5-13 1.428-11.07-3.239-15.903-14-14.5-13.759 7.928-25.093 18.428-34 31.5Z"/><path style="opacity:1" fill="#3a3c49" d="M420.5 277.5c40.668-.167 81.335 0 122 .5 1.482 2.592 1.148 4.925-1 7-40 .667-80 .667-120 0-3.466-2.194-3.8-4.694-1-7.5Z"/><path style="opacity:1" fill="#39a983" d="M112.5 235.5h1v49h63v24h-63c.284 1.915-.049 3.581-1 5v-78Z"/><path style="opacity:1" fill="#3aaa83" d="M614.5 284.5h70v24h-70v-24Z"/><path style="opacity:1" fill="#3a3b49" d="M309.5 353.5c-.322-2.222.345-4.056 2-5.5 24.186.91 47.186-3.757 69-14 8.812-6.011 9.145-12.344 1-19-10.46-6.376-21.794-10.376-34-12a328.08 328.08 0 0 0-36-3c-1.655-1.444-2.322-3.278-2-5.5 22.833-2.765 45.166.068 67 8.5a55.685 55.685 0 0 1 15.5 10.5c5.879 11.373 3.379 20.539-7.5 27.5-20.377 9.676-41.877 14.51-64.5 14.5-3.797.253-7.297-.414-10.5-2Z"/><path style="opacity:1" fill="#3a3c49" d="M263.5 300.5c5.613-1.421 7.78.579 6.5 6-29.969 11.845-29.969 23.512 0 35 1.484 4.049.151 6.049-4 6-10.294-2.311-18.627-7.644-25-16-3.568-9.179-1.402-16.679 6.5-22.5a185.97 185.97 0 0 1 16-8.5Z"/><path style="opacity:1" fill="#3aa586" d="M6.5 308.5h30a485.765 485.765 0 0 0 1.5 52l9.5 5.5a13.908 13.908 0 0 0 3 4c6.695 1.946 12.695 5.113 18 9.5-10.82.995-21.82 1.328-33 1-3.667-1.336-7.334-2.669-11-4v-3h-6v-3c-4.013-1.674-8.013-3.341-12-5v-57Z"/><path style="opacity:1" fill="#39a684" d="M176.5 308.5a400.456 400.456 0 0 1-1 40c-7.698-2.861-14.698-7.028-21-12.5-3.993-.322-7.326-1.988-10-5-3.415-.406-6.082-2.072-8-5l-10-4-4-4a68.233 68.233 0 0 1-10-4.5c.951-1.419 1.284-3.085 1-5h63Z"/><path style="opacity:1" fill="#3b3b49" d="M312.5 308.5c17.672.004 23.505 8.338 17.5 25-7.355 7.053-15.188 7.72-23.5 2-8.134-11.267-6.134-20.267 6-27Z"/><path style="opacity:1" fill="#3a3b49" d="M351.5 308.5c5.879.117 7.379 2.784 4.5 8a142.98 142.98 0 0 1-11.5 22.5c-5.167 1.5-7-.333-5.5-5.5l12.5-25Z"/><path style="opacity:1" fill="#3a3847" d="M420.5 308.5c40.668-.167 81.335 0 122 .5 1.559 2.642 1.225 4.975-1 7a3658.67 3658.67 0 0 1-121 0c-2.586-2.494-2.586-4.994 0-7.5Z"/><path style="opacity:1" fill="#39a584" d="M684.5 229.5a1807.264 1807.264 0 0 1 1 85 12.93 12.93 0 0 0-5 .5 679.07 679.07 0 0 0-23 15 349.402 349.402 0 0 1-37 19 31.84 31.84 0 0 1-5 4.5 507.128 507.128 0 0 1-1-45h70v-79Z"/><path style="opacity:1" fill="#3aa384" d="M761.5 135.5a1156.835 1156.835 0 0 1 1 68v105h30v57c-3.013-.128-5.513.872-7.5 3-2.411-1.653-3.578-.987-3.5 2-1.701.466-3.201.466-4.5 0-5.023 4.358-10.19 7.691-15.5 10-11.845.328-23.512-.005-35-1 4.576-2.3 8.91-5.133 13-8.5a190.921 190.921 0 0 0 21.5-10.5c.5-74.999.667-149.999.5-225Z"/><path style="opacity:1" fill="#dde1e5" d="M314.5 316.5c6.365-.988 10.031 1.678 11 8-.797 4.464-3.464 6.797-8 7-6.131-.629-8.631-3.962-7.5-10 1.025-2.187 2.525-3.854 4.5-5Z"/><path style="opacity:1" fill="#3a3b49" d="M309.5 353.5c8.253 13.751 19.587 24.251 34 31.5 7.38 2.531 11.88.031 13.5-7.5l1-13c2.139-1.269 4.305-1.269 6.5 0 1.849 8.938.349 17.272-4.5 25-5.584 3.766-11.751 4.932-18.5 3.5-11.7-5.775-21.867-13.609-30.5-23.5a164.893 164.893 0 0 1-22.5-34c.643-3.475 2.643-4.641 6-3.5a165.776 165.776 0 0 0 15 21.5Z"/><path style="opacity:1" fill="#3a3847" d="M420.5 339.5c40.335-.167 80.668 0 121 .5 2.225 2.025 2.559 4.358 1 7a3719.39 3719.39 0 0 1-122 0c-2.586-2.494-2.586-4.994 0-7.5Z"/><path style="opacity:1" fill="#696974" d="M614.5 367.5a961.42 961.42 0 0 0 1 62c0 .667-.333 1-1 1-1.333-21-1.333-42 0-63Z"/><path style="opacity:1" fill="#3a3c4a" d="M421.5 370.5c19.336-.167 38.67 0 58 .5 2.173 1.865 2.507 4.031 1 6.5a600.697 600.697 0 0 1-60 .5c-2.567-2.822-2.234-5.322 1-7.5Z"/><path style="opacity:1" fill="#409f88" d="M68.5 379.5a3727.55 3727.55 0 0 0 71 40c-11.822.995-23.822 1.328-36 1-1.419-.951-3.085-1.284-5-1v-3a27.267 27.267 0 0 0-9-3v-3c-2.908.238-5.242-.762-7-3a3.647 3.647 0 0 0-1.5 1c-1.667-1-3-2.333-4-4l-1 1a4.932 4.932 0 0 1-.5-3h-6v-3h-5v-3c-4.005-1.087-7.505-3.087-10.5-6l-1 1a83.721 83.721 0 0 0-13.5-6.5l1-1c-2.26-.549-3.926-1.716-5-3.5 11.18.328 22.18-.005 33-1ZM726.5 379.5c11.488.995 23.155 1.328 35 1-3.365 2.025-7.032 3.691-11 5 .381 2.442-.286 3.109-2 2-.886.825-1.219 1.825-1 3h-6v3a12.93 12.93 0 0 0-5 .5c-1.079 2.043-2.746 3.376-5 4l1 1a12.93 12.93 0 0 1-5 .5v3a9.86 9.86 0 0 0-6 1c-3.423 1.192-6.256 3.192-8.5 6l-1-1c-1.049 1.607-2.549 2.273-4.5 2v3h-6v3h-5v3c-1.291-.237-2.291.096-3 1-12.178.328-24.178-.005-36-1a3493.884 3493.884 0 0 1 69-40Z"/><path style="opacity:1" fill="#489d89" d="M657.5 419.5c11.822.995 23.822 1.328 36 1-1.085 2.082-2.585 2.416-4.5 1a20.499 20.499 0 0 0-2.5 3.5 101.955 101.955 0 0 0-13 5.5v3h-6v3h-6v3c-1.788-.285-3.455.048-5 1 1.129 2.029.629 2.363-1.5 1-1.712 3.452-4.212 4.452-7.5 3v3c-3.096-.593-5.429.407-7 3a47.25 47.25 0 0 1-7 3v3h-6v3a106.353 106.353 0 0 0-13 5v-21a169.15 169.15 0 0 1 21-10.5l6-5a61.354 61.354 0 0 0 16-8.5Z"/><path style="opacity:1" fill="#479d89" d="M139.5 419.5a213.054 213.054 0 0 1 16 10.5c5.804 1.823 11.137 4.49 16 8a12.93 12.93 0 0 0 5 .5v20c-6.306-3.488-12.64-6.988-19-10.5-6.204-2.789-12.537-4.622-19-5.5v-3h-6v-3h-3v-3h-6v-3h-5v-3c-2.921.354-5.254-.646-7-3-1.714 1.109-2.381.442-2-2-2.51.446-4.51-.22-6-2 12.178.328 24.178-.005 36-1Z"/><path style="opacity:1" fill="#ffe5a5" d="M493.5 441.5v27h-4v-27h4Z"/><path style="opacity:1" fill="#fccc53" d="M493.5 441.5h62v27h-62v-27Z"/><path style="opacity:1" fill="#413d48" d="M513.5 449.5c5.613-1.421 7.78.579 6.5 6-5.899 1.933-8.065-.067-6.5-6Z"/><path style="opacity:1" fill="#3b3947" d="M545.5 449.5c5.658-.821 7.325 1.346 5 6.5-5.759 1.139-7.426-1.028-5-6.5Z"/><path style="opacity:1" fill="#3a3c4a" d="M233.5 456.5c27.335-.167 54.669 0 82 .5 2.667 2.333 2.667 4.667 0 7a1721.64 1721.64 0 0 1-83 0c-1.417-2.743-1.084-5.243 1-7.5Z"/><path style="opacity:1" fill="#443f48" d="M499.5 456.5c5.52.544 6.854 3.044 4 7.5-6.298.495-7.632-2.005-4-7.5ZM530.5 456.5c5.988.164 7.321 2.664 4 7.5-6.087.205-7.421-2.295-4-7.5Z"/><path style="opacity:1" fill="#3aa68a" d="M481.5 436.5v34c-93.832.999-187.832 1.333-282 1a5.727 5.727 0 0 0 1-3h280c-.328-10.846.006-21.513 1-32Z"/><path style="opacity:1" fill="#cba443" d="M555.5 441.5h4v29a613.153 613.153 0 0 1-70 0v-2h66v-27Z"/><path style="opacity:1" fill="#398a78" d="M481.5 470.5c.543.06.876.393 1 1l-142 1c-47.737.002-94.737-.331-141-1 94.168.333 188.168-.001 282-1Z"/><path style="opacity:1" fill="#a78944" d="M489.5 470.5a613.153 613.153 0 0 0 70 0c.543.06.876.393 1 1a889.006 889.006 0 0 1-73 .5c.544-.717 1.211-1.217 2-1.5Z"/><path style="opacity:1" fill="#9399a0" d="M169.5 480.5h11v7h-11v-7Z"/><path style="opacity:1" fill="#646c77" d="M180.5 480.5h291c-1.439 2.088-2.106 4.421-2 7h-6c.28-2.888-1.053-4.388-4-4.5a2604.563 2604.563 0 0 0-125 .5l-2 4h-152v-7Z"/><path style="opacity:1" fill="#273339" d="M604.5 481.5a19.22 19.22 0 0 1 1 6v194c.166 9.672 0 19.339-.5 29l-1.5 1.5a463.293 463.293 0 0 1-52 1.5 750.264 750.264 0 0 0-67-.5 1147.103 1147.103 0 0 1-31 17c-3.25 3.637-7.25 5.97-12 7-3.492 1.624-6.492 3.958-9 7-6.761 1.869-12.761 5.202-18 10-2.474.113-4.474 1.113-6 3-4.583 1.535-9.25 2.202-14 2-8.99-3.644-17.324-8.311-25-14l-4-1a279.412 279.412 0 0 0-19-12c-3.959.349-6.626-1.317-8-5-8.36-3.016-16.027-7.349-23-13a169.242 169.242 0 0 0-22-11c-11.4-8.753-23.733-15.753-37-21l-4-4a150.824 150.824 0 0 1-18-11 285.561 285.561 0 0 0-26-13 18.839 18.839 0 0 0-6.5-5.5 924.222 924.222 0 0 1-.5-43h-15c-.283-.789-.783-1.456-1.5-2a484.008 484.008 0 0 1 0-44c.383-.556.883-.889 1.5-1a61.281 61.281 0 0 1 15-1v-62h12v62c5.14.988 10.474 1.321 16 1v-41c.111-.617.444-1.117 1-1.5 12.996-.5 25.996-.667 39-.5v-20h12v19l-4.5 9a128.507 128.507 0 0 0-.5 16v18a50.512 50.512 0 0 0 20 0h10a49.369 49.369 0 0 1 11 1c1.551 2.413 2.217 5.079 2 8a676.745 676.745 0 0 0-1.5 37l-1.5 1.5-30 1 4 4a1749.139 1749.139 0 0 1 41.5 23.5 54.628 54.628 0 0 1 2-7 376.743 376.743 0 0 0 28.5-28c10.667-10 21-20.333 31-31a94.334 94.334 0 0 1 8-8.5c-6.992-.5-13.992-.666-21-.5-3.8-.258-6.8-2.091-9-5.5l-17-9a58.317 58.317 0 0 1-10.5-7.5c-1.049 1.017-2.216 1.184-3.5.5a65.89 65.89 0 0 0-13-10 8.43 8.43 0 0 0-4-.5l4.5-9c.671-.752 1.504-1.086 2.5-1 .617.111 1.117.444 1.5 1 .497-2.31.663-4.643.5-7v-23l2-4a2604.563 2604.563 0 0 1 125-.5c2.947.112 4.28 1.612 4 4.5h6c-.106-2.579.561-4.912 2-7a2890.488 2890.488 0 0 1 131-.5c.544.717 1.211 1.217 2 1.5Z"/><path style="opacity:1" fill="#545b64" d="M605.5 487.5a19.22 19.22 0 0 0-1-6c5.475-.989 11.142-1.322 17-1v7h-16Z"/><path style="opacity:1" fill="#525562" d="M169.5 480.5v7h163v1h-164c-.306-2.885.027-5.552 1-8Z"/><path style="opacity:1" fill="#e1f9ec" d="M478.5 487.5h119v44h-34v123c.319 4.863-.014 9.53-1 14 .167-49.001 0-98.001-.5-147l-1.5-1.5c-15-.667-30-.667-45 0l-2.5 2.5a40.914 40.914 0 0 0-.5 9h-34v-44Z"/><path style="opacity:1" fill="#e2fbed" d="M455.5 490.5v51h-33c.321-5.526-.012-10.86-1-16-.077-1.25-.744-2.083-2-2.5-26.331-.5-52.665-.667-79-.5v-32h115Z"/><path style="opacity:1" fill="#816f65" d="M330.5 496.5c-11.179-.328-22.179.005-33 1-.543-.06-.876-.393-1-1l17.5-1c6.249-.023 11.749.311 16.5 1Z"/><path style="opacity:1" fill="#f9f9f9" d="M213.5 495.5h56v20c-13.004-.167-26.004 0-39 .5-.556.383-.889.883-1 1.5a400.456 400.456 0 0 0-1 40h-15v-62Z"/><path style="opacity:1" fill="#5a9086" d="M281.5 495.5a60.931 60.931 0 0 1 11 .5 175.023 175.023 0 0 0-11 18.5v-19Z"/><path style="opacity:1" fill="#c9a684" d="M330.5 496.5a925.642 925.642 0 0 0-19.5 36c-1.011.837-2.178 1.17-3.5 1a772.317 772.317 0 0 1 17-33 133.155 133.155 0 0 0-23-1h-3l-1-2c10.821-.995 21.821-1.328 33-1Z"/><path style="opacity:1" fill="#f5dfc9" d="M298.5 499.5h3a526.036 526.036 0 0 1-25 47v-7a578.532 578.532 0 0 0 22-40Z"/><path style="opacity:1" fill="#fdd0a5" d="M301.5 499.5c7.696-.331 15.362.003 23 1a772.317 772.317 0 0 0-17 33c-5.314-.51-9.98.99-14 4.5-4.38 5.253-7.88 11.086-10.5 17.5-1.789 1.729-3.956 2.396-6.5 2v-11a526.036 526.036 0 0 0 25-47Z"/><path style="opacity:1" fill="#f9dec3" d="m468.5 511.5-4-8v-4h5c.317 4.202-.017 8.202-1 12Z"/><path style="opacity:1" fill="#9d8b7c" d="M468.5 511.5c.983-3.798 1.317-7.798 1-12h-5v4c-.968-2.107-1.302-4.441-1-7h7a162.597 162.597 0 0 1-.5 18l-1.5-3Z"/><path style="opacity:1" fill="#e1e2e3" d="M332.5 510.5a24.935 24.935 0 0 1-.5 7c-.383-.556-.883-.889-1.5-1-.584-2.22.083-4.22 2-6Z"/><path style="opacity:1" fill="#5d666a" d="M229.5 517.5v41c-5.526.321-10.86-.012-16-1h15a400.456 400.456 0 0 1 1-40Z"/><path style="opacity:1" fill="#28343a" d="M562.5 668.5c.17 1.322-.163 2.489-1 3.5a552.224 552.224 0 0 1-47 0 11.333 11.333 0 0 1-1.5-3.5 98.432 98.432 0 0 1-.5-14v-123a40.914 40.914 0 0 1 .5-9l2.5-2.5c15-.667 30-.667 45 0l1.5 1.5c.5 48.999.667 97.999.5 147Z"/><path style="opacity:1" fill="#a8bab1" d="M268.5 523.5h-31a361.608 361.608 0 0 1-1 38v-39c10.846-.328 21.513.006 32 1Z"/><path style="opacity:1" fill="#66958b" d="M201.5 495.5v62a61.281 61.281 0 0 0-15 1v-62c4.805-.987 9.805-1.321 15-1Z"/><path style="opacity:1" fill="#f9fafa" d="M543.5 664.5h-22v-50a54.7 54.7 0 0 0 5.5-4c.499-4.321.666-8.654.5-13 7.341.166 14.674 0 22-.5 1.304-.804 1.971-1.971 2-3.5a1187.683 1187.683 0 0 0-21-41v-25h25c.167 43.335 0 86.668-.5 130a128.281 128.281 0 0 1-11.5 7Z"/><path style="opacity:1" fill="#868d90" d="M413.5 546.5v-16a784.68 784.68 0 0 0-56 1 27.603 27.603 0 0 0-5-1.5c20.664-.5 41.331-.667 62-.5.322 5.858-.011 11.525-1 17Z"/><path style="opacity:1" fill="#fcfcfc" d="M413.5 546.5a386.52 386.52 0 0 1-14.5 9 11132.422 11132.422 0 0 0-41.5-24 784.68 784.68 0 0 1 56-1v16Z"/><path style="opacity:1" fill="#6c918a" d="M323.5 526.5a8.43 8.43 0 0 1 4 .5 65.89 65.89 0 0 1 13 10c1.284.684 2.451.517 3.5-.5a58.317 58.317 0 0 0 10.5 7.5l17 9c2.2 3.409 5.2 5.242 9 5.5h-63a49.369 49.369 0 0 0-11-1 1052.99 1052.99 0 0 0 17-31Z"/><path style="opacity:1" fill="#6c928a" d="M469.5 531.5v27h-5v-27a14.698 14.698 0 0 0 3.5-3c1.039.744 1.539 1.744 1.5 3Z"/><path style="opacity:1" fill="#6a948b" d="M605.5 495.5c.992-.172 1.658.162 2 1a32.462 32.462 0 0 0 .5 8c.414.457.914.791 1.5 1 1 18.321 1.333 36.655 1 55h-5v-65Z"/><path style="opacity:1" fill="#3b3948" d="M530.5 552.5a1187.683 1187.683 0 0 1 21 41c-.029 1.529-.696 2.696-2 3.5-7.326.5-14.659.666-22 .5h-7v-8h17c1.175.219 2.175-.114 3-1a46563.424 46563.424 0 0 0-20-36c-.166-5.676.001-11.343.5-17 2.687 6.052 5.854 11.719 9.5 17Z"/><path style="opacity:1" fill="#e9fbea" d="M268.5 523.5c-.167 13.337 0 26.671.5 40l1.5 1.5c13.329.5 26.663.667 40 .5v5h-117v-4a380.934 380.934 0 0 0 39-1c2.333-.333 3.667-1.667 4-4a361.608 361.608 0 0 0 1-38h31Z"/><path style="opacity:1" fill="#e6f6e5" d="M455.5 490.5c1.329 24.837 1.329 49.837 0 75-7.02 6.688-14.02 13.355-21 20a529.493 529.493 0 0 0-46-1 1511.604 1511.604 0 0 1 32.5-33c.5-8.66.666-17.327.5-26 .988 5.14 1.321 10.474 1 16h33v-51Z"/><path style="opacity:1" fill="#eafceb" d="M478.5 531.5h34v39h-34v-39ZM597.5 531.5v39h-34v-39h34Z"/><path style="opacity:1" fill="#d3ae8b" d="M297.5 557.5h-1c-1.788.285-3.455-.048-5-1 1.852-7.012 6.019-12.012 12.5-15l1.5 1a161.904 161.904 0 0 0-8 15Z"/><path style="opacity:1" fill="#c4a383" d="M520.5 552.5a46563.424 46563.424 0 0 1 20 36c-.825.886-1.825 1.219-3 1a729.602 729.602 0 0 0-15.5-28c-.5 9.327-.666 18.661-.5 28h-1v-37Z"/><path style="opacity:1" fill="#3b3a48" d="M317.5 558.5h63c7.008-.166 14.008 0 21 .5a94.334 94.334 0 0 0-8 8.5 1369.272 1369.272 0 0 0-74-1c.217-2.921-.449-5.587-2-8Z"/><path style="opacity:1" fill="#424e54" d="M464.5 531.5v27h5v-27a1250.812 1250.812 0 0 1 0 100v-65h-6c-.328-11.845.005-23.512 1-35Z"/><path style="opacity:1" fill="#fdd0a5" d="M537.5 589.5h-16c-.166-9.339 0-18.673.5-28a729.602 729.602 0 0 1 15.5 28Z"/><path style="opacity:1" fill="#bcc9bc" d="M232.5 565.5a380.934 380.934 0 0 1-39 1v31c-.994-10.487-1.328-21.154-1-32h40Z"/><path style="opacity:1" fill="#78908b" d="M319.5 566.5c24.839-.331 49.506.002 74 1-10 10.667-20.333 21-31 31a462.903 462.903 0 0 0-43-1v-31Z"/><path style="opacity:1" fill="#eef9e4" d="M193.5 570.5h117v27a400.456 400.456 0 0 0-40 1c-1.843 3.687-2.51 7.687-2 12-10.098-.862-20.098-.862-30 0a225.771 225.771 0 0 0-1 30h31c-10.487.994-21.154 1.328-32 1 .167-14.004 0-28.004-.5-42a11.333 11.333 0 0 0-3.5-1.5 760.316 760.316 0 0 0-39-.5v-27Z"/><path style="opacity:1" fill="#eff8e3" d="M388.5 584.5c15.509-.33 30.842.004 46 1-9 9.667-18.333 19-28 28-.185-1.696-1.019-3.029-2.5-4h-4c-1.309 2.391-2.309 2.391-3 0-.667 2.667-1.333 2.667-2 0-.691 2.391-1.691 2.391-3 0-1.566-.561-2.899.106-4 2-.667-2.667-1.333-2.667-2 0-.667-2.667-1.333-2.667-2 0-.667-2.667-1.333-2.667-2 0-1.101-1.894-2.434-2.561-4-2-1.309 2.391-2.309 2.391-3 0a12.403 12.403 0 0 1-2.5 4c.193-1.188-.307-2.522-1.5-4-1.612.452-2.612 1.785-3 4a4.934 4.934 0 0 1-.5-3h-3a4.934 4.934 0 0 1-.5 3c-.232-1.237-.732-2.237-1.5-3 8.333-9 17-17.667 26-26Z"/><path style="opacity:1" fill="#f0fae5" d="M478.5 570.5h34v40c-11.215-.904-22.548-.904-34 0v-40ZM563.5 570.5h34v40c-11.215-.904-22.548-.904-34 0v-40Z"/><path style="opacity:1" fill="#697571" d="M310.5 565.5c.995 10.821 1.328 21.821 1 33h-41a400.456 400.456 0 0 1 40-1v-32Z"/><path style="opacity:1" fill="#7e8b89" d="M319.5 566.5v31c14.51-.329 28.843.004 43 1a376.743 376.743 0 0 1-28.5 28 54.628 54.628 0 0 0-2 7 1749.139 1749.139 0 0 0-41.5-23.5l-4-4 30-1 1.5-1.5c.169-12.507.669-24.84 1.5-37Z"/><path style="opacity:1" fill="#7e8e8b" d="M463.5 566.5h6v54h-58a3781.87 3781.87 0 0 1 51.5-52 2.428 2.428 0 0 0 .5-2Z"/><path style="opacity:1" fill="#7d8f8b" d="M605.5 560.5h5v60h-5v-60Z"/><path style="opacity:1" fill="#fcfcfc" d="M213.5 605.5h15c-.167 13.004 0 26.004.5 39a11.333 11.333 0 0 0 1.5 3.5c14.667.667 29.333.667 44 0a9.454 9.454 0 0 0 1.5-2.5l1-29a46.47 46.47 0 0 0 14.5 6.5 27.816 27.816 0 0 1 8 6 420.445 420.445 0 0 0 32 17 1016.27 1016.27 0 0 1 1 63.5c-8.46-2.55-16.127-6.717-23-12.5-5.093-1.382-9.426-4.049-13-8-6.4-2.062-12.067-5.396-17-10l-10-4-4-4a77.598 77.598 0 0 1-23-13 90.42 90.42 0 0 1-14-6 45.999 45.999 0 0 0-13-8l-1.5-1.5a684.346 684.346 0 0 1-.5-37Z"/><path style="opacity:1" fill="#babdbf" d="M521.5 614.5v50h22c-7.482.992-15.148 1.325-23 1a650.602 650.602 0 0 1 1-51Z"/><path style="opacity:1" fill="#878c8b" d="M411.5 620.5h58v11a65.813 65.813 0 0 1-13 5.5c-3.574 3.951-7.907 6.618-13 8a71.916 71.916 0 0 0-9 7l-4 1-20 12c-6.584 1.544-13.251 1.877-20 1-2.871-.131-5.205-1.297-7-3.5a33.225 33.225 0 0 1-.5-14 1122.818 1122.818 0 0 1 28.5-28Z"/><path style="opacity:1" fill="#f6f8e0" d="M268.5 610.5v30h-31a225.771 225.771 0 0 1 1-30c9.902-.862 19.902-.862 30 0Z"/><path style="opacity:1" fill="#f5f6de" d="M406.5 613.5a1422.753 1422.753 0 0 1-31.5 32 40.914 40.914 0 0 0-.5 9h-34c-.166-7.674 0-15.341.5-23a635 635 0 0 1 21.5-21c.768.763 1.268 1.763 1.5 3a4.934 4.934 0 0 0 .5-3h3a4.934 4.934 0 0 0 .5 3c.388-2.215 1.388-3.548 3-4 1.193 1.478 1.693 2.812 1.5 4a12.403 12.403 0 0 0 2.5-4c.691 2.391 1.691 2.391 3 0 1.566-.561 2.899.106 4 2 .667-2.667 1.333-2.667 2 0 .667-2.667 1.333-2.667 2 0 .667-2.667 1.333-2.667 2 0 1.101-1.894 2.434-2.561 4-2 1.309 2.391 2.309 2.391 3 0 .667 2.667 1.333 2.667 2 0 .691 2.391 1.691 2.391 3 0h4c1.481.971 2.315 2.304 2.5 4Z"/><path style="opacity:1" fill="#f7f8df" d="M512.5 610.5v44h-34v-44c11.452-.904 22.785-.904 34 0ZM597.5 610.5v44h-34v-44c11.452-.904 22.785-.904 34 0Z"/><path style="opacity:1" fill="#909699" d="M469.5 707.5a961.42 961.42 0 0 0-1-62c.283-.789.783-1.456 1.5-2a684.92 684.92 0 0 1-.5 64Z"/><path style="opacity:1" fill="#f9f9fa" d="M468.5 645.5a961.42 961.42 0 0 1 1 62c-.787 1.604-2.12 2.271-4 2l-2-39c-.011-1.517-.677-2.684-2-3.5l-29-1a35.157 35.157 0 0 1 10-5l9-7a81.356 81.356 0 0 0 17-8.5Z"/><path style="opacity:1" fill="#8b8b8b" d="M186.5 605.5h15c-.167 14.337 0 28.671.5 43a18.839 18.839 0 0 1 6.5 5.5 285.561 285.561 0 0 1 26 13 150.824 150.824 0 0 0 18 11l4 4c13.267 5.247 25.6 12.247 37 21a169.242 169.242 0 0 1 22 11c6.973 5.651 14.64 9.984 23 13 1.374 3.683 4.041 5.349 8 5a279.412 279.412 0 0 1 19 12l4 1c7.676 5.689 16.01 10.356 25 14 4.75.202 9.417-.465 14-2 1.526-1.887 3.526-2.887 6-3 5.239-4.798 11.239-8.131 18-10 2.508-3.042 5.508-5.376 9-7 4.75-1.03 8.75-3.363 12-7a1147.103 1147.103 0 0 0 31-17 750.264 750.264 0 0 1 67 .5 22.296 22.296 0 0 1-5 3.5l1 1a118.288 118.288 0 0 0-17 7.5 10.756 10.756 0 0 0-2.5 3l-1-1c-1.049 1.607-2.549 2.273-4.5 2v3h-6v3h-5v3c-2.524-.071-4.524.929-6 3-2.12-1.372-3.12-.705-3 2a12.93 12.93 0 0 0-5 .5 101.657 101.657 0 0 0-10 7.5 9.108 9.108 0 0 1-5 1v3c-2.51-.446-4.51.22-6 2-2.216.703-4.049 2.036-5.5 4-1.813-1.109-2.646-.442-2.5 2a12.93 12.93 0 0 0-5 .5c-1.497 1.871-3.497 2.871-6 3-1.307 2.324-3.307 3.657-6 4l2 1a12.93 12.93 0 0 1-5 .5v3a9.86 9.86 0 0 0-6 1 35.217 35.217 0 0 1-8 4v3h-6v3h-6v3a8.43 8.43 0 0 0-4 .5l-5 5c-1.284.684-2.451.517-3.5-.5-1.263 2.968-3.263 3.968-6 3a2.428 2.428 0 0 0-.5 2h-12c-.507-1.359-1.507-2.359-3-3a137.913 137.913 0 0 0-11-4v-3c-2.133-1.386-5.133-2.386-9-3v-3h-5v-3c-3.005.247-5.505-.753-7.5-3l-1 1a4.934 4.934 0 0 1-.5-3h-6v-3h-5v-3h-6v-3c-5.922-1.727-11.089-4.727-15.5-9-.718.951-1.551 1.117-2.5.5 1.333-.667 1.333-1.333 0-2a12.93 12.93 0 0 0-5-.5v-3a58.97 58.97 0 0 1-11-3v-3c-8.654-3.265-16.321-6.932-23-11v-3h-6v-3h-5v-3a8.43 8.43 0 0 1-4-.5c-4.85-3.699-10.184-6.199-16-7.5v-3h-6v-3c-2.092-.061-3.592-1.061-4.5-3-1.299.466-2.799.466-4.5 0v-3c-1.788.285-3.455-.048-5-1-2.158-3.144-5.158-4.477-9-4v-3a12.93 12.93 0 0 1-5-.5c-2.625-3.031-6.125-5.864-10.5-8.5-2.537.677-4.537-.323-6-3l-1 1c-1.667-1-3-2.333-4-4-1.049 1.017-2.216 1.184-3.5.5l1-1a15.645 15.645 0 0 1-4-2.5c-1-24.991-1.333-49.991-1-75Z"/><path style="opacity:1" fill="#8a8c8b" d="M605.5 620.5h5c.333 18.012 0 36.012-1 54-1.083 2.638-2.416 4.971-4 7v-61Z"/><path style="opacity:1" fill="#fcf5d8" d="M478.5 654.5h34a98.432 98.432 0 0 0 .5 14 11.333 11.333 0 0 0 1.5 3.5c15.667.667 31.333.667 47 0 .837-1.011 1.17-2.178 1-3.5.986-4.47 1.319-9.137 1-14h34v50h-119v-50Z"/><path style="opacity:1" fill="#fdf5d9" d="M340.5 654.5h34c-.166 5.344.001 10.677.5 16 .377 1.442 1.21 2.442 2.5 3 25.828.998 51.828 1.331 78 1v30h-114c.321-5.526-.012-10.86-1-16v-34Z"/><path style="opacity:1" fill="#c9cccd" d="m463.5 670.5 2 39c-.06.543-.393.876-1 1a400.778 400.778 0 0 1-1-40Z"/><path style="opacity:1" fill="#5c6360" d="M377.5 673.5h79c.328 10.846-.006 21.513-1 32v-31c-26.172.331-52.172-.002-78-1Z"/><path style="opacity:1" fill="#c9c5b0" d="M340.5 688.5c.988 5.14 1.321 10.474 1 16h114v1h-115v-17Z"/><path style="opacity:1" fill="#6e7671" d="M478.5 487.5v217h119a3599.26 3599.26 0 0 1-120 1c-.333-72.835.001-145.502 1-218Z"/><path style="opacity:1" fill="#5c6569" d="M459.5 713.5c-40.837-.332-81.503.001-122 1-.789-.283-1.456-.783-2-1.5 42.708-.828 84.042-.661 124 .5Z"/><path style="opacity:1" fill="#fcfcfc" d="M337.5 714.5a3720.344 3720.344 0 0 1 122-1 1829.673 1829.673 0 0 0-61 35 97.288 97.288 0 0 0-12-5.5c-3.543-1.608-6.543-3.942-9-7-5.662-.917-10.329-3.583-14-8a78.488 78.488 0 0 1-23-13 4.934 4.934 0 0 0-3-.5Z"/><path style="opacity:1" fill="#8b8c8b" d="M476.5 757.5c1.333.667 1.333.667 0 0Z"/></svg>