<?xml version="1.0" encoding="UTF-8"?><svg xmlns="http://www.w3.org/2000/svg" width="800" height="800" style="shape-rendering:geometricPrecision;text-rendering:geometricPrecision;image-rendering:optimizeQuality;fill-rule:evenodd;clip-rule:evenodd"><path style="opacity:1" fill="#fdf4d4" d="M576.5-.5h9a2.429 2.429 0 0 0 .5 2c1.049-1.017 2.216-1.184 3.5-.5a20.495 20.495 0 0 0 2.5 3.5c1.356-.88 2.856-1.214 4.5-1v3c2.822 1.432 6.489 2.432 11 3v3c2.092.061 3.592 1.061 4.5 3 2.537-.677 4.537.323 6 3 2.361-.566 4.194.434 5.5 3l2-1c.35 2.067 2.017 3.067 5 3v3h6v3h5v3h6v3a27.247 27.247 0 0 0 9 3c-.219 1.175.114 2.175 1 3a6.846 6.846 0 0 1 4-1v3a8.435 8.435 0 0 1 4 .5c-1.154.914-.987 1.747.5 2.5 1.299-.466 2.799-.466 4.5 0v3h6v3h5v3a428.986 428.986 0 0 0 20 8.5l-2 1c2.522.61 4.522 1.943 6 4 1.634.493 3.301.66 5 .5v3c2.908-.238 5.242.762 7 3 .951-.826 1.951-.992 3-.5l-1 1a6.977 6.977 0 0 1 3.5 2.5l1-1c.483.948.649 1.948.5 3h6v3h5v3c1.951-.273 3.451.393 4.5 2l1-1c6 4.386 12.5 7.886 19.5 10.5l-1 1c1.525 1.009 3.192 1.509 5 1.5v3h6v3h5v3c2.041.354 3.874.354 5.5 0 .483.948.649 1.948.5 3 2.836 1.276 5.836 1.942 9 2a7971.884 7971.884 0 0 1 2 251c-3.013-.128-5.513.872-7.5 3-2.411-1.653-3.578-.987-3.5 2-1.701.466-3.201.466-4.5 0-3.844 1.975-7.177 4.642-10 8l-1-1c-1.049 1.607-2.549 2.273-4.5 2v3c-3.937.204-7.604 1.204-11 3 .381 2.442-.286 3.109-2 2-.886.825-1.219 1.825-1 3h-6v3a12.93 12.93 0 0 0-5 .5c-1.079 2.043-2.746 3.376-5 4l1 1a12.93 12.93 0 0 1-5 .5v3a9.86 9.86 0 0 0-6 1c-3.423 1.192-6.256 3.192-8.5 6l-1-1c-1.049 1.607-2.549 2.273-4.5 2v3h-6v3h-5v3c-2.185.388-4.018 1.388-5.5 3-2.278-1.12-3.778-.287-4.5 2.5a101.955 101.955 0 0 0-13 5.5v3h-6v3h-6v3c-1.788-.285-3.455.048-5 1 1.129 2.029.629 2.363-1.5 1-1.712 3.452-4.212 4.452-7.5 3v3c-3.096-.593-5.429.407-7 3a47.25 47.25 0 0 1-7 3v3h-6v3a39.986 39.986 0 0 0-15 7 372.998 372.998 0 0 1 7-26 1712.198 1712.198 0 0 0 76-43.5c5.325-1.003 9.658-3.67 13-8a377.475 377.475 0 0 0 23-12l8-6a190.921 190.921 0 0 0 21.5-10.5c.667-76 .667-152 0-228a36.078 36.078 0 0 0-3.5-4.5c-3.29-.253-6.29-1.253-9-3a29746.604 29746.604 0 0 1-46-28 457.332 457.332 0 0 0-22-11l-4-4a161.879 161.879 0 0 1-33-19c-6.4-2.062-12.067-5.396-17-10a1126.1 1126.1 0 0 0-31-16c-2.365-3.714-5.698-5.714-10-6-7.082-6.364-15.416-9.031-25-8a12271.425 12271.425 0 0 1-129 74c-7.588 4.924-7.921 10.257-1 16a287.246 287.246 0 0 1 25 16 496.946 496.946 0 0 1 33 18c4.333.667 8.667.667 13 0a3162.857 3162.857 0 0 1 66-36.5 4261.045 4261.045 0 0 0 114 65.5c.826 17.093 1.326 34.26 1.5 51.5l2 2c.5 28.331.667 56.665.5 85a12.93 12.93 0 0 0-5 .5 679.07 679.07 0 0 0-23 15 349.402 349.402 0 0 1-37 19c-4.015 3.785-8.681 6.452-14 8-2.508 3.042-5.508 5.376-9 7a641.124 641.124 0 0 1-30 15.5 322.632 322.632 0 0 1-23-6c5.609-4.712 11.943-8.212 19-10.5a172.26 172.26 0 0 0 18-13c5.35-1.428 9.85-4.261 13.5-8.5.667-37.333.667-74.667 0-112a111.89 111.89 0 0 0-25.5-14.5l-4-4a117.669 117.669 0 0 1-17-8c-3.671-4.417-8.338-7.083-14-8a928.605 928.605 0 0 0-68-39 77.598 77.598 0 0 0-23-13c-2.508-3.042-5.508-5.376-9-7a312.387 312.387 0 0 0-27-14c-1.918-2.928-4.585-4.594-8-5a952.444 952.444 0 0 0-50-30A6293.094 6293.094 0 0 1 237 23.5a138.219 138.219 0 0 1-14.5 1.5 583.354 583.354 0 0 0-33 19 175.013 175.013 0 0 0-28 16l-4 1-23 15a336.071 336.071 0 0 0-40 23c-5.503 1.171-10.17 3.837-14 8a133.395 133.395 0 0 0-32 18c-2.71 1.747-5.71 2.747-9 3-1.574 1.826-2.407 3.993-2.5 6.5a6458.19 6458.19 0 0 0 1 226l9.5 5.5c1.374 3.683 4.04 5.349 8 5a13376.247 13376.247 0 0 0 116 67c2.31.497 4.643.663 7 .5.992 7.148 1.325 14.481 1 22a352.105 352.105 0 0 0-22-12.5c-6.204-2.789-12.537-4.622-19-5.5v-3h-6v-3h-3v-3h-6v-3h-5v-3c-2.921.354-5.254-.646-7-3-1.714 1.109-2.381.442-2-2a58.97 58.97 0 0 1-11-3v-3a27.267 27.267 0 0 0-9-3v-3c-2.908.238-5.242-.762-7-3a3.647 3.647 0 0 0-1.5 1c-1.667-1-3-2.333-4-4l-1 1a4.932 4.932 0 0 1-.5-3h-6v-3h-5v-3a544.412 544.412 0 0 1-29-14v-3a58.967 58.967 0 0 1-11-3v-3h-6v-3c-4.013-1.674-8.013-3.341-12-5 .008-83.648.008-167.148 0-250.5a169.104 169.104 0 0 0 15-5.5v-3a58.967 58.967 0 0 0 11-3v-3a417.79 417.79 0 0 0 15-7 32.686 32.686 0 0 0 8.5-6l1 1c1.049-1.607 2.549-2.273 4.5-2v-3a59.029 59.029 0 0 1 11-3 4.932 4.932 0 0 1 .5-3l1 1c2.015-3.065 4.515-4.065 7.5-3v-3h5v-3c1.7.16 3.366-.007 5-.5 1.478-2.057 3.478-3.39 6-4l-2-1a18.436 18.436 0 0 1 6-.5v-3a87.51 87.51 0 0 0 14-5v-3h6v-3h5v-3c1.701-.466 3.201-.466 4.5 0 3.279-4.047 7.946-7.047 14-9a18.264 18.264 0 0 0 5-4l1 1c1.049-1.607 2.549-2.273 4.5-2v-3h5v-3h6v-3c4.612-1.195 9.279-2.862 14-5v-3c1.701-.466 3.201-.466 4.5 0 .908-1.939 2.408-2.939 4.5-3v-3h6v-3c1.788.285 3.455-.048 5-1a38.767 38.767 0 0 0 7-4.5 49.25 49.25 0 0 1 14 0c2.025 1.677 4.359 2.677 7 3-1.134 1.016-.801 1.683 1 2l5 1-1 1c2.622 3.073 5.955 4.573 10 4.5v3h6v3c3.191.262 5.858 1.596 8 4a9.864 9.864 0 0 0 6 1v3c3.58 1.22 7.247 2.386 11 3.5l-2 1c2.767.678 4.934 2.178 6.5 4.5l1-1c3.769 1.797 7.102 4.13 10 7a3.942 3.942 0 0 1 2-1c1.482 1.612 3.315 2.612 5.5 3v3h6v3h5v3h6v3a87.51 87.51 0 0 0 14 5v3c1.699-.16 3.366.007 5 .5l-1 1c1.525 1.009 3.192 1.509 5 1.5v3h6v3h5v3c2.985-1.065 5.485-.065 7.5 3l1-1c.483.948.649 1.948.5 3h5v3h6v3c2.133 1.386 5.133 2.386 9 3v3c2.908-.238 5.242.762 7 3l2-1c.35 2.067 2.017 3.067 5 3v3h6v3c2.516-.255 4.85-1.089 7-2.5a626.207 626.207 0 0 1 29-17c.837-1.011 1.17-2.178 1-3.5 4.493-.216 7.993-2.216 10.5-6 1.011.837 2.178 1.17 3.5 1v-3a59.031 59.031 0 0 0 11-3v-3c1.808.009 3.475-.491 5-1.5l-1-1a12.935 12.935 0 0 1 5-.5v-3a9.864 9.864 0 0 0 6-1 35.213 35.213 0 0 1 8-4v-3h6v-3a59.031 59.031 0 0 1 11-3v-3c1.808.009 3.475-.491 5-1.5-1.388-.89-1.222-1.39.5-1.5 2.071 1.167 3.571.5 4.5-2 6.434-2.343 12.767-5.343 19-9v-3a59.031 59.031 0 0 1 11-3 4.934 4.934 0 0 1 .5-3l1 1c1.995-2.247 4.495-3.247 7.5-3v-3h5v-3h6v-3c1.808.009 3.475-.491 5-1.5l-1-1a12.936 12.936 0 0 1 5-.5v-3c3.552.188 6.219-1.145 8-4Z"/><path style="opacity:1" fill="#242021" d="M619.5 440.5a2920.284 2920.284 0 0 0 4-15 3734.046 3734.046 0 0 0 109-63.5 84.545 84.545 0 0 1 18-8.5 7901.316 7901.316 0 0 0-1.5-216 2129.254 2129.254 0 0 1-37.5-21.5c-3.415-.406-6.082-2.072-8-5a91.311 91.311 0 0 1-23-13 457.332 457.332 0 0 0-22-11c-2.508-3.042-5.508-5.376-9-7a457.332 457.332 0 0 1-22-11l-24-15c-3.415-.406-6.082-2.072-8-5a90.401 90.401 0 0 0-14-6c-5.722-6.435-12.722-8.768-21-7-7.36 5.663-15.36 9.996-24 13-3.619 3.977-7.952 6.644-13 8-2.537 2.546-5.537 4.212-9 5l-4 4-10 4a2551.356 2551.356 0 0 0-60 36 7185.005 7185.005 0 0 1 26 16 114.065 114.065 0 0 0 14 6c4.2 3.6 8.867 6.433 14 8.5a684.54 684.54 0 0 1 19-8.5 43.593 43.593 0 0 1 13-8c2.365-3.714 5.698-5.714 10-6a705.673 705.673 0 0 1 21-12c4.719-2.307 9.719-2.974 15-2a113.107 113.107 0 0 0 28 15l5 5a182.852 182.852 0 0 1 35 20 193.115 193.115 0 0 1 32 19 197.694 197.694 0 0 1 17 8 36.078 36.078 0 0 1 3.5 4.5 1422.198 1422.198 0 0 1 1.5 75c.158 25.085-.342 50.085-1.5 75-5.218 5.192-11.384 8.692-18.5 10.5a12318.477 12318.477 0 0 1-28 18c-6.381 2.027-12.048 5.361-17 10-6.943 1.604-12.943 4.937-18 10-4.657 1.994-9.323 3.994-14 6-3.798 3.849-8.131 6.682-13 8.5a336.346 336.346 0 0 0-17-5 641.124 641.124 0 0 0 30-15.5c3.492-1.624 6.492-3.958 9-7 5.319-1.548 9.985-4.215 14-8a349.402 349.402 0 0 0 37-19 679.07 679.07 0 0 1 23-15 12.93 12.93 0 0 1 5-.5c.167-28.335 0-56.669-.5-85l-2-2c-.174-17.24-.674-34.407-1.5-51.5a4261.045 4261.045 0 0 1-114-65.5 3162.857 3162.857 0 0 0-66 36.5 42.479 42.479 0 0 1-13 0 496.946 496.946 0 0 0-33-18 287.246 287.246 0 0 0-25-16c-6.921-5.743-6.588-11.076 1-16a12271.425 12271.425 0 0 0 129-74c9.584-1.031 17.918 1.636 25 8 4.302.286 7.635 2.286 10 6a1126.1 1126.1 0 0 1 31 16c4.933 4.604 10.6 7.938 17 10a161.879 161.879 0 0 0 33 19l4 4a457.332 457.332 0 0 1 22 11 29746.604 29746.604 0 0 0 46 28c2.71 1.747 5.71 2.747 9 3a36.078 36.078 0 0 1 3.5 4.5c.667 76 .667 152 0 228a190.921 190.921 0 0 1-21.5 10.5l-8 6a377.475 377.475 0 0 1-23 12c-3.342 4.33-7.675 6.997-13 8a1712.198 1712.198 0 0 1-76 43.5Z"/><path style="opacity:1" fill="#262222" d="M544.5 373.5c-6.072-2.514-12.405-3.681-19-3.5-3.895 2.4-5.895 5.9-6 10.5a625.229 625.229 0 0 0-2.5-34 2595.272 2595.272 0 0 0-1.5-72 156.81 156.81 0 0 0-17-10 2304.95 2304.95 0 0 0-1 96 3571.05 3571.05 0 0 1-1-111 147.114 147.114 0 0 1 21.5 14c1.049-1.017 2.216-1.184 3.5-.5 1.5 2.167 3.333 4 5.5 5.5l1 100a48.835 48.835 0 0 0 13.5-8.5c7.294-1.951 13.627-5.617 19-11a249.84 249.84 0 0 0 22.5-11.5c.833-34.005.667-68.005-.5-102a803.828 803.828 0 0 1-52-30.5c-4.758-1.884-9.092-4.551-13-8-8.449-3.02-16.115-7.353-23-13-5.521-1.096-10.187-3.762-14-8l-4-1a327.567 327.567 0 0 0-42-24c-4.758-4.768-10.425-7.768-17-9-3.065-4.125-7.065-6.791-12-8l-6-5a546.6 546.6 0 0 0-35-18 108.394 108.394 0 0 1-19-13 1516.16 1516.16 0 0 1-91-52l-20-10a15.28 15.28 0 0 1-4.5-1.5A112.066 112.066 0 0 0 206.5 48a190.467 190.467 0 0 0-22 11c-3.492 1.624-6.492 3.958-9 7l-10 4-4 4a520.666 520.666 0 0 0-59 34l-9 3c-3.796 3.592-8.13 6.259-13 8A361.546 361.546 0 0 1 48 137.5c-.667 72-.667 144 0 216a7214.146 7214.146 0 0 0 125 72c.5-21.664.667-43.331.5-65a340.197 340.197 0 0 0-18-8.5 55.63 55.63 0 0 0-18-10 78.488 78.488 0 0 0-23-13 56.965 56.965 0 0 0-10.5-7.5 5697.651 5697.651 0 0 1 0-151 6.978 6.978 0 0 1 2.5-3.5 146.497 146.497 0 0 0 31-18c8.372-3.019 16.038-7.352 23-13 5.093-1.382 9.426-4.049 13-8a90.42 90.42 0 0 0 14-6c1.918-2.928 4.585-4.594 8-5a226.438 226.438 0 0 1 29-17 42.498 42.498 0 0 1 13 0l4 4a154.79 154.79 0 0 0 13 6 297.673 297.673 0 0 1 27 16.5 32.255 32.255 0 0 0-10 9c-.011-1.517-.677-2.684-2-3.5a101.617 101.617 0 0 1-22-13c-5.603-1.533-10.436-4.366-14.5-8.5-1.604 1.149-3.27 1.149-5 0a1068.258 1068.258 0 0 1-78.5 45.5c-5.201 4.797-11.201 8.13-18 10-5.669 5.02-11.836 9.187-18.5 12.5-.5 45.332-.667 90.665-.5 136 5.301 1.324 9.968 3.824 14 7.5l10 4c1.918 2.928 4.585 4.594 8 5 2.674 3.012 6.007 4.678 10 5 3.908 3.449 8.242 6.116 13 8l11.5 7.5c.167-38.502.667-76.836 1.5-115-.155 67.001-.489 134.001-1 201-.667 0-1 .333-1 1a24.935 24.935 0 0 1-7-.5 13376.247 13376.247 0 0 1-116-67c-3.96.349-6.626-1.317-8-5l-9.5-5.5a6458.19 6458.19 0 0 1-1-226c.093-2.507.926-4.674 2.5-6.5 3.29-.253 6.29-1.253 9-3a133.395 133.395 0 0 1 32-18c3.83-4.163 8.497-6.829 14-8a336.071 336.071 0 0 1 40-23l23-15 4-1a175.013 175.013 0 0 1 28-16 583.354 583.354 0 0 1 33-19c4.872-.246 9.705-.746 14.5-1.5A6293.094 6293.094 0 0 0 349.5 87a952.444 952.444 0 0 1 50 30c3.415.406 6.082 2.072 8 5a312.387 312.387 0 0 1 27 14c3.492 1.624 6.492 3.958 9 7a77.598 77.598 0 0 1 23 13 928.605 928.605 0 0 1 68 39c5.662.917 10.329 3.583 14 8a117.669 117.669 0 0 0 17 8l4 4a111.89 111.89 0 0 1 25.5 14.5c.667 37.333.667 74.667 0 112-3.65 4.239-8.15 7.072-13.5 8.5a172.26 172.26 0 0 1-18 13c-7.057 2.288-13.391 5.788-19 10.5Z"/><path style="opacity:1" fill="#fdfdfd" d="M496.5 249.5a1596.333 1596.333 0 0 1-5.5-9l-105-111a138.27 138.27 0 0 0-14.5-13.5c-8.041-3.244-16.041-3.244-24 0a389.836 389.836 0 0 0-29 28.5 469.398 469.398 0 0 0-19-17.5c-5.965-1.77-11.965-1.937-18-.5a297.673 297.673 0 0 0-27-16.5 154.79 154.79 0 0 1-13-6l-4-4a42.498 42.498 0 0 0-13 0 226.438 226.438 0 0 0-29 17c-3.415.406-6.082 2.072-8 5a90.42 90.42 0 0 1-14 6c-3.574 3.951-7.907 6.618-13 8-6.962 5.648-14.628 9.981-23 13a146.497 146.497 0 0 1-31 18 6.978 6.978 0 0 0-2.5 3.5 5697.651 5697.651 0 0 0 0 151 56.965 56.965 0 0 1 10.5 7.5 78.488 78.488 0 0 1 23 13 55.63 55.63 0 0 1 18 10 340.197 340.197 0 0 1 18 8.5c.167 21.669 0 43.336-.5 65a7214.146 7214.146 0 0 1-125-72c-.667-72-.667-144 0-216A361.546 361.546 0 0 0 80.5 119c4.87-1.741 9.204-4.408 13-8l9-3a520.666 520.666 0 0 1 59-34l4-4 10-4c2.508-3.042 5.508-5.376 9-7a190.467 190.467 0 0 1 22-11A112.066 112.066 0 0 1 230 34.5a15.28 15.28 0 0 0 4.5 1.5l20 10a1516.16 1516.16 0 0 0 91 52 108.394 108.394 0 0 0 19 13 546.6 546.6 0 0 1 35 18l6 5c4.935 1.209 8.935 3.875 12 8 6.575 1.232 12.242 4.232 17 9a327.567 327.567 0 0 1 42 24l4 1c3.813 4.238 8.479 6.904 14 8 6.885 5.647 14.551 9.98 23 13 3.908 3.449 8.242 6.116 13 8a803.828 803.828 0 0 0 52 30.5 1734.395 1734.395 0 0 1 .5 102 249.84 249.84 0 0 1-22.5 11.5c-5.373 5.383-11.706 9.049-19 11a48.835 48.835 0 0 1-13.5 8.5l-1-100c-2.167-1.5-4-3.333-5.5-5.5-1.284-.684-2.451-.517-3.5.5a147.114 147.114 0 0 0-21.5-14Z"/><path style="opacity:1" fill="#fdfdfd" d="M623.5 425.5a572.953 572.953 0 0 0 5-23c.333-4.505-1.667-7.339-6-8.5a794.329 794.329 0 0 0-38-9.5c4.869-1.818 9.202-4.651 13-8.5 4.677-2.006 9.343-4.006 14-6 5.057-5.063 11.057-8.396 18-10 4.952-4.639 10.619-7.973 17-10 9.313-5.969 18.646-11.969 28-18 7.116-1.808 13.282-5.308 18.5-10.5a1422.198 1422.198 0 0 0 1.5-75c.158-25.085-.342-50.085-1.5-75a36.078 36.078 0 0 0-3.5-4.5 197.694 197.694 0 0 0-17-8 193.115 193.115 0 0 0-32-19 182.852 182.852 0 0 0-35-20l-5-5a113.107 113.107 0 0 1-28-15c-5.281-.974-10.281-.307-15 2a705.673 705.673 0 0 0-21 12c-4.302.286-7.635 2.286-10 6a43.593 43.593 0 0 0-13 8 684.54 684.54 0 0 0-19 8.5 50.162 50.162 0 0 1-14-8.5 114.065 114.065 0 0 1-14-6 7185.005 7185.005 0 0 0-26-16 2551.356 2551.356 0 0 1 60-36l10-4 4-4c3.463-.788 6.463-2.454 9-5 5.048-1.356 9.381-4.023 13-8 8.64-3.004 16.64-7.337 24-13 8.278-1.768 15.278.565 21 7a90.401 90.401 0 0 1 14 6c1.918 2.928 4.585 4.594 8 5l24 15a457.332 457.332 0 0 0 22 11c3.492 1.624 6.492 3.958 9 7a457.332 457.332 0 0 1 22 11 91.311 91.311 0 0 0 23 13c1.918 2.928 4.585 4.594 8 5a2129.254 2129.254 0 0 0 37.5 21.5 7901.316 7901.316 0 0 1 1.5 216 84.545 84.545 0 0 0-18 8.5 3734.046 3734.046 0 0 1-109 63.5Z"/><path style="opacity:1" fill="#fef5d5" d="M271.5 135.5a3442.901 3442.901 0 0 1-48.5 51c-.987 3.975-.487 7.641 1.5 11a85.693 85.693 0 0 1-11 11c-4.098-2.82-8.098-2.653-12 .5a228.489 228.489 0 0 1-17.5 18.5 25.93 25.93 0 0 0-3.5 9 6577.364 6577.364 0 0 0-1.5 115l-11.5-7.5c-4.758-1.884-9.092-4.551-13-8-3.993-.322-7.326-1.988-10-5-3.415-.406-6.082-2.072-8-5l-10-4c-4.032-3.676-8.699-6.176-14-7.5-.167-45.335 0-90.668.5-136 6.664-3.313 12.831-7.48 18.5-12.5 6.799-1.87 12.799-5.203 18-10a1068.258 1068.258 0 0 0 78.5-45.5c1.73 1.149 3.396 1.149 5 0 4.064 4.134 8.897 6.967 14.5 8.5a101.617 101.617 0 0 0 22 13c1.323.816 1.989 1.983 2 3.5Z"/><path style="opacity:.998" fill="#050402" d="M496.5 249.5a3571.05 3571.05 0 0 0 1 111 98.777 98.777 0 0 0 12 4.5c2.333 1.333 3.333 3.333 3 6a5770.366 5770.366 0 0 1-12 47.5c-1.746 5.072-2.746 10.405-3 16v1a481.12 481.12 0 0 0 0 62v15a1326.956 1326.956 0 0 0 0 103v14a1405.288 1405.288 0 0 0-1.5 52c-1.451 1.964-3.284 3.297-5.5 4h-202a116.8 116.8 0 0 1-21 1 880.902 880.902 0 0 0-41-1.5c-1.833-.5-3-1.667-3.5-3.5l-1-21a44.11 44.11 0 0 0-13.5-6.5c-1.083-2.056-2.75-3.389-5-4a145.053 145.053 0 0 0-17-.5c-3.142-.299-5.309-1.966-6.5-5-.5-61.332-.667-122.666-.5-184a66.641 66.641 0 0 0 0-23c.511-66.999.845-133.999 1-201a25.93 25.93 0 0 1 3.5-9 228.489 228.489 0 0 0 17.5-18.5c3.902-3.153 7.902-3.32 12-.5 2.643 2.84 3.476 6.173 2.5 10l-18 20c-.5 131.333-.667 262.666-.5 394h25c-.167-127.334 0-254.667.5-382 .521-3.374 1.854-6.374 4-9l34.5-36.5c4.17-3.091 8.504-3.258 13-.5 2.38 3.856 2.546 7.856.5 12l-35 37c-.5 138.333-.667 276.666-.5 415h240c.167-69.334 0-138.667-.5-208a643.659 643.659 0 0 0-30 16 260.17 260.17 0 0 1-6.5 22 791.034 791.034 0 0 1-9.5 38c-.5 1.833-1.667 3-3.5 3.5a16.242 16.242 0 0 1-8 0l-28-7c-3.982-1.653-5.982-4.653-6-9a1177.502 1177.502 0 0 0 13.5-51.5 357.41 357.41 0 0 1 9-31 513.977 513.977 0 0 1 32.5-18 30.995 30.995 0 0 0 9-5.5 199.027 199.027 0 0 1 5-19c-.32-1.653-1.32-2.653-3-3-3.671-.9-7.337-1.734-11-2.5-.996-.086-1.829.248-2.5 1a582.046 582.046 0 0 1-6 23c-1.116 4.116-3.782 6.449-8 7a2342.527 2342.527 0 0 1-32.5-8.5c-4.723-3.254-6.223-7.754-4.5-13.5a713.317 713.317 0 0 0 14.5-57c-3.53-.511-6.696.156-9.5 2a6186.115 6186.115 0 0 1-20 75 1297.793 1297.793 0 0 1-42 24 13963.26 13963.26 0 0 0-16 60c-1.921 2.367-4.421 3.7-7.5 4a560.793 560.793 0 0 0-32-8c-3.54-1.89-5.54-4.89-6-9a584.935 584.935 0 0 0 6-23 2801.011 2801.011 0 0 0 15.5-58l4.5-4.5 37-19.5c3.672-7.175 5.339-14.675 5-22.5a485.463 485.463 0 0 0-14.5-4.5l-7 26c-1.651 3.979-4.651 5.979-9 6a435.657 435.657 0 0 0-31.5-8 31.447 31.447 0 0 0-4.5-5l-.5-4a323.479 323.479 0 0 0 5-22 138.165 138.165 0 0 0 3-8.5 4.934 4.934 0 0 0-3-.5c-6.972-.917-9.806-4.917-8.5-12 .833-2.167 2.333-3.667 4.5-4.5a72.367 72.367 0 0 1 12-.5 69.328 69.328 0 0 1 3.5-16c2-2.667 4.667-4 8-4a4170.926 4170.926 0 0 1 75.5 19.5l75 1c5.809 4.027 6.475 8.86 2 14.5a22.127 22.127 0 0 1-9 2.5 1684.086 1684.086 0 0 1 39 10.5 1768.561 1768.561 0 0 0 .5-103L362.5 131c-2-.667-4-.667-6 0a2494.965 2494.965 0 0 0-58 61c-4.475 2.061-8.808 1.895-13-.5-1.011-3.612-1.178-7.279-.5-11a341.539 341.539 0 0 1 21.5-22.5 148.31 148.31 0 0 1-14-15l-2-.5a101.815 101.815 0 0 0-15.5 14 3392.746 3392.746 0 0 1-37.5 40.5c-4.346 2.989-8.679 3.155-13 .5-1.987-3.359-2.487-7.025-1.5-11a3442.901 3442.901 0 0 0 48.5-51 32.255 32.255 0 0 1 10-9c6.035-1.437 12.035-1.27 18 .5a469.398 469.398 0 0 1 19 17.5 389.836 389.836 0 0 1 29-28.5c7.959-3.244 15.959-3.244 24 0a138.27 138.27 0 0 1 14.5 13.5l105 111c1.859 3.064 3.692 6.064 5.5 9Z"/><path style="opacity:1" fill="#fedb5e" d="M276.5 345.5v9a323.479 323.479 0 0 1-5 22l.5 4a31.447 31.447 0 0 1 4.5 5v85a584.935 584.935 0 0 1-6 23c.46 4.11 2.46 7.11 6 9 .327 37.739-.007 75.406-1 113-6.767 1.182-9.267 5.182-7.5 12 .833 2.167 2.333 3.667 4.5 4.5 58 .667 116 .667 174 0 6.577-5.414 6.577-10.747 0-16a4.934 4.934 0 0 0-3-.5 3451.565 3451.565 0 0 1-1-117 260.17 260.17 0 0 0 6.5-22 643.659 643.659 0 0 1 30-16c.5 69.333.667 138.666.5 208h-240c-.167-138.334 0-276.667.5-415l35-37c2.046-4.144 1.88-8.144-.5-12a101.669 101.669 0 0 0 11-13c4.192 2.395 8.525 2.561 13 .5a2494.965 2494.965 0 0 1 58-61c2-.667 4-.667 6 0L479 253.5c.833 34.338.667 68.672-.5 103a1684.086 1684.086 0 0 0-39-10.5 22.127 22.127 0 0 0 9-2.5c4.475-5.64 3.809-10.473-2-14.5l-75-1a4170.926 4170.926 0 0 0-75.5-19.5c-3.333 0-6 1.333-8 4a69.328 69.328 0 0 0-3.5 16 72.367 72.367 0 0 0-12 .5c-2.167.833-3.667 2.333-4.5 4.5-1.306 7.083 1.528 11.083 8.5 12Z"/><path style="opacity:1" fill="#c8a31b" d="M285.5 191.5a101.669 101.669 0 0 1-11 13c-4.496-2.758-8.83-2.591-13 .5L227 241.5c-2.146 2.626-3.479 5.626-4 9-.5 127.333-.667 254.666-.5 382h-25c-.167-131.334 0-262.667.5-394l18-20c.976-3.827.143-7.16-2.5-10a85.693 85.693 0 0 0 11-11c4.321 2.655 8.654 2.489 13-.5a3392.746 3392.746 0 0 0 37.5-40.5 101.815 101.815 0 0 1 15.5-14l2 .5a148.31 148.31 0 0 0 14 15 341.539 341.539 0 0 0-21.5 22.5c-.678 3.721-.511 7.388.5 11Z"/><path style="opacity:1" fill="#030201" d="M352.5 212.5c33.341.173 49.508 16.839 48.5 50-7.688 25.601-24.854 36.768-51.5 33.5-26.86-9.9-36.693-28.734-29.5-56.5 6.659-14.073 17.493-23.073 32.5-27Z"/><path style="opacity:1" fill="#c7a21b" d="M352.5 230.5c5.828-.45 11.495.216 17 2 .605 14.927-6.061 25.427-20 31.5-3.946 1.324-7.946 1.991-12 2-5.883-16.403-.883-28.236 15-35.5Z"/><path style="opacity:1" fill="#7d641d" d="M383.5 253.5c.934 7.993-1.732 14.826-8 20.5-5.281 4.317-11.281 5.983-18 5 11.801-5.301 20.467-13.801 26-25.5Z"/><path style="opacity:1" fill="#fcf3d3" d="M519.5 380.5a290.611 290.611 0 0 1-9 33 35.17 35.17 0 0 1-10 5 5770.366 5770.366 0 0 0 12-47.5c.333-2.667-.667-4.667-3-6a98.777 98.777 0 0 1-12-4.5c-.333-32.007 0-64.007 1-96a156.81 156.81 0 0 1 17 10 2595.272 2595.272 0 0 1 1.5 72 625.229 625.229 0 0 1 2.5 34Z"/><path style="opacity:1" fill="#fbfbfb" d="M294.5 315.5a5000.015 5000.015 0 0 0 93 24 997.749 997.749 0 0 1-20.5 79 2341.513 2341.513 0 0 1-40.5 21.5 152.54 152.54 0 0 0-6 22.5 683.218 683.218 0 0 1-30.5-8 296.383 296.383 0 0 1 8.5-37c.51-1.588 1.51-2.755 3-3.5a2224.914 2224.914 0 0 1 39.5-20.5 564.867 564.867 0 0 1 8.5-32 2126.874 2126.874 0 0 0-30.5-9 398.981 398.981 0 0 0-8.5 33 193.636 193.636 0 0 1-32-8.5 1663.43 1663.43 0 0 0 16-61.5Z"/><path style="opacity:1" fill="#ede5c7" d="M276.5 345.5a4.934 4.934 0 0 1 3 .5 138.165 138.165 0 0 1-3 8.5v-9Z"/><path style="opacity:1" fill="#fdf4d4" d="M442.5 393.5v30a513.977 513.977 0 0 0-32.5 18 357.41 357.41 0 0 0-9 31 1177.502 1177.502 0 0 1-13.5 51.5c.018 4.347 2.018 7.347 6 9l28 7c2.667.667 5.333.667 8 0 1.833-.5 3-1.667 3.5-3.5a791.034 791.034 0 0 0 9.5-38c-.327 39.073.006 78.073 1 117h-168a3221.987 3221.987 0 0 0 1-113 560.793 560.793 0 0 1 32 8c3.079-.3 5.579-1.633 7.5-4a13963.26 13963.26 0 0 1 16-60 1297.793 1297.793 0 0 0 42-24 6186.115 6186.115 0 0 0 20-75c2.804-1.844 5.97-2.511 9.5-2a713.317 713.317 0 0 1-14.5 57c-1.723 5.746-.223 10.246 4.5 13.5a2342.527 2342.527 0 0 0 32.5 8.5c4.218-.551 6.884-2.884 8-7a582.046 582.046 0 0 0 6-23c.671-.752 1.504-1.086 2.5-1Z"/><path style="opacity:1" fill="#fbfbfb" d="M411.5 346.5a9480.803 9480.803 0 0 1 93 24 2297.682 2297.682 0 0 1-21 79l-40 21a267.456 267.456 0 0 0-6.5 22 3.647 3.647 0 0 1-1.5 1 502.325 502.325 0 0 1-30-9l10.5-38c13.635-7.319 27.302-14.652 41-22a2395.468 2395.468 0 0 0 9.5-32.5 1062.486 1062.486 0 0 1-31-8.5 579.785 579.785 0 0 0-9 32.5 485.467 485.467 0 0 1-30-7 3.943 3.943 0 0 1-1-2 2693.515 2693.515 0 0 0 16-60.5Z"/><path style="opacity:1" fill="#faf1d1" d="M276.5 470.5v-85a435.657 435.657 0 0 1 31.5 8c4.349-.021 7.349-2.021 9-6l7-26a485.463 485.463 0 0 1 14.5 4.5c.339 7.825-1.328 15.325-5 22.5l-37 19.5-4.5 4.5a2801.011 2801.011 0 0 1-15.5 58Z"/><path style="opacity:.998" fill="#060606" d="M544.5 373.5a322.632 322.632 0 0 0 23 6 336.346 336.346 0 0 1 17 5 794.329 794.329 0 0 1 38 9.5c4.333 1.161 6.333 3.995 6 8.5a572.953 572.953 0 0 1-5 23 2920.284 2920.284 0 0 1-4 15 372.998 372.998 0 0 0-7 26 89.944 89.944 0 0 1-5 18 3571.16 3571.16 0 0 0-12 8 116.605 116.605 0 0 0-13 6 228.198 228.198 0 0 1-16 8.5c-2.164 6.801-4.33 13.635-6.5 20.5l-10 40c-2 2.667-4.667 4-8 4a111.984 111.984 0 0 1-14.5-3 33.691 33.691 0 0 0-9-2 944.774 944.774 0 0 0-10-3.5c-2.667-2-4-4.667-4-8a678.572 678.572 0 0 0 7.5-30.5 18.924 18.924 0 0 1 3-5c.12-6.562 1.287-12.895 3.5-19 1.133-5.48 2.8-11.146 5-17-.172-5.497 1.828-9.997 6-13.5a1036.794 1036.794 0 0 0 38-20.5 267.732 267.732 0 0 0 6-22 306.322 306.322 0 0 0-17-3c-1.822 7.96-3.656 15.96-5.5 24-1.161 4.333-3.995 6.333-8.5 6a226.168 226.168 0 0 1-34-8.5c-4.49-4.63-5.157-9.797-2-15.5a314.37 314.37 0 0 0 4-17 290.611 290.611 0 0 0 9-33c.105-4.6 2.105-8.1 6-10.5 6.595-.181 12.928.986 19 3.5Z"/><path style="opacity:1" fill="#fbfbfb" d="M528.5 377.5a9130.27 9130.27 0 0 1 91 23.5c.928.388 1.595 1.055 2 2a4943.571 4943.571 0 0 0-20.5 76.5 2341.513 2341.513 0 0 1-40.5 21.5 711.605 711.605 0 0 0-8 23.5 498.018 498.018 0 0 0-30-8 1088.54 1088.54 0 0 1 10-38.5 1661.4 1661.4 0 0 1 41-22.5 732.915 732.915 0 0 0 9-31.5c-.405-.945-1.072-1.612-2-2a433.181 433.181 0 0 1-28-7.5 213.342 213.342 0 0 0-8.5 31c-.388.928-1.055 1.595-2 2a1798.12 1798.12 0 0 1-28.5-8l-1-2c5.341-20.035 10.675-40.035 16-60Z"/><path style="opacity:1" fill="#f9d861" d="M442.5 393.5c3.663.766 7.329 1.6 11 2.5 1.68.347 2.68 1.347 3 3a199.027 199.027 0 0 0-5 19 30.995 30.995 0 0 1-9 5.5v-30Z"/><path style="opacity:1" fill="#252121" d="M510.5 413.5a314.37 314.37 0 0 1-4 17 38.525 38.525 0 0 0-9 4c.254-5.595 1.254-10.928 3-16a35.17 35.17 0 0 0 10-5Z"/><path style="opacity:1" fill="#fbfbfb" d="M523.5 483.5a98.758 98.758 0 0 1-12 5.5c-3.512 4.031-7.845 6.531-13 7.5a931.31 931.31 0 0 1-1-61v-1a38.525 38.525 0 0 1 9-4c-3.157 5.703-2.49 10.87 2 15.5a226.168 226.168 0 0 0 34 8.5c4.505.333 7.339-1.667 8.5-6 1.844-8.04 3.678-16.04 5.5-24 5.693.84 11.36 1.84 17 3a267.732 267.732 0 0 1-6 22 1036.794 1036.794 0 0 1-38 20.5c-4.172 3.503-6.172 8.003-6 13.5Z"/><path style="opacity:1" fill="#7d7d7d" d="M497.5 435.5a931.31 931.31 0 0 0 1 61c0 .667-.333 1-1 1a481.12 481.12 0 0 1 0-62Z"/><path style="opacity:1" fill="#7b7768" d="M178.5 438.5c0-.667.333-1 1-1a66.641 66.641 0 0 1 0 23c.325-7.519-.008-14.852-1-22Z"/><path style="opacity:1" fill="#f7f7f7" d="M286.5 463.5a2278.743 2278.743 0 0 0 29 7.5c.928.388 1.595 1.055 2 2a1962.827 1962.827 0 0 0-8 29.5 315.278 315.278 0 0 1-30.5-8 349.253 349.253 0 0 1 7.5-31Z"/><path style="opacity:1" fill="#242021" d="M523.5 483.5c-2.2 5.854-3.867 11.52-5 17a113.463 113.463 0 0 0-21 11v-14c.667 0 1-.333 1-1 5.155-.969 9.488-3.469 13-7.5a98.758 98.758 0 0 0 12-5.5Z"/><path style="opacity:1" fill="#fdf4d4" d="M607.5 484.5c-.166 6.675 0 13.342.5 20 .414.457.914.791 1.5 1a3571.518 3571.518 0 0 1 0 169c-1.671 2.01-2.338 4.343-2 7-3.064 1.19-5.731 2.857-8 5h-3v3a58.97 58.97 0 0 0-11 3v3c-1.859-.039-3.192.794-4 2.5a12.93 12.93 0 0 1-5 .5v3c-2.582-.475-4.582.192-6 2-2.281 1.928-4.947 2.928-8 3v3h-6v3c-4.045-.073-7.378 1.427-10 4.5l1 1a118.288 118.288 0 0 0-17 7.5 10.756 10.756 0 0 0-2.5 3l-1-1c-1.049 1.607-2.549 2.273-4.5 2v3h-6v3h-5v3c-2.524-.071-4.524.929-6 3-2.12-1.372-3.12-.705-3 2a12.93 12.93 0 0 0-5 .5 101.657 101.657 0 0 0-10 7.5 9.108 9.108 0 0 1-5 1v3c-2.51-.446-4.51.22-6 2-2.216.703-4.049 2.036-5.5 4-1.813-1.109-2.646-.442-2.5 2a12.93 12.93 0 0 0-5 .5c-1.497 1.871-3.497 2.871-6 3-1.307 2.324-3.307 3.657-6 4l2 1a12.93 12.93 0 0 1-5 .5v3a9.86 9.86 0 0 0-6 1 35.217 35.217 0 0 1-8 4v3h-6v3h-6v3a8.43 8.43 0 0 0-4 .5l-5 5c-1.284.684-2.451.517-3.5-.5-1.263 2.968-3.263 3.968-6 3a2.428 2.428 0 0 0-.5 2h-12c-.507-1.359-1.507-2.359-3-3a137.913 137.913 0 0 0-11-4v-3c-2.133-1.386-5.133-2.386-9-3v-3h-5v-3c-3.005.247-5.505-.753-7.5-3l-1 1a4.934 4.934 0 0 1-.5-3h-6v-3h-5v-3h-6v-3c-5.922-1.727-11.089-4.727-15.5-9-.718.951-1.551 1.117-2.5.5 1.333-.667 1.333-1.333 0-2a12.93 12.93 0 0 0-5-.5v-3a58.97 58.97 0 0 1-11-3v-3c-8.654-3.265-16.321-6.932-23-11v-3h-6v-3h-5v-3a8.43 8.43 0 0 1-4-.5c-4.85-3.699-10.184-6.199-16-7.5v-3h-6v-3c-2.092-.061-3.592-1.061-4.5-3-1.299.466-2.799.466-4.5 0v-3c-1.788.285-3.455-.048-5-1-2.158-3.144-5.158-4.477-9-4v-3a12.93 12.93 0 0 1-5-.5c-2.625-3.031-6.125-5.864-10.5-8.5-2.537.677-4.537-.323-6-3l-1 1c-1.667-1-3-2.333-4-4-1.049 1.017-2.216 1.184-3.5.5l1-1a15.645 15.645 0 0 1-4-2.5 241.046 241.046 0 0 1-1-31c5.676-.166 11.343.001 17 .5 2.25.611 3.917 1.944 5 4a44.11 44.11 0 0 1 13.5 6.5l1 21c.5 1.833 1.667 3 3.5 3.5 13.741.184 27.408.684 41 1.5a565.649 565.649 0 0 0 48 27.5c6.973 5.651 14.64 9.984 23 13 1.374 3.683 4.041 5.349 8 5a279.412 279.412 0 0 1 19 12c4.871 1.741 9.204 4.408 13 8a35.157 35.157 0 0 1 10 5 66.364 66.364 0 0 0 9.5 2.5c5.889-.966 11.389-2.799 16.5-5.5 5.239-4.798 11.239-8.131 18-10 4.933-4.604 10.6-7.938 17-10l4-4a319.99 319.99 0 0 0 46-27 91.311 91.311 0 0 0 23-13 157.436 157.436 0 0 0 27-15 24.569 24.569 0 0 1 8-3c6.951-5.974 14.618-10.641 23-14 6.616-3.612 11.449-8.779 14.5-15.5.5-49.999.667-99.999.5-150a3571.16 3571.16 0 0 1 12-8Z"/><path style="opacity:1" fill="#242021" d="M595.5 492.5c.167 50.001 0 100.001-.5 150-3.051 6.721-7.884 11.888-14.5 15.5-8.382 3.359-16.049 8.026-23 14a24.569 24.569 0 0 0-8 3 157.436 157.436 0 0 1-27 15 91.311 91.311 0 0 1-23 13 319.99 319.99 0 0 1-46 27l-4 4c-6.4 2.062-12.067 5.396-17 10-6.761 1.869-12.761 5.202-18 10-5.111 2.701-10.611 4.534-16.5 5.5a66.364 66.364 0 0 1-9.5-2.5 35.157 35.157 0 0 0-10-5c-3.796-3.592-8.129-6.259-13-8a279.412 279.412 0 0 0-19-12c-3.959.349-6.626-1.317-8-5-8.36-3.016-16.027-7.349-23-13a565.649 565.649 0 0 1-48-27.5 116.8 116.8 0 0 0 21-1c1.014 1.174 2.347 1.84 4 2a134.315 134.315 0 0 1 13 8.5c4.758 1.884 9.092 4.551 13 8 6.799 1.87 12.799 5.203 18 10 6.783 2.76 13.117 6.427 19 11 5.325 1.003 9.658 3.67 13 8l9 3c2.457 3.058 5.457 5.392 9 7a97.288 97.288 0 0 1 12 5.5 23356.745 23356.745 0 0 0 182-104.5 4.457 4.457 0 0 1 2-1.5 2597.035 2597.035 0 0 0 0-144 116.605 116.605 0 0 1 13-6Z"/><path style="opacity:1" fill="#f8f8f8" d="M402.5 494.5a248.843 248.843 0 0 1 30 8l1 2.5c-2.265 9.56-4.598 19.06-7 28.5a498.018 498.018 0 0 1-30-8l-1-2a689.794 689.794 0 0 0 7-29Z"/><path style="opacity:1" fill="#fdfdfd" d="M582.5 498.5a2597.035 2597.035 0 0 1 0 144 4.457 4.457 0 0 0-2 1.5 23356.745 23356.745 0 0 1-182 104.5 97.288 97.288 0 0 0-12-5.5c-3.543-1.608-6.543-3.942-9-7l-9-3c-3.342-4.33-7.675-6.997-13-8-5.883-4.573-12.217-8.24-19-11-5.201-4.797-11.201-8.13-18-10-3.908-3.449-8.242-6.116-13-8a134.315 134.315 0 0 0-13-8.5l198-2c2.216-.703 4.049-2.036 5.5-4 .181-17.407.681-34.74 1.5-52a84.078 84.078 0 0 1 21-12.5l8.5-6.5c.5-13.996.667-27.996.5-42a111.984 111.984 0 0 0 14.5 3c3.333 0 6-1.333 8-4l10-40c2.17-6.865 4.336-13.699 6.5-20.5a228.198 228.198 0 0 0 16-8.5Z"/><path style="opacity:1" fill="#fcf3d3" d="M518.5 500.5c-2.213 6.105-3.38 12.438-3.5 19a18.924 18.924 0 0 0-3 5 678.572 678.572 0 0 1-7.5 30.5c0 3.333 1.333 6 4 8a944.774 944.774 0 0 1 10 3.5 343.225 343.225 0 0 1-1 37c-4.388.916-8.055 3.082-11 6.5l-7 3.5c-1.993-33.317-2.66-66.983-2-101v-1a113.463 113.463 0 0 1 21-11Z"/><path style="opacity:1" fill="#7e7a6a" d="M497.5 512.5c-.66 34.017.007 67.683 2 101l-2 2a1326.956 1326.956 0 0 1 0-103Z"/><path style="opacity:1" fill="#f8f8f8" d="M519.5 525.5a428.073 428.073 0 0 0 31 7 434.805 434.805 0 0 1-6.5 28c-1.666 2.879-4.166 3.712-7.5 2.5a586.28 586.28 0 0 1-23-6.5c-1.141-1.921-1.308-3.921-.5-6a689.19 689.19 0 0 0 6.5-25Z"/><path style="opacity:1" fill="#242020" d="M518.5 566.5c3.098.256 6.098.922 9 2 .167 14.004 0 28.004-.5 42l-8.5 6.5a84.078 84.078 0 0 0-21 12.5v-14l2-2 7-3.5c2.945-3.418 6.612-5.584 11-6.5a343.225 343.225 0 0 0 1-37Z"/><path style="opacity:1" d="M275.5 615.5h168a4.934 4.934 0 0 1 3 .5c6.577 5.253 6.577 10.586 0 16-58 .667-116 .667-174 0-2.167-.833-3.667-2.333-4.5-4.5-1.767-6.818.733-10.818 7.5-12Z"/><path style="opacity:1" fill="#7f7f7f" d="M288.5 685.5h202l-198 2c-1.653-.16-2.986-.826-4-2Z"/><path style="opacity:1" fill="#fef6d5" d="M599.5 686.5c1.333.667 1.333.667 0 0ZM570.5 703.5c1.333.667 1.333.667 0 0ZM476.5 757.5c1.333.667 1.333.667 0 0Z"/></svg>