<?xml version="1.0" encoding="UTF-8"?><svg xmlns="http://www.w3.org/2000/svg" width="800" height="800" style="shape-rendering:geometricPrecision;text-rendering:geometricPrecision;image-rendering:optimizeQuality;fill-rule:evenodd;clip-rule:evenodd"><path style="opacity:1" fill="#f45b1d" d="M576.5-.5h9a2.429 2.429 0 0 0 .5 2c1.049-1.017 2.216-1.184 3.5-.5a20.495 20.495 0 0 0 2.5 3.5c1.356-.88 2.856-1.214 4.5-1v3c2.822 1.432 6.489 2.432 11 3v3c2.092.061 3.592 1.061 4.5 3 2.537-.677 4.537.323 6 3 2.361-.566 4.194.434 5.5 3l2-1c.35 2.067 2.017 3.067 5 3v3h6v3h5v3h6v3a27.247 27.247 0 0 0 9 3c-.219 1.175.114 2.175 1 3a6.846 6.846 0 0 1 4-1v3a8.435 8.435 0 0 1 4 .5c-1.154.914-.987 1.747.5 2.5 1.299-.466 2.799-.466 4.5 0v3h6v3h5v3a428.986 428.986 0 0 0 20 8.5l-2 1c2.522.61 4.522 1.943 6 4 1.634.493 3.301.66 5 .5v3c2.908-.238 5.242.762 7 3 .951-.826 1.951-.992 3-.5l-1 1a6.977 6.977 0 0 1 3.5 2.5l1-1c.483.948.649 1.948.5 3h6v3h5v3c1.951-.273 3.451.393 4.5 2l1-1c6 4.386 12.5 7.886 19.5 10.5l-1 1c1.525 1.009 3.192 1.509 5 1.5v3h6v3h5v3c2.041.354 3.874.354 5.5 0 .483.948.649 1.948.5 3 2.836 1.276 5.836 1.942 9 2a7971.884 7971.884 0 0 1 2 251c-3.013-.128-5.513.872-7.5 3-2.411-1.653-3.578-.987-3.5 2-1.701.466-3.201.466-4.5 0-3.844 1.975-7.177 4.642-10 8l-1-1c-1.049 1.607-2.549 2.273-4.5 2v3c-3.937.204-7.604 1.204-11 3 .381 2.442-.286 3.109-2 2-.886.825-1.219 1.825-1 3h-6v3a12.93 12.93 0 0 0-5 .5c-1.079 2.043-2.746 3.376-5 4l1 1a12.93 12.93 0 0 1-5 .5v3a9.86 9.86 0 0 0-6 1c-3.423 1.192-6.256 3.192-8.5 6l-1-1c-1.049 1.607-2.549 2.273-4.5 2v3h-6v3h-5v3c-2.185.388-4.018 1.388-5.5 3-2.278-1.12-3.778-.287-4.5 2.5a101.955 101.955 0 0 0-13 5.5v3h-6v3h-6v3c-1.788-.285-3.455.048-5 1 1.129 2.029.629 2.363-1.5 1-1.712 3.452-4.212 4.452-7.5 3v3c-3.096-.593-5.429.407-7 3a47.25 47.25 0 0 1-7 3v3h-4c-.297-7.42.036-14.754 1-22a1248.344 1248.344 0 0 0 65-37.5c5.325-1.003 9.658-3.67 13-8a377.475 377.475 0 0 0 23-12l8-6a190.921 190.921 0 0 0 21.5-10.5c.667-76 .667-152 0-228a36.078 36.078 0 0 0-3.5-4.5c-3.29-.253-6.29-1.253-9-3a29746.604 29746.604 0 0 1-46-28 457.332 457.332 0 0 0-22-11l-4-4a161.879 161.879 0 0 1-33-19c-6.4-2.062-12.067-5.396-17-10a1126.1 1126.1 0 0 0-31-16c-2.365-3.714-5.698-5.714-10-6-7.082-6.364-15.416-9.031-25-8a12271.425 12271.425 0 0 1-129 74c-7.588 4.924-7.921 10.257-1 16a287.246 287.246 0 0 1 25 16 496.946 496.946 0 0 1 33 18c4.333.667 8.667.667 13 0a3162.857 3162.857 0 0 1 66-36.5 4261.045 4261.045 0 0 0 114 65.5c.826 17.093 1.326 34.26 1.5 51.5l2 2c.5 28.331.667 56.665.5 85a12.93 12.93 0 0 0-5 .5 508.873 508.873 0 0 1-51 29.5c-.167-14.004 0-28.004.5-42 11.653-5.247 16.319-14.247 14-27-2.924-7.258-8.091-12.092-15.5-14.5a544.417 544.417 0 0 0-33-.5c.166-10.339 0-20.672-.5-31a111.89 111.89 0 0 0-25.5-14.5l-4-4a117.669 117.669 0 0 1-17-8c-3.671-4.417-8.338-7.083-14-8a928.605 928.605 0 0 0-68-39 77.598 77.598 0 0 0-23-13c-2.508-3.042-5.508-5.376-9-7a312.387 312.387 0 0 0-27-14c-1.918-2.928-4.585-4.594-8-5a952.444 952.444 0 0 0-50-30A6293.094 6293.094 0 0 1 237 23.5a138.219 138.219 0 0 1-14.5 1.5 583.354 583.354 0 0 0-33 19 175.013 175.013 0 0 0-28 16l-4 1-23 15a336.071 336.071 0 0 0-40 23c-5.503 1.171-10.17 3.837-14 8a133.395 133.395 0 0 0-32 18c-2.71 1.747-5.71 2.747-9 3-1.574 1.826-2.407 3.993-2.5 6.5a6443.111 6443.111 0 0 0 1 226l9.5 5.5c1.374 3.683 4.04 5.349 8 5a4805.221 4805.221 0 0 0 105 60.5 86.749 86.749 0 0 1 1 18c-8.178-1.984-15.845-4.317-23-7v-3h-6v-3h-3v-3h-6v-3h-5v-3c-2.921.354-5.254-.646-7-3-1.714 1.109-2.381.442-2-2a58.97 58.97 0 0 1-11-3v-3a27.267 27.267 0 0 0-9-3v-3c-2.908.238-5.242-.762-7-3a3.647 3.647 0 0 0-1.5 1c-1.667-1-3-2.333-4-4l-1 1a4.932 4.932 0 0 1-.5-3h-6v-3h-5v-3a544.412 544.412 0 0 1-29-14v-3a58.967 58.967 0 0 1-11-3v-3h-6v-3c-4.013-1.674-8.013-3.341-12-5 .008-83.648.008-167.148 0-250.5a169.104 169.104 0 0 0 15-5.5v-3a58.967 58.967 0 0 0 11-3v-3a417.79 417.79 0 0 0 15-7 32.686 32.686 0 0 0 8.5-6l1 1c1.049-1.607 2.549-2.273 4.5-2v-3a59.029 59.029 0 0 1 11-3 4.932 4.932 0 0 1 .5-3l1 1c2.015-3.065 4.515-4.065 7.5-3v-3h5v-3c1.7.16 3.366-.007 5-.5 1.478-2.057 3.478-3.39 6-4l-2-1a18.436 18.436 0 0 1 6-.5v-3a87.51 87.51 0 0 0 14-5v-3h6v-3h5v-3c1.701-.466 3.201-.466 4.5 0 3.279-4.047 7.946-7.047 14-9a18.264 18.264 0 0 0 5-4l1 1c1.049-1.607 2.549-2.273 4.5-2v-3h5v-3h6v-3c4.612-1.195 9.279-2.862 14-5v-3c1.701-.466 3.201-.466 4.5 0 .908-1.939 2.408-2.939 4.5-3v-3h6v-3c1.788.285 3.455-.048 5-1a38.767 38.767 0 0 0 7-4.5 49.25 49.25 0 0 1 14 0c2.025 1.677 4.359 2.677 7 3-1.134 1.016-.801 1.683 1 2l5 1-1 1c2.622 3.073 5.955 4.573 10 4.5v3h6v3c3.191.262 5.858 1.596 8 4a9.864 9.864 0 0 0 6 1v3c3.58 1.22 7.247 2.386 11 3.5l-2 1c2.767.678 4.934 2.178 6.5 4.5l1-1c3.769 1.797 7.102 4.13 10 7a3.942 3.942 0 0 1 2-1c1.482 1.612 3.315 2.612 5.5 3v3h6v3h5v3h6v3a87.51 87.51 0 0 0 14 5v3c1.699-.16 3.366.007 5 .5l-1 1c1.525 1.009 3.192 1.509 5 1.5v3h6v3h5v3c2.985-1.065 5.485-.065 7.5 3l1-1c.483.948.649 1.948.5 3h5v3h6v3c2.133 1.386 5.133 2.386 9 3v3c2.908-.238 5.242.762 7 3l2-1c.35 2.067 2.017 3.067 5 3v3h6v3c2.516-.255 4.85-1.089 7-2.5a626.207 626.207 0 0 1 29-17c.837-1.011 1.17-2.178 1-3.5 4.493-.216 7.993-2.216 10.5-6 1.011.837 2.178 1.17 3.5 1v-3a59.031 59.031 0 0 0 11-3v-3c1.808.009 3.475-.491 5-1.5l-1-1a12.935 12.935 0 0 1 5-.5v-3a9.864 9.864 0 0 0 6-1 35.213 35.213 0 0 1 8-4v-3h6v-3a59.031 59.031 0 0 1 11-3v-3c1.808.009 3.475-.491 5-1.5-1.388-.89-1.222-1.39.5-1.5 2.071 1.167 3.571.5 4.5-2 6.434-2.343 12.767-5.343 19-9v-3a59.031 59.031 0 0 1 11-3 4.934 4.934 0 0 1 .5-3l1 1c1.995-2.247 4.495-3.247 7.5-3v-3h5v-3h6v-3c1.808.009 3.475-.491 5-1.5l-1-1a12.936 12.936 0 0 1 5-.5v-3c3.552.188 6.219-1.145 8-4Z"/><path style="opacity:1" fill="#283338" d="M630.5 434.5c-1.539-14.133-2.206-28.466-2-43 0-10.505.333-20.839 1-31-.333 20.344 0 40.678 1 61a2997.006 2997.006 0 0 0 102-59.5 84.545 84.545 0 0 1 18-8.5 7901.316 7901.316 0 0 0-1.5-216 2129.254 2129.254 0 0 1-37.5-21.5c-3.415-.406-6.082-2.072-8-5a91.311 91.311 0 0 1-23-13 457.332 457.332 0 0 0-22-11c-2.508-3.042-5.508-5.376-9-7a457.332 457.332 0 0 1-22-11l-24-15c-3.415-.406-6.082-2.072-8-5a90.401 90.401 0 0 0-14-6c-5.722-6.435-12.722-8.768-21-7-7.36 5.663-15.36 9.996-24 13-3.619 3.977-7.952 6.644-13 8-2.537 2.546-5.537 4.212-9 5l-4 4-10 4a2551.356 2551.356 0 0 0-60 36 7185.005 7185.005 0 0 1 26 16 114.065 114.065 0 0 0 14 6c4.2 3.6 8.867 6.433 14 8.5a684.54 684.54 0 0 1 19-8.5 43.593 43.593 0 0 1 13-8c2.365-3.714 5.698-5.714 10-6a705.673 705.673 0 0 1 21-12c4.719-2.307 9.719-2.974 15-2a113.107 113.107 0 0 0 28 15l5 5a182.852 182.852 0 0 1 35 20 193.115 193.115 0 0 1 32 19 83.62 83.62 0 0 1 18.5 9.5l3 5c.667 48.667.667 97.333 0 146-5.181 6.173-11.681 10.34-19.5 12.5a2119.372 2119.372 0 0 0-45 27.5v-15a508.873 508.873 0 0 0 51-29.5 12.93 12.93 0 0 1 5-.5c.167-28.335 0-56.669-.5-85l-2-2c-.174-17.24-.674-34.407-1.5-51.5a4261.045 4261.045 0 0 1-114-65.5 3162.857 3162.857 0 0 0-66 36.5 42.479 42.479 0 0 1-13 0 496.946 496.946 0 0 0-33-18 287.246 287.246 0 0 0-25-16c-6.921-5.743-6.588-11.076 1-16a12271.425 12271.425 0 0 0 129-74c9.584-1.031 17.918 1.636 25 8 4.302.286 7.635 2.286 10 6a1126.1 1126.1 0 0 1 31 16c4.933 4.604 10.6 7.938 17 10a161.879 161.879 0 0 0 33 19l4 4a457.332 457.332 0 0 1 22 11 29746.604 29746.604 0 0 0 46 28c2.71 1.747 5.71 2.747 9 3a36.078 36.078 0 0 1 3.5 4.5c.667 76 .667 152 0 228a190.921 190.921 0 0 1-21.5 10.5l-8 6a377.475 377.475 0 0 1-23 12c-3.342 4.33-7.675 6.997-13 8a1248.344 1248.344 0 0 1-65 37.5Z"/><path style="opacity:1" fill="#293338" d="M595.5 260.5h-12c.331-8.36-.002-16.693-1-25a10.756 10.756 0 0 1-3-2.5 478.277 478.277 0 0 0-22-11l-4-4a299.672 299.672 0 0 1-27-14 77.598 77.598 0 0 0-23-13c-2.508-3.042-5.508-5.376-9-7-5.521-1.096-10.187-3.762-14-8l-4-1a327.567 327.567 0 0 0-42-24c-4.758-4.768-10.425-7.768-17-9-3.065-4.125-7.065-6.791-12-8l-6-5a546.6 546.6 0 0 0-35-18 108.394 108.394 0 0 1-19-13 1516.16 1516.16 0 0 1-91-52l-20-10a15.28 15.28 0 0 1-4.5-1.5A112.066 112.066 0 0 0 206.5 48a190.467 190.467 0 0 0-22 11c-3.492 1.624-6.492 3.958-9 7l-10 4-4 4a520.666 520.666 0 0 0-59 34l-9 3c-3.796 3.592-8.13 6.259-13 8A361.546 361.546 0 0 1 48 137.5c-.667 72-.667 144 0 216a11006.697 11006.697 0 0 0 113.5 65h1c-.613 4.437-1.28 8.77-2 13a4805.221 4805.221 0 0 1-105-60.5c-3.96.349-6.626-1.317-8-5l-9.5-5.5a6443.111 6443.111 0 0 1-1-226c.093-2.507.926-4.674 2.5-6.5 3.29-.253 6.29-1.253 9-3a133.395 133.395 0 0 1 32-18c3.83-4.163 8.497-6.829 14-8a336.071 336.071 0 0 1 40-23l23-15 4-1a175.013 175.013 0 0 1 28-16 583.354 583.354 0 0 1 33-19c4.872-.246 9.705-.746 14.5-1.5A6293.094 6293.094 0 0 0 349.5 87a952.444 952.444 0 0 1 50 30c3.415.406 6.082 2.072 8 5a312.387 312.387 0 0 1 27 14c3.492 1.624 6.492 3.958 9 7a77.598 77.598 0 0 1 23 13 928.605 928.605 0 0 1 68 39c5.662.917 10.329 3.583 14 8a117.669 117.669 0 0 0 17 8l4 4a111.89 111.89 0 0 1 25.5 14.5c.5 10.328.666 20.661.5 31Z"/><path style="opacity:1" fill="#fdfdfd" d="M583.5 260.5h-70c-3.223-2.061-6.223-4.561-9-7.5a206.573 206.573 0 0 1-26-13.5 9.86 9.86 0 0 1 1-6c15.147-3.29 21.647-12.623 19.5-28-2.924-7.258-8.091-12.092-15.5-14.5-30.332-.5-60.665-.667-91-.5-5.204-2.959-10.204-6.459-15-10.5-6.946-1.608-12.946-4.942-18-10l-10-4c-3.25-3.637-7.25-5.97-12-7-5.396-5.42-11.73-9.087-19-11a331.67 331.67 0 0 0-40-23 846.02 846.02 0 0 1-33-20c-3.415-.406-6.082-2.072-8-5a42.498 42.498 0 0 0-13 0 226.438 226.438 0 0 0-29 17c-3.415.406-6.082 2.072-8 5a90.42 90.42 0 0 1-14 6c-3.574 3.951-7.907 6.618-13 8-6.962 5.648-14.628 9.981-23 13a146.497 146.497 0 0 1-31 18 6.978 6.978 0 0 0-2.5 3.5 5697.651 5697.651 0 0 0 0 151 76.322 76.322 0 0 0 18.5 10.5 237.326 237.326 0 0 0 25 14.5c2.394 6.059 6.727 10.059 13 12a916.283 916.283 0 0 1 1 60 11006.697 11006.697 0 0 1-113.5-65c-.667-72-.667-144 0-216A361.546 361.546 0 0 0 80.5 119c4.87-1.741 9.204-4.408 13-8l9-3a520.666 520.666 0 0 1 59-34l4-4 10-4c2.508-3.042 5.508-5.376 9-7a190.467 190.467 0 0 1 22-11A112.066 112.066 0 0 1 230 34.5a15.28 15.28 0 0 0 4.5 1.5l20 10a1516.16 1516.16 0 0 0 91 52 108.394 108.394 0 0 0 19 13 546.6 546.6 0 0 1 35 18l6 5c4.935 1.209 8.935 3.875 12 8 6.575 1.232 12.242 4.232 17 9a327.567 327.567 0 0 1 42 24l4 1c3.813 4.238 8.479 6.904 14 8 3.492 1.624 6.492 3.958 9 7a77.598 77.598 0 0 1 23 13 299.672 299.672 0 0 0 27 14l4 4a478.277 478.277 0 0 1 22 11 10.756 10.756 0 0 0 3 2.5 157.135 157.135 0 0 1 1 25Z"/><path style="opacity:1" fill="#fdfefe" d="M629.5 360.5v-1a2119.372 2119.372 0 0 1 45-27.5c7.819-2.16 14.319-6.327 19.5-12.5.667-48.667.667-97.333 0-146l-3-5a83.62 83.62 0 0 0-18.5-9.5 193.115 193.115 0 0 0-32-19 182.852 182.852 0 0 0-35-20l-5-5a113.107 113.107 0 0 1-28-15c-5.281-.974-10.281-.307-15 2a705.673 705.673 0 0 0-21 12c-4.302.286-7.635 2.286-10 6a43.593 43.593 0 0 0-13 8 684.54 684.54 0 0 0-19 8.5 50.162 50.162 0 0 1-14-8.5 114.065 114.065 0 0 1-14-6 7185.005 7185.005 0 0 0-26-16 2551.356 2551.356 0 0 1 60-36l10-4 4-4c3.463-.788 6.463-2.454 9-5 5.048-1.356 9.381-4.023 13-8 8.64-3.004 16.64-7.337 24-13 8.278-1.768 15.278.565 21 7a90.401 90.401 0 0 1 14 6c1.918 2.928 4.585 4.594 8 5l24 15a457.332 457.332 0 0 0 22 11c3.492 1.624 6.492 3.958 9 7a457.332 457.332 0 0 1 22 11 91.311 91.311 0 0 0 23 13c1.918 2.928 4.585 4.594 8 5a2129.254 2129.254 0 0 0 37.5 21.5 7901.316 7901.316 0 0 1 1.5 216 84.545 84.545 0 0 0-18 8.5 2997.006 2997.006 0 0 1-102 59.5 930.856 930.856 0 0 1-1-61Z"/><path style="opacity:1" fill="#273338" d="M392.5 190.5h-23c-8.036-5.848-16.703-10.681-26-14.5a445.595 445.595 0 0 0-55-31 301.986 301.986 0 0 0-51-30l-4.5-4.5c-2.09.652-4.257.819-6.5.5a368.678 368.678 0 0 1-44 26c-3.83 4.163-8.497 6.829-14 8a81.82 81.82 0 0 1-19 11c-5.201 4.797-11.201 8.13-18 10-5.669 5.02-11.836 9.187-18.5 12.5-.5 45.332-.667 90.665-.5 136 5.301 1.324 9.968 3.824 14 7.5l10 4c2.468 3.148 5.468 5.315 9 6.5a529.687 529.687 0 0 1 2 14 237.326 237.326 0 0 1-25-14.5 76.322 76.322 0 0 1-18.5-10.5 5697.651 5697.651 0 0 1 0-151 6.978 6.978 0 0 1 2.5-3.5 146.497 146.497 0 0 0 31-18c8.372-3.019 16.038-7.352 23-13 5.093-1.382 9.426-4.049 13-8a90.42 90.42 0 0 0 14-6c1.918-2.928 4.585-4.594 8-5a226.438 226.438 0 0 1 29-17 42.498 42.498 0 0 1 13 0c1.918 2.928 4.585 4.594 8 5a846.02 846.02 0 0 0 33 20 331.67 331.67 0 0 1 40 23c7.27 1.913 13.604 5.58 19 11 4.75 1.03 8.75 3.363 12 7l10 4c5.054 5.058 11.054 8.392 18 10 4.796 4.041 9.796 7.541 15 10.5Z"/><path style="opacity:1" fill="#f55b1d" d="M369.5 190.5a371.687 371.687 0 0 1-38-1c-3.468-3.889-7.801-6.389-13-7.5l-11-7a25.238 25.238 0 0 0-10 0l-2.5 2.5c-1.049-1.017-2.216-1.184-3.5-.5-5.981 4.997-12.648 8.664-20 11-4.461 5.477-10.128 8.811-17 10a490.08 490.08 0 0 1-48 29l-4.5 4.5c-.5 28.665-.667 57.331-.5 86-13.337-.167-26.671 0-40 .5l-6 3c-3.959 3.51-7.292 7.343-10 11.5-3.532-1.185-6.532-3.352-9-6.5l-10-4c-4.032-3.676-8.699-6.176-14-7.5-.167-45.335 0-90.668.5-136 6.664-3.313 12.831-7.48 18.5-12.5 6.799-1.87 12.799-5.203 18-10a81.82 81.82 0 0 0 19-11c5.503-1.171 10.17-3.837 14-8a368.678 368.678 0 0 0 44-26c2.243.319 4.41.152 6.5-.5l4.5 4.5a301.986 301.986 0 0 1 51 30 445.595 445.595 0 0 1 55 31c9.297 3.819 17.964 8.652 26 14.5Z"/><path style="opacity:1" fill="#273238" d="M331.5 189.5c-7.148.992-14.481 1.325-22 1-1.403-1.431-3.069-2.598-5-3.5-1.333-.667-2.667-.667-4 0l-20 10-4 4c-7.273 1.918-13.607 5.585-19 11a24.569 24.569 0 0 0-8 3c-11.679 6.838-23.345 13.672-35 20.5a1681.8 1681.8 0 0 0-1 82h-12c-.167-28.669 0-57.335.5-86l4.5-4.5a490.08 490.08 0 0 0 48-29c6.872-1.189 12.539-4.523 17-10 7.352-2.336 14.019-6.003 20-11 1.284-.684 2.451-.517 3.5.5l2.5-2.5a25.238 25.238 0 0 1 10 0l11 7c5.199 1.111 9.532 3.611 13 7.5Z"/><path style="opacity:1" fill="#fdfdfd" d="M309.5 190.5c-13.871 3.734-19.704 12.734-17.5 27 3.019 9.515 9.519 14.848 19.5 16a21.127 21.127 0 0 1 1 9 319.961 319.961 0 0 0-29 17.5 24.569 24.569 0 0 1-8 3c-1.5 2.167-3.333 4-5.5 5.5-.5 15.997-.667 31.997-.5 48h-55v-81c11.655-6.828 23.321-13.662 35-20.5a24.569 24.569 0 0 1 8-3c5.393-5.415 11.727-9.082 19-11l4-4 20-10c1.333-.667 2.667-.667 4 0 1.931.902 3.597 2.069 5 3.5Z"/><path style="opacity:.998" fill="#251f20" d="M331.5 189.5a371.687 371.687 0 0 0 38 1h23c30.335-.167 60.668 0 91 .5 7.409 2.408 12.576 7.242 15.5 14.5 2.147 15.377-4.353 24.71-19.5 28a9.86 9.86 0 0 0-1 6c-.515 4.98.152 9.646 2 14-1.844 1.779-2.51 4.112-2 7h117c11.005-.167 22.005 0 33 .5 7.409 2.408 12.576 7.242 15.5 14.5 2.319 12.753-2.347 21.753-14 27a881.746 881.746 0 0 0-.5 42v16c-.667 10.161-1 20.495-1 31-.206 14.534.461 28.867 2 43a127.773 127.773 0 0 0-1 22 529.904 529.904 0 0 0 1 46c12.24 5.536 16.74 14.869 13.5 28-2.5 6.5-7 11-13.5 13.5a94.41 94.41 0 0 1-20 1.5c-4.805-.987-9.805-1.321-15-1h-12c-7.341.166-14.674 0-22-.5-2.524-1.883-3.858-4.383-4-7.5.044-3.59 1.711-6.09 5-7.5l63-1c3.958-3.245 3.958-6.412 0-9.5a35278.31 35278.31 0 0 0-460-.5c-3.985 3.381-3.985 6.714 0 10 14.329.5 28.663.667 43 .5 111.667-.167 223.334 0 335 .5 2.704 1.86 4.371 4.36 5 7.5-.555 3.287-2.222 5.787-5 7.5a84.902 84.902 0 0 1-13 .5h-148c-8.184-.326-16.184.008-24 1a1502.471 1502.471 0 0 0-77-1h-80c-5.195-.321-10.195.013-15 1a141.831 141.831 0 0 1-26-1.5c-13.156-6.479-17.323-16.646-12.5-30.5 2.596-5.392 6.762-9.058 12.5-11 1-17.654 1.333-35.321 1-53a86.749 86.749 0 0 0-1-18c.72-4.23 1.387-8.563 2-13 .655-20.361-.012-40.361-2-60-6.273-1.941-10.606-5.941-13-12a529.687 529.687 0 0 0-2-14c2.708-4.157 6.041-7.99 10-11.5l6-3c13.329-.5 26.663-.667 40-.5h111v-75a21.127 21.127 0 0 0-1-9c-9.981-1.152-16.481-6.485-19.5-16-2.204-14.266 3.629-23.266 17.5-27 7.519.325 14.852-.008 22-1Z"/><path style="opacity:1" fill="#f55c1c" d="M354.5 206.5c-.914 3.228-1.247 6.561-1 10h-43c-3.958-3.088-3.958-6.255 0-9.5 14.663-.5 29.33-.667 44-.5Z"/><path style="opacity:1" fill="#f57a02" d="M354.5 206.5c42.001-.167 84.001 0 126 .5 3.985 3.286 3.985 6.619 0 10-56.835.832-113.501.665-170-.5h43c-.247-3.439.086-6.772 1-10Z"/><path style="opacity:1" fill="#ee7a05" d="M373.5 233.5v268h-45v-268h45Z"/><path style="opacity:1" fill="#fd9800" d="M373.5 233.5h89v268h-89v-268Z"/><path style="opacity:1" fill="#e2e3e3" d="M214.5 235.5v81h55v1h-56a1681.8 1681.8 0 0 1 1-82Z"/><path style="opacity:1" fill="#283339" d="M478.5 239.5a206.573 206.573 0 0 0 26 13.5c2.777 2.939 5.777 5.439 9 7.5h-22a125.164 125.164 0 0 0-11-7c-1.848-4.354-2.515-9.02-2-14Z"/><path style="opacity:1" fill="#273238" d="M312.5 242.5v14c-1 .333-1.667 1-2 2a637.667 637.667 0 0 1-23 11.5 18.778 18.778 0 0 0-5.5 4.5 881.746 881.746 0 0 0-.5 42v1h-12v-1c-.167-16.003 0-32.003.5-48 2.167-1.5 4-3.333 5.5-5.5a24.569 24.569 0 0 0 8-3 319.961 319.961 0 0 1 29-17.5Z"/><path style="opacity:1" fill="#e5581f" d="M480.5 253.5a125.164 125.164 0 0 1 11 7h-13c-.51-2.888.156-5.221 2-7Z"/><path style="opacity:1" fill="#bf4c1e" d="M312.5 256.5v61h-31v-1h30a841.82 841.82 0 0 0-1-58c.333-1 1-1.667 2-2Z"/><path style="opacity:1" fill="#f55b1d" d="M310.5 258.5a841.82 841.82 0 0 1 1 58h-30c-.167-14.004 0-28.004.5-42a18.778 18.778 0 0 1 5.5-4.5 637.667 637.667 0 0 0 23-11.5Z"/><path style="opacity:1" fill="#9a7c67" d="M524.5 276.5v11h-46v-11h46Z"/><path style="opacity:1" fill="#b9afa7" d="M524.5 276.5c33.668-.167 67.335 0 101 .5 4 3.333 4 6.667 0 10-33.665.5-67.332.667-101 .5v-11Z"/><path style="opacity:1" fill="#231f1f" d="M391.5 278.5c5.242-1.229 9.075.437 11.5 5 .667 15 .667 30 0 45-2.435 4.724-6.269 6.224-11.5 4.5a11.532 11.532 0 0 1-3.5-4.5c-.667-15-.667-30 0-45a27.241 27.241 0 0 1 3.5-5Z"/><path style="opacity:1" fill="#b19c93" d="M524.5 303.5v198h-46v-198h46Z"/><path style="opacity:1" fill="#b9afa7" d="M524.5 303.5h89v198h-89v-198Z"/><path style="opacity:1" fill="#e7331a" d="M209.5 333.5c-.914 3.228-1.247 6.561-1 10h-43c-3.627-2.674-3.96-5.841-1-9.5 14.996-.5 29.996-.667 45-.5Z"/><path style="opacity:1" fill="#e94e17" d="M209.5 333.5h102v10h-103c-.247-3.439.086-6.772 1-10Z"/><path style="opacity:1" fill="#b63d1a" d="M311.5 333.5c.982 3.462 1.315 7.129 1 11-49.17.332-98.17-.001-147-1h146v-10Z"/><path style="opacity:1" fill="#231f20" d="M529.5 348.5c5.135-1.074 8.968.593 11.5 5 .667 15 .667 30 0 45-2.851 4.98-7.018 6.313-12.5 4a12.403 12.403 0 0 1-2.5-4c-.667-15-.667-30 0-45a27.241 27.241 0 0 1 3.5-5ZM555.5 348.5c4.78-.859 8.28.808 10.5 5a528.986 528.986 0 0 1 0 46c-2.911 3.777-6.744 4.944-11.5 3.5a11.532 11.532 0 0 1-3.5-4.5c-.667-15-.667-30 0-45 1.025-2.187 2.525-3.854 4.5-5Z"/><path style="opacity:1" fill="#595657" d="M160.5 358.5c1.988 19.639 2.655 39.639 2 60h-1a916.283 916.283 0 0 0-1-60Z"/><path style="opacity:1" fill="#f23d21" d="M223.5 360.5v45c-5.242-1.229-9.075.437-11.5 5a484.008 484.008 0 0 0 0 44c2.011 5.257 5.844 7.257 11.5 6v41h-46v-141h46Z"/><path style="opacity:1" fill="#f35b1d" d="M223.5 360.5h89v141h-89v-41a19.552 19.552 0 0 1 3.5-4 552.224 552.224 0 0 0 0-47c-.69-1.85-1.856-3.184-3.5-4v-45Z"/><path style="opacity:1" fill="#261f20" d="M223.5 405.5c1.644.816 2.81 2.15 3.5 4a552.224 552.224 0 0 1 0 47 19.552 19.552 0 0 0-3.5 4c-5.656 1.257-9.489-.743-11.5-6a484.008 484.008 0 0 1 0-44c2.425-4.563 6.258-6.229 11.5-5Z"/><path style="opacity:1" fill="#231f1f" d="M241.5 405.5c2.357-.163 4.69.003 7 .5 1.833.5 3 1.667 3.5 3.5a552.224 552.224 0 0 1 0 47c-1.393 2.866-3.726 4.199-7 4-3.274.199-5.607-1.134-7-4a552.224 552.224 0 0 1 0-47c.69-1.85 1.856-3.184 3.5-4Z"/><path style="opacity:1" fill="#272020" d="M265.5 405.5a40.914 40.914 0 0 1 9 .5 11.532 11.532 0 0 1 3.5 4.5c.667 15 .667 30 0 45-4.592 6.179-9.592 6.512-15 1a552.224 552.224 0 0 1 0-47 16.58 16.58 0 0 1 2.5-4Z"/><path style="opacity:1" fill="#38434f" d="M625.5 518.5c-139.002-.333-278.002 0-417 1-1.077 2.974-1.077 5.974 0 9-14.337.167-28.671 0-43-.5-3.985-3.286-3.985-6.619 0-10a35278.31 35278.31 0 0 1 460 .5Z"/><path style="opacity:1" fill="#47525f" d="M625.5 518.5c3.958 3.088 3.958 6.255 0 9.5l-63 1c-3.289 1.41-4.956 3.91-5 7.5h-9c-.629-3.14-2.296-5.64-5-7.5-111.666-.5-223.333-.667-335-.5-1.077-3.026-1.077-6.026 0-9 138.998-1 277.998-1.333 417-1Z"/><path style="opacity:1" fill="#fdfdfd" d="M548.5 536.5h9c.142 3.117 1.476 5.617 4 7.5 7.326.5 14.659.666 22 .5.333 32.673 0 65.34-1 98a7683.65 7683.65 0 0 1-184 106 97.288 97.288 0 0 0-12-5.5c-3.543-1.608-6.543-3.942-9-7-5.662-.917-10.329-3.583-14-8a78.488 78.488 0 0 1-23-13c-3.415-.406-6.082-2.072-8-5-8.372-3.019-16.038-7.352-23-13-5.093-1.382-9.426-4.049-13-8-6.4-2.062-12.067-5.396-17-10a169.642 169.642 0 0 0-28-14c-2.508-3.042-5.508-5.376-9-7a90.42 90.42 0 0 1-14-6l-4-4a46.99 46.99 0 0 1-10.5-5.5c-.5-32.665-.667-65.332-.5-98h56c-.167 21.669 0 43.336.5 65 5.97 6.53 13.137 11.03 21.5 13.5a175.043 175.043 0 0 0 28 16 30.316 30.316 0 0 0 12 7c3.705 4.342 8.372 7.009 14 8a50.886 50.886 0 0 1 10 7 605.838 605.838 0 0 0 38 21c4 .667 8 .667 12 0 6.962-5.648 14.628-9.981 23-13a679.07 679.07 0 0 0 23-15l22-11a83.449 83.449 0 0 1 24-13c6.218-5.632 13.218-9.965 21-13l8.5-6.5 1-50 2-2c.499-4.655.666-9.321.5-14a84.902 84.902 0 0 0 13-.5c2.778-1.713 4.445-4.213 5-7.5Z"/><path style="opacity:1" fill="#f55b1d" d="M201.5 544.5c-.167 34.668 0 69.335.5 104 5.48 4.594 11.647 8.094 18.5 10.5a82.842 82.842 0 0 0 19 11 147.725 147.725 0 0 1 17 12c13.267 5.247 25.6 12.247 37 21a24.569 24.569 0 0 0 8 3 201.636 201.636 0 0 1 27 17l10 4c1.374 3.683 4.041 5.349 8 5a279.412 279.412 0 0 1 19 12c4.871 1.741 9.204 4.408 13 8a35.157 35.157 0 0 1 10 5c3.133.96 6.3 1.793 9.5 2.5a80.226 80.226 0 0 1 10.5-2.5 78.988 78.988 0 0 0 14-9l10-4c4.933-4.604 10.6-7.938 17-10l4-4a319.99 319.99 0 0 0 46-27 91.311 91.311 0 0 0 23-13 157.436 157.436 0 0 0 27-15 24.569 24.569 0 0 1 8-3 219.87 219.87 0 0 1 13-10c8.275-2.564 15.442-7.064 21.5-13.5.113-2.474 1.113-4.474 3-6 .5-32.665.667-65.332.5-98 5.195-.321 10.195.013 15 1 .333 43.005 0 86.005-1 129-1.671 2.01-2.338 4.343-2 7-3.064 1.19-5.731 2.857-8 5h-3v3a58.97 58.97 0 0 0-11 3v3c-1.859-.039-3.192.794-4 2.5a12.93 12.93 0 0 1-5 .5v3c-2.582-.475-4.582.192-6 2-2.281 1.928-4.947 2.928-8 3v3h-6v3c-4.045-.073-7.378 1.427-10 4.5l1 1a118.288 118.288 0 0 0-17 7.5 10.756 10.756 0 0 0-2.5 3l-1-1c-1.049 1.607-2.549 2.273-4.5 2v3h-6v3h-5v3c-2.524-.071-4.524.929-6 3-2.12-1.372-3.12-.705-3 2a12.93 12.93 0 0 0-5 .5 101.657 101.657 0 0 0-10 7.5 9.108 9.108 0 0 1-5 1v3c-2.51-.446-4.51.22-6 2-2.216.703-4.049 2.036-5.5 4-1.813-1.109-2.646-.442-2.5 2a12.93 12.93 0 0 0-5 .5c-1.497 1.871-3.497 2.871-6 3-1.307 2.324-3.307 3.657-6 4l2 1a12.93 12.93 0 0 1-5 .5v3a9.86 9.86 0 0 0-6 1 35.217 35.217 0 0 1-8 4v3h-6v3h-6v3a8.43 8.43 0 0 0-4 .5l-5 5c-1.284.684-2.451.517-3.5-.5-1.263 2.968-3.263 3.968-6 3a2.428 2.428 0 0 0-.5 2h-12c-.507-1.359-1.507-2.359-3-3a137.913 137.913 0 0 0-11-4v-3c-2.133-1.386-5.133-2.386-9-3v-3h-5v-3c-3.005.247-5.505-.753-7.5-3l-1 1a4.934 4.934 0 0 1-.5-3h-6v-3h-5v-3h-6v-3c-5.922-1.727-11.089-4.727-15.5-9-.718.951-1.551 1.117-2.5.5 1.333-.667 1.333-1.333 0-2a12.93 12.93 0 0 0-5-.5v-3a58.97 58.97 0 0 1-11-3v-3c-8.654-3.265-16.321-6.932-23-11v-3h-6v-3h-5v-3a8.43 8.43 0 0 1-4-.5c-4.85-3.699-10.184-6.199-16-7.5v-3h-6v-3c-2.092-.061-3.592-1.061-4.5-3-1.299.466-2.799.466-4.5 0v-3c-1.788.285-3.455-.048-5-1-2.158-3.144-5.158-4.477-9-4v-3a12.93 12.93 0 0 1-5-.5c-2.625-3.031-6.125-5.864-10.5-8.5-2.537.677-4.537-.323-6-3l-1 1c-1.667-1-3-2.333-4-4-1.049 1.017-2.216 1.184-3.5.5l1-1a15.645 15.645 0 0 1-4-2.5c-1-44.995-1.333-89.995-1-135 4.805-.987 9.805-1.321 15-1Z"/><path style="opacity:1" fill="#273238" d="M201.5 544.5h12c-.167 32.668 0 65.335.5 98a46.99 46.99 0 0 0 10.5 5.5l4 4a90.42 90.42 0 0 0 14 6c3.492 1.624 6.492 3.958 9 7a169.642 169.642 0 0 1 28 14c4.933 4.604 10.6 7.938 17 10 3.574 3.951 7.907 6.618 13 8 6.962 5.648 14.628 9.981 23 13 1.918 2.928 4.585 4.594 8 5a78.488 78.488 0 0 0 23 13c3.671 4.417 8.338 7.083 14 8 2.457 3.058 5.457 5.392 9 7a97.288 97.288 0 0 1 12 5.5 7683.65 7683.65 0 0 0 184-106c1-32.66 1.333-65.327 1-98h12c.167 32.668 0 65.335-.5 98-1.887 1.526-2.887 3.526-3 6-6.058 6.436-13.225 10.936-21.5 13.5a219.87 219.87 0 0 0-13 10 24.569 24.569 0 0 0-8 3 157.436 157.436 0 0 1-27 15 91.311 91.311 0 0 1-23 13 319.99 319.99 0 0 1-46 27l-4 4c-6.4 2.062-12.067 5.396-17 10l-10 4a78.988 78.988 0 0 1-14 9 80.226 80.226 0 0 0-10.5 2.5c-3.2-.707-6.367-1.54-9.5-2.5a35.157 35.157 0 0 0-10-5c-3.796-3.592-8.129-6.259-13-8a279.412 279.412 0 0 0-19-12c-3.959.349-6.626-1.317-8-5l-10-4a201.636 201.636 0 0 0-27-17 24.569 24.569 0 0 1-8-3c-11.4-8.753-23.733-15.753-37-21a147.725 147.725 0 0 0-17-12 82.842 82.842 0 0 1-19-11c-6.853-2.406-13.02-5.906-18.5-10.5-.5-34.665-.667-69.332-.5-104Z"/><path style="opacity:1" fill="#273238" d="M269.5 544.5h12v61c3.978-.534 6.978.966 9 4.5a32.449 32.449 0 0 0 9 4l27 17a90.42 90.42 0 0 0 14 6 523.182 523.182 0 0 0 22 15c8.681 3.01 16.681 7.344 24 13 4.471 2.161 8.971 4.327 13.5 6.5a2929.62 2929.62 0 0 1 12.5-8.5 146.497 146.497 0 0 0 31-18c5.093-1.382 9.426-4.049 13-8l9-3a686.508 686.508 0 0 1 52-30.5c1-19.655 1.333-39.322 1-59h12a98.432 98.432 0 0 1-.5 14l-2 2-1 50-8.5 6.5c-7.782 3.035-14.782 7.368-21 13a83.449 83.449 0 0 0-24 13l-22 11a679.07 679.07 0 0 1-23 15c-8.372 3.019-16.038 7.352-23 13-4 .667-8 .667-12 0a605.838 605.838 0 0 1-38-21 50.886 50.886 0 0 0-10-7c-5.628-.991-10.295-3.658-14-8a30.316 30.316 0 0 1-12-7 175.043 175.043 0 0 1-28-16c-8.363-2.47-15.53-6.97-21.5-13.5-.5-21.664-.667-43.331-.5-65Z"/><path style="opacity:1" fill="#f45b1d" d="M281.5 544.5c25.741-.324 51.408.01 77 1a105.708 105.708 0 0 0 13 7.5c2.058 3.397 5.058 5.063 9 5 14.128 10.813 27.462 9.813 40-3 6.869-2.112 12.869-5.612 18-10.5h80c.333 19.678 0 39.345-1 59a686.508 686.508 0 0 0-52 30.5l-9 3c-3.574 3.951-7.907 6.618-13 8a146.497 146.497 0 0 1-31 18 2929.62 2929.62 0 0 0-12.5 8.5 5215.086 5215.086 0 0 1-13.5-6.5c-7.319-5.656-15.319-9.99-24-13a523.182 523.182 0 0 1-22-15 90.42 90.42 0 0 1-14-6l-27-17a32.449 32.449 0 0 1-9-4c-2.022-3.534-5.022-5.034-9-4.5v-61Z"/><path style="opacity:1" fill="#283238" d="M382.5 544.5c1.804 2.598 4.138 4.765 7 6.5a35.323 35.323 0 0 1 9.5 4.5 361.084 361.084 0 0 0 16.5-11h23c-5.131 4.888-11.131 8.388-18 10.5-12.538 12.813-25.872 13.813-40 3-3.942.063-6.942-1.603-9-5a105.708 105.708 0 0 1-13-7.5c7.816-.992 15.816-1.326 24-1Z"/><path style="opacity:1" fill="#f0f0f1" d="M382.5 544.5h33a361.084 361.084 0 0 1-16.5 11 35.323 35.323 0 0 0-9.5-4.5c-2.862-1.735-5.196-3.902-7-6.5Z"/><path style="opacity:1" fill="#f55c1c" d="M599.5 686.5c1.333.667 1.333.667 0 0ZM570.5 703.5c1.333.667 1.333.667 0 0ZM476.5 757.5c1.333.667 1.333.667 0 0Z"/></svg>