<?xml version="1.0" encoding="UTF-8"?><svg xmlns="http://www.w3.org/2000/svg" width="800" height="800" style="shape-rendering:geometricPrecision;text-rendering:geometricPrecision;image-rendering:optimizeQuality;fill-rule:evenodd;clip-rule:evenodd"><path style="opacity:1" fill="#eec389" d="M576.5-.5h9a2.429 2.429 0 0 0 .5 2c1.049-1.017 2.216-1.184 3.5-.5a20.495 20.495 0 0 0 2.5 3.5c1.356-.88 2.856-1.214 4.5-1v3c2.822 1.432 6.489 2.432 11 3v3c2.092.061 3.592 1.061 4.5 3 2.537-.677 4.537.323 6 3 2.361-.566 4.194.434 5.5 3l2-1c.35 2.067 2.017 3.067 5 3v3h6v3h5v3h6v3a27.247 27.247 0 0 0 9 3c-.219 1.175.114 2.175 1 3a6.846 6.846 0 0 1 4-1v3a8.435 8.435 0 0 1 4 .5c-1.154.914-.987 1.747.5 2.5 1.299-.466 2.799-.466 4.5 0v3h6v3h5v3a428.986 428.986 0 0 0 20 8.5l-2 1c2.522.61 4.522 1.943 6 4 1.634.493 3.301.66 5 .5v3c2.908-.238 5.242.762 7 3 .951-.826 1.951-.992 3-.5l-1 1a6.977 6.977 0 0 1 3.5 2.5l1-1c.483.948.649 1.948.5 3h6v3h5v3c1.951-.273 3.451.393 4.5 2l1-1c6 4.386 12.5 7.886 19.5 10.5l-1 1c1.525 1.009 3.192 1.509 5 1.5v3h6v3h5v3c2.041.354 3.874.354 5.5 0 .483.948.649 1.948.5 3 2.836 1.276 5.836 1.942 9 2a7971.884 7971.884 0 0 1 2 251c-3.013-.128-5.513.872-7.5 3-2.411-1.653-3.578-.987-3.5 2-1.701.466-3.201.466-4.5 0-3.844 1.975-7.177 4.642-10 8l-1-1c-1.049 1.607-2.549 2.273-4.5 2v3c-3.937.204-7.604 1.204-11 3 .381 2.442-.286 3.109-2 2-.886.825-1.219 1.825-1 3h-6v3a12.93 12.93 0 0 0-5 .5c-1.079 2.043-2.746 3.376-5 4l1 1a12.93 12.93 0 0 1-5 .5v3a9.86 9.86 0 0 0-6 1c-3.423 1.192-6.256 3.192-8.5 6l-1-1c-1.049 1.607-2.549 2.273-4.5 2v3h-6v3h-5v3c-2.185.388-4.018 1.388-5.5 3-2.278-1.12-3.778-.287-4.5 2.5a101.955 101.955 0 0 0-13 5.5v3h-6v3h-6v3c-1.788-.285-3.455.048-5 1 1.129 2.029.629 2.363-1.5 1-1.712 3.452-4.212 4.452-7.5 3v3c-3.096-.593-5.429.407-7 3a47.25 47.25 0 0 1-7 3v3h-6c.237 1.291-.096 2.291-1 3v-22a4201.638 4201.638 0 0 1 105-60.5l8-6a190.921 190.921 0 0 0 21.5-10.5c.667-76 .667-152 0-228a36.078 36.078 0 0 0-3.5-4.5c-3.29-.253-6.29-1.253-9-3a29746.604 29746.604 0 0 1-46-28 457.332 457.332 0 0 0-22-11l-4-4a161.879 161.879 0 0 1-33-19c-6.4-2.062-12.067-5.396-17-10a1126.1 1126.1 0 0 0-31-16c-2.365-3.714-5.698-5.714-10-6-7.082-6.364-15.416-9.031-25-8a246.93 246.93 0 0 0-16 8.5v-12c1.068-.934 2.401-1.268 4-1v-3h5v-3h6v-3c1.808.009 3.475-.491 5-1.5l-1-1a12.936 12.936 0 0 1 5-.5v-3c3.552.188 6.219-1.145 8-4Z"/><path style="opacity:1" fill="#fc909d" d="M254.5 20.5v13a127.652 127.652 0 0 0-17.5-10 138.219 138.219 0 0 1-14.5 1.5 583.354 583.354 0 0 0-33 19 175.013 175.013 0 0 0-28 16l-4 1-23 15a336.071 336.071 0 0 0-40 23c-5.503 1.171-10.17 3.837-14 8A579.672 579.672 0 0 0 38 129.5a3439.804 3439.804 0 0 0-1.5 116c-.155 38.379.345 76.712 1.5 115l9.5 5.5c1.374 3.683 4.04 5.349 8 5a130.15 130.15 0 0 0 23 13 2215.594 2215.594 0 0 0 94 54.5v18a17255.34 17255.34 0 0 0-15-8.5c-6.204-2.789-12.537-4.622-19-5.5v-3h-6v-3h-3v-3h-6v-3h-5v-3c-2.921.354-5.254-.646-7-3-1.714 1.109-2.381.442-2-2a58.97 58.97 0 0 1-11-3v-3a27.267 27.267 0 0 0-9-3v-3c-2.908.238-5.242-.762-7-3a3.647 3.647 0 0 0-1.5 1c-1.667-1-3-2.333-4-4l-1 1a4.932 4.932 0 0 1-.5-3h-6v-3h-5v-3a544.412 544.412 0 0 1-29-14v-3a58.967 58.967 0 0 1-11-3v-3h-6v-3c-4.013-1.674-8.013-3.341-12-5 .008-83.648.008-167.148 0-250.5a169.104 169.104 0 0 0 15-5.5v-3a58.967 58.967 0 0 0 11-3v-3a417.79 417.79 0 0 0 15-7 32.686 32.686 0 0 0 8.5-6l1 1c1.049-1.607 2.549-2.273 4.5-2v-3a59.029 59.029 0 0 1 11-3 4.932 4.932 0 0 1 .5-3l1 1c2.015-3.065 4.515-4.065 7.5-3v-3h5v-3c1.7.16 3.366-.007 5-.5 1.478-2.057 3.478-3.39 6-4l-2-1a18.436 18.436 0 0 1 6-.5v-3a87.51 87.51 0 0 0 14-5v-3h6v-3h5v-3c1.701-.466 3.201-.466 4.5 0 3.279-4.047 7.946-7.047 14-9a18.264 18.264 0 0 0 5-4l1 1c1.049-1.607 2.549-2.273 4.5-2v-3h5v-3h6v-3c4.612-1.195 9.279-2.862 14-5v-3c1.701-.466 3.201-.466 4.5 0 .908-1.939 2.408-2.939 4.5-3v-3h6v-3c1.788.285 3.455-.048 5-1a38.767 38.767 0 0 0 7-4.5 49.25 49.25 0 0 1 14 0c2.025 1.677 4.359 2.677 7 3-1.134 1.016-.801 1.683 1 2l5 1-1 1c2.622 3.073 5.955 4.573 10 4.5v3h6v3c2.053-.098 3.72.569 5 2Z"/><path style="opacity:1" fill="#a2ccef" d="M544.5 19.5v12a191.067 191.067 0 0 1-32 18.5 187.582 187.582 0 0 0-20 13 501.784 501.784 0 0 0-35 18 260.747 260.747 0 0 1-26 16c-7.588 4.924-7.921 10.257-1 16a511.853 511.853 0 0 0 51 30.5c-10.821.995-21.821 1.328-33 1-64.658-36.999-129.325-73.999-194-111v-13c2.565 2.188 5.565 3.188 9 3v3c3.58 1.22 7.247 2.386 11 3.5l-2 1c2.767.678 4.934 2.178 6.5 4.5l1-1c3.769 1.797 7.102 4.13 10 7a3.942 3.942 0 0 1 2-1c1.482 1.612 3.315 2.612 5.5 3v3h6v3h5v3h6v3a87.51 87.51 0 0 0 14 5v3c1.699-.16 3.366.007 5 .5l-1 1c1.525 1.009 3.192 1.509 5 1.5v3h6v3h5v3c2.985-1.065 5.485-.065 7.5 3l1-1c.483.948.649 1.948.5 3h5v3h6v3c2.133 1.386 5.133 2.386 9 3v3c2.908-.238 5.242.762 7 3l2-1c.35 2.067 2.017 3.067 5 3v3h6v3c2.516-.255 4.85-1.089 7-2.5a626.207 626.207 0 0 1 29-17c.837-1.011 1.17-2.178 1-3.5 4.493-.216 7.993-2.216 10.5-6 1.011.837 2.178 1.17 3.5 1v-3a59.031 59.031 0 0 0 11-3v-3c1.808.009 3.475-.491 5-1.5l-1-1a12.935 12.935 0 0 1 5-.5v-3a9.864 9.864 0 0 0 6-1 35.213 35.213 0 0 1 8-4v-3h6v-3a59.031 59.031 0 0 1 11-3v-3c1.808.009 3.475-.491 5-1.5-1.388-.89-1.222-1.39.5-1.5 2.071 1.167 3.571.5 4.5-2 6.434-2.343 12.767-5.343 19-9v-3a59.031 59.031 0 0 1 11-3 4.934 4.934 0 0 1 .5-3l1 1c.816-1.323 1.983-1.99 3.5-2Z"/><path style="opacity:1" fill="#273339" d="M626.5 437.5v-14a11486.349 11486.349 0 0 0 82-46.5 6204.11 6204.11 0 0 1 24-15 84.545 84.545 0 0 1 18-8.5c.167-70.334 0-140.667-.5-211 .564-4.29-1.269-6.457-5.5-6.5a203.265 203.265 0 0 0-37-21l-4-4a91.311 91.311 0 0 1-23-13 457.332 457.332 0 0 0-22-11l-4-4a483.026 483.026 0 0 1-51-29c-3.415-.406-6.082-2.072-8-5a90.401 90.401 0 0 0-14-6c-5.722-6.435-12.722-8.768-21-7-7.36 5.663-15.36 9.996-24 13-3.619 3.977-7.952 6.644-13 8-2.537 2.546-5.537 4.212-9 5l-4 4-10 4a2551.356 2551.356 0 0 0-60 36 7185.005 7185.005 0 0 1 26 16c8.645 3.005 16.645 7.338 24 13 3.712 1.735 7.045 1.235 10-1.5a32.255 32.255 0 0 1 10 9c-1.815 1.13-3.815 1.796-6 2a45.636 45.636 0 0 1-19 0c-1.459.067-2.792-.266-4-1a511.853 511.853 0 0 1-51-30.5c-6.921-5.743-6.588-11.076 1-16a260.747 260.747 0 0 0 26-16 501.784 501.784 0 0 1 35-18 187.582 187.582 0 0 1 20-13 191.067 191.067 0 0 0 32-18.5 246.93 246.93 0 0 1 16-8.5c9.584-1.031 17.918 1.636 25 8 4.302.286 7.635 2.286 10 6a1126.1 1126.1 0 0 1 31 16c4.933 4.604 10.6 7.938 17 10a161.879 161.879 0 0 0 33 19l4 4a457.332 457.332 0 0 1 22 11 29746.604 29746.604 0 0 0 46 28c2.71 1.747 5.71 2.747 9 3a36.078 36.078 0 0 1 3.5 4.5c.667 76 .667 152 0 228a190.921 190.921 0 0 1-21.5 10.5l-8 6a4201.638 4201.638 0 0 0-105 60.5Z"/><path style="opacity:1" fill="#29333a" d="M254.5 33.5c64.675 37.001 129.342 74.001 194 111v1h-22a26.335 26.335 0 0 0-5-2 2594.58 2594.58 0 0 1-22-14.5 546.6 546.6 0 0 0-35-18 108.394 108.394 0 0 1-19-13 1516.16 1516.16 0 0 1-91-52A228.066 228.066 0 0 0 230 34.5 112.066 112.066 0 0 0 206.5 48l-10 4-3 3c-6.771 2.445-12.771 6.111-18 11l-10 4-4 4a520.666 520.666 0 0 0-59 34l-9 3c-3.796 3.592-8.13 6.259-13 8A361.546 361.546 0 0 1 48 137.5c-.667 72-.667 144 0 216a4664.644 4664.644 0 0 0 124.5 71v14a2215.594 2215.594 0 0 1-94-54.5 130.15 130.15 0 0 1-23-13c-3.96.349-6.626-1.317-8-5l-9.5-5.5a3364.223 3364.223 0 0 1-1.5-115c-.152-38.704.348-77.371 1.5-116A579.672 579.672 0 0 1 80.5 107c3.83-4.163 8.497-6.829 14-8a336.071 336.071 0 0 1 40-23l23-15 4-1a175.013 175.013 0 0 1 28-16 583.354 583.354 0 0 1 33-19c4.872-.246 9.705-.746 14.5-1.5a127.652 127.652 0 0 1 17.5 10Z"/><path style="opacity:1" fill="#fdfdfe" d="M421.5 143.5a2863.174 2863.174 0 0 1-107 1 1083.486 1083.486 0 0 1-69-39.5c-3.415-.406-6.082-2.072-8-5a42.498 42.498 0 0 0-13 0 226.438 226.438 0 0 0-29 17c-3.415.406-6.082 2.072-8 5a90.42 90.42 0 0 1-14 6c-3.574 3.951-7.907 6.618-13 8-6.962 5.648-14.628 9.981-23 13a230.435 230.435 0 0 1-32.5 19.5 2946.23 2946.23 0 0 0-1 153 76.322 76.322 0 0 0 18.5 10.5 157.436 157.436 0 0 0 27 15l6 5a101.257 101.257 0 0 1 17 8.5v64a4664.644 4664.644 0 0 1-124.5-71c-.667-72-.667-144 0-216A361.546 361.546 0 0 0 80.5 119c4.87-1.741 9.204-4.408 13-8l9-3a520.666 520.666 0 0 1 59-34l4-4 10-4c5.229-4.889 11.229-8.555 18-11l3-3 10-4A112.066 112.066 0 0 1 230 34.5 228.066 228.066 0 0 1 254.5 46a1516.16 1516.16 0 0 0 91 52 108.394 108.394 0 0 0 19 13 546.6 546.6 0 0 1 35 18 2594.58 2594.58 0 0 0 22 14.5Z"/><path style="opacity:1" fill="#fdfefe" d="M626.5 423.5v-63a4.934 4.934 0 0 0 3-.5c4.952-4.639 10.619-7.973 17-10 9.313-5.969 18.646-11.969 28-18 7.819-2.16 14.319-6.327 19.5-12.5.667-48.667.667-97.333 0-146a69.2 69.2 0 0 0-4.5-6.5 198.572 198.572 0 0 1-36-21 114.302 114.302 0 0 1-13-6 182.852 182.852 0 0 0-35-20c-3.671-4.417-8.338-7.083-14-8a171.322 171.322 0 0 0-19-12c-8.302-.757-15.635 1.576-22 7a68.695 68.695 0 0 0-14 7c-4.302.286-7.635 2.286-10 6-5.049 1.85-9.383 4.684-13 8.5-2.044-.531-3.711-1.698-5-3.5-6.104-.706-8.771 2.127-8 8.5-2.955 2.735-6.288 3.235-10 1.5-7.355-5.662-15.355-9.995-24-13a7185.005 7185.005 0 0 0-26-16 2551.356 2551.356 0 0 1 60-36l10-4 4-4c3.463-.788 6.463-2.454 9-5 5.048-1.356 9.381-4.023 13-8 8.64-3.004 16.64-7.337 24-13 8.278-1.768 15.278.565 21 7a90.401 90.401 0 0 1 14 6c1.918 2.928 4.585 4.594 8 5a483.026 483.026 0 0 0 51 29l4 4a457.332 457.332 0 0 1 22 11 91.311 91.311 0 0 0 23 13l4 4a203.265 203.265 0 0 1 37 21c4.231.043 6.064 2.21 5.5 6.5.5 70.333.667 140.666.5 211a84.545 84.545 0 0 0-18 8.5 6204.11 6204.11 0 0 0-24 15 11486.349 11486.349 0 0 1-82 46.5Z"/><path style="opacity:1" fill="#273339" d="M314.5 144.5v1a190.291 190.291 0 0 1-27-1c0-.667-.333-1-1-1a499.954 499.954 0 0 0-32-20c-5.232-3.571-10.898-6.404-17-8.5l-4.5-4.5c-1.604 1.149-3.27 1.149-5 0a540.392 540.392 0 0 0-21.5 14 12.93 12.93 0 0 0-5 .5 31.447 31.447 0 0 1-5 4.5 125.293 125.293 0 0 0-20 12.5 148.265 148.265 0 0 0-31 18 114.065 114.065 0 0 0-14 6c-5.669 5.02-11.836 9.187-18.5 12.5-.5 45.332-.667 90.665-.5 136 5.301 1.324 9.968 3.824 14 7.5l10 4c1.918 2.928 4.585 4.594 8 5 2.674 3.012 6.007 4.678 10 5 5.202 5.071 11.202 8.571 18 10.5v14a101.257 101.257 0 0 0-17-8.5l-6-5a157.436 157.436 0 0 1-27-15 76.322 76.322 0 0 1-18.5-10.5 2946.23 2946.23 0 0 1 1-153 230.435 230.435 0 0 0 32.5-19.5c8.372-3.019 16.038-7.352 23-13 5.093-1.382 9.426-4.049 13-8a90.42 90.42 0 0 0 14-6c1.918-2.928 4.585-4.594 8-5a226.438 226.438 0 0 1 29-17 42.498 42.498 0 0 1 13 0c1.918 2.928 4.585 4.594 8 5a1083.486 1083.486 0 0 0 69 39.5ZM626.5 360.5v-14c10.311-5.49 20.644-10.99 31-16.5a679.07 679.07 0 0 1 23-15 12.93 12.93 0 0 1 5-.5c.167-28.335 0-56.669-.5-85l-2-2-1-51a4305.66 4305.66 0 0 1-114.5-66 254.839 254.839 0 0 0-23 13 237.172 237.172 0 0 0-23 13c-3-2.333-5.667-5-8-8 3.617-3.816 7.951-6.65 13-8.5 2.365-3.714 5.698-5.714 10-6a68.695 68.695 0 0 1 14-7c6.365-5.424 13.698-7.757 22-7a171.322 171.322 0 0 1 19 12c5.662.917 10.329 3.583 14 8a182.852 182.852 0 0 1 35 20 114.302 114.302 0 0 0 13 6 198.572 198.572 0 0 0 36 21 69.2 69.2 0 0 1 4.5 6.5c.667 48.667.667 97.333 0 146-5.181 6.173-11.681 10.34-19.5 12.5a12318.477 12318.477 0 0 1-28 18c-6.381 2.027-12.048 5.361-17 10a4.934 4.934 0 0 1-3 .5Z"/><path style="opacity:1" fill="#fa8f9d" d="M254.5 123.5v21a784.68 784.68 0 0 1-56-1 146.475 146.475 0 0 0 10.5-10c1.073-3.6.24-6.6-2.5-9a540.392 540.392 0 0 1 21.5-14c1.73 1.149 3.396 1.149 5 0l4.5 4.5c6.102 2.096 11.768 4.929 17 8.5Z"/><path style="opacity:1" fill="#eec389" d="M626.5 346.5c.167-51.334 0-102.668-.5-154l-2.5-2.5a1055.972 1055.972 0 0 0-65 0l-2.5 2.5a84.902 84.902 0 0 0-.5 13c-4.76-.689-8.427-3.022-11-7v-75a254.839 254.839 0 0 1 23-13 4305.66 4305.66 0 0 0 114.5 66l1 51 2 2c.5 28.331.667 56.665.5 85a12.93 12.93 0 0 0-5 .5 679.07 679.07 0 0 0-23 15c-10.356 5.51-20.689 11.01-31 16.5Z"/><path style="opacity:1" fill="#a2ccef" d="M544.5 123.5v75a89.39 89.39 0 0 1-9-3c-1.338-5.013-4.671-7.013-10-6a1193.761 1193.761 0 0 1-54-32 200.55 200.55 0 0 1 40 0 136.772 136.772 0 0 1-10.5 9c-1.329 6.334 1.171 9.168 7.5 8.5 8.219-7.556 16.385-15.056 24.5-22.5.667-2 .667-4 0-6a169.715 169.715 0 0 1-11.5-10 237.172 237.172 0 0 1 23-13Z"/><path style="opacity:1" fill="#4d4473" d="M206.5 124.5c2.74 2.4 3.573 5.4 2.5 9a146.475 146.475 0 0 1-10.5 10c-.789.283-1.456.783-2 1.5 19.33.5 38.664.667 58 .5 11.179.328 22.179-.005 33-1a190.291 190.291 0 0 0 27 1h134a342.787 342.787 0 0 0 37-1 45.636 45.636 0 0 0 19 0c2.855 1.303 5.855 1.303 9 0a7.47 7.47 0 0 0-3-2 32.255 32.255 0 0 0-10-9c-.771-6.373 1.896-9.206 8-8.5 1.289 1.802 2.956 2.969 5 3.5 2.333 3 5 5.667 8 8a169.715 169.715 0 0 0 11.5 10c.667 2 .667 4 0 6a30368.225 30368.225 0 0 0-24.5 22.5c-6.329.668-8.829-2.166-7.5-8.5a136.772 136.772 0 0 0 10.5-9c.543-.06.876-.393 1-1-15.161-1.326-30.161-1.326-45 0h-22a1568.892 1568.892 0 0 0-112 0h-79c-18.838-1.328-37.838-1.328-57 0 .124.607.457.94 1 1 3.922 2.415 7.422 5.415 10.5 9 1.48 5.838-.687 8.671-6.5 8.5a372.555 372.555 0 0 1-24.5-21.5 12.494 12.494 0 0 1 0-7 454.965 454.965 0 0 0 18.5-17 31.447 31.447 0 0 0 5-4.5 12.93 12.93 0 0 1 5-.5Z"/><path style="opacity:1" fill="#a1cced" d="M254.5 123.5a499.954 499.954 0 0 1 32 20c-10.487.994-21.154 1.328-32 1v-21Z"/><path style="opacity:1" fill="#fc909d" d="M196.5 129.5a454.965 454.965 0 0 1-18.5 17 12.494 12.494 0 0 0 0 7 372.555 372.555 0 0 0 24.5 21.5c5.813.171 7.98-2.662 6.5-8.5-3.078-3.585-6.578-6.585-10.5-9a784.68 784.68 0 0 1 56-1v33c-26.335-.167-52.669 0-79 .5a4.457 4.457 0 0 0-2 1.5 6046.74 6046.74 0 0 0-1 155c-6.798-1.929-12.798-5.429-18-10.5-3.993-.322-7.326-1.988-10-5-3.415-.406-6.082-2.072-8-5l-10-4c-4.032-3.676-8.699-6.176-14-7.5-.167-45.335 0-90.668.5-136 6.664-3.313 12.831-7.48 18.5-12.5a114.065 114.065 0 0 1 14-6 148.265 148.265 0 0 1 31-18 125.293 125.293 0 0 1 20-12.5Z"/><path style="opacity:1" fill="#be758e" d="M198.5 143.5a784.68 784.68 0 0 0 56 1v1c-19.336.167-38.67 0-58-.5.544-.717 1.211-1.217 2-1.5Z"/><path style="opacity:1" fill="#849dc4" d="M286.5 143.5c.667 0 1 .333 1 1-10.821.995-21.821 1.328-33 1v-1c10.846.328 21.513-.006 32-1Z"/><path style="opacity:1" fill="#c0bccc" d="M421.5 143.5a26.335 26.335 0 0 1 5 2h-112v-1c35.837.332 71.504-.002 107-1Z"/><path style="opacity:1" fill="#839cc3" d="M481.5 143.5c1.208.734 2.541 1.067 4 1a342.787 342.787 0 0 1-37 1v-1c11.179.328 22.179-.005 33-1Z"/><path style="opacity:1" fill="#8aa7cb" d="M510.5 142.5a7.47 7.47 0 0 1 3 2c-3.145 1.303-6.145 1.303-9 0 2.185-.204 4.185-.87 6-2Z"/><path style="opacity:1" fill="#946283" d="M254.5 156.5a784.68 784.68 0 0 0-56 1c-.543-.06-.876-.393-1-1 19.162-1.328 38.162-1.328 57 0Z"/><path style="opacity:1" fill="#978ca0" d="M333.5 156.5a1568.892 1568.892 0 0 1 112 0h-71a361.608 361.608 0 0 0-38 1 5.727 5.727 0 0 0-3-1Z"/><path style="opacity:1" fill="#717ea7" d="M467.5 156.5c14.839-1.326 29.839-1.326 45 0-.124.607-.457.94-1 1a200.55 200.55 0 0 0-40 0c-1.208-.734-2.541-1.067-4-1Z"/><path style="opacity:1" fill="#a3cdf0" d="M254.5 156.5h57a354.13 354.13 0 0 0 19 11 306.685 306.685 0 0 1-21 10c-.453-.958-1.119-1.792-2-2.5a25.238 25.238 0 0 0-10 0l-2.5 2.5c-1.049-1.017-2.216-1.184-3.5-.5-6.549 5.206-13.549 9.373-21 12.5h-16v-33Z"/><path style="opacity:1" fill="#29343a" d="M311.5 156.5h22a5.727 5.727 0 0 1 3 1 112.094 112.094 0 0 1 9 5 138.156 138.156 0 0 1-15 5 354.13 354.13 0 0 1-19-11Z"/><path style="opacity:1" fill="#fbf8f5" d="M374.5 156.5a323.55 323.55 0 0 0-29 6 112.094 112.094 0 0 0-9-5 361.608 361.608 0 0 1 38-1Z"/><path style="opacity:1" fill="#f7f3ee" d="M426.5 156.5h20l12 8a278.02 278.02 0 0 0-32-8Z"/><path style="opacity:1" fill="#2a353a" d="M446.5 156.5h21c1.459-.067 2.792.266 4 1a1193.761 1193.761 0 0 0 54 32h-20c-.333-1-1-1.667-2-2-13.965-9.484-28.965-17.15-45-23l-12-8Z"/><path style="opacity:1" fill="#efc48a" d="M374.5 156.5h52a278.02 278.02 0 0 1 32 8c16.035 5.85 31.035 13.516 45 23a5409.852 5409.852 0 0 1-208 0l14-10a306.685 306.685 0 0 0 21-10 138.156 138.156 0 0 0 15-5 323.55 323.55 0 0 1 29-6Z"/><path style="opacity:1" fill="#29353b" d="m309.5 177.5-14 10c-1.527-.073-2.527.594-3 2h-22c7.451-3.127 14.451-7.294 21-12.5 1.284-.684 2.451-.517 3.5.5l2.5-2.5a25.238 25.238 0 0 1 10 0c.881.708 1.547 1.542 2 2.5Z"/><path style="opacity:1" fill="#e0b787" d="M295.5 187.5a5409.852 5409.852 0 0 0 208 0c1 .333 1.667 1 2 2h-213c.473-1.406 1.473-2.073 3-2Z"/><path style="opacity:1" fill="#4d4372" d="M254.5 189.5h271c5.329-1.013 8.662.987 10 6-.983 3.798-1.317 7.798-1 12v272h-10a529.904 529.904 0 0 0-1-46c-.607.124-.94.457-1 1a1433.501 1433.501 0 0 0-45 45c-5.313-.482-7.646 1.851-7 7-1 .333-1.667 1-2 2-1.667 1-3 2.333-4 4h-1a32.462 32.462 0 0 0-.5-8 19.602 19.602 0 0 1-3.5-2c21-21.667 42.333-43 64-64 1.328-19.837 1.328-39.837 0-60-.607.124-.94.457-1 1a10708.704 10708.704 0 0 0-123 123h-15c46-46.667 92.333-93 139-139 1.328-19.837 1.328-39.837 0-60-.607.124-.94.457-1 1l-246 245a46.809 46.809 0 0 0-1-13c82.333-83 165-165.667 248-248 1.328-19.837 1.328-39.837 0-60-.607.124-.94.457-1 1-14.667 14-29 28.333-43 43a117832.296 117832.296 0 0 0-289 288.5c12.662.5 25.329.667 38 .5v11h-42a72.367 72.367 0 0 1-12-.5l-1.5-1.5c-.5-31.332-.667-62.665-.5-94v-110a6046.74 6046.74 0 0 1 1-155 4.457 4.457 0 0 1 2-1.5c26.331-.5 52.665-.667 79-.5Z"/><path style="opacity:.996" fill="#4e4674" d="M626.5 346.5v113c.167 30.002 0 60.002-.5 90l-2.5 2.5a84.902 84.902 0 0 1-13 .5h-5v-11h10v-341h-49v32a112.97 112.97 0 0 1 15 .5c4.229 3.843 3.895 7.177-1 10a98.432 98.432 0 0 1-14 .5v55a98.432 98.432 0 0 1 14 .5c4.908 2.873 5.241 6.206 1 10a112.97 112.97 0 0 1-15 .5v56a112.97 112.97 0 0 1 15 .5c3.867 3.249 3.867 6.582 0 10a112.97 112.97 0 0 1-15 .5 784.68 784.68 0 0 0-1 56h16c4.207 3.828 3.873 7.161-1 10h-15v37h-10v-274a84.902 84.902 0 0 1 .5-13l2.5-2.5c21.667-.667 43.333-.667 65 0l2.5 2.5c.5 51.332.667 102.666.5 154Z"/><path style="opacity:1" fill="#29343a" d="M535.5 195.5a89.39 89.39 0 0 0 9 3c2.573 3.978 6.24 6.311 11 7v14a115.358 115.358 0 0 1-21-12c-.317-4.202.017-8.202 1-12Z"/><path style="opacity:1" fill="#875075" d="M182.5 200.5c11.174-1.324 22.507-1.324 34 0-.124.607-.457.94-1 1-10.821-.995-21.821-1.328-33-1Z"/><path style="opacity:1" fill="#885075" d="M231.5 200.5c19.837-1.328 39.837-1.328 60 0-.124.607-.457.94-1 1a871.155 871.155 0 0 0-59-1Z"/><path style="opacity:1" fill="#885076" d="M306.5 200.5c19.837-1.328 39.837-1.328 60 0-.124.607-.457.94-1 1a871.155 871.155 0 0 0-59-1Z"/><path style="opacity:1" fill="#895176" d="M381.5 200.5c19.837-1.328 39.837-1.328 60 0-.124.607-.457.94-1 1a871.155 871.155 0 0 0-59-1ZM456.5 200.5c19.837-1.328 39.837-1.328 60 0-.124.607-.457.94-1 1a871.155 871.155 0 0 0-59-1Z"/><path style="opacity:1" fill="#e5667c" d="M182.5 200.5c11.179-.328 22.179.005 33 1a1467.947 1467.947 0 0 0-32.5 32 544.417 544.417 0 0 1-.5-33Z"/><path style="opacity:1" fill="#e7667c" d="M231.5 200.5c19.84-.33 39.507.003 59 1l-52 51h-55v-4a1630.981 1630.981 0 0 1 48-48Z"/><path style="opacity:1" fill="#e7667d" d="M306.5 200.5c19.84-.33 39.507.003 59 1l-52 51h-59c17-17.667 34.333-35 52-52ZM381.5 200.5c19.84-.33 39.507.003 59 1l-52 51a841.82 841.82 0 0 1-58-1 2694.897 2694.897 0 0 1 51-51ZM456.5 200.5c19.84-.33 39.507.003 59 1l-52 51a841.82 841.82 0 0 1-58-1 2905.616 2905.616 0 0 1 51-51Z"/><path style="opacity:1" fill="#7aaaf0" d="M615.5 254.5h-49v-11a98.432 98.432 0 0 0 14-.5c4.895-2.823 5.229-6.157 1-10a112.97 112.97 0 0 0-15-.5v-32h49v54Z"/><path style="opacity:1" fill="#f7f7f7" d="M534.5 207.5a115.358 115.358 0 0 0 21 12v21a692.405 692.405 0 0 1-18.5-24c-.671-.752-1.504-1.086-2.5-1v-8Z"/><path style="opacity:1" fill="#e5667c" d="M522.5 209.5a462.903 462.903 0 0 1 1 43h-44c14-14.667 28.333-29 43-43Z"/><path style="opacity:1" fill="#edc289" d="M534.5 215.5c.996-.086 1.829.248 2.5 1a692.405 692.405 0 0 0 18.5 24v196a3768.985 3768.985 0 0 0-14.5 19 54.53 54.53 0 0 1-6.5 6v-246Z"/><path style="opacity:1" fill="#bc627e" d="M522.5 209.5c.06-.543.393-.876 1-1 1.328 20.163 1.328 40.163 0 60v-16a462.903 462.903 0 0 0-1-43Z"/><path style="opacity:1" fill="#cb7a90" d="M183.5 248.5v4a729.55 729.55 0 0 0 1 54c-.283.789-.783 1.456-1.5 2a602.277 602.277 0 0 1 .5-60Z"/><path style="opacity:1" fill="#fb909d" d="M183.5 252.5h55a2064.164 2064.164 0 0 1-54 54 729.55 729.55 0 0 1-1-54ZM254.5 252.5h59a11778.92 11778.92 0 0 1-129 129 841.82 841.82 0 0 1-1-58c23.333-24 47-47.667 71-71Z"/><path style="opacity:1" fill="#fc909d" d="M330.5 251.5a841.82 841.82 0 0 0 58 1 29456.589 29456.589 0 0 1-204 204 841.82 841.82 0 0 1-1-58 15295.342 15295.342 0 0 1 147-147Z"/><path style="opacity:1" fill="#fb909d" d="M405.5 251.5a841.82 841.82 0 0 0 58 1 111560.322 111560.322 0 0 1-280.5 281c-.667-20-.667-40 0-60a69909.015 69909.015 0 0 1 222.5-222ZM479.5 252.5h44v16c-83 82.333-165.667 165-248 248a343.655 343.655 0 0 0-45-.5l-1.5 1.5c-.5 7.993-.666 15.993-.5 24-12.671.167-25.338 0-38-.5a117832.296 117832.296 0 0 1 289-288.5Z"/><path style="opacity:1" fill="#a4cef1" d="M566.5 255.5h48v285h-9c.167-19.336 0-38.67-.5-58a6.978 6.978 0 0 0-3.5-2.5 612.388 612.388 0 0 0-35-.5v-36c4.863.319 9.53-.014 14-1 4.873-2.839 5.207-6.172 1-10-4.805-.987-9.805-1.321-15-1v-55a112.97 112.97 0 0 0 15-.5c3.867-3.418 3.867-6.751 0-10a112.97 112.97 0 0 0-15-.5v-56a112.97 112.97 0 0 0 15-.5c4.241-3.794 3.908-7.127-1-10a98.432 98.432 0 0 0-14-.5v-43Z"/><path style="opacity:1" fill="#c0768f" d="M522.5 284.5c.06-.543.393-.876 1-1 1.328 20.163 1.328 40.163 0 60 .33-19.84-.003-39.507-1-59Z"/><path style="opacity:1" fill="#fb909d" d="M522.5 284.5a871.155 871.155 0 0 1 1 59c-46.667 46-93 92.333-139 139a625.997 625.997 0 0 0-50 1l-1.5 3a400.05 400.05 0 0 0 0 40c.422 1.926 1.589 2.926 3.5 3a177.724 177.724 0 0 1-11 11.5c-16.33.5-32.663.667-49 .5v-12l246-245Z"/><path style="opacity:1" fill="#d07d92" d="M183.5 323.5a841.82 841.82 0 0 0 1 58c-.283.789-.783 1.456-1.5 2a602.277 602.277 0 0 1 .5-60Z"/><path style="opacity:1" fill="#fb909d" d="M522.5 359.5a871.155 871.155 0 0 1 1 59c-21.667 21-43 42.333-64 64h-60a10708.704 10708.704 0 0 1 123-123Z"/><path style="opacity:1" fill="#b8728c" d="M522.5 359.5c.06-.543.393-.876 1-1 1.328 20.163 1.328 40.163 0 60 .33-19.84-.003-39.507-1-59Z"/><path style="opacity:1" fill="#7786af" d="M566.5 376.5v55c5.195-.321 10.195.013 15 1h-16a784.68 784.68 0 0 1 1-56Z"/><path style="opacity:1" fill="#d27e93" d="M183.5 398.5a841.82 841.82 0 0 0 1 58c-.283.789-.783 1.456-1.5 2a602.277 602.277 0 0 1 .5-60Z"/><path style="opacity:1" fill="#9ac0e5" d="M566.5 255.5v-1h49v287h-10v-1h9v-285h-48Z"/><path style="opacity:1" fill="#f98f9d" d="M522.5 434.5a507.055 507.055 0 0 1 1 45h-46a1433.501 1433.501 0 0 1 45-45Z"/><path style="opacity:1" fill="#b4708c" d="M522.5 434.5c.06-.543.393-.876 1-1a529.904 529.904 0 0 1 1 46h-1a507.055 507.055 0 0 0-1-45Z"/><path style="opacity:1" fill="#f8f8f8" d="M555.5 436.5v29a131.08 131.08 0 0 1-14 5.5c-1.922 2.43-4.255 4.263-7 5.5v-15a54.53 54.53 0 0 0 6.5-6 3768.985 3768.985 0 0 1 14.5-19Z"/><path style="opacity:1" fill="#7a8eb6" d="M580.5 442.5c-4.47.986-9.137 1.319-14 1v36h-1v-37h15Z"/><path style="opacity:.998" fill="#273339" d="M555.5 465.5v12c-5.231 2.507-5.231 3.174 0 2h11c11.671-.167 23.338 0 35 .5a6.978 6.978 0 0 1 3.5 2.5c.5 19.33.667 38.664.5 58v141c.166 9.672 0 19.339-.5 29l-1.5 1.5a463.293 463.293 0 0 1-52 1.5c-2.107-.968-4.441-1.302-7-1-20.003-.167-40.003 0-60 .5a1147.103 1147.103 0 0 1-31 17c-3.25 3.637-7.25 5.97-12 7-3.492 1.624-6.492 3.958-9 7-6.761 1.869-12.761 5.202-18 10-5.111 2.701-10.611 4.534-16.5 5.5a66.364 66.364 0 0 1-9.5-2.5 35.157 35.157 0 0 0-10-5c-3.796-3.592-8.129-6.259-13-8a279.412 279.412 0 0 0-19-12c-3.959.349-6.626-1.317-8-5-8.36-3.016-16.027-7.349-23-13a169.242 169.242 0 0 0-22-11l-19-13a126.364 126.364 0 0 0-20-9.5 353.513 353.513 0 0 1-20-13.5 285.561 285.561 0 0 0-26-13 18.839 18.839 0 0 0-6.5-5.5 924.222 924.222 0 0 1-.5-43h-15c-.283-.789-.783-1.456-1.5-2a462.27 462.27 0 0 1 0-43c.278-.916.778-1.582 1.5-2a61.281 61.281 0 0 1 15-1v-5h12v5c5.14.988 10.474 1.321 16 1 .295-2.235-.039-4.235-1-6v-11c-.166-8.007 0-16.007.5-24l1.5-1.5a343.655 343.655 0 0 1 45 .5 46.809 46.809 0 0 1 1 13v23h5v5c11.005-.167 22.005 0 33 .5 1.266.309 2.433.809 3.5 1.5a484.008 484.008 0 0 1 0 44c-.708.881-1.542 1.547-2.5 2-9.672-.166-19.339 0-29 .5.544.717 1.211 1.217 2 1.5a35.406 35.406 0 0 0 7 5.5l4 1a38.769 38.769 0 0 1 8 6 294.485 294.485 0 0 1 24.5 13.5 54.628 54.628 0 0 1 2-7 2628.43 2628.43 0 0 0 61.5-60.5l-10-4c-2.674-3.012-6.007-4.678-10-5a25.14 25.14 0 0 1-4-4.5h23c2.85 3.614 5.517 3.614 8 0 8.982.343 12.649-3.991 11-13-.017-3.413-.684-6.413-2-9a900.97 900.97 0 0 0-60-1h-15c-1.911-.074-3.078-1.074-3.5-3a400.05 400.05 0 0 1 0-40l1.5-3a625.997 625.997 0 0 1 50-1h75a19.602 19.602 0 0 0 3.5 2c.497 2.646.664 5.313.5 8v74a3103.154 3103.154 0 0 1-80.5 82 33.225 33.225 0 0 0 .5 14 10.756 10.756 0 0 1 3 2.5 63.17 63.17 0 0 0 21 1 195.443 195.443 0 0 0 36-21c5.093-1.382 9.426-4.049 13-8a65.813 65.813 0 0 0 13-5.5 2026.42 2026.42 0 0 0 1-90v-55c-.646-5.149 1.687-7.482 7-7h57v-3c2.745-1.237 5.078-3.07 7-5.5a131.08 131.08 0 0 0 14-5.5Z"/><path style="opacity:1" fill="#6e6557" d="M555.5 477.5v2c-5.231 1.174-5.231.507 0-2Z"/><path style="opacity:1" fill="#8f606a" d="M470.5 486.5v55h-1a702.728 702.728 0 0 0-1-53c.333-1 1-1.667 2-2Z"/><path style="opacity:1" fill="#a9916d" d="M597.5 488.5h-119v216a11770.92 11770.92 0 0 1-1-217c40.17-.332 80.17.001 120 1Z"/><path style="opacity:1" fill="#fb909d" d="M468.5 488.5a702.728 702.728 0 0 1 1 53h-5v-49c1-1.667 2.333-3 4-4Z"/><path style="opacity:1" fill="#eec389" d="M597.5 488.5v216h-119v-216h119Z"/><path style="opacity:1" fill="#7aa9ee" d="M377.5 673.5c25.828.998 51.828 1.331 78 1v30h-114c.321-5.526-.012-10.86-1-16-.167-19.003 0-38.003.5-57l79-79a65.046 65.046 0 0 0 1.5-15.5c-.032-4.919-.699-9.586-2-14-26.331-.5-52.665-.667-79-.5v-32h116c.333 25.009 0 50.009-1 75a9100.955 9100.955 0 0 0-80.5 80 169.166 169.166 0 0 0 0 26c.708.881 1.542 1.547 2.5 2Z"/><path style="opacity:1" fill="#283339" d="M516.5 519.5c14.337-.167 28.671 0 43 .5.916.374 1.75.874 2.5 1.5.83 50.237.664 100.404-.5 150.5a552.224 552.224 0 0 1-47 0 11.333 11.333 0 0 1-1.5-3.5 3601.9 3601.9 0 0 1 .5-147c1.239-.442 2.239-1.109 3-2Z"/><path style="opacity:1" fill="#a85666" d="M268.5 523.5h-31a361.608 361.608 0 0 1-1 38v-39c10.846-.328 21.513.006 32 1Z"/><path style="opacity:1" fill="#e6667c" d="M268.5 523.5a290.49 290.49 0 0 0 1.5 41 415.804 415.804 0 0 0 40.5 1v32a380.934 380.934 0 0 0-39 1c-.958.453-1.792 1.119-2.5 2a840.27 840.27 0 0 0-.5 41h-32a840.27 840.27 0 0 0-.5-41 6.978 6.978 0 0 0-3.5-2.5 760.316 760.316 0 0 0-39-.5v-31a380.934 380.934 0 0 0 39-1c2.333-.333 3.667-1.667 4-4a361.608 361.608 0 0 0 1-38h31Z"/><path style="opacity:1" fill="#e08595" d="M524.5 527.5v14h-4v-14h4Z"/><path style="opacity:1" fill="#4d4473" d="M524.5 527.5h10c.166 7.341 0 14.674-.5 22a14.698 14.698 0 0 1-3.5 3h-10v-11h4v-14Z"/><path style="opacity:1" fill="#f8f9f9" d="M534.5 527.5h21c.167 43.335 0 86.668-.5 130a2127.404 2127.404 0 0 0-11.5 7.5c-7.659.5-15.326.666-23 .5a651.277 651.277 0 0 1 1-51 51.064 51.064 0 0 0 5.5-4l1-50c2.203-2.169 3.036-4.835 2.5-8a14.698 14.698 0 0 0 3.5-3c.5-7.326.666-14.659.5-22Z"/><path style="opacity:1" fill="#8f6069" d="M351.5 530.5v-1a900.97 900.97 0 0 1 60 1c0 .667-.333 1-1 1a871.155 871.155 0 0 0-59-1Z"/><path style="opacity:1" fill="#4d4372" d="M336.5 529.5h15v1a70.852 70.852 0 0 0-10 10 580.852 580.852 0 0 0 59 .5 133.234 133.234 0 0 1 10-9.5c.667 0 1-.333 1-1 1.316 2.587 1.983 5.587 2 9 1.649 9.009-2.018 13.343-11 13h-126v-11c16.337.167 32.67 0 49-.5a177.724 177.724 0 0 0 11-11.5Z"/><path style="opacity:1" fill="#fa8f9d" d="M351.5 530.5c19.84-.33 39.507.003 59 1a133.234 133.234 0 0 0-10 9.5 580.852 580.852 0 0 1-59-.5 70.852 70.852 0 0 1 10-10Z"/><path style="opacity:1" fill="#615b78" d="M463.5 492.5h1v49h6a2026.42 2026.42 0 0 1-1 90v-79h-5c.319 4.863-.014 9.53-1 14v-74Z"/><path style="opacity:1" fill="#fc909d" d="M186.5 552.5h15v5a61.281 61.281 0 0 0-15 1v-6Z"/><path style="opacity:1" fill="#fefefe" d="M213.5 552.5h15v5h-15v-5Z"/><path style="opacity:1" fill="#5a6367" d="M228.5 552.5c.961 1.765 1.295 3.765 1 6-5.526.321-10.86-.012-16-1h15v-5Z"/><path style="opacity:1" fill="#a2ccef" d="M281.5 552.5h90a25.14 25.14 0 0 0 4 4.5c3.993.322 7.326 1.988 10 5l10 4a2628.43 2628.43 0 0 1-61.5 60.5 54.628 54.628 0 0 0-2 7 294.485 294.485 0 0 0-24.5-13.5 38.769 38.769 0 0 0-8-6l-4-1a35.406 35.406 0 0 1-7-5.5l27-2c.958-.453 1.792-1.119 2.5-2a484.008 484.008 0 0 0 0-44 11.333 11.333 0 0 0-3.5-1.5 544.417 544.417 0 0 0-33-.5v-5Z"/><path style="opacity:1" fill="#e2e3e4" d="M394.5 552.5h8c-2.483 3.614-5.15 3.614-8 0Z"/><path style="opacity:1" fill="#a2cdf0" d="M469.5 631.5a65.813 65.813 0 0 1-13 5.5c-3.574 3.951-7.907 6.618-13 8a195.443 195.443 0 0 1-36 21 63.17 63.17 0 0 1-21-1 10.756 10.756 0 0 0-3-2.5 33.225 33.225 0 0 1-.5-14 3103.154 3103.154 0 0 0 80.5-82c.986-4.47 1.319-9.137 1-14h5v79Z"/><path style="opacity:1" fill="#efc489" d="M605.5 552.5h5c.333 40.672 0 81.339-1 122-1.083 2.638-2.416 4.971-4 7v-129Z"/><path style="opacity:1" fill="#b75a6b" d="M232.5 565.5a380.934 380.934 0 0 1-39 1v31c-.994-10.487-1.328-21.154-1-32h40Z"/><path style="opacity:1" fill="#65434e" d="M310.5 565.5c.995 10.821 1.328 21.821 1 33h-40a380.934 380.934 0 0 1 39-1v-32Z"/><path style="opacity:1" fill="#fc909d" d="M186.5 605.5h15c-.167 14.337 0 28.671.5 43a18.839 18.839 0 0 1 6.5 5.5 285.561 285.561 0 0 1 26 13 353.513 353.513 0 0 0 20 13.5v38h-5v-3h-6v-3c-2.092-.061-3.592-1.061-4.5-3-1.299.466-2.799.466-4.5 0v-3c-1.788.285-3.455-.048-5-1-2.158-3.144-5.158-4.477-9-4v-3a12.93 12.93 0 0 1-5-.5c-2.625-3.031-6.125-5.864-10.5-8.5-2.537.677-4.537-.323-6-3l-1 1c-1.667-1-3-2.333-4-4-1.049 1.017-2.216 1.184-3.5.5l1-1a15.645 15.645 0 0 1-4-2.5c-1-24.991-1.333-49.991-1-75Z"/><path style="opacity:1" fill="#82a5c1" d="m315.5 605.5-27 2c-.789-.283-1.456-.783-2-1.5 9.661-.5 19.328-.666 29-.5Z"/><path style="opacity:1" fill="#fcfcfc" d="M332.5 688.5c.325 7.187-.009 14.187-1 21-8.08-2.706-15.413-6.873-22-12.5-5.093-1.382-9.426-4.049-13-8-6.4-2.062-12.067-5.396-17-10l-10-4-4-4a77.598 77.598 0 0 1-23-13 90.42 90.42 0 0 1-14-6 45.999 45.999 0 0 0-13-8l-1.5-1.5a684.346 684.346 0 0 1-.5-37h15c-.167 13.004 0 26.004.5 39a11.333 11.333 0 0 0 1.5 3.5c14.667.667 29.333.667 44 0a9.454 9.454 0 0 0 1.5-2.5l1-29a46.47 46.47 0 0 0 14.5 6.5 27.816 27.816 0 0 1 8 6 420.445 420.445 0 0 0 32 17 457.546 457.546 0 0 1 1 42.5Z"/><path style="opacity:1" fill="#919699" d="M469.5 707.5a961.42 961.42 0 0 0-1-62c.283-.789.783-1.456 1.5-2a684.92 684.92 0 0 1-.5 64Z"/><path style="opacity:1" fill="#fcfcfc" d="M468.5 645.5a961.42 961.42 0 0 1 1 62c-.787 1.604-2.12 2.271-4 2l-2-39c-.333-2.333-1.667-3.667-4-4l-25-2a257.34 257.34 0 0 1 34-19Z"/><path style="opacity:1" fill="#c5c8c9" d="m434.5 664.5 25 2c-9.006.166-18.006 0-27-.5.544-.717 1.211-1.217 2-1.5Z"/><path style="opacity:1" fill="#c9cccd" d="m463.5 670.5 2 39c-.06.543-.393.876-1 1a400.778 400.778 0 0 1-1-40Z"/><path style="opacity:1" fill="#3a4f65" d="M377.5 673.5h79c.328 10.846-.006 21.513-1 32v-31c-26.172.331-52.172-.002-78-1Z"/><path style="opacity:1" fill="#a3cef0" d="M254.5 680.5a126.364 126.364 0 0 1 20 9.5l19 13a169.242 169.242 0 0 1 22 11c6.973 5.651 14.64 9.984 23 13 1.374 3.683 4.041 5.349 8 5a279.412 279.412 0 0 1 19 12c4.871 1.741 9.204 4.408 13 8a35.157 35.157 0 0 1 10 5 66.364 66.364 0 0 0 9.5 2.5c5.889-.966 11.389-2.799 16.5-5.5 5.239-4.798 11.239-8.131 18-10 2.508-3.042 5.508-5.376 9-7 4.75-1.03 8.75-3.363 12-7a1147.103 1147.103 0 0 0 31-17c19.997-.5 39.997-.667 60-.5v6l-14 7a10.756 10.756 0 0 0-2.5 3l-1-1c-1.049 1.607-2.549 2.273-4.5 2v3h-6v3h-5v3c-2.524-.071-4.524.929-6 3-2.12-1.372-3.12-.705-3 2a12.93 12.93 0 0 0-5 .5 101.657 101.657 0 0 0-10 7.5 9.108 9.108 0 0 1-5 1v3c-2.51-.446-4.51.22-6 2-2.216.703-4.049 2.036-5.5 4-1.813-1.109-2.646-.442-2.5 2a12.93 12.93 0 0 0-5 .5c-1.497 1.871-3.497 2.871-6 3-1.307 2.324-3.307 3.657-6 4l2 1a12.93 12.93 0 0 1-5 .5v3a9.86 9.86 0 0 0-6 1 35.217 35.217 0 0 1-8 4v3h-6v3h-6v3a8.43 8.43 0 0 0-4 .5l-5 5c-1.284.684-2.451.517-3.5-.5-1.263 2.968-3.263 3.968-6 3a2.428 2.428 0 0 0-.5 2h-12c-.507-1.359-1.507-2.359-3-3a137.913 137.913 0 0 0-11-4v-3c-2.133-1.386-5.133-2.386-9-3v-3h-5v-3c-3.005.247-5.505-.753-7.5-3l-1 1a4.934 4.934 0 0 1-.5-3h-6v-3h-5v-3h-6v-3c-5.922-1.727-11.089-4.727-15.5-9-.718.951-1.551 1.117-2.5.5 1.333-.667 1.333-1.333 0-2a12.93 12.93 0 0 0-5-.5v-3a58.97 58.97 0 0 1-11-3v-3c-8.654-3.265-16.321-6.932-23-11v-3h-6v-3h-5v-3a9.108 9.108 0 0 1-5-1 20.07 20.07 0 0 0-9-5c-.798-.457-1.131-1.124-1-2v-38Z"/><path style="opacity:1" fill="#5d656a" d="M332.5 688.5c1.319 7.177 1.319 14.51 0 22-.607-.124-.94-.457-1-1 .991-6.813 1.325-13.813 1-21Z"/><path style="opacity:1" fill="#668dc3" d="M340.5 688.5c.988 5.14 1.321 10.474 1 16h114v1h-115v-17Z"/><path style="opacity:1" fill="#5c6468" d="M459.5 713.5c-40.837-.332-81.503.001-122 1-.789-.283-1.456-.783-2-1.5 42.708-.828 84.042-.661 124 .5Z"/><path style="opacity:1" fill="#fcfcfc" d="M337.5 714.5a3720.344 3720.344 0 0 1 122-1 1829.673 1829.673 0 0 0-61 35 97.288 97.288 0 0 0-12-5.5c-3.543-1.608-6.543-3.942-9-7-5.662-.917-10.329-3.583-14-8a78.488 78.488 0 0 1-23-13 4.934 4.934 0 0 0-3-.5Z"/><path style="opacity:1" fill="#e3bf8d" d="M544.5 712.5c2.559-.302 4.893.032 7 1a22.296 22.296 0 0 1-5 3.5l1 1a4.934 4.934 0 0 1-3 .5v-6Z"/><path style="opacity:1" fill="#a4cff1" d="M476.5 757.5c1.333.667 1.333.667 0 0Z"/></svg>