<?xml version="1.0" encoding="UTF-8"?><svg xmlns="http://www.w3.org/2000/svg" width="800" height="800" style="shape-rendering:geometricPrecision;text-rendering:geometricPrecision;image-rendering:optimizeQuality;fill-rule:evenodd;clip-rule:evenodd"><path style="opacity:1" fill="#0d2743" d="M368.5 84.5h-24a2274.227 2274.227 0 0 1-95-55 177.582 177.582 0 0 1-13-6c-4.637.72-9.303 1.22-14 1.5a638.192 638.192 0 0 1-20 10 134.486 134.486 0 0 0-13 9l-5 1a1707.925 1707.925 0 0 1-67 39.5h-56c2.29-.558 4.29-1.724 6-3.5 1.634-.493 3.3-.66 5-.5a4.932 4.932 0 0 1 .5-3l1 1c2.015-3.065 4.515-4.065 7.5-3v-3h5v-3c1.7.16 3.366-.007 5-.5 1.478-2.057 3.478-3.39 6-4l-2-1a18.436 18.436 0 0 1 6-.5v-3a87.51 87.51 0 0 0 14-5v-3h6v-3h5v-3c1.701-.466 3.201-.466 4.5 0 3.279-4.047 7.946-7.047 14-9a18.264 18.264 0 0 0 5-4l1 1c1.049-1.607 2.549-2.273 4.5-2v-3h5v-3h6v-3c4.612-1.195 9.279-2.862 14-5v-3c1.701-.466 3.201-.466 4.5 0 .908-1.939 2.408-2.939 4.5-3v-3h6v-3c1.788.285 3.455-.048 5-1a38.767 38.767 0 0 0 7-4.5 49.25 49.25 0 0 1 14 0c2.025 1.677 4.359 2.677 7 3-1.134 1.016-.801 1.683 1 2l5 1-1 1c2.622 3.073 5.955 4.573 10 4.5v3h6v3c3.191.262 5.858 1.596 8 4a9.864 9.864 0 0 0 6 1v3c3.58 1.22 7.247 2.386 11 3.5l-2 1c2.767.678 4.934 2.178 6.5 4.5l1-1c3.769 1.797 7.102 4.13 10 7a3.942 3.942 0 0 1 2-1c1.482 1.612 3.315 2.612 5.5 3v3h6v3h5v3h6v3a87.51 87.51 0 0 0 14 5v3c1.699-.16 3.366.007 5 .5l-1 1c1.525 1.009 3.192 1.509 5 1.5v3h6v3h5v3c2.985-1.065 5.485-.065 7.5 3l1-1c.483.948.649 1.948.5 3h5v3c2.235-.295 4.235.039 6 1ZM576.5-.5h9a2.429 2.429 0 0 0 .5 2c1.049-1.017 2.216-1.184 3.5-.5a20.495 20.495 0 0 0 2.5 3.5c1.356-.88 2.856-1.214 4.5-1v3c2.822 1.432 6.489 2.432 11 3v3c2.092.061 3.592 1.061 4.5 3 2.537-.677 4.537.323 6 3 2.361-.566 4.194.434 5.5 3l2-1c.35 2.067 2.017 3.067 5 3v3h6v3h5v3h6v3a27.247 27.247 0 0 0 9 3c-.219 1.175.114 2.175 1 3a6.846 6.846 0 0 1 4-1v3a8.435 8.435 0 0 1 4 .5c-1.154.914-.987 1.747.5 2.5 1.299-.466 2.799-.466 4.5 0v3h6v3h5v3a428.986 428.986 0 0 0 20 8.5l-2 1c2.522.61 4.522 1.943 6 4 1.634.493 3.301.66 5 .5v3c2.908-.238 5.242.762 7 3 .951-.826 1.951-.992 3-.5l-1 1a6.977 6.977 0 0 1 3.5 2.5l1-1c.483.948.649 1.948.5 3h6v3c1.915-.284 3.581.049 5 1h-56c-10.015-5.4-20.015-10.9-30-16.5-3.83-4.163-8.497-6.83-14-8a22.85 22.85 0 0 1-8-6.5 324.737 324.737 0 0 1-20-9.5 90.748 90.748 0 0 1-16-11.5 222.604 222.604 0 0 1-18-8.5 33.799 33.799 0 0 0-8.5-1.5 80.203 80.203 0 0 0-13.5 4.5c-6.555 5.59-13.889 9.924-22 13-1 1.667-2.333 3-4 4a106.602 106.602 0 0 1-14 6 365.134 365.134 0 0 0-28 18 24.564 24.564 0 0 0-8 3 146.657 146.657 0 0 1-23 13.5h-19c.734-1.208 1.067-2.541 1-4 4.493-.216 7.993-2.216 10.5-6 1.011.837 2.178 1.17 3.5 1v-3a59.031 59.031 0 0 0 11-3v-3c1.808.009 3.475-.491 5-1.5l-1-1a12.935 12.935 0 0 1 5-.5v-3a9.864 9.864 0 0 0 6-1 35.213 35.213 0 0 1 8-4v-3h6v-3a59.031 59.031 0 0 1 11-3v-3c1.808.009 3.475-.491 5-1.5-1.388-.89-1.222-1.39.5-1.5 2.071 1.167 3.571.5 4.5-2 6.434-2.343 12.767-5.343 19-9v-3a59.031 59.031 0 0 1 11-3 4.934 4.934 0 0 1 .5-3l1 1c1.995-2.247 4.495-3.247 7.5-3v-3h5v-3h6v-3c1.808.009 3.475-.491 5-1.5l-1-1a12.936 12.936 0 0 1 5-.5v-3c3.552.188 6.219-1.145 8-4Z"/><path style="opacity:1" fill="#263238" d="M679.5 84.5a36764.178 36764.178 0 0 0 72 41c1.526 1.63 3.526 2.463 6 2.5a36.078 36.078 0 0 1 3.5 4.5c.5 24.998.667 49.998.5 75v151c-.011 1.517-.677 2.684-2 3.5a113.606 113.606 0 0 0-28 15 1884.13 1884.13 0 0 0-86 50c-3.81 1.13-7.143 3.13-10 6a340.383 340.383 0 0 0-31 16.5 530.837 530.837 0 0 1-40 22.5l-6 5-22 11c-3.619 3.977-7.952 6.644-13 8a417.083 417.083 0 0 0-36 21.5c-3.832.127-6.499 1.96-8 5.5l-10 4-4 4-19 9-4 4a9230.984 9230.984 0 0 0-17 9c-1.323.816-1.989 1.983-2 3.5a131.276 131.276 0 0 0-3-13 1303.327 1303.327 0 0 1 64-37.5c2.537-2.546 5.537-4.212 9-5 3.31-3.497 7.31-5.83 12-7l6-5 22-11c3.619-3.977 7.952-6.644 13-8 2.537-2.546 5.537-4.212 9-5 1.918-2.928 4.585-4.594 8-5a7430.748 7430.748 0 0 1 128-73l4-4a114.302 114.302 0 0 0 13-6 846.02 846.02 0 0 0 33-20 73.86 73.86 0 0 0 9-3.5 7901.316 7901.316 0 0 0-1.5-216 2129.254 2129.254 0 0 1-37.5-21.5c-3.415-.406-6.082-2.072-8-5a91.311 91.311 0 0 1-23-13 457.332 457.332 0 0 0-22-11c-2.508-3.042-5.508-5.376-9-7a457.332 457.332 0 0 1-22-11l-24-15c-3.415-.406-6.082-2.072-8-5a90.401 90.401 0 0 0-14-6c-5.722-6.435-12.722-8.768-21-7-7.36 5.663-15.36 9.996-24 13-3.619 3.977-7.952 6.644-13 8-2.537 2.546-5.537 4.212-9 5l-4 4-10 4a2551.356 2551.356 0 0 0-60 36 7185.005 7185.005 0 0 1 26 16 114.065 114.065 0 0 0 14 6c4.2 3.6 8.867 6.433 14 8.5a684.54 684.54 0 0 1 19-8.5 43.593 43.593 0 0 1 13-8c2.365-3.714 5.698-5.714 10-6a705.673 705.673 0 0 1 21-12c4.719-2.307 9.719-2.974 15-2a113.107 113.107 0 0 0 28 15l5 5a182.852 182.852 0 0 1 35 20 193.115 193.115 0 0 1 32 19 83.62 83.62 0 0 1 18.5 9.5l3 5c.667 48.667.667 97.333 0 146-5.181 6.173-11.681 10.34-19.5 12.5a1935.4 1935.4 0 0 1-25 15.5v-14c2.328-1.8 4.995-2.967 8-3.5a679.07 679.07 0 0 1 23-15 12.93 12.93 0 0 1 5-.5v-67a162.597 162.597 0 0 0-.5-18l-2-2-1-51a102.363 102.363 0 0 1-8.5-5 3035.472 3035.472 0 0 1-106-61 3162.857 3162.857 0 0 0-66 36.5 33.225 33.225 0 0 1-14-.5 23954.568 23954.568 0 0 1-38-22 344.671 344.671 0 0 0-19-11.5c-6.921-5.743-6.588-11.076 1-16a175.777 175.777 0 0 0 21-12.5 146.657 146.657 0 0 0 23-13.5 24.564 24.564 0 0 1 8-3 365.134 365.134 0 0 1 28-18c4.911-1.71 9.578-3.71 14-6 1.667-1 3-2.333 4-4 8.111-3.076 15.445-7.41 22-13a80.203 80.203 0 0 1 13.5-4.5c2.898.137 5.731.637 8.5 1.5a222.604 222.604 0 0 0 18 8.5 90.748 90.748 0 0 0 16 11.5 324.737 324.737 0 0 0 20 9.5 22.85 22.85 0 0 0 8 6.5c5.503 1.17 10.17 3.837 14 8 9.985 5.6 19.985 11.1 30 16.5Z"/><path style="opacity:1" fill="#263238" d="M344.5 84.5a771.293 771.293 0 0 0 46 26c4.09 3.711 8.757 6.377 14 8a23.65 23.65 0 0 0 3 3.5c3.284.65 6.284 1.816 9 3.5 7.658 5.835 15.992 10.668 25 14.5l2 3c8.453 3.02 16.119 7.353 23 13a825.354 825.354 0 0 1 31 16.5c8.941 5.141 17.941 10.308 27 15.5 5.657 4.666 11.99 7.999 19 10a14.698 14.698 0 0 1 3 3.5 144.981 144.981 0 0 0-16 5 730.424 730.424 0 0 0-13-9.5c-8.449-3.02-16.115-7.353-23-13-5.521-1.096-10.187-3.762-14-8l-4-1a327.567 327.567 0 0 0-42-24c-4.758-4.768-10.425-7.768-17-9-3.065-4.125-7.065-6.791-12-8l-6-5a546.6 546.6 0 0 0-35-18 108.394 108.394 0 0 1-19-13 1516.16 1516.16 0 0 1-91-52l-20-10a15.28 15.28 0 0 1-4.5-1.5A112.066 112.066 0 0 0 206.5 48a190.467 190.467 0 0 0-22 11c-3.492 1.624-6.492 3.958-9 7l-10 4-4 4a520.666 520.666 0 0 0-59 34l-9 3c-3.796 3.592-8.13 6.259-13 8A361.546 361.546 0 0 1 48 137.5c-.667 72-.667 144 0 216a7214.146 7214.146 0 0 0 125 72c.5-21.664.667-43.331.5-65a340.197 340.197 0 0 0-18-8.5 55.63 55.63 0 0 0-18-10 78.488 78.488 0 0 0-23-13 56.965 56.965 0 0 0-10.5-7.5 5697.651 5697.651 0 0 1 0-151 6.978 6.978 0 0 1 2.5-3.5 146.497 146.497 0 0 0 31-18c8.372-3.019 16.038-7.352 23-13 5.093-1.382 9.426-4.049 13-8a90.42 90.42 0 0 0 14-6c1.918-2.928 4.585-4.594 8-5a226.438 226.438 0 0 1 29-17 42.498 42.498 0 0 1 13 0l4 4a154.79 154.79 0 0 0 13 6 1081.768 1081.768 0 0 0 33 20l4 1c8.98 5.636 17.98 11.302 27 17 7.27 1.913 13.604 5.58 19 11 4.75 1.03 8.75 3.363 12 7l10 4c5.054 5.058 11.054 8.392 18 10a773.931 773.931 0 0 0 23 15c8.372 3.019 16.038 7.352 23 13a68.273 68.273 0 0 0 13 6 102.658 102.658 0 0 1 15 10.5 95.802 95.802 0 0 1-15 4c-2.458-2.213-5.458-3.379-9-3.5-3.065-4.125-7.065-6.791-12-8-3.83-4.163-8.497-6.829-14-8a402.367 402.367 0 0 0-38-22.5 379.106 379.106 0 0 0-8-5.5 55.631 55.631 0 0 1-13-5.5 304.821 304.821 0 0 0-37-21c-5.343-4.342-11.343-7.675-18-10-15.598-11.394-32.265-21.227-50-29.5l-4.5-4.5c-2.133.918-4.3 1.084-6.5.5a368.678 368.678 0 0 1-44 26c-3.83 4.163-8.497 6.829-14 8a81.82 81.82 0 0 1-19 11c-5.201 4.797-11.201 8.13-18 10-4.849 4.198-10.183 7.531-16 10-1.641 1.129-2.641 2.629-3 4.5v92a441.579 441.579 0 0 0 1 42c4.925 1.48 9.259 3.98 13 7.5l10 4c1.918 2.928 4.585 4.594 8 5 2.674 3.012 6.007 4.678 10 5a82.15 82.15 0 0 0 22 13c3.192 2.028 5.859 4.528 8 7.5v64a91.442 91.442 0 0 0-2.5 15c-2.909 2.894-6.409 3.727-10.5 2.5a1450.014 1450.014 0 0 1-43-25 42.47 42.47 0 0 0-5-1.5c-5.359-4.51-11.359-8.01-18-10.5l-27-17a130.15 130.15 0 0 1-23-13c-3.96.349-6.626-1.317-8-5l-8-4c-.88-.708-1.547-1.542-2-2.5a765.405 765.405 0 0 1-1-53v-119c-.167-17.67 0-35.336.5-53l1-5a102.618 102.618 0 0 0 7.5-4 1180.832 1180.832 0 0 0 72-41 1707.925 1707.925 0 0 0 67-39.5l5-1a134.486 134.486 0 0 1 13-9 638.192 638.192 0 0 0 20-10c4.697-.28 9.363-.78 14-1.5a177.582 177.582 0 0 0 13 6 2274.227 2274.227 0 0 0 95 55Z"/><path style="opacity:1" fill="#fdfdfd" d="m530.5 206.5-79 18a102.658 102.658 0 0 0-15-10.5 68.273 68.273 0 0 1-13-6c-6.962-5.648-14.628-9.981-23-13a773.931 773.931 0 0 1-23-15c-6.946-1.608-12.946-4.942-18-10l-10-4c-3.25-3.637-7.25-5.97-12-7-5.396-5.42-11.73-9.087-19-11a10892.14 10892.14 0 0 0-27-17l-4-1a1081.768 1081.768 0 0 1-33-20 154.79 154.79 0 0 1-13-6l-4-4a42.498 42.498 0 0 0-13 0 226.438 226.438 0 0 0-29 17c-3.415.406-6.082 2.072-8 5a90.42 90.42 0 0 1-14 6c-3.574 3.951-7.907 6.618-13 8-6.962 5.648-14.628 9.981-23 13a146.497 146.497 0 0 1-31 18 6.978 6.978 0 0 0-2.5 3.5 5697.651 5697.651 0 0 0 0 151 56.965 56.965 0 0 1 10.5 7.5 78.488 78.488 0 0 1 23 13 55.63 55.63 0 0 1 18 10 340.197 340.197 0 0 1 18 8.5c.167 21.669 0 43.336-.5 65a7214.146 7214.146 0 0 1-125-72c-.667-72-.667-144 0-216A361.546 361.546 0 0 0 80.5 119c4.87-1.741 9.204-4.408 13-8l9-3a520.666 520.666 0 0 1 59-34l4-4 10-4c2.508-3.042 5.508-5.376 9-7a190.467 190.467 0 0 1 22-11A112.066 112.066 0 0 1 230 34.5a15.28 15.28 0 0 0 4.5 1.5l20 10a1516.16 1516.16 0 0 0 91 52 108.394 108.394 0 0 0 19 13 546.6 546.6 0 0 1 35 18l6 5c4.935 1.209 8.935 3.875 12 8 6.575 1.232 12.242 4.232 17 9a327.567 327.567 0 0 1 42 24l4 1c3.813 4.238 8.479 6.904 14 8 6.885 5.647 14.551 9.98 23 13a730.424 730.424 0 0 1 13 9.5Z"/><path style="opacity:1" fill="#fdfdfd" d="M420.5 543.5c-6.988-8.33-15.988-11.33-27-9 .166-6.675 0-13.342-.5-20-2.828-6.999-7.994-10.665-15.5-11a60.931 60.931 0 0 0-.5-11c-1.41-3.289-3.91-4.956-7.5-5v-13a40.775 40.775 0 0 0 6 4.5 90.42 90.42 0 0 0 14 6c3.681 4.321 8.348 5.654 14 4a619.746 619.746 0 0 0 37-22 24.569 24.569 0 0 0 8-3 246.812 246.812 0 0 0 18-12 532.543 532.543 0 0 1 10-4 679.07 679.07 0 0 1 23-15c4.69-1.17 8.69-3.503 12-7 6.764-2.434 12.764-6.101 18-11a90.42 90.42 0 0 0 14-6c4.933-4.604 10.6-7.938 17-10a146.497 146.497 0 0 1 31-18 59.724 59.724 0 0 1 20-11c2.022-3.534 5.022-5.034 9-4.5 5.204 1.754 10.538 2.254 16 1.5a10.515 10.515 0 0 1 3-2.5c2.948.277 5.781-.056 8.5-1 1.397-5.208 1.897-10.541 1.5-16a1935.4 1935.4 0 0 0 25-15.5c7.819-2.16 14.319-6.327 19.5-12.5.667-48.667.667-97.333 0-146l-3-5a83.62 83.62 0 0 0-18.5-9.5 193.115 193.115 0 0 0-32-19 182.852 182.852 0 0 0-35-20l-5-5a113.107 113.107 0 0 1-28-15c-5.281-.974-10.281-.307-15 2a705.673 705.673 0 0 0-21 12c-4.302.286-7.635 2.286-10 6a43.593 43.593 0 0 0-13 8 684.54 684.54 0 0 0-19 8.5 50.162 50.162 0 0 1-14-8.5 114.065 114.065 0 0 1-14-6 7185.005 7185.005 0 0 0-26-16 2551.356 2551.356 0 0 1 60-36l10-4 4-4c3.463-.788 6.463-2.454 9-5 5.048-1.356 9.381-4.023 13-8 8.64-3.004 16.64-7.337 24-13 8.278-1.768 15.278.565 21 7a90.401 90.401 0 0 1 14 6c1.918 2.928 4.585 4.594 8 5l24 15a457.332 457.332 0 0 0 22 11c3.492 1.624 6.492 3.958 9 7a457.332 457.332 0 0 1 22 11 91.311 91.311 0 0 0 23 13c1.918 2.928 4.585 4.594 8 5a2129.254 2129.254 0 0 0 37.5 21.5 7901.316 7901.316 0 0 1 1.5 216 73.86 73.86 0 0 1-9 3.5 846.02 846.02 0 0 1-33 20 114.302 114.302 0 0 1-13 6l-4 4a7430.748 7430.748 0 0 0-128 73c-3.415.406-6.082 2.072-8 5-3.463.788-6.463 2.454-9 5-5.048 1.356-9.381 4.023-13 8l-22 11-6 5c-4.69 1.17-8.69 3.503-12 7-3.463.788-6.463 2.454-9 5a1303.327 1303.327 0 0 0-64 37.5Z"/><path style="opacity:1" fill="#112d46" d="M61.5 84.5h56a1180.832 1180.832 0 0 1-72 41h-39c.246-3.651.246-7.151 0-10.5a169.104 169.104 0 0 0 15-5.5v-3a58.967 58.967 0 0 0 11-3v-3a417.79 417.79 0 0 0 15-7 32.686 32.686 0 0 0 8.5-6l1 1c1.699-1.24 3.199-2.574 4.5-4ZM344.5 84.5h24c.73 1.545 2.063 2.378 4 2.5l-1 1a20.093 20.093 0 0 0 6 1.5v3c2.908-.238 5.242.762 7 3l2-1c.35 2.067 2.017 3.067 5 3v3h6v3c2.516-.255 4.85-1.089 7-2.5a312.45 312.45 0 0 1 29-16.5h19a175.777 175.777 0 0 1-21 12.5c-7.588 4.924-7.921 10.257-1 16a344.671 344.671 0 0 1 19 11.5c-10.821.995-21.821 1.328-33 1-2.716-1.684-5.716-2.85-9-3.5a23.65 23.65 0 0 1-3-3.5c-5.243-1.623-9.91-4.289-14-8a771.293 771.293 0 0 1-46-26ZM679.5 84.5h56c7.173 5.44 15.507 9.94 25 13.5l-1 1c1.525 1.009 3.192 1.509 5 1.5v3h6v3h5v3c2.041.354 3.874.354 5.5 0 .483.948.649 1.948.5 3 2.836 1.276 5.836 1.942 9 2 1.453 3.486 2.119 7.153 2 11h-41a36764.178 36764.178 0 0 1-72-41Z"/><path style="opacity:1" fill="#153349" d="M6.5 125.5h39a102.618 102.618 0 0 1-7.5 4l-1 5c-.5 17.664-.667 35.33-.5 53h-30v-62Z"/><path style="opacity:1" fill="#153449" d="M363.5 186.5c-10.821.995-21.821 1.328-33 1a80.192 80.192 0 0 0-9-5c-3.129-3.603-7.129-5.269-12-5-.077-1.25-.744-2.083-2-2.5-4.736-1.218-8.903-.384-12.5 2.5-1.388-1.054-2.888-1.22-4.5-.5a259.063 259.063 0 0 1-14 10 12.93 12.93 0 0 1-5 .5h-158c.302-2.559-.032-4.893-1-7 .359-1.871 1.359-3.371 3-4.5 5.817-2.469 11.151-5.802 16-10 6.799-1.87 12.799-5.203 18-10a81.82 81.82 0 0 0 19-11c5.503-1.171 10.17-3.837 14-8a368.678 368.678 0 0 0 44-26c2.2.584 4.367.418 6.5-.5l4.5 4.5c17.735 8.273 34.402 18.106 50 29.5 6.657 2.325 12.657 5.658 18 10a304.821 304.821 0 0 1 37 21 55.631 55.631 0 0 0 13 5.5 379.106 379.106 0 0 1 8 5.5Z"/><path style="opacity:1" fill="#153348" d="M673.5 171.5a7747.008 7747.008 0 0 1-176 1 825.354 825.354 0 0 0-31-16.5c-6.881-5.647-14.547-9.98-23-13l-2-3c-9.008-3.832-17.342-8.665-25-14.5 11.179.328 22.179-.005 33-1a23954.568 23954.568 0 0 0 38 22 33.225 33.225 0 0 0 14 .5 3162.857 3162.857 0 0 1 66-36.5 3035.472 3035.472 0 0 0 106 61Z"/><path style="opacity:1" fill="#153349" d="M751.5 125.5h41v62h-30c.324 6.854-.009 13.521-1 20 .167-25.002 0-50.002-.5-75a36.078 36.078 0 0 0-3.5-4.5c-2.474-.037-4.474-.87-6-2.5Z"/><path style="opacity:1" fill="#040404" d="M442.5 168.5c2.489-.202 4.823.298 7 1.5a898.285 898.285 0 0 1 10.5 9.5c.667 1.667.667 3.333 0 5-1.946 2.639-2.946 5.639-3 9-.833 2.167-2.333 3.667-4.5 4.5a39.413 39.413 0 0 0-12.5.5c-2.873-.098-4.873-1.432-6-4-.139-3.325-1.139-6.325-3-9-1.807-6.692.693-10.692 7.5-12 1.357-1.686 2.69-3.352 4-5Z"/><path style="opacity:1" fill="#18384b" d="M673.5 171.5c2.697 1.77 5.53 3.437 8.5 5l1 51 2 2c.499 5.991.666 11.991.5 18-.988-5.14-1.321-10.474-1-16h-35v-9c.167-11.671 0-23.338-.5-35-1.182-1.857-2.849-2.857-5-3a453.077 453.077 0 0 1-22.5 5c-1.854-2.096-4.187-3.429-7-4a2514.817 2514.817 0 0 1-68 16 14.698 14.698 0 0 0-3-3.5c-7.01-2.001-13.343-5.334-19-10a22253.072 22253.072 0 0 1-27-15.5c58.836.332 117.502-.001 176-1Z"/><path style="opacity:1" fill="#263238" d="M309.5 177.5c-6.201-1.215-11.368.452-15.5 5-.602 2.721-.435 5.387.5 8a439.298 439.298 0 0 0-14 6.5l-4 4c-7.273 1.918-13.607 5.585-19 11a24.569 24.569 0 0 0-8 3 6204.11 6204.11 0 0 1-24 15 239.706 239.706 0 0 0-12 5.5v298a30.529 30.529 0 0 0-12 3v-305a76.332 76.332 0 0 1 8-6.5 463.337 463.337 0 0 0 45-27c7.068-1.235 12.734-4.735 17-10.5a12.93 12.93 0 0 0 5-.5 259.063 259.063 0 0 0 14-10c1.612-.72 3.112-.554 4.5.5 3.597-2.884 7.764-3.718 12.5-2.5 1.256.417 1.923 1.25 2 2.5Z"/><path style="opacity:.997" fill="#030303" d="M309.5 177.5c4.871-.269 8.871 1.397 12 5 .406 5.542-1.927 9.208-7 11v3c2.706.075 5.373.408 8 1 9.275 2.809 17.609 7.475 25 14l6 7a55.895 55.895 0 0 1 7 11c3.399 7.266 5.066 14.932 5 23a32.462 32.462 0 0 1-.5 8c-.748 2.251-2.248 3.584-4.5 4h-4v20h19c4.931.936 7.265 3.936 7 9a802.777 802.777 0 0 1-4 5 46.809 46.809 0 0 1-13 1 990.815 990.815 0 0 0 4 57 839.64 839.64 0 0 0 3 55 1498.05 1498.05 0 0 1 1.5 44c-1.451 1.964-3.284 3.297-5.5 4-3.152.541-5.652-.459-7.5-3-1.337-3.526-1.837-7.192-1.5-11a2068.081 2068.081 0 0 0-75 20 498.018 498.018 0 0 0-30 8 226.83 226.83 0 0 0-2 30h110a72.367 72.367 0 0 1 .5-12c1.571-2.423 3.737-3.756 6.5-4 3.59.044 6.09 1.711 7.5 5 .499 3.652.665 7.318.5 11 7.506.335 12.672 4.001 15.5 11 .5 6.658.666 13.325.5 20 11.012-2.33 20.012.67 27 9a131.276 131.276 0 0 1 3 13c-.284 1.915.049 3.581 1 5a230.64 230.64 0 0 1 3 36h168c5.195.321 10.195-.013 15-1 11.005-.167 22.005 0 33 .5 5.948 2.433 7.448 6.6 4.5 12.5a6.978 6.978 0 0 1-3.5 2.5c-11.328.5-22.662.667-34 .5h-424c-10.672.167-21.339 0-32-.5-5.035-3.013-6.202-7.18-3.5-12.5a29.517 29.517 0 0 1 4.5-2.5c10.328-.5 20.661-.666 31-.5v-9a5514.827 5514.827 0 0 1 6.5-40c1.898-4.498 4.731-8.164 8.5-11a30.529 30.529 0 0 1 12-3c2.448.973 5.115 1.306 8 1v-18c2.191-8.107 7.524-12.44 16-13a11860.975 11860.975 0 0 1 12-204 72.367 72.367 0 0 1-12-.5c-4.94-2.711-6.107-6.544-3.5-11.5 1.488-1.66 3.321-2.66 5.5-3h19v-20h-4c-2.252-.416-3.752-1.749-4.5-4-1.658-29.192 10.842-49.692 37.5-61.5a54.896 54.896 0 0 1 12-2.5c.124-3.449-1.543-5.449-5-6-.935-2.613-1.102-5.279-.5-8 4.132-4.548 9.299-6.215 15.5-5Z"/><path style="opacity:1" fill="#1a3b4c" d="M112.5 180.5c.968 2.107 1.302 4.441 1 7h158c-4.266 5.765-9.932 9.265-17 10.5a463.337 463.337 0 0 1-45 27 76.332 76.332 0 0 0-8 6.5h-88c.237 1.291-.096 2.291-1 3v-54Z"/><path style="opacity:1" fill="#263238" d="M321.5 182.5a80.192 80.192 0 0 1 9 5 1406.615 1406.615 0 0 1 19 12.5l5 1 16.5 12.5a12.494 12.494 0 0 1 0 7 173.234 173.234 0 0 0-10.5 9 55.895 55.895 0 0 0-7-11c2.186-.011 3.019-1.011 2.5-3a58.592 58.592 0 0 0-8.5-4c-7.391-6.525-15.725-11.191-25-14-1.982-2.637-4.648-3.97-8-4 5.073-1.792 7.406-5.458 7-11Z"/><path style="opacity:1" fill="#51e036" d="M649.5 222.5c-3.698-2.006-7.698-2.506-12-1.5a36313.324 36313.324 0 0 1-217 27.5 14176.646 14176.646 0 0 1 197-48.5c3.548-2.591 4.882-6.091 4-10.5a453.077 453.077 0 0 0 22.5-5c2.151.143 3.818 1.143 5 3 .5 11.662.667 23.329.5 35Z"/><path style="opacity:1" fill="#020202" d="M621.5 189.5c.882 4.409-.452 7.909-4 10.5a14176.646 14176.646 0 0 0-197 48.5 297.556 297.556 0 0 0-20.5 4c-4.246-.411-6.746-2.745-7.5-7 .044-3.59 1.711-6.09 5-7.5a816.958 816.958 0 0 0 39-9.5 95.802 95.802 0 0 0 15-4l79-18a144.981 144.981 0 0 1 16-5 2514.817 2514.817 0 0 0 68-16c2.813.571 5.146 1.904 7 4Z"/><path style="opacity:1" fill="#1b3c4c" d="M363.5 186.5a402.367 402.367 0 0 1 38 22.5c5.503 1.171 10.17 3.837 14 8 4.935 1.209 8.935 3.875 12 8 3.542.121 6.542 1.287 9 3.5a816.958 816.958 0 0 1-39 9.5c-3.289 1.41-4.956 3.91-5 7.5a802.89 802.89 0 0 1-27 7c.066-8.068-1.601-15.734-5-23a173.234 173.234 0 0 1 10.5-9 12.494 12.494 0 0 0 0-7L354.5 201l-5-1a1406.615 1406.615 0 0 0-19-12.5c11.179.328 22.179-.005 33-1Z"/><path style="opacity:1" fill="#fdfdfd" d="M294.5 190.5c3.457.551 5.124 2.551 5 6a54.896 54.896 0 0 0-12 2.5c-26.658 11.808-39.158 32.308-37.5 61.5.748 2.251 2.248 3.584 4.5 4 .709.904 1.709 1.237 3 1v18c-6.19-.323-12.19.01-18 1-2.179.34-4.012 1.34-5.5 3-2.607 4.956-1.44 8.789 3.5 11.5 3.986.499 7.986.666 12 .5a11860.975 11860.975 0 0 0-12 204c-8.476.56-13.809 4.893-16 13-.989 5.475-1.322 11.142-1 17h-7v-298a239.706 239.706 0 0 1 12-5.5 6204.11 6204.11 0 0 0 24-15 24.569 24.569 0 0 1 8-3c5.393-5.415 11.727-9.082 19-11l4-4a439.298 439.298 0 0 1 14-6.5Z"/><path style="opacity:1" fill="#d3d4d5" d="M314.5 193.5c3.352.03 6.018 1.363 8 4a41.541 41.541 0 0 0-8-1v-3Z"/><path style="opacity:1" fill="#ec1845" d="M315.5 211.5c-12.183 9.691-19.183 22.357-21 38h-30c2.8-18.641 13.134-31.141 31-37.5 6.696-1.582 13.363-1.749 20-.5Z"/><path style="opacity:1" fill="#fa4d79" d="M315.5 211.5c20.451 5.117 32.117 18.117 35 39-28.838.331-57.505-.002-86-1h30c1.817-15.643 8.817-28.309 21-38Z"/><path style="opacity:1" fill="#dadcdc" d="M347.5 211.5a58.592 58.592 0 0 1 8.5 4c.519 1.989-.314 2.989-2.5 3l-6-7Z"/><path style="opacity:1" fill="#57f93c" d="M649.5 222.5v104c-.723 1.713-2.057 2.713-4 3a32035.518 32035.518 0 0 0-236-31h-2a828.226 828.226 0 0 1-25-5c.265-5.064-2.069-8.064-7-9-5.81-.99-11.81-1.323-18-1v-18c1.291.237 2.291-.096 3-1 2.252-.416 3.752-1.749 4.5-4 .497-2.646.664-5.313.5-8a802.89 802.89 0 0 0 27-7c.754 4.255 3.254 6.589 7.5 7a297.556 297.556 0 0 1 20.5-4 36313.324 36313.324 0 0 0 217-27.5c4.302-1.006 8.302-.506 12 1.5Z"/><path style="opacity:1" fill="#1c3f4e" d="M6.5 187.5h30v78h-30v-78Z"/><path style="opacity:1" fill="#1e414f" d="M201.5 231.5v34h-88c.302 2.559-.032 4.893-1 7v-38c.904-.709 1.237-1.709 1-3h88Z"/><path style="opacity:1" fill="#1e414e" d="M649.5 231.5h35c-.321 5.526.012 10.86 1 16v37c-.99-6.145-1.323-12.478-1-19h-35v-34Z"/><path style="opacity:1" fill="#1c3f4e" d="M792.5 187.5v78h-30c.306 2.885-.027 5.552-1 8v-66c.991-6.479 1.324-13.146 1-20h30Z"/><path style="opacity:1" fill="#070604" d="M561.5 246.5c6.842-.158 10.508 3.175 11 10 10.054-1.454 13.887 2.546 11.5 12a48.407 48.407 0 0 0-5.5 5.5c3.811 7.206 1.811 11.706-6 13.5-3.203-.268-5.87-1.602-8-4-11.407 7.235-16.407 4.235-15-9a26.477 26.477 0 0 0-5.5-7c-.96-8.374 2.873-12.207 11.5-11.5 1.138-3.79 3.138-6.957 6-9.5Z"/><path style="opacity:1" fill="#5cb93b" d="M302.5 264.5c-9.486.994-19.152 1.327-29 1v19c-.991-6.479-1.324-13.146-1-20h30Z"/><path style="opacity:1" fill="#54de39" d="M302.5 264.5a380.934 380.934 0 0 1 39 1h-38v18h38a1156.835 1156.835 0 0 1-68 1v-19c9.848.327 19.514-.006 29-1Z"/><path style="opacity:1" fill="#57fa3b" d="M341.5 265.5v18h-38v-18h38Z"/><path style="opacity:1" fill="#224852" d="M6.5 265.5h30v41h-30v-41ZM201.5 265.5v41h-88v8a441.579 441.579 0 0 1-1-42c.968-2.107 1.302-4.441 1-7h88ZM649.5 265.5h35c-.323 6.522.01 12.855 1 19v30a12.93 12.93 0 0 0-5 .5 679.07 679.07 0 0 0-23 15c-3.005.533-5.672 1.7-8 3.5v-68Z"/><path style="opacity:1" fill="#224751" d="M792.5 265.5v41h-30c.302 2.559-.032 4.893-1 7v-40c.973-2.448 1.306-5.115 1-8h30Z"/><path style="opacity:1" fill="#a6a6a6" d="M254.5 264.5h4v20h-19c5.81-.99 11.81-1.323 18-1v-18c-1.291.237-2.291-.096-3-1Z"/><path style="opacity:1" fill="#85d052" d="M360.5 264.5c-.709.904-1.709 1.237-3 1v18c6.19-.323 12.19.01 18 1h-19v-20h4Z"/><path style="opacity:1" fill="#57e039" d="M382.5 293.5a828.226 828.226 0 0 0 25 5c-4.745-.961-8.078.706-10 5a396.842 396.842 0 0 1-19-5 802.777 802.777 0 0 0 4-5Z"/><path style="opacity:1" fill="#010201" d="M407.5 298.5h2a13986.701 13986.701 0 0 0 226 55.5c1.833.5 3 1.667 3.5 3.5.497 2.31.663 4.643.5 7a10.515 10.515 0 0 0-3 2.5c-5.462.754-10.796.254-16-1.5a287.59 287.59 0 0 1-19-5 989.994 989.994 0 0 1-25-5c-5.896-1.644-11.896-3.31-18-5a917.107 917.107 0 0 1-29-7 396.755 396.755 0 0 1-13-3l-116-28.5c-2.43-2.305-3.43-5.138-3-8.5 1.922-4.294 5.255-5.961 10-5Z"/><path style="opacity:1" fill="#b7a88a" d="M264.5 300.5a1123.302 1123.302 0 0 1 82-.5 42.47 42.47 0 0 1-5 1.5 576.628 576.628 0 0 0-48-1h-29Z"/><path style="opacity:1" fill="#e4c992" d="M264.5 300.5h29v14a749.206 749.206 0 0 0-30 8l-1-2.5a576.816 576.816 0 0 1 2-19.5Z"/><path style="opacity:1" fill="#f6e7c4" d="M293.5 300.5c16.175-.33 32.175.004 48 1a1274.557 1274.557 0 0 0-48 13v-14Z"/><path style="opacity:1" fill="#51e036" d="M409.5 298.5a32035.518 32035.518 0 0 1 236 31c1.943-.287 3.277-1.287 4-3v21c.397 5.459-.103 10.792-1.5 16-2.719.944-5.552 1.277-8.5 1a24.935 24.935 0 0 0-.5-7c-.5-1.833-1.667-3-3.5-3.5a13986.701 13986.701 0 0 1-226-55.5Z"/><path style="opacity:1" fill="#254d54" d="M201.5 306.5v50h-17c-2.141-2.972-4.808-5.472-8-7.5a82.15 82.15 0 0 1-22-13c-3.993-.322-7.326-1.988-10-5-3.415-.406-6.082-2.072-8-5l-10-4c-3.741-3.52-8.075-6.02-13-7.5v-8h88Z"/><path style="opacity:1" fill="#fb4e7b" d="M290.5 359.5c.722-9.662 1.389-19.329 2-29a766.994 766.994 0 0 1 59-16c.93 9.568.93 19.068 0 28.5a4131.093 4131.093 0 0 1-61 16.5Z"/><path style="opacity:1" fill="#eb1845" d="M292.5 330.5a2529.442 2529.442 0 0 1-2 29 930.84 930.84 0 0 0-29 8l-1-6a901.543 901.543 0 0 0 1.5-23 292.511 292.511 0 0 1 30.5-8Z"/><path style="opacity:1" fill="#264f55" d="M378.5 298.5a396.842 396.842 0 0 0 19 5c-.43 3.362.57 6.195 3 8.5l116 28.5c1.655 6.8 2.322 13.8 2 21-.951-1.419-1.284-3.085-1-5h-148a990.815 990.815 0 0 1-4-57 46.809 46.809 0 0 0 13-1Z"/><path style="opacity:1" fill="#263238" d="M516.5 340.5a396.755 396.755 0 0 0 13 3c-1.325 3.776-1.991 7.943-2 12.5l.5 12.5a48.835 48.835 0 0 0 13.5-8.5l10-4a35.406 35.406 0 0 0 7-5.5c6.104 1.69 12.104 3.356 18 5-5.155.969-9.488 3.469-13 7.5a157.436 157.436 0 0 0-27 15 98.318 98.318 0 0 0-12 5.5c-2.412.094-4.245-.906-5.5-3-.5-6.325-.666-12.658-.5-19 .322-7.2-.345-14.2-2-21Z"/><path style="opacity:1" fill="#f8f8f8" d="M529.5 343.5a917.107 917.107 0 0 0 29 7 35.406 35.406 0 0 1-7 5.5l-10 4a48.835 48.835 0 0 1-13.5 8.5l-.5-12.5c.009-4.557.675-8.724 2-12.5Z"/><path style="opacity:1" fill="#264f55" d="M6.5 306.5h30a765.405 765.405 0 0 0 1 53c-.904-.709-1.237-1.709-1-3h-30v-50ZM792.5 306.5v50c-10.591-.605-20.925.062-31 2v-45c.968-2.107 1.302-4.441 1-7h30Z"/><path style="opacity:1" fill="#f6e8c5" d="M287.5 404.5a358.847 358.847 0 0 0 2-29 930.296 930.296 0 0 1 65-17c.099 9.344.432 18.677 1 28l-68 18Z"/><path style="opacity:1" fill="#273339" d="M601.5 360.5a287.59 287.59 0 0 0 19 5c-3.978-.534-6.978.966-9 4.5a59.724 59.724 0 0 0-20 11 146.497 146.497 0 0 0-31 18c-6.4 2.062-12.067 5.396-17 10a90.42 90.42 0 0 1-14 6c-5.236 4.899-11.236 8.566-18 11-3.31 3.497-7.31 5.83-12 7a679.07 679.07 0 0 0-23 15 532.543 532.543 0 0 0-10 4 246.812 246.812 0 0 1-18 12 24.569 24.569 0 0 1-8 3 619.746 619.746 0 0 1-37 22c-5.652 1.654-10.319.321-14-4a90.42 90.42 0 0 1-14-6 40.775 40.775 0 0 1-6-4.5c-.986-4.47-1.319-9.137-1-14a270.027 270.027 0 0 1 30.5 17 182.603 182.603 0 0 0 28.5-16.5l4-1a83.41 83.41 0 0 1 14-10c1.284-.684 2.451-.517 3.5.5l14.5-10.5c5.009-1.005 9.342-3.339 13-7a1617.786 1617.786 0 0 0 36-20.5c5.694-4.517 12.028-8.017 19-10.5 4.933-4.604 10.6-7.938 17-10l4-4 14-6 4-4a517.21 517.21 0 0 0 27-14c1.231-1.405 2.564-2.571 4-3.5Z"/><path style="opacity:1" fill="#2c5859" d="M6.5 356.5h30c-.237 1.291.096 2.291 1 3 .453.958 1.12 1.792 2 2.5l8 4c1.374 3.683 4.04 5.349 8 5a130.15 130.15 0 0 0 23 13l27 17c6.641 2.49 12.641 5.99 18 10.5h-34c-2.648-.667-4.982-2.001-7-4a3.647 3.647 0 0 0-1.5 1c-1.667-1-3-2.333-4-4l-1 1a4.932 4.932 0 0 1-.5-3h-6v-3h-5v-3a544.412 544.412 0 0 1-29-14v-3a58.967 58.967 0 0 1-11-3v-3h-6v-3c-4.013-1.674-8.013-3.341-12-5v-9ZM184.5 356.5h17v58c-.904-.709-1.237-1.709-1-3h-15c.31 3.213-.023 6.213-1 9v-64ZM576.5 355.5a989.994 989.994 0 0 0 25 5c-1.436.929-2.769 2.095-4 3.5a517.21 517.21 0 0 1-27 14l-4 4-14 6-4 4c-6.4 2.062-12.067 5.396-17 10-6.972 2.483-13.306 5.983-19 10.5a4900.286 4900.286 0 0 0-140-1 839.64 839.64 0 0 1-3-55h148c-.284 1.915.049 3.581 1 5-.166 6.342 0 12.675.5 19 1.255 2.094 3.088 3.094 5.5 3a98.318 98.318 0 0 1 12-5.5 157.436 157.436 0 0 1 27-15c3.512-4.031 7.845-6.531 13-7.5Z"/><path style="opacity:1" fill="#2d5a5a" d="M792.5 356.5v9c-3.013-.128-5.513.872-7.5 3-2.411-1.653-3.578-.987-3.5 2-1.701.466-3.201.466-4.5 0-3.844 1.975-7.177 4.642-10 8l-1-1c-1.049 1.607-2.549 2.273-4.5 2v3c-3.937.204-7.604 1.204-11 3 .381 2.442-.286 3.109-2 2-.886.825-1.219 1.825-1 3h-6v3a12.93 12.93 0 0 0-5 .5c-1.079 2.043-2.746 3.376-5 4l1 1a12.93 12.93 0 0 1-5 .5v3a9.86 9.86 0 0 0-6 1c-3.423 1.192-6.256 3.192-8.5 6l-1-1c-1.049 1.607-2.549 2.273-4.5 2v3h-6v3h-5v3c-2.185.388-4.018 1.388-5.5 3-2.278-1.12-3.778-.287-4.5 2.5a101.955 101.955 0 0 0-13 5.5v3h-6v3h-6v3c-1.788-.285-3.455.048-5 1 1.129 2.029.629 2.363-1.5 1-1.712 3.452-4.212 4.452-7.5 3v3c-2.51-.446-4.51.22-6 2h-37a340.383 340.383 0 0 1 31-16.5c2.857-2.87 6.19-4.87 10-6a1884.13 1884.13 0 0 1 86-50 113.606 113.606 0 0 1 28-15c1.323-.816 1.989-1.983 2-3.5 10.075-1.938 20.409-2.605 31-2Z"/><path style="opacity:1" fill="#e3c992" d="M289.5 375.5a358.847 358.847 0 0 1-2 29 265.852 265.852 0 0 1-30 8c.198-9.697.865-19.364 2-29a498.018 498.018 0 0 1 30-8Z"/><path style="opacity:1" fill="#fb4e7b" d="M285.5 449.5a340.858 340.858 0 0 0 1-29 2694.2 2694.2 0 0 1 70-19c.805 9.667 1.472 19.333 2 29a1954.497 1954.497 0 0 0-73 19Z"/><path style="opacity:1" fill="#30605c" d="M372.5 411.5c46.836-.332 93.503.001 140 1a1617.786 1617.786 0 0 1-36 20.5c-3.658 3.661-7.991 5.995-13 7L449 450.5c-1.049-1.017-2.216-1.184-3.5-.5a83.41 83.41 0 0 0-14 10l-4 1a182.603 182.603 0 0 1-28.5 16.5 270.027 270.027 0 0 0-30.5-17v-1c2.216-.703 4.049-2.036 5.5-4a1498.05 1498.05 0 0 0-1.5-44Z"/><path style="opacity:1" fill="#eb1745" d="M286.5 420.5a340.858 340.858 0 0 1-1 29 216.924 216.924 0 0 1-31 8 850.118 850.118 0 0 1 2.5-29 490.605 490.605 0 0 1 29.5-8Z"/><path style="opacity:1" fill="#31615d" d="M89.5 411.5h34a42.47 42.47 0 0 1 5 1.5 1450.014 1450.014 0 0 0 43 25c4.091 1.227 7.591.394 10.5-2.5a91.442 91.442 0 0 1 2.5-15c.977-2.787 1.31-5.787 1-9h15c-.237 1.291.096 2.291 1 3v77a61.281 61.281 0 0 0-15-1c.166-8.673 0-17.34-.5-26a1204.023 1204.023 0 0 0-28.5-16.5c-6.204-2.789-12.537-4.622-19-5.5v-3h-6v-3h-3v-3h-6v-3h-5v-3c-2.921.354-5.254-.646-7-3-1.714 1.109-2.381.442-2-2a58.97 58.97 0 0 1-11-3v-3a561.998 561.998 0 0 1-7.5-3c-1.03-.336-1.53-1.003-1.5-2Z"/><path style="opacity:1" fill="#f8e9c6" d="M368.5 459.5v1c-.319 4.863.014 9.53 1 14v13c-2.763.244-4.929 1.577-6.5 4a72.367 72.367 0 0 0-.5 12h-80a685.355 685.355 0 0 1 2-38 2068.081 2068.081 0 0 1 75-20c-.337 3.808.163 7.474 1.5 11 1.848 2.541 4.348 3.541 7.5 3Z"/><path style="opacity:1" fill="#356760" d="M604.5 449.5h37a36.807 36.807 0 0 1-8 4v3h-6v3c-1.788-.285-3.455.048-5 1a28.335 28.335 0 0 0-9.5 6l-1-1c-1.049 1.607-2.549 2.273-4.5 2v23h-11c.284 1.915-.049 3.581-1 5 1.533-10.253-2.801-14.086-13-11.5a58.51 58.51 0 0 1-11 5l-5 5a64.953 64.953 0 0 0-18 8 662.414 662.414 0 0 1-27 16.5c-11.154-.995-22.488-1.328-34-1a417.083 417.083 0 0 1 36-21.5c5.048-1.356 9.381-4.023 13-8l22-11 6-5a530.837 530.837 0 0 0 40-22.5Z"/><path style="opacity:1" fill="#e6cb93" d="M284.5 465.5a685.355 685.355 0 0 0-2 38h-30a226.83 226.83 0 0 1 2-30 498.018 498.018 0 0 1 30-8Z"/><path style="opacity:1" fill="#263238" d="M595.5 495.5v102h-12v-1c.167-33.335 0-66.668-.5-100a599.649 599.649 0 0 0-36.5 21.5l-4 1c-3.439 3.52-7.439 6.02-12 7.5.167 10.672 0 21.339-.5 32-.717.544-1.217 1.211-1.5 2a342.787 342.787 0 0 0-1 37h-9v-29c-.167-16.337 0-32.67.5-49 .671-.752 1.504-1.086 2.5-1a662.414 662.414 0 0 0 27-16.5 64.953 64.953 0 0 1 18-8l5-5a58.51 58.51 0 0 0 11-5c10.199-2.586 14.533 1.247 13 11.5Z"/><path style="opacity:1" fill="#fefefe" d="M583.5 596.5h-55v-36c.283-.789.783-1.456 1.5-2 .5-10.661.667-21.328.5-32 4.561-1.48 8.561-3.98 12-7.5l4-1a599.649 599.649 0 0 1 36.5-21.5c.5 33.332.667 66.665.5 100Z"/><path style="opacity:1" fill="#396f63" d="M186.5 490.5a61.281 61.281 0 0 1 15 1v45c-3.769 2.836-6.602 6.502-8.5 11a5514.827 5514.827 0 0 0-6.5 40v-97Z"/><path style="opacity:1" fill="#7f7f7f" d="M221.5 516.5v18c-2.885.306-5.552-.027-8-1h7c-.322-5.858.011-11.525 1-17Z"/><path style="opacity:1" fill="#404353" d="M274.5 518.5c-.704 4.303.63 7.803 4 10.5l77 1c3.535 2.838 3.868 6.005 1 9.5a61.234 61.234 0 0 1-15 1c-1.043-2.556-2.71-4.723-5-6.5-33.332-.5-66.665-.667-100-.5v-15h38Z"/><path style="opacity:1" fill="#5a5c6d" d="M274.5 518.5h104v15c-4.797-.379-9.464.121-14 1.5-4.249 4.801-3.916 9.134 1 13l39 1 3.5 3.5a335.792 335.792 0 0 1 4 42l-1.5 1.5c-56.332.5-112.666.667-169 .5a47.499 47.499 0 0 0-1-5.5 717.18 717.18 0 0 0 6-41.5c29.838.331 59.505-.002 89-1 3.891-1.227 5.891-3.894 6-8a61.234 61.234 0 0 0 15-1c2.868-3.495 2.535-6.662-1-9.5l-77-1c-3.37-2.697-4.704-6.197-4-10.5Z"/><path style="opacity:1" fill="#3b7265" d="M487.5 517.5c11.512-.328 22.846.005 34 1-.996-.086-1.829.248-2.5 1-.5 16.33-.667 32.663-.5 49-.977-2.787-1.31-5.787-1-9-31.351-.659-62.351.008-93 2-.951-1.419-1.284-3.085-1-5 .011-1.517.677-2.684 2-3.5 5.673-3.011 11.34-6.011 17-9l4-4 19-9 4-4 10-4c1.501-3.54 4.168-5.373 8-5.5Z"/><path style="opacity:1" fill="#3b7365" d="M607.5 490.5a98.432 98.432 0 0 0 .5 14c.414.457.914.791 1.5 1 1 30.326 1.333 60.659 1 91-4.805.987-9.805 1.321-15 1v-102c.951-1.419 1.284-3.085 1-5h11Z"/><path style="opacity:1" fill="#404353" d="M335.5 548.5a1981.572 1981.572 0 0 1-89 1 717.18 717.18 0 0 1-6 41.5 47.499 47.499 0 0 1 1 5.5c-12.338.167-24.671 0-37-.5l-2.5-2.5a501.43 501.43 0 0 1 5-41 9.454 9.454 0 0 1 1.5-2.5 2716.23 2716.23 0 0 1 127-1.5Z"/><path style="opacity:1" fill="#3f7766" d="M518.5 568.5v29h-91a230.64 230.64 0 0 0-3-36c30.649-1.992 61.649-2.659 93-2-.31 3.213.023 6.213 1 9Z"/><path style="opacity:1" fill="#c3c3c3" d="M528.5 560.5v36h55v1h-56a342.787 342.787 0 0 1 1-37Z"/><path style="opacity:1" fill="#273339" d="M201.5 612.5h12c-.166 10.006 0 20.006.5 30a46.99 46.99 0 0 0 10.5 5.5l4 4a90.42 90.42 0 0 0 14 6 77.598 77.598 0 0 0 23 13l4 4 10 4c4.933 4.604 10.6 7.938 17 10 3.574 3.951 7.907 6.618 13 8 6.962 5.648 14.628 9.981 23 13 1.918 2.928 4.585 4.594 8 5a78.488 78.488 0 0 0 23 13c3.671 4.417 8.338 7.083 14 8 2.457 3.058 5.457 5.392 9 7a97.288 97.288 0 0 1 12 5.5 23356.745 23356.745 0 0 0 182-104.5 4.457 4.457 0 0 1 2-1.5 225.771 225.771 0 0 0 1-30h12c.166 10.006 0 20.006-.5 30-3.051 6.721-7.884 11.888-14.5 15.5-8.382 3.359-16.049 8.026-23 14a78.488 78.488 0 0 0-23 13 55.63 55.63 0 0 0-18 10 236.382 236.382 0 0 0-36 20.5 557.924 557.924 0 0 0-27 14.5c-3.25 3.637-7.25 5.97-12 7-3.492 1.624-6.492 3.958-9 7-6.761 1.869-12.761 5.202-18 10-5.111 2.701-10.611 4.534-16.5 5.5a66.364 66.364 0 0 1-9.5-2.5 35.157 35.157 0 0 0-10-5c-3.796-3.592-8.129-6.259-13-8a279.412 279.412 0 0 0-19-12c-3.959.349-6.626-1.317-8-5l-10-4c-3.557-3.275-7.557-5.775-12-7.5-6.997-5.169-14.663-9.336-23-12.5-11.4-8.753-23.733-15.753-37-21-9.114-7.554-19.114-13.554-30-18-5.31-4.328-11.31-7.661-18-10-1.424-2.218-3.424-3.718-6-4.5a352.81 352.81 0 0 1-1-37Z"/><path style="opacity:1" fill="#fdfdfd" d="M213.5 612.5h60c4.866 5.35 10.866 8.85 18 10.5a175.043 175.043 0 0 0 28 16 30.316 30.316 0 0 0 12 7c3.705 4.342 8.372 7.009 14 8a50.886 50.886 0 0 1 10 7 605.838 605.838 0 0 0 38 21c4 .667 8 .667 12 0 6.962-5.648 14.628-9.981 23-13a679.07 679.07 0 0 0 23-15l22-11a83.449 83.449 0 0 1 24-13c6.218-5.632 13.218-9.965 21-13a208.311 208.311 0 0 0 5-4.5h60a225.771 225.771 0 0 1-1 30 4.457 4.457 0 0 0-2 1.5 23356.745 23356.745 0 0 1-182 104.5 97.288 97.288 0 0 0-12-5.5c-3.543-1.608-6.543-3.942-9-7-5.662-.917-10.329-3.583-14-8a78.488 78.488 0 0 1-23-13c-3.415-.406-6.082-2.072-8-5-8.372-3.019-16.038-7.352-23-13-5.093-1.382-9.426-4.049-13-8-6.4-2.062-12.067-5.396-17-10l-10-4-4-4a77.598 77.598 0 0 1-23-13 90.42 90.42 0 0 1-14-6l-4-4a46.99 46.99 0 0 1-10.5-5.5c-.5-9.994-.666-19.994-.5-30Z"/><path style="opacity:1" fill="#273339" d="M273.5 612.5h22a777.154 777.154 0 0 1 31 18.5 90.42 90.42 0 0 0 14 6 523.182 523.182 0 0 0 22 15c8.681 3.01 16.681 7.344 24 13 4.471 2.161 8.971 4.327 13.5 6.5a2929.62 2929.62 0 0 1 12.5-8.5 146.497 146.497 0 0 0 31-18c5.093-1.382 9.426-4.049 13-8l9-3a943.559 943.559 0 0 1 36-21.5h22a208.311 208.311 0 0 1-5 4.5c-7.782 3.035-14.782 7.368-21 13a83.449 83.449 0 0 0-24 13l-22 11a679.07 679.07 0 0 1-23 15c-8.372 3.019-16.038 7.352-23 13-4 .667-8 .667-12 0a605.838 605.838 0 0 1-38-21 50.886 50.886 0 0 0-10-7c-5.628-.991-10.295-3.658-14-8a30.316 30.316 0 0 1-12-7 175.043 175.043 0 0 1-28-16c-7.134-1.65-13.134-5.15-18-10.5Z"/><path style="opacity:1" fill="#43806a" d="M295.5 612.5h206a943.559 943.559 0 0 0-36 21.5l-9 3c-3.574 3.951-7.907 6.618-13 8a146.497 146.497 0 0 1-31 18 2929.62 2929.62 0 0 0-12.5 8.5 5215.086 5215.086 0 0 1-13.5-6.5c-7.319-5.656-15.319-9.99-24-13a523.182 523.182 0 0 1-22-15 90.42 90.42 0 0 1-14-6 777.154 777.154 0 0 0-31-18.5Z"/><path style="opacity:1" fill="#47866d" d="M186.5 612.5h15a352.81 352.81 0 0 0 1 37c2.576.782 4.576 2.282 6 4.5 6.69 2.339 12.69 5.672 18 10 10.886 4.446 20.886 10.446 30 18 13.267 5.247 25.6 12.247 37 21 8.337 3.164 16.003 7.331 23 12.5-23.222-.444-45.555-.444-67 0h-6v-3c-2.092-.061-3.592-1.061-4.5-3-1.299.466-2.799.466-4.5 0v-3c-1.788.285-3.455-.048-5-1-2.158-3.144-5.158-4.477-9-4v-3a12.93 12.93 0 0 1-5-.5c-2.625-3.031-6.125-5.864-10.5-8.5-2.537.677-4.537-.323-6-3l-1 1c-1.667-1-3-2.333-4-4-1.049 1.017-2.216 1.184-3.5.5l1-1a15.645 15.645 0 0 1-4-2.5c-1-22.657-1.333-45.324-1-68ZM595.5 612.5h15c.333 20.677 0 41.344-1 62-1.671 2.01-2.338 4.343-2 7-3.064 1.19-5.731 2.857-8 5h-3v3a58.97 58.97 0 0 0-11 3v3c-1.859-.039-3.192.794-4 2.5a12.93 12.93 0 0 1-5 .5v3c-2.582-.475-4.582.192-6 2-2.281 1.928-4.947 2.928-8 3v3h-6v3a12.93 12.93 0 0 0-5 .5c-.808 1.706-2.141 2.539-4 2.5-21.039-1.255-43.372-1.255-67 0a236.382 236.382 0 0 1 36-20.5 55.63 55.63 0 0 1 18-10 78.488 78.488 0 0 1 23-13c6.951-5.974 14.618-10.641 23-14 6.616-3.612 11.449-8.779 14.5-15.5.5-9.994.666-19.994.5-30Z"/><path style="opacity:1" fill="#48876d" d="M599.5 686.5c1.333.667 1.333.667 0 0Z"/><path style="opacity:1" fill="#49896e" d="M570.5 703.5c1.333.667 1.333.667 0 0Z"/><path style="opacity:1" fill="#4c8d71" d="M316.5 715.5c4.443 1.725 8.443 4.225 12 7.5l10 4c1.374 3.683 4.041 5.349 8 5a279.412 279.412 0 0 1 19 12c4.871 1.741 9.204 4.408 13 8a35.157 35.157 0 0 1 10 5 66.364 66.364 0 0 0 9.5 2.5c5.889-.966 11.389-2.799 16.5-5.5 5.239-4.798 11.239-8.131 18-10 2.508-3.042 5.508-5.376 9-7 4.75-1.03 8.75-3.363 12-7a557.924 557.924 0 0 1 27-14.5c23.628-1.255 45.961-1.255 67 0-1.098.897-1.098 1.73 0 2.5a118.288 118.288 0 0 0-17 7.5 10.756 10.756 0 0 0-2.5 3l-1-1c-1.049 1.607-2.549 2.273-4.5 2v3h-6v3h-5v3c-2.524-.071-4.524.929-6 3-2.12-1.372-3.12-.705-3 2a12.93 12.93 0 0 0-5 .5 101.657 101.657 0 0 0-10 7.5 9.108 9.108 0 0 1-5 1v3c-2.51-.446-4.51.22-6 2-2.216.703-4.049 2.036-5.5 4-1.813-1.109-2.646-.442-2.5 2a12.93 12.93 0 0 0-5 .5c-1.497 1.871-3.497 2.871-6 3-1.307 2.324-3.307 3.657-6 4l2 1a12.93 12.93 0 0 1-5 .5v3a9.86 9.86 0 0 0-6 1 35.217 35.217 0 0 1-8 4v3h-6v3h-6v3a8.43 8.43 0 0 0-4 .5l-5 5c-1.284.684-2.451.517-3.5-.5-1.263 2.968-3.263 3.968-6 3a2.428 2.428 0 0 0-.5 2h-12c-.507-1.359-1.507-2.359-3-3a137.913 137.913 0 0 0-11-4v-3c-2.133-1.386-5.133-2.386-9-3v-3h-5v-3c-3.005.247-5.505-.753-7.5-3l-1 1a4.934 4.934 0 0 1-.5-3h-6v-3h-5v-3h-6v-3c-5.922-1.727-11.089-4.727-15.5-9-.718.951-1.551 1.117-2.5.5 1.333-.667 1.333-1.333 0-2a12.93 12.93 0 0 0-5-.5v-3a58.97 58.97 0 0 1-11-3v-3c-8.654-3.265-16.321-6.932-23-11v-3h-6v-3h-5v-3a8.43 8.43 0 0 1-4-.5c-4.85-3.699-10.184-6.199-16-7.5v-3c21.445-.444 43.778-.444 67 0Z"/><path style="opacity:1" fill="#4d8f71" d="M476.5 757.5c1.333.667 1.333.667 0 0Z"/></svg>