<svg version="1.0" xmlns="http://www.w3.org/2000/svg" width="133.333" height="133.333" viewBox="0 0 100 100"><path d="M36 2.9c-11.9 3.8-21.6 11.2-27.9 21-16 24.8-6.1 58.8 20.8 71.8 7.1 3.5 8.4 3.8 18.5 4.1 13.2.5 21-1.3 29.4-6.8C92 83.2 100 68.5 100 50.4 100 28.3 86.1 9.5 65.1 3 57 .4 43.7.4 36 2.9zm34 21.3c7.5 3.8 8.4 6.6 8.8 25.3.3 15.1.2 16.3-2 20.4-4.3 8.3-5.3 8.6-26.3 8.6-17 0-18.6-.2-21.1-2.1-6.5-4.8-6.9-6.1-7.2-23.7-.4-17.6.3-22 4.2-25.6 4.3-4 9.1-5 24.6-5.1 13.2 0 15 .2 19 2.2z"/><path d="M33 28.7c-5.3 2.8-6 5-6 21.4 0 17.1.9 20.5 5.6 22.5 4.4 1.9 31.8 1.9 35.4.1 4.7-2.3 6-6.9 6-21.2 0-23.2-.6-23.9-22.5-24.3-12.9-.2-15.5 0-18.5 1.5zm35.4 5.5c.8 1.4.7 2.1-.5 3.3-2.8 2.9-7.3-1.1-4.8-4.2 1.5-1.7 3.8-1.3 5.3.9zm-9.6 4.6c4.1 3 6.6 8.5 5.9 13.4C63.6 60 57.9 65 49.7 65c-4.2 0-5.3-.5-8.9-3.8-3.6-3.4-4.2-4.5-4.5-9.3-.4-4.5-.1-6 1.9-8.9 4.7-7 14-8.9 20.6-4.2z"/><path d="M43.9 43.9C37.7 50.1 41.6 60 50.2 60c9.9 0 13.4-13.1 4.7-17.6-4.3-2.2-7.7-1.7-11 1.5z"/></svg>