<?xml version="1.0" encoding="UTF-8"?><svg xmlns="http://www.w3.org/2000/svg" width="800" height="800" style="shape-rendering:geometricPrecision;text-rendering:geometricPrecision;image-rendering:optimizeQuality;fill-rule:evenodd;clip-rule:evenodd"><path style="opacity:1" fill="#f9c922" d="M576.5-.5h9a2.429 2.429 0 0 0 .5 2c1.049-1.017 2.216-1.184 3.5-.5a20.495 20.495 0 0 0 2.5 3.5c1.356-.88 2.856-1.214 4.5-1v3c2.822 1.432 6.489 2.432 11 3v3c2.092.061 3.592 1.061 4.5 3 2.537-.677 4.537.323 6 3 2.361-.566 4.194.434 5.5 3l2-1c.35 2.067 2.017 3.067 5 3v3h6v3h5v3c2.235-.295 4.235.039 6 1h-55l-19-9.5a27.849 27.849 0 0 0-13-1 294.191 294.191 0 0 0-18 10.5h-23a33.922 33.922 0 0 1 9-4v-3a59.031 59.031 0 0 1 11-3 4.934 4.934 0 0 1 .5-3l1 1c1.995-2.247 4.495-3.247 7.5-3v-3h5v-3h6v-3c1.808.009 3.475-.491 5-1.5l-1-1a12.936 12.936 0 0 1 5-.5v-3c3.552.188 6.219-1.145 8-4ZM277.5 33.5h-23a127.652 127.652 0 0 0-17.5-10 138.219 138.219 0 0 1-14.5 1.5 167.176 167.176 0 0 1-16 8.5h-55c1.068-.934 2.401-1.268 4-1v-3h5v-3h6v-3c4.612-1.195 9.279-2.862 14-5v-3c1.701-.466 3.201-.466 4.5 0 .908-1.939 2.408-2.939 4.5-3v-3h6v-3c1.788.285 3.455-.048 5-1a38.767 38.767 0 0 0 7-4.5 49.25 49.25 0 0 1 14 0c2.025 1.677 4.359 2.677 7 3-1.134 1.016-.801 1.683 1 2l5 1-1 1c2.622 3.073 5.955 4.573 10 4.5v3h6v3c3.191.262 5.858 1.596 8 4a9.864 9.864 0 0 0 6 1v3c3.58 1.22 7.247 2.386 11 3.5l-2 1a38.715 38.715 0 0 1 5 2.5Z"/><path style="opacity:1" fill="#273338" d="M592.5 33.5c.79 1.294 1.79 2.46 3 3.5a974.743 974.743 0 0 1 66 38l15 7 4 4a133.568 133.568 0 0 1 14 6.5 487.16 487.16 0 0 0 45 26 75.701 75.701 0 0 1 9 6.5c2.71 1.747 5.71 2.747 9 3a22.162 22.162 0 0 1 4 6.5v222c.285 4.217-1.715 6.383-6 6.5a157.284 157.284 0 0 1-6 4.5 63.089 63.089 0 0 0-10 3.5 769.493 769.493 0 0 1-28 17.5c-3.287.764-5.954 2.597-8 5.5a163.592 163.592 0 0 0-27 15l-4 1a299.133 299.133 0 0 0-14 9.5 101.18 101.18 0 0 1-17 8.5 472.117 472.117 0 0 1-46 26 51.42 51.42 0 0 1-14 8c-2.118 1.049-3.784 2.549-5 4.5h-3a194.868 194.868 0 0 0 8-17 10195.77 10195.77 0 0 0 160-92.5 73.86 73.86 0 0 0 9-3.5 7901.316 7901.316 0 0 0-1.5-216 2129.254 2129.254 0 0 1-37.5-21.5c-3.415-.406-6.082-2.072-8-5a91.311 91.311 0 0 1-23-13 457.332 457.332 0 0 0-22-11c-2.508-3.042-5.508-5.376-9-7a457.332 457.332 0 0 1-22-11l-24-15c-3.415-.406-6.082-2.072-8-5a90.401 90.401 0 0 0-14-6c-5.722-6.435-12.722-8.768-21-7-7.36 5.663-15.36 9.996-24 13-3.619 3.977-7.952 6.644-13 8-2.537 2.546-5.537 4.212-9 5l-4 4-10 4a2551.356 2551.356 0 0 0-60 36 7185.005 7185.005 0 0 1 26 16 114.065 114.065 0 0 0 14 6c4.2 3.6 8.867 6.433 14 8.5a684.54 684.54 0 0 1 19-8.5 43.593 43.593 0 0 1 13-8c2.365-3.714 5.698-5.714 10-6a705.673 705.673 0 0 1 21-12c4.719-2.307 9.719-2.974 15-2a113.107 113.107 0 0 0 28 15l5 5a182.852 182.852 0 0 1 35 20 193.115 193.115 0 0 1 32 19 197.694 197.694 0 0 1 17 8 36.078 36.078 0 0 1 3.5 4.5c1.657 49.25 1.99 98.584 1 148-5.181 6.173-11.681 10.34-19.5 12.5a12318.477 12318.477 0 0 1-28 18c-6.381 2.027-12.048 5.361-17 10-6.943 1.604-12.943 4.937-18 10-2.311.236-4.311 1.069-6 2.5a95.058 95.058 0 0 0 6-18c3.867-.358 6.867-2.191 9-5.5a349.402 349.402 0 0 0 37-19 679.07 679.07 0 0 1 23-15 8.43 8.43 0 0 1 4-.5 903.85 903.85 0 0 0 0-85c0-.667-.333-1-1-1a139.2 139.2 0 0 1-1-23c.166-9.672 0-19.339-.5-29a152.352 152.352 0 0 1-22.5-13.5 4.934 4.934 0 0 0-3-.5 87044.96 87044.96 0 0 0-89-52 3162.857 3162.857 0 0 0-66 36.5 42.479 42.479 0 0 1-13 0 496.946 496.946 0 0 0-33-18 114.32 114.32 0 0 1-14-10 8.43 8.43 0 0 0-4-.5c-2.084-3.252-4.918-5.585-8.5-7-1.633-1.953-2.799-4.12-3.5-6.5 1.175-3.19 3.175-5.857 6-8 2.41-.6 4.41-1.766 6-3.5a5498.543 5498.543 0 0 0 105-60 294.191 294.191 0 0 1 18-10.5 27.849 27.849 0 0 1 13 1l19 9.5Z"/><path style="opacity:1" fill="#283338" d="M254.5 33.5a3982.567 3982.567 0 0 0 104 59 1076.119 1076.119 0 0 0 47 27c.453.958 1.119 1.792 2 2.5a200.529 200.529 0 0 1 26 13.5 129.454 129.454 0 0 0-17 6c-2.697-3.854-6.364-6.354-11-7.5l-6-5a546.6 546.6 0 0 0-35-18 108.394 108.394 0 0 1-19-13 1516.16 1516.16 0 0 1-91-52A228.066 228.066 0 0 0 230 34.5 112.066 112.066 0 0 0 206.5 48l-10 4-3 3c-6.771 2.445-12.771 6.111-18 11l-10 4-4 4a520.666 520.666 0 0 0-59 34l-9 3c-2.508 3.042-5.508 5.376-9 7a583.92 583.92 0 0 1-36 19 7827.247 7827.247 0 0 0-.5 216.5 7214.146 7214.146 0 0 0 125 72c.5-21.664.667-43.331.5-65a340.197 340.197 0 0 0-18-8.5 55.63 55.63 0 0 0-18-10 78.488 78.488 0 0 0-23-13 56.965 56.965 0 0 0-10.5-7.5 5697.651 5697.651 0 0 1 0-151 6.978 6.978 0 0 1 2.5-3.5 24.569 24.569 0 0 1 8-3 110.696 110.696 0 0 1 19-11.5c3.139-.475 6.139.359 9 2.5 1.641 1.129 2.641 2.629 3 4.5a1689.575 1689.575 0 0 1-14 6.5c-4.849 4.198-10.183 7.531-16 10-2.625 2.196-3.625 5.03-3 8.5v130c5.301 1.324 9.968 3.824 14 7.5l10 4c1.918 2.928 4.585 4.594 8 5 2.674 3.012 6.007 4.678 10 5a82.15 82.15 0 0 0 22 13c2.83 1.728 5.163 3.895 7 6.5.934 1.068 1.268 2.401 1 4v66c-1.64 3.028-2.474 6.361-2.5 10-2.909 2.894-6.409 3.727-10.5 2.5a311.175 311.175 0 0 1-33-18.5 5315.94 5315.94 0 0 1-83-48.5c-3.092.107-5.425-1.059-7-3.5a125.263 125.263 0 0 0-10.5-7 109.108 109.108 0 0 1-1.5-23v-174a218.496 218.496 0 0 1 1.5-34c3.467-1.5 6.967-3 10.5-4.5a75.766 75.766 0 0 1 9-6.5l23-11.5c3.83-4.163 8.497-6.829 14-8a35.91 35.91 0 0 0 9-6.5 113.16 113.16 0 0 0 19-11.5 55.63 55.63 0 0 0 18-10 3123.527 3123.527 0 0 0 66-37.5 167.176 167.176 0 0 0 16-8.5c4.872-.246 9.705-.746 14.5-1.5a127.652 127.652 0 0 1 17.5 10Z"/><path style="opacity:1" fill="#f8c321" d="M151.5 33.5h55a3123.527 3123.527 0 0 1-66 37.5 55.63 55.63 0 0 1-18 10 113.16 113.16 0 0 1-19 11.5h-54a31 31 0 0 0 6.5-5l1 1c1.049-1.607 2.549-2.273 4.5-2v-3a59.029 59.029 0 0 1 11-3 4.932 4.932 0 0 1 .5-3l1 1c2.015-3.065 4.515-4.065 7.5-3v-3h5v-3c1.7.16 3.366-.007 5-.5 1.478-2.057 3.478-3.39 6-4l-2-1a18.436 18.436 0 0 1 6-.5v-3a87.51 87.51 0 0 0 14-5v-3h6v-3h5v-3c1.701-.466 3.201-.466 4.5 0 1.487-.753 1.654-1.586.5-2.5a1833.86 1833.86 0 0 0 20-10.5Z"/><path style="opacity:1" fill="#f7c221" d="M254.5 33.5h23c.508 1.733 1.341 2.066 2.5 1 3.769 1.797 7.102 4.13 10 7a3.942 3.942 0 0 1 2-1c1.482 1.612 3.315 2.612 5.5 3v3h6v3h5v3h6v3a87.51 87.51 0 0 0 14 5v3c1.699-.16 3.366.007 5 .5l-1 1c1.525 1.009 3.192 1.509 5 1.5v3h6v3h5v3c2.985-1.065 5.485-.065 7.5 3l1-1c.483.948.649 1.948.5 3h5v3h6v3c2.133 1.386 5.133 2.386 9 3v3h-19a3982.567 3982.567 0 0 1-104-59Z"/><path style="opacity:1" fill="#f6c221" d="M519.5 33.5h23a5498.543 5498.543 0 0 1-105 60c-5.81-.99-11.81-1.323-18-1a143.33 143.33 0 0 1 14-8.5c.837-1.011 1.17-2.178 1-3.5 4.493-.216 7.993-2.216 10.5-6 1.011.837 2.178 1.17 3.5 1v-3a59.031 59.031 0 0 0 11-3v-3c1.808.009 3.475-.491 5-1.5l-1-1a12.935 12.935 0 0 1 5-.5v-3a9.864 9.864 0 0 0 6-1 35.213 35.213 0 0 1 8-4v-3h6v-3a59.031 59.031 0 0 1 11-3v-3c1.808.009 3.475-.491 5-1.5-1.388-.89-1.222-1.39.5-1.5 2.071 1.167 3.571.5 4.5-2a65.617 65.617 0 0 0 7.5-4c1.159 1.066 1.992.733 2.5-1Z"/><path style="opacity:1" fill="#f8c321" d="M592.5 33.5h55c2.109 3.065 5.109 4.731 9 5-.219 1.175.114 2.175 1 3a6.846 6.846 0 0 1 4-1v3a8.435 8.435 0 0 1 4 .5c-1.154.914-.987 1.747.5 2.5 1.299-.466 2.799-.466 4.5 0v3h6v3h5v3a428.986 428.986 0 0 0 20 8.5l-2 1c2.522.61 4.522 1.943 6 4 1.634.493 3.301.66 5 .5v3c2.908-.238 5.242.762 7 3 .951-.826 1.951-.992 3-.5l-1 1a6.977 6.977 0 0 1 3.5 2.5l1-1c.483.948.649 1.948.5 3h6v3h5v3c1.951-.273 3.451.393 4.5 2l1-1a31.013 31.013 0 0 0 6.5 5h-53a133.568 133.568 0 0 0-14-6.5l-4-4-15-7a974.743 974.743 0 0 0-66-38 14.696 14.696 0 0 1-3-3.5Z"/><path style="opacity:1" fill="#fdfdfd" d="M416.5 141.5c-15.784 4.845-31.117 3.679-46-3.5-19.771-5.59-38.437-3.09-56 7.5a415.177 415.177 0 0 1-23-14.5 114.302 114.302 0 0 1-13-6 846.02 846.02 0 0 1-33-20c-3.415-.406-6.082-2.072-8-5a42.498 42.498 0 0 0-13 0 226.438 226.438 0 0 0-29 17c-3.415.406-6.082 2.072-8 5-8.047 3-15.381 7.166-22 12.5-2.915-3.49-5.082-7.49-6.5-12-1.466-1.825-3.299-2.325-5.5-1.5-1.489 6.974-4.822 12.974-10 18a2856.622 2856.622 0 0 0-13.5 6.5c-.824 3.34.343 5.673 3.5 7a110.696 110.696 0 0 0-19 11.5 24.569 24.569 0 0 0-8 3 6.978 6.978 0 0 0-2.5 3.5 5697.651 5697.651 0 0 0 0 151 56.965 56.965 0 0 1 10.5 7.5 78.488 78.488 0 0 1 23 13 55.63 55.63 0 0 1 18 10 340.197 340.197 0 0 1 18 8.5c.167 21.669 0 43.336-.5 65a7214.146 7214.146 0 0 1-125-72 7827.247 7827.247 0 0 1 .5-216.5 583.92 583.92 0 0 0 36-19c3.492-1.624 6.492-3.958 9-7l9-3a520.666 520.666 0 0 1 59-34l4-4 10-4c5.229-4.889 11.229-8.555 18-11l3-3 10-4A112.066 112.066 0 0 1 230 34.5 228.066 228.066 0 0 1 254.5 46a1516.16 1516.16 0 0 0 91 52 108.394 108.394 0 0 0 19 13 546.6 546.6 0 0 1 35 18l6 5c4.636 1.146 8.303 3.646 11 7.5Z"/><path style="opacity:1" fill="#fdfefe" d="M581.5 449.5a81.76 81.76 0 0 0 1-29c.507-10.355 3.341-20.022 8.5-29a370.958 370.958 0 0 0 14.5-19c1.689-1.431 3.689-2.264 6-2.5 5.057-5.063 11.057-8.396 18-10 4.952-4.639 10.619-7.973 17-10 9.313-5.969 18.646-11.969 28-18 7.819-2.16 14.319-6.327 19.5-12.5.99-49.416.657-98.75-1-148a36.078 36.078 0 0 0-3.5-4.5 197.694 197.694 0 0 0-17-8 193.115 193.115 0 0 0-32-19 182.852 182.852 0 0 0-35-20l-5-5a113.107 113.107 0 0 1-28-15c-5.281-.974-10.281-.307-15 2a705.673 705.673 0 0 0-21 12c-4.302.286-7.635 2.286-10 6a43.593 43.593 0 0 0-13 8 684.54 684.54 0 0 0-19 8.5 50.162 50.162 0 0 1-14-8.5 114.065 114.065 0 0 1-14-6 7185.005 7185.005 0 0 0-26-16 2551.356 2551.356 0 0 1 60-36l10-4 4-4c3.463-.788 6.463-2.454 9-5 5.048-1.356 9.381-4.023 13-8 8.64-3.004 16.64-7.337 24-13 8.278-1.768 15.278.565 21 7a90.401 90.401 0 0 1 14 6c1.918 2.928 4.585 4.594 8 5l24 15a457.332 457.332 0 0 0 22 11c3.492 1.624 6.492 3.958 9 7a457.332 457.332 0 0 1 22 11 91.311 91.311 0 0 0 23 13c1.918 2.928 4.585 4.594 8 5a2129.254 2129.254 0 0 0 37.5 21.5 7901.316 7901.316 0 0 1 1.5 216 73.86 73.86 0 0 1-9 3.5 10195.77 10195.77 0 0 1-160 92.5Z"/><path style="opacity:1" fill="#f8bd20" d="M49.5 92.5h54a35.91 35.91 0 0 1-9 6.5c-5.503 1.171-10.17 3.837-14 8l-23 11.5h-51c1.184-1.188 1.184-2.355 0-3.5a169.104 169.104 0 0 0 15-5.5v-3a58.967 58.967 0 0 0 11-3v-3a245.868 245.868 0 0 0 17-8Z"/><path style="opacity:1" fill="#f7bc20" d="M358.5 92.5h19c2.908-.238 5.242.762 7 3l2-1c.35 2.067 2.017 3.067 5 3v3h6v3a169.381 169.381 0 0 0 22-11c6.19-.323 12.19.01 18 1-1.59 1.734-3.59 2.9-6 3.5-2.825 2.143-4.825 4.81-6 8 .701 2.38 1.867 4.547 3.5 6.5 3.582 1.415 6.416 3.748 8.5 7-10.846-.328-21.513.006-32 1a1076.119 1076.119 0 0 1-47-27Z"/><path style="opacity:1" fill="#f8bd20" d="M694.5 92.5h53c6.149 3.087 11.815 5.754 17 8v3h6v3h5v3c2.041.354 3.874.354 5.5 0 .483.948.649 1.948.5 3 2.836 1.276 5.836 1.942 9 2 .027 1.699.694 3.033 2 4h-53a487.16 487.16 0 0 1-45-26Z"/><path style="opacity:1" fill="#283338" d="M314.5 145.5a5999.972 5999.972 0 0 0-9 8 1419.336 1419.336 0 0 1-58-34.5c-5.603-1.533-10.436-4.366-14.5-8.5-2.09.652-4.257.819-6.5.5a368.678 368.678 0 0 1-44 26 32.859 32.859 0 0 0-6 5.5c-4.77-1.097-8.436-3.763-11-8 6.619-5.334 13.953-9.5 22-12.5 1.918-2.928 4.585-4.594 8-5a226.438 226.438 0 0 1 29-17 42.498 42.498 0 0 1 13 0c1.918 2.928 4.585 4.594 8 5a846.02 846.02 0 0 0 33 20 114.302 114.302 0 0 0 13 6 415.177 415.177 0 0 0 23 14.5Z"/><path style="opacity:1" fill="#f9b81e" d="M6.5 118.5h51a75.766 75.766 0 0 0-9 6.5c-3.533 1.5-7.033 3-10.5 4.5a218.496 218.496 0 0 0-1.5 34h-30v-45Z"/><path style="opacity:1" fill="#f8b71e" d="M305.5 153.5a1699.184 1699.184 0 0 1-8 10h-77c-4.441-5.21-7.607-11.21-9.5-18-2.423-2.494-4.756-2.494-7 0-.87 6.803-3.37 12.803-7.5 18h-34c4.518-6.27 10.518-10.604 18-13 2.527-4.284 1.194-6.951-4-8a32.859 32.859 0 0 1 6-5.5 368.678 368.678 0 0 0 44-26c2.243.319 4.41.152 6.5-.5 4.064 4.134 8.897 6.967 14.5 8.5a1419.336 1419.336 0 0 0 58 34.5ZM656.5 162.5a6321.844 6321.844 0 0 1-159 1c-15.755-21.874-37.089-31.207-64-28a200.529 200.529 0 0 0-26-13.5c-.881-.708-1.547-1.542-2-2.5 10.487-.994 21.154-1.328 32-1a8.43 8.43 0 0 1 4 .5 114.32 114.32 0 0 0 14 10 496.946 496.946 0 0 1 33 18c4.333.667 8.667.667 13 0a3162.857 3162.857 0 0 1 66-36.5 87044.96 87044.96 0 0 1 89 52Z"/><path style="opacity:1" fill="#f9b81e" d="M739.5 118.5h53v45h-30c.327-9.848-.006-19.514-1-29a22.162 22.162 0 0 0-4-6.5c-3.29-.253-6.29-1.253-9-3a75.701 75.701 0 0 0-9-6.5Z"/><path style="opacity:1" fill="#293d53" d="M165.5 134.5c2.564 4.237 6.23 6.903 11 8 5.194 1.049 6.527 3.716 4 8-7.482 2.396-13.482 6.73-18 13-1.768 3.042-2.934 6.375-3.5 10-2.333 2.667-4.667 2.667-7 0-.86-5.38-3.026-10.047-6.5-14-.359-1.871-1.359-3.371-3-4.5-2.861-2.141-5.861-2.975-9-2.5-3.157-1.327-4.324-3.66-3.5-7 4.448-2.156 8.948-4.323 13.5-6.5 5.178-5.026 8.511-11.026 10-18 2.201-.825 4.034-.325 5.5 1.5 1.418 4.51 3.585 8.51 6.5 12Z"/><path style="opacity:1" fill="#2a3e54" d="M416.5 141.5a129.454 129.454 0 0 1 17-6c26.911-3.207 48.245 6.126 64 28 6.745 13.089 17.079 21.756 31 26 8.563 2.248 16.896 5.415 25 9.5a167.399 167.399 0 0 1 20 17.5 113.808 113.808 0 0 0 9 19c-.624.417-.957 1.084-1 2 .464 2.849 1.131 5.516 2 8-.166 10.006 0 20.006.5 30 1.75 8.834 5.584 16.501 11.5 23a46.493 46.493 0 0 0 7 9c8.703 14.551 11.703 30.218 9 47a95.058 95.058 0 0 1-6 18 370.958 370.958 0 0 1-14.5 19c-5.159 8.978-7.993 18.645-8.5 29a81.76 81.76 0 0 1-1 29 194.868 194.868 0 0 1-8 17c-8.677 12.497-20.343 20.997-35 25.5a297.083 297.083 0 0 0 6 13.5c.565 4.037 1.899 7.703 4 11 1.618 3.602 1.285 6.935-1 10a72.144 72.144 0 0 1-5.5-2 546.572 546.572 0 0 0-12.5-30c-7.451 2.556-14.118 6.389-20 11.5a208.32 208.32 0 0 0-18.5 24.5c-14.649 14.27-32.149 20.937-52.5 20l35.5 93a6243 6243 0 0 1 28.5-68.5 12.494 12.494 0 0 1 7 0 901.37 901.37 0 0 0 63 30 2594.368 2594.368 0 0 0-17.5-45.5 24.362 24.362 0 0 1-1.5-10c1.291.237 2.291-.096 3-1 1.67.251 3.17.918 4.5 2a1974.787 1974.787 0 0 0 22.5 58c.66 2.316 1.327 4.649 2 7-.252 1.573-.918 2.906-2 4a12.93 12.93 0 0 1-5-.5l-51-25.5a54.343 54.343 0 0 1-9-4l-10-5a957.627 957.627 0 0 0-14 32 143.651 143.651 0 0 1-6 15c.124.607.457.94 1 1a506.451 506.451 0 0 0-13 27c-2.251 1.365-4.251 1.031-6-1a6657.5 6657.5 0 0 0-5-12 76.898 76.898 0 0 0-4-11 152.212 152.212 0 0 0-6-15 1096.933 1096.933 0 0 0-13-35l-13-34c-.072-1.811-.905-3.144-2.5-4a103.216 103.216 0 0 0-9.5-3c-12.512-6.085-25.179-6.418-38-1a102.413 102.413 0 0 1-13 4v3a826.395 826.395 0 0 0-14 35 1100.202 1100.202 0 0 1-13 35 87.385 87.385 0 0 0-5 14c-2.101 3.297-3.435 6.963-4 11a99.764 99.764 0 0 0-5.5 13c-1.466 1.825-3.299 2.325-5.5 1.5a1132.729 1132.729 0 0 0-14-28.5c.543-.06.876-.393 1-1a186.369 186.369 0 0 1-7-17 259.42 259.42 0 0 0-13-29c-1.896.775-3.563 1.775-5 3-4.318 1.492-8.318 3.492-12 6l-56 26c-2.45-.374-3.45-1.874-3-4.5a223.335 223.335 0 0 0 3-11.5 10666.009 10666.009 0 0 0 43-111c-21.831-7.496-36.165-22.163-43-44a1122.49 1122.49 0 0 1-2-16.5c2.822-16.077-.511-30.577-10-43.5-7.474-8.616-13.141-18.283-17-29 .268-1.599-.066-2.932-1-4-2.56-17.099.44-33.099 9-48a71.94 71.94 0 0 0 9-11c4.472-5.948 7.639-12.615 9.5-20a2251.34 2251.34 0 0 0 2-36 112.442 112.442 0 0 1 7.5-21c11.381-16.026 26.714-26.026 46-30 13.969-4.3 24.302-12.966 31-26 2.656-3.294 5.322-6.627 8-10 3.026-2.695 6.026-5.362 9-8 17.563-10.59 36.229-13.09 56-7.5 14.883 7.179 30.216 8.345 46 3.5Z"/><path style="opacity:1" fill="#edd664" d="M155.5 137.5a193.383 193.383 0 0 0 12 10.5c-4.766 2.597-8.766 6.097-12 10.5a54.511 54.511 0 0 0-10-11.5c4.449-2.046 7.783-5.213 10-9.5Z"/><path style="opacity:1" fill="#293d53" d="M220.5 163.5c1.763 3.599 4.43 6.432 8 8.5a80.162 80.162 0 0 0 13.5 4.5c.808 2.079.641 4.079-.5 6a119.889 119.889 0 0 0-13 7c-10.438 5.528-16.438 14.194-18 26-2.566 2.752-4.899 2.586-7-.5-2.233-9.977-6.9-18.477-14-25.5-4.483-3.969-9.817-6.136-16-6.5-1.076-1.726-1.243-3.559-.5-5.5a161.2 161.2 0 0 1 13.5-5.5c4.113-1.948 7.446-4.781 10-8.5 4.13-5.197 6.63-11.197 7.5-18 2.244-2.494 4.577-2.494 7 0 1.893 6.79 5.059 12.79 9.5 18Z"/><path style="opacity:1" fill="#86786e" d="M342.5 143.5c5.344-.166 10.677.001 16 .5 8.662 2.664 17.329 5.33 26 8 10.406 2.123 20.739 1.79 31-1 26.381-13.054 49.881-9.22 70.5 11.5 11.688 22.615 30.188 36.115 55.5 40.5 15.921 6.999 26.421 18.832 31.5 35.5a368.392 368.392 0 0 1 2 35c2.694 15.054 9.36 28.054 20 39 14.422 26.379 11.089 50.379-10 72-9.244 14.634-12.411 30.467-9.5 47.5-1.403 20.401-10.737 36.067-28 47a193.519 193.519 0 0 1-26 9c-9.147 3.654-16.98 9.154-23.5 16.5-19.946 35.868-48.779 45.368-86.5 28.5-9.327-1.961-18.661-1.961-28 0a270.676 270.676 0 0 0-21 7c-29.156 4.005-50.322-7.161-63.5-33.5-11.814-13.494-26.647-21.66-44.5-24.5-18.545-7.878-29.711-21.711-33.5-41.5 3.979-25.714-2.688-48.047-20-67-11.866-19.26-12.532-38.927-2-59a101.485 101.485 0 0 0 17-25 83.743 83.743 0 0 0 4-14 387.25 387.25 0 0 1 2-36c3.964-14.63 12.464-25.796 25.5-33.5a129.627 129.627 0 0 1 26-9c9.559-3.893 17.725-9.727 24.5-17.5 9.354-18.861 24.187-30.861 44.5-36Z"/><path style="opacity:1" fill="#f9b11d" d="M145.5 159.5c3.474 3.953 5.64 8.62 6.5 14 2.333 2.667 4.667 2.667 7 0 .566-3.625 1.732-6.958 3.5-10h34c-2.554 3.719-5.887 6.552-10 8.5a161.2 161.2 0 0 0-13.5 5.5c-.743 1.941-.576 3.774.5 5.5 6.183.364 11.517 2.531 16 6.5h-29c-.803-4.818-3.47-6.151-8-4a6.846 6.846 0 0 0-1 4h-38c.284-1.915-.049-3.581-1-5-.625-3.47.375-6.304 3-8.5 5.817-2.469 11.151-5.802 16-10 4.732-2.171 9.399-4.338 14-6.5Z"/><path style="opacity:1" fill="#f3da64" d="M207.5 160.5c4.896 7.567 10.896 14.234 18 20-7.327 5.161-13.494 11.494-18.5 19-3.864-8.029-9.364-14.696-16.5-20a89.042 89.042 0 0 0 14.5-13 23.423 23.423 0 0 0 2.5-6Z"/><path style="opacity:1" fill="#f9b11c" d="M656.5 162.5a4.934 4.934 0 0 1 3 .5 152.352 152.352 0 0 0 22.5 13.5c.5 9.661.666 19.328.5 29-.988-5.14-1.321-10.474-1-16h-153c-13.921-4.244-24.255-12.911-31-26 53.169.332 106.169-.001 159-1Z"/><path style="opacity:1" fill="#fab21c" d="M6.5 163.5h30v26h-30v-26Z"/><path style="opacity:1" fill="#f9b21c" d="M220.5 163.5h77c-6.698 13.034-17.031 21.7-31 26h-38a119.889 119.889 0 0 1 13-7c1.141-1.921 1.308-3.921.5-6a80.162 80.162 0 0 1-13.5-4.5c-3.57-2.068-6.237-4.901-8-8.5Z"/><path style="opacity:1" fill="#fab21c" d="M762.5 163.5h30v26h-30v-26Z"/><path style="opacity:1" fill="#2e4054" d="M386.5 180.5c61.321-1.982 109.821 21.685 145.5 71 30.479 48.789 35.479 100.122 15 154-36.027 72.946-94.861 105.112-176.5 96.5-55.554-11.002-95.72-41.836-120.5-92.5-22.103-53.997-18.103-105.997 12-156 30.218-43.348 71.718-67.682 124.5-73Z"/><path style="opacity:1" fill="#293d53" d="M160.5 189.5c3.102 9.937 9.768 15.77 20 17.5 2.667 2.333 2.667 4.667 0 7-6.741 2.454-12.575 6.287-17.5 11.5a10.134 10.134 0 0 0-1.5 4c-1.276 2.062-2.11 4.396-2.5 7-2.333 2.667-4.667 2.667-7 0a86.376 86.376 0 0 0-2.5-7c-3.059-8.558-9.059-13.724-18-15.5-2.667-2.333-2.667-4.667 0-7 10.318-1.827 16.985-7.66 20-17.5a6.846 6.846 0 0 1 1-4c4.53-2.151 7.197-.818 8 4Z"/><path style="opacity:1" fill="#faab1b" d="M6.5 189.5h30v40h-30v-40Z"/><path style="opacity:1" fill="#f9ab1b" d="M112.5 184.5c.951 1.419 1.284 3.085 1 5h38c-3.015 9.84-9.682 15.673-20 17.5-2.667 2.333-2.667 4.667 0 7 8.941 1.776 14.941 6.942 18 15.5h-36v5h-1v-50ZM160.5 189.5h29c7.1 7.023 11.767 15.523 14 25.5 2.101 3.086 4.434 3.252 7 .5 1.562-11.806 7.562-20.472 18-26h38c-19.286 3.974-34.619 13.974-46 30a156.81 156.81 0 0 0-17 10h-42a10.134 10.134 0 0 1 1.5-4c4.925-5.213 10.759-9.046 17.5-11.5 2.667-2.333 2.667-4.667 0-7-10.232-1.73-16.898-7.563-20-17.5Z"/><path style="opacity:1" fill="#e9cb45" d="M376.5 494.5c67.192-12.688 110.025-52.021 128.5-118 3.928-19.919 4.428-39.919 1.5-60 .456-5.287-.878-9.954-4-14-12.892-47.076-41.892-80.909-87-101.5a149.157 149.157 0 0 0-39-10.5c57.623-6.443 105.123 12.557 142.5 57 34.989 48.213 41.656 100.213 20 156-26.544 55.85-70.711 86.683-132.5 92.5-10.205.71-20.205.21-30-1.5Z"/><path style="opacity:1" fill="#f9ab1b" d="M528.5 189.5h153c-.321 5.526.012 10.86 1 16a139.2 139.2 0 0 0 1 23 1937.243 1937.243 0 0 1-88 1 110.145 110.145 0 0 0-22-13 167.399 167.399 0 0 0-20-17.5c-8.104-4.085-16.437-7.252-25-9.5Z"/><path style="opacity:1" fill="#faab1b" d="M762.5 189.5h30v40h-30v-40Z"/><path style="opacity:1" fill="#fddd62" d="M376.5 190.5a149.157 149.157 0 0 1 39 10.5c45.108 20.591 74.108 54.424 87 101.5-2.539-2.69-5.539-4.857-9-6.5a1156.109 1156.109 0 0 1-67-2l-1.5-1.5-1-39c-3.978-16.744-14.478-23.577-31.5-20.5-7.409 2.408-12.576 7.242-15.5 14.5a395.008 395.008 0 0 0-2 38c-1.243 4.912-3.743 9.079-7.5 12.5a211.881 211.881 0 0 1-21.5 8.5c-2.562-5.561-6.728-9.394-12.5-11.5-37.781-7.887-52.115 6.779-43 44a4.934 4.934 0 0 0 3 .5v26c-1.544.203-2.878.87-4 2a267.196 267.196 0 0 0-.5 40c1.214 8.212 5.714 13.712 13.5 16.5 10 .667 20 .667 30 0 6.85-1.685 11.183-5.852 13-12.5a311.918 311.918 0 0 0 49 7.5c23.333.667 46.667.667 70 0 10.971-3.424 15.805-10.924 14.5-22.5-.516-2.534-1.683-4.7-3.5-6.5 13.547-6.311 16.881-15.977 10-29 13.556-6.397 16.889-16.231 10-29.5 5.66-3.643 9.327-8.643 11-15 2.928 20.081 2.428 40.081-1.5 60-18.475 65.979-61.308 105.312-128.5 118-60.908-10.871-102.408-45.205-124.5-103-19.126-68.607-1.626-125.774 52.5-171.5 21.336-16.163 45.336-25.996 72-29.5Z"/><path style="opacity:1" fill="#eed764" d="M155.5 200.5c2.784 1.954 5.117 4.454 7 7.5l5 3c-4.643 2.813-8.643 6.313-12 10.5-2.476-4.31-5.81-7.81-10-10.5 4.212-2.711 7.546-6.211 10-10.5Z"/><path style="opacity:1" fill="#263237" d="M573.5 216.5a110.145 110.145 0 0 1 22 13v69c-5.916-6.499-9.75-14.166-11.5-23-.5-9.994-.666-19.994-.5-30 .313-3.542-.021-6.875-1-10a113.808 113.808 0 0 1-9-19ZM220.5 219.5a112.442 112.442 0 0 0-7.5 21 2251.34 2251.34 0 0 1-2 36c-1.861 7.385-5.028 14.052-9.5 20v-48c-.166-5.676.001-11.343.5-17 .717-.544 1.217-1.211 1.5-2a156.81 156.81 0 0 1 17-10Z"/><path style="opacity:1" fill="#f9a41a" d="M149.5 229.5a86.376 86.376 0 0 1 2.5 7c2.333 2.667 4.667 2.667 7 0 .39-2.604 1.224-4.938 2.5-7h42c-.283.789-.783 1.456-1.5 2a145.053 145.053 0 0 0-.5 17c-.951 1.419-1.284 3.085-1 5h-87v-24h36Z"/><path style="opacity:1" fill="#2f4255" d="M502.5 302.5c3.122 4.046 4.456 8.713 4 14-1.673 6.357-5.34 11.357-11 15 6.889 13.269 3.556 23.103-10 29.5 6.881 13.023 3.547 22.689-10 29 1.817 1.8 2.984 3.966 3.5 6.5 1.305 11.576-3.529 19.076-14.5 22.5-23.333.667-46.667.667-70 0a311.918 311.918 0 0 1-49-7.5c-1.817 6.648-6.15 10.815-13 12.5-10 .667-20 .667-30 0-7.786-2.788-12.286-8.288-13.5-16.5a267.196 267.196 0 0 1 .5-40c1.122-1.13 2.456-1.797 4-2a18.473 18.473 0 0 1 3.5 2 529.861 529.861 0 0 0 2 45 11.532 11.532 0 0 0 4.5 3.5c9.333.667 18.667.667 28 0 3.833-1.167 6.333-3.667 7.5-7.5a2400.05 2400.05 0 0 0 0-98c-1.105-3.437-3.272-5.937-6.5-7.5-10.433-.95-20.766-.617-31 1a11.532 11.532 0 0 0-3.5 4.5 452.47 452.47 0 0 1-1.5 30 5.576 5.576 0 0 1-3 1 4.934 4.934 0 0 1-3-.5c-9.115-37.221 5.219-51.887 43-44 5.772 2.106 9.938 5.939 12.5 11.5a211.881 211.881 0 0 0 21.5-8.5c3.757-3.421 6.257-7.588 7.5-12.5a395.008 395.008 0 0 1 2-38c2.924-7.258 8.091-12.092 15.5-14.5 17.022-3.077 27.522 3.756 31.5 20.5l1 39 1.5 1.5a1156.109 1156.109 0 0 0 67 2c3.461 1.643 6.461 3.81 9 6.5Z"/><path style="opacity:1" fill="#fdfdfd" d="M582.5 235.5c.979 3.125 1.313 6.458 1 10-.869-2.484-1.536-5.151-2-8 .043-.916.376-1.583 1-2Z"/><path style="opacity:1" fill="#f9a41a" d="M683.5 228.5c.667 0 1 .333 1 1v24h-88v18h-1v-42c29.505.331 58.838-.002 88-1Z"/><path style="opacity:1" fill="#f4e0c4" d="M396.5 239.5c9.624-.276 16.124 4.057 19.5 13l1 41c1.927 4.928 5.427 8.094 10.5 9.5l64 1c7.305 3.84 8.805 9.34 4.5 16.5a15.83 15.83 0 0 1-5.5 3.5l-28 1c-2.667 2.333-2.667 4.667 0 7 8.103.063 16.103.73 24 2 5.604 4.358 6.437 9.525 2.5 15.5a15.83 15.83 0 0 1-5.5 3.5l-24 1c-2.494 2.244-2.494 4.577 0 7a84.188 84.188 0 0 1 17 2c6.565 5.965 6.565 11.965 0 18a93.33 93.33 0 0 1-18 2c-2.544 2.222-2.544 4.389 0 6.5 9.178.999 13.345 5.999 12.5 15-1.5 2.833-3.667 5-6.5 6.5-24 .667-48 .667-72 0a233.601 233.601 0 0 1-44-7.5 1320.563 1320.563 0 0 1-.5-89 512.356 512.356 0 0 0 23.5-9.5c5.988-4.805 9.821-10.972 11.5-18.5l1-35c2.085-6.254 6.252-10.254 12.5-12Z"/><path style="opacity:1" fill="#f89f18" d="M112.5 234.5h1v19h87c-.284-1.915.049-3.581 1-5v18c-.979 3.125-1.313 6.458-1 10h-87v13h-1v-55Z"/><path style="opacity:1" fill="#f9a119" d="M6.5 229.5h30v47h-30v-47Z"/><path style="opacity:1" fill="#f9a018" d="M684.5 253.5v23h-88v-23h88Z"/><path style="opacity:1" fill="#f39e1a" d="M761.5 134.5c.994 9.486 1.327 19.152 1 29v66h30v47h-30v61c.323 6.522-.01 12.855-1 19v-222Z"/><path style="opacity:1" fill="#f89917" d="M201.5 266.5v30a71.94 71.94 0 0 1-9 11h-79v-31h87c-.313-3.542.021-6.875 1-10Z"/><path style="opacity:1" fill="#f99917" d="M6.5 276.5h30v31h-30v-31Z"/><path style="opacity:1" fill="#f79917" d="M684.5 229.5a903.85 903.85 0 0 1 0 85v-7h-82a46.493 46.493 0 0 1-7-9v-27h1v5h88v-47Z"/><path style="opacity:1" fill="#f99917" d="M792.5 276.5v31h-30v-31h30Z"/><path style="opacity:1" fill="#88bfd6" d="M293.5 365.5v-26a5.576 5.576 0 0 0 3-1 452.47 452.47 0 0 0 1.5-30 11.532 11.532 0 0 1 3.5-4.5c10.234-1.617 20.567-1.95 31-1 3.228 1.563 5.395 4.063 6.5 7.5a2400.05 2400.05 0 0 1 0 98c-1.167 3.833-3.667 6.333-7.5 7.5-9.333.667-18.667.667-28 0a11.532 11.532 0 0 1-4.5-3.5 529.861 529.861 0 0 1-2-45 18.473 18.473 0 0 0-3.5-2Z"/><path style="opacity:1" fill="#f99315" d="M6.5 307.5h30v30h-30v-30Z"/><path style="opacity:1" fill="#f79216" d="M112.5 289.5h1v18h79c-8.56 14.901-11.56 30.901-9 48-1.837-2.605-4.17-4.772-7-6.5a82.15 82.15 0 0 1-22-13c-3.993-.322-7.326-1.988-10-5-3.415-.406-6.082-2.072-8-5l-10-4c-4.032-3.676-8.699-6.176-14-7.5v-25ZM602.5 307.5h82v7a8.43 8.43 0 0 0-4 .5 679.07 679.07 0 0 0-23 15 349.402 349.402 0 0 1-37 19c-2.133 3.309-5.133 5.142-9 5.5 2.703-16.782-.297-32.449-9-47Z"/><path style="opacity:1" fill="#f99315" d="M762.5 307.5h30v30h-30v-30Z"/><path style="opacity:1" fill="#f88b14" d="M6.5 337.5h30a109.108 109.108 0 0 0 1.5 23 125.263 125.263 0 0 1 10.5 7h-36c-1.815-1.13-3.815-1.796-6-2v-28ZM762.5 337.5h30v28c-3.013-.128-5.513.872-7.5 3a14.093 14.093 0 0 0-3.5-1h-32a157.284 157.284 0 0 0 6-4.5c4.285-.117 6.285-2.283 6-6.5.99-6.145 1.323-12.478 1-19Z"/><path style="opacity:1" fill="#f78513" d="M749.5 367.5h32v3c-1.701.466-3.201.466-4.5 0-3.844 1.975-7.177 4.642-10 8l-1-1c-1.049 1.607-2.549 2.273-4.5 2v3c-3.937.204-7.604 1.204-11 3 .381 2.442-.286 3.109-2 2-.798.457-1.131 1.124-1 2-12.178.328-24.178-.005-36-1a769.493 769.493 0 0 0 28-17.5 63.089 63.089 0 0 1 10-3.5Z"/><path style="opacity:1" fill="#2c4056" d="M312.5 386.5c15.402-1.119 20.902 5.548 16.5 20-7.369 7.899-14.702 7.899-22 0-3.959-8.285-2.126-14.952 5.5-20Z"/><path style="opacity:1" fill="#f88111" d="M184.5 359.5c3.859 10.717 9.526 20.384 17 29v26c-.951 1.419-1.284 3.085-1 5h-15c.295 2.235-.039 4.235-1 6v-66Z"/><path style="opacity:1" fill="#f78112" d="M12.5 367.5h36c1.575 2.441 3.908 3.607 7 3.5a5315.94 5315.94 0 0 0 83 48.5h-40v-3a27.267 27.267 0 0 0-9-3v-3c-2.908.238-5.242-.762-7-3a3.647 3.647 0 0 0-1.5 1c-1.667-1-3-2.333-4-4l-1 1a4.932 4.932 0 0 1-.5-3h-6v-3h-5v-3a544.412 544.412 0 0 1-29-14v-3a58.967 58.967 0 0 1-11-3v-3h-6v-3c-2.284-.529-4.284-1.529-6-3Z"/><path style="opacity:1" fill="#273238" d="M201.5 388.5c9.489 12.923 12.822 27.423 10 43.5a1122.49 1122.49 0 0 0 2 16.5v155a223.335 223.335 0 0 1-3 11.5c-.45 2.626.55 4.126 3 4.5-.166 7.674 0 15.341.5 23a46.99 46.99 0 0 0 10.5 5.5l4 4a90.42 90.42 0 0 0 14 6 77.598 77.598 0 0 0 23 13l4 4 10 4c4.933 4.604 10.6 7.938 17 10 3.574 3.951 7.907 6.618 13 8 6.962 5.648 14.628 9.981 23 13 1.918 2.928 4.585 4.594 8 5a78.488 78.488 0 0 0 23 13c3.671 4.417 8.338 7.083 14 8 2.457 3.058 5.457 5.392 9 7a97.288 97.288 0 0 1 12 5.5 23356.745 23356.745 0 0 0 182-104.5 4.457 4.457 0 0 1 2-1.5 133.155 133.155 0 0 0 1-23c1.082-1.094 1.748-2.427 2-4-.673-2.351-1.34-4.684-2-7 .167-37.335 0-74.668-.5-112a367.512 367.512 0 0 0-34.5 20c-2.101-3.297-3.435-6.963-4-11 1.436-.929 2.769-2.095 4-3.5a64.953 64.953 0 0 1 18-8l5-5a58.12 58.12 0 0 0 11-5c4.652-1.193 8.819-.36 12.5 2.5.5 18.664.667 37.33.5 56v47c.167 17.67 0 35.336-.5 53-3.051 6.721-7.884 11.888-14.5 15.5-8.382 3.359-16.049 8.026-23 14-6.965 2.48-13.298 5.98-19 10.5a184.163 184.163 0 0 0-16 7.5 91.311 91.311 0 0 1-23 13 467.986 467.986 0 0 1-40 24.5 118.76 118.76 0 0 1-23 12.5l-4 4c-6.761 1.869-12.761 5.202-18 10-4.976 2.639-10.31 4.472-16 5.5a54.915 54.915 0 0 1-10-2.5 35.157 35.157 0 0 0-10-5c-3.796-3.592-8.129-6.259-13-8a279.412 279.412 0 0 0-19-12c-3.767.241-6.434-1.259-8-4.5a107.681 107.681 0 0 0-10-4.5 201.636 201.636 0 0 0-27-17 24.569 24.569 0 0 1-8-3l-28-18a48.364 48.364 0 0 0-9-2.5 25.14 25.14 0 0 0-4-4.5 146.596 146.596 0 0 0-26-14 55.63 55.63 0 0 0-18-10 18.839 18.839 0 0 0-6.5-5.5c-.5-9.327-.666-18.661-.5-28v-232Z"/><path style="opacity:1" fill="#f77f11" d="M711.5 388.5c11.822.995 23.822 1.328 36 1-1.765.961-3.765 1.295-6 1v3a12.93 12.93 0 0 0-5 .5c-1.079 2.043-2.746 3.376-5 4l1 1a12.93 12.93 0 0 1-5 .5v3a9.86 9.86 0 0 0-6 1c-3.423 1.192-6.256 3.192-8.5 6l-1-1c-1.049 1.607-2.549 2.273-4.5 2v3h-6v3h-5v3h-38a299.133 299.133 0 0 1 14-9.5l4-1a163.592 163.592 0 0 1 27-15c2.046-2.903 4.713-4.736 8-5.5Z"/><path style="opacity:1" fill="#86796e" d="M316.5 394.5c6.151.603 7.484 3.436 4 8.5-5.5 1.167-7.667-1-6.5-6.5.995-.566 1.828-1.233 2.5-2Z"/><path style="opacity:1" fill="#f8770f" d="M201.5 414.5v48c-.934 1.068-1.268 2.401-1 4h-14c.086-.996-.248-1.829-1-2.5-12.035-7.764-24.535-14.264-37.5-19.5l-1 1c-2.509-1.937-5.343-2.937-8.5-3v-3h-6v-3h-3v-3h-6v-3h-5v-3c-2.921.354-5.254-.646-7-3-1.714 1.109-2.381.442-2-2a12.93 12.93 0 0 1-5-.5c-.752-.671-1.086-1.504-1-2.5h35a311.175 311.175 0 0 0 33 18.5c4.091 1.227 7.591.394 10.5-2.5.026-3.639.86-6.972 2.5-10 .961-1.765 1.295-3.765 1-6h15c-.284-1.915.049-3.581 1-5Z"/><path style="opacity:1" fill="#f7750f" d="M658.5 419.5h35c-.499 2.889-1.999 3.556-4.5 2a20.499 20.499 0 0 0-2.5 3.5 101.955 101.955 0 0 0-13 5.5v3h-6v3h-6v3c-1.788-.285-3.455.048-5 1 1.129 2.029.629 2.363-1.5 1-1.712 3.452-4.212 4.452-7.5 3v3c-3.096-.593-5.429.407-7 3a47.25 47.25 0 0 1-7 3v3h-6v3c-1.788-.285-3.455.048-5 1-4.213 1.968-7.88 3.968-11 6h-35c1.216-1.951 2.882-3.451 5-4.5a51.42 51.42 0 0 0 14-8 472.117 472.117 0 0 0 46-26 101.18 101.18 0 0 0 17-8.5Z"/><path style="opacity:1" fill="#fefefe" d="M213.5 448.5c6.835 21.837 21.169 36.504 43 44a10666.009 10666.009 0 0 1-43 111v-155Z"/><path style="opacity:1" fill="#f76c0c" d="M573.5 466.5h38c-1.068.934-2.401 1.268-4 1-.167 12.338 0 24.671.5 37 .414.457.914.791 1.5 1a91.123 91.123 0 0 1 1 19h-14c.323 6.19-.01 12.19-1 18 .167-18.67 0-37.336-.5-56-3.681-2.86-7.848-3.693-12.5-2.5a58.12 58.12 0 0 1-11 5l-5 5a64.953 64.953 0 0 0-18 8c-1.231 1.405-2.564 2.571-4 3.5a297.083 297.083 0 0 1-6-13.5c14.657-4.503 26.323-13.003 35-25.5Z"/><path style="opacity:1" fill="#f9690b" d="M201.5 462.5v61a61.281 61.281 0 0 1-15 1v-58h14c-.268-1.599.066-2.932 1-4Z"/><path style="opacity:1" fill="#86796e" d="M264.5 494.5c16.653 5.483 28.82 16.15 36.5 32 14.59 17.215 33.09 24.881 55.5 23a5359.952 5359.952 0 0 1-35.5 94 4287.25 4287.25 0 0 0-28.5-68.5 12.494 12.494 0 0 0-7 0 901.37 901.37 0 0 1-63 30 4414.36 4414.36 0 0 0 42-110.5Z"/><path style="opacity:1" fill="#87796f" d="M547.5 526.5a289.76 289.76 0 0 0 9 22c-.709.904-1.709 1.237-3 1a24.362 24.362 0 0 0 1.5 10 2594.368 2594.368 0 0 1 17.5 45.5 901.37 901.37 0 0 1-63-30 12.494 12.494 0 0 0-7 0 6243 6243 0 0 0-28.5 68.5l-35.5-93c20.351.937 37.851-5.73 52.5-20a208.32 208.32 0 0 1 18.5-24.5c5.882-5.111 12.549-8.944 20-11.5a546.572 546.572 0 0 1 12.5 30 72.144 72.144 0 0 0 5.5 2Z"/><path style="opacity:1" fill="#fefefe" d="M583.5 608.5a1974.787 1974.787 0 0 1-22.5-58 9.175 9.175 0 0 0-4.5-2 289.76 289.76 0 0 1-9-22c2.285-3.065 2.618-6.398 1-10a367.512 367.512 0 0 1 34.5-20c.5 37.332.667 74.665.5 112Z"/><path style="opacity:1" fill="#f96009" d="M201.5 523.5v28c-.977 2.787-1.31 5.787-1 9h-14v-36a61.281 61.281 0 0 0 15-1Z"/><path style="opacity:1" fill="#fafafa" d="M417.5 544.5a103.85 103.85 0 0 0-18.5 11 72.385 72.385 0 0 1-19.5-12c12.821-5.418 25.488-5.085 38 1Z"/><path style="opacity:1" fill="#283338" d="M379.5 543.5a72.385 72.385 0 0 0 19.5 12 103.85 103.85 0 0 1 18.5-11c3.186.838 6.353 1.838 9.5 3 1.595.856 2.428 2.189 2.5 4-8.221 3.448-15.888 7.948-23 13.5-10.127 2.443-18.793.109-26-7l-5-1c-2.364-3.158-5.364-5.324-9-6.5v-3a102.413 102.413 0 0 0 13-4Z"/><path style="opacity:1" fill="#f75908" d="M366.5 550.5c3.636 1.176 6.636 3.342 9 6.5l5 1c7.207 7.109 15.873 9.443 26 7 7.112-5.552 14.779-10.052 23-13.5l13 34h-90a826.395 826.395 0 0 1 14-35Z"/><path style="opacity:1" fill="#f75c08" d="M610.5 524.5v61h-14c.268 1.599-.066 2.932-1 4v-47c.99-5.81 1.323-11.81 1-18h14Z"/><path style="opacity:1" fill="#f85507" d="M201.5 551.5v69h-15v-60h14c-.31-3.213.023-6.213 1-9Z"/><path style="opacity:1" fill="#f65407" d="M299.5 613.5c-4.951-1.277-9.284-3.777-13-7.5a12.93 12.93 0 0 0-5-.5v-18c1.437-1.225 3.104-2.225 5-3a259.42 259.42 0 0 1 13 29Z"/><path style="opacity:1" fill="#f85406" d="M352.5 585.5h90a1096.933 1096.933 0 0 1 13 35h-116a1100.202 1100.202 0 0 0 13-35Z"/><path style="opacity:1" fill="#f55307" d="M518.5 589.5a49.87 49.87 0 0 1-1 14c-4.388.916-8.055 3.082-11 6.5a368.393 368.393 0 0 1-12 6.5 957.627 957.627 0 0 1 14-32l10 5Z"/><path style="opacity:1" fill="#273338" d="M281.5 587.5v18a12.93 12.93 0 0 1 5 .5c3.716 3.723 8.049 6.223 13 7.5a186.369 186.369 0 0 0 7 17c-.124.607-.457.94-1 1a60.311 60.311 0 0 1-14-8.5c-8.363-2.47-15.53-6.97-21.5-13.5a128.507 128.507 0 0 1-.5-16c3.682-2.508 7.682-4.508 12-6ZM518.5 589.5a54.343 54.343 0 0 0 9 4 145.053 145.053 0 0 1-.5 17c-6.566 5.29-13.732 9.457-21.5 12.5a39.806 39.806 0 0 0-8 7c-2.912.275-5.579 1.109-8 2.5-.543-.06-.876-.393-1-1 2.29-4.909 4.29-9.909 6-15a368.393 368.393 0 0 0 12-6.5c2.945-3.418 6.612-5.584 11-6.5a49.87 49.87 0 0 0 1-14Z"/><path style="opacity:1" fill="#fdfdfd" d="M269.5 593.5c-.166 5.344.001 10.677.5 16 5.97 6.53 13.137 11.03 21.5 13.5a60.311 60.311 0 0 0 14 8.5 1132.729 1132.729 0 0 1 14 28.5c2.201.825 4.034.325 5.5-1.5a99.764 99.764 0 0 1 5.5-13 46.081 46.081 0 0 1 6 5.5c3.29.253 6.29 1.253 9 3a643.917 643.917 0 0 0 29 18c2.861.54 5.528 1.54 8 3l11 7c4 .667 8 .667 12 0 6.962-5.648 14.628-9.981 23-13a1164.442 1164.442 0 0 1 37-22.5 6657.5 6657.5 0 0 1 5 12c1.749 2.031 3.749 2.365 6 1a506.451 506.451 0 0 1 13-27c2.421-1.391 5.088-2.225 8-2.5a39.806 39.806 0 0 1 8-7c7.768-3.043 14.934-7.21 21.5-12.5.499-5.657.666-11.324.5-17l51 25.5a12.93 12.93 0 0 0 5 .5 133.155 133.155 0 0 1-1 23 4.457 4.457 0 0 0-2 1.5 23356.745 23356.745 0 0 1-182 104.5 97.288 97.288 0 0 0-12-5.5c-3.543-1.608-6.543-3.942-9-7-5.662-.917-10.329-3.583-14-8a78.488 78.488 0 0 1-23-13c-3.415-.406-6.082-2.072-8-5-8.372-3.019-16.038-7.352-23-13-5.093-1.382-9.426-4.049-13-8-6.4-2.062-12.067-5.396-17-10l-10-4-4-4a77.598 77.598 0 0 1-23-13 90.42 90.42 0 0 1-14-6l-4-4a46.99 46.99 0 0 1-10.5-5.5c-.5-7.659-.666-15.326-.5-23l56-26Z"/><path style="opacity:1" fill="#f64c05" d="M339.5 620.5h116c2.236 4.82 4.236 9.82 6 15-3.856.342-6.856 2.176-9 5.5-6.744 2.402-12.744 6.069-18 11l-22 11a2929.62 2929.62 0 0 0-12.5 8.5 1254.951 1254.951 0 0 1-65.5-37 87.385 87.385 0 0 1 5-14Z"/><path style="opacity:1" fill="#283338" d="M334.5 634.5a1254.951 1254.951 0 0 0 65.5 37 2929.62 2929.62 0 0 1 12.5-8.5l22-11c5.256-4.931 11.256-8.598 18-11 2.144-3.324 5.144-5.158 9-5.5a76.898 76.898 0 0 1 4 11 1164.442 1164.442 0 0 0-37 22.5c-8.372 3.019-16.038 7.352-23 13-4 .667-8 .667-12 0l-11-7a24.569 24.569 0 0 0-8-3 643.917 643.917 0 0 1-29-18c-2.71-1.747-5.71-2.747-9-3a46.081 46.081 0 0 0-6-5.5c.565-4.037 1.899-7.703 4-11Z"/><path style="opacity:1" fill="#f64804" d="M186.5 620.5h15c-.166 9.339 0 18.673.5 28a18.839 18.839 0 0 1 6.5 5.5 55.63 55.63 0 0 1 18 10 146.596 146.596 0 0 1 26 14 25.14 25.14 0 0 1 4 4.5h-65c-1.544-.203-2.878-.87-4-2a900.602 900.602 0 0 1-1-60Z"/><path style="opacity:1" fill="#f64904" d="M610.5 585.5c.333 29.674 0 59.341-1 89-1.671 2.01-2.338 4.343-2 7-1.291-.237-2.291.096-3 1h-66c5.702-4.52 12.035-8.02 19-10.5 6.951-5.974 14.618-10.641 23-14 6.616-3.612 11.449-8.779 14.5-15.5.5-17.664.667-35.33.5-53 .934-1.068 1.268-2.401 1-4h14Z"/><path style="opacity:1" fill="#f64103" d="M191.5 682.5h65a48.364 48.364 0 0 1 9 2.5l28 18a24.569 24.569 0 0 0 8 3 201.636 201.636 0 0 1 27 17 107.681 107.681 0 0 1 10 4.5h-69a2258.655 2258.655 0 0 1-15-8c-1.545-.952-3.212-1.285-5-1v-3h-6v-3c-2.092-.061-3.592-1.061-4.5-3-1.299.466-2.799.466-4.5 0v-3c-1.788.285-3.455-.048-5-1-2.158-3.144-5.158-4.477-9-4v-3a12.93 12.93 0 0 1-5-.5c-2.625-3.031-6.125-5.864-10.5-8.5-2.537.677-4.537-.323-6-3l-1 1c-1.667-1-3-2.333-4-4-2.447 1.496-3.281 1.163-2.5-1Z"/><path style="opacity:1" fill="#f74102" d="M538.5 682.5h66c-2.006.985-3.673 2.318-5 4h-3v3a58.97 58.97 0 0 0-11 3v3c-1.859-.039-3.192.794-4 2.5a12.93 12.93 0 0 1-5 .5v3c-2.582-.475-4.582.192-6 2-2.281 1.928-4.947 2.928-8 3v3h-6v3c-4.045-.073-7.378 1.427-10 4.5l1 1a118.288 118.288 0 0 0-17 7.5 10.756 10.756 0 0 0-2.5 3c-.383-.556-.883-.889-1.5-1h-67a467.986 467.986 0 0 0 40-24.5 91.311 91.311 0 0 0 23-13 184.163 184.163 0 0 1 16-7.5Z"/><path style="opacity:1" fill="#f74402" d="M599.5 686.5c1.333.667 1.333.667 0 0Z"/><path style="opacity:1" fill="#f74202" d="M570.5 703.5c1.333.667 1.333.667 0 0Z"/><path style="opacity:1" fill="#f73a01" d="M269.5 727.5h69c1.566 3.241 4.233 4.741 8 4.5a279.412 279.412 0 0 1 19 12c4.871 1.741 9.204 4.408 13 8a35.157 35.157 0 0 1 10 5 54.915 54.915 0 0 0 10 2.5c5.69-1.028 11.024-2.861 16-5.5 5.239-4.798 11.239-8.131 18-10l4-4a118.76 118.76 0 0 0 23-12.5h67c-.683 1.676-2.017 2.343-4 2v3h-6v3h-5v3c-2.524-.071-4.524.929-6 3-2.12-1.372-3.12-.705-3 2a12.93 12.93 0 0 0-5 .5 101.657 101.657 0 0 0-10 7.5 9.108 9.108 0 0 1-5 1v3c-2.51-.446-4.51.22-6 2-2.216.703-4.049 2.036-5.5 4-1.813-1.109-2.646-.442-2.5 2a12.93 12.93 0 0 0-5 .5c-1.497 1.871-3.497 2.871-6 3-1.307 2.324-3.307 3.657-6 4l2 1a12.93 12.93 0 0 1-5 .5v3a9.86 9.86 0 0 0-6 1 35.217 35.217 0 0 1-8 4v3h-6v3h-6v3a8.43 8.43 0 0 0-4 .5l-5 5c-1.284.684-2.451.517-3.5-.5-1.263 2.968-3.263 3.968-6 3a2.428 2.428 0 0 0-.5 2h-12c-.507-1.359-1.507-2.359-3-3a137.913 137.913 0 0 0-11-4v-3c-2.133-1.386-5.133-2.386-9-3v-3h-5v-3c-3.005.247-5.505-.753-7.5-3l-1 1a4.934 4.934 0 0 1-.5-3h-6v-3h-5v-3h-6v-3c-5.922-1.727-11.089-4.727-15.5-9-.718.951-1.551 1.117-2.5.5 1.333-.667 1.333-1.333 0-2a12.93 12.93 0 0 0-5-.5v-3a58.97 58.97 0 0 1-11-3v-3c-8.654-3.265-16.321-6.932-23-11v-3h-6v-3c-2.281.423-3.948-.244-5-2Z"/><path style="opacity:1" fill="#f73a00" d="M476.5 757.5c1.333.667 1.333.667 0 0Z"/></svg>