<?xml version="1.0" standalone="no"?>
<!DOCTYPE svg PUBLIC "-//W3C//DTD SVG 20010904//EN"
 "http://www.w3.org/TR/2001/REC-SVG-20010904/DTD/svg10.dtd">
<svg version="1.0" xmlns="http://www.w3.org/2000/svg"
 width="100.000000pt" height="100.000000pt" viewBox="0 0 100.000000 100.000000"
 preserveAspectRatio="xMidYMid meet">

<g transform="translate(0.000000,100.000000) scale(0.100000,-0.100000)"
fill="#000000" stroke="none">
<path d="M360 971 c-119 -38 -216 -112 -279 -210 -177 -276 -30 -664 283 -747
76 -20 222 -18 295 5 203 63 341 256 341 477 0 221 -138 409 -349 474 -81 26
-214 26 -291 1z m398 -220 c4 -26 -24 -61 -48 -61 -9 0 -28 13 -42 29 -17 19
-39 30 -68 35 -24 4 -45 5 -47 2 -5 -4 -32 -120 -33 -138 0 -4 17 -10 38 -14
20 -3 65 -17 98 -30 47 -19 68 -22 86 -15 52 20 112 -44 87 -91 -7 -13 -18
-27 -25 -31 -8 -4 -14 -25 -14 -46 0 -58 -45 -112 -127 -153 -60 -30 -76 -33
-153 -33 -98 0 -169 22 -227 69 -36 30 -72 95 -73 129 0 11 -9 30 -20 44 -33
42 -23 85 27 111 15 8 30 9 50 1 24 -8 39 -5 84 16 30 13 65 25 79 26 55 1 63
11 82 99 10 45 19 85 22 87 2 2 30 -1 63 -7 49 -10 63 -9 88 4 25 13 33 13 50
2 11 -7 21 -23 23 -35z"/>
<path d="M351 476 c-16 -19 -10 -66 10 -79 26 -16 68 0 75 30 4 14 2 33 -3 42
-13 21 -66 26 -82 7z"/>
<path d="M581 476 c-16 -19 -10 -66 10 -79 44 -28 95 25 69 72 -13 25 -61 29
-79 7z"/>
<path d="M382 313 c5 -27 55 -45 123 -45 77 0 144 30 119 54 -3 3 -20 -2 -37
-11 -43 -22 -136 -21 -170 2 -33 21 -39 21 -35 0z"/>
</g>
</svg>
