<svg version="1.0" xmlns="http://www.w3.org/2000/svg" width="533.333" height="533.333" viewBox="0 0 400 400"><path d="M185.5.6c-1.6.2-7.3.9-12.5 1.5-26.6 3.1-58.1 14.8-82 30.6C55.7 56 30 87.3 14.6 125.8-10.1 187.2-2.8 256 34.3 311.5c39.3 58.9 110.4 93.5 180.3 87.7 18.6-1.5 31.4-4.1 48.4-9.8 41.9-13.9 78.6-41.7 102.7-77.9 45.5-68 45.5-155 0-223C333 39.4 278.2 6.9 218.6 1.1c-10.3-1-26.3-1.2-33.1-.5zm-4.3 105.3c1.7 7.1 5.5 15.8 8.8 20.1l1.9 2.5-1.4-4.9c-1.6-5.3-2.1-17.6-.6-16.1.4.6 1.4 3.2 2 6 2.7 11.4 9.1 20.7 15.1 22 3.3.7 6.2 3.7 8.7 9 2.3 4.9 9.3 9.5 17.1 11l5.7 1.1.3 5.5c.5 9.3-6.2 18.4-14.9 20.4-2.7.7-2.7.6-3.1-6.4-.3-6-.8-7.5-3.4-10.8-4.6-5.7-8.5-7.6-15.4-7.5-4.5.1-6.5-.4-8.4-1.9-3.4-2.7-3.3-4.1.2-3.3 2.6.6 2.6.5-.5-1.5-3.5-2.2-4.3-4.1-1.7-4.1 5.4 0-11-8.4-18.6-9.5-14.6-2.1-27.2 7.8-27.2 21.4 0 9.6 1.4 12.3 8.7 17.1l6.5 4.2v14.6l-10.7-6.1c-11.9-6.9-13.3-8.8-15.6-21.3-.7-3.6-1.6-6.2-2-5.8-1.1 1.1-.8-6.1.4-9.3.6-1.5 2-3.9 3.2-5.2 2.2-2.5.6-2-2.5.7-1.5 1.3-1.8 1.3-1.8.1 0-1.9 3.5-7 6.2-9.1 1.4-1.1 1.8-1.8.9-1.8-1.1 0-1.1-.3 0-1.6 2-2.4 6.5-4.4 10.1-4.5 3.1 0 3.1-.1 1-1-1.3-.5-2.8-.7-3.3-.3-.5.3-.9.1-.9-.4 0-1.6 4.9-3.2 9.8-3.2 4.6-.1 4.7-.1 2.2-1.6-2.4-1.4-2.2-1.5 3.3-1.1 5.5.4 5.6.3 4-1.5-1.5-1.7-1.5-1.8.1-1.8.9 0 3.2.6 5.1 1.4 2.6 1.1 3.3 1.1 2.9.2-.6-1.5 5.3-1 6.2.5.3.5.9.9 1.5.9.5 0 .2-1.7-.7-3.8-1.8-4.1-3.2-20.2-1.8-20.2.5 0 1.6 3.1 2.6 6.9zm152.1 5.7c.7 9.8 3.3 16.9 7.9 21.7 3.7 3.9 5.8 4.2 5.8.6 0-2.7 1.9-2.4 3 .7 1.7 4.5 1.1 9.3-2.1 15.5-3.3 6.6-3.6 11.5-.7 13.3 1.3.8 2.1.6 3.6-.7 1-.9 2.2-1.7 2.5-1.7 1.1 0 .8 3.9-.5 6.3-1.9 3.6-19 21.7-20.5 21.7-1.1 0-1-.7.5-2.8 5.9-8.3 7.9-17.6 6.2-28.3-1-6.9-2.7-11.9-4-11.9-.4 0-1.5 3.9-2.4 8.7-2 10.3-6.3 19.7-11.2 24.4-2.9 2.8-3.6 3.1-4.4 1.9-1.5-2.2-5.1-14.2-4.5-14.8.3-.3 1.4.3 2.5 1.3 2.2 2 2.2 2 3.9-1.2 1.7-3.3 1.3-5.9-1.4-9.1-4.9-5.8-7.2-16-4.5-20.2.7-1.1 1.1-.8 2 1.5 1.4 3.7 3.9 6.5 5.7 6.5.8 0 2.1-1.6 2.9-3.7 1.3-2.9 1.3-4.5.5-7.9-.6-2.4-1.1-5.6-1.1-7.2 0-6.3 6.4-22.2 8.8-22.2.5 0 1.2 3.4 1.5 7.6zm-82.5 17 17.2 9.7-.2 21-.3 21-33 18.8-32.9 18.8-6.6-3.6c-12.3-6.8-12-6.5-12-14.4v-7l5.8 3.2c3.1 1.8 7.3 4.1 9.3 5.3l3.6 2 27.2-15.5 27.1-15.4-.2-13.4-.3-13.4-11.2-6.4-11.2-6.4-7 3.6-7 3.7-3.4-3.6c-1.9-2-4.3-3.6-5.3-3.6-1.3 0-1.5-.3-.7-1.1 1.7-1.7 21.6-12.9 22.9-12.9.6 0 8.8 4.3 18.2 9.6zm-64.9 20.6c.4 1.3 1.1 3.9 1.5 5.8.6 3.3.4 3.7-3.9 6.2L179 164v57l3.7 4.1c7.5 8.3 16.3 11.2 25.6 8.5 6.9-2 13.7-7.2 18.6-14.4 4.8-7 10.7-12.6 18.6-17.9 8-5.4 28.6-15.6 38.8-19.3 7.3-2.7 25.1-8 26.9-8 .7 0 3.2 7 2.6 7.4-.1.1-3.2.8-6.8 1.5-14.6 2.8-35.4 11-47.5 18.6-9.6 6-15.6 12.5-20.5 22.2s-12.7 17.5-21.7 22c-5.1 2.5-6.9 2.8-15.3 2.8-8.8 0-10.1-.3-16.2-3.3-7.7-3.8-14.7-10.1-17.7-16-2-3.9-2.1-5.6-2.1-38.4l.1-34.3 8.2-4.7c4.5-2.6 8.8-4.7 9.5-4.7.7-.1 1.6.9 2.1 2.1zm150.8 16.2c-.8 10.7-2.3 14.9-7.4 20.6-4.3 4.8-9.7 7.6-19.3 10.1-14.7 3.7-36.2 18.5-41.2 28.2-1.2 2.4-3.2 11.1-4.9 21.6-4.2 25.5-7.1 33.4-15.9 44-10.4 12.5-25.1 19.7-42.5 20.7-16.5 1.1-31.5-4.1-42-14.3-5.2-5.1-11.9-14.3-11-15.1.2-.2 4.8.4 10.2 1.3 8.9 1.6 10.2 2.1 14.1 5.7 14.4 13.2 37 13.2 53 .1 8.6-7.1 15.1-20.6 17.3-35.8 1.4-10.2 5.2-23.5 9-31.2 6.3-13.1 23.5-24.4 48.4-31.8 6.6-1.9 13.3-4.1 14.8-4.7 5.7-2.3 12.2-13.6 14.9-26.1 1.6-7.7 3.2-3.5 2.5 6.7zm-129 .3c5 2.3 8 9.1 6.4 14.3-2.1 7.1-9 11.3-15.8 9.6-1.4-.4-4.1-2.2-6-4.1-2.8-2.8-3.3-4-3.3-8.2 0-5.5 1.7-8.5 6.4-11.4 3.8-2.3 7.7-2.4 12.3-.2zM85 170.9c23 6.1 37.4 14.3 51.4 29.2 11.8 12.5 21.1 28.3 27.1 46.3 1.4 4.3 2.5 7.9 2.3 8.1-.2.1-3.9-.3-8.3-1.1-4.4-.7-8.5-1.3-9.2-1.3-.6-.1-1.7-2.7-2.3-5.9-6.2-30.7-21.8-51.4-46.4-61.2-21.5-8.6-46.3-7.7-49 1.8-3 10.6 22.7 37.5 51.2 53.6 15.2 8.6 33.7 14.9 53.8 18.3 9.2 1.5 16.6 1.8 48.2 1.8h37.3l-.6 2.5c-.3 1.4-1.9 5.3-3.6 8.7l-3 6.2-5.7.8c-10.8 1.5-48.7.9-60.7-1-37.9-6.2-67.1-16.7-91.5-32.8-17.5-11.6-36.2-32-43.7-47.7-7.2-14.9-3.6-23.6 11.6-27.9 6.9-1.9 31.5-1 41.1 1.6zm282 2.1c12.8 6.5 9 22-11.2 46.3-16.9 20.5-43.4 37.3-75.8 48.1-15.1 5.1-17.6 5.5-16.5 2.8.3-.9 1.2-4.5 2-8 .7-3.5 1.4-6.4 1.6-6.6.2-.1 4.6-1.7 9.8-3.5 22.9-7.9 45-22.5 62.8-41.5 8.1-8.7 13.3-17.1 13.3-21.7 0-3.1-3.1-6.6-6.6-7.5-2.6-.7-2.5-.7 2.8-6.1 5.1-5.3 5.5-5.4 9.6-4.9 2.3.3 6 1.5 8.2 2.6z"/></svg>