<svg version="1.0" xmlns="http://www.w3.org/2000/svg" width="133.333" height="133.333" viewBox="0 0 100 100"><path d="M37 2.4C21.7 6.7 8.2 19.3 3.1 34.3c-8.3 24 2.6 50 25.7 61.4 7.3 3.7 8 3.8 19.6 4.1 13.5.4 19.7-1.1 28.7-6.8 31.8-20.4 30.2-68.3-2.8-86.3C64.3 1.3 47.9-.6 37 2.4zm27.8 26.3.3 4.2 5.7.3c5.6.3 5.7.4 5.7 3.3 0 3-.1 3-5.7 3.3l-5.8.3v7.8l4.8.3 4.7.3.3 11.6c.2 9.9 0 11.8-1.4 13-2.1 1.8-24.6 2.4-27.8.7-1.1-.6-3.3-2.1-4.7-3.5l-2.7-2.4-5.3 4c-5.9 4.4-7.6 5-8.6 2.5-.3-1 .7-2.9 2.9-5.2 2-2 4-4.6 4.6-5.7.9-1.8.7-2-2.1-2h-3.2l-.3-16.4c-.2-12.5.1-16.6 1-17.3 1.5-.9 17.9-1.1 20.2-.2 1.3.5 1.6 2.6 1.7 11.8 0 6.1.3 10.5.6 9.8.2-.6 2-1.2 3.9-1.2H57V36.7c0-6.3.3-11.7.7-12.1.4-.4 2.1-.6 3.8-.4 2.8.3 3 .6 3.3 4.5z"/><path d="M34 34.8c0 .4 1.6.8 3.5.8s3.5-.4 3.5-.8-1.6-.8-3.5-.8-3.5.4-3.5.8zM58 61.5V68h9V55h-9v6.5zM48 59.5c0 .8-1.1 1.7-2.5 2.1-3.2.8-3.1 1.4.5 4.9l3 2.9v-5.7c0-3.1-.2-5.7-.5-5.7s-.5.7-.5 1.5z"/></svg>