<?xml version="1.0" standalone="no"?>
<!DOCTYPE svg PUBLIC "-//W3C//DTD SVG 20010904//EN"
 "http://www.w3.org/TR/2001/REC-SVG-20010904/DTD/svg10.dtd">
<svg version="1.0" xmlns="http://www.w3.org/2000/svg"
 width="400.000000pt" height="400.000000pt" viewBox="0 0 400.000000 400.000000"
 preserveAspectRatio="xMidYMid meet">

<g transform="translate(0.000000,400.000000) scale(0.100000,-0.100000)"
fill="#000000" stroke="none">
<path d="M1855 3994 c-16 -2 -73 -9 -125 -15 -266 -31 -581 -148 -820 -306
-353 -233 -610 -546 -764 -931 -247 -614 -174 -1302 197 -1857 393 -589 1104
-935 1803 -877 186 15 314 41 484 98 419 139 786 417 1027 779 455 680 455
1550 0 2230 -327 491 -875 816 -1471 874 -103 10 -263 12 -331 5z m-43 -1053
c17 -71 55 -158 88 -201 l19 -25 -14 49 c-16 53 -21 176 -6 161 4 -6 14 -32
20 -60 27 -114 91 -207 151 -220 33 -7 62 -37 87 -90 23 -49 93 -95 171 -110
l57 -11 3 -55 c5 -93 -62 -184 -149 -204 -27 -7 -27 -6 -31 64 -3 60 -8 75
-34 108 -46 57 -85 76 -154 75 -45 -1 -65 4 -84 19 -34 27 -33 41 2 33 26 -6
26 -5 -5 15 -35 22 -43 41 -17 41 54 0 -110 84 -186 95 -146 21 -272 -78 -272
-214 0 -96 14 -123 87 -171 l65 -42 0 -73 0 -73 -107 61 c-119 69 -133 88
-156 213 -7 36 -16 62 -20 58 -11 -11 -8 61 4 93 6 15 20 39 32 52 22 25 6 20
-25 -7 -15 -13 -18 -13 -18 -1 0 19 35 70 62 91 14 11 18 18 9 18 -11 0 -11 3
0 16 20 24 65 44 101 45 31 0 31 1 10 10 -13 5 -28 7 -33 3 -5 -3 -9 -1 -9 4
0 16 49 32 98 32 46 1 47 1 22 16 -24 14 -22 15 33 11 55 -4 56 -3 40 15 -15
17 -15 18 1 18 9 0 32 -6 51 -14 26 -11 33 -11 29 -2 -6 15 53 10 62 -5 3 -5
9 -9 15 -9 5 0 2 17 -7 38 -18 41 -32 202 -18 202 5 0 16 -31 26 -69z m1521
-57 c7 -98 33 -169 79 -217 37 -39 58 -42 58 -6 0 27 19 24 30 -7 17 -45 11
-93 -21 -155 -33 -66 -36 -115 -7 -133 13 -8 21 -6 36 7 10 9 22 17 25 17 11
0 8 -39 -5 -63 -19 -36 -190 -217 -205 -217 -11 0 -10 7 5 28 59 83 79 176 62
283 -10 69 -27 119 -40 119 -4 0 -15 -39 -24 -87 -20 -103 -63 -197 -112 -244
-29 -28 -36 -31 -44 -19 -15 22 -51 142 -45 148 3 3 14 -3 25 -13 22 -20 22
-20 39 12 17 33 13 59 -14 91 -49 58 -72 160 -45 202 7 11 11 8 20 -15 14 -37
39 -65 57 -65 8 0 21 16 29 37 13 29 13 45 5 79 -6 24 -11 56 -11 72 0 63 64
222 88 222 5 0 12 -34 15 -76z m-825 -170 l172 -97 -2 -210 -3 -210 -330 -188
-329 -188 -66 36 c-123 68 -120 65 -120 144 l0 70 58 -32 c31 -18 73 -41 93
-53 l36 -20 272 155 271 154 -2 134 -3 134 -112 64 -112 64 -70 -36 -70 -37
-34 36 c-19 20 -43 36 -53 36 -13 0 -15 3 -7 11 17 17 216 129 229 129 6 0 88
-43 182 -96z m-649 -206 c4 -13 11 -39 15 -58 6 -33 4 -37 -39 -62 l-45 -28 0
-285 0 -285 37 -41 c75 -83 163 -112 256 -85 69 20 137 72 186 144 48 70 107
126 186 179 80 54 286 156 388 193 73 27 251 80 269 80 7 0 32 -70 26 -74 -1
-1 -32 -8 -68 -15 -146 -28 -354 -110 -475 -186 -96 -60 -156 -125 -205 -222
-49 -97 -127 -175 -217 -220 -51 -25 -69 -28 -153 -28 -88 0 -101 3 -162 33
-77 38 -147 101 -177 160 -20 39 -21 56 -21 384 l1 343 82 47 c45 26 88 47 95
47 7 1 16 -9 21 -21z m1508 -162 c-8 -107 -23 -149 -74 -206 -43 -48 -97 -76
-193 -101 -147 -37 -362 -185 -412 -282 -12 -24 -32 -111 -49 -216 -42 -255
-71 -334 -159 -440 -104 -125 -251 -197 -425 -207 -165 -11 -315 41 -420 143
-52 51 -119 143 -110 151 2 2 48 -4 102 -13 89 -16 102 -21 141 -57 144 -132
370 -132 530 -1 86 71 151 206 173 358 14 102 52 235 90 312 63 131 235 244
484 318 66 19 133 41 148 47 57 23 122 136 149 261 16 77 32 35 25 -67z
m-1290 -3 c50 -23 80 -91 64 -143 -21 -71 -90 -113 -158 -96 -14 4 -41 22 -60
41 -28 28 -33 40 -33 82 0 55 17 85 64 114 38 23 77 24 123 2z m-1227 -52
c230 -61 374 -143 514 -292 118 -125 211 -283 271 -463 14 -43 25 -79 23 -81
-2 -1 -39 3 -83 11 -44 7 -85 13 -92 13 -6 1 -17 27 -23 59 -62 307 -218 514
-464 612 -215 86 -463 77 -490 -18 -30 -106 227 -375 512 -536 152 -86 337
-149 538 -183 92 -15 166 -18 482 -18 l373 0 -6 -25 c-3 -14 -19 -53 -36 -87
l-30 -62 -57 -8 c-108 -15 -487 -9 -607 10 -379 62 -671 167 -915 328 -175
116 -362 320 -437 477 -72 149 -36 236 116 279 69 19 315 10 411 -16z m2820
-21 c128 -65 90 -220 -112 -463 -169 -205 -434 -373 -758 -481 -151 -51 -176
-55 -165 -28 3 9 12 45 20 80 7 35 14 64 16 66 2 1 46 17 98 35 229 79 450
225 628 415 81 87 133 171 133 217 0 31 -31 66 -66 75 -26 7 -25 7 28 61 51
53 55 54 96 49 23 -3 60 -15 82 -26z"/>
</g>
</svg>
