<?xml version="1.0" encoding="UTF-8"?><svg xmlns="http://www.w3.org/2000/svg" width="800" height="800" style="shape-rendering:geometricPrecision;text-rendering:geometricPrecision;image-rendering:optimizeQuality;fill-rule:evenodd;clip-rule:evenodd"><path style="opacity:1" fill="#283439" d="M412.5 123.5a269.344 269.344 0 0 1 18 11.5c4.871 1.741 9.204 4.408 13 8a77.598 77.598 0 0 1 23 13 928.605 928.605 0 0 1 68 39 8.43 8.43 0 0 0 4 .5 600.937 600.937 0 0 1 1-49c-.096 19.06-.096 38.06 0 57a1125.788 1125.788 0 0 0 39 22 13.116 13.116 0 0 1 1 7c-3.521-.33-6.521-1.83-9-4.5a154.79 154.79 0 0 1-13-6l-4-4a299.672 299.672 0 0 1-27-14 77.598 77.598 0 0 0-23-13c-2.508-3.042-5.508-5.376-9-7-5.521-1.096-10.187-3.762-14-8l-4-1a327.567 327.567 0 0 0-42-24c-4.758-4.768-10.425-7.768-17-9-3.065-4.125-7.065-6.791-12-8l-6-5a546.6 546.6 0 0 0-35-18 108.394 108.394 0 0 1-19-13 1516.16 1516.16 0 0 1-91-52l-20-10a15.28 15.28 0 0 1-4.5-1.5A112.066 112.066 0 0 0 206.5 48a190.467 190.467 0 0 0-22 11c-3.492 1.624-6.492 3.958-9 7l-10 4-4 4a520.666 520.666 0 0 0-59 34l-9 3c-3.796 3.592-8.13 6.259-13 8A361.546 361.546 0 0 1 48 137.5c-.667 72-.667 144 0 216a7214.146 7214.146 0 0 0 125 72c.498-2.982.665-5.982.5-9a87.45 87.45 0 0 1 11 6c-1.398 4.133-2.231 8.466-2.5 13-2.909 2.894-6.409 3.727-10.5 2.5a13376.247 13376.247 0 0 1-116-67c-3.96.349-6.626-1.317-8-5l-8-4c-1.574-1.826-2.407-3.993-2.5-6.5-.5-20.664-.667-41.331-.5-62-.167-53.001 0-106.001.5-159-.167-5.167 2.333-7.667 7.5-7.5 2.514-.881 4.514-2.381 6-4.5a515.551 515.551 0 0 1 30-15.5c3.83-4.163 8.497-6.829 14-8a336.071 336.071 0 0 1 40-23l6-5c22.924-12.6 45.591-25.6 68-39 5.14-1.446 9.806-3.78 14-7 12.235-2.801 22.902.199 32 9a2084.03 2084.03 0 0 1 77 44c2.861.54 5.528 1.54 8 3a191.292 191.292 0 0 1 20 13 331.67 331.67 0 0 1 40 23c3.415.406 6.082 2.072 8 5 1.747.352 3.414.852 5 1.5Z"/><path style="opacity:1" fill="#fdfdfd" d="M579.5 232.5v3h4v12h-4c.247 3.439-.086 6.772-1 10a423.582 423.582 0 0 0-34 19l-2-40a15412.937 15412.937 0 0 1-143-82 58792.284 58792.284 0 0 0-36 20 25.14 25.14 0 0 0-4-4.5l-10-4c-3.25-3.637-7.25-5.97-12-7-5.396-5.42-11.73-9.087-19-11a331.67 331.67 0 0 0-40-23 846.02 846.02 0 0 1-33-20c-3.415-.406-6.082-2.072-8-5a42.498 42.498 0 0 0-13 0 226.438 226.438 0 0 0-29 17c-3.415.406-6.082 2.072-8 5a90.42 90.42 0 0 1-14 6c-3.574 3.951-7.907 6.618-13 8-6.962 5.648-14.628 9.981-23 13a146.497 146.497 0 0 1-31 18 6.978 6.978 0 0 0-2.5 3.5 5697.651 5697.651 0 0 0 0 151 295.38 295.38 0 0 0 28.5 16c-.333 18.345 0 36.679 1 55a818.38 818.38 0 0 1 40 24 40.914 40.914 0 0 1-.5 9 7214.146 7214.146 0 0 1-125-72c-.667-72-.667-144 0-216A361.546 361.546 0 0 0 80.5 119c4.87-1.741 9.204-4.408 13-8l9-3a520.666 520.666 0 0 1 59-34l4-4 10-4c2.508-3.042 5.508-5.376 9-7a190.467 190.467 0 0 1 22-11A112.066 112.066 0 0 1 230 34.5a15.28 15.28 0 0 0 4.5 1.5l20 10a1516.16 1516.16 0 0 0 91 52 108.394 108.394 0 0 0 19 13 546.6 546.6 0 0 1 35 18l6 5c4.935 1.209 8.935 3.875 12 8 6.575 1.232 12.242 4.232 17 9a327.567 327.567 0 0 1 42 24l4 1c3.813 4.238 8.479 6.904 14 8 3.492 1.624 6.492 3.958 9 7a77.598 77.598 0 0 1 23 13 299.672 299.672 0 0 0 27 14l4 4a154.79 154.79 0 0 0 13 6c2.479 2.67 5.479 4.17 9 4.5Z"/><path style="opacity:1" fill="#fdfdfd" d="M567.5 456.5a2087.542 2087.542 0 0 1-53-31 200.512 200.512 0 0 0 15-10.5 42.42 42.42 0 0 1 11-3.5 1016.322 1016.322 0 0 0 45.5 26 1790.344 1790.344 0 0 0 77.5-44.5 4.934 4.934 0 0 1 3-.5v-55a53.553 53.553 0 0 0 8-5.5c7.819-2.16 14.319-6.327 19.5-12.5.667-48.667.667-97.333 0-146-1.859-4.526-5.026-7.692-9.5-9.5-4.04-1.69-8.04-3.357-12-5a193.115 193.115 0 0 0-32-19 182.852 182.852 0 0 0-35-20c-3.671-4.417-8.338-7.083-14-8a171.322 171.322 0 0 0-19-12c-8.302-.757-15.635 1.576-22 7a68.695 68.695 0 0 0-14 7c-4.302.286-7.635 2.286-10 6a43.593 43.593 0 0 0-13 8 684.54 684.54 0 0 0-19 8.5 50.162 50.162 0 0 1-14-8.5 114.065 114.065 0 0 1-14-6 7185.005 7185.005 0 0 0-26-16 1301.662 1301.662 0 0 1 78-45c2.674-3.012 6.007-4.678 10-5 3.619-3.977 7.952-6.644 13-8a140.866 140.866 0 0 1 24-13.5c1.944.69 3.944 1.19 6 1.5 3.868 1.484 7.201 3.818 10 7a90.401 90.401 0 0 1 14 6c1.918 2.928 4.585 4.594 8 5a483.026 483.026 0 0 0 51 29l4 4a457.332 457.332 0 0 1 22 11 91.311 91.311 0 0 0 23 13c1.918 2.928 4.585 4.594 8 5a2129.254 2129.254 0 0 0 37.5 21.5 7901.316 7901.316 0 0 1 1.5 216 84.545 84.545 0 0 0-18 8.5 3660.5 3660.5 0 0 0-91 54 3985.49 3985.49 0 0 1-74 40.5Z"/><path style="opacity:1" fill="#e5c296" d="M576.5-.5h9a2.429 2.429 0 0 0 .5 2c1.049-1.017 2.216-1.184 3.5-.5a20.495 20.495 0 0 0 2.5 3.5c1.356-.88 2.856-1.214 4.5-1v3c2.822 1.432 6.489 2.432 11 3v3c2.092.061 3.592 1.061 4.5 3 2.537-.677 4.537.323 6 3 2.361-.566 4.194.434 5.5 3l2-1c.35 2.067 2.017 3.067 5 3v3h6v3h5v3h6v3a27.247 27.247 0 0 0 9 3c-.219 1.175.114 2.175 1 3a6.846 6.846 0 0 1 4-1v3a8.435 8.435 0 0 1 4 .5c-1.154.914-.987 1.747.5 2.5 1.299-.466 2.799-.466 4.5 0v3h6v3h5v3a428.986 428.986 0 0 0 20 8.5l-2 1c2.522.61 4.522 1.943 6 4 1.634.493 3.301.66 5 .5v3c2.908-.238 5.242.762 7 3 .951-.826 1.951-.992 3-.5l-1 1a6.977 6.977 0 0 1 3.5 2.5l1-1c.483.948.649 1.948.5 3h6v3h5v3c1.951-.273 3.451.393 4.5 2l1-1c6 4.386 12.5 7.886 19.5 10.5l-1 1c1.525 1.009 3.192 1.509 5 1.5v3h6v3h5v3c2.041.354 3.874.354 5.5 0 .483.948.649 1.948.5 3 2.836 1.276 5.836 1.942 9 2a23.142 23.142 0 0 1 2 8h-46a2752.793 2752.793 0 0 1-62-35.5c-3.415-.406-6.082-2.072-8-5a161.879 161.879 0 0 1-33-19c-6.4-2.062-12.067-5.396-17-10l-19-9a30.312 30.312 0 0 0-12-7c-2.365-3.714-5.698-5.714-10-6-7.082-6.364-15.416-9.031-25-8a12271.425 12271.425 0 0 1-129 74c-7.588 4.924-7.921 10.257-1 16a115.401 115.401 0 0 0 15 9.5c-11.179-.328-22.179.005-33 1a27.603 27.603 0 0 0-5-1.5c-1.918-2.928-4.585-4.594-8-5a331.67 331.67 0 0 0-40-23 191.292 191.292 0 0 0-20-13 24.564 24.564 0 0 0-8-3 2084.03 2084.03 0 0 0-77-44c-9.098-8.801-19.765-11.801-32-9-4.194 3.22-8.86 5.554-14 7a2157.081 2157.081 0 0 1-68 39l-6 5a336.071 336.071 0 0 0-40 23c-5.503 1.171-10.17 3.837-14 8a515.551 515.551 0 0 0-30 15.5h-44c.392-2.646.392-5.146 0-7.5a169.104 169.104 0 0 0 15-5.5v-3a58.967 58.967 0 0 0 11-3v-3a417.79 417.79 0 0 0 15-7 32.686 32.686 0 0 0 8.5-6l1 1c1.049-1.607 2.549-2.273 4.5-2v-3a59.029 59.029 0 0 1 11-3 4.932 4.932 0 0 1 .5-3l1 1c2.015-3.065 4.515-4.065 7.5-3v-3h5v-3c1.7.16 3.366-.007 5-.5 1.478-2.057 3.478-3.39 6-4l-2-1a18.436 18.436 0 0 1 6-.5v-3a87.51 87.51 0 0 0 14-5v-3h6v-3h5v-3c1.701-.466 3.201-.466 4.5 0 3.279-4.047 7.946-7.047 14-9a18.264 18.264 0 0 0 5-4l1 1c1.049-1.607 2.549-2.273 4.5-2v-3h5v-3h6v-3c4.612-1.195 9.279-2.862 14-5v-3c1.701-.466 3.201-.466 4.5 0 .908-1.939 2.408-2.939 4.5-3v-3h6v-3c1.788.285 3.455-.048 5-1a38.767 38.767 0 0 0 7-4.5 49.25 49.25 0 0 1 14 0c2.025 1.677 4.359 2.677 7 3-1.134 1.016-.801 1.683 1 2l5 1-1 1c2.622 3.073 5.955 4.573 10 4.5v3h6v3c3.191.262 5.858 1.596 8 4a9.864 9.864 0 0 0 6 1v3c3.58 1.22 7.247 2.386 11 3.5l-2 1c2.767.678 4.934 2.178 6.5 4.5l1-1c3.769 1.797 7.102 4.13 10 7a3.942 3.942 0 0 1 2-1c1.482 1.612 3.315 2.612 5.5 3v3h6v3h5v3h6v3a87.51 87.51 0 0 0 14 5v3c1.699-.16 3.366.007 5 .5l-1 1c1.525 1.009 3.192 1.509 5 1.5v3h6v3h5v3c2.985-1.065 5.485-.065 7.5 3l1-1c.483.948.649 1.948.5 3h5v3h6v3c2.133 1.386 5.133 2.386 9 3v3c2.908-.238 5.242.762 7 3l2-1c.35 2.067 2.017 3.067 5 3v3h6v3c2.516-.255 4.85-1.089 7-2.5a626.207 626.207 0 0 1 29-17c.837-1.011 1.17-2.178 1-3.5 4.493-.216 7.993-2.216 10.5-6 1.011.837 2.178 1.17 3.5 1v-3a59.031 59.031 0 0 0 11-3v-3c1.808.009 3.475-.491 5-1.5l-1-1a12.935 12.935 0 0 1 5-.5v-3a9.864 9.864 0 0 0 6-1 35.213 35.213 0 0 1 8-4v-3h6v-3a59.031 59.031 0 0 1 11-3v-3c1.808.009 3.475-.491 5-1.5-1.388-.89-1.222-1.39.5-1.5 2.071 1.167 3.571.5 4.5-2 6.434-2.343 12.767-5.343 19-9v-3a59.031 59.031 0 0 1 11-3 4.934 4.934 0 0 1 .5-3l1 1c1.995-2.247 4.495-3.247 7.5-3v-3h5v-3h6v-3c1.808.009 3.475-.491 5-1.5l-1-1a12.936 12.936 0 0 1 5-.5v-3c3.552.188 6.219-1.145 8-4Z"/><path style="opacity:1" fill="#273339" d="M363.5 174.5a40.606 40.606 0 0 0-10 7 43974.462 43974.462 0 0 0-53-31.5c-6.543-2.456-12.543-5.79-18-10l-35-21c-5.603-1.533-10.436-4.366-14.5-8.5-2.09.652-4.257.819-6.5.5a890.365 890.365 0 0 0-13 9.5c-4.898 3.281-10.232 5.781-16 7.5a72.823 72.823 0 0 1-9 7 58.65 58.65 0 0 1-16 7.5c-1.079 2.043-2.746 3.376-5 4-.667 18.162-1.333 36.162-2 54 .333-17.679 0-35.346-1-53-.607.124-.94.457-1 1a76.987 76.987 0 0 1-14 7.5c-5.201 4.797-11.201 8.13-18 10-5.669 5.02-11.836 9.187-18.5 12.5-.5 45.332-.667 90.665-.5 136 5.301 1.324 9.968 3.824 14 7.5 2.311.236 4.311 1.069 6 2.5v13a295.38 295.38 0 0 1-28.5-16 5697.651 5697.651 0 0 1 0-151 6.978 6.978 0 0 1 2.5-3.5 146.497 146.497 0 0 0 31-18c8.372-3.019 16.038-7.352 23-13 5.093-1.382 9.426-4.049 13-8a90.42 90.42 0 0 0 14-6c1.918-2.928 4.585-4.594 8-5a226.438 226.438 0 0 1 29-17 42.498 42.498 0 0 1 13 0c1.918 2.928 4.585 4.594 8 5a846.02 846.02 0 0 0 33 20 331.67 331.67 0 0 1 40 23c7.27 1.913 13.604 5.58 19 11 4.75 1.03 8.75 3.363 12 7l10 4a25.14 25.14 0 0 1 4 4.5Z"/><path style="opacity:1" fill="#142739" d="M633.5 149.5c.333 17.679 0 35.346-1 53a1135.664 1135.664 0 0 0-39 23c-.798.457-1.131 1.124-1 2v8h-13v-3a13.116 13.116 0 0 0-1-7 1125.788 1125.788 0 0 1-39-22c-.096-18.94-.096-37.94 0-57a1357.19 1357.19 0 0 1 43-24c1.784-1.393 3.784-1.893 6-1.5a1480.034 1480.034 0 0 0 44 25.5c.886.825 1.219 1.825 1 3Z"/><path style="opacity:1" fill="#142638" d="M213.5 120.5a782.38 782.38 0 0 1 46 27c.098 18.726.098 37.393 0 56a257.985 257.985 0 0 0-39.5 23 18.453 18.453 0 0 0-.5 6c-4.014 1.834-8.347 2.501-13 2v-7c-.437-1.574-1.437-2.741-3-3.5a1069.4 1069.4 0 0 0-38-21.5v-2c.667-17.838 1.333-35.838 2-54 2.254-.624 3.921-1.957 5-4a58.65 58.65 0 0 0 16-7.5 72.823 72.823 0 0 0 9-7c5.768-1.719 11.102-4.219 16-7.5Z"/><path style="opacity:1" fill="#dfbc8f" d="M6.5 122.5h44c-1.486 2.119-3.486 3.619-6 4.5-5.167-.167-7.667 2.333-7.5 7.5-.5 52.999-.667 105.999-.5 159h-30v-171Z"/><path style="opacity:1" fill="#debd90" d="M353.5 181.5a93.223 93.223 0 0 0-16 9c-4.4-.203-8.067-2.037-11-5.5a153.69 153.69 0 0 1-19-10 25.238 25.238 0 0 0-10 0l-2.5 2.5c-1.049-1.017-2.216-1.184-3.5-.5-5.981 4.997-12.648 8.664-20 11-3.078 3.526-6.744 6.026-11 7.5a576.628 576.628 0 0 0-1-48 782.38 782.38 0 0 0-46-27 890.365 890.365 0 0 1 13-9.5c2.243.319 4.41.152 6.5-.5 4.064 4.134 8.897 6.967 14.5 8.5l35 21c5.457 4.21 11.457 7.544 18 10 17.762 10.54 35.429 21.04 53 31.5Z"/><path style="opacity:1" fill="#dfbd91" d="M582.5 122.5a1357.19 1357.19 0 0 0-43 24 600.937 600.937 0 0 0-1 49 8.43 8.43 0 0 1-4-.5 928.605 928.605 0 0 0-68-39 77.598 77.598 0 0 0-23-13c-3.796-3.592-8.129-6.259-13-8a269.344 269.344 0 0 0-18-11.5c10.821-.995 21.821-1.328 33-1a2405.874 2405.874 0 0 1 43 24.5c4.333.667 8.667.667 13 0a3162.857 3162.857 0 0 1 66-36.5 202.24 202.24 0 0 1 16 10.5c-.556.383-.889.883-1 1.5Z"/><path style="opacity:1" fill="#dfbc8f" d="M746.5 122.5h46v171h-30a6242.489 6242.489 0 0 0-1-158c-.567-5.4-3.567-8.234-9-8.5-2.514-.881-4.514-2.381-6-4.5Z"/><path style="opacity:1" fill="#a26137" d="M244.5 153.5c.283.789.783 1.456 1.5 2 .5 12.996.667 25.996.5 39a1660.093 1660.093 0 0 0-33.5 19 403.794 403.794 0 0 1-33-19 267.196 267.196 0 0 1 .5-40 376.995 376.995 0 0 1 32-18c10.684 5.675 21.35 11.341 32 17ZM585.5 135.5a813.582 813.582 0 0 1 33 19 267.196 267.196 0 0 1 .5 40c-11.01 6.35-22.01 12.683-33 19-10.984-6.326-21.984-12.66-33-19-.667-13-.667-26 0-39a1493.912 1493.912 0 0 0 32.5-20Z"/><path style="opacity:1" fill="#93846e" d="M163.5 148.5c.06-.543.393-.876 1-1 1 17.654 1.333 35.321 1 53v2l-2-54Z"/><path style="opacity:1" fill="#f9fafc" d="M206.5 198.5v-17h-17v-13h16v-17h14v17h17v14h-17v17c-4.532.318-8.866-.015-13-1ZM609.5 168.5v13h-17v17c-4.134.985-8.468 1.318-13 1v-17h-17v-14h17v-17h14v17h16Z"/><path style="opacity:1" fill="#142637" d="M542.5 236.5a421.042 421.042 0 0 0 1 41c.607-.124.94-.457 1-1a423.582 423.582 0 0 1 34-19c1.888-2.488 2.555-5.488 2-9h12a32.462 32.462 0 0 0 .5 8c.671.752 1.504 1.086 2.5 1a1797.357 1797.357 0 0 0 70 41 144.841 144.841 0 0 1 1 24v70a4.934 4.934 0 0 0-3 .5 1790.344 1790.344 0 0 1-77.5 44.5 1016.322 1016.322 0 0 1-45.5-26c-2.383-1.689-5.049-2.522-8-2.5a188.131 188.131 0 0 0-22 14 12.64 12.64 0 0 0 4 2.5 2087.542 2087.542 0 0 0 53 31c2.108 1.559 4.441 2.892 7 4a91.123 91.123 0 0 1 1 19h-13a31.116 31.116 0 0 0-1-11 3050.94 3050.94 0 0 1-64-37.5c-1-.667-2-.667-3 0a6395.592 6395.592 0 0 1-65.5 38.5 1481.76 1481.76 0 0 0 0 77 228.562 228.562 0 0 1 12.5 7c-.198-12.925 4.469-23.592 14-32a1800.7 1800.7 0 0 1 0 55h-1a10662.774 10662.774 0 0 0-31-18 3038.506 3038.506 0 0 1-1.5-77c-2.041-.923-4.208-1.256-6.5-1-.065-3.498-1.399-3.998-4-1.5a113.23 113.23 0 0 1-26-.5c-2.401-2.913-3.734-2.579-4 1h-13a31.116 31.116 0 0 0-1-11 3050.94 3050.94 0 0 1-64-37.5c-2.919-.552-5.586.115-8 2a1817.73 1817.73 0 0 1-60.5 35.5c-.667 26-.667 52 0 78a62.308 62.308 0 0 1 6.5 4c.869 2.217 1.202 4.55 1 7a84.118 84.118 0 0 1-17-1 30.786 30.786 0 0 0-4.5-3 2115.193 2115.193 0 0 1 0-92 3319.618 3319.618 0 0 0 48.5-29 161.471 161.471 0 0 0 13-7c1.987-.664 3.654-1.831 5-3.5a28.926 28.926 0 0 1-5-3.5 529.787 529.787 0 0 1-13-7 18.67 18.67 0 0 0-5-3 1879.955 1879.955 0 0 0-51 30l-12-6a72.111 72.111 0 0 0-17-10 87.45 87.45 0 0 0-11-6 818.38 818.38 0 0 0-40-24 756.817 756.817 0 0 1-1-55v-13a169.926 169.926 0 0 1 1-26c22.73-13.36 45.396-26.693 68-40a20.69 20.69 0 0 1 5-1v-9h13c-.506 3.507.16 6.674 2 9.5a399.484 399.484 0 0 0 33 18.5c.06.543.393.876 1 1a400.778 400.778 0 0 0 1-40 1606.788 1606.788 0 0 1 66-38 174.115 174.115 0 0 1 15-9 93.223 93.223 0 0 1 16-9 40.606 40.606 0 0 1 10-7 58792.284 58792.284 0 0 1 36-20 15412.937 15412.937 0 0 0 143 82Z"/><path style="opacity:1" fill="#2d5c7f" d="M244.5 153.5c.996-.086 1.829.248 2.5 1 .827 13.506.66 26.84-.5 40 .167-13.004 0-26.004-.5-39-.717-.544-1.217-1.211-1.5-2Z"/><path style="opacity:1" fill="#fdfdfd" d="M529.5 245.5a5741.286 5741.286 0 0 1-1 151c-11.973 6.655-23.973 13.321-36 20 2.733-22.749-2.767-43.082-16.5-61-10.817-11.483-23.984-18.65-39.5-21.5-25-.667-50-.667-75 0-26.756 5.592-44.09 21.426-52 47.5-1.63 1.526-2.463 3.526-2.5 6-.17 9.842-.67 19.509-1.5 29a912.385 912.385 0 0 1-35-20 2889.222 2889.222 0 0 1 0-152 12452.099 12452.099 0 0 1 129-74 6228.465 6228.465 0 0 1 130 75Z"/><path style="opacity:1" fill="#29343a" d="M259.5 147.5a576.628 576.628 0 0 1 1 48c4.256-1.474 7.922-3.974 11-7.5 7.352-2.336 14.019-6.003 20-11 1.284-.684 2.451-.517 3.5.5l2.5-2.5a25.238 25.238 0 0 1 10 0 153.69 153.69 0 0 0 19 10c2.933 3.463 6.6 5.297 11 5.5a174.115 174.115 0 0 0-15 9c.111-.617.444-1.117 1-1.5a22.755 22.755 0 0 1-5-4c-5.14-1.446-9.806-3.779-14-7-1.333-.667-2.667-.667-4 0l-20 10-4 4c-7.273 1.918-13.607 5.585-19 11a71.52 71.52 0 0 0-18 10 284.29 284.29 0 0 0-20 10.5 18.453 18.453 0 0 1 .5-6 257.985 257.985 0 0 1 39.5-23c.098-18.607.098-37.274 0-56Z"/><path style="opacity:1" fill="#dab88b" d="M633.5 149.5a4.934 4.934 0 0 1 3 .5 1018.49 1018.49 0 0 1 45.5 26.5l1 51 2 2c.5 28.331.667 56.665.5 85a12.93 12.93 0 0 0-5 .5c-4.017 3.84-8.684 6.34-14 7.5a144.841 144.841 0 0 0-1-24 1797.357 1797.357 0 0 1-70-41c.166-9.339 0-18.673-.5-28-.708-.881-1.542-1.547-2.5-2-.131-.876.202-1.543 1-2a1135.664 1135.664 0 0 1 39-23c1-17.654 1.333-35.321 1-53Z"/><path style="opacity:1" fill="#adc4d3" d="M189.5 168.5v13h17v17c-.988-5.14-1.321-10.474-1-16h-17c-.319-4.863.014-9.53 1-14ZM609.5 168.5c.986 4.47 1.319 9.137 1 14h-17c.321 5.526-.012 10.86-1 16v-17h17v-13Z"/><path style="opacity:1" fill="#fbfbfb" d="M322.5 199.5a1606.788 1606.788 0 0 0-66 38l-2 39a399.484 399.484 0 0 1-33-18.5c-1.84-2.826-2.506-5.993-2-9.5h-6v-13h6v-3a284.29 284.29 0 0 1 20-10.5 71.52 71.52 0 0 1 18-10c5.393-5.415 11.727-9.082 19-11l4-4 20-10c1.333-.667 2.667-.667 4 0 4.194 3.221 8.86 5.554 14 7a22.755 22.755 0 0 0 5 4c-.556.383-.889.883-1 1.5Z"/><path style="opacity:1" fill="#dbb98c" d="m163.5 148.5 2 54a1069.4 1069.4 0 0 1 38 21.5c1.563.759 2.563 1.926 3 3.5a25.14 25.14 0 0 0-4.5 4c-.5 8.994-.666 17.994-.5 27-22.604 13.307-45.27 26.64-68 40a169.926 169.926 0 0 0-1 26c-1.689-1.431-3.689-2.264-6-2.5-4.032-3.676-8.699-6.176-14-7.5-.167-45.335 0-90.668.5-136 6.664-3.313 12.831-7.48 18.5-12.5 6.799-1.87 12.799-5.203 18-10a76.987 76.987 0 0 0 14-7.5Z"/><path style="opacity:1" fill="#152738" d="M390.5 217.5c29.652-2.145 48.819 10.855 57.5 39 3.113 23.505-5.387 41.339-25.5 53.5-22.813 9.904-42.98 6.07-60.5-11.5-14.921-20.811-15.254-41.811-1-63 7.956-9.221 17.789-15.221 29.5-18Z"/><path style="opacity:1" fill="#27333a" d="M592.5 227.5c.958.453 1.792 1.119 2.5 2 .5 9.327.666 18.661.5 28-.996.086-1.829-.248-2.5-1a32.462 32.462 0 0 1-.5-8h-12c.555 3.512-.112 6.512-2 9 .914-3.228 1.247-6.561 1-10h4v-12h9v-8Z"/><path style="opacity:1" fill="#253138" d="M206.5 227.5v7c4.653.501 8.986-.166 13-2v3h-6v13h-7v9a20.69 20.69 0 0 0-5 1c-.166-9.006 0-18.006.5-27a25.14 25.14 0 0 1 4.5-4Z"/><path style="opacity:1" fill="#fbfcfc" d="M393.5 230.5c24.848-.477 38.848 11.523 42 36-3.795 25.915-18.795 37.415-45 34.5-14.34-4.341-23.174-13.841-26.5-28.5-1.783-13.988 2.717-25.488 13.5-34.5 5.042-3.357 10.376-5.857 16-7.5Z"/><path style="opacity:1" fill="#848d96" d="M256.5 237.5a400.778 400.778 0 0 1-1 40c-.607-.124-.94-.457-1-1l2-39Z"/><path style="opacity:1" fill="#858e97" d="m542.5 236.5 2 40c-.06.543-.393.876-1 1a421.042 421.042 0 0 1-1-41Z"/><path style="opacity:1" fill="#42505f" d="M529.5 245.5c.667 24.998 1 50.164 1 75.5 0 25.509-.667 50.676-2 75.5a5741.286 5741.286 0 0 0 1-151Z"/><path style="opacity:1" fill="#f9f9fa" d="M255.5 293.5c.331 22.506-.003 44.84-1 67-5.613-6.14-12.613-9.64-21-10.5a302.412 302.412 0 0 0-48 1c-17.879 7.588-26.212 21.088-25 40.5a68.693 68.693 0 0 1-14-7 1014.399 1014.399 0 0 1-.5-78 1967.103 1967.103 0 0 1 67-38 2573.536 2573.536 0 0 1 42.5 25Z"/><path style="opacity:1" fill="#f9fafa" d="M544.5 360.5a1123.002 1123.002 0 0 1-1-67 1684.238 1684.238 0 0 1 39-23.5c1.544-1.187 3.211-1.52 5-1a3944.35 3944.35 0 0 1 65 37.5c1.333 26 1.333 52 0 78a228.562 228.562 0 0 1-12.5 7c-.19-19.227-9.024-32.727-26.5-40.5a344.478 344.478 0 0 0-51-1c-7.149 1.734-13.149 5.234-18 10.5Z"/><path style="opacity:1" fill="#162739" d="M206.5 286.5c23.998-.452 35.832 11.214 35.5 35-5.986 18.976-18.819 26.81-38.5 23.5-18.791-9.422-24.291-23.922-16.5-43.5 4.688-7.541 11.188-12.541 19.5-15Z"/><path style="opacity:1" fill="#152638" d="M557.5 321.5a96.873 96.873 0 0 1 1-16c10.138-19.037 24.804-23.537 44-13.5 14.027 10.988 16.861 24.488 8.5 40.5-10.06 13.06-22.893 16.56-38.5 10.5-8.289-4.802-13.289-11.968-15-21.5Z"/><path style="opacity:1" fill="#858e97" d="M255.5 293.5c1.329 22.504 1.329 45.17 0 68-.607-.124-.94-.457-1-1 .997-22.16 1.331-44.494 1-67Z"/><path style="opacity:1" fill="#848d96" d="M543.5 293.5c-.331 22.506.003 44.84 1 67-.06.543-.393.876-1 1-1.329-22.83-1.329-45.496 0-68Z"/><path style="opacity:1" fill="#f9f9fa" d="M207.5 300.5c15.59-1.246 22.423 5.754 20.5 21-5.442 10.789-13.608 13.622-24.5 8.5-10.284-11.512-8.95-21.346 4-29.5Z"/><path style="opacity:1" fill="#f8f9f9" d="M570.5 319.5c.116-3.36.449-6.693 1-10 4.337-7.995 11.003-10.829 20-8.5 11.186 5.896 13.686 14.396 7.5 25.5-9.035 8.299-17.702 7.965-26-1a23.423 23.423 0 0 1-2.5-6Z"/><path style="opacity:1" fill="#707b85" d="M558.5 305.5a96.873 96.873 0 0 0-1 16c-.663-1.973-.996-4.139-1-6.5-.172-3.477.494-6.644 2-9.5Z"/><path style="opacity:1" fill="#7b858f" d="M571.5 309.5a76.926 76.926 0 0 0-1 10c-.656-1.122-.989-2.455-1-4-.139-2.383.528-4.383 2-6Z"/><path style="opacity:1" fill="#d2b084" d="M761.5 135.5a6242.489 6242.489 0 0 1 1 158h30v70c-11.512.328-22.846-.005-34-1 .958-.453 1.792-1.119 2.5-2 .5-74.999.667-149.999.5-225Z"/><path style="opacity:1" fill="#9ea5ac" d="M423.5 347.5c0 .667-.333 1-1 1a265.066 265.066 0 0 0-46 0c-.667 0-1-.333-1-1 16-1.333 32-1.333 48 0Z"/><path style="opacity:1" fill="#a26136" d="M375.5 347.5c0 .667.333 1 1 1a655.794 655.794 0 0 0 22.5 43 670.035 670.035 0 0 0 23.5-43c.667 0 1-.333 1-1 24.628-.522 41.795 10.478 51.5 33a53.077 53.077 0 0 1 3 14 160.723 160.723 0 0 1-.5 31 321.35 321.35 0 0 0-21 12v-23h-14a265.208 265.208 0 0 1-1 32 60396.556 60396.556 0 0 1-42 23 60396.556 60396.556 0 0 1-42-23 265.208 265.208 0 0 1-1-32h-14v23a321.35 321.35 0 0 0-21-12 160.723 160.723 0 0 1-.5-31c2.937-22.6 15.103-37.767 36.5-45.5a73.575 73.575 0 0 1 18-1.5Z"/><path style="opacity:1" fill="#f9fbfc" d="M422.5 348.5a670.035 670.035 0 0 1-23.5 43 655.794 655.794 0 0 1-22.5-43 265.066 265.066 0 0 1 46 0Z"/><path style="opacity:1" fill="#fcfaf5" d="M195.5 362.5c11.512-.328 22.846.005 34 1a124.818 124.818 0 0 1-16.5 16 140.547 140.547 0 0 1-17.5-17Z"/><path style="opacity:1" fill="#fbca35" d="M195.5 362.5a140.547 140.547 0 0 0 17.5 17 124.818 124.818 0 0 0 16.5-16c10.734 1.046 18.067 6.713 22 17a50.512 50.512 0 0 1 0 20c-4.168 2.826-5.835 1.492-5-4h-14a112.97 112.97 0 0 1-.5 15c-4.147 1.982-7.98 4.316-11.5 7-1.97-8.269-2.636-16.935-2-26-3.871-.315-7.538.018-11 1a169.926 169.926 0 0 1-1 26 129.073 129.073 0 0 0-13-8 57.15 57.15 0 0 1-1-15h-13v6c-1.984.117-3.65-.55-5-2-3.816-13.193-.816-24.359 9-33.5 3.653-2.385 7.653-3.885 12-4.5Z"/><path style="opacity:1" fill="#faca35" d="M569.5 362.5c4.616 6.451 10.116 12.118 16.5 17 6.384-4.882 11.884-10.549 16.5-17 20.119 4.884 27.453 17.551 22 38-4.168 2.826-5.835 1.492-5-4h-13a57.15 57.15 0 0 1-1 15 129.073 129.073 0 0 0-13 8 169.926 169.926 0 0 1-1-26c-3.462-.982-7.129-1.315-11-1 .326 8.849-.007 17.516-1 26a46.273 46.273 0 0 1-12.5-7 112.97 112.97 0 0 1-.5-15h-14c.835 5.492-.832 6.826-5 4-4.218-16.22.782-28.387 15-36.5a17.758 17.758 0 0 1 7-1.5Z"/><path style="opacity:1" fill="#fcfaf5" d="M569.5 362.5h33c-4.616 6.451-10.116 12.118-16.5 17-6.384-4.882-11.884-10.549-16.5-17Z"/><path style="opacity:1" fill="#847535" d="M207.5 393.5c3.462-.982 7.129-1.315 11-1-.636 9.065.03 17.731 2 26-.709.904-1.709 1.237-3 1v-26h-10Z"/><path style="opacity:1" fill="#867635" d="M591.5 393.5h-10a169.926 169.926 0 0 1-1 26c-.607-.124-.94-.457-1-1 .993-8.484 1.326-17.151 1-26 3.871-.315 7.538.018 11 1Z"/><path style="opacity:1" fill="#959da5" d="M309.5 381.5a453.615 453.615 0 0 0-3 36c-.607-.124-.94-.457-1-1 .83-9.491 1.33-19.158 1.5-29 .037-2.474.87-4.474 2.5-6Z"/><path style="opacity:1" fill="#cfac7f" d="M6.5 293.5h30c-.167 20.669 0 41.336.5 62 .093 2.507.926 4.674 2.5 6.5l8 4c1.374 3.683 4.04 5.349 8 5a13376.247 13376.247 0 0 0 116 67c4.091 1.227 7.591.394 10.5-2.5.269-4.534 1.102-8.867 2.5-13a72.111 72.111 0 0 1 17 10v71c-.986 4.47-1.319 9.137-1 14h-14c.167-17.67 0-35.336-.5-53a1204.023 1204.023 0 0 0-28.5-16.5c-6.204-2.789-12.537-4.622-19-5.5v-3h-6v-3h-3v-3h-6v-3h-5v-3c-2.921.354-5.254-.646-7-3-1.714 1.109-2.381.442-2-2a58.97 58.97 0 0 1-11-3v-3a27.267 27.267 0 0 0-9-3v-3c-2.908.238-5.242-.762-7-3a3.647 3.647 0 0 0-1.5 1c-1.667-1-3-2.333-4-4l-1 1a4.932 4.932 0 0 1-.5-3h-6v-3h-5v-3a544.412 544.412 0 0 1-29-14v-3a58.967 58.967 0 0 1-11-3v-3h-6v-3c-4.013-1.674-8.013-3.341-12-5v-72Z"/><path style="opacity:1" fill="#cdaa7d" d="M758.5 362.5c11.154.995 22.488 1.328 34 1a996.939 996.939 0 0 0-6 4.5c-1.399.595-2.732.428-4-.5-.886.825-1.219 1.825-1 3-1.701.466-3.201.466-4.5 0-3.844 1.975-7.177 4.642-10 8l-1-1c-1.049 1.607-2.549 2.273-4.5 2v3c-3.937.204-7.604 1.204-11 3 .381 2.442-.286 3.109-2 2-.886.825-1.219 1.825-1 3h-6v3a12.93 12.93 0 0 0-5 .5c-1.079 2.043-2.746 3.376-5 4l1 1a12.93 12.93 0 0 1-5 .5v3a9.86 9.86 0 0 0-6 1c-3.423 1.192-6.256 3.192-8.5 6l-1-1c-1.049 1.607-2.549 2.273-4.5 2v3h-6v3h-5v3c-2.185.388-4.018 1.388-5.5 3-2.278-1.12-3.778-.287-4.5 2.5a101.955 101.955 0 0 0-13 5.5v3h-6v3h-6v3c-1.788-.285-3.455.048-5 1 1.129 2.029.629 2.363-1.5 1-1.712 3.452-4.212 4.452-7.5 3v3c-3.096-.593-5.429.407-7 3a47.25 47.25 0 0 1-7 3v3h-6v3c-1.788-.285-3.455.048-5 1a28.335 28.335 0 0 0-9.5 6l-1-1c-1.049 1.607-2.549 2.273-4.5 2-.167 12.338 0 24.671.5 37 .414.457.914.791 1.5 1a36.875 36.875 0 0 1 1 12h-14c.324-6.854-.009-13.521-1-20a60.931 60.931 0 0 0-.5-11c-2.148-1.305-3.648-3.138-4.5-5.5-4.536-1.379-9.203-1.879-14-1.5a98.432 98.432 0 0 1 .5-14 332.976 332.976 0 0 0 27.5-16.5 24.569 24.569 0 0 0 8-3 271.702 271.702 0 0 1 33-19 1884.13 1884.13 0 0 1 86-50c8.452-5.975 17.452-10.808 27-14.5Z"/><path style="opacity:1" fill="#fbfbfb" d="M269.5 411.5v21a3319.618 3319.618 0 0 1-48.5 29 2115.193 2115.193 0 0 0 0 92 30.786 30.786 0 0 1 4.5 3c-3.798.983-7.798 1.317-12 1v-119a1879.955 1879.955 0 0 1 51-30 18.67 18.67 0 0 1 5 3Z"/><path style="opacity:1" fill="#28343b" d="M540.5 411.5a42.42 42.42 0 0 0-11 3.5 200.512 200.512 0 0 1-15 10.5 12.64 12.64 0 0 1-4-2.5 188.131 188.131 0 0 1 22-14c2.951-.022 5.617.811 8 2.5Z"/><path style="opacity:1" fill="#253138" d="M269.5 411.5a529.787 529.787 0 0 0 13 7c-1.333 2.333-1.333 4.667 0 7a161.471 161.471 0 0 1-13 7v-21Z"/><path style="opacity:1" fill="#27506e" d="M357.5 446.5c-1.975-9.946-2.642-20.279-2-31h-12c.325 7.519-.008 14.852-1 22v-23h14a265.208 265.208 0 0 0 1 32Z"/><path style="opacity:1" fill="#274f6d" d="M456.5 437.5c-.992-7.148-1.325-14.481-1-22h-12c.642 10.721-.025 21.054-2 31a265.208 265.208 0 0 0 1-32h14v23Z"/><path style="opacity:1" fill="#c3a379" d="M282.5 418.5a28.926 28.926 0 0 0 5 3.5c-1.346 1.669-3.013 2.836-5 3.5-1.333-2.333-1.333-4.667 0-7Z"/><path style="opacity:1" fill="#f9fafa" d="M368.5 479.5c-6.675-.166-13.342 0-20 .5l-1.5 1.5c-.5 14.663-.667 29.33-.5 44-6.792-7.278-15.125-11.778-25-13.5a462.27 462.27 0 0 0-43 0c-1.525 1.009-3.192 1.509-5 1.5a10.134 10.134 0 0 0-4 1.5l-25 1-1.5 1.5a538.89 538.89 0 0 1-1.5 33 62.308 62.308 0 0 0-6.5-4c-.667-26-.667-52 0-78a1817.73 1817.73 0 0 0 60.5-35.5c2.414-1.885 5.081-2.552 8-2a3050.94 3050.94 0 0 0 64 37.5 31.116 31.116 0 0 1 1 11Z"/><path style="opacity:1" fill="#fafafb" d="M562.5 479.5h-38c-.343-16.526-8.677-26.693-25-30.5-14.328-1.159-24.662 4.674-31 17.5-1.737 4.042-2.737 8.376-3 13-3.185-.48-6.019.186-8.5 2a840.954 840.954 0 0 1-1.5 40c-9.531 8.408-14.198 19.075-14 32a228.562 228.562 0 0 0-12.5-7 1481.76 1481.76 0 0 1 0-77 6395.592 6395.592 0 0 0 65.5-38.5c1-.667 2-.667 3 0a3050.94 3050.94 0 0 0 64 37.5 31.116 31.116 0 0 1 1 11Z"/><path style="opacity:.998" fill="#273339" d="M746.5 122.5c1.486 2.119 3.486 3.619 6 4.5 5.433.266 8.433 3.1 9 8.5.167 75.001 0 150.001-.5 225-.708.881-1.542 1.547-2.5 2-9.548 3.692-18.548 8.525-27 14.5a1884.13 1884.13 0 0 0-86 50 271.702 271.702 0 0 0-33 19 24.569 24.569 0 0 1-8 3 332.976 332.976 0 0 1-27.5 16.5 98.432 98.432 0 0 0-.5 14c4.797-.379 9.464.121 14 1.5.852 2.362 2.352 4.195 4.5 5.5.499 3.652.665 7.318.5 11 .167 48.334 0 96.668-.5 145-1.887 1.526-2.887 3.526-3 6-.827 13.84-.661 27.506.5 41 .166 6.342 0 12.675-.5 19a11.333 11.333 0 0 1-1.5 3.5 268.963 268.963 0 0 1-39 1.5 750.264 750.264 0 0 0-67-.5 23965 23965 0 0 1-76 44c-5.586 2.457-11.253 2.79-17 1a114.302 114.302 0 0 0-13-6l-4-4a7040.07 7040.07 0 0 1-28-16c-3.959.349-6.626-1.317-8-5-8.36-3.016-16.027-7.349-23-13a169.242 169.242 0 0 0-22-11c-11.4-8.753-23.733-15.753-37-21a114.425 114.425 0 0 0-30-18 55.63 55.63 0 0 0-18-10 18.839 18.839 0 0 0-6.5-5.5c-.5-8.66-.666-17.327-.5-26a145.053 145.053 0 0 0-.5-17 7.293 7.293 0 0 1-2-3c-.667-14-.667-28 0-42a4.457 4.457 0 0 1 1.5-2c1-18.321 1.333-36.655 1-55v-71l12 6v119c4.202.317 8.202-.017 12-1a84.118 84.118 0 0 0 17 1c.202-2.45-.131-4.783-1-7a538.89 538.89 0 0 0 1.5-33l1.5-1.5 25-1a10.134 10.134 0 0 1 4-1.5c-.111.617-.444 1.117-1 1.5l16 1c1.778 2.135 2.445 4.635 2 7.5 9.848-.327 19.514.006 29 1h-29v33h33c3.679.224 7.346.558 11 1-.475 2.582.192 4.582 2 6-.709.904-1.709 1.237-3 1-1.403 1.36-1.403 6.693 0 16a266.974 266.974 0 0 0-1.5 22l-1.5 1.5c-13.329.5-26.663.667-40 .5v5a73.86 73.86 0 0 0 9 3.5l27 17a90.42 90.42 0 0 0 14 6 523.182 523.182 0 0 0 22 15 73.86 73.86 0 0 1 9 3.5c1.333-32 1.333-64 0-96a265.208 265.208 0 0 0 1-32h-4c-6.675.166-13.342 0-20-.5-.544-.717-1.211-1.217-2-1.5-.167-14.67 0-29.337.5-44l1.5-1.5c6.658-.5 13.325-.666 20-.5h13c.266-3.579 1.599-3.913 4-1a113.23 113.23 0 0 0 26 .5c2.601-2.498 3.935-1.998 4 1.5 2.292-.256 4.459.077 6.5 1 .176 25.739.676 51.406 1.5 77a2450.637 2450.637 0 0 0-1 99c7.684-2.861 14.684-7.028 21-12.5 4.829-1.244 8.829-3.744 12-7.5a468.545 468.545 0 0 0 0-61 1800.7 1800.7 0 0 0 0-55 840.954 840.954 0 0 0 1.5-40c2.481-1.814 5.315-2.48 8.5-2 .263-4.624 1.263-8.958 3-13a77.1 77.1 0 0 0-1 13c4.327.484 8.327-.182 12-2 10.281 1.976 20.948 2.643 32 2v-3c.904.709 1.237 1.709 1 3h63a91.123 91.123 0 0 0-1-19c-2.559-1.108-4.892-2.441-7-4a3985.49 3985.49 0 0 0 74-40.5 3660.5 3660.5 0 0 1 91-54 84.545 84.545 0 0 1 18-8.5 7901.316 7901.316 0 0 0-1.5-216 2129.254 2129.254 0 0 1-37.5-21.5c-3.415-.406-6.082-2.072-8-5a91.311 91.311 0 0 1-23-13 457.332 457.332 0 0 0-22-11l-4-4a483.026 483.026 0 0 1-51-29c-3.415-.406-6.082-2.072-8-5a90.401 90.401 0 0 0-14-6c-2.799-3.182-6.132-5.516-10-7a32.412 32.412 0 0 1-6-1.5 140.866 140.866 0 0 0-24 13.5c-5.048 1.356-9.381 4.023-13 8-3.993.322-7.326 1.988-10 5a1301.662 1301.662 0 0 0-78 45 7185.005 7185.005 0 0 1 26 16 114.065 114.065 0 0 0 14 6c4.2 3.6 8.867 6.433 14 8.5a684.54 684.54 0 0 1 19-8.5 43.593 43.593 0 0 1 13-8c2.365-3.714 5.698-5.714 10-6a68.695 68.695 0 0 1 14-7c6.365-5.424 13.698-7.757 22-7a171.322 171.322 0 0 1 19 12c5.662.917 10.329 3.583 14 8a182.852 182.852 0 0 1 35 20 193.115 193.115 0 0 1 32 19c3.96 1.643 7.96 3.31 12 5 4.474 1.808 7.641 4.974 9.5 9.5.667 48.667.667 97.333 0 146-5.181 6.173-11.681 10.34-19.5 12.5a53.553 53.553 0 0 1-8 5.5v-15c5.316-1.16 9.983-3.66 14-7.5a12.93 12.93 0 0 1 5-.5c.167-28.335 0-56.669-.5-85l-2-2-1-51a1018.49 1018.49 0 0 0-45.5-26.5 4.934 4.934 0 0 0-3-.5c.219-1.175-.114-2.175-1-3a1480.034 1480.034 0 0 1-44-25.5c-2.216-.393-4.216.107-6 1.5.111-.617.444-1.117 1-1.5a202.24 202.24 0 0 0-16-10.5 3162.857 3162.857 0 0 0-66 36.5 42.479 42.479 0 0 1-13 0 2405.874 2405.874 0 0 0-43-24.5 115.401 115.401 0 0 1-15-9.5c-6.921-5.743-6.588-11.076 1-16a12271.425 12271.425 0 0 0 129-74c9.584-1.031 17.918 1.636 25 8 4.302.286 7.635 2.286 10 6a30.312 30.312 0 0 1 12 7l19 9c4.933 4.604 10.6 7.938 17 10a161.879 161.879 0 0 0 33 19c1.918 2.928 4.585 4.594 8 5a2752.793 2752.793 0 0 0 62 35.5Z"/><path style="opacity:1" fill="#152638" d="M292.5 449.5c17.733-2.886 30.233 3.78 37.5 20 2.146 27.188-10.354 39.688-37.5 37.5-17.919-8.078-24.086-21.578-18.5-40.5 3.833-8.338 10-14.005 18.5-17ZM524.5 479.5h-12c.237-1.291-.096-2.291-1-3-1.874-8.537-7.207-13.203-16-14-9.236.904-14.569 5.904-16 15-3.673 1.818-7.673 2.484-12 2a77.1 77.1 0 0 1 1-13c6.338-12.826 16.672-18.659 31-17.5 16.323 3.807 24.657 13.974 25 30.5Z"/><path style="opacity:1" fill="#f8f9f9" d="M295.5 462.5c14.883-1.277 22.049 5.389 21.5 20-4.114 9.474-11.28 13.308-21.5 11.5-10.645-6.641-12.812-15.474-6.5-26.5a63.382 63.382 0 0 0 6.5-5Z"/><path style="opacity:1" fill="#fafafa" d="M511.5 476.5v3c-11.052.643-21.719-.024-32-2 1.431-9.096 6.764-14.096 16-15 8.793.797 14.126 5.463 16 14Z"/><path style="opacity:1" fill="#afae9a" d="M414.5 488.5h-60v31c-.994-10.487-1.328-21.154-1-32a931.31 931.31 0 0 1 61 1Z"/><path style="opacity:1" fill="#575f5b" d="M464.5 487.5v217h119v-217c.999 72.498 1.333 145.165 1 218h-121c-.333-72.835.001-145.502 1-218Z"/><path style="opacity:1" fill="#ede5c6" d="M414.5 488.5c-.167 60.668 0 121.334.5 182 .759 1.563 1.926 2.563 3.5 3 7.148.992 14.481 1.325 22 1v31h-87v-32c8.007.166 16.007 0 24-.5l1.5-1.5c.667-50 .667-100 0-150l-1.5-1.5c-7.659-.5-15.326-.666-23-.5v-31h60ZM464.5 487.5h119v217h-119v-217Z"/><path style="opacity:1" fill="#152537" d="M346.5 525.5c5.016 8.714 8.016 18.047 9 28l12-7a91.123 91.123 0 0 0 1-19h4a265.208 265.208 0 0 1-1 32c-.667 0-1 .333-1 1a1004.86 1004.86 0 0 0-37 21c-1.403-9.307-1.403-14.64 0-16 1.291.237 2.291-.096 3-1a18.473 18.473 0 0 0 3.5-2c3.248-13.133.082-24.3-9.5-33.5a25.93 25.93 0 0 0-9-3.5l-2-1c-9.486-.994-19.152-1.327-29-1 .445-2.865-.222-5.365-2-7.5l-16-1c.556-.383.889-.883 1-1.5 1.808.009 3.475-.491 5-1.5a462.27 462.27 0 0 1 43 0c9.875 1.722 18.208 6.222 25 13.5Z"/><path style="opacity:1" fill="#283439" d="M502.5 519.5c14.67-.167 29.337 0 44 .5l1.5 1.5c.83 50.237.664 100.404-.5 150.5a552.224 552.224 0 0 1-47 0 9.454 9.454 0 0 1-1.5-2.5c-.833-49.337-.667-98.67.5-148 1.239-.442 2.239-1.109 3-2Z"/><path style="opacity:1" fill="#ede5c6" d="M324.5 565.5v32a400.456 400.456 0 0 0-40 1l-1.5 3a799.793 799.793 0 0 0-.5 40h-32a304.505 304.505 0 0 0-1.5-42l-1.5-1.5a840.27 840.27 0 0 0-41-.5v-32c14.004.167 28.004 0 42-.5l1.5-1.5c.5-13.663.667-27.329.5-41h32a840.27 840.27 0 0 0 .5 41l1.5 1.5c13.329.5 26.663.667 40 .5Z"/><path style="opacity:1" fill="#faf8f5" d="m319.5 524.5 2 1c-8.137 10.287-18.47 13.287-31 9v-10h29Z"/><path style="opacity:1" fill="#fbcb36" d="M321.5 525.5a25.93 25.93 0 0 1 9 3.5c9.582 9.2 12.748 20.367 9.5 33.5a18.473 18.473 0 0 1-3.5 2c-1.808-1.418-2.475-3.418-2-6a185.422 185.422 0 0 0-11-1v-14h-33v-9c12.53 4.287 22.863 1.287 31-9Z"/><path style="opacity:1" fill="#f7f7f8" d="M346.5 525.5c.789.283 1.456.783 2 1.5 6.658.5 13.325.666 20 .5a91.123 91.123 0 0 1-1 19l-12 7c-.984-9.953-3.984-19.286-9-28Z"/><path style="opacity:1" fill="#f0e6ce" d="M510.5 527.5c-1 1.667-2.333 3-4 4v-4h4Z"/><path style="opacity:1" fill="#f8c835" d="M510.5 527.5a46.809 46.809 0 0 1 13 1c4.887 3.211 8.221 7.544 10 13a145.035 145.035 0 0 1 1 21 44.433 44.433 0 0 0-5.5 3 24.935 24.935 0 0 1-.5-7h-13a112.97 112.97 0 0 1-.5 15c-2.824 1.318-5.324 2.985-7.5 5a552.805 552.805 0 0 1-1-47c1.667-1 3-2.333 4-4Z"/><path style="opacity:1" fill="#142536" d="M523.5 528.5c5.81-.99 11.81-1.323 18-1a565.17 565.17 0 0 1-1 47 126.166 126.166 0 0 0-13 8 39.642 39.642 0 0 1-10 5 87.45 87.45 0 0 1-11 6 61.281 61.281 0 0 1 1-15c2.176-2.015 4.676-3.682 7.5-5 .499-4.989.666-9.989.5-15h13c-.163 2.357.003 4.69.5 7a44.433 44.433 0 0 1 5.5-3c.665-2.814.998-5.814 1-9 .222-4.297-.445-8.297-2-12-1.779-5.456-5.113-9.789-10-13Z"/><path style="opacity:1" fill="#c3a072" d="M201.5 503.5c.333 18.345 0 36.679-1 55a4.457 4.457 0 0 0-1.5 2c-.667 14-.667 28 0 42a7.293 7.293 0 0 0 2 3c.499 5.657.666 11.324.5 17-.992 7.816-1.326 15.816-1 24h-14v-129h14c-.319-4.863.014-9.53 1-14Z"/><path style="opacity:1" fill="#fffcf3" d="M290.5 543.5h33v14h-33v-14Z"/><path style="opacity:1" fill="#8b7a35" d="M533.5 541.5c1.555 3.703 2.222 7.703 2 12-.002 3.186-.335 6.186-1 9a145.035 145.035 0 0 0-1-21Z"/><path style="opacity:1" fill="#c09d70" d="M423.5 558.5a10662.774 10662.774 0 0 1 31 18 963.24 963.24 0 0 1 1 61c-3.171 3.756-7.171 6.256-12 7.5-6.316 5.472-13.316 9.639-21 12.5-.332-33.171.002-66.171 1-99Z"/><path style="opacity:1" fill="#716554" d="M370.5 560.5c0-.667.333-1 1-1 1.333 32 1.333 64 0 96 .332-31.838-.002-63.504-1-95Z"/><path style="opacity:1" fill="#59605d" d="M324.5 565.5c.995 10.821 1.328 21.821 1 33h-41a400.456 400.456 0 0 1 40-1v-32Z"/><path style="opacity:1" fill="#909799" d="M540.5 574.5a2071.736 2071.736 0 0 1 1 91c-11.845.328-23.512-.005-35-1h34v-90Z"/><path style="opacity:1" fill="#fcfcfc" d="M540.5 574.5v90h-34v-42c7.456-2.78 14.289-6.78 20.5-12 .5-9.327.666-18.661.5-28 4.13-2.903 8.463-5.57 13-8Z"/><path style="opacity:1" fill="#998262" d="M454.5 576.5h1a468.545 468.545 0 0 1 0 61 963.24 963.24 0 0 0-1-61Z"/><path style="opacity:1" fill="#bf9c70" d="M370.5 560.5a2256.409 2256.409 0 0 1 1 95 73.86 73.86 0 0 0-9-3.5 523.182 523.182 0 0 1-22-15 90.42 90.42 0 0 1-14-6l-27-17a73.86 73.86 0 0 1-9-3.5v-5c13.337.167 26.671 0 40-.5l1.5-1.5c.201-7.412.701-14.746 1.5-22a1004.86 1004.86 0 0 1 37-21Z"/><path style="opacity:1" fill="#b9996e" d="M517.5 587.5c1.315 5.18 1.315 10.514 0 16-4.081.983-7.581 2.983-10.5 6a128.507 128.507 0 0 1-.5-16 87.45 87.45 0 0 0 11-6Z"/><path style="opacity:1" fill="#fbfbfb" d="M213.5 605.5h29a840.27 840.27 0 0 0 .5 41l1.5 1.5c14.667.667 29.333.667 44 0l1.5-1.5 1-24a42.319 42.319 0 0 1 8.5 6.5 420.445 420.445 0 0 0 32 17c2.365 3.714 5.698 5.714 10 6a387.056 387.056 0 0 0 23 13l-16 1-1.5 1.5a484.008 484.008 0 0 0 0 44l1.5 1.5c32.667.667 65.333.667 98 0a6.978 6.978 0 0 0 2.5-3.5 420.29 420.29 0 0 0 0-41 6.978 6.978 0 0 0-3.5-2.5l-12-1a736.57 736.57 0 0 0 22.5-12.5l1 58a6.978 6.978 0 0 0 3.5 2.5 2601.643 2601.643 0 0 0-62 35.5 97.288 97.288 0 0 0-12-5.5c-3.543-1.608-6.543-3.942-9-7-5.662-.917-10.329-3.583-14-8a78.488 78.488 0 0 1-23-13c-3.415-.406-6.082-2.072-8-5-8.372-3.019-16.038-7.352-23-13-5.093-1.382-9.426-4.049-13-8-6.4-2.062-12.067-5.396-17-10l-10-4-4-4a77.598 77.598 0 0 1-23-13 90.42 90.42 0 0 1-14-6 45.999 45.999 0 0 0-13-8l-1.5-1.5a684.346 684.346 0 0 1-.5-37Z"/><path style="opacity:1" fill="#c09d70" d="M595.5 497.5c.991 6.479 1.324 13.146 1 20h14c.333 52.338 0 104.671-1 157-1.671 2.01-2.338 4.343-2 7-3.064 1.19-5.731 2.857-8 5h-3v3h-4c-1.161-13.494-1.327-27.16-.5-41 .113-2.474 1.113-4.474 3-6 .5-48.332.667-96.666.5-145Z"/><path style="opacity:1" fill="#bdbaa4" d="M418.5 673.5h23c.328 10.846-.006 21.513-1 32v-31c-7.519.325-14.852-.008-22-1Z"/><path style="opacity:1" fill="#bc996b" d="M599.5 686.5c1.333.667 1.333.667 0 0Z"/><path style="opacity:1" fill="#b99669" d="M201.5 622.5c-.166 8.673 0 17.34.5 26a18.839 18.839 0 0 1 6.5 5.5 55.63 55.63 0 0 1 18 10 114.425 114.425 0 0 1 30 18c13.267 5.247 25.6 12.247 37 21a169.242 169.242 0 0 1 22 11c6.973 5.651 14.64 9.984 23 13 1.374 3.683 4.041 5.349 8 5a7040.07 7040.07 0 0 0 28 16l4 4a114.302 114.302 0 0 1 13 6c5.747 1.79 11.414 1.457 17-1a23965 23965 0 0 0 76-44 750.264 750.264 0 0 1 67 .5 22.296 22.296 0 0 1-5 3.5l1 1a118.288 118.288 0 0 0-17 7.5 10.756 10.756 0 0 0-2.5 3l-1-1c-1.049 1.607-2.549 2.273-4.5 2v3h-6v3h-5v3c-2.524-.071-4.524.929-6 3-2.12-1.372-3.12-.705-3 2a12.93 12.93 0 0 0-5 .5 101.657 101.657 0 0 0-10 7.5 9.108 9.108 0 0 1-5 1v3c-2.51-.446-4.51.22-6 2-2.216.703-4.049 2.036-5.5 4-1.813-1.109-2.646-.442-2.5 2a12.93 12.93 0 0 0-5 .5c-1.497 1.871-3.497 2.871-6 3-1.307 2.324-3.307 3.657-6 4l2 1a12.93 12.93 0 0 1-5 .5v3a9.86 9.86 0 0 0-6 1 35.217 35.217 0 0 1-8 4v3h-6v3h-6v3a8.43 8.43 0 0 0-4 .5l-5 5c-1.284.684-2.451.517-3.5-.5-1.263 2.968-3.263 3.968-6 3a2.428 2.428 0 0 0-.5 2h-12c-.507-1.359-1.507-2.359-3-3a137.913 137.913 0 0 0-11-4v-3c-2.133-1.386-5.133-2.386-9-3v-3h-5v-3c-3.005.247-5.505-.753-7.5-3l-1 1a4.934 4.934 0 0 1-.5-3h-6v-3h-5v-3h-6v-3c-5.922-1.727-11.089-4.727-15.5-9-.718.951-1.551 1.117-2.5.5 1.333-.667 1.333-1.333 0-2a12.93 12.93 0 0 0-5-.5v-3a58.97 58.97 0 0 1-11-3v-3c-8.654-3.265-16.321-6.932-23-11v-3h-6v-3h-5v-3a8.43 8.43 0 0 1-4-.5c-4.85-3.699-10.184-6.199-16-7.5v-3h-6v-3c-2.092-.061-3.592-1.061-4.5-3-1.299.466-2.799.466-4.5 0v-3c-1.788.285-3.455-.048-5-1-2.158-3.144-5.158-4.477-9-4v-3a12.93 12.93 0 0 1-5-.5c-2.625-3.031-6.125-5.864-10.5-8.5-2.537.677-4.537-.323-6-3l-1 1c-1.667-1-3-2.333-4-4-1.049 1.017-2.216 1.184-3.5.5l1-1a15.645 15.645 0 0 1-4-2.5 289.882 289.882 0 0 1-1-34h14c-.326-8.184.008-16.184 1-24Z"/><path style="opacity:1" fill="#b99668" d="M476.5 757.5c1.333.667 1.333.667 0 0Z"/></svg>