<?xml version="1.0" encoding="UTF-8"?><svg xmlns="http://www.w3.org/2000/svg" width="1126" height="1126" style="shape-rendering:geometricPrecision;text-rendering:geometricPrecision;image-rendering:optimizeQuality;fill-rule:evenodd;clip-rule:evenodd"><path style="opacity:.995" d="M297.5-.5h10a13656.092 13656.092 0 0 0 255.5 146A30828.679 30828.679 0 0 0 814.5-.5h7a61977.73 61977.73 0 0 0 295 165c.83 8.648 1.33 17.314 1.5 26 .41 108.672.74 217.338 1 326a19422.747 19422.747 0 0 1-259.5 143l-1 28a602439.51 602439.51 0 0 0 4 240.5l-1 26.5a62722.576 62722.576 0 0 0-297 171h-10c-98.023-56.1-196.189-112.1-294.5-168a45950.898 45950.898 0 0 0-1.5-303A30482.805 30482.805 0 0 1 8 514.5a20692.76 20692.76 0 0 1 .5-352 59816.33 59816.33 0 0 0 289-163Z"/></svg>