<svg xmlns="http://www.w3.org/2000/svg" xmlns:xlink="http://www.w3.org/1999/xlink" width="413" height="420" viewBox="0 0 413 420" fill="none"><g opacity="1" transform="translate(0 0.0011923108754317013)  rotate(0 206.00200000000004 209.71609769221854)"><path id="路径 4" fill-rule="evenodd" style="fill:#FFFFFF" transform="translate(96 87.43219538443708)  rotate(0 110 166)" opacity="1" d="M27,15.3L0.5,30.7L0.2,149.7L0,268.7L38.7,291.1C60.1,303.4 84.7,317.6 93.5,322.7C102.3,327.8 109.6,332 109.7,332C110.1,332 114.5,329.5 162,302C168.3,298.3 183.2,289.8 195,283C206.8,276.2 217.3,270 218.3,269.2C219.9,267.8 220,264.3 220,222.8C220,198.2 219.7,178 219.3,178C218.8,178 210.4,182.7 200.5,188.4L182.5,198.8L182.2,222.8L182,246.8L146.7,267C127.4,278.2 111.1,287.5 110.7,287.7C110.3,288 96.3,280.3 79.7,270.7C63.1,261.1 47.1,251.9 44.3,250.4L39,247.5L39,52.2L52.8,44.2C60.3,39.8 68.6,35.1 71.2,33.6C73.7,32.2 79.5,28.9 83.9,26.2L92,21.3L73.6,10.7C63.5,4.8 54.8,0 54.4,0C53.9,0 41.6,6.9 27,15.3Z " /><path id="路径 7" fill-rule="evenodd" style="fill:#FFFFFF" transform="translate(152.17798704112738 0)  rotate(0 129.91300647943632 153.6698264060168)" opacity="1" d="M109.03,66.23C109.43,66.43 118.83,61.33 129.83,54.93C140.93,48.53 150.63,43.53 151.33,43.83C152.13,44.13 161.83,49.63 173.03,56.03C184.23,62.53 199.63,71.43 207.33,75.83L221.33,83.93L221.63,125.53L221.83,167.13L205.13,176.63C195.83,181.93 186.73,187.13 184.83,188.13C175.73,193.23 139.13,214.43 128.83,220.43C103.53,235.43 54.63,263.43 53.93,263.43C53.53,263.43 44.03,258.13 32.73,251.63C5.13,235.63 1.23,233.43 0.43,233.43C0.13,233.43 -0.07,243.23 0.03,255.13L0.33,276.83L26.33,292.03C40.63,300.43 52.83,307.33 53.33,307.33C53.93,307.43 55.73,306.63 57.33,305.63C59.03,304.63 62.63,302.53 65.33,301.03C69.73,298.53 83.13,290.83 148.33,252.93C157.13,247.83 166.13,242.63 168.33,241.43C170.53,240.23 175.23,237.53 178.83,235.43C182.43,233.33 187.63,230.43 190.33,228.83C193.13,227.33 206.63,219.53 220.33,211.63C252.13,193.13 254.83,191.63 257.63,190.23L259.83,189.13L259.83,125.53L259.73,61.93L228.53,44.03C211.33,34.13 186.83,20.03 173.93,12.63C155.63,2.03 150.23,-0.67 148.93,0.13C148.03,0.63 130.93,10.43 110.83,21.93C90.73,33.33 73.73,43.23 73.13,43.83C72.13,44.73 76.23,47.43 90.03,55.43C100.03,61.23 108.53,66.03 109.03,66.23Z " /><path id="路径 8" fill-rule="evenodd" style="fill:#FFFFFF" transform="translate(0 0.08622564365055752)  rotate(0 158 116.67148487039324)" opacity="1" d="M277.8,170.74L278,201.34L282.8,198.74C285.4,197.34 293.9,192.34 301.8,187.74L316,179.24L316,117.84L306.2,112.44C300.9,109.44 287.1,101.54 275.5,94.84C264,88.14 243.7,76.44 230.5,68.84C217.3,61.24 198.6,50.44 189,44.84C179.4,39.24 168.8,33.14 165.5,31.34C162.2,29.54 148.3,21.54 134.6,13.64C113.9,1.64 109.3,-0.66 107.6,0.14C106.4,0.64 95.1,7.14 82.4,14.44C69.7,21.84 46,35.54 29.7,44.84L0.1,61.84L0,125.44L0,189.04L29.3,205.94C45.3,215.14 62.6,225.14 67.5,228.04C72.5,230.94 77.1,233.24 77.8,233.34C78.7,233.34 79,228.44 79,211.84L79,190.34L76.1,188.54C74.4,187.64 65.2,182.34 55.6,176.84L38.1,166.84L38,125.34L38,83.84L73.2,63.44L108.5,43.04L113,45.44C120.7,49.64 244,120.44 269.5,135.34L277.5,140.04L277.8,170.74Z " /></g></svg>