<?xml version="1.0" standalone="no"?><svg xmlns="http://www.w3.org/2000/svg" xmlns:xlink="http://www.w3.org/1999/xlink" width="614" height="328" fill="none"><defs><path id="a" d="M0 0h614v328H0z"/></defs><g opacity=".5"><mask id="b" fill="#fff"><use xlink:href="#a"/></mask><g mask="url(#b)"><g opacity=".98" fill-rule="evenodd"><path style="fill:#bababa" transform="translate(-.5 -.5)" opacity=".49" d="M161 194.5c4.56-4.23 9.39-8.06 14.5-11.5 1.3.6 2.14 1.6 2.5 3a55.225 55.225 0 0 0-2.5 10c-2.07 5.37-4.9 10.21-8.5 14.5.14 2.15 1.14 3.82 3 5 49.55 26.43 95.22 58.26 137 95.5a995 995 0 0 1 28-24.5 1302.13 1302.13 0 0 1 107-71c1.62-1.12 2.62-2.62 3-4.5-2.73-6.7-5.57-13.37-8.5-20-1.03-3.15-.37-5.82 2-8 5.21 4.88 10.71 9.38 16.5 13.5 6.03 3.67 12.36 4.34 19 2a312.2 312.2 0 0 1 21-11c1.83-1.47 2.33-3.3 1.5-5.5-4.03-4.37-8.37-8.37-13-12-2.33-3-4.67-6-7-9-1.65-2.13-1.31-4.13 1-6 13.73 9.23 28.9 13.06 45.5 11.5 9.05-5.19 17.38-11.36 25-18.5 1.26-1.85 1.26-3.69 0-5.5-18.95-2.65-36.95-8.32-54-17-1.51-.84-2.01-2-1.5-3.5 1.91-.63 3.91-.96 6-1 23.51 3.14 47.01 2.64 70.5-1.5 4.43-.7 8.43-2.36 12-5 4.87-6.24 9.37-12.74 13.5-19.5 2.21-2.64 2.71-5.47 1.5-8.5-14.7 3.84-29.7 6.51-45 8-7.67.67-15.33.67-23 0-.46-.41-.79-.91-1-1.5 8.64-2.84 17.3-6.01 26-9.5C576.98 73 597.31 57.83 614 38V13a470.7 470.7 0 0 0-3-9.5c-.6-1.3-1.6-2.13-3-2.5-5.69 3.52-10.19 8.19-13.5 14-27.03 25.61-58.2 44.78-93.5 57.5-25.08 8.27-50.41 15.6-76 22l-3.5 3.5a181.005 181.005 0 0 1-14 30c-15.14 25.81-36.47 44.48-64 56-1.6-.6-2.94-1.6-4-3a124.61 124.61 0 0 1-3-22c6.2-2.85 12.7-5.01 19.5-6.5 1.3-.8 1.97-1.97 2-3.5-1.1-4.27-3.77-7.1-8-8.5-5.42-.16-10.75-.83-16-2-2.06-3.72-5.06-6.39-9-8-13-.67-26-.67-39 0-3.16 1.48-5 3.98-5.5 7.5a416.785 416.785 0 0 1-11 43c-1.06.6-2.23.93-3.5 1-10.82-3.08-20.49-8.24-29-15.5-21.58-20.25-37.58-44.25-48-72-41.71-8.24-81.38-22.24-119-42C45.26 38.8 23.59 21.3 5 0H3c-.63 3.55-1.63 6.88-3 10v28c1.21 2.41 2.71 4.74 4.5 7C27.81 67.94 55.31 83.78 87 92.5c-.83.91-1.83 1.58-3 2-14.72.03-29.38-.97-44-3-7.89-2.31-15.89-3.64-24-4 3.97 8.93 8.97 17.27 15 25 4.61 3.14 9.61 5.47 15 7 23.25 3.96 46.59 4.46 70 1.5 2.21-.09 4.21.41 6 1.5-1.39 2.39-3.39 4.06-6 5-16.56 7.81-33.89 12.81-52 15-1.26 1.81-1.26 3.65 0 5.5a504.02 504.02 0 0 1 21 16.5c3.92 1.96 8.09 3.13 12.5 3.5 12.55-1.63 24.38-5.46 35.5-11.5 1.63-.49 3.3-.66 5-.5.01 1.81-.49 3.48-1.5 5-5.59 7.6-11.93 14.6-19 21-.67 1.33-.67 2.67 0 4 6.25 4.21 12.75 8.05 19.5 11.5 8.51 3.77 16.51 2.77 24-3Z"/><path style="fill:#bababa" transform="translate(299.5 140.47)" opacity=".98" d="M0 4.03c1.78 1.73 3.78 3.23 6 4.5 6.49 2.25 12.82 1.92 19-1-1.33-2.67-3.33-4.67-6-6A57.316 57.316 0 0 0 4 .03c-1.62.95-2.95 2.28-4 4Z"/></g><path fill-rule="evenodd" style="fill:#bababa" transform="translate(203.5 64.5)" opacity=".476" d="M19 17.5c-9.38 6.05-15.72 14.38-19 25a98.01 98.01 0 0 0 7 18c1.33.67 2.67.67 4 0 8.76-8.87 18.42-16.54 29-23A542.018 542.018 0 0 1 81.5 20c.64-2.14.3-4.14-1-6C75.93 5.91 69.09 1.24 60 0 45.22 3.05 31.56 8.88 19 17.5Z"/><path fill-rule="evenodd" style="fill:#bababa" transform="translate(335.496 65.246)" opacity=".476" d="M0 16.75c-.06 1.71.61 3.05 2 4 25.12 6.06 46.79 18.06 65 36 1 .67 2 .67 3 0 4.38-5.74 7.71-12.08 10-19a51.393 51.393 0 0 0-9-14c-9.29-7.95-19.63-14.28-31-19-7.54-3.9-15.54-5.4-24-4.5C8.17 3.26 2.83 8.76 0 16.75Z"/><path fill-rule="evenodd" style="fill:#bababa" transform="translate(220.5 96.486)" opacity=".463" d="M3.5 38.01a15.564 15.564 0 0 0-3.5 7.5c.92 5.8 4.25 8.13 10 7 24.9-30.2 56.9-42.53 96-37 13.34 1.56 25.67 5.89 37 13 7.67 6.34 15.33 12.67 23 19 6.5-.5 9.33-4 8.5-10.5C150.02 11.86 120.18-.47 85 .01c-32.22 1.7-59.39 14.36-81.5 38Z"/><path fill-rule="evenodd" style="fill:#bababa" transform="translate(198.5 232.5)" opacity=".462" d="M1.5 16C19.23 61.91 52.4 88.25 101 95h23c21.01-2.84 40.01-10.67 57-23.5 22.15-16.17 36.32-37.67 42.5-64.5.81-2.4.65-4.74-.5-7-4.41.97-8.25 2.97-11.5 6-7.54 22.26-20.37 40.76-38.5 55.5C122.48 93.14 75.98 87.97 33.5 46c-6.84-10.34-13.17-21-19-32C10.72 9.02 5.88 6.69 0 7c.74 2.94 1.24 5.94 1.5 9Z"/></g></g></svg>