<?xml version="1.0" encoding="UTF-8"?> <svg  version="1.0" xmlns="http://www.w3.org/2000/svg"  width="300.000000pt" height="298.000000pt" viewBox="0 0 300.000000 298.000000"  preserveAspectRatio="xMidYMid meet">  <g transform="translate(0.000000,298.000000) scale(0.100000,-0.100000)" fill="#ffffff" stroke="none"> <path d="M1315 2969 c-500 -67 -934 -374 -1154 -816 -62 -124 -105 -246 -133 -376 -31 -149 -32 -417 0 -572 64 -319 204 -571 443 -800 193 -184 444 -317 710 -377 91 -20 130 -23 314 -23 162 0 230 4 298 18 181 37 379 118 532 217 100 66 120 82 223 183 230 225 379 511 434 832 36 210 13 492 -56 698 -176 523 -604 894 -1160 1003 -97 19 -353 27 -451 13z m79 -215 c3 -9 6 -59 6 -113 l0 -97 53 6 c28 4 77 4 107 0 30 -4 57 -6 60 -3 3 3 4 52 4 109 l-1 104 36 0 c120 -1 373 -88 518 -178 l41 -26 -18 -36 c-18 -35 -22 -37 -194 -89 -97 -30 -176 -54 -176 -55 0 -1 11 -28 25 -61 13 -33 25 -72 25 -87 0 -15 4 -29 8 -32 5 -3 80 17 168 44 87 28 165 50 174 50 8 -1 55 -22 105 -48 147 -77 180 -138 178 -331 0 -66 3 -108 8 -100 17 27 50 195 57 288 l7 93 42 -73 c109 -193 163 -408 163 -647 0 -194 -40 -364 -128 -542 l-47 -95 -3 458 -2 457 -100 0 -101 0 1 -587 2 -588 -49 -43 c-70 -64 -178 -139 -255 -178 -37 -19 -69 -34 -72 -34 -2 0 -16 36 -31 80 l-27 80 -179 0 -179 0 0 659 0 659 -42 -10 c-24 -5 -73 -7 -110 -5 l-68 6 0 -655 0 -654 -183 0 -183 0 -24 -76 c-13 -41 -28 -77 -32 -80 -22 -14 -231 113 -334 204 l-54 47 0 273 0 272 -95 0 -95 0 0 -141 c0 -101 -3 -138 -11 -133 -20 12 -97 185 -124 278 -38 132 -49 216 -49 366 0 155 14 245 56 380 29 91 128 300 153 320 9 8 13 -16 18 -98 15 -267 125 -504 325 -694 76 -74 111 -90 64 -30 -59 75 -85 141 -90 227 l-4 80 53 91 52 91 167 53 167 53 -23 58 c-13 32 -24 71 -24 86 0 54 -5 54 -186 -1 l-171 -52 -94 44 c-108 49 -144 79 -170 141 l-19 43 46 55 c103 121 247 227 418 309 135 64 227 91 427 123 4 1 10 -6 13 -15z m1064 -407 c13 -15 27 -67 18 -67 -4 0 -30 12 -59 27 l-52 26 30 13 c38 17 50 17 63 1z m-1862 -309 l49 -21 -43 -15 c-24 -8 -45 -12 -46 -11 -5 6 -16 69 -12 69 2 0 25 -10 52 -22z m83 -268 c-13 -22 -26 -40 -29 -40 -7 0 -33 51 -28 55 5 4 62 23 71 24 5 1 -2 -17 -14 -39z"/> <path d="M1523 2464 c-20 -42 -28 -42 -48 -4 -17 33 -27 35 -74 19 -28 -10 -31 -15 -31 -55 0 -24 -2 -44 -4 -44 -3 0 -20 9 -39 20 l-35 21 -32 -41 -33 -41 22 -23 c32 -34 27 -48 -13 -41 -37 7 -37 7 -51 -62 -6 -29 -4 -32 29 -43 32 -10 50 -30 29 -30 -5 0 -19 -9 -32 -19 -22 -17 -23 -21 -11 -55 11 -33 15 -36 51 -36 42 0 52 -17 24 -40 -22 -18 -19 -33 13 -63 34 -32 39 -33 68 -6 30 28 48 16 40 -27 -6 -31 -5 -33 31 -43 40 -11 48 -8 67 30 17 35 33 33 46 -5 10 -32 14 -35 38 -30 64 16 67 18 63 64 l-3 43 37 -23 36 -22 30 28 c34 33 35 38 9 71 -25 33 -16 47 26 40 27 -5 36 -2 44 13 20 37 12 67 -20 80 -44 18 -45 28 -6 47 28 13 36 22 35 42 -1 54 -12 66 -57 62 -47 -3 -50 2 -25 55 l18 36 -33 29 -33 29 -34 -26 c-30 -23 -36 -24 -41 -10 -3 9 -4 28 -1 41 5 29 -1 34 -50 45 -32 8 -35 6 -50 -26z m53 -228 c72 -61 -1 -176 -92 -146 -42 14 -64 44 -64 88 0 73 97 109 156 58z"/> </g> </svg> 