<svg xmlns="http://www.w3.org/2000/svg" viewBox="0 0 1000 1000" style="enable-background:new 0 0 1000 1000" xml:space="preserve"><style>.st0{display:none}.st1{display:inline}.st2{fill:#fff}.st3,.st6{fill:none;stroke:#000;stroke-width:10;stroke-miterlimit:10}.st6{display:inline}</style><g id="图层_6"><path d="M137.5 237.5v250h120v-250h-120zm10 10h100v230h-100v-230zM637.5 439.8c-3.1-2.1-6.3-4-9.5-5.6-3.3-1.7-6.8-3.2-10.4-4.5v99.1c5.7-4 12.6-6.3 20-6.3v-82.7zM617.5 388.6c6.5 2.9 13.1 6.2 20 10.2V255.9c-5.8 4.9-11.8 8.5-17.2 11.7-1 .6-1.9 1.1-2.8 1.7v55.2c2.8 2.8 4.9 6.5 5.7 10.6 1.4 7.2-1.3 13.7-5.7 18.2v35.3z"/><path d="M107.5 862.5v-660h422.1v-20H87.5v700h479.2c-11-5-20.9-11.8-29.6-20H107.5zM608.2 201.3c-1.9-3.9-5.4-7.1-10.1-9.6v10.8h10.6c-.1-.4-.3-.8-.5-1.2z"/><path d="M271.6 277.5h217.8v10H271.6zM271.6 257.5h266.1v10H271.6zM271.6 237.5h258.1v10H271.6zM271.6 297.5h214.2v10H271.6zM271.6 317.5h210.7v10H271.6zM271.6 337.5h177v10h-177zM271.6 357.5h146.8v10H271.6zM271.6 377.5h124.2v10H271.6zM271.6 397.5h106.5v10H271.6zM271.6 417.5H364v10h-92.4zM271.6 437.5h81.1v10h-81.1zM271.6 457.5h72.2v10h-72.2zM271.6 477.5H337v10h-65.4zM137.5 497.5h194.6v10H137.5zM137.5 517.5h191.6v10H137.5zM137.5 537.5h190.3v10H137.5zM137.5 557.5h190.7v10H137.5zM137.5 577.5h192.8v10H137.5zM137.5 597.5h176v10h-176zM137.5 617.5h161.9v10H137.5zM137.5 637.5H311v10H137.5zM137.5 657.5h185v10h-185zM137.5 677.5H334v10H137.5zM137.5 697.5h208.1v10H137.5zM137.5 717.5h219.6v10H137.5zM137.5 737.5h231.2v10H137.5zM137.5 757.5h330v10h-330zM137.5 777.5v10h365.1c-.1-1.7-.1-3.3-.1-5v-5h-365zM137.5 807.5h367.9c-.8-3.3-1.4-6.6-1.8-10h-366v10zM508.2 817.5H137.5v10h374.6c-1.4-3.3-2.7-6.6-3.9-10zM812.5 582.5v-25c0-13.8-11.2-25-25-25H733c-1.1-3.8-2.3-7.5-3.6-11.1-1.9-5.4-3.9-10.6-6.2-15.7-1.5-3.4-3-6.7-4.7-10l-.6-1.2c-.6-1.2-1.3-2.4-1.9-3.6-.9-1.6-1.8-3.2-2.6-4.8-2.7-4.7-5.6-9.3-8.7-13.7-1-1.5-2-2.9-3-4.4-8.3-11.6-17.8-22.1-28.2-31.3-8.6-7.6-17.8-14.5-27.3-20.8-1.5-1-3-2-4.5-2.9-.5-.3-1.1-.7-1.6-1-.6-.4-1.2-.7-1.8-1.1-.3-.2-.5-.3-.8-.5-1.5-.9-3-1.8-4.6-2.7-1.3-.8-2.7-1.5-4-2.2-2.4-1.3-4.8-2.6-7.2-3.8-1.6-.8-3.2-1.6-4.8-2.3-4.8-2.2-9.7-4.3-14.7-6.1-4-1.4-8.1-2.7-12.3-3.8v24.1c.6.1 1.1.1 1.7.2.4 0 .7.1 1.1.1 1.4.2 2.7.3 4.1.5 6.9 1 13.9 2.5 20.6 4.7 5.1 1.6 10.1 3.6 15 6.1 1.7.9 3.4 1.8 5 2.7 9.2 5.3 17.5 12.2 24.6 20.1 8.4 9.3 15.3 19.8 20.3 31.1 1.8 4.3 3.5 8.5 4.8 12.9.5 1.5.9 2.9 1.2 4.4.2.7.4 1.5.5 2.2.5 2.2 1 4.4 1.3 6.7.2 1.5.5 3 .6 4.5.1.7.2 1.5.3 2.2.1.7.1 1.5.2 2.2.1.7.1 1.5.1 2.2.1 1.5.1 3 .1 4.5 0 3.7-.1 7.4-.5 11.1 0 .2 0 .3-.1.5h-53.7c-13.8 0-25 11.2-25 25v25c-55.2 0-100 44.8-100 100v100c0 55.2 44.8 100 100 100h200c55.2 0 100-44.8 100-100v-100c.4-55.2-44.4-100-99.6-100zm80 200c0 44.1-35.9 80-80 80h-200c-44.1 0-80-35.9-80-80v-100c0-44.1 35.9-80 80-80h79.7c-1 6.5-3.3 13.1-7.8 18.8-20 25-60.9 4.3-95.1 31-17.4 13.6-31 38-24.2 51.6 11.1 22.5 74.2 11.9 81.6 10.6 59.2-10.4 85.9-42.4 115.3-28.6 3.5 1.6 15.3 7.2 18.8 19 3.9 13.2-5.2 25.4-6.2 26.7-6.7 8.7-15.8 11.4-18.9 12.1-12.1 1.7-16.1-8.8-36.8-9.2-19.7-.4-36 7.8-46.8 14.9-5.4 4.3-10.7 8.5-16.1 12.8-5.5 3-13.6 6.7-23.6 9.7-44.5 13.1-73.4-6.9-83.5 7.2-9.5 13.2 1.4 38.7 14.2 52.9 18.8 20.8 45.2 20.6 49.5 20.5h200c38.6 0 70-31.4 70-70v-100c.1-6.2-.2-28.3-16.6-45.2-6-6.2-13.2-13.6-21.6-13.7-10.7-.1-18.9 11.7-26.6 28-6.8 12.1-17.2 26.3-30 26.4-9.7.1-12.6-7.9-22.1-13.1-28-15.2-61.9 22.4-127.7 27.8-13.3 1.1-28.2 1.1-31.9-6.3-3-6 2.7-14.5 3.9-16.2 19.3-28.7 71.8-5.9 103.9-33.2 6.9-5.9 15-16 19.5-34.5h79.3c44.1 0 80 35.9 80 80v100zM533.8 416.2c.7-.2 1.5-.3 2.2-.4.6-.1 1.1-.2 1.7-.3v-28.6c-.2 0-.4.1-.6.1-1.5.2-3 .5-4.5.8-.2 0-.4.1-.6.1-1.5.3-3 .6-4.5 1-.2 0-.3.1-.5.1-1.5.4-3.1.8-4.6 1.2-.1 0-.2.1-.3.1-1.6.5-3.1.9-4.7 1.4-12 3.8-23.3 9.7-33.7 16.5-1.5 1-2.9 2-4.4 3-.7.5-1.4 1.1-2.1 1.6s-1.4 1.1-2.1 1.6L473 416l-2 1.7-4.1 3.4-3.9 3.6-1.9 1.8-1.9 1.8c-1.2 1.2-2.5 2.4-3.7 3.7-2.4 2.6-4.8 5.1-7.1 7.7-5.8 6.5-11 13.4-15.9 20.6-2.9 4.3-5.6 8.7-8.2 13.2l-2.5 4.6-1.2 2.3-.6 1.2-.6 1.2-2.3 4.7-2.1 4.8-1.1 2.4-1 2.4-2 4.9-1.7 5-.9 2.5-.8 2.5-1.5 5.1-1.3 5.1-.6 2.6-.5 2.6-1 5.2c-1 7-1.9 14.1-1.7 21.2-.1 8.9.8 17.8 2.6 26.5.4 1.7.7 3.5 1.2 5.2.4 1.7.9 3.5 1.4 5.2.5 1.7 1 3.4 1.6 5.1.6 1.7 1.1 3.4 1.8 5 1.5 4.1 3.3 8.2 5.2 12.2.8 1.6 1.6 3.2 2.4 4.7 1.8 3.4 3.7 6.7 5.7 9.9 1.3 2 2.6 4.1 4 6.1.3.4.6.7.8 1.1 1.6 2.2 3.2 4.3 4.9 6.4 1.3 1.6 2.7 3.3 4.1 4.8 5.8 6.5 12.2 12.5 19.1 17.8 4.1 3.1 8.4 6 12.9 8.7 1.2.7 2.4 1.4 3.7 2.1.7.4 1.3.7 2 1.1 2.6 1.4 5.3 2.7 8 3.8 2.6 1.1 3.9 1.8 4.7 1.9 1.7.3 5.5.6 6-.7 1-2.3-9.9-7.2-21.8-19.5-3-3.1-6.1-6.7-6.4-7.1-3.1-3.6-6.1-7.3-8.8-11.1-.9-1.3-1.8-2.5-2.7-3.8-3.6-5.2-6.8-10.5-9.7-15.9-2.2-4.1-4.2-8.3-6-12.5-1.2-2.8-2.3-5.7-3.4-8.6-1.6-4.3-2.9-8.7-4.1-13.1-1.5-5.9-2.8-11.8-3.7-17.8-.7-4.5-1.3-9-1.7-13.6-.1-1.5-.3-3-.4-4.6l-.2-2.1v-.2c-.1-.8-.2-1.5-.2-2.3l-.1-4.6v-9.1l.3-4.6.1-2.3.2-2.3.5-4.6.7-4.6.4-2.3.5-2.3 1-4.6 1.2-4.5.6-2.3.7-2.2c.2-.7.5-1.5.7-2.2 1.3-3.7 2.8-7.3 4.5-10.9l2.1-4.2c2.2-4.2 4.7-8.2 7.3-12.1 4.5-6.5 9.6-12.5 15.3-17.8 4.5-4.3 9.4-8.2 14.6-11.7 5.2-3.5 10.6-6.5 16.1-9.3 2.8-1.3 5.6-2.6 8.4-3.7 1.4-.6 2.8-1.1 4.3-1.7 2.8-1.1 5.7-2.1 8.6-3 4.3-1.4 8.7-2.6 13.1-3.6 2.9-.7 5.9-1.2 8.8-1.8z"/><path d="M566.7 496.7V547l37.6-90.2H572v-6.2h-16.2v6.2h-32.3L561 547v-50.3c-3.1-1.1-5.3-4.1-5.3-7.6 0-4.5 3.6-8.1 8.1-8.1s8.1 3.6 8.1 8.1c0 3.5-2.2 6.5-5.2 7.6zM588.1 178c3.6.7 6.9 1.6 10 2.8 8.9 3.4 15.7 9 19.1 16.2 4.2 8.7 2.4 17.6 1.3 22.5-3.1 14.6-11.7 23.2-20.5 30.9-2.5 2.2-5 4.3-7.4 6.4l-.6.6c-3.8 3.4-7.3 7-10 11.1v-11.7h-32.3v183.9H580V309c2.4 5.1 5.6 10.8 10 17 1.3 1.8 2.6 3.7 4.1 5.6-3.4 3.5-4.4 8.4-2.7 12.4 2.4 5.6 9.7 7.5 15.1 5.2 4.2-1.8 8-6.6 6.9-12.1-1-5-5.5-8.7-10.9-8.7-8.6-13.7-11.9-24.4-12.5-32.7-.1-1.9-.1-3.7 0-5.4.2-3.3.9-6.2 1.8-8.7 8.4-22.8 38.6-21.9 53.2-50.8 0 0 8.7-17.3 5.9-37.5-3.4-24.6-23.6-46.5-52.9-59.8-3.2-1.5-6.6-2.8-10-4.1v-11.9h-48.5v129.3H588V178z"/></g></svg>