<?xml version="1.0" standalone="no"?>
<!DOCTYPE svg PUBLIC "-//W3C//DTD SVG 20010904//EN"
 "http://www.w3.org/TR/2001/REC-SVG-20010904/DTD/svg10.dtd">
<svg version="1.0" xmlns="http://www.w3.org/2000/svg"
 width="1000.000000pt" height="1000.000000pt" viewBox="0 0 1000.000000 1000.000000"
 preserveAspectRatio="xMidYMid meet">

<g transform="translate(0.000000,1000.000000) scale(0.100000,-0.100000)"
fill="#000000" stroke="none">
<path d="M5358 8907 c-1429 -1967 -1352 -1858 -1358 -1917 -3 -30 -3 -83 0
-117 5 -60 7 -63 75 -135 127 -131 620 -680 620 -689 0 -4 -229 -292 -510
-638 l-510 -631 -5 1713 c-4 1494 -7 1715 -20 1735 -14 21 -20 22 -161 22
-139 0 -146 -1 -167 -23 l-22 -23 0 -1945 -1 -1944 -405 -500 c-836 -1031
-987 -1218 -1016 -1263 -16 -24 -18 -58 -18 -324 l0 -298 41 0 c33 0 45 6 67
32 29 34 322 397 1157 1432 286 355 523 644 526 643 3 -1 315 -344 694 -762
378 -418 699 -772 712 -786 l24 -26 -293 -382 c-161 -210 -319 -416 -350 -458
l-58 -77 0 -298 0 -298 33 1 c30 0 46 19 296 344 145 190 275 362 289 382 14
21 131 174 259 340 l233 301 0 143 0 142 -99 101 c-121 123 -1491 1635 -1491
1644 1 13 1095 1356 1105 1356 7 1 443 -473 791 -861 l65 -72 -276 -339 -275
-340 -73 76 c-40 43 -143 151 -227 242 -205 221 -227 240 -267 240 l-33 0 0
-243 0 -243 128 -137 c70 -75 204 -217 297 -316 l170 -181 57 0 c53 0 58 2 80
32 39 57 703 873 711 876 6 2 1419 -1550 2126 -2336 141 -157 158 -172 188
-172 l33 0 1 203 c0 111 0 235 -1 276 l-1 74 -98 106 c-53 58 -106 116 -116
129 -11 13 -415 459 -897 990 l-877 967 -1 1781 0 1782 -34 26 c-33 25 -39 26
-169 26 -113 0 -137 -3 -148 -17 -12 -13 -15 -277 -19 -1599 l-5 -1583 -395
435 c-217 240 -411 455 -432 478 l-36 42 294 363 294 364 0 87 c0 97 4 88
-119 258 -25 34 -164 225 -308 423 l-262 360 89 122 c49 67 137 188 195 268
l105 146 0 336 0 337 -27 0 c-25 0 -46 -25 -175 -203z m-182 -1654 c221 -306
222 -309 190 -374 -26 -52 -380 -479 -397 -479 -20 0 -47 28 -298 305 -150
166 -181 205 -181 230 0 29 27 68 352 513 103 140 83 151 334 -195z"/>
</g>
</svg>
