<svg xmlns="http://www.w3.org/2000/svg" xmlns:xlink="http://www.w3.org/1999/xlink" width="614" height="328" viewBox="0 0 614 328" fill="none"><rect x="0" y="0" width="0" height="0" fill="rgba(249, 249, 249, 1)" /><defs><rect id="path_0" x="0" y="0" width="614" height="328" /></defs><g opacity="1" transform="translate(0 0)  rotate(0 307 164)"><mask id="bg-mask-0" fill="white"><use xlink:href="#path_0"></use></mask><g mask="url(#bg-mask-0)" ><g opacity="1" transform="translate(-0.5 -0.5)  rotate(0 307 155.5)"><g opacity="0.98" transform="translate(0 0)  rotate(0 307 155.5)"><path id="路径 1" fill-rule="evenodd" style="fill:#BABABA" transform="translate(0 0)  rotate(0 307 155.5)" opacity="0.49" d="M161,194.5C165.56,190.27 170.39,186.44 175.5,183C176.8,183.6 177.64,184.6 178,186C176.86,189.25 176.02,192.58 175.5,196C173.43,201.37 170.6,206.21 167,210.5C167.14,212.65 168.14,214.32 170,215.5C219.55,241.93 265.22,273.76 307,311C316.16,302.68 325.49,294.51 335,286.5C369.46,261.1 405.13,237.43 442,215.5C443.62,214.38 444.62,212.88 445,211C442.27,204.3 439.43,197.63 436.5,191C435.47,187.85 436.13,185.18 438.5,183C443.71,187.88 449.21,192.38 455,196.5C461.03,200.17 467.36,200.84 474,198.5C480.84,194.58 487.84,190.91 495,187.5C496.83,186.03 497.33,184.2 496.5,182C492.47,177.63 488.13,173.63 483.5,170C481.17,167 478.83,164 476.5,161C474.85,158.87 475.19,156.87 477.5,155C491.23,164.23 506.4,168.06 523,166.5C532.05,161.31 540.38,155.14 548,148C549.26,146.15 549.26,144.31 548,142.5C529.05,139.85 511.05,134.18 494,125.5C492.49,124.66 491.99,123.5 492.5,122C494.41,121.37 496.41,121.04 498.5,121C522.01,124.14 545.51,123.64 569,119.5C573.43,118.8 577.43,117.14 581,114.5C585.87,108.26 590.37,101.76 594.5,95C596.71,92.36 597.21,89.53 596,86.5C581.3,90.34 566.3,93.01 551,94.5C543.33,95.17 535.67,95.17 528,94.5C527.54,94.09 527.21,93.59 527,93C535.64,90.16 544.3,86.99 553,83.5C576.98,73 597.31,57.83 614,38C614,29.67 614,21.33 614,13C613.07,9.94 612.07,6.77 611,3.5C610.4,2.2 609.4,1.37 608,1C602.31,4.52 597.81,9.19 594.5,15C567.47,40.61 536.3,59.78 501,72.5C475.92,80.77 450.59,88.1 425,94.5C423.83,95.67 422.67,96.83 421.5,98C417.75,108.42 413.09,118.42 407.5,128C392.36,153.81 371.03,172.48 343.5,184C341.9,183.4 340.56,182.4 339.5,181C337.84,173.72 336.84,166.38 336.5,159C342.7,156.15 349.2,153.99 356,152.5C357.3,151.7 357.97,150.53 358,149C356.9,144.73 354.23,141.9 350,140.5C344.58,140.34 339.25,139.67 334,138.5C331.94,134.78 328.94,132.11 325,130.5C312,129.83 299,129.83 286,130.5C282.84,131.98 281,134.48 280.5,138C277.59,152.54 273.93,166.88 269.5,181C268.44,181.6 267.27,181.93 266,182C255.18,178.92 245.51,173.76 237,166.5C215.42,146.25 199.42,122.25 189,94.5C147.29,86.26 107.62,72.26 70,52.5C45.26,38.8 23.59,21.3 5,0C4.33,0 3.67,0 3,0C2.37,3.55 1.37,6.88 0,10C0,19.33 0,28.67 0,38C1.21,40.41 2.71,42.74 4.5,45C27.81,67.94 55.31,83.78 87,92.5C86.17,93.41 85.17,94.08 84,94.5C69.28,94.53 54.62,93.53 40,91.5C32.11,89.19 24.11,87.86 16,87.5C19.97,96.43 24.97,104.77 31,112.5C35.61,115.64 40.61,117.97 46,119.5C69.25,123.46 92.59,123.96 116,121C118.21,120.91 120.21,121.41 122,122.5C120.61,124.89 118.61,126.56 116,127.5C99.44,135.31 82.11,140.31 64,142.5C62.74,144.31 62.74,146.15 64,148C71.14,153.31 78.14,158.81 85,164.5C88.92,166.46 93.09,167.63 97.5,168C110.05,166.37 121.88,162.54 133,156.5C134.63,156.01 136.3,155.84 138,156C138.01,157.81 137.51,159.48 136.5,161C130.91,168.6 124.57,175.6 117.5,182C116.83,183.33 116.83,184.67 117.5,186C123.75,190.21 130.25,194.05 137,197.5C145.51,201.27 153.51,200.27 161,194.5Z " /><path id="路径 2" fill-rule="evenodd" style="fill:#BABABA" transform="translate(300 140.9709090909091)  rotate(0 12.5 4.999478017444673)" opacity="0.98" d="M0,4.03C1.78,5.76 3.78,7.26 6,8.53C12.49,10.78 18.82,10.45 25,7.53C23.67,4.86 21.67,2.86 19,1.53C14.07,0.37 9.07,-0.13 4,0.03C2.38,0.98 1.05,2.31 0,4.03Z " /></g></g><g opacity="1" transform="translate(203.5 64.5)  rotate(0 40.906082021565396 30.500124999999997)"><path id="路径 3" fill-rule="evenodd" style="fill:#BABABA" transform="translate(0 0)  rotate(0 40.906082021565396 30.500124999999997)" opacity="0.4765" d="M19,17.5C9.62,23.55 3.28,31.88 0,42.5C1.75,48.75 4.08,54.75 7,60.5C8.33,61.17 9.67,61.17 11,60.5C19.76,51.63 29.42,43.96 40,37.5C53.64,31.07 67.47,25.24 81.5,20C82.14,17.86 81.8,15.86 80.5,14C75.93,5.91 69.09,1.24 60,0C45.22,3.05 31.56,8.88 19,17.5Z " /></g><g opacity="1" transform="translate(335.49616647865776 65.24618917863836)  rotate(0 40.00191676067112 28.627030410680824)"><path id="路径 4" fill-rule="evenodd" style="fill:#BABABA" transform="translate(0 0)  rotate(0 40.00191676067112 28.627030410680824)" opacity="0.4759999999999999" d="M0,16.75C-0.06,18.46 0.61,19.8 2,20.75C27.12,26.81 48.79,38.81 67,56.75C68,57.42 69,57.42 70,56.75C74.38,51.01 77.71,44.67 80,37.75C77.76,32.59 74.76,27.93 71,23.75C61.71,15.8 51.37,9.47 40,4.75C32.46,0.85 24.46,-0.65 16,0.25C8.17,3.26 2.83,8.76 0,16.75Z " /></g><g opacity="1" transform="translate(220.5 96.48608665477042)  rotate(0 87.32082709966289 26.39437528748735)"><path id="路径 5" fill-rule="evenodd" style="fill:#BABABA" transform="translate(0 0)  rotate(0 87.32082709966289 26.394375287487357)" opacity="0.4625" d="M3.5,38.01C1.66,40.19 0.49,42.69 0,45.51C0.92,51.31 4.25,53.64 10,52.51C34.9,22.31 66.9,9.98 106,15.51C119.34,17.07 131.67,21.4 143,28.51C150.67,34.85 158.33,41.18 166,47.51C172.5,47.01 175.33,43.51 174.5,37.01C150.02,11.86 120.18,-0.47 85,0.01C52.78,1.71 25.61,14.37 3.5,38.01Z " /></g><g opacity="1" transform="translate(198.5 232.5)  rotate(0 112.00332165046399 47.5)"><path id="路径 6" fill-rule="evenodd" style="fill:#BABABA" transform="translate(0 0)  rotate(0 112.00332165046399 47.5)" opacity="0.462" d="M1.5,16C19.23,61.91 52.4,88.25 101,95C108.67,95 116.33,95 124,95C145.01,92.16 164.01,84.33 181,71.5C203.15,55.33 217.32,33.83 223.5,7C224.31,4.6 224.15,2.26 223,0C218.59,0.97 214.75,2.97 211.5,6C203.96,28.26 191.13,46.76 173,61.5C122.48,93.14 75.98,87.97 33.5,46C26.66,35.66 20.33,25 14.5,14C10.72,9.02 5.88,6.69 0,7C0.74,9.94 1.24,12.94 1.5,16Z " /></g></g></g></svg>