<?xml version="1.0" encoding="UTF-8"?>
<!-- Generator: Adobe Illustrator 24.0.1, SVG Export Plug-In . SVG Version: 6.00 Build 0)  -->
<svg version="1.1" id="图层_1" xmlns="http://www.w3.org/2000/svg" xmlns:xlink="http://www.w3.org/1999/xlink" x="0px" y="0px" viewBox="0 0 1500 600" style="enable-background:new 0 0 1500 600;" xml:space="preserve">
<style type="text/css">
	.st0{opacity:0.1;fill:#231815;}
</style>
<path class="st0" d="M780.8,328.6c-15.3,10.2-22.3,20.7-15.3,33.2C782.4,353.8,788.9,337.5,780.8,328.6z"/>
<path class="st0" d="M1254.2,77.7c30.1-12.2,60.4-24.2,87.7-42.1c8.7-5.7,16.4-13,24.2-19.9c2.3-2,3.4-5.2,5.1-7.8  c-2.6-0.3-4.2,0.1-5.8,0.5c-85,23.5-170,47.1-255.1,70.6c-55.2,15.3-110.3,30.6-165.5,45.8c-3.1,0.9-4.5,2-4.7,5.6  c-0.6,11.1-1.4,22.3-2.9,33.4c-5.2,40.5-22.1,74.9-52.8,102.5c-18.8,16.8-41.3,24.9-64.8,31.1c-5.7-18.7-24-20.4-36.6-29.4  c5.4,7.4,11,14.4,16.6,21.4c5.9,7.4,6,15.3,3,24c-6.2,17.9-15.9,33.7-28.4,47.8c-2.8,3.2-5.2,4.4-9.4,2.3c-3.4-1.7-7.4-2.4-11.1-3.5  c-0.1,0.5-0.3,1-0.4,1.5c1.7,1.1,3.4,2,4.9,3.2c3.6,2.9,7,6.4,5.8,11.4c-2.4,9.9-7.2,18.8-14.2,28.3c-7-9.5-11.8-18.3-14.2-28.3  c-1.2-5,2.2-8.5,5.8-11.4c1.5-1.2,3.3-2.2,4.9-3.2c-0.1-0.5-0.3-1-0.4-1.5c-3.7,1.1-7.7,1.8-11.1,3.5c-4.2,2.1-6.6,0.9-9.4-2.3  c-12.5-14.1-22.2-29.9-28.4-47.8c-3-8.7-2.9-16.6,3-24c5.6-7,11.2-14,16.6-21.4c-12.6,9-30.9,10.7-36.6,29.4  c-23.5-6.2-46-14.3-64.8-31.1c-30.7-27.5-47.7-61.9-52.8-102.5c-1.4-11.1-2.2-22.2-2.9-33.4c-0.2-3.6-1.6-4.7-4.7-5.6  C500,109.6,444.9,94.2,389.7,78.9c-85-23.5-170-47.1-255.1-70.6c-1.6-0.4-3.2-0.8-5.8-0.5c1.7,2.6,2.9,5.8,5.1,7.8  c7.8,6.9,15.5,14.3,24.2,19.9c27.3,17.9,57.6,29.9,87.7,42.1c22.2,9,44.9,16.9,67.3,25.2c1.8,0.7,3.6,1.5,5.3,2.6  c-60.8-10.1-115.6-36.7-171.8-63.9c1.6,2.4,2.3,3.7,3.3,4.8c24.4,29.7,49,59.4,73.3,89.2c3.4,4.2,7.6,6.2,12.7,7.1  c33.7,6.3,67.4,12.7,101.1,19.1c0.4,0.1,0.9,0.3,1.2,1.4c-16.7-1.5-33.5-2.6-50.1-4.8c-16.6-2.2-33.1-5.5-50.5-8.5  c1.6,1.9,2.7,3.4,4.1,4.7c17.6,16.5,35.2,33.1,53,49.5c2.1,1.9,5.5,3.2,8.4,3.4c37.1,3,73.9,0.7,110.6-4.6c0.6-0.1,1.3-0.1,2,0.5  c-34.6,9.9-69.9,13.1-106.9,12.2c1.4,1.6,2.1,2.6,3,3.3c16.4,12.8,32.8,25.7,49.4,38.2c2.2,1.6,5.9,2.3,8.7,1.8  c29.5-4.8,55.6-18,80.9-33c1.3-0.8,2.6-1.5,3.9-2.2c0.2-0.1,0.6,0.1,1.2,0.3c-21.4,20.6-46.7,34.7-74.3,46.8  c3.3,2.1,5.7,3.8,8.3,5.3c13.9,7.9,27.9,15.6,41.6,23.8c4.3,2.5,7.4,2.2,11.2-0.6c14.7-10.8,27.8-23.4,39.6-37.3  c1.3-1.5,2.6-3,4.2-4.3c-8.3,19.3-18.8,37.1-35.1,52c2,1.1,3.5,2,5,2.7c16.8,7.6,33.7,15.2,50.4,23c3.9,1.8,5.9,0.7,8.2-2.4  c12.4-17.1,19.1-36.4,22.8-57c0.3-1.8,0.8-3.5,1.1-5.3c0.4,0.1,0.8,0.1,1.2,0.2c-1.4,12.1-2.8,24.1-4.3,36.2  c-1.6,12.4-5.4,23.9-13.5,35c21.5,7.3,42.2,14.3,62.6,21.2c7.9-7.4,8.8-34.1,5.9-61.5c8,20.9,11,42.5,9.9,65.3  c23.6,7.3,48,8.9,74.2,8.6c-1.5-4.3-2.1-8.3-4.2-11.3c-8.1-12.2-16.7-24-25.2-36c-0.9-1.3-1.9-2.5-2.5-4  c11.6,10.5,23.5,20.9,31.5,34.4c16.1,27.5,26.7,56.9,26.5,89.4c-0.1,10.9-3.6,19.7-10.7,28.1c-14.6,17.2-32,29-54.7,31.8  c-1,0.1-1.9,0.6-3.7,1.2c10.1,8.1,19.7,15.8,29.4,23.2c0.9,0.7,3.5-0.1,4.7-1c7.3-5.5,14.5-11.3,21.7-16.9c1.3-1,2.5-2,3.7-3  c0.4,0.4,0.8,0.8,1.2,1.3c-8.5,7.8-17,15.7-26,24c8.7,6.7,16.6,12.6,25.4,19.3c9.4-11,18.5-21.7,27.6-32.5c0.3,0.1,0.6,0.2,0.9,0.4  c-7,12.5-14,25-21.2,37.7c12.9,9.7,26.1,19.7,40.4,30.4c-0.6-20.9-0.8-40.4,9.8-59.3c0.2,0.3,0.4,0.7,0.6,1c0.2-0.3,0.4-0.7,0.6-1  c10.6,19,10.4,38.4,9.8,59.3c14.3-10.8,27.6-20.7,40.4-30.4c-7.2-12.8-14.2-25.3-21.2-37.7c0.3-0.1,0.6-0.2,0.9-0.4  c9.1,10.7,18.3,21.5,27.6,32.5c8.8-6.7,16.7-12.7,25.4-19.3c-9.1-8.4-17.6-16.2-26-24c0.4-0.4,0.8-0.8,1.2-1.3c1.2,1,2.5,2,3.7,3  c7.2,5.7,14.3,11.4,21.7,16.9c1.2,0.9,3.9,1.7,4.7,1c9.8-7.4,19.3-15.1,29.4-23.2c-1.9-0.6-2.8-1.1-3.7-1.2  c-22.8-2.8-40.1-14.6-54.7-31.8c-7.1-8.4-10.7-17.3-10.7-28.1c-0.2-32.5,10.3-61.9,26.5-89.4c7.9-13.6,19.9-23.9,31.5-34.4  c-0.6,1.5-1.6,2.7-2.5,4c-8.4,12-17,23.8-25.2,36c-2,3.1-2.6,7.1-4.2,11.3c26.1,0.3,50.6-1.3,74.2-8.6c-1.1-22.8,2-44.5,9.9-65.3  c-3,27.4-2,54.1,5.9,61.5c20.4-6.9,41.1-13.9,62.6-21.2c-8.1-11-11.9-22.6-13.5-35c-1.5-12.1-2.9-24.1-4.3-36.2  c0.4-0.1,0.8-0.1,1.2-0.2c0.4,1.8,0.8,3.5,1.1,5.3c3.7,20.6,10.3,39.9,22.8,57c2.3,3.2,4.3,4.2,8.2,2.4c16.7-7.8,33.6-15.3,50.4-23  c1.6-0.7,3-1.6,5-2.7c-16.3-14.9-26.8-32.7-35.1-52c1.6,1.3,2.9,2.8,4.2,4.3c11.8,13.9,24.9,26.5,39.6,37.3  c3.8,2.8,6.9,3.2,11.2,0.6c13.7-8.2,27.8-15.9,41.6-23.8c2.5-1.5,5-3.1,8.3-5.3c-27.6-12.1-52.9-26.2-74.3-46.8  c0.6-0.2,1-0.4,1.2-0.3c1.3,0.7,2.6,1.4,3.9,2.2c25.3,15,51.4,28.2,80.9,33c2.8,0.4,6.5-0.2,8.7-1.8c16.6-12.5,33-25.4,49.4-38.2  c0.9-0.7,1.6-1.7,3-3.3c-36.9,0.9-72.3-2.3-106.9-12.2c0.7-0.5,1.4-0.6,2-0.5c36.7,5.3,73.6,7.5,110.6,4.6c2.9-0.2,6.3-1.5,8.4-3.4  c17.8-16.3,35.4-32.9,53-49.5c1.4-1.3,2.5-2.8,4.1-4.7c-17.4,3-33.9,6.3-50.5,8.5c-16.6,2.2-33.4,3.2-50.1,4.8  c0.3-1.1,0.7-1.3,1.2-1.4c33.7-6.4,67.4-12.8,101.1-19.1c5.1-1,9.3-3,12.7-7.1c24.4-29.8,48.9-59.5,73.3-89.2  c0.9-1.1,1.7-2.4,3.3-4.8c-56.3,27.2-111,53.8-171.8,63.9c1.6-1.2,3.4-2,5.3-2.6C1209.3,94.5,1232,86.7,1254.2,77.7z"/>
<path class="st0" d="M734.5,361.8c7-12.5,0-23-15.3-33.2C711.1,337.5,717.6,353.8,734.5,361.8z"/>
<path class="st0" d="M750,39.2l-74.3,42.9v85.8l74.3,42.9l74.3-42.9V82.1L750,39.2z M750,45l66.8,38.6L750,122.1l-66.8-38.6L750,45z   M680.7,165V87.9l66.8,38.6v0l0,0v77.1L680.7,165z M819.3,165l-66.8,38.6v-77.1l0,0v0l66.8-38.6L819.3,165z"/>
<path class="st0" d="M749.5,575c0.2,0,0.4,0,0.5,0s0.4,0,0.5,0c-0.1-3.3-0.2-6.5-0.5-9.6C749.7,568.5,749.5,571.7,749.5,575z"/>
<path class="st0" d="M923.7,371c-6.1,51-34.2,95.2-74.5,123.1c5.2,2.1,10.7,3.5,16.5,4.2c1.7,0.2,3.1,0.7,4.2,1.1  c0.4,0.1,0.8,0.3,1.4,0.5l17.8,5.7l-14.6,11.6c-2.1,1.7-4.2,3.4-6.3,5.1c-6.6,5.3-12.9,10.3-19.3,15.2l0.2,0.2l-35.3,26.9l0.1,0.1  l-2.6,1.9c93.3-26.4,162.1-111.6,163.8-212.9L923.7,371z"/>
<path class="st0" d="M686.2,564.6l0.1-0.1L651,537.6l0.2-0.2c-6.4-4.9-12.6-9.9-19.2-15.2c-2.1-1.7-4.2-3.4-6.4-5.1l-14.6-11.6  l17.8-5.7c0.5-0.2,1-0.3,1.4-0.5c1.1-0.4,2.5-0.9,4.2-1.1c5.8-0.7,11.3-2.1,16.5-4.2c-40.3-27.8-68.4-72.1-74.5-123.1L525,353.7  c1.6,101.3,70.5,186.5,163.8,212.9L686.2,564.6z"/>
<path class="st0" d="M673.7,479.2c3-2.8,5.9-5.9,8.9-9.3c3-3.5,5.1-7,6.5-10.8c-28.7-16.1-50.5-43.2-59.5-75.6  c-9.5-1.2-18.4-3-26.9-5.4C610.8,421.1,637.3,457.6,673.7,479.2z"/>
<path class="st0" d="M870.4,383.5c-9,32.4-30.8,59.5-59.5,75.6c1.4,3.7,3.5,7.2,6.5,10.8c2.9,3.4,5.9,6.5,8.9,9.3  c36.4-21.5,62.9-58,71.1-101C888.8,380.5,880,382.3,870.4,383.5z"/>
<path class="st0" d="M665.7,173.7v-32.3c-32.3,13.1-60.9,33.5-83.7,59.1c6.3,16.8,15.5,31.8,27.5,45.3  c19.8-26.6,46.9-47.4,78.4-59.4L665.7,173.7z"/>
<path class="st0" d="M834.3,141.4v32.3l-22.1,12.8c31.5,12,58.6,32.8,78.4,59.4c12-13.5,21.1-28.5,27.5-45.3  C895.2,174.9,866.6,154.5,834.3,141.4z"/>
<path class="st0" d="M782.5,203.5L750,222.3l-32.5-18.8c-36.9,8.2-68.6,29.9-89.8,59.6c6.8,5.2,14.1,9.4,21.6,12.9  c20.8-28.3,53.3-47.6,90.3-50.6l-1.6-2.2l2.9,2.1c3-0.2,6.1-0.3,9.1-0.3c3.1,0,6.1,0.1,9.1,0.3l2.9-2.1l-1.6,2.2  c37,3.1,69.5,22.3,90.3,50.6c7.5-3.5,14.8-7.6,21.6-12.9C851.2,233.4,819.4,211.7,782.5,203.5z"/>
</svg>