<svg version="1.0" xmlns="http://www.w3.org/2000/svg" width="1333.333" height="1333.333" viewBox="0 0 1000 1000"><path d="M535.8 109.3C392.9 306 400.6 295.1 400 301c-.3 3-.3 8.3 0 11.7.5 6 .7 6.3 7.5 13.5 12.7 13.1 62 68 62 68.9 0 .4-22.9 29.2-51 63.8l-51 63.1-.5-171.3c-.4-149.4-.7-171.5-2-173.5-1.4-2.1-2-2.2-16.1-2.2-13.9 0-14.6.1-16.7 2.3l-2.2 2.3v194.5l-.1 194.4-40.5 50c-83.6 103.1-98.7 121.8-101.6 126.3-1.6 2.4-1.8 5.8-1.8 32.4V807h4.1c3.3 0 4.5-.6 6.7-3.2 2.9-3.4 32.2-39.7 115.7-143.2 28.6-35.5 52.3-64.4 52.6-64.3.3.1 31.5 34.4 69.4 76.2 37.8 41.8 69.9 77.2 71.2 78.6l2.4 2.6-29.3 38.2c-16.1 21-31.9 41.6-35 45.8l-5.8 7.7V905l3.3-.1c3 0 4.6-1.9 29.6-34.4 14.5-19 27.5-36.2 28.9-38.2 1.4-2.1 13.1-17.4 25.9-34l23.3-30.1v-28.5l-9.9-10.1C527 717.3 390 566.1 390 565.2c.1-1.3 109.5-135.6 110.5-135.6.7-.1 44.3 47.3 79.1 86.1l6.5 7.2-27.6 33.9-27.5 34-7.3-7.6c-4-4.3-14.3-15.1-22.7-24.2-20.5-22.1-22.7-24-26.7-24H471v48.6l12.8 13.7c7 7.5 20.4 21.7 29.7 31.6l17 18.1h5.7c5.3 0 5.8-.2 8-3.2 3.9-5.7 70.3-87.3 71.1-87.6.6-.2 141.9 155 212.6 233.6 14.1 15.7 15.8 17.2 18.8 17.2h3.3l.1-20.3c0-11.1 0-23.5-.1-27.6l-.1-7.4-9.8-10.6c-5.3-5.8-10.6-11.6-11.6-12.9-1.1-1.3-41.5-45.9-89.7-99l-87.7-96.7-.1-178.1V176.2l-3.4-2.6c-3.3-2.5-3.9-2.6-16.9-2.6-11.3 0-13.7.3-14.8 1.7-1.2 1.3-1.5 27.7-1.9 159.9l-.5 158.3-39.5-43.5c-21.7-24-41.1-45.5-43.2-47.8l-3.6-4.2 29.4-36.3 29.4-36.4V314c0-9.7.4-8.8-11.9-25.8-2.5-3.4-16.4-22.5-30.8-42.3l-26.2-36 8.9-12.2c4.9-6.7 13.7-18.8 19.5-26.8l10.5-14.6V89h-2.7c-2.5 0-4.6 2.5-17.5 20.3zm-18.2 165.4c22.1 30.6 22.2 30.9 19 37.4-2.6 5.2-38 47.9-39.7 47.9-2 0-4.7-2.8-29.8-30.5-15-16.6-18.1-20.5-18.1-23 0-2.9 2.7-6.8 35.2-51.3 10.3-14 8.3-15.1 33.4 19.5z"/></svg>