<?xml version="1.0" standalone="no"?>
<!DOCTYPE svg PUBLIC "-//W3C//DTD SVG 20010904//EN"
 "http://www.w3.org/TR/2001/REC-SVG-20010904/DTD/svg10.dtd">
<svg version="1.0" xmlns="http://www.w3.org/2000/svg"
 width="490.000000pt" height="660.000000pt" viewBox="0 0 490.000000 660.000000"
 preserveAspectRatio="xMidYMid meet">

<g transform="translate(0.000000,660.000000) scale(0.100000,-0.100000)"
fill="#000000" stroke="none">
<path d="M2496 6515 c-31 -31 -34 -51 -41 -215 -6 -159 -17 -267 -35 -340 -5
-19 -12 -51 -15 -70 -3 -19 -8 -42 -10 -50 -2 -8 -7 -28 -9 -45 -32 -192 -44
-241 -89 -356 -14 -35 -44 -113 -67 -174 -45 -117 -77 -187 -203 -440 -97
-196 -115 -225 -130 -219 -7 3 -41 40 -76 81 -50 58 -61 77 -50 84 11 6 14 42
14 171 0 234 -12 630 -20 650 -10 25 -41 42 -125 68 -41 12 -133 45 -204 72
-136 52 -169 56 -174 23 -3 -22 56 -104 141 -195 60 -64 120 -153 173 -259 37
-73 38 -76 44 -225 5 -122 10 -156 24 -178 18 -27 18 -28 -2 -28 -26 0 -28
-15 -21 -109 3 -48 11 -84 21 -96 9 -11 44 -55 78 -97 34 -43 67 -81 75 -85
13 -8 70 -79 242 -303 202 -264 258 -335 299 -379 24 -25 53 -64 64 -86 l21
-40 -31 38 c-51 60 -67 53 -139 -60 -61 -97 -155 -236 -223 -330 -19 -26 -38
-56 -41 -65 -7 -21 45 -95 78 -110 22 -10 31 -7 68 20 95 72 218 114 307 106
176 -15 261 -27 278 -38 25 -15 72 -89 72 -113 0 -22 -34 -101 -49 -113 -3 -3
-19 -23 -34 -45 -15 -22 -38 -54 -50 -70 -12 -17 -40 -55 -62 -85 -21 -30 -47
-64 -57 -75 -37 -43 -155 -184 -188 -224 -105 -130 -108 -149 -50 -286 23 -54
53 -115 66 -136 23 -36 24 -45 24 -223 0 -104 -7 -231 -15 -288 -7 -57 -21
-157 -30 -223 -9 -66 -23 -145 -31 -175 -8 -30 -23 -86 -33 -125 -22 -82 -30
-104 -77 -205 -74 -157 -86 -178 -113 -206 -15 -16 -40 -48 -54 -71 -15 -24
-50 -57 -82 -77 -54 -35 -63 -52 -49 -90 7 -17 81 -22 145 -9 54 10 194 159
247 262 24 46 48 91 53 100 21 35 147 389 152 426 4 22 9 67 12 100 6 65 20
176 36 295 6 41 11 174 12 296 2 241 4 231 -69 375 -37 72 -33 88 50 187 40
48 78 97 84 109 6 11 48 60 93 109 45 49 98 112 119 139 20 28 62 74 91 104
30 29 62 65 71 80 36 53 14 152 -62 276 -53 86 -97 128 -178 167 -65 31 -78
49 -21 29 34 -12 59 -1 59 24 0 7 -30 48 -67 92 -36 43 -74 90 -83 106 -9 15
-35 46 -57 70 -22 23 -46 54 -53 67 -15 29 -63 91 -100 131 -14 15 -39 46 -56
70 -17 24 -99 135 -183 247 -95 128 -151 211 -151 226 0 25 47 142 82 204 29
51 111 217 138 277 12 28 33 72 47 100 14 27 38 86 55 130 17 44 38 91 48 105
9 14 34 60 55 103 l40 77 17 -22 c23 -30 56 -99 108 -223 77 -183 164 -371
206 -445 74 -129 125 -238 130 -275 5 -33 1 -47 -23 -81 -15 -22 -51 -74 -80
-116 -52 -75 -130 -182 -181 -247 -15 -18 -39 -52 -54 -75 -15 -22 -39 -56
-53 -74 -18 -21 -27 -45 -28 -69 -1 -30 5 -42 38 -70 46 -40 58 -41 82 -8 10
14 43 59 73 100 30 40 81 111 113 157 32 46 87 124 123 173 35 50 94 134 131
189 37 54 100 132 140 173 40 41 73 77 73 79 0 3 16 38 35 77 35 72 38 117 10
117 -7 0 -41 -20 -76 -45 -35 -25 -82 -57 -104 -71 -22 -15 -50 -36 -63 -47
-22 -21 -23 -21 -42 -1 -26 25 -134 197 -161 254 -11 25 -33 81 -48 125 -90
260 -110 315 -125 343 -9 18 -16 33 -15 34 2 2 -23 80 -54 173 -86 263 -122
449 -131 687 -8 194 -25 258 -60 223z m-26 -2893 c19 -25 45 -63 58 -84 l23
-38 -76 0 -77 0 26 46 c26 46 27 82 3 112 -5 6 -6 12 -1 12 5 -1 25 -22 44
-48z"/>
<path d="M3525 5749 c-38 -17 -131 -51 -206 -75 -165 -53 -180 -66 -179 -150
1 -32 -3 -169 -9 -304 -10 -252 -7 -428 9 -444 10 -10 50 13 106 63 l39 35 6
165 c7 162 19 225 53 271 6 8 20 33 31 55 33 65 77 128 140 201 33 37 74 84
91 103 41 47 55 76 48 95 -9 24 -51 19 -129 -15z"/>
<path d="M1635 4582 c-3 -16 -3 -301 1 -633 9 -796 6 -1825 -7 -1919 -25 -198
-41 -308 -50 -341 -5 -20 -9 -49 -9 -65 0 -16 -7 -50 -14 -76 -8 -26 -24 -92
-36 -148 -12 -56 -33 -131 -47 -168 -14 -37 -30 -85 -35 -106 -10 -44 -80
-207 -133 -311 -67 -129 -128 -209 -249 -328 -92 -90 -135 -124 -185 -149 -72
-34 -235 -78 -291 -78 -19 0 -51 -5 -70 -10 -19 -6 -96 -15 -170 -20 -114 -8
-149 -14 -225 -42 -89 -33 -105 -48 -85 -78 15 -23 701 -18 853 6 107 17 110
18 207 85 69 48 116 90 157 141 68 84 165 226 213 313 18 33 39 69 46 80 21
32 143 391 168 495 35 142 77 350 91 450 9 58 21 143 28 190 8 61 12 249 10
660 0 316 -1 865 -1 1220 0 355 0 653 -1 663 0 10 -12 35 -27 55 -46 61 -117
142 -125 142 -4 0 -10 -13 -14 -28z"/>
<path d="M3233 4468 c-16 -18 -49 -58 -71 -88 l-41 -55 -6 -805 c-11 -1608
-13 -1505 31 -1820 19 -139 79 -414 127 -585 23 -82 128 -369 141 -385 7 -8
27 -44 46 -80 18 -36 53 -93 76 -128 24 -35 44 -66 44 -70 0 -4 39 -52 88
-106 128 -146 220 -206 341 -225 41 -6 77 -14 81 -16 14 -9 736 -16 765 -7 39
11 47 48 13 61 -134 56 -164 64 -287 72 -209 13 -416 53 -519 100 -150 68
-364 304 -464 509 -69 142 -96 205 -113 260 -9 30 -29 91 -45 135 -15 44 -31
96 -35 115 -4 19 -17 82 -30 140 -32 145 -51 249 -65 355 -6 50 -17 119 -23
155 -7 41 -12 223 -13 485 0 231 -1 501 -2 600 0 99 2 421 6 715 7 552 6 700
-7 700 -4 0 -21 -15 -38 -32z"/>
<path d="M1933 3168 c-17 -23 -44 -104 -49 -155 l-6 -49 51 -39 c57 -44 61
-56 7 -24 -41 24 -58 21 -81 -15 -20 -31 -29 -267 -15 -411 7 -78 14 -101 50
-170 24 -44 62 -107 86 -141 40 -57 106 -124 122 -124 4 0 19 -10 33 -22 46
-42 115 -77 164 -85 51 -8 75 16 75 78 0 42 -4 51 -32 72 -18 14 -44 28 -58
32 -24 7 -72 37 -96 60 -6 5 -37 32 -68 59 -138 118 -189 311 -135 512 12 43
21 87 21 97 -1 9 2 17 5 17 6 0 60 -47 154 -135 108 -101 178 -151 197 -139
21 13 112 144 112 162 0 15 -14 28 -130 114 -52 39 -115 90 -140 112 -56 51
-239 200 -249 204 -5 1 -12 -3 -18 -10z"/>
<path d="M2978 2829 c-18 -22 -48 -57 -67 -77 -49 -54 -54 -74 -35 -145 24
-93 15 -224 -22 -302 -45 -95 -151 -185 -217 -185 -16 0 -31 -10 -42 -26 -15
-23 -16 -39 -9 -123 9 -96 9 -96 35 -93 15 1 44 12 66 25 275 156 352 316 369
770 7 205 -10 240 -78 156z"/>
</g>
</svg>
