<svg xmlns="http://www.w3.org/2000/svg" xmlns:xlink="http://www.w3.org/1999/xlink" width="1196" height="500.2615665526459" viewBox="0 0 1196 500.2615665526459" fill="none"><rect x="0" y="0" width="0" height="0" fill="rgba(249, 249, 249, 1)" /><g opacity="1" transform="translate(0 0)  rotate(0 598 250.13078327632294)"><g opacity="1" transform="translate(0 0)  rotate(0 598 250.13078327632294)"><path id="路径 1" fill-rule="evenodd" style="fill:#FFFFFF" transform="translate(0 0)  rotate(0 598 250.13078327632292)" opacity="1" d="M117.6,172.36C121.9,178.76 126.4,185.16 127.5,186.76C129,188.66 132.1,190.36 138,192.56C148.3,196.16 163.9,201.76 190.5,211.36C201.5,215.36 215.9,220.46 222.5,222.86C229.1,225.16 249.1,232.36 267,238.86C284.9,245.26 301.8,251.36 304.5,252.36C307.3,253.26 315.8,256.36 323.5,259.16C331.2,261.96 349.7,268.56 364.5,273.86C379.4,279.16 398.7,286.16 407.5,289.36L423.5,295.16L423.8,347.56L424.1,399.86L461.3,421.26C503.7,445.76 519.4,454.76 565,481.26C582.9,491.66 597.5,500.26 597.6,500.26C597.6,500.36 624.5,484.56 628,482.36C628.8,481.86 631.8,480.26 634.5,478.76C637.3,477.36 640.2,475.56 641,474.96C641.8,474.26 643.9,473.16 645.5,472.36C648.4,470.96 668,459.56 682.5,450.96C693.3,444.56 693.4,444.46 695,443.66C696.9,442.76 748.4,413.16 753,410.36C759.9,406.16 770.3,400.36 771.1,400.36C771.6,400.36 772.1,378.36 772.2,347.66L772.5,294.96L780.5,292.06C784.9,290.56 790.1,288.56 792,287.66C793.9,286.86 796.2,285.96 797,285.76C797.8,285.56 803,283.86 808.5,281.86C814,279.86 819.6,277.86 821,277.36C825.8,275.76 851.6,266.46 868.5,260.36C877.9,256.96 888.7,253.06 892.5,251.66C896.4,250.26 908.8,245.86 920.1,241.76C931.5,237.66 941,234.36 941.3,234.36C941.5,234.36 943.5,233.56 945.6,232.66C947.8,231.76 950.1,230.86 950.9,230.76C951.7,230.56 955.7,229.16 959.9,227.56C967.2,224.76 993.1,215.46 1011,209.26C1015.7,207.56 1021.1,205.56 1023,204.66C1024.9,203.86 1027.2,202.96 1028,202.76C1028.8,202.56 1033.8,200.96 1039,199.06C1044.2,197.16 1052.5,194.26 1057.4,192.56C1062.8,190.56 1066.9,188.46 1067.9,187.16C1069.5,184.96 1080.4,169.16 1101.5,138.36C1107.3,129.86 1114.6,119.26 1117.7,114.86C1124.3,105.36 1148.8,69.76 1157.9,56.36C1161.4,51.16 1165.9,44.66 1167.9,41.86C1169.9,39.16 1172,36.16 1172.5,35.16C1173.1,34.16 1176,29.86 1179,25.66C1190,9.86 1196,0.96 1196,0.16C1196,-0.34 1194.1,0.36 1191.8,1.76C1189.4,3.06 1176.3,10.66 1162.5,18.66C1148.8,26.56 1131.4,36.56 1124,40.86C1116.6,45.16 1104.9,51.86 1098,55.86C1091.1,59.86 1049.1,84.16 1004.5,109.86C960,135.56 917.9,159.86 911,163.86C899.7,170.46 852.7,197.56 821,215.86C814.1,219.86 799.5,228.26 788.5,234.56C777.5,240.96 760.4,250.86 750.5,256.56L732.5,266.96L732.2,322.06L732,377.26L724.2,381.66C720,384.06 698.7,396.26 677,408.86C633,434.26 624.3,439.26 608.8,448.26L598.1,454.46L591.3,450.56C587.5,448.46 560.9,433.06 532,416.36C503.1,399.66 476,384.06 471.8,381.66L464,377.26L463.8,322.16L463.5,266.96L436.5,251.36C421.7,242.76 382.7,220.26 350,201.36C317.3,182.46 286.5,164.66 281.5,161.86C276.6,158.96 236.1,135.56 191.5,109.86C147,84.16 104.7,59.76 97.5,55.56C90.4,51.46 78.7,44.66 71.5,40.56C64.4,36.46 47.3,26.56 33.5,18.66C19.8,10.66 6.6,3.06 4.3,1.76C1.9,0.36 0,-0.24 0,0.36C0,1.36 5.3,9.26 29.5,44.36C36.8,54.86 108,158.46 117.6,172.36Z " /><path id="路径 2" fill-rule="evenodd" style="fill:#FFFFFF" transform="translate(270.40171963276873 372.36109393313296)  rotate(0 64.7991401836156 37)" opacity="1" d="M8.6,18.1C4.5,18.7 0.7,19.6 0.2,20.1C-0.8,21 1.2,24 24.8,58.3C30.8,66.9 36.1,74 36.5,74C37.4,74 44.7,70.8 55.1,66C58.4,64.5 65.6,61.3 71,59C76.4,56.7 81.6,54.5 82.5,54C85.5,52.6 93,49.2 105.6,43.7C112.5,40.7 120.2,37.3 122.8,36.1C125.4,35 128,34 128.5,34C129.2,34 129.6,28.3 129.6,17C129.6,7.7 129.2,0 128.8,0C128,0 117,1.7 45.6,12.6C29.4,15 12.7,17.5 8.6,18.1Z " /><path id="路径 3" fill-rule="evenodd" style="fill:#FFFFFF" transform="translate(796 372.3610939331331)  rotate(0 64.73068391772182 37.00000000000006)" opacity="1" d="M125.9,27C128.2,23.6 129.8,20.4 129.4,20C128.9,19.5 125.1,18.7 121,18.1C116.9,17.5 100.2,15 84,12.6C12.6,1.7 1.6,0 0.8,0C0.4,0 0,7.5 0,16.8L0,33.5L45.8,53.7C70.9,64.8 92,73.9 92.6,74C93.2,74 96.3,70.1 99.6,65.3C102.8,60.5 108.3,52.6 111.8,47.8C115.2,42.9 118.8,37.7 119.8,36.1C120.7,34.6 123.5,30.5 125.9,27Z " /><path id="路径 4" fill-rule="evenodd" style="fill:#FFFFFF" transform="translate(488.00000000000006 95.36109393313319)  rotate(0 109.99999999999994 165.99999999999991)" opacity="1" d="M0.2,149.7L0,268.7L38.7,291.1C60.1,303.4 84.7,317.6 93.5,322.7C102.3,327.8 109.6,332 109.7,332C110.1,332 114.5,329.5 162,302C168.3,298.3 183.2,289.8 195,283C206.8,276.2 217.3,270 218.3,269.2C219.9,267.8 220,264.3 220,222.8C220,198.2 219.7,178 219.3,178C218.8,178 210.4,182.7 200.5,188.4L182.5,198.8L182.2,222.8L182,246.8L146.7,267C127.4,278.2 111.1,287.5 110.7,287.7C110.3,288 96.3,280.3 79.7,270.7C63.1,261.1 47.1,251.9 44.3,250.4L39,247.5L39,149.9L39,52.2L52.8,44.2C60.3,39.8 68.6,35.1 71.2,33.6C73.7,32.2 79.5,28.9 83.9,26.2L92,21.3L73.6,10.7C63.5,4.8 54.8,0 54.4,0C53.9,0 41.6,6.9 27,15.3L0.5,30.7L0.2,149.7Z " /><path id="路径 5" fill-rule="evenodd" style="fill:#FFFFFF" transform="translate(174.29802300014651 253.64702668309513)  rotate(0 112.85098849992673 49.457033625018994)" opacity="1" d="M67.2,98.91L89.2,98.21C101.3,97.91 118,97.41 126.2,97.21C154.5,96.51 182.2,95.61 188.2,95.21C191.5,94.91 201.3,94.71 210,94.61L225.7,94.51L225.7,80.11L225.7,65.81L217.5,63.31C209.3,60.91 189,54.91 140.7,40.71C127.2,36.81 108.1,31.21 98.2,28.21C28.8,7.71 0.5,-0.39 0,0.01C-0.2,0.31 14.8,22.71 33.4,49.71L67.2,98.91Z " /><path id="路径 6" fill-rule="evenodd" style="fill:#FFFFFF" transform="translate(796 253.55384131408135)  rotate(0 112.80582148767354 49.45362630952576)" opacity="1" d="M0,65.91L0,80.21L0,94.61L15.3,94.71C23.6,94.81 33.2,95.01 36.5,95.31C44.2,95.91 76.8,96.81 108,97.51C121.5,97.71 132.6,98.11 132.7,98.21C132.9,98.31 138.5,98.51 145.4,98.71L157.8,98.91L160.7,95.11C163.3,91.71 172.9,77.81 175.5,73.61C176.1,72.71 184.4,60.71 194,46.81C203.6,33.01 212.2,20.61 213,19.31C213.8,18.01 217.1,13.21 220.2,8.71C223.4,4.21 225.8,0.31 225.6,0.01C225.2,-0.29 194.1,8.71 127.5,28.31C117.6,31.31 98.5,36.91 85,40.81C36.7,55.01 16.4,61.01 8.3,63.41L0,65.91Z " /><path id="路径 7" fill-rule="evenodd" style="fill:#FFFFFF" transform="translate(544.1739870411272 7.929898548695974)  rotate(0 129.91300647943643 153.66982640601685)" opacity="1" d="M109.03,66.23C109.43,66.43 118.83,61.33 129.83,54.93C140.93,48.53 150.63,43.53 151.33,43.83C152.13,44.13 161.83,49.63 173.03,56.03C184.23,62.53 199.63,71.43 207.33,75.83L221.33,83.93L221.63,125.53L221.83,167.13L205.13,176.63C195.83,181.93 186.73,187.13 184.83,188.13C175.73,193.23 139.13,214.43 128.83,220.43C103.53,235.43 54.63,263.43 53.93,263.43C53.53,263.43 44.03,258.13 32.73,251.63C5.13,235.63 1.23,233.43 0.43,233.43C0.13,233.43 -0.07,243.23 0.03,255.13L0.33,276.83L26.33,292.03C40.63,300.43 52.83,307.33 53.33,307.33C53.93,307.43 55.73,306.63 57.33,305.63C59.03,304.63 62.63,302.53 65.33,301.03C69.73,298.53 83.13,290.83 148.33,252.93C157.13,247.83 166.13,242.63 168.33,241.43C170.53,240.23 175.23,237.53 178.83,235.43C182.43,233.33 187.63,230.43 190.33,228.83C193.13,227.33 206.63,219.53 220.33,211.63C252.13,193.13 254.83,191.63 257.63,190.23L259.83,189.13L259.83,125.53L259.73,61.93L228.53,44.03C211.33,34.13 186.83,20.03 173.93,12.63C155.63,2.03 150.23,-0.67 148.93,0.13C148.03,0.63 130.93,10.43 110.83,21.93C90.73,33.33 73.73,43.23 73.13,43.83C72.13,44.73 76.23,47.43 90.03,55.43C100.03,61.23 108.53,66.03 109.03,66.23Z " /><path id="路径 8" fill-rule="evenodd" style="fill:#FFFFFF" transform="translate(392 8.018124192346647)  rotate(0 158 116.67148487039321)" opacity="1" d="M113,45.44C120.7,49.64 244,120.44 269.5,135.34L277.5,140.04L277.8,170.74L278,201.34L282.8,198.74C285.4,197.34 293.9,192.34 301.8,187.74L316,179.24L316,148.54L316,117.84L306.2,112.44C300.9,109.44 287.1,101.54 275.5,94.84C264,88.14 243.7,76.44 230.5,68.84C217.3,61.24 198.6,50.44 189,44.84C179.4,39.24 168.8,33.14 165.5,31.34C162.2,29.54 148.3,21.54 134.6,13.64C113.9,1.64 109.3,-0.66 107.6,0.14C106.4,0.64 95.1,7.14 82.4,14.44C69.7,21.84 46,35.54 29.7,44.84L0.1,61.84L0,125.44L0,189.04L29.3,205.94C45.3,215.14 62.6,225.14 67.5,228.04C72.5,230.94 77.1,233.24 77.8,233.34C78.7,233.34 79,228.44 79,211.84L79,190.34L76.1,188.54C74.4,187.64 65.2,182.34 55.6,176.84L38.1,166.84L38,125.34L38,83.84L73.2,63.44L108.5,43.04L113,45.44Z " /></g></g></svg>