<svg version="1.0" xmlns="http://www.w3.org/2000/svg" width="653.333" height="880" viewBox="0 0 490 660"><path d="M249.6 8.5c-3.1 3.1-3.4 5.1-4.1 21.5-.6 15.9-1.7 26.7-3.5 34-.5 1.9-1.2 5.1-1.5 7-.3 1.9-.8 4.2-1 5-.2.8-.7 2.8-.9 4.5-3.2 19.2-4.4 24.1-8.9 35.6-1.4 3.5-4.4 11.3-6.7 17.4-4.5 11.7-7.7 18.7-20.3 44-9.7 19.6-11.5 22.5-13 21.9-.7-.3-4.1-4-7.6-8.1-5-5.8-6.1-7.7-5-8.4 1.1-.6 1.4-4.2 1.4-17.1 0-23.4-1.2-63-2-65-1-2.5-4.1-4.2-12.5-6.8-4.1-1.2-13.3-4.5-20.4-7.2-13.6-5.2-16.9-5.6-17.4-2.3-.3 2.2 5.6 10.4 14.1 19.5 6 6.4 12 15.3 17.3 25.9 3.7 7.3 3.8 7.6 4.4 22.5.5 12.2 1 15.6 2.4 17.8 1.8 2.7 1.8 2.8-.2 2.8-2.6 0-2.8 1.5-2.1 10.9.3 4.8 1.1 8.4 2.1 9.6.9 1.1 4.4 5.5 7.8 9.7 3.4 4.3 6.7 8.1 7.5 8.5 1.3.8 7 7.9 24.2 30.3 20.2 26.4 25.8 33.5 29.9 37.9 2.4 2.5 5.3 6.4 6.4 8.6l2.1 4-3.1-3.8c-5.1-6-6.7-5.3-13.9 6-6.1 9.7-15.5 23.6-22.3 33-1.9 2.6-3.8 5.6-4.1 6.5-.7 2.1 4.5 9.5 7.8 11 2.2 1 3.1.7 6.8-2 9.5-7.2 21.8-11.4 30.7-10.6 17.6 1.5 26.1 2.7 27.8 3.8 2.5 1.5 7.2 8.9 7.2 11.3 0 2.2-3.4 10.1-4.9 11.3-.3.3-1.9 2.3-3.4 4.5a235 235 0 0 1-5 7c-1.2 1.7-4 5.5-6.2 8.5-2.1 3-4.7 6.4-5.7 7.5-3.7 4.3-15.5 18.4-18.8 22.4-10.5 13-10.8 14.9-5 28.6 2.3 5.4 5.3 11.5 6.6 13.6 2.3 3.6 2.4 4.5 2.4 22.3 0 10.4-.7 23.1-1.5 28.8-.7 5.7-2.1 15.7-3 22.3-.9 6.6-2.3 14.5-3.1 17.5-.8 3-2.3 8.6-3.3 12.5-2.2 8.2-3 10.4-7.7 20.5-7.4 15.7-8.6 17.8-11.3 20.6-1.5 1.6-4 4.8-5.4 7.1-1.5 2.4-5 5.7-8.2 7.7-5.4 3.5-6.3 5.2-4.9 9 .7 1.7 8.1 2.2 14.5.9 5.4-1 19.4-15.9 24.7-26.2 2.4-4.6 4.8-9.1 5.3-10 2.1-3.5 14.7-38.9 15.2-42.6.4-2.2.9-6.7 1.2-10 .6-6.5 2-17.6 3.6-29.5.6-4.1 1.1-17.4 1.2-29.6.2-24.1.4-23.1-6.9-37.5-3.7-7.2-3.3-8.8 5-18.7 4-4.8 7.8-9.7 8.4-10.9.6-1.1 4.8-6 9.3-10.9 4.5-4.9 9.8-11.2 11.9-13.9 2-2.8 6.2-7.4 9.1-10.4 3-2.9 6.2-6.5 7.1-8 3.6-5.3 1.4-15.2-6.2-27.6-5.3-8.6-9.7-12.8-17.8-16.7-6.5-3.1-7.8-4.9-2.1-2.9 3.4 1.2 5.9.1 5.9-2.4 0-.7-3-4.8-6.7-9.2-3.6-4.3-7.4-9-8.3-10.6-.9-1.5-3.5-4.6-5.7-7-2.2-2.3-4.6-5.4-5.3-6.7-1.5-2.9-6.3-9.1-10-13.1-1.4-1.5-3.9-4.6-5.6-7-1.7-2.4-9.9-13.5-18.3-24.7-9.5-12.8-15.1-21.1-15.1-22.6 0-2.5 4.7-14.2 8.2-20.4 2.9-5.1 11.1-21.7 13.8-27.7 1.2-2.8 3.3-7.2 4.7-10 1.4-2.7 3.8-8.6 5.5-13 1.7-4.4 3.8-9.1 4.8-10.5.9-1.4 3.4-6 5.5-10.3l4-7.7 1.7 2.2c2.3 3 5.6 9.9 10.8 22.3 7.7 18.3 16.4 37.1 20.6 44.5 7.4 12.9 12.5 23.8 13 27.5.5 3.3.1 4.7-2.3 8.1-1.5 2.2-5.1 7.4-8 11.6-5.2 7.5-13 18.2-18.1 24.7-1.5 1.8-3.9 5.2-5.4 7.5-1.5 2.2-3.9 5.6-5.3 7.4-1.8 2.1-2.7 4.5-2.8 6.9-.1 3 .5 4.2 3.8 7 4.6 4 5.8 4.1 8.2.8 1-1.4 4.3-5.9 7.3-10 3-4 8.1-11.1 11.3-15.7 3.2-4.6 8.7-12.4 12.3-17.3 3.5-5 9.4-13.4 13.1-18.9 3.7-5.4 10-13.2 14-17.3 4-4.1 7.3-7.7 7.3-7.9 0-.3 1.6-3.8 3.5-7.7 3.5-7.2 3.8-11.7 1-11.7-.7 0-4.1 2-7.6 4.5s-8.2 5.7-10.4 7.1c-2.2 1.5-5 3.6-6.3 4.7-2.2 2.1-2.3 2.1-4.2.1-2.6-2.5-13.4-19.7-16.1-25.4-1.1-2.5-3.3-8.1-4.8-12.5-9-26-11-31.5-12.5-34.3-.9-1.8-1.6-3.3-1.5-3.4.2-.2-2.3-8-5.4-17.3-8.6-26.3-12.2-44.9-13.1-68.7-.8-19.4-2.5-25.8-6-22.3zM247 297.8c1.9 2.5 4.5 6.3 5.8 8.4l2.3 3.8h-15.3l2.6-4.6c2.6-4.6 2.7-8.2.3-11.2-.5-.6-.6-1.2-.1-1.2.5.1 2.5 2.2 4.4 4.8z"/><path d="M352.5 85.1c-3.8 1.7-13.1 5.1-20.6 7.5-16.5 5.3-18 6.6-17.9 15 .1 3.2-.3 16.9-.9 30.4-1 25.2-.7 42.8.9 44.4 1 1 5-1.3 10.6-6.3l3.9-3.5.6-16.5c.7-16.2 1.9-22.5 5.3-27.1.6-.8 2-3.3 3.1-5.5 3.3-6.5 7.7-12.8 14-20.1 3.3-3.7 7.4-8.4 9.1-10.3 4.1-4.7 5.5-7.6 4.8-9.5-.9-2.4-5.1-1.9-12.9 1.5zM163.5 201.8c-.3 1.6-.3 30.1.1 63.3.9 79.6.6 182.5-.7 191.9-2.5 19.8-4.1 30.8-5 34.1-.5 2-.9 4.9-.9 6.5 0 1.6-.7 5-1.4 7.6-.8 2.6-2.4 9.2-3.6 14.8-1.2 5.6-3.3 13.1-4.7 16.8-1.4 3.7-3 8.5-3.5 10.6-1 4.4-8 20.7-13.3 31.1-6.7 12.9-12.8 20.9-24.9 32.8-9.2 9-13.5 12.4-18.5 14.9-7.2 3.4-23.5 7.8-29.1 7.8-1.9 0-5.1.5-7 1-1.9.6-9.6 1.5-17 2-11.4.8-14.9 1.4-22.5 4.2C2.6 644.5 1 646 3 649c1.5 2.3 70.1 1.8 85.3-.6 10.7-1.7 11-1.8 20.7-8.5 6.9-4.8 11.6-9 15.7-14.1 6.8-8.4 16.5-22.6 21.3-31.3 1.8-3.3 3.9-6.9 4.6-8 2.1-3.2 14.3-39.1 16.8-49.5 3.5-14.2 7.7-35 9.1-45 .9-5.8 2.1-14.3 2.8-19 .8-6.1 1.2-24.9 1-66 0-31.6-.1-86.5-.1-122s0-65.3-.1-66.3c0-1-1.2-3.5-2.7-5.5-4.6-6.1-11.7-14.2-12.5-14.2-.4 0-1 1.3-1.4 2.8zM323.3 213.2c-1.6 1.8-4.9 5.8-7.1 8.8l-4.1 5.5-.6 80.5c-1.1 160.8-1.3 150.5 3.1 182 1.9 13.9 7.9 41.4 12.7 58.5 2.3 8.2 12.8 36.9 14.1 38.5.7.8 2.7 4.4 4.6 8 1.8 3.6 5.3 9.3 7.6 12.8 2.4 3.5 4.4 6.6 4.4 7 0 .4 3.9 5.2 8.8 10.6 12.8 14.6 22 20.6 34.1 22.5 4.1.6 7.7 1.4 8.1 1.6 1.4.9 73.6 1.6 76.5.7 3.9-1.1 4.7-4.8 1.3-6.1-13.4-5.6-16.4-6.4-28.7-7.2-20.9-1.3-41.6-5.3-51.9-10-15-6.8-36.4-30.4-46.4-50.9-6.9-14.2-9.6-20.5-11.3-26-.9-3-2.9-9.1-4.5-13.5-1.5-4.4-3.1-9.6-3.5-11.5-.4-1.9-1.7-8.2-3-14-3.2-14.5-5.1-24.9-6.5-35.5-.6-5-1.7-11.9-2.3-15.5-.7-4.1-1.2-22.3-1.3-48.5 0-23.1-.1-50.1-.2-60 0-9.9.2-42.1.6-71.5.7-55.2.6-70-.7-70-.4 0-2.1 1.5-3.8 3.2zM193.3 343.2c-1.7 2.3-4.4 10.4-4.9 15.5l-.6 4.9 5.1 3.9c5.7 4.4 6.1 5.6.7 2.4-4.1-2.4-5.8-2.1-8.1 1.5-2 3.1-2.9 26.7-1.5 41.1.7 7.8 1.4 10.1 5 17 2.4 4.4 6.2 10.7 8.6 14.1 4 5.7 10.6 12.4 12.2 12.4.4 0 1.9 1 3.3 2.2 4.6 4.2 11.5 7.7 16.4 8.5 5.1.8 7.5-1.6 7.5-7.8 0-4.2-.4-5.1-3.2-7.2-1.8-1.4-4.4-2.8-5.8-3.2-2.4-.7-7.2-3.7-9.6-6-.6-.5-3.7-3.2-6.8-5.9-13.8-11.8-18.9-31.1-13.5-51.2 1.2-4.3 2.1-8.7 2.1-9.7-.1-.9.2-1.7.5-1.7.6 0 6 4.7 15.4 13.5 10.8 10.1 17.8 15.1 19.7 13.9 2.1-1.3 11.2-14.4 11.2-16.2 0-1.5-1.4-2.8-13-11.4-5.2-3.9-11.5-9-14-11.2-5.6-5.1-23.9-20-24.9-20.4-.5-.1-1.2.3-1.8 1zM297.8 377.1c-1.8 2.2-4.8 5.7-6.7 7.7-4.9 5.4-5.4 7.4-3.5 14.5 2.4 9.3 1.5 22.4-2.2 30.2-4.5 9.5-15.1 18.5-21.7 18.5-1.6 0-3.1 1-4.2 2.6-1.5 2.3-1.6 3.9-.9 12.3.9 9.6.9 9.6 3.5 9.3 1.5-.1 4.4-1.2 6.6-2.5 27.5-15.6 35.2-31.6 36.9-77 .7-20.5-1-24-7.8-15.6z"/></svg>