<?xml version="1.0" standalone="no"?><svg version="1.0" xmlns="http://www.w3.org/2000/svg" width="1200" height="628" viewBox="0 0 900 471"><path d="M371 12.9c-17.5 3.1-34.5 15.5-42 30.6l-3.5 7 .2 16.6c.3 23.7 1.5 26.2 22.8 47.4 15.1 15 17.9 18.5 20.1 24.9 1.4 4.1 1.4 5.1.1 9-2.8 8.1-8.7 12.9-22.2 18.1-3.8 1.4-8.7 3.3-10.7 4.1-2.1.8-5.5 2-7.5 2.8-8.5 3.2-23.7 9.3-29.3 11.9-22.9 10.4-35.9 18.3-45.5 27.6-4.9 4.8-9.4 8.1-13.8 10.2-6.4 2.9-7.2 3.1-16.9 2.7-8.5-.3-11.5-.9-17.3-3.2-5.8-2.4-19.6-10.2-31.3-17.8-3.6-2.3-8.5-4.6-15.2-7-7.5-2.7-25.5-2.9-32.6-.3-10.3 3.7-16 7.1-21.9 13-8 8-11.8 15.6-13.9 27.5-.9 5.2-1.9 10-2.1 10.7-.3.8-2.1.3-5.7-1.5-2.9-1.5-7.8-3.8-10.8-5-3-1.3-6.4-2.7-7.5-3.1-6-2.5-22.8-6.1-28.6-6.1-8.7 0-18.8 3.8-23.9 8.9-7.2 7.3-8.5 12.2-5.1 18.9 4.7 9.2 12.6 13.5 32.6 17.7 4.4 1 9.7 2.4 11.8 3.1 2 .8 4.4 1.4 5.2 1.4 3.6 0 15.4 6.8 21 12 8.1 7.5 11.9 9.1 21.9 9.1 6.2 0 9.3-.5 13.1-2.2 6.9-3 17.2-13.7 21.1-21.9 3.7-7.8 5.7-19.4 4.4-26-.5-2.5-.9-6.2-1-8.2 0-3.3.4-3.9 2.8-4.5 1.5-.4 6.1-.7 10.4-.7 13.1.3 27.4 6.6 37 16.4 6.4 6.5 8.3 11.5 7.5 19-.4 3.6-1.1 5-3.8 7-5.1 3.8-13.8 12.7-14.9 15.3-.6 1.2-1.4 2.9-2 3.7-2 3.2-5.2 11.8-8.5 23.5-2.5 8.6-4.2 13.2-7.6 20.1-4.7 9.7-4.9 9.8-19.2 9.5-6.7-.1-16.6-.8-21.9-1.6-18.9-2.9-34.5-1.7-44.8 3.3-15.7 7.6-25.7 28-19 38.9 3.4 5.6 8.3 7.3 21 7.3 6.1 0 13.9-.6 17.3-1.4 11.7-2.7 18.1-3.4 24.2-2.5 27.5 3.8 37.9 4.1 50 1.5 16.9-3.6 24.2-8.8 30.9-22.1 2.8-5.8 3.7-8.9 4.5-17 1.3-13.1 2.2-16.8 5.6-23.8 3-6.5 12.1-16.4 17.5-19.1 8.3-4.3 18.6-5.6 26.5-3.5 5.4 1.4 11.7 4.5 14.3 7 2.7 2.4 2.6 3.4-2 20.9-8.1 31.5-8.9 36-9.5 51.8-.6 13.5-.7 14.3-2.7 14.6-1.2.2-7 1-13.1 1.6-21.2 2.3-38.4 10-44.8 20.2-5.1 8.2 1.6 24.8 11.1 27.6 8.9 2.7 41 .3 56.8-4.2 12.7-3.6 24.8-11.4 31.2-19.9 4.8-6.6 6.6-10.7 8.2-19 1.2-5.6 1.2-7.6 0-11.9-2.2-8.7-1.8-20.4 1-27.8 4.6-12.3 16.2-20.6 28.5-20.2 4 .1 12.8 2.1 17.5 4 3.9 1.6 22.9 6.3 32.5 8.2 42.2 7.9 79.1 9 116 3.4 13.4-2.1 20.2-3.7 38-8.8 14.7-4.3 19.2-4.9 34-5l15-.1 6.1 3.3c12.8 6.9 18.8 20.7 15.8 36.3-2.5 13.2-1.6 20.8 3.9 31.8 2.2 4.3 5.4 8.4 10.1 12.7 3.8 3.5 7.3 6.4 7.9 6.4.6 0 1.8.6 2.6 1.3 4.9 4.1 18.8 7.7 29.5 7.7 5.9 0 9.9.5 11.1 1.3 3 2 9.7 3.7 14.4 3.7 6.8 0 12.1-2.2 17.1-7 13-12.6 9.6-31.8-6.9-39.3-6.3-2.8-6.8-2.9-11.6-1.7-2.7.8-8.4 1.3-12.6 1.4-8.5 0-11.6-1.5-16.5-8-4-5.2-6.3-18.5-6.3-37.7-.1-14.7-2.3-22.4-9.4-33.4-3.2-5-3.4-8.6-.8-12.9 3.8-6.3 7.1-7.3 23.7-7.6 14.8-.2 15-.2 20.3 2.7 10.5 5.7 14.3 13.1 21.7 41.5 2.5 10 4.4 16.2 6 19.7.8 1.7 1.4 3.4 1.4 3.8 0 1.3 6.5 10 9.5 12.8 7.1 6.6 9.2 7.2 29 7.1 12.9 0 20.1-.4 25.5-1.6 9.8-2.2 26.6-3.1 36-2 5.1.6 10.1 2.1 15.8 4.7 9.6 4.4 10.5 4.2 17.8-3.2 8.6-8.7 7.9-19.2-1.8-29.8-7.4-8.1-13.9-12-29.6-17.9-2.8-1.1-7.5-1.6-14.1-1.6-10.2 0-12 .5-23.1 5.8-8 3.9-17.2 3.8-22.3-.1-4.4-3.3-8.7-10.4-11.2-18.5-1-3.1-2.3-7.3-3-9.2-.7-1.9-2.1-6.2-3-9.5-2.3-7.3-7.5-17.7-11.6-22.8-1.7-2.1-6.5-7.4-10.6-11.8-7.4-7.9-7.4-8.1-6.8-12.2 1.5-9.2 10.8-18.5 22.5-22.2 3-1 8.2-3 11.5-4.6 3.3-1.5 7.1-3 8.3-3.4 3.6-1 8.6.3 10 2.6 2.3 3.6 4.1 12.4 4.8 22.6.7 11.2 3.3 21.9 6.3 26.2 1.3 1.7 5 4.3 8.9 6.2 6.1 2.9 7.6 3.1 16.7 3.2 13.4 0 18.8-1.8 46-15.3 23-11.4 31.9-15 37-15 4.7 0 12.6-5.7 15.5-11.2l2.4-4.6-2.2-4.4c-5.5-11-21.3-18.8-38.3-18.8-10.1 0-15.2 1.8-21.4 7.6-14.6 13.6-19.6 11.5-27.4-11.5-4-11.6-8.1-19.3-13.1-24.1-4.8-4.7-8-6-14.4-6-1.8 0-3.6-.4-4.1-.9-1.7-1.6-14.3-2.8-20.8-1.9-8.5 1.1-20.2 6-33.5 14-19.3 11.7-30.6 16.1-40.7 16-7.2-.1-12.2-2.1-18.4-7.1-4.6-3.8-25.3-18.1-28.1-19.4-.8-.4-2.8-1.6-4.5-2.6-7.1-4.6-27.4-14.5-39.2-19.2-17.3-6.8-19.1-7.5-24.3-8.8-2.5-.7-6.7-1.9-9.5-2.7-2.7-.9-6.8-1.9-9-2.4-11.1-2.1-13.6-3.3-15.8-7.5-3.2-6.1-3.1-18.6.3-24 3.8-6.2 9.5-12 22.2-22.1 17.1-13.9 21.9-19.7 25.2-30.9 1.5-5 1.6-6.7.6-10.5-.7-2.5-1.5-7.2-2-10.5-1.6-11.7-5.8-20.6-14.5-30.3-3.6-4.1-14.1-10.9-21.1-13.7C513.2 4.8 481.3 18 468.9 47c-2.1 4.9-2.4 7-2.4 19 0 11.6.4 14.4 2.3 20 3.7 10.2 9.4 20.3 15.3 26.7 1.6 1.8 4.5 6.1 6.4 9.7 5.6 10.2 5.9 23.2.6 28-7 6.3-40.2 10.4-61.8 7.6-11-1.5-11.8-1.7-15.3-4.6-4.6-3.9-6.3-8-6.3-15 .1-7.2 1.7-10.7 8.9-19 3-3.4 5.4-6.4 5.4-6.7 0-.3 1.2-2.3 2.6-4.4 11.7-17.2 16.4-43.6 10.6-60-5.3-15-19-27.5-37.2-33.8-5.2-1.8-20.5-2.7-27-1.6zm17.3 27.6c6.3 3.1 13.6 10.3 16.7 16.6 2.5 4.9 3.4 12.5 2.1 17.5C404.5 84.1 391 94 380.5 94c-12.8 0-25.1-10.2-28.5-23.8-2.9-11 3.9-25.3 14.9-31.2 5.2-2.9 13.8-2.3 21.4 1.5zm141.2-2c16.8 4.4 27.9 15.9 28 29.1 0 5.4-.4 6.7-3.5 11.3-3.6 5.3-8.5 9.3-15.7 13-3.3 1.6-6 2.1-12 2-9.2 0-14.3-1.8-20.8-7.2-6.6-5.6-8.5-9.9-8.5-19.6 0-15.1 6.7-25.4 19-29.2 3.9-1.2 7.1-1 13.5.6zm-57 151c12.1.8 24.5 1.8 27.5 2.4 3 .5 9.6 1.7 14.5 2.6 10.6 1.9 20.2 4 26.5 5.9 2.5.7 7.2 2.1 10.5 3.1s10.3 3.3 15.5 5.3c5.2 1.9 11.3 4.1 13.5 4.8 2.2.8 13.2 6 24.5 11.5 11.3 5.6 23.3 11.6 26.8 13.3 12.1 5.9 21.2 16.3 21.2 24.2 0 3.3-3.2 9.7-6.1 12.1-.8.6-4.5 2.8-8.3 4.8-3.9 2.1-11.1 6.8-16 10.5-12.3 9.1-22.7 15.4-39.1 23.4-10.8 5.3-25 11.2-33 13.6-2.2.7-5.6 1.8-7.5 2.5-3.3 1.2-8 2.3-25.7 6-4 .8-8.9 1.5-10.9 1.5s-7.1.6-11.3 1.4c-4.2.8-16.6 2-27.6 2.6-31.5 1.9-60.1-.3-86.5-6.7-5.8-1.4-12.1-2.9-14-3.3-10.4-2.5-36.8-13.8-47.5-20.3-5.9-3.6-13.6-9.1-18.2-12.9-2.9-2.4-13.2-8.3-22.9-13.3-21.3-10.7-27.4-15.6-27.4-21.7 0-7.1 7.4-14 29.6-27.3 6-3.6 11.6-7 12.4-7.5 5.5-3.4 30.2-15 37.5-17.6 10.6-3.8 22.3-7.7 25-8.4 1.7-.4 7.3-1.9 12.5-3.3 23.3-6.1 45.5-9 80-10.5 1.4-.1 12.4.5 24.5 1.3z"/><path d="M367.5 58c-.8 1.6-1.5 4.1-1.5 5.5 0 4.8 2.3 11.9 4.4 13.7 5.6 4.7 23.6-1.1 23.6-7.5 0-3.4-3.8-8.4-8.9-11.6-3.9-2.5-5.8-3.1-10.4-3.1-5.2 0-5.8.2-7.2 3zM516.7 57c-3.1 2.5-4.1 6.6-3.2 12.8.5 3.7 1.6 5.5 4.6 8.4 4.5 4.3 7.7 4.8 13.6 2.1 6.2-2.8 7.3-4.2 7.3-8.9 0-5.4-4-10.3-11.1-14-5.9-2.9-7.9-3-11.2-.4z"/></svg>