<svg xmlns="http://www.w3.org/2000/svg" width="298.133" height="298.138"><text xml:space="preserve" style="font-style:normal;font-variant:normal;font-weight:600;font-stretch:normal;font-size:12.80000019px;line-height:0%;font-family:'Bauhaus LT Demi';-inkscape-font-specification:'Bauhaus LT Demi Semi-Bold';letter-spacing:0;word-spacing:0;fill:#000;fill-opacity:1;stroke:#000;stroke-width:2.13333344;stroke-miterlimit:4;stroke-dasharray:none" x="-13.348" y="1008.85" transform="translate(-10.934 -813.456)"><tspan x="-13.348" y="1008.85" style="font-size:25.51386642px;line-height:1.25;stroke-width:2.13333344"> </tspan></text><path d="m118.733 828.688-7.05 28.17c-44.158 18.595-75.47 61.944-76.273 112.926a125.73 125.73 0 0 0 .889 17.008l-20.032 19.372 41.267 71.473 26.064-7.451c20.59 16.007 46.354 25.708 74.439 26.15 29.49.464 56.741-9.36 78.35-26.15l26.079 7.45 41.267-71.472-20.032-19.372c.518-4.298.82-8.659.889-13.082.824-52.363-30.78-97.7-76.273-116.852l-7.05-28.17zm4.585 6.878h73.364l6.663 26.666c44.227 17.515 75.188 60.996 74.396 111.363-.07 4.471-1.058 10.042-1.612 14.376l-.007-.004 19.359 18.728-36.682 63.534-25.893-7.408.015.012c-20.297 15.51-47.243 27.086-74.769 26.653-26.197-.412-51.711-11.895-71.043-26.672l-.014.01-25.892 7.408-36.682-63.534L43.88 987.97l-.006-.017c-.706-5.528-1.703-12.317-1.613-18.051.772-49.065 31.45-90.632 74.396-107.653Z" style="fill:#000;stroke:none;stroke-width:1.06666672;fill-opacity:1;stroke-opacity:1" transform="translate(-10.934 -813.456)"/><path d="M153.122 876.833v12.122c-41.595 3.448-74.6 37.975-75.27 80.585-.203 12.969 2.614 25.276 7.795 36.266l-10.488 6.061 6.877 11.922 10.504-6.061c14.589 20.947 38.7 34.816 66.17 35.249 28.403.447 53.653-13.57 68.75-35.25l10.503 6.062 6.878-11.922-10.488-6.061a81.83 81.83 0 0 0 7.795-33.673c.684-43.484-32.546-79.619-75.27-83.165v-12.136h-13.756zm13.756 25.935c35.013 3.5 62.077 33.328 61.514 69.136a68.176 68.176 0 0 1-6.004 26.996l-25.19-14.544 5.731-9.93-36.968-.157 18.627 31.938 5.732-9.93 25.176 14.544c-12.64 17.507-33.344 28.765-56.57 28.4-22.453-.353-42.215-11.49-54.422-28.4l25.176-14.543 5.732 9.93 18.627-31.94-36.968.158 5.731 9.93-25.19 14.544c-4.006-8.885-6.167-18.77-6.004-29.16.552-35.083 27.425-63.558 61.514-66.958v29.073H141.66L160 963.952l18.341-32.097h-11.463z" style="fill:#000;stroke:none;stroke-width:3.37;stroke-linejoin:miter;stroke-miterlimit:4;stroke-dasharray:none;stroke-dashoffset:0;stroke-opacity:1;paint-order:normal" transform="translate(-10.934 -813.456)"/></svg>