<?xml version="1.0" encoding="UTF-8" standalone="no"?>
<!DOCTYPE svg PUBLIC "-//W3C//DTD SVG 20010904//EN" "http://www.w3.org/TR/2001/REC-SVG-20010904/DTD/svg10.dtd">
<svg version="1.0" xmlns="http://www.w3.org/2000/svg" width="900.000000pt" height="600.000000pt" viewBox="0 0 900.000000 600.000000" preserveAspectRatio="xMidYMid meet">
<metadata>
Created by potrace 1.10, written by Peter Selinger 2001-2011
</metadata>
<g transform="translate(0.000000,600.000000) scale(0.100000,-0.100000)" fill="#000000" stroke="none">
<path d="M6395 5750 c4 -18 2 -36 -4 -44 -13 -16 -107 -19 -133 -5 -10 6 -19 5 -23 -1 -11 -17 -163 -12 -202 7 -30 14 -39 14 -56 3 -24 -15 -166 -15 -181 1 -15 14 -124 11 -149 -5 -18 -11 -37 -12 -114 -2 -63 8 -98 9 -110 2 -10 -5 -74 -11 -143 -12 -69 -2 -154 -5 -190 -8 -36 -3 -96 -8 -135 -10 -179 -12 -228 -17 -236 -21 -4 -3 -54 -12 -111 -20 -148 -20 -159 -23 -198 -56 -45 -37 -31 -49 64 -49 54 0 72 -4 82 -17 19 -25 17 -39 -10 -67 -21 -23 -23 -36 -24 -123 -1 -117 19 -246 49 -302 32 -61 101 -133 150 -157 97 -46 113 -52 130 -46 24 10 100 126 102 158 2 22 -5 28 -48 46 -47 19 -158 88 -200 126 -43 38 -65 81 -65 125 0 23 -5 48 -12 55 -8 8 -8 15 -1 24 6 7 14 31 17 54 6 31 3 44 -8 54 -9 7 -16 21 -16 31 0 16 8 19 53 19 29 0 58 -5 65 -12 16 -16 15 -43 -2 -57 -14 -12 -10 -57 5 -67 5 -3 9 -17 9 -32 0 -37 26 -72 53 -72 12 -1 33 -7 47 -15 14 -8 40 -14 58 -15 19 0 48 -6 65 -14 18 -7 55 -22 82 -31 95 -34 145 -89 155 -170 4 -35 8 -40 29 -37 13 2 47 17 75 32 62 35 135 70 147 70 14 0 49 33 49 47 0 15 -77 73 -96 73 -7 0 -39 11 -71 24 -93 39 -154 57 -213 65 -30 5 -75 13 -100 19 -25 7 -75 15 -112 18 l-68 6 0 59 c0 52 -3 60 -26 75 -41 28 -14 35 90 24 304 -31 714 -57 742 -46 15 6 11 13 -26 47 -36 33 -48 39 -60 30 -41 -30 -61 -22 -85 36 -8 18 -19 33 -24 33 -17 0 -13 47 5 54 35 14 47 7 41 -23 -9 -43 15 -59 37 -26 9 14 26 25 39 25 12 1 33 7 47 15 26 15 136 20 203 9 31 -6 37 -11 37 -30 0 -20 -5 -24 -29 -24 -40 0 -48 -16 -19 -40 27 -23 44 -25 51 -7 3 9 27 14 73 15 37 1 73 7 80 12 9 8 18 4 33 -16 26 -33 26 -43 4 -51 -10 -3 -27 -14 -38 -23 -17 -15 -30 -16 -90 -9 -78 10 -108 5 -103 -18 6 -29 74 -40 289 -47 117 -4 221 -12 231 -17 19 -10 23 -45 9 -68 -6 -9 -6 -22 0 -34 14 -25 13 -121 -1 -147 -6 -12 -16 -67 -22 -123 -7 -77 -14 -106 -27 -117 -23 -19 -51 -77 -51 -105 0 -12 11 -43 24 -71 20 -42 22 -50 9 -58 -8 -4 -27 -6 -42 -3 -15 3 -39 0 -53 -7 -13 -7 -37 -16 -52 -20 -15 -4 -40 -18 -54 -31 -15 -14 -35 -25 -44 -25 -23 0 -86 -66 -90 -94 -2 -12 -1 -38 1 -58 4 -45 21 -49 57 -13 35 35 55 31 105 -22 59 -63 79 -93 79 -124 0 -26 -10 -34 -78 -59 -39 -15 -72 -54 -72 -85 0 -12 -7 -28 -15 -35 -17 -14 -20 -51 -4 -67 7 -7 -3 -23 -35 -55 -24 -25 -53 -59 -64 -77 -32 -53 -126 -146 -173 -171 -24 -13 -57 -22 -72 -21 -20 1 -40 -8 -63 -29 -27 -24 -44 -30 -79 -30 -35 0 -52 -6 -78 -30 -25 -22 -45 -30 -71 -30 -29 0 -44 -7 -67 -32 -16 -18 -29 -40 -29 -49 0 -9 -7 -22 -15 -29 -19 -16 -19 -89 0 -113 13 -18 92 -43 103 -33 3 3 0 12 -7 19 -9 11 -8 17 3 27 23 18 34 4 34 -44 0 -40 -2 -44 -36 -58 -82 -33 -95 -35 -128 -16 -18 11 -60 20 -101 23 -65 5 -73 4 -101 -20 -18 -15 -42 -25 -61 -25 -24 0 -31 -4 -31 -19 0 -11 -5 -23 -10 -26 -16 -10 -50 -91 -50 -120 0 -14 7 -40 16 -57 15 -29 15 -31 -14 -62 -65 -69 -82 -89 -82 -102 0 -7 -13 -29 -30 -47 -16 -19 -30 -39 -30 -43 0 -5 -12 -27 -27 -49 -33 -49 -83 -146 -83 -162 0 -7 9 -13 20 -13 43 0 42 -57 -3 -115 -12 -16 -18 -17 -28 -8 -10 10 -9 20 6 47 11 20 16 39 12 43 -15 14 -42 -14 -45 -46 -3 -26 -7 -31 -29 -31 -46 0 -309 138 -404 212 -20 15 -41 28 -46 28 -5 0 -22 14 -38 30 -16 17 -32 30 -37 30 -16 0 -138 95 -138 108 0 8 6 28 14 45 19 44 36 298 29 434 -6 121 3 177 40 251 24 47 50 54 105 26 31 -15 52 -12 52 7 0 16 -38 48 -65 55 -14 3 -25 10 -25 15 0 13 -85 11 -115 -3 -22 -10 -28 -9 -36 3 -8 12 -10 12 -19 -1 -5 -8 -11 -19 -13 -24 -5 -16 -27 4 -27 25 0 11 -5 30 -11 41 -13 24 0 42 23 33 8 -3 20 -17 26 -31 22 -48 45 -22 56 64 l7 52 -61 0 c-47 0 -68 5 -90 22 -27 19 -28 23 -15 42 8 11 15 32 15 46 0 14 5 31 11 37 6 6 11 27 11 47 0 20 6 43 14 50 7 8 16 26 20 42 4 16 13 35 21 42 7 7 13 24 13 37 0 13 5 27 10 30 6 3 10 16 10 29 0 14 12 32 30 46 17 13 30 29 30 37 0 37 142 153 187 153 9 0 21 7 27 15 18 23 157 23 201 -1 19 -10 35 -24 35 -31 0 -18 -49 -16 -56 2 -5 11 -22 15 -69 15 -57 0 -68 -4 -121 -40 -33 -21 -74 -55 -93 -75 -19 -19 -38 -35 -42 -35 -5 0 -9 -11 -9 -24 0 -13 -7 -26 -14 -29 -8 -3 -18 -22 -22 -42 -3 -19 -10 -38 -15 -41 -5 -3 -9 -25 -9 -50 0 -25 -7 -56 -16 -69 -9 -14 -14 -35 -11 -47 8 -28 -11 -104 -29 -119 -8 -6 -14 -22 -14 -36 0 -21 4 -24 32 -21 31 3 33 6 40 51 3 27 11 54 16 60 5 7 12 32 16 56 11 74 61 232 85 271 22 36 136 139 167 150 29 12 63 6 119 -21 79 -37 105 -73 105 -146 0 -56 -13 -69 -31 -30 -34 74 -179 76 -179 3 0 -10 -7 -30 -16 -46 -45 -75 38 -170 147 -170 55 0 135 41 145 75 4 11 12 27 20 36 10 11 13 41 11 110 -3 81 -7 99 -29 134 -33 52 -63 84 -116 124 -39 30 -88 45 -177 52 -16 1 -126 -30 -159 -46 -17 -8 -44 -26 -61 -41 -16 -14 -40 -34 -52 -45 -13 -10 -23 -25 -23 -32 0 -7 -13 -26 -30 -42 -16 -16 -30 -39 -30 -52 0 -12 -8 -27 -19 -32 -10 -6 -24 -25 -31 -43 -16 -41 -33 -84 -50 -123 -18 -43 -49 -166 -50 -193 0 -15 -9 -26 -25 -32 -29 -11 -30 -16 -9 -37 12 -12 14 -27 9 -67 -4 -27 -11 -57 -16 -66 -10 -19 -27 -94 -40 -180 -6 -36 -15 -70 -20 -76 -5 -6 -12 -33 -15 -60 -3 -27 -12 -62 -19 -79 -19 -44 -36 -97 -42 -125 -2 -14 -11 -38 -18 -55 -35 -78 -45 -104 -45 -118 0 -9 -4 -18 -9 -22 -5 -3 -12 -18 -16 -34 -3 -16 -15 -37 -26 -47 -17 -15 -24 -16 -53 -6 -39 14 -80 15 -104 3 -38 -20 -169 -32 -214 -20 -70 18 -172 13 -226 -12 -59 -27 -80 -36 -112 -45 -14 -4 -42 -18 -62 -31 -21 -13 -57 -29 -80 -37 -184 -59 -183 -59 -280 -51 -51 4 -97 11 -103 15 -5 4 -24 12 -40 17 -40 13 -135 84 -135 101 0 8 19 12 63 12 145 0 227 65 227 180 0 44 -5 63 -24 89 -38 51 -60 62 -113 59 -41 -3 -48 -6 -51 -25 -3 -18 3 -23 32 -28 39 -8 69 -44 64 -78 -2 -11 -21 -34 -44 -50 l-41 -28 -52 17 c-71 23 -106 67 -127 161 -9 43 -14 94 -11 125 7 62 29 179 38 193 3 6 9 23 13 40 13 51 46 76 46 34 0 -12 17 -38 38 -59 30 -30 47 -39 91 -45 46 -6 57 -5 68 10 15 21 1 45 -26 45 -9 0 -29 14 -45 32 -28 32 -28 34 -24 138 4 99 17 157 55 248 14 33 13 120 -2 155 -12 27 21 21 79 -15 41 -26 61 -32 105 -31 39 0 56 5 63 17 5 9 18 16 29 16 22 0 34 22 25 46 -6 16 -8 16 -24 0 -33 -29 -105 -12 -116 28 -3 11 -3 58 1 102 4 64 2 88 -10 113 -16 31 -15 32 9 41 14 6 32 10 39 10 19 0 156 51 180 67 23 16 111 18 120 2 10 -15 53 -29 70 -23 22 9 19 31 -5 37 -11 3 -20 12 -20 20 0 27 20 29 40 5 16 -20 19 -21 25 -6 4 9 5 27 3 40 -2 18 -10 24 -38 26 -35 4 -70 26 -70 45 0 6 16 25 35 44 33 32 41 55 37 105 -2 24 -33 58 -53 58 -21 0 -99 -68 -99 -86 0 -22 -133 -148 -177 -168 -22 -10 -68 -21 -102 -25 -71 -9 -94 1 -164 71 -47 46 -94 78 -117 78 -8 0 -28 7 -44 15 -34 18 -77 19 -148 4 -110 -24 -172 -78 -183 -159 -4 -25 -8 -55 -11 -68 -3 -17 2 -25 21 -32 22 -9 32 -31 26 -64 -1 -5 5 -17 14 -26 16 -17 15 -19 -4 -30 -25 -13 -26 -20 -7 -46 14 -18 15 -18 25 9 11 27 43 37 56 17 3 -5 16 -10 27 -10 12 0 30 -7 40 -17 17 -15 19 -15 38 2 11 10 20 22 20 27 0 15 43 47 62 48 16 0 67 19 110 41 36 18 64 -8 77 -74 6 -34 11 -71 11 -82 0 -11 0 -45 0 -75 1 -40 -6 -69 -24 -105 -17 -32 -22 -53 -16 -59 15 -15 12 -62 -5 -76 -9 -7 -15 -29 -15 -51 0 -21 -4 -40 -9 -43 -5 -3 -12 -17 -15 -32 -4 -14 -25 -51 -46 -83 -22 -32 -40 -63 -40 -68 0 -6 -7 -16 -15 -23 -8 -7 -15 -22 -15 -34 0 -12 -8 -29 -18 -38 -51 -50 -53 -54 -38 -68 12 -9 13 -15 3 -26 -43 -48 -46 -58 -22 -68 22 -8 18 -39 -6 -54 -19 -12 -21 -20 -16 -66 6 -64 -1 -106 -19 -106 -22 0 -16 -38 6 -45 24 -7 25 -24 6 -69 -13 -32 -13 -35 11 -54 15 -12 27 -33 29 -53 2 -19 17 -46 33 -64 21 -21 31 -42 33 -70 2 -31 8 -41 23 -43 11 -3 28 -13 38 -23 10 -10 24 -19 32 -19 7 0 15 -4 17 -8 8 -19 79 -53 98 -47 12 4 30 0 43 -8 12 -8 59 -16 105 -20 74 -5 83 -3 93 14 5 10 18 19 29 19 10 0 21 4 24 9 4 5 29 12 56 16 28 4 71 18 96 31 25 13 58 24 74 24 16 0 42 5 57 11 95 38 98 39 133 29 19 -5 41 -5 56 0 13 5 30 7 38 4 19 -7 36 -57 36 -107 0 -32 -6 -46 -35 -73 l-35 -33 -40 17 c-43 18 -70 60 -70 106 0 74 -62 -22 -64 -98 -1 -35 5 -47 37 -78 25 -25 47 -38 65 -38 32 -1 90 -44 73 -54 -6 -4 -15 -5 -20 -1 -6 3 -18 -3 -28 -12 -59 -58 -86 -77 -120 -82 -28 -5 -39 -12 -41 -27 -2 -13 -19 -29 -47 -43 -25 -12 -47 -26 -50 -32 -4 -5 -21 -9 -38 -9 -21 0 -36 -7 -45 -20 -7 -11 -18 -20 -26 -20 -7 0 -34 -11 -59 -25 -60 -31 -77 -25 -77 29 -1 88 -15 126 -61 167 -57 49 -82 55 -122 30 -57 -35 -84 -82 -72 -121 9 -29 32 -24 44 10 12 35 39 40 66 10 16 -18 17 -23 4 -47 -8 -14 -29 -35 -47 -46 -38 -23 -41 -37 -7 -37 16 0 25 -6 25 -15 0 -10 -10 -15 -34 -15 -26 0 -36 5 -41 21 -6 17 -12 19 -37 13 -28 -6 -30 -4 -25 16 4 16 -2 29 -21 46 -15 13 -33 24 -39 24 -7 0 -13 11 -13 25 0 44 -32 25 -45 -28 -10 -38 -33 -34 -37 6 -2 26 -7 32 -26 31 -17 -1 -24 6 -29 26 -3 20 -17 34 -49 49 -24 13 -44 29 -44 37 0 8 -7 17 -15 20 -10 4 -15 20 -15 44 0 22 -7 43 -16 51 -10 8 -13 21 -9 37 3 13 2 29 -3 35 -10 13 -22 66 -25 112 l-2 30 68 1 c37 1 70 4 73 7 3 3 2 21 -2 41 -8 43 -48 70 -89 60 -14 -3 -25 -2 -25 4 0 5 -11 12 -23 16 -13 3 -44 26 -69 51 -25 25 -62 52 -82 60 -24 10 -36 22 -36 35 0 10 -6 23 -13 27 -8 4 -17 17 -21 27 -7 21 -22 12 -28 -17 -6 -35 -23 -15 -20 25 3 44 27 98 48 111 10 6 12 19 8 48 -5 28 -1 51 11 79 21 46 32 50 45 16 7 -19 14 -22 35 -19 15 3 33 -1 43 -10 31 -27 59 -29 101 -7 23 11 41 25 41 30 0 14 -42 40 -67 40 -12 0 -27 9 -33 19 -5 11 -20 21 -32 23 -28 4 -38 45 -14 54 21 8 21 30 0 38 -14 5 -14 8 0 28 9 12 16 37 16 56 0 20 6 35 15 38 8 4 15 15 15 26 0 12 9 36 21 54 16 26 27 34 50 34 26 0 29 3 27 28 -1 15 1 33 5 39 4 6 -2 13 -13 16 -26 7 -26 43 -1 56 10 6 24 24 29 41 7 20 18 30 31 30 12 0 23 9 27 22 4 13 19 35 33 49 72 75 74 79 32 79 -21 0 -32 6 -36 20 -3 11 -14 20 -22 20 -9 0 -24 7 -33 15 -15 13 -20 11 -54 -24 -28 -29 -37 -45 -32 -58 7 -17 9 -16 26 5 10 12 28 22 39 22 17 0 21 -6 21 -30 0 -39 -31 -55 -81 -43 -29 8 -35 14 -40 46 -4 23 -18 47 -38 66 -37 35 -56 38 -81 16 -16 -14 -20 -13 -43 15 -16 19 -35 30 -51 30 -20 0 -26 5 -26 21 0 42 18 59 65 59 24 0 47 5 50 10 11 17 -5 50 -24 50 -10 0 -24 7 -31 15 -7 8 -24 15 -39 15 -50 0 -69 11 -75 41 -7 35 -34 39 -61 9 -13 -14 -31 -20 -61 -20 -69 0 -70 32 -2 55 30 9 33 14 30 45 -4 42 -19 61 -28 37 -9 -23 -34 -21 -34 2 0 33 11 51 32 51 20 0 59 -17 68 -30 3 -4 28 -17 55 -29 28 -12 57 -26 66 -30 9 -5 40 -12 70 -16 44 -5 58 -4 68 9 17 21 8 33 -31 39 -105 17 -165 39 -238 85 -41 26 -72 28 -109 6 -38 -23 -72 -85 -59 -108 6 -10 8 -41 4 -70 -3 -32 0 -66 8 -91 12 -33 19 -41 44 -43 26 -3 31 1 41 29 11 31 12 32 62 26 28 -4 56 -11 63 -16 6 -5 24 -11 40 -13 34 -4 43 -20 22 -39 -38 -35 -48 -40 -69 -40 -65 3 -91 0 -108 -13 -19 -13 -18 -15 22 -50 24 -20 46 -36 50 -36 4 0 10 -8 13 -18 3 -9 15 -23 26 -30 17 -10 24 -10 43 3 27 19 64 19 97 0 14 -8 41 -14 61 -15 47 0 72 -28 99 -112 19 -60 20 -74 10 -125 -14 -68 -34 -104 -89 -158 -23 -21 -41 -47 -41 -56 0 -10 -5 -19 -11 -21 -11 -4 -38 -114 -39 -159 0 -14 -11 -46 -25 -70 -13 -24 -29 -55 -35 -69 -5 -14 -15 -34 -22 -45 -7 -11 -15 -42 -20 -70 -16 -110 -25 -155 -29 -159 -2 -2 -32 0 -65 5 -37 5 -75 5 -95 -1 -43 -13 -89 -13 -89 -1 0 5 17 27 38 48 37 38 112 143 112 157 0 8 37 43 75 72 25 19 34 44 15 44 -16 0 -11 27 6 34 10 4 14 12 10 22 -6 16 35 64 55 64 15 0 10 -47 -6 -54 -17 -6 -21 -36 -5 -36 6 0 14 8 17 18 4 9 13 23 20 31 8 7 13 28 11 45 -3 28 -7 31 -40 34 -34 3 -39 0 -52 -30 -8 -18 -17 -41 -20 -50 -3 -10 -13 -18 -21 -18 -14 0 -16 15 -14 114 3 131 -7 156 -66 156 -37 0 -55 -15 -55 -48 0 -21 4 -23 43 -20 41 3 42 2 45 -31 3 -27 -2 -39 -20 -53 -22 -17 -22 -19 -5 -32 19 -15 23 -41 7 -51 -5 -3 -10 -23 -10 -43 0 -33 4 -39 32 -50 l31 -12 -45 -42 c-25 -24 -49 -53 -52 -65 -4 -13 -11 -23 -16 -23 -4 0 -10 -9 -13 -20 -4 -14 -14 -20 -34 -20 -36 0 -46 -9 -32 -26 7 -9 2 -24 -20 -55 -17 -23 -31 -48 -31 -55 0 -7 -11 -23 -24 -36 -30 -29 -45 -122 -21 -132 19 -7 20 -26 0 -26 -8 0 -15 7 -15 15 0 8 -3 15 -7 15 -5 0 -25 16 -46 35 -44 41 -47 41 -70 15 -9 -11 -24 -20 -32 -20 -17 0 -32 -11 -68 -46 -54 -53 -66 -76 -73 -134 -6 -59 -18 -72 -41 -49 -8 8 -18 6 -36 -6 -15 -9 -30 -14 -36 -11 -14 9 -4 113 13 138 9 12 16 30 16 40 0 42 66 118 103 118 8 0 26 9 40 20 15 12 40 20 65 20 23 0 45 6 52 15 7 8 17 15 23 15 5 0 20 11 33 25 13 14 32 25 44 25 15 0 20 6 20 24 0 17 19 44 60 84 33 32 60 63 60 69 0 6 13 26 30 44 16 19 32 42 36 52 3 9 10 17 15 17 18 0 9 50 -13 72 l-22 22 -13 -40 c-13 -37 -40 -94 -66 -140 -7 -12 -44 -55 -82 -96 -75 -80 -173 -146 -230 -155 -20 -3 -38 -10 -41 -14 -3 -5 -17 -9 -31 -9 -19 0 -40 -15 -74 -52 -27 -29 -49 -60 -49 -68 0 -8 -7 -28 -16 -45 -8 -16 -16 -54 -18 -85 -2 -30 -7 -55 -12 -55 -27 1 -77 47 -106 97 -33 59 -58 74 -58 38 0 -11 -4 -20 -10 -20 -16 0 -79 74 -70 83 9 10 50 -9 50 -23 0 -6 7 -10 15 -10 8 0 15 9 15 20 0 11 -4 20 -9 20 -5 0 -12 8 -15 18 -9 27 -83 72 -130 78 -38 5 -44 3 -78 -33 -58 -61 -108 -120 -108 -127 0 -4 -7 -14 -15 -23 -21 -21 -17 -127 5 -130 8 -2 21 1 28 6 12 7 12 12 1 29 -11 17 -11 24 -1 34 17 17 46 -1 50 -31 4 -28 25 -27 58 4 31 29 46 31 64 10 7 -8 18 -15 25 -15 7 0 18 -7 25 -15 7 -8 23 -15 36 -15 13 0 24 -6 24 -13 0 -7 8 -17 18 -24 10 -6 26 -31 36 -55 l16 -45 -35 -38 c-56 -62 -42 -99 29 -75 56 18 79 54 71 111 -9 62 5 68 53 24 22 -19 45 -35 51 -35 6 0 17 -11 23 -25 10 -23 7 -29 -35 -69 -26 -24 -85 -62 -131 -85 -46 -22 -87 -49 -91 -58 -12 -30 -15 -146 -5 -178 16 -48 64 -69 140 -60 l62 7 -6 42 c-6 38 -2 49 30 99 20 31 42 57 49 57 6 0 22 11 35 25 13 13 41 34 63 45 47 25 72 13 62 -29 -12 -47 -42 -70 -86 -64 -34 5 -39 3 -39 -15 0 -14 17 -31 52 -52 46 -29 58 -32 110 -28 75 6 106 30 87 71 -18 39 1 77 38 77 31 0 65 -42 77 -92 5 -22 12 -28 32 -28 14 0 38 -7 54 -16 15 -10 35 -14 44 -11 14 5 14 9 1 34 -8 15 -15 38 -15 50 0 31 62 93 92 93 28 0 53 -23 44 -39 -8 -12 13 -201 24 -222 5 -9 12 -34 15 -55 4 -22 18 -63 32 -92 21 -42 24 -57 15 -76 -5 -12 -13 -82 -17 -154 -4 -73 -11 -132 -15 -132 -5 0 -30 -20 -57 -45 -46 -43 -93 -59 -107 -36 -3 5 -18 12 -32 15 -15 4 -41 18 -59 32 -17 13 -36 24 -42 24 -16 0 -172 119 -183 140 -6 10 -10 30 -10 44 0 33 -18 34 -26 2 -11 -44 -1 -91 21 -95 11 -2 31 -14 44 -27 12 -13 32 -26 42 -29 21 -7 25 -30 7 -41 -7 -4 -18 2 -26 14 -8 12 -21 22 -29 22 -28 0 -93 40 -93 58 0 10 -7 27 -15 38 -19 25 -19 50 0 58 9 3 15 18 15 39 0 43 9 51 32 30 10 -9 19 -14 21 -12 13 20 37 84 37 100 0 11 -10 23 -22 28 -13 5 -34 21 -47 35 -30 32 -55 33 -75 5 -18 -27 -60 -19 -77 14 -7 12 -17 25 -23 29 -11 7 -66 -45 -66 -63 0 -5 -7 -9 -16 -9 -13 0 -15 7 -10 31 5 28 4 30 -17 24 -37 -11 -70 -39 -90 -78 -25 -49 -17 -71 24 -62 24 6 30 4 27 -6 -4 -10 -18 -13 -47 -11 -31 3 -43 -1 -48 -13 -7 -20 12 -34 38 -28 11 3 26 0 34 -7 10 -9 19 -9 28 -2 6 6 28 12 47 14 30 3 35 0 40 -22 8 -38 48 -91 95 -127 38 -29 85 -101 85 -131 0 -6 -9 -29 -21 -51 -11 -22 -19 -53 -17 -68 3 -26 6 -28 45 -27 63 1 81 23 85 98 l3 61 30 -3 c17 -2 37 -9 45 -16 8 -7 35 -21 60 -31 25 -10 52 -24 60 -30 8 -6 27 -16 43 -23 15 -6 27 -16 27 -22 0 -5 16 -16 35 -24 39 -17 44 -30 16 -46 -11 -5 -21 -20 -23 -31 -2 -12 -12 -25 -24 -29 -19 -8 -20 -6 -10 41 12 57 6 67 -26 45 -12 -9 -37 -16 -55 -16 -22 0 -33 -5 -33 -14 0 -19 -23 -27 -95 -35 -52 -5 -61 -10 -72 -32 -7 -15 -14 -45 -15 -68 -1 -23 -7 -46 -15 -52 -36 -30 8 -115 53 -103 15 4 30 -3 50 -25 25 -26 37 -30 89 -33 76 -3 94 6 67 36 -11 11 -23 31 -27 44 -6 22 -8 22 -31 8 -31 -21 -34 -20 -34 10 0 23 3 25 33 22 28 -3 32 0 35 22 5 34 70 100 99 100 13 0 23 -5 23 -12 0 -9 3 -9 12 0 17 17 38 15 38 -3 0 -9 -9 -15 -22 -15 -26 -1 -61 -42 -56 -68 5 -24 57 -27 87 -3 32 25 33 91 3 141 -27 44 -28 64 -1 81 24 16 18 45 -12 54 -10 4 -19 13 -19 21 0 19 54 19 70 -1 7 -8 19 -15 26 -15 16 0 19 -26 4 -35 -6 -3 -10 -11 -10 -17 0 -16 61 -68 80 -68 10 0 32 -14 49 -31 31 -31 70 -36 62 -8 -15 55 -14 59 17 65 23 5 31 13 36 35 3 15 21 46 41 67 40 45 43 57 16 72 -21 11 -84 14 -94 4 -11 -11 5 -34 24 -34 24 0 24 -6 1 -31 -11 -11 -26 -17 -34 -14 -21 8 -51 -40 -42 -67 5 -17 3 -20 -11 -14 -10 3 -24 1 -32 -5 -18 -16 -36 1 -34 33 2 57 8 90 17 96 13 10 44 71 44 87 0 7 -6 15 -13 18 -9 3 -13 33 -14 101 -2 96 -2 96 23 96 15 0 27 -7 30 -18 3 -9 14 -34 25 -54 14 -28 18 -48 13 -76 -7 -47 11 -66 26 -28 11 29 17 31 43 12 23 -18 22 -32 -4 -39 -12 -3 -18 -10 -14 -16 10 -17 35 -13 35 5 0 23 44 14 48 -11 6 -30 22 -45 48 -45 17 0 31 -12 49 -41 15 -22 42 -49 61 -61 18 -11 34 -25 34 -31 0 -13 43 -64 126 -149 46 -46 55 -61 50 -81 -6 -24 -189 -211 -285 -292 -52 -43 -58 -45 -117 -45 -35 0 -66 5 -69 10 -3 5 -17 10 -30 10 -12 0 -26 7 -29 16 -5 12 -14 15 -38 10 -17 -3 -71 -1 -120 5 -95 11 -118 5 -118 -31 0 -11 -17 -25 -48 -38 -41 -18 -50 -27 -60 -60 -17 -55 -15 -109 3 -116 8 -3 15 -12 15 -20 0 -18 36 -40 50 -31 6 3 10 13 10 22 0 8 15 29 33 46 l32 32 -28 3 c-33 4 -35 25 -5 46 32 23 56 20 60 -7 3 -19 9 -22 43 -22 29 0 40 -4 43 -17 2 -9 -5 -19 -17 -23 -28 -9 -81 -84 -81 -115 0 -30 18 -58 40 -60 30 -4 40 0 40 18 0 27 74 102 102 102 13 0 28 4 34 10 5 5 37 13 71 16 46 5 69 3 93 -10 18 -9 40 -16 50 -16 9 0 21 -5 28 -12 9 -9 21 -8 53 1 38 11 43 11 64 -9 27 -25 40 -21 49 14 12 48 -22 86 -111 126 -13 5 -23 16 -23 23 0 15 151 154 211 194 49 32 52 62 5 54 -5 -1 -15 0 -23 3 -12 5 -11 10 4 31 24 32 61 33 73 0 9 -23 12 -24 37 -13 15 7 35 18 44 25 8 7 20 13 25 13 5 0 26 13 45 29 20 17 60 36 90 44 68 17 74 42 15 71 -34 17 -37 21 -22 31 24 18 20 58 -7 70 -12 6 -36 37 -54 75 -32 64 -66 160 -59 167 1 2 32 -1 69 -6 70 -10 265 -3 273 10 2 4 20 5 40 2 27 -4 42 -1 64 15 17 13 31 18 35 12 7 -11 48 -14 58 -3 4 3 0 14 -8 23 -14 15 -13 19 5 35 10 9 26 15 34 12 21 -8 95 32 119 66 15 19 26 25 40 21 16 -5 19 -3 14 10 -4 11 3 32 18 54 14 20 25 48 25 62 0 14 14 42 31 63 38 46 34 73 -17 105 -49 31 -84 28 -119 -8 -35 -37 -47 -38 -43 -4 2 20 16 34 55 56 51 29 51 29 100 13 52 -17 75 -46 88 -111 8 -41 -36 -169 -70 -204 -14 -14 -25 -31 -25 -37 0 -15 -64 -65 -122 -96 -36 -19 -44 -27 -36 -40 6 -12 3 -19 -10 -26 -14 -7 -18 -18 -15 -36 6 -28 -11 -34 -25 -8 -9 15 -12 15 -45 0 -19 -9 -50 -17 -69 -17 -43 0 -78 -24 -78 -54 0 -13 -7 -38 -16 -56 -16 -30 -16 -36 -1 -64 8 -17 21 -49 28 -71 7 -22 16 -44 20 -48 3 -5 33 -5 65 0 44 6 60 13 62 26 2 11 -6 20 -23 27 -21 8 -25 13 -16 23 6 8 8 33 4 64 -4 41 -10 53 -30 62 -29 13 -25 37 5 34 11 -1 26 4 32 12 16 19 49 19 56 1 3 -8 -1 -25 -8 -38 -8 -13 -14 -43 -14 -68 1 -40 4 -46 33 -60 31 -15 32 -16 13 -28 -11 -7 -20 -21 -20 -32 0 -31 40 -86 77 -106 31 -16 35 -16 50 -1 13 13 14 21 6 39 -7 13 -14 34 -16 48 -5 27 -24 81 -40 116 -12 28 8 90 33 104 27 15 101 12 119 -4 27 -23 96 -30 115 -11 20 20 20 28 1 65 -20 39 -43 50 -105 50 -39 0 -52 4 -57 17 -3 10 -13 26 -21 36 -12 14 -13 20 -3 30 9 9 13 7 17 -11 8 -29 22 -28 34 4 6 14 28 47 50 72 28 34 36 50 29 59 -8 9 -5 20 10 41 34 48 45 54 75 41 20 -10 29 -10 38 -1 7 7 38 12 70 12 32 0 58 4 58 9 0 5 -9 19 -20 32 -19 22 -21 23 -30 7 -6 -10 -16 -18 -23 -18 -17 0 -77 58 -77 74 0 7 -11 18 -25 24 -17 8 -25 20 -25 36 0 28 -60 103 -97 123 -50 26 -84 18 -174 -39 -45 -29 -47 -32 -51 -86 -10 -114 29 -132 91 -45 22 32 23 33 46 15 32 -23 34 -75 4 -96 -16 -11 -20 -21 -15 -39 4 -17 -1 -31 -17 -48 -49 -53 -112 -99 -134 -99 -14 0 -23 -6 -23 -15 0 -11 -9 -15 -29 -13 -16 1 -37 -4 -46 -12 -25 -21 -97 -39 -200 -51 -121 -13 -140 -14 -210 -4 -48 6 -66 14 -88 37 -28 30 -34 52 -17 63 6 3 7 17 4 31 -4 14 -2 24 5 24 16 0 13 27 -4 34 -8 3 -15 17 -15 31 0 14 -14 44 -30 67 -17 22 -30 50 -30 60 0 17 -7 19 -67 17 -38 -2 -72 -6 -78 -10 -5 -4 -21 -9 -35 -11 -19 -2 -25 -9 -25 -30 -1 -14 -7 -33 -14 -42 -11 -13 -11 -20 3 -41 9 -14 19 -25 21 -25 3 0 23 16 45 36 42 38 70 40 70 5 0 -11 5 -23 10 -26 6 -3 10 -26 10 -51 0 -32 4 -44 15 -44 11 0 15 12 15 45 0 55 26 64 32 12 7 -64 -3 -82 -51 -85 -25 -2 -50 -11 -61 -22 -27 -27 -84 -16 -137 26 -48 39 -53 41 -53 15 0 -24 -21 -32 -61 -24 -34 7 -37 37 -4 39 11 1 29 2 39 3 18 1 18 3 -4 26 -13 14 -30 25 -37 25 -8 0 -16 7 -19 15 -8 20 -63 20 -70 0 -8 -20 -54 -20 -54 0 0 8 -7 15 -15 15 -18 0 -20 16 -3 26 6 4 14 2 16 -4 5 -17 18 -15 41 5 25 21 18 33 -17 33 -44 0 -52 12 -50 65 3 43 0 50 -17 53 -45 8 -49 11 -30 32 14 16 16 23 7 32 -7 7 -12 22 -12 34 0 13 -8 24 -20 27 -15 4 -20 14 -20 40 0 19 -7 40 -15 47 -11 9 -12 17 -4 32 14 25 -6 104 -29 117 -14 8 -14 11 -2 26 7 9 14 28 15 42 1 25 28 53 52 53 7 0 13 9 13 20 0 11 -4 20 -9 20 -5 0 -18 19 -29 43 -12 23 -35 57 -52 75 -28 29 -35 31 -71 26 -24 -4 -54 -19 -72 -35 -17 -16 -37 -29 -44 -29 -22 0 -15 -11 27 -47 30 -26 40 -42 40 -65 0 -28 -2 -30 -27 -23 -70 18 -124 17 -144 -1 -13 -11 -32 -17 -49 -16 -25 3 -35 -4 -72 -57 -24 -33 -48 -61 -55 -61 -15 0 -21 37 -11 75 6 23 4 33 -9 43 -24 18 -103 10 -115 -12 -5 -9 -19 -16 -32 -16 -29 0 -41 -15 -51 -58 -3 -17 -11 -32 -16 -32 -12 0 -44 -32 -52 -53 -10 -27 -27 -19 -27 13 0 35 -27 54 -65 44 -23 -6 -25 -10 -20 -36 6 -25 4 -29 -11 -26 -10 2 -20 11 -22 21 -5 25 69 97 100 97 15 0 39 15 63 40 40 41 62 49 82 29 8 -8 13 -7 19 2 4 7 3 14 -4 17 -17 5 -15 37 4 53 12 10 14 23 10 50 -5 32 -2 40 20 58 32 25 51 26 75 5 17 -15 20 -15 43 0 14 9 34 16 45 16 14 0 22 9 26 27 4 16 12 39 20 53 16 32 7 58 -40 103 l-37 36 28 25 c39 34 101 36 113 4 10 -27 3 -58 -15 -65 -8 -3 -14 -14 -14 -24 0 -31 73 -19 113 19 18 16 41 32 52 34 28 5 32 44 5 58 -30 16 -25 84 7 88 12 2 27 9 33 17 9 11 15 11 38 -1 15 -8 32 -14 38 -14 23 0 102 -41 108 -55 3 -8 16 -15 29 -15 13 0 34 -11 47 -25 13 -14 28 -25 34 -25 26 -1 116 -104 116 -132 0 -8 7 -23 15 -34 8 -10 15 -27 15 -37 0 -9 9 -34 20 -54 11 -21 20 -46 20 -56 0 -17 -5 -18 -35 -13 -28 6 -37 3 -42 -10 -9 -23 24 -45 56 -38 44 11 46 10 43 -17 -5 -44 83 -212 145 -277 7 -7 10 -19 7 -27 -7 -16 4 -22 55 -29 19 -3 38 -11 43 -18 9 -14 6 -67 -7 -105 -5 -17 -3 -25 10 -29 21 -8 33 10 28 39 -4 17 5 29 36 49 23 15 41 23 41 18 0 -5 7 -16 16 -24 22 -22 239 -23 268 -1 11 8 32 15 47 15 14 0 32 7 39 15 7 8 27 15 46 15 29 0 199 78 214 99 3 4 33 15 68 26 34 10 84 32 110 49 26 17 61 37 77 44 17 8 41 20 55 28 93 50 147 74 171 74 18 0 32 7 39 20 7 14 21 20 44 20 19 0 39 7 46 15 8 10 31 15 65 15 38 0 55 4 59 15 6 16 86 22 86 6 0 -5 19 -19 43 -31 48 -25 77 -53 77 -73 0 -21 -37 -50 -55 -44 -22 9 -19 35 5 42 29 9 13 28 -18 22 -35 -7 -52 1 -52 23 0 32 -16 30 -49 -4 -28 -29 -31 -37 -22 -54 6 -11 11 -28 11 -37 0 -23 51 -75 72 -75 22 0 24 -35 4 -43 -8 -3 -30 -30 -50 -60 -38 -58 -62 -75 -80 -57 -26 26 -48 2 -23 -25 17 -19 27 -33 64 -87 39 -55 132 -148 149 -148 6 0 17 -7 24 -15 7 -8 26 -15 42 -15 16 0 41 -9 55 -20 21 -16 37 -19 92 -16 36 2 73 7 82 11 19 7 49 -19 49 -42 0 -9 8 -22 18 -29 15 -11 15 -14 2 -28 -17 -18 -61 -23 -107 -12 -28 6 -32 5 -35 -16 -3 -20 -10 -23 -51 -26 -39 -3 -53 1 -72 20 -14 13 -25 33 -25 45 0 20 -5 21 -71 21 -63 -1 -71 -3 -79 -22 -4 -12 -15 -28 -24 -35 -9 -7 -16 -24 -16 -37 0 -13 -14 -50 -32 -81 -17 -32 -39 -74 -49 -93 -19 -38 -109 -120 -132 -120 -8 0 -26 -9 -40 -20 -16 -13 -28 -16 -32 -10 -12 20 -45 9 -83 -28 -58 -57 -70 -81 -72 -142 -3 -103 -4 -100 39 -100 30 0 42 -5 55 -25 23 -35 43 -31 50 10 10 53 23 51 53 -12 28 -58 54 -76 77 -53 8 8 7 15 -6 24 -24 17 -23 24 5 28 20 3 22 10 27 78 7 89 34 153 68 158 16 3 25 -3 32 -22 18 -49 80 -19 80 38 0 33 -24 82 -45 89 -19 8 -20 51 0 67 8 7 15 17 15 22 0 6 21 38 48 72 26 33 55 74 65 89 l18 28 39 -22 c31 -18 44 -20 62 -12 29 13 88 5 95 -14 3 -7 -2 -21 -10 -31 -8 -9 -19 -30 -23 -47 -4 -16 -10 -34 -14 -40 -3 -5 -15 -32 -25 -60 -10 -27 -24 -59 -32 -70 -7 -11 -13 -33 -13 -50 0 -17 -6 -39 -14 -50 -7 -11 -17 -35 -21 -53 -3 -18 -20 -57 -36 -87 -16 -30 -29 -63 -29 -73 0 -32 -43 -68 -89 -76 -23 -3 -47 -4 -52 0 -9 5 -28 -1 -101 -37 -10 -5 -26 -9 -35 -9 -10 -1 -36 -9 -58 -20 -22 -11 -48 -19 -57 -20 -10 0 -22 -10 -29 -22 -6 -13 -27 -39 -46 -59 -28 -29 -35 -46 -40 -90 -4 -42 -2 -58 10 -67 13 -11 19 -9 36 9 25 27 27 45 6 53 -16 6 -21 41 -6 50 19 12 38 -5 33 -30 -3 -20 0 -24 18 -24 19 0 22 -4 17 -26 -6 -35 11 -94 27 -94 8 0 19 13 26 29 6 16 18 32 26 35 22 8 16 23 -8 22 -14 -1 -24 6 -26 17 -3 13 3 17 23 17 14 0 28 -7 31 -15 9 -22 27 -18 55 11 20 22 25 23 35 10 7 -10 8 -32 3 -63 -12 -80 42 -131 68 -63 6 16 27 39 47 51 25 15 36 28 36 44 0 13 4 26 9 29 5 3 12 21 15 39 8 44 53 77 105 77 22 0 43 5 47 11 4 7 23 9 50 5 44 -6 44 -5 44 25 0 21 -9 39 -29 57 -51 48 -61 53 -89 50 -23 -3 -27 1 -30 24 -2 15 5 39 14 54 17 25 17 27 0 40 -21 15 -13 34 13 34 13 0 27 19 45 60 15 32 31 62 36 65 6 4 10 13 10 21 0 8 19 54 41 102 23 48 50 107 61 132 45 102 90 190 99 190 5 0 9 8 9 18 0 10 10 28 23 39 49 46 80 93 61 93 -3 0 -28 -7 -55 -16 -63 -21 -79 -10 -55 37 9 18 15 34 13 35 -6 6 -93 -19 -107 -31 -23 -19 -59 -25 -107 -18 -38 5 -43 9 -43 31 0 14 14 47 30 74 17 26 30 54 30 60 0 6 8 20 18 31 9 10 17 29 18 41 1 11 4 29 8 38 5 11 0 24 -14 38 -18 18 -29 21 -60 16 -49 -8 -83 5 -121 46 -37 41 -39 85 -5 98 29 11 63 3 70 -16 3 -8 12 -14 21 -14 8 0 67 -27 130 -60 138 -72 175 -79 122 -24 -12 13 -30 24 -39 24 -9 0 -25 13 -34 29 -19 32 -50 45 -87 36 -15 -4 -28 -1 -36 9 -8 9 -22 16 -33 16 -32 0 -78 29 -78 50 0 32 36 34 85 5 25 -14 50 -23 55 -20 11 7 2 34 -17 54 -8 7 -12 18 -10 25 7 21 32 17 57 -9 14 -15 42 -43 63 -62 20 -20 37 -41 37 -47 0 -14 33 -43 63 -57 51 -22 82 -47 85 -67 4 -23 -21 -31 -33 -12 -8 14 -25 13 -25 -1 0 -18 32 -38 61 -39 14 0 30 -5 36 -11 22 -22 166 -79 199 -79 50 0 62 8 56 37 -5 25 -6 25 -19 8 -9 -13 -16 -16 -23 -9 -7 7 -4 16 10 29 16 15 22 16 35 5 22 -18 39 1 31 35 -5 20 -11 25 -26 20 -12 -4 -20 -2 -20 4 0 6 10 11 23 11 12 0 34 7 49 14 34 18 42 7 33 -41 -7 -40 -24 -74 -42 -86 -25 -15 -13 -27 27 -25 61 2 70 -11 70 -110 0 -47 5 -100 11 -117 11 -29 14 -31 35 -21 28 13 29 19 8 52 -11 16 -16 44 -15 85 1 71 5 79 33 79 16 0 19 -4 14 -22 -16 -59 -18 -108 -5 -124 9 -11 14 -42 14 -81 0 -43 5 -67 14 -72 8 -5 15 -34 18 -72 2 -34 11 -72 19 -83 15 -22 19 -86 6 -86 -15 0 -43 82 -49 143 -6 62 -18 70 -48 36 -17 -18 -17 -24 -6 -52 7 -18 15 -41 18 -52 2 -11 9 -29 13 -40 5 -11 18 -42 30 -70 27 -65 54 -119 61 -125 3 -3 16 -23 29 -45 30 -51 92 -132 150 -196 49 -55 80 -64 80 -24 0 32 11 32 41 -2 14 -16 42 -41 63 -58 21 -16 57 -47 81 -67 23 -21 49 -38 57 -38 18 0 41 -24 31 -33 -3 -4 -15 -7 -25 -7 -20 0 -23 -12 -8 -41 6 -11 21 -19 36 -19 14 0 37 -9 51 -20 14 -11 34 -20 44 -20 10 0 21 -4 24 -10 3 -5 14 -10 25 -10 10 0 20 -7 24 -15 3 -8 14 -15 25 -15 11 0 24 -6 28 -13 9 -15 75 -33 172 -48 36 -6 73 -15 82 -20 10 -5 36 -9 59 -9 35 0 50 -7 98 -48 31 -27 80 -64 107 -83 28 -19 52 -37 53 -41 2 -5 9 -8 16 -8 6 0 34 -15 61 -32 61 -40 101 -59 109 -51 3 4 6 16 6 29 0 15 -8 24 -25 28 -14 4 -47 20 -74 36 -26 17 -51 30 -55 30 -3 0 -49 34 -101 75 -51 41 -98 75 -104 75 -5 0 -22 18 -38 39 -15 22 -40 47 -55 57 -14 10 -36 36 -47 59 -12 22 -38 58 -59 81 -20 22 -48 61 -62 87 -22 42 -50 63 -64 49 -12 -12 -5 -44 15 -65 11 -12 36 -46 56 -75 19 -29 41 -56 49 -59 8 -3 14 -13 14 -23 0 -16 -6 -18 -37 -13 -21 3 -51 11 -68 18 -16 8 -41 17 -55 21 -14 4 -45 16 -70 27 -25 12 -61 26 -80 32 -46 14 -49 39 -10 101 17 27 53 88 80 135 47 84 48 87 38 134 -7 33 -7 55 0 71 9 19 8 24 -8 29 -11 4 -23 18 -26 32 -4 15 -17 45 -30 67 -28 48 -30 69 -9 86 18 15 20 71 3 88 -9 9 -9 26 0 75 19 104 16 152 -12 180 -14 14 -27 22 -30 19 -3 -3 -6 -40 -6 -83 0 -74 -1 -79 -28 -96 -50 -33 -67 -43 -82 -49 -8 -3 -26 -11 -40 -19 -14 -8 -44 -24 -68 -35 -24 -11 -57 -30 -75 -44 -18 -13 -42 -27 -54 -30 -34 -11 -46 -31 -33 -55 15 -30 54 -27 80 6 23 30 73 63 95 63 18 0 140 64 161 84 36 36 44 21 44 -83 0 -72 4 -102 14 -110 8 -7 16 -28 19 -49 3 -20 13 -66 23 -101 15 -53 15 -67 4 -84 -7 -12 -23 -39 -35 -62 -12 -22 -38 -68 -58 -102 -21 -34 -37 -66 -37 -71 0 -6 -7 -18 -16 -26 -14 -14 -20 -12 -67 25 -50 39 -230 203 -269 243 -10 11 -18 23 -18 27 0 4 -6 14 -12 21 -27 29 -58 78 -58 92 0 8 25 26 56 40 45 21 55 29 52 47 -6 41 -30 44 -85 10 -27 -17 -55 -31 -61 -31 -12 0 -52 79 -52 102 0 8 -4 18 -9 23 -10 13 -37 98 -47 150 -3 22 -10 45 -14 50 -4 6 -11 44 -15 85 -4 41 -13 90 -21 107 -18 46 -2 52 116 46 80 -5 97 -3 109 11 17 20 67 21 103 2 21 -11 69 -14 205 -13 98 0 184 -2 191 -7 6 -4 12 -16 12 -27 0 -28 19 -23 31 9 6 15 20 46 31 69 11 23 18 52 15 64 -3 12 4 38 19 64 13 24 24 57 24 72 0 16 5 34 11 40 15 15 34 48 59 103 11 25 25 52 30 60 6 8 15 27 21 41 5 14 21 31 34 37 14 7 25 17 25 23 0 34 112 168 205 244 27 22 56 48 64 58 9 9 25 17 37 17 19 0 64 29 114 72 21 17 119 65 153 73 15 4 27 11 27 15 0 5 21 12 48 16 26 3 53 11 60 17 13 10 97 33 175 47 27 5 55 14 63 21 11 9 24 9 53 0 27 -8 47 -8 65 -1 14 5 45 8 69 5 23 -2 69 -7 102 -10 l60 -6 -33 31 c-32 29 -36 30 -130 30 -88 0 -100 2 -122 23 -31 28 -87 57 -111 57 -25 0 -44 37 -29 55 6 8 9 23 5 35 -4 14 -2 20 9 20 9 0 49 34 89 75 77 79 96 87 154 64 60 -24 113 -51 118 -60 10 -15 42 -10 49 8 5 12 10 13 18 5 8 -8 8 -15 -1 -26 -21 -25 7 -31 126 -28 93 2 119 6 148 23 19 12 35 24 35 29 0 4 12 14 28 22 61 31 89 53 98 72 5 12 19 22 32 24 13 2 26 10 29 18 3 8 10 14 17 14 6 0 26 14 44 31 30 28 32 35 32 93 0 54 -4 69 -29 103 -27 38 -120 111 -206 163 -22 13 -46 30 -53 37 -7 7 -19 13 -26 13 -11 0 -76 52 -158 126 -14 13 -30 24 -35 24 -19 0 -35 48 -29 87 3 21 11 99 16 173 5 74 12 151 15 170 4 19 8 53 10 75 7 79 44 168 86 211 47 48 49 77 6 82 -34 4 -54 -11 -71 -53 -8 -17 -28 -47 -45 -67 -17 -20 -31 -39 -31 -43 0 -3 -16 -26 -35 -49 -19 -24 -35 -47 -35 -52 0 -4 -18 -26 -39 -49 -39 -40 -64 -95 -43 -95 21 0 62 23 62 35 0 7 14 31 30 53 17 23 30 49 30 57 0 8 7 15 16 15 15 0 16 -9 10 -66 -4 -37 -11 -74 -16 -83 -8 -16 -23 -202 -21 -273 0 -27 -5 -40 -19 -48 -15 -8 -20 -6 -25 9 -3 11 -12 22 -20 25 -8 3 -15 17 -15 31 0 14 -7 28 -15 31 -9 4 -15 19 -15 40 0 20 -6 37 -17 42 -12 7 -15 18 -10 45 5 32 2 40 -30 67 -22 20 -41 48 -49 78 -14 45 -67 112 -89 112 -6 0 -24 14 -40 30 -16 17 -38 30 -49 30 -12 0 -41 19 -66 43 -25 23 -64 52 -85 63 -22 12 -41 30 -43 40 -2 11 -8 29 -14 41 -9 17 -7 35 10 80 24 68 40 227 24 246 -7 8 -7 18 -2 27 6 8 10 25 10 38 0 23 1 23 101 18 56 -2 106 -9 112 -15 12 -12 207 -16 207 -5 0 4 -11 17 -24 29 -18 16 -25 37 -31 83 -4 34 -10 64 -14 66 -8 6 -61 -41 -61 -53 0 -4 9 -16 20 -26 37 -34 26 -48 -32 -43 -29 3 -54 11 -56 18 -3 7 -13 21 -23 31 -24 24 -24 34 2 60 27 27 10 52 -18 27 -10 -8 -26 -18 -36 -21 -18 -7 -17 -10 7 -54 18 -30 23 -50 17 -56 -7 -7 -15 -6 -24 1 -7 7 -35 10 -60 8 -45 -3 -47 -2 -58 32 l-12 35 -13 -32 c-18 -42 -57 -41 -62 2 -4 33 -29 36 -34 5 -3 -21 -8 -23 -72 -23 -39 0 -81 6 -94 13 -32 16 -47 15 -62 -3 -14 -17 -46 -20 -55 -5 -3 6 4 14 17 19 13 5 34 21 47 35 14 14 32 26 40 26 20 1 56 30 64 52 5 13 13 16 36 12 24 -5 32 -1 46 20 22 33 42 33 77 -1 25 -24 30 -25 53 -13 23 12 28 11 50 -10 l24 -23 11 27 10 28 77 -8 c43 -3 83 -12 90 -19 7 -7 21 -11 31 -8 10 2 24 -3 32 -12 12 -14 14 -14 31 0 13 13 28 15 63 10 26 -4 49 -11 52 -16 3 -5 20 -9 39 -9 18 0 41 -7 49 -16 11 -10 30 -14 58 -12 40 3 44 0 58 -28 14 -29 19 -31 64 -31 35 1 52 -4 61 -16 7 -9 17 -17 24 -17 11 0 51 -57 51 -73 0 -5 -17 -7 -37 -5 -30 2 -38 -1 -41 -16 -6 -27 11 -33 97 -35 42 0 121 -7 176 -16 55 -8 136 -15 180 -15 49 0 86 -5 93 -12 7 -7 48 -12 109 -12 l98 -1 3 -27 c3 -22 -2 -29 -22 -34 -22 -5 -24 -10 -20 -37 3 -18 8 -38 10 -45 2 -7 -1 -22 -6 -32 -14 -26 20 -60 59 -60 29 0 45 -15 93 -84 10 -13 40 -39 66 -56 27 -17 66 -52 88 -78 37 -45 39 -50 40 -122 1 -70 3 -75 24 -78 12 -2 27 1 33 7 6 6 25 11 41 11 17 1 45 7 61 14 21 9 35 10 46 3 11 -7 28 -5 58 9 42 19 42 19 36 64 l-5 46 62 -4 c48 -3 75 1 111 17 l47 20 0 89 c0 101 -10 119 -57 107 -16 -4 -78 -9 -139 -12 -98 -4 -116 -3 -150 15 -60 32 -136 116 -143 160 -4 25 -14 40 -31 49 -45 22 -31 38 32 35 70 -4 82 1 66 31 -14 27 -44 50 -78 59 -31 8 -108 36 -135 48 -11 5 -40 13 -65 19 -82 18 -135 32 -152 41 -9 5 -40 12 -70 16 -29 4 -60 13 -70 21 -21 19 -72 13 -76 -9 -2 -12 11 -23 44 -38 26 -12 56 -30 67 -41 26 -24 36 -24 53 -2 12 17 14 17 41 -3 17 -13 45 -21 73 -22 52 -2 97 -10 125 -22 11 -4 28 -11 38 -14 20 -7 17 -33 -3 -28 -7 1 -51 3 -99 4 -47 0 -91 5 -97 9 -6 5 -27 9 -45 9 -78 -2 -161 9 -184 24 -16 11 -26 12 -31 5 -6 -10 -37 -9 -224 9 -73 7 -75 8 -80 37 -5 24 -10 30 -28 28 -16 -2 -25 4 -32 23 -9 22 -13 24 -25 14 -21 -17 -45 -6 -38 19 3 13 -2 23 -18 31 -20 11 -21 13 -5 22 11 6 22 6 31 -2 7 -6 44 -16 81 -21 70 -10 94 -21 94 -45 0 -18 14 -18 30 1 14 16 100 21 100 6 0 -18 43 -24 55 -8 6 9 23 19 38 22 15 4 24 11 21 16 -7 12 -51 11 -59 -1 -11 -18 -45 -11 -45 9 0 31 -107 44 -130 16 -17 -21 -27 -19 -33 6 -5 18 -12 20 -61 18 -34 -2 -61 2 -71 11 -19 16 -75 26 -220 41 -60 6 -125 18 -143 26 -18 8 -40 13 -50 12 -18 -2 -82 6 -167 22 -27 5 -99 11 -158 14 -59 2 -112 7 -118 10 -5 4 -9 23 -9 45 0 40 -11 50 -57 50 -22 0 -24 -3 -18 -30z m-1090 -105 c0 -5 -28 -11 -62 -13 -47 -2 -63 -7 -63 -17 0 -8 -7 -15 -16 -15 -24 0 -13 32 16 47 28 15 125 13 125 -2z m810 -28 c18 -53 -6 -62 -44 -17 -27 33 -28 33 -94 28 -46 -4 -70 -2 -77 7 -18 21 2 26 103 23 l99 -3 13 -38z m83 0 c2 -12 -3 -17 -17 -17 -12 0 -21 6 -21 13 0 31 32 34 38 4z m-1283 -3 c12 -3 26 -1 29 5 4 6 39 11 82 11 70 0 75 -2 86 -25 14 -32 36 -38 89 -25 69 18 150 29 165 23 8 -3 21 0 29 7 12 10 15 9 15 -7 0 -11 14 -32 30 -48 17 -16 30 -32 30 -37 0 -4 -27 -8 -60 -8 -48 0 -63 4 -79 22 -18 19 -21 19 -27 5 -5 -15 -21 -16 -113 -13 -60 1 -113 6 -119 10 -7 4 -12 21 -12 38 0 27 -3 30 -22 23 -13 -4 -36 -9 -53 -12 -16 -3 -38 -13 -49 -22 -18 -16 -91 -20 -251 -12 -33 2 -77 0 -97 -4 -29 -6 -38 -4 -38 6 1 36 19 44 100 46 45 2 89 7 98 12 9 5 31 6 49 4 17 -3 39 0 50 6 10 6 24 8 31 6 8 -3 24 -8 37 -11z m2340 -83 c7 -12 -12 -24 -25 -16 -11 7 -4 25 10 25 5 0 11 -4 15 -9z m-2645 -125 c0 -8 -4 -17 -9 -21 -12 -7 -24 12 -16 25 9 15 25 12 25 -4z m208 -13 c-3 -30 -25 -42 -34 -19 -9 22 2 46 21 46 12 0 15 -8 13 -27z m3480 -111 c5 -17 -26 -26 -43 -12 -21 17 -8 40 18 31 11 -4 23 -13 25 -19z m-3688 3 c0 -21 -40 -41 -50 -24 -5 7 -6 18 -3 26 7 18 53 17 53 -2z m3588 -52 c19 -21 22 -32 17 -65 -6 -34 -3 -44 18 -66 14 -15 31 -38 37 -52 22 -50 41 -80 51 -80 5 0 9 -7 9 -15 0 -8 -4 -15 -9 -15 -5 0 -14 7 -21 15 -7 8 -21 15 -31 15 -10 0 -21 5 -24 11 -4 5 -17 14 -28 20 -12 5 -29 13 -37 19 -8 6 -36 19 -63 30 -54 22 -67 43 -43 69 20 22 21 77 1 85 -16 6 -21 47 -7 60 4 4 30 5 57 2 36 -5 56 -14 73 -33z m-2946 -69 c10 -10 35 -17 60 -16 44 0 78 -20 78 -45 0 -8 -11 -13 -29 -13 -16 0 -31 -6 -35 -15 -8 -21 -50 -19 -70 4 -12 13 -15 27 -10 45 6 24 4 26 -30 26 -25 0 -36 4 -36 15 0 20 48 20 72 -1z m-580 -64 c23 -22 48 -40 55 -40 8 0 26 -9 41 -19 15 -11 46 -31 70 -45 34 -21 42 -32 42 -56 0 -17 -9 -38 -22 -49 l-21 -21 -19 30 c-10 17 -18 34 -18 38 0 4 -5 14 -10 22 -8 13 -14 10 -34 -15 -20 -24 -28 -28 -42 -19 -32 19 -40 42 -25 66 12 20 11 24 -19 51 -23 21 -39 27 -55 23 -13 -3 -26 -2 -29 3 -7 11 25 71 37 71 4 0 27 -18 49 -40z m3683 -58 c0 -18 -20 -15 -23 4 -3 10 1 15 10 12 7 -3 13 -10 13 -16z m33 -69 c4 -26 -12 -30 -34 -9 -21 22 -17 38 9 34 14 -2 23 -11 25 -25z m-152 -28 c9 -14 24 -25 33 -25 22 0 41 -19 41 -41 0 -33 -23 -33 -51 -1 -16 18 -32 32 -37 32 -14 0 -53 46 -45 53 14 15 43 6 59 -18z m292 -22 c34 -13 48 -14 68 -4 14 6 36 8 50 5 14 -4 31 -1 39 6 12 10 18 10 30 0 12 -10 19 -10 27 -2 25 25 36 12 37 -43 0 -54 -1 -55 -35 -70 -46 -19 -106 -23 -111 -7 -3 8 5 12 24 12 38 0 78 40 68 69 -7 24 -30 28 -39 6 -3 -8 -16 -15 -30 -15 -19 0 -26 -7 -31 -30 -5 -23 -12 -30 -31 -30 -17 0 -24 6 -24 20 0 11 -7 20 -15 20 -8 0 -15 -4 -15 -10 0 -18 -29 -10 -35 10 -5 16 -15 20 -45 20 -34 0 -41 4 -46 26 -12 46 19 51 114 17z m-2185 -98 c-3 -8 -9 -15 -14 -15 -10 0 -12 24 -3 33 11 11 24 -3 17 -18z m142 -6 c41 -36 45 -59 12 -59 -13 0 -34 -11 -47 -25 -23 -24 -23 -25 -5 -45 10 -11 31 -20 47 -20 24 0 28 4 28 29 0 32 24 48 46 30 9 -7 10 -17 4 -32 -5 -12 -11 -34 -14 -49 -8 -37 -37 -52 -70 -37 -14 7 -28 20 -31 31 -4 10 -12 18 -20 18 -34 0 -57 107 -35 164 13 35 41 33 85 -5z m1953 14 c15 -9 50 -39 79 -66 43 -41 50 -54 42 -69 -11 -21 -39 -24 -39 -5 0 7 -7 22 -14 33 -14 18 -15 18 -26 -13 -10 -28 -18 -33 -55 -39 -49 -7 -69 1 -60 24 3 9 -4 34 -16 57 -26 49 -21 82 10 65 16 -8 21 -6 26 10 8 24 18 25 53 3z m-5704 -119 c23 -22 20 -44 -6 -44 -34 0 -68 -38 -68 -78 0 -31 -2 -34 -24 -28 -18 4 -31 -3 -60 -34 -31 -33 -43 -40 -75 -40 -22 0 -44 -6 -51 -15 -7 -8 -21 -15 -32 -15 -10 0 -33 -7 -50 -16 -30 -16 -55 -15 -143 3 -37 8 -40 11 -46 48 -10 73 -42 107 -110 118 -32 5 -41 1 -68 -27 -37 -38 -41 -82 -11 -114 39 -42 64 -14 34 37 -18 30 -18 31 1 45 11 8 24 11 30 6 5 -4 21 -10 35 -12 20 -2 26 -10 31 -41 7 -47 -4 -62 -61 -81 -59 -21 -64 -20 -110 9 -22 14 -46 25 -55 25 -8 0 -15 5 -15 10 0 6 -11 15 -24 22 -33 14 -40 37 -20 59 21 23 11 38 -21 31 -20 -3 -25 -10 -25 -33 0 -19 -5 -29 -15 -29 -19 0 -20 49 -1 56 8 3 16 14 19 24 6 23 100 70 141 70 18 0 37 5 44 12 9 9 15 9 24 0 7 -7 32 -12 56 -12 39 0 48 -5 85 -45 24 -25 47 -45 52 -45 14 0 105 -86 105 -99 0 -17 27 -13 34 5 4 10 14 14 26 11 10 -3 24 1 31 9 6 8 27 14 46 14 47 0 125 54 205 140 35 38 66 69 70 69 4 1 14 -6 22 -15z m3766 1 c0 -8 -4 -15 -9 -15 -13 0 -22 16 -14 24 11 11 23 6 23 -9z m228 -77 c-2 -15 -11 -24 -26 -26 -21 -3 -23 -7 -18 -38 9 -44 -8 -74 -40 -74 -21 0 -25 -4 -22 -22 4 -33 42 -35 73 -3 15 14 30 23 35 20 15 -9 21 -60 11 -87 -8 -22 -6 -29 12 -42 l22 -15 -23 -21 c-17 -14 -29 -17 -40 -11 -10 5 -41 12 -69 16 -29 4 -64 15 -77 26 -33 26 -72 107 -58 121 8 8 16 6 27 -6 21 -20 51 -21 59 0 10 26 7 32 -25 43 l-31 11 24 41 c26 47 46 59 60 36 7 -13 13 -14 33 -5 14 6 25 16 25 21 0 11 30 36 43 37 5 0 7 -10 5 -22z m-388 -15 c14 -9 29 -23 33 -30 4 -7 14 -13 22 -13 22 0 75 -79 75 -111 0 -15 6 -32 14 -36 12 -7 20 -50 17 -90 -1 -7 -14 -19 -31 -28 -21 -11 -30 -23 -30 -40 0 -27 -17 -34 -26 -10 -8 20 -30 19 -38 -1 -4 -11 -17 -14 -48 -12 -37 3 -45 7 -60 36 -9 18 -35 54 -57 78 -47 52 -49 60 -19 67 18 5 19 8 9 21 -15 18 -31 12 -31 -10 0 -22 -23 -16 -43 11 -13 18 -17 39 -15 72 3 48 24 71 30 32 4 -33 28 -36 28 -5 0 14 -4 26 -10 26 -5 0 -10 5 -10 10 0 6 11 10 25 10 13 0 28 6 32 14 18 29 96 35 133 9z m-3620 -63 c0 -23 -25 -27 -33 -6 -7 16 1 26 20 26 7 0 13 -9 13 -20z m4066 6 c8 -8 14 -26 14 -40 0 -15 14 -52 30 -83 17 -31 30 -61 30 -68 0 -7 7 -18 15 -25 8 -7 15 -28 15 -47 0 -19 7 -47 16 -64 15 -29 14 -31 -14 -57 -16 -15 -31 -32 -33 -39 -2 -7 -15 -14 -29 -15 -23 -3 -25 0 -23 36 2 22 -2 45 -8 52 -12 14 -4 34 13 34 6 0 16 -7 23 -17 25 -34 22 5 -6 60 -15 31 -26 64 -23 72 3 7 1 22 -4 32 -7 12 -7 24 0 37 9 16 7 23 -11 34 -13 9 -21 25 -21 42 0 16 -7 30 -15 34 -20 7 -19 36 1 36 8 0 22 -6 30 -14z m-710 -31 c9 -21 -14 -45 -42 -45 -28 0 -30 7 -8 38 18 25 42 29 50 7z m-4166 -120 c7 -8 18 -15 26 -15 20 0 27 -19 14 -35 -28 -33 -130 -4 -130 36 0 17 5 20 25 17 14 -3 28 -1 31 3 8 13 20 11 34 -6z m440 -53 c3 -2 5 -54 6 -115 1 -62 3 -118 5 -126 2 -8 -4 -16 -13 -19 -11 -2 -26 10 -42 36 -21 33 -26 57 -31 136 -3 54 -3 101 0 106 4 7 57 -6 75 -18z m2200 -66 c11 -29 -2 -125 -18 -135 -6 -3 -15 -19 -21 -34 -9 -23 -17 -27 -48 -27 -21 -1 -55 -7 -75 -14 -35 -13 -38 -12 -38 4 0 22 55 70 80 70 11 0 35 16 55 37 29 30 35 43 35 80 0 47 15 57 30 19z m2080 -33 c0 -8 -7 -16 -15 -19 -8 -4 -15 -12 -15 -20 0 -15 -35 -54 -48 -54 -5 0 -18 9 -31 21 -22 20 -22 21 -3 50 10 17 34 38 53 48 30 15 35 16 47 2 6 -8 12 -21 12 -28z m-2222 -12 c36 -31 25 -70 -17 -56 -28 9 -40 76 -13 75 4 -1 17 -9 30 -19z m2350 5 c-17 -13 -28 -83 -15 -103 9 -14 -19 -37 -33 -28 -6 4 -9 19 -8 33 2 21 -2 28 -19 30 -43 6 -23 34 40 58 9 3 17 10 17 15 0 5 8 9 18 9 16 -1 16 -1 0 -14z m-468 -46 c6 -11 19 -20 30 -20 28 0 33 -16 15 -54 -10 -22 -25 -36 -41 -39 -31 -6 -41 9 -20 32 15 16 15 19 -4 36 -20 18 -26 46 -13 58 11 12 22 8 33 -13z m706 -2 c12 -13 32 -32 44 -43 17 -16 19 -21 7 -30 -21 -15 -37 -50 -37 -79 0 -18 -5 -26 -17 -26 -10 0 -31 -14 -46 -32 -21 -25 -30 -29 -34 -19 -9 21 -54 61 -69 61 -8 0 -14 -7 -14 -15 0 -25 80 -127 145 -185 33 -30 78 -73 101 -96 26 -26 59 -47 92 -58 29 -10 61 -29 72 -44 17 -21 30 -26 64 -27 27 0 49 -7 60 -17 10 -10 32 -18 52 -18 24 0 34 -5 34 -15 0 -8 -6 -15 -13 -15 -18 0 -67 -23 -67 -32 0 -4 -16 -10 -37 -14 -28 -5 -39 -3 -49 10 -9 13 -20 16 -48 11 -19 -4 -40 -13 -47 -21 -16 -19 -23 -18 -58 12 -22 18 -31 35 -31 56 0 27 -3 29 -23 24 -16 -4 -28 1 -40 14 -9 11 -23 20 -31 20 -8 0 -17 8 -21 18 -8 24 -52 72 -66 72 -7 0 -24 14 -39 32 -18 21 -32 29 -43 25 -26 -10 -21 -23 28 -72 25 -26 50 -55 55 -66 6 -10 19 -19 30 -19 12 0 28 -15 42 -40 16 -26 32 -41 51 -46 34 -7 43 -25 27 -54 -11 -20 -13 -20 -29 -6 -10 9 -25 14 -34 11 -8 -4 -18 -2 -22 4 -9 16 -51 13 -65 -4 -11 -13 -15 -12 -36 8 -13 12 -24 28 -24 34 0 9 -16 11 -59 7 -80 -9 -111 0 -111 30 0 27 -24 53 -35 36 -10 -16 -32 -12 -39 8 -3 9 -9 23 -12 31 -5 11 1 13 34 8 47 -8 67 15 30 34 -20 11 -20 13 -5 24 20 15 22 31 4 42 -35 22 -47 62 -50 173 -2 74 -7 114 -15 119 -7 4 -11 18 -11 32 1 13 0 30 -2 37 -6 21 27 39 49 26 25 -16 27 -51 3 -64 -20 -10 -19 -12 19 -50 24 -24 41 -52 46 -75 6 -34 55 -85 81 -85 19 0 21 39 4 62 -18 23 -17 47 3 60 6 4 7 11 2 15 -5 4 -11 2 -13 -4 -6 -18 -48 -16 -63 2 -16 20 -5 45 20 45 16 0 20 7 20 30 0 23 5 30 19 30 10 0 21 -9 24 -20 7 -25 27 -26 27 -1 0 19 18 31 46 31 9 0 14 -11 14 -34 0 -42 10 -50 37 -31 28 20 39 66 19 81 -13 9 -14 17 -4 45 6 19 12 40 14 47 5 17 14 15 40 -10z m-5522 6 c18 -7 22 -54 4 -54 -16 0 -48 31 -48 47 0 14 18 17 44 7z m5004 -15 c4 -19 -37 -82 -73 -113 -14 -12 -25 -26 -25 -32 0 -6 -13 -20 -30 -32 -16 -13 -30 -30 -30 -38 0 -9 -13 -33 -28 -53 -16 -20 -35 -51 -42 -70 -7 -18 -35 -59 -62 -90 -26 -31 -57 -75 -68 -98 -23 -50 -35 -53 -48 -15 l-10 27 -1 -32 c-1 -17 -5 -43 -11 -58 -9 -22 -13 -24 -31 -15 -14 8 -18 17 -14 28 4 9 8 33 10 53 3 51 10 58 49 52 l33 -5 7 49 c5 39 15 58 51 98 25 26 45 57 45 67 0 10 11 24 25 30 13 6 28 20 31 32 8 23 45 79 57 84 4 2 7 9 7 17 0 7 17 28 38 46 20 19 45 47 55 62 20 31 59 34 65 6z m-271 -15 c9 -23 -13 -40 -32 -24 -12 10 -13 16 -4 26 15 18 28 18 36 -2z m-1842 -3 c7 -12 -12 -24 -25 -16 -11 7 -4 25 10 25 5 0 11 -4 15 -9z m1825 -70 c0 -5 11 -12 25 -15 21 -5 25 -12 25 -40 0 -43 -9 -66 -25 -66 -16 0 -25 22 -25 60 0 28 -1 29 -30 18 -17 -5 -37 -7 -45 -4 -23 8 -18 35 8 46 29 12 67 12 67 1z m971 -60 c38 -39 69 -74 69 -80 0 -5 -9 -13 -20 -16 -37 -12 -23 -35 21 -35 39 0 41 1 35 25 -9 34 16 33 44 -2 28 -36 67 -61 88 -58 10 2 42 -24 79 -64 52 -56 64 -75 69 -112 9 -70 -7 -83 -98 -81 -87 3 -133 21 -157 63 -17 31 -30 36 -48 18 -8 -8 -14 -5 -22 10 -8 14 -21 21 -40 21 -15 0 -36 9 -46 20 -10 11 -24 20 -31 20 -7 0 -19 10 -25 23 -7 12 -18 26 -25 30 -25 15 -15 29 15 22 18 -4 32 -2 36 5 13 21 -10 31 -78 33 -73 3 -85 8 -62 27 8 7 15 17 15 22 0 16 44 68 58 68 18 0 72 32 72 42 0 5 -11 13 -24 18 -18 7 -23 14 -19 29 3 12 10 21 15 21 5 0 41 -31 79 -69z m-601 25 c0 -34 -18 -42 -42 -18 -24 24 -16 42 18 42 19 0 24 -5 24 -24z m-125 -46 c3 -6 -1 -13 -9 -16 -9 -3 -16 -10 -16 -14 0 -14 -63 -80 -77 -80 -21 0 -15 17 17 50 17 17 30 37 30 45 0 12 13 19 42 24 4 0 10 -4 13 -9z m59 -56 c-1 -21 -2 -55 -3 -74 0 -19 2 -69 5 -111 5 -68 9 -80 35 -105 16 -15 29 -33 29 -39 0 -7 25 -37 55 -69 30 -31 55 -60 55 -64 -1 -4 -19 -25 -41 -47 -22 -22 -54 -64 -72 -92 -30 -50 -58 -66 -72 -43 -3 5 0 20 7 32 7 13 13 55 15 93 1 39 3 84 3 101 2 42 -19 116 -30 109 -6 -4 -10 -21 -10 -40 0 -24 -5 -35 -19 -40 -21 -6 -66 8 -76 24 -11 19 -28 12 -22 -10 16 -60 -40 -91 -116 -64 -60 22 -60 22 -65 3 -2 -11 8 -22 27 -33 39 -20 39 -32 1 -40 -16 -4 -32 -11 -35 -16 -12 -19 -73 -10 -89 13 -20 28 -3 52 31 43 33 -8 42 20 14 46 -26 25 -25 27 67 124 39 42 72 80 72 85 0 5 20 24 44 42 24 18 52 49 62 68 17 32 68 106 95 138 19 23 34 7 33 -34z m-326 -1 c4 -25 -16 -31 -35 -12 -9 9 -13 -4 -19 -49 -3 -34 -13 -67 -20 -73 -8 -6 -14 -24 -14 -39 0 -33 -9 -43 -26 -29 -13 11 -10 56 7 114 4 17 11 45 14 64 8 49 12 52 53 49 30 -2 38 -8 40 -25z m395 -8 c-3 -42 -20 -53 -34 -22 -9 21 -9 30 1 42 19 23 35 12 33 -20z m-546 -31 c3 -9 -1 -37 -11 -63 -9 -25 -16 -56 -16 -67 0 -12 -6 -27 -14 -33 -7 -6 -11 -21 -9 -34 3 -12 -5 -46 -16 -75 -12 -29 -21 -63 -21 -76 0 -13 -7 -26 -15 -30 -12 -4 -15 -24 -15 -87 0 -63 -4 -87 -17 -101 -9 -10 -21 -18 -27 -18 -16 0 -46 57 -46 86 0 14 -6 35 -14 47 -32 50 -30 65 11 86 46 23 87 66 78 80 -3 6 5 36 19 67 14 31 26 64 26 73 0 10 7 26 15 37 8 10 15 27 15 36 0 22 32 87 43 88 4 0 10 -7 14 -16z m-2162 -144 c3 -5 4 -14 0 -20 -8 -13 -35 -1 -35 16 0 16 26 19 35 4z m-57 -66 c2 -16 10 -36 18 -45 12 -13 12 -22 3 -42 -9 -21 -8 -29 11 -55 13 -18 25 -52 29 -88 4 -33 10 -65 15 -72 5 -8 3 -24 -5 -39 -11 -20 -11 -26 1 -33 12 -7 13 -13 4 -28 -8 -12 -9 -24 -2 -36 12 -21 1 -73 -17 -80 -7 -2 -19 2 -25 9 -10 12 -16 12 -44 -2 -17 -8 -35 -22 -39 -29 -4 -8 -12 -14 -17 -14 -5 0 -21 -12 -36 -27 -26 -25 -26 -29 -16 -70 7 -23 9 -49 6 -58 -4 -9 1 -24 9 -33 12 -13 16 -38 16 -91 0 -54 4 -78 16 -91 19 -22 23 -84 5 -104 -8 -11 -8 -19 0 -33 15 -23 1 -82 -22 -97 -14 -8 -24 -3 -52 29 -19 22 -37 52 -40 67 l-5 28 -36 -21 c-19 -12 -38 -32 -41 -45 -4 -16 -13 -24 -27 -24 -11 0 -28 -7 -38 -16 -24 -22 -53 -11 -44 16 4 12 1 27 -5 35 -11 13 -7 15 21 15 19 0 40 4 48 9 25 16 1 31 -50 31 -27 0 -49 4 -49 8 0 5 12 19 26 33 14 13 30 35 35 47 5 13 18 26 29 29 15 4 20 12 18 30 -4 34 24 53 52 35 29 -17 40 -15 40 9 0 19 -4 21 -30 16 -28 -6 -30 -4 -30 22 0 16 7 34 15 41 8 7 15 20 15 30 0 10 7 23 15 30 8 7 15 29 15 49 0 20 6 45 14 56 7 11 16 37 20 58 4 20 11 37 16 37 4 0 11 14 15 30 4 17 13 44 21 60 9 16 13 34 9 40 -3 5 2 24 12 40 14 25 15 34 5 50 -7 12 -8 21 -2 25 6 3 10 14 10 24 0 10 6 24 14 30 10 8 16 39 19 89 6 117 46 200 55 116z m2837 16 c16 -18 16 -20 1 -26 -24 -9 -46 3 -46 26 0 26 22 26 45 0z m-775 -19 c0 -6 -4 -13 -10 -16 -5 -3 -10 -17 -10 -30 0 -23 -66 -89 -80 -80 -4 3 -10 19 -14 36 -6 32 9 53 60 86 23 14 54 16 54 4z m-3710 -84 c0 -29 7 -65 15 -81 9 -16 13 -37 10 -45 -9 -24 -56 36 -53 68 1 15 -2 32 -6 39 -9 16 12 84 25 77 5 -4 9 -30 9 -58z m1855 2 c4 -6 -2 -13 -13 -16 -19 -5 -24 -17 -39 -100 -9 -54 -57 -35 -65 25 -4 31 -2 35 33 48 20 9 39 24 42 35 6 20 32 26 42 8z m1715 -4 c0 -8 -7 -15 -15 -15 -16 0 -20 12 -8 23 11 12 23 8 23 -8z m-51 -35 c27 -23 22 -50 -9 -50 -11 0 -20 -4 -20 -10 0 -5 7 -10 15 -10 32 0 47 -74 20 -94 -13 -9 -14 -17 -4 -43 6 -18 19 -35 30 -38 26 -8 24 -19 -6 -39 -24 -16 -35 -56 -15 -56 6 0 10 -11 10 -24 0 -14 5 -28 10 -31 18 -11 11 -37 -20 -72 -16 -18 -30 -38 -30 -43 0 -6 -9 -10 -20 -10 -23 0 -24 3 -8 47 10 29 10 35 -6 46 -15 11 -18 23 -14 60 6 48 -11 92 -26 69 -12 -20 -32 -13 -44 13 -17 38 -15 55 8 55 11 0 20 -6 20 -14 0 -21 21 -31 31 -15 13 21 11 57 -4 66 -8 4 -17 30 -21 57 -7 55 -26 81 -71 101 l-30 13 32 7 c18 4 38 14 44 21 18 21 99 17 128 -6z m788 -84 c-6 -18 -49 -36 -86 -36 -29 0 -32 2 -21 15 7 9 19 14 25 11 7 -2 19 4 28 14 17 20 61 17 54 -4z m-948 -14 c13 -25 -2 -46 -27 -38 -16 5 -27 -2 -49 -29 -30 -38 -48 -43 -78 -21 -18 13 -18 14 4 21 12 3 33 24 47 46 20 33 29 39 59 39 23 0 38 -6 44 -18z m1774 -24 c8 -28 1 -38 -28 -38 -32 0 -41 17 -19 41 23 25 40 24 47 -3z m-863 -78 c-15 -21 -30 -30 -49 -30 -15 0 -36 -9 -45 -19 -17 -18 -21 -19 -59 -5 -40 14 -43 14 -59 -6 -11 -13 -28 -20 -51 -20 -44 0 -57 -28 -32 -66 19 -30 27 -184 11 -224 -5 -14 -10 -34 -10 -44 -1 -12 -17 -28 -46 -43 -25 -13 -57 -36 -72 -50 -38 -37 -58 -26 -51 29 3 24 10 51 15 61 5 11 12 53 15 95 5 59 11 84 29 108 17 21 20 34 13 41 -6 6 -9 28 -7 49 2 30 8 40 23 42 34 7 125 51 125 62 0 17 51 24 61 9 8 -12 12 -11 22 3 8 10 35 20 64 24 29 3 64 14 80 24 39 24 52 1 23 -40z m-882 27 c3 -13 -4 -17 -26 -17 -39 0 -47 11 -20 27 28 15 42 12 46 -10z m1662 2 c0 -12 -29 -24 -37 -16 -3 4 -3 13 0 21 6 16 37 11 37 -5z m-1418 -52 c-2 -17 3 -29 13 -33 22 -9 19 -67 -4 -88 -31 -29 -41 -11 -41 75 0 71 2 80 18 77 12 -3 16 -12 14 -31z m192 -12 c19 -29 20 -50 4 -109 -8 -30 -19 -48 -35 -55 -24 -11 -30 -26 -13 -36 17 -11 11 -42 -12 -59 -22 -15 -22 -16 -5 -27 17 -10 17 -12 2 -22 -9 -7 -17 -29 -18 -52 -2 -36 -5 -40 -29 -43 -16 -2 -28 -9 -28 -16 0 -20 11 -26 31 -16 23 13 49 2 49 -20 0 -15 -8 -17 -55 -13 -54 4 -55 3 -55 -22 0 -15 -7 -33 -15 -41 -8 -9 -15 -24 -15 -33 0 -10 7 -24 15 -31 22 -18 18 -34 -15 -58 -36 -27 -60 -28 -60 -3 0 26 -10 51 -21 51 -5 0 -9 -9 -9 -19 0 -25 -16 -36 -27 -18 -4 8 -18 19 -29 25 -19 10 -24 8 -37 -11 l-15 -22 -26 24 c-25 24 -33 61 -20 95 9 22 31 20 39 -4 3 -11 10 -20 15 -20 5 0 12 -9 15 -21 l7 -21 15 22 15 21 24 -22 24 -22 0 39 c0 40 -29 116 -49 128 -6 4 -11 22 -11 41 0 26 10 43 45 79 25 26 45 49 45 52 0 9 62 87 80 101 8 7 22 12 30 12 11 0 10 -3 -4 -14 -16 -12 -17 -18 -8 -27 20 -20 37 8 37 60 0 44 2 47 30 52 26 4 30 10 33 40 4 34 17 60 32 60 4 0 15 -11 24 -25z m-464 -90 c0 -39 -3 -45 -21 -45 -18 0 -20 4 -14 29 3 17 2 32 -5 36 -15 9 -2 25 21 25 16 0 19 -7 19 -45z m847 15 c3 -17 10 -33 14 -36 5 -3 9 -13 9 -23 0 -10 7 -24 15 -31 8 -7 15 -23 15 -36 0 -12 5 -26 10 -29 16 -10 12 -42 -6 -49 -9 -3 -25 -6 -37 -6 -12 0 -44 -11 -72 -25 -67 -33 -105 -33 -105 -1 0 13 7 29 15 36 8 7 15 17 15 23 0 6 7 19 16 29 13 13 17 35 16 83 -1 62 0 65 22 65 13 0 29 7 36 15 19 23 30 18 37 -15z m117 13 c3 -10 13 -29 21 -43 8 -14 15 -37 15 -52 0 -15 5 -30 10 -33 15 -9 12 -65 -2 -65 -16 0 -64 70 -59 84 9 25 -1 72 -19 91 -11 12 -17 25 -13 28 13 13 41 7 47 -10z m-246 -60 c-4 -22 -22 -20 -26 1 -2 10 3 16 13 16 10 0 15 -7 13 -17z m-1006 -10 c34 -4 54 -13 74 -34 15 -16 36 -29 45 -29 10 0 23 -8 28 -17 9 -16 10 -16 11 -2 0 28 25 42 50 29 20 -11 21 -17 16 -64 -6 -45 -4 -55 13 -70 13 -12 21 -31 20 -50 -1 -53 13 -136 23 -136 5 0 8 -12 6 -27 -4 -35 -22 -37 -26 -3 -2 13 -13 30 -23 38 -15 10 -19 26 -19 73 0 51 -2 59 -17 57 -21 -4 -31 38 -14 55 14 14 14 47 1 47 -5 0 -10 -11 -10 -25 0 -40 -24 -30 -57 24 -23 36 -39 51 -62 56 -17 4 -36 15 -41 26 -8 15 -22 19 -60 19 -53 0 -80 -7 -80 -21 0 -5 9 -9 19 -9 31 0 33 -16 6 -34 -32 -21 -35 -20 -35 10 0 16 -5 24 -12 21 -7 -2 -12 -16 -10 -30 1 -14 -2 -28 -8 -32 -5 -3 -10 -24 -10 -46 0 -27 -5 -42 -16 -46 -24 -9 -41 17 -48 73 -6 46 -4 52 14 57 11 3 20 13 20 25 0 38 80 85 130 76 14 -3 46 -7 72 -11z m158 -8 c10 -12 8 -16 -11 -24 -28 -10 -44 1 -36 23 8 20 31 21 47 1z m-1463 -22 c3 -10 13 -26 21 -35 13 -16 13 -18 -2 -24 -29 -11 -46 3 -46 41 0 37 16 47 27 18z m2693 -18 c7 -8 18 -15 26 -15 17 0 29 -19 17 -31 -16 -16 -80 2 -91 26 -6 13 -8 26 -5 29 11 11 40 6 53 -9z m-1052 -7 c5 -7 10 -35 11 -62 0 -30 7 -56 17 -67 18 -20 13 -48 -15 -73 -16 -15 -22 -15 -40 -4 -26 16 -27 36 -4 53 17 12 17 14 1 32 -29 31 -38 69 -27 103 11 31 38 40 57 18z m-1711 -20 c6 -7 14 -30 17 -52 6 -32 4 -42 -15 -62 l-22 -24 34 0 c43 0 59 -15 59 -56 0 -60 -6 -64 -81 -64 l-69 0 0 30 c0 18 7 33 19 39 28 15 33 39 15 67 -16 23 -15 26 2 45 22 24 10 50 -26 59 -13 3 -25 11 -28 18 -5 16 82 16 95 0z m2383 -3 c0 -8 -7 -15 -15 -15 -8 0 -15 7 -15 15 0 8 7 15 15 15 8 0 15 -7 15 -15z m-1010 -20 c0 -14 -29 -35 -49 -35 -17 0 -13 28 7 39 25 15 42 13 42 -4z m-1450 -40 c0 -15 -38 -41 -47 -32 -2 3 0 15 7 26 12 24 40 28 40 6z m1524 -34 c35 -47 36 -52 36 -132 -1 -58 -5 -90 -15 -103 -8 -11 -15 -39 -15 -62 0 -24 -5 -46 -11 -49 -9 -6 -46 -81 -62 -127 -4 -10 -13 -18 -20 -18 -7 0 -20 -11 -27 -25 -23 -43 -43 -40 -147 22 -55 32 -118 67 -141 78 -34 16 -42 25 -42 48 0 15 4 27 8 27 4 0 26 23 47 52 22 28 44 56 50 62 6 6 17 22 26 35 14 22 23 25 85 26 106 1 164 49 164 134 l0 26 -23 -27 c-12 -14 -32 -31 -44 -37 -15 -8 -22 -19 -20 -34 2 -19 -3 -22 -33 -25 -22 -1 -48 5 -69 18 -32 20 -33 23 -17 38 13 14 20 14 36 4 11 -6 25 -12 31 -12 13 0 59 46 59 59 0 4 15 12 34 19 18 7 41 21 51 32 10 11 19 20 21 20 1 0 18 -22 38 -49z m-3294 -1 c0 -11 7 -23 15 -26 8 -4 15 -15 15 -26 0 -15 -6 -19 -27 -16 -25 3 -28 7 -29 38 0 40 3 50 17 50 5 0 9 -9 9 -20z m3138 8 c-7 -19 -38 -22 -38 -4 0 10 9 16 21 16 12 0 19 -5 17 -12z m-3645 -62 c3 -8 21 -18 39 -21 23 -4 39 -16 50 -35 9 -16 29 -32 45 -36 15 -4 42 -21 59 -38 18 -17 55 -39 83 -49 68 -24 68 -45 -1 -49 -58 -3 -58 -2 -43 -80 6 -31 5 -38 -9 -38 -10 0 -16 8 -16 24 0 13 -6 29 -14 35 -8 7 -17 34 -21 61 -6 42 -11 50 -36 59 -16 5 -43 26 -60 46 -18 20 -46 43 -63 51 -17 8 -47 23 -66 33 -19 11 -43 22 -53 25 -34 11 -6 26 48 26 37 0 55 -4 58 -14z m-1138 -36 c10 -31 -2 -40 -51 -40 -38 0 -45 3 -42 17 3 19 42 43 70 43 9 0 19 -9 23 -20z m1905 5 c0 -8 -6 -15 -14 -15 -17 0 -28 14 -19 24 12 12 33 6 33 -9z m3160 -61 c0 -8 -7 -14 -15 -14 -15 0 -21 21 -9 33 10 9 24 -2 24 -19z m-476 -6 c-1 -18 -73 -118 -85 -118 -26 0 -2 58 50 123 16 20 37 17 35 -5z m666 7 c10 -12 9 -20 -4 -40 -9 -14 -21 -25 -26 -25 -15 0 -22 38 -10 60 13 24 23 25 40 5z m-2227 -44 c31 -12 41 -40 27 -76 -15 -38 -109 -134 -139 -142 -15 -3 -41 -17 -59 -31 -18 -14 -35 -22 -39 -18 -4 3 1 30 10 59 8 28 17 72 19 97 2 36 0 45 -14 48 -14 3 -18 -3 -18 -23 0 -27 -20 -41 -46 -31 -13 5 -14 9 -4 22 10 11 10 18 2 26 -22 22 -14 41 14 34 16 -4 32 -2 41 6 9 7 50 18 92 24 42 6 79 12 83 13 4 0 18 -3 31 -8z m507 -24 c0 -12 -7 -31 -15 -41 -8 -11 -15 -30 -15 -43 0 -16 -6 -23 -20 -23 -22 0 -40 28 -40 61 0 12 -7 31 -16 41 -20 21 -12 26 51 30 50 4 55 2 55 -25z m-3535 3 c3 -5 15 -10 25 -10 10 0 30 -14 44 -31 14 -17 42 -35 61 -40 19 -6 39 -19 45 -29 6 -12 21 -20 36 -20 13 0 27 -7 30 -15 4 -8 15 -15 26 -15 20 0 88 -67 88 -87 0 -23 -17 -22 -40 2 -13 14 -28 25 -35 25 -6 0 -16 14 -22 30 -12 33 -37 39 -51 14 -14 -24 -55 -14 -62 16 -4 18 -13 26 -35 28 -16 2 -41 16 -56 30 -55 53 -67 60 -108 60 -22 0 -41 -3 -41 -9 0 -5 -7 -9 -16 -9 -11 0 -14 8 -12 28 3 28 2 28 105 40 6 1 15 -2 18 -8z m5135 -116 c30 -57 27 -68 -16 -61 -53 9 -65 23 -58 66 10 62 11 64 34 48 12 -8 30 -32 40 -53z m-4559 36 c24 -14 24 -27 -1 -54 -83 -88 -86 -90 -96 -51 -7 27 14 66 50 97 25 21 23 20 47 8z m3011 -20 c10 0 39 -20 65 -45 25 -25 49 -45 53 -45 3 0 22 -13 40 -30 18 -16 39 -30 45 -30 6 0 25 -13 43 -28 17 -15 56 -39 86 -52 38 -17 59 -33 67 -52 10 -25 17 -28 59 -28 27 0 50 -5 52 -11 2 -5 36 -19 77 -29 40 -11 79 -24 85 -29 6 -5 34 -11 61 -13 43 -3 50 -6 55 -27 8 -34 22 -36 55 -5 24 22 37 26 105 28 58 1 81 6 94 19 21 21 30 21 46 2 15 -18 30 -11 30 14 0 17 31 44 84 71 16 8 31 21 34 30 3 8 11 19 19 23 7 4 13 15 13 22 0 8 9 15 21 15 24 0 20 -20 -15 -84 -41 -75 -46 -81 -68 -86 -13 -3 -24 -15 -26 -25 -5 -28 -62 -85 -84 -85 -31 0 -20 -39 23 -80 23 -21 51 -40 63 -42 15 -2 22 -11 24 -30 4 -37 -19 -37 -51 1 -18 22 -37 31 -73 36 -27 4 -54 12 -61 17 -6 5 -50 9 -97 9 -77 0 -90 -3 -119 -25 -19 -15 -44 -26 -55 -26 -21 0 -22 5 -22 75 0 69 -2 76 -22 85 -27 10 -77 23 -98 25 -8 1 -23 5 -34 10 -13 6 -21 3 -28 -8 -5 -10 -18 -17 -29 -17 -12 0 -23 -8 -26 -20 -4 -15 -14 -20 -42 -20 -20 0 -45 -7 -56 -16 -16 -12 -36 -14 -95 -9 -41 4 -79 12 -85 19 -5 6 -27 22 -48 35 -29 18 -36 28 -32 43 9 27 -13 52 -32 37 -18 -16 -63 25 -63 58 0 25 -19 30 -38 11 -8 -8 -14 -5 -21 15 -6 15 -17 27 -25 27 -8 0 -34 18 -57 39 l-44 39 23 44 c13 23 27 50 31 58 5 8 19 37 31 63 16 35 25 46 33 38 6 -6 19 -11 29 -11z m-114 -55 c-2 -14 -7 -26 -13 -26 -5 0 -11 12 -13 26 -2 18 1 25 13 25 12 0 15 -7 13 -25z m1840 -33 c14 -32 3 -86 -19 -90 -12 -2 -69 82 -69 102 0 10 43 23 60 19 9 -2 21 -16 28 -31z m-278 13 c0 -16 -55 -22 -64 -6 -8 13 5 21 36 21 18 0 28 -5 28 -15z m-634 -64 c0 -22 2 -43 6 -46 12 -12 28 5 28 30 0 36 14 37 59 5 22 -17 43 -30 46 -30 10 0 166 -93 171 -102 9 -14 -26 -37 -66 -43 -19 -4 -46 -10 -60 -15 -37 -13 -203 -22 -218 -12 -10 7 -8 19 12 57 15 26 26 59 26 73 0 21 -3 23 -25 18 -18 -5 -25 -2 -25 9 0 8 4 15 10 15 5 0 13 18 16 40 8 51 22 52 20 1z m-1436 5 c6 -8 21 -16 33 -18 26 -4 29 -27 5 -41 -27 -18 -68 10 -68 45 0 31 11 36 30 14z m2040 -7 c0 -19 -35 -58 -52 -59 -15 0 -8 44 10 61 23 24 42 23 42 -2z m193 -7 c9 -8 17 -21 17 -27 0 -7 7 -18 15 -25 20 -17 19 -62 -2 -91 -27 -37 -53 -86 -53 -101 0 -7 -9 -24 -19 -38 l-19 -24 -54 37 c-30 20 -60 37 -68 37 -19 0 -80 49 -80 64 0 8 6 19 14 25 23 19 86 131 86 152 0 19 5 20 73 13 41 -4 79 -13 90 -22z m-3801 -24 c-15 -15 -26 -4 -18 18 5 13 9 15 18 6 9 -9 9 -15 0 -24z m1505 -2 c-4 -9 -13 -13 -22 -10 -18 7 -20 31 -2 37 17 6 31 -9 24 -27z m-1914 -33 c3 -16 8 -39 12 -53 3 -17 -1 -33 -14 -50 -20 -25 -20 -25 -40 -5 -27 28 -31 88 -7 114 26 29 43 26 49 -6z m1863 2 c8 -34 -12 -58 -37 -44 -16 8 -21 5 -29 -16 -7 -18 -17 -25 -35 -25 -38 0 -32 34 13 75 45 42 79 46 88 10z m414 -20 c0 -8 -7 -15 -15 -15 -8 0 -15 7 -15 15 0 8 7 15 15 15 8 0 15 -7 15 -15z m-1832 -46 c2 -13 9 -30 14 -36 8 -10 4 -13 -16 -13 -24 0 -26 3 -26 41 0 45 22 51 28 8z m2007 11 c0 -22 -29 -18 -33 3 -3 14 1 18 15 15 10 -2 18 -10 18 -18z m-2608 -111 c13 -13 6 -40 -14 -52 -7 -4 -13 -17 -13 -27 0 -26 -12 -25 -36 1 -10 12 -29 25 -41 30 -27 10 -29 22 -7 43 18 19 94 22 111 5z m1149 0 c3 -6 2 -15 -4 -21 -12 -12 -55 8 -47 23 8 12 42 12 51 -2z m1222 -7 c5 -17 -27 -27 -41 -13 -9 9 -8 14 3 21 18 11 32 8 38 -8z m1748 -33 c3 -5 13 -9 23 -9 9 0 30 -13 45 -29 16 -16 39 -32 52 -35 20 -5 24 -13 24 -44 0 -20 -7 -50 -15 -66 -8 -15 -15 -41 -15 -56 0 -52 -21 -61 -134 -58 l-101 3 -3 48 c-2 30 -8 50 -18 54 -8 3 -14 10 -14 16 0 7 -18 28 -41 49 -40 37 -44 58 -11 58 16 0 53 26 102 71 10 9 24 19 31 21 16 6 67 -10 75 -23z m-3406 -30 c8 -11 27 -27 41 -34 31 -16 45 -53 23 -62 -22 -8 -114 67 -114 94 0 30 30 31 50 2z m518 -52 c2 -15 -1 -34 -6 -43 -9 -15 -11 -15 -22 5 -14 27 -5 74 13 68 7 -2 13 -15 15 -30z m2140 -33 c2 -12 14 -26 28 -32 28 -13 30 -28 7 -54 -26 -29 -43 -22 -43 16 0 23 -7 38 -22 48 -15 10 -19 20 -15 32 9 23 41 16 45 -10z m-2195 9 c11 -10 -24 -43 -45 -43 -18 0 -18 1 -1 25 18 24 34 31 46 18z m1257 -7 c0 -7 7 -19 16 -26 9 -8 14 -25 12 -44 -4 -38 -32 -45 -67 -15 -21 17 -23 23 -13 40 7 10 12 28 12 39 0 13 7 20 20 20 11 0 20 -6 20 -14z m-1580 -40 c0 -30 -16 -42 -35 -26 -25 21 -19 50 10 50 20 0 25 -5 25 -24z m-1477 7 c8 -14 -13 -73 -26 -73 -7 1 -25 12 -42 25 l-29 24 24 9 c14 5 32 12 40 15 22 8 28 8 33 0z m1827 -31 c0 -25 -55 -76 -74 -69 -27 11 -18 44 17 65 41 26 57 27 57 4z m1904 3 c-1 -14 -53 -50 -61 -42 -13 14 20 58 41 55 12 -2 21 -7 20 -13z m-505 -30 c27 -26 6 -42 -51 -40 -49 2 -53 4 -53 25 0 39 69 48 104 15z m1181 -11 c53 -18 80 -40 80 -66 0 -11 -7 -18 -17 -18 -10 0 -98 -1 -195 -3 -97 -2 -182 -1 -188 3 -7 4 -9 16 -6 27 5 17 19 21 84 27 43 3 103 15 133 25 30 10 56 19 59 20 3 0 25 -6 50 -15z m-1282 -65 c52 -13 52 -13 52 -52 0 -31 -3 -38 -17 -35 -10 2 -19 12 -19 23 -1 11 -2 24 -3 29 -1 5 -12 -1 -26 -14 -17 -16 -25 -34 -25 -57 0 -18 -5 -33 -12 -33 -24 0 -167 125 -155 136 23 24 112 25 205 3z m-2829 -115 c42 -35 42 -59 -1 -50 -22 4 -37 1 -49 -10 -20 -18 -49 -12 -49 10 0 16 47 76 60 76 5 0 22 -12 39 -26z m-239 -80 c0 -8 -7 -14 -15 -14 -15 0 -21 21 -9 33 10 9 24 -2 24 -19z m90 -38 c0 -8 -4 -18 -10 -21 -5 -3 -10 3 -10 14 0 12 5 21 10 21 6 0 10 -6 10 -14z m67 -8 c4 -7 6 -23 4 -35 -1 -13 2 -23 8 -23 18 0 12 -26 -9 -45 -36 -32 -55 14 -36 88 7 29 20 35 33 15z m863 -103 c0 -8 -7 -15 -15 -15 -8 0 -15 7 -15 15 0 8 7 15 15 15 8 0 15 -7 15 -15z m1950 -10 c0 -16 -6 -25 -15 -25 -9 0 -15 9 -15 25 0 16 6 25 15 25 9 0 15 -9 15 -25z m-1945 -45 c3 -6 -1 -13 -10 -16 -19 -8 -30 0 -20 15 8 14 22 14 30 1z m2279 2 c3 -5 2 -18 -1 -30 -6 -25 -41 -30 -49 -7 -11 28 35 61 50 37z m-2185 -21 c17 -11 8 -39 -15 -48 -11 -4 -22 1 -31 13 -12 16 -11 20 4 31 20 15 24 16 42 4z m1821 -15 c0 -32 -47 -86 -55 -64 -7 16 31 88 46 88 5 0 9 -11 9 -24z m-1550 -21 c10 -12 7 -16 -16 -25 -15 -6 -33 -9 -41 -6 -19 8 -16 34 5 39 31 8 39 7 52 -8z m114 -45 c4 -25 8 -61 9 -82 1 -20 12 -50 25 -67 12 -16 22 -37 22 -44 0 -8 7 -20 15 -27 9 -7 13 -21 9 -35 -6 -24 17 -55 42 -55 18 0 18 -9 -3 -32 -14 -16 -14 -22 -2 -46 7 -15 15 -30 17 -34 2 -5 -5 -8 -17 -8 -11 0 -23 -4 -26 -10 -14 -23 -53 -10 -74 25 -11 19 -16 37 -10 40 5 4 9 -1 9 -9 0 -19 26 -21 36 -4 4 7 -2 18 -14 26 -12 8 -22 21 -22 30 0 23 -23 82 -32 82 -4 0 -12 -10 -19 -21 -10 -19 -13 -20 -26 -6 -12 12 -13 22 -6 44 7 18 7 37 1 53 l-10 25 -17 -32 -16 -33 -38 31 c-41 34 -47 62 -18 97 26 30 39 28 43 -10 2 -17 9 -33 16 -36 9 -3 12 15 12 66 0 69 1 71 38 100 20 17 40 28 43 24 4 -4 10 -27 13 -52z m-1229 -40 c7 -33 1 -50 -19 -50 -13 0 -28 57 -19 73 10 17 32 5 38 -23z m990 10 c10 -31 -2 -40 -51 -40 -48 0 -55 11 -27 42 22 25 70 24 78 -2z m55 -11 c0 -10 -7 -19 -15 -19 -15 0 -21 31 -9 43 11 10 24 -3 24 -24z m964 22 c3 -5 3 -23 0 -40 -5 -22 -14 -33 -31 -37 -33 -9 -49 8 -29 29 9 9 16 22 16 30 0 25 32 38 44 18z m-1504 -31 c0 -11 -7 -20 -15 -20 -8 0 -15 9 -15 20 0 11 7 20 15 20 8 0 15 -9 15 -20z m2450 -1 c0 -20 -21 -49 -35 -49 -20 0 -19 19 3 41 20 21 32 24 32 8z m-2625 -29 c3 -6 -1 -13 -10 -16 -19 -8 -30 0 -20 15 8 14 22 14 30 1z m1795 -9 c0 -27 -15 -34 -40 -19 -30 19 -25 38 10 38 23 0 30 -5 30 -19z m-1110 -21 c0 -24 -26 -38 -42 -22 -8 8 -8 15 2 27 18 21 40 19 40 -5z m2832 -7 c8 -10 23 -38 33 -63 10 -25 30 -58 45 -75 29 -33 56 -83 49 -90 -5 -4 -58 45 -89 82 -24 29 -70 123 -70 144 0 24 12 24 32 2z m-1301 -25 c1 -7 0 -23 -1 -36 -1 -13 6 -29 16 -36 21 -16 10 -36 -20 -36 -20 0 -24 6 -29 40 -3 22 -3 49 0 60 6 22 32 28 34 8z m-781 -113 c0 -16 -6 -25 -15 -25 -15 0 -21 31 -8 43 13 14 23 6 23 -18z m-623 -1 c1 -5 -2 -16 -7 -24 -12 -20 -35 2 -26 25 6 17 27 16 33 -1z m1132 2 c13 -16 4 -49 -13 -43 -14 4 -21 57 -8 57 5 0 15 -6 21 -14z m181 -36 c0 -11 -7 -20 -15 -20 -8 0 -15 9 -15 20 0 11 7 20 15 20 8 0 15 -9 15 -20z m-2360 -5 c0 -20 -38 -57 -53 -52 -17 5 -21 48 -5 58 22 14 58 10 58 -6z m168 4 c-2 -6 -8 -10 -13 -10 -5 0 -11 4 -13 10 -2 6 4 11 13 11 9 0 15 -5 13 -11z m2157 -75 c0 -28 -2 -29 -49 -29 -27 0 -51 5 -53 11 -4 11 74 53 92 49 6 -1 10 -15 10 -31z m-475 -9 c0 -8 -7 -15 -15 -15 -8 0 -15 7 -15 15 0 8 7 15 15 15 8 0 15 -7 15 -15z m-1830 -60 c0 -55 -20 -60 -43 -12 -15 29 -15 33 0 45 32 23 43 14 43 -33z m2100 0 c0 -8 -4 -15 -10 -15 -5 0 -10 7 -10 15 0 8 5 15 10 15 6 0 10 -7 10 -15z m201 -10 c0 -5 -12 -11 -26 -13 -18 -2 -25 1 -25 13 0 12 7 15 25 13 14 -2 26 -7 26 -13z m-1186 -40 c0 -28 -29 -25 -33 3 -3 19 0 23 15 20 10 -2 18 -12 18 -23z m1531 -120 c6 -25 43 -43 62 -31 17 10 30 -17 21 -41 -10 -27 -17 -28 -48 -7 -21 15 -24 15 -42 -5 -21 -23 -59 -29 -59 -9 0 6 7 19 15 28 14 15 14 18 0 30 -19 16 -19 25 1 44 23 23 43 20 50 -9z m-98 -35 c3 -15 -3 -29 -14 -37 -35 -25 -44 -9 -24 42 12 31 34 28 38 -5z m-84 -36 c4 -10 -1 -25 -10 -35 -9 -10 -13 -22 -10 -28 5 -7 -3 -7 -24 0 -36 13 -37 25 -8 56 25 27 43 29 52 7z m-138 -5 c11 -18 -28 -48 -66 -51 -26 -2 -35 1 -38 15 -2 11 3 17 16 17 11 0 25 7 32 15 15 18 46 20 56 4z m2003 -44 c13 -14 21 -28 18 -31 -8 -8 -97 35 -97 47 0 19 56 8 79 -16z m-4029 -25 c0 -5 -6 -10 -14 -10 -8 0 -18 5 -21 10 -3 6 3 10 14 10 12 0 21 -4 21 -10z m2053 -20 c37 -43 10 -68 -32 -29 -17 16 -20 24 -10 35 15 19 21 18 42 -6z m166 6 c9 -11 10 -20 1 -35 -13 -26 -14 -26 -44 3 -31 28 -32 33 -8 39 31 8 39 7 51 -7z m1934 -26 c38 -26 54 -30 109 -30 41 0 71 -5 84 -15 10 -8 40 -15 67 -15 37 0 47 -4 47 -16 0 -14 -11 -16 -80 -12 -45 3 -86 10 -92 16 -7 7 -30 12 -52 12 -46 0 -166 56 -166 77 0 22 37 14 83 -17z m-2021 -2 c2 -15 11 -24 26 -26 27 -4 30 -32 2 -32 -36 0 -74 53 -53 73 12 13 22 7 25 -15z m-2185 -4 c3 -8 1 -20 -5 -26 -15 -15 -43 8 -35 28 7 19 32 18 40 -2z m173 -9 c0 -8 -6 -15 -14 -15 -17 0 -28 14 -19 24 12 12 33 6 33 -9z m309 5 c11 -5 21 -26 25 -48 4 -29 12 -42 32 -50 14 -7 24 -18 22 -25 -7 -19 -82 -21 -98 -2 -7 8 -22 15 -33 15 -11 0 -29 8 -39 17 -18 16 -21 16 -47 0 -16 -9 -41 -17 -55 -17 -14 0 -29 -8 -35 -17 -8 -14 -12 -15 -22 -6 -12 12 -10 21 19 73 5 8 13 24 19 35 13 26 40 31 62 11 15 -14 20 -14 37 -2 11 8 36 16 55 19 19 2 35 5 37 5 2 1 11 -2 21 -8z m1731 -121 c0 -20 -24 -26 -35 -9 -8 13 14 42 26 34 5 -3 9 -14 9 -25z"/>
<path d="M8400 4762 c0 -15 -5 -33 -11 -39 -8 -8 -7 -13 1 -18 7 -5 22 4 36 21 28 34 30 50 8 58 -28 11 -34 7 -34 -22z"/>
<path d="M1926 4587 c-29 -23 -34 -62 -7 -62 11 0 45 74 38 82 -2 1 -15 -8 -31 -20z"/>
<path d="M6320 4495 c0 -8 5 -15 10 -15 6 0 10 7 10 15 0 8 -4 15 -10 15 -5 0 -10 -7 -10 -15z"/>
<path d="M6656 3833 c-11 -11 -6 -23 9 -23 8 0 15 4 15 9 0 13 -16 22 -24 14z"/>
<path d="M6897 3814 c-13 -13 -7 -32 17 -58 27 -31 36 -32 36 -8 0 22 -43 76 -53 66z"/>
<path d="M7100 3630 c0 -11 7 -20 15 -20 8 0 15 9 15 20 0 11 -7 20 -15 20 -8 0 -15 -9 -15 -20z"/>
<path d="M7130 3581 c0 -21 38 -54 52 -45 13 8 10 18 -12 42 -26 27 -40 28 -40 3z"/>
<path d="M7047 3974 c-4 -4 -7 -18 -7 -31 0 -20 5 -23 40 -23 26 0 42 -6 48 -17 6 -10 16 -14 26 -10 23 9 20 25 -6 29 -14 2 -24 12 -28 28 -4 19 -13 26 -36 28 -16 2 -33 0 -37 -4z"/>
<path d="M7173 3863 c-20 -7 -15 -51 6 -63 35 -18 58 -12 64 18 8 39 -28 63 -70 45z"/>
<path d="M7284 3835 c-8 -31 16 -116 35 -123 7 -3 17 1 22 9 15 24 10 51 -11 56 -23 6 -27 41 -5 49 25 10 17 34 -10 34 -18 0 -26 -7 -31 -25z"/>
<path d="M6245 3610 c-3 -5 -4 -10 -1 -10 2 0 11 -3 20 -6 11 -4 16 -1 16 10 0 18 -25 22 -35 6z"/>
<path d="M3770 3455 c0 -9 5 -15 11 -13 6 2 11 8 11 13 0 5 -5 11 -11 13 -6 2 -11 -4 -11 -13z"/>
<path d="M3758 3293 c-10 -2 -18 -11 -18 -19 0 -22 54 -14 58 9 3 17 -6 19 -40 10z"/>
<path d="M3620 2825 c0 -8 7 -15 15 -15 8 0 15 7 15 15 0 8 -7 15 -15 15 -8 0 -15 -7 -15 -15z"/>
<path d="M3802 2948 c6 -18 28 -21 28 -4 0 9 -7 16 -16 16 -9 0 -14 -5 -12 -12z"/>
<path d="M3927 2683 c-12 -11 -8 -23 8 -23 8 0 15 7 15 15 0 16 -12 20 -23 8z"/>
<path d="M4029 2594 c-11 -14 -10 -18 6 -30 16 -12 21 -12 34 0 12 12 12 18 1 30 -16 20 -24 20 -41 0z"/>
<path d="M3880 2585 c0 -14 21 -45 31 -45 18 0 5 45 -13 48 -10 2 -18 1 -18 -3z"/>
<path d="M4018 2468 c-9 -23 3 -38 28 -38 19 0 24 5 24 25 0 20 -5 25 -24 25 -13 0 -26 -6 -28 -12z"/>
<path d="M4130 2465 c0 -10 10 -15 30 -15 20 0 30 5 30 15 0 10 -10 15 -30 15 -20 0 -30 -5 -30 -15z"/>
<path d="M4940 2270 c0 -35 25 -41 33 -8 7 26 1 38 -19 38 -9 0 -14 -11 -14 -30z"/>
<path d="M1697 734 c-9 -10 2 -24 19 -24 8 0 14 7 14 15 0 15 -21 21 -33 9z"/>
<path d="M5728 5589 c-2 -6 -22 -14 -43 -18 -27 -4 -41 -12 -43 -24 -3 -13 4 -17 32 -17 19 0 41 6 49 14 10 11 17 12 25 4 17 -17 44 -1 40 24 -2 16 -11 24 -29 26 -15 2 -29 -2 -31 -9z"/>
<path d="M6565 5589 c-10 -15 3 -25 16 -12 7 7 7 13 1 17 -6 3 -14 1 -17 -5z"/>
<path d="M6353 5560 c-13 -5 -23 -15 -23 -21 0 -8 5 -8 16 2 13 10 17 10 25 -2 5 -8 9 -17 9 -21 0 -17 29 -7 35 12 12 37 -13 49 -62 30z"/>
<path d="M6680 5526 c0 -9 7 -16 16 -16 9 0 14 5 12 12 -6 18 -28 21 -28 4z"/>
<path d="M5727 5443 c-15 -15 -5 -23 27 -23 41 0 56 15 23 24 -29 8 -42 7 -50 -1z"/>
<path d="M7120 5440 c-12 -8 -12 -10 2 -15 20 -8 41 2 33 16 -8 11 -16 11 -35 -1z"/>
<path d="M6874 5411 c10 -18 24 -31 35 -31 10 0 24 -7 31 -15 7 -8 19 -15 26 -15 8 0 14 -4 14 -10 0 -16 176 -13 192 3 7 7 22 17 33 21 14 6 16 10 7 13 -8 3 -19 0 -25 -6 -6 -6 -45 -11 -90 -11 -84 0 -131 17 -140 52 -4 12 -14 18 -35 18 -17 0 -38 3 -47 6 -16 6 -16 5 -1 -25z"/>
<path d="M2062 4298 c4 -28 45 -38 55 -13 7 19 -12 35 -40 35 -13 0 -18 -6 -15 -22z"/>
<path d="M2030 4248 c0 -6 -8 -20 -17 -30 -15 -17 -15 -21 -3 -29 28 -17 45 -5 48 34 2 28 0 37 -12 37 -9 0 -16 -5 -16 -12z"/>
<path d="M1880 3755 c0 -8 9 -15 20 -15 11 0 20 7 20 15 0 8 -9 15 -20 15 -11 0 -20 -7 -20 -15z"/>
<path d="M1970 3755 c0 -8 7 -15 15 -15 8 0 15 7 15 15 0 8 -7 15 -15 15 -8 0 -15 -7 -15 -15z"/>
<path d="M1874 3645 c-4 -9 -2 -21 4 -27 15 -15 44 -1 40 19 -4 23 -36 29 -44 8z"/>
<path d="M1281 3592 c-13 -24 -2 -92 14 -92 19 0 26 28 19 66 -8 42 -20 51 -33 26z"/>
<path d="M1856 3533 c-12 -12 -6 -33 9 -33 8 0 15 6 15 14 0 17 -14 28 -24 19z"/>
<path d="M1821 3467 c-7 -7 -7 -14 0 -23 12 -15 39 -7 39 11 0 18 -25 26 -39 12z"/>
<path d="M1720 3210 c0 -5 7 -10 15 -10 8 0 15 5 15 10 0 6 -7 10 -15 10 -8 0 -15 -4 -15 -10z"/>
<path d="M1797 3183 c-13 -12 -7 -43 7 -43 19 0 28 14 20 34 -7 17 -16 20 -27 9z"/>
<path d="M1556 3173 c-12 -12 -6 -33 9 -33 8 0 15 6 15 14 0 17 -14 28 -24 19z"/>
<path d="M1136 3132 c-3 -6 -1 -14 5 -17 15 -10 25 3 12 16 -7 7 -13 7 -17 1z"/>
<path d="M1610 3115 c-17 -21 -4 -67 18 -63 12 2 17 13 17 37 0 38 -15 50 -35 26z"/>
<path d="M7103 3112 c-39 -4 -41 -11 -10 -40 17 -16 36 -22 70 -22 33 0 49 -5 56 -17 7 -13 20 -17 49 -15 31 3 56 -6 122 -42 45 -25 89 -46 98 -46 8 0 29 -10 46 -23 17 -13 51 -35 76 -49 25 -14 73 -53 107 -87 35 -34 67 -61 72 -61 5 0 16 -11 24 -23 8 -13 34 -41 56 -62 23 -22 41 -48 41 -58 0 -10 9 -21 20 -24 20 -5 91 -102 100 -138 7 -25 51 -50 73 -42 14 5 8 19 -36 84 -140 207 -278 351 -437 457 -135 88 -349 186 -409 186 -11 0 -22 4 -25 9 -7 11 -51 17 -93 13z"/>
<path d="M7015 3050 c-13 -21 15 -50 50 -50 43 0 44 12 6 39 -32 23 -47 26 -56 11z"/>
<path d="M6600 3034 c-19 -7 -56 -13 -82 -13 -26 -1 -49 -5 -52 -10 -10 -16 25 -35 73 -41 36 -4 46 -9 49 -25 3 -23 8 -34 51 -126 17 -36 31 -77 31 -91 0 -14 7 -31 15 -38 8 -7 15 -23 15 -36 0 -13 9 -28 20 -34 11 -6 20 -18 20 -27 0 -9 6 -24 13 -32 43 -52 38 -85 -12 -93 l-25 -3 30 -30 c30 -30 34 -55 10 -55 -7 0 -23 11 -36 25 -17 18 -27 22 -40 15 -20 -11 -40 5 -40 31 0 10 -4 20 -9 23 -5 3 -11 20 -14 38 -15 97 -31 154 -40 151 -4 -2 -14 -3 -22 -3 -11 0 -14 -7 -9 -25 3 -13 -1 -44 -11 -68 -13 -35 -14 -49 -6 -66 7 -12 15 -21 19 -21 11 0 42 -66 42 -88 0 -10 7 -27 15 -38 8 -10 15 -29 15 -41 0 -13 9 -32 21 -44 17 -17 20 -29 15 -60 -6 -35 -3 -43 24 -69 35 -34 36 -38 13 -56 -16 -11 -15 -13 11 -20 19 -4 33 -17 42 -40 20 -48 18 -54 -21 -54 -25 0 -37 5 -41 18 -11 32 -11 33 -42 87 -7 11 -21 38 -33 59 -11 21 -32 51 -45 65 -13 14 -24 30 -24 36 -2 37 -95 165 -120 165 -6 0 -10 8 -10 18 0 22 -29 84 -43 93 -5 4 -11 25 -12 49 -2 23 -11 50 -19 59 -9 10 -16 22 -16 28 0 6 -13 27 -30 48 -16 21 -30 42 -30 47 0 6 -13 27 -30 48 -38 48 -38 69 -1 76 34 7 66 38 56 53 -12 21 -46 10 -106 -34 -34 -25 -68 -45 -76 -45 -16 0 -63 -31 -103 -67 -14 -13 -29 -23 -34 -23 -12 0 -149 -144 -200 -209 -21 -28 -47 -53 -57 -56 -11 -4 -19 -10 -19 -15 0 -14 -70 -158 -78 -162 -9 -4 -42 -67 -42 -80 0 -5 -6 -24 -14 -41 -23 -54 -35 -90 -42 -132 -4 -22 -13 -53 -21 -68 -18 -35 -10 -65 12 -47 24 20 155 -19 155 -47 0 -6 -45 -33 -100 -59 -55 -26 -100 -50 -100 -53 0 -3 -2 -36 -4 -73 -2 -37 0 -82 4 -100 8 -31 8 -31 9 -6 1 37 25 47 121 54 68 4 81 3 86 -11 4 -10 -3 -27 -18 -43 -14 -15 -31 -44 -38 -64 -6 -21 -16 -41 -22 -44 -6 -4 -19 -27 -30 -51 -25 -56 -52 -56 -54 -1 -2 55 -11 73 -29 58 -12 -10 -14 -25 -9 -64 4 -28 10 -55 15 -60 5 -6 9 -19 9 -30 0 -12 11 -54 25 -94 14 -41 25 -91 25 -113 0 -31 4 -39 19 -39 12 0 28 -20 50 -63 18 -34 47 -82 66 -107 18 -25 34 -50 34 -55 1 -14 151 -167 226 -230 117 -99 174 -137 285 -191 30 -15 58 -32 62 -38 8 -12 83 -15 94 -3 11 10 -36 57 -57 57 -9 0 -42 10 -73 21 -63 24 -70 43 -36 86 26 33 25 37 -4 51 -13 6 -23 18 -23 28 2 14 -10 21 -53 29 l-55 11 54 8 c69 9 87 19 99 55 l10 29 -48 -18 c-26 -9 -69 -21 -96 -25 -27 -4 -60 -13 -74 -20 -22 -11 -29 -11 -48 3 -21 16 -21 24 -22 202 0 102 -1 195 0 208 0 12 6 22 13 22 8 0 32 18 54 41 30 30 51 42 82 46 22 3 46 12 52 19 6 8 15 14 20 14 5 0 28 13 51 29 24 16 47 27 51 24 5 -3 18 -24 28 -47 22 -46 31 -62 72 -119 15 -22 27 -46 27 -54 0 -7 4 -13 9 -13 20 0 20 -34 0 -66 -14 -23 -19 -43 -15 -59 8 -30 32 -33 41 -6 5 16 34 37 40 29 1 -2 12 -24 24 -51 28 -57 25 -62 -58 -102 -33 -15 -58 -32 -55 -37 8 -13 47 -9 70 6 11 8 26 11 32 7 23 -14 1 -40 -36 -46 -21 -3 -50 -12 -65 -20 -35 -18 -80 -20 -75 -3 3 7 15 15 29 18 18 5 24 12 22 31 -1 13 5 46 14 72 8 27 13 51 10 53 -3 3 -21 -5 -40 -18 -25 -16 -38 -33 -42 -56 -5 -28 -8 -31 -26 -22 -26 14 -40 -17 -16 -35 10 -7 17 -19 17 -27 0 -8 5 -19 12 -26 10 -10 7 -16 -10 -28 -58 -40 0 -59 73 -24 22 11 48 19 57 20 9 0 29 7 45 15 15 7 48 23 73 35 58 27 73 36 144 89 83 61 90 60 93 -17 2 -34 7 -71 13 -82 15 -28 12 -68 -7 -100 -14 -24 -15 -35 -5 -66 8 -27 8 -41 -1 -55 -9 -14 -9 -21 1 -31 10 -10 14 -8 18 10 4 12 12 22 19 22 6 0 19 8 28 18 14 15 17 42 17 154 0 122 -2 137 -20 153 -12 11 -20 31 -20 51 0 23 6 37 20 44 11 6 20 19 20 29 0 10 12 27 28 36 35 23 100 91 132 138 24 35 50 49 50 27 0 -6 20 -33 45 -59 37 -39 45 -55 45 -85 0 -24 9 -49 25 -70 14 -18 25 -36 25 -41 0 -4 20 -41 45 -82 25 -40 45 -78 45 -83 0 -5 13 -24 29 -43 16 -18 33 -45 36 -60 4 -14 13 -31 21 -38 8 -6 14 -17 14 -24 0 -7 7 -18 15 -25 39 -32 0 -79 -80 -96 -16 -3 -54 -17 -84 -31 -30 -13 -77 -27 -105 -30 -28 -3 -55 -9 -61 -13 -5 -4 -54 -13 -108 -21 l-98 -13 -24 30 c-16 19 -22 37 -18 52 4 19 1 22 -26 22 -32 0 -36 -7 -32 -61 3 -39 -19 -51 -70 -40 -24 6 -65 11 -90 11 -25 0 -54 7 -65 15 -10 8 -27 15 -37 15 -11 0 -31 7 -47 16 -28 17 -60 14 -60 -6 0 -5 10 -10 21 -10 12 0 37 -13 56 -30 20 -18 45 -30 62 -30 16 0 45 -7 66 -16 57 -23 377 -15 500 14 93 22 159 43 171 55 4 4 15 7 24 7 19 0 126 53 150 75 9 8 26 15 37 15 11 0 28 9 39 21 10 12 32 28 49 36 61 31 114 68 115 81 0 6 3 12 8 12 4 0 29 21 55 45 27 25 52 45 56 45 5 0 16 16 25 35 9 19 21 35 26 35 5 0 11 8 14 17 3 10 16 29 29 43 33 37 82 117 110 180 14 30 34 64 46 74 11 11 21 29 21 40 0 12 7 30 15 40 8 11 15 35 15 53 0 19 7 50 15 70 8 19 15 43 15 53 0 10 6 20 14 23 12 5 15 45 16 230 0 123 -3 226 -6 230 -4 4 -15 0 -25 -9 -12 -11 -16 -27 -13 -64 2 -27 -1 -52 -6 -55 -5 -3 -122 -6 -260 -7 -138 0 -253 -5 -256 -9 -7 -12 -64 -12 -64 0 0 5 -57 8 -127 7 l-128 -1 -3 -36 c-3 -31 0 -37 20 -42 27 -6 88 0 120 12 28 10 133 4 169 -10 21 -8 34 -7 59 6 17 9 37 14 44 12 7 -3 19 -1 27 3 9 6 26 2 47 -10 30 -18 36 -19 62 -5 35 18 99 20 134 3 18 -8 33 -8 48 -1 21 9 58 3 98 -17 42 -21 -40 -388 -120 -535 -24 -44 -58 -44 -120 0 -43 30 -59 36 -93 33 -76 -5 -44 -41 101 -113 28 -14 52 -30 52 -35 0 -5 -10 -20 -22 -34 -13 -13 -34 -39 -48 -57 -81 -104 -226 -251 -270 -274 -14 -7 -35 -25 -48 -40 -26 -30 -42 -29 -58 4 -7 13 -17 28 -23 34 -6 6 -11 17 -11 24 0 7 -16 35 -35 62 -19 26 -35 57 -35 67 0 14 -3 15 -12 6 -20 -20 -28 -14 -28 18 0 22 -11 42 -35 67 -20 20 -33 43 -30 51 7 19 -60 153 -127 252 -32 47 -58 92 -58 100 0 9 13 31 28 50 16 19 32 47 35 61 4 15 14 30 23 33 19 7 92 -24 141 -60 17 -13 38 -21 46 -18 11 4 17 -4 22 -25 4 -18 13 -31 21 -31 13 0 67 -27 169 -84 11 -6 39 -24 63 -39 23 -15 48 -25 54 -21 8 5 6 11 -4 18 -9 6 -18 25 -22 42 -4 17 -19 42 -34 56 -31 28 -127 88 -142 88 -14 0 -12 -28 3 -33 6 -2 10 -7 6 -10 -6 -7 -78 25 -79 34 0 4 9 9 20 12 11 3 20 10 20 16 0 13 -39 14 -59 2 -11 -7 -38 11 -102 65 -48 41 -89 84 -92 94 -3 12 -14 20 -26 20 -25 0 -38 25 -22 44 6 7 8 16 4 19 -14 14 -34 6 -43 -18 -11 -29 -20 -31 -60 -10 -40 20 -38 48 3 70 27 14 38 15 55 6 20 -11 23 -9 32 15 17 43 9 59 -30 60 -56 1 -60 3 -60 25 0 46 47 88 110 99 26 4 36 11 40 30 6 21 12 25 43 23 27 -2 37 2 42 16 3 10 22 26 43 37 20 10 56 38 79 62 34 35 46 42 67 36 20 -5 41 4 93 39 37 24 80 51 94 58 77 41 107 59 118 73 8 9 22 16 33 16 11 0 37 13 57 29 20 15 48 30 63 33 23 4 31 0 48 -29 11 -19 20 -41 20 -50 0 -9 9 -34 19 -57 11 -23 22 -50 26 -60 6 -19 6 -19 26 0 17 17 18 24 8 54 -18 55 -69 161 -85 177 -8 8 -14 19 -14 24 0 6 -11 25 -24 42 -13 18 -27 43 -31 57 -10 31 -82 105 -112 114 -19 6 -23 3 -23 -13 0 -11 6 -24 13 -28 22 -14 107 -129 107 -145 0 -9 -12 -21 -27 -27 -16 -6 -48 -25 -73 -41 -25 -16 -52 -32 -60 -36 -8 -3 -22 -10 -30 -15 -8 -5 -26 -14 -40 -20 -40 -17 -90 -59 -90 -75 0 -8 -13 -17 -30 -21 -17 -3 -33 -10 -36 -14 -3 -5 -16 -9 -28 -9 -13 0 -29 -7 -36 -15 -7 -8 -18 -15 -25 -15 -7 0 -18 -6 -24 -14 -7 -8 -25 -18 -41 -21 -16 -3 -34 -13 -41 -21 -30 -36 -38 -16 -42 104 -3 70 -11 142 -22 181 l-19 64 29 54 c16 29 33 53 37 53 4 0 8 12 8 28 0 26 22 63 81 142 15 19 39 59 54 88 15 28 33 52 40 52 7 0 28 -13 46 -30 19 -16 37 -30 41 -30 4 0 23 -16 42 -36 30 -31 39 -35 65 -29 17 4 31 10 31 13 -1 7 -79 69 -111 87 -9 5 -53 34 -96 62 -43 29 -85 53 -94 53 -9 0 -22 7 -29 15 -7 8 -19 15 -26 15 -25 0 -15 -28 16 -47 36 -21 40 -58 9 -97 -11 -14 -18 -30 -14 -35 3 -5 -4 -16 -14 -23 -23 -17 -71 -96 -71 -119 0 -9 -12 -29 -27 -46 -16 -16 -33 -38 -39 -49 -10 -18 -13 -17 -33 16 -11 19 -21 43 -21 52 0 10 -14 44 -31 75 -18 32 -46 84 -63 116 -17 32 -68 97 -114 144 -81 83 -88 97 -49 105 10 1 19 8 20 13 3 16 -311 16 -353 -1z m146 -42 c12 -9 29 -31 38 -49 14 -28 14 -34 1 -60 -21 -40 -19 -67 9 -108 23 -33 24 -37 9 -66 -9 -18 -16 -49 -16 -70 0 -33 -2 -36 -14 -23 -8 8 -19 14 -24 14 -5 0 -9 7 -9 16 0 8 -7 39 -16 67 -16 53 -18 58 -53 139 -12 26 -21 56 -21 66 0 11 -7 22 -15 26 -18 7 -20 37 -3 54 18 18 90 14 114 -6z m154 -54 c0 -13 -23 -5 -28 10 -2 7 2 10 12 6 9 -3 16 -11 16 -16z m64 -73 c25 -24 46 -48 46 -53 0 -5 9 -17 21 -28 12 -10 32 -41 45 -67 14 -26 34 -57 45 -68 21 -21 21 -40 1 -47 -6 -2 -21 16 -32 39 -12 23 -34 54 -50 68 -15 14 -30 35 -32 46 -2 13 -12 21 -31 23 -35 4 -35 -12 3 -55 34 -39 37 -51 13 -60 -9 -4 -39 -21 -67 -40 -30 -19 -54 -29 -59 -24 -5 5 -10 67 -10 138 -1 105 1 128 13 131 8 1 26 -14 39 -33 26 -38 41 -38 41 1 0 19 -7 28 -29 35 -20 7 -28 15 -24 25 8 22 18 17 67 -31z m-836 -99 c12 -24 12 -30 -4 -48 -17 -18 -19 -38 -17 -199 1 -149 -1 -181 -13 -186 -18 -7 -18 -29 1 -37 24 -9 18 -76 -9 -110 l-24 -29 -31 22 c-17 12 -34 34 -37 49 -3 15 -8 33 -10 41 -2 8 3 22 12 32 18 20 21 17 -31 34 -12 3 -13 10 -7 22 5 11 5 45 0 83 -5 36 -11 104 -14 152 -5 79 -4 87 13 92 11 4 46 31 77 62 32 30 63 53 69 51 7 -2 18 -16 25 -31z m70 -85 c26 -28 33 -40 81 -144 18 -37 27 -46 41 -42 13 4 19 -2 24 -26 3 -17 17 -44 31 -61 14 -16 25 -40 25 -54 0 -13 9 -32 20 -41 24 -21 27 -85 5 -103 -11 -9 -13 -16 -6 -23 7 -7 15 -6 24 1 8 7 17 9 20 6 4 -4 19 -8 34 -10 36 -4 58 -37 54 -83 -1 -24 4 -45 17 -61 11 -14 23 -40 27 -58 3 -18 15 -37 26 -42 10 -6 19 -18 19 -28 0 -9 10 -22 23 -27 25 -11 35 -52 15 -60 -25 -10 -88 23 -88 45 0 12 7 20 17 20 9 0 14 3 11 6 -4 3 -22 1 -42 -4 -33 -10 -39 -8 -65 19 -16 16 -37 29 -46 29 -10 0 -34 14 -55 30 -21 17 -46 30 -56 30 -9 0 -24 7 -33 15 -30 29 -106 75 -124 75 -29 0 -56 18 -72 50 -17 33 -10 42 23 29 13 -5 22 -17 22 -29 0 -11 6 -20 14 -20 25 0 29 20 10 48 -10 16 -17 42 -15 63 1 30 -2 38 -19 42 -32 8 -24 52 9 52 29 0 37 17 17 35 -12 9 -13 17 -6 30 7 13 7 21 0 25 -7 4 -8 24 -4 51 5 35 3 45 -10 50 -15 6 -15 9 -3 23 25 28 28 74 7 101 -21 27 -27 70 -9 70 6 0 23 -13 37 -29z m-300 -234 c2 -172 2 -177 -18 -177 -11 0 -20 3 -20 8 0 4 -16 16 -36 27 -40 21 -104 94 -104 117 0 9 25 28 57 44 52 26 59 33 66 69 10 54 30 96 42 92 6 -2 11 -73 13 -180z m1173 133 c10 -19 28 -62 40 -95 13 -33 29 -69 36 -80 19 -28 16 -53 -9 -87 -11 -17 -44 -76 -72 -132 -72 -142 -83 -156 -117 -156 -29 0 -46 14 -29 25 17 11 11 35 -9 35 -11 0 -23 -9 -27 -22 l-6 -21 -18 23 c-14 19 -18 20 -23 6 -16 -40 -102 10 -95 56 4 30 25 29 41 -2 18 -36 44 -37 59 -3 17 41 16 48 -12 48 -23 0 -25 4 -28 54 l-3 54 33 -7 c43 -8 71 -41 58 -67 -8 -14 -6 -23 10 -39 11 -11 22 -31 26 -45 5 -20 9 -23 24 -15 19 10 60 73 60 92 0 6 6 19 14 27 7 9 17 48 20 88 7 70 6 72 -19 89 -20 13 -38 15 -85 11 -33 -4 -69 -12 -80 -19 -17 -11 -22 -10 -30 2 -17 26 -11 69 10 80 11 6 20 19 20 30 0 13 9 22 27 26 14 4 51 24 82 45 31 21 63 37 71 36 8 -1 22 -18 31 -37z m103 -35 c9 -13 16 -33 16 -44 0 -11 5 -23 10 -26 6 -3 10 -15 10 -26 0 -15 -6 -20 -22 -17 -17 2 -27 16 -41 56 -26 74 -9 111 27 57z m-223 -155 c34 0 59 -36 59 -84 0 -42 -23 -102 -45 -118 -16 -12 -35 -9 -35 6 0 8 6 16 13 19 9 3 9 11 -1 38 -7 19 -15 49 -17 68 -2 18 -8 38 -14 44 -17 17 -14 40 5 33 9 -3 24 -6 35 -6z m-184 -37 c5 -15 -34 -36 -53 -29 -22 8 -16 34 9 39 29 6 40 3 44 -10z m487 -50 c20 -167 22 -258 9 -280 -16 -27 -40 -30 -45 -5 -3 14 -15 17 -73 17 -84 0 -90 11 -47 76 16 24 37 63 48 86 25 55 43 55 46 1 1 -24 3 -54 4 -68 1 -14 3 -31 3 -37 1 -10 7 -10 26 -1 34 15 42 59 17 95 -20 28 -39 153 -25 166 19 19 31 3 37 -50z m-1527 -23 c32 -25 115 -149 107 -161 -8 -13 -51 -11 -66 4 -7 7 -44 33 -81 57 -67 44 -68 46 -62 80 4 19 9 39 12 43 8 13 61 0 90 -23z m1050 14 c3 -8 1 -20 -6 -27 -6 -6 -11 -21 -11 -34 0 -33 -41 -31 -56 2 -11 23 -11 24 20 18 28 -6 30 -5 17 10 -7 9 -11 24 -7 32 7 20 35 19 43 -1z m-886 -94 c23 -13 25 -48 3 -57 -19 -7 -31 4 -39 40 -8 29 3 34 36 17z m-264 -42 c32 -13 73 -47 73 -60 0 -9 -40 -10 -92 -2 -35 6 -38 9 -38 40 0 38 11 42 57 22z m330 -34 c-4 -24 -3 -25 29 -19 21 3 34 2 34 -5 0 -5 11 -10 23 -10 33 0 61 -35 63 -78 1 -42 -8 -52 -51 -52 -17 0 -35 -4 -40 -9 -6 -5 -35 -11 -65 -13 -45 -2 -55 0 -58 15 -2 10 4 20 15 24 10 3 22 13 26 21 7 11 12 10 24 -8 14 -20 16 -20 34 -4 27 24 24 44 -6 44 -26 0 -29 5 -53 77 -11 34 -7 43 16 43 10 0 13 -8 9 -26z m-117 -70 c0 -18 -5 -24 -23 -24 -35 0 -40 11 -16 36 25 27 39 23 39 -12z m-232 -27 c3 -24 6 -26 30 -21 35 8 32 9 67 -1 16 -5 46 -20 66 -35 20 -14 63 -32 94 -40 33 -8 62 -21 68 -32 7 -10 18 -18 25 -18 7 0 28 -11 47 -26 21 -15 36 -21 40 -15 9 16 42 13 49 -4 4 -12 11 -13 32 -5 49 19 95 -18 57 -46 -10 -7 -27 -19 -37 -27 -22 -16 -68 -6 -94 20 -7 7 -20 13 -28 13 -19 0 -65 29 -81 51 -7 10 -46 24 -90 34 -80 17 -182 60 -196 82 -4 7 -19 13 -31 13 -13 0 -34 8 -46 18 -18 15 -22 25 -16 46 9 36 40 31 44 -7z m289 -21 c-4 -9 -11 -16 -16 -16 -15 0 -23 33 -9 41 17 11 32 -5 25 -25z m1031 -38 c2 -9 -7 -39 -20 -67 -31 -68 -52 -65 -56 8 -2 29 -1 60 2 68 8 20 70 13 74 -9z m261 13 c7 -5 12 -14 10 -20 -3 -7 -56 -43 -119 -81 -85 -51 -118 -66 -128 -58 -14 12 -7 44 14 66 8 7 14 18 14 24 0 5 9 22 21 36 18 23 30 28 92 33 40 3 74 6 77 7 3 1 11 -2 19 -7z m-917 -24 c100 -53 108 -60 108 -94 0 -32 12 -43 25 -23 19 31 121 -6 132 -48 3 -13 16 -28 29 -32 30 -12 31 -26 3 -35 -15 -5 -28 1 -49 25 -31 34 -59 35 -61 3 0 -14 -2 -13 -9 5 -6 14 -18 22 -34 22 -13 0 -31 6 -38 14 -8 7 -23 16 -35 20 -12 4 -24 13 -27 21 -3 8 -14 15 -25 15 -10 0 -26 11 -35 24 -8 14 -25 27 -36 31 -21 7 -37 46 -25 64 10 16 29 13 77 -12z m521 -35 c3 -15 3 -30 0 -34 -9 -15 -40 -7 -62 15 -17 19 -19 26 -9 34 36 29 64 22 71 -15z m-1022 -62 c10 -6 19 -17 19 -25 0 -30 -45 -106 -65 -110 -43 -10 -208 0 -213 12 -2 7 5 16 15 19 30 10 86 38 128 65 88 55 87 54 116 39z m130 -67 c16 -43 -2 -73 -46 -73 -45 0 -54 20 -29 66 24 43 60 47 75 7z m935 12 c9 -8 26 -15 38 -15 61 0 99 -113 56 -167 -25 -32 -87 -66 -96 -52 -3 5 -24 9 -48 9 -39 0 -45 4 -74 45 -36 52 -38 60 -17 102 17 35 32 48 78 73 41 23 46 23 63 5z m-528 -31 c25 -17 29 -39 7 -48 -17 -6 -47 3 -57 18 -5 7 -12 4 -21 -8 -26 -35 -64 4 -39 40 17 27 67 26 110 -2z m-280 -11 c28 -7 28 -26 -1 -42 -24 -13 -77 -1 -77 18 0 28 14 42 34 36 11 -4 31 -9 44 -12z m367 -23 c0 -23 -49 -20 -53 3 -3 15 2 18 25 15 17 -2 28 -9 28 -18z m615 5 c0 -8 -4 -15 -9 -15 -13 0 -22 16 -14 24 11 11 23 6 23 -9z m-1129 -85 c18 -10 19 -24 19 -236 l-1 -225 -26 -10 c-14 -5 -42 -23 -61 -40 -19 -17 -46 -35 -61 -41 -14 -6 -40 -17 -57 -26 -39 -19 -64 -10 -64 21 0 13 -3 26 -6 30 -4 3 -21 43 -40 89 l-33 83 36 55 c40 60 70 113 116 205 44 88 62 105 114 105 25 0 53 -5 64 -10z m217 -19 c15 -16 38 -51 52 -77 14 -27 39 -71 57 -98 35 -54 35 -65 -6 -89 -16 -9 -39 -28 -52 -42 -13 -13 -31 -25 -40 -25 -23 0 -81 -30 -102 -52 -38 -39 -42 -21 -42 192 l0 204 25 7 c53 15 81 10 108 -20z m187 10 c11 -5 49 -22 85 -39 64 -31 66 -31 111 -16 31 10 50 24 58 40 9 21 14 23 32 14 11 -7 32 -9 45 -6 17 5 24 2 24 -8 0 -15 -21 -26 -50 -26 -10 0 -25 -11 -34 -25 -9 -14 -45 -38 -81 -55 -44 -20 -69 -39 -79 -59 -18 -34 -13 -41 30 -41 24 0 38 7 50 24 8 14 30 28 47 32 17 3 51 22 76 40 47 37 75 43 85 19 6 -16 -8 -61 -21 -66 -9 -5 -75 -104 -115 -176 -16 -26 -32 -55 -37 -63 -5 -8 -16 -32 -25 -52 -8 -21 -20 -38 -25 -38 -5 0 -24 28 -41 63 -18 34 -43 80 -55 102 -13 22 -26 55 -30 73 -4 18 -18 43 -31 56 -44 40 -139 200 -129 216 6 10 75 4 110 -9z m185 -21 c0 -11 -7 -20 -15 -20 -8 0 -15 9 -15 20 0 11 7 20 15 20 8 0 15 -9 15 -20z m528 -80 c23 -16 47 -30 52 -30 6 0 20 -16 32 -36 15 -25 25 -33 37 -29 30 12 36 10 39 -12 2 -12 -5 -30 -16 -41 -11 -11 -23 -39 -27 -61 -5 -32 -11 -41 -23 -39 -24 4 -30 86 -8 94 17 7 22 44 6 44 -5 0 -14 -9 -20 -20 -25 -47 -57 -20 -127 107 -34 62 -11 71 55 23z m-108 -45 c0 -8 -6 -15 -14 -15 -17 0 -28 14 -19 24 12 12 33 6 33 -9z m-103 -92 c8 -135 15 -193 24 -193 15 0 10 -27 -11 -65 -11 -20 -20 -51 -20 -69 0 -28 -8 -40 -47 -72 -27 -21 -50 -41 -53 -44 -3 -3 -22 -14 -42 -24 -37 -18 -39 -19 -58 -1 -11 10 -20 22 -20 27 0 4 -13 27 -30 50 -16 22 -30 45 -30 49 0 5 20 38 45 75 25 36 45 69 45 74 0 5 14 29 30 53 17 25 30 48 30 52 0 4 14 30 30 57 17 26 30 54 30 62 0 7 10 26 21 40 19 25 23 26 37 13 9 -10 16 -41 19 -84z m116 7 c9 -11 22 -20 29 -20 13 0 51 -50 64 -83 4 -12 -10 -34 -50 -78 -31 -33 -56 -67 -56 -75 0 -9 -6 -14 -12 -12 -9 3 -15 45 -19 139 -3 74 -4 137 -2 142 8 13 28 7 46 -13z m137 -155 c0 -8 -7 -15 -15 -15 -8 0 -15 7 -15 15 0 8 7 15 15 15 8 0 15 -7 15 -15z m-26 -51 c8 -20 -96 -128 -116 -122 -25 9 -20 44 9 63 15 10 40 31 55 47 30 32 43 35 52 12z m-1117 -188 c-3 -39 -2 -111 3 -161 11 -128 -2 -145 -53 -77 -15 20 -52 69 -83 107 -77 98 -80 103 -52 115 13 6 32 16 43 22 104 67 126 78 139 70 5 -3 6 -37 3 -76z m887 -54 c3 -5 -8 -19 -24 -30 -51 -38 -70 -24 -22 15 30 25 38 27 46 15z m-84 -59 c-1 -7 -38 -34 -119 -85 -14 -9 -34 -17 -44 -17 -16 -1 -16 1 -1 24 9 14 22 25 29 25 7 0 18 7 25 15 7 8 21 15 32 15 11 0 26 7 34 15 16 16 44 21 44 8z m-637 -248 c-4 -15 -66 -12 -71 3 -3 10 6 13 34 10 22 -2 38 -7 37 -13z m86 -65 l-20 -40 -39 20 c-22 11 -40 25 -40 31 0 14 39 28 82 28 l36 1 -19 -40z"/>
<path d="M6020 2426 c0 -27 17 -43 31 -29 12 12 -1 53 -17 53 -8 0 -14 -10 -14 -24z"/>
<path d="M6240 2440 c0 -19 3 -21 12 -12 9 9 9 15 0 24 -9 9 -12 7 -12 -12z"/>
<path d="M6260 2315 c0 -8 7 -15 15 -15 8 0 15 7 15 15 0 8 -7 15 -15 15 -8 0 -15 -7 -15 -15z"/>
<path d="M6285 2209 c-9 -27 14 -44 33 -25 15 15 6 46 -13 46 -8 0 -17 -10 -20 -21z"/>
<path d="M6240 2205 c0 -8 5 -15 10 -15 6 0 10 7 10 15 0 8 -4 15 -10 15 -5 0 -10 -7 -10 -15z"/>
<path d="M6380 2100 c0 -11 7 -20 15 -20 8 0 15 9 15 20 0 11 -7 20 -15 20 -8 0 -15 -9 -15 -20z"/>
<path d="M7120 3000 c0 -5 11 -10 25 -10 14 0 25 5 25 10 0 6 -11 10 -25 10 -14 0 -25 -4 -25 -10z"/>
<path d="M7177 2993 c-4 -3 -7 -10 -7 -15 0 -10 102 -58 124 -58 9 0 16 -4 16 -10 0 -20 27 -9 38 15 11 23 9 25 -16 30 -15 3 -44 15 -64 25 -37 20 -79 26 -91 13z"/>
<path d="M1243 2944 c-3 -8 -1 -20 5 -26 16 -16 42 -2 42 22 0 24 -38 28 -47 4z"/>
<path d="M1375 2859 c-10 -15 3 -25 16 -12 7 7 7 13 1 17 -6 3 -14 1 -17 -5z"/>
<path d="M1910 2856 c0 -10 9 -16 21 -16 24 0 21 23 -4 28 -10 2 -17 -3 -17 -12z"/>
<path d="M1952 2798 c5 -15 37 -18 41 -3 1 6 -9 12 -22 13 -16 3 -22 -1 -19 -10z"/>
<path d="M6297 2804 c-8 -8 1 -24 14 -24 5 0 9 7 9 15 0 15 -12 20 -23 9z"/>
<path d="M1224 2765 c-9 -23 20 -60 66 -82 40 -21 41 -21 51 -1 14 26 4 48 -22 48 -12 0 -32 11 -45 25 -26 29 -42 32 -50 10z"/>
<path d="M2030 2691 c0 -21 5 -31 16 -31 11 0 14 8 12 27 -4 39 -28 42 -28 4z"/>
<path d="M1852 2673 c5 -25 28 -28 28 -4 0 12 -6 21 -16 21 -9 0 -14 -7 -12 -17z"/>
<path d="M6436 2668 c-11 -16 -13 -25 -4 -35 25 -30 54 -8 44 33 -8 30 -20 31 -40 2z"/>
<path d="M2092 2654 c-42 -29 -14 -67 31 -41 29 16 36 27 30 44 -7 17 -33 17 -61 -3z"/>
<path d="M2584 2649 c-3 -6 -2 -15 3 -20 13 -13 43 -1 43 17 0 16 -36 19 -46 3z"/>
<path d="M2750 2645 c0 -9 5 -15 11 -13 6 2 11 8 11 13 0 5 -5 11 -11 13 -6 2 -11 -4 -11 -13z"/>
<path d="M1464 2628 c-4 -6 3 -19 16 -30 21 -17 25 -17 38 -4 8 8 12 22 9 30 -7 19 -52 22 -63 4z"/>
<path d="M7820 2614 c0 -17 22 -14 28 4 2 7 -3 12 -12 12 -9 0 -16 -7 -16 -16z"/>
<path d="M1970 2590 c0 -13 5 -20 13 -17 6 2 12 10 12 17 0 7 -6 15 -12 18 -8 2 -13 -5 -13 -18z"/>
<path d="M1577 2594 c-9 -10 2 -24 19 -24 8 0 14 7 14 15 0 15 -21 21 -33 9z"/>
<path d="M2390 2585 c0 -8 7 -15 15 -15 8 0 15 7 15 15 0 8 -7 15 -15 15 -8 0 -15 -7 -15 -15z"/>
<path d="M995 2560 c-8 -13 9 -20 24 -11 10 6 9 10 -3 14 -8 3 -18 2 -21 -3z"/>
<path d="M1910 2552 c0 -25 35 -56 55 -49 20 8 19 30 -3 50 -25 23 -52 22 -52 -1z"/>
<path d="M831 2536 c-9 -10 -8 -16 4 -26 19 -16 41 1 32 24 -8 20 -21 20 -36 2z"/>
<path d="M2683 2534 c-3 -8 -1 -20 6 -27 14 -14 47 15 37 32 -10 16 -36 13 -43 -5z"/>
<path d="M2037 2513 c-17 -16 -5 -33 23 -33 23 0 30 4 30 20 0 14 -7 20 -23 20 -13 0 -27 -3 -30 -7z"/>
<path d="M2204 2475 c-7 -18 3 -35 21 -35 15 0 24 19 18 38 -6 17 -32 15 -39 -3z"/>
<path d="M2273 2474 c-6 -16 12 -34 35 -34 19 0 27 31 11 41 -21 13 -39 11 -46 -7z"/>
<path d="M2690 2466 c0 -20 12 -26 38 -19 33 8 27 33 -8 33 -19 0 -30 -5 -30 -14z"/>
<path d="M6466 2471 c-10 -16 5 -42 23 -39 21 4 21 42 -1 46 -9 2 -19 -1 -22 -7z"/>
<path d="M2511 2442 c-15 -28 -14 -49 3 -55 15 -6 36 11 36 28 0 6 -6 20 -14 30 -13 18 -14 18 -25 -3z"/>
<path d="M2807 2444 c-9 -10 2 -24 19 -24 8 0 14 7 14 15 0 15 -21 21 -33 9z"/>
<path d="M1939 2414 c-11 -14 -1 -24 23 -24 12 0 23 -11 29 -30 13 -35 12 -35 60 -12 39 17 53 52 27 68 -19 12 -129 10 -139 -2z"/>
<path d="M1455 2390 c-20 -38 -19 -42 8 -38 17 2 23 11 25 36 4 40 -13 42 -33 2z"/>
<path d="M1570 2376 c0 -10 9 -16 21 -16 24 0 21 23 -4 28 -10 2 -17 -3 -17 -12z"/>
<path d="M2680 2380 c0 -16 51 -61 61 -54 16 10 9 43 -10 54 -25 13 -51 13 -51 0z"/>
<path d="M3227 2383 c-13 -12 -7 -23 13 -23 11 0 20 7 20 15 0 15 -21 21 -33 8z"/>
<path d="M3380 2376 c0 -9 7 -16 16 -16 17 0 14 22 -4 28 -7 2 -12 -3 -12 -12z"/>
<path d="M2574 2336 c-4 -10 -2 -22 4 -28 8 -8 13 -7 18 6 4 10 2 22 -4 28 -8 8 -13 7 -18 -6z"/>
<path d="M1492 2327 c-15 -17 1 -42 23 -33 18 6 17 37 -1 43 -6 2 -16 -2 -22 -10z"/>
<path d="M3312 2327 c-14 -16 -6 -27 20 -27 13 0 18 6 16 17 -4 22 -22 27 -36 10z"/>
<path d="M8126 2321 c-3 -5 1 -14 8 -20 16 -13 32 2 21 19 -8 12 -22 13 -29 1z"/>
<path d="M3161 2296 c-10 -12 -8 -17 7 -25 22 -12 32 -6 32 21 0 21 -23 24 -39 4z"/>
<path d="M3254 2266 c-11 -28 0 -61 21 -61 16 0 20 7 20 35 0 25 -5 36 -18 38 -9 2 -20 -3 -23 -12z"/>
<path d="M1538 2243 c-27 -7 -21 -32 8 -39 30 -8 49 12 32 33 -11 13 -12 14 -40 6z"/>
<path d="M8130 2216 c0 -9 9 -39 20 -68 22 -58 26 -122 10 -163 -6 -15 -7 -32 -3 -38 4 -6 9 -2 14 11 5 12 13 22 18 22 14 0 24 -43 17 -67 -3 -10 3 -43 13 -73 17 -47 18 -58 7 -75 -18 -27 -17 -74 2 -103 13 -20 13 -29 2 -65 -7 -23 -16 -76 -20 -117 -8 -79 -36 -217 -49 -235 -4 -5 -13 -28 -20 -50 -13 -40 -75 -177 -92 -205 -5 -8 -13 -24 -18 -35 -5 -12 -16 -27 -25 -34 -9 -7 -16 -24 -16 -37 0 -35 31 -30 54 9 48 82 135 261 141 290 4 18 11 37 16 42 9 13 24 69 47 180 30 148 21 556 -16 655 -3 8 -13 44 -23 79 -19 69 -23 75 -56 86 -17 5 -23 2 -23 -9z"/>
<path d="M1507 2149 c-18 -10 -18 -12 4 -35 21 -22 24 -23 41 -7 22 20 23 39 2 47 -21 8 -26 7 -47 -5z"/>
<path d="M3230 2135 c0 -8 7 -15 15 -15 8 0 15 7 15 15 0 8 -7 15 -15 15 -8 0 -15 -7 -15 -15z"/>
<path d="M3320 2105 c0 -11 7 -15 23 -13 12 2 22 8 22 13 0 6 -10 11 -22 13 -16 2 -23 -2 -23 -13z"/>
<path d="M3121 2091 c-19 -12 -6 -41 17 -41 23 0 46 25 37 40 -8 12 -35 13 -54 1z"/>
<path d="M1750 2045 c0 -8 9 -15 20 -15 11 0 20 7 20 15 0 8 -9 15 -20 15 -11 0 -20 -7 -20 -15z"/>
<path d="M1820 2045 c0 -8 9 -15 20 -15 11 0 20 7 20 15 0 8 -9 15 -20 15 -11 0 -20 -7 -20 -15z"/>
<path d="M3310 2039 c0 -14 5 -19 17 -17 26 5 29 38 4 38 -15 0 -21 -6 -21 -21z"/>
<path d="M2520 2044 c0 -16 23 -44 36 -44 8 0 17 -7 20 -15 4 -8 13 -15 21 -15 8 0 23 -10 32 -22 10 -12 23 -18 29 -14 17 10 15 36 -3 36 -8 0 -19 9 -25 20 -6 11 -18 20 -26 20 -9 0 -27 9 -41 20 -25 20 -43 26 -43 14z"/>
<path d="M3265 2021 c-3 -5 -1 -12 5 -16 12 -7 30 2 30 16 0 12 -27 12 -35 0z"/>
<path d="M1740 1975 c-13 -14 -32 -25 -42 -25 -11 0 -18 -7 -18 -20 0 -16 7 -20 33 -20 44 0 89 37 81 68 -8 29 -25 28 -54 -3z"/>
<path d="M3346 1992 c-2 -4 -1 -14 3 -21 11 -17 51 -5 51 15 0 15 -45 20 -54 6z"/>
<path d="M2070 1970 c0 -19 3 -21 12 -12 9 9 9 15 0 24 -9 9 -12 7 -12 -12z"/>
<path d="M2240 1955 c0 -10 7 -15 18 -13 21 4 19 22 -2 26 -10 2 -16 -3 -16 -13z"/>
<path d="M2684 1944 c3 -9 6 -18 6 -20 0 -2 5 -4 10 -4 6 0 10 9 10 20 0 12 -7 20 -16 20 -11 0 -14 -5 -10 -16z"/>
<path d="M1590 1935 c0 -8 5 -15 10 -15 6 0 10 7 10 15 0 8 -4 15 -10 15 -5 0 -10 -7 -10 -15z"/>
<path d="M3370 1915 c0 -29 27 -45 41 -24 14 22 6 44 -19 47 -18 3 -22 -1 -22 -23z"/>
<path d="M2270 1895 c0 -8 7 -15 15 -15 8 0 15 7 15 15 0 8 -7 15 -15 15 -8 0 -15 -7 -15 -15z"/>
<path d="M2384 1875 c-4 -9 -2 -21 4 -27 15 -15 44 -1 40 19 -4 23 -36 29 -44 8z"/>
<path d="M7276 1878 c-2 -7 -9 -32 -16 -55 -14 -45 -9 -73 13 -73 26 0 38 27 35 81 -3 49 -23 79 -32 47z"/>
<path d="M2712 1872 c-9 -6 -10 -16 -1 -40 16 -46 41 -42 37 5 -3 38 -14 48 -36 35z"/>
<path d="M2215 1850 c-9 -15 4 -30 26 -30 23 0 26 25 3 34 -21 8 -22 8 -29 -4z"/>
<path d="M3317 1833 c-4 -3 -7 -14 -7 -24 0 -10 -11 -26 -25 -37 -14 -11 -25 -25 -25 -31 0 -6 -7 -11 -15 -11 -18 0 -20 27 -3 32 19 7 -1 28 -26 28 -13 0 -29 -7 -36 -14 -6 -8 -30 -16 -53 -18 -37 -3 -42 -6 -42 -28 0 -23 4 -25 55 -27 126 -5 197 -12 224 -22 36 -15 82 -10 79 7 -2 6 -4 18 -5 25 -2 6 8 13 22 15 33 4 69 50 49 63 -27 17 -52 9 -85 -28 -24 -29 -35 -35 -44 -27 -17 17 4 52 36 60 33 8 21 18 -38 33 -55 13 -53 13 -61 4z"/>
<path d="M2560 1816 c0 -9 -11 -16 -27 -18 -17 -2 -29 -10 -31 -21 -4 -22 26 -34 47 -19 9 7 26 17 39 22 14 6 22 17 20 28 -4 22 -48 30 -48 8z"/>
<path d="M2282 1787 c-10 -11 -9 -17 2 -26 21 -18 51 -9 51 14 0 24 -36 32 -53 12z"/>
<path d="M4557 1763 c-12 -12 -7 -33 8 -33 17 0 19 9 7 28 -5 7 -11 9 -15 5z"/>
<path d="M7233 1623 c-15 -6 -17 -59 -3 -68 9 -5 40 50 40 70 0 6 -20 5 -37 -2z"/>
<path d="M5155 879 c-10 -15 1 -23 20 -15 9 3 13 10 10 16 -8 13 -22 13 -30 -1z"/>
<path d="M7616 524 c-22 -20 -58 -44 -80 -54 -23 -9 -47 -24 -54 -33 -8 -9 -26 -19 -42 -22 -16 -3 -34 -13 -41 -21 -6 -8 -20 -14 -30 -14 -21 0 -91 -24 -131 -46 -14 -8 -42 -14 -61 -14 -19 0 -40 -7 -48 -16 -8 -10 -21 -13 -36 -9 -13 3 -43 0 -66 -6 -34 -9 -111 -15 -242 -19 -26 0 -182 21 -195 27 -18 8 -41 11 -144 19 -64 5 -78 4 -74 -7 3 -9 24 -15 59 -17 36 -2 58 -8 66 -19 7 -9 36 -21 65 -26 67 -12 445 -21 467 -11 9 4 43 13 76 20 100 20 159 36 170 44 6 4 26 11 45 15 19 4 44 14 55 21 11 8 27 14 36 14 10 0 19 3 21 8 2 4 37 24 78 46 41 21 77 42 80 45 4 5 71 48 87 55 1 1 4 13 8 29 10 40 -20 36 -69 -9z"/>
<path d="M6265 340 c-8 -12 20 -24 35 -15 5 3 10 10 10 16 0 12 -37 12 -45 -1z"/>
</g>
</svg>