<?xml version="1.0" standalone="no"?>
<!DOCTYPE svg PUBLIC "-//W3C//DTD SVG 20010904//EN"
 "http://www.w3.org/TR/2001/REC-SVG-20010904/DTD/svg10.dtd">
<svg version="1.0" xmlns="http://www.w3.org/2000/svg"
 width="500.000000pt" height="500.000000pt" viewBox="0 0 500.000000 500.000000"
 preserveAspectRatio="xMidYMid meet">

<g transform="translate(0.000000,500.000000) scale(0.100000,-0.100000)"
fill="#000000" stroke="none">
<path d="M2165 4740 l-340 -5 -36 -165 c-20 -91 -39 -174 -42 -185 -5 -13 -37
-34 -92 -59 -109 -50 -274 -148 -373 -222 -93 -70 -263 -234 -337 -324 -221
-272 -366 -596 -431 -965 -19 -106 -26 -474 -11 -547 l8 -36 -145 -134 -145
-133 29 -50 c15 -27 94 -165 175 -305 310 -537 419 -726 443 -767 13 -24 26
-43 29 -43 2 0 83 25 179 55 96 30 178 55 183 55 4 0 58 -34 121 -76 250 -167
503 -266 815 -321 135 -23 459 -23 600 1 228 38 425 101 611 196 112 58 293
170 313 194 9 11 46 3 198 -45 103 -32 190 -55 194 -51 3 4 60 101 127 217 66
116 153 266 192 335 56 95 218 378 346 602 2 3 -61 65 -140 137 -119 108 -144
136 -140 154 13 59 16 351 5 451 -37 337 -152 655 -335 926 -91 133 -107 153
-230 279 -164 169 -326 286 -540 391 -67 33 -125 64 -131 68 -5 5 -28 90 -50
190 l-40 181 -335 3 c-184 2 -488 1 -675 -2z m930 -294 l41 -179 95 -42 c255
-113 422 -227 608 -415 227 -229 389 -513 471 -825 52 -197 63 -305 56 -530
-3 -110 -9 -220 -12 -245 l-6 -45 131 -120 c72 -66 131 -123 131 -128 0 -4
-34 -67 -77 -140 -82 -142 -243 -421 -380 -660 -46 -81 -89 -147 -95 -147 -6
0 -87 23 -181 51 l-170 51 -26 -21 c-495 -398 -1153 -523 -1746 -334 -194 61
-438 191 -584 310 -39 32 -60 43 -75 39 -12 -4 -92 -28 -179 -55 l-158 -49
-13 21 c-8 12 -46 78 -86 147 -40 69 -158 273 -262 455 l-190 330 134 130 135
130 -8 40 c-17 75 -23 396 -10 501 52 421 225 784 515 1083 194 199 391 333
651 442 l60 25 34 145 c18 79 35 155 38 169 12 52 -13 50 571 48 l546 -3 41
-179z"/>
<path d="M2410 4457 c0 -16 29 -63 50 -82 13 -11 40 -57 61 -102 21 -45 42
-83 46 -85 16 -7 123 -137 123 -150 0 -7 7 -22 15 -32 25 -33 17 -37 -32 -17
-27 10 -52 19 -58 20 -5 1 -24 6 -41 11 -19 7 -70 8 -125 5 -52 -3 -113 -6
-136 -7 -24 0 -43 -4 -43 -8 0 -13 60 -30 105 -30 26 0 48 -6 55 -15 21 -25
-13 -29 -129 -17 -94 11 -114 10 -179 -6 -71 -17 -72 -19 -47 -30 15 -7 42
-10 60 -6 18 3 42 1 52 -4 16 -10 15 -12 -10 -21 -16 -6 -67 -11 -115 -10
-142 1 -215 -19 -252 -71 -26 -37 -21 -37 36 -4 35 21 50 24 67 17 24 -11 31
-6 -87 -58 -19 -8 -56 -15 -83 -15 -26 0 -64 -5 -83 -10 -40 -11 -132 -80
-107 -80 9 0 19 5 22 10 3 6 25 10 48 10 25 0 37 -4 32 -9 -20 -18 -152 -81
-237 -111 -49 -18 -88 -36 -88 -41 0 -8 24 -6 88 7 36 7 26 -4 -34 -37 -48
-27 -154 -120 -154 -134 0 -3 9 -5 20 -5 11 0 20 4 20 8 0 17 74 62 85 51 7
-7 -1 -18 -25 -36 -58 -44 -136 -127 -164 -175 -48 -82 -119 -318 -96 -318 8
0 20 31 24 62 4 30 37 71 48 60 7 -7 6 -17 -1 -30 -6 -11 -11 -29 -11 -40 0
-11 -15 -42 -34 -70 -69 -99 -87 -187 -66 -313 13 -77 28 -76 29 3 1 47 18 91
32 83 11 -7 10 -15 -17 -185 -18 -109 -7 -246 28 -360 33 -108 37 -111 38 -40
l1 65 15 -35 c9 -19 27 -93 41 -165 28 -147 54 -218 109 -301 46 -69 54 -58
19 26 -30 72 -21 103 14 45 11 -20 21 -42 21 -50 0 -30 44 -123 86 -182 40
-56 204 -197 204 -175 0 4 -12 25 -26 45 -14 21 -23 41 -20 44 6 6 61 -35 61
-46 0 -26 143 -151 200 -175 18 -8 59 -20 92 -26 32 -7 70 -19 86 -26 41 -22
33 -4 -20 43 -27 22 -45 44 -41 48 9 10 68 -11 168 -59 82 -39 89 -41 195 -43
105 -2 108 -1 70 12 -22 7 -50 14 -61 14 -12 1 -27 7 -33 15 -24 29 25 27 125
-5 80 -25 120 -32 207 -35 59 -2 107 1 107 5 0 13 -24 20 -86 27 -29 4 -59 13
-65 20 -6 8 -8 14 -3 15 5 0 29 3 54 7 59 7 96 7 206 -3 64 -5 97 -4 112 4 33
18 27 33 -10 26 -20 -4 -47 0 -67 8 -32 14 -32 14 -10 20 13 4 63 7 111 7 117
0 232 23 280 56 39 27 52 52 21 39 -10 -4 -42 -9 -72 -12 -75 -8 -64 12 24 47
86 33 162 71 212 105 l38 26 -47 -7 c-27 -3 -48 -3 -48 1 0 5 43 48 95 98 92
86 111 112 66 87 -12 -6 -21 -8 -21 -5 0 3 22 38 49 78 49 72 85 137 77 137
-2 0 -13 -16 -25 -36 -22 -37 -46 -38 -35 -1 3 12 17 36 30 54 26 34 37 60 48
108 l6 30 -16 -29 c-11 -20 -19 -25 -27 -17 -8 8 -1 31 25 83 20 40 39 82 41
93 16 62 15 66 -3 28 -13 -30 -24 -41 -34 -37 -14 5 -13 11 3 42 10 21 24 61
31 90 6 28 16 55 21 58 5 3 9 11 9 17 0 7 -8 0 -18 -15 -23 -39 -32 -35 -33
15 0 23 -4 51 -9 62 -6 16 -9 13 -14 -20 -17 -106 -40 -206 -61 -265 -29 -83
-73 -178 -86 -186 -25 -15 -79 64 -79 115 0 16 -5 42 -10 56 -10 27 -11 27
-98 23 -70 -4 -94 -1 -122 13 -19 10 -43 20 -53 23 -25 8 -39 51 -40 128 -1
71 0 70 -57 81 -35 7 -103 -6 -108 -21 -2 -6 2 -12 10 -12 7 0 30 -11 51 -25
31 -21 37 -32 37 -60 0 -18 -4 -36 -9 -39 -9 -6 -52 30 -67 57 -9 15 -17 16
-64 7 -68 -13 -82 -26 -37 -34 61 -11 125 -105 100 -145 -19 -30 -43 -24 -85
20 l-41 43 6 -41 c8 -45 63 -143 81 -143 6 0 23 6 38 14 39 21 87 29 101 18 7
-5 36 -6 72 -1 93 12 102 11 130 -14 20 -16 31 -43 45 -100 10 -43 28 -94 39
-113 12 -19 21 -41 21 -49 0 -21 -159 -164 -247 -222 -448 -292 -1033 -247
-1430 112 -29 26 -53 52 -53 59 0 7 14 23 32 36 26 19 49 25 122 29 l90 6 33
90 c23 62 42 98 63 116 16 14 30 30 30 37 0 16 34 24 61 14 13 -5 35 -6 49 -1
14 4 37 10 53 13 24 6 27 10 27 51 0 24 4 55 10 69 14 38 -4 32 -40 -13 -29
-36 -34 -38 -67 -31 -52 12 -66 31 -67 89 -1 37 4 55 20 73 36 40 37 48 7 39
-59 -18 -83 -34 -83 -56 0 -32 -22 -89 -29 -77 -4 6 -8 40 -9 76 -3 62 -2 66
35 107 l38 42 -44 -7 c-24 -4 -56 -15 -70 -26 -23 -16 -26 -26 -28 -82 -1 -35
-7 -101 -13 -148 -6 -47 -11 -101 -11 -120 0 -38 -40 -106 -68 -114 -22 -6
-132 -16 -203 -19 -50 -1 -62 2 -95 29 -119 95 -209 475 -174 736 41 303 196
589 399 731 139 98 350 188 483 207 81 12 109 7 109 -18 -1 -20 -54 -82 -91
-106 -15 -9 -29 -30 -33 -47 -5 -26 2 -39 49 -95 48 -55 55 -70 55 -106 0 -29
7 -49 22 -65 l22 -23 -36 -30 c-29 -24 -83 -108 -75 -116 13 -13 133 -62 135
-55 2 5 -6 24 -17 42 -27 44 -27 46 10 64 30 16 32 15 70 -9 44 -29 55 -59 39
-100 -14 -39 -8 -41 28 -11 19 16 37 45 48 81 16 52 19 55 43 49 50 -12 72
-33 65 -63 -4 -15 -13 -37 -20 -49 -17 -28 -17 -33 0 -33 17 0 79 67 100 109
20 37 20 41 0 41 -9 0 -40 25 -69 55 -43 43 -61 55 -85 55 -28 0 -70 28 -81
56 -2 5 -23 21 -46 37 -25 16 -51 44 -64 69 -19 38 -20 45 -8 82 15 46 125
163 177 190 28 15 42 16 90 6 90 -18 148 -39 168 -61 23 -26 78 -54 121 -63
18 -4 50 -26 75 -51 24 -24 72 -60 107 -80 135 -76 269 -188 307 -258 8 -15
35 -37 60 -48 24 -12 49 -29 54 -39 5 -10 24 -23 41 -29 53 -18 60 -4 56 113
l-2 102 -88 87 c-48 48 -99 106 -113 130 -15 23 -44 62 -66 86 -34 39 -78 144
-78 186 0 7 -72 84 -160 171 -88 88 -170 177 -182 199 -41 72 -70 115 -79 115
-5 0 -18 17 -28 38 -11 20 -30 48 -41 62 -20 25 -20 24 1 -25 12 -27 27 -63
34 -80 38 -88 58 -145 52 -151 -9 -9 -63 32 -88 67 -11 17 -39 41 -60 55 -21
13 -49 41 -63 62 -13 20 -35 43 -49 51 -14 8 -44 39 -66 70 -39 56 -151 172
-151 158z"/>
<path d="M2425 2695 c-22 -8 -57 -32 -77 -53 -64 -69 -75 -158 -30 -243 64
-123 228 -145 328 -45 80 79 85 199 11 283 -59 67 -145 89 -232 58z"/>
</g>
</svg>
