<svg version="1.0" xmlns="http://www.w3.org/2000/svg" width="1668" height="1668" viewBox="0 0 1251 1251"><path d="M138.2 167c.3.8 17.1 35.2 37.3 76.5l36.7 75 42.6 20.7c23.5 11.4 42.8 20.5 43 20.3.6-.6-67.9-130.8-69.7-132.6-.9-.9-20.3-14.3-43.1-29.6-51.2-34.5-47.5-32.2-46.8-30.3zM1066.8 196.3l-44.7 30.2-34.9 66.5c-19.2 36.6-34.8 66.6-34.7 66.8.1.1 19.5-9.1 43.1-20.5l42.8-20.8 35.4-72c37.8-77 39.5-80.5 38.4-80.4-.4 0-20.8 13.6-45.4 30.2zM299.3 276.6c3.5 7 48.7 106.2 48.7 107 0 .5 53.7 26.9 119.4 58.8l119.3 57.9 3.6 8.1c8 17.8 8.8 22.3 12.6 72.1 4.9 62.6 8.5 149.3 11.1 261.5 1.2 51.4 3 173 3 202.8v20.3l8.3-.3 8.2-.3.7-33c3-150 3.9-184.9 6.3-267 2.7-88.8 5.9-161.2 9-203.5 2.4-32 3.1-35.8 10.7-52.1l4-8.7 118.7-57.7 118.8-57.6 25.2-55.1c13.9-30.2 25.1-55.1 24.9-55.3-.2-.2-57.6 38.4-127.7 85.6L696.7 446H553.9l-127.1-85.8c-70-47.1-127.6-85.9-128.1-86.1-.5-.2-.2 1 .6 2.5z"/><path d="M271.4 439.1c8.4 18 31.7 64.9 32.1 64.9.4 0 17.1 4.9 68.6 20.1l6.7 1.9 18.1 31.6c10 17.4 18 31.8 17.8 32-.2.2-18-4.6-39.6-10.7s-39.5-10.9-39.7-10.6c-.3.3 6 13.7 13.9 29.9l14.3 29.4 38.7 3.4 38.6 3.3 16.6 29c9.1 16 16.4 29.1 16.3 29.2-.2.1-14.9-.4-32.8-1.1-17.9-.7-35.8-1.3-39.7-1.3l-7.3-.1 10.2 20.5c7.8 15.4 10.7 20.5 12.1 20.5 1.9 0 165.7-24.7 169.4-25.5 1.9-.4 2.1-1 1.6-4.3-.3-2-.8-3.9-1-4.1-.2-.3-21.5-1.2-47.3-2.1-25.9-1-47.3-1.9-47.5-2.2-1.2-1.2-25.4-55.2-25-55.6.4-.4 96.5 7.6 113.3 9.5l5.2.6v-9.2l-6.7-2c-3.8-1.1-34.2-9.7-67.8-19.1-33.5-9.5-61.3-17.5-61.6-17.8-1.8-1.9-27.5-60.2-26.5-60.2.6 0 36.8 10.5 80.4 23.4l79.2 23.3v-13.3l-3.7-1.8C573.7 568.4 270 431 268.2 430.3c-.7-.3.7 3.7 3.2 8.8zM826 500.9l-156.5 70.9-.8 3.8c-.4 2.2-.7 5.3-.5 7l.3 3.1 79.8-23.4c43.9-12.9 80.1-23.3 80.3-23 .3.2-5.7 13.9-13.1 30.4l-13.6 29.9-67.2 18.9c-37 10.3-67.8 19.3-68.4 19.8-1.7 1.2-1.7 8.7-.1 8.7.7 0 26.7-2.3 57.8-5 31.1-2.8 57.4-5 58.6-4.8 1.9.3 1.1 2.5-10.2 27.3-6.8 14.8-12.4 27.4-12.6 27.9-.2.4-22 1.6-48.3 2.6-26.4 1-48.1 1.9-48.3 1.9-.2.1-.2 2 0 4.3l.3 4.2 84 12.7c46.2 7.1 85.1 12.8 86.5 12.8 2.3 0 3.4-1.8 12.3-20.1 5.3-11.1 9.5-20.3 9.3-20.6-.3-.2-17.9.3-39.3 1-21.3.8-39 1.3-39.2 1.2-.2-.2 7.1-13.2 16.2-29.1l16.4-28.8 38.6-3.5 38.6-3.5 14.6-29.5c8-16.2 14.2-29.6 13.7-29.8-.5-.1-18.4 4.7-39.8 10.7-21.4 6-39 10.8-39.2 10.6-.2-.2 7.6-14.4 17.4-31.6 15.1-26.4 18.3-31.4 20.9-32.4 1.6-.7 18.8-5.9 38.1-11.5l35.1-10.2 18.1-36.9c9.9-20.3 17.7-36.9 17.4-36.9-.4.1-71.1 32-157.2 70.9zM518.1 780.1c-37.6 11.4-68.6 21-68.8 21.3-.5.5 13 27.6 13.8 27.6.3 0 28.9-13.9 63.5-30.8l62.9-30.9.3-4.1c.3-3.5 0-4.2-1.5-4.1-1 .1-32.6 9.5-70.2 21zM660.8 762.7c-.3 2.1-.4 3.9-.3 4.1.5.6 126.6 62.2 127.3 62.2.7 0 14.4-28 13.7-28-.2 0-31.5-9.5-69.6-21-38.1-11.6-69.5-21-69.9-21-.5 0-1 1.7-1.2 3.7z"/></svg>