<svg version="1.1" id="图层_1" xmlns="http://www.w3.org/2000/svg" x="0" y="0" viewBox="0 0 1500 600" style="enable-background:new 0 0 1500 600" xml:space="preserve"><style>.st0{opacity:.1;fill:#231815}</style><path class="st0" d="M780.8 328.6c-15.3 10.2-22.3 20.7-15.3 33.2 16.9-8 23.4-24.3 15.3-33.2z"/><path class="st0" d="M1254.2 77.7c30.1-12.2 60.4-24.2 87.7-42.1 8.7-5.7 16.4-13 24.2-19.9 2.3-2 3.4-5.2 5.1-7.8-2.6-.3-4.2.1-5.8.5-85 23.5-170 47.1-255.1 70.6-55.2 15.3-110.3 30.6-165.5 45.8-3.1.9-4.5 2-4.7 5.6-.6 11.1-1.4 22.3-2.9 33.4-5.2 40.5-22.1 74.9-52.8 102.5-18.8 16.8-41.3 24.9-64.8 31.1-5.7-18.7-24-20.4-36.6-29.4 5.4 7.4 11 14.4 16.6 21.4 5.9 7.4 6 15.3 3 24-6.2 17.9-15.9 33.7-28.4 47.8-2.8 3.2-5.2 4.4-9.4 2.3-3.4-1.7-7.4-2.4-11.1-3.5-.1.5-.3 1-.4 1.5 1.7 1.1 3.4 2 4.9 3.2 3.6 2.9 7 6.4 5.8 11.4-2.4 9.9-7.2 18.8-14.2 28.3-7-9.5-11.8-18.3-14.2-28.3-1.2-5 2.2-8.5 5.8-11.4 1.5-1.2 3.3-2.2 4.9-3.2-.1-.5-.3-1-.4-1.5-3.7 1.1-7.7 1.8-11.1 3.5-4.2 2.1-6.6.9-9.4-2.3-12.5-14.1-22.2-29.9-28.4-47.8-3-8.7-2.9-16.6 3-24 5.6-7 11.2-14 16.6-21.4-12.6 9-30.9 10.7-36.6 29.4-23.5-6.2-46-14.3-64.8-31.1-30.7-27.5-47.7-61.9-52.8-102.5-1.4-11.1-2.2-22.2-2.9-33.4-.2-3.6-1.6-4.7-4.7-5.6-54.8-15.2-109.9-30.6-165.1-45.9-85-23.5-170-47.1-255.1-70.6-1.6-.4-3.2-.8-5.8-.5 1.7 2.6 2.9 5.8 5.1 7.8 7.8 6.9 15.5 14.3 24.2 19.9 27.3 17.9 57.6 29.9 87.7 42.1 22.2 9 44.9 16.9 67.3 25.2 1.8.7 3.6 1.5 5.3 2.6-60.8-10.1-115.6-36.7-171.8-63.9 1.6 2.4 2.3 3.7 3.3 4.8 24.4 29.7 49 59.4 73.3 89.2 3.4 4.2 7.6 6.2 12.7 7.1 33.7 6.3 67.4 12.7 101.1 19.1.4.1.9.3 1.2 1.4-16.7-1.5-33.5-2.6-50.1-4.8-16.6-2.2-33.1-5.5-50.5-8.5 1.6 1.9 2.7 3.4 4.1 4.7 17.6 16.5 35.2 33.1 53 49.5 2.1 1.9 5.5 3.2 8.4 3.4 37.1 3 73.9.7 110.6-4.6.6-.1 1.3-.1 2 .5-34.6 9.9-69.9 13.1-106.9 12.2 1.4 1.6 2.1 2.6 3 3.3 16.4 12.8 32.8 25.7 49.4 38.2 2.2 1.6 5.9 2.3 8.7 1.8 29.5-4.8 55.6-18 80.9-33 1.3-.8 2.6-1.5 3.9-2.2.2-.1.6.1 1.2.3-21.4 20.6-46.7 34.7-74.3 46.8 3.3 2.1 5.7 3.8 8.3 5.3 13.9 7.9 27.9 15.6 41.6 23.8 4.3 2.5 7.4 2.2 11.2-.6 14.7-10.8 27.8-23.4 39.6-37.3 1.3-1.5 2.6-3 4.2-4.3-8.3 19.3-18.8 37.1-35.1 52 2 1.1 3.5 2 5 2.7 16.8 7.6 33.7 15.2 50.4 23 3.9 1.8 5.9.7 8.2-2.4 12.4-17.1 19.1-36.4 22.8-57 .3-1.8.8-3.5 1.1-5.3.4.1.8.1 1.2.2-1.4 12.1-2.8 24.1-4.3 36.2-1.6 12.4-5.4 23.9-13.5 35 21.5 7.3 42.2 14.3 62.6 21.2 7.9-7.4 8.8-34.1 5.9-61.5 8 20.9 11 42.5 9.9 65.3 23.6 7.3 48 8.9 74.2 8.6-1.5-4.3-2.1-8.3-4.2-11.3-8.1-12.2-16.7-24-25.2-36-.9-1.3-1.9-2.5-2.5-4 11.6 10.5 23.5 20.9 31.5 34.4 16.1 27.5 26.7 56.9 26.5 89.4-.1 10.9-3.6 19.7-10.7 28.1-14.6 17.2-32 29-54.7 31.8-1 .1-1.9.6-3.7 1.2 10.1 8.1 19.7 15.8 29.4 23.2.9.7 3.5-.1 4.7-1 7.3-5.5 14.5-11.3 21.7-16.9 1.3-1 2.5-2 3.7-3 .4.4.8.8 1.2 1.3-8.5 7.8-17 15.7-26 24 8.7 6.7 16.6 12.6 25.4 19.3 9.4-11 18.5-21.7 27.6-32.5.3.1.6.2.9.4-7 12.5-14 25-21.2 37.7 12.9 9.7 26.1 19.7 40.4 30.4-.6-20.9-.8-40.4 9.8-59.3.2.3.4.7.6 1 .2-.3.4-.7.6-1 10.6 19 10.4 38.4 9.8 59.3 14.3-10.8 27.6-20.7 40.4-30.4-7.2-12.8-14.2-25.3-21.2-37.7.3-.1.6-.2.9-.4 9.1 10.7 18.3 21.5 27.6 32.5 8.8-6.7 16.7-12.7 25.4-19.3-9.1-8.4-17.6-16.2-26-24 .4-.4.8-.8 1.2-1.3 1.2 1 2.5 2 3.7 3 7.2 5.7 14.3 11.4 21.7 16.9 1.2.9 3.9 1.7 4.7 1 9.8-7.4 19.3-15.1 29.4-23.2-1.9-.6-2.8-1.1-3.7-1.2-22.8-2.8-40.1-14.6-54.7-31.8-7.1-8.4-10.7-17.3-10.7-28.1-.2-32.5 10.3-61.9 26.5-89.4 7.9-13.6 19.9-23.9 31.5-34.4-.6 1.5-1.6 2.7-2.5 4-8.4 12-17 23.8-25.2 36-2 3.1-2.6 7.1-4.2 11.3 26.1.3 50.6-1.3 74.2-8.6-1.1-22.8 2-44.5 9.9-65.3-3 27.4-2 54.1 5.9 61.5 20.4-6.9 41.1-13.9 62.6-21.2-8.1-11-11.9-22.6-13.5-35-1.5-12.1-2.9-24.1-4.3-36.2.4-.1.8-.1 1.2-.2.4 1.8.8 3.5 1.1 5.3 3.7 20.6 10.3 39.9 22.8 57 2.3 3.2 4.3 4.2 8.2 2.4 16.7-7.8 33.6-15.3 50.4-23 1.6-.7 3-1.6 5-2.7-16.3-14.9-26.8-32.7-35.1-52 1.6 1.3 2.9 2.8 4.2 4.3 11.8 13.9 24.9 26.5 39.6 37.3 3.8 2.8 6.9 3.2 11.2.6 13.7-8.2 27.8-15.9 41.6-23.8 2.5-1.5 5-3.1 8.3-5.3-27.6-12.1-52.9-26.2-74.3-46.8.6-.2 1-.4 1.2-.3 1.3.7 2.6 1.4 3.9 2.2 25.3 15 51.4 28.2 80.9 33 2.8.4 6.5-.2 8.7-1.8 16.6-12.5 33-25.4 49.4-38.2.9-.7 1.6-1.7 3-3.3-36.9.9-72.3-2.3-106.9-12.2.7-.5 1.4-.6 2-.5 36.7 5.3 73.6 7.5 110.6 4.6 2.9-.2 6.3-1.5 8.4-3.4 17.8-16.3 35.4-32.9 53-49.5 1.4-1.3 2.5-2.8 4.1-4.7-17.4 3-33.9 6.3-50.5 8.5s-33.4 3.2-50.1 4.8c.3-1.1.7-1.3 1.2-1.4 33.7-6.4 67.4-12.8 101.1-19.1 5.1-1 9.3-3 12.7-7.1 24.4-29.8 48.9-59.5 73.3-89.2.9-1.1 1.7-2.4 3.3-4.8-56.3 27.2-111 53.8-171.8 63.9 1.6-1.2 3.4-2 5.3-2.6 22.2-8.3 44.9-16.1 67.1-25.1z"/><path class="st0" d="M734.5 361.8c7-12.5 0-23-15.3-33.2-8.1 8.9-1.6 25.2 15.3 33.2zM750 39.2l-74.3 42.9v85.8l74.3 42.9 74.3-42.9V82.1L750 39.2zm0 5.8 66.8 38.6-66.8 38.5-66.8-38.6L750 45zm-69.3 120V87.9l66.8 38.6v77.1L680.7 165zm138.6 0-66.8 38.6v-77.1l66.8-38.6V165zM749.5 575h1c-.1-3.3-.2-6.5-.5-9.6-.3 3.1-.5 6.3-.5 9.6zM923.7 371c-6.1 51-34.2 95.2-74.5 123.1 5.2 2.1 10.7 3.5 16.5 4.2 1.7.2 3.1.7 4.2 1.1.4.1.8.3 1.4.5l17.8 5.7-14.6 11.6-6.3 5.1c-6.6 5.3-12.9 10.3-19.3 15.2l.2.2-35.3 26.9.1.1-2.6 1.9c93.3-26.4 162.1-111.6 163.8-212.9L923.7 371zM686.2 564.6l.1-.1-35.3-26.9.2-.2c-6.4-4.9-12.6-9.9-19.2-15.2-2.1-1.7-4.2-3.4-6.4-5.1L611 505.5l17.8-5.7c.5-.2 1-.3 1.4-.5 1.1-.4 2.5-.9 4.2-1.1 5.8-.7 11.3-2.1 16.5-4.2-40.3-27.8-68.4-72.1-74.5-123.1L525 353.7c1.6 101.3 70.5 186.5 163.8 212.9l-2.6-2zM673.7 479.2c3-2.8 5.9-5.9 8.9-9.3 3-3.5 5.1-7 6.5-10.8-28.7-16.1-50.5-43.2-59.5-75.6-9.5-1.2-18.4-3-26.9-5.4 8.1 43 34.6 79.5 71 101.1zM870.4 383.5c-9 32.4-30.8 59.5-59.5 75.6 1.4 3.7 3.5 7.2 6.5 10.8 2.9 3.4 5.9 6.5 8.9 9.3 36.4-21.5 62.9-58 71.1-101-8.6 2.3-17.4 4.1-27 5.3z"/><path class="st0" d="M665.7 173.7v-32.3c-32.3 13.1-60.9 33.5-83.7 59.1 6.3 16.8 15.5 31.8 27.5 45.3 19.8-26.6 46.9-47.4 78.4-59.4l-22.2-12.7zM834.3 141.4v32.3l-22.1 12.8c31.5 12 58.6 32.8 78.4 59.4 12-13.5 21.1-28.5 27.5-45.3-22.9-25.7-51.5-46.1-83.8-59.2zM782.5 203.5 750 222.3l-32.5-18.8c-36.9 8.2-68.6 29.9-89.8 59.6 6.8 5.2 14.1 9.4 21.6 12.9 20.8-28.3 53.3-47.6 90.3-50.6l-1.6-2.2 2.9 2.1a138.28 138.28 0 0 1 18.2 0l2.9-2.1-1.6 2.2c37 3.1 69.5 22.3 90.3 50.6 7.5-3.5 14.8-7.6 21.6-12.9-21.1-29.7-52.9-51.4-89.8-59.6z"/></svg>