<svg version="1.1" id="图层_1" xmlns="http://www.w3.org/2000/svg" x="0" y="0" viewBox="0 0 1000 1000" style="enable-background:new 0 0 1000 1000" xml:space="preserve"><style>.st0{display:none}.st1{display:inline}.st2{fill:none;stroke:#000;stroke-width:10;stroke-miterlimit:10}.st10{fill:#fff}.st11,.st24{display:inline;fill:none;stroke:#000;stroke-width:20;stroke-miterlimit:10}.st24{stroke-width:10}.st25{fill:#f26e73}</style><radialGradient id="SVGID_25_" cx="567.231" cy="539.542" r="125.263" gradientTransform="translate(24.555 24.555) scale(.9508)" gradientUnits="userSpaceOnUse"><stop offset="0" style="stop-color:#f9ae3b"/><stop offset="1" style="stop-color:#eb1c24"/></radialGradient><path d="M546.2 464.2c-10-6.3-20-12.5-30.1-18.8 21.2-12.2 42.3-24.4 63.5-36.6 30.9 17.3 61.9 34.5 92.8 51.8 0 35.5.1 71 .1 106.6-57.7 33-115.3 66-173 99l-44.4-25.5c0-12.1.1-24.2.1-36.4 14.9 8.4 29.9 16.8 44.8 25.1 46.9-26.9 93.8-53.8 140.6-80.7-.1-23.2-.3-46.5-.4-69.7-19.5-11.2-39.1-22.4-58.6-33.6-11.7 6.3-23.5 12.6-35.4 18.8z" style="fill:url(#SVGID_25_)"/><radialGradient id="SVGID_26_" cx="567.234" cy="539.532" r="118.949" gradientTransform="translate(24.555 24.555) scale(.9508)" gradientUnits="userSpaceOnUse"><stop offset="0" style="stop-color:#f9ae3b"/><stop offset="1" style="stop-color:#eb1c24"/></radialGradient><path style="fill:url(#SVGID_26_)" d="M460.8 637.5v-23.7l39.3 22L646.3 552l-.4-76.2-64.1-36.7-35.3 18.7-19.5-12.1 52.7-30.4 87.2 48.6.1 100.1-167.4 95.8z"/><radialGradient id="SVGID_27_" cx="457.762" cy="507.116" r="122.369" gradientTransform="translate(24.555 24.555) scale(.9508)" gradientUnits="userSpaceOnUse"><stop offset="0" style="stop-color:#f9ae3b"/><stop offset="1" style="stop-color:#eb1c24"/></radialGradient><path d="M592.1 507.6C534 474.7 475.8 441.8 417.6 409c-30 17.2-60 34.5-90.1 51.7 0 35.5-.1 71-.1 106.6 22.1 12.4 44.1 24.8 66.2 37.3v-36.2c-11.4-6.6-22.8-13.1-34.3-19.7 0-23.2-.1-46.4-.1-69.5l59.1-34.2 141.6 81.3c.1 17.1.3 34.2.4 51.4 10.6-6.2 21.2-12.3 31.8-18.5v-51.6z" style="fill:url(#SVGID_27_)"/><radialGradient id="SVGID_28_" cx="457.763" cy="505.444" r="115.529" gradientTransform="translate(24.555 24.555) scale(.9508)" gradientUnits="userSpaceOnUse"><stop offset="0" style="stop-color:#f9ae3b"/><stop offset="1" style="stop-color:#eb1c24"/></radialGradient><path style="fill:url(#SVGID_28_)" d="m333 564 .1-100.1 84.5-48.5 169 95.4v45l-20.8 12.1-.4-45-147.1-84.4-64.6 37.4.1 75.9 34.2 19.7-.7 23.4z"/><radialGradient id="SVGID_29_" cx="499.743" cy="627.382" r="123.941" gradientTransform="translate(24.555 24.555) scale(.9508)" gradientUnits="userSpaceOnUse"><stop offset="0" style="stop-color:#f9ae3b"/><stop offset="1" style="stop-color:#eb1c24"/></radialGradient><path d="M484.9 499.9c-14.8 8.6-29.6 17.3-44.4 25.9v163.6c20 11.2 40 22.4 60.1 33.7 19.9-11.4 39.8-22.8 59.7-34.3.1-13.4.3-26.8.4-40.2 10.3-5.8 20.6-11.6 30.8-17.4-.3 25.5-.6 50.9-.8 76.4-30.3 17.5-60.6 35.1-91 52.6-30.6-17.7-61.3-35.4-91.9-53 .1-66.5.3-132.9.4-199.4 15.1-8.6 30.1-17.1 45.2-25.7 10.5 5.9 21 11.8 31.5 17.8z" style="fill:url(#SVGID_29_)"/><radialGradient id="SVGID_30_" cx="499.692" cy="627.368" r="117.659" gradientTransform="translate(24.555 24.555) scale(.9508)" gradientUnits="userSpaceOnUse"><stop offset="0" style="stop-color:#f9ae3b"/><stop offset="1" style="stop-color:#eb1c24"/></radialGradient><path style="fill:url(#SVGID_30_)" d="m413.4 703.9.4-192.9 39.6-22.6 20.4 11.5-38.8 22.6v170.1l65.6 36.8 65.2-37.4.5-40.2 19.6-11.1-.7 63.6-85.5 49.4z"/><radialGradient id="SVGID_31_" cx="496.777" cy="287.196" r="131.181" gradientUnits="userSpaceOnUse"><stop offset="0" style="stop-color:#f9ae3b"/><stop offset="1" style="stop-color:#eb1c24"/></radialGradient><path d="M553.3 138.3c1 10.1 1.8 32.6-9.5 57.4-12.6 27.6-32.9 42.2-41.4 47.7-1.5-.5-27.6-9.5-48.1 7.3-13.3 10.9-16.1 26-16.7 30.1-5.9 2.2-37.2 14.6-47.9 46.1-3.1 9.3-3.7 17.8-3.4 24.7 3.2-6.8 9.5-17.7 21-27.8 13.7-12.1 28-16.8 35.6-18.8 3.3 2.7 18.4 14.2 39.2 12.1 19.6-2 36.7-15.4 44.7-34.6 2.5.3 29.5 4.3 40.1 26.8 10.3 21.9-3.3 44.1-8.4 52.4-18.1 29.4-51.2 35.9-58.3 37.1h-64.7c21.6 12.5 43.2 24.9 64.7 37.4 21.1-12.2 42.3-24.4 63.4-36.6 37.8-24.2 52.7-68 38.9-101.3-13.3-31.8-47.7-41.8-52.7-43.2 2.8-.1 22.1-1.4 34.4-17.6 10.5-13.9 11.7-33.2 3.2-49.5-1 6.7-4.2 22.6-17 37.1-18 20.2-41.7 22.9-47.3 23.4 7-2.6 30.3-12.1 39.4-35.1 4.1-10.2 3.9-19.5 3.7-27.8-.9-21.2-7.8-37.6-12.9-47.3z" style="fill:url(#SVGID_31_)"/><radialGradient id="SVGID_32_" cx="221.807" cy="404.353" r="204.621" gradientUnits="userSpaceOnUse"><stop offset="0" style="stop-color:#f9ae3b"/><stop offset="1" style="stop-color:#eb1c24"/></radialGradient><path d="M159.6 171.5c-15.9 19.4-64.9 84.1-52.7 164.7 4.2 27.7 16 48.7 16 48.7 10.3 20.7 42.4 47.1 97.5 79.5-12.9-.2-24 6.6-27.8 16.6-4.8 12.5 4.4 24.7 5.8 26.5 14.1 17.9 45.2 16.6 64.2 10.3 32.8-10.8 46.2-41.8 48.6-47.8v105.5c27.5 15.9 54.9 31.7 82.4 47.6-22.7 7.6-92 27.3-173.7.3-90.2-29.9-135.3-97-147.2-116.1 14 12.3 32.8 26.4 56.7 38.6 12.7 6.5 24.9 11.5 35.9 15.3-18-10.4-48.9-31.3-75.4-68.3-25.6-35.8-35.6-70.5-39.9-90.7 6.3 10 14.1 21 23.7 32.4 8 9.5 15.9 17.8 23.4 24.8-10.9-20.6-30.1-63.6-26.9-119.5 5.6-98.9 76.6-158.1 89.4-168.4z" style="fill:url(#SVGID_32_)"/><radialGradient id="SVGID_33_" cx="219.807" cy="404.353" r="204.621" gradientTransform="matrix(-1 0 0 1 998 0)" gradientUnits="userSpaceOnUse"><stop offset="0" style="stop-color:#f9ae3b"/><stop offset="1" style="stop-color:#eb1c24"/></radialGradient><path d="M840.4 171.5c6.5 6.8 72.6 78.8 52.7 164.7-10.4 44.8-40.1 76-48 84.1-24.1 24.7-49.6 37.6-65.5 44.1 12.9-.2 24 6.6 27.8 16.6 4.8 12.5-4.4 24.7-5.8 26.5-14.1 17.9-45.2 16.6-64.2 10.3-32.8-10.8-46.2-41.8-48.6-47.8v105.5c-27.5 15.9-54.9 31.7-82.4 47.6 22.7 7.6 92 27.3 173.7.3 90.2-29.9 135.3-97 147.2-116.1-14 12.3-32.8 26.4-56.7 38.6-12.7 6.5-24.9 11.5-35.9 15.3 18-10.4 48.9-31.3 75.4-68.3 25.6-35.8 35.6-70.5 39.9-90.7-6.3 10-14.1 21-23.7 32.4-8 9.5-15.9 17.8-23.4 24.8 10.9-20.5 30.1-63.6 26.9-119.5-5.6-98.9-76.6-158.1-89.4-168.4z" style="fill:url(#SVGID_33_)"/><radialGradient id="SVGID_34_" cx="500" cy="761.057" r="214.301" gradientUnits="userSpaceOnUse"><stop offset="0" style="stop-color:#f9ae3b"/><stop offset="1" style="stop-color:#eb1c24"/></radialGradient><path d="M214.1 660.4c11.1 30.8 36.3 86.9 91.9 132.5 89.3 73.2 224.5 92.7 334.1 35.9C738 778 775.8 687.2 785.9 660.4c-18.2 7.5-48.4 17.2-86.8 17.8-40.8.6-72.8-9.3-91.5-16.7v36.3c86.1 8 104.2 22.2 105.9 33.2 4.6 30.6-108.7 97.1-215 73.6-60.9-13.5-100.4-52.3-117.5-71.5 1.1 6.7 3.2 14.7 6.9 23.4 8.5 19.6 21.4 32.1 29.6 38.9-16.1-8.9-35.7-21.7-55.7-39.8a296.84 296.84 0 0 1-53.9-65c1.8 14.9 6.4 37.8 19.7 62.4 9.6 17.8 20.7 30.9 29.6 39.9-21.6-11.8-48-28.9-75-53.1-31.4-28.2-53.3-56.8-68.1-79.4z" style="fill:url(#SVGID_34_)"/></svg>