<svg xmlns="http://www.w3.org/2000/svg" width="1196" height="500.262" fill="none"><g fill-rule="evenodd"><path style="fill:#fff" d="M117.6 172.36c4.3 6.4 8.8 12.8 9.9 14.4 1.5 1.9 4.6 3.6 10.5 5.8 10.3 3.6 25.9 9.2 52.5 18.8 11 4 25.4 9.1 32 11.5 6.6 2.3 26.6 9.5 44.5 16 17.9 6.4 34.8 12.5 37.5 13.5 2.8.9 11.3 4 19 6.8 7.7 2.8 26.2 9.4 41 14.7 14.9 5.3 34.2 12.3 43 15.5l16 5.8.3 52.4.3 52.3 37.2 21.4c42.4 24.5 58.1 33.5 103.7 60 17.9 10.4 32.5 19 32.6 19 0 .1 26.9-15.7 30.4-17.9.8-.5 3.8-2.1 6.5-3.6 2.8-1.4 5.7-3.2 6.5-3.8.8-.7 2.9-1.8 4.5-2.6 2.9-1.4 22.5-12.8 37-21.4 10.8-6.4 10.9-6.5 12.5-7.3 1.9-.9 53.4-30.5 58-33.3 6.9-4.2 17.3-10 18.1-10 .5 0 1-22 1.1-52.7l.3-52.7 8-2.9c4.4-1.5 9.6-3.5 11.5-4.4 1.9-.8 4.2-1.7 5-1.9.8-.2 6-1.9 11.5-3.9s11.1-4 12.5-4.5c4.8-1.6 30.6-10.9 47.5-17 9.4-3.4 20.2-7.3 24-8.7 3.9-1.4 16.3-5.8 27.6-9.9 11.4-4.1 20.9-7.4 21.2-7.4.2 0 2.2-.8 4.3-1.7 2.2-.9 4.5-1.8 5.3-1.9.8-.2 4.8-1.6 9-3.2 7.3-2.8 33.2-12.1 51.1-18.3 4.7-1.7 10.1-3.7 12-4.6 1.9-.8 4.2-1.7 5-1.9.8-.2 5.8-1.8 11-3.7 5.2-1.9 13.5-4.8 18.4-6.5 5.4-2 9.5-4.1 10.5-5.4 1.6-2.2 12.5-18 33.6-48.8 5.8-8.5 13.1-19.1 16.2-23.5 6.6-9.5 31.1-45.1 40.2-58.5 3.5-5.2 8-11.7 10-14.5 2-2.7 4.1-5.7 4.6-6.7.6-1 3.5-5.3 6.5-9.5 11-15.8 17-24.7 17-25.5 0-.5-1.9.2-4.2 1.6-2.4 1.3-15.5 8.9-29.3 16.9-13.7 7.9-31.1 17.9-38.5 22.2-7.4 4.3-19.1 11-26 15-6.9 4-48.9 28.3-93.5 54-44.5 25.7-86.6 50-93.5 54-11.3 6.6-58.3 33.7-90 52-6.9 4-21.5 12.4-32.5 18.7-11 6.4-28.1 16.3-38 22l-18 10.4-.3 55.1-.2 55.2-7.8 4.4c-4.2 2.4-25.5 14.6-47.2 27.2-44 25.4-52.7 30.4-68.2 39.4l-10.7 6.2-6.8-3.9c-3.8-2.1-30.4-17.5-59.3-34.2-28.9-16.7-56-32.3-60.2-34.7l-7.8-4.4-.2-55.1-.3-55.2-27-15.6c-14.8-8.6-53.8-31.1-86.5-50s-63.5-36.7-68.5-39.5c-4.9-2.9-45.4-26.3-90-52-44.5-25.7-86.8-50.1-94-54.3-7.1-4.1-18.8-10.9-26-15-7.1-4.1-24.2-14-38-21.9-13.7-8-26.9-15.6-29.2-16.9C1.9.36 0-.24 0 .36c0 1 5.3 8.9 29.5 44 7.3 10.5 78.5 114.1 88.1 128Z"/><path style="fill:#fff" transform="translate(270.402 372.361)" d="M8.6 18.1c-4.1.6-7.9 1.5-8.4 2-1 .9 1 3.9 24.6 38.2 6 8.6 11.3 15.7 11.7 15.7.9 0 8.2-3.2 18.6-8 3.3-1.5 10.5-4.7 15.9-7s10.6-4.5 11.5-5c3-1.4 10.5-4.8 23.1-10.3 6.9-3 14.6-6.4 17.2-7.6 2.6-1.1 5.2-2.1 5.7-2.1.7 0 1.1-5.7 1.1-17 0-9.3-.4-17-.8-17-.8 0-11.8 1.7-83.2 12.6-16.2 2.4-32.9 4.9-37 5.5Z"/><path style="fill:#fff" transform="translate(796 372.361)" d="M125.9 27c2.3-3.4 3.9-6.6 3.5-7-.5-.5-4.3-1.3-8.4-1.9-4.1-.6-20.8-3.1-37-5.5C12.6 1.7 1.6 0 .8 0 .4 0 0 7.5 0 16.8v16.7l45.8 20.2C70.9 64.8 92 73.9 92.6 74c.6 0 3.7-3.9 7-8.7 3.2-4.8 8.7-12.7 12.2-17.5 3.4-4.9 7-10.1 8-11.7.9-1.5 3.7-5.6 6.1-9.1Z"/><path style="fill:#fff" transform="translate(488 95.361)" d="m.2 149.7-.2 119 38.7 22.4c21.4 12.3 46 26.5 54.8 31.6 8.8 5.1 16.1 9.3 16.2 9.3.4 0 4.8-2.5 52.3-30 6.3-3.7 21.2-12.2 33-19 11.8-6.8 22.3-13 23.3-13.8 1.6-1.4 1.7-4.9 1.7-46.4 0-24.6-.3-44.8-.7-44.8-.5 0-8.9 4.7-18.8 10.4l-18 10.4-.3 24-.2 24-35.3 20.2c-19.3 11.2-35.6 20.5-36 20.7-.4.3-14.4-7.4-31-17s-32.6-18.8-35.4-20.3l-5.3-2.9V52.2l13.8-8c7.5-4.4 15.8-9.1 18.4-10.6 2.5-1.4 8.3-4.7 12.7-7.4l8.1-4.9-18.4-10.6C63.5 4.8 54.8 0 54.4 0 53.9 0 41.6 6.9 27 15.3L.5 30.7l-.3 119Z"/><path style="fill:#fff" transform="translate(174.298 253.647)" d="m67.2 98.91 22-.7c12.1-.3 28.8-.8 37-1 28.3-.7 56-1.6 62-2 3.3-.3 13.1-.5 21.8-.6l15.7-.1V65.81l-8.2-2.5c-8.2-2.4-28.5-8.4-76.8-22.6-13.5-3.9-32.6-9.5-42.5-12.5C28.8 7.71.5-.39 0 .01c-.2.3 14.8 22.7 33.4 49.7l33.8 49.2Z"/><path style="fill:#fff" transform="translate(796 253.554)" d="M0 65.91V94.61l15.3.1c8.3.1 17.9.3 21.2.6 7.7.6 40.3 1.5 71.5 2.2 13.5.2 24.6.6 24.7.7.2.1 5.8.3 12.7.5l12.4.2 2.9-3.8c2.6-3.4 12.2-17.3 14.8-21.5.6-.9 8.9-12.9 18.5-26.8 9.6-13.8 18.2-26.2 19-27.5.8-1.3 4.1-6.1 7.2-10.6 3.2-4.5 5.6-8.4 5.4-8.7-.4-.3-31.5 8.7-98.1 28.3-9.9 3-29 8.6-42.5 12.5-48.3 14.2-68.6 20.2-76.7 22.6L0 65.91Z"/><path style="fill:#fff" transform="translate(544.174 7.93)" d="M109.03 66.23c.4.2 9.8-4.9 20.8-11.3 11.1-6.4 20.8-11.4 21.5-11.1.8.3 10.5 5.8 21.7 12.2 11.2 6.5 26.6 15.4 34.3 19.8l14 8.1.3 41.6.2 41.6-16.7 9.5c-9.3 5.3-18.4 10.5-20.3 11.5-9.1 5.1-45.7 26.3-56 32.3-25.3 15-74.2 43-74.9 43-.4 0-9.9-5.3-21.2-11.8-27.6-16-31.5-18.2-32.3-18.2-.3 0-.5 9.8-.4 21.7l.3 21.7 26 15.2c14.3 8.4 26.5 15.3 27 15.3.6.1 2.4-.7 4-1.7 1.7-1 5.3-3.1 8-4.6 4.4-2.5 17.8-10.2 83-48.1 8.8-5.1 17.8-10.3 20-11.5 2.2-1.2 6.9-3.9 10.5-6 3.6-2.1 8.8-5 11.5-6.6 2.8-1.5 16.3-9.3 30-17.2 31.8-18.5 34.5-20 37.3-21.4l2.2-1.1v-63.6l-.1-63.6-31.2-17.9c-17.2-9.9-41.7-24-54.6-31.4-18.3-10.6-23.7-13.3-25-12.5-.9.5-18 10.3-38.1 21.8-20.1 11.4-37.1 21.3-37.7 21.9-1 .9 3.1 3.6 16.9 11.6 10 5.8 18.5 10.6 19 10.8Z"/><path style="fill:#fff" transform="translate(392 8.018)" d="M113 45.44c7.7 4.2 131 75 156.5 89.9l8 4.7.3 30.7.2 30.6 4.8-2.6c2.6-1.4 11.1-6.4 19-11l14.2-8.5v-61.4l-9.8-5.4c-5.3-3-19.1-10.9-30.7-17.6-11.5-6.7-31.8-18.4-45-26-13.2-7.6-31.9-18.4-41.5-24-9.6-5.6-20.2-11.7-23.5-13.5-3.3-1.8-17.2-9.8-30.9-17.7-20.7-12-25.3-14.3-27-13.5-1.2.5-12.5 7-25.2 14.3-12.7 7.4-36.4 21.1-52.7 30.4l-29.6 17-.1 63.6v63.6l29.3 16.9c16 9.2 33.3 19.2 38.2 22.1 5 2.9 9.6 5.2 10.3 5.3.9 0 1.2-4.9 1.2-21.5v-21.5l-2.9-1.8c-1.7-.9-10.9-6.2-20.5-11.7l-17.5-10-.1-41.5v-41.5l35.2-20.4 35.3-20.4 4.5 2.4Z"/></g></svg>