<?xml version="1.0" encoding="UTF-8"?> <svg  version="1.0" xmlns="http://www.w3.org/2000/svg"  width="300.000000pt" height="300.000000pt" viewBox="0 0 300.000000 300.000000"  preserveAspectRatio="xMidYMid meet">  <g transform="translate(0.000000,300.000000) scale(0.100000,-0.100000)" fill="#ffffff" stroke="none"> <path d="M1255 2975 c-422 -74 -799 -325 -1022 -680 -88 -139 -176 -364 -210 -532 -24 -123 -24 -414 0 -538 81 -418 318 -771 670 -999 145 -95 288 -154 472 -197 130 -30 452 -38 585 -15 205 36 470 148 628 266 421 312 664 841 613 1328 -42 394 -175 687 -434 950 -193 196 -424 326 -709 398 -91 23 -126 27 -308 30 -145 2 -228 -1 -285 -11z m466 -211 c581 -99 1007 -566 1059 -1162 32 -367 -97 -732 -353 -999 -44 -46 -83 -83 -86 -83 -3 0 -45 29 -93 65 l-88 65 0 105 c0 58 3 105 7 105 3 0 21 -11 39 -25 27 -21 44 -25 97 -25 51 0 67 -4 82 -20 24 -26 79 -26 105 0 26 26 27 89 1 121 -23 29 -87 32 -106 5 -8 -10 -30 -22 -51 -26 -47 -11 -85 5 -136 55 -37 36 -38 37 -38 114 0 92 14 76 -216 249 -88 67 -167 128 -174 136 -16 21 -1 40 52 67 102 52 221 212 261 348 22 79 26 220 8 306 -37 175 -164 338 -322 413 -105 50 -171 65 -279 65 -170 -1 -311 -61 -430 -182 -116 -118 -174 -244 -186 -406 -16 -215 100 -435 290 -550 105 -64 104 -65 -141 -191 -192 -98 -212 -106 -262 -105 -43 1 -60 -4 -78 -21 -54 -50 -10 -142 64 -136 31 2 42 10 64 43 18 26 49 51 90 73 l64 34 3 -52 c2 -29 0 -56 -5 -61 -4 -4 -127 -69 -272 -145 -193 -100 -269 -134 -279 -127 -20 12 -98 167 -129 256 -48 139 -66 250 -67 417 -1 167 12 250 60 397 69 207 168 369 318 519 198 197 424 313 696 359 109 19 319 18 431 -1z m-281 -354 l0 -109 -67 -3 -68 -3 0 -50 0 -50 68 -3 68 -3 -3 -47 -3 -47 -67 -3 -68 -3 0 -43 c0 -50 10 -56 93 -56 l47 0 0 -50 0 -49 -67 -3 -68 -3 0 -45 0 -45 65 -5 65 -5 0 -127 c0 -71 -1 -425 -3 -788 l-2 -660 -52 0 c-55 0 -212 30 -261 49 l-27 11 2 172 3 173 103 53 102 53 0 163 c0 90 3 277 6 417 l6 254 -63 35 c-81 45 -169 131 -203 197 -141 278 -9 611 282 710 115 39 112 41 112 -87z m213 89 c203 -68 330 -246 331 -464 0 -190 -102 -362 -266 -446 l-38 -19 -2 -243 c-5 -668 -3 -625 -26 -650 -30 -32 -36 -70 -18 -106 29 -56 94 -69 142 -28 38 33 38 96 0 136 l-26 27 0 202 0 203 23 -12 c25 -14 108 -79 119 -94 4 -5 7 -174 5 -375 l-2 -365 -90 -23 c-49 -12 -127 -25 -171 -28 l-82 -7 -7 362 c-4 199 -4 555 0 791 l7 429 67 3 66 3 3 39 c4 48 -6 56 -80 56 l-58 0 0 50 0 50 65 0 65 0 0 50 0 50 -65 0 -65 0 0 50 0 50 65 0 65 0 0 50 0 49 -62 3 -63 3 -8 60 c-4 33 -5 84 -2 113 8 61 13 63 108 31z m278 -1283 l152 -120 -5 -242 c-3 -134 -2 -247 1 -251 3 -5 43 -37 88 -71 45 -34 84 -66 87 -71 10 -16 -221 -151 -257 -151 -11 0 -15 65 -20 363 -3 199 -9 370 -12 379 -4 9 -25 29 -48 44 -23 16 -68 48 -99 73 l-58 44 0 64 c0 36 4 63 9 61 6 -1 78 -57 162 -122z m-701 -23 c0 -76 -3 -147 -6 -158 -4 -14 -66 -51 -202 -121 l-197 -102 -3 -73 c-2 -60 -7 -77 -27 -101 -31 -37 -32 -86 -4 -122 16 -21 29 -26 64 -26 83 0 124 92 64 146 -19 18 -27 97 -11 120 15 22 232 140 290 159 23 7 23 6 20 -72 l-3 -78 -102 -53 -103 -53 0 -179 c0 -99 -2 -180 -5 -180 -3 0 -42 19 -88 41 -92 46 -183 107 -264 177 -61 53 -183 191 -183 208 0 6 132 78 293 160 l292 149 3 102 c2 72 7 104 17 113 18 15 137 79 148 80 4 0 7 -62 7 -137z m-465 -63 c0 -18 -6 -26 -23 -28 -24 -4 -38 18 -28 44 3 9 15 14 28 12 17 -2 23 -10 23 -28z m1695 -255 c10 -12 9 -20 -4 -40 -18 -28 -27 -30 -44 -13 -23 23 -7 68 24 68 6 0 17 -7 24 -15z m-712 -253 c7 -50 -49 -72 -70 -27 -14 32 5 57 41 53 18 -2 27 -10 29 -26z m-860 -38 c4 -25 -22 -49 -43 -40 -22 8 -29 34 -14 52 17 21 53 14 57 -12z"/> </g> </svg> 