<?xml version="1.0" encoding="UTF-8"?> <svg  version="1.0" xmlns="http://www.w3.org/2000/svg"  width="900.000000pt" height="897.000000pt" viewBox="0 0 900.000000 897.000000"  preserveAspectRatio="xMidYMid meet">  <g transform="translate(0.000000,897.000000) scale(0.100000,-0.100000)" fill="#ffffff" stroke="none"> <path d="M4503 8958 c1 -10 -50 -15 -218 -20 -343 -10 -628 -53 -950 -143 -135 -38 -380 -119 -450 -150 -16 -7 -66 -27 -110 -45 -44 -18 -93 -38 -110 -46 -230 -102 -301 -138 -473 -243 -51 -31 -101 -61 -110 -66 -112 -67 -381 -268 -532 -399 -239 -205 -470 -452 -656 -701 -100 -134 -232 -331 -274 -410 -6 -11 -26 -47 -45 -80 -35 -60 -195 -380 -232 -465 -18 -40 -32 -75 -64 -158 -56 -145 -149 -478 -183 -657 -79 -419 -108 -800 -87 -1160 12 -217 31 -388 57 -510 8 -38 14 -79 14 -90 0 -49 103 -454 136 -533 8 -18 14 -39 14 -47 0 -8 6 -29 14 -47 13 -31 23 -58 60 -155 61 -163 200 -456 283 -599 16 -27 32 -56 36 -64 31 -66 239 -367 346 -500 176 -219 450 -501 610 -628 25 -20 51 -41 56 -47 31 -35 424 -317 480 -345 6 -3 28 -17 50 -31 22 -14 47 -29 55 -32 8 -4 29 -16 45 -26 17 -11 79 -45 140 -77 60 -31 116 -60 125 -65 34 -19 212 -99 220 -99 5 0 21 -6 37 -14 15 -8 47 -22 71 -30 23 -9 59 -22 80 -30 20 -8 55 -21 77 -29 22 -8 67 -23 100 -32 33 -10 75 -24 93 -31 18 -8 40 -14 50 -14 9 0 34 -6 57 -14 86 -29 370 -87 572 -116 96 -13 1063 -13 1168 0 111 15 258 38 335 54 193 41 230 49 280 62 79 21 159 45 200 59 19 7 53 18 75 25 185 57 649 264 794 354 20 12 43 26 51 29 8 4 29 16 45 27 17 11 36 23 44 26 54 27 384 263 472 338 19 17 64 56 100 86 105 89 305 288 402 400 51 58 100 114 110 125 34 37 273 359 315 425 35 55 112 182 147 242 40 69 128 241 175 343 68 147 97 219 135 330 13 39 28 81 33 95 5 14 18 52 27 85 10 33 24 78 31 100 57 184 126 546 140 728 4 62 10 90 20 94 20 7 21 814 2 810 -9 -1 -15 23 -21 83 -12 130 -41 315 -83 520 -22 106 -67 278 -89 340 -7 19 -20 60 -29 90 -20 62 -31 91 -76 205 -31 80 -38 94 -80 190 -43 95 -170 350 -205 410 -19 33 -39 69 -45 80 -30 60 -193 303 -274 410 -303 400 -735 793 -1182 1072 -232 146 -602 333 -754 383 -14 5 -50 18 -80 30 -230 88 -588 186 -820 224 -52 8 -126 20 -165 27 -38 6 -155 16 -260 23 -140 8 -189 15 -187 24 1 9 -18 12 -68 12 -51 0 -69 -3 -67 -12z m288 -682 c107 -8 224 -19 260 -25 35 -6 105 -18 154 -27 84 -14 130 -25 260 -58 145 -38 183 -49 213 -62 18 -8 39 -14 47 -14 8 0 29 -6 47 -14 18 -8 51 -21 73 -29 365 -137 677 -308 985 -542 52 -40 105 -81 116 -91 12 -11 46 -39 75 -64 110 -91 330 -314 434 -441 54 -64 185 -238 185 -244 0 -4 13 -24 28 -44 31 -39 131 -203 180 -291 43 -80 122 -237 122 -244 0 -4 13 -34 29 -69 32 -66 88 -210 115 -292 9 -27 20 -57 23 -65 6 -15 26 -79 42 -135 31 -108 51 -186 51 -195 0 -13 -51 -6 -125 17 -75 22 -133 39 -205 58 -36 10 -85 23 -110 30 -25 8 -72 21 -105 31 -33 9 -80 23 -104 30 -71 22 -89 19 -105 -18 -8 -18 -21 -69 -31 -113 -17 -81 -45 -194 -52 -207 -4 -8 -48 14 -108 52 -16 10 -48 28 -70 40 -22 12 -58 34 -80 49 -22 15 -47 30 -55 34 -8 4 -27 15 -42 25 -117 75 -432 262 -442 262 -8 0 -19 -15 -26 -32 -6 -18 -18 -49 -26 -68 -20 -53 -64 -181 -74 -215 -4 -16 -14 -46 -21 -65 -6 -19 -17 -51 -24 -70 -7 -19 -18 -51 -24 -70 -7 -19 -16 -48 -21 -65 -8 -29 -18 -60 -45 -135 -7 -19 -22 -64 -33 -100 -11 -36 -25 -65 -31 -65 -14 0 -64 36 -576 415 -71 53 -167 123 -212 156 -45 32 -82 64 -83 71 0 6 44 51 97 100 133 122 133 121 133 137 0 18 -197 206 -216 206 -13 0 -292 -236 -408 -346 -6 -5 -49 -43 -96 -84 -91 -80 -153 -135 -179 -160 -9 -9 -59 -54 -111 -100 -52 -47 -99 -89 -106 -95 -6 -5 -41 -37 -77 -70 -37 -32 -67 -66 -67 -75 0 -18 186 -220 202 -220 12 0 66 43 148 119 69 64 86 63 109 -9 48 -147 64 -196 112 -330 81 -229 94 -183 -133 -486 -107 -143 -199 -268 -205 -279 -17 -30 12 -65 303 -365 210 -216 244 -253 244 -271 0 -15 -22 -34 -72 -64 -136 -80 -414 -261 -423 -276 -4 -5 -2 -22 3 -37 5 -15 24 -74 42 -132 18 -58 38 -121 45 -140 7 -19 52 -154 99 -300 l87 -264 -23 -18 c-60 -47 -359 -248 -463 -312 -90 -55 -105 -70 -105 -103 0 -20 41 -108 80 -173 24 -40 270 -547 270 -557 0 -6 -6 -13 -12 -16 -27 -9 -67 25 -115 100 -91 140 -128 198 -138 215 -5 9 -30 49 -55 88 -25 39 -50 79 -55 88 -6 9 -29 45 -53 80 -23 35 -42 65 -42 67 0 2 -20 33 -45 69 -25 37 -45 74 -45 84 0 10 29 42 67 73 36 30 85 70 108 89 23 19 73 60 110 90 130 105 273 230 278 243 2 6 -2 26 -9 42 -12 31 -36 93 -60 158 -8 20 -20 54 -28 75 -22 59 -48 124 -62 159 -8 17 -14 38 -14 46 0 9 -4 18 -10 22 -5 3 -14 20 -19 38 -5 18 -19 57 -31 87 -12 30 -26 71 -32 90 -14 46 -54 83 -178 160 -57 36 -139 89 -183 118 -44 28 -81 52 -83 52 -1 0 -31 19 -66 43 -35 24 -70 46 -78 50 -8 4 -49 29 -90 56 -74 49 -195 126 -228 146 -9 6 -44 28 -77 50 -33 22 -68 44 -77 50 -21 13 -150 94 -186 117 -15 10 -37 22 -49 27 -11 5 -24 15 -28 20 -11 19 -41 -5 -76 -61 -44 -70 10 19 -563 -935 -280 -466 -518 -857 -527 -867 -18 -19 -19 -19 -76 35 -95 88 -225 226 -303 319 -99 118 -123 151 -203 269 -162 238 -259 416 -386 706 l-22 50 67 63 c37 35 117 109 178 165 61 55 142 130 180 166 110 105 116 111 231 216 60 55 116 107 125 115 74 69 279 259 340 315 92 86 74 69 216 201 65 61 148 137 184 169 36 33 70 64 76 70 35 32 370 344 459 425 28 26 84 78 125 116 42 38 125 114 184 169 60 55 114 105 120 110 87 82 255 235 259 235 4 0 100 -102 332 -355 163 -177 269 -285 282 -285 10 0 224 177 243 200 3 4 70 64 150 135 80 71 147 132 150 135 3 4 37 34 75 67 39 33 90 79 115 102 25 24 92 86 150 139 147 136 150 140 150 153 0 17 -344 357 -754 744 -93 88 -217 208 -275 266 -58 59 -119 113 -136 122 -27 14 -137 53 -220 77 -26 7 -127 44 -270 96 -22 8 -71 26 -110 39 -38 13 -95 33 -125 45 -30 12 -86 32 -125 45 -38 13 -95 33 -125 45 -47 18 -140 50 -147 50 -10 0 -359 -311 -502 -447 l-65 -62 60 -68 c32 -37 61 -70 65 -73 3 -3 30 -32 59 -65 46 -52 126 -138 325 -350 26 -27 86 -93 133 -145 48 -52 111 -119 139 -150 29 -30 53 -64 52 -75 0 -13 -57 -70 -162 -163 -89 -78 -178 -157 -197 -175 -19 -17 -80 -72 -135 -121 -55 -49 -125 -112 -155 -140 -30 -28 -125 -114 -210 -191 -85 -77 -157 -142 -160 -145 -4 -4 -188 -170 -216 -195 -6 -5 -36 -32 -65 -60 -30 -27 -92 -84 -139 -125 -47 -41 -87 -77 -90 -80 -7 -9 -690 -622 -800 -719 -52 -46 -119 -107 -149 -134 -78 -74 -83 -69 -115 128 -57 355 -57 775 0 1160 18 119 41 244 56 300 6 22 15 58 19 80 10 52 28 121 44 165 7 19 18 51 24 70 7 19 17 49 21 65 36 126 187 471 260 595 102 172 180 297 215 345 25 33 57 78 72 100 14 22 45 62 67 89 23 27 70 83 105 125 144 172 410 421 626 586 35 27 224 153 295 197 92 56 316 170 420 213 36 15 70 30 75 35 6 4 19 10 30 13 11 3 45 15 75 27 347 134 728 218 1125 245 234 17 310 17 536 1z m2022 -3043 c45 -27 91 -53 102 -60 11 -7 27 -15 35 -19 8 -4 48 -27 88 -51 41 -24 75 -43 78 -43 2 0 36 -19 76 -43 40 -24 80 -46 88 -50 8 -4 31 -17 50 -28 19 -12 55 -32 80 -46 67 -37 198 -110 285 -160 22 -12 47 -26 55 -29 33 -15 60 -49 66 -83 3 -20 12 -58 19 -86 8 -27 21 -79 30 -115 9 -36 23 -87 30 -115 7 -27 19 -73 25 -100 6 -28 14 -55 18 -61 8 -12 89 -51 230 -110 133 -55 133 -55 115 -151 -37 -205 -44 -241 -90 -418 -24 -96 -69 -235 -103 -325 -12 -30 -25 -66 -30 -80 -37 -113 -176 -396 -270 -548 -25 -40 -50 -81 -55 -90 -56 -94 -191 -274 -309 -411 -119 -139 -355 -371 -377 -371 -11 0 -27 18 -42 48 -14 26 -36 67 -50 92 -14 25 -35 63 -47 85 -12 22 -35 63 -50 90 -15 28 -44 82 -65 120 -21 39 -41 75 -45 80 -4 6 -23 39 -42 75 -20 36 -45 81 -56 100 -12 19 -32 58 -46 85 -14 28 -41 77 -60 110 -19 33 -50 90 -69 126 l-35 67 19 53 c10 30 34 99 54 154 88 247 109 317 98 333 -13 21 -41 37 -203 118 -74 37 -147 76 -162 86 -28 20 -30 27 -63 273 -22 165 -44 288 -53 296 -4 4 -137 13 -297 19 -159 7 -351 15 -425 18 l-134 7 -34 135 c-18 74 -40 162 -48 195 -9 33 -22 87 -30 120 -8 33 -21 83 -29 110 -14 51 -35 133 -62 240 -8 33 -21 85 -30 116 -15 55 -15 57 7 87 43 58 77 60 150 10 19 -13 42 -27 50 -31 8 -4 27 -15 42 -25 38 -24 811 -493 851 -516 18 -10 92 -54 165 -98 73 -44 139 -78 148 -76 19 4 35 45 59 153 10 44 24 103 31 130 18 69 38 156 59 250 16 77 29 133 55 240 7 28 16 70 21 94 9 45 24 71 41 71 5 0 46 -21 91 -47z m962 18 c44 -6 132 -18 195 -27 298 -40 296 -39 303 -91 2 -21 9 -72 15 -113 34 -230 49 -397 39 -424 -7 -19 -33 -7 -159 72 -15 9 -115 71 -223 137 -108 66 -208 128 -223 137 -15 10 -36 22 -47 27 -11 6 -31 19 -44 29 l-24 20 10 115 c6 63 14 121 18 127 4 7 19 10 34 7 14 -3 62 -10 106 -16z m325 -746 c7 -8 16 -15 20 -15 5 0 53 -26 107 -58 l98 -58 3 -54 c5 -82 -7 -180 -24 -187 -7 -2 -60 18 -118 46 -99 49 -104 53 -111 89 -9 46 -21 228 -17 242 5 15 28 12 42 -5z m-2983 -576 c6 -20 19 -53 27 -74 l16 -37 212 7 c117 4 303 13 413 20 110 7 206 10 213 8 6 -3 15 -17 18 -32 2 -14 11 -53 18 -86 8 -33 21 -96 31 -140 9 -44 23 -106 31 -137 16 -66 18 -118 5 -118 -5 0 -26 33 -47 73 -20 40 -47 86 -59 101 l-22 28 -49 -27 c-27 -14 -61 -34 -76 -43 -15 -9 -70 -44 -123 -77 -53 -33 -104 -65 -113 -70 -31 -19 -228 -145 -290 -186 -24 -16 -48 -29 -55 -29 -27 0 -443 552 -431 572 6 11 67 87 99 125 116 135 142 162 155 160 8 -1 20 -18 27 -38z m1233 -684 c14 -6 42 -20 63 -30 l37 -18 -6 -51 c-3 -28 -12 -76 -20 -107 -8 -31 -14 -67 -14 -80 0 -41 -20 -99 -34 -99 -13 0 -36 29 -64 80 -25 44 -43 133 -49 234 l-6 98 34 -7 c19 -4 45 -13 59 -20z"/> </g> </svg> 