 <svg  version="1.0" xmlns="http://www.w3.org/2000/svg"  width="300.000000pt" height="300.000000pt" viewBox="0 0 300.000000 300.000000"  preserveAspectRatio="xMidYMid meet">  <g transform="translate(0.000000,300.000000) scale(0.100000,-0.100000)" fill="#d60012" stroke="none"> <path d="M1380 2990 c-19 -5 -82 -16 -140 -25 -244 -39 -486 -148 -686 -309 -261 -210 -458 -536 -519 -856 -9 -47 -20 -101 -26 -120 -15 -50 -5 -339 14 -433 26 -127 56 -226 94 -317 45 -108 114 -230 128 -230 12 0 97 122 158 225 74 126 137 269 175 395 6 19 22 94 36 165 48 242 102 414 161 510 39 63 53 96 70 155 8 30 24 69 35 87 41 68 185 144 243 129 27 -6 50 -49 42 -76 -3 -9 -24 -25 -48 -36 -89 -38 -168 -107 -153 -132 3 -5 41 -1 88 9 152 32 227 39 413 39 213 0 368 -21 478 -65 30 -12 20 22 -20 66 -21 23 -66 55 -103 72 l-65 32 2 43 c2 38 0 43 -15 37 -164 -69 -318 -80 -451 -34 -58 20 -152 85 -176 123 -11 16 -13 30 -7 46 12 31 116 115 166 133 22 9 69 25 104 38 34 12 62 24 62 28 0 3 -30 17 -67 30 -85 31 -137 77 -159 143 -15 46 -15 51 0 66 15 15 20 12 69 -36 42 -41 68 -57 116 -73 67 -20 186 -25 256 -9 22 5 82 19 133 30 78 19 98 20 122 10 17 -7 30 -20 30 -29 0 -47 -128 -129 -226 -145 -61 -11 -155 -41 -157 -52 -1 -5 41 -12 94 -15 59 -4 110 -13 133 -24 42 -20 76 -63 76 -97 0 -27 -30 -75 -62 -100 l-23 -18 27 0 c15 0 53 -10 85 -21 83 -31 153 -104 176 -184 10 -33 29 -82 43 -110 14 -27 39 -76 55 -107 44 -85 96 -250 119 -374 63 -335 142 -528 321 -789 99 -144 96 -140 113 -126 25 21 95 145 142 251 167 381 161 842 -17 1219 -218 461 -639 771 -1153 848 -132 19 -257 24 -306 13z"/> <path d="M1461 2510 c-49 -12 -83 -28 -100 -44 l-25 -25 37 -16 c61 -25 133 -19 207 18 72 36 87 61 45 77 -37 14 -78 11 -164 -10z"/> <path d="M1365 2048 c-60 -5 -130 -15 -155 -23 -25 -7 -80 -21 -122 -30 -42 -9 -84 -22 -94 -30 -17 -12 -17 -14 -1 -39 26 -39 52 -42 206 -24 29 4 46 -21 38 -53 -14 -54 -151 -84 -250 -55 -43 13 -64 26 -97 63 l-42 48 -17 -24 c-32 -42 -69 -155 -105 -321 -76 -345 -148 -586 -275 -923 -62 -162 -65 -149 57 -253 110 -94 325 -234 361 -234 6 0 11 115 13 337 3 321 4 340 24 384 31 67 87 124 156 159 52 26 72 30 138 30 42 0 80 3 83 7 4 3 0 14 -9 24 -19 21 -11 41 47 110 22 26 39 53 39 61 0 7 -25 38 -55 68 -30 30 -55 58 -55 62 0 5 28 35 62 68 l62 59 -57 55 c-31 30 -57 62 -57 70 0 25 30 31 62 13 17 -9 38 -17 48 -17 9 0 23 -7 30 -15 25 -31 49 -27 131 20 44 26 87 44 95 41 30 -11 15 -59 -33 -108 l-47 -47 22 -23 c12 -13 39 -42 59 -66 33 -39 37 -41 53 -27 24 22 54 19 87 -9 67 -55 98 -55 91 0 -2 24 -9 30 -38 35 -42 8 -97 32 -128 56 -27 22 -40 86 -22 108 20 24 41 18 99 -25 29 -22 62 -40 72 -40 16 0 19 8 19 58 0 66 18 92 63 92 52 0 57 -23 57 -265 0 -189 -2 -225 -18 -255 -25 -50 -71 -70 -163 -70 -70 0 -77 2 -102 28 -48 50 -21 72 84 72 38 0 61 5 69 15 7 9 11 17 9 18 -2 1 -26 14 -53 27 -105 53 -118 62 -134 90 l-16 28 -29 -20 c-30 -21 -77 -89 -77 -111 0 -7 20 -33 45 -57 44 -44 60 -90 35 -105 -25 -15 7 -25 80 -25 133 0 235 -62 291 -176 24 -49 24 -51 27 -407 l3 -358 22 6 c129 38 477 274 477 323 0 9 -12 46 -26 82 -135 336 -250 706 -309 995 -15 72 -33 155 -42 185 -20 74 -73 190 -87 190 -6 0 -21 -16 -33 -35 -36 -55 -93 -79 -188 -79 -109 0 -159 23 -163 75 -4 46 6 50 83 34 69 -14 119 -6 149 24 34 34 12 53 -90 77 -49 12 -111 28 -139 37 -64 20 -180 25 -320 15z m-350 -372 c13 -10 20 -30 23 -75 3 -39 9 -61 17 -61 6 0 37 18 69 40 64 45 79 48 99 20 19 -27 10 -74 -19 -101 -24 -23 -114 -59 -147 -59 -15 0 -18 -7 -15 -37 2 -20 8 -38 14 -40 6 -2 31 12 57 32 54 41 81 44 103 10 28 -43 13 -67 -79 -118 -46 -26 -89 -47 -95 -47 -7 0 -12 -4 -12 -8 0 -21 29 -32 85 -32 109 0 132 -18 89 -70 -25 -29 -29 -30 -105 -30 -93 0 -147 22 -168 67 -9 19 -15 96 -18 239 -4 174 -2 218 11 248 12 29 20 36 44 36 15 0 37 -6 47 -14z"/> <path d="M1422 1430 c-27 -25 -28 -61 -4 -83 25 -22 34 -21 60 6 27 29 27 38 1 71 -25 31 -29 32 -57 6z"/> <path d="M1378 1130 c-23 -22 -51 -42 -62 -46 -15 -5 -16 -8 -5 -15 16 -10 252 -12 262 -2 7 6 -60 69 -97 90 -34 20 -52 15 -98 -27z"/> <path d="M1250 961 c-81 -9 -167 -56 -212 -116 l-38 -50 0 -348 0 -348 35 -15 c50 -20 78 -19 70 5 -9 30 20 43 94 45 56 1 75 6 109 29 56 37 94 96 90 138 -3 31 -5 33 -64 45 -34 7 -79 21 -100 32 -49 26 -117 97 -134 141 -13 33 -12 35 16 57 16 13 36 24 45 24 9 0 35 -22 58 -50 64 -76 165 -127 191 -95 23 28 -15 91 -75 122 -56 30 -96 68 -121 115 -31 60 -30 79 3 119 49 57 100 73 258 76 l140 4 48 -31 47 -30 0 -71 c0 -118 -38 -159 -147 -159 -72 0 -89 -9 -74 -38 6 -11 11 -41 11 -66 0 -48 2 -50 55 -46 58 4 145 71 169 129 19 48 58 65 95 42 34 -21 -28 -167 -89 -213 -32 -24 -163 -68 -201 -68 l-29 0 0 -77 c-1 -43 -6 -88 -13 -99 -16 -29 -116 -103 -147 -110 -46 -10 -54 -14 -44 -23 23 -22 221 -30 345 -13 111 15 242 43 257 54 9 8 12 92 12 360 0 324 -1 351 -19 386 -11 20 -28 47 -40 59 -34 36 -131 75 -206 84 -80 9 -313 9 -395 0z"/> <path d="M1350 762 c-19 -16 -21 -22 -11 -40 6 -12 32 -33 56 -48 43 -25 47 -25 91 -13 26 8 58 24 71 37 21 20 23 25 11 39 -36 44 -175 60 -218 25z"/> </g> </svg> 