<?xml version="1.0" encoding="UTF-8"?><svg xmlns="http://www.w3.org/2000/svg" width="1163" height="1143" style="shape-rendering:geometricPrecision;text-rendering:geometricPrecision;image-rendering:optimizeQuality;fill-rule:evenodd;clip-rule:evenodd"><path style="opacity:.987" fill="#fefffe" d="M544.5 9.5c191.795-6.49 349.628 62.844 473.5 208 70.7 90.016 111.7 192.35 123 307 11.06 155.567-32.61 293.234-131 413-89.541 103.38-202.041 167.21-337.5 191.5-145.958 22.75-280.958-5.58-405-85C155.669 973.468 79.836 874.968 40 748.5a3583.992 3583.992 0 0 1-25-103 4374.665 4374.665 0 0 0-6.5-72c1.082-9.82 2.082-19.654 3-29.5 3.897-103.691 35.397-198.191 94.5-283.5C154.226 191.936 213.726 135.436 284.5 91c80.292-47.598 166.958-74.764 260-81.5Zm-2 90c91.996-5.836 178.663 12.664 260 55.5a199.073 199.073 0 0 1 20 13c-20.672.073-41.338-.427-62-1.5a525.591 525.591 0 0 0-79 6.5c-33.242 10.368-59.742 29.868-79.5 58.5-13.943 23.916-13.943 47.916 0 72a414.356 414.356 0 0 1 34 49c11.246 24.222 15.246 49.555 12 76-3.098 16.863-10.432 31.53-22 44-25.901 26.525-55.401 48.025-88.5 64.5-22.271 9.965-44.937 11.298-68 4-11.535-5.868-19.035-15.034-22.5-27.5-9.11-39.904-6.11-78.904 9-117a844.197 844.197 0 0 1 13-30 340294.17 340294.17 0 0 1 32-60c13.03-37.315 21.53-75.648 25.5-115a380.781 380.781 0 0 0-15-84.5c.761-2.425 2.428-3.758 5-4 8.82-1.11 17.487-2.277 26-3.5Zm-56 8c3.875-.626 5.709 1.041 5.5 5 7.767 54.388-10.066 98.222-53.5 131.5a409.475 409.475 0 0 1-51 30 2348.677 2348.677 0 0 0-101 49c-14.006 9.331-26.839 20.164-38.5 32.5a1757.62 1757.62 0 0 1-80 93 1443.213 1443.213 0 0 1-59 69c11.239-88.418 43.572-168.085 97-239 73.273-89.694 166.773-146.694 280.5-171Zm266 127c9.708-.244 19.374.256 29 1.5-26.498 8.837-46.664 25.337-60.5 49.5a146.562 146.562 0 0 0-8 26 342.573 342.573 0 0 0 1 47c-21.36-23.848-25.693-50.515-13-80 9.998-23.172 27.164-37.839 51.5-44Zm283 439c-21.55 97.635-67.885 181.135-139 250.5-121.494 105.8-261.827 143.47-421 113-80.077-17.2-149.743-53.531-209-109l59-1c45.843-10.156 87.51-29.156 125-57a267.099 267.099 0 0 0 49.5-45.5c11.272-16.214 19.605-33.88 25-53 6.061-15.135 14.394-28.801 25-41 8.961-7.871 19.461-10.705 31.5-8.5 11.895 3.897 18.728 12.064 20.5 24.5 1.535 10.529-.132 20.529-5 30a501.104 501.104 0 0 1-43 67 277.18 277.18 0 0 1-42.5 36.5c-6.665 6.769-4.998 8.436 5 5 20.815-6.245 40.482-14.912 59-26 23.277-19.607 44.11-41.441 62.5-65.5 9.673-13.694 17.673-28.361 24-44a181.797 181.797 0 0 0 6-51c-5.245-22.911-19.412-36.745-42.5-41.5a582.714 582.714 0 0 0-21-4c14.21-11.775 30.21-20.442 48-26 25.367-6.345 51.034-8.011 77-5 12.16 1.751 23.494 5.751 34 12 5.984 5.133 9.484 11.633 10.5 19.5 2.927 15.026 2.594 30.026-1 45-7.122 40.367-20.789 78.367-41 114a480.631 480.631 0 0 1-58 84c-27.194 26.542-56.694 50.042-88.5 70.5a24.725 24.725 0 0 0-7 6.5c2.265 1.147 4.598 1.314 7 .5a296.143 296.143 0 0 0 63-28c36.513-22.869 70.013-49.703 100.5-80.5 31.906-38.105 58.573-79.771 80-125 14.139-34.025 19.473-69.359 16-106-3.227-23.688-11.56-45.355-25-65a799.523 799.523 0 0 1-31-44c-13.077-23.896-20.91-49.396-23.5-76.5a220.712 220.712 0 0 1 4.5-36.5 240.801 240.801 0 0 1 24-50c9.68-10.676 20.847-19.51 33.5-26.5a324.875 324.875 0 0 1 39-15 224.712 224.712 0 0 1 50 0c12.669 1.553 24.003 6.22 34 14 41.72 37.374 54.22 82.874 37.5 136.5-3.752 12.365-10.585 22.532-20.5 30.5-8.503 5.766-17.836 8.099-28 7-6.272-2.262-11.439-6.095-15.5-11.5-7.807-9.943-13.807-20.943-18-33-3.621-13.441-3.288-26.774 1-40a176.51 176.51 0 0 1 17-40 676.54 676.54 0 0 0 18.5-25c-47.376 2.468-78.21 26.468-92.5 72-9.572 46.362-.239 88.362 28 126a317.58 317.58 0 0 1 31 42 81.773 81.773 0 0 1 5 26c1.747 26.252-1.253 51.919-9 77-17.179 38.037-37.179 74.37-60 109a1332.443 1332.443 0 0 0-29.5 32c.468 1.634 1.468 2.8 3 3.5 19.413-.852 38.08-5.186 56-13 48.231-22.567 88.398-55.067 120.5-97.5a521.647 521.647 0 0 0 40.5-63Zm-771-254a156.385 156.385 0 0 1 41 3.5c10.43 2.969 18.93 8.802 25.5 17.5 4.538 9.359 4.538 18.692 0 28a96.596 96.596 0 0 1-17.5 25.5 357.58 357.58 0 0 0-41.5 36.5c-8.984 10.297-15.651 21.964-20 35-7.571 24.522-9.904 49.522-7 75 12.848 38.177 36.681 67.344 71.5 87.5a156.333 156.333 0 0 0 39 12 249.677 249.677 0 0 1 64 14c17.215 6.535 26.881 18.868 29 37a27.503 27.503 0 0 1-2.5 11.5c-9.369 19.71-22.202 36.876-38.5 51.5-25.584 23.633-55.25 40.3-89 50a147.6 147.6 0 0 1-28 5 270.772 270.772 0 0 1-45-1C178.497 839.528 133.663 758.362 111 664.5a404.987 404.987 0 0 1-7.5-79.5 2244.374 2244.374 0 0 0 1.5-36.5 31.941 31.941 0 0 1 4-12A2209.704 2209.704 0 0 1 209.5 443c16.89-11.455 35.224-19.289 55-23.5Zm108 154c-11.488 18.238-14.654 37.904-9.5 59 11.436 28.387 32.602 41.887 63.5 40.5 9.765-1.108 19.098-3.441 28-7-26.07 27.291-55.07 30.958-87 11-18.39-17.164-26.557-38.331-24.5-63.5 4.722-17.206 14.555-30.539 29.5-40Z"/><path style="opacity:.973" fill="#fefffe" d="M538.5 388.5c36.295-.205 53.129 17.795 50.5 54-8.166 24.844-25.333 35.678-51.5 32.5-26.182-7.86-37.349-25.36-33.5-52.5 4.782-18.283 16.282-29.617 34.5-34Z"/><path style="opacity:.929" fill="#fefffe" d="M951.5 406.5c1.322-.17 2.489.163 3.5 1a126.917 126.917 0 0 1 10.5 33c.101 6.873-2.232 12.707-7 17.5-9.782 4.404-16.616 1.57-20.5-8.5-2.254-16.406 2.246-30.739 13.5-43Z"/><path style="opacity:.878" fill="#fefffe" d="M697.5 698.5c3.285-.231 5.785 1.103 7.5 4 10.349 12.042 14.849 26.042 13.5 42 .705 19.578-5.128 36.911-17.5 52-8.83 10.174-18.83 18.841-30 26-1.543-1.077-1.543-2.411 0-4a576.333 576.333 0 0 0 25-32c13.19-26.66 13.856-53.66 2-81a24.935 24.935 0 0 1-.5-7Z"/><path style="opacity:.873" fill="#fefffe" d="M793.5 897.5a12.93 12.93 0 0 1 5 .5 6.293 6.293 0 0 1 1 3c-.913 3.992-2.746 7.492-5.5 10.5-23.631 26.912-52.131 47.078-85.5 60.5-10.869 5.345-22.203 9.178-34 11.5 1.045-2.885 3.045-5.052 6-6.5a615.791 615.791 0 0 0 70-42 2373.445 2373.445 0 0 0 43-37.5ZM407.5 936.5a98.432 98.432 0 0 1 14 .5c.979 1.779.646 3.445-1 5-14.193 10.121-29.527 12.121-46 6l-3-3c1.99-1.751 4.323-2.751 7-3 9.963-.991 19.629-2.824 29-5.5Z"/><path style="opacity:.883" fill="#fefffe" d="M528.5 953.5c5.942-.593 7.442 1.741 4.5 7-18.552 17.102-40.385 23.268-65.5 18.5-5.424.038-10.424-1.296-15-4 14.579-2.661 29.246-5.327 44-8a227.92 227.92 0 0 0 32-13.5Z"/></svg>