<?xml version="1.0" encoding="UTF-8" standalone="no"?>
<!DOCTYPE svg PUBLIC "-//W3C//DTD SVG 20010904//EN" "http://www.w3.org/TR/2001/REC-SVG-20010904/DTD/svg10.dtd">
<svg version="1.0" xmlns="http://www.w3.org/2000/svg" width="900.000000pt" height="600.000000pt" viewBox="0 0 900.000000 600.000000" preserveAspectRatio="xMidYMid meet">
<metadata>
Created by potrace 1.10, written by Peter Selinger 2001-2011
</metadata>
<g transform="translate(0.000000,600.000000) scale(0.100000,-0.100000)" fill="#000000" stroke="none">
<path d="M6396 5758 c-2 -7 -7 -25 -10 -40 l-6 -26 -162 -1 c-102 0 -175 4 -196 11 -25 10 -37 10 -52 0 -26 -16 -149 -15 -181 2 -19 10 -38 11 -80 3 -30 -5 -83 -8 -119 -6 -110 5 -254 -2 -264 -12 -4 -4 -20 -4 -36 0 -26 5 -150 0 -285 -12 -22 -2 -85 -7 -140 -11 -55 -4 -138 -14 -185 -21 -47 -8 -115 -17 -152 -20 -51 -5 -75 -13 -102 -33 -19 -15 -35 -32 -36 -38 0 -11 66 -24 126 -24 28 0 35 -4 40 -27 5 -20 2 -30 -14 -43 -18 -15 -20 -28 -21 -152 -1 -141 9 -198 51 -286 25 -53 101 -132 148 -154 75 -35 116 -46 132 -37 17 9 108 142 108 156 0 5 -23 17 -51 28 -28 11 -55 26 -61 33 -6 6 -16 12 -23 12 -6 0 -37 18 -68 40 -72 52 -117 117 -119 173 0 23 -5 47 -10 54 -5 7 -6 18 -1 25 4 7 13 28 20 47 10 30 9 38 -8 59 -37 47 -17 66 55 54 48 -9 67 -33 44 -59 -16 -19 -14 -78 3 -89 5 -3 9 -15 9 -28 0 -27 38 -66 66 -66 10 -1 30 -7 44 -15 14 -8 37 -14 52 -15 29 0 63 -13 168 -64 87 -42 116 -73 134 -148 4 -17 13 -28 23 -28 9 0 58 20 110 45 51 25 99 45 106 45 7 0 24 11 36 24 l22 24 -43 34 c-58 46 -135 81 -238 107 -103 27 -225 51 -255 51 -17 0 -52 7 -78 16 l-47 16 0 54 c0 44 -4 55 -21 65 -46 24 -2 30 142 19 79 -6 207 -15 284 -20 77 -5 190 -13 250 -18 61 -6 124 -8 140 -5 17 2 50 -1 75 -8 25 -7 92 -13 150 -15 233 -4 470 -20 481 -31 20 -20 29 -234 11 -256 -6 -7 -13 -54 -17 -106 -7 -91 -8 -95 -46 -135 -34 -36 -39 -47 -39 -89 0 -28 8 -64 20 -88 12 -22 18 -44 15 -49 -3 -6 -26 -10 -49 -10 -42 0 -137 -41 -177 -76 -8 -8 -23 -14 -32 -14 -21 0 -65 -58 -73 -96 -3 -16 -1 -39 3 -52 l9 -23 37 26 c21 14 41 25 46 25 16 0 93 -74 117 -112 36 -57 29 -78 -36 -109 -30 -15 -62 -35 -71 -45 -22 -26 -49 -104 -49 -140 0 -17 -11 -46 -25 -65 -14 -19 -37 -52 -52 -74 -87 -127 -181 -205 -247 -205 -25 0 -45 -9 -69 -30 -28 -24 -44 -30 -81 -30 -35 0 -56 -7 -88 -30 -22 -17 -48 -30 -57 -30 -9 0 -35 -9 -58 -20 -32 -14 -43 -25 -43 -42 0 -13 -7 -32 -15 -42 -22 -29 -19 -102 5 -126 11 -11 29 -20 40 -20 23 0 70 -20 70 -31 0 -4 -25 -19 -56 -34 -53 -25 -57 -26 -102 -11 -74 23 -134 28 -162 13 -14 -7 -46 -19 -72 -26 -41 -12 -51 -20 -73 -59 -31 -56 -40 -112 -26 -171 10 -44 9 -45 -42 -110 -28 -36 -54 -68 -57 -71 -9 -9 -50 -69 -50 -74 0 -3 -12 -22 -26 -43 -35 -52 -84 -158 -84 -183 0 -11 -9 -29 -20 -40 -11 -11 -20 -31 -20 -44 0 -33 -16 -36 -80 -13 -147 51 -247 111 -533 317 -86 62 -92 77 -61 161 12 34 18 106 24 309 10 342 21 380 113 382 33 0 47 5 47 15 0 7 -8 16 -17 19 -10 3 -27 10 -38 14 -39 17 -84 21 -105 10 -12 -6 -24 -9 -26 -7 -14 13 93 490 125 562 5 11 17 40 27 65 20 49 43 75 119 132 39 30 58 38 93 38 42 0 111 -28 141 -57 39 -40 66 -134 45 -156 -4 -3 -22 9 -40 28 -28 29 -41 35 -77 35 -89 0 -139 -83 -107 -177 36 -102 233 -112 282 -14 9 19 22 39 27 44 6 6 11 50 11 97 0 66 -5 95 -20 125 -26 50 -83 109 -140 143 -40 24 -55 27 -135 27 -127 0 -182 -22 -265 -105 -56 -56 -130 -150 -130 -166 0 -3 -13 -32 -30 -66 -16 -33 -30 -67 -30 -75 0 -8 -6 -27 -14 -41 -13 -27 -29 -81 -45 -155 -5 -21 -16 -45 -24 -55 -10 -11 -14 -27 -10 -40 9 -36 -61 -398 -98 -507 -6 -16 -15 -43 -19 -60 -13 -46 -59 -176 -75 -210 -8 -16 -25 -55 -39 -86 -14 -31 -31 -60 -38 -66 -13 -10 -212 -27 -313 -27 -27 0 -72 5 -100 11 -38 9 -66 8 -120 -2 -100 -19 -120 -27 -265 -114 -20 -12 -84 -35 -140 -51 -25 -7 -98 -15 -162 -17 -95 -3 -122 -1 -140 11 -12 9 -29 16 -36 16 -24 0 -132 90 -132 110 0 6 25 10 57 10 80 0 158 27 193 67 57 65 50 175 -15 232 -52 45 -135 41 -135 -6 0 -7 10 -13 23 -13 33 0 56 -20 63 -56 11 -57 -62 -95 -145 -76 -90 20 -156 218 -120 357 6 22 14 56 19 75 30 123 67 164 89 97 20 -59 101 -97 172 -82 35 8 39 35 5 35 -15 0 -35 13 -54 34 -61 70 -54 211 21 419 10 27 11 53 6 90 -10 58 3 76 36 51 11 -8 27 -17 35 -20 8 -3 27 -12 42 -20 36 -19 67 -18 122 7 53 23 52 39 -3 39 -26 0 -44 7 -59 23 -20 21 -22 34 -22 128 0 68 -4 109 -12 117 -16 16 -4 24 67 46 60 18 106 36 158 62 39 19 131 18 147 -1 16 -19 64 -19 79 -1 7 8 11 34 9 58 -2 34 -7 44 -23 47 -11 2 -32 12 -48 23 l-27 20 31 39 c84 106 11 221 -78 122 -18 -21 -33 -42 -33 -48 0 -14 -68 -85 -115 -121 -55 -42 -101 -61 -165 -68 -66 -8 -109 11 -180 79 -51 48 -71 60 -138 81 -76 23 -171 13 -242 -25 -44 -24 -90 -74 -90 -98 0 -29 -49 -53 -107 -53 -55 0 -193 44 -193 62 0 11 -61 38 -85 38 -38 0 -91 -27 -103 -54 -16 -36 -14 -169 5 -214 25 -59 54 -69 75 -24 11 23 20 27 60 30 28 2 59 -3 77 -12 16 -9 39 -16 51 -16 28 0 25 -25 -7 -55 -23 -21 -37 -25 -88 -25 -36 0 -69 -6 -80 -14 -18 -13 -15 -16 38 -50 43 -28 57 -42 57 -61 0 -32 15 -40 42 -21 29 20 80 20 160 0 77 -19 98 -38 105 -95 3 -24 12 -52 21 -61 11 -13 13 -30 7 -75 -8 -65 -27 -102 -80 -153 -20 -19 -41 -44 -46 -55 -5 -11 -13 -27 -18 -35 -29 -51 -41 -81 -41 -102 0 -39 -15 -52 -28 -24 -6 14 -20 30 -31 35 -17 9 -25 5 -54 -32 -19 -23 -37 -50 -40 -59 -4 -10 -13 -18 -20 -18 -12 0 -13 18 -9 97 4 80 2 102 -13 129 -24 45 -50 52 -81 23 -22 -20 -24 -31 -24 -105 0 -125 -30 -205 -118 -316 -109 -137 -193 -198 -321 -235 -67 -19 -117 -56 -143 -108 -30 -58 -48 -110 -50 -149 -1 -21 -8 -40 -14 -43 -18 -7 -72 24 -88 50 -126 202 -149 226 -243 241 -36 6 -44 4 -70 -21 -30 -29 -74 -84 -105 -131 -19 -28 -26 -146 -10 -156 5 -3 21 2 36 9 16 8 38 12 50 9 16 -4 30 2 47 20 30 32 43 32 94 1 22 -14 54 -31 71 -39 35 -16 43 -26 61 -76 14 -40 17 -70 6 -70 -12 0 -43 -59 -43 -82 0 -18 4 -20 42 -15 62 8 92 46 83 104 -3 23 -3 47 0 53 9 14 135 -79 135 -99 0 -16 -82 -96 -120 -118 -19 -11 -47 -23 -61 -27 -15 -3 -40 -18 -56 -33 -26 -24 -31 -38 -37 -100 -5 -56 -4 -79 8 -101 25 -49 111 -66 197 -40 45 13 50 25 14 34 -30 7 -33 41 -8 82 21 34 124 131 139 132 6 0 17 7 24 15 14 17 56 20 65 5 8 -12 -18 -72 -38 -89 -9 -7 -31 -14 -49 -15 -42 -2 -45 -18 -8 -49 58 -49 142 -57 212 -21 32 17 34 22 12 52 -14 21 -14 25 0 47 9 14 25 25 36 25 26 0 70 -67 70 -107 0 -37 18 -54 32 -29 11 20 31 20 70 0 34 -18 59 -6 33 16 -26 21 -19 73 16 108 56 57 93 52 102 -16 3 -20 10 -72 16 -114 5 -43 15 -86 20 -97 6 -11 11 -35 11 -54 0 -19 7 -48 15 -63 20 -38 22 -341 2 -367 -16 -22 -128 -107 -140 -107 -33 0 -288 148 -335 195 -32 32 -37 79 -17 158 l17 68 -44 39 c-42 38 -80 50 -93 30 -11 -18 -47 -11 -70 14 -21 22 -29 24 -81 20 -33 -3 -72 -10 -87 -16 -37 -14 -67 -54 -67 -89 0 -15 -7 -32 -16 -37 -9 -5 -14 -18 -12 -33 3 -26 20 -30 113 -29 49 1 50 0 73 -43 13 -25 48 -66 79 -92 32 -28 64 -66 75 -91 17 -41 18 -45 1 -86 -9 -24 -23 -53 -31 -65 -20 -32 -8 -43 47 -43 65 0 89 26 93 100 3 52 4 55 28 52 14 -1 59 -20 100 -42 41 -22 87 -45 102 -51 41 -16 36 -45 -10 -64 -20 -9 -48 -24 -62 -33 -35 -24 -90 -42 -126 -42 -40 0 -55 -19 -62 -75 -2 -25 -11 -50 -18 -56 -8 -6 -14 -29 -14 -50 0 -47 28 -79 69 -79 17 0 42 -11 59 -25 25 -21 41 -25 89 -25 68 0 82 8 54 30 -22 17 -24 26 -22 87 1 34 8 51 37 83 43 47 74 53 74 14 0 -15 -8 -32 -17 -39 -15 -11 -15 -15 -4 -29 21 -25 81 -15 103 18 12 18 8 79 -7 106 -8 14 -14 40 -15 58 0 29 3 32 30 32 16 0 46 -11 66 -25 20 -14 44 -25 52 -25 9 0 27 -11 41 -24 15 -13 36 -27 47 -30 19 -6 21 -3 20 31 -1 37 0 38 32 36 33 -1 34 -1 27 33 -5 32 -2 39 49 89 65 66 92 70 131 23 15 -18 61 -69 102 -113 98 -104 145 -156 161 -176 30 -39 -35 -121 -226 -284 -134 -114 -129 -113 -215 -80 -52 20 -100 30 -172 35 -55 4 -107 10 -116 14 -12 5 -33 -6 -70 -39 -30 -25 -66 -56 -81 -69 -24 -20 -28 -32 -28 -73 0 -40 6 -59 31 -92 32 -44 50 -49 59 -14 7 29 87 93 115 93 32 0 40 -16 15 -30 -11 -6 -20 -18 -20 -28 0 -9 -11 -30 -24 -46 -23 -30 -23 -30 -4 -62 10 -18 26 -35 35 -38 16 -7 43 10 43 26 0 5 16 24 35 43 71 71 234 104 299 60 22 -14 44 -19 90 -18 43 2 65 -2 78 -14 16 -14 18 -14 28 9 15 32 0 70 -36 88 -47 24 -84 53 -84 66 0 6 43 49 96 95 54 46 120 105 149 132 29 26 57 47 64 47 14 0 73 37 125 79 22 17 51 31 65 31 15 0 36 7 47 15 19 15 19 15 -5 35 -13 11 -29 20 -37 20 -19 0 -18 26 1 34 24 9 17 40 -13 57 -17 9 -40 41 -60 82 -34 69 -67 166 -59 174 3 2 31 0 63 -6 70 -13 270 -13 339 -1 96 18 152 23 158 13 7 -11 -96 -53 -126 -53 -45 0 -74 -145 -42 -206 8 -16 15 -37 15 -46 0 -10 10 -24 23 -32 18 -12 31 -13 67 -4 25 6 50 15 57 20 14 11 33 2 33 -15 0 -21 56 -76 85 -83 37 -9 52 8 35 40 -7 14 -10 35 -7 47 4 15 0 30 -10 41 -24 27 -24 130 1 157 24 26 116 30 136 6 9 -11 27 -15 54 -13 l41 3 -1 44 c-1 53 -18 68 -87 77 -27 4 -51 12 -53 19 -6 13 55 114 87 146 28 28 71 26 372 -13 48 -6 87 -15 87 -20 0 -13 -53 -119 -82 -163 -46 -72 -108 -113 -198 -134 -44 -11 -66 -24 -107 -64 l-53 -51 0 -81 c0 -72 3 -84 23 -103 15 -15 27 -18 37 -12 10 6 21 3 37 -12 25 -24 53 -18 53 11 0 38 17 30 49 -20 24 -40 36 -50 54 -47 15 2 21 9 20 23 -1 10 5 31 13 47 8 15 14 50 14 77 0 96 65 183 98 132 19 -28 48 -27 67 3 19 29 12 68 -21 113 -31 41 -30 52 4 99 16 22 31 45 33 51 2 7 26 39 53 71 l50 60 41 -18 c30 -13 46 -15 59 -8 14 8 86 4 86 -5 -1 -8 -32 -102 -50 -147 -12 -30 -25 -66 -30 -80 -5 -14 -18 -50 -30 -80 -12 -30 -25 -67 -30 -81 -16 -52 -94 -215 -114 -237 -13 -15 -31 -22 -54 -22 -43 0 -125 -23 -216 -61 -38 -16 -75 -29 -82 -29 -8 0 -34 -27 -59 -61 -40 -55 -45 -67 -45 -115 0 -63 14 -70 54 -28 30 33 56 26 56 -15 0 -16 5 -42 11 -58 10 -26 12 -27 23 -9 25 44 136 123 150 108 3 -3 6 -31 6 -61 0 -46 4 -59 21 -69 23 -15 27 -13 43 19 6 12 26 29 44 38 22 11 35 25 39 44 3 15 10 30 14 33 5 3 9 14 9 26 0 28 75 102 95 94 9 -3 32 1 52 9 19 8 48 15 64 15 24 0 29 4 29 24 0 14 -13 38 -31 55 -28 29 -41 35 -94 44 -33 5 -23 37 77 247 17 36 38 81 46 100 8 19 19 42 24 50 4 8 11 22 14 30 3 8 12 29 19 45 7 17 20 47 29 68 9 20 22 52 30 70 8 17 19 46 26 64 6 17 20 39 31 49 10 9 19 21 19 27 0 5 16 27 35 48 19 22 35 43 35 48 0 19 -21 23 -38 8 -17 -15 -35 -21 -59 -18 -18 1 -16 32 3 59 14 20 14 23 -2 29 -9 3 -24 1 -33 -5 -9 -7 -26 -16 -38 -21 -11 -6 -24 -15 -28 -20 -7 -12 -103 -15 -129 -5 -9 3 -16 17 -16 31 0 24 67 165 82 171 4 2 8 18 8 35 0 17 9 40 20 52 l20 21 -31 23 c-23 17 -34 20 -42 12 -6 -6 -33 -11 -60 -11 -44 0 -53 4 -83 37 -36 40 -43 73 -19 93 23 19 66 6 211 -65 72 -35 152 -69 177 -75 54 -12 84 -24 157 -66 74 -42 97 -47 223 -48 92 -1 111 -4 122 -19 7 -9 16 -59 20 -110 4 -50 13 -110 20 -132 7 -22 16 -67 20 -100 10 -95 24 -144 73 -255 35 -81 133 -245 172 -290 12 -14 33 -39 47 -56 13 -18 45 -41 71 -52 26 -11 63 -37 82 -57 19 -20 54 -48 77 -61 22 -14 44 -31 47 -39 3 -8 14 -15 24 -15 11 0 24 -13 33 -32 9 -22 24 -36 44 -42 17 -4 41 -14 56 -22 14 -7 49 -15 78 -18 61 -5 69 -10 52 -30 -11 -13 -8 -16 13 -22 14 -3 30 -12 37 -20 6 -8 21 -14 33 -14 13 0 42 -6 67 -14 24 -8 89 -22 144 -31 81 -14 106 -23 130 -45 50 -45 190 -146 240 -171 25 -13 61 -32 78 -41 18 -9 45 -17 60 -18 15 0 40 -6 55 -14 15 -7 54 -17 87 -21 63 -7 87 -16 120 -45 28 -24 191 -50 315 -50 126 0 306 30 425 71 17 6 44 14 61 18 47 12 220 99 297 149 58 38 68 49 73 81 4 26 15 43 37 59 60 42 107 88 107 105 0 10 11 22 24 27 13 5 30 17 37 28 8 10 35 43 62 72 37 41 50 50 61 41 10 -9 21 1 50 48 20 32 36 62 36 67 0 4 6 15 13 23 12 15 61 126 92 211 14 40 39 144 57 240 26 143 9 461 -31 595 -6 16 -15 50 -21 75 -7 25 -18 62 -26 84 -7 21 -11 43 -8 48 3 5 -4 20 -16 33 -21 23 -39 50 -57 85 -4 8 -25 42 -48 75 -23 34 -44 67 -48 75 -16 35 -140 171 -220 242 -156 138 -320 231 -517 294 -103 33 -117 35 -145 24 -16 -7 -52 -15 -78 -18 -43 -4 -53 0 -87 27 -37 29 -43 31 -128 31 -82 0 -90 2 -112 25 -13 14 -52 39 -87 55 -48 23 -63 35 -63 51 0 25 99 158 148 199 20 17 47 30 59 30 30 0 98 -27 148 -59 92 -59 100 -61 203 -61 113 0 136 9 243 96 36 30 70 54 74 54 4 0 38 27 76 61 l69 61 0 58 c0 39 -5 62 -15 70 -8 7 -15 18 -15 26 0 21 -154 137 -267 200 -84 46 -248 198 -239 220 3 7 10 77 16 156 13 174 36 335 57 405 9 29 34 73 55 99 31 37 36 49 28 65 -6 10 -17 19 -25 19 -13 0 -70 -69 -127 -155 -15 -22 -62 -88 -105 -146 -43 -59 -83 -115 -89 -125 -11 -19 -12 -19 -33 0 -11 11 -21 24 -21 30 0 6 -12 35 -27 65 -29 56 -131 150 -165 151 -9 0 -36 16 -60 36 -23 21 -64 50 -90 66 -31 19 -48 37 -48 49 0 11 -5 28 -12 38 -9 15 -8 32 5 78 25 90 39 211 27 234 -8 14 -7 31 4 62 l14 42 94 -4 c51 -2 102 -8 112 -13 10 -6 80 -12 155 -14 146 -5 285 -14 561 -39 96 -8 225 -18 285 -21 61 -4 119 -11 129 -16 11 -6 58 -12 105 -14 47 -3 92 -6 99 -9 21 -8 13 -45 -12 -56 -23 -11 -24 -15 -19 -78 6 -77 12 -87 56 -95 18 -3 42 -16 54 -29 66 -69 103 -106 143 -138 71 -56 100 -106 104 -174 3 -56 18 -81 40 -67 13 7 96 23 146 26 83 7 122 35 101 74 -14 26 4 41 43 36 17 -3 60 4 96 14 l65 19 3 103 3 102 -28 -5 c-126 -27 -155 -29 -179 -18 -14 6 -43 11 -65 11 -23 0 -57 8 -76 17 -45 21 -118 113 -133 167 -6 23 -13 46 -16 53 -4 8 9 13 37 15 23 2 44 8 46 14 10 29 -63 77 -152 101 -11 3 -63 18 -115 33 -52 15 -122 35 -155 43 -33 8 -80 20 -105 27 -25 6 -70 15 -100 19 -30 4 -71 12 -90 19 -53 17 -166 42 -192 42 -32 0 -192 29 -253 45 -27 8 -91 14 -142 15 -57 0 -104 5 -125 14 -33 14 -122 28 -293 46 -49 5 -115 13 -145 17 l-55 8 -5 40 c-5 37 -8 40 -38 43 -20 2 -34 -2 -36 -10z m1774 -505 c35 -24 40 -33 38 -79 -2 -28 5 -50 21 -73 34 -48 70 -121 61 -126 -4 -2 -55 19 -113 48 -86 42 -106 56 -107 74 0 12 5 25 10 28 16 10 12 75 -5 81 -15 6 -21 45 -8 57 13 13 79 7 103 -10z m-1691 -433 c36 -34 37 -53 0 -58 -13 -2 -31 -13 -40 -24 -22 -28 -39 -15 -39 30 0 88 23 103 79 52z m81 -109 c0 -23 -16 -36 -25 -21 -9 14 1 40 15 40 5 0 10 -9 10 -19z m477 -43 c-2 -29 -10 -84 -16 -123 -5 -38 -15 -117 -20 -173 -5 -57 -12 -107 -16 -110 -14 -14 -59 28 -77 74 -11 27 -26 62 -34 77 -21 43 -17 75 15 116 45 58 121 171 121 182 0 5 7 9 16 9 14 0 16 -9 11 -52z m-509 -30 c-2 -13 -7 -23 -13 -23 -5 0 -11 10 -13 23 -2 15 2 22 13 22 11 0 15 -7 13 -22z m100 -37 c9 -5 25 -12 35 -15 11 -4 17 -16 17 -35 0 -25 -5 -32 -26 -37 -15 -4 -43 -3 -63 2 -40 10 -43 28 -13 70 19 26 25 28 50 15z m-7 -141 c43 0 68 5 80 16 25 23 39 9 39 -40 0 -34 -6 -48 -30 -71 -27 -25 -34 -27 -81 -22 -28 4 -61 14 -71 24 -28 25 -61 92 -54 110 6 13 9 13 31 -1 16 -10 46 -16 86 -16z m-80 -782 c10 -13 18 -28 19 -34 0 -6 25 -36 56 -68 30 -31 54 -60 52 -65 -8 -22 -129 -141 -138 -136 -6 3 -10 17 -10 30 0 13 -4 27 -10 30 -13 8 -13 61 0 84 6 12 5 41 -2 84 -10 61 -7 97 8 97 3 0 14 -10 25 -22z m-2531 -44 c0 -10 -7 -14 -22 -12 -32 5 -35 28 -4 28 17 0 26 -5 26 -16z m-2445 -186 c-4 -13 -16 -38 -26 -56 -10 -18 -19 -38 -19 -44 0 -6 -12 -41 -27 -77 -18 -42 -29 -92 -33 -139 l-5 -74 -127 -2 c-95 -1 -128 1 -128 10 0 7 4 14 8 16 9 4 95 116 106 138 19 41 37 62 111 126 44 38 82 73 84 78 6 15 41 46 52 46 6 0 8 -9 4 -22z m3865 -300 c0 -15 -32 -21 -40 -7 -13 20 9 43 26 28 8 -6 14 -16 14 -21z m-290 13 c0 -6 -5 -13 -10 -16 -15 -9 -43 3 -35 15 8 13 45 13 45 1z m159 -124 c43 -89 42 -118 -16 -302 -8 -27 -21 -57 -28 -65 -7 -8 -15 -27 -18 -41 -4 -14 -27 -48 -53 -74 l-45 -48 -46 24 c-24 13 -52 29 -61 34 -10 6 -54 31 -100 58 -86 50 -98 68 -67 105 8 9 43 50 77 91 l63 74 61 3 c40 2 73 10 98 25 39 23 78 86 76 122 -7 79 19 76 59 -6z m-99 0 c0 -16 -47 -43 -57 -34 -8 9 27 47 44 47 7 0 13 -6 13 -13z m1925 -29 c33 -16 79 -41 103 -54 23 -14 62 -26 86 -28 30 -1 56 -11 80 -30 39 -30 46 -59 20 -87 -9 -10 -17 -32 -18 -48 -1 -19 -10 -37 -23 -46 -22 -15 -44 -55 -59 -105 -4 -13 -19 -36 -33 -50 -14 -14 -31 -34 -37 -45 -10 -18 -13 -15 -33 30 -13 28 -27 57 -31 65 -5 8 -19 35 -32 60 -40 80 -135 213 -209 294 -38 40 -38 41 -16 51 12 5 25 15 30 22 12 20 105 4 172 -29z m-389 -9 c37 -22 37 -25 34 -130 -1 -46 3 -70 13 -80 23 -23 38 -57 28 -63 -5 -3 -14 -28 -21 -56 -12 -51 -35 -67 -46 -32 -12 36 -37 98 -50 124 -8 14 -14 35 -14 46 0 12 -4 23 -9 26 -13 9 -54 144 -48 160 5 13 26 21 66 25 7 0 29 -8 47 -20z m-1256 -79 c0 -10 -5 -22 -10 -25 -13 -8 -24 20 -16 41 8 20 26 9 26 -16z m1436 -107 c21 -32 50 -74 66 -93 34 -42 34 -48 6 -60 -13 -6 -43 -22 -67 -35 -24 -14 -48 -25 -53 -25 -9 0 -11 254 -1 263 9 10 8 12 49 -50z m94 12 c0 -8 -7 -15 -15 -15 -8 0 -15 7 -15 15 0 8 7 15 15 15 8 0 15 -7 15 -15z m590 -67 c39 -29 70 -56 70 -60 0 -5 13 -8 29 -8 23 0 38 -12 75 -56 25 -31 46 -65 46 -75 0 -11 4 -19 8 -19 9 0 70 -82 91 -122 11 -23 11 -31 1 -43 -7 -8 -16 -15 -20 -15 -7 0 -139 -73 -180 -100 -8 -6 -24 -14 -36 -19 -12 -5 -37 -28 -56 -50 -19 -23 -42 -41 -51 -41 -9 0 -19 -5 -22 -11 -4 -5 -17 -9 -28 -7 -12 1 -50 -14 -85 -35 -35 -20 -66 -37 -69 -37 -4 0 -15 -8 -25 -17 -28 -25 -36 -8 -40 82 -2 44 -12 123 -22 175 -14 75 -16 100 -7 120 17 37 37 70 50 83 6 6 11 22 11 35 0 25 57 122 72 122 5 0 13 10 18 23 6 12 19 36 30 52 11 17 24 40 30 53 14 33 33 28 110 -30z m-2121 -27 c24 -33 19 -41 -26 -41 -26 0 -33 4 -33 19 0 56 28 66 59 22z m56 -122 c21 -10 65 -83 65 -107 0 -7 -12 -31 -27 -55 -15 -23 -38 -63 -51 -89 -12 -27 -29 -48 -37 -48 -18 0 -166 87 -182 107 -9 12 -5 25 21 66 18 29 43 74 55 100 l23 48 57 -6 c31 -4 65 -11 76 -16z m363 -157 c1 -107 -1 -172 -7 -172 -42 0 -124 61 -151 111 -21 41 -19 59 5 59 8 0 30 9 49 21 27 16 38 31 46 62 38 150 54 127 58 -81z m-1030 137 c31 -17 71 -39 87 -49 17 -11 44 -26 60 -33 17 -8 36 -21 43 -29 11 -14 8 -19 -20 -36 -18 -11 -63 -27 -99 -36 -68 -17 -214 -22 -223 -8 -5 8 7 46 33 107 31 71 53 115 57 115 3 0 31 -14 62 -31z m2186 15 c9 -8 16 -20 16 -25 0 -5 12 -33 26 -62 33 -68 54 -127 53 -152 0 -11 -9 -33 -20 -50 -10 -16 -23 -40 -28 -52 -5 -11 -15 -24 -20 -28 -6 -3 -11 -12 -11 -20 0 -8 -13 -34 -30 -58 -16 -25 -30 -48 -30 -51 0 -17 -46 -66 -62 -66 -27 0 -22 22 22 86 22 33 40 64 40 70 0 6 6 24 14 40 22 46 26 132 7 154 -24 29 -144 39 -171 15 -19 -17 -20 -17 -30 10 -11 29 -5 65 11 65 5 0 14 11 18 24 5 13 28 33 50 44 22 12 58 33 78 46 46 30 47 30 67 10z m-1737 -260 c18 -3 39 -16 47 -29 8 -12 30 -29 49 -38 42 -20 49 -42 30 -93 -8 -21 -18 -56 -22 -76 -14 -65 -22 -69 -135 -66 l-101 3 -3 42 c-3 36 -12 51 -58 99 -55 57 -67 84 -38 84 13 0 93 53 119 80 10 10 47 8 112 -6z m366 -43 c29 -11 97 -79 97 -96 0 -7 6 -18 14 -24 21 -18 27 -51 9 -58 -8 -3 -18 -2 -22 3 -8 12 -130 84 -142 84 -15 0 -21 44 -10 73 11 30 18 32 54 18z m2326 -43 c44 -101 49 -113 55 -130 3 -11 11 -15 21 -12 9 4 26 -4 41 -19 20 -20 27 -39 31 -87 3 -33 10 -63 14 -66 14 -9 10 -71 -5 -83 -8 -7 -18 -37 -22 -67 -3 -30 -10 -56 -14 -59 -16 -10 -833 -6 -842 3 -6 6 -6 18 1 31 7 12 14 51 18 89 5 56 10 71 32 89 14 12 31 22 37 23 7 0 18 10 27 23 33 49 58 67 92 67 23 0 50 10 77 30 22 17 47 30 55 30 7 0 13 4 13 10 0 5 12 13 28 16 15 4 39 16 53 28 31 25 76 51 142 82 26 13 47 27 47 33 0 5 12 12 28 14 15 2 32 5 37 6 6 0 21 -23 34 -51z m-824 -91 c4 -18 5 -53 3 -77 l-3 -45 -49 -3 c-68 -4 -75 7 -37 67 17 28 31 56 31 61 0 9 28 29 42 30 4 0 10 -15 13 -33z m-1561 -12 c20 -8 36 -17 36 -19 0 -3 3 -12 6 -21 6 -14 0 -16 -42 -13 -50 3 -64 18 -50 54 7 17 6 17 50 -1z m-629 -38 c30 -17 40 -29 40 -47 l0 -25 -188 -3 -188 -2 3 22 c3 21 10 24 73 30 39 4 93 16 120 27 66 25 92 25 140 -2z m-1346 -48 c36 -13 36 -17 8 -94 -22 -58 -45 -57 -112 6 -31 29 -54 60 -53 68 2 10 18 18 43 22 65 10 80 10 114 -2z m1538 -85 c212 -5 214 -6 193 -70 -6 -18 -14 -70 -18 -116 -6 -71 -10 -84 -28 -93 -12 -6 -28 -16 -35 -22 -13 -9 -35 -22 -164 -93 -22 -12 -67 -37 -100 -56 -33 -19 -83 -46 -111 -60 -28 -13 -59 -33 -69 -44 -25 -27 -53 -25 -65 4 -5 13 -14 27 -19 31 -6 3 -11 17 -11 30 0 13 -4 26 -9 29 -5 3 -19 38 -31 78 -12 40 -28 88 -36 106 -8 18 -14 52 -14 75 0 23 -5 73 -10 111 -8 54 -8 71 2 78 7 4 57 8 110 8 59 0 99 4 104 11 4 7 26 8 63 4 31 -4 142 -9 248 -11z m1728 -14 c9 -14 -27 -89 -42 -90 -14 0 -19 81 -6 93 10 11 41 8 48 -3z m270 -8 c0 -7 -25 -27 -55 -44 -30 -16 -66 -37 -80 -46 -59 -39 -91 -51 -96 -37 -6 14 17 60 54 113 24 33 24 33 100 30 56 -2 77 -7 77 -16z m-1569 -39 c37 -18 44 -37 17 -47 -10 -3 -45 -22 -78 -41 -33 -19 -64 -35 -68 -35 -11 0 3 122 16 138 13 16 61 9 113 -15z m1158 9 c2 -4 1 -14 -4 -22 -7 -11 -11 -11 -24 -1 -9 7 -13 17 -10 22 7 11 31 12 38 1z m-1005 -79 l21 -18 -31 -52 -31 -53 -98 0 c-54 0 -101 4 -105 9 -3 6 16 20 42 33 27 13 66 35 88 49 91 56 86 55 114 32z m1425 -19 c10 -25 7 -81 -5 -108 -10 -22 -14 -23 -26 -10 -8 8 -28 14 -44 14 -35 0 -46 20 -30 58 20 47 92 79 105 46z m-1305 -28 c7 -8 11 -27 9 -43 -3 -25 -7 -28 -45 -31 -51 -4 -56 11 -21 58 24 33 40 37 57 16z m134 -46 c24 0 22 -27 -3 -35 -30 -10 -60 4 -60 27 0 16 5 19 23 14 12 -3 30 -6 40 -6z m1897 -95 c156 -3 196 -7 211 -22 11 -11 -15 -233 -30 -262 -6 -11 -11 -29 -11 -41 0 -23 -47 -146 -83 -220 -30 -59 -61 -64 -114 -21 -21 17 -42 31 -48 31 -6 0 -29 15 -51 33 -58 49 -97 75 -172 114 -37 20 -84 44 -104 55 -20 11 -42 26 -49 35 -7 8 -40 28 -74 45 -155 77 -178 100 -150 154 8 16 15 39 15 51 0 40 -2 40 302 46 87 1 161 6 165 11 4 4 17 4 28 1 11 -4 85 -8 165 -10z m-2042 -11 c22 -15 22 -19 22 -229 l0 -215 -38 -24 c-21 -13 -52 -38 -69 -55 -20 -20 -42 -31 -60 -31 -15 0 -37 -7 -47 -15 -26 -20 -45 -19 -53 3 -3 9 -16 40 -29 68 -13 28 -30 72 -39 97 -15 45 -15 47 11 94 15 26 31 53 35 59 5 6 20 31 33 55 13 24 33 60 44 79 12 19 29 50 38 68 9 18 26 39 38 47 27 20 86 19 114 -1z m197 4 c18 -8 48 -49 91 -121 35 -60 64 -113 64 -119 0 -20 -104 -108 -127 -108 -23 0 -99 -36 -109 -51 -3 -5 -12 -9 -20 -9 -12 0 -14 30 -12 202 l3 202 25 7 c38 11 57 10 85 -3z m-415 -13 c10 -12 7 -23 -13 -57 -14 -24 -37 -65 -52 -93 -50 -92 -85 -109 -85 -40 0 19 -6 38 -13 42 -17 11 -36 72 -32 103 2 14 4 28 4 32 3 25 172 36 191 13z m615 4 c22 -6 67 -24 100 -40 48 -22 69 -27 103 -22 59 8 56 -17 -5 -50 -47 -24 -80 -67 -68 -87 11 -18 46 -11 77 15 16 14 40 25 53 25 12 0 28 7 35 15 7 8 18 15 25 15 7 0 18 7 25 15 16 19 60 20 60 1 0 -7 -8 -24 -18 -37 -16 -20 -80 -131 -105 -179 -4 -8 -16 -28 -27 -45 -10 -16 -29 -49 -42 -73 -12 -24 -25 -45 -29 -48 -4 -2 -19 19 -34 48 -33 66 -48 92 -62 110 -6 7 -17 35 -24 61 -7 30 -23 59 -41 76 -16 15 -35 37 -41 49 -70 126 -78 145 -65 153 17 12 35 11 83 -2z m870 -9 c5 -9 -20 -70 -30 -70 -17 0 -55 22 -55 31 0 35 68 66 85 39z m-1776 -92 c18 -137 27 -186 46 -258 18 -70 16 -80 -26 -150 -12 -19 -33 -57 -48 -83 -32 -59 -41 -75 -65 -109 l-18 -28 -42 32 c-177 137 -366 337 -366 387 0 13 10 26 23 32 44 20 67 36 87 62 14 18 31 27 49 27 17 0 38 11 55 29 16 16 67 46 115 66 47 21 100 48 116 61 53 41 60 34 74 -68z m-2588 17 c0 -5 -9 -11 -21 -13 -20 -3 -27 8 -13 22 10 9 34 3 34 -9z m4230 -31 c8 -8 20 -14 26 -14 5 0 18 -9 27 -19 23 -25 9 -85 -21 -89 -15 -2 -28 11 -57 58 -43 72 -46 94 -13 84 12 -3 29 -13 38 -20z m-239 -96 c-2 -27 3 -61 12 -80 8 -18 17 -53 19 -78 3 -25 8 -57 12 -72 5 -19 1 -35 -13 -55 -11 -16 -23 -45 -27 -65 -8 -44 -19 -54 -138 -134 -42 -27 -59 -23 -78 21 -5 11 -20 38 -33 60 -24 39 -24 40 -6 70 41 68 60 101 67 115 4 8 33 59 65 113 32 53 58 100 58 103 0 15 37 53 50 51 11 -2 14 -14 12 -49z m128 -23 c7 -8 18 -15 25 -15 16 0 55 -64 55 -89 0 -10 -7 -24 -15 -31 -8 -7 -15 -17 -15 -22 0 -6 -13 -26 -30 -45 -16 -18 -30 -38 -30 -43 0 -6 -7 -10 -15 -10 -13 0 -15 22 -15 135 0 108 3 135 14 135 7 0 19 -7 26 -15z m325 -4 c3 -5 19 -13 37 -16 44 -10 118 -52 150 -86 15 -16 31 -29 37 -29 5 0 29 -13 53 -29 24 -16 62 -39 86 -51 23 -12 45 -26 48 -31 3 -5 16 -9 30 -9 32 0 61 -15 100 -53 30 -29 112 -81 147 -93 33 -12 20 -42 -62 -144 -108 -135 -274 -280 -320 -280 -12 0 -28 15 -42 38 -13 20 -39 58 -59 84 -19 26 -44 59 -55 74 -36 50 -94 156 -129 234 -3 8 -15 29 -26 45 -11 17 -23 37 -27 45 -4 8 -27 48 -51 89 -39 67 -42 76 -32 102 7 16 19 34 27 40 8 7 20 27 28 46 14 32 46 45 60 24z m-4505 -61 c0 -25 -18 -36 -26 -16 -8 21 3 49 16 41 5 -3 10 -15 10 -25z m3613 -100 c26 -43 47 -82 47 -85 0 -4 11 -21 25 -39 14 -18 25 -38 25 -44 0 -24 -56 -132 -70 -137 -9 -3 -28 -29 -43 -59 -15 -30 -34 -56 -41 -59 -8 -3 -17 -20 -21 -37 -5 -22 -11 -30 -21 -26 -8 3 -43 -1 -77 -9 -34 -8 -92 -15 -129 -15 l-68 0 0 202 0 202 58 53 c39 36 65 53 84 53 14 0 57 18 95 40 37 22 73 40 78 40 6 0 31 -36 58 -80z m781 -150 c25 -35 46 -69 46 -75 0 -14 30 -73 57 -111 11 -16 33 -51 47 -79 15 -27 31 -57 36 -65 57 -90 130 -225 130 -239 0 -17 -16 -26 -115 -66 -79 -32 -151 -55 -171 -55 -12 0 -37 -6 -55 -14 -19 -8 -76 -17 -126 -21 l-93 -7 -12 28 c-12 30 -12 62 -3 290 6 127 5 132 -18 160 -19 24 -22 35 -16 63 4 19 14 38 23 43 9 5 16 15 16 23 0 8 20 28 45 46 25 18 45 38 45 45 0 20 99 119 109 109 4 -6 29 -39 55 -75z m-1587 -20 c19 -39 30 -74 27 -88 -3 -16 12 -47 52 -107 31 -47 61 -88 65 -91 19 -12 7 -24 -23 -24 -37 0 -98 18 -208 63 -82 33 -110 52 -110 75 0 12 58 118 100 182 6 8 15 25 20 38 16 38 42 22 77 -48z m373 -149 c0 -94 -4 -172 -8 -175 -14 -9 -133 127 -181 206 l-23 38 24 10 c35 16 116 64 130 78 6 6 22 12 35 12 l23 0 0 -169z m609 15 c12 -25 20 -49 17 -54 -9 -14 -136 -73 -146 -67 -4 3 -2 27 5 55 13 51 58 109 85 110 8 0 26 -20 39 -44z m265 -103 c4 -27 14 -69 22 -95 15 -45 14 -50 -6 -90 -18 -37 -20 -51 -12 -104 5 -38 4 -86 -2 -123 l-10 -62 -120 6 c-65 3 -125 10 -131 15 -7 6 -25 12 -41 14 -33 4 -94 26 -139 49 -39 20 -95 44 -117 51 -22 7 -23 44 -2 74 9 13 13 33 10 45 -9 36 8 48 73 56 34 4 67 13 73 19 7 7 22 12 33 12 29 0 241 108 300 153 26 20 51 35 55 32 4 -3 11 -26 14 -52z m-1190 -109 c34 -13 13 -24 -45 -24 -54 0 -60 2 -49 15 13 15 65 20 94 9z m179 -39 c-3 -14 -48 -18 -102 -10 -32 5 -40 9 -30 16 19 12 135 7 132 -6z m387 -66 c0 -20 -21 -49 -35 -49 -7 0 -26 5 -40 10 -22 8 -25 13 -15 25 10 12 28 18 78 24 6 0 12 -4 12 -10z"/>
</g>
</svg>