<svg version="1.0" xmlns="http://www.w3.org/2000/svg" width="1218.667" height="1218.667" viewBox="0 0 914 914"><path d="M413.4 9.1c-56.6 3.6-121.8 22.1-174.1 49.4-52.1 27.2-94.7 61.2-136.9 109.2-43.8 49.7-74.9 105.1-91.5 162.8-5.7 19.7-5.6 18.8-6.3 71-.3 26.9-1.3 66.3-2.2 87.5L.8 527.6 3 540.5c2.9 17.4 11.9 53.4 17.6 70.3 9.8 29.5 23 57.8 39.9 85.7 30.4 50.2 74.6 95.9 125.5 129.9 69 46.1 137.9 72.3 207.5 79 44.1 4.3 64 4.3 107 .1 51.1-5.1 100.4-19.9 150-45 40.1-20.2 68.6-40 102.9-71.4 34.5-31.5 64.1-69 87.3-110.6 30.2-54.2 47.8-109.6 55-173.2 2.4-21.2 2.4-73.3 0-93.8-3.2-27.2-8.1-53.2-13.9-73-4.3-15.1-16.4-48.7-22-61.5-24-54.2-52-95.4-92.2-135.5-37.5-37.4-75.6-64.8-122.1-87.7-71.4-35.1-148.9-50-232.1-44.7zm78.4 72.4c14.6 1.8 36.6 5.8 47.7 8.6 24 6 55.2 17.6 76.7 28.5 13.3 6.8 28.4 16.1 27.5 17-.3.3-11.8 0-25.7-.7-19.7-1-30.1-1-48.3-.1-37.7 1.9-50.3 5-68 16.7-12.9 8.4-21.6 16.2-29.2 26-8.4 10.8-11.1 15.8-12.9 23.5-4.5 19 .8 36.9 16.1 54.6 6.9 8 16 22.3 19.4 30.4 1.6 3.7 4.2 12 5.9 18.4 5.1 19.9 4 40.4-3 55.1-8.8 18.5-28.4 37.1-63.3 60-24.5 16.1-52.3 21.9-71.7 15.2-6.3-2.2-8.3-3.5-13-8.4-6.4-6.8-8.5-11.8-10.6-25.9-4.1-26.1-2.6-44.6 5.6-72.4 4.4-15 16-40.3 27-59 11.3-19.3 13.7-24.8 18.5-42 6.6-23.7 8.1-30.1 11.6-52.5l3.2-20-1.7-15.8c-1.7-16.3-5.1-34.2-8.6-45.7-3.3-10.9-3.9-10.3 13-12 5.8-.6 12.1-1.2 14-1.4 8.2-1 58.2.4 69.8 1.9zm-113.4 9.7c.3 2.9.9 10.5 1.3 16.9.9 16.6-1 26-8.9 44.9-4.6 10.9-8.7 16.7-21.2 30-8.4 8.9-20.4 18-33.3 25-2.1 1.1-6 3.3-8.8 4.9-6.9 4-29.1 15.1-40 19.9-15.4 6.8-50.3 24.1-55.3 27.4-4.8 3.2-12.9 9.7-21.4 17-2.6 2.2-6.7 6.6-9 9.7-2.4 3.1-7.3 9.1-11 13.3-3.6 4.2-7.5 8.9-8.4 10.5-1 1.5-6.3 7.7-11.9 13.8-5.5 6-11.6 12.8-13.4 15-1.9 2.2-6.8 7.7-10.8 12.2-4.1 4.5-10 11.3-13.1 15.1-13.6 16.8-19.3 23.5-30 35.4C77 409.3 71.6 415 71.3 415c-1 0 .4-11.8 2.7-23 6.3-30.8 12.4-51.5 24-80.5 4-10.1 19.9-42.6 23.8-48.5 1.6-2.5 6-9.4 9.7-15.4 19.7-32.1 53.6-67.7 90.1-94.8 29.8-22 69.5-42.7 103.8-54 17.6-5.8 43.4-12.3 49.7-12.7 2.4-.1 2.7.3 3.3 5.1zm230.4 97.4c3.2.6 3.1.7-3 2.8-19.9 7-35.5 20.4-44.6 38.3-1.2 2.3-3.3 8.6-4.8 14-2.4 9-2.5 10.8-2 23.3.4 7.4.9 15.3 1.2 17.5l.7 4-3.6-3.4c-4.6-4.4-9.3-13.2-12-22.8-1.9-6.7-2.1-9.3-1.6-17.9.5-8.6 1.2-11.3 4.4-19 7.2-16.9 14.8-25.6 27.9-31.9 5-2.4 10.9-4.9 13.1-5.4 4-1 18.2-.7 24.3.5zm113.4 68.8c3.8.8 9.8 2.9 13.5 4.7 11.8 5.6 28.6 24.5 36.8 41.4 4.4 9 7.7 23.9 8.2 36.8.7 15.1-.7 23.8-6.2 38.2-6.1 16.2-13 23.8-25.1 28-6.2 2.1-13.2 2.2-17.1.2-6.1-3.2-12.9-11.5-18.8-23.1-5.2-10.2-5.8-12-6.7-20.8-.9-8.8-.8-10.4 1.5-19.5 5-20 13.9-37.5 24.8-49 2.8-3 4.7-5.8 4.3-6.4-1.5-2.5-18.9 2-33.9 8.6-7.2 3.2-16.9 10.8-22.6 17.9-5.8 7.2-14.3 23.6-16.5 32.1-2.1 8.2-3.1 37.7-1.5 45.3 5.7 26.4 14 42.6 34.7 67.2 16.7 19.9 19 27.4 18.1 58.9-1 34.5-5 46.2-33.2 95.6-17.9 31.5-21 36-34.5 49.8-5.8 6-10.7 11-10.9 11.2-.2.3.2 1.1.9 2 1.7 2 6.2 1.9 16.7-.5 25.9-6 43.7-14.7 73.8-36.2 15.2-10.8 21.3-16.3 32.3-28.5 19.6-22 33.2-40.9 45.6-63.6 3.8-7 7.1-12.5 7.3-12.3.7.7-4.8 23.3-8.8 36.1-16.6 52.6-44.1 102.7-77.9 141.9-36.9 42.8-92.6 80.6-149.6 101.7-36.2 13.3-60.6 18.4-105 22-27.6 2.2-28.7 2.1-65.9-1.2-31.4-2.9-39.6-4.5-73.3-14.3-27.2-8-62.9-24-84.4-38.1-15.4-10.1-35.8-25.7-44.6-34l-7.7-7.4 22.7-.1H242l15.4-4c17.1-4.4 24.2-7 42.6-15.8 21.8-10.4 47.9-27.9 67.1-44.8 16-14.2 27.8-32.5 34.4-53.5 5.1-16.5 16.9-35.7 26.2-42.9 4.2-3.2 5.1-3.4 13.4-3.8 8.6-.4 9-.4 13.9 2.8 2.8 1.8 5.9 4.4 6.9 5.9 2.5 3.4 5.1 12.5 5.1 17.5 0 12.1-9.1 29.7-31.7 61.3-11.7 16.4-13.9 18.6-31 31.7-17.7 13.5-18.2 14.7-4.7 10.5 10.2-3.1 31.1-11.6 37.1-15 15.3-8.8 45.6-39.8 60.8-62.4 11.7-17.4 18-32.2 19.1-44.7.3-4 1-9.1 1.5-11.3 1.4-6.7 1-12-1.6-20.4-2.1-6.4-3.6-9.1-7.6-13.5-8-8.8-17.1-12.6-38.4-16.1l-4-.7 3.2-2.8c4.5-4.1 16.8-11 24.1-13.7 3.5-1.3 7.5-2.9 9-3.7 6.6-3.3 30.2-6.6 48.1-6.6 15.4 0 29.9 3.2 40.6 8.8 8.4 4.5 10.7 8.2 13 21.9 1.4 8.2 1.4 10.4.1 21-2.5 19.3-5.3 31.3-13.7 57.3-6.3 19.5-25.6 56.4-40.5 77.7-20.9 29.9-28.9 38.8-51.2 57.1-16 13.2-20 16.2-40.1 30.1-6.6 4.5-11.9 8.7-11.6 9.1.7 1.1 7.8-.6 15-3.6 3.3-1.4 8.3-3.3 11-4.3 7.6-2.8 23.2-10.8 30.9-16 16.7-11.1 18.7-12.5 28.6-19.5 12.2-8.6 28-21.7 38.9-32.1 22.3-21.4 51.7-63.5 68.8-98.5 9.9-20.2 11.4-24.5 15.9-44.1 4.9-22.1 5.7-39.8 2.5-56.9-2.5-13.1-5.8-23.5-10.1-31.9-4.1-8.2-14.9-24.7-20.9-31.8-15.1-18.3-27.2-45.8-31.1-71.4-1.4-8.7 0-27.6 2.7-38.9 2.1-8.3 13.8-32.7 19.7-40.6 4.7-6.5 14.5-14.1 26.6-20.7 6.6-3.6 23.3-10 32.5-12.4 6.4-1.6 34.2-.9 43.7 1.1zM216.1 336c13.8 1.6 20.9 4.2 27.4 10.2 6.8 6.1 7.4 7.4 8.5 14.9.8 5.4.6 6.7-2.1 13-3.9 9.6-10.6 18.6-18 24.5-20 15.8-31.9 27.7-37.8 37.4-6 10-8.1 16-11.7 33.5-2.3 11-2.7 15.2-2.6 27.4.1 9.3.7 15.8 1.6 18.5 6.1 17.9 21.7 40.7 35.9 52.3 8.3 6.9 19.5 14.2 25.2 16.6 10.7 4.5 28 8.4 45 10.2 9.5 1 21.6 4.1 31.3 8 12.3 4.9 19.9 12.2 23.2 22 1.6 4.8 2 7.8 1.6 10.9-.9 5.7-6.1 16.3-12.7 25.6-7.5 10.7-27.6 30.4-39.1 38.4-18.4 12.7-47.2 24.5-67.4 27.6-9.4 1.5-40.6 1.5-43.3.1-4.2-2.3-22.9-23.3-35.3-39.7-27.1-35.9-48.7-76.9-62.7-119-12.5-37.5-16.1-60.2-16-99.8 0-29.4.7-35.4 4.2-39.5 1.5-1.8 12.9-13 25.5-24.9 51.1-48.5 54.6-51.3 73.2-60.3 16.6-7.9 28.2-9.9 46.1-7.9zm66.6 124.2c-9.2 12.3-12.1 30.7-7.3 47 1 3.2 3.7 8.4 6.4 12 14.1 18.9 42.2 24.7 64.4 13.2 4.4-2.3 3.3 0-2.8 6-7.7 7.6-19.2 12.7-32.2 14.2-7 .7-18.5-2.1-27.5-6.9-14.9-7.8-25.8-28.1-25.8-47.6 0-4.5.4-8.8.9-9.5.5-.6 1.7-3.4 2.7-6.1 3.1-8.5 9.7-16.6 18.9-23.2 4.4-3.1 5.1-2.8 2.3.9z"/><path d="M412.2 312.5c-7 2-8.7 2.9-14.5 8.4-7.4 6.9-10 12.7-10.5 23.7-.4 8.3-.2 9.7 2.3 15.3 6.3 14.1 22.5 22.9 37 20.2 12.2-2.3 20.5-8.4 25.7-18.9 3-6 3.3-7.5 3.3-15.2 0-9.9-2.7-16.9-9-23.9-7.9-8.7-22.6-12.9-34.3-9.6zM743.1 328.6c-3.3 4.2-8.3 15.6-8.9 20.1-1.3 11.4 3.1 19.3 10.8 19.3 6.6 0 11-6.5 11-16.1 0-3.8-2.7-12.4-6-19.6-1.1-2.4-2-4.7-2-5.3 0-1.9-2.9-1-4.9 1.6zM542.3 560.5c-.3.9.8 5.1 2.5 9.3 5.8 14.9 6.7 27.6 3.1 42.3-3.6 14.5-6.6 19.4-24.3 40.4-7.2 8.5-2.2 6.3 9.7-4.3 18.9-16.7 26.4-33.1 25.5-55.6-.5-12.6-2.6-18.7-9.9-28.3-4.1-5.5-5.6-6.3-6.6-3.8zM608.7 727.7c-5.6 5.4-12.7 11.9-15.7 14.4-10 8.4-36.4 25.2-57.5 36.5-10.1 5.3-12.3 6.9-11.2 8 1.9 1.9 39.3-14.4 55.5-24.2 20.3-12.3 45.7-37.2 43.6-42.7-1.2-3.3-4.6-1.5-14.7 8zM308 750.6c-3 .9-10 2.1-15.4 2.7-11 1.4-13 2.8-7.1 5.3 5.9 2.4 16.2 2.9 22.6 1.1 6.1-1.8 14.2-7.2 13.6-9-.5-1.8-7.5-1.8-13.7-.1zM398.2 767.4c-12.8 6.3-20 8.3-36.4 10.1-7.8.8-14.4 1.8-14.7 2.1-2.1 2 10.5 3.9 25.4 3.8 10.9 0 16.9-1.5 26.6-6.6 6.8-3.6 13.4-10 12.6-12.2-1-2.5-3.7-1.9-13.5 2.8z"/></svg>