<?xml version="1.0" encoding="UTF-8"?> <svg  version="1.0" xmlns="http://www.w3.org/2000/svg"  width="300.000000pt" height="300.000000pt" viewBox="0 0 300.000000 300.000000"  preserveAspectRatio="xMidYMid meet">  <g transform="translate(0.000000,300.000000) scale(0.100000,-0.100000)" fill="#ffffff" stroke="none"> <path d="M1322 2990 c-645 -82 -1156 -555 -1293 -1200 -32 -151 -32 -429 0 -580 97 -457 379 -831 781 -1039 133 -68 252 -111 400 -142 151 -32 429 -32 580 0 148 31 267 74 400 142 402 208 684 582 781 1039 32 151 32 429 0 580 -97 457 -379 831 -781 1039 -215 110 -409 160 -650 166 -80 2 -178 0 -218 -5z m297 -219 c209 -65 332 -270 287 -480 -26 -125 -85 -205 -211 -287 -112 -72 -144 -112 -170 -211 -29 -110 -10 -193 61 -272 l45 -51 -36 -37 c-38 -39 -85 -121 -85 -148 0 -31 -16 -14 -34 36 -10 30 -37 72 -63 100 l-46 49 42 46 c73 79 95 166 67 274 -23 89 -67 145 -161 207 -135 88 -203 182 -226 311 -27 152 51 328 181 412 106 68 234 87 349 51z m-689 -162 c-72 -112 -103 -219 -102 -359 0 -112 22 -193 77 -285 56 -93 54 -92 120 -59 111 54 235 29 292 -58 24 -35 28 -52 28 -111 0 -66 -1 -70 -37 -103 -49 -45 -103 -47 -148 -6 -35 30 -44 83 -18 108 13 13 14 11 10 -16 -7 -48 20 -80 69 -80 116 0 122 151 9 228 -30 20 -44 23 -97 20 -75 -5 -125 -39 -160 -108 -28 -53 -31 -142 -8 -198 33 -77 96 -123 216 -156 31 -9 67 -27 81 -41 29 -29 48 -92 48 -158 0 -43 0 -43 53 -65 30 -13 72 -41 95 -64 l42 -41 42 41 c23 23 65 51 95 64 53 22 53 22 53 65 0 66 19 129 48 158 14 14 50 32 81 41 120 33 184 80 217 160 37 88 6 208 -69 268 -46 37 -135 48 -183 23 -58 -30 -87 -72 -92 -131 -4 -48 -1 -57 21 -80 36 -36 100 -37 123 -1 10 15 14 37 12 55 -5 32 6 41 16 14 26 -68 -20 -134 -92 -134 -34 0 -49 7 -79 34 -33 30 -37 39 -41 92 -11 166 159 260 324 179 l56 -28 24 29 c153 189 155 499 4 719 -17 25 -28 45 -24 45 4 0 40 -18 81 -41 96 -53 216 -143 274 -205 41 -44 46 -56 52 -109 13 -127 -24 -263 -99 -365 -47 -64 -142 -141 -200 -162 -34 -12 -35 -13 -27 -53 12 -61 5 -132 -17 -183 -11 -25 -18 -47 -15 -50 10 -11 138 32 192 65 159 95 273 269 318 489 9 43 18 80 20 82 6 6 81 -159 104 -230 13 -37 31 -109 41 -160 l19 -92 -26 -49 c-55 -100 -193 -194 -343 -234 -99 -27 -274 -24 -369 5 -40 13 -74 22 -76 20 -2 -2 -5 -22 -6 -45 -3 -39 0 -45 43 -83 55 -48 80 -86 104 -159 l17 -54 77 7 c199 16 364 92 503 229 l78 77 -7 -47 c-41 -287 -175 -546 -385 -749 -146 -140 -306 -237 -484 -293 -149 -47 -144 -47 -160 -7 -23 55 -19 135 10 190 22 41 23 46 7 46 -42 0 -107 -45 -131 -91 l-25 -46 -107 0 -107 0 -18 40 c-20 44 -72 83 -123 93 l-35 7 23 -37 c29 -46 38 -136 19 -191 -12 -36 -17 -40 -43 -37 -55 6 -210 61 -299 107 -271 138 -495 382 -607 660 -32 82 -72 226 -83 308 l-7 47 78 -77 c138 -137 307 -214 504 -230 l76 -6 17 54 c24 73 49 111 104 159 43 38 46 44 43 83 -1 23 -4 43 -6 45 -2 2 -36 -7 -76 -20 -94 -29 -269 -32 -369 -5 -150 40 -288 134 -343 234 l-26 49 19 92 c24 120 53 207 103 312 l41 85 13 -65 c20 -93 67 -224 105 -289 45 -76 171 -202 235 -234 55 -28 170 -64 178 -55 3 3 -4 26 -16 52 -22 52 -28 118 -16 181 8 40 7 41 -27 53 -58 21 -153 98 -200 162 -76 102 -112 235 -99 360 6 60 10 68 56 118 28 29 81 75 117 102 64 48 217 140 232 140 4 0 -10 -27 -32 -61z"/> <path d="M1397 2641 c-6 -2 -47 -38 -89 -79 l-78 -77 0 -110 0 -110 83 -83 82 -82 105 0 105 0 83 83 82 82 0 110 0 110 -77 77 -78 77 -103 3 c-56 2 -108 1 -115 -1z m195 -168 c36 -35 38 -41 38 -97 0 -56 -3 -63 -37 -98 -34 -35 -42 -38 -92 -38 -50 0 -59 3 -93 37 -36 35 -38 41 -38 97 0 56 3 63 37 98 34 35 42 38 92 38 50 0 59 -3 93 -37z"/> <path d="M1115 1365 c-34 -33 -34 -87 0 -120 56 -57 149 -18 149 61 0 74 -96 113 -149 59z"/> <path d="M1764 1366 c-37 -31 -39 -86 -3 -121 57 -56 149 -20 149 60 0 76 -87 112 -146 61z"/> <path d="M1004 1256 c-43 -36 -88 -111 -99 -163 -6 -29 -4 -33 22 -38 15 -4 34 -8 41 -11 6 -2 12 3 12 11 0 27 40 101 75 140 l35 37 -21 29 c-11 16 -21 29 -23 29 -1 0 -20 -15 -42 -34z"/> <path d="M1930 1260 l-21 -30 32 -32 c30 -31 79 -119 79 -144 0 -8 11 -9 36 -4 19 5 38 10 40 13 3 3 0 23 -5 45 -14 50 -66 128 -107 159 l-32 24 -22 -31z"/> <path d="M1066 1179 c-28 -32 -49 -70 -66 -114 -9 -23 -6 -27 30 -45 38 -19 41 -20 46 -3 2 10 20 49 39 88 32 64 33 70 18 87 -23 25 -37 23 -67 -13z"/> <path d="M1866 1191 c-16 -17 -15 -22 18 -87 20 -38 38 -77 41 -87 4 -17 7 -16 45 3 36 18 39 22 30 45 -26 69 -81 145 -104 145 -7 0 -20 -8 -30 -19z"/> <path d="M1140 1122 c-15 -25 -34 -66 -41 -90 -12 -45 -12 -45 21 -72 l34 -28 21 73 c12 40 29 84 38 99 23 35 22 42 -13 55 -29 10 -32 8 -60 -37z"/> <path d="M1798 1158 c-34 -12 -34 -14 -3 -76 14 -27 30 -72 36 -100 l12 -51 34 27 c30 22 34 30 29 56 -7 35 -54 132 -70 145 -6 5 -23 4 -38 -1z"/> <path d="M1222 1078 c-17 -35 -34 -85 -40 -112 -9 -43 -7 -54 15 -98 42 -85 22 -162 -57 -215 -59 -41 -162 -23 -207 36 -20 26 -16 -5 7 -49 35 -69 118 -110 225 -110 60 0 117 13 142 32 9 7 7 17 -8 41 -21 35 -25 97 -8 145 23 66 109 84 160 33 16 -16 29 -40 29 -54 0 -34 -33 -61 -65 -53 -33 8 -33 25 1 18 44 -8 58 34 24 68 -45 45 -120 4 -120 -66 0 -140 222 -197 325 -83 28 31 35 47 35 79 0 74 -73 117 -120 70 -24 -24 -25 -43 -4 -64 12 -12 20 -13 35 -6 13 7 19 7 19 1 0 -20 -50 -24 -70 -6 -28 26 -25 62 9 96 53 52 135 33 162 -38 15 -40 10 -106 -10 -140 -22 -36 -18 -43 38 -62 77 -25 206 -7 271 39 30 22 76 97 66 108 -3 3 -16 -4 -29 -15 -35 -32 -62 -43 -110 -43 -119 0 -193 132 -134 241 23 42 24 51 15 95 -16 76 -65 174 -88 174 -67 0 -198 -86 -215 -141 -7 -20 -25 -26 -25 -9 0 6 -21 33 -46 60 -31 34 -63 56 -100 70 -83 31 -89 29 -122 -42z"/> </g> </svg> 