<?xml version="1.0" standalone="no"?>
<!DOCTYPE svg PUBLIC "-//W3C//DTD SVG 20010904//EN"
 "http://www.w3.org/TR/2001/REC-SVG-20010904/DTD/svg10.dtd">
<svg version="1.0" xmlns="http://www.w3.org/2000/svg"
 width="914.000000pt" height="914.000000pt" viewBox="0 0 914.000000 914.000000"
 preserveAspectRatio="xMidYMid meet">

<g transform="translate(0.000000,914.000000) scale(0.100000,-0.100000)"
fill="#000000" stroke="none">
<path d="M4134 9049 c-566 -36 -1218 -221 -1741 -494 -521 -272 -947 -612
-1369 -1092 -438 -497 -749 -1051 -915 -1628 -57 -197 -56 -188 -63 -710 -3
-269 -13 -663 -22 -875 l-16 -386 22 -129 c29 -174 119 -534 176 -703 98 -295
230 -578 399 -857 304 -502 746 -959 1255 -1299 690 -461 1379 -723 2075 -790
441 -43 640 -43 1070 -1 511 51 1004 199 1500 450 401 202 686 400 1029 714
345 315 641 690 873 1106 302 542 478 1096 550 1732 24 212 24 733 0 938 -32
272 -81 532 -139 730 -43 151 -164 487 -220 615 -240 542 -520 954 -922 1355
-375 374 -756 648 -1221 877 -714 351 -1489 500 -2321 447z m784 -724 c146
-18 366 -58 477 -86 240 -60 552 -176 767 -285 133 -68 284 -161 275 -170 -3
-3 -118 0 -257 7 -197 10 -301 10 -483 1 -377 -19 -503 -50 -680 -167 -129
-84 -216 -162 -292 -260 -84 -108 -111 -158 -129 -235 -45 -190 8 -369 161
-546 69 -80 160 -223 194 -304 16 -37 42 -120 59 -184 51 -199 40 -404 -30
-551 -88 -185 -284 -371 -633 -600 -245 -161 -523 -219 -717 -152 -63 22 -83
35 -130 84 -64 68 -85 118 -106 259 -41 261 -26 446 56 724 44 150 160 403
270 590 113 193 137 248 185 420 66 237 81 301 116 525 l32 200 -17 158 c-17
163 -51 342 -86 457 -33 109 -39 103 130 120 58 6 121 12 140 14 82 10 582 -4
698 -19z m-1134 -97 c3 -29 9 -105 13 -169 9 -166 -10 -260 -89 -449 -46 -109
-87 -167 -212 -300 -84 -89 -204 -180 -333 -250 -21 -11 -60 -33 -88 -49 -69
-40 -291 -151 -400 -199 -154 -68 -503 -241 -553 -274 -48 -32 -129 -97 -214
-170 -26 -22 -67 -66 -90 -97 -24 -31 -73 -91 -110 -133 -36 -42 -75 -89 -84
-105 -10 -15 -63 -77 -119 -138 -55 -60 -116 -128 -134 -150 -19 -22 -68 -77
-108 -122 -41 -45 -100 -113 -131 -151 -136 -168 -193 -235 -300 -354 -62 -71
-116 -128 -119 -128 -10 0 4 118 27 230 63 308 124 515 240 805 40 101 199
426 238 485 16 25 60 94 97 154 197 321 536 677 901 948 298 220 695 427 1038
540 176 58 434 123 497 127 24 1 27 -3 33 -51z m2304 -974 c32 -6 31 -7 -30
-28 -199 -70 -355 -204 -446 -383 -12 -23 -33 -86 -48 -140 -24 -90 -25 -108
-20 -233 4 -74 9 -153 12 -175 l7 -40 -36 34 c-46 44 -93 132 -120 228 -19 67
-21 93 -16 179 5 86 12 113 44 190 72 169 148 256 279 319 50 24 109 49 131
54 40 10 182 7 243 -5z m1134 -688 c38 -8 98 -29 135 -47 118 -56 286 -245
368 -414 44 -90 77 -239 82 -368 7 -151 -7 -238 -62 -382 -61 -162 -130 -238
-251 -280 -62 -21 -132 -22 -171 -2 -61 32 -129 115 -188 231 -52 102 -58 120
-67 208 -9 88 -8 104 15 195 50 200 139 375 248 490 28 30 47 58 43 64 -15 25
-189 -20 -339 -86 -72 -32 -169 -108 -226 -179 -58 -72 -143 -236 -165 -321
-21 -82 -31 -377 -15 -453 57 -264 140 -426 347 -672 167 -199 190 -274 181
-589 -10 -345 -50 -462 -332 -956 -179 -315 -210 -360 -345 -498 -58 -60 -107
-110 -109 -112 -2 -3 2 -11 9 -20 17 -20 62 -19 167 5 259 60 437 147 738 362
152 108 213 163 323 285 196 220 332 409 456 636 38 70 71 125 73 123 7 -7
-48 -233 -88 -361 -166 -526 -441 -1027 -779 -1419 -369 -428 -926 -806 -1496
-1017 -362 -133 -606 -184 -1050 -220 -276 -22 -287 -21 -659 12 -314 29 -396
45 -733 143 -272 80 -629 240 -844 381 -154 101 -358 257 -446 340 l-77 74
227 1 228 0 154 40 c171 44 242 70 426 158 218 104 479 279 671 448 160 142
278 325 344 535 51 165 169 357 262 429 42 32 51 34 134 38 86 4 90 4 139 -28
28 -18 59 -44 69 -59 25 -34 51 -125 51 -175 0 -121 -91 -297 -317 -613 -117
-164 -139 -186 -310 -317 -177 -135 -182 -147 -47 -105 102 31 311 116 371
150 153 88 456 398 608 624 117 174 180 322 191 447 3 40 10 91 15 113 14 67
10 120 -16 204 -21 64 -36 91 -76 135 -80 88 -171 126 -384 161 l-40 7 32 28
c45 41 168 110 241 137 35 13 75 29 90 37 66 33 302 66 481 66 154 0 299 -32
406 -88 84 -45 107 -82 130 -219 14 -82 14 -104 1 -210 -25 -193 -53 -313
-137 -573 -63 -195 -256 -564 -405 -777 -209 -299 -289 -388 -512 -571 -160
-132 -200 -162 -401 -301 -66 -45 -119 -87 -116 -91 7 -11 78 6 150 36 33 14
83 33 110 43 76 28 232 108 309 160 167 111 187 125 286 195 122 86 280 217
389 321 223 214 517 635 688 985 99 202 114 245 159 441 49 221 57 398 25 569
-25 131 -58 235 -101 319 -41 82 -149 247 -209 318 -151 183 -272 458 -311
714 -14 87 0 276 27 389 21 83 138 327 197 406 47 65 145 141 266 207 66 36
233 100 325 124 64 16 342 9 437 -11z m-5061 -786 c138 -16 209 -42 274 -102
68 -61 74 -74 85 -149 8 -54 6 -67 -21 -130 -39 -96 -106 -186 -180 -245 -200
-158 -319 -277 -378 -374 -60 -100 -81 -160 -117 -335 -23 -110 -27 -152 -26
-274 1 -93 7 -158 16 -185 61 -179 217 -407 359 -523 83 -69 195 -142 252
-166 107 -45 280 -84 450 -102 95 -10 216 -41 313 -80 123 -49 199 -122 232
-220 16 -48 20 -78 16 -109 -9 -57 -61 -163 -127 -256 -75 -107 -276 -304
-391 -384 -184 -127 -472 -245 -674 -276 -94 -15 -406 -15 -433 -1 -42 23
-229 233 -353 397 -271 359 -487 769 -627 1190 -125 375 -161 602 -160 998 0
294 7 354 42 395 15 18 129 130 255 249 511 485 546 513 732 603 166 79 282
99 461 79z m666 -1242 c-92 -123 -121 -307 -73 -470 10 -32 37 -84 64 -120
141 -189 422 -247 644 -132 44 23 33 0 -28 -60 -77 -76 -192 -127 -322 -142
-70 -7 -185 21 -275 69 -149 78 -258 281 -258 476 0 45 4 88 9 95 5 6 17 34
27 61 31 85 97 166 189 232 44 31 51 28 23 -9z"/>
<path d="M4122 6015 c-70 -20 -87 -29 -145 -84 -74 -69 -100 -127 -105 -237
-4 -83 -2 -97 23 -153 63 -141 225 -229 370 -202 122 23 205 84 257 189 30 60
33 75 33 152 0 99 -27 169 -90 239 -79 87 -226 129 -343 96z"/>
<path d="M7431 5854 c-33 -42 -83 -156 -89 -201 -13 -114 31 -193 108 -193 66
0 110 65 110 161 0 38 -27 124 -60 196 -11 24 -20 47 -20 53 0 19 -29 10 -49
-16z"/>
<path d="M5423 3535 c-3 -9 8 -51 25 -93 58 -149 67 -276 31 -423 -36 -145
-66 -194 -243 -404 -72 -85 -22 -63 97 43 189 167 264 331 255 556 -5 126 -26
187 -99 283 -41 55 -56 63 -66 38z"/>
<path d="M6087 1863 c-56 -54 -127 -119 -157 -144 -100 -84 -364 -252 -575
-365 -101 -53 -123 -69 -112 -80 19 -19 393 144 555 242 203 123 457 372 436
427 -12 33 -46 15 -147 -80z"/>
<path d="M3080 1634 c-30 -9 -100 -21 -154 -27 -110 -14 -130 -28 -71 -53 59
-24 162 -29 226 -11 61 18 142 72 136 90 -5 18 -75 18 -137 1z"/>
<path d="M3982 1466 c-128 -63 -200 -83 -364 -101 -78 -8 -144 -18 -147 -21
-21 -20 105 -39 254 -38 109 0 169 15 266 66 68 36 134 100 126 122 -10 25
-37 19 -135 -28z"/>
</g>
</svg>
