<?xml version="1.0" encoding="UTF-8"?> <svg  version="1.0" xmlns="http://www.w3.org/2000/svg"  width="300.000000pt" height="300.000000pt" viewBox="0 0 300.000000 300.000000"  preserveAspectRatio="xMidYMid meet">  <g transform="translate(0.000000,300.000000) scale(0.100000,-0.100000)" fill="#ffffff" stroke="none"> <path d="M1097 2843 c-3 -5 -15 -56 -28 -114 l-23 -107 -76 -37 c-285 -141 -503 -386 -609 -687 -48 -138 -65 -243 -65 -416 l-1 -153 -82 -77 -82 -77 195 -335 c107 -184 199 -341 203 -349 6 -11 29 -7 118 21 l110 35 74 -49 c207 -138 416 -201 664 -200 269 0 497 74 730 236 18 12 33 10 129 -21 59 -19 109 -33 111 -31 2 2 85 145 185 318 100 173 190 329 200 347 l19 32 -85 78 -85 78 6 105 c13 202 -29 402 -125 595 -67 135 -127 220 -230 322 -92 92 -166 145 -292 213 l-103 55 -22 98 c-12 55 -24 105 -27 113 -4 12 -70 14 -405 14 -220 0 -402 -3 -404 -7z m730 -75 c5 -7 17 -49 27 -93 10 -44 20 -88 22 -97 3 -10 46 -37 99 -62 345 -163 577 -474 636 -850 7 -42 9 -132 6 -219 l-5 -147 74 -72 c41 -39 74 -76 74 -81 0 -10 -305 -544 -319 -559 -4 -4 -53 7 -110 24 -68 21 -107 29 -116 22 -169 -122 -282 -178 -443 -222 -86 -23 -116 -26 -272 -26 -192 -1 -253 10 -417 74 -78 30 -236 121 -279 161 -26 24 -24 24 -140 -11 -54 -17 -101 -27 -105 -23 -15 16 -319 551 -319 561 0 5 33 40 72 77 l73 67 0 197 c1 179 3 204 27 293 50 185 144 352 275 488 104 110 186 170 320 237 125 61 113 46 143 183 22 99 -12 90 349 90 243 0 321 -3 328 -12z"/> <path d="M1450 2664 c0 -6 7 -17 16 -25 8 -7 27 -36 41 -63 14 -28 42 -71 63 -96 73 -89 72 -103 -5 -75 -44 16 -88 18 -159 9 -52 -8 -44 -24 11 -24 17 0 35 -5 39 -12 5 -8 -12 -10 -67 -6 -79 5 -180 -12 -146 -25 10 -4 33 -7 50 -8 32 0 32 0 7 -10 -14 -6 -37 -8 -52 -5 -43 8 -129 -12 -155 -36 -30 -28 -23 -34 17 -13 18 9 34 14 37 11 8 -8 -54 -36 -80 -36 -46 0 -84 -12 -113 -36 l-29 -24 35 6 c33 5 31 3 -20 -24 -30 -17 -74 -35 -97 -42 -50 -15 -58 -35 -10 -25 31 6 31 5 -13 -23 -51 -33 -86 -69 -77 -78 4 -4 18 1 31 10 14 9 27 16 29 16 1 0 -22 -26 -53 -57 -58 -61 -95 -137 -105 -216 l-5 -42 20 40 20 40 -6 -35 c-4 -19 -17 -50 -29 -70 -30 -46 -39 -90 -30 -157 8 -62 15 -62 26 0 4 23 5 -10 2 -74 -5 -92 -2 -133 12 -193 18 -77 43 -108 31 -38 -13 78 14 3 33 -91 18 -91 42 -151 76 -192 16 -20 16 -20 11 3 -16 62 -14 62 17 -3 39 -80 82 -134 132 -164 38 -22 45 -18 18 11 -9 10 -11 18 -6 18 6 0 18 -11 27 -25 9 -14 39 -43 67 -65 46 -37 75 -49 154 -65 l30 -6 -27 23 c-16 13 -28 27 -28 30 0 8 55 -11 120 -41 31 -14 64 -20 105 -20 l60 1 -37 12 c-20 6 -40 15 -45 20 -9 10 15 6 102 -18 64 -17 170 -22 161 -7 -4 5 -25 12 -48 16 -35 6 -38 9 -23 18 11 6 51 7 101 3 45 -3 89 -3 98 0 28 11 17 24 -21 25 l-38 1 30 9 c17 5 40 7 51 4 29 -7 134 13 162 31 34 22 26 32 -18 24 -33 -6 -38 -5 -29 6 6 8 17 14 23 14 16 0 108 45 131 65 20 16 20 16 -2 12 -13 -3 -23 -2 -23 1 0 4 26 33 58 65 31 32 48 55 37 51 -18 -7 -17 -4 6 27 14 19 34 50 43 69 l17 35 -20 -25 c-26 -32 -27 -21 -2 22 25 44 37 83 22 74 -15 -10 -14 5 3 40 8 16 18 43 22 59 6 29 6 29 -10 10 -16 -19 -16 -19 -8 5 18 52 23 82 12 75 -6 -4 -10 7 -10 29 0 60 -15 40 -27 -37 -13 -78 -44 -171 -68 -203 -15 -19 -15 -19 -35 5 -11 13 -20 34 -20 46 0 48 -9 55 -70 55 -32 0 -71 7 -88 16 -30 14 -32 19 -32 68 0 51 -1 54 -29 59 -52 11 -97 -13 -52 -28 30 -9 44 -31 33 -51 -9 -16 -11 -15 -28 4 -19 23 -59 28 -84 12 -13 -8 -12 -10 3 -10 26 0 67 -45 67 -75 0 -31 -22 -33 -50 -3 l-20 22 0 -21 c0 -12 8 -35 18 -53 15 -27 21 -30 47 -24 17 4 66 7 110 8 l80 1 14 -45 c8 -25 21 -63 30 -84 l15 -39 -66 -62 c-76 -70 -196 -136 -298 -162 -86 -22 -254 -22 -340 0 -92 24 -218 90 -281 147 -51 45 -53 49 -37 65 9 11 40 20 74 24 l58 6 21 51 c31 78 53 100 100 100 64 0 75 8 75 55 l0 42 -24 -22 c-52 -49 -111 14 -72 74 10 15 12 25 6 25 -25 0 -48 -21 -56 -52 -8 -32 -8 -32 -12 16 -3 40 1 53 20 73 l23 25 -30 -8 c-38 -9 -67 -34 -60 -51 2 -8 0 -59 -6 -113 -15 -126 -22 -134 -131 -139 -66 -3 -82 0 -100 15 -57 52 -102 207 -101 354 0 128 18 205 75 320 52 103 144 200 233 247 125 65 285 104 285 69 0 -8 -15 -27 -33 -43 -49 -43 -51 -56 -12 -104 21 -24 35 -52 35 -68 0 -15 6 -33 13 -40 10 -10 8 -15 -9 -29 -19 -15 -44 -52 -44 -66 0 -6 60 -36 73 -36 5 0 6 7 3 15 -3 8 -9 21 -12 29 -8 20 30 30 55 14 15 -9 21 -24 21 -48 l1 -35 24 28 c14 15 25 39 25 52 0 22 2 23 30 14 32 -12 38 -35 20 -70 -18 -33 6 -22 39 18 33 40 39 63 17 63 -8 0 -26 14 -39 30 -14 17 -34 30 -45 30 -11 0 -43 22 -71 49 -65 62 -68 92 -14 152 54 60 82 72 140 59 26 -6 68 -24 92 -41 24 -16 50 -29 58 -29 7 0 30 -15 50 -34 21 -18 53 -41 71 -50 65 -34 147 -102 177 -148 9 -16 22 -28 27 -28 6 0 23 -11 40 -25 54 -46 72 -28 60 62 -6 44 -15 60 -62 112 -102 112 -140 171 -140 215 0 8 -42 57 -93 108 -52 51 -114 125 -140 164 -26 39 -54 78 -64 85 -9 8 -14 10 -11 4 3 -5 17 -36 32 -68 58 -128 35 -111 -211 153 -24 25 -43 40 -43 34z"/> <path d="M1463 1623 c-12 -2 -36 -20 -52 -38 -78 -89 -26 -209 91 -209 43 0 53 5 85 37 33 32 37 42 37 87 0 45 -4 55 -35 85 -34 34 -80 48 -126 38z"/> </g> </svg> 