<?xml version="1.0" encoding="UTF-8"?><svg xmlns="http://www.w3.org/2000/svg" width="450" height="450" style="shape-rendering:geometricPrecision;text-rendering:geometricPrecision;image-rendering:optimizeQuality;fill-rule:evenodd;clip-rule:evenodd"><path style="opacity:.039" fill="#74819c" d="M213.5-.5h7c.65 1.935.983 3.935 1 6-1.291-.237-2.291.096-3 1h-2c-1.513-.81-3.18-.976-5-.5a14.827 14.827 0 0 0 2-6.5Z"/><path style="opacity:1" fill="#fcfdfd" d="M216.5 6.5h2a38026.32 38026.32 0 0 0 48 148.5c-5.352.322-10.686.822-16 1.5a347.448 347.448 0 0 1-16.5-2 734.434 734.434 0 0 0-17-50 15964.348 15964.348 0 0 0-44 135 979.31 979.31 0 0 1-24.5-17l-1-2.5a32466.728 32466.728 0 0 1 69-213.5Z"/><path style="opacity:1" fill="#edeef2" d="M166.5 133.5c.117 1.984-.55 3.65-2 5a179.982 179.982 0 0 0-21 14.5 32.444 32.444 0 0 0-6 1.5 32.444 32.444 0 0 0-6-1.5c-5.915-6.587-12.415-12.421-19.5-17.5-5.585 4.484-10.252 9.818-14 16-1.605 2.774-3.772 3.44-6.5 2a185.379 185.379 0 0 1 17-22.5A136.161 136.161 0 0 0 84 107.5c-13.591 13.814-24.758 29.481-33.5 47-1.667 2.667-3.333 2.667-5 0 31.067-60.985 80.567-96.985 148.5-108 1.28.114 2.113.78 2.5 2-.645 1.932-1.979 3.099-4 3.5-40.184 5.928-74.851 22.761-104 50.5a153.306 153.306 0 0 0 23 23.5c1.408.315 2.741-.018 4-1 18.952-17.312 40.952-29.145 66-35.5.203 1.89-.463 3.39-2 4.5-24.397 6.619-45.397 18.786-63 36.5a134.25 134.25 0 0 0 21.5 22 116.11 116.11 0 0 1 28.5-19Z"/><path style="opacity:1" fill="#f8f9fa" d="M240.5 46.5c68.462 11.004 118.462 47.17 150 108.5-1.612.72-3.112.554-4.5-.5-8.702-17.682-20.035-33.349-34-47a109.808 109.808 0 0 0-23.5 23c2.341 4.341 5.674 7.674 10 10 2.132 5.772 5.799 10.272 11 13.5-5.019.335-10.019.835-15 1.5a228.126 228.126 0 0 0-15-1.5l-1.5-1.5c-.739 1.074-1.739 1.741-3 2a21.615 21.615 0 0 0-6-5c-5.235 4.344-11.069 5.51-17.5 3.5-6.594-6.074-13.927-11.241-22-15.5-1.624-1.369-2.124-3.036-1.5-5 .414.457.914.791 1.5 1 3.552-3.515 6.886-3.515 10 0-1.216.596-2.549.763-4 .5-1.333 1-1.333 2 0 3a77.927 77.927 0 0 1 9 5.5 4.457 4.457 0 0 0 2-1.5c-.529-2.429-1.863-4.262-4-5.5.928-1.268 1.095-2.601.5-4-6.002-5.822-5.502-6.322 1.5-1.5a55.337 55.337 0 0 0 6 8c4.115.567 7.115 3.067 9 7.5-2.519 2.141-2.519 4.141 0 6 4.541-2.373 7.874-5.873 10-10.5-2.564-7.301-6.897-8.801-13-4.5-3.302-4.229-4.469-8.896-3.5-14-2.375-2.445-3.709-5.445-4-9a29.964 29.964 0 0 0-7-6c-.617-.949-.451-1.782.5-2.5l-2-2a173.21 173.21 0 0 0-26-9.5c-2.564-1.997-2.397-3.33.5-4a140.12 140.12 0 0 1 30.5 11.5c4.446.631 8.613-.203 12.5-2.5a38.409 38.409 0 0 0 9.5 3.5c4.754 2.75 8.921 6.25 12.5 10.5-.5 4.32 1.333 6.654 5.5 7-1.392 5.106-.059 5.939 4 2.5a165.23 165.23 0 0 0 18-19.5c-30.588-28.79-66.921-46.122-109-52a3.647 3.647 0 0 0-1-1.5 81.216 81.216 0 0 0 3-2.5Z"/><path style="opacity:1" fill="#fefffe" d="M249.5 60.5c.397-1.025 1.063-1.192 2-.5a2.427 2.427 0 0 1-2 .5Z"/><path style="opacity:1" fill="#c6cbd6" d="M259.5 63.5c1.837.14 2.17.806 1 2-.798-.457-1.131-1.124-1-2Z"/><path style="opacity:1" fill="#eef0f3" d="M248.5 66.5c2.821.039 5.488.705 8 2-2.084.927-4.417 2.26-7 4-5.793-1.961-6.126-3.961-1-6Z"/><path style="opacity:1" fill="#f1f2f5" d="M305.5 94.5c4.831-.006 6.997 2.327 6.5 7l-7-4c-.47-1.077-.303-2.077.5-3Z"/><path style="opacity:1" fill="#d7d8e0" d="M266.5 124.5c-1.256.039-2.256-.461-3-1.5 1.498-.585 2.498-.085 3 1.5Z"/><path style="opacity:1" fill="#fefffe" d="M266.5 124.5c.667 0 1 .333 1 1l-1-1ZM267.5 125.5c.667 0 1 .333 1 1l-1-1ZM268.5 126.5c1.333.667 1.333.667 0 0ZM166.5 132.5c1.333.667 1.333.667 0 0Z"/><path style="opacity:1" fill="#fdfdfd" d="M30.5 160.5c42.666.694 85.333 1.361 128 2a759.008 759.008 0 0 1-8 30 580.496 580.496 0 0 0-52 1.5l114 82a179.387 179.387 0 0 1-25.5 19.5 35251.87 35251.87 0 0 1-184.5-133c9.491-.667 18.825-1.333 28-2ZM295.5 161.5c44.997.667 89.997 1 135 1 .17 1.322-.163 2.489-1 3.5A25439.51 25439.51 0 0 1 306 254.5c-4.959-10.207-8.292-20.873-10-32l40.5-28.5a4093.822 4093.822 0 0 0-142-1.5l9-30a2117.57 2117.57 0 0 0 92-1Z"/><path style="opacity:1" fill="#f8f8f9" d="M338.5 354.5a133.234 133.234 0 0 1 10 9.5 16.2 16.2 0 0 0 3.5 1.5c32.225-32.307 49.725-71.473 52.5-117.5a33.752 33.752 0 0 0-1-7.5 6.802 6.802 0 0 0-3-1.5c-9-.667-18-.667-27 0a6.802 6.802 0 0 0-3 1.5c-2.222 35.854-14.722 67.52-37.5 95-1.44-1.43-1.774-3.097-1-5 22.151-26.122 32.985-56.289 32.5-90.5a168.793 168.793 0 0 0-23-2 18.924 18.924 0 0 1 5-3 271.873 271.873 0 0 0 18-1.5 218.218 218.218 0 0 0 1.5-14 3.647 3.647 0 0 1 1.5-1c1.618 4.134 2.451 8.468 2.5 13 .388.928 1.055 1.595 2 2a141.131 141.131 0 0 0 28.5.5 11.333 11.333 0 0 0 3.5-1.5 139.427 139.427 0 0 0-3.5-36.5c-.032-1.971.802-3.471 2.5-4.5 15.238 72.94-3.762 135.273-57 187a16.2 16.2 0 0 1-1.5-3.5l3-5a34.517 34.517 0 0 0-6.5-7.5 22.394 22.394 0 0 1-2.5-8Z"/><path style="opacity:1" fill="#f8f8fa" d="M32.5 192.5c2.201.358 3.535 1.692 4 4-3.64 12.453-4.974 25.12-4 38a139.783 139.783 0 0 0 33 0c1.791-19.372 3.791-19.705 6-1a377.935 377.935 0 0 0 17 1.5c1.832.748 3.5 1.748 5 3-7.633.11-15.133.943-22.5 2.5a102.428 102.428 0 0 0 2 24c1.152 6.125 2.985 11.959 5.5 17.5 5.753.869 10.086-1.131 13-6a18.085 18.085 0 0 1-2-3.5c1.49-8.99 5.99-15.99 13.5-21v-6l3 2a25.648 25.648 0 0 0 2.5 7.5l5.5 3.5c.837-1.507 2.004-2.007 3.5-1.5l5.5 7.5c-.011 3.725-.677 7.392-2 11a1522.2 1522.2 0 0 1-19 59c-3.116-3.476-6.95-5.81-11.5-7a64.538 64.538 0 0 1-4-6.5c-1.943.305-3.943.305-6 0a28.4 28.4 0 0 1-4.5-7.5 71.404 71.404 0 0 1-13-10c-1.465.83-2.965.996-4.5.5a55.782 55.782 0 0 0-5.5-4.5c-3.113 1.558-3.28 3.391-.5 5.5-1.705 3.25-3.205 3.084-4.5-.5-2.319-6.419-3.485-12.919-3.5-19.5 1.865-5.767 5.532-7.434 11-5-3.86 1.343-3.86 2.843 0 4.5 1.778-2.445 4.111-4.111 7-5a72.554 72.554 0 0 1 7.5 3 16.199 16.199 0 0 0 3.5-1.5 61.869 61.869 0 0 1-4.5-16.5 450.618 450.618 0 0 1-3.5-25c-11.08-1.632-22.08-1.299-33 1 .722 45.004 15.555 84.671 44.5 119a28.54 28.54 0 0 0 8.5 7 39.35 39.35 0 0 0 8-9c1.187-1.394 1.853-1.227 2 .5-1.282 4.776-3.616 8.942-7 12.5 2.438 2.156 2.605 4.489.5 7-40.344-38.048-61.178-85.048-62.5-141a275.086 275.086 0 0 1 6-44Z"/><path style="opacity:1" fill="#fdfdfe" d="M238.5 256.5a50.753 50.753 0 0 1 2-7.5 20.499 20.499 0 0 0-2.5-3.5 28.352 28.352 0 0 0-3-11c-1.32-.299-2.82-.466-4.5-.5 2.796-1.419 4.796-3.585 6-6.5-1.559-2.582-2.392-5.249-2.5-8-1.856 1.906-4.023 2.74-6.5 2.5 2.532-.612 3.365-2.112 2.5-4.5-3.421-3.757-7.588-6.257-12.5-7.5a36.078 36.078 0 0 1-4.5-3.5 26.813 26.813 0 0 1-3.5 7.5 61.99 61.99 0 0 0-10 4.5c-1.507 2.469-1.173 4.635 1 6.5-3.51 1.907-4.676 4.74-3.5 8.5 1.871 1.168 3.371.668 4.5-1.5-.837-1.011-1.17-2.178-1-3.5 3.85.201 4.85 2.034 3 5.5a20.532 20.532 0 0 0 4.5 2.5c-.07 3.872 1.764 6.206 5.5 7a15.69 15.69 0 0 1 2 4c-3.964 14.985-11.297 17.152-22 6.5a38.012 38.012 0 0 0 7.5-7.5c.743-1.941.576-3.774-.5-5.5-1-.667-2-.667-3 0a52.355 52.355 0 0 0-6.5 9.5 36.184 36.184 0 0 1-12-7 226.562 226.562 0 0 1 10.5-36.5c7.833-7.633 17.333-10.8 28.5-9.5a213.568 213.568 0 0 0 16.5 1.5 59.043 59.043 0 0 1 9 5 2739.606 2739.606 0 0 1 13 39.5 4.933 4.933 0 0 1-1 2.5 64.783 64.783 0 0 0-11 8c-1.908 1.906-3.908 2.74-6 2.5Zm-25-57c3.498-.022 4.831 1.478 4 4.5-1.399.595-2.732.428-4-.5-2.835 2.682-4.002 2.016-3.5-2a19.602 19.602 0 0 0 3.5-2Zm-31 35c1.495-.085 2.495.581 3 2a66.615 66.615 0 0 1-2.5 6c-1.812-2.546-1.978-5.212-.5-8Zm11 0c3.837.703 4.003 2.036.5 4-1.768-1.182-1.935-2.515-.5-4Zm8 0c2.663 1.611 3.163 3.611 1.5 6-2.479-1.588-2.979-3.588-1.5-6Zm-14 5c2.477-.449 4.477.217 6 2a15.384 15.384 0 0 0-6.5 5 20.499 20.499 0 0 1-2.5-3.5 14.698 14.698 0 0 0 3-3.5Z"/><path style="opacity:1" fill="#fefefe" d="M261.5 197.5a225.838 225.838 0 0 1 19.5 2A39867.72 39867.72 0 0 0 350.5 413c-1 .667-2 .667-3 0a13306.273 13306.273 0 0 1-125-92c8.563-6.9 17.396-13.4 26.5-19.5a89283.232 89283.232 0 0 1 41 31 4.457 4.457 0 0 0 1.5-2 19586.203 19586.203 0 0 0-43-131c4.482-.667 8.816-1.334 13-2Z"/><path style="opacity:1" fill="#f7f7f9" d="M230.5 242.5c2.451 1.623 4.451 3.789 6 6.5-1.284.684-2.451.517-3.5-.5a23.423 23.423 0 0 1-2.5-6Z"/><path style="opacity:1" fill="#f8f8fa" d="M332.5 244.5c.209 17.145-4.291 33.145-13.5 48a28.931 28.931 0 0 0-1.5-4c6.644-13.24 10.811-27.24 12.5-42 .995-.566 1.828-1.233 2.5-2Z"/><path style="opacity:1" fill="#fefffe" d="M221.5 248.5c2.473.447 2.64 1.447.5 3-1.728-.852-1.895-1.852-.5-3Z"/><path style="opacity:1" fill="#fefefe" d="M258.5 250.5a397.269 397.269 0 0 1 11 30A34987.696 34987.696 0 0 0 83 414.5c1.488-8.478 3.821-16.811 7-25a28064.75 28064.75 0 0 1 43.5-126 283.61 283.61 0 0 1 26 20 3659.819 3659.819 0 0 0-16 45.5c.13 1.059.63 1.892 1.5 2.5a24884.143 24884.143 0 0 1 113.5-81Z"/><path style="opacity:1" fill="#fefffe" d="M318.5 255.5c1.208-1.282 2.542-1.282 4 0-1.308 1.126-2.642 1.126-4 0Z"/><path style="opacity:1" fill="#f9fafb" d="M238.5 256.5c-4.33 4.645-9.33 8.645-15 12 .619-4.035 2.285-7.535 5-10.5 1.826-.292 3.659-.125 5.5.5 1.833-.019 3.333-.685 4.5-2Z"/><path style="opacity:1" fill="#f6f6f8" d="M314.5 257.5c3-.333 4.333 1 4 4a31.625 31.625 0 0 0-7.5 2l-1.5-1a29.937 29.937 0 0 1 5-5Z"/><path style="opacity:1" fill="#fefffe" d="M209.5 266.5c.397-1.025 1.063-1.192 2-.5a2.428 2.428 0 0 1-2 .5ZM223.5 268.5c-.667.667-.667.667 0 0ZM388.5 291.5c1.333.667 1.333.667 0 0ZM381.5 298.5c1.333.667 1.333.667 0 0ZM381.5 299.5a2.428 2.428 0 0 1-.5 2c-.692-.937-.525-1.603.5-2ZM53.5 313.5c-.667-1.333-.667-1.333 0 0ZM53.5 313.5c1.333.667 1.333.667 0 0ZM334.5 313.5c1.333.667 1.333.667 0 0ZM332.5 318.5c1.025.397 1.192 1.063.5 2a2.428 2.428 0 0 1-.5-2ZM63.5 322.5c-.667-1.333-.667-1.333 0 0Z"/><path style="opacity:1" fill="#f6f7f9" d="M63.5 322.5c2.342 1.817 3.509 4.15 3.5 7a17.345 17.345 0 0 1-3.5-7Z"/><path style="opacity:1" fill="#f9f9fb" d="M215.5 329.5c1.808-.009 3.475.491 5 1.5l64 46c-5.157 4.49-10.99 7.657-17.5 9.5-1.419-1.922-3.253-3.255-5.5-4a209.491 209.491 0 0 1-40 7 6.802 6.802 0 0 0-1.5 3c-.667 9-.667 18 0 27a6.802 6.802 0 0 0 1.5 3c33.111.346 63.945-7.987 92.5-25 1.946.263 2.612 1.263 2 3-66.457 37.441-132.624 36.941-198.5-1.5 1.865-1.301 3.865-1.635 6-1 27.802 16.268 57.802 24.601 90 25 1.55-5.673 2.216-11.507 2-17.5l-.5-13a11.333 11.333 0 0 0-1.5-3.5c-21.046-.928-41.046-5.928-60-15a12.403 12.403 0 0 1 4-2.5c17.843 7.961 36.509 12.128 56 12.5a11.333 11.333 0 0 0 1.5-3.5 97.921 97.921 0 0 0-1-27 369.726 369.726 0 0 1-24.5-4.5c1.494-1.946 3.494-2.779 6-2.5l14 2c2.308.135 4.308-.531 6-2a66.133 66.133 0 0 0-15-5 8949.775 8949.775 0 0 1 15-12Zm6 13a78.497 78.497 0 0 1 12 3.5l-2 2a30.485 30.485 0 0 1-11 0c-1.257-2.076-.924-3.91 1-5.5Zm9 9c10.858-.477 15.858 4.523 15 15-.349 4.558 1.651 7.058 6 7.5l5 5c-11.527 4.123-23.36 5.623-35.5 4.5a97.921 97.921 0 0 1-1-27c.318-1.561 1.151-2.728 2.5-3.5 2.865-.183 5.531-.683 8-1.5Z"/><path style="opacity:1" fill="#fefffe" d="M338.5 354.5c-.667-1.333-.667-1.333 0 0ZM188.5 355.5c1.333.667 1.333.667 0 0ZM203.5 370.5c.397-1.025 1.063-1.192 2-.5a2.428 2.428 0 0 1-2 .5ZM358.5 426.5c1.333.667 1.333.667 0 0Z"/></svg>