<?xml version="1.0" encoding="utf-8"?>
<!-- Generator: Adobe Illustrator 24.0.1, SVG Export Plug-In . SVG Version: 6.00 Build 0)  -->
<svg version="1.1" id="图层_1" xmlns="http://www.w3.org/2000/svg" xmlns:xlink="http://www.w3.org/1999/xlink" x="0px" y="0px"
	 viewBox="0 0 1000 1000" style="enable-background:new 0 0 1000 1000;" xml:space="preserve">
<style type="text/css">
	.st0{display:none;}
	.st1{display:inline;}
	.st2{fill:none;stroke:#000000;stroke-width:10;stroke-miterlimit:10;}
	.st3{fill:url(#SVGID_1_);}
	.st4{fill:url(#SVGID_2_);}
	.st5{fill:url(#SVGID_3_);}
	.st6{fill:url(#SVGID_4_);}
	.st7{fill:url(#SVGID_5_);}
	.st8{fill:url(#SVGID_6_);}
	.st9{display:inline;fill:none;}
	.st10{fill:#FFFFFF;}
	.st11{display:inline;fill:none;stroke:#000000;stroke-width:20;stroke-miterlimit:10;}
	.st12{fill:url(#SVGID_7_);}
	.st13{fill:url(#SVGID_8_);}
	.st14{fill:url(#SVGID_9_);}
	.st15{fill:url(#SVGID_10_);}
	.st16{fill:url(#SVGID_11_);}
	.st17{fill:url(#SVGID_12_);}
	.st18{fill:url(#SVGID_13_);}
	.st19{fill:url(#SVGID_14_);}
	.st20{fill:url(#SVGID_15_);}
	.st21{fill:url(#SVGID_16_);}
	.st22{fill:url(#SVGID_17_);}
	.st23{fill:url(#SVGID_18_);}
	.st24{display:inline;fill:none;stroke:#000000;stroke-width:10;stroke-miterlimit:10;}
	.st25{fill:#F26E73;}
	.st26{fill:none;stroke:#000000;stroke-width:5;stroke-miterlimit:10;}
	.st27{fill:url(#SVGID_19_);}
	.st28{fill:url(#SVGID_20_);}
	.st29{fill:url(#SVGID_21_);}
	.st30{fill:url(#SVGID_22_);}
	.st31{fill:url(#SVGID_23_);}
	.st32{fill:url(#SVGID_24_);}
</style>
<g id="图层_1_1_" class="st0">
	<g class="st1">
		<g id="XMLID_9_">
			<g>
				<polygon class="st2" points="500,295 339.8,387.5 339.8,572.5 500,665 660.2,572.5 660.2,387.5 				"/>
				<line class="st2" x1="660.2" y1="387.5" x2="703.5" y2="362.5"/>
				<line class="st2" x1="339.8" y1="572.5" x2="499.9" y2="480.1"/>
				<line class="st2" x1="339.8" y1="387.5" x2="296.5" y2="362.5"/>
				<polyline class="st2" points="660.2,572.5 500,480 499.9,480 499.8,479.9 				"/>
				<line class="st2" x1="500" y1="665" x2="500" y2="715"/>
				<polyline class="st2" points="500,295 500,480 500,480.1 				"/>
				<polygon class="st2" points="703.5,362.5 500,245 296.5,362.5 296.5,597.5 500,715 703.5,597.5 				"/>
			</g>
		</g>
	</g>
	<g class="st1">
		
			<radialGradient id="SVGID_1_" cx="555.4749" cy="972.1249" r="103.4357" gradientTransform="matrix(0.9508 0 0 0.9508 24.6045 -463.0463)" gradientUnits="userSpaceOnUse">
			<stop  offset="0" style="stop-color:#F9AE3B"/>
			<stop  offset="1" style="stop-color:#EB1C24"/>
		</radialGradient>
		<path class="st3" d="M538.2,400.7c-8.3-5.2-16.6-10.3-24.8-15.5c17.5-10.1,35-20.1,52.4-30.2c25.5,14.2,51.1,28.5,76.6,42.7
			c0,29.3,0,58.7,0.1,88c-47.6,27.3-95.2,54.5-142.8,81.8c-12.2-7-24.4-14.1-36.7-21.1c0-10,0-20,0.1-30c12.3,6.9,24.7,13.8,37,20.7
			c38.7-22.2,77.4-44.4,116.1-66.6c-0.1-19.2-0.2-38.4-0.3-57.5c-16.1-9.2-32.3-18.5-48.4-27.7C557.7,390.4,547.9,395.6,538.2,400.7
			z"/>
		
			<radialGradient id="SVGID_2_" cx="555.4749" cy="972.1249" r="98.217" gradientTransform="matrix(0.9508 0 0 0.9508 24.6045 -463.0463)" gradientUnits="userSpaceOnUse">
			<stop  offset="0" style="stop-color:#F9AE3B"/>
			<stop  offset="1" style="stop-color:#EB1C24"/>
		</radialGradient>
		<polygon class="st4" points="467.6,543.7 467.6,524.2 500.1,542.4 620.8,473.2 620.4,410.3 567.5,380 538.4,395.4 522.3,385.4 
			565.8,360.3 637.8,400.4 637.9,483.1 499.7,562.2 		"/>
		
			<radialGradient id="SVGID_3_" cx="465.0773" cy="945.3054" r="101.0194" gradientTransform="matrix(0.9508 0 0 0.9508 24.6045 -463.0463)" gradientUnits="userSpaceOnUse">
			<stop  offset="0" style="stop-color:#F9AE3B"/>
			<stop  offset="1" style="stop-color:#EB1C24"/>
		</radialGradient>
		<path class="st5" d="M576.1,436.5c-48-27.1-96.1-54.3-144.1-81.4c-24.8,14.2-49.6,28.4-74.4,42.7c0,29.3,0,58.7-0.1,88
			c17.9,10.2,35.9,20.4,53.8,30.6c0.3-9.9,0.6-19.8,0.8-29.7c-9.4-5.4-18.9-10.8-28.3-16.3c0-19.1,0-38.3-0.1-57.4
			c16.3-9.4,32.5-18.8,48.8-28.2c39,22.4,77.9,44.7,116.9,67.1c0.1,14.1,0.2,28.3,0.3,42.4c8.8-5.1,17.5-10.2,26.3-15.3
			C576.1,464.8,576.1,450.6,576.1,436.5z"/>
		
			<radialGradient id="SVGID_4_" cx="465.0773" cy="943.9907" r="95.3931" gradientTransform="matrix(0.9508 0 0 0.9508 24.6045 -463.0463)" gradientUnits="userSpaceOnUse">
			<stop  offset="0" style="stop-color:#F9AE3B"/>
			<stop  offset="1" style="stop-color:#EB1C24"/>
		</radialGradient>
		<polygon class="st6" points="362.1,483 362.2,400.4 432,360.4 571.5,439.2 571.5,476.3 554.3,486.3 554,449.2 432.6,379.4 
			379.2,410.3 379.3,473 407.5,489.2 407,508.6 		"/>
		
			<radialGradient id="SVGID_5_" cx="499.7323" cy="1044.6427" r="102.3286" gradientTransform="matrix(0.9508 0 0 0.9508 24.6045 -463.0463)" gradientUnits="userSpaceOnUse">
			<stop  offset="0" style="stop-color:#F9AE3B"/>
			<stop  offset="1" style="stop-color:#EB1C24"/>
		</radialGradient>
		<path class="st7" d="M487.6,430.1c-12.2,7.1-24.4,14.2-36.7,21.4c0,45,0,90.1,0,135.1c16.5,9.3,33.1,18.5,49.6,27.8
			c16.4-9.4,32.9-18.9,49.3-28.3c0.1-11.1,0.2-22.1,0.3-33.2c8.5-4.8,17-9.6,25.5-14.4c-0.2,21-0.5,42.1-0.7,63.1
			c-25,14.5-50.1,29-75.1,43.4c-25.3-14.6-50.6-29.2-75.9-43.8c0.1-54.9,0.2-109.7,0.3-164.6c12.4-7.1,24.9-14.2,37.3-21.2
			C470.2,420.3,478.9,425.2,487.6,430.1z"/>
		
			<radialGradient id="SVGID_6_" cx="499.6797" cy="1044.6427" r="97.1363" gradientTransform="matrix(0.9508 0 0 0.9508 24.6045 -463.0463)" gradientUnits="userSpaceOnUse">
			<stop  offset="0" style="stop-color:#F9AE3B"/>
			<stop  offset="1" style="stop-color:#EB1C24"/>
		</radialGradient>
		<polygon class="st8" points="428.5,598.6 428.9,439.3 461.6,420.7 478.3,430.2 446.3,448.8 446.3,589.2 500.5,619.6 554.4,588.8 
			554.7,555.6 570.9,546.4 570.3,598.9 499.8,639.7 		"/>
	</g>
	<polyline class="st9" points="790.1,647.5 790.1,312.5 500,145 209.9,312.5 209.9,647.5 	"/>
	<g id="XMLID_10_" class="st1">
		<g>
			<polygon class="st10" points="907,565 907,615 500,850 500,800 			"/>
			<polygon class="st10" points="907,565 500,800 93,565 209.9,497.5 500,665 790.1,497.5 			"/>
			<polygon class="st10" points="500,800 500,850 93,615 93,565 			"/>
		</g>
		<g>
			<polygon class="st2" points="500,850 907,615 907,565 790.1,497.5 500,665 209.9,497.5 93,565 93,615 			"/>
			<polyline class="st2" points="907,565 500,800 93,565 			"/>
			<line class="st2" x1="500" y1="850" x2="500" y2="800"/>
		</g>
	</g>
</g>
<g id="图层_8" class="st0">
	<path class="st1" d="M640,328.2c0,2.1,0.1,4.3,0.1,6.4c1.7,0,4.3,0.3,6.8,1.6c5.7,2.9,6.2,8.2,10.9,9.7c1.6,0.5,4.1,0.7,7.9-1.1
		c0.1,1.4,0.8,2.6,2,3.2c1.6,0.8,4,0,5-2.1c0.1,0.2,0.4,1.1,1.3,1.7c1.2,0.7,2.4,0.3,2.6,0.3c0,81.3,0,242.6,0,323.9
		c8.9,0,17.8,0,26.7,0c0-81.3,0-242.6,0-323.9c0.2,0.1,1.4,0.5,2.6-0.3c0.9-0.6,1.2-1.4,1.3-1.7c1.1,2.1,3.4,2.8,5,2.1
		c1.1-0.5,1.9-1.8,2-3.2c3.7,1.8,6.2,1.6,7.9,1.1c4.7-1.5,5.3-6.8,10.9-9.7c2.6-1.3,5.1-1.6,6.8-1.6c0-2.1,0.1-4.3,0.1-6.4
		C706.7,328.2,673.3,328.2,640,328.2z"/>
	<path class="st1" d="M776.2,85.3c4.4,18.4-5.2,36.8-21,42.9c-16.4,6.3-35.8-1.9-42-14.7c-4.1-8.6-2.1-18.7-1-23.7
		c1.6-7.6,4.6-13.3,6.9-17c-15.6,0.3-31.2,0.6-46.8,0.8c5.3,8.7,10.6,20.5,6.8,31.3c-5.3,15.4-28.6,28.4-179.1,28.4
		s-173.8-13.1-179.1-28.4c-3.7-10.8,1.5-22.7,6.8-31.3c-15.6-0.3-31.2-0.6-46.8-0.8c2.3,3.6,5.3,9.4,6.9,17c1.1,5.1,3.1,15.1-1,23.7
		c-6.2,12.8-25.6,21-42,14.7c-15.8-6.1-25.4-24.4-21-42.9c-29.5,3.1-48.7,29.2-45.4,51.7c3.5,24.4,33.4,44.7,64.3,34.9
		c171.5,0,343,0,514.5,0c30.9,9.9,60.8-10.5,64.3-34.9C824.8,114.5,805.7,88.5,776.2,85.3z"/>
	<path class="st1" d="M907.3,188.8c-3.5-25.5-25.6-47.4-56.3-55c12.4,25.1,4.7,55.2-16.8,70.5c-23.7,16.8-58.4,11.5-76.9-13.3
		c-171.5,0-343,0-514.5,0c-18.5,24.8-53.3,30.1-76.9,13.3c-21.5-15.2-29.2-45.4-16.8-70.5c-30.7,7.6-52.8,29.6-56.3,55
		c-3.6,26.7,14.7,46.8,18.1,50.4c26.7,28,79.6,30.4,131.9,4.8c171.5,0,343,0,514.5,0c52.3,25.5,105.2,23.1,131.9-4.8
		C892.6,235.6,910.9,215.5,907.3,188.8z"/>
	<path class="st1" d="M834.2,265.6c-0.5,3.8-2.5,16.2-12.9,25.5c-10.9,9.8-28.9,14.5-44.2,6.1c-12.6-6.8-20.2-20.6-19.8-35.5
		c-171.5,0-343,0-514.5,0c0.5,14.8-7.2,28.7-19.8,35.5c-15.4,8.3-33.4,3.6-44.2-6.1c-10.4-9.4-12.5-21.7-12.9-25.5
		c-1.7,2-14.8,18-10.2,37.8c4.2,18.1,20.2,28.8,34,31.7c20.2,4.1,42.3-7.2,53.1-28.3c171.5,0,343,0,514.5,0
		c10.8,21.1,32.9,32.4,53.1,28.3c13.9-2.8,29.8-13.5,34-31.7C849,283.6,835.9,267.6,834.2,265.6z"/>
	<path class="st1" d="M360,328.2c0,2.1-0.1,4.3-0.1,6.4c-1.7,0-4.3,0.3-6.8,1.6c-5.7,2.9-6.2,8.2-10.9,9.7c-1.6,0.5-4.1,0.7-7.9-1.1
		c-0.1,1.4-0.8,2.6-2,3.2c-1.6,0.8-4,0-5-2.1c-0.1,0.2-0.4,1.1-1.3,1.7c-1.2,0.7-2.4,0.3-2.6,0.3c0,81.3,0,242.6,0,323.9
		c-8.9,0-17.8,0-26.7,0c0-81.3,0-242.6,0-323.9c-0.2,0.1-1.4,0.5-2.6-0.3c-0.9-0.6-1.2-1.4-1.3-1.7c-1.1,2.1-3.4,2.8-5,2.1
		c-1.1-0.5-1.9-1.8-2-3.2c-3.7,1.8-6.2,1.6-7.9,1.1c-4.7-1.5-5.3-6.8-10.9-9.7c-2.6-1.3-5.1-1.6-6.8-1.6c0-2.1-0.1-4.3-0.1-6.4
		C293.3,328.2,326.7,328.2,360,328.2z"/>
	<line class="st11" x1="225" y1="697.4" x2="775" y2="697.4"/>
	<g class="st1">
		<path d="M538.2,400.7c-8.3-5.2-16.6-10.3-24.8-15.5c17.5-10.1,35-20.1,52.4-30.2c25.5,14.2,51.1,28.5,76.6,42.7
			c0,29.3,0,58.7,0.1,88c-47.6,27.3-95.2,54.5-142.8,81.8c-12.2-7-24.4-14.1-36.7-21.1c0-10,0-20,0.1-30c12.3,6.9,24.7,13.8,37,20.7
			c38.7-22.2,77.4-44.4,116.1-66.6c-0.1-19.2-0.2-38.4-0.3-57.5c-16.1-9.2-32.3-18.5-48.4-27.7C557.7,390.4,547.9,395.6,538.2,400.7
			z"/>
		<polygon points="467.6,543.7 467.6,524.2 500.1,542.4 620.8,473.2 620.4,410.3 567.5,380 538.4,395.4 522.3,385.4 565.8,360.3 
			637.8,400.4 637.9,483.1 499.7,562.2 		"/>
		<path d="M576.1,436.5c-48-27.1-96.1-54.3-144.1-81.4c-24.8,14.2-49.6,28.4-74.4,42.7c0,29.3,0,58.7-0.1,88
			c17.9,10.2,35.9,20.4,53.8,30.6c0.3-9.9,0.6-19.8,0.8-29.7c-9.4-5.4-18.9-10.8-28.3-16.3c0-19.1,0-38.3-0.1-57.4
			c16.3-9.4,32.5-18.8,48.8-28.2c39,22.4,77.9,44.7,116.9,67.1c0.1,14.1,0.2,28.3,0.3,42.4c8.8-5.1,17.5-10.2,26.3-15.3
			C576.1,464.8,576.1,450.6,576.1,436.5z"/>
		<polygon points="362.1,483 362.2,400.4 432,360.4 571.5,439.2 571.5,476.3 554.3,486.3 554,449.2 432.6,379.4 379.2,410.3 
			379.3,473 407.5,489.2 407,508.6 		"/>
		<path d="M487.6,430.1c-12.2,7.1-24.4,14.2-36.7,21.4c0,45,0,90.1,0,135.1c16.5,9.3,33.1,18.5,49.6,27.8
			c16.4-9.4,32.9-18.9,49.3-28.3c0.1-11.1,0.2-22.1,0.3-33.2c8.5-4.8,17-9.6,25.5-14.4c-0.2,21-0.5,42.1-0.7,63.1
			c-25,14.5-50.1,29-75.1,43.4c-25.3-14.6-50.6-29.2-75.9-43.8c0.1-54.9,0.2-109.7,0.3-164.6c12.4-7.1,24.9-14.2,37.3-21.2
			C470.2,420.3,478.9,425.2,487.6,430.1z"/>
		<polygon points="428.5,598.6 428.9,439.3 461.6,420.7 478.3,430.2 446.3,448.8 446.3,589.2 500.5,619.6 554.4,588.8 554.7,555.6 
			570.9,546.4 570.3,598.9 499.8,639.7 		"/>
	</g>
</g>
<g id="图层_9" class="st0">
	<g class="st1">
		
			<radialGradient id="SVGID_7_" cx="555.4749" cy="1111.4812" r="103.4357" gradientTransform="matrix(0.9508 0 0 0.9508 24.6045 -463.0463)" gradientUnits="userSpaceOnUse">
			<stop  offset="0" style="stop-color:#F9AE3B"/>
			<stop  offset="1" style="stop-color:#EB1C24"/>
		</radialGradient>
		<path class="st12" d="M538.2,533.2c-8.3-5.2-16.6-10.3-24.8-15.5c17.5-10.1,35-20.1,52.4-30.2c25.5,14.2,51.1,28.5,76.6,42.7
			c0,29.3,0,58.7,0.1,88c-47.6,27.3-95.2,54.5-142.8,81.8c-12.2-7-24.4-14.1-36.7-21.1c0-10,0-20,0.1-30c12.3,6.9,24.7,13.8,37,20.7
			c38.7-22.2,77.4-44.4,116.1-66.6c-0.1-19.2-0.2-38.4-0.3-57.5c-16.1-9.2-32.3-18.5-48.4-27.7C557.7,522.9,547.9,528.1,538.2,533.2
			z"/>
		
			<radialGradient id="SVGID_8_" cx="555.4749" cy="1111.4812" r="98.217" gradientTransform="matrix(0.9508 0 0 0.9508 24.6045 -463.0463)" gradientUnits="userSpaceOnUse">
			<stop  offset="0" style="stop-color:#F9AE3B"/>
			<stop  offset="1" style="stop-color:#EB1C24"/>
		</radialGradient>
		<polygon class="st13" points="467.6,676.2 467.6,656.7 500.1,674.9 620.8,605.7 620.4,542.8 567.5,512.5 538.4,527.9 522.3,517.9 
			565.8,492.8 637.8,533 637.9,615.6 499.7,694.7 		"/>
		
			<radialGradient id="SVGID_9_" cx="465.0773" cy="1084.6616" r="101.0194" gradientTransform="matrix(0.9508 0 0 0.9508 24.6045 -463.0463)" gradientUnits="userSpaceOnUse">
			<stop  offset="0" style="stop-color:#F9AE3B"/>
			<stop  offset="1" style="stop-color:#EB1C24"/>
		</radialGradient>
		<path class="st14" d="M576.1,569c-48-27.1-96.1-54.3-144.1-81.4c-24.8,14.2-49.6,28.4-74.4,42.7c0,29.3,0,58.7-0.1,88
			c17.9,10.2,35.9,20.4,53.8,30.6c0.3-9.9,0.6-19.8,0.8-29.7c-9.4-5.4-18.9-10.8-28.3-16.3c0-19.1,0-38.3-0.1-57.4
			c16.3-9.4,32.5-18.8,48.8-28.2c39,22.4,77.9,44.7,116.9,67.1c0.1,14.1,0.2,28.3,0.3,42.4c8.8-5.1,17.5-10.2,26.3-15.3
			C576.1,597.3,576.1,583.2,576.1,569z"/>
		
			<radialGradient id="SVGID_10_" cx="465.0773" cy="1083.3469" r="95.3931" gradientTransform="matrix(0.9508 0 0 0.9508 24.6045 -463.0463)" gradientUnits="userSpaceOnUse">
			<stop  offset="0" style="stop-color:#F9AE3B"/>
			<stop  offset="1" style="stop-color:#EB1C24"/>
		</radialGradient>
		<polygon class="st15" points="362.1,615.6 362.2,532.9 432,492.9 571.5,571.7 571.5,608.8 554.3,618.8 554,581.7 432.6,512 
			379.2,542.8 379.3,605.5 407.5,621.8 407,641.1 		"/>
		
			<radialGradient id="SVGID_11_" cx="499.7323" cy="1183.999" r="102.3286" gradientTransform="matrix(0.9508 0 0 0.9508 24.6045 -463.0463)" gradientUnits="userSpaceOnUse">
			<stop  offset="0" style="stop-color:#F9AE3B"/>
			<stop  offset="1" style="stop-color:#EB1C24"/>
		</radialGradient>
		<path class="st16" d="M487.6,562.6c-12.2,7.1-24.4,14.2-36.7,21.4c0,45,0,90.1,0,135.1c16.5,9.3,33.1,18.5,49.6,27.8
			c16.4-9.4,32.9-18.9,49.3-28.3c0.1-11.1,0.2-22.1,0.3-33.2c8.5-4.8,17-9.6,25.5-14.4c-0.2,21-0.5,42.1-0.7,63.1
			c-25,14.5-50.1,29-75.1,43.4c-25.3-14.6-50.6-29.2-75.9-43.8c0.1-54.9,0.2-109.7,0.3-164.6c12.4-7.1,24.9-14.2,37.3-21.2
			C470.2,552.8,478.9,557.7,487.6,562.6z"/>
		
			<radialGradient id="SVGID_12_" cx="499.6797" cy="1183.999" r="97.1363" gradientTransform="matrix(0.9508 0 0 0.9508 24.6045 -463.0463)" gradientUnits="userSpaceOnUse">
			<stop  offset="0" style="stop-color:#F9AE3B"/>
			<stop  offset="1" style="stop-color:#EB1C24"/>
		</radialGradient>
		<polygon class="st17" points="428.5,731.1 428.9,571.8 461.6,553.2 478.3,562.7 446.3,581.4 446.3,721.8 500.5,752.2 554.4,721.3 
			554.7,688.1 570.9,678.9 570.3,731.4 499.8,772.2 		"/>
	</g>
</g>
<g id="图层_2_1_" class="st0">
	<path class="st1" d="M500,187.6c-6.9,0.1-13.9,0.3-20.8,0.4c-3,14.6-9.5,36.8-24.7,59.6c-6.6,9.9-38.3,57.5-97.7,69.3
		c-39.6,7.9-106.9,3-126.3-40.6c-12.1-27.1,0-56.8,5.2-68c-39.6,0.9-71.2,34.6-69.5,73.7c1.7,39.5,36.6,70.7,76.6,67.6
		c85.8,0,171.5,0,257.3,0C500,295.6,500,241.6,500,187.6z"/>
	<path class="st1" d="M834.2,375.8c-0.5,3.8-2.5,16.2-12.9,25.5c-10.9,9.8-28.9,14.5-44.2,6.1c-12.6-6.8-20.2-20.6-19.8-35.5
		c-171.5,0-343,0-514.5,0c0.5,14.8-7.2,28.7-19.8,35.5c-15.4,8.3-33.4,3.6-44.2-6.1c-10.4-9.4-12.5-21.7-12.9-25.5
		c-1.7,2-14.8,18-10.2,37.8c4.2,18.1,20.2,28.8,34,31.7c20.2,4.1,42.3-7.2,53.1-28.3c171.5,0,343,0,514.5,0
		c10.8,21.1,32.9,32.4,53.1,28.3c13.9-2.8,29.8-13.5,34-31.7C849,393.8,835.9,377.8,834.2,375.8z"/>
	<circle class="st1" cx="500" cy="187.6" r="50"/>
	<circle class="st1" cx="500" cy="127.1" r="35"/>
	<path class="st1" d="M500,94.8c-5.5,2.8-11,5.7-16.5,8.5c2.6-4.2,5.4-9.7,7.7-16.4c3-8.9,4-16.8,4.3-22.7c1.5,0,3,0,4.5,0V94.8z"/>
	<path class="st1" d="M500,187.6c6.9,0.1,13.9,0.3,20.8,0.4c3,14.6,9.5,36.8,24.7,59.6c6.6,9.9,38.3,57.5,97.7,69.3
		c39.6,7.9,106.9,3,126.3-40.6c12.1-27.1,0-56.8-5.2-68c39.6,0.9,71.2,34.6,69.5,73.7c-1.7,39.5-36.6,70.7-76.6,67.6
		c-85.8,0-171.5,0-257.3,0C500,295.6,500,241.6,500,187.6z"/>
	<path class="st1" d="M500,94.8c5.5,2.8,11,5.7,16.5,8.5c-2.6-4.2-5.4-9.7-7.7-16.4c-3-8.9-4-16.8-4.3-22.7c-1.5,0-3,0-4.5,0V94.8z"
		/>
	<rect x="705" y="428.5" class="st1" width="30" height="380"/>
	<rect x="265" y="428.5" class="st1" width="30" height="380"/>
	<path class="st1" d="M316.9,534v-6.5h18v-9h9v-27h36v-36h27v-9h9v-18h6.5v-5H311.9V534H316.9z M329.9,522.5h-13v-13h4v9h9V522.5z
		 M338.9,513.5h-13v-13h13V513.5z M374.9,459.5h-13v-9h-9v-13h22V459.5z M343.9,468.5v-13h13v13H343.9z M347.9,450.5h-9v9h-13v-22
		h22V450.5z M325.9,464.5h13v9h9v13h-22V464.5z M352.9,486.5v-13h9v-9h13v22H352.9z M379.9,450.5v-18h-27v-4h40v4h-9v18H379.9z
		 M401.9,450.5h-13v-13h13V450.5z M410.9,441.5h-4v-9h-9v-4h13V441.5z M347.9,428.5v4h-27v59h18v4h-18v9h-4v-76H347.9z"/>
	<path class="st1" d="M688.1,534V423.5H577.6v5h6.5v18h9v9h27v36h36v27h9v9h18v6.5H688.1z M670.1,518.5h9v-9h4v13h-13V518.5z
		 M661.1,500.5h13v13h-13V500.5z M625.1,437.5h22v13h-9v9h-13V437.5z M643.1,468.5v-13h13v13H643.1z M652.1,437.5h22v22h-13v-9h-9
		V437.5z M674.1,486.5h-22v-13h9v-9h13V486.5z M625.1,486.5v-22h13v9h9v13H625.1z M616.1,450.5v-18h-9v-4h40v4h-27v18H616.1z
		 M598.1,437.5h13v13h-13V437.5z M589.1,428.5h13v4h-9v9h-4V428.5z M683.1,428.5v76h-4v-9h-18v-4h18v-59h-27v-4H683.1z"/>
	<rect x="242" y="824.6" class="st1" width="516" height="41.3"/>
	<rect x="188.7" y="875.2" class="st1" width="622.7" height="45.3"/>
	<path class="st1" d="M316.9,701.2v6.5h18v9h9v27h36v36h27v9h9v18h6.5v5H311.9V701.2H316.9z M329.9,712.7h-13v13h4v-9h9V712.7z
		 M338.9,721.7h-13v13h13V721.7z M374.9,775.7h-13v9h-9v13h22V775.7z M343.9,766.7v13h13v-13H343.9z M347.9,784.7h-9v-9h-13v22h22
		V784.7z M325.9,770.7h13v-9h9v-13h-22V770.7z M352.9,748.7v13h9v9h13v-22H352.9z M379.9,784.7v18h-27v4h40v-4h-9v-18H379.9z
		 M401.9,784.7h-13v13h13V784.7z M410.9,793.7h-4v9h-9v4h13V793.7z M347.9,806.7v-4h-27v-59h18v-4h-18v-9h-4v76H347.9z"/>
	<path class="st1" d="M688.1,701.2v110.5H577.6v-5h6.5v-18h9v-9h27v-36h36v-27h9v-9h18v-6.5H688.1z M670.1,716.7h9v9h4v-13h-13
		V716.7z M661.1,734.7h13v-13h-13V734.7z M625.1,797.7h22v-13h-9v-9h-13V797.7z M643.1,766.7v13h13v-13H643.1z M652.1,797.7h22v-22
		h-13v9h-9V797.7z M674.1,748.7h-22v13h9v9h13V748.7z M625.1,748.7v22h13v-9h9v-13H625.1z M616.1,784.7v18h-9v4h40v-4h-27v-18H616.1
		z M598.1,797.7h13v-13h-13V797.7z M589.1,806.7h13v-4h-9v-9h-4V806.7z M683.1,806.7v-76h-4v9h-18v4h18v59h-27v4H683.1z"/>
</g>
<g id="图层_10" class="st0">
</g>
<g id="图层_3" class="st0">
	<g class="st1">
		<g>
			<path d="M-117.3,1007.5c-1.5-8,10-15,16.3-17.5c12.9-5.2,28.9-1.1,41.4,10.6c-0.4-2.4-0.6-6,1.2-9.6c3.7-7.3,13.3-8.6,18.7-9.3
				c3.9-0.5,25.9-3,37.6,12.4c3.8,5,5.2,10.1,5.8,13.3c10.2-3.3,21,0.4,23.2,1.2c9.3,3.4,19.8,11.8,21.9,23.5
				c0.4,2,1.5,8.3-1.9,14.2c-3.6,6.3-10,8.4-14.9,10c-4,1.3-7.9,1.8-11.5,1.9c5.5,4,7.8,10,6,13.9c-1.3,2.9-4.6,4.1-5.6,4.5
				c-4.4,1.7-8.4,0.3-9.5-0.1c0.2,1.4,0.2,3.4-0.8,5.3c-3.4,6.8-16.1,6.6-22.6,5.4c-8.1-1.5-14-5.8-17.5-9.1
				c-1.5,1.9-3.7,4.5-6.8,7.2c-3.5,3.1-13.6,11.2-33.7,14.4c-23.4,3.8-43.1-1.8-61.9-7.3c-20-5.9-22.1-9.4-40.2-14.5
				c-21.3-6-39.6-7.5-51.8-7.9c23.1-4.8,40.6-2.8,52.4-0.1c14.3,3.3,27.1,9.3,42.4,4.4c7.6-2.5,13-6.7,16.4-9.9
				c-3.9,1.3-14,4.2-25.2,0.1c-8.4-3.1-20.7-11.5-21.1-23.6c-0.2-7.6,4.4-13.3,6.5-15.8c12.3-14.9,33.8-13.8,37.4-13.5
				C-116.3,1010.4-117,1009-117.3,1007.5z"/>
		</g>
	</g>
	<g class="st1">
		<g>
			<path d="M16.8,1061.7c2.3,1.8,6.9,6.2,5.2,9.7c-1.3,2.6-5.7,2.1-8,1.3c-3.5-1.3-7.6,2-7.3,5.6c0.5,6.6-9.8,5.8-14.2,5.4
				c-7.1-0.7-13.2-4-18.5-8.8c-2.3-2.1-6,0.1-7.4,1.9c-15.9,19.9-45.1,22.5-68.5,18.7c-13.9-2.3-28.1-6.4-41.2-11.5
				c-11.5-4.5-22.5-9-34.6-11.9c-14.6-3.5-29.5-5.5-44.5-6c-0.7,2.7-1.4,5.5-2.1,8.2c19.9-3.9,39.1-3.5,58.6,1.8
				c10,2.8,20.3,5.5,30.8,3.7c9.6-1.6,18.1-6.4,25.2-12.9c3.5-3.3,0.6-7.6-3.8-6.2c-9.5,3.2-19.6,2.1-28.1-3.1
				c-8.4-5.2-15.9-14.5-11.2-24.8c6.2-13.5,22.4-17.9,36.1-17c2.7,0.2,8.4-3.5,5.9-6.7c-6.4-8.2,9.9-15.9,16.2-16.9
				c11.8-1.9,23.1,4.1,31.6,11.8c3.1,2.8,8.7-1.4,8.2-5.1c-1.9-12.9,13.8-14,23.3-13.5c14.8,0.7,27.6,8.5,30.7,23.8
				c0.5,2.5,3.4,2.7,5.4,2.1c13.3-3.8,29.6,3.1,36.7,14.8c3.6,6,5.2,15,0.5,20.9c-4.5,5.6-14,7.1-20.7,7.4c-5.2,0.2-7.4,8.4-0.9,8.2
				c9.8-0.4,21.4-3.7,28.1-11.2c6.5-7.3,7.1-17.8,3.4-26.6c-7.5-18.2-30.7-26.1-48.7-20.9c1.8,0.7,3.6,1.4,5.4,2.1
				c-4-19.6-21.5-28.9-40.3-28.7c-15.3,0.2-35,6-32.2,25.2c2.7-1.7,5.5-3.4,8.2-5.1c-11.9-10.8-28.7-17-44.5-11.5
				c-9.9,3.5-28.6,16.6-19,28.7c2-2.2,3.9-4.5,5.9-6.7c-19.2-1.3-42.7,6.9-49.1,27c-4,12.8,4.3,24.1,14.9,30.4
				c11,6.5,23.7,7.3,35.8,3.3c-1.3-2.1-2.5-4.1-3.8-6.2c-7.1,6.5-16,10.4-25.7,10c-10-0.4-19.6-4.3-29.3-6.4
				c-17.3-3.7-35.2-3-52.5,0.4c-3.6,0.7-8.2,8-2.1,8.2c14.6,0.5,29.1,2.3,43.3,5.7c12.6,3,24,8.1,36.1,12.6
				c29.1,10.8,62.4,18.1,92.4,7.1c11.2-4.1,20.6-10.7,28-20c-2.5,0.6-5,1.3-7.4,1.9c8.1,7.5,18.4,11,29.4,10.4
				c10.1-0.5,20.5-5.6,19.7-17.1c-2.4,1.9-4.9,3.7-7.3,5.6c7,2.5,15.8,0.7,20.5-5.2c5.5-7,0.9-15.5-5.1-20.3
				C20.3,1052,12.7,1058.4,16.8,1061.7z"/>
		</g>
	</g>
	<g class="st1">
		<g>
			<g>
				<path d="M788.1,673.7c-6.8,0.1-13.8-0.8-20.4-2.3c-4.6-1-9.3,7.4-3.6,8.7c7.4,1.7,15,2.4,22.6,2.3
					C791.5,682.4,794.3,673.7,788.1,673.7L788.1,673.7z"/>
			</g>
		</g>
		<g>
			<g>
				<path d="M770.7,646.6c0.9-7.7,9.8-5.2,13.6-1.1c3.1,3.3,4.6,8.2,0.2,10.8c-3.4,1.9-7.8,2.4-11.7,2.4c-6.6-0.1-16.1-2.1-18.4-9.2
					c-3.2-9.8,6.7-20,15-23c4.6-1.6,4.7-10.9-1.2-8.8c-11.6,4.2-21,15.6-22.4,28.1c-1.3,11.6,6.6,19.1,17.3,21.4
					c9.2,2.1,21.6,1,28.3-6.5c7.4-8.4,3.6-21.3-5.7-26.5c-10.9-6.1-21.9,2.1-23.2,13.6C761.8,654.4,770.1,651.7,770.7,646.6
					L770.7,646.6z"/>
			</g>
		</g>
		<g>
			<g>
				<path d="M787.9,681.9c10.5-0.4,23.3-3.4,30.5-11.7c6.9-8,6.7-19.7,2.4-28.9c-8.9-18.8-34.2-28.5-53.7-22.8
					c-2.3,0.7-3.6,2.3-2.8,4.7l0,0c1.3,3.8,10.5,3.8,9.5-1c-4.3-21.4-23.2-32.2-43.8-32.6c-15.9-0.4-38.4,4.5-35.4,25.1
					c3-0.6,5.9-1.3,8.9-1.9c-13-11.8-31.1-19.7-48.7-14.4c-12.3,3.7-31,16.2-20.4,30.4c1.7,2.2,5.8,2.5,7.8,0.8l0,0
					c3.7-3-1.7-6.3-4.4-6.5c-20.3-1.4-47.5,7.6-52.1,30.2c-2.8,13.6,7.4,25.1,18.5,31.5c12.4,7.1,26.4,7.9,39.8,3.4
					c-2.3-2-4.5-4-6.8-6c-7.9,7.3-17.6,12-28.5,11.8c-11.1-0.1-21.7-4.6-32.4-7c-19.5-4.3-39.6-3.5-59.1,0.4c-6,1.2-2,7.3,2.4,7.5
					c15.6,0.5,31.1,2.6,46.3,6.1c13.9,3.3,26.5,8.9,39.8,13.9c32,11.8,68.1,19.9,101.3,8.2c12.1-4.2,22.2-11.2,30.2-21.2
					c-2.8,0-5.7,0-8.5,0c8.7,8.1,19.4,12.5,31.3,12.6c10.5,0.1,23.4-3.5,22.5-16.3c-2.3,1.1-4.6,2.2-6.9,3.3
					c6.8,2.5,15.1,2.1,20.6-3.1c6.5-6,3.8-15.2-1.2-21.1c-3.1-3.7-12-1-8,3.8c2.7,3.2,4.8,8.3,1.4,11.9c-2.2,2.3-6,3-8.9,1.9
					c-2.7-1-7.2-0.5-6.9,3.3c0.6,8.6-9.9,9-16.2,8.6c-7.5-0.5-14.3-3.7-19.8-8.7c-2.4-2.2-6.3-2.8-8.5,0
					c-17.9,22.4-50.2,26.1-76.8,21.6c-15.3-2.6-30.8-7-45.1-12.7c-12.5-5-24.7-9.9-37.9-13c-16.3-3.9-33.1-6.1-49.8-6.6
					c0.8,2.5,1.6,5,2.4,7.5c21.4-4.3,42.2-3.8,63.2,2c10.8,3,21.6,5.9,32.9,4.4c10.5-1.4,20.1-6.4,27.9-13.6c4.4-4.1-3.5-7.1-6.8-6
					c-10.3,3.5-21.3,2.1-30.4-3.7c-9.7-6.3-16.2-16.9-10.1-28.2c8-14.8,25.5-20,41.4-18.9c-1.5-2.2-3-4.3-4.4-6.5l0,0
					c2.6,0.3,5.2,0.5,7.8,0.8c-6.9-9.4,11.9-18.5,18.8-20c12.6-2.8,25.2,3.2,34.4,11.6c2.2,2,9.7,3.2,8.9-1.9
					c-2.3-15.7,15.7-17.7,26.8-17.5c15.9,0.4,29.5,8.7,32.8,25.1c3.2-0.3,6.4-0.7,9.5-1l0,0c-0.9,1.6-1.9,3.1-2.8,4.7
					c14.7-4.3,32.8,2.5,40.2,16.2c3.6,6.7,4.6,15.9,0,22.3c-5,7.1-16,9.6-24.1,9.9C780.2,674.5,782.2,682.1,787.9,681.9L787.9,681.9
					z"/>
			</g>
		</g>
		<g>
			<g>
				<path d="M654,629.4c-4.8-0.9-9.9-2.5-13.2-6.2c-4.1-4.7-8.2,3.6-5,7.3c4.3,4.9,10.3,7.5,16.6,8.7
					C657.7,640.1,658.6,630.3,654,629.4L654,629.4z"/>
			</g>
		</g>
		<g>
			<g>
				<path d="M722.5,703.6c-9.4,6.8-21.8,8.2-33.1,6.6c-10.1-1.4-22.4-6.2-26.9-16.2c-6.3-14.2,4.7-30.2,18-35.1
					c10-3.7,22.3-3.2,30.6,4c2.1,1.8,4.5,4.3,4.8,7.2c0.4,4.4-3.3,8.3-6.9,10.2c-7.7,3.9-18.6-0.2-17.6-9.8c0.5-5.1-7.1-9.2-7.8-2.7
					c-0.9,9.8,4.2,19.3,13.7,22.5c9.1,3.1,19.6-0.7,24.2-9.3c8.3-15.5-8-30.6-22.2-33.4c-18.2-3.6-37.4,5.9-43.9,23.7
					c-6.7,18.2,2.1,36,19,44.1c16.3,7.7,38.2,7.5,53.1-3.3C731.3,709.3,726.8,700.5,722.5,703.6L722.5,703.6z"/>
			</g>
		</g>
		<g>
			<g>
				<path d="M640.5,607.1c-14.4-1.1-28.9,7-32.3,21.6c-1.4,6.1,7.8,4.9,8.8,0.2c2.3-10.1,11.2-14.1,20.8-13.4
					C642.7,615.9,646.7,607.6,640.5,607.1L640.5,607.1z"/>
			</g>
		</g>
	</g>
	<g class="st1">
		<path d="M788.7,420.6c-17.1-1.4-29.5-8.1-35.7-12.1c-3.2,1.8-23.9,12.7-44.3,3.5c-6.2-2.8-10.7-6.7-13.8-10
			c-7.1,1.8-12.8,6.3-13.6,11.6c-1.3,7.6,7.2,18,21.2,18.5c-2.8,1.1-6.7,3.2-10,6.9c-9.8,11.2-9.1,31.6-2.4,41.7
			c22.2,33.1,107.6-3.5,124.4,26.4c4.9,8.7,3,21.6-2.4,30c-27.6,43.2-152.3-18.1-186.5,26.4c-6.5,8.5-11.8,23.5-4.6,52.2
			c1.9-1.2,5-2.9,9.1-3.9c3.7-0.9,7-0.8,9.1-0.6c2.6-2.3,6.6-5.3,12.1-7.6c8.8-3.6,16.7-3.4,20.9-2.9c-8.8-12.8-11.1-26.1-5.5-33.3
			c1.7-2.2,6.3-6.2,23.6-6.2c21.3,0,34.6,7.6,48.7,12.9c4.5,1.7,39.1,14.3,75.9,7.9c14.2-2.5,41.5-7.2,54.9-29.5
			c7.3-12.1,13.8-34.5,4.1-50.1c-24.3-39-131.5,7.8-157.1-32.7c-0.9-1.5-7.7-12.6-3.9-22.5c6-15.2,33.3-17,44.6-17.8
			c12.9-0.8,36.7-0.2,65.1,14.2c3.7,4.6,10.4,5.8,15.4,2.7c4.9-3,7-9.2,4.8-14.6c4.7,2.6,12.6,6.1,22.9,7c15.7,1.4,27.7-4,32.8-6.6
			c3.2,2.6,21.4,16.5,46.5,13c19.2-2.7,31.2-14,35-17.9c20.4-21.7,21.9-54.3,5.2-75.7c-13.9-17.8-38.6-25.3-61.8-18.6
			c28-2.3,51.4,14,56.1,34.9c5.5,24.6-17.5,44-18.7,44.9c-17.1,14-42.5,15.8-64.7,4.5c-2.7,1.8-19.1,12.3-39.2,6.9
			c-12.1-3.3-19.6-10.7-22.7-14.2C828.1,413.7,811.3,422.4,788.7,420.6z"/>
		<g>
			<path d="M789.7,416c-12-1.1-23.5-5.1-33.7-11.5c-1.3-0.8-2.8-0.6-4.1,0.1c-17.2,9.4-39.2,8.9-53.3-5.9c-1.1-1.1-2.2-1.5-3.7-1.1
				c-9.9,2.8-20.4,11.3-17.4,22.8c2.8,10.6,14,15.7,24,16.4c0.3-3,0.6-6,0.9-9c-19.1,8.1-26.2,31.7-18.9,50.5
				c5.4,13.8,19.2,19.4,33,21.2c16.6,2.1,33.5,0.3,50.2-0.2c12.4-0.4,29.1-1.9,39.7,6.1c13.1,10,6,31.4-6.8,38.2
				c-11.5,6.1-26.1,5.8-38.8,5.3c-32.4-1.3-65.1-9.5-97.6-6.4c-14.8,1.5-29.8,6-39.6,17.7c-13.5,16.1-11.3,39-6.6,58
				c0.6,2.3,3.4,2.7,5.2,1.6c4.1-2.6,8.7-4,13.6-3.9c4.5,0,6-2,9.6-4.4c7.7-5.1,16.7-6.9,25.8-6c3.5,0.3,6.5-5.1,4.6-7.9
				c-4.2-6.3-8.2-13.8-7.9-21.7c0.1-2.4,0.6-4.5,2-6.4c-0.6,0.7,0.9-0.6,1.5-0.9c4.3-2.2,9.5-2.4,14.2-2.6
				c7.9-0.3,15.7,0.5,23.3,2.4c10.4,2.7,20,7.5,30.1,11.1c8.9,3.1,18.1,5.4,27.4,6.9c24.4,4,50.7,2.7,73.9-6.2
				c23.6-9,39.7-28.8,42.3-54.2c1.2-10.9-0.7-22.7-8.4-31c-5-5.4-11.8-8.8-18.8-10.7c-17.5-4.9-36.7-3.3-54.7-2.3
				c-18.6,1-38.1,3-56.5-1c-7.3-1.6-14.6-4.3-20-9.6c-5.8-5.7-11.4-17.4-6.6-24.9c5.2-8.1,18.5-10,27.2-11.1
				c8.5-1.1,17.1-1.6,25.7-1.1c13.6,0.8,27.1,4.2,39.7,9.4c3.9,1.6,7.5,3.3,10.9,5.8c2.3,1.6,4.5,2.9,7.3,3.3
				c5.8,0.9,11.6-1.7,15.3-6.2c3.9-4.8,5.1-11,3.1-16.9c-2.3,2.1-4.7,4.3-7,6.4c18.8,10.1,40.8,10,59.8,0.3c-1.4,0-2.7,0.1-4.1,0.1
				c24.8,19.7,60.4,18.1,83.8-3.1c25.9-23.4,29.5-67,3.3-91.5c-15.8-14.8-38.8-18.7-59.3-13c-3.7,1-6.5,9.4-0.9,9
				c17.5-1.2,36.2,4.7,46.8,19.3c10,13.7,7.9,30.1-1.8,43.3c-7.5,10.1-17.9,16.9-30.5,19.1c-9.9,1.7-20.1,0.6-29.5-2.6
				c-3.8-1.3-8.5-5.1-12.4-3.4c-1.7,0.8-3.2,2-4.8,2.8c-17.6,8.9-39,5.2-52.3-9.5c-1.3-1.5-3.1-1.6-4.8-0.6
				C820,413.8,804.9,417.1,789.7,416c-4.7-0.3-7.8,8.8-2,9.2c16.7,1.1,33.4-2.9,47.8-11.3c-1.6-0.2-3.2-0.4-4.8-0.6
				c17.2,19.1,45.3,22,66.7,8c-1.4,0-2.7,0.1-4.1,0.1c24.4,12.1,55.2,10.8,74.6-10c8.2-8.8,14.9-19.7,16.4-31.8
				c1.7-13.6-3.7-26.4-13.4-35.8c-12.2-11.8-29.7-16.6-46.4-15.4c-0.3,3-0.6,6-0.9,9c32.7-9,67.8,12.4,68.9,47.6
				c1,30.6-24,56.2-54.7,56.1c-13.1-0.1-26.1-4.9-36.3-13c-1.2-1-2.8-0.5-4.1,0.1c-16.2,8.3-35.6,8.1-51.6-0.5
				c-3.6-1.9-8.3,2.7-7,6.4c2.9,8.5-5.9,11.5-11.8,6.7c-5.8-4.6-14-7.3-21-9.6c-11.9-4-24.4-6.3-36.9-6.6
				c-8.5-0.2-17.2,0.4-25.6,1.7c-10,1.6-20.8,4.2-28.4,11.3c-14.7,13.9-5.8,37.7,10,46.5c15,8.4,33.9,8.3,50.6,7.8
				c19.7-0.5,39.4-2.9,59.1-1.6c16,1,34.1,5.5,38.6,23.1c3.2,12.3-0.6,26.8-7.2,37.4c-6.4,10.5-17.1,17.1-28.5,21.1
				c-24.2,8.5-50.9,9-75.8,3.6c-7.6-1.6-15.1-3.7-22.3-6.5c-12.2-4.7-23.8-10.1-36.9-11.8c-10.6-1.4-24.3-2.2-34,3.4
				c-8.1,4.6-10.3,14.4-9,23.1c1.2,7.3,4.6,14.1,8.6,20.2c1.5-2.6,3.1-5.3,4.6-7.9c-13.2-1.3-26.1,3.2-36.1,11.9
				c1-0.5,2.1-0.9,3.1-1.4c-7.2-0.5-14.3,1.3-20.4,5.1c1.7,0.5,3.5,1,5.2,1.6c-3.8-15.4-6.9-36,4.7-49c8.3-9.3,21.8-12,33.8-12.9
				c31.8-2.4,63.5,5.3,95.2,6.6c12.9,0.5,26.8,0.3,39-4.7c14.2-5.9,23.4-19,23.8-34.6c1-36.1-47.6-28.9-70.7-27.9
				c-15.5,0.7-34.6,2.4-48.6-5.6c-16.5-9.5-18.7-40.5,0.4-48.6c3.4-1.4,6.8-8.6,0.9-9c-6.5-0.4-13.4-3.3-16.8-9.2
				c-3.7-6.6,2.3-10.2,8.3-11.9c-1.2-0.4-2.5-0.7-3.7-1.1c16.9,17.7,42.1,18.5,62.8,7.2c-1.4,0-2.7,0.1-4.1,0.1
				c11.4,7.2,24.1,11.4,37.6,12.6C792.4,425.7,795.5,416.6,789.7,416z"/>
		</g>
	</g>
	<g class="st1">
		<g>
			<g>
				<path d="M721,332.3c-1.1-9.7-9.4-17.3-19.3-14.1c-9.7,3.1-17.2,13.9-15.1,24.2c2.2,10.7,14.3,13.9,23.8,14
					c9.7,0.1,20.9-3.2,26.1-12c6.1-10.4,1.8-23.7-5.4-32.4c-7.7-9.3-19.1-13-31-11.9c-20,1.8-39.8,15.7-43.3,36.4
					c-2.3,13.8,3.7,25.8,16.6,31.4c14.1,6.1,29.6,5.4,44.3,2.1c4.6-1,5.7-11,0.6-9.8c-9.2,2.1-19.4,3.5-28.8,2.1
					c-8-1.2-18.1-4.3-22.8-11.4c-10.5-15.8,7.1-33.3,21.1-38.3c13.2-4.8,29.2-3.9,38.3,8c5,6.6,9.4,17.5,0.4,22.7
					c-5.6,3.3-13.3,4-19.6,3.1c-7.9-1.1-18.6-7.4-9.3-15.7c5.9-5.3,14.9-3.7,15.9,4.9C714.2,342,721.6,337.4,721,332.3L721,332.3z"
					/>
			</g>
		</g>
		<g>
			<g>
				<path d="M860,310.4c9.2,1,18.4,3.5,26.3,8.4c10.7,6.5,22.5,19.8,17.8,33.2c-5.1,14.3-21,21.7-35.3,20.6
					c-4.7-0.4-10-2.3-14.7-1.8c-4.3,0.4-5.6,4.3-2.4,7.2c1.6,1.4,3.7,2,5.5,3.1c2.6,1.6,4.1,5,1.3,7.6c-4.9,4.4-16.9-2.8-21.1-5.2
					c-4.9-2.8-10.6,2.6-4.9,5.9c8.8,5.1,35.1,16.5,37.1-2.1c0.7-6.1-4.3-11.4-9.8-13.5c-0.4-0.2-0.9-0.7-1.3-0.7
					c-1.9,0-2,5.2-1.8,5.4c0.4,0.3,2.4,0.4,3,0.5c3.8,0.6,7.7,1.2,11.6,1.4c16.5,0.7,33.2-6.7,40.9-21.9c7.6-15-1.9-30.7-13.6-40.4
					c-10.9-9.1-24.7-13.9-38.6-15.4C853.4,302,854.3,309.8,860,310.4L860,310.4z"/>
			</g>
		</g>
		<g>
			<g>
				<path d="M718.5,308.2c3.7-18.4,19.9-27.6,37.6-28.3c11.2-0.4,33.1,1,30.8,16.6c-0.4,2.4,2.5,9.2,5.8,6.2
					c12.5-11.4,30.6-19.3,47.2-12.4c5.4,2.2,13.4,6.3,15.8,12c3.2,7.6-10.7,11.7-15.7,12.6c-4.9,0.9-2.7,10.7,2.3,9.7
					c9.3-1.8,20.3-6.9,21.5-17.5c1.2-10-7.3-17.7-15-22.4c-20.1-12.3-43.6-6.2-60.3,9c1.9,2.1,3.9,4.1,5.8,6.2
					c1.8-12.2-4-22.8-15.9-26.8c-6.6-2.2-13.8-3.1-20.8-3.1c-22.3,0.1-42,11.6-46.6,34.7C710,309.8,717.2,314.6,718.5,308.2
					L718.5,308.2z"/>
			</g>
		</g>
		<g>
			<g>
				<path d="M693.5,364.3c-6.8,3.7-13.5,11.9-11.2,20.2c2.7,9.9,15.9,10.7,23.9,8.6c-1.9-1.2-3.8-2.4-5.7-3.6
					c-1.1,13.6,12.6,17.4,23.7,17.4c13,0,24.7-4.9,34.3-13.7c-2.8,0-5.7,0.1-8.5,0.1c11.3,16.5,32.4,21,51.3,18.4
					c18-2.4,38.2-13.2,40.5-33c2.6-22.7-15.7-41-37.4-43.4c-9.4-1-19.2,0.6-27.2,5.7c-6.7,4.2-13.3,11.1-13.6,19.4
					c-0.5,13.1,13.4,21.5,25.2,20.1c12.3-1.4,21.2-11.2,20-23.7c-0.5-4.9-10.3-2.9-9.8,2.1c0.8,8.5-5.9,15.8-14.6,14
					c-8.9-1.9-13.9-12-8.6-19.7c7.1-10.3,21.3-12.3,32.6-9c16.2,4.8,28.1,22.9,22.5,39.8c-4.2,12.7-18.2,18.8-30.5,20.4
					c-15.2,2.1-32.2-1.7-41.3-15c-2-3-6.3-1.9-8.5,0.1c-6.3,5.8-14.2,9.3-22.8,9.7c-6.9,0.3-18.1-0.4-17.3-9.8
					c0.2-3-3.2-4.3-5.7-3.6c-4.5,1.2-12.5,1.3-12.8-5.1c-0.2-3.8,2.5-8.1,5.8-9.9C703.4,367.8,698.6,361.6,693.5,364.3L693.5,364.3z
					"/>
			</g>
		</g>
	</g>
	<g class="st1">
		<g>
			<path d="M844.5,408.7c9.2,8.4,21.8,12.4,33.9,8c8.5-3.1,14.8-10.2,18.3-18.3c-2.1,0.2-4.3,0.5-6.4,0.7
				c13.8,20,43.8,20.6,62.5,7.2c19.6-14,22-45.4-0.1-58.4c-9.2-5.5-20.5-5.7-30.1-0.6c-4.2,2.2-1.6,11.9,3.1,9.4
				c8.2-4.4,17.8-4,25.5,1.1c10.8,7.1,12.3,20.5,5.9,31.2c-11.4,19-47.6,23.8-61,4.5c-2.1-3-5-2.5-6.4,0.7c0.4-0.9-0.8,1.5-1,1.8
				c-0.7,1.2-1.4,2.3-2.3,3.4c-2.6,3.3-5.9,5.9-9.8,7.5c-9.5,4-20.3,1.1-27.7-5.7C844.4,396.9,840.9,405.4,844.5,408.7L844.5,408.7z
				"/>
		</g>
	</g>
	<g class="st1">
		<g>
			<g>
				<path d="M211.4,682.6c7.5,0.1,15.2-0.8,22.6-2.4c4.7-1.1,6.4-10.2,0.3-8.8c-6.7,1.5-13.6,2.3-20.4,2.2
					C209.2,673.5,205.7,682.6,211.4,682.6L211.4,682.6z"/>
			</g>
		</g>
		<g>
			<g>
				<path d="M238.4,646.8c-1.2-10.3-10.9-16.1-20.7-13c-9.2,2.9-18,14.1-12.6,23.7c4.9,8.8,18,10.4,27,9.4
					c9.7-1.1,20.9-5.7,22.8-16.4c2.5-13.9-9.2-27.4-21.5-31.8c-4.9-1.8-10.7,4.6-4.5,6.9c8.8,3.2,16.9,12.9,16.3,22.7
					c-0.5,8.7-10.1,11.4-17.4,11.3c-8.2-0.1-18.9-4.8-12.2-14.5c1.6-2.3,5-5.3,8-4.7s4.6,4.5,4.9,7.2
					C229,652.6,238.9,651.8,238.4,646.8L238.4,646.8z"/>
			</g>
		</g>
		<g>
			<g>
				<path d="M213.3,674.3c-7.9-0.3-18.3-2.6-23.6-9.1c-5.2-6.5-4.4-16.1-0.6-23.1c7.4-13.7,25.4-20.5,40.1-16.3c-1-1.2-2-2.5-3-3.7
					l0,0c3.3,0.1,6.6,0.1,9.8,0.2c3.3-16.3,16.9-24.8,32.8-25.1c5-0.1,7.9,0.2,12.1,1c9,1.6,16.3,6.1,14.8,16.4
					c-0.7,5,6.6,4.1,8.9,2.1c9.2-8.3,21.8-14.4,34.4-11.6c6.8,1.5,25.8,10.6,18.9,20c2.6-0.2,5.2-0.5,7.9-0.7l0,0
					c-1.5,2.2-3,4.3-4.5,6.5c16.1-1.1,33.8,4.2,41.7,19.5c5.9,11.3-1.3,21.9-10.9,27.9c-9.5,6-20.5,6.6-30.9,3.1
					c-3.3-1.1-9.4,2.9-5.8,6.3c7.5,7,16.8,12,27,13.5c11.6,1.8,22.7-1.2,33.8-4.3c21-5.8,41.8-6.3,63.2-2c0.8-2.5,1.7-5,2.5-7.4
					c-28.8,1-56.9,6.7-83.4,17.9c-29.3,12.3-64,21.4-95.3,12.6c-12.2-3.4-23-9.7-31-19.6c-2.2-2.7-6.1-2.3-8.5-0.1
					c-5.5,5.1-12.3,8.3-19.8,8.8c-6.2,0.4-16.8,0-16.2-8.5c0.3-3.7-4.2-4.4-6.9-3.4c-2.9,1.1-6.7,0.5-8.9-1.8
					c-3.4-3.6-1.3-8.7,1.4-11.9c4-4.8-4.8-7.6-7.9-3.9c-5,5.9-7.7,15.1-1.2,21.1c5.5,5.1,13.8,5.7,20.6,3.2
					c-2.3-1.1-4.6-2.3-6.9-3.4c-0.9,12.8,11.8,16.5,22.4,16.4c11.9-0.1,22.6-4.5,31.3-12.6c-2.8,0-5.7-0.1-8.5-0.1
					c17.9,22.3,47.9,28.9,75.4,26.6c17.2-1.4,34.1-6.2,50.4-11.6c12.9-4.3,24.9-10.4,38-14c17.5-4.8,35.5-7.4,53.7-8
					c4.2-0.1,8.7-6.2,2.5-7.4c-19.5-3.9-39.6-4.7-59.1-0.4c-10.5,2.3-20.8,6.6-31.6,7c-11.2,0.4-21.3-4.3-29.4-11.8
					c-1.9,2.1-3.9,4.2-5.8,6.3c12.9,4.4,26.9,3,38.7-3.7c11.2-6.4,21.7-18.3,18.3-32.2c-5.4-22.1-31.6-30.9-51.9-29.6
					c-2.7,0.2-8.2,3.4-4.5,6.5l0,0c2,1.7,6.2,1.6,7.9-0.7c10.5-14.3-8-26.7-20.4-30.5c-17.6-5.3-35.8,2.5-48.7,14.3
					c3,0.7,5.9,1.4,8.9,2.1c3-20.6-19.4-25.5-35.4-25.2c-20.6,0.5-39.6,11.1-43.9,32.5c-1.1,5.4,8.4,4.4,9.8,0.2l0,0
					c0.6-1.9-1.6-3.3-3-3.7c-19.6-5.7-44.7,3.9-53.7,22.7c-4.4,9.1-4.6,20.9,2.3,28.9c7.1,8.3,20,11.3,30.4,11.8
					C217.7,682.1,219.9,674.6,213.3,674.3L213.3,674.3z"/>
			</g>
		</g>
		<g>
			<g>
				<path d="M348.1,639.1c6.3-1.2,12.3-3.7,16.6-8.6c3.1-3.6-2-11.8-5.8-7.4c-3.3,3.8-8.4,5.4-13.2,6.3
					C340.7,630.3,343.1,640,348.1,639.1L348.1,639.1z"/>
			</g>
		</g>
		<g>
			<g>
				<path d="M271.9,711.7c25.5,18.4,81.2,5.4,75.2-33.1c-3-19.4-20.8-31.9-40-31c-13.4,0.6-32.5,10.6-31.4,26.5
					c0.8,11.4,12.8,18.4,23.4,16.6c11-1.8,19.2-11.4,18.1-22.7c-0.6-5.8-9.5-2.2-9.1,2.5c0.8,8.3-5.7,13.8-13.8,11.4
					c-7-2-12.1-10-7.7-16.6c5.7-8.6,17.7-10.5,27.5-8.3c14.1,3.2,25,15.5,24.4,30.4c-0.5,12.7-11.4,19.8-22.7,22.6
					c-12.5,3.1-27,1.8-37.6-5.8C274.3,701.3,267.6,708.5,271.9,711.7L271.9,711.7z"/>
			</g>
		</g>
		<g>
			<g>
				<path d="M360.6,615.4c-0.1,0-0.1,0,0.9,0c0.7,0,1.5,0,2.2,0.1c2.2,0.1,4.4,0.5,6.5,1.2c6.7,2.2,11.1,7.1,12.7,14
					c1.2,5.2,10.2,1,9.1-3.7c-3.3-14.4-17-20.8-30.8-19.7C356,607.6,354.1,615.9,360.6,615.4L360.6,615.4z"/>
			</g>
		</g>
	</g>
	<g class="st1">
		<path d="M211.3,420.6c17.1-1.4,29.5-8.1,35.7-12.1c3.2,1.8,23.9,12.7,44.3,3.5c6.2-2.8,10.7-6.7,13.8-10
			c7.1,1.8,12.8,6.3,13.6,11.6c1.3,7.6-7.2,18-21.2,18.5c2.8,1.1,6.7,3.2,10,6.9c9.8,11.2,9.1,31.6,2.4,41.7
			c-22.2,33.1-107.6-3.5-124.4,26.4c-4.9,8.7-3,21.6,2.4,30c27.6,43.2,152.3-18.1,186.5,26.4c6.5,8.5,11.8,23.5,4.6,52.2
			c-1.9-1.2-5-2.9-9.1-3.9c-3.7-0.9-7-0.8-9.1-0.6c-2.6-2.3-6.6-5.3-12.1-7.6c-8.8-3.6-16.7-3.4-20.9-2.9
			c8.8-12.8,11.1-26.1,5.5-33.3c-1.7-2.2-6.3-6.2-23.6-6.2c-21.3,0-34.6,7.6-48.7,12.9c-4.5,1.7-39.1,14.3-75.9,7.9
			c-14.2-2.5-41.5-7.2-54.9-29.5c-7.3-12.1-13.8-34.5-4.1-50.1c24.3-39,131.5,7.8,157.1-32.7c0.9-1.5,7.7-12.6,3.9-22.5
			c-6-15.2-33.3-17-44.6-17.8c-12.9-0.8-36.7-0.2-65.1,14.2c-3.7,4.6-10.4,5.8-15.4,2.7c-4.9-3-7-9.2-4.8-14.6
			c-4.7,2.6-12.6,6.1-22.9,7c-15.7,1.4-27.7-4-32.8-6.6c-3.2,2.6-21.4,16.5-46.5,13c-19.2-2.7-31.2-14-35-17.9
			c-20.4-21.7-21.9-54.3-5.2-75.7c13.9-17.8,38.6-25.3,61.8-18.6c-28-2.3-51.4,14-56.1,34.9c-5.5,24.6,17.5,44,18.7,44.9
			c17.1,14,42.5,15.8,64.7,4.5c2.7,1.8,19.1,12.3,39.2,6.9c12.1-3.3,19.6-10.7,22.7-14.2C171.9,413.7,188.7,422.4,211.3,420.6z"/>
		<g>
			<path d="M211.8,424.4c13.5-1.2,26.6-5.6,38.1-12.9c-2,0.1-4.1,0.1-6.1,0.2c21.1,11.5,47.9,10.6,65.1-7.5c-2,0.5-4,0.9-5.9,1.4
				c6.1,1.7,13.1,6.3,10.1,13.5c-2.7,6.4-9.7,9-16.1,9.4c-3.1,0.2-6.8,5.1-2.7,6.8c10.5,4.4,15.1,14.1,15.5,25.1
				c0.4,8.1-1.5,17-7.6,22.8c-9.8,9.2-26.4,9.1-39,8.9c-16.1-0.2-32.1-2-48.2-1.2c-12.1,0.6-26.8,3.1-33.7,14.4
				c-8.9,14.5-1.5,34.8,12,43.6c10.6,6.9,24.3,8.3,36.6,8.4c31.9,0.4,63.3-7.4,95.2-7.1c13.9,0.1,30.1,1.5,40.9,11.2
				c15.1,13.6,12.4,36.4,8,54c2.7-0.9,5.4-1.8,8.1-2.7c-6.6-4.1-14.1-5.7-21.9-5.1c1.5,0.4,3,0.8,4.5,1.3
				c-10.4-9.1-23.7-13.1-37.5-11.8c1.7,1.7,3.4,3.3,5,5c6.4-9.7,13.5-25.3,5.6-36.3c-4.5-6.2-13.4-7.6-20.5-8.1
				c-14.1-1.1-28.1,1.3-41.3,6.2c-8.2,3.1-16.1,6.8-24.5,9.3c-24.5,7.5-50.3,8.8-75.3,3.2c-10.7-2.4-21.4-6.1-30.2-12.9
				c-10.1-7.8-16.3-19.4-18.9-31.8c-2.3-11.1-1.8-24.3,6.9-32.6c5.1-4.8,12.1-7.1,18.9-8.3c18.5-3.3,37.7-1.2,56.3-0.3
				c18.3,0.9,37.9,2.1,55.7-3.5c15.4-4.9,31.1-19.8,27.7-37.6c-3.9-20.6-33.1-22.8-49.6-23.8c-10.1-0.6-20.3,0-30.2,1.8
				c-13.9,2.6-29.8,6.8-41.1,15.5c-2.6,2-5.9,1.5-8.2-0.8c-2.8-2.8-2.9-6.6-1.7-10c1.5-4.3-5.6-4.4-7.8-3.2
				c-15.5,8.3-34,8.2-49.6,0.2c-2.4-1.2-5-0.7-7,0.9c-7,5.5-18.5,10.6-28.7,11.7c-15.2,1.7-30.5-3.8-41.9-13.9
				C4.6,408,1,370.4,22.8,348.9c13.5-13.4,33.4-17.3,51.5-12.3c1-2.4,1.9-4.9,2.9-7.3c-27.2-1.9-61,13.8-62.6,44.5
				c-1.2,22.8,17.2,44,37.9,51.3c17.9,6.3,37.4,3.4,54.1-4.9c-2,0.1-4.1,0.1-6.1,0.2c21.7,14.3,51.4,11.1,68.9-8.3
				c-2.3,0.3-4.7,0.6-7,0.9C177.5,421.8,194.6,425.5,211.8,424.4c6.3-0.4,5.2-7.9-1-7.4c-14.7,1-29.3-2.6-42-10
				c-2-1.2-5.4-0.8-7,0.9c-11.9,13.2-29.8,17.5-46.4,10.9c-4.8-1.9-9.3-6.5-14.6-4.2c-9.7,4.1-19.1,7-29.7,6.4
				c-13.6-0.8-25.7-6.8-34.6-17c-9.9-11.5-15.7-27.4-9.1-42c8.4-18.3,29.1-26.3,48.2-25c4.4,0.3,8.8-5.7,2.9-7.3
				C60,324.6,39.4,327,23.4,338c-15,10.3-24.2,27-25.1,45.2c-1.6,35.3,27.1,65.6,62.3,66.5c16.1,0.4,32-5.2,44.5-15.2
				c-2.3,0.3-4.7,0.6-7,0.9c19.5,10.1,42.5,9.8,61.8-0.6c-2.6-1.1-5.2-2.2-7.8-3.2c-4.3,12.6,8.2,23.1,20.3,19.7
				c2.5-0.7,4.6-1.9,6.7-3.5c3.6-2.7,7.8-4.4,12-6.1c6.9-2.7,14.1-5,21.4-6.4c9.9-2,20-2.6,30.1-1.9c9.4,0.6,19.3,1.5,28.1,5.2
				c4.4,1.8,8.8,4.6,11,9c2.8,5.8,1.2,12.7-1.6,18.2c-3,5.9-7.7,10.3-13.8,12.9c-16.1,7.2-35.9,5.5-52.9,4.7
				c-19.1-0.9-38.6-2.9-57.6-0.3c-16.5,2.2-32.8,9.3-38,26.5c-7.1,23.5,6.5,51.1,26.6,63.5c19.8,12.2,46.5,15.6,69.2,14.5
				c21.1-1,40.9-6.5,60.3-14.4c13.5-5.5,27.1-8.9,41.8-7.8c8.7,0.7,15.5,2.6,15.6,12.6c0.1,7.9-3.9,15.3-8.1,21.7
				c-2.2,3.3,2.5,5.3,5,5c8.8-0.8,17.6,1.4,24.9,6.5c3.5,2.4,4.8,4,9.2,4c4.9,0,9.3,1.4,13.4,3.9c2.6,1.6,7.3,0.4,8.1-2.7
				c4.2-17.2,6.7-37.9-4.2-53.3c-7.6-10.7-19.8-16.1-32.4-18.4c-31.6-5.8-64.5,1.9-96.1,4.5c-13.7,1.1-28.3,2-41.7-1.8
				c-14.7-4.2-25.2-18.3-21.2-34.2c3.4-13.7,19.8-14.6,31.4-14.7c16.5-0.2,33,1.8,49.5,1.3c15.6-0.4,34.1-2.5,44.2-16
				c12.6-16.9,7.1-46-12.8-54.4c-0.9,2.3-1.8,4.5-2.7,6.8c10.1-0.7,21.3-6,24.9-16.1c3.9-11-6.3-18.6-15.8-21.3
				c-1.9-0.5-4.5-0.1-5.9,1.4c-13.8,14.5-34.2,14.8-51,5.6c-1.8-1-4.3-0.9-6.1,0.2c-10.1,6.4-21.3,10.1-33.2,11.2
				C204.6,417.5,205.6,424.9,211.8,424.4z"/>
		</g>
	</g>
	<g class="st1">
		<g>
			<g>
				<path d="M286.6,333.5c0,0.2,0.1-0.7,0.4-1.5c0.6-1.6,1.4-3,3-3.9c3.6-2,8.2-0.1,11.1,2.2c2.5,2,5.1,5.4,4.9,8.7
					c-0.2,3.7-4.4,5.4-7.5,6.4c-13,4-36.5-1.5-28.6-19.5c13.2-30,66.2-14.3,66,16.6c-0.1,11.3-10,16-19.5,18.6
					c-10.7,2.9-22.7,1.4-33.3-0.9c-4.9-1.1-7.5,8.6-2.6,9.7c22,4.9,59.3,4.3,62.9-25.1c2.6-21.6-15.7-39.2-35.6-43.6
					c-10.6-2.4-22.2-1.7-31.4,4.6c-9.5,6.5-16.9,19.3-15.9,31c1.9,21.2,36.9,26.5,49.2,11.6c8.1-9.7,2.4-24.2-8.2-29.2
					c-11.5-5.5-21.5,3.6-22.8,15C278.2,340.7,286,339.2,286.6,333.5L286.6,333.5z"/>
			</g>
		</g>
		<g>
			<g>
				<path d="M139.4,302.8c-12.1,1.3-24.2,5.1-34.1,12.1c-11.9,8.3-24.1,23.5-19.2,38.9c5,15.6,21.4,25.6,37.2,26.5
					c4.1,0.2,8.3-0.1,12.3-0.6c1.4-0.2,8.1-0.7,8.4-1.3c-0.4-0.9-0.7-1.8-1.1-2.7c0-2.5-0.5-3.3-1.6-2.4c-0.3,0-0.6,0.4-0.9,0.4
					c-1.2,0.3-2.5,1.3-3.5,1.9c-2.5,1.6-4.9,3.7-6,6.6c-2.9,7.4,3,14,10.1,15c9.5,1.3,19.2-3.4,27.2-8c2-1.1,2.5-3.8,0.8-5.4
					c-1.9-1.8-5-1.3-7-0.1c-4.3,2.5-14.2,8.5-19.6,5.8c-2.5-1.2-2.9-5-1.2-7c1.3-1.5,3.4-2.2,5.1-3.1c2.9-1.6,6.3-5.4,2-7.8
					c-3.5-1.9-9.1,0.1-12.7,0.6c-14.7,2.1-29.9-2.3-37.7-15.9c-7.6-13.2,1.6-27,12.4-35c8.9-6.6,19.6-9.9,30.5-11
					C147,309.6,145.5,302.2,139.4,302.8L139.4,302.8z"/>
			</g>
		</g>
		<g>
			<g>
				<path d="M290.1,305.3c-4.6-23.1-25.4-34.1-47.5-34.2c-17.6-0.1-41.5,5.9-38.1,28.3c2.9-1.3,5.7-2.7,8.6-4
					c-16.8-15.3-40.9-21.9-61.6-10.2c-7.3,4.1-16.7,11-16.5,20.4c0.2,11,13.1,16.2,22.1,17.9c5.1,1,9.8-6.2,3.4-7.5
					c-6.1-1.2-17.5-5.1-15.4-13.5c1.5-6.3,9.4-10.6,14.8-13.1c16-7.3,33.6,0.6,45.7,11.6c2.9,2.6,9.2,0.1,8.6-4
					c-2.5-16.8,17.1-18.7,29.3-18.3c17.9,0.6,33.1,10.5,36.8,28.8C281.4,312.5,291.1,310.2,290.1,305.3L290.1,305.3z"/>
			</g>
		</g>
		<g>
			<g>
				<path d="M301,370.8c3.4,1.8,5.9,4.8,6.9,8.6c1.9,7.3-5.9,7.7-10.9,6.4c-2.6-0.7-7.6,0.9-7.3,4.4c0.7,9.3-9.8,9.4-16.7,9
					c-8.8-0.6-16.8-4.3-23.2-10.3c-2.5-2.3-6.6-1.4-8.4,1.3c-8.1,11.8-22.6,15.4-36.2,14.5c-12.5-0.8-27-5.7-33.8-17.1
					c-8.8-14.9-0.1-35.2,15-41.8c11.3-5,25.6-3.9,34.8,4.8c6.8,6.4,8.1,17.8-2.2,21.7c-10.1,3.9-18.7-5.4-17.8-15.1
					c0.5-5.2-9.3-3.4-9.7,1.4c-2.5,25.6,35.2,29.5,43.8,7.8c7.4-18.6-16.4-31.1-31.4-31.4c-22-0.5-42.6,14.1-45.4,36.8
					c-2.5,20.8,14.2,34.7,32.8,39c20.8,4.9,45.7,0.6,58.5-18c-2.8,0.4-5.6,0.8-8.4,1.3c9.4,8.7,21,13.3,33.9,13
					c11-0.2,25.3-4.7,24.2-18.2c-2.4,1.5-4.9,2.9-7.3,4.4c8.6,2.2,20.8,1.1,24.9-8.2c3.4-7.7-2.4-17-9.2-20.7
					C303.7,362.1,296,368.1,301,370.8L301,370.8z"/>
			</g>
		</g>
	</g>
	<g class="st1">
		
			<radialGradient id="SVGID_13_" cx="559.787" cy="967.4972" r="112.5106" gradientTransform="matrix(0.9508 0 0 0.9508 24.6045 -463.0463)" gradientUnits="userSpaceOnUse">
			<stop  offset="0" style="stop-color:#F9AE3B"/>
			<stop  offset="1" style="stop-color:#EB1C24"/>
		</radialGradient>
		<path class="st18" d="M541,391.1c-9-5.6-18-11.2-27-16.9c19-11,38-21.9,57-32.9c27.8,15.5,55.6,31,83.4,46.5
			c0,31.9,0.1,63.8,0.1,95.7c-51.8,29.6-103.6,59.3-155.4,88.9c-13.3-7.6-26.6-15.3-39.9-22.9c0-10.9,0.1-21.8,0.1-32.7
			c13.4,7.5,26.8,15,40.3,22.6c42.1-24.2,84.2-48.3,126.3-72.5c-0.1-20.9-0.3-41.7-0.4-62.6c-17.6-10.1-35.1-20.1-52.7-30.2
			C562.2,379.9,551.6,385.5,541,391.1z"/>
		
			<radialGradient id="SVGID_14_" cx="559.7344" cy="967.5497" r="106.8203" gradientTransform="matrix(0.9508 0 0 0.9508 24.6045 -463.0463)" gradientUnits="userSpaceOnUse">
			<stop  offset="0" style="stop-color:#F9AE3B"/>
			<stop  offset="1" style="stop-color:#EB1C24"/>
		</radialGradient>
		<polygon class="st19" points="464.2,546.7 464.2,525.4 499.5,545.2 630.9,469.9 630.5,401.5 572.9,368.5 541.2,385.3 523.7,374.4 
			571,347.1 649.4,390.8 649.4,480.7 499.1,566.7 		"/>
		
			<radialGradient id="SVGID_15_" cx="461.3962" cy="938.3112" r="109.8772" gradientTransform="matrix(0.9508 0 0 0.9508 24.6045 -463.0463)" gradientUnits="userSpaceOnUse">
			<stop  offset="0" style="stop-color:#F9AE3B"/>
			<stop  offset="1" style="stop-color:#EB1C24"/>
		</radialGradient>
		<path class="st20" d="M582.2,430c-52.3-29.5-104.5-59-156.8-88.6c-27,15.5-53.9,30.9-80.9,46.4c0,31.9-0.1,63.8-0.1,95.7
			c19.5,11.1,39,22.2,58.5,33.3c0.3-10.8,0.6-21.6,0.9-32.4c-10.3-5.9-20.5-11.8-30.8-17.7c0-20.8-0.1-41.6-0.1-62.5
			c17.7-10.2,35.4-20.5,53-30.7c42.4,24.3,84.8,48.7,127.2,73c0.1,15.4,0.3,30.7,0.4,46.1c9.5-5.5,19.1-11.1,28.6-16.6
			C582.2,460.8,582.2,445.4,582.2,430z"/>
		
			<radialGradient id="SVGID_16_" cx="461.3962" cy="936.944" r="103.7705" gradientTransform="matrix(0.9508 0 0 0.9508 24.6045 -463.0463)" gradientUnits="userSpaceOnUse">
			<stop  offset="0" style="stop-color:#F9AE3B"/>
			<stop  offset="1" style="stop-color:#EB1C24"/>
		</radialGradient>
		<polygon class="st21" points="349.4,480.7 349.5,390.8 425.4,347.2 577.2,432.9 577.2,473.3 558.5,484.2 558.2,443.8 426.1,367.9 
			368,401.5 368.1,469.8 398.8,487.4 398.2,508.4 		"/>
		
			<radialGradient id="SVGID_17_" cx="499.0487" cy="1046.3256" r="111.3219" gradientTransform="matrix(0.9508 0 0 0.9508 24.6045 -463.0463)" gradientUnits="userSpaceOnUse">
			<stop  offset="0" style="stop-color:#F9AE3B"/>
			<stop  offset="1" style="stop-color:#EB1C24"/>
		</radialGradient>
		<path class="st22" d="M485.9,423.1c-13.3,7.8-26.6,15.5-39.9,23.2c0,49,0,98,0,146.9c18,10.1,36,20.2,53.9,30.2
			c17.9-10.3,35.8-20.5,53.6-30.8c0.1-12,0.3-24.1,0.4-36.1c9.2-5.2,18.5-10.4,27.7-15.7c-0.3,22.9-0.5,45.7-0.8,68.6
			c-27.2,15.8-54.5,31.5-81.7,47.3c-27.5-15.9-55-31.8-82.5-47.6c0.1-59.7,0.3-119.4,0.4-179.1c13.5-7.7,27-15.4,40.6-23.1
			C467,412.4,476.5,417.7,485.9,423.1z"/>
		
			<radialGradient id="SVGID_18_" cx="499.1013" cy="1046.4833" r="105.6867" gradientTransform="matrix(0.9508 0 0 0.9508 24.6045 -463.0463)" gradientUnits="userSpaceOnUse">
			<stop  offset="0" style="stop-color:#F9AE3B"/>
			<stop  offset="1" style="stop-color:#EB1C24"/>
		</radialGradient>
		<polygon class="st23" points="421.7,606.3 422,433.1 457.6,412.8 475.9,423.1 441,443.5 441,596.2 500,629.3 558.6,595.7 
			559,559.6 576.6,549.6 576,606.7 499.2,651.1 		"/>
	</g>
</g>
<g id="图层_5" class="st0">
	<path class="st24" d="M500.1,748c150-86.7,300-173.4,450-260.1c0-38.6,0-127.3,0-165.9c0,0-0.1,0-0.1,0.1L609.9,517.7l-0.4,83
		c-36.5,21-72.9,42.1-109.4,63.1C500.1,675.2,500.1,736.6,500.1,748z"/>
	<line class="st11" x1="500" y1="-94.5" x2="500" y2="1094.5"/>
	<g class="st1">
		<g>
			<g>
				<path class="st25" d="M819.9,744.2c-2.8,6.5-4.4,13.4-4.8,20.4l-15.5-0.9c0.6-10.1,3.2-20,7.6-29.1l2,1
					c-4,8.1-6.5,16.9-7.3,25.9l11,1c0.5-6,1.9-11.8,4.1-17.4l-1.5-0.6c-2,5.1-3.4,10.4-4,15.9l-7.6-0.9c0.9-8,3.2-15.9,6.8-23.1l2,1
					c-3.1,6.4-5.2,13.2-6.3,20.2l3.1,0.5c0.9-5.6,2.4-11.1,4.7-16.3L819.9,744.2z"/>
				<path class="st25" d="M824.6,743.2c-3.8,7.7-5.8,16.3-5.8,25h-23.7c0-12.2,2.8-24.5,8.2-35.4l2,1c-4.9,9.9-7.6,20.9-8,32
					l19.2,0.6c0.2-8.4,2.3-16.6,6-24.1L824.6,743.2z"/>
			</g>
			<g>
				<path class="st25" d="M835.5,722.8c-5.3,4.7-9.8,10.2-13.1,16.4l-13.6-7.5c4.8-8.8,11.4-16.7,19.3-23l1.4,1.7
					c-7,5.6-13,12.5-17.6,20.3l9.6,5.6c3-5.2,6.8-9.9,11.2-14l-1.1-1.2c-4,3.8-7.5,8-10.4,12.6l-6.5-4c4.3-6.8,9.7-13,16-18l1.4,1.7
					c-5.5,4.4-10.4,9.7-14.3,15.6l2.6,1.8c3.2-4.7,7-9,11.2-12.7L835.5,722.8z"/>
				<path class="st25" d="M840.1,723.9c-6.7,5.4-12.3,12.3-15.9,20.1l-21.4-10.1c5.2-11.1,13-20.9,22.6-28.5l1.4,1.7
					c-8.6,6.9-15.8,15.6-20.8,25.5l17.1,8.8c3.8-7.4,9.2-14,15.7-19.2L840.1,723.9z"/>
			</g>
		</g>
		<g>
			<g>
				<path class="st25" d="M859.6,709.8c-6.8,1.8-13.3,4.9-19,9l-9-12.7c8.2-5.8,17.6-10,27.5-12.1l0.5,2.2
					c-8.8,1.9-17.3,5.5-24.8,10.5l6.1,9.2c5-3.3,10.5-5.9,16.2-7.6l-0.5-1.5c-5.2,1.6-10.3,3.9-14.9,6.8l-4-6.5
					c6.8-4.3,14.4-7.4,22.3-9.1l0.5,2.2c-6.9,1.5-13.6,4.2-19.7,7.7l1.6,2.7c4.9-2.8,10.2-5,15.7-6.5L859.6,709.8z"/>
				<path class="st25" d="M863.2,712.9c-8.4,1.8-16.4,5.6-23.1,11l-14.8-18.5c9.5-7.6,20.9-13.1,32.8-15.7l0.5,2.2
					c-10.8,2.4-21.1,7.1-30,13.7l11.5,15.4c6.7-5,14.4-8.6,22.6-10.3L863.2,712.9z"/>
			</g>
			<g>
				<path class="st25" d="M886,708.6c-6.9-1.2-14.1-1.2-21,0l-2.7-15.3c9.9-1.7,20.2-1.5,30,0.8l-0.5,2.2c-8.8-2-17.9-2.4-26.8-1.1
					l1.6,11c5.9-0.8,12-0.8,17.9,0l0.2-1.6c-5.4-0.8-11-0.9-16.4-0.3l-0.9-7.6c8-0.9,16.2-0.5,24.1,1.3l-0.5,2.2
					c-6.9-1.6-14.1-2-21.1-1.4l0.3,3.2c5.7-0.4,11.4-0.2,17,0.8L886,708.6z"/>
				<path class="st25" d="M888,713c-8.4-1.9-17.3-1.9-25.7,0.1l-5.4-23c11.9-2.8,24.4-2.9,36.3-0.1l-0.5,2.2
					c-10.8-2.5-22.1-2.6-32.9-0.4l3.8,18.8c8.2-1.7,16.7-1.6,24.9,0.3L888,713z"/>
			</g>
		</g>
		<g>
			<g>
				<path class="st25" d="M911.2,719.4c-5.7-4.2-12.1-7.3-18.8-9.3l4.3-14.9c9.7,2.8,18.8,7.6,26.6,13.9l-1.4,1.7
					c-7-5.7-15-10.1-23.6-12.9l-3.4,10.5c5.7,1.8,11.1,4.5,16,7.9l0.9-1.3c-4.5-3.1-9.4-5.6-14.6-7.5l2.5-7.2
					c7.6,2.7,14.7,6.7,21,11.8l-1.4,1.7c-5.5-4.5-11.7-8.1-18.3-10.6l-1.2,3c5.3,2.1,10.3,4.9,14.8,8.2L911.2,719.4z"/>
				<path class="st25" d="M911,724.2c-6.7-5.4-14.6-9.3-23-11.2l5.2-23.1c11.9,2.7,23.2,8.2,32.7,15.9l-1.4,1.7
					c-8.6-7-18.7-12.1-29.4-14.9l-4.9,18.6c8.1,2.1,15.7,6,22.1,11.2L911,724.2z"/>
			</g>
			<g>
				<path class="st25" d="M928.6,739.3c-3.4-6.2-7.8-11.8-13.1-16.4l10.3-11.6c7.5,6.7,13.8,14.9,18.1,23.9l-2,1
					c-3.9-8.1-9.3-15.5-15.9-21.7l-7.6,8.1c4.4,4.1,8.1,8.8,11.1,14l1.4-0.8c-2.8-4.7-6.2-9.1-10-13l5.4-5.4
					c5.7,5.7,10.5,12.3,14,19.6l-2,1c-3.1-6.4-7.2-12.3-12.1-17.4l-2.3,2.2c3.9,4.1,7.2,8.8,9.9,13.7L928.6,739.3z"/>
				<path class="st25" d="M926.4,743.6c-3.7-7.8-9.3-14.7-16.1-20L925,705c9.6,7.5,17.5,17.3,22.8,28.3l-2,1
					c-4.8-10-11.8-18.9-20.2-26L913.2,723c6.4,5.4,11.7,12.1,15.3,19.6L926.4,743.6z"/>
			</g>
		</g>
		<g>
			<g>
				<path class="st25" d="M935.8,765.7c-0.3-7-1.8-14-4.5-20.5l14.4-5.9c3.8,9.3,5.8,19.4,5.7,29.5h-2.2c0.1-9-1.5-18-4.7-26.5
					l-10.4,3.9c2.1,5.6,3.4,11.5,3.8,17.5l1.6-0.1c-0.4-5.5-1.5-10.9-3.2-16.1l7.2-2.5c2.6,7.6,4,15.7,3.9,23.8h-2.2
					c0-7.1-1-14.2-3.1-21l-3,0.9c1.7,5.4,2.6,11.1,2.8,16.7L935.8,765.7z"/>
				<path class="st25" d="M932,768.6c0.1-8.7-1.8-17.3-5.6-25l21.3-10.3c5.3,11,8.1,23.3,7.9,35.5h-2.2c0.1-11-2.2-22.1-6.7-32.3
					l-17.6,7.8c3.4,7.6,5.1,15.9,5,24.3H932z"/>
			</g>
			<g>
				<path class="st25" d="M931.1,791.7c2.7-6.5,4.3-13.4,4.7-20.5l15.5,0.8c-0.5,10.1-3,20-7.4,29.1l-2-1c3.9-8.1,6.3-17,7-26
					l-11-0.9c-0.5,6-1.8,11.8-4,17.4l1.5,0.6c2-5.1,3.3-10.5,3.9-15.9l7.6,0.8c-0.9,8-3.1,15.9-6.6,23.2l-2-1
					c3.1-6.4,5.1-13.3,6.1-20.3l-3.2-0.4c-0.8,5.6-2.3,11.1-4.6,16.3L931.1,791.7z"/>
				<path class="st25" d="M926.4,792.7c3.7-7.8,5.7-16.4,5.6-25l23.7-0.2c0.1,12.2-2.6,24.5-7.9,35.5l-2-1c4.8-10,7.5-21,7.7-32
					l-19.2-0.4c-0.2,8.4-2.2,16.6-5.8,24.1L926.4,792.7z"/>
			</g>
		</g>
		<g>
			<g>
				<path class="st25" d="M915,813.9c5.3-4.6,9.8-10.2,13.3-16.3l13.6,7.6c-4.9,8.8-11.6,16.6-19.5,22.8l-1.4-1.7
					c7.1-5.6,13.1-12.4,17.8-20.2l-9.5-5.7c-3.1,5.1-6.9,9.8-11.3,13.9l1.1,1.2c4-3.7,7.6-8,10.5-12.6l6.4,4.1
					c-4.3,6.8-9.8,12.9-16.1,17.9l-1.4-1.7c5.6-4.4,10.5-9.6,14.4-15.5l-2.6-1.8c-3.2,4.7-7,8.9-11.3,12.7L915,813.9z"/>
				<path class="st25" d="M910.3,812.7c6.8-5.3,12.3-12.2,16.1-20l21.3,10.3c-5.3,11-13.2,20.8-22.8,28.3l-1.4-1.7
					c8.7-6.8,15.9-15.5,21-25.3l-17-8.9c-3.9,7.4-9.3,14-15.9,19.1L910.3,812.7z"/>
			</g>
			<g>
				<path class="st25" d="M891.7,826.4c6.8-1.9,13.2-5,18.9-9.1l9.1,12.6c-8.2,5.9-17.6,10.1-27.4,12.4l-0.5-2.2
					c8.8-2,17.2-5.6,24.7-10.7l-6.2-9.2c-5,3.3-10.4,6-16.1,7.7l0.5,1.5c5.2-1.6,10.2-4,14.9-6.9l4.1,6.4
					c-6.8,4.3-14.4,7.5-22.2,9.3L891,836c6.9-1.6,13.6-4.3,19.7-7.9l-1.6-2.7c-4.9,2.9-10.2,5.1-15.6,6.6L891.7,826.4z"/>
				<path class="st25" d="M888,823.4c8.4-1.9,16.3-5.8,23-11.2l14.9,18.4c-9.5,7.7-20.8,13.2-32.7,15.9l-0.5-2.2
					c10.8-2.4,21.1-7.3,29.9-14L911,815c-6.6,5.1-14.4,8.7-22.5,10.5L888,823.4z"/>
			</g>
		</g>
		<g>
			<g>
				<path class="st25" d="M864.3,827.6c6.9,1.3,14.1,1.3,21,0.2l2.5,15.3c-10,1.6-20.2,1.3-30-1l0.5-2.2c8.8,2.1,17.9,2.5,26.8,1.3
					l-1.5-11c-5.9,0.8-12,0.7-17.9-0.2l-0.2,1.6c5.4,0.8,10.9,1,16.4,0.4l0.8,7.6c-8,0.9-16.2,0.4-24.1-1.5l0.5-2.2
					c6.9,1.6,14.1,2.1,21.1,1.6l-0.2-3.2c-5.7,0.4-11.4,0.1-16.9-0.9L864.3,827.6z"/>
				<path class="st25" d="M862.4,823.3c8.4,2,17.3,2,25.7,0.1l5.2,23.1c-11.9,2.7-24.4,2.7-36.3-0.1l0.5-2.2
					c10.8,2.5,22.1,2.8,32.9,0.6l-3.7-18.9c-8.2,1.6-16.8,1.4-24.8-0.5L862.4,823.3z"/>
			</g>
			<g>
				<path class="st25" d="M840.1,817.2c5.7,4.1,12.1,7.2,18.9,9.1l-4.2,14.9c-9.7-2.7-18.9-7.4-26.7-13.7l1.4-1.7
					c7,5.6,15.1,9.9,23.7,12.7l3.3-10.6c-5.7-1.8-11.1-4.4-16.1-7.8l-0.9,1.3c4.5,3.1,9.5,5.5,14.6,7.4l-2.5,7.2
					c-7.6-2.6-14.8-6.6-21.1-11.6l1.4-1.7c5.6,4.4,11.8,8,18.4,10.5l1.1-3c-5.3-2-10.3-4.8-14.9-8.1L840.1,817.2z"/>
				<path class="st25" d="M840.1,812.4c6.7,5.4,14.7,9.2,23.1,11l-5.1,23.1c-12-2.6-23.3-8-32.8-15.7l1.4-1.7
					c8.6,6.9,18.8,12,29.5,14.7l4.7-18.6c-8.1-2-15.7-5.8-22.2-11L840.1,812.4z"/>
			</g>
		</g>
		<g>
			<g>
				<path class="st25" d="M822,796.6c3.3,6.2,7.7,11.8,13,16.6l-10.4,11.5c-7.5-6.7-13.6-15-17.9-24.1l2-0.9
					c3.8,8.2,9.2,15.6,15.7,21.8l7.7-8c-4.3-4.1-8.1-8.9-11-14.1l-1.4,0.8c2.7,4.7,6.1,9.2,9.9,13.1l-5.4,5.4
					c-5.7-5.7-10.4-12.4-13.9-19.7l2-1c3,6.4,7.1,12.3,11.9,17.5l2.3-2.2c-3.8-4.2-7.2-8.8-9.8-13.8L822,796.6z"/>
				<path class="st25" d="M824.2,792.3c3.7,7.8,9.2,14.7,15.9,20.1l-14.8,18.5c-9.6-7.6-17.3-17.4-22.6-28.5l2-0.9
					c4.7,10,11.6,19,20,26.1l12.5-14.6c-6.4-5.4-11.6-12.2-15.1-19.7L824.2,792.3z"/>
			</g>
			<g>
				<path class="st25" d="M815,771.1c0.3,7,1.9,14,4.6,20.5l-14.3,6c-3.9-9.3-5.9-19.4-5.9-29.5h2.2c0,9,1.6,18,4.9,26.4l10.3-4
					c-2.1-5.6-3.5-11.5-3.9-17.4l-1.6,0.1c0.4,5.5,1.6,10.9,3.4,16l-7.2,2.6c-2.7-7.6-4.1-15.7-4.1-23.8h2.2
					c0,7.1,1.1,14.2,3.3,20.9l3-1c-1.7-5.4-2.7-11-3-16.7L815,771.1z"/>
				<path class="st25" d="M818.8,768.2c0,8.7,2,17.2,5.8,25l-21.2,10.5c-5.4-11-8.2-23.2-8.2-35.4h2.2c0,11,2.4,22.1,6.9,32.2
					l17.5-7.9c-3.5-7.6-5.2-15.9-5.2-24.3L818.8,768.2L818.8,768.2z"/>
			</g>
		</g>
	</g>
	<rect x="872.1" y="321.9" class="st24" width="78" height="115"/>
	<polygon class="st24" points="950.1,361.9 912.1,361.9 912.1,416.9 892.1,416.9 892.1,341.9 950.1,341.9 	"/>
</g>
<g id="图层_7" class="st0">
</g>
<g id="图层_6" class="st0">
	<g class="st1">
		<rect x="387.8" y="859" class="st26" width="300" height="300"/>
		<polygon points="678.2,907.3 663.6,907.3 663.6,883.1 639.4,883.1 639.4,868.6 678.2,868.6 		"/>
		<rect x="639.4" y="892.8" width="14.5" height="14.5"/>
		<rect x="639.4" y="965.4" width="14.5" height="87.1"/>
		<rect x="421.7" y="965.4" width="14.5" height="87.1"/>
		<rect x="445.9" y="917" width="14.5" height="14.5"/>
		<rect x="494.3" y="892.8" width="87.1" height="14.5"/>
		<rect x="615.3" y="917" width="14.5" height="14.5"/>
		<rect x="639.4" y="917" width="14.5" height="14.5"/>
		<rect x="615.3" y="892.8" width="14.5" height="14.5"/>
		<polygon points="605.6,883.1 605.6,907.3 591.1,907.3 591.1,883.1 484.6,883.1 484.6,907.3 470.1,907.3 470.1,883.1 445.9,883.1 
			445.9,868.6 629.8,868.6 629.8,883.1 		"/>
		<rect x="445.9" y="892.8" width="14.5" height="14.5"/>
		<rect x="421.7" y="892.8" width="14.5" height="14.5"/>
		<rect x="421.7" y="917" width="14.5" height="14.5"/>
		<polygon points="436.2,941.2 436.2,955.7 412,955.7 412,1062.2 436.2,1062.2 436.2,1076.7 412,1076.7 412,1100.9 397.5,1100.9 
			397.5,917 412,917 412,941.2 		"/>
		<polygon points="639.4,1076.7 639.4,1062.2 663.6,1062.2 663.6,955.7 639.4,955.7 639.4,941.2 663.6,941.2 663.6,917 678.2,917 
			678.2,1100.9 663.6,1100.9 663.6,1076.7 		"/>
		<polygon points="436.2,868.6 436.2,883.1 412,883.1 412,907.3 397.5,907.3 397.5,868.6 		"/>
		<path d="M490.4,1102.9l-46.5-46.5v-42.2h14.3v34.1l40.3,40.3h34.1v14.3L490.4,1102.9L490.4,1102.9z M543.1,1032.8h18.6v-18.6h17.4
			v20.5l-15.5,15.5h-20.5V1032.8z M524.5,1022.3v-8.1h8.1v8.1H524.5z M543.1,1014.2h8.1v8.1h-8.1V1014.2z M524.5,1003.7v-8.1h8.1
			v8.1H524.5z M543.1,1003.7v-8.1h8.1v8.1H543.1z M561.7,1003.7v-18.6h-18.6v-17.4h20.5l15.5,15.5v20.5H561.7z M532.6,985.1H514
			v18.6h-17.4v-20.5l15.5-15.5h20.5V985.1z M514,1014.2v18.6h18.6v17.4h-20.5l-15.5-15.5v-20.5L514,1014.2L514,1014.2z
			 M567.9,1060.7l21.7-21.7v-24.8H607v29.8l-34.1,34.1h-29.8v-17.4H567.9L567.9,1060.7z M589.6,1003.7v-24.8l-21.7-21.7h-24.8v-17.4
			h29.8l34.1,34.1v29.8L589.6,1003.7L589.6,1003.7z M532.6,957.2h-24.8l-21.7,21.7v24.8h-17.4v-29.8l34.1-34.1h29.8V957.2z
			 M486.1,1014.2v24.8l21.7,21.7h24.8v17.4h-29.8l-34.1-34.1v-29.8H486.1z M631.8,1056.4l-46.5,46.5h-42.2v-14.3h34.1l40.3-40.3
			v-34.1h14.3L631.8,1056.4L631.8,1056.4z M585.3,915l46.5,46.5v42.2h-14.3v-34.1l-40.3-40.3h-34.1V915H585.3z M443.9,961.5
			l46.5-46.5h42.2v14.3h-34.1l-40.3,40.3v34.1h-14.3V961.5z"/>
	</g>
	<g class="st1">
		
			<radialGradient id="SVGID_19_" cx="555.4749" cy="972.1249" r="103.4357" gradientTransform="matrix(0.9508 0 0 0.9508 24.6045 -463.0463)" gradientUnits="userSpaceOnUse">
			<stop  offset="0" style="stop-color:#F9AE3B"/>
			<stop  offset="1" style="stop-color:#EB1C24"/>
		</radialGradient>
		<path class="st27" d="M538.2,400.7c-8.3-5.2-16.6-10.3-24.8-15.5c17.5-10.1,35-20.1,52.4-30.2c25.5,14.2,51.1,28.5,76.6,42.7
			c0,29.3,0,58.7,0.1,88c-47.6,27.3-95.2,54.5-142.8,81.8c-12.2-7-24.4-14.1-36.7-21.1c0-10,0-20,0.1-30c12.3,6.9,24.7,13.8,37,20.7
			c38.7-22.2,77.4-44.4,116.1-66.6c-0.1-19.2-0.2-38.4-0.3-57.5c-16.1-9.2-32.3-18.5-48.4-27.7C557.7,390.4,547.9,395.6,538.2,400.7
			z"/>
		
			<radialGradient id="SVGID_20_" cx="555.4749" cy="972.1249" r="98.217" gradientTransform="matrix(0.9508 0 0 0.9508 24.6045 -463.0463)" gradientUnits="userSpaceOnUse">
			<stop  offset="0" style="stop-color:#F9AE3B"/>
			<stop  offset="1" style="stop-color:#EB1C24"/>
		</radialGradient>
		<polygon class="st28" points="467.6,543.7 467.6,524.2 500.1,542.4 620.8,473.2 620.4,410.3 567.5,380 538.4,395.4 522.3,385.4 
			565.8,360.3 637.8,400.4 637.9,483.1 499.7,562.2 		"/>
		
			<radialGradient id="SVGID_21_" cx="465.0773" cy="945.3054" r="101.0194" gradientTransform="matrix(0.9508 0 0 0.9508 24.6045 -463.0463)" gradientUnits="userSpaceOnUse">
			<stop  offset="0" style="stop-color:#F9AE3B"/>
			<stop  offset="1" style="stop-color:#EB1C24"/>
		</radialGradient>
		<path class="st29" d="M576.1,436.5c-48-27.1-96.1-54.3-144.1-81.4c-24.8,14.2-49.6,28.4-74.4,42.7c0,29.3,0,58.7-0.1,88
			c17.9,10.2,35.9,20.4,53.8,30.6c0.3-9.9,0.6-19.8,0.8-29.7c-9.4-5.4-18.9-10.8-28.3-16.3c0-19.1,0-38.3-0.1-57.4
			c16.3-9.4,32.5-18.8,48.8-28.2c39,22.4,77.9,44.7,116.9,67.1c0.1,14.1,0.2,28.3,0.3,42.4c8.8-5.1,17.5-10.2,26.3-15.3
			C576.1,464.8,576.1,450.6,576.1,436.5z"/>
		
			<radialGradient id="SVGID_22_" cx="465.0773" cy="943.9907" r="95.3931" gradientTransform="matrix(0.9508 0 0 0.9508 24.6045 -463.0463)" gradientUnits="userSpaceOnUse">
			<stop  offset="0" style="stop-color:#F9AE3B"/>
			<stop  offset="1" style="stop-color:#EB1C24"/>
		</radialGradient>
		<polygon class="st30" points="362.1,483 362.2,400.4 432,360.4 571.5,439.2 571.5,476.3 554.3,486.3 554,449.2 432.6,379.4 
			379.2,410.3 379.3,473 407.5,489.2 407,508.6 		"/>
		
			<radialGradient id="SVGID_23_" cx="499.7323" cy="1044.6427" r="102.3286" gradientTransform="matrix(0.9508 0 0 0.9508 24.6045 -463.0463)" gradientUnits="userSpaceOnUse">
			<stop  offset="0" style="stop-color:#F9AE3B"/>
			<stop  offset="1" style="stop-color:#EB1C24"/>
		</radialGradient>
		<path class="st31" d="M487.6,430.1c-12.2,7.1-24.4,14.2-36.7,21.4c0,45,0,90.1,0,135.1c16.5,9.3,33.1,18.5,49.6,27.8
			c16.4-9.4,32.9-18.9,49.3-28.3c0.1-11.1,0.2-22.1,0.3-33.2c8.5-4.8,17-9.6,25.5-14.4c-0.2,21-0.5,42.1-0.7,63.1
			c-25,14.5-50.1,29-75.1,43.4c-25.3-14.6-50.6-29.2-75.9-43.8c0.1-54.9,0.2-109.7,0.3-164.6c12.4-7.1,24.9-14.2,37.3-21.2
			C470.2,420.3,478.9,425.2,487.6,430.1z"/>
		
			<radialGradient id="SVGID_24_" cx="499.6797" cy="1044.6427" r="97.1363" gradientTransform="matrix(0.9508 0 0 0.9508 24.6045 -463.0463)" gradientUnits="userSpaceOnUse">
			<stop  offset="0" style="stop-color:#F9AE3B"/>
			<stop  offset="1" style="stop-color:#EB1C24"/>
		</radialGradient>
		<polygon class="st32" points="428.5,598.6 428.9,439.3 461.6,420.7 478.3,430.2 446.3,448.8 446.3,589.2 500.5,619.6 554.4,588.8 
			554.7,555.6 570.9,546.4 570.3,598.9 499.8,639.7 		"/>
	</g>
	<polygon class="st24" points="500,330 370.1,405 370.1,555 500,630 629.9,555 629.9,405 	"/>
	<polygon class="st24" points="500,280 326.8,380 326.8,580 500,680 673.2,580 673.2,380 	"/>
	<polygon class="st24" points="500,230 283.5,355 283.5,605 500,730 716.5,605 716.5,355 	"/>
</g>
<g>
	<g>
		<path d="M546.2,464.2c-10-6.3-20-12.5-30.1-18.8c21.2-12.2,42.3-24.4,63.5-36.6c30.9,17.3,61.9,34.5,92.8,51.8
			c0,35.5,0.1,71,0.1,106.6c-57.7,33-115.3,66-173,99c-14.8-8.5-29.6-17-44.4-25.5c0-12.1,0.1-24.2,0.1-36.4
			c14.9,8.4,29.9,16.8,44.8,25.1c46.9-26.9,93.8-53.8,140.6-80.7c-0.1-23.2-0.3-46.5-0.4-69.7c-19.5-11.2-39.1-22.4-58.6-33.6
			C569.9,451.7,558.1,458,546.2,464.2z"/>
		<polygon points="460.8,637.5 460.8,613.8 500.1,635.8 646.3,552 645.9,475.8 581.8,439.1 546.5,457.8 527,445.7 579.7,415.3 
			666.9,463.9 667,564 499.6,659.8 		"/>
		<path d="M592.1,507.6C534,474.7,475.8,441.8,417.6,409c-30,17.2-60,34.5-90.1,51.7c0,35.5-0.1,71-0.1,106.6
			c22.1,12.4,44.1,24.8,66.2,37.3c0-12.1,0-24.1,0-36.2c-11.4-6.6-22.8-13.1-34.3-19.7c0-23.2-0.1-46.4-0.1-69.5
			c19.7-11.4,39.4-22.8,59.1-34.2c47.2,27.1,94.4,54.2,141.6,81.3c0.1,17.1,0.3,34.2,0.4,51.4c10.6-6.2,21.2-12.3,31.8-18.5
			C592.1,541.8,592.1,524.7,592.1,507.6z"/>
		<polygon points="333,564 333.1,463.9 417.6,415.4 586.6,510.8 586.6,555.8 565.8,567.9 565.4,522.9 418.3,438.5 353.7,475.9 
			353.8,551.8 388,571.5 387.3,594.9 		"/>
		<path d="M484.9,499.9c-14.8,8.6-29.6,17.3-44.4,25.9c0,54.5,0,109.1,0,163.6c20,11.2,40,22.4,60.1,33.7
			c19.9-11.4,39.8-22.8,59.7-34.3c0.1-13.4,0.3-26.8,0.4-40.2c10.3-5.8,20.6-11.6,30.8-17.4c-0.3,25.5-0.6,50.9-0.8,76.4
			c-30.3,17.5-60.6,35.1-91,52.6c-30.6-17.7-61.3-35.4-91.9-53c0.1-66.5,0.3-132.9,0.4-199.4c15.1-8.6,30.1-17.1,45.2-25.7
			C463.9,488,474.4,493.9,484.9,499.9z"/>
		<polygon points="413.4,703.9 413.8,511 453.4,488.4 473.8,499.9 435,522.5 435,692.6 500.6,729.4 565.8,692 566.3,651.8 
			585.9,640.7 585.2,704.3 499.7,753.7 		"/>
	</g>
	<path d="M553.3,138.3c1,10.1,1.8,32.6-9.5,57.4c-12.6,27.6-32.9,42.2-41.4,47.7c-1.5-0.5-27.6-9.5-48.1,7.3
		c-13.3,10.9-16.1,26-16.7,30.1c-5.9,2.2-37.2,14.6-47.9,46.1c-3.1,9.3-3.7,17.8-3.4,24.7c3.2-6.8,9.5-17.7,21-27.8
		c13.7-12.1,28-16.8,35.6-18.8c3.3,2.7,18.4,14.2,39.2,12.1c19.6-2,36.7-15.4,44.7-34.6c2.5,0.3,29.5,4.3,40.1,26.8
		c10.3,21.9-3.3,44.1-8.4,52.4c-18.1,29.4-51.2,35.9-58.3,37.1c-21.6,0-43.2,0-64.7,0c21.6,12.5,43.2,24.9,64.7,37.4
		c21.1-12.2,42.3-24.4,63.4-36.6c37.8-24.2,52.7-68,38.9-101.3c-13.3-31.8-47.7-41.8-52.7-43.2c2.8-0.1,22.1-1.4,34.4-17.6
		c10.5-13.9,11.7-33.2,3.2-49.5c-1,6.7-4.2,22.6-17,37.1c-18,20.2-41.7,22.9-47.3,23.4c7-2.6,30.3-12.1,39.4-35.1
		c4.1-10.2,3.9-19.5,3.7-27.8C565.3,164.4,558.4,148,553.3,138.3z"/>
	<path d="M159.6,171.5c-15.9,19.4-64.9,84.1-52.7,164.7c4.2,27.7,16,48.7,16,48.7l0,0c10.3,20.7,42.4,47.1,97.5,79.5
		c-12.9-0.2-24,6.6-27.8,16.6c-4.8,12.5,4.4,24.7,5.8,26.5c14.1,17.9,45.2,16.6,64.2,10.3c32.8-10.8,46.2-41.8,48.6-47.8
		c0,35.2,0,70.3,0,105.5c27.5,15.9,54.9,31.7,82.4,47.6c-22.7,7.6-92,27.3-173.7,0.3c-90.2-29.9-135.3-97-147.2-116.1
		c14,12.3,32.8,26.4,56.7,38.6c12.7,6.5,24.9,11.5,35.9,15.3c-18-10.4-48.9-31.3-75.4-68.3c-25.6-35.8-35.6-70.5-39.9-90.7
		c6.3,10,14.1,21,23.7,32.4c8,9.5,15.9,17.8,23.4,24.8C86.2,438.8,67,395.8,70.2,339.9C75.8,241,146.8,181.8,159.6,171.5z"/>
	<path d="M840.4,171.5c6.5,6.8,72.6,78.8,52.7,164.7c-10.4,44.8-40.1,76-48,84.1c-24.1,24.7-49.6,37.6-65.5,44.1
		c12.9-0.2,24,6.6,27.8,16.6c4.8,12.5-4.4,24.7-5.8,26.5c-14.1,17.9-45.2,16.6-64.2,10.3C704.6,507,691.2,476,688.8,470
		c0,35.2,0,70.3,0,105.5c-27.5,15.9-54.9,31.7-82.4,47.6c22.7,7.6,92,27.3,173.7,0.3c90.2-29.9,135.3-97,147.2-116.1
		c-14,12.3-32.8,26.4-56.7,38.6c-12.7,6.5-24.9,11.5-35.9,15.3c18-10.4,48.9-31.3,75.4-68.3c25.6-35.8,35.6-70.5,39.9-90.7
		c-6.3,10-14.1,21-23.7,32.4c-8,9.5-15.9,17.8-23.4,24.8c10.9-20.5,30.1-63.6,26.9-119.5C924.2,241,853.2,181.8,840.4,171.5z"/>
	<path d="M214.1,660.4c11.1,30.8,36.3,86.9,91.9,132.5c89.3,73.2,224.5,92.7,334.1,35.9C738,778,775.8,687.2,785.9,660.4
		c-18.2,7.5-48.4,17.2-86.8,17.8c-40.8,0.6-72.8-9.3-91.5-16.7c0,12.1,0,24.2,0,36.3c86.1,8,104.2,22.2,105.9,33.2
		c4.6,30.6-108.7,97.1-215,73.6c-60.9-13.5-100.4-52.3-117.5-71.5c1.1,6.7,3.2,14.7,6.9,23.4c8.5,19.6,21.4,32.1,29.6,38.9
		c-16.1-8.9-35.7-21.7-55.7-39.8c-25.5-23.1-42.7-46.7-53.9-65c1.8,14.9,6.4,37.8,19.7,62.4c9.6,17.8,20.7,30.9,29.6,39.9
		c-21.6-11.8-48-28.9-75-53.1C250.8,711.6,228.9,683,214.1,660.4z"/>
</g>
</svg>
