<?xml version="1.0" encoding="UTF-8"?>
<!DOCTYPE svg PUBLIC "-//W3C//DTD SVG 1.1//EN" "http://www.w3.org/Graphics/SVG/1.1/DTD/svg11.dtd">
<svg xmlns="http://www.w3.org/2000/svg" version="1.1" width="614px" height="328px" style="shape-rendering:geometricPrecision; text-rendering:geometricPrecision; image-rendering:optimizeQuality; fill-rule:evenodd; clip-rule:evenodd" xmlns:xlink="http://www.w3.org/1999/xlink">
<g><path style="opacity:0.98" fill="#fefffe" d="M 2.5,-0.5 C 3.16667,-0.5 3.83333,-0.5 4.5,-0.5C 23.0891,20.7966 44.7558,38.2966 69.5,52C 107.124,71.7638 146.791,85.7638 188.5,94C 198.918,121.746 214.918,145.746 236.5,166C 245.012,173.257 254.678,178.423 265.5,181.5C 266.772,181.43 267.938,181.097 269,180.5C 273.426,166.376 277.092,152.043 280,137.5C 280.504,133.98 282.337,131.48 285.5,130C 298.5,129.333 311.5,129.333 324.5,130C 328.443,131.61 331.443,134.277 333.5,138C 338.75,139.174 344.084,139.841 349.5,140C 353.734,141.399 356.4,144.232 357.5,148.5C 357.471,150.029 356.804,151.196 355.5,152C 348.697,153.487 342.197,155.653 336,158.5C 336.34,165.882 337.34,173.215 339,180.5C 340.062,181.899 341.395,182.899 343,183.5C 370.526,171.978 391.859,153.312 407,127.5C 412.585,117.919 417.252,107.919 421,97.5C 422.167,96.3333 423.333,95.1667 424.5,94C 450.088,87.6025 475.421,80.2691 500.5,72C 535.801,59.2801 566.968,40.1134 594,14.5C 597.309,8.69079 601.809,4.02412 607.5,0.5C 608.902,0.865487 609.902,1.69882 610.5,3C 611.574,6.27385 612.574,9.44051 613.5,12.5C 613.5,20.8333 613.5,29.1667 613.5,37.5C 596.811,57.329 576.478,72.4957 552.5,83C 543.803,86.4924 535.136,89.6591 526.5,92.5C 526.709,93.086 527.043,93.586 527.5,94C 535.167,94.6667 542.833,94.6667 550.5,94C 565.801,92.5063 580.801,89.8397 595.5,86C 596.709,89.0254 596.209,91.8587 594,94.5C 589.87,101.261 585.37,107.761 580.5,114C 576.928,116.637 572.928,118.303 568.5,119C 545.008,123.144 521.508,123.644 498,120.5C 495.906,120.536 493.906,120.869 492,121.5C 491.493,122.996 491.993,124.163 493.5,125C 510.552,133.684 528.552,139.351 547.5,142C 548.76,143.814 548.76,145.647 547.5,147.5C 539.879,154.642 531.546,160.809 522.5,166C 505.9,167.559 490.733,163.725 477,154.5C 474.686,156.369 474.353,158.369 476,160.5C 478.333,163.5 480.667,166.5 483,169.5C 487.634,173.132 491.967,177.132 496,181.5C 496.825,183.701 496.325,185.534 494.5,187C 487.342,190.412 480.342,194.078 473.5,198C 466.861,200.336 460.528,199.67 454.5,196C 448.709,191.878 443.209,187.378 438,182.5C 435.632,184.684 434.965,187.351 436,190.5C 438.932,197.131 441.766,203.798 444.5,210.5C 444.124,212.383 443.124,213.883 441.5,215C 404.631,236.929 368.964,260.596 334.5,286C 324.992,294.011 315.658,302.178 306.5,310.5C 264.716,273.26 219.049,241.426 169.5,215C 167.643,213.818 166.643,212.151 166.5,210C 170.102,205.705 172.935,200.872 175,195.5C 175.521,192.081 176.355,188.748 177.5,185.5C 177.135,184.098 176.301,183.098 175,182.5C 169.89,185.939 165.057,189.772 160.5,194C 153.01,199.77 145.01,200.77 136.5,197C 129.753,193.545 123.253,189.711 117,185.5C 116.333,184.167 116.333,182.833 117,181.5C 124.073,175.098 130.406,168.098 136,160.5C 137.009,158.975 137.509,157.308 137.5,155.5C 135.801,155.34 134.134,155.506 132.5,156C 121.38,162.04 109.547,165.873 97,167.5C 92.5889,167.128 88.4223,165.962 84.5,164C 77.6435,158.309 70.6435,152.809 63.5,147.5C 62.2404,145.647 62.2404,143.814 63.5,142C 81.6087,139.805 98.9421,134.805 115.5,127C 118.109,126.057 120.109,124.39 121.5,122C 119.712,120.912 117.712,120.412 115.5,120.5C 92.0875,123.456 68.7541,122.956 45.5,119C 40.1082,117.47 35.1082,115.137 30.5,112C 24.4672,104.265 19.4672,95.9312 15.5,87C 23.6134,87.3577 31.6134,88.6911 39.5,91C 54.1155,93.0261 68.7822,94.0261 83.5,94C 84.6721,93.5814 85.6721,92.9147 86.5,92C 54.8073,83.2768 27.3073,67.4435 4,44.5C 2.21166,42.24 0.711662,39.9066 -0.5,37.5C -0.5,28.1667 -0.5,18.8333 -0.5,9.5C 0.86993,6.38105 1.86993,3.04772 2.5,-0.5 Z M 303.5,140.5 C 308.566,140.34 313.566,140.84 318.5,142C 321.167,143.333 323.167,145.333 324.5,148C 318.325,150.917 311.992,151.25 305.5,149C 303.283,147.732 301.283,146.232 299.5,144.5C 300.549,142.784 301.882,141.451 303.5,140.5 Z"/></g>
<g><path style="opacity:0.953" fill="#fefffe" d="M 263.5,64.5 C 272.592,65.7433 279.425,70.4099 284,78.5C 285.301,80.3646 285.635,82.3646 285,84.5C 270.973,89.7355 257.14,95.5689 243.5,102C 232.923,108.463 223.257,116.13 214.5,125C 213.167,125.667 211.833,125.667 210.5,125C 207.583,119.253 205.25,113.253 203.5,107C 206.783,96.3796 213.116,88.0463 222.5,82C 235.059,73.3825 248.725,67.5491 263.5,64.5 Z"/></g>
<g><path style="opacity:0.952" fill="#fefffe" d="M 351.5,65.5 C 359.961,64.5985 367.961,66.0985 375.5,70C 386.869,74.715 397.203,81.0483 406.5,89C 410.254,93.1736 413.254,97.8403 415.5,103C 413.208,109.918 409.875,116.252 405.5,122C 404.5,122.667 403.5,122.667 402.5,122C 384.283,104.052 362.616,92.052 337.5,86C 336.106,85.044 335.439,83.7106 335.5,82C 338.328,74.0058 343.662,68.5058 351.5,65.5 Z"/></g>
<g><path style="opacity:0.925" fill="#fefffe" d="M 305.5,96.5 C 340.684,96.0123 370.518,108.346 395,133.5C 395.832,139.999 392.999,143.499 386.5,144C 378.833,137.667 371.167,131.333 363.5,125C 352.173,117.891 339.84,113.557 326.5,112C 287.404,106.468 255.404,118.801 230.5,149C 224.752,150.126 221.419,147.792 220.5,142C 220.993,139.181 222.16,136.681 224,134.5C 246.11,110.86 273.276,98.1936 305.5,96.5 Z"/></g>
<g><path style="opacity:0.924" fill="#fefffe" d="M 322.5,327.5 C 314.833,327.5 307.167,327.5 299.5,327.5C 250.901,320.746 217.734,294.413 200,248.5C 199.744,245.443 199.244,242.443 198.5,239.5C 204.385,239.189 209.218,241.522 213,246.5C 218.83,257.497 225.163,268.164 232,278.5C 274.484,320.468 320.984,325.635 371.5,294C 389.632,279.257 402.465,260.757 410,238.5C 413.254,235.465 417.087,233.465 421.5,232.5C 422.647,234.765 422.814,237.098 422,239.5C 415.821,266.331 401.654,287.831 379.5,304C 362.513,316.831 343.513,324.664 322.5,327.5 Z"/></g>
</svg>
