<?xml version="1.0" standalone="no"?>
<!DOCTYPE svg PUBLIC "-//W3C//DTD SVG 20010904//EN"
 "http://www.w3.org/TR/2001/REC-SVG-20010904/DTD/svg10.dtd">
<svg version="1.0" xmlns="http://www.w3.org/2000/svg"
 width="1251.000000pt" height="1251.000000pt" viewBox="0 0 1251.000000 1251.000000"
 preserveAspectRatio="xMidYMid meet">

<g transform="translate(0.000000,1251.000000) scale(0.100000,-0.100000)"
fill="#000000" stroke="none">
<path d="M1382 10840 c3 -8 171 -352 373 -765 l367 -750 426 -207 c235 -114
428 -205 430 -203 6 6 -679 1308 -697 1326 -9 9 -203 143 -431 296 -512 345
-475 322 -468 303z"/>
<path d="M10668 10547 l-447 -302 -349 -665 c-192 -366 -348 -666 -347 -668 1
-1 195 91 431 205 l428 208 354 720 c378 770 395 805 384 804 -4 0 -208 -136
-454 -302z"/>
<path d="M2993 9744 c35 -70 487 -1062 487 -1070 0 -5 537 -269 1194 -588
l1193 -579 36 -81 c80 -178 88 -223 126 -721 49 -626 85 -1493 111 -2615 12
-514 30 -1730 30 -2028 l0 -203 83 3 82 3 7 330 c30 1500 39 1849 63 2670 27
888 59 1612 90 2035 24 320 31 358 107 521 l40 87 1187 577 1188 576 252 551
c139 302 251 551 249 553 -2 2 -576 -384 -1277 -856 l-1274 -859 -714 0 -714
0 -1271 858 c-700 471 -1276 859 -1281 861 -5 2 -2 -10 6 -25z"/>
<path d="M2714 8119 c84 -180 317 -649 321 -649 4 0 171 -49 686 -201 l67 -19
181 -316 c100 -174 180 -318 178 -320 -2 -2 -180 46 -396 107 -216 61 -395
109 -397 106 -3 -3 60 -137 139 -299 l143 -294 387 -34 386 -33 166 -290 c91
-160 164 -291 163 -292 -2 -1 -149 4 -328 11 -179 7 -358 13 -397 13 l-73 1
102 -205 c78 -154 107 -205 121 -205 19 0 1657 247 1694 255 19 4 21 10 16 43
-3 20 -8 39 -10 41 -2 3 -215 12 -473 21 -259 10 -473 19 -475 22 -12 12 -254
552 -250 556 4 4 965 -76 1133 -95 l52 -6 0 46 0 46 -67 20 c-38 11 -342 97
-678 191 -335 95 -613 175 -616 178 -18 19 -275 602 -265 602 6 0 368 -105
804 -234 l792 -233 0 67 0 66 -37 18 c-46 22 -3083 1396 -3101 1403 -7 3 7
-37 32 -88z"/>
<path d="M8260 7501 l-1565 -709 -8 -38 c-4 -22 -7 -53 -5 -70 l3 -31 798 234
c439 129 801 233 803 230 3 -2 -57 -139 -131 -304 l-136 -299 -672 -189 c-370
-103 -678 -193 -684 -198 -17 -12 -17 -87 -1 -87 7 0 267 23 578 50 311 28
574 50 586 48 19 -3 11 -25 -102 -273 -68 -148 -124 -274 -126 -279 -2 -4
-220 -16 -483 -26 -264 -10 -481 -19 -483 -19 -2 -1 -2 -20 0 -43 l3 -42 840
-127 c462 -71 851 -128 865 -128 23 0 34 18 123 201 53 111 95 203 93 206 -3
2 -179 -3 -393 -10 -213 -8 -390 -13 -392 -12 -2 2 71 132 162 291 l164 288
386 35 386 35 146 295 c80 162 142 296 137 298 -5 1 -184 -47 -398 -107 -214
-60 -390 -108 -392 -106 -2 2 76 144 174 316 151 264 183 314 209 324 16 7
188 59 381 115 l351 102 181 369 c99 203 177 369 174 369 -4 -1 -711 -320
-1572 -709z"/>
<path d="M5181 4709 c-376 -114 -686 -210 -688 -213 -5 -5 130 -276 138 -276
3 0 289 139 635 308 l629 309 3 41 c3 35 0 42 -15 41 -10 -1 -326 -95 -702
-210z"/>
<path d="M6608 4883 c-3 -21 -4 -39 -3 -41 5 -6 1266 -622 1273 -622 7 0 144
280 137 280 -2 0 -315 95 -696 210 -381 116 -695 210 -699 210 -5 0 -10 -17
-12 -37z"/>
</g>
</svg>
