<svg version="1.0" xmlns="http://www.w3.org/2000/svg" width="800" height="53.333" viewBox="0 0 600 40"><path d="m302.1 11.5-3.3 7.4 3.3 8.6c1.9 4.7 3.7 8.5 4 8.5.6 0 6.9-15.5 6.9-17.1 0-1.5-6.2-14.9-7-14.9-.3 0-2.1 3.4-3.9 7.5z"/><path d="M294.9 10.3c-2.5 2.9-2.6 2.9-5.7 1.3-5.3-2.7-9.9-1.9-14.9 2.7l-2.2 2-3-2.5c-3.8-3.2-10-4.1-17.1-2.5l-5.5 1.3 8-.1c6.7 0 8.6.4 11.8 2.3 2 1.3 3.7 2.7 3.7 3.2s-1.5 1.9-3.2 3.2c-2.9 2-4.5 2.3-12 2.3-9.5 0-8.5 1.3 1.7 2.1 5.1.5 6.7.2 10.9-2l4.9-2.5 3.6 2.5c3.9 2.6 9.4 3.1 13.6 1.2 2.3-1 2.9-.8 6.3 2.3l3.7 3.4-3.4-3.7c-3-3.3-3.3-3.9-2-5.5 1.3-1.6 1.2-1.7-.3-.5-1.3 1.1-2.1 1-4.9-.7l-3.2-2 3.4-1.7c3.1-1.5 9.7-8.1 8.8-8.8-.2-.1-1.5 1.1-3 2.7zm-5 2.6c1.1.7.7 1.4-2 3-1.9 1.2-3.8 2.1-4.4 2.1-.5 0 .5.8 2.4 1.8 4.7 2.3 5 3.9.8 4.7-3.9.8-8-.9-11.2-4.5l-2-2.2 3.5-2.9c3.5-3 9.8-3.9 12.9-2zM315.5 9.2c1 1.6 2.2 2.8 2.7 2.8.6 0 .8.9.5 2.1-.4 1.4-.2 1.7.6 1 .8-.6 2.1-.2 4 1.3l2.8 2.3-2.6 1.7c-1.4.9-3.1 1.4-3.7 1-.6-.4-.8-.3-.5.3.4.5-.7 2.3-2.3 3.8-1.7 1.6-3 3.3-3 3.9 0 .5 1.6-.5 3.5-2.4 3.1-3 3.7-3.2 6-2.2 5.1 2.3 12.1.8 15.5-3.3 1.2-1.4 1.5-1.4 3.4.4 4.5 4.2 11.2 5.1 20.1 2.7l5-1.4-7.7.6c-6.5.4-8.3.2-12.3-1.8-5.7-2.8-5.6-4.7.5-7.8 3.7-1.9 5.5-2.3 10.5-1.8 3.3.3 7.1.8 8.5 1.1 2.3.5 2.3.5.3-.4-1.2-.6-4.9-1.5-8.2-2.1-6.8-1.2-12.4-.2-16.2 2.9-2.3 1.8-2.4 1.8-5.5-.6-4.2-3.1-9.1-3.9-13.6-2-3.5 1.5-3.6 1.4-6.8-1.7-3.1-3-3.2-3-1.5-.4zm19 4.8c4.3 2.7 4.8 4.3 2.2 6.8-3.1 2.9-7.6 4.4-10.9 3.7-4.3-1-4.3-2.4.1-4.3l4-1.8-3.9-1.8c-2.2-1-4-2.1-4-2.6 0-2.6 8.4-2.5 12.5 0zM11 16.2l-4.5 2 4.5 2c4.2 1.9 4.8 1.9 9 .5 3.9-1.4 16.7-1.6 107.8-1.7 56.9 0 104-.4 104.8-.8.7-.4-45.1-.6-101.7-.4C55.3 18 28 17.7 28 16.9c0-.7-.9-.9-2.5-.5-1.5.4-3.7 0-5.5-.9-3.5-1.8-3.4-1.8-9 .7zM578 15.5c-1.4.8-3.7 1.2-5.2.9-1.7-.3-2.8-.1-2.8.5 0 .8-26.8 1.1-95.5.9-52.4-.2-95.1 0-94.7.4.4.4 44.2.8 97.3.8 84.7.1 97 .3 100.9 1.7 4.2 1.4 4.8 1.4 9-.5l4.5-2-4.8-2.1c-5.7-2.5-5.5-2.4-8.7-.6z"/></svg>